<svg xmlns="http://www.w3.org/2000/svg" width="100" height="99.998" viewBox="0 0 100 99.998">
  <g id="close-circle" transform="translate(0 -0.005)">
    <g id="Group_69" data-name="Group 69" transform="translate(0 0.005)">
      <path id="Path_43" data-name="Path 43" d="M85.371,14.634a50,50,0,1,0,0,70.746A50.081,50.081,0,0,0,85.371,14.634ZM70.631,64.745a4.168,4.168,0,1,1-5.895,5.894L50,55.9,35.269,70.635a4.168,4.168,0,0,1-5.895-5.894L44.106,50,29.37,35.268a4.168,4.168,0,1,1,5.894-5.894L50,44.11,64.736,29.374a4.168,4.168,0,1,1,5.894,5.894L55.895,50Z" transform="translate(0 -0.005)"/>
    </g>
  </g>
</svg>
