<svg xmlns="http://www.w3.org/2000/svg" width="100" height="100" viewBox="0 0 100 100">
  <path id="facebook" d="M678-12a50,50,0,1,0,50,50A50,50,0,0,0,678-12Zm16.131,33.164a1.221,1.221,0,0,1-1.215,1.217H687.7c-3.582,0-4.25,1.4-4.25,4.162v5.74h9.1A1.223,1.223,0,0,1,693.77,33.5v9.83a1.215,1.215,0,0,1-1.219,1.213h-9.1v24.77a1.215,1.215,0,0,1-1.217,1.211H672.08a1.213,1.213,0,0,1-1.213-1.215V44.547H663.08a1.213,1.213,0,0,1-1.213-1.213V33.508a1.213,1.213,0,0,1,1.213-1.213h7.783V25.523c0-8.92,5.619-14.688,14.316-14.688h7.736a1.219,1.219,0,0,1,1.215,1.215Z" transform="translate(-628 12)"/>
</svg>
