<svg id="instagram" xmlns="http://www.w3.org/2000/svg" width="100" height="100" viewBox="0 0 100 100">
  <path id="Path_22" data-name="Path 22" d="M777.323,183.922v.01a11.433,11.433,0,1,1,0-.007Z" transform="translate(-715.894 -133.922)"/>
  <path id="Path_23" data-name="Path 23" d="M727.519,118.091h0V102.028a11.354,11.354,0,0,0-11.285-11.42H684.11a11.328,11.328,0,0,0-11.422,11.246v32.189a11.328,11.328,0,0,0,11.246,11.42h.2q15.959.018,31.914,0a11.361,11.361,0,0,0,11.488-11.225v-.285Q727.53,126.036,727.519,118.091Zm-27.5,15.938a15.99,15.99,0,1,1,14.822-9.82A16.057,16.057,0,0,1,700.017,134.028Zm18.359-29.707a4.574,4.574,0,1,1,.014-9.147h.043a4.574,4.574,0,1,1-.057,9.147Z" transform="translate(-650.093 -68.028)"/>
  <path id="Path_24" data-name="Path 24" d="M607-25a50,50,0,1,0,50,50A50,50,0,0,0,607-25Zm32,66a16,16,0,0,1-16,16H590.867a15.912,15.912,0,0,1-15.713-14.123c-.248-2.477-.135-5-.148-7.49-.023-3.475,0-6.951,0-10.424V9.1A16,16,0,0,1,588.539-6.8a18.572,18.572,0,0,1,3-.184Q607.34-7,623.1-7a16.016,16.016,0,0,1,15.9,15.943Z" transform="translate(-557 25)"/>
</svg>
