<svg xmlns="http://www.w3.org/2000/svg" width="100" height="100" viewBox="0 0 100 100">
  <path id="linkedin" d="M668,0a50,50,0,1,0,50,50A50,50,0,0,0,668,0ZM652.666,75.334H640.434V38.584h12.232Zm-6.123-42.9a6.13,6.13,0,1,1-.014-12.261h.027a6.13,6.13,0,1,1-.014,12.261Zm49.041,26.123v16.75h-12.25V57a14.6,14.6,0,0,0-.49-4.213,4.576,4.576,0,0,0-4.453-3.5,9.424,9.424,0,0,0-3.125.268,5.078,5.078,0,0,0-3.639,3.783,17.09,17.09,0,0,0-.547,4.793V75.314H658.82V38.576h12.227v5.3a.391.391,0,0,0,.3-.207,9.09,9.09,0,0,1,3.188-3.439,10.873,10.873,0,0,1,4.516-1.516,19.4,19.4,0,0,1,7.533.488,10.764,10.764,0,0,1,7.574,7.2,23.5,23.5,0,0,1,1.172,5.494,62.248,62.248,0,0,1,.252,6.658Z" transform="translate(-618)"/>
</svg>
