<svg xmlns="http://www.w3.org/2000/svg" width="99.712" height="100" viewBox="0 0 99.712 100">
  <g id="magnify" transform="translate(-0.49 -0.001)">
    <path id="Path_1" data-name="Path 1" d="M98.947,85.924,75,61.189c-1.717-1.775-3.863-2.485-4.792-1.578s-3.08.192-4.8-1.582l-.342-.355a35.861,35.861,0,1,0-6.184,6.376l.15.157c1.714,1.775,2.352,3.943,1.416,4.845s-.3,3.072,1.421,4.843L85.8,98.64a4.474,4.474,0,0,0,6.322.1l6.716-6.5A4.479,4.479,0,0,0,98.947,85.924ZM53.978,53.487a24.787,24.787,0,1,1,0-35.052A24.816,24.816,0,0,1,53.978,53.487Z" fill="#010002"/>
  </g>
</svg>
