<svg xmlns="http://www.w3.org/2000/svg" width="100" height="62.685" viewBox="0 0 100 62.685">
  <g id="menu" transform="translate(0 -14)">
    <g id="open-menu" transform="translate(0 14)">
      <path id="Path_13" data-name="Path 13" d="M95.833,133.944H4.167c-2.3,0-4.167-2.526-4.167-5.638s1.867-5.638,4.167-5.638H95.833c2.3,0,4.167,2.526,4.167,5.638S98.133,133.944,95.833,133.944Zm0,0" transform="translate(0 -96.963)"/>
      <path id="Path_14" data-name="Path 14" d="M95.833,11.276H4.167C1.867,11.276,0,8.75,0,5.638S1.867,0,4.167,0H95.833C98.133,0,100,2.526,100,5.638S98.133,11.276,95.833,11.276Zm0,0" transform="translate(0)"/>
      <path id="Path_15" data-name="Path 15" d="M95.833,256.608H4.167c-2.3,0-4.167-2.526-4.167-5.638s1.867-5.638,4.167-5.638H95.833c2.3,0,4.167,2.526,4.167,5.638S98.133,256.608,95.833,256.608Zm0,0" transform="translate(0 -193.923)"/>
    </g>
  </g>
</svg>
