<svg xmlns="http://www.w3.org/2000/svg" width="89.867" height="89.867" viewBox="0 0 89.867 89.867">
  <g id="plus" transform="translate(41.398 -17.087) rotate(45)">
    <g id="open-menu" transform="translate(11 6)">
      <path id="Path_14" data-name="Path 14" d="M86.122,10.133H3.744C1.678,10.133,0,7.863,0,5.066S1.678,0,3.744,0H86.122c2.067,0,3.744,2.27,3.744,5.066S88.189,10.133,86.122,10.133Zm0,0" transform="translate(7.165 0) rotate(45)"/>
      <path id="Path_15" data-name="Path 15" d="M86.122,10.133H3.744C1.678,10.133,0,7.863,0,5.066S1.678,0,3.744,0H86.122c2.067,0,3.744,2.27,3.744,5.066S88.189,10.133,86.122,10.133Zm0,0" transform="translate(0 63.546) rotate(-45)"/>
    </g>
  </g>
</svg>
