<svg xmlns="http://www.w3.org/2000/svg" width="99.998" height="100" viewBox="0 0 99.998 100">
  <g id="telephone" transform="translate(-0.006)">
    <g id="Group_13" data-name="Group 13" transform="translate(0.006)">
      <path id="Path_27" data-name="Path 27" d="M76.031,102.689c-3.267-3.225-7.346-3.225-10.592,0-2.476,2.455-4.953,4.911-7.387,7.408a1.459,1.459,0,0,1-2.039.375c-1.6-.874-3.309-1.581-4.849-2.539a76.821,76.821,0,0,1-18.52-16.855,43.876,43.876,0,0,1-6.638-10.633,1.523,1.523,0,0,1,.375-1.956c2.476-2.393,4.89-4.849,7.325-7.3,3.392-3.413,3.392-7.408-.021-10.842-1.935-1.956-3.87-3.87-5.806-5.827-2-2-3.975-4.016-5.993-5.993-3.267-3.184-7.346-3.184-10.592.021C8.8,51,6.4,53.517,3.865,55.931A12.059,12.059,0,0,0,.078,64.067c-.4,5.181.874,10.072,2.664,14.837a90.157,90.157,0,0,0,16,26.656,99.026,99.026,0,0,0,32.8,25.658c5.743,2.788,11.695,4.932,18.166,5.285,4.453.25,8.324-.874,11.424-4.349,2.123-2.372,4.516-4.536,6.763-6.8,3.329-3.371,3.35-7.45.042-10.779Q82,108.609,76.031,102.689Z" transform="translate(-0.006 -36.537)"/>
      <path id="Path_28" data-name="Path 28" d="M260.411,125.59l7.679-1.311A34.467,34.467,0,0,0,238.936,96l-1.082,7.72a26.637,26.637,0,0,1,22.557,21.87Z" transform="translate(-188.36 -76.023)"/>
      <path id="Path_29" data-name="Path 29" d="M276.3,16.189A56.619,56.619,0,0,0,243.836,0l-1.082,7.72a49.4,49.4,0,0,1,41.805,40.515l7.679-1.311A57.033,57.033,0,0,0,276.3,16.189Z" transform="translate(-192.24)"/>
    </g>
  </g>
</svg>
