<svg xmlns="http://www.w3.org/2000/svg" width="100" height="100" viewBox="0 0 100 100">
  <path id="twitter" d="M605,3a50,50,0,1,0,50,50A50,50,0,0,0,605,3Zm30.027,35.627a36.223,36.223,0,0,1-3.045,2.666,1.059,1.059,0,0,0-.43.938,39.624,39.624,0,0,1-8.469,25.613A36.45,36.45,0,0,1,600,81.875a39.592,39.592,0,0,1-21.113-1.768,34.037,34.037,0,0,1-7.227-3.643A28.138,28.138,0,0,0,591.719,70.7a13.906,13.906,0,0,1-7.949-2.734,13.637,13.637,0,0,1-4.852-6.777,14.55,14.55,0,0,0,6-.27,13.768,13.768,0,0,1-10.783-13.6,14.422,14.422,0,0,0,6.1,1.617,13.727,13.727,0,0,1-5.939-9.854,13.03,13.03,0,0,1,1.773-8.4A39.344,39.344,0,0,0,604.326,45c-.088-.811-.207-1.553-.24-2.3a13.378,13.378,0,0,1,6.76-12.7,13.62,13.62,0,0,1,16.236,1.777,1.578,1.578,0,0,0,1.707.449,29.062,29.062,0,0,0,7.566-3.023c0,1.691-2.344,4.787-5.469,7.457.8-.146,1.613-.264,2.41-.445.846-.2,1.689-.428,2.52-.691s1.584-.572,2.373-.859l.133.141C637.227,36.08,636.193,37.414,635.027,38.627Z" transform="translate(-555 -3)"/>
</svg>
