<svg id="youtube" xmlns="http://www.w3.org/2000/svg" width="100" height="100" viewBox="0 0 100 100">
  <path id="Path_25" data-name="Path 25" d="M224.113,226.774l16.264-9.367-16.264-9.367Zm0,0" transform="translate(-180.341 -167.406)"/>
  <path id="Path_26" data-name="Path 26" d="M50,0a50,50,0,1,0,50,50A50.005,50.005,0,0,0,50,0ZM81.242,50.051s0,10.14-1.286,15.03a7.829,7.829,0,0,1-5.508,5.507C69.559,71.875,50,71.875,50,71.875s-19.508,0-24.448-1.338a7.83,7.83,0,0,1-5.508-5.508C18.757,60.191,18.757,50,18.757,50s0-10.139,1.287-15.029a7.988,7.988,0,0,1,5.508-5.559C30.441,28.125,50,28.125,50,28.125s19.559,0,24.448,1.338a7.83,7.83,0,0,1,5.508,5.508C81.294,39.861,81.242,50.051,81.242,50.051Zm0,0"/>
</svg>
