<?xml version="1.0" standalone="no"?>
<!DOCTYPE svg PUBLIC "-//W3C//DTD SVG 1.1//EN" "http://www.w3.org/Graphics/SVG/1.1/DTD/svg11.dtd" >
<svg xmlns="http://www.w3.org/2000/svg" xmlns:xlink="http://www.w3.org/1999/xlink" version="1.1">
<metadata>
Created by FontForge 20170731 at Tue Jul 21 14:26:11 2020
 By Aleksey,,,
Copyright (c) 2018 by Morisawa In.. All rights reserved.
</metadata>
<defs>
<font id="ClarimoUDPE-Heavy" horiz-adv-x="1290" >
  <font-face 
    font-family="Clarimo UD PE Heavy"
    font-weight="800"
    font-stretch="normal"
    units-per-em="2048"
    panose-1="2 11 9 0 0 0 0 0 0 0"
    ascent="1593"
    descent="-455"
    x-height="1135"
    cap-height="1520"
    bbox="-516 -678 2896 2466"
    underline-thickness="102"
    underline-position="-409"
    unicode-range="U+0020-FB04"
  />
<missing-glyph horiz-adv-x="1024" 
d="M0 0v1434h1024v-1434h-1024zM512 809l348 522h-696zM573 717l349 -522v1044zM164 102h696l-348 523zM102 1239v-1044l349 522z" />
    <glyph glyph-name=".notdef" horiz-adv-x="1024" 
d="M0 0v1434h1024v-1434h-1024zM512 809l348 522h-696zM573 717l349 -522v1044zM164 102h696l-348 523zM102 1239v-1044l349 522z" />
    <glyph glyph-name=".null" horiz-adv-x="0" 
 />
    <glyph glyph-name="nonmarkingreturn" horiz-adv-x="682" 
 />
    <glyph glyph-name="space" unicode=" " horiz-adv-x="434" 
 />
    <glyph glyph-name="space" unicode="&#xa0;" horiz-adv-x="434" 
 />
    <glyph glyph-name="exclam" unicode="!" horiz-adv-x="802" 
d="M256 465l-84 907v148h459v-148l-84 -907h-291zM193 0v336h417v-336h-417z" />
    <glyph glyph-name="quotedbl" unicode="&#x22;" horiz-adv-x="1161" 
d="M698 870l-59 719v4h383v-4l-59 -719h-265zM199 870l-60 719v4h383v-4l-59 -719h-264z" />
    <glyph glyph-name="numbersign" unicode="#" horiz-adv-x="1529" 
d="M741 0l58 346h-207l-57 -346h-302l58 346h-238v297h287l41 234h-250v297h299l57 346h301l-57 -346h207l57 346h301l-57 -346h238v-297h-287l-41 -234h250v-297h-299l-58 -346h-301zM641 643h207l41 234h-207z" />
    <glyph glyph-name="dollar" unicode="$" 
d="M1223 455q0 -193 -119 -309.5t-354 -139.5v-207h-201v203q-290 18 -492 145l78 349q193 -150 414 -174v299q-54 13 -93.5 23.5t-92 30.5t-90 41.5t-77 56t-64 74.5t-40.5 96t-16 122q0 190 120 307.5t353 140.5v203h201v-200q240 -15 411 -113l-69 -348
q-157 118 -342 141v-285q55 -13 98 -25.5t94.5 -33t89.5 -44t75.5 -58.5t61.5 -76t39 -97t15 -122zM414 1081q0 -45 32 -72t103 -48v235q-135 -23 -135 -115zM885 453q0 45 -31.5 71t-103.5 47v-243q70 13 102.5 46t32.5 79z" />
    <glyph glyph-name="percent" unicode="%" horiz-adv-x="2062" 
d="M440 614q-185 0 -288 121t-103 346t103 346t288 121q186 0 290 -121t104 -346t-104 -346t-290 -121zM342 0l1085 1520h293l-1085 -1520h-293zM440 840q52 0 74.5 55t22.5 186t-22.5 186.5t-74.5 55.5q-50 0 -72 -55.5t-22 -186.5t22 -186t72 -55zM1620 -25
q-185 0 -288 121t-103 346t103 346t288 121q186 0 289.5 -121t103.5 -346t-103.5 -346t-289.5 -121zM1620 201q51 0 73.5 55t22.5 186t-22.5 186.5t-73.5 55.5q-50 0 -72 -55.5t-22 -186.5t22 -186t72 -55z" />
    <glyph glyph-name="ampersand" unicode="&#x26;" horiz-adv-x="1591" 
d="M1135 0l-109 115q-180 -144 -430 -144q-248 0 -385 115t-137 301q0 145 82.5 242.5t228.5 165.5q-95 108 -133.5 183.5t-38.5 170.5q0 186 129.5 292.5t359.5 106.5q223 0 353.5 -98t130.5 -274q0 -133 -76 -224.5t-225 -167.5l162 -170q26 39 49 88t34 79.5t31 88.5
l314 -170q-85 -180 -203 -321l360 -379h-497zM598 1145q0 -39 24.5 -77t90.5 -103q98 73 98 165q0 55 -29.5 85t-79.5 30q-48 0 -76 -26.5t-28 -73.5zM477 449q0 -77 48.5 -117.5t133.5 -40.5q87 0 150 53l-246 260q-44 -35 -65 -71t-21 -84z" />
    <glyph glyph-name="quotesingle" unicode="'" horiz-adv-x="661" 
d="M199 870l-60 719v4h383v-4l-59 -719h-264z" />
    <glyph glyph-name="parenleft" unicode="(" horiz-adv-x="960" 
d="M692 -399q-257 169 -405 434.5t-148 591.5t148 591.5t405 434.5l203 -226q-186 -132 -291.5 -338.5t-105.5 -461.5t105.5 -462t291.5 -339z" />
    <glyph glyph-name="parenright" unicode=")" horiz-adv-x="960" 
d="M268 1653q257 -169 405 -434.5t148 -591.5t-148 -591.5t-405 -434.5l-202 225q186 132 291.5 339t105.5 462t-105.5 461.5t-291.5 338.5z" />
    <glyph glyph-name="asterisk" unicode="*" horiz-adv-x="1253" 
d="M1059 766l-264 -191l-168 316l-168 -316l-264 191l247 258l-352 61l103 310l321 -158l-51 356h328l-52 -356l322 158l102 -310l-352 -61z" />
    <glyph glyph-name="plus" unicode="+" 
d="M1202 479h-403v-426h-307v426h-404v305h404v428h307v-428h403v-305z" />
    <glyph glyph-name="comma" unicode="," horiz-adv-x="677" 
d="M307 -332l-317 45q166 271 166 606q0 69 -6 138h382q11 -88 11 -152q0 -174 -61 -339.5t-175 -297.5z" />
    <glyph glyph-name="hyphen" unicode="-" horiz-adv-x="950" 
d="M102 455v354h746v-354h-746z" />
    <glyph glyph-name="hyphen" unicode="&#xad;" horiz-adv-x="950" 
d="M102 455v354h746v-354h-746z" />
    <glyph glyph-name="period" unicode="." horiz-adv-x="677" 
d="M119 0v446h442v-446h-442z" />
    <glyph glyph-name="slash" unicode="/" horiz-adv-x="1042" 
d="M-68 -340l725 1933h347l-725 -1933h-347z" />
    <glyph glyph-name="zero" unicode="0" 
d="M645 -29q-279 0 -432.5 202.5t-153.5 586.5q0 383 153.5 585.5t432.5 202.5t432.5 -202.5t153.5 -585.5q0 -384 -153.5 -586.5t-432.5 -202.5zM645 303q88 0 130 107.5t42 349.5t-42 349.5t-130 107.5t-130 -107.5t-42 -349.5t42 -349.5t130 -107.5z" />
    <glyph glyph-name="one" unicode="1" 
d="M1219 319v-319h-1024v319h323v750q-115 -93 -262 -168l-168 283q274 137 481 344h334v-1209h316z" />
    <glyph glyph-name="two" unicode="2" 
d="M1196 350v-350h-1104v322l414 337q93 77 146 131t83.5 111t30.5 115q0 84 -52.5 134t-142.5 50q-97 0 -180.5 -59t-142.5 -156l-160 309q90 119 238.5 186.5t326.5 67.5q241 0 384 -125.5t143 -351.5q0 -97 -27.5 -178t-88 -155t-136 -137t-191.5 -142l-159 -109h618z
" />
    <glyph glyph-name="three" unicode="3" 
d="M1212 426q0 -216 -166.5 -335.5t-449.5 -119.5q-310 0 -518 133l67 363q157 -148 402 -148q120 0 186 39t66 117q0 48 -27.5 80t-103 52t-199.5 20h-170v286h160q149 0 224 41t75 113q0 64 -54 98.5t-149 34.5t-185 -35t-161 -100l-121 315q211 168 551 168
q253 0 392.5 -101t139.5 -288q0 -139 -71 -233.5t-205 -134.5q317 -65 317 -365z" />
    <glyph glyph-name="four" unicode="4" 
d="M1249 291h-176v-291h-377v291h-659v319l641 918h395v-916h176v-321zM369 612h327v471z" />
    <glyph glyph-name="five" unicode="5" 
d="M1212 481q0 -249 -162.5 -379.5t-451.5 -130.5q-311 0 -512 133l68 363q154 -148 399 -148q246 0 246 166q0 57 -32.5 94t-113 58.5t-213.5 21.5q-157 0 -262 -20v881h965v-351h-639v-221q70 6 145 6q269 0 416 -119.5t147 -353.5z" />
    <glyph glyph-name="six" unicode="6" 
d="M1241 514q0 -116 -40 -216t-113.5 -172.5t-182.5 -113.5t-241 -41q-286 0 -444.5 193t-158.5 561q0 403 195.5 613t572.5 210q182 0 297 -39l-32 -333q-109 41 -242 41q-174 0 -259 -84t-108 -252q137 116 310 116q200 0 323 -134.5t123 -348.5zM666 715
q-112 0 -187 -117q10 -156 54.5 -227.5t125.5 -71.5q80 0 124 59.5t44 157.5q0 94 -42 146.5t-119 52.5z" />
    <glyph glyph-name="seven" unicode="7" 
d="M1237 1202q-219 -243 -358 -553.5t-187 -648.5h-432q94 659 518 1169h-700v351h1159v-318z" />
    <glyph glyph-name="eight" unicode="8" 
d="M1237 416q0 -148 -77.5 -251.5t-210.5 -152.5t-312 -49q-269 0 -426.5 109.5t-157.5 298.5q0 128 72.5 222t202.5 150q-111 63 -175.5 153.5t-64.5 227.5q0 111 44.5 195.5t123.5 135.5t179 76t218 25q262 0 405.5 -112.5t143.5 -282.5q0 -107 -59 -199.5t-178 -140.5
q59 -31 104.5 -65.5t85 -83t61 -113.5t21.5 -143zM492 1112q0 -63 49.5 -103t152.5 -79q105 64 105 172q0 66 -43.5 101.5t-110.5 35.5q-68 0 -110.5 -35t-42.5 -92zM457 436q0 -73 53 -114t137 -41q87 0 137 43.5t50 105.5q0 67 -59.5 109.5t-188.5 93.5q-65 -36 -97 -89
t-32 -108z" />
    <glyph glyph-name="nine" unicode="9" 
d="M1233 825q0 -406 -198.5 -630t-571.5 -224q-165 0 -297 35l33 334q122 -37 241 -37q151 0 239 76.5t120 234.5q-124 -92 -277 -92q-208 0 -339.5 136.5t-131.5 355.5q0 237 159 385.5t425 148.5q103 0 190.5 -23.5t164 -78t129.5 -137t83.5 -205.5t30.5 -279zM465 1010
q0 -97 48 -151t132 -54q105 0 174 94q-4 172 -48 247t-130 75q-84 0 -130 -59t-46 -152z" />
    <glyph glyph-name="colon" unicode=":" horiz-adv-x="802" 
d="M180 688v447h443v-447h-443zM180 0v446h443v-446h-443z" />
    <glyph glyph-name="semicolon" unicode=";" horiz-adv-x="802" 
d="M180 688v447h443v-447h-443zM369 -332l-318 45q166 271 166 606q0 69 -6 138h383q10 -80 10 -152q0 -174 -61 -340t-174 -297z" />
    <glyph glyph-name="less" unicode="&#x3c;" 
d="M1133 385v-336l-1004 457v252l1004 456v-335l-644 -246z" />
    <glyph glyph-name="equal" unicode="=" 
d="M113 717v307h1065v-307h-1065zM113 240v307h1065v-307h-1065z" />
    <glyph glyph-name="greater" unicode="&#x3e;" 
d="M1161 506l-1003 -457v336l643 248l-643 246v335l1003 -456v-252z" />
    <glyph glyph-name="question" unicode="?" horiz-adv-x="1204" 
d="M340 465v80q0 63 15.5 115.5t36 85.5t56.5 63.5t60.5 45.5t64.5 36t59.5 33t44 32.5t34.5 45.5t10 57q0 71 -51.5 105t-128.5 34q-184 0 -312 -182l-157 311q205 221 542 221q117 0 214 -27t171.5 -80.5t116 -140t41.5 -198.5q0 -50 -9 -94.5t-22 -77t-37 -63t-43.5 -50
t-52.5 -42.5t-53.5 -34.5t-56.5 -31.5q-43 -23 -67 -38t-52 -39t-40.5 -52.5t-12.5 -63.5v-51h-371zM317 0v336h418v-336h-418z" />
    <glyph glyph-name="at" unicode="@" horiz-adv-x="2170" 
d="M1794 -176q-284 -205 -682 -205q-227 0 -410 69t-304 193.5t-186 296.5t-65 379q0 174 45 331t132 283.5t208 219.5t279.5 143.5t339.5 50.5q192 0 353.5 -57t277.5 -162.5t181 -261.5t65 -346q0 -161 -46.5 -293.5t-122.5 -215t-169 -127t-191 -44.5q-102 0 -167 49
t-75 139q-59 -96 -147.5 -142t-191.5 -46q-160 0 -256.5 107t-96.5 315q0 134 42 255.5t111 207t160.5 136t188.5 50.5q87 0 144.5 -36t84.5 -93l47 100h271l-129 -645q-8 -46 -8 -69q0 -89 73 -89q97 0 170.5 114t73.5 310q0 291 -171.5 458t-469.5 167q-236 0 -413 -107
t-268 -289.5t-91 -412.5q0 -159 46.5 -290t136.5 -227.5t232 -150t324 -53.5q359 0 631 209zM893 520q0 -90 32.5 -126t78.5 -36q131 0 184 265l35 172q-52 73 -123 73q-62 0 -111 -57t-72.5 -135.5t-23.5 -155.5z" />
    <glyph glyph-name="A" unicode="A" horiz-adv-x="1617" 
d="M1159 0l-84 281h-543l-83 -281h-445l539 1520h534l537 -1520h-455zM633 608h342l-170 570z" />
    <glyph glyph-name="B" unicode="B" horiz-adv-x="1538" 
d="M1460 422q0 -95 -32 -169t-85.5 -121t-128.5 -77t-154 -42.5t-169 -12.5h-746v1520h727q256 0 392.5 -101.5t136.5 -292.5q0 -260 -260 -335q319 -70 319 -369zM809 1194h-274v-289h272q82 0 128 33.5t46 114.5q0 79 -43 110t-129 31zM535 631v-305h309q93 0 143.5 33
t50.5 120q0 83 -48 117.5t-140 34.5h-315z" />
    <glyph glyph-name="C" unicode="C" horiz-adv-x="1437" 
d="M1368 123q-196 -152 -506 -152q-362 0 -571 209.5t-209 579.5q0 374 211.5 581t576.5 207q288 0 478 -135l-74 -366q-144 147 -363 147q-190 0 -293.5 -114.5t-103.5 -317.5q0 -212 108.5 -324t288.5 -112q115 0 214 42.5t165 106.5z" />
    <glyph glyph-name="D" unicode="D" horiz-adv-x="1609" 
d="M1528 762q0 -384 -208 -573t-593 -189h-582v1520h580q175 0 312 -37.5t228.5 -104t151 -162.5t85.5 -208t26 -246zM705 1188h-154v-856h156q197 0 294 104t97 324q0 99 -20 174t-64 133.5t-122 89.5t-187 31z" />
    <glyph glyph-name="E" unicode="E" horiz-adv-x="1349" 
d="M1255 340v-340h-1110v1520h1094v-336h-688v-242h606v-328h-606v-274h704z" />
    <glyph glyph-name="F" unicode="F" horiz-adv-x="1284" 
d="M1130 543h-579v-543h-406v1520h1078v-336h-672v-310h579v-331z" />
    <glyph glyph-name="G" unicode="G" horiz-adv-x="1613" 
d="M1497 115q-85 -61 -253 -102.5t-351 -41.5q-397 0 -604 206t-207 583q0 378 216.5 583t614.5 205q175 0 318.5 -37.5t232.5 -97.5l-73 -366q-185 147 -443 147q-220 0 -327 -112t-107 -322q0 -434 428 -434q103 0 193 20v223h-297v301h659v-755z" />
    <glyph glyph-name="H" unicode="H" horiz-adv-x="1628" 
d="M1077 0v604h-526v-604h-406v1520h406v-566h526v566h406v-1520h-406z" />
    <glyph glyph-name="I" unicode="I" horiz-adv-x="696" 
d="M145 0v1520h406v-1520h-406z" />
    <glyph glyph-name="J" unicode="J" horiz-adv-x="964" 
d="M0 10l16 350q85 -38 203 -38q108 0 156.5 62t48.5 222v914h405v-985q0 -296 -141 -430t-412 -134q-164 0 -276 39z" />
    <glyph glyph-name="K" unicode="K" horiz-adv-x="1593" 
d="M1092 0l-396 573l-145 -149v-424h-406v1520h406v-637l532 637h516v-4l-632 -660l641 -852v-4h-516z" />
    <glyph glyph-name="L" unicode="L" horiz-adv-x="1224" 
d="M1198 340v-340h-1053v1520h406v-1180h647z" />
    <glyph glyph-name="M" unicode="M" horiz-adv-x="2119" 
d="M907 0l-385 1055v-1055h-377v1520h566l350 -957l348 957h565v-1520h-389v1061l-387 -1061h-291z" />
    <glyph glyph-name="N" unicode="N" horiz-adv-x="1660" 
d="M1128 0l-600 887v-887h-383v1520h392l593 -877v877h386v-1520h-388z" />
    <glyph glyph-name="O" unicode="O" horiz-adv-x="1669" 
d="M834 -29q-343 0 -547.5 211t-204.5 578t204.5 577.5t547.5 210.5t548 -210.5t205 -577.5t-205 -578t-548 -211zM834 326q151 0 236 114t85 320t-85 320t-236 114q-150 0 -235 -114t-85 -320t85 -320t235 -114z" />
    <glyph glyph-name="P" unicode="P" horiz-adv-x="1466" 
d="M551 436v-436h-406v1520h643q308 0 466.5 -138t158.5 -401q0 -125 -37 -222t-96.5 -157t-144 -98t-171.5 -53t-186 -15h-227zM750 1188h-199v-420h194q246 0 246 207q0 213 -241 213z" />
    <glyph glyph-name="Q" unicode="Q" horiz-adv-x="1669" 
d="M1577 -393q-142 -78 -301 -78q-203 0 -348.5 112.5t-241.5 340.5q-280 45 -442 249t-162 529q0 367 204.5 577.5t547.5 210.5t548 -210.5t205 -577.5q0 -312 -151 -513.5t-414 -256.5q32 -49 112 -80t187 -31q111 0 227 45zM834 326q151 0 236 114t85 320t-85 320
t-236 114q-150 0 -235 -114t-85 -320t85 -320t235 -114z" />
    <glyph glyph-name="R" unicode="R" horiz-adv-x="1536" 
d="M551 469v-469h-406v1520h627q306 0 467.5 -133t161.5 -388q0 -95 -23 -173t-65 -134t-91 -94.5t-110 -65.5l422 -532h-506l-317 469h-160zM733 1188h-182v-397h205q30 0 57.5 4t59.5 17t54.5 33.5t38 57.5t15.5 86q0 199 -248 199z" />
    <glyph glyph-name="S" unicode="S" horiz-adv-x="1339" 
d="M70 113l77 364q100 -71 232 -116.5t280 -45.5q95 0 142 27t47 86q0 62 -52.5 90.5t-205.5 67.5q-56 15 -92.5 25.5t-92.5 32t-92.5 44t-79.5 59.5t-68 79.5t-42 103t-17 131.5q0 223 154 355t451 132q138 0 270 -29t225 -81l-69 -365q-86 62 -198 96.5t-226 34.5
q-187 0 -187 -110q0 -58 47.5 -84.5t200.5 -63.5q44 -11 76 -19.5t76.5 -22.5t76.5 -29t70 -37t65 -47t54 -59t43.5 -73t26.5 -89t10 -107q0 -231 -156 -361.5t-463 -130.5q-164 0 -317.5 38t-265.5 104z" />
    <glyph glyph-name="T" unicode="T" horiz-adv-x="1341" 
d="M1315 1184h-441v-1184h-407v1184h-440v336h1288v-336z" />
    <glyph glyph-name="U" unicode="U" horiz-adv-x="1589" 
d="M131 616v904h408v-897q0 -146 66.5 -221.5t193.5 -75.5t193.5 75.5t66.5 221.5v897h399v-904q0 -318 -168.5 -481.5t-498.5 -163.5t-495 163.5t-165 481.5z" />
    <glyph glyph-name="V" unicode="V" horiz-adv-x="1560" 
d="M1554 1520l-532 -1520h-481l-535 1520h461l321 -1063l322 1063h444z" />
    <glyph glyph-name="W" unicode="W" horiz-adv-x="2310" 
d="M1393 0l-238 985l-237 -985h-463l-437 1520h461l226 -1049l249 1049h418l248 -1047l227 1047h445l-437 -1520h-462z" />
    <glyph glyph-name="X" unicode="X" horiz-adv-x="1546" 
d="M1034 0l-274 473l-268 -473h-494l518 764l-508 756h516l260 -459l258 459h492l-508 -744l522 -776h-514z" />
    <glyph glyph-name="Y" unicode="Y" horiz-adv-x="1460" 
d="M1479 1520l-545 -992v-528h-408v526l-544 994h479l276 -607l277 607h465z" />
    <glyph glyph-name="Z" unicode="Z" horiz-adv-x="1404" 
d="M1329 340v-340h-1257v305l714 879h-680v336h1207v-297l-719 -883h735z" />
    <glyph glyph-name="bracketleft" unicode="[" horiz-adv-x="960" 
d="M209 -340v1933h659v-256h-319v-1421h319v-256h-659z" />
    <glyph glyph-name="backslash" unicode="\" horiz-adv-x="1042" 
d="M1112 -340h-348l-725 1933h348z" />
    <glyph glyph-name="bracketright" unicode="]" horiz-adv-x="960" 
d="M752 1593v-1933h-660v256h320v1421h-320v256h660z" />
    <glyph glyph-name="asciicircum" unicode="^" horiz-adv-x="1155" 
d="M805 762l-227 457l-228 -457h-327l411 758h287l412 -758h-328z" />
    <glyph glyph-name="underscore" unicode="_" horiz-adv-x="1310" 
d="M31 -399v290h1249v-290h-1249z" />
    <glyph glyph-name="grave" unicode="`" horiz-adv-x="1024" 
d="M459 1249l-346 406l348 69l239 -428z" />
    <glyph glyph-name="a" unicode="a" horiz-adv-x="1253" 
d="M772 0l-4 131q-123 -156 -338 -156q-171 0 -270 93t-99 262q0 191 136.5 284t420.5 93h138v26q0 68 -43 100.5t-154 32.5q-216 0 -373 -108l-57 293q186 108 487 108q278 0 401.5 -104.5t123.5 -302.5v-752h-369zM561 256q67 0 119 31t76 82v131h-78q-127 0 -186.5 -31
t-59.5 -100q0 -113 129 -113z" />
    <glyph glyph-name="b" unicode="b" horiz-adv-x="1363" 
d="M1303 580q0 -287 -138 -446t-368 -159q-192 0 -314 144l-6 -119h-360v1593h385v-598q132 164 338 164q214 0 338.5 -153t124.5 -426zM502 369q28 -40 76.5 -63t107.5 -23q105 0 165 78t60 210q0 128 -57 195.5t-152 67.5q-132 0 -200 -107v-358z" />
    <glyph glyph-name="c" unicode="c" horiz-adv-x="1087" 
d="M1040 92q-65 -49 -172.5 -83t-236.5 -34q-269 0 -421.5 155.5t-152.5 430.5q0 281 159 439.5t431 158.5q237 0 389 -112l-75 -302q-43 45 -109.5 74t-144.5 29q-121 0 -188.5 -74t-67.5 -205q0 -133 69.5 -207.5t192.5 -74.5q138 0 260 104z" />
    <glyph glyph-name="d" unicode="d" horiz-adv-x="1363" 
d="M879 0l-5 137q-122 -162 -333 -162q-221 0 -350.5 156t-129.5 430q0 281 136.5 439.5t369.5 158.5q177 0 295 -115v549h385v-1593h-368zM455 565q0 -131 58 -198.5t157 -67.5q68 0 119.5 29t72.5 75v355q-63 90 -182 90q-108 0 -166.5 -75.5t-58.5 -207.5z" />
    <glyph glyph-name="e" unicode="e" horiz-adv-x="1261" 
d="M1180 86q-199 -111 -482 -111q-317 0 -479 149.5t-162 434.5q0 284 156.5 442t433.5 158q121 0 216 -29.5t156.5 -80t101.5 -122.5t56.5 -151t16.5 -172v-141h-745q27 -195 294 -195q203 0 379 111zM657 895q-88 0 -146 -53.5t-65 -159.5h381v16q0 197 -170 197z" />
    <glyph glyph-name="f" unicode="f" horiz-adv-x="874" 
d="M203 0v860h-174v275h174v73q0 96 29 170t74.5 118t110.5 72t128.5 38t136.5 10q132 0 213 -23l-18 -305q-82 21 -150 21q-74 0 -106.5 -27t-32.5 -92v-55h262v-275h-262v-860h-385z" />
    <glyph glyph-name="g" unicode="g" horiz-adv-x="1345" 
d="M1276 -72q0 -192 -169.5 -303.5t-516.5 -111.5q-153 0 -266.5 22.5t-181 63.5t-100 94t-32.5 119q0 85 54.5 151t173.5 98q-101 59 -101 172q0 144 166 201q-215 97 -215 334q0 196 146 293.5t395 97.5q208 0 340 -69l346 57h16v-270l-180 10q18 -56 18 -119
q0 -132 -69.5 -222t-188.5 -130.5t-282 -40.5q-78 0 -135 8q-39 -12 -39 -57q0 -61 88 -64l311 -12q422 -17 422 -322zM629 618q83 0 127.5 38.5t44.5 109.5q0 70 -44.5 111t-127.5 41q-80 0 -126 -39.5t-46 -108.5q0 -71 45 -111.5t127 -40.5zM379 -123q0 -58 58 -89.5
t198 -31.5q274 0 274 125q0 34 -28 53.5t-107 22.5l-323 14q-72 -20 -72 -94z" />
    <glyph glyph-name="h" unicode="h" horiz-adv-x="1333" 
d="M502 698v-698h-385v1593h385v-612q124 178 344 178q180 0 278.5 -110.5t98.5 -311.5v-737h-385v657q0 177 -144 177q-64 0 -115 -36.5t-77 -99.5z" />
    <glyph glyph-name="i" unicode="i" horiz-adv-x="626" 
d="M111 1276v305h405v-305h-405zM121 0v1135h385v-1135h-385z" />
    <glyph glyph-name="j" unicode="j" horiz-adv-x="643" 
d="M127 1276v305h405v-305h-405zM-160 -440l27 307q48 -25 125 -25q76 0 110.5 44.5t34.5 154.5v1094h385v-1053q0 -151 -32.5 -259.5t-94.5 -172t-145 -92.5t-193 -29q-140 0 -217 31z" />
    <glyph glyph-name="k" unicode="k" horiz-adv-x="1314" 
d="M874 0l-264 393l-108 -112v-281h-385v1593h385v-921l342 463h473v-5l-453 -471l484 -655v-4h-474z" />
    <glyph glyph-name="l" unicode="l" horiz-adv-x="626" 
d="M121 0v1593h385v-1593h-385z" />
    <glyph glyph-name="m" unicode="m" horiz-adv-x="2035" 
d="M502 698v-698h-385v1135h368l4 -170q125 194 349 194q123 0 209 -55t127 -160q131 215 372 215q180 0 278.5 -110.5t98.5 -311.5v-737h-385v657q0 177 -137 177q-62 0 -112 -37t-77 -99v-698h-385v657q0 177 -137 177q-62 0 -111.5 -36.5t-76.5 -99.5z" />
    <glyph glyph-name="n" unicode="n" horiz-adv-x="1333" 
d="M502 698v-698h-385v1135h368l4 -170q126 194 357 194q180 0 278.5 -110.5t98.5 -311.5v-737h-385v657q0 177 -144 177q-64 0 -115 -36.5t-77 -99.5z" />
    <glyph glyph-name="o" unicode="o" horiz-adv-x="1292" 
d="M647 -25q-129 0 -236.5 38.5t-186.5 111.5t-123 186t-44 256t44 256t123 186t186.5 111.5t236.5 38.5q172 0 303.5 -66t208 -201t76.5 -325t-76.5 -325t-208 -201t-303.5 -66zM647 283q91 0 143 73t52 211t-52 211.5t-143 73.5q-92 0 -144 -73t-52 -212t52 -211.5
t144 -72.5z" />
    <glyph glyph-name="p" unicode="p" horiz-adv-x="1363" 
d="M799 -25q-176 0 -297 107v-510h-385v1563h368l4 -156q127 180 353 180q213 0 337 -153.5t124 -425.5q0 -285 -137.5 -445t-366.5 -160zM502 717v-359q31 -35 79.5 -55t102.5 -20q106 0 166.5 76.5t60.5 209.5q0 128 -56 196.5t-155 68.5q-67 0 -119 -30.5t-79 -86.5z" />
    <glyph glyph-name="q" unicode="q" horiz-adv-x="1363" 
d="M1247 1135v-1563h-385v539q-130 -136 -323 -136q-220 0 -349 156.5t-129 429.5q0 278 136.5 438t369.5 160q196 0 312 -139l8 115h360zM455 565q0 -134 58 -200t155 -66q132 0 194 88v358q-60 103 -180 103q-109 0 -168 -75.5t-59 -207.5z" />
    <glyph glyph-name="r" unicode="r" horiz-adv-x="950" 
d="M502 625v-625h-385v1135h368l4 -207q49 129 123 180t176 51q88 0 138 -24l-25 -359q-71 29 -151 29q-57 0 -104 -15.5t-87 -57.5t-57 -107z" />
    <glyph glyph-name="s" unicode="s" horiz-adv-x="1105" 
d="M63 76l54 309q191 -127 409 -127q73 0 103 16.5t30 49.5q0 25 -18.5 41t-50.5 26.5t-96 27.5q-9 2 -13 3q-49 13 -80 22t-77 26t-75.5 35t-63.5 46.5t-53.5 61t-32.5 78.5t-13 100q0 174 127.5 271t380.5 97q243 0 407 -82l-55 -305q-71 46 -163 76.5t-181 30.5
q-129 0 -129 -68q0 -38 37 -55t152 -43q60 -14 106.5 -29t101.5 -44.5t91.5 -66.5t61 -96t24.5 -133q0 -181 -135.5 -275t-383.5 -94q-268 0 -465 101z" />
    <glyph glyph-name="t" unicode="t" horiz-adv-x="940" 
d="M897 37q-127 -62 -303 -62q-90 0 -159 20.5t-123.5 67t-83.5 128.5t-29 198v471h-170v275h170v288l383 80v-368h307v-275h-307v-409q0 -83 30.5 -119.5t100.5 -36.5q76 0 151 41z" />
    <glyph glyph-name="u" unicode="u" horiz-adv-x="1333" 
d="M848 0l-4 164q-121 -189 -352 -189q-183 0 -282 110.5t-99 311.5v738h385v-658q0 -176 143 -176q72 0 120 37.5t72 99.5v697h386v-1135h-369z" />
    <glyph glyph-name="v" unicode="v" horiz-adv-x="1277" 
d="M1272 1135l-410 -1135h-446l-408 1135h428l213 -775l211 775h412z" />
    <glyph glyph-name="w" unicode="w" horiz-adv-x="1937" 
d="M1139 0l-170 709l-170 -709h-430l-355 1135h432l154 -766l178 766h393l177 -766l155 766h420l-354 -1135h-430z" />
    <glyph glyph-name="x" unicode="x" horiz-adv-x="1292" 
d="M827 0l-188 328l-190 -328h-447v4l412 563l-404 563v5h463l180 -312l178 312h447v-5l-406 -544l418 -582v-4h-463z" />
    <glyph glyph-name="y" unicode="y" horiz-adv-x="1294" 
d="M879 12q-52 -141 -111 -236t-131 -149t-151 -76t-183 -22q-112 0 -231 35l30 311q85 -29 160 -29q74 0 116.5 27t76.5 94l-443 1168h437l217 -779l215 779h407z" />
    <glyph glyph-name="z" unicode="z" horiz-adv-x="1134" 
d="M1069 287v-287h-1008v270l523 578h-500v287h971v-271l-523 -577h537z" />
    <glyph glyph-name="braceleft" unicode="{" horiz-adv-x="960" 
d="M868 -84v-256h-206q-216 0 -328.5 79t-112.5 255q0 83 33 201q20 75 20 135q0 79 -45 114t-143 35h-80v295h80q97 0 142.5 35.5t45.5 114.5q0 57 -20 135q-33 122 -33 201q0 175 112.5 254t328.5 79h206v-256h-157q-150 0 -150 -120q0 -36 23 -115q30 -105 30 -187
q0 -132 -71 -201t-205 -87q276 -37 276 -289q0 -77 -30 -186q-23 -80 -23 -115q0 -121 150 -121h157z" />
    <glyph glyph-name="bar" unicode="|" horiz-adv-x="1009" 
d="M338 -455v2048h334v-2048h-334z" />
    <glyph glyph-name="braceright" unicode="}" horiz-adv-x="960" 
d="M739 -6q0 -176 -112.5 -255t-327.5 -79h-207v256h158q149 0 149 121q0 38 -22 115q-31 113 -31 186q0 252 277 289q-277 37 -277 288q0 79 31 187q22 75 22 115q0 120 -149 120h-158v256h207q216 0 328 -79t112 -254q0 -83 -32 -201q-21 -82 -21 -135q0 -79 45.5 -114.5
t142.5 -35.5h80v-295h-80q-98 0 -143 -35t-45 -114q0 -56 21 -135q32 -114 32 -201z" />
    <glyph glyph-name="asciitilde" unicode="~" 
d="M352 391l-284 19q0 103 17.5 183t47 130.5t72 82.5t88.5 45t100 13q55 0 114.5 -15.5t98 -32.5t94.5 -46q123 -63 162 -63q76 0 76 165l285 -18q0 -127 -26 -218.5t-73 -141t-102 -71.5t-123 -22q-131 0 -309 93q-120 63 -162 63q-76 0 -76 -166z" />
    <glyph glyph-name="exclamdown" unicode="&#xa1;" horiz-adv-x="802" 
d="M610 1135v-336h-417v336h417zM547 670l84 -908v-147h-459v147l84 908h291z" />
    <glyph glyph-name="cent" unicode="&#xa2;" 
d="M1083 317q-138 -99 -323 -118v-228h-201v232q-217 31 -343 177t-126 380t126.5 382.5t342.5 184.5v225h201v-217q186 -16 317 -114l-76 -299q-94 91 -241 108v-528q134 11 254 110zM422 766q0 -177 137 -238v476q-137 -59 -137 -238z" />
    <glyph glyph-name="sterling" unicode="&#xa3;" 
d="M1208 350v-350h-1126v287q254 20 254 198q0 60 -33 150h-240v237h152q-25 95 -25 183q0 233 152.5 363t429.5 130q272 0 436 -127l-94 -323q-142 114 -297 114q-225 0 -225 -202q0 -70 22 -138h394v-237h-318q10 -48 10 -90q0 -124 -77 -195h585z" />
    <glyph glyph-name="currency" unicode="&#xa4;" 
d="M1202 379l-176 -176l-184 184q-88 -45 -197 -45q-108 0 -196 45l-185 -184l-176 176l180 180q-47 89 -47 201t47 201l-180 180l176 176l185 -184q88 45 196 45q109 0 197 -45l184 184l176 -176l-180 -180q47 -89 47 -201t-47 -201zM645 578q80 0 126 48.5t46 133.5
t-46 133.5t-126 48.5q-81 0 -126.5 -48.5t-45.5 -133.5t45.5 -133.5t126.5 -48.5z" />
    <glyph glyph-name="yen" unicode="&#xa5;" 
d="M1198 225h-360v-225h-385v225h-361v238h361v127h-361v237h275l-390 693h451l225 -521l226 521h434l-391 -693h276v-237h-360v-127h360v-238z" />
    <glyph glyph-name="brokenbar" unicode="&#xa6;" horiz-adv-x="1009" 
d="M338 825v768h334v-768h-334zM338 -455v768h334v-768h-334z" />
    <glyph glyph-name="section" unicode="&#xa7;" horiz-adv-x="1302" 
d="M1157 72q0 -194 -137.5 -307t-409.5 -113q-279 0 -479 125l66 307q203 -141 432 -141q170 0 170 88q0 18 -6.5 33t-22.5 27t-31.5 20.5t-45 18t-50 15t-59.5 15.5q-56 14 -86.5 22t-84.5 26.5t-85.5 36.5t-71.5 49t-62 66.5t-37.5 86t-15.5 110.5q0 188 140 291
q-127 95 -127 276q0 190 134 307t400 117q245 0 432 -102l-65 -305q-101 60 -189.5 88t-201.5 28q-78 0 -115 -24.5t-37 -65.5q0 -47 51.5 -72.5t161.5 -52.5q78 -19 121.5 -32t114.5 -45.5t109 -70t68.5 -103t30.5 -148.5q0 -188 -141 -291q129 -97 129 -280zM483 649
q0 -32 14.5 -57.5t37 -43.5t64.5 -34.5t81.5 -27.5t103.5 -27q43 37 43 96q0 26 -9 47t-29 37.5t-42.5 29.5t-59.5 25t-70 21.5t-83 22.5l-12 3q-39 -36 -39 -92z" />
    <glyph glyph-name="dieresis" unicode="&#xa8;" horiz-adv-x="1024" 
d="M606 1276v305h328v-305h-328zM90 1276v305h328v-305h-328z" />
    <glyph glyph-name="copyright" unicode="&#xa9;" horiz-adv-x="1880" 
d="M940 -29q-164 0 -310.5 61.5t-251 167t-165.5 251.5t-61 309t61 309t165.5 251t251 166.5t310.5 61.5t311 -61.5t251.5 -166.5t165.5 -251t61 -309q0 -218 -103.5 -399t-285 -285.5t-400.5 -104.5zM940 143q127 0 239 48.5t191 131t124.5 196.5t45.5 241q0 170 -77 311
t-215 223t-308 82t-308 -82t-215 -223t-77 -311q0 -127 45.5 -241t124.5 -196.5t191 -131t239 -48.5zM1278 383q-118 -88 -303 -88q-219 0 -345 123.5t-126 339.5q0 219 128 341t349 122q174 0 285 -78l-47 -252q-79 82 -207 82q-102 0 -157.5 -57t-55.5 -156
q0 -102 58 -158.5t155 -56.5q63 0 119.5 22.5t93.5 59.5z" />
    <glyph glyph-name="ordfeminine" unicode="&#xaa;" horiz-adv-x="962" 
d="M567 721l-2 88q-77 -104 -221 -104q-120 0 -190 66t-70 187q0 132 95 198.5t296 66.5h80v18q0 39 -27.5 57.5t-97.5 18.5q-141 0 -256 -68l-43 221q132 78 348 78q201 0 290 -75t89 -216v-536h-291zM446 926q38 0 67.5 17t41.5 46v74h-43q-141 0 -141 -74q0 -63 75 -63z
M104 373v252h754v-252h-754z" />
    <glyph glyph-name="guillemotleft" unicode="&#xab;" horiz-adv-x="1511" 
d="M1376 238l-266 -187l-416 527v20l416 526l266 -186l-291 -350zM803 238l-266 -187l-416 527v20l416 526l266 -186l-291 -350z" />
    <glyph glyph-name="logicalnot" unicode="&#xac;" 
d="M1176 784v-649h-308v344h-753v305h1061z" />
    <glyph glyph-name="registered" unicode="&#xae;" horiz-adv-x="1363" 
d="M682 565q-168 0 -306 79.5t-216 215.5t-78 299t78 299.5t216 216.5t306 80t306 -80t216 -216.5t78 -299.5t-78 -299t-216 -215.5t-306 -79.5zM682 713q187 0 312.5 129t125.5 317q0 190 -125.5 318.5t-312.5 128.5q-188 0 -313 -128.5t-125 -318.5q0 -189 125 -317.5
t313 -128.5zM608 1030v-176h-194v621h280q131 0 200 -56.5t69 -163.5q0 -134 -115 -192l149 -209h-235l-105 176h-49zM608 1321v-141h74q80 0 80 71q0 70 -90 70h-64z" />
    <glyph glyph-name="macron" unicode="&#xaf;" horiz-adv-x="1024" 
d="M131 1309v239h762v-239h-762z" />
    <glyph glyph-name="degree" unicode="&#xb0;" horiz-adv-x="921" 
d="M461 807q-175 0 -290.5 116.5t-115.5 286.5t115.5 287t290.5 117t290 -116.5t115 -287.5q0 -170 -115 -286.5t-290 -116.5zM461 1032q78 0 124 48t46 130q0 83 -46 132t-124 49t-124 -49t-46 -132q0 -82 46 -130t124 -48z" />
    <glyph glyph-name="plusminus" unicode="&#xb1;" 
d="M1178 770h-379v-381h-307v381h-379v307h379v381h307v-381h379v-307zM113 0v307h1065v-307h-1065z" />
    <glyph glyph-name="two.sups" unicode="&#xb2;" horiz-adv-x="823" 
d="M764 1077v-237h-701v229l240 170q79 58 115.5 98.5t36.5 83.5q0 38 -26.5 61t-70.5 23q-55 0 -106.5 -31t-89.5 -79l-107 207q56 66 152.5 106.5t212.5 40.5q152 0 243 -74.5t91 -212.5q0 -80 -34.5 -144.5t-94.5 -113.5t-158 -102l-45 -25h342z" />
    <glyph glyph-name="three.sups" unicode="&#xb3;" horiz-adv-x="806" 
d="M764 1092q0 -131 -104.5 -202t-284.5 -71q-205 0 -334 78l45 242q103 -80 244 -80q135 0 135 69q0 30 -40 46t-144 16h-107v192h100q85 0 127.5 18.5t42.5 49.5q0 27 -29.5 42t-78.5 15q-114 0 -215 -69l-74 217q140 94 352 94q163 0 252.5 -61t89.5 -175
q0 -79 -44 -133.5t-126 -79.5q193 -37 193 -208z" />
    <glyph glyph-name="acute" unicode="&#xb4;" horiz-adv-x="1024" 
d="M565 1249l-241 47l239 428l348 -69z" />
    <glyph glyph-name="uni00B5" unicode="&#xb5;" horiz-adv-x="1425" 
d="M621 -25q-85 0 -150 35l35 -438h-381v1563h385v-658q0 -176 143 -176q71 0 119.5 37.5t73.5 99.5v697h385v-705q0 -74 21 -102.5t71 -28.5q44 0 80 16v-311q-91 -22 -203 -22q-235 0 -303 149q-100 -156 -276 -156z" />
    <glyph glyph-name="paragraph" unicode="&#xb6;" horiz-adv-x="1409" 
d="M825 1327v-1659h-204v785q-258 14 -401.5 147t-143.5 385q0 250 155.5 392.5t415.5 142.5h584v-1852h-205v1659h-201z" />
    <glyph glyph-name="periodcentered" unicode="&#xb7;" horiz-adv-x="673" 
d="M117 410v446h442v-446h-442z" />
    <glyph glyph-name="cedilla" unicode="&#xb8;" horiz-adv-x="1024" 
d="M799 -276q0 -112 -82.5 -178t-255.5 -66q-149 0 -252 41l53 225q95 -45 199 -45q90 0 90 47q0 29 -41 47t-162 41l76 176h149l-28 -57q76 -19 128 -44.5t78.5 -56t37 -61.5t10.5 -69z" />
    <glyph glyph-name="one.sups" unicode="&#xb9;" horiz-adv-x="679" 
d="M551 1720v-880h-281v575q-65 -48 -147 -88l-117 197q177 82 299 196h246z" />
    <glyph glyph-name="ordmasculine" unicode="&#xba;" horiz-adv-x="962" 
d="M481 705q-190 0 -306 109.5t-116 311.5q0 203 115.5 312.5t306.5 109.5q190 0 305 -109t115 -313q0 -202 -115 -311.5t-305 -109.5zM481 950q53 0 83 45t30 131t-30 131.5t-83 45.5q-112 0 -112 -177q0 -86 29 -131t83 -45zM104 373v252h754v-252h-754z" />
    <glyph glyph-name="guillemotright" unicode="&#xbb;" horiz-adv-x="1511" 
d="M1391 578l-416 -527l-266 187l292 350l-292 350l266 186l416 -526v-20zM817 578l-416 -527l-266 187l293 350l-293 350l266 186l416 -526v-20z" />
    <glyph glyph-name="onequarter" unicode="&#xbc;" horiz-adv-x="1810" 
d="M551 1520v-881h-281v575q-65 -48 -147 -88l-117 197q175 81 299 197h246zM201 0l1085 1520h293l-1085 -1520h-293zM1769 152h-108v-156h-272v156h-406v219l391 522h287v-524h108v-217zM1217 369h172v229z" />
    <glyph glyph-name="onehalf" unicode="&#xbd;" horiz-adv-x="1908" 
d="M551 1520v-881h-281v575q-65 -48 -147 -88l-117 197q175 81 299 197h246zM201 0l1085 1520h293l-1085 -1520h-293zM1849 238v-238h-700v229l240 170q79 57 115 98.5t36 84.5q0 38 -26 61t-70 23q-55 0 -107 -31.5t-90 -79.5l-106 207q56 66 152 106.5t212 40.5
q152 0 243 -74t91 -212q0 -112 -65 -194t-222 -167l-45 -24h342z" />
    <glyph glyph-name="threequarters" unicode="&#xbe;" horiz-adv-x="1900" 
d="M764 891q0 -131 -104.5 -202t-284.5 -71q-205 0 -334 78l45 242q103 -80 244 -80q135 0 135 70q0 30 -40 45.5t-144 15.5h-107v193h100q86 0 128 18t42 49q0 27 -30 42.5t-78 15.5q-113 0 -215 -70l-74 217q140 94 352 94q163 0 252.5 -60.5t89.5 -174.5
q0 -79 -44 -133.5t-126 -79.5q193 -37 193 -209zM291 0l1085 1520h293l-1085 -1520h-293zM1860 152h-109v-156h-272v156h-406v219l391 522h287v-524h109v-217zM1307 369h172v229z" />
    <glyph glyph-name="questiondown" unicode="&#xbf;" horiz-adv-x="1204" 
d="M911 1135v-336h-417v336h417zM889 670v-80q0 -63 -15.5 -115.5t-36.5 -85.5t-57 -63.5t-60.5 -45.5t-64.5 -36q-39 -21 -59 -33t-44 -32.5t-34 -45.5t-10 -57q0 -71 51.5 -105t128.5 -34q183 0 311 182l158 -312q-205 -221 -543 -221q-116 0 -213.5 27t-171.5 80.5
t-115.5 140.5t-41.5 199q0 50 9 94.5t22 77t37 63t43.5 50t52.5 42.5t53.5 34.5t56.5 31.5q44 23 67.5 38t51.5 38.5t40.5 52t12.5 63.5v52h371z" />
    <glyph glyph-name="Agrave" unicode="&#xc0;" horiz-adv-x="1617" 
d="M870 1618l-475 283l336 155l361 -336zM1159 0l-84 281h-543l-83 -281h-445l539 1520h534l537 -1520h-455zM633 608h342l-170 570z" />
    <glyph glyph-name="Aacute" unicode="&#xc1;" horiz-adv-x="1617" 
d="M748 1618l-222 102l361 336l336 -155zM1159 0l-84 281h-543l-83 -281h-445l539 1520h534l537 -1520h-455zM633 608h342l-170 570z" />
    <glyph glyph-name="Acircumflex" unicode="&#xc2;" horiz-adv-x="1617" 
d="M1294 1657l-340 -31l-145 199l-145 -199l-340 31l329 358h312zM1159 0l-84 281h-543l-83 -281h-445l539 1520h534l537 -1520h-455zM633 608h342l-170 570z" />
    <glyph glyph-name="Atilde" unicode="&#xc3;" horiz-adv-x="1617" 
d="M569 1614l-262 20q0 185 81.5 276t211.5 91q107 0 244 -72q82 -45 125 -45q80 0 80 131l262 -20q0 -185 -81.5 -276t-211.5 -91q-108 0 -244 72q-82 45 -125 45q-80 0 -80 -131zM1159 0l-84 281h-543l-83 -281h-445l539 1520h534l537 -1520h-455zM633 608h342l-170 570z
" />
    <glyph glyph-name="Adieresis" unicode="&#xc4;" horiz-adv-x="1617" 
d="M915 1661v307h328v-307h-328zM375 1661v307h327v-307h-327zM1159 0l-84 281h-543l-83 -281h-445l539 1520h534l537 -1520h-455zM633 608h342l-170 570z" />
    <glyph glyph-name="Aring" unicode="&#xc5;" horiz-adv-x="1617" 
d="M1159 0l-84 281h-543l-83 -281h-445l539 1520h94q-70 40 -109 107.5t-39 150.5q0 127 91 214t229 87t228.5 -87t90.5 -214q0 -83 -38.5 -150.5t-106.5 -107.5h94l537 -1520h-455zM809 1663q54 0 86.5 32t32.5 83t-32.5 81.5t-86.5 30.5t-86.5 -30.5t-32.5 -81.5t32.5 -83
t86.5 -32zM633 608h342l-170 570z" />
    <glyph glyph-name="AE" unicode="&#xc6;" horiz-adv-x="2246" 
d="M1061 0v340h-531l-174 -340h-462l829 1520h1413v-336h-688v-242h606v-328h-606v-274h704v-340h-1091zM1061 1190h-96l-267 -520h363v520z" />
    <glyph glyph-name="Ccedilla" unicode="&#xc7;" horiz-adv-x="1437" 
d="M1108 -276q0 -112 -82.5 -178t-255.5 -66q-150 0 -252 41l53 225q95 -45 199 -45q90 0 90 47q0 29 -41 47t-162 41l62 146q-299 38 -468 242.5t-169 535.5q0 374 211.5 581t576.5 207q288 0 478 -135l-74 -366q-144 147 -363 147q-190 0 -293.5 -114.5t-103.5 -317.5
q0 -212 108.5 -324t288.5 -112q115 0 214 42.5t165 106.5l78 -352q-196 -152 -506 -152l-8 -16q76 -19 128 -44.5t78.5 -56t37 -61.5t10.5 -69z" />
    <glyph glyph-name="Egrave" unicode="&#xc8;" horiz-adv-x="1349" 
d="M754 1618l-475 283l335 155l361 -336zM1255 340v-340h-1110v1520h1094v-336h-688v-242h606v-328h-606v-274h704z" />
    <glyph glyph-name="Eacute" unicode="&#xc9;" horiz-adv-x="1349" 
d="M631 1618l-221 102l360 336l336 -155zM1255 340v-340h-1110v1520h1094v-336h-688v-242h606v-328h-606v-274h704z" />
    <glyph glyph-name="Ecircumflex" unicode="&#xca;" horiz-adv-x="1349" 
d="M1178 1657l-340 -31l-146 199l-145 -199l-340 31l330 358h311zM1255 340v-340h-1110v1520h1094v-336h-688v-242h606v-328h-606v-274h704z" />
    <glyph glyph-name="Edieresis" unicode="&#xcb;" horiz-adv-x="1349" 
d="M799 1661v307h327v-307h-327zM258 1661v307h328v-307h-328zM1255 340v-340h-1110v1520h1094v-336h-688v-242h606v-328h-606v-274h704z" />
    <glyph glyph-name="Igrave" unicode="&#xcc;" horiz-adv-x="696" 
d="M410 1618l-476 283l336 155l361 -336zM145 0v1520h406v-1520h-406z" />
    <glyph glyph-name="Iacute" unicode="&#xcd;" horiz-adv-x="696" 
d="M287 1618l-221 102l360 336l336 -155zM145 0v1520h406v-1520h-406z" />
    <glyph glyph-name="Icircumflex" unicode="&#xce;" horiz-adv-x="696" 
d="M834 1657l-340 -31l-146 199l-145 -199l-340 31l330 358h311zM145 0v1520h406v-1520h-406z" />
    <glyph glyph-name="Idieresis" unicode="&#xcf;" horiz-adv-x="696" 
d="M455 1661v307h327v-307h-327zM-86 1661v307h328v-307h-328zM145 0v1520h406v-1520h-406z" />
    <glyph glyph-name="Eth" unicode="&#xd0;" horiz-adv-x="1642" 
d="M1561 762q0 -384 -208 -573t-593 -189h-582v627h-158v303h158v590h580q175 0 312 -37.5t228.5 -104t151 -162.5t85.5 -208t26 -246zM856 627h-272v-295h155q197 0 294 104t97 324q0 99 -20 174t-64 133.5t-122 89.5t-187 31h-153v-258h272v-303z" />
    <glyph glyph-name="Ntilde" unicode="&#xd1;" horiz-adv-x="1660" 
d="M592 1614l-262 20q0 185 81.5 276t211.5 91q106 0 243 -72q82 -45 125 -45q80 0 80 131l262 -20q0 -185 -81.5 -276t-211.5 -91q-107 0 -243 72q-82 45 -125 45q-80 0 -80 -131zM1128 0l-600 887v-887h-383v1520h392l593 -877v877h386v-1520h-388z" />
    <glyph glyph-name="Ograve" unicode="&#xd2;" horiz-adv-x="1669" 
d="M895 1618l-475 283l336 155l360 -336zM834 -29q-343 0 -547.5 211t-204.5 578t204.5 577.5t547.5 210.5t548 -210.5t205 -577.5t-205 -578t-548 -211zM834 326q151 0 236 114t85 320t-85 320t-236 114q-150 0 -235 -114t-85 -320t85 -320t235 -114z" />
    <glyph glyph-name="Oacute" unicode="&#xd3;" horiz-adv-x="1669" 
d="M772 1618l-221 102l360 336l336 -155zM834 -29q-343 0 -547.5 211t-204.5 578t204.5 577.5t547.5 210.5t548 -210.5t205 -577.5t-205 -578t-548 -211zM834 326q151 0 236 114t85 320t-85 320t-236 114q-150 0 -235 -114t-85 -320t85 -320t235 -114z" />
    <glyph glyph-name="Ocircumflex" unicode="&#xd4;" horiz-adv-x="1669" 
d="M1319 1657l-340 -31l-145 199l-146 -199l-340 31l330 358h311zM834 -29q-343 0 -547.5 211t-204.5 578t204.5 577.5t547.5 210.5t548 -210.5t205 -577.5t-205 -578t-548 -211zM834 326q151 0 236 114t85 320t-85 320t-236 114q-150 0 -235 -114t-85 -320t85 -320
t235 -114z" />
    <glyph glyph-name="Otilde" unicode="&#xd5;" horiz-adv-x="1669" 
d="M594 1614l-262 20q0 185 81.5 276t211.5 91q106 0 243 -72q82 -45 125 -45q80 0 80 131l262 -20q0 -185 -81.5 -276t-211.5 -91q-107 0 -243 72q-82 45 -125 45q-80 0 -80 -131zM834 -29q-343 0 -547.5 211t-204.5 578t204.5 577.5t547.5 210.5t548 -210.5t205 -577.5
t-205 -578t-548 -211zM834 326q151 0 236 114t85 320t-85 320t-236 114q-150 0 -235 -114t-85 -320t85 -320t235 -114z" />
    <glyph glyph-name="Odieresis" unicode="&#xd6;" horiz-adv-x="1669" 
d="M940 1661v307h328v-307h-328zM399 1661v307h328v-307h-328zM834 -29q-343 0 -547.5 211t-204.5 578t204.5 577.5t547.5 210.5t548 -210.5t205 -577.5t-205 -578t-548 -211zM834 326q151 0 236 114t85 320t-85 320t-236 114q-150 0 -235 -114t-85 -320t85 -320t235 -114z
" />
    <glyph glyph-name="multiply" unicode="&#xd7;" 
d="M1214 283l-219 -220l-350 357l-350 -357l-219 220l356 350l-356 350l219 217l350 -356l350 356l219 -217l-356 -350z" />
    <glyph glyph-name="Oslash" unicode="&#xd8;" horiz-adv-x="1669" 
d="M834 -29q-234 0 -412 105l-129 -166l-187 76l166 211q-190 212 -190 563q0 367 204.5 577.5t547.5 210.5q237 0 413 -104l129 166l187 -76l-166 -213q190 -209 190 -561q0 -367 -205 -578t-548 -211zM514 760q0 -122 31 -213l465 594q-74 53 -176 53q-150 0 -235 -114
t-85 -320zM1155 760q0 122 -31 213l-465 -594q71 -53 175 -53q151 0 236 114t85 320z" />
    <glyph glyph-name="Ugrave" unicode="&#xd9;" horiz-adv-x="1589" 
d="M856 1618l-475 283l336 155l360 -336zM131 616v904h408v-897q0 -146 66.5 -221.5t193.5 -75.5t193.5 75.5t66.5 221.5v897h399v-904q0 -318 -168.5 -481.5t-498.5 -163.5t-495 163.5t-165 481.5z" />
    <glyph glyph-name="Uacute" unicode="&#xda;" horiz-adv-x="1589" 
d="M733 1618l-221 102l360 336l336 -155zM131 616v904h408v-897q0 -146 66.5 -221.5t193.5 -75.5t193.5 75.5t66.5 221.5v897h399v-904q0 -318 -168.5 -481.5t-498.5 -163.5t-495 163.5t-165 481.5z" />
    <glyph glyph-name="Ucircumflex" unicode="&#xdb;" horiz-adv-x="1589" 
d="M1280 1657l-340 -31l-145 199l-146 -199l-340 31l330 358h311zM131 616v904h408v-897q0 -146 66.5 -221.5t193.5 -75.5t193.5 75.5t66.5 221.5v897h399v-904q0 -318 -168.5 -481.5t-498.5 -163.5t-495 163.5t-165 481.5z" />
    <glyph glyph-name="Udieresis" unicode="&#xdc;" horiz-adv-x="1589" 
d="M901 1661v307h328v-307h-328zM360 1661v307h328v-307h-328zM131 616v904h408v-897q0 -146 66.5 -221.5t193.5 -75.5t193.5 75.5t66.5 221.5v897h399v-904q0 -318 -168.5 -481.5t-498.5 -163.5t-495 163.5t-165 481.5z" />
    <glyph glyph-name="Yacute" unicode="&#xdd;" horiz-adv-x="1460" 
d="M668 1618l-222 102l361 336l336 -155zM1479 1520l-545 -992v-528h-408v526l-544 994h479l276 -607l277 607h465z" />
    <glyph glyph-name="Thorn" unicode="&#xde;" horiz-adv-x="1427" 
d="M551 274v-274h-406v1520h406v-217h229q294 0 445 -129.5t151 -380.5q0 -120 -35 -212.5t-92 -149.5t-138 -93t-163.5 -50t-177.5 -14h-219zM737 975h-186v-375h182q225 0 225 186q0 189 -221 189z" />
    <glyph glyph-name="germandbls" unicode="&#xdf;" horiz-adv-x="1388" 
d="M1333 430q0 -205 -129.5 -330t-353.5 -125q-147 0 -256 41l45 310q74 -43 145 -43q77 0 119.5 48t42.5 132q0 230 -313 246v260q211 16 211 184q0 75 -42 116.5t-118 41.5q-182 0 -182 -254v-1057h-385v1085q0 247 145.5 389t433.5 142q252 0 391.5 -107.5t139.5 -291.5
q0 -129 -69.5 -215t-192.5 -121q183 -49 275.5 -165.5t92.5 -285.5z" />
    <glyph glyph-name="agrave" unicode="&#xe0;" horiz-adv-x="1253" 
d="M580 1249l-347 406l349 69l239 -428zM772 0l-4 131q-123 -156 -338 -156q-171 0 -270 93t-99 262q0 191 136.5 284t420.5 93h138v26q0 68 -43 100.5t-154 32.5q-216 0 -373 -108l-57 293q186 108 487 108q278 0 401.5 -104.5t123.5 -302.5v-752h-369zM561 256
q67 0 119 31t76 82v131h-78q-127 0 -186.5 -31t-59.5 -100q0 -113 129 -113z" />
    <glyph glyph-name="aacute" unicode="&#xe1;" horiz-adv-x="1253" 
d="M686 1249l-242 47l240 428l348 -69zM772 0l-4 131q-123 -156 -338 -156q-171 0 -270 93t-99 262q0 191 136.5 284t420.5 93h138v26q0 68 -43 100.5t-154 32.5q-216 0 -373 -108l-57 293q186 108 487 108q278 0 401.5 -104.5t123.5 -302.5v-752h-369zM561 256q67 0 119 31
t76 82v131h-78q-127 0 -186.5 -31t-59.5 -100q0 -113 129 -113z" />
    <glyph glyph-name="acircumflex" unicode="&#xe2;" horiz-adv-x="1253" 
d="M1092 1288l-318 -31l-141 254l-141 -254l-318 31l303 422h311zM772 0l-4 131q-123 -156 -338 -156q-171 0 -270 93t-99 262q0 191 136.5 284t420.5 93h138v26q0 68 -43 100.5t-154 32.5q-216 0 -373 -108l-57 293q186 108 487 108q278 0 401.5 -104.5t123.5 -302.5v-752
h-369zM561 256q67 0 119 31t76 82v131h-78q-127 0 -186.5 -31t-59.5 -100q0 -113 129 -113z" />
    <glyph glyph-name="atilde" unicode="&#xe3;" horiz-adv-x="1253" 
d="M410 1255l-263 19q0 186 77.5 277t205.5 91q107 0 238 -73q77 -43 116 -43q72 0 72 129l262 -19q0 -186 -77 -277t-205 -91q-45 0 -92 12.5t-74 24t-72 34.5q-75 45 -117 45q-35 0 -53 -30t-18 -99zM772 0l-4 131q-123 -156 -338 -156q-171 0 -270 93t-99 262
q0 191 136.5 284t420.5 93h138v26q0 68 -43 100.5t-154 32.5q-216 0 -373 -108l-57 293q186 108 487 108q278 0 401.5 -104.5t123.5 -302.5v-752h-369zM561 256q67 0 119 31t76 82v131h-78q-127 0 -186.5 -31t-59.5 -100q0 -113 129 -113z" />
    <glyph glyph-name="adieresis" unicode="&#xe4;" horiz-adv-x="1253" 
d="M727 1276v305h328v-305h-328zM211 1276v305h328v-305h-328zM772 0l-4 131q-123 -156 -338 -156q-171 0 -270 93t-99 262q0 191 136.5 284t420.5 93h138v26q0 68 -43 100.5t-154 32.5q-216 0 -373 -108l-57 293q186 108 487 108q278 0 401.5 -104.5t123.5 -302.5v-752
h-369zM561 256q67 0 119 31t76 82v131h-78q-127 0 -186.5 -31t-59.5 -100q0 -113 129 -113z" />
    <glyph glyph-name="aring" unicode="&#xe5;" horiz-adv-x="1253" 
d="M633 1204q-138 0 -229 87t-91 214t91 214t229 87t228.5 -87t90.5 -214t-90.5 -214t-228.5 -87zM633 1393q54 0 86.5 30.5t32.5 81.5t-32.5 83t-86.5 32t-86.5 -32t-32.5 -83t32.5 -81.5t86.5 -30.5zM772 0l-4 131q-123 -156 -338 -156q-171 0 -270 93t-99 262
q0 191 136.5 284t420.5 93h138v26q0 68 -43 100.5t-154 32.5q-216 0 -373 -108l-57 293q186 108 487 108q278 0 401.5 -104.5t123.5 -302.5v-752h-369zM561 256q67 0 119 31t76 82v131h-78q-127 0 -186.5 -31t-59.5 -100q0 -113 129 -113z" />
    <glyph glyph-name="ae" unicode="&#xe6;" horiz-adv-x="1935" 
d="M1853 86q-203 -111 -479 -111q-313 0 -467 168q-171 -168 -430 -168q-200 0 -308 92.5t-108 260.5q0 185 135 275.5t422 90.5h152v39q0 67 -48 100t-159 33q-220 0 -377 -108l-57 293q186 108 487 108q257 0 357 -112q136 112 352 112q120 0 214 -29.5t155 -80
t101 -122.5t56.5 -151t16.5 -172v-135h-738q10 -97 77.5 -149t211.5 -52q201 0 377 111zM1333 895q-86 0 -141 -52t-62 -155h371v12q0 195 -168 195zM571 256q71 0 129 30t91 81q-14 65 -19 118h-94q-131 0 -188.5 -28t-57.5 -90q0 -111 139 -111z" />
    <glyph glyph-name="ccedilla" unicode="&#xe7;" horiz-adv-x="1087" 
d="M887 -276q0 -112 -82.5 -178t-255.5 -66q-149 0 -252 41l53 225q95 -45 199 -45q90 0 90 47q0 29 -41 47t-162 41l64 150q-210 35 -326.5 185.5t-116.5 389.5q0 281 159 439.5t431 158.5q237 0 389 -112l-75 -302q-43 45 -109.5 74t-144.5 29q-121 0 -188.5 -74
t-67.5 -205q0 -133 69.5 -207.5t192.5 -74.5q138 0 260 104l67 -299q-65 -49 -170.5 -83t-226.5 -34l-10 -20q76 -19 128 -44.5t78.5 -56t37 -61.5t10.5 -69z" />
    <glyph glyph-name="egrave" unicode="&#xe8;" horiz-adv-x="1261" 
d="M598 1249l-346 406l348 69l240 -428zM1180 86q-199 -111 -482 -111q-317 0 -479 149.5t-162 434.5q0 284 156.5 442t433.5 158q121 0 216 -29.5t156.5 -80t101.5 -122.5t56.5 -151t16.5 -172v-141h-745q27 -195 294 -195q203 0 379 111zM657 895q-88 0 -146 -53.5
t-65 -159.5h381v16q0 197 -170 197z" />
    <glyph glyph-name="eacute" unicode="&#xe9;" horiz-adv-x="1261" 
d="M705 1249l-242 47l239 428l349 -69zM1180 86q-199 -111 -482 -111q-317 0 -479 149.5t-162 434.5q0 284 156.5 442t433.5 158q121 0 216 -29.5t156.5 -80t101.5 -122.5t56.5 -151t16.5 -172v-141h-745q27 -195 294 -195q203 0 379 111zM657 895q-88 0 -146 -53.5
t-65 -159.5h381v16q0 197 -170 197z" />
    <glyph glyph-name="ecircumflex" unicode="&#xea;" horiz-adv-x="1261" 
d="M1110 1288l-317 -31l-142 254l-141 -254l-317 31l303 422h311zM1180 86q-199 -111 -482 -111q-317 0 -479 149.5t-162 434.5q0 284 156.5 442t433.5 158q121 0 216 -29.5t156.5 -80t101.5 -122.5t56.5 -151t16.5 -172v-141h-745q27 -195 294 -195q203 0 379 111zM657 895
q-88 0 -146 -53.5t-65 -159.5h381v16q0 197 -170 197z" />
    <glyph glyph-name="edieresis" unicode="&#xeb;" horiz-adv-x="1261" 
d="M745 1276v305h328v-305h-328zM229 1276v305h328v-305h-328zM1180 86q-199 -111 -482 -111q-317 0 -479 149.5t-162 434.5q0 284 156.5 442t433.5 158q121 0 216 -29.5t156.5 -80t101.5 -122.5t56.5 -151t16.5 -172v-141h-745q27 -195 294 -195q203 0 379 111zM657 895
q-88 0 -146 -53.5t-65 -159.5h381v16q0 197 -170 197z" />
    <glyph glyph-name="igrave" unicode="&#xec;" horiz-adv-x="634" 
d="M276 1249l-346 406l349 69l239 -428zM125 0v1135h385v-1135h-385z" />
    <glyph glyph-name="iacute" unicode="&#xed;" horiz-adv-x="634" 
d="M356 1249l-241 47l239 428l348 -69zM125 0v1135h385v-1135h-385z" />
    <glyph glyph-name="icircumflex" unicode="&#xee;" horiz-adv-x="653" 
d="M731 1288l-289 -31l-114 256l-115 -256l-291 31l254 422h301zM135 0v1135h385v-1135h-385z" />
    <glyph glyph-name="idieresis" unicode="&#xef;" horiz-adv-x="653" 
d="M393 1276v305h314v-305h-314zM-53 1276v305h313v-305h-313zM135 0v1135h385v-1135h-385z" />
    <glyph glyph-name="eth" unicode="&#xf0;" horiz-adv-x="1298" 
d="M1235 612q0 -169 -45.5 -294.5t-127.5 -199t-186.5 -108.5t-232.5 -35q-145 0 -258 43t-184 119.5t-107.5 178.5t-36.5 223q0 128 40 231t108.5 167.5t156 99t185.5 34.5q172 0 274 -110q-72 144 -200 266l-252 -119l-123 133l229 109q-117 86 -258 159l381 140
q115 -80 197 -148l252 119l122 -133l-241 -115q307 -332 307 -760zM451 547q0 -122 53 -193t151 -71q93 0 149 72t56 220q0 51 -10 103q-60 117 -195 117q-95 0 -149.5 -61.5t-54.5 -186.5z" />
    <glyph glyph-name="ntilde" unicode="&#xf1;" horiz-adv-x="1333" 
d="M442 1255l-262 19q0 186 77.5 277t205.5 91q106 0 237 -73q77 -43 117 -43q72 0 72 129l262 -19q0 -186 -77.5 -277t-205.5 -91q-102 0 -237 71q-81 45 -117 45q-72 0 -72 -129zM502 698v-698h-385v1135h368l4 -170q126 194 357 194q180 0 278.5 -110.5t98.5 -311.5v-737
h-385v657q0 177 -144 177q-64 0 -115 -36.5t-77 -99.5z" />
    <glyph glyph-name="ograve" unicode="&#xf2;" horiz-adv-x="1292" 
d="M594 1249l-346 406l348 69l240 -428zM647 -25q-129 0 -236.5 38.5t-186.5 111.5t-123 186t-44 256t44 256t123 186t186.5 111.5t236.5 38.5q172 0 303.5 -66t208 -201t76.5 -325t-76.5 -325t-208 -201t-303.5 -66zM647 283q91 0 143 73t52 211t-52 211.5t-143 73.5
q-92 0 -144 -73t-52 -212t52 -211.5t144 -72.5z" />
    <glyph glyph-name="oacute" unicode="&#xf3;" horiz-adv-x="1292" 
d="M700 1249l-241 47l239 428l349 -69zM647 -25q-129 0 -236.5 38.5t-186.5 111.5t-123 186t-44 256t44 256t123 186t186.5 111.5t236.5 38.5q172 0 303.5 -66t208 -201t76.5 -325t-76.5 -325t-208 -201t-303.5 -66zM647 283q91 0 143 73t52 211t-52 211.5t-143 73.5
q-92 0 -144 -73t-52 -212t52 -211.5t144 -72.5z" />
    <glyph glyph-name="ocircumflex" unicode="&#xf4;" horiz-adv-x="1292" 
d="M1106 1288l-318 -31l-141 254l-141 -254l-318 31l304 422h311zM647 -25q-129 0 -236.5 38.5t-186.5 111.5t-123 186t-44 256t44 256t123 186t186.5 111.5t236.5 38.5q172 0 303.5 -66t208 -201t76.5 -325t-76.5 -325t-208 -201t-303.5 -66zM647 283q91 0 143 73t52 211
t-52 211.5t-143 73.5q-92 0 -144 -73t-52 -212t52 -211.5t144 -72.5z" />
    <glyph glyph-name="otilde" unicode="&#xf5;" horiz-adv-x="1292" 
d="M424 1255l-262 19q0 186 77 277t205 91q107 0 238 -73q77 -43 117 -43q35 0 53 30t18 99l263 -19q0 -186 -77.5 -277t-205.5 -91q-110 0 -238 71q-77 45 -116 45q-72 0 -72 -129zM647 -25q-129 0 -236.5 38.5t-186.5 111.5t-123 186t-44 256t44 256t123 186t186.5 111.5
t236.5 38.5q172 0 303.5 -66t208 -201t76.5 -325t-76.5 -325t-208 -201t-303.5 -66zM647 283q91 0 143 73t52 211t-52 211.5t-143 73.5q-92 0 -144 -73t-52 -212t52 -211.5t144 -72.5z" />
    <glyph glyph-name="odieresis" unicode="&#xf6;" horiz-adv-x="1292" 
d="M741 1276v305h328v-305h-328zM225 1276v305h328v-305h-328zM647 -25q-129 0 -236.5 38.5t-186.5 111.5t-123 186t-44 256t44 256t123 186t186.5 111.5t236.5 38.5q172 0 303.5 -66t208 -201t76.5 -325t-76.5 -325t-208 -201t-303.5 -66zM647 283q91 0 143 73t52 211
t-52 211.5t-143 73.5q-92 0 -144 -73t-52 -212t52 -211.5t144 -72.5z" />
    <glyph glyph-name="divide" unicode="&#xf7;" 
d="M426 1065q0 92 63.5 155.5t155.5 63.5t155.5 -63.5t63.5 -155.5t-63.5 -154.5t-155.5 -62.5t-155.5 62.5t-63.5 154.5zM96 487v289h1098v-289h-1098zM426 199q0 92 63.5 155.5t155.5 63.5t155.5 -63.5t63.5 -155.5q0 -93 -63 -156t-156 -63t-156 63t-63 156z" />
    <glyph glyph-name="oslash" unicode="&#xf8;" horiz-adv-x="1292" 
d="M647 -25q-169 0 -301 66l-125 -160l-162 72l148 190q-150 156 -150 424q0 143 44 256t123 186t186.5 111.5t236.5 38.5q169 0 299 -65l125 159l162 -71l-148 -191q150 -156 150 -424q0 -190 -76.5 -325t-208 -201t-303.5 -66zM451 567q0 -61 8 -100l280 360
q-42 25 -92 25q-92 0 -144 -73t-52 -212zM842 567q0 62 -8 101l-281 -361q41 -24 94 -24q91 0 143 73t52 211z" />
    <glyph glyph-name="ugrave" unicode="&#xf9;" horiz-adv-x="1333" 
d="M614 1249l-346 406l348 69l240 -428zM848 0l-4 164q-121 -189 -352 -189q-183 0 -282 110.5t-99 311.5v738h385v-658q0 -176 143 -176q72 0 120 37.5t72 99.5v697h386v-1135h-369z" />
    <glyph glyph-name="uacute" unicode="&#xfa;" horiz-adv-x="1333" 
d="M721 1249l-242 47l240 428l348 -69zM848 0l-4 164q-121 -189 -352 -189q-183 0 -282 110.5t-99 311.5v738h385v-658q0 -176 143 -176q72 0 120 37.5t72 99.5v697h386v-1135h-369z" />
    <glyph glyph-name="ucircumflex" unicode="&#xfb;" horiz-adv-x="1333" 
d="M1126 1288l-317 -31l-141 254l-142 -254l-317 31l303 422h311zM848 0l-4 164q-121 -189 -352 -189q-183 0 -282 110.5t-99 311.5v738h385v-658q0 -176 143 -176q72 0 120 37.5t72 99.5v697h386v-1135h-369z" />
    <glyph glyph-name="udieresis" unicode="&#xfc;" horiz-adv-x="1333" 
d="M762 1276v305h328v-305h-328zM246 1276v305h327v-305h-327zM848 0l-4 164q-121 -189 -352 -189q-183 0 -282 110.5t-99 311.5v738h385v-658q0 -176 143 -176q72 0 120 37.5t72 99.5v697h386v-1135h-369z" />
    <glyph glyph-name="yacute" unicode="&#xfd;" horiz-adv-x="1294" 
d="M711 1249l-242 47l240 428l348 -69zM879 12q-52 -141 -111 -236t-131 -149t-151 -76t-183 -22q-112 0 -231 35l30 311q85 -29 160 -29q74 0 116.5 27t76.5 94l-443 1168h437l217 -779l215 779h407z" />
    <glyph glyph-name="thorn" unicode="&#xfe;" horiz-adv-x="1363" 
d="M797 -25q-179 0 -295 113v-516h-385v2021h385v-598q132 164 340 164q212 0 336.5 -153.5t124.5 -425.5q0 -287 -138 -446t-368 -159zM502 367q27 -39 76.5 -61.5t105.5 -22.5q106 0 166.5 78t60.5 210q0 128 -57 195.5t-154 67.5q-62 0 -114 -27.5t-84 -79.5v-360z" />
    <glyph glyph-name="ydieresis" unicode="&#xff;" horiz-adv-x="1294" 
d="M752 1276v305h327v-305h-327zM236 1276v305h327v-305h-327zM879 12q-52 -141 -111 -236t-131 -149t-151 -76t-183 -22q-112 0 -231 35l30 311q85 -29 160 -29q74 0 116.5 27t76.5 94l-443 1168h437l217 -779l215 779h407z" />
    <glyph glyph-name="Amacron" unicode="&#x100;" horiz-adv-x="1617" 
d="M395 1694v241h828v-241h-828zM1159 0l-84 281h-543l-83 -281h-445l539 1520h534l537 -1520h-455zM633 608h342l-170 570z" />
    <glyph glyph-name="amacron" unicode="&#x101;" horiz-adv-x="1253" 
d="M252 1309v239h762v-239h-762zM772 0l-4 131q-123 -156 -338 -156q-171 0 -270 93t-99 262q0 191 136.5 284t420.5 93h138v26q0 68 -43 100.5t-154 32.5q-216 0 -373 -108l-57 293q186 108 487 108q278 0 401.5 -104.5t123.5 -302.5v-752h-369zM561 256q67 0 119 31t76 82
v131h-78q-127 0 -186.5 -31t-59.5 -100q0 -113 129 -113z" />
    <glyph glyph-name="Abreve" unicode="&#x102;" horiz-adv-x="1617" 
d="M383 1987l279 16q3 -76 41 -117t106 -41t106 41t41 117l279 -16q-6 -177 -123.5 -272t-302.5 -95t-302.5 95t-123.5 272zM1159 0l-84 281h-543l-83 -281h-445l539 1520h534l537 -1520h-455zM633 608h342l-170 570z" />
    <glyph glyph-name="abreve" unicode="&#x103;" horiz-adv-x="1253" 
d="M207 1663l282 12q1 -94 38.5 -142t105.5 -48q140 0 143 190l283 -12q-6 -195 -123.5 -301.5t-302.5 -106.5t-302.5 106.5t-123.5 301.5zM772 0l-4 131q-123 -156 -338 -156q-171 0 -270 93t-99 262q0 191 136.5 284t420.5 93h138v26q0 68 -43 100.5t-154 32.5
q-216 0 -373 -108l-57 293q186 108 487 108q278 0 401.5 -104.5t123.5 -302.5v-752h-369zM561 256q67 0 119 31t76 82v131h-78q-127 0 -186.5 -31t-59.5 -100q0 -113 129 -113z" />
    <glyph glyph-name="Aogonek" unicode="&#x104;" horiz-adv-x="1617" 
d="M975 -287q0 88 46.5 156.5t137.5 130.5l-84 281h-543l-83 -281h-445l539 1520h534l537 -1520h-164q-213 -66 -213 -190q0 -41 26 -66t78 -25q68 0 146 45l49 -221q-113 -63 -262 -63q-147 0 -223 62t-76 171zM633 608h342l-170 570z" />
    <glyph glyph-name="aogonek" unicode="&#x105;" horiz-adv-x="1253" 
d="M1135 -457q-113 -63 -263 -63q-147 0 -223 62t-76 171q0 170 199 291l-4 127q-123 -156 -338 -156q-171 0 -270 93t-99 262q0 191 136.5 284t420.5 93h138v26q0 68 -43 100.5t-154 32.5q-216 0 -373 -108l-57 293q186 108 487 108q278 0 401.5 -104.5t123.5 -302.5v-752
h-84q-221 -67 -221 -190q0 -41 26 -66t78 -25q67 0 145 45zM561 256q67 0 119 31t76 82v131h-78q-127 0 -186.5 -31t-59.5 -100q0 -113 129 -113z" />
    <glyph glyph-name="Cacute" unicode="&#x106;" horiz-adv-x="1437" 
d="M760 1618l-221 102l360 336l336 -155zM1368 123q-196 -152 -506 -152q-362 0 -571 209.5t-209 579.5q0 374 211.5 581t576.5 207q288 0 478 -135l-74 -366q-144 147 -363 147q-190 0 -293.5 -114.5t-103.5 -317.5q0 -212 108.5 -324t288.5 -112q115 0 214 42.5t165 106.5
z" />
    <glyph glyph-name="cacute" unicode="&#x107;" horiz-adv-x="1087" 
d="M659 1249l-241 47l239 428l349 -69zM1040 92q-65 -49 -172.5 -83t-236.5 -34q-269 0 -421.5 155.5t-152.5 430.5q0 281 159 439.5t431 158.5q237 0 389 -112l-75 -302q-43 45 -109.5 74t-144.5 29q-121 0 -188.5 -74t-67.5 -205q0 -133 69.5 -207.5t192.5 -74.5
q138 0 260 104z" />
    <glyph glyph-name="Ccircumflex" unicode="&#x108;" horiz-adv-x="1437" 
d="M1307 1657l-340 -31l-146 199l-145 -199l-340 31l330 358h311zM1368 123q-196 -152 -506 -152q-362 0 -571 209.5t-209 579.5q0 374 211.5 581t576.5 207q288 0 478 -135l-74 -366q-144 147 -363 147q-190 0 -293.5 -114.5t-103.5 -317.5q0 -212 108.5 -324t288.5 -112
q115 0 214 42.5t165 106.5z" />
    <glyph glyph-name="ccircumflex" unicode="&#x109;" horiz-adv-x="1087" 
d="M1077 1288l-317 -31l-142 254l-141 -254l-317 31l303 422h311zM1040 92q-65 -49 -172.5 -83t-236.5 -34q-269 0 -421.5 155.5t-152.5 430.5q0 281 159 439.5t431 158.5q237 0 389 -112l-75 -302q-43 45 -109.5 74t-144.5 29q-121 0 -188.5 -74t-67.5 -205
q0 -133 69.5 -207.5t192.5 -74.5q138 0 260 104z" />
    <glyph glyph-name="Cdotaccent" unicode="&#x10a;" horiz-adv-x="1437" 
d="M616 1661v307h410v-307h-410zM1368 123q-196 -152 -506 -152q-362 0 -571 209.5t-209 579.5q0 374 211.5 581t576.5 207q288 0 478 -135l-74 -366q-144 147 -363 147q-190 0 -293.5 -114.5t-103.5 -317.5q0 -212 108.5 -324t288.5 -112q115 0 214 42.5t165 106.5z" />
    <glyph glyph-name="cdotaccent" unicode="&#x10b;" horiz-adv-x="1087" 
d="M406 1276v305h405v-305h-405zM1040 92q-65 -49 -172.5 -83t-236.5 -34q-269 0 -421.5 155.5t-152.5 430.5q0 281 159 439.5t431 158.5q237 0 389 -112l-75 -302q-43 45 -109.5 74t-144.5 29q-121 0 -188.5 -74t-67.5 -205q0 -133 69.5 -207.5t192.5 -74.5q138 0 260 104z
" />
    <glyph glyph-name="Ccaron" unicode="&#x10c;" horiz-adv-x="1437" 
d="M1307 2001l-330 -359h-311l-330 359l340 31l145 -199l146 199zM1368 123q-196 -152 -506 -152q-362 0 -571 209.5t-209 579.5q0 374 211.5 581t576.5 207q288 0 478 -135l-74 -366q-144 147 -363 147q-190 0 -293.5 -114.5t-103.5 -317.5q0 -212 108.5 -324t288.5 -112
q115 0 214 42.5t165 106.5z" />
    <glyph glyph-name="ccaron" unicode="&#x10d;" horiz-adv-x="1087" 
d="M1067 1677l-303 -413h-311l-303 413l317 33l141 -252l142 252zM1040 92q-65 -49 -172.5 -83t-236.5 -34q-269 0 -421.5 155.5t-152.5 430.5q0 281 159 439.5t431 158.5q237 0 389 -112l-75 -302q-43 45 -109.5 74t-144.5 29q-121 0 -188.5 -74t-67.5 -205
q0 -133 69.5 -207.5t192.5 -74.5q138 0 260 104z" />
    <glyph glyph-name="Dcaron" unicode="&#x10e;" horiz-adv-x="1609" 
d="M1227 2001l-330 -359h-311l-330 359l340 31l145 -199l146 199zM1528 762q0 -384 -208 -573t-593 -189h-582v1520h580q175 0 312 -37.5t228.5 -104t151 -162.5t85.5 -208t26 -246zM705 1188h-154v-856h156q197 0 294 104t97 324q0 99 -20 174t-64 133.5t-122 89.5t-187 31
z" />
    <glyph glyph-name="dcaron" unicode="&#x10f;" horiz-adv-x="1441" 
d="M1585 1229h-237l49 475h334zM879 0l-5 137q-122 -162 -333 -162q-221 0 -350.5 156t-129.5 430q0 281 136.5 439.5t369.5 158.5q177 0 295 -115v549h385v-1593h-368zM455 565q0 -131 58 -198.5t157 -67.5q68 0 119.5 29t72.5 75v355q-63 90 -182 90q-108 0 -166.5 -75.5
t-58.5 -207.5z" />
    <glyph glyph-name="Dcroat" unicode="&#x110;" horiz-adv-x="1642" 
d="M1561 762q0 -384 -208 -573t-593 -189h-582v627h-158v303h158v590h580q175 0 312 -37.5t228.5 -104t151 -162.5t85.5 -208t26 -246zM856 627h-272v-295h155q197 0 294 104t97 324q0 99 -20 174t-64 133.5t-122 89.5t-187 31h-153v-258h272v-303z" />
    <glyph glyph-name="dcroat" unicode="&#x111;" horiz-adv-x="1372" 
d="M879 0l-5 137q-122 -162 -333 -162q-221 0 -350.5 156t-129.5 430q0 281 136.5 439.5t369.5 158.5q177 0 295 -115v209h-315v222h315v147h385v-147h131v-222h-131v-1253h-368zM455 565q0 -131 58 -198.5t157 -67.5q68 0 119.5 29t72.5 75v355q-63 90 -182 90
q-108 0 -166.5 -75.5t-58.5 -207.5z" />
    <glyph glyph-name="Emacron" unicode="&#x112;" horiz-adv-x="1349" 
d="M279 1694v241h827v-241h-827zM1255 340v-340h-1110v1520h1094v-336h-688v-242h606v-328h-606v-274h704z" />
    <glyph glyph-name="emacron" unicode="&#x113;" horiz-adv-x="1261" 
d="M270 1309v239h762v-239h-762zM1180 86q-199 -111 -482 -111q-317 0 -479 149.5t-162 434.5q0 284 156.5 442t433.5 158q121 0 216 -29.5t156.5 -80t101.5 -122.5t56.5 -151t16.5 -172v-141h-745q27 -195 294 -195q203 0 379 111zM657 895q-88 0 -146 -53.5t-65 -159.5
h381v16q0 197 -170 197z" />
    <glyph glyph-name="Ebreve" unicode="&#x114;" horiz-adv-x="1349" 
d="M266 1987l279 16q3 -76 41 -117t106 -41t106.5 41t41.5 117l278 -16q-6 -177 -123.5 -272t-302.5 -95t-302.5 95t-123.5 272zM1255 340v-340h-1110v1520h1094v-336h-688v-242h606v-328h-606v-274h704z" />
    <glyph glyph-name="ebreve" unicode="&#x115;" horiz-adv-x="1261" 
d="M225 1663l283 12q3 -190 143 -190q68 0 105.5 48t38.5 142l282 -12q-6 -195 -123.5 -301.5t-302.5 -106.5t-302.5 106.5t-123.5 301.5zM1180 86q-199 -111 -482 -111q-317 0 -479 149.5t-162 434.5q0 284 156.5 442t433.5 158q121 0 216 -29.5t156.5 -80t101.5 -122.5
t56.5 -151t16.5 -172v-141h-745q27 -195 294 -195q203 0 379 111zM657 895q-88 0 -146 -53.5t-65 -159.5h381v16q0 197 -170 197z" />
    <glyph glyph-name="Edotaccent" unicode="&#x116;" horiz-adv-x="1349" 
d="M487 1661v307h410v-307h-410zM1255 340v-340h-1110v1520h1094v-336h-688v-242h606v-328h-606v-274h704z" />
    <glyph glyph-name="edotaccent" unicode="&#x117;" horiz-adv-x="1261" 
d="M449 1276v305h405v-305h-405zM1180 86q-199 -111 -482 -111q-317 0 -479 149.5t-162 434.5q0 284 156.5 442t433.5 158q121 0 216 -29.5t156.5 -80t101.5 -122.5t56.5 -151t16.5 -172v-141h-745q27 -195 294 -195q203 0 379 111zM657 895q-88 0 -146 -53.5t-65 -159.5
h381v16q0 197 -170 197z" />
    <glyph glyph-name="Eogonek" unicode="&#x118;" horiz-adv-x="1349" 
d="M674 -287q0 88 46 156.5t136 130.5h-711v1520h1094v-336h-688v-242h606v-328h-606v-274h704v-340h-127q-95 -32 -144.5 -80.5t-49.5 -107.5q0 -42 26.5 -67.5t79.5 -25.5q69 0 144 45l49 -221q-110 -63 -260 -63q-147 0 -223 62t-76 171z" />
    <glyph glyph-name="eogonek" unicode="&#x119;" horiz-adv-x="1261" 
d="M1114 -457q-110 -63 -262 -63q-147 0 -222 62t-75 171q0 153 152 262q-325 0 -487.5 149t-162.5 435q0 284 156.5 442t433.5 158q121 0 216 -29.5t156.5 -80t101.5 -122.5t56.5 -151t16.5 -172v-141h-745q27 -195 294 -195q203 0 379 111l58 -293q-70 -41 -152 -63
q-213 -89 -213 -211q0 -42 26.5 -67.5t78.5 -25.5q70 0 145 45zM657 895q-88 0 -146 -53.5t-65 -159.5h381v16q0 197 -170 197z" />
    <glyph glyph-name="Ecaron" unicode="&#x11a;" horiz-adv-x="1349" 
d="M1178 2001l-330 -359h-311l-330 359l340 31l145 -199l146 199zM1255 340v-340h-1110v1520h1094v-336h-688v-242h606v-328h-606v-274h704z" />
    <glyph glyph-name="ecaron" unicode="&#x11b;" horiz-adv-x="1261" 
d="M1110 1677l-303 -413h-311l-303 413l317 33l141 -252l142 252zM1180 86q-199 -111 -482 -111q-317 0 -479 149.5t-162 434.5q0 284 156.5 442t433.5 158q121 0 216 -29.5t156.5 -80t101.5 -122.5t56.5 -151t16.5 -172v-141h-745q27 -195 294 -195q203 0 379 111zM657 895
q-88 0 -146 -53.5t-65 -159.5h381v16q0 197 -170 197z" />
    <glyph glyph-name="Gcircumflex" unicode="&#x11c;" horiz-adv-x="1613" 
d="M1339 1657l-340 -31l-145 199l-145 -199l-340 31l329 358h312zM1497 115q-85 -61 -253 -102.5t-351 -41.5q-397 0 -604 206t-207 583q0 378 216.5 583t614.5 205q175 0 318.5 -37.5t232.5 -97.5l-73 -366q-185 147 -443 147q-220 0 -327 -112t-107 -322q0 -434 428 -434
q103 0 193 20v223h-297v301h659v-755z" />
    <glyph glyph-name="gcircumflex" unicode="&#x11d;" horiz-adv-x="1345" 
d="M1096 1288l-318 -31l-141 254l-141 -254l-318 31l303 422h312zM1276 -72q0 -192 -169.5 -303.5t-516.5 -111.5q-153 0 -266.5 22.5t-181 63.5t-100 94t-32.5 119q0 85 54.5 151t173.5 98q-101 59 -101 172q0 144 166 201q-215 97 -215 334q0 196 146 293.5t395 97.5
q208 0 340 -69l346 57h16v-270l-180 10q18 -56 18 -119q0 -132 -69.5 -222t-188.5 -130.5t-282 -40.5q-78 0 -135 8q-39 -12 -39 -57q0 -62 88 -64l311 -12q422 -17 422 -322zM629 618q83 0 127.5 38.5t44.5 109.5q0 70 -44.5 111t-127.5 41q-80 0 -126 -39.5t-46 -108.5
q0 -71 45 -111.5t127 -40.5zM379 -123q0 -58 58 -89.5t198 -31.5q274 0 274 125q0 34 -28 53.5t-107 22.5l-323 14q-72 -20 -72 -94z" />
    <glyph glyph-name="Gbreve" unicode="&#x11e;" horiz-adv-x="1613" 
d="M428 1987l279 16q3 -76 41 -117t106 -41t106 41t41 117l279 -16q-6 -177 -123.5 -272t-302.5 -95t-302.5 95t-123.5 272zM1497 115q-85 -61 -253 -102.5t-351 -41.5q-397 0 -604 206t-207 583q0 378 216.5 583t614.5 205q175 0 318.5 -37.5t232.5 -97.5l-73 -366
q-185 147 -443 147q-220 0 -327 -112t-107 -322q0 -434 428 -434q103 0 193 20v223h-297v301h659v-755z" />
    <glyph glyph-name="gbreve" unicode="&#x11f;" horiz-adv-x="1345" 
d="M211 1663l283 12q3 -190 143 -190t143 190l283 -12q-6 -195 -123.5 -301.5t-302.5 -106.5t-302.5 106.5t-123.5 301.5zM1276 -72q0 -192 -169.5 -303.5t-516.5 -111.5q-153 0 -266.5 22.5t-181 63.5t-100 94t-32.5 119q0 85 54.5 151t173.5 98q-101 59 -101 172
q0 144 166 201q-215 97 -215 334q0 196 146 293.5t395 97.5q208 0 340 -69l346 57h16v-270l-180 10q18 -56 18 -119q0 -132 -69.5 -222t-188.5 -130.5t-282 -40.5q-78 0 -135 8q-39 -12 -39 -57q0 -62 88 -64l311 -12q422 -17 422 -322zM629 618q83 0 127.5 38.5t44.5 109.5
q0 70 -44.5 111t-127.5 41q-80 0 -126 -39.5t-46 -108.5q0 -71 45 -111.5t127 -40.5zM379 -123q0 -58 58 -89.5t198 -31.5q274 0 274 125q0 34 -28 53.5t-107 22.5l-323 14q-72 -20 -72 -94z" />
    <glyph glyph-name="Gdotaccent" unicode="&#x120;" horiz-adv-x="1613" 
d="M649 1661v307h410v-307h-410zM1497 115q-85 -61 -253 -102.5t-351 -41.5q-397 0 -604 206t-207 583q0 378 216.5 583t614.5 205q175 0 318.5 -37.5t232.5 -97.5l-73 -366q-185 147 -443 147q-220 0 -327 -112t-107 -322q0 -434 428 -434q103 0 193 20v223h-297v301h659
v-755z" />
    <glyph glyph-name="gdotaccent" unicode="&#x121;" horiz-adv-x="1345" 
d="M432 1276v305h406v-305h-406zM1276 -72q0 -192 -169.5 -303.5t-516.5 -111.5q-153 0 -266.5 22.5t-181 63.5t-100 94t-32.5 119q0 85 54.5 151t173.5 98q-101 59 -101 172q0 144 166 201q-215 97 -215 334q0 196 146 293.5t395 97.5q208 0 340 -69l346 57h16v-270
l-180 10q18 -56 18 -119q0 -132 -69.5 -222t-188.5 -130.5t-282 -40.5q-78 0 -135 8q-39 -12 -39 -57q0 -62 88 -64l311 -12q422 -17 422 -322zM629 618q83 0 127.5 38.5t44.5 109.5q0 70 -44.5 111t-127.5 41q-80 0 -126 -39.5t-46 -108.5q0 -71 45 -111.5t127 -40.5z
M379 -123q0 -58 58 -89.5t198 -31.5q274 0 274 125q0 34 -28 53.5t-107 22.5l-323 14q-72 -20 -72 -94z" />
    <glyph glyph-name="uni0122" unicode="&#x122;" horiz-adv-x="1613" 
d="M1497 115q-85 -61 -253 -102.5t-351 -41.5q-397 0 -604 206t-207 583q0 378 216.5 583t614.5 205q175 0 318.5 -37.5t232.5 -97.5l-73 -366q-185 147 -443 147q-220 0 -327 -112t-107 -322q0 -434 428 -434q103 0 193 20v223h-297v301h659v-755zM899 -539l-285 37
q119 165 119 367v43h322q4 -36 4 -64q0 -212 -160 -383z" />
    <glyph glyph-name="uni0123" unicode="&#x123;" horiz-adv-x="1345" 
d="M606 1704l287 -37q-105 -149 -105 -342q0 -38 5 -68h-322q-6 69 -6 82q0 199 141 365zM1276 -72q0 -192 -169.5 -303.5t-516.5 -111.5q-153 0 -266.5 22.5t-181 63.5t-100 94t-32.5 119q0 85 54.5 151t173.5 98q-101 59 -101 172q0 144 166 201q-215 97 -215 334
q0 196 146 293.5t395 97.5q208 0 340 -69l346 57h16v-270l-180 10q18 -56 18 -119q0 -132 -69.5 -222t-188.5 -130.5t-282 -40.5q-78 0 -135 8q-39 -12 -39 -57q0 -62 88 -64l311 -12q422 -17 422 -322zM629 618q83 0 127.5 38.5t44.5 109.5q0 70 -44.5 111t-127.5 41
q-80 0 -126 -39.5t-46 -108.5q0 -71 45 -111.5t127 -40.5zM379 -123q0 -58 58 -89.5t198 -31.5q274 0 274 125q0 34 -28 53.5t-107 22.5l-323 14q-72 -20 -72 -94z" />
    <glyph glyph-name="Hcircumflex" unicode="&#x124;" horiz-adv-x="1628" 
d="M1300 1657l-339 -31l-146 199l-145 -199l-340 31l329 358h312zM1077 0v604h-526v-604h-406v1520h406v-566h526v566h406v-1520h-406z" />
    <glyph glyph-name="hcircumflex" unicode="&#x125;" horiz-adv-x="1333" 
d="M1143 1673l-340 -31l-146 199l-145 -199l-340 31l330 359h311zM502 698v-698h-385v1593h385v-612q124 178 344 178q180 0 278.5 -110.5t98.5 -311.5v-737h-385v657q0 177 -144 177q-64 0 -115 -36.5t-77 -99.5z" />
    <glyph glyph-name="Hbar" unicode="&#x126;" horiz-adv-x="1658" 
d="M1094 0v604h-527v-604h-405v1116h-146v232h146v172h405v-172h527v172h405v-172h143v-232h-143v-1116h-405zM567 954h527v162h-527v-162z" />
    <glyph glyph-name="hbar" unicode="&#x127;" horiz-adv-x="1341" 
d="M510 698v-698h-385v1253h-129v222h129v147h385v-147h319v-222h-319v-272q124 178 344 178q180 0 278.5 -110.5t98.5 -311.5v-737h-385v657q0 177 -144 177q-64 0 -115 -36.5t-77 -99.5z" />
    <glyph glyph-name="Itilde" unicode="&#x128;" horiz-adv-x="696" 
d="M109 1614l-263 20q0 185 81.5 276t211.5 91q107 0 244 -72q82 -45 125 -45q80 0 80 131l262 -20q0 -185 -81.5 -276t-211.5 -91q-108 0 -244 72q-82 45 -125 45q-79 0 -79 -131zM145 0v1520h406v-1520h-406z" />
    <glyph glyph-name="itilde" unicode="&#x129;" horiz-adv-x="653" 
d="M147 1255l-245 19q0 184 68 276t186 92q91 0 198 -69q62 -41 97 -41q30 0 42.5 27t12.5 96l248 -19q0 -184 -68.5 -276t-187.5 -92q-92 0 -199 69q-62 41 -96 41q-29 0 -42.5 -27.5t-13.5 -95.5zM135 0v1135h385v-1135h-385z" />
    <glyph glyph-name="Imacron" unicode="&#x12a;" horiz-adv-x="696" 
d="M-66 1694v241h828v-241h-828zM145 0v1520h406v-1520h-406z" />
    <glyph glyph-name="imacron" unicode="&#x12b;" horiz-adv-x="653" 
d="M10 1309v239h633v-239h-633zM135 0v1135h385v-1135h-385z" />
    <glyph glyph-name="Ibreve" unicode="&#x12c;" horiz-adv-x="696" 
d="M-78 1987l279 16q3 -76 41 -117t106 -41t106.5 41t41.5 117l278 -16q-6 -177 -123.5 -272t-302.5 -95t-302.5 95t-123.5 272zM145 0v1520h406v-1520h-406z" />
    <glyph glyph-name="ibreve" unicode="&#x12d;" horiz-adv-x="653" 
d="M-63 1663l258 12q2 -96 33.5 -143t99.5 -47q131 0 131 190l258 -12q-6 -198 -109 -303t-280 -105q-179 0 -282 105t-109 303zM135 0v1135h385v-1135h-385z" />
    <glyph glyph-name="Iogonek" unicode="&#x12e;" horiz-adv-x="696" 
d="M59 -287q0 88 45.5 156t133.5 131h-93v1520h406v-1520h-45q-187 -74 -187 -188q0 -42 26.5 -67.5t78.5 -25.5q70 0 145 45l49 -221q-110 -63 -262 -63q-147 0 -222 62t-75 171z" />
    <glyph glyph-name="iogonek" unicode="&#x12f;" horiz-adv-x="647" 
d="M121 1276v305h405v-305h-405zM35 -287q0 88 45.5 156t132.5 131h-82v1135h385v-1135h-39q-182 -74 -182 -188q0 -42 26 -67.5t78 -25.5q71 0 146 45l49 -221q-110 -63 -262 -63q-147 0 -222 62t-75 171z" />
    <glyph glyph-name="Idotaccent" unicode="&#x130;" horiz-adv-x="696" 
d="M143 1661v307h410v-307h-410zM145 0v1520h406v-1520h-406z" />
    <glyph glyph-name="dotlessi" unicode="&#x131;" horiz-adv-x="626" 
d="M121 0v1135h385v-1135h-385z" />
    <glyph glyph-name="IJ" unicode="&#x132;" horiz-adv-x="1660" 
d="M145 0v1520h406v-1520h-406zM696 10l17 350q86 -38 202 -38q108 0 156.5 62t48.5 222v914h406v-985q0 -296 -141 -430t-412 -134q-165 0 -277 39z" />
    <glyph glyph-name="ij" unicode="&#x133;" horiz-adv-x="1267" 
d="M111 1276v305h405v-305h-405zM754 1276v305h405v-305h-405zM121 0v1135h385v-1135h-385zM467 -440l27 307q48 -25 124 -25t111 45t35 154v1094h385v-1053q0 -151 -32.5 -259.5t-94.5 -172t-145 -92.5t-193 -29q-140 0 -217 31z" />
    <glyph glyph-name="Jcircumflex" unicode="&#x134;" horiz-adv-x="964" 
d="M1112 1657l-340 -31l-145 199l-146 -199l-340 31l330 358h311zM0 10l16 350q85 -38 203 -38q108 0 156.5 62t48.5 222v914h405v-985q0 -296 -141 -430t-412 -134q-164 0 -276 39z" />
    <glyph glyph-name="jcircumflex" unicode="&#x135;" horiz-adv-x="643" 
d="M788 1288l-317 -31l-141 254l-142 -254l-317 31l303 422h311zM-160 -440l27 307q48 -25 125 -25q76 0 110.5 44.5t34.5 154.5v1094h385v-1053q0 -151 -32.5 -259.5t-94.5 -172t-145 -92.5t-193 -29q-140 0 -217 31z" />
    <glyph glyph-name="uni0136" unicode="&#x136;" horiz-adv-x="1593" 
d="M1092 0l-396 573l-145 -149v-424h-406v1520h406v-637l532 637h516v-4l-632 -660l641 -852v-4h-516zM809 -539l-285 37q119 165 119 367v43h322q4 -36 4 -64q0 -212 -160 -383z" />
    <glyph glyph-name="uni0137" unicode="&#x137;" horiz-adv-x="1314" 
d="M874 0l-264 393l-108 -112v-281h-385v1593h385v-921l342 463h473v-5l-453 -471l484 -655v-4h-474zM682 -539l-285 37q119 165 119 367v43h322q4 -36 4 -64q0 -212 -160 -383z" />
    <glyph glyph-name="kgreenlandic" unicode="&#x138;" horiz-adv-x="1314" 
d="M874 0l-264 393l-108 -112v-281h-385v1135h385v-463l342 463h473v-5l-453 -471l484 -655v-4h-474z" />
    <glyph glyph-name="Lacute" unicode="&#x139;" horiz-adv-x="1224" 
d="M354 1618l-221 102l361 336l335 -155zM1198 340v-340h-1053v1520h406v-1180h647z" />
    <glyph glyph-name="lacute" unicode="&#x13a;" horiz-adv-x="626" 
d="M252 1675l-221 103l360 336l336 -156zM121 0v1593h385v-1593h-385z" />
    <glyph glyph-name="uni013B" unicode="&#x13b;" horiz-adv-x="1224" 
d="M1198 340v-340h-1053v1520h406v-1180h647zM670 -539l-285 37q119 165 119 367v43h321q4 -36 4 -64q0 -213 -159 -383z" />
    <glyph glyph-name="uni013C" unicode="&#x13c;" horiz-adv-x="626" 
d="M121 0v1593h385v-1593h-385zM317 -539l-284 37q119 165 119 367v43h321q4 -36 4 -64q0 -212 -160 -383z" />
    <glyph glyph-name="Lcaron" unicode="&#x13d;" horiz-adv-x="1224" 
d="M934 1118h-238l49 475h334zM1198 340v-340h-1053v1520h406v-1180h647z" />
    <glyph glyph-name="lcaron" unicode="&#x13e;" horiz-adv-x="704" 
d="M848 1229h-238l49 475h334zM121 0v1593h385v-1593h-385z" />
    <glyph glyph-name="Ldot" unicode="&#x13f;" horiz-adv-x="1224" 
d="M1198 340v-340h-1053v1520h406v-1180h647zM776 686v381h377v-381h-377z" />
    <glyph glyph-name="ldot" unicode="&#x140;" horiz-adv-x="1036" 
d="M121 0v1593h385v-1593h-385zM643 602v381h377v-381h-377z" />
    <glyph glyph-name="Lslash" unicode="&#x141;" horiz-adv-x="1249" 
d="M1223 340v-340h-1053v512l-166 -84v281l166 84v727h405v-562l361 181v-281l-361 -180v-338h648z" />
    <glyph glyph-name="lslash" unicode="&#x142;" horiz-adv-x="770" 
d="M772 868l-194 -116v-752h-385v563l-185 -110v274l185 111v755h385v-567l194 117v-275z" />
    <glyph glyph-name="Nacute" unicode="&#x143;" horiz-adv-x="1660" 
d="M770 1618l-221 102l360 336l336 -155zM1128 0l-600 887v-887h-383v1520h392l593 -877v877h386v-1520h-388z" />
    <glyph glyph-name="nacute" unicode="&#x144;" horiz-adv-x="1333" 
d="M719 1249l-242 47l240 428l348 -69zM502 698v-698h-385v1135h368l4 -170q126 194 357 194q180 0 278.5 -110.5t98.5 -311.5v-737h-385v657q0 177 -144 177q-64 0 -115 -36.5t-77 -99.5z" />
    <glyph glyph-name="uni0145" unicode="&#x145;" horiz-adv-x="1660" 
d="M1128 0l-600 887v-887h-383v1520h392l593 -877v877h386v-1520h-388zM848 -539l-285 37q119 165 119 367v43h322q4 -36 4 -64q0 -212 -160 -383z" />
    <glyph glyph-name="uni0146" unicode="&#x146;" horiz-adv-x="1333" 
d="M502 698v-698h-385v1135h368l4 -170q126 194 357 194q180 0 278.5 -110.5t98.5 -311.5v-737h-385v657q0 177 -144 177q-64 0 -115 -36.5t-77 -99.5zM682 -539l-285 37q119 165 119 367v43h322q4 -36 4 -64q0 -212 -160 -383z" />
    <glyph glyph-name="Ncaron" unicode="&#x147;" horiz-adv-x="1660" 
d="M1317 2001l-330 -359h-311l-330 359l340 31l145 -199l146 199zM1128 0l-600 887v-887h-383v1520h392l593 -877v877h386v-1520h-388z" />
    <glyph glyph-name="ncaron" unicode="&#x148;" horiz-adv-x="1333" 
d="M1124 1677l-303 -413h-311l-303 413l317 33l142 -252l141 252zM502 698v-698h-385v1135h368l4 -170q126 194 357 194q180 0 278.5 -110.5t98.5 -311.5v-737h-385v657q0 177 -144 177q-64 0 -115 -36.5t-77 -99.5z" />
    <glyph glyph-name="Eng" unicode="&#x14a;" horiz-adv-x="1660" 
d="M1130 1520h386v-1465q0 -145 -36.5 -248.5t-105.5 -163.5t-158.5 -87t-205.5 -27q-147 0 -254 35l14 315q80 -35 178 -35q90 0 132 41t42 125l-594 879v-889h-383v1520h394l591 -875v875z" />
    <glyph glyph-name="eng" unicode="&#x14b;" horiz-adv-x="1333" 
d="M698 -162q73 0 106.5 42t33.5 145v632q0 177 -144 177q-64 0 -115 -36.5t-77 -99.5v-698h-385v1135h368l4 -170q126 194 357 194q180 0 278.5 -110.5t98.5 -311.5v-680q0 -145 -31.5 -248.5t-92.5 -164t-142 -88t-187 -27.5q-128 0 -205 27l17 303q46 -21 116 -21z" />
    <glyph glyph-name="Omacron" unicode="&#x14c;" horiz-adv-x="1669" 
d="M420 1694v241h827v-241h-827zM834 -29q-343 0 -547.5 211t-204.5 578t204.5 577.5t547.5 210.5t548 -210.5t205 -577.5t-205 -578t-548 -211zM834 326q151 0 236 114t85 320t-85 320t-236 114q-150 0 -235 -114t-85 -320t85 -320t235 -114z" />
    <glyph glyph-name="omacron" unicode="&#x14d;" horiz-adv-x="1292" 
d="M266 1309v239h762v-239h-762zM647 -25q-129 0 -236.5 38.5t-186.5 111.5t-123 186t-44 256t44 256t123 186t186.5 111.5t236.5 38.5q172 0 303.5 -66t208 -201t76.5 -325t-76.5 -325t-208 -201t-303.5 -66zM647 283q91 0 143 73t52 211t-52 211.5t-143 73.5
q-92 0 -144 -73t-52 -212t52 -211.5t144 -72.5z" />
    <glyph glyph-name="Obreve" unicode="&#x14e;" horiz-adv-x="1669" 
d="M408 1987l278 16q3 -76 41.5 -117t106.5 -41t106 41t41 117l279 -16q-6 -177 -123.5 -272t-302.5 -95t-302.5 95t-123.5 272zM834 -29q-343 0 -547.5 211t-204.5 578t204.5 577.5t547.5 210.5t548 -210.5t205 -577.5t-205 -578t-548 -211zM834 326q151 0 236 114t85 320
t-85 320t-236 114q-150 0 -235 -114t-85 -320t85 -320t235 -114z" />
    <glyph glyph-name="obreve" unicode="&#x14f;" horiz-adv-x="1292" 
d="M221 1663l283 12q3 -190 143 -190q68 0 105.5 48t38.5 142l282 -12q-6 -195 -123.5 -301.5t-302.5 -106.5t-302.5 106.5t-123.5 301.5zM647 -25q-129 0 -236.5 38.5t-186.5 111.5t-123 186t-44 256t44 256t123 186t186.5 111.5t236.5 38.5q172 0 303.5 -66t208 -201
t76.5 -325t-76.5 -325t-208 -201t-303.5 -66zM647 283q91 0 143 73t52 211t-52 211.5t-143 73.5q-92 0 -144 -73t-52 -212t52 -211.5t144 -72.5z" />
    <glyph glyph-name="Ohungarumlaut" unicode="&#x150;" horiz-adv-x="1669" 
d="M676 1618l-217 86l266 352l295 -121zM1130 1618l-215 86l267 352l293 -121zM834 -29q-343 0 -547.5 211t-204.5 578t204.5 577.5t547.5 210.5t548 -210.5t205 -577.5t-205 -578t-548 -211zM834 326q151 0 236 114t85 320t-85 320t-236 114q-150 0 -235 -114t-85 -320
t85 -320t235 -114z" />
    <glyph glyph-name="ohungarumlaut" unicode="&#x151;" horiz-adv-x="1292" 
d="M526 1251l-239 52l248 421l305 -67zM954 1251l-239 52l248 421l305 -67zM647 -25q-129 0 -236.5 38.5t-186.5 111.5t-123 186t-44 256t44 256t123 186t186.5 111.5t236.5 38.5q172 0 303.5 -66t208 -201t76.5 -325t-76.5 -325t-208 -201t-303.5 -66zM647 283q91 0 143 73
t52 211t-52 211.5t-143 73.5q-92 0 -144 -73t-52 -212t52 -211.5t144 -72.5z" />
    <glyph glyph-name="OE" unicode="&#x152;" horiz-adv-x="2265" 
d="M2173 0h-1083q-113 -29 -240 -29q-169 0 -311 55t-243 155.5t-157.5 249t-56.5 329.5t56.5 329t157.5 248.5t243 155.5t311 55q131 0 240 -28h1067v-336h-689v-242h607v-328h-607v-274h705v-340zM514 760q0 -209 101.5 -325t283.5 -116q95 0 162 33v813q-69 35 -166 35
q-178 0 -279.5 -115.5t-101.5 -324.5z" />
    <glyph glyph-name="oe" unicode="&#x153;" horiz-adv-x="2031" 
d="M1950 86q-203 -111 -482 -111q-290 0 -440 144q-147 -144 -383 -144q-172 0 -303.5 66t-208 201t-76.5 325q0 144 44 257t123 186t186 111t235 38q244 0 383 -145q142 145 391 145q120 0 214.5 -29.5t155.5 -80t101 -122t57 -151t17 -172.5v-141h-745q27 -195 294 -195
q203 0 379 111zM1427 895q-88 0 -145.5 -53.5t-64.5 -159.5h380v16q0 197 -170 197zM645 285q92 0 143.5 72t51.5 210q0 139 -51.5 212t-143.5 73t-143 -73t-51 -212q0 -138 51 -210t143 -72z" />
    <glyph glyph-name="Racute" unicode="&#x154;" horiz-adv-x="1536" 
d="M655 1618l-221 102l361 336l335 -155zM551 469v-469h-406v1520h627q306 0 467.5 -133t161.5 -388q0 -95 -23 -173t-65 -134t-91 -94.5t-110 -65.5l422 -532h-506l-317 469h-160zM733 1188h-182v-397h205q30 0 57.5 4t59.5 17t54.5 33.5t38 57.5t15.5 86q0 199 -248 199z
" />
    <glyph glyph-name="racute" unicode="&#x155;" horiz-adv-x="950" 
d="M492 1249l-242 47l239 428l349 -69zM502 625v-625h-385v1135h368l4 -207q49 129 123 180t176 51q88 0 138 -24l-25 -359q-71 29 -151 29q-57 0 -104 -15.5t-87 -57.5t-57 -107z" />
    <glyph glyph-name="uni0156" unicode="&#x156;" horiz-adv-x="1536" 
d="M551 469v-469h-406v1520h627q306 0 467.5 -133t161.5 -388q0 -95 -23 -173t-65 -134t-91 -94.5t-110 -65.5l422 -532h-506l-317 469h-160zM733 1188h-182v-397h205q30 0 57.5 4t59.5 17t54.5 33.5t38 57.5t15.5 86q0 199 -248 199zM782 -539l-284 37q118 163 118 367v43
h322q4 -36 4 -64q0 -212 -160 -383z" />
    <glyph glyph-name="uni0157" unicode="&#x157;" horiz-adv-x="950" 
d="M502 625v-625h-385v1135h368l4 -207q49 129 123 180t176 51q88 0 138 -24l-25 -359q-71 29 -151 29q-57 0 -104 -15.5t-87 -57.5t-57 -107zM319 -539l-284 37q119 165 119 367v43h321q4 -36 4 -64q0 -212 -160 -383z" />
    <glyph glyph-name="Rcaron" unicode="&#x158;" horiz-adv-x="1536" 
d="M1202 2001l-330 -359h-311l-330 359l340 31l146 -199l145 199zM551 469v-469h-406v1520h627q306 0 467.5 -133t161.5 -388q0 -95 -23 -173t-65 -134t-91 -94.5t-110 -65.5l422 -532h-506l-317 469h-160zM733 1188h-182v-397h205q30 0 57.5 4t59.5 17t54.5 33.5t38 57.5
t15.5 86q0 199 -248 199z" />
    <glyph glyph-name="rcaron" unicode="&#x159;" horiz-adv-x="950" 
d="M938 1677l-303 -413h-311l-304 413l318 33l141 -252l142 252zM502 625v-625h-385v1135h368l4 -207q49 129 123 180t176 51q88 0 138 -24l-25 -359q-71 29 -151 29q-57 0 -104 -15.5t-87 -57.5t-57 -107z" />
    <glyph glyph-name="Sacute" unicode="&#x15a;" horiz-adv-x="1339" 
d="M627 1618l-221 102l360 336l336 -155zM70 113l77 364q100 -71 232 -116.5t280 -45.5q95 0 142 27t47 86q0 62 -52.5 90.5t-205.5 67.5q-56 15 -92.5 25.5t-92.5 32t-92.5 44t-79.5 59.5t-68 79.5t-42 103t-17 131.5q0 223 154 355t451 132q138 0 270 -29t225 -81
l-69 -365q-86 62 -198 96.5t-226 34.5q-187 0 -187 -110q0 -58 47.5 -84.5t200.5 -63.5q44 -11 76 -19.5t76.5 -22.5t76.5 -29t70 -37t65 -47t54 -59t43.5 -73t26.5 -89t10 -107q0 -231 -156 -361.5t-463 -130.5q-164 0 -317.5 38t-265.5 104z" />
    <glyph glyph-name="sacute" unicode="&#x15b;" horiz-adv-x="1105" 
d="M612 1249l-241 47l239 428l348 -69zM63 76l54 309q191 -127 409 -127q73 0 103 16.5t30 49.5q0 25 -18.5 41t-50.5 26.5t-96 27.5q-9 2 -13 3q-49 13 -80 22t-77 26t-75.5 35t-63.5 46.5t-53.5 61t-32.5 78.5t-13 100q0 174 127.5 271t380.5 97q243 0 407 -82l-55 -305
q-71 46 -163 76.5t-181 30.5q-129 0 -129 -68q0 -38 37 -55t152 -43q60 -14 106.5 -29t101.5 -44.5t91.5 -66.5t61 -96t24.5 -133q0 -181 -135.5 -275t-383.5 -94q-268 0 -465 101z" />
    <glyph glyph-name="Scircumflex" unicode="&#x15c;" horiz-adv-x="1339" 
d="M1174 1657l-340 -31l-146 199l-145 -199l-340 31l329 358h312zM70 113l77 364q100 -71 232 -116.5t280 -45.5q95 0 142 27t47 86q0 62 -52.5 90.5t-205.5 67.5q-56 15 -92.5 25.5t-92.5 32t-92.5 44t-79.5 59.5t-68 79.5t-42 103t-17 131.5q0 223 154 355t451 132
q138 0 270 -29t225 -81l-69 -365q-86 62 -198 96.5t-226 34.5q-187 0 -187 -110q0 -58 47.5 -84.5t200.5 -63.5q44 -11 76 -19.5t76.5 -22.5t76.5 -29t70 -37t65 -47t54 -59t43.5 -73t26.5 -89t10 -107q0 -231 -156 -361.5t-463 -130.5q-164 0 -317.5 38t-265.5 104z" />
    <glyph glyph-name="scircumflex" unicode="&#x15d;" horiz-adv-x="1105" 
d="M1024 1288l-317 -31l-142 254l-141 -254l-318 31l304 422h311zM63 76l54 309q191 -127 409 -127q73 0 103 16.5t30 49.5q0 25 -18.5 41t-50.5 26.5t-96 27.5q-9 2 -13 3q-49 13 -80 22t-77 26t-75.5 35t-63.5 46.5t-53.5 61t-32.5 78.5t-13 100q0 174 127.5 271t380.5 97
q243 0 407 -82l-55 -305q-71 46 -163 76.5t-181 30.5q-129 0 -129 -68q0 -38 37 -55t152 -43q60 -14 106.5 -29t101.5 -44.5t91.5 -66.5t61 -96t24.5 -133q0 -181 -135.5 -275t-383.5 -94q-268 0 -465 101z" />
    <glyph glyph-name="Scedilla" unicode="&#x15e;" horiz-adv-x="1339" 
d="M975 -276q0 -112 -82.5 -178t-255.5 -66q-149 0 -252 41l53 225q95 -45 199 -45q90 0 90 47q0 29 -41 47t-162 41l60 137q-148 7 -281.5 44t-232.5 96l77 364q100 -71 232 -116.5t280 -45.5q95 0 142 27t47 86q0 62 -52.5 90.5t-205.5 67.5q-56 15 -92.5 25.5t-92.5 32
t-92.5 44t-79.5 59.5t-68 79.5t-42 103t-17 131.5q0 223 154 355t451 132q138 0 270 -29t225 -81l-69 -365q-86 62 -198 96.5t-226 34.5q-187 0 -187 -110q0 -58 47.5 -84.5t200.5 -63.5q44 -11 76 -19.5t76.5 -22.5t76.5 -29t70 -37t65 -47t54 -59t43.5 -73t26.5 -89
t10 -107q0 -216 -136 -344.5t-405 -145.5l-10 -18q76 -19 128 -44.5t78.5 -56t37 -61.5t10.5 -69z" />
    <glyph glyph-name="scedilla" unicode="&#x15f;" horiz-adv-x="1105" 
d="M846 -276q0 -112 -82.5 -178t-255.5 -66q-150 0 -252 41l53 225q95 -45 199 -45q90 0 90 47q0 29 -41 47t-162 41l62 141q-226 12 -394 99l54 309q191 -127 409 -127q73 0 103 16.5t30 49.5q0 25 -18.5 41t-50.5 26.5t-96 27.5q-9 2 -13 3q-49 13 -80 22t-77 26t-75.5 35
t-63.5 46.5t-53.5 61t-32.5 78.5t-13 100q0 174 127.5 271t380.5 97q243 0 407 -82l-55 -305q-71 46 -163 76.5t-181 30.5q-129 0 -129 -68q0 -38 37 -55t152 -43q60 -14 105.5 -29t101.5 -44.5t92 -66.5t61 -96t25 -133q0 -167 -115.5 -260t-327.5 -107l-12 -22
q76 -19 128 -44.5t78.5 -56t37 -61.5t10.5 -69z" />
    <glyph glyph-name="Scaron" unicode="&#x160;" horiz-adv-x="1339" 
d="M1174 2001l-330 -359h-312l-329 359l340 31l145 -199l146 199zM70 113l77 364q100 -71 232 -116.5t280 -45.5q95 0 142 27t47 86q0 62 -52.5 90.5t-205.5 67.5q-56 15 -92.5 25.5t-92.5 32t-92.5 44t-79.5 59.5t-68 79.5t-42 103t-17 131.5q0 223 154 355t451 132
q138 0 270 -29t225 -81l-69 -365q-86 62 -198 96.5t-226 34.5q-187 0 -187 -110q0 -58 47.5 -84.5t200.5 -63.5q44 -11 76 -19.5t76.5 -22.5t76.5 -29t70 -37t65 -47t54 -59t43.5 -73t26.5 -89t10 -107q0 -231 -156 -361.5t-463 -130.5q-164 0 -317.5 38t-265.5 104z" />
    <glyph glyph-name="scaron" unicode="&#x161;" horiz-adv-x="1105" 
d="M1024 1677l-303 -413h-311l-304 413l318 33l141 -252l142 252zM63 76l54 309q191 -127 409 -127q73 0 103 16.5t30 49.5q0 25 -18.5 41t-50.5 26.5t-96 27.5q-9 2 -13 3q-49 12 -80.5 21.5t-77.5 26.5t-75.5 35t-63 46.5t-53 61t-32.5 78.5t-13 100q0 174 127.5 271
t380.5 97q243 0 407 -82l-55 -305q-71 46 -163 76.5t-181 30.5q-129 0 -129 -68q0 -38 37 -55t152 -43q60 -14 106.5 -29t101.5 -44.5t91.5 -66.5t61 -96t24.5 -133q0 -181 -135.5 -275t-383.5 -94q-268 0 -465 101z" />
    <glyph glyph-name="uni0162" unicode="&#x162;" horiz-adv-x="1341" 
d="M963 -276q0 -112 -82.5 -178t-255.5 -66q-149 0 -252 41l53 225q95 -45 199 -45q90 0 90 47q0 29 -41 47t-162 41l70 164h-115v1184h-440v336h1288v-336h-441v-1184h-143l-22 -45q76 -19 128 -44.5t78.5 -56t37 -61.5t10.5 -69z" />
    <glyph glyph-name="uni0163" unicode="&#x163;" horiz-adv-x="940" 
d="M803 -276q0 -112 -82.5 -178t-255.5 -66q-149 0 -252 41l53 225q95 -45 199 -45q90 0 90 47q0 29 -41 47t-162 41l70 164q-223 74 -223 389v471h-170v275h170v288l383 80v-368h307v-275h-307v-409q0 -83 30.5 -119.5t100.5 -36.5q76 0 151 41l33 -299q-129 -62 -338 -62
l-10 -20q76 -19 128 -44.5t78.5 -56t37 -61.5t10.5 -69z" />
    <glyph glyph-name="Tcaron" unicode="&#x164;" horiz-adv-x="1341" 
d="M1157 2001l-330 -359h-311l-330 359l340 31l146 -199l145 199zM1315 1184h-441v-1184h-407v1184h-440v336h1288v-336z" />
    <glyph glyph-name="tcaron" unicode="&#x165;" horiz-adv-x="940" 
d="M920 1239h-238l49 475h334zM897 37q-127 -62 -303 -62q-90 0 -159 20.5t-123.5 67t-83.5 128.5t-29 198v471h-170v275h170v288l383 80v-368h307v-275h-307v-409q0 -83 30.5 -119.5t100.5 -36.5q76 0 151 41z" />
    <glyph glyph-name="Tbar" unicode="&#x166;" horiz-adv-x="1341" 
d="M1188 543h-314v-543h-407v543h-313v303h313v338h-440v336h1288v-336h-441v-338h314v-303z" />
    <glyph glyph-name="tbar" unicode="&#x167;" horiz-adv-x="980" 
d="M918 37q-127 -62 -304 -62q-90 0 -159 20.5t-123.5 67t-83.5 128.5t-29 198v100h-170v228h170v143h-170v275h170v288l383 80v-368h307v-275h-307v-143h307v-228h-307v-38q0 -83 30.5 -119.5t100.5 -36.5q77 0 152 41z" />
    <glyph glyph-name="Utilde" unicode="&#x168;" horiz-adv-x="1589" 
d="M555 1614l-262 20q0 185 81.5 276t211.5 91q106 0 243 -72q82 -45 125 -45q80 0 80 131l262 -20q0 -185 -81 -276t-211 -91q-108 0 -244 72q-82 45 -125 45q-80 0 -80 -131zM131 616v904h408v-897q0 -146 66.5 -221.5t193.5 -75.5t193.5 75.5t66.5 221.5v897h399v-904
q0 -318 -168.5 -481.5t-498.5 -163.5t-495 163.5t-165 481.5z" />
    <glyph glyph-name="utilde" unicode="&#x169;" horiz-adv-x="1333" 
d="M444 1255l-262 19q0 186 77.5 277t205.5 91q106 0 237 -73q77 -43 117 -43q72 0 72 129l262 -19q0 -186 -77.5 -277t-205.5 -91q-108 0 -237 71q-78 45 -117 45q-72 0 -72 -129zM848 0l-4 164q-121 -189 -352 -189q-183 0 -282 110.5t-99 311.5v738h385v-658
q0 -176 143 -176q72 0 120 37.5t72 99.5v697h386v-1135h-369z" />
    <glyph glyph-name="Umacron" unicode="&#x16a;" horiz-adv-x="1589" 
d="M381 1694v241h827v-241h-827zM131 616v904h408v-897q0 -146 66.5 -221.5t193.5 -75.5t193.5 75.5t66.5 221.5v897h399v-904q0 -318 -168.5 -481.5t-498.5 -163.5t-495 163.5t-165 481.5z" />
    <glyph glyph-name="umacron" unicode="&#x16b;" horiz-adv-x="1333" 
d="M287 1309v239h762v-239h-762zM848 0l-4 164q-121 -189 -352 -189q-183 0 -282 110.5t-99 311.5v738h385v-658q0 -176 143 -176q72 0 120 37.5t72 99.5v697h386v-1135h-369z" />
    <glyph glyph-name="Ubreve" unicode="&#x16c;" horiz-adv-x="1589" 
d="M369 1987l278 16q3 -76 41.5 -117t106.5 -41t106 41t41 117l279 -16q-6 -177 -123.5 -272t-302.5 -95t-302.5 95t-123.5 272zM131 616v904h408v-897q0 -146 66.5 -221.5t193.5 -75.5t193.5 75.5t66.5 221.5v897h399v-904q0 -318 -168.5 -481.5t-498.5 -163.5t-495 163.5
t-165 481.5z" />
    <glyph glyph-name="ubreve" unicode="&#x16d;" horiz-adv-x="1333" 
d="M242 1663l282 12q1 -94 38.5 -142t105.5 -48q140 0 143 190l283 -12q-6 -195 -123.5 -301.5t-302.5 -106.5t-302.5 106.5t-123.5 301.5zM848 0l-4 164q-121 -189 -352 -189q-183 0 -282 110.5t-99 311.5v738h385v-658q0 -176 143 -176q72 0 120 37.5t72 99.5v697h386
v-1135h-369z" />
    <glyph glyph-name="Uring" unicode="&#x16e;" horiz-adv-x="1589" 
d="M795 1573q-138 0 -229 87t-91 216q0 127 91 214t229 87t228.5 -87t90.5 -214q0 -129 -90.5 -216t-228.5 -87zM795 1761q54 0 86 32t32 83t-32 82t-86 31t-86.5 -31t-32.5 -82t32.5 -83t86.5 -32zM131 616v904h408v-897q0 -146 66.5 -221.5t193.5 -75.5t193.5 75.5
t66.5 221.5v897h399v-904q0 -318 -168.5 -481.5t-498.5 -163.5t-495 163.5t-165 481.5z" />
    <glyph glyph-name="uring" unicode="&#x16f;" horiz-adv-x="1333" 
d="M668 1204q-138 0 -229 87t-91 214t91 214t229 87t228.5 -87t90.5 -214t-90.5 -214t-228.5 -87zM668 1393q54 0 86 30.5t32 81.5t-32 83t-86 32t-86.5 -32t-32.5 -83t32.5 -81.5t86.5 -30.5zM848 0l-4 164q-121 -189 -352 -189q-183 0 -282 110.5t-99 311.5v738h385v-658
q0 -176 143 -176q72 0 120 37.5t72 99.5v697h386v-1135h-369z" />
    <glyph glyph-name="Uhungarumlaut" unicode="&#x170;" horiz-adv-x="1589" 
d="M637 1618l-217 86l266 352l295 -121zM1092 1618l-215 86l266 352l293 -121zM131 616v904h408v-897q0 -146 66.5 -221.5t193.5 -75.5t193.5 75.5t66.5 221.5v897h399v-904q0 -318 -168.5 -481.5t-498.5 -163.5t-495 163.5t-165 481.5z" />
    <glyph glyph-name="uhungarumlaut" unicode="&#x171;" horiz-adv-x="1333" 
d="M547 1251l-240 52l248 421l305 -67zM975 1251l-240 52l248 421l305 -67zM848 0l-4 164q-121 -189 -352 -189q-183 0 -282 110.5t-99 311.5v738h385v-658q0 -176 143 -176q72 0 120 37.5t72 99.5v697h386v-1135h-369z" />
    <glyph glyph-name="Uogonek" unicode="&#x172;" horiz-adv-x="1589" 
d="M1182 -457q-110 -63 -262 -63q-146 0 -221.5 62t-75.5 171q0 148 141 258q-316 6 -474.5 169.5t-158.5 475.5v904h408v-897q0 -146 66.5 -221.5t193.5 -75.5t193.5 75.5t66.5 221.5v897h399v-904q0 -485 -387 -606q-188 -86 -188 -198q0 -42 26 -67.5t78 -25.5
q71 0 146 45z" />
    <glyph glyph-name="uogonek" unicode="&#x173;" horiz-adv-x="1333" 
d="M1210 -457q-110 -63 -262 -63q-147 0 -222 62t-75 171q0 172 197 289l-4 162q-121 -189 -352 -189q-183 0 -282 110.5t-99 311.5v738h385v-658q0 -176 143 -176q72 0 120 37.5t72 99.5v697h386v-1135h-84q-222 -68 -222 -190q0 -40 26.5 -65.5t78.5 -25.5q70 0 145 45z
" />
    <glyph glyph-name="Wcircumflex" unicode="&#x174;" horiz-adv-x="2310" 
d="M1640 1657l-340 -31l-145 199l-145 -199l-340 31l329 358h312zM1393 0l-238 985l-237 -985h-463l-437 1520h461l226 -1049l249 1049h418l248 -1047l227 1047h445l-437 -1520h-462z" />
    <glyph glyph-name="wcircumflex" unicode="&#x175;" horiz-adv-x="1937" 
d="M1434 1288l-318 -31l-141 254l-141 -254l-318 31l303 422h311zM1139 0l-170 709l-170 -709h-430l-355 1135h432l154 -766l178 766h393l177 -766l155 766h420l-354 -1135h-430z" />
    <glyph glyph-name="Ycircumflex" unicode="&#x176;" horiz-adv-x="1460" 
d="M1214 1657l-340 -31l-145 199l-145 -199l-340 31l329 358h312zM1479 1520l-545 -992v-528h-408v526l-544 994h479l276 -607l277 607h465z" />
    <glyph glyph-name="ycircumflex" unicode="&#x177;" horiz-adv-x="1294" 
d="M1116 1288l-317 -31l-142 254l-141 -254l-317 31l303 422h311zM879 12q-52 -141 -111 -236t-131 -149t-151 -76t-183 -22q-112 0 -231 35l30 311q85 -29 160 -29q74 0 116.5 27t76.5 94l-443 1168h437l217 -779l215 779h407z" />
    <glyph glyph-name="Ydieresis" unicode="&#x178;" horiz-adv-x="1460" 
d="M836 1661v307h327v-307h-327zM295 1661v307h328v-307h-328zM1479 1520l-545 -992v-528h-408v526l-544 994h479l276 -607l277 607h465z" />
    <glyph glyph-name="Zacute" unicode="&#x179;" horiz-adv-x="1404" 
d="M641 1618l-221 102l360 336l336 -155zM1329 340v-340h-1257v305l714 879h-680v336h1207v-297l-719 -883h735z" />
    <glyph glyph-name="zacute" unicode="&#x17a;" horiz-adv-x="1134" 
d="M623 1249l-242 47l240 428l348 -69zM1069 287v-287h-1008v270l523 578h-500v287h971v-271l-523 -577h537z" />
    <glyph glyph-name="Zdotaccent" unicode="&#x17b;" horiz-adv-x="1404" 
d="M498 1661v307h409v-307h-409zM1329 340v-340h-1257v305l714 879h-680v336h1207v-297l-719 -883h735z" />
    <glyph glyph-name="zdotaccent" unicode="&#x17c;" horiz-adv-x="1134" 
d="M367 1276v305h405v-305h-405zM1069 287v-287h-1008v270l523 578h-500v287h971v-271l-523 -577h537z" />
    <glyph glyph-name="Zcaron" unicode="&#x17d;" horiz-adv-x="1404" 
d="M1188 2001l-330 -359h-311l-330 359l340 31l145 -199l146 199zM1329 340v-340h-1257v305l714 879h-680v336h1207v-297l-719 -883h735z" />
    <glyph glyph-name="zcaron" unicode="&#x17e;" horiz-adv-x="1134" 
d="M1028 1677l-303 -413h-311l-303 413l317 33l141 -252l142 252zM1069 287v-287h-1008v270l523 578h-500v287h971v-271l-523 -577h537z" />
    <glyph glyph-name="longs" unicode="&#x17f;" horiz-adv-x="741" 
d="M145 0v1153q0 463 473 463q122 0 203 -23l-18 -305q-61 21 -133 21q-74 0 -107 -35t-33 -121v-1153h-385z" />
    <glyph glyph-name="uni018F" unicode="&#x18f;" horiz-adv-x="1583" 
d="M1501 764q0 -383 -181 -588t-538 -205q-150 0 -268 37.5t-197 103.5t-130.5 162.5t-74 209t-22.5 247.5q0 89 8 168h971q-13 150 -97.5 222.5t-279.5 72.5q-300 0 -481 -154l-105 342q99 70 262.5 118t364.5 48q768 0 768 -784zM780 326q125 0 201 70t88 206h-551v-18
q0 -114 66 -186t196 -72z" />
    <glyph glyph-name="florin" unicode="&#x192;" 
d="M719 152q-55 -273 -175.5 -388.5t-336.5 -115.5q-157 0 -242 43l68 336q53 -43 141 -43q71 0 107.5 42.5t60.5 159.5l102 514h-168v238h216l20 106q26 128 73.5 223t101 147.5t124 84t129 40.5t129.5 9q136 0 246 -43l-70 -338q-76 45 -170 45q-82 0 -121.5 -42
t-64.5 -160l-15 -72h273v-238h-320z" />
    <glyph glyph-name="Ohorn" unicode="&#x1a0;" horiz-adv-x="1685" 
d="M1587 760q0 -367 -205 -578t-548 -211t-547.5 211t-204.5 578t204.5 577.5t547.5 210.5q168 0 307 -53h6q89 0 128.5 42.5t39.5 125.5q0 40 -12 94h325q17 -82 17 -133q0 -258 -234 -319q176 -207 176 -545zM834 326q151 0 236 114t85 320t-85 320t-236 114
q-150 0 -235 -114t-85 -320t85 -320t235 -114z" />
    <glyph glyph-name="ohorn" unicode="&#x1a1;" horiz-adv-x="1349" 
d="M1235 567q0 -190 -76.5 -325t-208 -201t-303.5 -66q-129 0 -236.5 38.5t-186.5 111.5t-123 186t-44 256t44 256t123 186t186.5 111.5t236.5 38.5q143 0 258 -47q129 17 129 166q0 47 -14 94h328q16 -77 16 -133q0 -251 -223 -315q94 -147 94 -357zM647 283q91 0 143 73
t52 211t-52 211.5t-143 73.5q-92 0 -144 -73t-52 -212t52 -211.5t144 -72.5z" />
    <glyph glyph-name="Uhorn" unicode="&#x1af;" horiz-adv-x="1662" 
d="M1059 623v897h186q74 0 103.5 36t29.5 107q0 40 -12 94h326q16 -58 16 -133q0 -259 -250 -303v-705q0 -318 -168.5 -481.5t-498.5 -163.5t-495 163.5t-165 481.5v904h408v-897q0 -146 66.5 -221.5t193.5 -75.5t193.5 75.5t66.5 221.5z" />
    <glyph glyph-name="uhorn" unicode="&#x1b0;" horiz-adv-x="1437" 
d="M831 438v697h177q68 0 99.5 34t31.5 109q0 36 -13 94h326q16 -77 16 -133q0 -261 -251 -305v-934h-369l-4 164q-121 -189 -352 -189q-183 0 -282 110.5t-99 311.5v738h385v-658q0 -176 143 -176q72 0 120 37.5t72 99.5z" />
    <glyph glyph-name="Aringacute" unicode="&#x1fa;" horiz-adv-x="1617" 
d="M1159 0l-84 281h-543l-83 -281h-445l539 1520h94q-70 40 -109 107.5t-39 150.5q0 92 50 166t135 108l-148 70l361 336l336 -156l-379 -225q125 -12 204.5 -96t79.5 -203q0 -83 -38.5 -150.5t-106.5 -107.5h94l537 -1520h-455zM809 1663q54 0 86.5 32t32.5 83t-32.5 81.5
t-86.5 30.5t-86.5 -30.5t-32.5 -81.5t32.5 -83t86.5 -32zM633 608h342l-170 570z" />
    <glyph glyph-name="aringacute" unicode="&#x1fb;" horiz-adv-x="1253" 
d="M772 0l-4 131q-123 -156 -338 -156q-171 0 -270 93t-99 262q0 191 136.5 284t420.5 93h138v26q0 68 -43 100.5t-154 32.5q-216 0 -373 -108l-57 293q180 102 451 108q-118 17 -192.5 100t-74.5 197q0 99 57.5 176.5t153.5 108.5l-178 82l361 336l335 -156l-413 -246h4
q138 0 228.5 -87t90.5 -214q0 -116 -76.5 -200t-197.5 -99q244 -10 353.5 -114t109.5 -291v-752h-369zM633 1343q54 0 86.5 31t32.5 82t-32.5 83t-86.5 32t-86.5 -32t-32.5 -83t32.5 -82t86.5 -31zM561 256q67 0 119 31t76 82v131h-78q-127 0 -186.5 -31t-59.5 -100
q0 -113 129 -113z" />
    <glyph glyph-name="AEacute" unicode="&#x1fc;" horiz-adv-x="2246" 
d="M1319 1618l-221 102l360 336l336 -155zM1061 0v340h-531l-174 -340h-462l829 1520h1413v-336h-688v-242h606v-328h-606v-274h704v-340h-1091zM1061 1190h-96l-267 -520h363v520z" />
    <glyph glyph-name="aeacute" unicode="&#x1fd;" horiz-adv-x="1935" 
d="M1014 1249l-242 47l240 428l348 -69zM1853 86q-203 -111 -479 -111q-313 0 -467 168q-171 -168 -430 -168q-200 0 -308 92.5t-108 260.5q0 185 135 275.5t422 90.5h152v39q0 67 -48 100t-159 33q-220 0 -377 -108l-57 293q186 108 487 108q257 0 357 -112
q136 112 352 112q120 0 214 -29.5t155 -80t101 -122.5t56.5 -151t16.5 -172v-135h-738q10 -97 77.5 -149t211.5 -52q201 0 377 111zM1333 895q-86 0 -141 -52t-62 -155h371v12q0 195 -168 195zM571 256q71 0 129 30t91 81q-14 65 -19 118h-94q-131 0 -188.5 -28t-57.5 -90
q0 -111 139 -111z" />
    <glyph glyph-name="Oslashacute" unicode="&#x1fe;" horiz-adv-x="1669" 
d="M772 1618l-221 102l360 336l336 -155zM834 -29q-234 0 -412 105l-129 -166l-187 76l166 211q-190 212 -190 563q0 367 204.5 577.5t547.5 210.5q237 0 413 -104l129 166l187 -76l-166 -213q190 -209 190 -561q0 -367 -205 -578t-548 -211zM514 760q0 -122 31 -213
l465 594q-74 53 -176 53q-150 0 -235 -114t-85 -320zM1155 760q0 122 -31 213l-465 -594q71 -53 175 -53q151 0 236 114t85 320z" />
    <glyph glyph-name="oslashacute" unicode="&#x1ff;" horiz-adv-x="1292" 
d="M700 1249l-241 47l239 428l349 -69zM647 -25q-169 0 -301 66l-125 -160l-162 72l148 190q-150 156 -150 424q0 143 44 256t123 186t186.5 111.5t236.5 38.5q169 0 299 -65l125 159l162 -71l-148 -191q150 -156 150 -424q0 -190 -76.5 -325t-208 -201t-303.5 -66zM451 567
q0 -61 8 -100l280 360q-42 25 -92 25q-92 0 -144 -73t-52 -212zM842 567q0 62 -8 101l-281 -361q41 -24 94 -24q91 0 143 73t52 211z" />
    <glyph glyph-name="uni0218" unicode="&#x218;" horiz-adv-x="1339" 
d="M70 113l77 364q100 -71 232 -116.5t280 -45.5q95 0 142 27t47 86q0 62 -52.5 90.5t-205.5 67.5q-56 15 -92.5 25.5t-92.5 32t-92.5 44t-79.5 59.5t-68 79.5t-42 103t-17 131.5q0 223 154 355t451 132q138 0 270 -29t225 -81l-69 -365q-86 62 -198 96.5t-226 34.5
q-187 0 -187 -110q0 -58 47.5 -84.5t200.5 -63.5q44 -11 76 -19.5t76.5 -22.5t76.5 -29t70 -37t65 -47t54 -59t43.5 -73t26.5 -89t10 -107q0 -231 -156 -361.5t-463 -130.5q-164 0 -317.5 38t-265.5 104zM705 -539l-285 37q119 165 119 367v43h321q4 -36 4 -64
q0 -213 -159 -383z" />
    <glyph glyph-name="uni0219" unicode="&#x219;" horiz-adv-x="1105" 
d="M63 76l54 309q191 -127 409 -127q73 0 103 16.5t30 49.5q0 25 -18.5 41t-50.5 26.5t-96 27.5q-9 2 -13 3q-49 12 -80.5 21.5t-77.5 26.5t-75.5 35t-63 46.5t-53 61t-32.5 78.5t-13 100q0 174 127.5 271t380.5 97q243 0 407 -82l-55 -305q-71 46 -163 76.5t-181 30.5
q-129 0 -129 -68q0 -38 37 -55t152 -43q60 -14 106.5 -29t101.5 -44.5t91.5 -66.5t61 -96t24.5 -133q0 -181 -135.5 -275t-383.5 -94q-268 0 -465 101zM571 -539l-284 37q119 165 119 367v43h321q4 -36 4 -64q0 -212 -160 -383z" />
    <glyph glyph-name="uni021A" unicode="&#x21a;" horiz-adv-x="1341" 
d="M1315 1184h-441v-1184h-407v1184h-440v336h1288v-336zM678 -539l-285 37q119 165 119 367v43h322q4 -36 4 -64q0 -212 -160 -383z" />
    <glyph glyph-name="uni021B" unicode="&#x21b;" horiz-adv-x="940" 
d="M897 37q-127 -62 -303 -62q-90 0 -159 20.5t-123.5 67t-83.5 128.5t-29 198v471h-170v275h170v288l383 80v-368h307v-275h-307v-409q0 -83 30.5 -119.5t100.5 -36.5q76 0 151 41zM524 -539l-284 37q118 163 118 367v43h322q4 -36 4 -64q0 -212 -160 -383z" />
    <glyph glyph-name="uni0237" unicode="&#x237;" horiz-adv-x="643" 
d="M-160 -440l27 307q48 -25 125 -25q76 0 110.5 44.5t34.5 154.5v1094h385v-1053q0 -151 -32.5 -259.5t-94.5 -172t-145 -92.5t-193 -29q-140 0 -217 31z" />
    <glyph glyph-name="uni0259" unicode="&#x259;" horiz-adv-x="1269" 
d="M1212 569q0 -290 -146.5 -442t-432.5 -152q-149 0 -258 41.5t-173 118.5t-94 176.5t-30 225.5q0 45 4 135h743q-11 96 -73 145t-203 49q-220 0 -381 -108l-57 293q86 50 213.5 79t271.5 29q616 0 616 -590zM625 246q89 0 141.5 52t58.5 155h-381v-17q0 -91 46 -140.5
t135 -49.5z" />
    <glyph glyph-name="uni02BB" unicode="&#x2bb;" horiz-adv-x="692" 
d="M623 1583q-129 -261 -129 -579q0 -101 2 -136h-367q-2 35 -2 136q0 326 170 579h326z" />
    <glyph glyph-name="uni02BC" unicode="&#x2bc;" horiz-adv-x="692" 
d="M70 879q129 261 129 579q0 100 -2 135h366q2 -35 2 -135q0 -326 -170 -579h-325z" />
    <glyph glyph-name="circumflex" unicode="&#x2c6;" horiz-adv-x="1024" 
d="M971 1288l-318 -31l-141 254l-141 -254l-318 31l303 422h312z" />
    <glyph glyph-name="caron" unicode="&#x2c7;" horiz-adv-x="1024" 
d="M971 1677l-303 -413h-312l-303 413l318 33l141 -252l141 252z" />
    <glyph glyph-name="uni02C9" unicode="&#x2c9;" horiz-adv-x="1024" 
d="M131 1309v239h762v-239h-762z" />
    <glyph glyph-name="breve" unicode="&#x2d8;" horiz-adv-x="1024" 
d="M86 1663l283 12q3 -190 143 -190t143 190l283 -12q-6 -195 -123.5 -301.5t-302.5 -106.5t-302.5 106.5t-123.5 301.5z" />
    <glyph glyph-name="dotaccent" unicode="&#x2d9;" horiz-adv-x="1024" 
d="M309 1276v305h406v-305h-406z" />
    <glyph glyph-name="ring" unicode="&#x2da;" horiz-adv-x="1024" 
d="M512 1204q-138 0 -228.5 87t-90.5 214t90.5 214t228.5 87t228.5 -87t90.5 -214t-90.5 -214t-228.5 -87zM512 1393q54 0 86.5 30.5t32.5 81.5t-32.5 83t-86.5 32t-86.5 -32t-32.5 -83t32.5 -81.5t86.5 -30.5z" />
    <glyph glyph-name="ogonek" unicode="&#x2db;" horiz-adv-x="1024" 
d="M823 -457q-113 -63 -262 -63q-147 0 -223 62t-76 171q0 90 50.5 162t152.5 137h252q-193 -91 -193 -200q0 -42 26.5 -67.5t78.5 -25.5q67 0 145 45z" />
    <glyph glyph-name="tilde" unicode="&#x2dc;" horiz-adv-x="1024" 
d="M289 1255l-262 19q0 186 77 277t205 91q107 0 238 -73q77 -43 117 -43q35 0 53 30t18 99l262 -19q0 -186 -77 -277t-205 -91q-64 0 -129 22t-109 49q-73 45 -117 45q-35 0 -53 -30t-18 -99z" />
    <glyph glyph-name="hungarumlaut" unicode="&#x2dd;" horiz-adv-x="1024" 
d="M391 1251l-239 52l247 421l306 -67zM819 1251l-239 52l247 421l306 -67z" />
    <glyph glyph-name="gravecomb" unicode="&#x300;" horiz-adv-x="0" 
d="M-53 1249l-346 406l348 69l239 -428z" />
    <glyph glyph-name="acutecomb" unicode="&#x301;" horiz-adv-x="0" 
d="M53 1249l-241 47l239 428l348 -69z" />
    <glyph glyph-name="uni0302" unicode="&#x302;" horiz-adv-x="0" 
d="M459 1288l-318 -31l-141 254l-141 -254l-318 31l303 422h312z" />
    <glyph glyph-name="tildecomb" unicode="&#x303;" horiz-adv-x="0" 
d="M-223 1255l-262 19q0 186 77 277t205 91q107 0 238 -73q77 -43 117 -43q35 0 53 30t18 99l262 -19q0 -186 -77 -277t-205 -91q-116 0 -238 71q-76 45 -117 45q-35 0 -53 -30t-18 -99z" />
    <glyph glyph-name="uni0304" unicode="&#x304;" horiz-adv-x="0" 
d="M-381 1309v239h762v-239h-762z" />
    <glyph glyph-name="uni0306" unicode="&#x306;" horiz-adv-x="0" 
d="M-426 1663l283 12q3 -190 143 -190t143 190l283 -12q-6 -195 -123.5 -301.5t-302.5 -106.5t-302.5 106.5t-123.5 301.5z" />
    <glyph glyph-name="uni0307" unicode="&#x307;" horiz-adv-x="0" 
d="M-203 1276v305h406v-305h-406z" />
    <glyph glyph-name="uni0308" unicode="&#x308;" horiz-adv-x="0" 
d="M94 1276v305h328v-305h-328zM-422 1276v305h328v-305h-328z" />
    <glyph glyph-name="hookabovecomb" unicode="&#x309;" horiz-adv-x="0" 
d="M27 1223l-160 131q180 57 180 127q0 47 -84 47q-111 0 -211 -72l-45 227q138 74 303 74q150 0 238 -59t88 -174q0 -109 -78.5 -177.5t-230.5 -123.5z" />
    <glyph glyph-name="uni030A" unicode="&#x30a;" horiz-adv-x="0" 
d="M0 1204q-138 0 -228.5 87t-90.5 214t90.5 214t228.5 87t228.5 -87t90.5 -214t-90.5 -214t-228.5 -87zM0 1393q54 0 86.5 30.5t32.5 81.5t-32.5 83t-86.5 32t-86.5 -32t-32.5 -83t32.5 -81.5t86.5 -30.5z" />
    <glyph glyph-name="uni030B" unicode="&#x30b;" horiz-adv-x="0" 
d="M-121 1251l-239 52l247 421l306 -67zM307 1251l-239 52l247 421l306 -67z" />
    <glyph glyph-name="uni030C" unicode="&#x30c;" horiz-adv-x="0" 
d="M459 1677l-303 -413h-312l-303 413l318 33l141 -252l141 252z" />
    <glyph glyph-name="uni0312" unicode="&#x312;" horiz-adv-x="0" 
d="M-25 1704l287 -37q-104 -147 -104 -342q0 -44 4 -68h-322q-6 42 -6 82q0 199 141 365z" />
    <glyph glyph-name="uni031B" unicode="&#x31b;" horiz-adv-x="0" 
d="M-362 1135h36q68 0 99.5 34t31.5 109q0 47 -14 94h328q16 -77 16 -133q0 -313 -364 -313h-133v209z" />
    <glyph glyph-name="dotbelowcomb" unicode="&#x323;" horiz-adv-x="0" 
d="M-203 -440v305h406v-305h-406z" />
    <glyph glyph-name="uni0326" unicode="&#x326;" horiz-adv-x="0" 
d="M16 -539l-284 37q118 163 118 367v43h322q4 -36 4 -64q0 -212 -160 -383z" />
    <glyph glyph-name="uni0327" unicode="&#x327;" horiz-adv-x="0" 
d="M287 -276q0 -112 -82.5 -178t-255.5 -66q-149 0 -252 41l53 225q95 -45 199 -45q90 0 90 47q0 29 -41 47t-162 41l76 176h149l-28 -57q76 -19 128 -44.5t78.5 -56t37 -61.5t10.5 -69z" />
    <glyph glyph-name="uni0328" unicode="&#x328;" horiz-adv-x="0" 
d="M311 -457q-113 -63 -262 -63q-147 0 -223 62t-76 171q0 90 50.5 162t152.5 137h252q-193 -91 -193 -200q0 -42 26.5 -67.5t78.5 -25.5q67 0 145 45z" />
    <glyph glyph-name="uni0374" unicode="&#x374;" horiz-adv-x="628" 
d="M88 872l182 721h377v-4l-289 -717h-270z" />
    <glyph glyph-name="uni037E" unicode="&#x37e;" horiz-adv-x="802" 
d="M180 688v447h443v-447h-443zM369 -332l-318 45q166 271 166 606q0 69 -6 138h383q10 -70 10 -152q0 -174 -61 -340t-174 -297z" />
    <glyph glyph-name="tonos" unicode="&#x384;" horiz-adv-x="491" 
d="M319 1241l-247 16l75 467h365v-4z" />
    <glyph glyph-name="dieresistonos" unicode="&#x385;" horiz-adv-x="1024" 
d="M594 1241l-248 16l41 467h346v-4zM739 1276v305h326v-305h-326zM-41 1276v305h326v-305h-326z" />
    <glyph glyph-name="Alphatonos" unicode="&#x386;" horiz-adv-x="1650" 
d="M1192 0l-84 281h-543l-84 -281h-444l538 1520h535l537 -1520h-455zM213 1036l-248 17l76 467h365v-4zM666 608h342l-170 570z" />
    <glyph glyph-name="anoteleia" unicode="&#x387;" horiz-adv-x="845" 
d="M201 688v447h444v-447h-444z" />
    <glyph glyph-name="Epsilontonos" unicode="&#x388;" horiz-adv-x="1650" 
d="M1556 340v-340h-1110v1520h1094v-336h-688v-242h606v-328h-606v-274h704zM186 1036l-247 17l75 467h365v-4z" />
    <glyph glyph-name="Etatonos" unicode="&#x389;" horiz-adv-x="1929" 
d="M1378 0v604h-526v-604h-406v1520h406v-566h526v566h406v-1520h-406zM186 1036l-247 17l75 467h365v-4z" />
    <glyph glyph-name="Iotatonos" unicode="&#x38a;" horiz-adv-x="997" 
d="M446 0v1520h406v-1520h-406zM186 1036l-247 17l75 467h365v-4z" />
    <glyph glyph-name="Omicrontonos" unicode="&#x38c;" horiz-adv-x="1880" 
d="M1044 -29q-343 0 -547 211t-204 578t204 577.5t547 210.5t548.5 -210.5t205.5 -577.5t-205.5 -578t-548.5 -211zM186 1036l-247 17l75 467h365v-4zM1044 326q151 0 236.5 114t85.5 320t-85.5 320t-236.5 114q-150 0 -234.5 -114t-84.5 -320t84.5 -320t234.5 -114z" />
    <glyph glyph-name="Upsilontonos" unicode="&#x38e;" horiz-adv-x="1880" 
d="M1898 1520l-544 -992v-528h-408v526l-545 994h480l276 -607l277 607h464zM186 1036l-247 17l75 467h365v-4z" />
    <glyph glyph-name="Omegatonos" unicode="&#x38f;" horiz-adv-x="1945" 
d="M997 309v-309h-718v340h253q-106 102 -165.5 236t-59.5 290q0 144 53 269t150 216.5t242 144t321 52.5t321.5 -52.5t242.5 -144t150.5 -216.5t53.5 -269q0 -156 -60 -290t-167 -236h256v-340h-721v309q260 221 260 510q0 173 -88 274t-248 101q-159 0 -246.5 -101
t-87.5 -274q0 -291 258 -510zM186 1036l-247 17l75 467h365v-4z" />
    <glyph glyph-name="iotadieresistonos" unicode="&#x390;" horiz-adv-x="724" 
d="M401 1241l-247 16l41 467h346v-4zM547 1276v305h325v-305h-325zM-233 1276v305h325v-305h-325zM702 4q-94 -22 -213 -22q-194 0 -281 89.5t-87 280.5v783h385v-705q0 -74 21 -102.5t81 -28.5q53 0 94 16v-311z" />
    <glyph glyph-name="Alpha" unicode="&#x391;" horiz-adv-x="1617" 
d="M1159 0l-84 281h-543l-83 -281h-445l539 1520h534l537 -1520h-455zM633 608h342l-170 570z" />
    <glyph glyph-name="Beta" unicode="&#x392;" horiz-adv-x="1538" 
d="M1460 422q0 -95 -32 -169t-85.5 -121t-128.5 -77t-154 -42.5t-169 -12.5h-746v1520h727q256 0 392.5 -101.5t136.5 -292.5q0 -260 -260 -335q319 -70 319 -369zM809 1194h-274v-289h272q82 0 128 33.5t46 114.5q0 79 -43 110t-129 31zM535 631v-305h309q93 0 143.5 33
t50.5 120q0 83 -48 117.5t-140 34.5h-315z" />
    <glyph glyph-name="Gamma" unicode="&#x393;" horiz-adv-x="1230" 
d="M1204 1174h-653v-1174h-406v1520h1059v-346z" />
    <glyph glyph-name="uni0394" unicode="&#x394;" horiz-adv-x="1617" 
d="M1077 1520l537 -1520h-1610l539 1520h534zM551 340h506l-252 838z" />
    <glyph glyph-name="Epsilon" unicode="&#x395;" horiz-adv-x="1349" 
d="M1255 340v-340h-1110v1520h1094v-336h-688v-242h606v-328h-606v-274h704z" />
    <glyph glyph-name="Zeta" unicode="&#x396;" horiz-adv-x="1404" 
d="M1329 340v-340h-1257v305l714 879h-680v336h1207v-297l-719 -883h735z" />
    <glyph glyph-name="Eta" unicode="&#x397;" horiz-adv-x="1628" 
d="M1077 0v604h-526v-604h-406v1520h406v-566h526v566h406v-1520h-406z" />
    <glyph glyph-name="Theta" unicode="&#x398;" horiz-adv-x="1669" 
d="M834 -29q-343 0 -547.5 211t-204.5 578t204.5 577.5t547.5 210.5t548 -210.5t205 -577.5t-205 -578t-548 -211zM834 326q151 0 236 114t85 320t-85 320t-236 114q-150 0 -235 -114t-85 -320t85 -320t235 -114zM621 631v280h428v-280h-428z" />
    <glyph glyph-name="Iota" unicode="&#x399;" horiz-adv-x="696" 
d="M145 0v1520h406v-1520h-406z" />
    <glyph glyph-name="Kappa" unicode="&#x39a;" horiz-adv-x="1593" 
d="M1092 0l-396 573l-145 -149v-424h-406v1520h406v-637l532 637h516v-4l-632 -660l641 -852v-4h-516z" />
    <glyph glyph-name="Lambda" unicode="&#x39b;" horiz-adv-x="1617" 
d="M1159 0l-354 1178l-356 -1178h-445l539 1520h534l537 -1520h-455z" />
    <glyph glyph-name="Mu" unicode="&#x39c;" horiz-adv-x="2119" 
d="M907 0l-385 1055v-1055h-377v1520h566l350 -957l348 957h565v-1520h-389v1061l-387 -1061h-291z" />
    <glyph glyph-name="Nu" unicode="&#x39d;" horiz-adv-x="1660" 
d="M1128 0l-600 887v-887h-383v1520h392l593 -877v877h386v-1520h-388z" />
    <glyph glyph-name="Xi" unicode="&#x39e;" horiz-adv-x="1421" 
d="M111 1180v340h1202v-340h-1202zM248 610v328h928v-328h-928zM94 0v344h1235v-344h-1235z" />
    <glyph glyph-name="Omicron" unicode="&#x39f;" horiz-adv-x="1669" 
d="M834 -29q-343 0 -547.5 211t-204.5 578t204.5 577.5t547.5 210.5t548 -210.5t205 -577.5t-205 -578t-548 -211zM834 326q151 0 236 114t85 320t-85 320t-236 114q-150 0 -235 -114t-85 -320t85 -320t235 -114z" />
    <glyph glyph-name="Pi" unicode="&#x3a0;" horiz-adv-x="1605" 
d="M1055 0v1180h-504v-1180h-406v1520h1315v-1520h-405z" />
    <glyph glyph-name="Rho" unicode="&#x3a1;" horiz-adv-x="1466" 
d="M551 436v-436h-406v1520h643q308 0 466.5 -138t158.5 -401q0 -125 -37 -222t-96.5 -157t-144 -98t-171.5 -53t-186 -15h-227zM750 1188h-199v-420h194q246 0 246 207q0 213 -241 213z" />
    <glyph glyph-name="Sigma" unicode="&#x3a3;" horiz-adv-x="1404" 
d="M1337 340v-340h-1257v305l438 467l-422 451v297h1209v-336h-678l379 -398v-20l-406 -426h737z" />
    <glyph glyph-name="Tau" unicode="&#x3a4;" horiz-adv-x="1341" 
d="M1315 1184h-441v-1184h-407v1184h-440v336h1288v-336z" />
    <glyph glyph-name="Upsilon" unicode="&#x3a5;" horiz-adv-x="1460" 
d="M1479 1520l-545 -992v-528h-408v526l-544 994h479l276 -607l277 607h465z" />
    <glyph glyph-name="Phi" unicode="&#x3a6;" horiz-adv-x="1974" 
d="M1905 776q0 -148 -56.5 -271t-154.5 -206t-230 -130t-282 -50v-148h-391v148q-150 3 -281 50t-229 130t-154.5 206t-56.5 271q0 196 97.5 346t260 229t363.5 83v139h391v-139q202 -4 365 -83t260.5 -229t97.5 -346zM1479 776q0 148 -83.5 241t-213.5 99v-680
q130 6 213.5 99t83.5 241zM494 776q0 -148 83.5 -241t213.5 -99v680q-130 -6 -213.5 -99t-83.5 -241z" />
    <glyph glyph-name="Chi" unicode="&#x3a7;" horiz-adv-x="1546" 
d="M1034 0l-274 473l-268 -473h-494l518 764l-508 756h516l260 -459l258 459h492l-508 -744l522 -776h-514z" />
    <glyph glyph-name="Psi" unicode="&#x3a8;" horiz-adv-x="1925" 
d="M1829 1126q0 -175 -30.5 -310.5t-86.5 -226t-139.5 -148.5t-183.5 -83.5t-224 -25.5v-332h-405v332q-126 1 -226 26.5t-183.5 84t-138.5 149.5t-85.5 225.5t-30.5 308.5v394h406v-441q0 -96 12.5 -167t34.5 -115.5t55.5 -71.5t70.5 -37t85 -10v842h405v-842q49 1 86.5 12
t70.5 38.5t54.5 72t34 114.5t12.5 164v441h406v-394z" />
    <glyph glyph-name="uni03A9" unicode="&#x3a9;" horiz-adv-x="1740" 
d="M795 309v-309h-719v340h254q-106 103 -166 236.5t-60 289.5q0 144 53 269t150 216.5t242 144t321 52.5t321.5 -52.5t242.5 -144t150.5 -216.5t53.5 -269q0 -156 -60 -290t-167 -236h256v-340h-721v309q260 221 260 510q0 173 -88 274t-248 101q-159 0 -246 -101t-87 -274
q0 -291 258 -510z" />
    <glyph glyph-name="Iotadieresis" unicode="&#x3aa;" horiz-adv-x="696" 
d="M455 1661v307h327v-307h-327zM-86 1661v307h328v-307h-328zM145 0v1520h406v-1520h-406z" />
    <glyph glyph-name="Upsilondieresis" unicode="&#x3ab;" horiz-adv-x="1460" 
d="M836 1661v307h327v-307h-327zM295 1661v307h328v-307h-328zM1479 1520l-545 -992v-528h-408v526l-544 994h479l276 -607l277 607h465z" />
    <glyph glyph-name="alphatonos" unicode="&#x3ac;" horiz-adv-x="1425" 
d="M823 1241l-248 16l76 467h365v-4zM1188 -18q-135 0 -206 50t-95 150q-116 -207 -348 -207q-77 0 -146 22t-129 68.5t-104 113t-69 161.5t-25 209q0 280 139 445t362 165q244 0 338 -215l25 191h393q-73 -265 -100 -396t-27 -233q0 -108 28.5 -157.5t86.5 -49.5
q43 0 82 16v-311q-93 -22 -205 -22zM457 555q0 -132 50 -198t130 -66q82 0 134 70t65 204l4 43q-29 240 -187 240q-90 0 -143 -79.5t-53 -213.5z" />
    <glyph glyph-name="epsilontonos" unicode="&#x3ad;" horiz-adv-x="1179" 
d="M752 1241l-248 16l76 467h364v-4zM1120 88q-196 -113 -502 -113q-262 0 -403 83t-141 243q0 212 225 287q-201 62 -201 256q0 150 141.5 232.5t415.5 82.5q272 0 441 -84l-56 -303q-143 98 -344 98q-89 0 -136.5 -22t-47.5 -62q0 -46 52 -65t177 -19h162v-256h-180
q-126 0 -182 -22.5t-56 -73.5q0 -86 201 -86q121 0 204.5 28.5t170.5 90.5z" />
    <glyph glyph-name="etatonos" unicode="&#x3ae;" horiz-adv-x="1413" 
d="M874 1241l-247 16l75 467h365v-4zM1300 737v-1165h-385v1085q0 177 -141 177q-65 0 -115.5 -36t-78.5 -100v-698h-385v705q0 74 -21 102.5t-72 28.5q-40 0 -75 -17v311q91 27 200 27q269 0 318 -201q128 203 375 203q184 0 282 -110t98 -312z" />
    <glyph glyph-name="iotatonos" unicode="&#x3af;" horiz-adv-x="724" 
d="M428 1241l-248 16l76 467h365v-4zM702 4q-94 -22 -213 -22q-194 0 -281 89.5t-87 280.5v783h385v-705q0 -74 21 -102.5t81 -28.5q53 0 94 16v-311z" />
    <glyph glyph-name="upsilondieresistonos" unicode="&#x3b0;" horiz-adv-x="1294" 
d="M705 1241l-248 16l41 467h346v-4zM850 1276v305h326v-305h-326zM70 1276v305h325v-305h-325zM109 1135h385v-611q0 -117 44.5 -179t123.5 -62q95 0 134.5 85.5t39.5 245.5q0 235 -88 521h385q88 -269 88 -525q0 -307 -141 -471t-431 -164q-258 0 -399 133t-141 388v639z
" />
    <glyph glyph-name="alpha" unicode="&#x3b1;" horiz-adv-x="1425" 
d="M1188 -18q-135 0 -206 50t-95 150q-116 -207 -348 -207q-77 0 -146 22t-129 68.5t-104 113t-69 161.5t-25 209q0 280 139 445t362 165q244 0 338 -215l25 191h393q-73 -265 -100 -396t-27 -233q0 -108 28.5 -157.5t86.5 -49.5q43 0 82 16v-311q-93 -22 -205 -22zM457 555
q0 -132 50 -198t130 -66q82 0 134 70t65 204l4 43q-29 240 -187 240q-90 0 -143 -79.5t-53 -213.5z" />
    <glyph glyph-name="beta" unicode="&#x3b2;" horiz-adv-x="1374" 
d="M813 -25q-184 0 -307 99v-502h-383v1509q0 116 30 208t81.5 152.5t124.5 100.5t156 57t179 17q256 0 399.5 -110.5t143.5 -301.5q0 -131 -70 -222.5t-186 -127.5q155 -37 242.5 -145t87.5 -271q0 -206 -139.5 -334.5t-358.5 -128.5zM506 1090v-713q69 -94 203 -94
q101 0 159 53.5t58 150.5q0 205 -254 205h-51v269h51q86 0 132 51.5t46 134.5q0 78 -42.5 121t-119.5 43q-182 0 -182 -221z" />
    <glyph glyph-name="gamma" unicode="&#x3b3;" horiz-adv-x="1425" 
d="M1458 1135q-417 -743 -586 -1143l-16 -420h-426l64 430q-22 164 -61 329t-77 271q-44 122 -98 173.5t-137 51.5q-32 0 -82 -8l-23 316q91 22 195 22q85 0 148.5 -13t119.5 -46t95.5 -86.5t73 -138t57.5 -197t43 -266.5q105 398 260 725h450z" />
    <glyph glyph-name="delta" unicode="&#x3b4;" horiz-adv-x="1296" 
d="M1237 532q0 -249 -157.5 -403t-434.5 -154q-265 0 -425.5 143t-160.5 390q0 362 387 481q-109 62 -167 140t-58 188q0 303 467 303q317 0 535 -123l-66 -321q-222 139 -428 139q-48 0 -69 -11.5t-21 -39.5q0 -31 33 -57.5t133 -82.5q40 -22 63.5 -35.5t64 -39t66 -45.5
t61 -52t58 -61.5t47.5 -70.5t39 -83t23.5 -95t9.5 -110zM453 535q0 -119 56.5 -185.5t141.5 -66.5q89 0 142 71.5t53 186.5q0 101 -41.5 165t-120.5 111q-101 -15 -166 -85.5t-65 -196.5z" />
    <glyph glyph-name="epsilon" unicode="&#x3b5;" horiz-adv-x="1179" 
d="M1120 88q-196 -113 -502 -113q-262 0 -403 83t-141 243q0 212 225 287q-201 62 -201 256q0 150 141.5 232.5t415.5 82.5q272 0 441 -84l-56 -303q-143 98 -344 98q-89 0 -136.5 -22t-47.5 -62q0 -46 52 -65t177 -19h162v-256h-180q-126 0 -182 -22.5t-56 -73.5
q0 -86 201 -86q121 0 204.5 28.5t170.5 90.5z" />
    <glyph glyph-name="zeta" unicode="&#x3b6;" horiz-adv-x="1044" 
d="M1042 0q0 -117 -52.5 -238t-151.5 -217l-326 115q156 141 156 238q0 20 -5 36t-20.5 29.5t-30 22.5t-46.5 21t-55.5 19t-72.5 21q-63 18 -109 35.5t-99.5 50.5t-87 74.5t-56.5 106.5t-23 147q0 391 492 823h-35q-256 0 -395 19v311q141 -25 608 -25q97 0 301 4v-282
q-288 -227 -432.5 -419t-144.5 -335q0 -36 7.5 -63.5t27.5 -49.5t38 -36.5t56 -29.5t63.5 -23.5t77.5 -24.5q43 -13 69 -22t63.5 -25t60 -31.5t48.5 -40.5t40.5 -54t24 -69t9.5 -88z" />
    <glyph glyph-name="eta" unicode="&#x3b7;" horiz-adv-x="1413" 
d="M1300 737v-1165h-385v1085q0 177 -141 177q-65 0 -115.5 -36t-78.5 -100v-698h-385v705q0 74 -21 102.5t-72 28.5q-40 0 -75 -17v311q91 27 200 27q269 0 318 -201q128 203 375 203q184 0 282 -110t98 -312z" />
    <glyph glyph-name="theta" unicode="&#x3b8;" horiz-adv-x="1306" 
d="M653 -25q-279 0 -427 210t-148 608t148 607.5t427 209.5t427.5 -209.5t148.5 -607.5t-148.5 -608t-427.5 -210zM653 1303q-93 0 -140.5 -93.5t-53.5 -285.5h387q-12 379 -193 379zM653 283q93 0 140 95t55 292h-389q6 -197 53 -292t141 -95z" />
    <glyph glyph-name="iota" unicode="&#x3b9;" horiz-adv-x="724" 
d="M702 4q-94 -22 -213 -22q-194 0 -281 89.5t-87 280.5v783h385v-705q0 -74 21 -102.5t81 -28.5q53 0 94 16v-311z" />
    <glyph glyph-name="kappa" unicode="&#x3ba;" horiz-adv-x="1347" 
d="M889 0l-240 434q-83 -101 -147 -186v-248h-385v1135h385v-480q183 290 320.5 396t338.5 106q95 0 150 -22l-29 -326q-46 16 -98 16q-78 0 -146 -29t-147 -100l465 -692v-4h-467z" />
    <glyph glyph-name="lambda" unicode="&#x3bb;" horiz-adv-x="1337" 
d="M903 0l-215 711l-237 -711h-426l489 1102q-44 111 -94 152.5t-150 41.5q-80 0 -145 -22l-23 307q119 35 260 35q77 0 136.5 -11.5t108.5 -39.5t86 -63.5t72 -95t63 -121.5t63 -155l428 -1130h-416z" />
    <glyph glyph-name="uni03BC" unicode="&#x3bc;" horiz-adv-x="1425" 
d="M621 -25q-85 0 -150 35l35 -438h-381v1563h385v-658q0 -176 143 -176q71 0 119.5 37.5t73.5 99.5v697h385v-705q0 -74 21 -102.5t71 -28.5q44 0 80 16v-311q-91 -22 -203 -22q-235 0 -303 149q-100 -156 -276 -156z" />
    <glyph glyph-name="nu" unicode="&#x3bd;" horiz-adv-x="1318" 
d="M1245 1135q-9 -292 -121.5 -599.5t-306.5 -535.5h-397q-179 680 -420 1135h428q134 -322 244 -785q81 179 124.5 386.5t43.5 398.5h405z" />
    <glyph glyph-name="xi" unicode="&#x3be;" horiz-adv-x="1128" 
d="M1108 0q0 -118 -53 -238.5t-152 -216.5l-323 115q67 59 111 122t44 114q0 18 -5.5 32t-23 26t-32.5 20t-51 18t-60 15.5t-78 17.5q-64 14 -111.5 28.5t-109 45t-101 69t-67.5 102t-28 142.5q0 145 76.5 245t220.5 152q-120 31 -174 100.5t-54 151.5q0 91 58 156t151 96
q-141 3 -270 16v285q217 -25 700 -25q85 0 281 4v-311h-277q-67 0 -115.5 -15t-74 -39.5t-36.5 -51t-11 -56.5q0 -68 52 -105.5t138 -37.5h254v-326h-323q-95 0 -149 -47t-54 -117q0 -26 7.5 -46t26 -35.5t37.5 -26t55 -20.5t64.5 -16t79.5 -15q47 -9 78.5 -16t74.5 -20.5
t71.5 -28.5t60 -40t50 -55.5t30.5 -73t12 -94.5z" />
    <glyph glyph-name="omicron" unicode="&#x3bf;" horiz-adv-x="1292" 
d="M647 -25q-129 0 -236.5 38.5t-186.5 111.5t-123 186t-44 256t44 256t123 186t186.5 111.5t236.5 38.5q172 0 303.5 -66t208 -201t76.5 -325t-76.5 -325t-208 -201t-303.5 -66zM647 283q91 0 143 73t52 211t-52 211.5t-143 73.5q-92 0 -144 -73t-52 -212t52 -211.5
t144 -72.5z" />
    <glyph glyph-name="uni03C0" unicode="&#x3c0;" horiz-adv-x="1546" 
d="M1458 4q-94 -22 -213 -22q-198 0 -283 93.5t-85 305.5v442h-222q-12 -540 -123 -823h-413q141 329 160 823h-228v312h1428v-312h-217v-393q0 -73 21.5 -102t80.5 -29q55 0 94 16v-311z" />
    <glyph glyph-name="rho" unicode="&#x3c1;" horiz-adv-x="1351" 
d="M778 -25q-174 0 -286 103v-506h-386v985q0 161 48 280.5t132 188t186 101t222 32.5q270 0 433 -152.5t163 -435.5q0 -139 -41 -253t-111.5 -188.5t-163 -114.5t-196.5 -40zM492 393q29 -57 80 -83.5t110 -26.5q104 0 160.5 76t56.5 210t-55.5 202.5t-151.5 68.5
q-94 0 -147 -68.5t-53 -206.5v-172z" />
    <glyph glyph-name="sigma1" unicode="&#x3c2;" horiz-adv-x="1087" 
d="M809 -455l-324 115q154 139 154 238q0 51 -40.5 78.5t-160.5 72.5q-65 25 -115 52t-101.5 71.5t-85 99t-54.5 135t-21 179.5q0 126 33 226t87.5 164t131.5 106t159.5 59.5t176.5 17.5q223 0 377 -100l-55 -311q-64 46 -125.5 70t-140.5 24q-124 0 -188 -63.5t-64 -176.5
q0 -48 13.5 -87.5t35.5 -66.5t58.5 -50.5t72 -39t86.5 -32.5q57 -19 92.5 -33.5t78.5 -41.5t67 -58t40.5 -80.5t16.5 -112.5q0 -117 -53 -238t-152 -217z" />
    <glyph glyph-name="sigma" unicode="&#x3c3;" horiz-adv-x="1384" 
d="M1221 477q0 -153 -75 -268t-205 -174.5t-296 -59.5q-265 0 -426.5 151.5t-161.5 428.5q0 143 46 255t129.5 182.5t196 106.5t249.5 36h665v-312h-290q168 -128 168 -346zM645 283q87 0 138 64t51 185q0 97 -30.5 173t-78.5 118h-63q-101 0 -156 -70t-55 -202
q0 -126 50 -197t144 -71z" />
    <glyph glyph-name="tau" unicode="&#x3c4;" horiz-adv-x="1120" 
d="M944 12q-99 -30 -248 -30q-197 0 -281.5 93.5t-84.5 305.5v442h-310v312h1070v-312h-375v-401q0 -67 21 -95t81 -28q65 0 119 25z" />
    <glyph glyph-name="upsilon" unicode="&#x3c5;" horiz-adv-x="1294" 
d="M109 1135h385v-611q0 -117 44.5 -179t123.5 -62q95 0 134.5 85.5t39.5 245.5q0 235 -88 521h385q88 -269 88 -525q0 -307 -141 -471t-431 -164q-258 0 -399 133t-141 388v639z" />
    <glyph glyph-name="phi" unicode="&#x3c6;" horiz-adv-x="1763" 
d="M446 567q0 -137 73 -218t181 -87v610q-108 -6 -181 -87t-73 -218zM1317 567q0 137 -73 218t-183 87v-610q110 6 183 87t73 218zM700 1593h361v-434q105 -5 200.5 -32.5t177 -77.5t141 -119t93 -162t33.5 -201t-33.5 -201t-93 -162t-141 -119t-177 -77.5t-200.5 -32.5
v-403h-361v403q-105 5 -200 32.5t-176 77.5t-140.5 119t-93 162t-33.5 201t33.5 201t93 162t140.5 119t176 77.5t200 32.5v434z" />
    <glyph glyph-name="chi" unicode="&#x3c7;" horiz-adv-x="1339" 
d="M1309 -428q-98 -23 -215 -23q-46 0 -84 5t-68.5 13t-57.5 24.5t-47 31.5t-40 44t-34 52.5t-31.5 64.5t-30 73t-31.5 86l-33 90l-223 -461h-424v4l485 813l-74 186q-26 65 -44.5 102t-48 76t-68 56.5t-90.5 17.5q-34 0 -84 -8l-25 316q107 22 217 22q65 0 113.5 -8t88 -30
t66.5 -48t54.5 -75t47 -96t48.5 -126l26 -72l189 433h426v-5l-459 -774l86 -213q20 -50 33 -79t31.5 -64t35.5 -54t40 -37t51 -25t63 -7q36 0 86 10z" />
    <glyph glyph-name="psi" unicode="&#x3c8;" horiz-adv-x="1814" 
d="M1737 702q0 -712 -643 -722v-408h-371v408q-150 2 -264 43t-198.5 126.5t-128.5 227t-44 336.5v422h385v-447q0 -92 12 -160.5t32.5 -113.5t53 -73t69 -40t83.5 -14v1233h371v-1233q131 6 194.5 98t63.5 309q0 223 -76 441h385q76 -217 76 -433z" />
    <glyph glyph-name="omega" unicode="&#x3c9;" horiz-adv-x="1869" 
d="M1806 522q0 -261 -131.5 -404t-347.5 -143q-136 0 -237 58t-156 170q-54 -112 -154.5 -170t-236.5 -58q-217 0 -349.5 143.5t-132.5 403.5q0 189 69.5 351.5t170.5 261.5l424 -21q-266 -269 -266 -571q0 -230 143 -230q81 0 115.5 76.5t34.5 239.5v254h366v-254
q0 -163 34 -239.5t114 -76.5q145 0 145 230q0 302 -266 571l424 21q100 -98 168.5 -260.5t68.5 -352.5z" />
    <glyph glyph-name="iotadieresis" unicode="&#x3ca;" horiz-adv-x="724" 
d="M406 1276v305h327v-305h-327zM-111 1276v305h328v-305h-328zM702 4q-94 -22 -213 -22q-194 0 -281 89.5t-87 280.5v783h385v-705q0 -74 21 -102.5t81 -28.5q53 0 94 16v-311z" />
    <glyph glyph-name="upsilondieresis" unicode="&#x3cb;" horiz-adv-x="1294" 
d="M715 1276v305h327v-305h-327zM199 1276v305h327v-305h-327zM109 1135h385v-611q0 -117 44.5 -179t123.5 -62q95 0 134.5 85.5t39.5 245.5q0 235 -88 521h385q88 -269 88 -525q0 -307 -141 -471t-431 -164q-258 0 -399 133t-141 388v639z" />
    <glyph glyph-name="omicrontonos" unicode="&#x3cc;" horiz-adv-x="1292" 
d="M786 1241l-247 16l75 467h365v-4zM647 -25q-129 0 -236.5 38.5t-186.5 111.5t-123 186t-44 256t44 256t123 186t186.5 111.5t236.5 38.5q172 0 303.5 -66t208 -201t76.5 -325t-76.5 -325t-208 -201t-303.5 -66zM647 283q91 0 143 73t52 211t-52 211.5t-143 73.5
q-92 0 -144 -73t-52 -212t52 -211.5t144 -72.5z" />
    <glyph glyph-name="upsilontonos" unicode="&#x3cd;" horiz-adv-x="1294" 
d="M733 1241l-248 16l76 467h365v-4zM109 1135h385v-611q0 -117 44.5 -179t123.5 -62q95 0 134.5 85.5t39.5 245.5q0 235 -88 521h385q88 -269 88 -525q0 -307 -141 -471t-431 -164q-258 0 -399 133t-141 388v639z" />
    <glyph glyph-name="omegatonos" unicode="&#x3ce;" horiz-adv-x="1869" 
d="M1069 1241l-248 16l76 467h365v-4zM1806 522q0 -261 -131.5 -404t-347.5 -143q-136 0 -237 58t-156 170q-54 -112 -154.5 -170t-236.5 -58q-217 0 -349.5 143.5t-132.5 403.5q0 189 69.5 351.5t170.5 261.5l424 -21q-266 -269 -266 -571q0 -230 143 -230q81 0 115.5 76.5
t34.5 239.5v254h366v-254q0 -163 34 -239.5t114 -76.5q145 0 145 230q0 302 -266 571l424 21q100 -98 168.5 -260.5t68.5 -352.5z" />
    <glyph glyph-name="uni0400" unicode="&#x400;" horiz-adv-x="1349" 
d="M748 1618l-476 283l336 155l361 -336zM1255 340v-340h-1110v1520h1094v-336h-688v-242h606v-328h-606v-274h704z" />
    <glyph glyph-name="uni0401" unicode="&#x401;" horiz-adv-x="1349" 
d="M799 1661v307h327v-307h-327zM258 1661v307h328v-307h-328zM1255 340v-340h-1110v1520h1094v-336h-688v-242h606v-328h-606v-274h704z" />
    <glyph glyph-name="uni0402" unicode="&#x402;" horiz-adv-x="1769" 
d="M1710 461q0 -110 -32 -197t-83 -140.5t-119 -89t-134 -49.5t-134 -14q-55 0 -122.5 8.5t-102.5 20.5l16 319q42 -22 125 -22q68 0 117 34.5t49 117.5q0 86 -59.5 123.5t-179.5 37.5q-114 0 -217 -28v-582h-408v1184h-399v336h1288v-336h-481v-264q137 28 290 28
q289 0 437.5 -125t148.5 -362z" />
    <glyph glyph-name="uni0403" unicode="&#x403;" horiz-adv-x="1230" 
d="M631 1618l-221 102l360 336l336 -155zM1204 1174h-653v-1174h-406v1520h1059v-346z" />
    <glyph glyph-name="uni0404" unicode="&#x404;" horiz-adv-x="1443" 
d="M1368 98q-93 -60 -226 -93.5t-286 -33.5q-376 0 -577 204.5t-201 584.5q0 376 198 582t586 206q151 0 283.5 -31t214.5 -87l-82 -353q-152 121 -383 121q-320 0 -391 -258h618v-326h-624q61 -292 395 -292q224 0 410 135z" />
    <glyph glyph-name="uni0405" unicode="&#x405;" horiz-adv-x="1339" 
d="M70 113l77 364q100 -71 232 -116.5t280 -45.5q95 0 142 27t47 86q0 62 -52.5 90.5t-205.5 67.5q-56 15 -92.5 25.5t-92.5 32t-92.5 44t-79.5 59.5t-68 79.5t-42 103t-17 131.5q0 223 154 355t451 132q138 0 270 -29t225 -81l-69 -365q-86 62 -198 96.5t-226 34.5
q-187 0 -187 -110q0 -58 47.5 -84.5t200.5 -63.5q44 -11 76 -19.5t76.5 -22.5t76.5 -29t70 -37t65 -47t54 -59t43.5 -73t26.5 -89t10 -107q0 -231 -156 -361.5t-463 -130.5q-164 0 -317.5 38t-265.5 104z" />
    <glyph glyph-name="uni0406" unicode="&#x406;" horiz-adv-x="696" 
d="M145 0v1520h406v-1520h-406z" />
    <glyph glyph-name="uni0407" unicode="&#x407;" horiz-adv-x="696" 
d="M434 1661v307h328v-307h-328zM-66 1661v307h328v-307h-328zM145 0v1520h406v-1520h-406z" />
    <glyph glyph-name="uni0408" unicode="&#x408;" horiz-adv-x="964" 
d="M0 10l16 350q85 -38 203 -38q108 0 156.5 62t48.5 222v914h405v-985q0 -296 -141 -430t-412 -134q-164 0 -276 39z" />
    <glyph glyph-name="uni0409" unicode="&#x409;" horiz-adv-x="2387" 
d="M1470 1520v-529h252q611 0 611 -491q0 -133 -45.5 -231.5t-130 -156t-194.5 -85t-249 -27.5h-649v1180h-231q-27 -180 -50 -311.5t-51.5 -255.5t-57.5 -208.5t-67 -159t-81 -119.5t-99 -78t-121.5 -46.5t-148.5 -13.5q-80 0 -150 12v342q28 -4 68 -4q46 0 81.5 17
t66.5 50.5t57.5 101t50.5 150t49 217t49 282t55 364.5h985zM1690 664h-220v-332h216q108 0 166.5 36t58.5 130q0 90 -55.5 128t-165.5 38z" />
    <glyph glyph-name="uni040A" unicode="&#x40a;" horiz-adv-x="2392" 
d="M1477 1520v-529h252q608 0 608 -491q0 -133 -45.5 -231.5t-129.5 -156t-193.5 -85t-248.5 -27.5h-651v606h-518v-606h-406v1520h406v-566h518v566h408zM1694 664h-217v-332h213q110 0 168.5 36t58.5 130q0 90 -56.5 128t-166.5 38z" />
    <glyph glyph-name="uni040B" unicode="&#x40b;" horiz-adv-x="1777" 
d="M834 535v-535h-408v1184h-399v336h1288v-336h-481v-299q168 67 344 67q241 0 366 -127.5t125 -349.5v-475h-407v379q0 112 -48.5 157.5t-158.5 45.5q-142 0 -221 -47z" />
    <glyph glyph-name="uni040C" unicode="&#x40c;" horiz-adv-x="1593" 
d="M735 1618l-221 102l360 336l336 -155zM145 1520h406v-664l532 664h516v-4l-657 -719l664 -793v-4h-523l-532 672v-672h-406v1520z" />
    <glyph glyph-name="uni040D" unicode="&#x40d;" horiz-adv-x="1656" 
d="M891 1618l-475 283l336 155l360 -336zM1116 0v889l-588 -889h-383v1520h396v-889l587 889h383v-1520h-395z" />
    <glyph glyph-name="uni040E" unicode="&#x40e;" horiz-adv-x="1499" 
d="M299 1987l303 12q0 -75 46.5 -115.5t121.5 -40.5t121.5 40.5t46.5 115.5l303 -12q-6 -183 -134.5 -275t-336.5 -92t-336.5 92t-134.5 275zM1073 469q-51 -117 -112 -205.5t-123 -143.5t-135 -89t-142 -47t-149 -13q-161 0 -279 39l27 340q74 -28 186 -28q78 0 124.5 24.5
t84.5 87.5l-549 1086h477l316 -754l266 754h463z" />
    <glyph glyph-name="uni040F" unicode="&#x40f;" horiz-adv-x="1605" 
d="M1460 0h-477v-428h-360v428h-478v1520h406v-1180h504v1180h405v-1520z" />
    <glyph glyph-name="uni0410" unicode="&#x410;" horiz-adv-x="1617" 
d="M1159 0l-84 281h-543l-83 -281h-445l539 1520h534l537 -1520h-455zM633 608h342l-170 570z" />
    <glyph glyph-name="uni0411" unicode="&#x411;" horiz-adv-x="1490" 
d="M1286 1194h-735v-250h287q585 0 585 -467q0 -127 -43 -220t-123.5 -148.5t-186 -82t-239.5 -26.5h-686v1520h1141v-326zM797 635h-246v-309h244q100 0 153 33t53 120q0 84 -50.5 120t-153.5 36z" />
    <glyph glyph-name="uni0412" unicode="&#x412;" horiz-adv-x="1538" 
d="M1460 422q0 -95 -32 -169t-85.5 -121t-128.5 -77t-154 -42.5t-169 -12.5h-746v1520h727q256 0 392.5 -101.5t136.5 -292.5q0 -260 -260 -335q319 -70 319 -369zM809 1194h-274v-289h272q82 0 128 33.5t46 114.5q0 79 -43 110t-129 31zM535 631v-305h309q93 0 143.5 33
t50.5 120q0 83 -48 117.5t-140 34.5h-315z" />
    <glyph glyph-name="uni0413" unicode="&#x413;" horiz-adv-x="1230" 
d="M1204 1174h-653v-1174h-406v1520h1059v-346z" />
    <glyph glyph-name="uni0414" unicode="&#x414;" horiz-adv-x="1730" 
d="M23 -406v746h81q38 33 75.5 85t81.5 148t81.5 221t73 312.5t59.5 413.5h1000v-1180h200v-746h-360v406h-930v-406h-362zM569 340h506v840h-260q-66 -531 -246 -840z" />
    <glyph glyph-name="uni0415" unicode="&#x415;" horiz-adv-x="1349" 
d="M1255 340v-340h-1110v1520h1094v-336h-688v-242h606v-328h-606v-274h704z" />
    <glyph glyph-name="uni0416" unicode="&#x416;" horiz-adv-x="2326" 
d="M963 1520h399v-664l440 664h512v-4l-565 -725l573 -787v-4h-520l-440 672v-672h-399v672l-439 -672h-520v4l571 778l-565 734v4h512l441 -664v664z" />
    <glyph glyph-name="uni0417" unicode="&#x417;" horiz-adv-x="1378" 
d="M1300 428q0 -223 -173 -340t-486 -117q-342 0 -571 127l59 361q195 -137 469 -137q134 0 198 34.5t64 114.5q0 67 -57.5 101t-206.5 34h-254v326h248q248 0 248 139q0 63 -55 95t-177 32q-247 0 -416 -119l-84 351q115 59 269 88.5t305 29.5q296 0 447 -104t151 -293
q0 -136 -77.5 -227t-219.5 -131q319 -70 319 -365z" />
    <glyph glyph-name="uni0418" unicode="&#x418;" horiz-adv-x="1656" 
d="M1116 0v889l-588 -889h-383v1520h396v-889l587 889h383v-1520h-395z" />
    <glyph glyph-name="uni0419" unicode="&#x419;" horiz-adv-x="1656" 
d="M358 1987l304 12q0 -75 46 -115.5t121 -40.5t121.5 40.5t46.5 115.5l303 -12q-6 -183 -134.5 -275t-336.5 -92t-336.5 92t-134.5 275zM1116 0v889l-588 -889h-383v1520h396v-889l587 889h383v-1520h-395z" />
    <glyph glyph-name="uni041A" unicode="&#x41a;" horiz-adv-x="1593" 
d="M145 1520h406v-664l532 664h516v-4l-657 -719l664 -793v-4h-523l-532 672v-672h-406v1520z" />
    <glyph glyph-name="uni041B" unicode="&#x41b;" horiz-adv-x="1619" 
d="M1069 0v1180h-235q-27 -180 -50 -311.5t-51.5 -255.5t-57.5 -208.5t-67 -159t-81 -119.5t-99 -78t-121.5 -46.5t-148.5 -13.5q-80 0 -150 12v342q28 -4 68 -4q46 0 81.5 17t66.5 50.5t57.5 101t50.5 150t49 217t49 282t55 364.5h990v-1520h-406z" />
    <glyph glyph-name="uni041C" unicode="&#x41c;" horiz-adv-x="2119" 
d="M907 0l-385 1055v-1055h-377v1520h566l350 -957l348 957h565v-1520h-389v1061l-387 -1061h-291z" />
    <glyph glyph-name="uni041D" unicode="&#x41d;" horiz-adv-x="1628" 
d="M1077 0v604h-526v-604h-406v1520h406v-566h526v566h406v-1520h-406z" />
    <glyph glyph-name="uni041E" unicode="&#x41e;" horiz-adv-x="1669" 
d="M834 -29q-343 0 -547.5 211t-204.5 578t204.5 577.5t547.5 210.5t548 -210.5t205 -577.5t-205 -578t-548 -211zM834 326q151 0 236 114t85 320t-85 320t-236 114q-150 0 -235 -114t-85 -320t85 -320t235 -114z" />
    <glyph glyph-name="uni041F" unicode="&#x41f;" horiz-adv-x="1605" 
d="M1055 0v1180h-504v-1180h-406v1520h1315v-1520h-405z" />
    <glyph glyph-name="uni0420" unicode="&#x420;" horiz-adv-x="1466" 
d="M551 436v-436h-406v1520h643q308 0 466.5 -138t158.5 -401q0 -125 -37 -222t-96.5 -157t-144 -98t-171.5 -53t-186 -15h-227zM750 1188h-199v-420h194q246 0 246 207q0 213 -241 213z" />
    <glyph glyph-name="uni0421" unicode="&#x421;" horiz-adv-x="1437" 
d="M1368 123q-196 -152 -506 -152q-362 0 -571 209.5t-209 579.5q0 374 211.5 581t576.5 207q288 0 478 -135l-74 -366q-144 147 -363 147q-190 0 -293.5 -114.5t-103.5 -317.5q0 -212 108.5 -324t288.5 -112q115 0 214 42.5t165 106.5z" />
    <glyph glyph-name="uni0422" unicode="&#x422;" horiz-adv-x="1341" 
d="M1315 1184h-441v-1184h-407v1184h-440v336h1288v-336z" />
    <glyph glyph-name="uni0423" unicode="&#x423;" horiz-adv-x="1499" 
d="M1073 469q-52 -118 -113 -206.5t-123 -143.5t-134.5 -88.5t-141.5 -46.5t-149 -13q-161 0 -279 39l27 340q74 -28 186 -28q78 0 124.5 24.5t84.5 87.5l-549 1086h477l316 -754l266 754h463z" />
    <glyph glyph-name="uni0424" unicode="&#x424;" horiz-adv-x="2000" 
d="M1225 168h-29v-205h-391v205h-27q-332 0 -520 155.5t-188 440.5t188 440.5t520 155.5h27v196h391v-196h29q331 0 518.5 -155.5t187.5 -440.5t-187.5 -440.5t-518.5 -155.5zM1229 1038h-33v-549h33q124 0 201 71t77 204t-77 203.5t-201 70.5zM774 489h31v549h-31
q-125 0 -202.5 -70.5t-77.5 -203.5t77.5 -204t202.5 -71z" />
    <glyph glyph-name="uni0425" unicode="&#x425;" horiz-adv-x="1546" 
d="M1034 0l-274 473l-268 -473h-494l518 764l-508 756h516l260 -459l258 459h492l-508 -744l522 -776h-514z" />
    <glyph glyph-name="uni0426" unicode="&#x426;" horiz-adv-x="1699" 
d="M1645 340v-746h-361v406h-1139v1520h406v-1180h487v1180h406v-1180h201z" />
    <glyph glyph-name="uni0427" unicode="&#x427;" horiz-adv-x="1519" 
d="M1374 1520v-1520h-405v518q-163 -65 -346 -65q-256 0 -387.5 133t-131.5 368v566h408v-469q0 -128 51.5 -178t173.5 -50q144 0 232 43v654h405z" />
    <glyph glyph-name="uni0428" unicode="&#x428;" horiz-adv-x="2246" 
d="M2101 1520v-1520h-1956v1520h406v-1180h369v1180h407v-1180h369v1180h405z" />
    <glyph glyph-name="uni0429" unicode="&#x429;" horiz-adv-x="2357" 
d="M2302 340v-746h-360v406h-1797v1520h406v-1180h369v1180h407v-1180h369v1180h405v-1180h201z" />
    <glyph glyph-name="uni042A" unicode="&#x42a;" horiz-adv-x="1753" 
d="M827 1520v-514h254q617 0 617 -498q0 -136 -45.5 -235.5t-130 -158t-196 -86.5t-253.5 -28h-653v1184h-408v336h815zM1049 680h-222v-348h217q114 0 174 37.5t60 136.5q0 94 -57.5 134t-171.5 40z" />
    <glyph glyph-name="uni042B" unicode="&#x42b;" horiz-adv-x="2117" 
d="M551 1520v-514h229q619 0 619 -498q0 -136 -45.5 -235.5t-131 -158t-197 -86.5t-253.5 -28h-627v1520h406zM1565 0v1520h407v-1520h-407zM748 680h-197v-348h192q114 0 174 37.5t60 136.5q0 94 -57.5 134t-171.5 40z" />
    <glyph glyph-name="uni042C" unicode="&#x42c;" horiz-adv-x="1486" 
d="M551 1520v-514h264q617 0 617 -498q0 -136 -45.5 -235.5t-130 -158t-196 -86.5t-253.5 -28h-662v1520h406zM782 680h-231v-348h227q114 0 174 37.5t60 136.5q0 94 -58 134t-172 40z" />
    <glyph glyph-name="uni042D" unicode="&#x42d;" horiz-adv-x="1443" 
d="M1362 772q0 -388 -200.5 -594.5t-577.5 -206.5q-153 0 -286 33.5t-224 93.5l59 361q188 -137 418 -137q331 0 391 292h-623v326h619q-62 258 -373 258q-114 0 -220.5 -31.5t-178.5 -89.5l-84 353q79 55 226.5 86.5t301.5 31.5q376 0 564 -202.5t188 -573.5z" />
    <glyph glyph-name="uni042E" unicode="&#x42e;" horiz-adv-x="2297" 
d="M2216 760q0 -369 -192.5 -579t-526.5 -210q-296 0 -482.5 167t-226.5 466h-237v-604h-406v1520h406v-566h244q47 282 231 438t471 156q334 0 526.5 -209.5t192.5 -578.5zM1495 326q137 0 214 114t77 320t-77 320t-214 114t-212 -113.5t-75 -320.5t75 -320.5t212 -113.5z
" />
    <glyph glyph-name="uni042F" unicode="&#x42f;" horiz-adv-x="1556" 
d="M1004 469h-201l-281 -469h-506l387 530q-126 63 -199 179.5t-73 281.5q0 168 77 289t209 180.5t304 59.5h690v-1520h-407v469zM1004 791v397h-226q-225 0 -225 -197q0 -200 221 -200h230z" />
    <glyph glyph-name="uni0430" unicode="&#x430;" horiz-adv-x="1253" 
d="M772 0l-4 131q-123 -156 -338 -156q-171 0 -270 93t-99 262q0 191 136.5 284t420.5 93h138v26q0 68 -43 100.5t-154 32.5q-216 0 -373 -108l-57 293q186 108 487 108q278 0 401.5 -104.5t123.5 -302.5v-752h-369zM561 256q67 0 119 31t76 82v131h-78q-127 0 -186.5 -31
t-59.5 -100q0 -113 129 -113z" />
    <glyph glyph-name="uni0431" unicode="&#x431;" horiz-adv-x="1304" 
d="M1247 563q0 -171 -68 -302.5t-205 -208.5t-327 -77q-287 0 -432 178.5t-145 530.5v4q0 231 37.5 390t120 260.5t198.5 153t287 71.5l465 53v-338l-482 -55q-149 -17 -219.5 -91t-83.5 -229q136 168 379 168q220 0 347.5 -136.5t127.5 -371.5zM463 592q0 -145 47.5 -227
t142.5 -82q96 0 148.5 78t52.5 196q0 111 -47.5 169t-134.5 58q-67 0 -121.5 -31t-85.5 -85q-2 -29 -2 -76z" />
    <glyph glyph-name="uni0432" unicode="&#x432;" horiz-adv-x="1300" 
d="M1237 313q0 -69 -21.5 -123t-58.5 -89.5t-89.5 -58.5t-110 -32.5t-123.5 -9.5h-717v1135h706q196 0 291.5 -73.5t95.5 -211.5q0 -209 -206 -260q116 -24 174.5 -90.5t58.5 -186.5zM700 864h-213v-184h211q123 0 123 94q0 90 -121 90zM487 467v-193h224q133 0 133 97
q0 96 -131 96h-226z" />
    <glyph glyph-name="uni0433" unicode="&#x433;" horiz-adv-x="1024" 
d="M983 813h-481v-813h-385v1135h866v-322z" />
    <glyph glyph-name="uni0434" unicode="&#x434;" horiz-adv-x="1497" 
d="M20 -406v719h82q36 28 71.5 81.5t76.5 146t77.5 246t61.5 348.5h873v-822h188v-719h-350v406h-729v-406h-351zM528 313h355v508h-187q-49 -309 -168 -508z" />
    <glyph glyph-name="uni0435" unicode="&#x435;" horiz-adv-x="1261" 
d="M1180 86q-199 -111 -482 -111q-317 0 -479 149.5t-162 434.5q0 284 156.5 442t433.5 158q121 0 216 -29.5t156.5 -80t101.5 -122.5t56.5 -151t16.5 -172v-141h-745q27 -195 294 -195q203 0 379 111zM657 895q-88 0 -146 -53.5t-65 -159.5h381v16q0 197 -170 197z" />
    <glyph glyph-name="uni0436" unicode="&#x436;" horiz-adv-x="1937" 
d="M782 1135h373v-490l315 490h467v-5l-421 -540l434 -586v-4h-475l-320 496v-496h-373v496l-321 -496h-475v4l428 580l-418 546v5h471l315 -490v490z" />
    <glyph glyph-name="uni0437" unicode="&#x437;" horiz-adv-x="1171" 
d="M1102 324q0 -173 -143.5 -261t-399.5 -88q-286 0 -493 99l63 301q79 -54 166 -82.5t205 -28.5q98 0 144 23t46 73q0 43 -40.5 64.5t-155.5 21.5h-220v254h218q180 0 180 86q0 84 -164 84q-91 0 -183 -25.5t-165 -78.5l-70 299q189 94 498 94q244 0 369.5 -77.5
t125.5 -225.5q0 -99 -56.5 -167t-162.5 -97q238 -55 238 -268z" />
    <glyph glyph-name="uni0438" unicode="&#x438;" horiz-adv-x="1376" 
d="M885 0v614l-402 -614h-366v1135h375v-615l401 615h367v-1135h-375z" />
    <glyph glyph-name="uni0439" unicode="&#x439;" horiz-adv-x="1376" 
d="M246 1663l301 12q2 -100 34.5 -148t106.5 -48t106.5 48t34.5 148l301 -12q0 -104 -34 -183.5t-94.5 -128t-139.5 -72.5t-174 -24t-174 24t-139.5 72.5t-94.5 128t-34 183.5zM885 0v614l-402 -614h-366v1135h375v-615l401 615h367v-1135h-375z" />
    <glyph glyph-name="uni043A" unicode="&#x43a;" horiz-adv-x="1314" 
d="M117 1135h385v-484l356 484h475v-5l-467 -532l482 -594v-4h-476l-370 489v-489h-385v1135z" />
    <glyph glyph-name="uni043B" unicode="&#x43b;" horiz-adv-x="1366" 
d="M864 0v821h-172q-19 -122 -35 -209.5t-37 -174t-43 -145t-53 -113t-67 -87.5t-83.5 -58t-105 -35.5t-129.5 -10.5q-64 0 -114 12v324q14 -7 45 -7q41 0 72.5 15.5t59 56.5t48.5 98t42.5 154.5t41 211t43.5 282.5h872v-1135h-385z" />
    <glyph glyph-name="uni043C" unicode="&#x43c;" horiz-adv-x="1736" 
d="M735 0l-266 729v-729h-352v1135h510l241 -662l242 662h510v-1135h-360v727l-265 -727h-260z" />
    <glyph glyph-name="uni043D" unicode="&#x43d;" horiz-adv-x="1353" 
d="M852 0v418h-350v-418h-385v1135h385v-400h350v400h385v-1135h-385z" />
    <glyph glyph-name="uni043E" unicode="&#x43e;" horiz-adv-x="1292" 
d="M647 -25q-129 0 -236.5 38.5t-186.5 111.5t-123 186t-44 256t44 256t123 186t186.5 111.5t236.5 38.5q172 0 303.5 -66t208 -201t76.5 -325t-76.5 -325t-208 -201t-303.5 -66zM647 283q91 0 143 73t52 211t-52 211.5t-143 73.5q-92 0 -144 -73t-52 -212t52 -211.5
t144 -72.5z" />
    <glyph glyph-name="uni043F" unicode="&#x43f;" horiz-adv-x="1335" 
d="M836 0v821h-334v-821h-385v1135h1104v-1135h-385z" />
    <glyph glyph-name="uni0440" unicode="&#x440;" horiz-adv-x="1363" 
d="M799 -25q-176 0 -297 107v-510h-385v1563h368l4 -156q127 180 353 180q213 0 337 -153.5t124 -425.5q0 -285 -137.5 -445t-366.5 -160zM502 717v-359q31 -35 79.5 -55t102.5 -20q106 0 166.5 76.5t60.5 209.5q0 128 -56 196.5t-155 68.5q-67 0 -119 -30.5t-79 -86.5z" />
    <glyph glyph-name="uni0441" unicode="&#x441;" horiz-adv-x="1087" 
d="M1040 92q-65 -49 -172.5 -83t-236.5 -34q-269 0 -421.5 155.5t-152.5 430.5q0 281 159 439.5t431 158.5q237 0 389 -112l-75 -302q-43 45 -109.5 74t-144.5 29q-121 0 -188.5 -74t-67.5 -205q0 -133 69.5 -207.5t192.5 -74.5q138 0 260 104z" />
    <glyph glyph-name="uni0442" unicode="&#x442;" horiz-adv-x="1128" 
d="M1087 821h-329v-821h-385v821h-332v314h1046v-314z" />
    <glyph glyph-name="uni0443" unicode="&#x443;" horiz-adv-x="1294" 
d="M879 12q-52 -141 -111 -236t-131 -149t-151 -76t-183 -22q-112 0 -231 35l30 311q85 -29 160 -29q74 0 116.5 27t76.5 94l-443 1168h437l217 -779l215 779h407z" />
    <glyph glyph-name="uni0444" unicode="&#x444;" horiz-adv-x="1765" 
d="M53 567q0 275 178 429.5t469 154.5v442h367v-442q291 0 469 -154.5t178 -429.5t-178 -429t-469 -154v-412h-367v412q-291 0 -469 154t-178 429zM700 276v582h-18q-113 0 -176.5 -75.5t-63.5 -215.5t63.5 -215.5t176.5 -75.5h18zM1083 858h-16v-582h16q114 0 178 75.5
t64 215.5t-64 215.5t-178 75.5z" />
    <glyph glyph-name="uni0445" unicode="&#x445;" horiz-adv-x="1292" 
d="M827 0l-188 328l-190 -328h-447v4l412 563l-404 563v5h463l180 -312l178 312h447v-5l-406 -544l418 -582v-4h-463z" />
    <glyph glyph-name="uni0446" unicode="&#x446;" horiz-adv-x="1456" 
d="M1409 313v-719h-350v406h-942v1135h385v-822h334v822h385v-822h188z" />
    <glyph glyph-name="uni0447" unicode="&#x447;" horiz-adv-x="1277" 
d="M1161 1135v-1135h-385v379q-138 -55 -309 -55q-190 0 -286.5 94.5t-96.5 273.5v443h385v-344q0 -82 34.5 -113t117.5 -31q95 0 155 29v459h385z" />
    <glyph glyph-name="uni0448" unicode="&#x448;" horiz-adv-x="1978" 
d="M1862 1135v-1135h-1745v1135h385v-822h295v822h385v-822h295v822h385z" />
    <glyph glyph-name="uni0449" unicode="&#x449;" horiz-adv-x="2097" 
d="M2050 313v-719h-350v406h-1583v1135h385v-822h295v822h385v-822h295v822h385v-822h188z" />
    <glyph glyph-name="uni044A" unicode="&#x44a;" horiz-adv-x="1497" 
d="M739 1135v-334h219q496 0 496 -395q0 -112 -40 -193.5t-112 -126.5t-157.5 -65.5t-190.5 -20.5h-600v821h-313v314h698zM895 535h-156v-254h154q38 0 65 4.5t52 17t38 39t13 66.5q0 70 -42.5 98.5t-123.5 28.5z" />
    <glyph glyph-name="uni044B" unicode="&#x44b;" horiz-adv-x="1822" 
d="M502 1135v-334h198q496 0 496 -395q0 -112 -40 -193.5t-112 -126.5t-157.5 -65.5t-190.5 -20.5h-579v1135h385zM1321 0v1135h385v-1135h-385zM637 535h-135v-254h133q38 0 65 4.5t52 17t38 39t13 66.5q0 69 -43 98t-123 29z" />
    <glyph glyph-name="uni044C" unicode="&#x44c;" horiz-adv-x="1267" 
d="M502 1135v-334h229q494 0 494 -395q0 -112 -40 -193.5t-111.5 -126.5t-157.5 -65.5t-191 -20.5h-608v1135h385zM668 535h-166v-254h162q30 0 52.5 2.5t45 10.5t37 21.5t23.5 37t9 55.5q0 69 -42.5 98t-120.5 29z" />
    <glyph glyph-name="uni044D" unicode="&#x44d;" horiz-adv-x="1183" 
d="M1126 573q0 -289 -166 -443.5t-468 -154.5q-127 0 -239.5 27t-186.5 74l63 299q55 -48 145.5 -79.5t190.5 -31.5q223 0 270 182h-467v256h465q-50 168 -266 168q-91 0 -179.5 -27.5t-144.5 -76.5l-69 299q65 44 186.5 69t247.5 25q302 0 460 -153.5t158 -432.5z" />
    <glyph glyph-name="uni044E" unicode="&#x44e;" horiz-adv-x="1886" 
d="M1829 567q0 -143 -43.5 -256t-120.5 -186t-181.5 -111.5t-228.5 -38.5q-219 0 -368.5 116t-188.5 333h-196v-424h-385v1135h385v-402h200q43 206 191.5 316t361.5 110q124 0 228.5 -38.5t181.5 -111.5t120.5 -186t43.5 -256zM1251 283q88 0 136.5 72.5t48.5 211.5
t-48.5 212t-136.5 73q-86 0 -134 -73t-48 -212t48 -211.5t134 -72.5z" />
    <glyph glyph-name="uni044F" unicode="&#x44f;" horiz-adv-x="1312" 
d="M811 346h-135l-195 -346h-454v4l282 387q-95 46 -150 135t-55 213q0 187 123.5 291.5t319.5 104.5h649v-1135h-385v346zM811 612v244h-176q-137 0 -137 -123q0 -60 35.5 -90.5t99.5 -30.5h178z" />
    <glyph glyph-name="uni0450" unicode="&#x450;" horiz-adv-x="1261" 
d="M596 1249l-346 406l348 69l240 -428zM1180 86q-199 -111 -482 -111q-317 0 -479 149.5t-162 434.5q0 284 156.5 442t433.5 158q121 0 216 -29.5t156.5 -80t101.5 -122.5t56.5 -151t16.5 -172v-141h-745q27 -195 294 -195q203 0 379 111zM657 895q-88 0 -146 -53.5
t-65 -159.5h381v16q0 197 -170 197z" />
    <glyph glyph-name="uni0451" unicode="&#x451;" horiz-adv-x="1261" 
d="M745 1276v305h328v-305h-328zM229 1276v305h328v-305h-328zM1180 86q-199 -111 -482 -111q-317 0 -479 149.5t-162 434.5q0 284 156.5 442t433.5 158q121 0 216 -29.5t156.5 -80t101.5 -122.5t56.5 -151t16.5 -172v-141h-745q27 -195 294 -195q203 0 379 111zM657 895
q-88 0 -146 -53.5t-65 -159.5h381v16q0 197 -170 197z" />
    <glyph glyph-name="uni0452" unicode="&#x452;" horiz-adv-x="1347" 
d="M723 -162q72 0 104.5 42t32.5 145v546q0 177 -145 177q-67 0 -119 -36t-80 -100v-612h-385v1202h-160v221h160v170h385v-170h352v-221h-352v-307q128 178 348 178q181 0 281 -110.5t100 -311.5v-594q0 -145 -31 -248.5t-92 -164t-141.5 -88t-187.5 -27.5q-125 0 -205 27
l16 303q46 -21 119 -21z" />
    <glyph glyph-name="uni0453" unicode="&#x453;" horiz-adv-x="1024" 
d="M578 1249l-242 47l239 428l349 -69zM983 813h-481v-813h-385v1135h866v-322z" />
    <glyph glyph-name="uni0454" unicode="&#x454;" horiz-adv-x="1183" 
d="M1118 76q-174 -101 -424 -101q-303 0 -470 153t-167 441q0 285 166.5 437.5t485.5 152.5q247 0 401 -94l-70 -299q-136 104 -313 104q-222 0 -276 -168h464v-256h-469q51 -182 283 -182q178 0 326 111z" />
    <glyph glyph-name="uni0455" unicode="&#x455;" horiz-adv-x="1105" 
d="M63 76l54 309q191 -127 409 -127q73 0 103 16.5t30 49.5q0 25 -18.5 41t-50.5 26.5t-96 27.5q-9 2 -13 3q-49 13 -79.5 22t-76.5 26.5t-75.5 35t-64 46t-53.5 61t-32.5 78.5t-13.5 100q0 174 127.5 271t380.5 97q243 0 407 -82l-55 -305q-71 46 -163 76.5t-181 30.5
q-129 0 -129 -68q0 -38 37 -55t152 -43q60 -14 106.5 -29t101.5 -44.5t91.5 -66.5t61 -96t24.5 -133q0 -181 -135.5 -275t-383.5 -94q-268 0 -465 101z" />
    <glyph glyph-name="uni0456" unicode="&#x456;" horiz-adv-x="626" 
d="M111 1276v305h405v-305h-405zM121 0v1135h385v-1135h-385z" />
    <glyph glyph-name="uni0457" unicode="&#x457;" horiz-adv-x="653" 
d="M381 1276v305h305v-305h-305zM-33 1276v305h307v-305h-307zM135 0v1135h385v-1135h-385z" />
    <glyph glyph-name="uni0458" unicode="&#x458;" horiz-adv-x="643" 
d="M127 1276v305h405v-305h-405zM-160 -440l27 307q48 -25 125 -25q76 0 110.5 44.5t34.5 154.5v1094h385v-1053q0 -151 -32.5 -259.5t-94.5 -172t-145 -92.5t-193 -29q-140 0 -217 31z" />
    <glyph glyph-name="uni0459" unicode="&#x459;" horiz-adv-x="1998" 
d="M1245 1135v-344h211q500 0 500 -388q0 -112 -40 -192.5t-112 -125.5t-158.5 -65t-193.5 -20h-592v821h-168q-19 -122 -35 -209.5t-37 -174t-43 -145t-53 -113t-67 -87.5t-83.5 -58t-105 -35.5t-129.5 -10.5q-64 0 -114 12v324q14 -7 45 -7q41 0 72.5 15.5t59 56.5
t48.5 98t42.5 154.5t41 211t43.5 282.5h868zM1399 524h-154v-243h150q80 0 125 25t45 95q0 67 -43 95t-123 28z" />
    <glyph glyph-name="uni045A" unicode="&#x45a;" horiz-adv-x="1986" 
d="M1233 1135v-344h211q500 0 500 -388q0 -112 -40 -192.5t-112 -125.5t-158.5 -65t-193.5 -20h-592v424h-346v-424h-385v1135h385v-394h346v394h385zM1386 524h-153v-243h149q80 0 125 25t45 95q0 67 -43 95t-123 28z" />
    <glyph glyph-name="uni045B" unicode="&#x45b;" horiz-adv-x="1347" 
d="M516 612v-612h-385v1202h-160v221h160v170h385v-170h352v-221h-352v-307q128 178 348 178q181 0 281 -110.5t100 -311.5v-651h-385v571q0 177 -145 177q-67 0 -119 -36t-80 -100z" />
    <glyph glyph-name="uni045C" unicode="&#x45c;" horiz-adv-x="1314" 
d="M684 1249l-242 47l240 428l348 -69zM117 1135h385v-484l356 484h475v-5l-467 -532l482 -594v-4h-476l-370 489v-489h-385v1135z" />
    <glyph glyph-name="uni045D" unicode="&#x45d;" horiz-adv-x="1376" 
d="M635 1249l-346 406l348 69l240 -428zM885 0v614l-402 -614h-366v1135h375v-615l401 615h367v-1135h-375z" />
    <glyph glyph-name="uni045E" unicode="&#x45e;" horiz-adv-x="1294" 
d="M215 1663l301 12q2 -100 34.5 -148t106.5 -48q75 0 107.5 48t34.5 148l301 -12q0 -138 -60 -231.5t-157.5 -135t-225.5 -41.5q-95 0 -174 24t-139.5 72.5t-94.5 128t-34 183.5zM879 12q-52 -141 -111 -236t-131 -149t-151 -76t-183 -22q-112 0 -231 35l30 311
q85 -29 160 -29q74 0 116.5 27t76.5 94l-443 1168h437l217 -779l215 779h407z" />
    <glyph glyph-name="uni045F" unicode="&#x45f;" horiz-adv-x="1339" 
d="M1223 0h-379v-428h-350v428h-377v1135h385v-822h336v822h385v-1135z" />
    <glyph glyph-name="uni0462" unicode="&#x462;" horiz-adv-x="1611" 
d="M1217 1110h-508v-176h260q579 0 579 -461q0 -127 -43 -219.5t-124 -147t-186 -80.5t-239 -26h-653v1110h-295v266h295v217h406v-217h508v-266zM922 625h-213v-299h211q100 0 153 31.5t53 117.5q0 83 -51 116.5t-153 33.5z" />
    <glyph glyph-name="uni0463" unicode="&#x463;" horiz-adv-x="1318" 
d="M922 901h-344v-141h221q473 0 473 -373q0 -86 -25.5 -154t-69 -111t-105.5 -71t-129.5 -39.5t-145.5 -11.5h-604v901h-187v234h187v385h385v-385h344v-234zM727 508h-149v-227h149q72 0 112 23t40 89q0 64 -39.5 89.5t-112.5 25.5z" />
    <glyph glyph-name="uni0472" unicode="&#x472;" horiz-adv-x="1669" 
d="M834 -29q-343 0 -547.5 211t-204.5 578t204.5 577.5t547.5 210.5t548 -210.5t205 -577.5t-205 -578t-548 -211zM834 1194q-130 0 -215.5 -74.5t-114.5 -212.5h659q-29 138 -114 212.5t-215 74.5zM834 326q135 0 221 78.5t112 226.5h-667q26 -147 113 -226t221 -79z" />
    <glyph glyph-name="uni0473" unicode="&#x473;" horiz-adv-x="1292" 
d="M647 -25q-129 0 -236.5 38.5t-186.5 111.5t-123 186t-44 256t44 256t123 186t186.5 111.5t236.5 38.5q172 0 303.5 -66t208 -201t76.5 -325t-76.5 -325t-208 -201t-303.5 -66zM647 860q-170 0 -207 -180h412q-37 180 -205 180zM647 274q173 0 207 193h-416
q34 -193 209 -193z" />
    <glyph glyph-name="uni0474" unicode="&#x474;" horiz-adv-x="1714" 
d="M1337 967l-315 -967h-481l-535 1520h461l317 -1049l136 500q47 173 103 287.5t126 177.5t146 87.5t178 24.5q162 0 247 -49l-49 -362q-60 34 -137 34q-75 0 -116.5 -44t-80.5 -160z" />
    <glyph glyph-name="uni0475" unicode="&#x475;" horiz-adv-x="1366" 
d="M1085 674l-223 -674h-446l-408 1135h428l211 -768l96 358q34 127 77 212.5t98.5 133.5t117 68t142.5 20q131 0 202 -35l-32 -331q-46 24 -105 24q-62 0 -96.5 -32t-61.5 -111z" />
    <glyph glyph-name="uni0490" unicode="&#x490;" horiz-adv-x="1230" 
d="M1204 1174h-653v-1174h-406v1520h699l6 376h354v-722z" />
    <glyph glyph-name="uni0491" unicode="&#x491;" horiz-adv-x="1042" 
d="M1001 813h-499v-813h-385v1135h534l8 376h342v-698z" />
    <glyph glyph-name="uni0492" unicode="&#x492;" horiz-adv-x="1306" 
d="M1034 569h-405v-569h-406v569h-203v303h203v648h1059v-346h-653v-302h405v-303z" />
    <glyph glyph-name="uni0493" unicode="&#x493;" horiz-adv-x="1110" 
d="M901 373h-313v-373h-385v373h-172v258h172v504h866v-322h-481v-182h313v-258z" />
    <glyph glyph-name="uni0496" unicode="&#x496;" horiz-adv-x="2424" 
d="M963 1520h399v-664l440 664h512v-4l-565 -725l328 -451h313v-746h-360v406h-228l-440 672v-672h-399v672l-439 -672h-520v4l571 778l-565 734v4h512l441 -664v664z" />
    <glyph glyph-name="uni0497" unicode="&#x497;" horiz-adv-x="2031" 
d="M782 1135h373v-490l315 490h467v-5l-421 -540l204 -277h291v-719h-348v406h-188l-320 496v-496h-373v496l-321 -496h-475v4l428 580l-418 546v5h471l315 -490v490z" />
    <glyph glyph-name="uni0498" unicode="&#x498;" horiz-adv-x="1378" 
d="M948 -244q0 -129 -84.5 -196.5t-238.5 -67.5q-140 0 -230 37l51 266q49 -28 123 -28q42 0 65 21t23 62q0 65 -67 121q-311 12 -520 127l59 361q195 -137 469 -137q134 0 198 34.5t64 114.5q0 67 -57.5 101t-206.5 34h-254v326h248q248 0 248 139q0 63 -55 95t-177 32
q-247 0 -416 -119l-84 351q115 59 269 88.5t305 29.5q296 0 447 -104t151 -293q0 -136 -77.5 -227t-219.5 -131q319 -70 319 -365q0 -186 -121.5 -298.5t-347.5 -145.5q60 -52 88.5 -104t28.5 -124z" />
    <glyph glyph-name="uni0499" unicode="&#x499;" horiz-adv-x="1171" 
d="M858 -244q0 -129 -84.5 -196.5t-238.5 -67.5q-140 0 -230 37l51 266q49 -28 123 -28q42 0 65 21t23 62q0 68 -71 127q-252 11 -430 97l63 301q79 -54 166 -82.5t205 -28.5q98 0 144 23t46 73q0 43 -40.5 64.5t-155.5 21.5h-220v254h218q180 0 180 86q0 84 -164 84
q-91 0 -183 -25.5t-165 -78.5l-70 299q189 94 498 94q244 0 369.5 -77.5t125.5 -225.5q0 -99 -56.5 -167t-162.5 -97q238 -55 238 -268q0 -140 -95.5 -224.5t-269.5 -111.5q63 -55 92 -107t29 -125z" />
    <glyph glyph-name="uni049A" unicode="&#x49a;" horiz-adv-x="1708" 
d="M145 1520h406v-664l532 664h516v-4l-657 -719l383 -457h346v-746h-360v406h-228l-532 672v-672h-406v1520z" />
    <glyph glyph-name="uni049B" unicode="&#x49b;" horiz-adv-x="1427" 
d="M117 1135h385v-484l356 484h475v-5l-467 -532l232 -285h311v-719h-350v406h-187l-370 489v-489h-385v1135z" />
    <glyph glyph-name="uni04A0" unicode="&#x4a0;" horiz-adv-x="1867" 
d="M825 1520v-664l533 664h516v-4l-657 -719l663 -793v-4h-522l-533 672v-672h-405v1184h-408v336h813z" />
    <glyph glyph-name="uni04A1" unicode="&#x4a1;" horiz-adv-x="1554" 
d="M41 1135h698v-484l357 484h475v-5l-467 -532l481 -594v-4h-475l-371 489v-489h-385v821h-313v314z" />
    <glyph glyph-name="uni04A2" unicode="&#x4a2;" horiz-adv-x="1740" 
d="M1683 340v-746h-360v406h-246v604h-526v-604h-406v1520h406v-566h526v566h406v-1180h200z" />
    <glyph glyph-name="uni04A3" unicode="&#x4a3;" horiz-adv-x="1472" 
d="M1425 313v-719h-350v406h-223v418h-350v-418h-385v1135h385v-400h350v400h385v-822h188z" />
    <glyph glyph-name="uni04AA" unicode="&#x4aa;" horiz-adv-x="1437" 
d="M1085 -244q0 -129 -84.5 -196.5t-238.5 -67.5q-140 0 -230 37l52 266q49 -28 123 -28q42 0 65 21t23 62q0 71 -78 132q-298 40 -466.5 243.5t-168.5 534.5q0 374 211.5 581t576.5 207q288 0 478 -135l-74 -366q-144 147 -363 147q-190 0 -293.5 -114.5t-103.5 -317.5
q0 -212 108.5 -324t288.5 -112q115 0 214 42.5t165 106.5l78 -352q-158 -122 -391 -146q56 -49 82 -100t26 -121z" />
    <glyph glyph-name="uni04AB" unicode="&#x4ab;" horiz-adv-x="1087" 
d="M864 -244q0 -129 -84.5 -196.5t-238.5 -67.5q-140 0 -230 37l51 266q49 -28 123 -28q42 0 65 21t23 62q0 75 -88 140q-203 38 -315.5 187.5t-112.5 383.5q0 281 159 439.5t431 158.5q237 0 389 -112l-75 -302q-43 45 -109.5 74t-144.5 29q-121 0 -188.5 -74t-67.5 -205
q0 -133 69.5 -207.5t192.5 -74.5q138 0 260 104l67 -299q-103 -82 -290 -108q59 -52 86.5 -104t27.5 -124z" />
    <glyph glyph-name="uni04AE" unicode="&#x4ae;" horiz-adv-x="1460" 
d="M1479 1520l-545 -992v-528h-408v526l-544 994h479l276 -607l277 607h465z" />
    <glyph glyph-name="uni04AF" unicode="&#x4af;" horiz-adv-x="1294" 
d="M1284 1135l-444 -1086v-477h-385v477l-443 1086h432l218 -713l215 713h407z" />
    <glyph glyph-name="uni04B0" unicode="&#x4b0;" horiz-adv-x="1460" 
d="M1272 315h-338v-315h-408v315h-338v303h287l-493 902h479l276 -607l277 607h465l-496 -902h289v-303z" />
    <glyph glyph-name="uni04B1" unicode="&#x4b1;" horiz-adv-x="1294" 
d="M1120 -137h-280v-291h-385v291h-281v227h264l-426 1045h432l218 -713l215 713h407l-428 -1045h264v-227z" />
    <glyph glyph-name="uni04B2" unicode="&#x4b2;" horiz-adv-x="1658" 
d="M1622 340v-746h-360v406h-228l-274 473l-268 -473h-494l518 764l-508 756h516l260 -459l258 459h492l-508 -744l293 -436h303z" />
    <glyph glyph-name="uni04B3" unicode="&#x4b3;" horiz-adv-x="1382" 
d="M1364 313v-719h-350v406h-187l-188 328l-190 -328h-447v4l412 563l-404 563v5h463l180 -312l178 312h447v-5l-406 -544l195 -273h297z" />
    <glyph glyph-name="uni04B6" unicode="&#x4b6;" horiz-adv-x="1636" 
d="M1575 340v-746h-361v406h-245v518q-163 -65 -346 -65q-256 0 -387.5 133t-131.5 368v566h408v-469q0 -128 51.5 -178t173.5 -50q144 0 232 43v654h405v-1180h201z" />
    <glyph glyph-name="uni04B7" unicode="&#x4b7;" horiz-adv-x="1396" 
d="M1350 313v-719h-351v406h-223v379q-138 -55 -309 -55q-190 0 -286.5 94.5t-96.5 273.5v443h385v-344q0 -82 34.5 -113t117.5 -31q95 0 155 29v459h385v-822h189z" />
    <glyph glyph-name="uni04BA" unicode="&#x4ba;" horiz-adv-x="1519" 
d="M551 653v-653h-406v1520h406v-519q173 66 354 66q255 0 382.5 -133t127.5 -369v-565h-407v469q0 129 -51 178t-175 49q-150 0 -231 -43z" />
    <glyph glyph-name="uni04BB" unicode="&#x4bb;" horiz-adv-x="1333" 
d="M502 698v-698h-385v1593h385v-612q124 178 344 178q180 0 278.5 -110.5t98.5 -311.5v-737h-385v657q0 177 -144 177q-64 0 -115 -36.5t-77 -99.5z" />
    <glyph glyph-name="uni04C0" unicode="&#x4c0;" horiz-adv-x="696" 
d="M145 0v1520h406v-1520h-406z" />
    <glyph glyph-name="uni04C1" unicode="&#x4c1;" horiz-adv-x="2326" 
d="M692 1987l303 12q0 -75 46.5 -115.5t121.5 -40.5t121.5 40.5t46.5 115.5l303 -12q-6 -183 -134.5 -275t-336.5 -92t-336.5 92t-134.5 275zM963 1520h399v-664l440 664h512v-4l-565 -725l573 -787v-4h-520l-440 672v-672h-399v672l-439 -672h-520v4l571 778l-565 734v4
h512l441 -664v664z" />
    <glyph glyph-name="uni04C2" unicode="&#x4c2;" horiz-adv-x="1937" 
d="M526 1663l301 12q2 -100 34.5 -148t107.5 -48q74 0 106.5 48t34.5 148l301 -12q0 -104 -34 -183.5t-94.5 -128t-139.5 -72.5t-174 -24q-128 0 -225.5 41.5t-157.5 135t-60 231.5zM782 1135h373v-490l315 490h467v-5l-421 -540l434 -586v-4h-475l-320 496v-496h-373v496
l-321 -496h-475v4l428 580l-418 546v5h471l315 -490v490z" />
    <glyph glyph-name="uni04CF" unicode="&#x4cf;" horiz-adv-x="634" 
d="M125 0v1159h385v-1159h-385z" />
    <glyph glyph-name="uni04D0" unicode="&#x4d0;" horiz-adv-x="1617" 
d="M338 1987l303 12q0 -75 46.5 -115.5t121.5 -40.5t121.5 40.5t46.5 115.5l303 -12q-6 -183 -134.5 -275t-336.5 -92t-336.5 92t-134.5 275zM1159 0l-84 281h-543l-83 -281h-445l539 1520h534l537 -1520h-455zM633 608h342l-170 570z" />
    <glyph glyph-name="uni04D1" unicode="&#x4d1;" horiz-adv-x="1253" 
d="M190 1663l302 12q2 -100 34.5 -148t106.5 -48t106.5 48t34.5 148l301 -12q0 -104 -34 -183.5t-94.5 -128t-139.5 -72.5t-174 -24q-128 0 -225.5 41.5t-157.5 135t-60 231.5zM772 0l-4 131q-123 -156 -338 -156q-171 0 -270 93t-99 262q0 191 136.5 284t420.5 93h138v26
q0 68 -43 100.5t-154 32.5q-216 0 -373 -108l-57 293q186 108 487 108q278 0 401.5 -104.5t123.5 -302.5v-752h-369zM561 256q67 0 119 31t76 82v131h-78q-127 0 -186.5 -31t-59.5 -100q0 -113 129 -113z" />
    <glyph glyph-name="uni04D4" unicode="&#x4d4;" horiz-adv-x="2246" 
d="M1061 0v340h-531l-174 -340h-462l829 1520h1413v-336h-688v-242h606v-328h-606v-274h704v-340h-1091zM1061 1190h-96l-267 -520h363v520z" />
    <glyph glyph-name="uni04D5" unicode="&#x4d5;" horiz-adv-x="1935" 
d="M1853 86q-203 -111 -479 -111q-313 0 -467 168q-171 -168 -430 -168q-200 0 -308 92.5t-108 260.5q0 185 135 275.5t422 90.5h152v39q0 67 -48 100t-159 33q-220 0 -377 -108l-57 293q186 108 487 108q257 0 357 -112q136 112 352 112q120 0 214 -29.5t155 -80
t101 -122.5t56.5 -151t16.5 -172v-135h-738q10 -97 77.5 -149t211.5 -52q201 0 377 111zM1333 895q-86 0 -141 -52t-62 -155h371v12q0 195 -168 195zM571 256q71 0 129 30t91 81q-14 65 -19 118h-94q-131 0 -188.5 -28t-57.5 -90q0 -111 139 -111z" />
    <glyph glyph-name="uni04D6" unicode="&#x4d6;" horiz-adv-x="1349" 
d="M221 1987l303 12q0 -75 46.5 -115.5t121.5 -40.5t121.5 40.5t46.5 115.5l303 -12q-6 -183 -134.5 -275t-336.5 -92t-336.5 92t-134.5 275zM1255 340v-340h-1110v1520h1094v-336h-688v-242h606v-328h-606v-274h704z" />
    <glyph glyph-name="uni04D7" unicode="&#x4d7;" horiz-adv-x="1261" 
d="M209 1663l301 12q2 -100 34.5 -148t106.5 -48q75 0 107.5 48t34.5 148l301 -12q0 -138 -60 -231.5t-157.5 -135t-225.5 -41.5q-95 0 -174 24t-139.5 72.5t-94.5 128t-34 183.5zM1180 86q-199 -111 -482 -111q-317 0 -479 149.5t-162 434.5q0 284 156.5 442t433.5 158
q121 0 216 -29.5t156.5 -80t101.5 -122.5t56.5 -151t16.5 -172v-141h-745q27 -195 294 -195q203 0 379 111zM657 895q-88 0 -146 -53.5t-65 -159.5h381v16q0 197 -170 197z" />
    <glyph glyph-name="uni04D8" unicode="&#x4d8;" horiz-adv-x="1583" 
d="M1501 764q0 -383 -181 -588t-538 -205q-150 0 -268 37.5t-197 103.5t-130.5 162.5t-74 209t-22.5 247.5q0 89 8 168h971q-13 150 -97.5 222.5t-279.5 72.5q-300 0 -481 -154l-105 342q99 70 262.5 118t364.5 48q768 0 768 -784zM780 326q125 0 201 70t88 206h-551v-18
q0 -114 66 -186t196 -72z" />
    <glyph glyph-name="uni04D9" unicode="&#x4d9;" horiz-adv-x="1269" 
d="M1212 569q0 -290 -146.5 -442t-432.5 -152q-149 0 -258 41.5t-173 118.5t-94 176.5t-30 225.5q0 45 4 135h743q-11 96 -73 145t-203 49q-220 0 -381 -108l-57 293q86 50 213.5 79t271.5 29q616 0 616 -590zM625 246q89 0 141.5 52t58.5 155h-381v-17q0 -91 46 -140.5
t135 -49.5z" />
    <glyph glyph-name="uni04E2" unicode="&#x4e2;" horiz-adv-x="1656" 
d="M416 1694v241h827v-241h-827zM1116 0v889l-588 -889h-383v1520h396v-889l587 889h383v-1520h-395z" />
    <glyph glyph-name="uni04E3" unicode="&#x4e3;" horiz-adv-x="1376" 
d="M307 1309v239h762v-239h-762zM885 0v614l-402 -614h-366v1135h375v-615l401 615h367v-1135h-375z" />
    <glyph glyph-name="uni04E6" unicode="&#x4e6;" horiz-adv-x="1669" 
d="M940 1661v307h328v-307h-328zM399 1661v307h328v-307h-328zM834 -29q-343 0 -547.5 211t-204.5 578t204.5 577.5t547.5 210.5t548 -210.5t205 -577.5t-205 -578t-548 -211zM834 326q151 0 236 114t85 320t-85 320t-236 114q-150 0 -235 -114t-85 -320t85 -320t235 -114z
" />
    <glyph glyph-name="uni04E7" unicode="&#x4e7;" horiz-adv-x="1292" 
d="M741 1276v305h328v-305h-328zM225 1276v305h328v-305h-328zM647 -25q-129 0 -236.5 38.5t-186.5 111.5t-123 186t-44 256t44 256t123 186t186.5 111.5t236.5 38.5q172 0 303.5 -66t208 -201t76.5 -325t-76.5 -325t-208 -201t-303.5 -66zM647 283q91 0 143 73t52 211
t-52 211.5t-143 73.5q-92 0 -144 -73t-52 -212t52 -211.5t144 -72.5z" />
    <glyph glyph-name="uni04E8" unicode="&#x4e8;" horiz-adv-x="1669" 
d="M834 -29q-343 0 -547.5 211t-204.5 578t204.5 577.5t547.5 210.5t548 -210.5t205 -577.5t-205 -578t-548 -211zM834 1194q-130 0 -215.5 -74.5t-114.5 -212.5h659q-29 138 -114 212.5t-215 74.5zM834 326q135 0 221 78.5t112 226.5h-667q26 -147 113 -226t221 -79z" />
    <glyph glyph-name="uni04E9" unicode="&#x4e9;" horiz-adv-x="1292" 
d="M647 -25q-129 0 -236.5 38.5t-186.5 111.5t-123 186t-44 256t44 256t123 186t186.5 111.5t236.5 38.5q172 0 303.5 -66t208 -201t76.5 -325t-76.5 -325t-208 -201t-303.5 -66zM647 860q-170 0 -207 -180h412q-37 180 -205 180zM647 274q173 0 207 193h-416
q34 -193 209 -193z" />
    <glyph glyph-name="uni04EE" unicode="&#x4ee;" horiz-adv-x="1499" 
d="M356 1694v241h828v-241h-828zM1073 469q-51 -117 -112 -205.5t-123 -143.5t-135 -89t-142 -47t-149 -13q-161 0 -279 39l27 340q74 -28 186 -28q78 0 124.5 24.5t84.5 87.5l-549 1086h477l316 -754l266 754h463z" />
    <glyph glyph-name="uni04EF" unicode="&#x4ef;" horiz-adv-x="1294" 
d="M276 1309v239h762v-239h-762zM879 12q-52 -141 -111 -236t-131 -149t-151 -76t-183 -22q-112 0 -231 35l30 311q85 -29 160 -29q74 0 116.5 27t76.5 94l-443 1168h437l217 -779l215 779h407z" />
    <glyph glyph-name="uni04F2" unicode="&#x4f2;" horiz-adv-x="1499" 
d="M612 1618l-217 86l267 352l294 -121zM1067 1618l-215 86l266 352l293 -121zM1073 469q-51 -117 -112 -205.5t-123 -143.5t-135 -89t-142 -47t-149 -13q-161 0 -279 39l27 340q74 -28 186 -28q78 0 124.5 24.5t84.5 87.5l-549 1086h477l316 -754l266 754h463z" />
    <glyph glyph-name="uni04F3" unicode="&#x4f3;" horiz-adv-x="1294" 
d="M537 1251l-240 52l248 421l305 -67zM965 1251l-240 52l248 421l305 -67zM879 12q-52 -141 -111 -236t-131 -149t-151 -76t-183 -22q-112 0 -231 35l30 311q85 -29 160 -29q74 0 116.5 27t76.5 94l-443 1168h437l217 -779l215 779h407z" />
    <glyph glyph-name="uni0E3F" unicode="&#xe3f;" horiz-adv-x="1396" 
d="M575 -201v201h-485v1520h485v196h201v-196h4q256 0 392.5 -101.5t136.5 -292.5q0 -265 -260 -335q303 -73 303 -369q0 -95 -32 -169t-85.5 -121t-128 -77t-153.5 -42.5t-169 -12.5h-8v-201h-201zM449 905h126v307h-126v-307zM932 1061q0 151 -156 151v-307q156 3 156 156
zM449 631v-324h126v324h-126zM956 469q0 89 -45.5 125.5t-134.5 36.5v-324q86 0 133 36.5t47 125.5z" />
    <glyph glyph-name="Wgrave" unicode="&#x1e80;" horiz-adv-x="2310" 
d="M1217 1618l-476 283l336 155l361 -336zM1393 0l-238 985l-237 -985h-463l-437 1520h461l226 -1049l249 1049h418l248 -1047l227 1047h445l-437 -1520h-462z" />
    <glyph glyph-name="wgrave" unicode="&#x1e81;" horiz-adv-x="1937" 
d="M922 1249l-347 406l349 69l239 -428zM1139 0l-170 709l-170 -709h-430l-355 1135h432l154 -766l178 766h393l177 -766l155 766h420l-354 -1135h-430z" />
    <glyph glyph-name="Wacute" unicode="&#x1e82;" horiz-adv-x="2310" 
d="M1094 1618l-222 102l361 336l336 -155zM1393 0l-238 985l-237 -985h-463l-437 1520h461l226 -1049l249 1049h418l248 -1047l227 1047h445l-437 -1520h-462z" />
    <glyph glyph-name="wacute" unicode="&#x1e83;" horiz-adv-x="1937" 
d="M1028 1249l-242 47l240 428l348 -69zM1139 0l-170 709l-170 -709h-430l-355 1135h432l154 -766l178 766h393l177 -766l155 766h420l-354 -1135h-430z" />
    <glyph glyph-name="Wdieresis" unicode="&#x1e84;" horiz-adv-x="2310" 
d="M1262 1661v307h327v-307h-327zM721 1661v307h328v-307h-328zM1393 0l-238 985l-237 -985h-463l-437 1520h461l226 -1049l249 1049h418l248 -1047l227 1047h445l-437 -1520h-462z" />
    <glyph glyph-name="wdieresis" unicode="&#x1e85;" horiz-adv-x="1937" 
d="M1069 1276v305h328v-305h-328zM553 1276v305h328v-305h-328zM1139 0l-170 709l-170 -709h-430l-355 1135h432l154 -766l178 766h393l177 -766l155 766h420l-354 -1135h-430z" />
    <glyph glyph-name="uni1E9E" unicode="&#x1e9e;" horiz-adv-x="1710" 
d="M131 0v905q0 339 178.5 491t560.5 152q211 0 394 -42t305 -122l-226 -469q66 -33 115 -69.5t91.5 -88.5t64.5 -123.5t22 -160.5q0 -107 -32.5 -196.5t-96.5 -158.5t-168 -108t-239 -39q-218 0 -418 99l80 350q144 -105 276 -105q88 0 131 43.5t43 116.5q0 47 -20 87.5
t-47 67t-77.5 54t-87.5 42.5t-101 38l192 410q-108 30 -221 30q-164 0 -237.5 -77t-73.5 -255v-872h-408z" />
    <glyph glyph-name="uni1EA0" unicode="&#x1ea0;" horiz-adv-x="1617" 
d="M1159 0l-84 281h-543l-83 -281h-445l539 1520h534l537 -1520h-455zM633 608h342l-170 570zM606 -440v305h406v-305h-406z" />
    <glyph glyph-name="uni1EA1" unicode="&#x1ea1;" horiz-adv-x="1253" 
d="M772 0l-4 131q-123 -156 -338 -156q-171 0 -270 93t-99 262q0 191 136.5 284t420.5 93h138v26q0 68 -43 100.5t-154 32.5q-216 0 -373 -108l-57 293q186 108 487 108q278 0 401.5 -104.5t123.5 -302.5v-752h-369zM561 256q67 0 119 31t76 82v131h-78q-127 0 -186.5 -31
t-59.5 -100q0 -113 129 -113zM430 -440v305h406v-305h-406z" />
    <glyph glyph-name="uni1EA2" unicode="&#x1ea2;" horiz-adv-x="1617" 
d="M836 1610l-160 133q180 57 180 125q0 49 -84 49q-107 0 -211 -72l-45 226q136 73 303 73q151 0 238.5 -58.5t87.5 -174.5q0 -108 -79 -177t-230 -124zM1159 0l-84 281h-543l-83 -281h-445l539 1520h534l537 -1520h-455zM633 608h342l-170 570z" />
    <glyph glyph-name="uni1EA3" unicode="&#x1ea3;" horiz-adv-x="1253" 
d="M659 1223l-159 131q180 57 180 127q0 47 -84 47q-111 0 -211 -72l-45 227q138 74 303 74q150 0 238 -59t88 -174q0 -109 -79 -177.5t-231 -123.5zM772 0l-4 131q-123 -156 -338 -156q-171 0 -270 93t-99 262q0 191 136.5 284t420.5 93h138v26q0 68 -43 100.5t-154 32.5
q-216 0 -373 -108l-57 293q186 108 487 108q278 0 401.5 -104.5t123.5 -302.5v-752h-369zM561 256q67 0 119 31t76 82v131h-78q-127 0 -186.5 -31t-59.5 -100q0 -113 129 -113z" />
    <glyph glyph-name="uni1EA4" unicode="&#x1ea4;" horiz-adv-x="1617" 
d="M1257 1954l-200 92l340 336l313 -148zM1286 1657l-334 -31l-143 197l-143 -197l-334 31l321 350h312zM1159 0l-84 281h-543l-83 -281h-445l539 1520h534l537 -1520h-455zM633 608h342l-170 570z" />
    <glyph glyph-name="uni1EA5" unicode="&#x1ea5;" horiz-adv-x="1253" 
d="M1120 1550l-223 45l221 402l322 -64zM1071 1288l-313 -31l-125 205l-125 -205l-313 31l282 361h311zM772 0l-4 131q-123 -156 -338 -156q-171 0 -270 93t-99 262q0 191 136.5 284t420.5 93h138v26q0 68 -43 100.5t-154 32.5q-216 0 -373 -108l-57 293q186 108 487 108
q278 0 401.5 -104.5t123.5 -302.5v-752h-369zM561 256q67 0 119 31t76 82v131h-78q-127 0 -186.5 -31t-59.5 -100q0 -113 129 -113z" />
    <glyph glyph-name="uni1EA6" unicode="&#x1ea6;" horiz-adv-x="1617" 
d="M1239 1954l-453 280l314 148l340 -336zM1286 1657l-334 -31l-143 197l-143 -197l-334 31l321 350h312zM1159 0l-84 281h-543l-83 -281h-445l539 1520h534l537 -1520h-455zM633 608h342l-170 570z" />
    <glyph glyph-name="uni1EA7" unicode="&#x1ea7;" horiz-adv-x="1253" 
d="M1026 1550l-319 383l321 64l221 -402zM1071 1288l-313 -31l-125 205l-125 -205l-313 31l282 361h311zM772 0l-4 131q-123 -156 -338 -156q-171 0 -270 93t-99 262q0 191 136.5 284t420.5 93h138v26q0 68 -43 100.5t-154 32.5q-216 0 -373 -108l-57 293q186 108 487 108
q278 0 401.5 -104.5t123.5 -302.5v-752h-369zM561 256q67 0 119 31t76 82v131h-78q-127 0 -186.5 -31t-59.5 -100q0 -113 129 -113z" />
    <glyph glyph-name="uni1EA8" unicode="&#x1ea8;" horiz-adv-x="1617" 
d="M1202 1923l-147 123q166 50 166 117q0 43 -78 43q-101 0 -195 -66l-43 209q129 68 281 68q139 0 220 -54.5t81 -160.5q0 -101 -72.5 -164.5t-212.5 -114.5zM1286 1657l-334 -31l-143 197l-143 -197l-334 31l321 350h312zM1159 0l-84 281h-543l-83 -281h-445l539 1520h534
l537 -1520h-455zM633 608h342l-170 570z" />
    <glyph glyph-name="uni1EA9" unicode="&#x1ea9;" horiz-adv-x="1253" 
d="M1042 1528l-147 123q166 53 166 116q0 43 -78 43q-107 0 -195 -65l-43 211q127 67 281 67q139 0 220 -54.5t81 -160.5q0 -101 -72.5 -165t-212.5 -115zM1071 1288l-313 -31l-125 205l-125 -205l-313 31l282 361h311zM772 0l-4 131q-123 -156 -338 -156q-171 0 -270 93
t-99 262q0 191 136.5 284t420.5 93h138v26q0 68 -43 100.5t-154 32.5q-216 0 -373 -108l-57 293q186 108 487 108q278 0 401.5 -104.5t123.5 -302.5v-752h-369zM561 256q67 0 119 31t76 82v131h-78q-127 0 -186.5 -31t-59.5 -100q0 -113 129 -113z" />
    <glyph glyph-name="uni1EAA" unicode="&#x1eaa;" horiz-adv-x="1617" 
d="M639 2056l-258 19q0 159 69.5 236t190.5 77q95 0 201 -66q59 -34 86 -34q51 0 51 110l258 -18q0 -159 -69.5 -235.5t-190.5 -76.5q-98 0 -201 64q-60 35 -86 35q-51 0 -51 -111zM1286 1657l-334 -31l-143 197l-143 -197l-334 31l321 350h312zM1159 0l-84 281h-543
l-83 -281h-445l539 1520h534l537 -1520h-455zM633 608h342l-170 570z" />
    <glyph glyph-name="uni1EAB" unicode="&#x1eab;" horiz-adv-x="1253" 
d="M465 1698l-250 16q0 159 68 236.5t186 77.5q94 0 197 -64q60 -35 84 -35q51 0 51 109l250 -17q0 -159 -68 -236t-186 -77q-94 0 -197 64q-59 34 -84 34q-51 0 -51 -108zM1071 1288l-313 -31l-125 205l-125 -205l-313 31l282 361h311zM772 0l-4 131q-123 -156 -338 -156
q-171 0 -270 93t-99 262q0 191 136.5 284t420.5 93h138v26q0 68 -43 100.5t-154 32.5q-216 0 -373 -108l-57 293q186 108 487 108q278 0 401.5 -104.5t123.5 -302.5v-752h-369zM561 256q67 0 119 31t76 82v131h-78q-127 0 -186.5 -31t-59.5 -100q0 -113 129 -113z" />
    <glyph glyph-name="uni1EAC" unicode="&#x1eac;" horiz-adv-x="1617" 
d="M1294 1657l-340 -31l-145 199l-145 -199l-340 31l329 358h312zM1159 0l-84 281h-543l-83 -281h-445l539 1520h534l537 -1520h-455zM633 608h342l-170 570zM606 -440v305h406v-305h-406z" />
    <glyph glyph-name="uni1EAD" unicode="&#x1ead;" horiz-adv-x="1253" 
d="M1092 1288l-318 -31l-141 254l-141 -254l-318 31l303 422h311zM772 0l-4 131q-123 -156 -338 -156q-171 0 -270 93t-99 262q0 191 136.5 284t420.5 93h138v26q0 68 -43 100.5t-154 32.5q-216 0 -373 -108l-57 293q186 108 487 108q278 0 401.5 -104.5t123.5 -302.5v-752
h-369zM561 256q67 0 119 31t76 82v131h-78q-127 0 -186.5 -31t-59.5 -100q0 -113 129 -113zM430 -440v305h406v-305h-406z" />
    <glyph glyph-name="uni1EAE" unicode="&#x1eae;" horiz-adv-x="1617" 
d="M782 1997l-200 92l340 336l313 -148zM383 1960l281 14q7 -65 45 -99t100 -34t100 34t45 99l281 -14q-15 -164 -131.5 -252t-294.5 -88t-293.5 87.5t-132.5 252.5zM1159 0l-84 281h-543l-83 -281h-445l539 1520h534l537 -1520h-455zM633 608h342l-170 570z" />
    <glyph glyph-name="uni1EAF" unicode="&#x1eaf;" horiz-adv-x="1253" 
d="M705 1626l-222 45l224 402l321 -64zM215 1602l279 12q20 -137 139 -137t139 137l279 -12q-26 -168 -137.5 -257.5t-280.5 -89.5t-280.5 89.5t-137.5 257.5zM772 0l-4 131q-123 -156 -338 -156q-171 0 -270 93t-99 262q0 191 136.5 284t420.5 93h138v26q0 68 -43 100.5
t-154 32.5q-216 0 -373 -108l-57 293q186 108 487 108q278 0 401.5 -104.5t123.5 -302.5v-752h-369zM561 256q67 0 119 31t76 82v131h-78q-127 0 -186.5 -31t-59.5 -100q0 -113 129 -113z" />
    <glyph glyph-name="uni1EB0" unicode="&#x1eb0;" horiz-adv-x="1617" 
d="M836 1997l-453 280l313 148l340 -336zM383 1960l281 14q7 -65 45 -99t100 -34t100 34t45 99l281 -14q-15 -164 -131.5 -252t-294.5 -88t-293.5 87.5t-132.5 252.5zM1159 0l-84 281h-543l-83 -281h-445l539 1520h534l537 -1520h-455zM633 608h342l-170 570z" />
    <glyph glyph-name="uni1EB1" unicode="&#x1eb1;" horiz-adv-x="1253" 
d="M561 1626l-323 383l321 64l223 -402zM215 1602l279 12q20 -137 139 -137t139 137l279 -12q-26 -168 -137.5 -257.5t-280.5 -89.5t-280.5 89.5t-137.5 257.5zM772 0l-4 131q-123 -156 -338 -156q-171 0 -270 93t-99 262q0 191 136.5 284t420.5 93h138v26q0 68 -43 100.5
t-154 32.5q-216 0 -373 -108l-57 293q186 108 487 108q278 0 401.5 -104.5t123.5 -302.5v-752h-369zM561 256q67 0 119 31t76 82v131h-78q-127 0 -186.5 -31t-59.5 -100q0 -113 129 -113z" />
    <glyph glyph-name="uni1EB2" unicode="&#x1eb2;" horiz-adv-x="1617" 
d="M815 1972l-147 123q166 50 166 117q0 43 -78 43q-101 0 -195 -66l-43 209q133 68 281 68q139 0 220 -54.5t81 -160.5q0 -102 -72 -165t-213 -114zM383 1960l281 14q7 -65 45 -99t100 -34t100 34t45 99l281 -14q-15 -164 -131.5 -252t-294.5 -88t-293.5 87.5t-132.5 252.5
zM1159 0l-84 281h-543l-83 -281h-445l539 1520h534l537 -1520h-455zM633 608h342l-170 570z" />
    <glyph glyph-name="uni1EB3" unicode="&#x1eb3;" horiz-adv-x="1253" 
d="M639 1610l-147 123q165 53 165 116q0 43 -77 43q-107 0 -195 -65l-43 211q131 67 281 67q139 0 220 -54.5t81 -160.5q0 -102 -72 -166t-213 -114zM215 1602l279 12q20 -137 139 -137t139 137l279 -12q-26 -168 -137.5 -257.5t-280.5 -89.5t-280.5 89.5t-137.5 257.5z
M772 0l-4 131q-123 -156 -338 -156q-171 0 -270 93t-99 262q0 191 136.5 284t420.5 93h138v26q0 68 -43 100.5t-154 32.5q-216 0 -373 -108l-57 293q186 108 487 108q278 0 401.5 -104.5t123.5 -302.5v-752h-369zM561 256q67 0 119 31t76 82v131h-78q-127 0 -186.5 -31
t-59.5 -100q0 -113 129 -113z" />
    <glyph glyph-name="uni1EB4" unicode="&#x1eb4;" horiz-adv-x="1617" 
d="M639 2056l-258 19q0 159 69.5 236t190.5 77q95 0 201 -66q59 -34 86 -34q51 0 51 110l258 -18q0 -159 -69.5 -235.5t-190.5 -76.5q-98 0 -201 64q-60 35 -86 35q-51 0 -51 -111zM383 1960l281 14q7 -65 45 -99t100 -34t100 34t45 99l281 -14q-15 -164 -131.5 -252
t-294.5 -88t-293.5 87.5t-132.5 252.5zM1159 0l-84 281h-543l-83 -281h-445l539 1520h534l537 -1520h-455zM633 608h342l-170 570z" />
    <glyph glyph-name="uni1EB5" unicode="&#x1eb5;" horiz-adv-x="1253" 
d="M465 1698l-250 16q0 159 68 236.5t186 77.5q94 0 197 -64q60 -35 84 -35q51 0 51 109l250 -17q0 -159 -68 -236t-186 -77q-94 0 -197 64q-59 34 -84 34q-51 0 -51 -108zM215 1602l279 12q20 -137 139 -137t139 137l279 -12q-26 -168 -137.5 -257.5t-280.5 -89.5
t-280.5 89.5t-137.5 257.5zM772 0l-4 131q-123 -156 -338 -156q-171 0 -270 93t-99 262q0 191 136.5 284t420.5 93h138v26q0 68 -43 100.5t-154 32.5q-216 0 -373 -108l-57 293q186 108 487 108q278 0 401.5 -104.5t123.5 -302.5v-752h-369zM561 256q67 0 119 31t76 82v131
h-78q-127 0 -186.5 -31t-59.5 -100q0 -113 129 -113z" />
    <glyph glyph-name="uni1EB6" unicode="&#x1eb6;" horiz-adv-x="1617" 
d="M383 1987l279 16q3 -76 41 -117t106 -41t106 41t41 117l279 -16q-6 -177 -123.5 -272t-302.5 -95t-302.5 95t-123.5 272zM1159 0l-84 281h-543l-83 -281h-445l539 1520h534l537 -1520h-455zM633 608h342l-170 570zM606 -440v305h406v-305h-406z" />
    <glyph glyph-name="uni1EB7" unicode="&#x1eb7;" horiz-adv-x="1253" 
d="M207 1663l282 12q1 -94 38.5 -142t105.5 -48q140 0 143 190l283 -12q-6 -195 -123.5 -301.5t-302.5 -106.5t-302.5 106.5t-123.5 301.5zM772 0l-4 131q-123 -156 -338 -156q-171 0 -270 93t-99 262q0 191 136.5 284t420.5 93h138v26q0 68 -43 100.5t-154 32.5
q-216 0 -373 -108l-57 293q186 108 487 108q278 0 401.5 -104.5t123.5 -302.5v-752h-369zM561 256q67 0 119 31t76 82v131h-78q-127 0 -186.5 -31t-59.5 -100q0 -113 129 -113zM430 -440v305h406v-305h-406z" />
    <glyph glyph-name="uni1EB8" unicode="&#x1eb8;" horiz-adv-x="1349" 
d="M1255 340v-340h-1110v1520h1094v-336h-688v-242h606v-328h-606v-274h704zM483 -440v305h406v-305h-406z" />
    <glyph glyph-name="uni1EB9" unicode="&#x1eb9;" horiz-adv-x="1261" 
d="M1180 86q-199 -111 -482 -111q-317 0 -479 149.5t-162 434.5q0 284 156.5 442t433.5 158q121 0 216 -29.5t156.5 -80t101.5 -122.5t56.5 -151t16.5 -172v-141h-745q27 -195 294 -195q203 0 379 111zM657 895q-88 0 -146 -53.5t-65 -159.5h381v16q0 197 -170 197z
M449 -440v305h405v-305h-405z" />
    <glyph glyph-name="uni1EBA" unicode="&#x1eba;" horiz-adv-x="1349" 
d="M713 1610l-160 133q180 57 180 125q0 49 -84 49q-107 0 -211 -72l-45 226q136 73 303 73q151 0 238.5 -58.5t87.5 -174.5q0 -108 -79 -177t-230 -124zM1255 340v-340h-1110v1520h1094v-336h-688v-242h606v-328h-606v-274h704z" />
    <glyph glyph-name="uni1EBB" unicode="&#x1ebb;" horiz-adv-x="1261" 
d="M678 1223l-160 131q180 57 180 127q0 47 -84 47q-111 0 -211 -72l-45 227q138 74 304 74q150 0 237.5 -59t87.5 -174q0 -109 -78.5 -177.5t-230.5 -123.5zM1180 86q-199 -111 -482 -111q-317 0 -479 149.5t-162 434.5q0 284 156.5 442t433.5 158q121 0 216 -29.5
t156.5 -80t101.5 -122.5t56.5 -151t16.5 -172v-141h-745q27 -195 294 -195q203 0 379 111zM657 895q-88 0 -146 -53.5t-65 -159.5h381v16q0 197 -170 197z" />
    <glyph glyph-name="uni1EBC" unicode="&#x1ebc;" horiz-adv-x="1349" 
d="M446 1614l-262 20q0 185 81.5 276t211.5 91q107 0 244 -72q82 -45 125 -45q80 0 80 131l262 -20q0 -185 -81.5 -276t-211.5 -91q-108 0 -244 72q-82 45 -125 45q-80 0 -80 -131zM1255 340v-340h-1110v1520h1094v-336h-688v-242h606v-328h-606v-274h704z" />
    <glyph glyph-name="uni1EBD" unicode="&#x1ebd;" horiz-adv-x="1261" 
d="M428 1255l-262 19q0 186 77.5 277t205.5 91q106 0 237 -73q77 -43 117 -43q35 0 53 30t18 99l263 -19q0 -186 -77.5 -277t-205.5 -91q-112 0 -238 71q-78 45 -116 45q-72 0 -72 -129zM1180 86q-199 -111 -482 -111q-317 0 -479 149.5t-162 434.5q0 284 156.5 442
t433.5 158q121 0 216 -29.5t156.5 -80t101.5 -122.5t56.5 -151t16.5 -172v-141h-745q27 -195 294 -195q203 0 379 111zM657 895q-88 0 -146 -53.5t-65 -159.5h381v16q0 197 -170 197z" />
    <glyph glyph-name="uni1EBE" unicode="&#x1ebe;" horiz-adv-x="1349" 
d="M1135 1954l-201 92l340 336l313 -148zM1163 1657l-334 -31l-143 197l-143 -197l-334 31l321 350h312zM1255 340v-340h-1110v1520h1094v-336h-688v-242h606v-328h-606v-274h704z" />
    <glyph glyph-name="uni1EBF" unicode="&#x1ebf;" horiz-adv-x="1261" 
d="M1139 1550l-224 45l222 402l321 -64zM1090 1288l-314 -31l-125 205l-125 -205l-313 31l283 361h311zM1180 86q-199 -111 -482 -111q-317 0 -479 149.5t-162 434.5q0 284 156.5 442t433.5 158q121 0 216 -29.5t156.5 -80t101.5 -122.5t56.5 -151t16.5 -172v-141h-745
q27 -195 294 -195q203 0 379 111zM657 895q-88 0 -146 -53.5t-65 -159.5h381v16q0 197 -170 197z" />
    <glyph glyph-name="uni1EC0" unicode="&#x1ec0;" horiz-adv-x="1349" 
d="M1116 1954l-452 280l313 148l340 -336zM1163 1657l-334 -31l-143 197l-143 -197l-334 31l321 350h312zM1255 340v-340h-1110v1520h1094v-336h-688v-242h606v-328h-606v-274h704z" />
    <glyph glyph-name="uni1EC1" unicode="&#x1ec1;" horiz-adv-x="1261" 
d="M1044 1550l-319 383l322 64l221 -402zM1090 1288l-314 -31l-125 205l-125 -205l-313 31l283 361h311zM1180 86q-199 -111 -482 -111q-317 0 -479 149.5t-162 434.5q0 284 156.5 442t433.5 158q121 0 216 -29.5t156.5 -80t101.5 -122.5t56.5 -151t16.5 -172v-141h-745
q27 -195 294 -195q203 0 379 111zM657 895q-88 0 -146 -53.5t-65 -159.5h381v16q0 197 -170 197z" />
    <glyph glyph-name="uni1EC2" unicode="&#x1ec2;" horiz-adv-x="1349" 
d="M1079 1923l-147 123q166 50 166 117q0 43 -78 43q-101 0 -195 -66l-43 209q129 68 281 68q139 0 220 -54.5t81 -160.5q0 -101 -72.5 -164.5t-212.5 -114.5zM1163 1657l-334 -31l-143 197l-143 -197l-334 31l321 350h312zM1255 340v-340h-1110v1520h1094v-336h-688v-242
h606v-328h-606v-274h704z" />
    <glyph glyph-name="uni1EC3" unicode="&#x1ec3;" horiz-adv-x="1261" 
d="M1061 1528l-148 123q166 53 166 116q0 43 -78 43q-106 0 -194 -65l-43 211q127 67 280 67q139 0 220.5 -54.5t81.5 -160.5q0 -101 -72.5 -165t-212.5 -115zM1090 1288l-314 -31l-125 205l-125 -205l-313 31l283 361h311zM1180 86q-199 -111 -482 -111q-317 0 -479 149.5
t-162 434.5q0 284 156.5 442t433.5 158q121 0 216 -29.5t156.5 -80t101.5 -122.5t56.5 -151t16.5 -172v-141h-745q27 -195 294 -195q203 0 379 111zM657 895q-88 0 -146 -53.5t-65 -159.5h381v16q0 197 -170 197z" />
    <glyph glyph-name="uni1EC4" unicode="&#x1ec4;" horiz-adv-x="1349" 
d="M516 2056l-258 19q0 159 69.5 236t190.5 77q95 0 201 -66q59 -34 86 -34q51 0 51 110l258 -18q0 -159 -69.5 -235.5t-190.5 -76.5q-98 0 -201 64q-60 35 -86 35q-51 0 -51 -111zM1163 1657l-334 -31l-143 197l-143 -197l-334 31l321 350h312zM1255 340v-340h-1110v1520
h1094v-336h-688v-242h606v-328h-606v-274h704z" />
    <glyph glyph-name="uni1EC5" unicode="&#x1ec5;" horiz-adv-x="1261" 
d="M483 1698l-250 16q0 159 68 236.5t186 77.5q94 0 197 -64q60 -35 84 -35q51 0 51 109l250 -17q0 -159 -68 -236t-186 -77q-94 0 -197 64q-59 34 -83 34q-52 0 -52 -108zM1090 1288l-314 -31l-125 205l-125 -205l-313 31l283 361h311zM1180 86q-199 -111 -482 -111
q-317 0 -479 149.5t-162 434.5q0 284 156.5 442t433.5 158q121 0 216 -29.5t156.5 -80t101.5 -122.5t56.5 -151t16.5 -172v-141h-745q27 -195 294 -195q203 0 379 111zM657 895q-88 0 -146 -53.5t-65 -159.5h381v16q0 197 -170 197z" />
    <glyph glyph-name="uni1EC6" unicode="&#x1ec6;" horiz-adv-x="1349" 
d="M1171 1657l-340 -31l-145 199l-145 -199l-340 31l329 358h312zM1255 340v-340h-1110v1520h1094v-336h-688v-242h606v-328h-606v-274h704zM483 -440v305h406v-305h-406z" />
    <glyph glyph-name="uni1EC7" unicode="&#x1ec7;" horiz-adv-x="1261" 
d="M1110 1288l-317 -31l-142 254l-141 -254l-317 31l303 422h311zM1180 86q-199 -111 -482 -111q-317 0 -479 149.5t-162 434.5q0 284 156.5 442t433.5 158q121 0 216 -29.5t156.5 -80t101.5 -122.5t56.5 -151t16.5 -172v-141h-745q27 -195 294 -195q203 0 379 111zM657 895
q-88 0 -146 -53.5t-65 -159.5h381v16q0 197 -170 197zM449 -440v305h405v-305h-405z" />
    <glyph glyph-name="uni1EC8" unicode="&#x1ec8;" horiz-adv-x="696" 
d="M375 1610l-160 133q180 57 180 125q0 49 -84 49q-107 0 -211 -72l-45 226q136 73 303 73q151 0 238.5 -58.5t87.5 -174.5q0 -108 -79 -177t-230 -124zM145 0v1520h406v-1520h-406z" />
    <glyph glyph-name="uni1EC9" unicode="&#x1ec9;" horiz-adv-x="653" 
d="M354 1223l-159 131q180 57 180 127q0 47 -84 47q-111 0 -211 -72l-45 227q138 74 303 74q150 0 238 -59t88 -174q0 -109 -79 -177.5t-231 -123.5zM135 0v1135h385v-1135h-385z" />
    <glyph glyph-name="uni1ECA" unicode="&#x1eca;" horiz-adv-x="696" 
d="M145 0v1520h406v-1520h-406zM145 -440v305h406v-305h-406z" />
    <glyph glyph-name="uni1ECB" unicode="&#x1ecb;" horiz-adv-x="626" 
d="M111 1276v305h405v-305h-405zM121 0v1135h385v-1135h-385zM111 -440v305h405v-305h-405z" />
    <glyph glyph-name="uni1ECC" unicode="&#x1ecc;" horiz-adv-x="1669" 
d="M834 -29q-343 0 -547.5 211t-204.5 578t204.5 577.5t547.5 210.5t548 -210.5t205 -577.5t-205 -578t-548 -211zM834 326q151 0 236 114t85 320t-85 320t-236 114q-150 0 -235 -114t-85 -320t85 -320t235 -114zM631 -440v305h405v-305h-405z" />
    <glyph glyph-name="uni1ECD" unicode="&#x1ecd;" horiz-adv-x="1292" 
d="M647 -25q-129 0 -236.5 38.5t-186.5 111.5t-123 186t-44 256t44 256t123 186t186.5 111.5t236.5 38.5q172 0 303.5 -66t208 -201t76.5 -325t-76.5 -325t-208 -201t-303.5 -66zM647 283q91 0 143 73t52 211t-52 211.5t-143 73.5q-92 0 -144 -73t-52 -212t52 -211.5
t144 -72.5zM444 -440v305h406v-305h-406z" />
    <glyph glyph-name="uni1ECE" unicode="&#x1ece;" horiz-adv-x="1669" 
d="M860 1610l-160 133q181 57 181 125q0 49 -84 49q-107 0 -211 -72l-45 226q136 73 303 73q150 0 237.5 -58.5t87.5 -174.5q0 -108 -79 -177t-230 -124zM834 -29q-343 0 -547.5 211t-204.5 578t204.5 577.5t547.5 210.5t548 -210.5t205 -577.5t-205 -578t-548 -211z
M834 326q151 0 236 114t85 320t-85 320t-236 114q-150 0 -235 -114t-85 -320t85 -320t235 -114z" />
    <glyph glyph-name="uni1ECF" unicode="&#x1ecf;" horiz-adv-x="1292" 
d="M674 1223l-160 131q180 57 180 127q0 47 -84 47q-111 0 -211 -72l-45 227q138 74 303 74q150 0 238 -59t88 -174q0 -109 -78.5 -177.5t-230.5 -123.5zM647 -25q-129 0 -236.5 38.5t-186.5 111.5t-123 186t-44 256t44 256t123 186t186.5 111.5t236.5 38.5q172 0 303.5 -66
t208 -201t76.5 -325t-76.5 -325t-208 -201t-303.5 -66zM647 283q91 0 143 73t52 211t-52 211.5t-143 73.5q-92 0 -144 -73t-52 -212t52 -211.5t144 -72.5z" />
    <glyph glyph-name="uni1ED0" unicode="&#x1ed0;" horiz-adv-x="1669" 
d="M1282 1954l-201 92l340 336l314 -148zM1311 1657l-334 -31l-143 197l-144 -197l-334 31l322 350h311zM834 -29q-343 0 -547.5 211t-204.5 578t204.5 577.5t547.5 210.5t548 -210.5t205 -577.5t-205 -578t-548 -211zM834 326q151 0 236 114t85 320t-85 320t-236 114
q-150 0 -235 -114t-85 -320t85 -320t235 -114z" />
    <glyph glyph-name="uni1ED1" unicode="&#x1ed1;" horiz-adv-x="1292" 
d="M1135 1550l-224 45l222 402l321 -64zM1085 1288l-313 -31l-125 205l-125 -205l-313 31l283 361h311zM647 -25q-129 0 -236.5 38.5t-186.5 111.5t-123 186t-44 256t44 256t123 186t186.5 111.5t236.5 38.5q172 0 303.5 -66t208 -201t76.5 -325t-76.5 -325t-208 -201
t-303.5 -66zM647 283q91 0 143 73t52 211t-52 211.5t-143 73.5q-92 0 -144 -73t-52 -212t52 -211.5t144 -72.5z" />
    <glyph glyph-name="uni1ED2" unicode="&#x1ed2;" horiz-adv-x="1669" 
d="M1264 1954l-453 280l313 148l340 -336zM1311 1657l-334 -31l-143 197l-144 -197l-334 31l322 350h311zM834 -29q-343 0 -547.5 211t-204.5 578t204.5 577.5t547.5 210.5t548 -210.5t205 -577.5t-205 -578t-548 -211zM834 326q151 0 236 114t85 320t-85 320t-236 114
q-150 0 -235 -114t-85 -320t85 -320t235 -114z" />
    <glyph glyph-name="uni1ED3" unicode="&#x1ed3;" horiz-adv-x="1292" 
d="M1040 1550l-319 383l321 64l222 -402zM1085 1288l-313 -31l-125 205l-125 -205l-313 31l283 361h311zM647 -25q-129 0 -236.5 38.5t-186.5 111.5t-123 186t-44 256t44 256t123 186t186.5 111.5t236.5 38.5q172 0 303.5 -66t208 -201t76.5 -325t-76.5 -325t-208 -201
t-303.5 -66zM647 283q91 0 143 73t52 211t-52 211.5t-143 73.5q-92 0 -144 -73t-52 -212t52 -211.5t144 -72.5z" />
    <glyph glyph-name="uni1ED4" unicode="&#x1ed4;" horiz-adv-x="1669" 
d="M1227 1923l-148 123q166 50 166 117q0 43 -78 43q-100 0 -194 -66l-43 209q129 68 280 68q139 0 220 -54.5t81 -160.5q0 -101 -72 -164.5t-212 -114.5zM1311 1657l-334 -31l-143 197l-144 -197l-334 31l322 350h311zM834 -29q-343 0 -547.5 211t-204.5 578t204.5 577.5
t547.5 210.5t548 -210.5t205 -577.5t-205 -578t-548 -211zM834 326q151 0 236 114t85 320t-85 320t-236 114q-150 0 -235 -114t-85 -320t85 -320t235 -114z" />
    <glyph glyph-name="uni1ED5" unicode="&#x1ed5;" horiz-adv-x="1292" 
d="M1057 1528l-148 123q166 53 166 116q0 43 -78 43q-106 0 -194 -65l-43 211q127 67 280 67q139 0 220 -54.5t81 -160.5q0 -102 -72 -165.5t-212 -114.5zM1085 1288l-313 -31l-125 205l-125 -205l-313 31l283 361h311zM647 -25q-129 0 -236.5 38.5t-186.5 111.5t-123 186
t-44 256t44 256t123 186t186.5 111.5t236.5 38.5q172 0 303.5 -66t208 -201t76.5 -325t-76.5 -325t-208 -201t-303.5 -66zM647 283q91 0 143 73t52 211t-52 211.5t-143 73.5q-92 0 -144 -73t-52 -212t52 -211.5t144 -72.5z" />
    <glyph glyph-name="uni1ED6" unicode="&#x1ed6;" horiz-adv-x="1669" 
d="M664 2056l-258 19q0 159 69.5 236t190.5 77q41 0 80 -10.5t63 -23t57 -32.5q59 -34 86 -34q52 0 52 110l258 -18q0 -159 -70 -235.5t-191 -76.5q-97 0 -200 64q-60 35 -86 35q-51 0 -51 -111zM1311 1657l-334 -31l-143 197l-144 -197l-334 31l322 350h311zM834 -29
q-343 0 -547.5 211t-204.5 578t204.5 577.5t547.5 210.5t548 -210.5t205 -577.5t-205 -578t-548 -211zM834 326q151 0 236 114t85 320t-85 320t-236 114q-150 0 -235 -114t-85 -320t85 -320t235 -114z" />
    <glyph glyph-name="uni1ED7" unicode="&#x1ed7;" horiz-adv-x="1292" 
d="M479 1698l-250 16q0 159 68 236.5t186 77.5q94 0 197 -64q60 -35 84 -35q51 0 51 109l250 -17q0 -159 -68 -236t-186 -77q-94 0 -197 64q-59 34 -84 34q-51 0 -51 -108zM1085 1288l-313 -31l-125 205l-125 -205l-313 31l283 361h311zM647 -25q-129 0 -236.5 38.5
t-186.5 111.5t-123 186t-44 256t44 256t123 186t186.5 111.5t236.5 38.5q172 0 303.5 -66t208 -201t76.5 -325t-76.5 -325t-208 -201t-303.5 -66zM647 283q91 0 143 73t52 211t-52 211.5t-143 73.5q-92 0 -144 -73t-52 -212t52 -211.5t144 -72.5z" />
    <glyph glyph-name="uni1ED8" unicode="&#x1ed8;" horiz-adv-x="1669" 
d="M1319 1657l-340 -31l-145 199l-146 -199l-340 31l330 358h311zM834 -29q-343 0 -547.5 211t-204.5 578t204.5 577.5t547.5 210.5t548 -210.5t205 -577.5t-205 -578t-548 -211zM834 326q151 0 236 114t85 320t-85 320t-236 114q-150 0 -235 -114t-85 -320t85 -320
t235 -114zM631 -440v305h405v-305h-405z" />
    <glyph glyph-name="uni1ED9" unicode="&#x1ed9;" horiz-adv-x="1292" 
d="M1106 1288l-318 -31l-141 254l-141 -254l-318 31l304 422h311zM647 -25q-129 0 -236.5 38.5t-186.5 111.5t-123 186t-44 256t44 256t123 186t186.5 111.5t236.5 38.5q172 0 303.5 -66t208 -201t76.5 -325t-76.5 -325t-208 -201t-303.5 -66zM647 283q91 0 143 73t52 211
t-52 211.5t-143 73.5q-92 0 -144 -73t-52 -212t52 -211.5t144 -72.5zM444 -440v305h406v-305h-406z" />
    <glyph glyph-name="uni1EDA" unicode="&#x1eda;" horiz-adv-x="1685" 
d="M772 1618l-221 102l360 336l336 -155zM1587 760q0 -367 -205 -578t-548 -211t-547.5 211t-204.5 578t204.5 577.5t547.5 210.5q168 0 307 -53h6q89 0 128.5 42.5t39.5 125.5q0 40 -12 94h325q17 -82 17 -133q0 -258 -234 -319q176 -207 176 -545zM834 326q151 0 236 114
t85 320t-85 320t-236 114q-150 0 -235 -114t-85 -320t85 -320t235 -114z" />
    <glyph glyph-name="uni1EDB" unicode="&#x1edb;" horiz-adv-x="1349" 
d="M700 1249l-241 47l239 428l349 -69zM1235 567q0 -190 -76.5 -325t-208 -201t-303.5 -66q-129 0 -236.5 38.5t-186.5 111.5t-123 186t-44 256t44 256t123 186t186.5 111.5t236.5 38.5q143 0 258 -47q129 17 129 166q0 47 -14 94h328q16 -77 16 -133q0 -251 -223 -315
q94 -147 94 -357zM647 283q91 0 143 73t52 211t-52 211.5t-143 73.5q-92 0 -144 -73t-52 -212t52 -211.5t144 -72.5z" />
    <glyph glyph-name="uni1EDC" unicode="&#x1edc;" horiz-adv-x="1685" 
d="M895 1618l-475 283l336 155l360 -336zM1587 760q0 -367 -205 -578t-548 -211t-547.5 211t-204.5 578t204.5 577.5t547.5 210.5q168 0 307 -53h6q89 0 128.5 42.5t39.5 125.5q0 40 -12 94h325q17 -82 17 -133q0 -258 -234 -319q176 -207 176 -545zM834 326q151 0 236 114
t85 320t-85 320t-236 114q-150 0 -235 -114t-85 -320t85 -320t235 -114z" />
    <glyph glyph-name="uni1EDD" unicode="&#x1edd;" horiz-adv-x="1349" 
d="M594 1249l-346 406l348 69l240 -428zM1235 567q0 -190 -76.5 -325t-208 -201t-303.5 -66q-129 0 -236.5 38.5t-186.5 111.5t-123 186t-44 256t44 256t123 186t186.5 111.5t236.5 38.5q143 0 258 -47q129 17 129 166q0 47 -14 94h328q16 -77 16 -133q0 -251 -223 -315
q94 -147 94 -357zM647 283q91 0 143 73t52 211t-52 211.5t-143 73.5q-92 0 -144 -73t-52 -212t52 -211.5t144 -72.5z" />
    <glyph glyph-name="uni1EDE" unicode="&#x1ede;" horiz-adv-x="1685" 
d="M860 1610l-160 133q181 57 181 125q0 49 -84 49q-107 0 -211 -72l-45 226q136 73 303 73q150 0 237.5 -58.5t87.5 -174.5q0 -108 -79 -177t-230 -124zM1587 760q0 -367 -205 -578t-548 -211t-547.5 211t-204.5 578t204.5 577.5t547.5 210.5q168 0 307 -53h6
q89 0 128.5 42.5t39.5 125.5q0 40 -12 94h325q17 -82 17 -133q0 -258 -234 -319q176 -207 176 -545zM834 326q151 0 236 114t85 320t-85 320t-236 114q-150 0 -235 -114t-85 -320t85 -320t235 -114z" />
    <glyph glyph-name="uni1EDF" unicode="&#x1edf;" horiz-adv-x="1349" 
d="M674 1223l-160 131q180 57 180 127q0 47 -84 47q-111 0 -211 -72l-45 227q138 74 303 74q150 0 238 -59t88 -174q0 -109 -78.5 -177.5t-230.5 -123.5zM1235 567q0 -190 -76.5 -325t-208 -201t-303.5 -66q-129 0 -236.5 38.5t-186.5 111.5t-123 186t-44 256t44 256
t123 186t186.5 111.5t236.5 38.5q143 0 258 -47q129 17 129 166q0 47 -14 94h328q16 -77 16 -133q0 -251 -223 -315q94 -147 94 -357zM647 283q91 0 143 73t52 211t-52 211.5t-143 73.5q-92 0 -144 -73t-52 -212t52 -211.5t144 -72.5z" />
    <glyph glyph-name="uni1EE0" unicode="&#x1ee0;" horiz-adv-x="1685" 
d="M594 1655l-262 20q0 185 81.5 276t211.5 91q106 0 243 -72q82 -45 125 -45q80 0 80 131l262 -20q0 -185 -81.5 -276t-211.5 -91q-107 0 -243 72q-82 45 -125 45q-80 0 -80 -131zM1587 760q0 -367 -205 -578t-548 -211t-547.5 211t-204.5 578t204.5 577.5t547.5 210.5
q168 0 307 -53h6q89 0 128.5 42.5t39.5 125.5q0 40 -12 94h325q17 -82 17 -133q0 -258 -234 -319q176 -207 176 -545zM834 326q151 0 236 114t85 320t-85 320t-236 114q-150 0 -235 -114t-85 -320t85 -320t235 -114z" />
    <glyph glyph-name="uni1EE1" unicode="&#x1ee1;" horiz-adv-x="1349" 
d="M424 1354l-262 18q0 186 77.5 277.5t204.5 91.5q105 0 238 -74q77 -43 117 -43q35 0 53 30t18 99l263 -18q0 -186 -77.5 -277.5t-205.5 -91.5q-105 0 -238 72q-77 45 -116 45q-72 0 -72 -129zM1235 567q0 -190 -76.5 -325t-208 -201t-303.5 -66q-129 0 -236.5 38.5
t-186.5 111.5t-123 186t-44 256t44 256t123 186t186.5 111.5t236.5 38.5q143 0 258 -47q129 17 129 166q0 47 -14 94h328q16 -77 16 -133q0 -251 -223 -315q94 -147 94 -357zM647 283q91 0 143 73t52 211t-52 211.5t-143 73.5q-92 0 -144 -73t-52 -212t52 -211.5t144 -72.5z
" />
    <glyph glyph-name="uni1EE2" unicode="&#x1ee2;" horiz-adv-x="1685" 
d="M1587 760q0 -367 -205 -578t-548 -211t-547.5 211t-204.5 578t204.5 577.5t547.5 210.5q168 0 307 -53h6q89 0 128.5 42.5t39.5 125.5q0 40 -12 94h325q17 -82 17 -133q0 -258 -234 -319q176 -207 176 -545zM834 326q151 0 236 114t85 320t-85 320t-236 114
q-150 0 -235 -114t-85 -320t85 -320t235 -114zM631 -440v305h405v-305h-405z" />
    <glyph glyph-name="uni1EE3" unicode="&#x1ee3;" horiz-adv-x="1349" 
d="M1235 567q0 -190 -76.5 -325t-208 -201t-303.5 -66q-129 0 -236.5 38.5t-186.5 111.5t-123 186t-44 256t44 256t123 186t186.5 111.5t236.5 38.5q143 0 258 -47q129 17 129 166q0 47 -14 94h328q16 -77 16 -133q0 -251 -223 -315q94 -147 94 -357zM647 283q91 0 143 73
t52 211t-52 211.5t-143 73.5q-92 0 -144 -73t-52 -212t52 -211.5t144 -72.5zM444 -440v305h406v-305h-406z" />
    <glyph glyph-name="uni1EE4" unicode="&#x1ee4;" horiz-adv-x="1589" 
d="M131 616v904h408v-897q0 -146 66.5 -221.5t193.5 -75.5t193.5 75.5t66.5 221.5v897h399v-904q0 -318 -168.5 -481.5t-498.5 -163.5t-495 163.5t-165 481.5zM592 -440v305h405v-305h-405z" />
    <glyph glyph-name="uni1EE5" unicode="&#x1ee5;" horiz-adv-x="1333" 
d="M848 0l-4 164q-121 -189 -352 -189q-183 0 -282 110.5t-99 311.5v738h385v-658q0 -176 143 -176q72 0 120 37.5t72 99.5v697h386v-1135h-369zM465 -440v305h405v-305h-405z" />
    <glyph glyph-name="uni1EE6" unicode="&#x1ee6;" horiz-adv-x="1589" 
d="M821 1610l-159 133q180 57 180 125q0 49 -84 49q-107 0 -211 -72l-45 226q136 73 303 73q150 0 237.5 -58.5t87.5 -174.5q0 -108 -79 -177t-230 -124zM131 616v904h408v-897q0 -146 66.5 -221.5t193.5 -75.5t193.5 75.5t66.5 221.5v897h399v-904q0 -318 -168.5 -481.5
t-498.5 -163.5t-495 163.5t-165 481.5z" />
    <glyph glyph-name="uni1EE7" unicode="&#x1ee7;" horiz-adv-x="1333" 
d="M694 1223l-159 131q180 57 180 127q0 47 -84 47q-111 0 -211 -72l-45 227q138 74 303 74q150 0 238 -59t88 -174q0 -109 -79 -177.5t-231 -123.5zM848 0l-4 164q-121 -189 -352 -189q-183 0 -282 110.5t-99 311.5v738h385v-658q0 -176 143 -176q72 0 120 37.5t72 99.5
v697h386v-1135h-369z" />
    <glyph glyph-name="uni1EE8" unicode="&#x1ee8;" horiz-adv-x="1662" 
d="M733 1618l-221 102l360 336l336 -155zM1059 623v897h186q74 0 103.5 36t29.5 107q0 40 -12 94h326q16 -58 16 -133q0 -259 -250 -303v-705q0 -318 -168.5 -481.5t-498.5 -163.5t-495 163.5t-165 481.5v904h408v-897q0 -146 66.5 -221.5t193.5 -75.5t193.5 75.5
t66.5 221.5z" />
    <glyph glyph-name="uni1EE9" unicode="&#x1ee9;" horiz-adv-x="1437" 
d="M721 1249l-242 47l240 428l348 -69zM831 438v697h177q68 0 99.5 34t31.5 109q0 36 -13 94h326q16 -77 16 -133q0 -261 -251 -305v-934h-369l-4 164q-121 -189 -352 -189q-183 0 -282 110.5t-99 311.5v738h385v-658q0 -176 143 -176q72 0 120 37.5t72 99.5z" />
    <glyph glyph-name="uni1EEA" unicode="&#x1eea;" horiz-adv-x="1662" 
d="M856 1618l-475 283l336 155l360 -336zM1059 623v897h186q74 0 103.5 36t29.5 107q0 40 -12 94h326q16 -58 16 -133q0 -259 -250 -303v-705q0 -318 -168.5 -481.5t-498.5 -163.5t-495 163.5t-165 481.5v904h408v-897q0 -146 66.5 -221.5t193.5 -75.5t193.5 75.5
t66.5 221.5z" />
    <glyph glyph-name="uni1EEB" unicode="&#x1eeb;" horiz-adv-x="1437" 
d="M614 1249l-346 406l348 69l240 -428zM831 438v697h177q68 0 99.5 34t31.5 109q0 36 -13 94h326q16 -77 16 -133q0 -261 -251 -305v-934h-369l-4 164q-121 -189 -352 -189q-183 0 -282 110.5t-99 311.5v738h385v-658q0 -176 143 -176q72 0 120 37.5t72 99.5z" />
    <glyph glyph-name="uni1EEC" unicode="&#x1eec;" horiz-adv-x="1662" 
d="M821 1610l-159 133q180 57 180 125q0 49 -84 49q-107 0 -211 -72l-45 226q136 73 303 73q150 0 237.5 -58.5t87.5 -174.5q0 -108 -79 -177t-230 -124zM1059 623v897h186q74 0 103.5 36t29.5 107q0 40 -12 94h326q16 -58 16 -133q0 -259 -250 -303v-705
q0 -318 -168.5 -481.5t-498.5 -163.5t-495 163.5t-165 481.5v904h408v-897q0 -146 66.5 -221.5t193.5 -75.5t193.5 75.5t66.5 221.5z" />
    <glyph glyph-name="uni1EED" unicode="&#x1eed;" horiz-adv-x="1437" 
d="M694 1223l-159 131q180 57 180 127q0 47 -84 47q-111 0 -211 -72l-45 227q138 74 303 74q150 0 238 -59t88 -174q0 -109 -79 -177.5t-231 -123.5zM831 438v697h177q68 0 99.5 34t31.5 109q0 36 -13 94h326q16 -77 16 -133q0 -261 -251 -305v-934h-369l-4 164
q-121 -189 -352 -189q-183 0 -282 110.5t-99 311.5v738h385v-658q0 -176 143 -176q72 0 120 37.5t72 99.5z" />
    <glyph glyph-name="uni1EEE" unicode="&#x1eee;" horiz-adv-x="1662" 
d="M555 1655l-262 20q0 185 81.5 276t211.5 91q106 0 243 -72q82 -45 125 -45q80 0 80 131l262 -20q0 -185 -81 -276t-211 -91q-108 0 -244 72q-82 45 -125 45q-80 0 -80 -131zM1059 623v897h186q74 0 103.5 36t29.5 107q0 40 -12 94h326q16 -58 16 -133q0 -259 -250 -303
v-705q0 -318 -168.5 -481.5t-498.5 -163.5t-495 163.5t-165 481.5v904h408v-897q0 -146 66.5 -221.5t193.5 -75.5t193.5 75.5t66.5 221.5z" />
    <glyph glyph-name="uni1EEF" unicode="&#x1eef;" horiz-adv-x="1437" 
d="M444 1354l-262 18q0 186 77.5 277.5t205.5 91.5q104 0 237 -74q77 -43 117 -43q72 0 72 129l262 -18q0 -186 -77.5 -277.5t-205.5 -91.5q-112 0 -237 72q-78 45 -117 45q-72 0 -72 -129zM831 438v697h177q68 0 99.5 34t31.5 109q0 36 -13 94h326q16 -77 16 -133
q0 -261 -251 -305v-934h-369l-4 164q-121 -189 -352 -189q-183 0 -282 110.5t-99 311.5v738h385v-658q0 -176 143 -176q72 0 120 37.5t72 99.5z" />
    <glyph glyph-name="uni1EF0" unicode="&#x1ef0;" horiz-adv-x="1662" 
d="M1059 623v897h186q74 0 103.5 36t29.5 107q0 40 -12 94h326q16 -58 16 -133q0 -259 -250 -303v-705q0 -318 -168.5 -481.5t-498.5 -163.5t-495 163.5t-165 481.5v904h408v-897q0 -146 66.5 -221.5t193.5 -75.5t193.5 75.5t66.5 221.5zM592 -440v305h405v-305h-405z" />
    <glyph glyph-name="uni1EF1" unicode="&#x1ef1;" horiz-adv-x="1437" 
d="M831 438v697h177q68 0 99.5 34t31.5 109q0 36 -13 94h326q16 -77 16 -133q0 -261 -251 -305v-934h-369l-4 164q-121 -189 -352 -189q-183 0 -282 110.5t-99 311.5v738h385v-658q0 -176 143 -176q72 0 120 37.5t72 99.5zM465 -440v305h405v-305h-405z" />
    <glyph glyph-name="Ygrave" unicode="&#x1ef2;" horiz-adv-x="1460" 
d="M791 1618l-476 283l336 155l361 -336zM1479 1520l-545 -992v-528h-408v526l-544 994h479l276 -607l277 607h465z" />
    <glyph glyph-name="ygrave" unicode="&#x1ef3;" horiz-adv-x="1294" 
d="M604 1249l-346 406l348 69l240 -428zM879 12q-52 -141 -111 -236t-131 -149t-151 -76t-183 -22q-112 0 -231 35l30 311q85 -29 160 -29q74 0 116.5 27t76.5 94l-443 1168h437l217 -779l215 779h407z" />
    <glyph glyph-name="uni1EF4" unicode="&#x1ef4;" horiz-adv-x="1460" 
d="M1479 1520l-545 -992v-528h-408v526l-544 994h479l276 -607l277 607h465zM526 -440v305h406v-305h-406z" />
    <glyph glyph-name="uni1EF5" unicode="&#x1ef5;" horiz-adv-x="1294" 
d="M879 12q-52 -141 -111 -236t-131 -149t-151 -76t-183 -22q-112 0 -231 35l30 311q85 -29 160 -29q74 0 116.5 27t76.5 94l-443 1168h437l217 -779l215 779h407zM885 -440v305h405v-305h-405z" />
    <glyph glyph-name="uni1EF6" unicode="&#x1ef6;" horiz-adv-x="1460" 
d="M756 1610l-160 133q180 57 180 125q0 49 -84 49q-107 0 -211 -72l-45 226q136 73 303 73q151 0 238.5 -58.5t87.5 -174.5q0 -108 -79 -177t-230 -124zM1479 1520l-545 -992v-528h-408v526l-544 994h479l276 -607l277 607h465z" />
    <glyph glyph-name="uni1EF7" unicode="&#x1ef7;" horiz-adv-x="1294" 
d="M684 1223l-160 131q181 57 181 127q0 47 -84 47q-111 0 -211 -72l-45 227q138 74 303 74q150 0 237.5 -59t87.5 -174q0 -109 -78.5 -177.5t-230.5 -123.5zM879 12q-52 -141 -111 -236t-131 -149t-151 -76t-183 -22q-112 0 -231 35l30 311q85 -29 160 -29q74 0 116.5 27
t76.5 94l-443 1168h437l217 -779l215 779h407z" />
    <glyph glyph-name="uni1EF8" unicode="&#x1ef8;" horiz-adv-x="1460" 
d="M489 1614l-262 20q0 185 81.5 276t211.5 91q107 0 244 -72q82 -45 125 -45q80 0 80 131l262 -20q0 -185 -81.5 -276t-211.5 -91q-108 0 -244 72q-82 45 -125 45q-80 0 -80 -131zM1479 1520l-545 -992v-528h-408v526l-544 994h479l276 -607l277 607h465z" />
    <glyph glyph-name="uni1EF9" unicode="&#x1ef9;" horiz-adv-x="1294" 
d="M434 1255l-262 19q0 186 77.5 277t205.5 91q106 0 237 -73q77 -43 117 -43q72 0 72 129l262 -19q0 -186 -77.5 -277t-205.5 -91q-107 0 -237 71q-78 45 -117 45q-72 0 -72 -129zM879 12q-52 -141 -111 -236t-131 -149t-151 -76t-183 -22q-112 0 -231 35l30 311
q85 -29 160 -29q74 0 116.5 27t76.5 94l-443 1168h437l217 -779l215 779h407z" />
    <glyph glyph-name="uni2002" unicode="&#x2002;" horiz-adv-x="1024" 
 />
    <glyph glyph-name="uni2003" unicode="&#x2003;" horiz-adv-x="2048" 
 />
    <glyph glyph-name="uni2004" unicode="&#x2004;" horiz-adv-x="681" 
 />
    <glyph glyph-name="uni2005" unicode="&#x2005;" horiz-adv-x="512" 
 />
    <glyph glyph-name="uni2006" unicode="&#x2006;" horiz-adv-x="339" 
 />
    <glyph glyph-name="uni2007" unicode="&#x2007;" 
 />
    <glyph glyph-name="uni2009" unicode="&#x2009;" horiz-adv-x="256" 
 />
    <glyph glyph-name="uni200A" unicode="&#x200a;" horiz-adv-x="81" 
 />
    <glyph glyph-name="uni200C" unicode="&#x200c;" horiz-adv-x="0" 
 />
    <glyph glyph-name="uni2010" unicode="&#x2010;" horiz-adv-x="950" 
d="M102 455v354h746v-354h-746z" />
    <glyph glyph-name="figuredash" unicode="&#x2012;" 
d="M139 467v332h1012v-332h-1012z" />
    <glyph glyph-name="endash" unicode="&#x2013;" horiz-adv-x="1228" 
d="M109 467v332h1011v-332h-1011z" />
    <glyph glyph-name="emdash" unicode="&#x2014;" horiz-adv-x="2048" 
d="M109 467v332h1830v-332h-1830z" />
    <glyph glyph-name="uni2015" unicode="&#x2015;" horiz-adv-x="2048" 
d="M0 467v332h2048v-332h-2048z" />
    <glyph glyph-name="underscoredbl" unicode="&#x2017;" horiz-adv-x="1310" 
d="M31 -317v258h1249v-258h-1249zM31 -678v258h1249v-258h-1249z" />
    <glyph glyph-name="quoteleft" unicode="&#x2018;" horiz-adv-x="692" 
d="M623 1593q-129 -261 -129 -579q0 -100 2 -135h-367q-2 35 -2 135q0 326 170 579h326z" />
    <glyph glyph-name="quoteright" unicode="&#x2019;" horiz-adv-x="692" 
d="M70 879q129 261 129 579q0 100 -2 135h366q2 -35 2 -135q0 -326 -170 -579h-325z" />
    <glyph glyph-name="quotesinglbase" unicode="&#x201a;" horiz-adv-x="692" 
d="M70 -258q129 261 129 580q0 100 -2 135h366q2 -35 2 -135q0 -327 -170 -580h-325z" />
    <glyph glyph-name="quotereversed" unicode="&#x201b;" horiz-adv-x="692" 
d="M623 879h-328q-168 254 -168 579q0 100 2 135h367q-2 -35 -2 -135q0 -324 129 -579z" />
    <glyph glyph-name="quotedblleft" unicode="&#x201c;" horiz-adv-x="1226" 
d="M1157 1593q-129 -261 -129 -579q0 -100 2 -135h-366q-2 35 -2 135q0 328 169 579h326zM623 1593q-129 -261 -129 -579q0 -100 2 -135h-367q-2 35 -2 135q0 326 170 579h326z" />
    <glyph glyph-name="quotedblright" unicode="&#x201d;" horiz-adv-x="1226" 
d="M606 879q129 261 129 579q0 100 -2 135h367q2 -35 2 -135q0 -326 -170 -579h-326zM70 879q129 261 129 579q0 100 -2 135h366q2 -35 2 -135q0 -326 -170 -579h-325z" />
    <glyph glyph-name="quotedblbase" unicode="&#x201e;" horiz-adv-x="1226" 
d="M606 -258q129 261 129 580q0 100 -2 135h367q2 -35 2 -135q0 -327 -170 -580h-326zM70 -258q129 261 129 580q0 100 -2 135h366q2 -35 2 -135q0 -327 -170 -580h-325z" />
    <glyph glyph-name="uni201F" unicode="&#x201f;" horiz-adv-x="1226" 
d="M623 879h-328q-168 254 -168 579q0 100 2 135h367q-2 -35 -2 -135q0 -324 129 -579zM1159 879h-328q-167 253 -167 579q0 100 2 135h366q-2 -35 -2 -135q0 -324 129 -579z" />
    <glyph glyph-name="dagger" unicode="&#x2020;" horiz-adv-x="1128" 
d="M1006 940l-334 47l55 -987h-326l56 987l-334 -47v326l326 -45l-48 372h326l-47 -372l326 45v-326z" />
    </font>
</defs>
</svg>
