<?xml version="1.0" standalone="no"?>
<!DOCTYPE svg PUBLIC "-//W3C//DTD SVG 1.1//EN" "http://www.w3.org/Graphics/SVG/1.1/DTD/svg11.dtd" >
<svg xmlns="http://www.w3.org/2000/svg" xmlns:xlink="http://www.w3.org/1999/xlink" version="1.1">
<metadata>
Created by FontForge 20170731 at Tue Jul 21 14:26:14 2020
 By Aleksey,,,
Copyright (c) 2018 by Morisawa In.. All rights reserved.
</metadata>
<defs>
<font id="ClarimoUDPE-UltraItalic" horiz-adv-x="1290" >
  <font-face 
    font-family="Clarimo UD PE Ultra"
    font-weight="900"
    font-style="italic"
    font-stretch="normal"
    units-per-em="2048"
    panose-1="2 11 10 0 0 0 0 0 0 0"
    ascent="1593"
    descent="-455"
    x-height="1147"
    cap-height="1520"
    bbox="-612 -709 2908 2486"
    underline-thickness="102"
    underline-position="-409"
    slope="-11.31"
    unicode-range="U+0020-FB04"
  />
<missing-glyph horiz-adv-x="1024" 
d="M0 0v1434h1024v-1434h-1024zM512 809l348 522h-696zM573 717l349 -522v1044zM164 102h696l-348 523zM102 1239v-1044l349 522z" />
    <glyph glyph-name=".notdef" horiz-adv-x="1024" 
d="M0 0v1434h1024v-1434h-1024zM512 809l348 522h-696zM573 717l349 -522v1044zM164 102h696l-348 523zM102 1239v-1044l349 522z" />
    <glyph glyph-name=".null" horiz-adv-x="0" 
 />
    <glyph glyph-name="nonmarkingreturn" horiz-adv-x="682" 
 />
    <glyph glyph-name="space" unicode=" " horiz-adv-x="409" 
 />
    <glyph glyph-name="space" unicode="&#xa0;" horiz-adv-x="409" 
 />
    <glyph glyph-name="exclam" unicode="!" horiz-adv-x="819" 
d="M223 475l78 860l37 185h516l-37 -185l-266 -860h-328zM57 0l72 360h467l-72 -360h-467z" />
    <glyph glyph-name="quotedbl" unicode="&#x22;" horiz-adv-x="1212" 
d="M735 868l131 721l2 4h420v-4l-254 -721h-299zM215 868l131 721l2 4h420v-4l-254 -721h-299z" />
    <glyph glyph-name="numbersign" unicode="#" horiz-adv-x="1564" 
d="M659 0l109 324h-172l-109 -324h-342l109 324h-242l68 331h285l67 209h-244l68 332h287l108 324h342l-108 -324h172l108 324h342l-108 -324h241l-67 -332h-285l-67 -209h243l-67 -331h-287l-109 -324h-342zM707 655h172l67 209h-172z" />
    <glyph glyph-name="dollar" unicode="$" 
d="M1225 506q0 -213 -147 -347.5t-427 -154.5l-41 -205h-217l41 207q-260 20 -465 141l109 373q194 -129 428 -158l49 246q-66 17 -114.5 34.5t-104.5 50.5t-92 74t-60 105.5t-24 145.5q0 208 149 343t426 155l39 200h217l-41 -203q221 -18 393 -110l-108 -373
q-152 104 -354 129l-47 -233q62 -15 110 -32t103.5 -50.5t92 -76t61 -110t24.5 -151.5zM537 1065q0 -32 21.5 -52t68.5 -36l37 184q-127 -18 -127 -96zM848 465q0 62 -88 90l-37 -190q125 20 125 100z" />
    <glyph glyph-name="percent" unicode="%" horiz-adv-x="2084" 
d="M481 614q-164 0 -255 93.5t-91 263.5q0 66 12.5 137t46 151.5t84.5 143t136.5 104t193.5 41.5q165 0 255.5 -93t90.5 -263q0 -46 -6 -95t-22 -106.5t-39.5 -110t-61.5 -101.5t-85.5 -85.5t-114 -58t-144.5 -21.5zM252 0l1331 1520h324l-1332 -1520h-323zM500 860
q38 0 63.5 46t48.5 157q23 117 23 170q0 70 -45 70q-38 0 -64 -46.5t-49 -156.5q-22 -112 -22 -170q0 -70 45 -70zM1546 -37q-165 0 -255.5 93t-90.5 263q0 46 6 95t22 106.5t39.5 110t61.5 101.5t85.5 85.5t114 58t144.5 21.5q165 0 255.5 -93t90.5 -263q0 -46 -6 -95
t-22 -106.5t-39.5 -110t-61.5 -101.5t-85.5 -85.5t-114 -58t-144.5 -21.5zM1565 209q38 0 63.5 46t48.5 157q23 117 23 170q0 69 -45 69q-38 0 -64 -46t-49 -156q-22 -112 -22 -170q0 -70 45 -70z" />
    <glyph glyph-name="ampersand" unicode="&#x26;" horiz-adv-x="1572" 
d="M1004 0l-72 94q-173 -123 -430 -123q-223 0 -349 94.5t-126 272.5q0 157 101 273.5t278 189.5q-59 91 -86 161.5t-27 153.5q0 197 139 314.5t391 117.5q226 0 351.5 -95t125.5 -259q0 -144 -95 -247t-273 -181l106 -141q83 103 144 231l303 -254q-100 -128 -242 -250
l264 -352h-503zM707 1116q0 -31 16 -61.5t53 -79.5q111 57 111 149q0 41 -21.5 62.5t-60.5 21.5q-42 0 -70 -25t-28 -67zM481 442q0 -57 35 -85.5t98 -28.5q66 0 119 32l-168 224q-84 -49 -84 -142z" />
    <glyph glyph-name="quotesingle" unicode="'" horiz-adv-x="692" 
d="M215 868l131 721l2 4h420v-4l-254 -721h-299z" />
    <glyph glyph-name="parenleft" unicode="(" horiz-adv-x="983" 
d="M535 -397q-61 55 -111 109t-104 134.5t-90.5 166t-60.5 200t-24 240.5q0 197 56 382.5t156 338.5t237 276t301 205l174 -269q-241 -137 -391 -383t-150 -554q0 -202 63.5 -361.5t164.5 -257.5z" />
    <glyph glyph-name="parenright" unicode=")" horiz-adv-x="983" 
d="M471 1655q61 -54 111 -108.5t104 -135t90.5 -166t60 -200t23.5 -240.5q0 -262 -97 -499.5t-264.5 -414.5t-387.5 -288l-174 268q241 137 390.5 383.5t149.5 554.5q0 202 -63 361t-164 257z" />
    <glyph glyph-name="asterisk" unicode="*" horiz-adv-x="1282" 
d="M1128 737l-323 -205l-100 328l-238 -328l-254 218l309 256l-340 59l176 330l287 -156l19 354h360l-123 -354l350 160l43 -342l-364 -60z" />
    <glyph glyph-name="plus" unicode="+" 
d="M1206 465h-389v-412h-344v412h-389v344h389v412h344v-412h389v-344z" />
    <glyph glyph-name="comma" unicode="," horiz-adv-x="704" 
d="M152 -332l-349 80q302 343 320 756h434q0 -477 -405 -836z" />
    <glyph glyph-name="hyphen" unicode="-" horiz-adv-x="917" 
d="M66 442l77 389h734l-78 -389h-733z" />
    <glyph glyph-name="hyphen" unicode="&#xad;" horiz-adv-x="917" 
d="M66 442l77 389h734l-78 -389h-733z" />
    <glyph glyph-name="period" unicode="." horiz-adv-x="704" 
d="M-8 0l98 492h492l-99 -492h-491z" />
    <glyph glyph-name="slash" unicode="/" horiz-adv-x="1085" 
d="M-250 -340l1110 1933h397l-1110 -1933h-397z" />
    <glyph glyph-name="zero" unicode="0" 
d="M555 -29q-239 0 -369.5 137.5t-130.5 393.5q0 86 9 175.5t33 194t60.5 198.5t96.5 183t136 153t184 103t235 39q239 0 369.5 -137.5t130.5 -392.5q0 -86 -9 -175.5t-33 -194t-60.5 -198.5t-96.5 -183t-136 -153.5t-184 -103.5t-235 -39zM598 344q72 0 124.5 93.5
t94.5 305.5q37 182 37 287q0 146 -88 146q-72 0 -124.5 -94t-94.5 -306q-37 -182 -37 -287q0 -145 88 -145z" />
    <glyph glyph-name="one" unicode="1" 
d="M1200 360l-72 -360h-1073l72 360h324l131 652q-117 -75 -263 -144l-145 316q308 134 559 344h385l-233 -1168h315z" />
    <glyph glyph-name="two" unicode="2" 
d="M1176 389l-78 -389h-1135l74 369l463 303q181 119 260.5 199t79.5 165q0 60 -37 91.5t-105 31.5q-93 0 -188 -58.5t-168 -150.5l-127 348q247 250 629 250q224 0 343.5 -103t119.5 -306q0 -213 -130.5 -369t-406.5 -303l-145 -78h551z" />
    <glyph glyph-name="three" unicode="3" 
d="M1204 479q0 -233 -197 -370.5t-526 -137.5q-159 0 -295.5 35.5t-220.5 97.5l156 404q135 -148 362 -148q119 0 186.5 40t67.5 106q0 55 -54 81.5t-187 26.5h-193l62 312h165q140 0 224 39.5t84 107.5q0 86 -148 86q-182 0 -336 -123l-127 348q249 164 592 164
q239 0 362.5 -94.5t123.5 -243.5q0 -169 -93.5 -277.5t-263.5 -150.5q127 -32 191.5 -105.5t64.5 -197.5z" />
    <glyph glyph-name="four" unicode="4" 
d="M1198 270h-162l-53 -270h-426l53 270h-641l76 381l801 877h442l-180 -901h160zM410 627h272l78 385z" />
    <glyph glyph-name="five" unicode="5" 
d="M1210 551q0 -279 -194 -429.5t-533 -150.5q-159 0 -295.5 35.5t-220.5 97.5l156 404q135 -148 362 -148q120 0 187 41.5t67 114.5q0 42 -25 68.5t-93.5 41.5t-186.5 15q-142 0 -272 -18l178 897h999l-77 -390h-633l-35 -174q65 7 123 7q493 0 493 -412z" />
    <glyph glyph-name="six" unicode="6" 
d="M1264 602q0 -127 -49.5 -242t-136 -201t-212 -137t-270.5 -51q-258 0 -392 148t-134 424q0 306 115 533.5t328.5 349.5t500.5 122q202 0 327 -41l-96 -364q-99 37 -256 37t-256.5 -70t-148.5 -221q142 115 321 115q168 0 263.5 -108t95.5 -294zM532 498
q0 -77 27.5 -117.5t79.5 -40.5q69 0 115.5 67.5t46.5 165.5q0 119 -94 119q-100 0 -170 -96q-5 -87 -5 -98z" />
    <glyph glyph-name="seven" unicode="7" 
d="M1358 1157q-261 -237 -455.5 -534.5t-304.5 -622.5h-487q216 639 727 1130h-670l78 390h1184z" />
    <glyph glyph-name="eight" unicode="8" 
d="M1221 467q0 -162 -89 -277.5t-239 -171t-346 -55.5q-259 0 -402 98t-143 273q0 143 92 247.5t258 163.5q-168 125 -168 326q0 153 83.5 264t227 166t330.5 55q242 0 376 -93t134 -259q0 -130 -83 -228t-232 -155q94 -59 147.5 -143t53.5 -211zM635 1085q0 -41 31.5 -72.5
t91.5 -62.5q127 56 127 156q0 45 -28.5 71.5t-80.5 26.5q-60 0 -100.5 -35.5t-40.5 -83.5zM453 428q0 -55 37.5 -84t103.5 -29q82 0 129 42t47 96q0 51 -40 86.5t-120 72.5q-79 -32 -118 -81t-39 -103z" />
    <glyph glyph-name="nine" unicode="9" 
d="M1294 973q0 -304 -115 -531t-328.5 -349t-500.5 -122q-202 0 -327 41l96 365q99 -37 256 -37q151 0 245.5 62t143.5 200q-124 -86 -277 -86q-178 0 -282.5 111.5t-104.5 304.5q0 98 31 190t91 169t141 134.5t186.5 90t222.5 32.5q248 0 385 -142t137 -433zM563 956
q0 -129 105 -129q94 0 155 78q8 90 8 129q0 146 -102 146q-73 0 -119.5 -66t-46.5 -158z" />
    <glyph glyph-name="colon" unicode=":" horiz-adv-x="802" 
d="M172 655l98 492h492l-98 -492h-492zM41 0l98 492h492l-99 -492h-491z" />
    <glyph glyph-name="semicolon" unicode=";" horiz-adv-x="802" 
d="M172 655l98 492h492l-98 -492h-492zM201 -332l-348 80q301 342 319 756h434q0 -477 -405 -836z" />
    <glyph glyph-name="less" unicode="&#x3c;" 
d="M1137 422v-377l-1012 451v282l1012 451v-377l-605 -215z" />
    <glyph glyph-name="equal" unicode="=" 
d="M109 711v344h1073v-344h-1073zM109 219v344h1073v-344h-1073z" />
    <glyph glyph-name="greater" unicode="&#x3e;" 
d="M1165 496l-1011 -451v377l604 215l-604 215v377l1011 -451v-282z" />
    <glyph glyph-name="question" unicode="?" horiz-adv-x="1224" 
d="M305 475l6 33q15 80 44.5 146t61.5 108t77 77.5t77.5 54t77.5 38.5t65 30.5t47.5 29.5t38.5 40.5t11 48.5q0 44 -29.5 61t-85.5 17q-216 0 -358 -180l-127 350q115 106 273 162.5t335 56.5q84 0 153.5 -13t130 -42.5t102.5 -75t65.5 -114t23.5 -156.5q0 -74 -17.5 -135
t-43.5 -101.5t-68.5 -76t-78.5 -56t-87 -43.5q-43 -19 -56 -25.5t-49.5 -24t-50 -27.5t-38.5 -29t-36.5 -35t-23 -38.5t-16.5 -47.5l-6 -33h-418zM190 0l72 360h467l-72 -360h-467z" />
    <glyph glyph-name="at" unicode="@" horiz-adv-x="2172" 
d="M1737 -178q-309 -203 -701 -203q-287 0 -487.5 107t-298.5 299.5t-98 457.5q0 233 77.5 436.5t217.5 353t347 235t455 85.5q380 0 595.5 -198t215.5 -561q0 -175 -51.5 -321.5t-135.5 -239.5t-187 -144t-211 -51q-106 0 -168 47.5t-68 134.5q-68 -93 -161 -137.5
t-193 -44.5q-152 0 -244 99t-92 294q0 102 25.5 202t75.5 187t116.5 154.5t155.5 106t186 38.5q96 0 148 -35t79 -94l58 100h299l-191 -634q-14 -49 -14 -82q0 -70 63 -70q95 0 175.5 129t80.5 336q0 261 -143.5 404t-419.5 143q-188 0 -346 -68t-265 -185.5t-166.5 -277
t-59.5 -340.5q0 -296 162.5 -462t494.5 -166q354 0 641 204zM913 510q0 -65 21 -93t65 -28q109 0 162 176l68 226q-33 57 -101 57q-61 0 -111.5 -52.5t-77 -129.5t-26.5 -156z" />
    <glyph glyph-name="A" unicode="A" horiz-adv-x="1605" 
d="M1004 0l-17 250h-469l-112 -250h-525l803 1520h614l197 -1520h-491zM682 614h279l-37 541z" />
    <glyph glyph-name="B" unicode="B" horiz-adv-x="1548" 
d="M1454 459q0 -69 -18.5 -131.5t-65 -123.5t-117.5 -105.5t-183.5 -71.5t-254.5 -27h-799l303 1520h742q243 0 351 -90.5t108 -255.5q0 -66 -16.5 -124t-53.5 -112.5t-104.5 -96t-161.5 -63.5q270 -69 270 -319zM915 1159h-229l-47 -241h246q86 0 125 42t39 101
q0 52 -33.5 75t-100.5 23zM846 618h-268l-50 -253h279q88 0 132 41.5t44 105.5q0 106 -137 106z" />
    <glyph glyph-name="C" unicode="C" horiz-adv-x="1421" 
d="M1288 113q-82 -60 -218 -101t-306 -41q-322 0 -491 161.5t-169 477.5q0 145 35 280t109 255t181 209.5t260.5 141.5t336.5 52q298 0 461 -127l-156 -409q-115 143 -305 143q-129 0 -230.5 -70t-154.5 -182.5t-53 -243.5q0 -149 71.5 -221.5t204.5 -72.5q105 0 208 43
t183 116z" />
    <glyph glyph-name="D" unicode="D" horiz-adv-x="1597" 
d="M1569 922q0 -204 -63 -373.5t-180 -291.5t-294 -189.5t-397 -67.5h-619l303 1520h566q190 0 323.5 -39t212 -118t113.5 -186.5t35 -254.5zM807 1149h-102l-156 -776h125q83 0 152.5 26.5t117.5 72.5t81.5 109.5t49 137t15.5 155.5q0 150 -62.5 212.5t-220.5 62.5z" />
    <glyph glyph-name="E" unicode="E" horiz-adv-x="1343" 
d="M1221 377l-76 -377h-1129l303 1520h1113l-74 -373h-656l-38 -197h571l-72 -356h-571l-43 -217h672z" />
    <glyph glyph-name="F" unicode="F" 
d="M1128 520h-548l-105 -520h-459l303 1520h1098l-74 -373h-638l-54 -270h549z" />
    <glyph glyph-name="G" unicode="G" horiz-adv-x="1589" 
d="M1389 113q-98 -60 -252 -101t-340 -41q-693 0 -693 647q0 146 33.5 278.5t109 252.5t185.5 208t274 139.5t365 51.5q333 0 531 -127l-156 -409q-63 63 -162 103t-221 40q-117 0 -209.5 -40t-149.5 -109.5t-86.5 -159t-29.5 -193.5q0 -149 68.5 -218.5t232.5 -69.5
q81 0 147 14l35 178h-254l66 324h659z" />
    <glyph glyph-name="H" unicode="H" horiz-adv-x="1613" 
d="M909 0l117 584h-434l-117 -584h-459l303 1520h459l-110 -557h434l110 557h459l-303 -1520h-459z" />
    <glyph glyph-name="I" unicode="I" horiz-adv-x="720" 
d="M16 0l303 1520h459l-303 -1520h-459z" />
    <glyph glyph-name="J" unicode="J" horiz-adv-x="993" 
d="M-109 37l99 387q101 -59 194 -59q94 0 152.5 60.5t89.5 213.5l176 881h459l-197 -983q-31 -155 -88.5 -265t-141 -175.5t-185.5 -95.5t-232 -30q-106 0 -178.5 17t-147.5 49z" />
    <glyph glyph-name="K" unicode="K" horiz-adv-x="1609" 
d="M981 0l-262 526l-170 -151l-74 -375h-459l303 1520h459l-123 -615l557 615h603v-4l-766 -691l467 -821v-4h-535z" />
    <glyph glyph-name="L" unicode="L" horiz-adv-x="1220" 
d="M1153 377l-76 -377h-1061l303 1520h459l-229 -1143h604z" />
    <glyph glyph-name="M" unicode="M" horiz-adv-x="2121" 
d="M782 0l-137 1020l-205 -1020h-424l303 1520h615l123 -914l467 914h655l-303 -1520h-438l204 1024l-528 -1024h-332z" />
    <glyph glyph-name="N" unicode="N" horiz-adv-x="1630" 
d="M950 0l-338 805l-161 -805h-435l303 1520h435l338 -805l161 805h435l-304 -1520h-434z" />
    <glyph glyph-name="O" unicode="O" horiz-adv-x="1630" 
d="M731 -29q-296 0 -463.5 165t-167.5 460q0 149 35.5 288t108.5 259.5t175.5 211t245 142t308.5 51.5q296 0 463.5 -164.5t167.5 -459.5q0 -149 -35.5 -288t-108.5 -260t-175.5 -211t-245 -142t-308.5 -52zM780 365q80 0 146 48.5t107.5 127t64 172t22.5 188.5
q0 254 -196 254q-79 0 -145.5 -48.5t-108 -127t-64 -172.5t-22.5 -189q0 -253 196 -253z" />
    <glyph glyph-name="P" unicode="P" horiz-adv-x="1474" 
d="M750 414h-193l-82 -414h-459l303 1520h642q546 0 546 -469q0 -101 -24.5 -191.5t-82 -173t-143 -142.5t-215.5 -95t-292 -35zM856 1149h-151l-74 -367h151q132 0 193 64t61 158q0 74 -42 109.5t-138 35.5z" />
    <glyph glyph-name="Q" unicode="Q" horiz-adv-x="1630" 
d="M1350 -406q-133 -81 -306 -81q-211 0 -342 122.5t-174 358.5q-204 51 -316 206.5t-112 395.5q0 149 35.5 288t108.5 259.5t175.5 211t245 142t308.5 51.5q296 0 463.5 -164.5t167.5 -459.5q0 -134 -29 -260.5t-88 -239.5t-143 -203t-200 -152t-253 -85q48 -82 235 -82
q162 0 263 49zM780 365q80 0 146 48.5t107.5 127t64 172t22.5 188.5q0 254 -196 254q-79 0 -145.5 -48.5t-108 -127t-64 -172.5t-22.5 -189q0 -253 196 -253z" />
    <glyph glyph-name="R" unicode="R" horiz-adv-x="1523" 
d="M907 0l-217 438h-127l-88 -438h-459l303 1520h633q274 0 410.5 -119t136.5 -336q0 -187 -102 -337t-285 -226l318 -502h-523zM852 1149h-147l-70 -350h151q120 0 181 57t61 148q0 76 -44.5 110.5t-131.5 34.5z" />
    <glyph glyph-name="S" unicode="S" horiz-adv-x="1327" 
d="M-27 113l127 405q101 -75 224.5 -120.5t246.5 -45.5q103 0 146 29.5t43 73.5q0 58 -87 94q-34 14 -130 41q-56 16 -99.5 33.5t-92 50.5t-79.5 74t-52 105t-21 144q0 118 43.5 217.5t127 174.5t214.5 117t297 42q274 0 485 -110l-119 -406q-180 135 -391 135
q-98 0 -140 -27.5t-42 -68.5q0 -21 11.5 -38.5t28.5 -29.5t47.5 -24t57 -19.5t68.5 -17.5q55 -13 99 -30t93.5 -49.5t82.5 -74.5t55 -108t22 -148q0 -121 -44.5 -222.5t-130 -177.5t-220.5 -118.5t-307 -42.5q-319 0 -564 142z" />
    <glyph glyph-name="T" unicode="T" horiz-adv-x="1347" 
d="M1434 1147h-414l-229 -1147h-459l229 1147h-418l74 373h1290z" />
    <glyph glyph-name="U" unicode="U" horiz-adv-x="1568" 
d="M1638 1520l-180 -902q-66 -329 -257 -488t-513 -159q-286 0 -432.5 122t-146.5 353q0 73 20 183l178 891h455l-178 -891q-11 -64 -11 -92q0 -168 172 -168q107 0 171 64.5t90 195.5l178 891h454z" />
    <glyph glyph-name="V" unicode="V" horiz-adv-x="1523" 
d="M1716 1520l-803 -1520h-532l-197 1520h492l67 -1000l449 1000h524z" />
    <glyph glyph-name="W" unicode="W" horiz-adv-x="2265" 
d="M1210 0l-14 944l-371 -944h-508l-120 1520h487l4 -969l381 969h463l16 -965l369 965h528l-727 -1520h-508z" />
    <glyph glyph-name="X" unicode="X" horiz-adv-x="1540" 
d="M901 0l-164 440l-286 -440h-582l661 782l-350 738h541l158 -422l272 422h582l-650 -766l359 -754h-541z" />
    <glyph glyph-name="Y" unicode="Y" horiz-adv-x="1462" 
d="M1683 1520l-735 -1006l-102 -514h-459l107 537l-338 983h503l144 -578l332 578h548z" />
    <glyph glyph-name="Z" unicode="Z" horiz-adv-x="1363" 
d="M1255 377l-75 -377h-1229l67 336l791 811h-600l78 373h1179l-65 -328l-797 -815h651z" />
    <glyph glyph-name="bracketleft" unicode="[" horiz-adv-x="983" 
d="M776 -57l-57 -283h-701l388 1933h700l-57 -282h-320l-274 -1368h321z" />
    <glyph glyph-name="backslash" unicode="\" horiz-adv-x="1085" 
d="M963 -340h-381l-338 1933h381z" />
    <glyph glyph-name="bracketright" unicode="]" horiz-adv-x="983" 
d="M985 1593l-387 -1933h-700l57 283h319l275 1368h-322l58 282h700z" />
    <glyph glyph-name="asciicircum" unicode="^" horiz-adv-x="1187" 
d="M856 762l-127 432l-303 -432h-379l571 758h328l268 -758h-358z" />
    <glyph glyph-name="underscore" unicode="_" horiz-adv-x="1310" 
d="M-170 -426l66 328h1249l-66 -328h-1249z" />
    <glyph glyph-name="grave" unicode="`" horiz-adv-x="1024" 
d="M571 1257l-295 445l371 31l178 -445z" />
    <glyph glyph-name="a" unicode="a" horiz-adv-x="1255" 
d="M637 0l20 137q-136 -162 -344 -162q-142 0 -227.5 79.5t-85.5 232.5q0 204 164 318t473 114h117q4 28 4 41q0 51 -35.5 71.5t-122.5 20.5q-198 0 -381 -111l-16 324q97 50 233.5 78t282.5 28q479 0 479 -337q0 -56 -12 -117l-144 -717h-405zM508 279q117 0 180 116
l23 111h-54q-117 0 -180 -39t-63 -105q0 -83 94 -83z" />
    <glyph glyph-name="b" unicode="b" horiz-adv-x="1359" 
d="M1317 721q0 -145 -40.5 -279t-114.5 -238t-187 -166.5t-248 -62.5q-204 0 -303 146l-31 -121h-405l319 1593h434l-116 -579q67 80 146 118.5t181 38.5q178 0 271.5 -115t93.5 -335zM504 406q19 -43 54.5 -67t80.5 -24q98 0 164.5 102t66.5 234q0 164 -127 164
q-119 0 -184 -131z" />
    <glyph glyph-name="c" unicode="c" horiz-adv-x="1089" 
d="M956 90q-76 -52 -182.5 -83.5t-226.5 -31.5q-235 0 -369.5 125.5t-134.5 362.5q0 104 26 204t82 192t135.5 161t196.5 110t256 41q126 0 222.5 -31.5t154.5 -82.5l-125 -332q-90 98 -225 98q-72 0 -128 -28t-89.5 -74.5t-50.5 -101.5t-17 -113q0 -182 185 -182
q146 0 266 96z" />
    <glyph glyph-name="d" unicode="d" horiz-adv-x="1359" 
d="M737 0l25 156q-135 -181 -354 -181q-179 0 -272 115.5t-93 335.5q0 116 25.5 225.5t76 203.5t120 164.5t164 111t202.5 40.5q185 0 289 -116l108 538h434l-319 -1593h-406zM489 496q0 -164 125 -164q122 0 189 135l57 287q-19 34 -57 55.5t-82 21.5q-98 0 -165 -101.5
t-67 -233.5z" />
    <glyph glyph-name="e" unicode="e" horiz-adv-x="1257" 
d="M1114 82q-210 -107 -491 -107q-295 0 -437.5 119.5t-142.5 358.5q0 107 26.5 209t84 195t139.5 162.5t201 110.5t260 41q110 0 194 -25.5t135 -66t83.5 -99t44.5 -117t12 -126.5q0 -151 -56 -274h-690q3 -86 52.5 -127t191.5 -41q212 0 377 106zM717 885
q-148 0 -209 -193h307q14 25 14 74q0 119 -112 119z" />
    <glyph glyph-name="f" unicode="f" horiz-adv-x="909" 
d="M940 850h-252l-170 -850h-434l170 850h-174l59 297h174l13 61q20 98 59.5 172t89.5 118.5t116 72t130 37.5t141 10q151 0 264 -37l-92 -328q-53 29 -137 29q-62 0 -96.5 -21t-44.5 -73l-8 -41h251z" />
    <glyph glyph-name="g" unicode="g" horiz-adv-x="1359" 
d="M1147 20q-100 -495 -698 -495q-316 0 -504 123l94 323q65 -55 175 -91t226 -36q119 0 188 47t91 158l18 96q-127 -145 -321 -145q-181 0 -277 110t-96 326q0 141 41.5 273t115.5 235t187 165t246 62q202 0 303 -145l31 121h405zM489 506q0 -162 127 -162q122 0 189 135
l53 266q-18 41 -55 63.5t-82 22.5q-97 0 -164.5 -98.5t-67.5 -226.5z" />
    <glyph glyph-name="h" unicode="h" horiz-adv-x="1323" 
d="M557 676l-135 -676h-434l319 1593h434l-123 -600q151 178 361 178q135 0 213 -76.5t78 -230.5q0 -54 -17 -147l-143 -717h-434l135 676q6 27 6 51q0 80 -80 80q-51 0 -99 -32t-81 -99z" />
    <glyph glyph-name="i" unicode="i" horiz-adv-x="647" 
d="M238 1266l65 327h451l-66 -327h-450zM-8 0l229 1147h434l-229 -1147h-434z" />
    <glyph glyph-name="j" unicode="j" horiz-adv-x="663" 
d="M262 1266l66 327h450l-65 -327h-451zM-356 -422l94 336q67 -37 123 -37q62 0 105 41.5t63 142.5l217 1086h434l-207 -1034q-26 -133 -68.5 -234t-95 -166.5t-120 -107.5t-138.5 -59t-155 -17q-149 0 -252 49z" />
    <glyph glyph-name="k" unicode="k" horiz-adv-x="1339" 
d="M776 0l-180 373l-121 -109l-53 -264h-434l319 1593h434l-176 -882l375 436h530v-4l-565 -498l361 -641v-4h-490z" />
    <glyph glyph-name="l" unicode="l" horiz-adv-x="647" 
d="M-8 0l319 1593h434l-319 -1593h-434z" />
    <glyph glyph-name="m" unicode="m" horiz-adv-x="1994" 
d="M557 676l-135 -676h-434l229 1147h406l-27 -180q73 97 171 150.5t210 53.5q114 0 184 -56t90 -167q76 107 179 165t221 58q135 0 213 -76.5t78 -230.5q0 -54 -17 -147l-143 -717h-434l135 676q6 27 6 51q0 80 -76 80q-48 0 -95.5 -32.5t-80.5 -98.5l-135 -676h-434
l135 676q6 27 6 51q0 80 -76 80q-48 0 -95.5 -32.5t-80.5 -98.5z" />
    <glyph glyph-name="n" unicode="n" horiz-adv-x="1323" 
d="M557 676l-135 -676h-434l229 1147h406l-27 -178q74 98 172 150t211 52q135 0 213 -76.5t78 -230.5q0 -54 -17 -147l-143 -717h-434l135 676q6 27 6 51q0 80 -80 80q-51 0 -99 -32t-81 -99z" />
    <glyph glyph-name="o" unicode="o" horiz-adv-x="1294" 
d="M575 -25q-83 0 -157.5 15.5t-144 52t-120 91t-80.5 138.5t-30 189q0 107 26 209t81.5 193t133.5 159.5t190.5 108.5t244.5 40q83 0 157.5 -15.5t144 -51.5t120 -90.5t80.5 -138.5t30 -189q0 -107 -26 -209t-81.5 -193.5t-133.5 -160t-190.5 -108.5t-244.5 -40zM606 315
q63 0 112 56.5t72 137t23 165.5q0 157 -125 157q-63 0 -112 -56t-72 -136.5t-23 -165.5q0 -158 125 -158z" />
    <glyph glyph-name="p" unicode="p" horiz-adv-x="1359" 
d="M729 -25q-180 0 -289 113l-102 -510h-434l313 1569h406l-27 -172q132 196 358 196q177 0 270 -115t93 -335q0 -115 -25.5 -224.5t-76 -203.5t-120 -165.5t-164 -112t-202.5 -40.5zM559 684l-57 -291q17 -35 55 -56.5t82 -21.5q98 0 164.5 102t66.5 234q0 164 -125 164
q-121 0 -186 -131z" />
    <glyph glyph-name="q" unicode="q" horiz-adv-x="1359" 
d="M1372 1147l-313 -1569h-434l108 543q-131 -146 -323 -146q-180 0 -273.5 115.5t-93.5 335.5q0 116 25.5 225.5t76 203.5t120.5 164.5t165 111t203 40.5q205 0 303 -145l31 121h405zM489 496q0 -164 125 -164q121 0 189 133l55 280q-18 41 -55 63.5t-82 22.5
q-98 0 -165 -101.5t-67 -233.5z" />
    <glyph glyph-name="r" unicode="r" horiz-adv-x="962" 
d="M545 614l-123 -614h-434l229 1147h401l-32 -219q66 137 149.5 190t188.5 53q91 0 137 -24l-115 -402q-60 29 -139 29q-85 0 -156 -40.5t-106 -119.5z" />
    <glyph glyph-name="s" unicode="s" horiz-adv-x="1085" 
d="M-35 82l107 332q76 -59 171 -93t191 -34q127 0 127 61q0 20 -23.5 38t-56 29.5t-82.5 24.5q-44 12 -79 24.5t-75.5 38t-67 57.5t-44.5 82.5t-18 113.5q0 196 145.5 305.5t423.5 109.5q232 0 401 -88l-106 -331q-144 110 -303 110q-63 0 -95 -16t-32 -43q0 -15 10 -27.5
t34.5 -22.5t44.5 -16.5t60 -17.5q46 -12 81.5 -25.5t78 -40t70.5 -59.5t47.5 -85.5t19.5 -117.5q0 -197 -147 -306.5t-428 -109.5q-249 0 -455 107z" />
    <glyph glyph-name="t" unicode="t" horiz-adv-x="958" 
d="M817 37q-153 -62 -323 -62q-349 0 -349 312q0 72 17 153l82 410h-164l59 297h164l57 287l447 86l-74 -373h283l-60 -297h-282l-80 -395q-4 -16 -4 -43q0 -42 22.5 -61t73.5 -19q87 0 162 37z" />
    <glyph glyph-name="u" unicode="u" horiz-adv-x="1323" 
d="M700 0l27 180q-152 -205 -379 -205q-136 0 -215.5 77t-79.5 231q0 53 17 147l143 717h434l-135 -676q-6 -27 -6 -51q0 -80 82 -80q60 0 106.5 40t73.5 101l133 666h434l-229 -1147h-406z" />
    <glyph glyph-name="v" unicode="v" horiz-adv-x="1294" 
d="M1397 1147l-619 -1147h-499l-160 1147h454l37 -729l299 729h488z" />
    <glyph glyph-name="w" unicode="w" horiz-adv-x="1929" 
d="M983 0l-6 678l-268 -678h-480l-106 1147h455l2 -707l264 707h430l8 -707l258 707h488l-566 -1147h-479z" />
    <glyph glyph-name="x" unicode="x" horiz-adv-x="1302" 
d="M713 0l-117 301l-199 -301h-524v4l528 592l-290 547v4h487l109 -285l188 285h522v-4l-514 -578l297 -561v-4h-487z" />
    <glyph glyph-name="y" unicode="y" horiz-adv-x="1314" 
d="M799 10q-79 -145 -156.5 -240.5t-160 -147.5t-163 -72.5t-184.5 -20.5q-162 0 -266 53l94 336q84 -45 184 -45q55 0 97 20.5t80 73.5l-209 1180h475l41 -748l307 748h483z" />
    <glyph glyph-name="z" unicode="z" horiz-adv-x="1134" 
d="M1022 315l-64 -315h-1015l59 303l582 528h-459l63 316h981l-59 -303l-582 -529h494z" />
    <glyph glyph-name="braceleft" unicode="{" horiz-adv-x="983" 
d="M776 -57l-57 -283h-221q-200 0 -298 63t-98 209q0 49 12.5 100.5t25.5 82.5t36 78q49 100 49 159q0 60 -41 85.5t-121 25.5h-83l65 328h84q110 0 163.5 44.5t53.5 161.5q0 35 -2 62q-4 54 -4 94q0 235 138.5 337.5t406.5 102.5h221l-57 -282h-160q-94 0 -131 -34
t-37 -120q0 -24 4 -90q2 -33 2 -68q0 -172 -85 -263.5t-245 -117.5q103 -18 156 -71.5t53 -153.5q0 -102 -69 -227q-18 -33 -26 -49t-16 -41t-8 -47q0 -86 113 -86h176z" />
    <glyph glyph-name="bar" unicode="|" horiz-adv-x="1044" 
d="M334 -455v2048h377v-2048h-377z" />
    <glyph glyph-name="braceright" unicode="}" horiz-adv-x="983" 
d="M664 100q0 -235 -138.5 -337.5t-406.5 -102.5h-221l57 283h160q94 0 131 33.5t37 119.5q0 24 -4 90q-3 49 -3 68q0 172 85 263.5t245 117.5q-103 18 -156 71.5t-53 153.5t70 227q49 89 49 138q0 86 -113 86h-176l58 282h221q200 0 297.5 -63t97.5 -209
q0 -49 -12.5 -100.5t-25.5 -81.5t-36 -78q-49 -100 -49 -160t41 -85t121 -25h84l-66 -328h-84q-110 0 -163.5 -45t-53.5 -162q0 -34 2 -61q5 -67 5 -95z" />
    <glyph glyph-name="asciitilde" unicode="~" 
d="M383 383l-320 20q0 480 338 480q136 0 316 -90q116 -58 149 -58q66 0 66 156l319 -21q0 -479 -336 -479q-137 0 -317 90q-116 58 -149 58q-66 0 -66 -156z" />
    <glyph glyph-name="exclamdown" unicode="&#xa1;" horiz-adv-x="819" 
d="M762 1147l-72 -361h-467l72 361h467zM596 672l-78 -860l-37 -185h-516l37 185l266 860h328z" />
    <glyph glyph-name="cent" unicode="&#xa2;" 
d="M1040 305q-136 -99 -333 -117l-43 -217h-218l46 226q-182 34 -278.5 158.5t-96.5 326.5q0 273 167.5 454t436.5 207l41 209h217l-43 -215q155 -26 254 -110l-123 -326q-74 81 -199 100l-94 -473q127 16 244 109zM485 725q0 -126 78 -170l86 430q-164 -58 -164 -260z" />
    <glyph glyph-name="sterling" unicode="&#xa3;" 
d="M1180 389l-78 -389h-1143l64 317q280 21 280 246q0 24 -4 64h-244l54 262h145q-4 54 -4 84q0 177 84 308t231 199t338 68q135 0 248 -34t186 -89l-120 -368q-40 47 -112 80.5t-161 33.5q-112 0 -175.5 -59.5t-63.5 -185.5q0 -25 2 -37h376l-53 -262h-293
q0 -68 -25 -132.5t-81 -105.5h549z" />
    <glyph glyph-name="currency" unicode="&#xa4;" 
d="M1253 381l-192 -193l-182 183q-85 -43 -197 -43t-197 43l-182 -183l-192 193l178 178q-47 89 -47 201t47 201l-178 178l192 192l182 -182q85 43 197 43t197 -43l182 182l192 -192l-178 -178q47 -89 47 -201t-47 -201zM682 586q77 0 121.5 46.5t44.5 127.5t-44.5 127.5
t-121.5 46.5q-78 0 -122 -46t-44 -128t44 -128t122 -46z" />
    <glyph glyph-name="yen" unicode="&#xa5;" 
d="M1145 209h-357l-40 -209h-435l41 209h-352l53 262h353l22 115h-354l53 262h264l-246 672h471l115 -484l273 484h514l-504 -672h256l-53 -262h-355l-22 -115h356z" />
    <glyph glyph-name="brokenbar" unicode="&#xa6;" horiz-adv-x="1044" 
d="M334 825v768h377v-768h-377zM334 -455v768h377v-768h-377z" />
    <glyph glyph-name="section" unicode="&#xa7;" horiz-adv-x="1310" 
d="M1069 92q0 -204 -152 -322t-450 -118q-296 0 -508 127l98 332q207 -140 443 -140q164 0 164 72q0 22 -12.5 39t-41 31t-54 23t-71.5 22q-58 16 -101 32t-97 47t-89 68.5t-59 96t-24 130.5q0 232 215 340q-80 87 -80 232q0 71 18.5 133.5t62.5 120.5t110 99.5t167 66
t228 24.5q277 0 458 -106l-98 -332q-84 56 -188.5 87.5t-206.5 31.5q-146 0 -146 -72q0 -15 5.5 -27.5t20.5 -23.5t27 -18.5t39 -17.5t42 -14.5t49 -15.5q36 -11 55 -17t55 -19.5t56.5 -24t51 -29t49 -36.5t39.5 -44.5t32.5 -55.5t19.5 -66.5t8 -79.5q0 -235 -217 -340
q82 -92 82 -236zM698 481q36 -12 52 -18q69 43 69 106q0 24 -11 44t-26 33.5t-45 27.5t-53.5 22.5t-65.5 22.5q-30 10 -51 16q-67 -40 -67 -104q0 -55 47.5 -85.5t150.5 -64.5z" />
    <glyph glyph-name="dieresis" unicode="&#xa8;" horiz-adv-x="1024" 
d="M729 1266l66 327h352l-66 -327h-352zM205 1266l65 327h353l-66 -327h-352z" />
    <glyph glyph-name="copyright" unicode="&#xa9;" horiz-adv-x="1880" 
d="M977 -29q-219 0 -400.5 104.5t-285 285.5t-103.5 399q0 163 61 309t165.5 251t251.5 166.5t311 61.5t310.5 -61.5t251 -166.5t165.5 -251t61 -309t-61 -309t-165.5 -251.5t-251 -167t-310.5 -61.5zM977 160q124 0 233 47t185.5 127t121 191t44.5 235t-44.5 235t-121 191
t-185.5 127t-233 47t-233 -47t-185.5 -127t-121 -191t-44.5 -235t44.5 -235t121 -191t185.5 -127t233 -47zM1315 377q-120 -82 -301 -82q-222 0 -349.5 123t-127.5 340q0 221 129 342t354 121q173 0 283 -74l-50 -279q-74 80 -196 80q-93 0 -143 -49.5t-50 -138.5
q0 -94 52.5 -143.5t140.5 -49.5q59 0 113.5 22t86.5 56z" />
    <glyph glyph-name="ordfeminine" unicode="&#xaa;" horiz-adv-x="966" 
d="M586 713l14 94q-90 -111 -233 -111q-99 0 -159.5 56.5t-60.5 165.5q0 146 116 227.5t331 81.5h74q2 8 2 16q0 31 -22.5 43t-78.5 12q-139 0 -264 -69l-14 244q72 34 172 54.5t203 20.5q348 0 348 -239q0 -43 -8 -84l-103 -512h-317zM518 934q65 0 105 65l12 64h-33
q-66 0 -101.5 -22t-35.5 -60q0 -47 53 -47zM49 352l55 279h783l-56 -279h-782z" />
    <glyph glyph-name="guillemotleft" unicode="&#xab;" horiz-adv-x="1544" 
d="M1360 252l-299 -211l-352 543l4 20l514 543l254 -227l-346 -340zM762 252l-299 -211l-352 543l4 20l514 543l254 -227l-346 -340z" />
    <glyph glyph-name="logicalnot" unicode="&#xac;" 
d="M1182 809v-688h-344v344h-729v344h1073z" />
    <glyph glyph-name="registered" unicode="&#xae;" horiz-adv-x="1372" 
d="M803 553q-171 0 -312 80.5t-221 219.5t-80 306q0 166 80 305t221 220t312 81q172 0 312.5 -81t220 -220t79.5 -305q0 -167 -79.5 -306t-220 -219.5t-312.5 -80.5zM803 715q187 0 311.5 128t124.5 316t-124.5 316.5t-311.5 128.5t-311.5 -128.5t-124.5 -316.5t124.5 -316
t311.5 -128zM737 1020v-168h-213v623h293q135 0 206 -58t71 -168q0 -133 -113 -194l141 -203h-258l-94 168h-33zM737 1307v-125h66q71 0 71 63q0 62 -79 62h-58z" />
    <glyph glyph-name="macron" unicode="&#xaf;" horiz-adv-x="1024" 
d="M262 1298l51 263h774l-51 -263h-774z" />
    <glyph glyph-name="degree" unicode="&#xb0;" horiz-adv-x="921" 
d="M541 778q-174 0 -275.5 105.5t-101.5 273.5q0 196 133.5 326.5t329.5 130.5q174 0 275.5 -105.5t101.5 -273.5q0 -196 -133.5 -326.5t-329.5 -130.5zM563 1024q81 0 131.5 54.5t50.5 138.5q0 69 -36.5 110t-104.5 41q-81 0 -131.5 -54t-50.5 -138q0 -69 37 -110.5
t104 -41.5z" />
    <glyph glyph-name="plusminus" unicode="&#xb1;" 
d="M1182 784h-365v-366h-344v366h-364v344h364v367h344v-367h365v-344zM109 0v344h1073v-344h-1073z" />
    <glyph glyph-name="two.sups" unicode="&#xb2;" horiz-adv-x="835" 
d="M887 1102l-53 -262h-721l51 252l262 149q100 57 147.5 98.5t47.5 85.5q0 54 -72 54q-53 0 -107.5 -29t-95.5 -76l-90 232q73 68 175 105.5t220 37.5q301 0 301 -258q0 -124 -77 -212.5t-254 -168.5l-19 -8h285z" />
    <glyph glyph-name="three.sups" unicode="&#xb3;" horiz-adv-x="815" 
d="M881 1114q0 -134 -122.5 -214.5t-328.5 -80.5q-103 0 -191.5 20.5t-142.5 57.5l101 258q90 -70 221 -70q61 0 96 16t35 40q0 41 -127 41h-123l41 207h94q82 0 127 15.5t45 43.5q0 35 -76 35q-103 0 -206 -64l-72 240q158 90 369 90q162 0 239.5 -56.5t77.5 -156.5
q0 -89 -58 -151t-161 -87q162 -37 162 -184z" />
    <glyph glyph-name="acute" unicode="&#xb4;" horiz-adv-x="1024" 
d="M721 1257l-270 46l307 430l389 -66z" />
    <glyph glyph-name="uni00B5" unicode="&#xb5;" horiz-adv-x="1417" 
d="M500 -25q-59 0 -113 23l-49 -420h-432l168 832l147 737h434l-135 -676q-6 -27 -6 -51q0 -80 82 -80q60 0 106.5 40t73.5 101l133 666h434l-141 -707q-6 -27 -6 -47q0 -57 68 -57q52 0 96 20l-70 -348q-105 -28 -223 -28q-245 0 -291 139q-117 -144 -276 -144z" />
    <glyph glyph-name="paragraph" unicode="&#xb6;" horiz-adv-x="1417" 
d="M979 1311l-328 -1643h-221l152 756q-451 35 -451 450q0 141 52 261.5t144.5 205t225 132t289.5 47.5h602l-371 -1852h-221l328 1643h-201z" />
    <glyph glyph-name="periodcentered" unicode="&#xb7;" horiz-adv-x="681" 
d="M63 424l99 491h491l-98 -491h-492z" />
    <glyph glyph-name="cedilla" unicode="&#xb8;" horiz-adv-x="1024" 
d="M659 -248q0 -131 -101 -205.5t-286 -74.5q-144 0 -272 49l90 246q96 -54 205 -54q94 0 94 51q0 15 -10 25.5t-52 24.5t-120 28l108 170h160l-35 -49q124 -34 171.5 -83t47.5 -128z" />
    <glyph glyph-name="one.sups" unicode="&#xb9;" horiz-adv-x="696" 
d="M807 1720l-176 -880h-312l109 544q-56 -34 -147 -75l-99 215q190 76 346 196h279z" />
    <glyph glyph-name="ordmasculine" unicode="&#xba;" horiz-adv-x="966" 
d="M541 696q-60 0 -113.5 10.5t-104 37t-87 66t-58.5 101.5t-22 140q0 95 31 182t89.5 158.5t154.5 114t216 42.5q60 0 113.5 -10.5t104 -36t87 -65t58.5 -101.5t22 -141q0 -95 -31 -182t-89.5 -158.5t-154.5 -114.5t-216 -43zM569 967q56 0 89.5 68.5t33.5 152.5
q0 90 -74 90q-56 0 -89 -68.5t-33 -152.5q0 -90 73 -90zM49 352l55 279h783l-56 -279h-782z" />
    <glyph glyph-name="guillemotright" unicode="&#xbb;" horiz-adv-x="1544" 
d="M1436 584l-514 -543l-254 227l346 340l-226 328l299 211l353 -543zM838 584l-514 -543l-254 227l346 340l-226 328l299 211l353 -543z" />
    <glyph glyph-name="onequarter" unicode="&#xbc;" horiz-adv-x="1851" 
d="M766 1520l-176 -881h-311l108 545q-63 -38 -147 -76l-99 215q187 75 346 197h279zM125 0l1331 1520h324l-1331 -1520h-324zM1733 141h-105l-29 -145h-303l29 145h-412l48 238l505 514h314l-103 -514h103zM1219 379h153l41 196z" />
    <glyph glyph-name="onehalf" unicode="&#xbd;" horiz-adv-x="1949" 
d="M766 1520l-176 -881h-311l108 545q-63 -38 -147 -76l-99 215q187 75 346 197h279zM125 0l1331 1520h324l-1331 -1520h-324zM1833 262l-53 -262h-721l51 252l262 149q100 57 147.5 99t47.5 86q0 53 -72 53q-53 0 -107.5 -28.5t-95.5 -75.5l-90 231q73 68 175 105.5
t220 37.5q301 0 301 -258q0 -124 -77 -212.5t-254 -168.5l-19 -8h285z" />
    <glyph glyph-name="threequarters" unicode="&#xbe;" horiz-adv-x="1929" 
d="M840 913q0 -134 -122.5 -214.5t-328.5 -80.5q-103 0 -191.5 20.5t-142.5 57.5l101 258q89 -69 221 -69q61 0 96 15.5t35 39.5q0 41 -127 41h-123l41 207h94q82 0 127 15.5t45 43.5q0 35 -76 35q-105 0 -206 -63l-72 239q158 90 369 90q162 0 239.5 -56.5t77.5 -156.5
q0 -89 -58 -150.5t-161 -86.5q162 -37 162 -185zM203 0l1331 1520h324l-1332 -1520h-323zM1810 141h-104l-29 -145h-303l29 145h-412l47 238l506 514h314l-103 -514h103zM1296 379h154l41 196z" />
    <glyph glyph-name="questiondown" unicode="&#xbf;" horiz-adv-x="1224" 
d="M1059 1147l-72 -361h-467l72 361h467zM944 672l-6 -33q-15 -80 -44.5 -146t-61.5 -108t-77 -77.5t-77.5 -54t-77.5 -38.5t-65 -30.5t-47.5 -29.5t-38.5 -40.5t-11 -48.5q0 -44 29.5 -61t85.5 -17q216 0 358 180l127 -350q-115 -106 -273 -162.5t-335 -56.5
q-84 0 -153.5 13t-130 42.5t-102.5 75t-65.5 114t-23.5 156.5q0 74 17.5 135t43.5 101.5t68.5 76t78.5 56t87 43.5q43 19 56 25.5t49.5 24t50 27.5t38.5 29t36.5 35t23 38.5t16.5 47.5l6 33h418z" />
    <glyph glyph-name="Agrave" unicode="&#xc0;" horiz-adv-x="1605" 
d="M1073 1614l-446 315l377 135l311 -354zM1004 0l-17 250h-469l-112 -250h-525l803 1520h614l197 -1520h-491zM682 614h279l-37 541z" />
    <glyph glyph-name="Aacute" unicode="&#xc1;" horiz-adv-x="1605" 
d="M954 1614l-237 110l422 340l360 -172zM1004 0l-17 250h-469l-112 -250h-525l803 1520h614l197 -1520h-491zM682 614h279l-37 541z" />
    <glyph glyph-name="Acircumflex" unicode="&#xc2;" horiz-adv-x="1605" 
d="M1509 1651l-366 -29l-90 197l-176 -197l-392 29l422 372h353zM1004 0l-17 250h-469l-112 -250h-525l803 1520h614l197 -1520h-491zM682 614h279l-37 541z" />
    <glyph glyph-name="Atilde" unicode="&#xc3;" horiz-adv-x="1605" 
d="M788 1606l-290 20q63 385 358 385q108 0 209 -59q87 -51 133 -51q39 0 61 28t31 94l291 -20q-63 -385 -358 -385q-108 0 -209 59q-89 52 -133 52q-39 0 -61.5 -28.5t-31.5 -94.5zM1004 0l-17 250h-469l-112 -250h-525l803 1520h614l197 -1520h-491zM682 614h279l-37 541z
" />
    <glyph glyph-name="Adieresis" unicode="&#xc4;" horiz-adv-x="1605" 
d="M1112 1651l66 327h356l-66 -327h-356zM551 1651l65 327h357l-66 -327h-356zM1004 0l-17 250h-469l-112 -250h-525l803 1520h614l197 -1520h-491zM682 614h279l-37 541z" />
    <glyph glyph-name="Aring" unicode="&#xc5;" horiz-adv-x="1605" 
d="M1004 0l-17 250h-469l-112 -250h-525l803 1520h121q-57 37 -88 98.5t-31 136.5q0 147 106 246.5t259 99.5q133 0 214 -79.5t81 -204.5q0 -95 -47.5 -173.5t-127.5 -123.5h127l197 -1520h-491zM1001 1673q54 0 88.5 35.5t34.5 91.5q0 45 -24.5 71.5t-69.5 26.5
q-54 0 -88.5 -35.5t-34.5 -90.5q0 -45 24.5 -72t69.5 -27zM682 614h279l-37 541z" />
    <glyph glyph-name="AE" unicode="&#xc6;" horiz-adv-x="2252" 
d="M950 0l62 305h-494l-203 -305h-544l1077 1520h1493l-74 -373h-655l-39 -197h571l-71 -356h-572l-43 -217h672l-76 -377h-1104zM1182 1153h-99l-321 -483h323z" />
    <glyph glyph-name="Ccedilla" unicode="&#xc7;" horiz-adv-x="1421" 
d="M958 -248q0 -131 -101 -205.5t-286 -74.5q-144 0 -272 49l90 246q96 -54 205 -54q94 0 94 51q0 15 -10 25.5t-52 24.5t-120 28l90 142q-241 39 -366.5 196.5t-125.5 429.5q0 145 35 280t109 255t181 209.5t260.5 141.5t336.5 52q298 0 461 -127l-156 -409
q-115 143 -305 143q-129 0 -230.5 -70t-154.5 -182.5t-53 -243.5q0 -149 71.5 -221.5t204.5 -72.5q105 0 208 43t183 116l33 -411q-198 -142 -543 -142l-6 -8q124 -34 171.5 -83t47.5 -128z" />
    <glyph glyph-name="Egrave" unicode="&#xc8;" horiz-adv-x="1343" 
d="M956 1614l-446 315l377 135l311 -354zM1221 377l-76 -377h-1129l303 1520h1113l-74 -373h-656l-38 -197h571l-72 -356h-571l-43 -217h672z" />
    <glyph glyph-name="Eacute" unicode="&#xc9;" horiz-adv-x="1343" 
d="M838 1614l-238 110l422 340l360 -172zM1221 377l-76 -377h-1129l303 1520h1113l-74 -373h-656l-38 -197h571l-72 -356h-571l-43 -217h672z" />
    <glyph glyph-name="Ecircumflex" unicode="&#xca;" horiz-adv-x="1343" 
d="M1393 1651l-367 -29l-90 197l-176 -197l-391 29l422 372h352zM1221 377l-76 -377h-1129l303 1520h1113l-74 -373h-656l-38 -197h571l-72 -356h-571l-43 -217h672z" />
    <glyph glyph-name="Edieresis" unicode="&#xcb;" horiz-adv-x="1343" 
d="M995 1651l66 327h356l-65 -327h-357zM434 1651l66 327h356l-65 -327h-357zM1221 377l-76 -377h-1129l303 1520h1113l-74 -373h-656l-38 -197h571l-72 -356h-571l-43 -217h672z" />
    <glyph glyph-name="Igrave" unicode="&#xcc;" horiz-adv-x="720" 
d="M631 1614l-447 315l377 135l311 -354zM16 0l303 1520h459l-303 -1520h-459z" />
    <glyph glyph-name="Iacute" unicode="&#xcd;" horiz-adv-x="720" 
d="M512 1614l-238 110l422 340l361 -172zM16 0l303 1520h459l-303 -1520h-459z" />
    <glyph glyph-name="Icircumflex" unicode="&#xce;" horiz-adv-x="720" 
d="M1067 1651l-367 -29l-90 197l-176 -197l-391 29l422 372h352zM16 0l303 1520h459l-303 -1520h-459z" />
    <glyph glyph-name="Idieresis" unicode="&#xcf;" horiz-adv-x="720" 
d="M670 1651l65 327h357l-66 -327h-356zM109 1651l65 327h356l-65 -327h-356zM16 0l303 1520h459l-303 -1520h-459z" />
    <glyph glyph-name="Eth" unicode="&#xd0;" horiz-adv-x="1630" 
d="M1602 922q0 -204 -63 -373.5t-180 -291.5t-294 -189.5t-397 -67.5h-619l121 608h-152l66 328h152l116 584h566q190 0 323.5 -39t212 -118t113.5 -186.5t35 -254.5zM864 608h-235l-47 -235h125q104 0 184.5 40t130 110t75 159t25.5 192q0 150 -62 212.5t-220 62.5h-103
l-43 -213h236z" />
    <glyph glyph-name="Ntilde" unicode="&#xd1;" horiz-adv-x="1630" 
d="M801 1606l-291 20q63 385 358 385q108 0 209 -59q87 -51 133 -51q39 0 61.5 28t31.5 94l290 -20q-63 -385 -358 -385q-108 0 -209 59q-89 52 -133 52q-39 0 -61 -28.5t-31 -94.5zM950 0l-338 805l-161 -805h-435l303 1520h435l338 -805l161 805h435l-304 -1520h-434z" />
    <glyph glyph-name="Ograve" unicode="&#xd2;" horiz-adv-x="1630" 
d="M1085 1614l-446 315l377 135l311 -354zM731 -29q-296 0 -463.5 165t-167.5 460q0 149 35.5 288t108.5 259.5t175.5 211t245 142t308.5 51.5q296 0 463.5 -164.5t167.5 -459.5q0 -149 -35.5 -288t-108.5 -260t-175.5 -211t-245 -142t-308.5 -52zM780 365q80 0 146 48.5
t107.5 127t64 172t22.5 188.5q0 254 -196 254q-79 0 -145.5 -48.5t-108 -127t-64 -172.5t-22.5 -189q0 -253 196 -253z" />
    <glyph glyph-name="Oacute" unicode="&#xd3;" horiz-adv-x="1630" 
d="M967 1614l-238 110l422 340l360 -172zM731 -29q-296 0 -463.5 165t-167.5 460q0 149 35.5 288t108.5 259.5t175.5 211t245 142t308.5 51.5q296 0 463.5 -164.5t167.5 -459.5q0 -149 -35.5 -288t-108.5 -260t-175.5 -211t-245 -142t-308.5 -52zM780 365q80 0 146 48.5
t107.5 127t64 172t22.5 188.5q0 254 -196 254q-79 0 -145.5 -48.5t-108 -127t-64 -172.5t-22.5 -189q0 -253 196 -253z" />
    <glyph glyph-name="Ocircumflex" unicode="&#xd4;" horiz-adv-x="1630" 
d="M1522 1651l-367 -29l-90 197l-176 -197l-391 29l422 372h352zM731 -29q-296 0 -463.5 165t-167.5 460q0 149 35.5 288t108.5 259.5t175.5 211t245 142t308.5 51.5q296 0 463.5 -164.5t167.5 -459.5q0 -149 -35.5 -288t-108.5 -260t-175.5 -211t-245 -142t-308.5 -52z
M780 365q80 0 146 48.5t107.5 127t64 172t22.5 188.5q0 254 -196 254q-79 0 -145.5 -48.5t-108 -127t-64 -172.5t-22.5 -189q0 -253 196 -253z" />
    <glyph glyph-name="Otilde" unicode="&#xd5;" horiz-adv-x="1630" 
d="M801 1606l-291 20q63 385 358 385q108 0 209 -59q87 -51 133 -51q39 0 61.5 28t31.5 94l290 -20q-63 -385 -358 -385q-108 0 -209 59q-89 52 -133 52q-39 0 -61 -28.5t-31 -94.5zM731 -29q-296 0 -463.5 165t-167.5 460q0 149 35.5 288t108.5 259.5t175.5 211t245 142
t308.5 51.5q296 0 463.5 -164.5t167.5 -459.5q0 -149 -35.5 -288t-108.5 -260t-175.5 -211t-245 -142t-308.5 -52zM780 365q80 0 146 48.5t107.5 127t64 172t22.5 188.5q0 254 -196 254q-79 0 -145.5 -48.5t-108 -127t-64 -172.5t-22.5 -189q0 -253 196 -253z" />
    <glyph glyph-name="Odieresis" unicode="&#xd6;" horiz-adv-x="1630" 
d="M1124 1651l66 327h356l-65 -327h-357zM563 1651l66 327h356l-65 -327h-357zM731 -29q-296 0 -463.5 165t-167.5 460q0 149 35.5 288t108.5 259.5t175.5 211t245 142t308.5 51.5q296 0 463.5 -164.5t167.5 -459.5q0 -149 -35.5 -288t-108.5 -260t-175.5 -211t-245 -142
t-308.5 -52zM780 365q80 0 146 48.5t107.5 127t64 172t22.5 188.5q0 254 -196 254q-79 0 -145.5 -48.5t-108 -127t-64 -172.5t-22.5 -189q0 -253 196 -253z" />
    <glyph glyph-name="multiply" unicode="&#xd7;" 
d="M1229 299l-246 -246l-338 344l-338 -344l-246 246l345 338l-345 338l246 246l338 -344l338 344l246 -246l-344 -338z" />
    <glyph glyph-name="Oslash" unicode="&#xd8;" horiz-adv-x="1630" 
d="M731 -29q-241 0 -395 109l-162 -170l-180 98l205 213q-99 154 -99 375q0 149 35.5 288t108.5 259.5t175.5 211t245 142t308.5 51.5q242 0 395 -108l162 170l180 -99l-205 -213q99 -154 99 -374q0 -149 -35.5 -288t-108.5 -260t-175.5 -211t-245 -142t-308.5 -52z
M924 1155q-79 0 -145.5 -48.5t-108 -126.5t-64 -170.5t-22.5 -186.5l469 489q-49 43 -129 43zM780 365q79 0 145.5 48.5t108 126.5t64 170.5t22.5 186.5l-469 -489q49 -43 129 -43z" />
    <glyph glyph-name="Ugrave" unicode="&#xd9;" horiz-adv-x="1568" 
d="M1055 1614l-447 315l377 135l311 -354zM1638 1520l-180 -902q-66 -329 -257 -488t-513 -159q-286 0 -432.5 122t-146.5 353q0 73 20 183l178 891h455l-178 -891q-11 -64 -11 -92q0 -168 172 -168q107 0 171 64.5t90 195.5l178 891h454z" />
    <glyph glyph-name="Uacute" unicode="&#xda;" horiz-adv-x="1568" 
d="M936 1614l-238 110l422 340l361 -172zM1638 1520l-180 -902q-66 -329 -257 -488t-513 -159q-286 0 -432.5 122t-146.5 353q0 73 20 183l178 891h455l-178 -891q-11 -64 -11 -92q0 -168 172 -168q107 0 171 64.5t90 195.5l178 891h454z" />
    <glyph glyph-name="Ucircumflex" unicode="&#xdb;" horiz-adv-x="1568" 
d="M1491 1651l-367 -29l-90 197l-176 -197l-391 29l422 372h352zM1638 1520l-180 -902q-66 -329 -257 -488t-513 -159q-286 0 -432.5 122t-146.5 353q0 73 20 183l178 891h455l-178 -891q-11 -64 -11 -92q0 -168 172 -168q107 0 171 64.5t90 195.5l178 891h454z" />
    <glyph glyph-name="Udieresis" unicode="&#xdc;" horiz-adv-x="1568" 
d="M1094 1651l65 327h357l-66 -327h-356zM532 1651l66 327h356l-65 -327h-357zM1638 1520l-180 -902q-66 -329 -257 -488t-513 -159q-286 0 -432.5 122t-146.5 353q0 73 20 183l178 891h455l-178 -891q-11 -64 -11 -92q0 -168 172 -168q107 0 171 64.5t90 195.5l178 891h454
z" />
    <glyph glyph-name="Yacute" unicode="&#xdd;" horiz-adv-x="1462" 
d="M883 1614l-238 110l422 340l360 -172zM1683 1520l-735 -1006l-102 -514h-459l107 537l-338 983h503l144 -578l332 578h548z" />
    <glyph glyph-name="Thorn" unicode="&#xde;" horiz-adv-x="1445" 
d="M725 260h-199l-51 -260h-459l303 1520h459l-41 -203h189q524 0 524 -449q0 -97 -24 -183t-78.5 -165t-136.5 -136t-206.5 -90.5t-279.5 -33.5zM819 950h-153l-66 -325h154q118 0 171.5 56t53.5 140q0 65 -38 97t-122 32z" />
    <glyph glyph-name="germandbls" unicode="&#xdf;" horiz-adv-x="1421" 
d="M1352 465q0 -225 -138.5 -357.5t-384.5 -132.5q-188 0 -309 64l94 326q62 -46 144 -46q79 0 119.5 46.5t40.5 121.5q0 87 -58.5 135.5t-187.5 61.5l57 287q115 0 170 47.5t55 128.5q0 131 -129 131q-81 0 -124.5 -56.5t-67.5 -177.5l-209 -1044h-434l217 1085
q19 94 48.5 169.5t80.5 145t120.5 116.5t170.5 74.5t227 27.5q258 0 394 -106t136 -293q0 -142 -78 -233.5t-225 -125.5q139 -56 205 -151t66 -244z" />
    <glyph glyph-name="agrave" unicode="&#xe0;" horiz-adv-x="1255" 
d="M692 1257l-295 445l371 31l178 -445zM637 0l20 137q-136 -162 -344 -162q-142 0 -227.5 79.5t-85.5 232.5q0 204 164 318t473 114h117q4 28 4 41q0 51 -35.5 71.5t-122.5 20.5q-198 0 -381 -111l-16 324q97 50 233.5 78t282.5 28q479 0 479 -337q0 -56 -12 -117
l-144 -717h-405zM508 279q117 0 180 116l23 111h-54q-117 0 -180 -39t-63 -105q0 -83 94 -83z" />
    <glyph glyph-name="aacute" unicode="&#xe1;" horiz-adv-x="1255" 
d="M842 1257l-271 46l308 430l389 -66zM637 0l20 137q-136 -162 -344 -162q-142 0 -227.5 79.5t-85.5 232.5q0 204 164 318t473 114h117q4 28 4 41q0 51 -35.5 71.5t-122.5 20.5q-198 0 -381 -111l-16 324q97 50 233.5 78t282.5 28q479 0 479 -337q0 -56 -12 -117l-144 -717
h-405zM508 279q117 0 180 116l23 111h-54q-117 0 -180 -39t-63 -105q0 -83 94 -83z" />
    <glyph glyph-name="acircumflex" unicode="&#xe2;" horiz-adv-x="1255" 
d="M1243 1292l-342 -26l-82 250l-184 -250l-363 28l404 426h352zM637 0l20 137q-136 -162 -344 -162q-142 0 -227.5 79.5t-85.5 232.5q0 204 164 318t473 114h117q4 28 4 41q0 51 -35.5 71.5t-122.5 20.5q-198 0 -381 -111l-16 324q97 50 233.5 78t282.5 28q479 0 479 -337
q0 -56 -12 -117l-144 -717h-405zM508 279q117 0 180 116l23 111h-54q-117 0 -180 -39t-63 -105q0 -83 94 -83z" />
    <glyph glyph-name="atilde" unicode="&#xe3;" horiz-adv-x="1255" 
d="M567 1253l-291 21q64 385 351 385q97 0 200 -60q86 -51 125 -51q34 0 54 27t30 96l291 -20q-64 -385 -350 -385q-100 0 -201 59q-86 51 -125 51q-34 0 -54 -27t-30 -96zM637 0l20 137q-136 -162 -344 -162q-142 0 -227.5 79.5t-85.5 232.5q0 204 164 318t473 114h117
q4 28 4 41q0 51 -35.5 71.5t-122.5 20.5q-198 0 -381 -111l-16 324q97 50 233.5 78t282.5 28q479 0 479 -337q0 -56 -12 -117l-144 -717h-405zM508 279q117 0 180 116l23 111h-54q-117 0 -180 -39t-63 -105q0 -83 94 -83z" />
    <glyph glyph-name="adieresis" unicode="&#xe4;" horiz-adv-x="1255" 
d="M850 1266l65 327h353l-66 -327h-352zM326 1266l65 327h352l-65 -327h-352zM637 0l20 137q-136 -162 -344 -162q-142 0 -227.5 79.5t-85.5 232.5q0 204 164 318t473 114h117q4 28 4 41q0 51 -35.5 71.5t-122.5 20.5q-198 0 -381 -111l-16 324q97 50 233.5 78t282.5 28
q479 0 479 -337q0 -56 -12 -117l-144 -717h-405zM508 279q117 0 180 116l23 111h-54q-117 0 -180 -39t-63 -105q0 -83 94 -83z" />
    <glyph glyph-name="aring" unicode="&#xe5;" horiz-adv-x="1255" 
d="M774 1204q-133 0 -214 80t-81 205q0 147 106 246.5t259 99.5q133 0 214 -80t81 -205q0 -147 -106 -246.5t-259 -99.5zM795 1407q54 0 88.5 35.5t34.5 91.5q0 45 -25 71.5t-70 26.5q-54 0 -88.5 -35.5t-34.5 -91.5q0 -45 25 -71.5t70 -26.5zM637 0l20 137
q-136 -162 -344 -162q-142 0 -227.5 79.5t-85.5 232.5q0 204 164 318t473 114h117q4 28 4 41q0 51 -35.5 71.5t-122.5 20.5q-198 0 -381 -111l-16 324q97 50 233.5 78t282.5 28q479 0 479 -337q0 -56 -12 -117l-144 -717h-405zM508 279q117 0 180 116l23 111h-54
q-117 0 -180 -39t-63 -105q0 -83 94 -83z" />
    <glyph glyph-name="ae" unicode="&#xe6;" horiz-adv-x="1896" 
d="M0 287q0 206 161 316t472 110h125q4 16 4 45q0 51 -37.5 72.5t-128.5 21.5q-206 0 -389 -111l-17 324q97 50 234.5 78t286.5 28q231 0 319 -102q145 102 363 102q110 0 194 -25.5t135 -66t83.5 -99t44.5 -117t12 -126.5q0 -143 -54 -270h-692q1 -43 10.5 -71.5t35 -53
t74.5 -36t124 -11.5q212 0 377 106l16 -319q-210 -107 -491 -107q-322 0 -451 166q-169 -166 -428 -166q-176 0 -279.5 80t-103.5 232zM1356 885q-146 0 -207 -189h307q12 24 12 70q0 119 -112 119zM522 279q62 0 116.5 27t84.5 75q-4 36 -4 61q0 36 2 54h-68
q-239 0 -239 -131q0 -86 108 -86z" />
    <glyph glyph-name="ccedilla" unicode="&#xe7;" horiz-adv-x="1089" 
d="M750 -248q0 -131 -101.5 -205.5t-286.5 -74.5q-144 0 -272 49l90 246q96 -54 205 -54q94 0 94 51q0 15 -10 25.5t-52 24.5t-120 28l96 150q-166 38 -258 157.5t-92 313.5q0 104 26 204t82 192t135.5 161t196.5 110t256 41q126 0 222.5 -31.5t154.5 -82.5l-125 -332
q-90 98 -225 98q-72 0 -128 -28t-89.5 -74.5t-50.5 -101.5t-17 -113q0 -182 185 -182q146 0 266 96l24 -330q-174 -115 -417 -115l-9 -12q124 -34 172 -83t48 -128z" />
    <glyph glyph-name="egrave" unicode="&#xe8;" horiz-adv-x="1257" 
d="M709 1257l-295 445l370 31l179 -445zM1114 82q-210 -107 -491 -107q-295 0 -437.5 119.5t-142.5 358.5q0 107 26.5 209t84 195t139.5 162.5t201 110.5t260 41q110 0 194 -25.5t135 -66t83.5 -99t44.5 -117t12 -126.5q0 -151 -56 -274h-690q3 -86 52.5 -127t191.5 -41
q212 0 377 106zM717 885q-148 0 -209 -193h307q14 25 14 74q0 119 -112 119z" />
    <glyph glyph-name="eacute" unicode="&#xe9;" horiz-adv-x="1257" 
d="M858 1257l-270 46l307 430l389 -66zM1114 82q-210 -107 -491 -107q-295 0 -437.5 119.5t-142.5 358.5q0 107 26.5 209t84 195t139.5 162.5t201 110.5t260 41q110 0 194 -25.5t135 -66t83.5 -99t44.5 -117t12 -126.5q0 -151 -56 -274h-690q3 -86 52.5 -127t191.5 -41
q212 0 377 106zM717 885q-148 0 -209 -193h307q14 25 14 74q0 119 -112 119z" />
    <glyph glyph-name="ecircumflex" unicode="&#xea;" horiz-adv-x="1257" 
d="M1260 1292l-342 -26l-82 250l-185 -250l-362 28l403 426h352zM1114 82q-210 -107 -491 -107q-295 0 -437.5 119.5t-142.5 358.5q0 107 26.5 209t84 195t139.5 162.5t201 110.5t260 41q110 0 194 -25.5t135 -66t83.5 -99t44.5 -117t12 -126.5q0 -151 -56 -274h-690
q3 -86 52.5 -127t191.5 -41q212 0 377 106zM717 885q-148 0 -209 -193h307q14 25 14 74q0 119 -112 119z" />
    <glyph glyph-name="edieresis" unicode="&#xeb;" horiz-adv-x="1257" 
d="M866 1266l66 327h352l-65 -327h-353zM342 1266l66 327h352l-66 -327h-352zM1114 82q-210 -107 -491 -107q-295 0 -437.5 119.5t-142.5 358.5q0 107 26.5 209t84 195t139.5 162.5t201 110.5t260 41q110 0 194 -25.5t135 -66t83.5 -99t44.5 -117t12 -126.5q0 -151 -56 -274
h-690q3 -86 52.5 -127t191.5 -41q212 0 377 106zM717 885q-148 0 -209 -193h307q14 25 14 74q0 119 -112 119z" />
    <glyph glyph-name="igrave" unicode="&#xec;" horiz-adv-x="655" 
d="M408 1257l-295 445l370 31l179 -445zM-4 0l229 1147h434l-229 -1147h-434z" />
    <glyph glyph-name="iacute" unicode="&#xed;" horiz-adv-x="655" 
d="M516 1257l-270 46l307 430l389 -66zM-4 0l229 1147h434l-229 -1147h-434z" />
    <glyph glyph-name="icircumflex" unicode="&#xee;" horiz-adv-x="679" 
d="M909 1292l-311 -26l-57 247l-152 -247l-332 28l349 426h335zM8 0l230 1147h434l-230 -1147h-434z" />
    <glyph glyph-name="idieresis" unicode="&#xef;" horiz-adv-x="679" 
d="M541 1266l65 327h340l-65 -327h-340zM78 1266l65 327h340l-65 -327h-340zM8 0l230 1147h434l-230 -1147h-434z" />
    <glyph glyph-name="eth" unicode="&#xf0;" horiz-adv-x="1294" 
d="M1253 754q0 -136 -25.5 -253.5t-79.5 -214.5t-133 -166t-190 -107t-247 -38q-249 0 -392 126t-143 374q0 138 45.5 252.5t122 189t175 115.5t206.5 41q170 0 258 -106q-48 141 -143 254l-256 -115l-121 141l237 107q-92 74 -213 145l420 156q100 -79 160 -139l237 106
l121 -141l-235 -105q196 -260 196 -622zM481 483q0 -168 117 -168q110 0 167.5 99t57.5 254v26q-44 76 -131 76q-98 0 -154.5 -84.5t-56.5 -202.5z" />
    <glyph glyph-name="ntilde" unicode="&#xf1;" horiz-adv-x="1323" 
d="M594 1253l-291 21q64 385 350 385q98 0 201 -60q86 -51 125 -51q34 0 54 27t30 96l291 -20q-64 -385 -350 -385q-100 0 -201 59q-86 51 -125 51q-34 0 -54 -27t-30 -96zM557 676l-135 -676h-434l229 1147h406l-27 -178q74 98 172 150t211 52q135 0 213 -76.5t78 -230.5
q0 -54 -17 -147l-143 -717h-434l135 676q6 27 6 51q0 80 -80 80q-51 0 -99 -32t-81 -99z" />
    <glyph glyph-name="ograve" unicode="&#xf2;" horiz-adv-x="1294" 
d="M707 1257l-295 445l370 31l179 -445zM575 -25q-83 0 -157.5 15.5t-144 52t-120 91t-80.5 138.5t-30 189q0 107 26 209t81.5 193t133.5 159.5t190.5 108.5t244.5 40q83 0 157.5 -15.5t144 -51.5t120 -90.5t80.5 -138.5t30 -189q0 -107 -26 -209t-81.5 -193.5t-133.5 -160
t-190.5 -108.5t-244.5 -40zM606 315q63 0 112 56.5t72 137t23 165.5q0 157 -125 157q-63 0 -112 -56t-72 -136.5t-23 -165.5q0 -158 125 -158z" />
    <glyph glyph-name="oacute" unicode="&#xf3;" horiz-adv-x="1294" 
d="M856 1257l-270 46l307 430l389 -66zM575 -25q-83 0 -157.5 15.5t-144 52t-120 91t-80.5 138.5t-30 189q0 107 26 209t81.5 193t133.5 159.5t190.5 108.5t244.5 40q83 0 157.5 -15.5t144 -51.5t120 -90.5t80.5 -138.5t30 -189q0 -107 -26 -209t-81.5 -193.5t-133.5 -160
t-190.5 -108.5t-244.5 -40zM606 315q63 0 112 56.5t72 137t23 165.5q0 157 -125 157q-63 0 -112 -56t-72 -136.5t-23 -165.5q0 -158 125 -158z" />
    <glyph glyph-name="ocircumflex" unicode="&#xf4;" horiz-adv-x="1294" 
d="M1257 1292l-342 -26l-81 250l-185 -250l-362 28l403 426h352zM575 -25q-83 0 -157.5 15.5t-144 52t-120 91t-80.5 138.5t-30 189q0 107 26 209t81.5 193t133.5 159.5t190.5 108.5t244.5 40q83 0 157.5 -15.5t144 -51.5t120 -90.5t80.5 -138.5t30 -189q0 -107 -26 -209
t-81.5 -193.5t-133.5 -160t-190.5 -108.5t-244.5 -40zM606 315q63 0 112 56.5t72 137t23 165.5q0 157 -125 157q-63 0 -112 -56t-72 -136.5t-23 -165.5q0 -158 125 -158z" />
    <glyph glyph-name="otilde" unicode="&#xf5;" horiz-adv-x="1294" 
d="M582 1253l-291 21q64 385 350 385q98 0 201 -60q86 -51 125 -51q34 0 54 27t30 96l290 -20q-64 -385 -350 -385q-99 0 -200 59q-86 51 -125 51q-34 0 -54 -27t-30 -96zM575 -25q-83 0 -157.5 15.5t-144 52t-120 91t-80.5 138.5t-30 189q0 107 26 209t81.5 193
t133.5 159.5t190.5 108.5t244.5 40q83 0 157.5 -15.5t144 -51.5t120 -90.5t80.5 -138.5t30 -189q0 -107 -26 -209t-81.5 -193.5t-133.5 -160t-190.5 -108.5t-244.5 -40zM606 315q63 0 112 56.5t72 137t23 165.5q0 157 -125 157q-63 0 -112 -56t-72 -136.5t-23 -165.5
q0 -158 125 -158z" />
    <glyph glyph-name="odieresis" unicode="&#xf6;" horiz-adv-x="1294" 
d="M864 1266l66 327h352l-65 -327h-353zM340 1266l66 327h352l-66 -327h-352zM575 -25q-83 0 -157.5 15.5t-144 52t-120 91t-80.5 138.5t-30 189q0 107 26 209t81.5 193t133.5 159.5t190.5 108.5t244.5 40q83 0 157.5 -15.5t144 -51.5t120 -90.5t80.5 -138.5t30 -189
q0 -107 -26 -209t-81.5 -193.5t-133.5 -160t-190.5 -108.5t-244.5 -40zM606 315q63 0 112 56.5t72 137t23 165.5q0 157 -125 157q-63 0 -112 -56t-72 -136.5t-23 -165.5q0 -158 125 -158z" />
    <glyph glyph-name="divide" unicode="&#xf7;" 
d="M408 1065q0 100 68 169t169 69q100 0 169 -69t69 -169q0 -101 -69 -169.5t-169 -68.5q-101 0 -169 68.5t-68 169.5zM92 475v324h1106v-324h-1106zM408 209q0 101 68 169t169 68t169.5 -68t68.5 -169t-68.5 -169.5t-169.5 -68.5t-169 68.5t-68 169.5z" />
    <glyph glyph-name="oslash" unicode="&#xf8;" horiz-adv-x="1294" 
d="M575 -25q-187 0 -313 74l-160 -168l-149 84l182 191q-92 119 -92 305q0 107 26 209t81.5 193t133.5 159.5t190.5 108.5t244.5 40q189 0 313 -73l160 168l149 -84l-182 -191q92 -119 92 -305q0 -107 -26 -209t-81.5 -193.5t-133.5 -160t-190.5 -108.5t-244.5 -40zM688 831
q-85 0 -140 -92.5t-65 -216.5l277 291q-27 18 -72 18zM606 315q85 0 140 93t65 217l-276 -291q29 -19 71 -19z" />
    <glyph glyph-name="ugrave" unicode="&#xf9;" horiz-adv-x="1323" 
d="M719 1257l-295 445l371 31l178 -445zM700 0l27 180q-152 -205 -379 -205q-136 0 -215.5 77t-79.5 231q0 53 17 147l143 717h434l-135 -676q-6 -27 -6 -51q0 -80 82 -80q60 0 106.5 40t73.5 101l133 666h434l-229 -1147h-406z" />
    <glyph glyph-name="uacute" unicode="&#xfa;" horiz-adv-x="1323" 
d="M868 1257l-270 46l307 430l389 -66zM700 0l27 180q-152 -205 -379 -205q-136 0 -215.5 77t-79.5 231q0 53 17 147l143 717h434l-135 -676q-6 -27 -6 -51q0 -80 82 -80q60 0 106.5 40t73.5 101l133 666h434l-229 -1147h-406z" />
    <glyph glyph-name="ucircumflex" unicode="&#xfb;" horiz-adv-x="1323" 
d="M1270 1292l-342 -26l-82 250l-184 -250l-363 28l403 426h353zM700 0l27 180q-152 -205 -379 -205q-136 0 -215.5 77t-79.5 231q0 53 17 147l143 717h434l-135 -676q-6 -27 -6 -51q0 -80 82 -80q60 0 106.5 40t73.5 101l133 666h434l-229 -1147h-406z" />
    <glyph glyph-name="udieresis" unicode="&#xfc;" horiz-adv-x="1323" 
d="M877 1266l65 327h352l-65 -327h-352zM352 1266l66 327h352l-65 -327h-353zM700 0l27 180q-152 -205 -379 -205q-136 0 -215.5 77t-79.5 231q0 53 17 147l143 717h434l-135 -676q-6 -27 -6 -51q0 -80 82 -80q60 0 106.5 40t73.5 101l133 666h434l-229 -1147h-406z" />
    <glyph glyph-name="yacute" unicode="&#xfd;" horiz-adv-x="1314" 
d="M864 1257l-270 46l307 430l389 -66zM799 10q-79 -145 -156.5 -240.5t-160 -147.5t-163 -72.5t-184.5 -20.5q-162 0 -266 53l94 336q84 -45 184 -45q55 0 97 20.5t80 73.5l-209 1180h475l41 -748l307 748h483z" />
    <glyph glyph-name="thorn" unicode="&#xfe;" horiz-adv-x="1359" 
d="M729 -25q-180 0 -289 113l-102 -510h-434l403 2015h434l-116 -579q67 80 146 118.5t181 38.5q178 0 271.5 -115t93.5 -335q0 -116 -25.5 -225.5t-76 -203.5t-120 -165t-164 -111.5t-202.5 -40.5zM502 395q15 -35 53 -57.5t84 -22.5q98 0 164.5 102t66.5 234
q0 164 -127 164q-119 0 -184 -131z" />
    <glyph glyph-name="ydieresis" unicode="&#xff;" horiz-adv-x="1314" 
d="M872 1266l66 327h352l-65 -327h-353zM348 1266l66 327h352l-66 -327h-352zM799 10q-79 -145 -156.5 -240.5t-160 -147.5t-163 -72.5t-184.5 -20.5q-162 0 -266 53l94 336q84 -45 184 -45q55 0 97 20.5t80 73.5l-209 1180h475l41 -748l307 748h483z" />
    <glyph glyph-name="Amacron" unicode="&#x100;" horiz-adv-x="1605" 
d="M594 1683l53 263h844l-53 -263h-844zM1004 0l-17 250h-469l-112 -250h-525l803 1520h614l197 -1520h-491zM682 614h279l-37 541z" />
    <glyph glyph-name="amacron" unicode="&#x101;" horiz-adv-x="1255" 
d="M383 1298l51 263h774l-51 -263h-774zM637 0l20 137q-136 -162 -344 -162q-142 0 -227.5 79.5t-85.5 232.5q0 204 164 318t473 114h117q4 28 4 41q0 51 -35.5 71.5t-122.5 20.5q-198 0 -381 -111l-16 324q97 50 233.5 78t282.5 28q479 0 479 -337q0 -56 -12 -117
l-144 -717h-405zM508 279q117 0 180 116l23 111h-54q-117 0 -180 -39t-63 -105q0 -83 94 -83z" />
    <glyph glyph-name="Abreve" unicode="&#x102;" horiz-adv-x="1605" 
d="M641 1995l307 12q-6 -30 -6 -55q0 -94 98 -94q125 0 152 149l321 -12q-46 -192 -178 -286.5t-323 -94.5q-178 0 -277.5 79t-99.5 224q0 37 6 78zM1004 0l-17 250h-469l-112 -250h-525l803 1520h614l197 -1520h-491zM682 614h279l-37 541z" />
    <glyph glyph-name="abreve" unicode="&#x103;" horiz-adv-x="1255" 
d="M410 1679l307 13q-10 -48 -10 -78q0 -105 96 -105q62 0 99.5 44.5t58.5 138.5l321 -13q-51 -208 -186 -312.5t-326 -104.5q-173 0 -271 84t-98 241q0 43 9 92zM637 0l20 137q-136 -162 -344 -162q-142 0 -227.5 79.5t-85.5 232.5q0 204 164 318t473 114h117q4 28 4 41
q0 51 -35.5 71.5t-122.5 20.5q-198 0 -381 -111l-16 324q97 50 233.5 78t282.5 28q479 0 479 -337q0 -56 -12 -117l-144 -717h-405zM508 279q117 0 180 116l23 111h-54q-117 0 -180 -39t-63 -105q0 -83 94 -83z" />
    <glyph glyph-name="Aogonek" unicode="&#x104;" horiz-adv-x="1605" 
d="M791 -307q0 96 49.5 169t163.5 138l-17 250h-469l-112 -250h-525l803 1520h614l197 -1520h-160q-258 -74 -258 -199q0 -67 90 -67q66 0 160 49l12 -250q-112 -61 -256 -61q-142 0 -217 57t-75 164zM682 614h279l-37 541z" />
    <glyph glyph-name="aogonek" unicode="&#x105;" horiz-adv-x="1255" 
d="M973 -467q-112 -61 -256 -61q-142 0 -217.5 57t-75.5 164q0 94 48.5 168t164.5 139l20 137q-136 -162 -344 -162q-142 0 -227.5 79.5t-85.5 232.5q0 204 164 318t473 114h117q4 28 4 41q0 51 -35.5 71.5t-122.5 20.5q-198 0 -381 -111l-16 324q97 50 233.5 78t282.5 28
q479 0 479 -337q0 -56 -12 -117l-144 -717h-73q-258 -74 -258 -199q0 -67 90 -67q66 0 160 49zM508 279q117 0 180 116l23 111h-54q-117 0 -180 -39t-63 -105q0 -83 94 -83z" />
    <glyph glyph-name="Cacute" unicode="&#x106;" horiz-adv-x="1421" 
d="M963 1614l-238 110l422 340l360 -172zM1288 113q-82 -60 -218 -101t-306 -41q-322 0 -491 161.5t-169 477.5q0 145 35 280t109 255t181 209.5t260.5 141.5t336.5 52q298 0 461 -127l-156 -409q-115 143 -305 143q-129 0 -230.5 -70t-154.5 -182.5t-53 -243.5
q0 -149 71.5 -221.5t204.5 -72.5q105 0 208 43t183 116z" />
    <glyph glyph-name="cacute" unicode="&#x107;" horiz-adv-x="1089" 
d="M819 1257l-270 46l307 430l389 -66zM956 90q-76 -52 -182.5 -83.5t-226.5 -31.5q-235 0 -369.5 125.5t-134.5 362.5q0 104 26 204t82 192t135.5 161t196.5 110t256 41q126 0 222.5 -31.5t154.5 -82.5l-125 -332q-90 98 -225 98q-72 0 -128 -28t-89.5 -74.5t-50.5 -101.5
t-17 -113q0 -182 185 -182q146 0 266 96z" />
    <glyph glyph-name="Ccircumflex" unicode="&#x108;" horiz-adv-x="1421" 
d="M1518 1651l-367 -29l-90 197l-176 -197l-391 29l421 372h353zM1288 113q-82 -60 -218 -101t-306 -41q-322 0 -491 161.5t-169 477.5q0 145 35 280t109 255t181 209.5t260.5 141.5t336.5 52q298 0 461 -127l-156 -409q-115 143 -305 143q-129 0 -230.5 -70t-154.5 -182.5
t-53 -243.5q0 -149 71.5 -221.5t204.5 -72.5q105 0 208 43t183 116z" />
    <glyph glyph-name="ccircumflex" unicode="&#x109;" horiz-adv-x="1089" 
d="M1229 1292l-342 -26l-82 250l-184 -250l-363 28l404 426h352zM956 90q-76 -52 -182.5 -83.5t-226.5 -31.5q-235 0 -369.5 125.5t-134.5 362.5q0 104 26 204t82 192t135.5 161t196.5 110t256 41q126 0 222.5 -31.5t154.5 -82.5l-125 -332q-90 98 -225 98q-72 0 -128 -28
t-89.5 -74.5t-50.5 -101.5t-17 -113q0 -182 185 -182q146 0 266 96z" />
    <glyph glyph-name="Cdotaccent" unicode="&#x10a;" horiz-adv-x="1421" 
d="M793 1651l65 327h459l-66 -327h-458zM1288 113q-82 -60 -218 -101t-306 -41q-322 0 -491 161.5t-169 477.5q0 145 35 280t109 255t181 209.5t260.5 141.5t336.5 52q298 0 461 -127l-156 -409q-115 143 -305 143q-129 0 -230.5 -70t-154.5 -182.5t-53 -243.5
q0 -149 71.5 -221.5t204.5 -72.5q105 0 208 43t183 116z" />
    <glyph glyph-name="cdotaccent" unicode="&#x10b;" horiz-adv-x="1089" 
d="M516 1266l66 327h450l-65 -327h-451zM956 90q-76 -52 -182.5 -83.5t-226.5 -31.5q-235 0 -369.5 125.5t-134.5 362.5q0 104 26 204t82 192t135.5 161t196.5 110t256 41q126 0 222.5 -31.5t154.5 -82.5l-125 -332q-90 98 -225 98q-72 0 -128 -28t-89.5 -74.5t-50.5 -101.5
t-17 -113q0 -182 185 -182q146 0 266 96z" />
    <glyph glyph-name="Ccaron" unicode="&#x10c;" horiz-adv-x="1421" 
d="M1610 2011l-422 -373h-352l-250 373l366 29l90 -197l177 197zM1288 113q-82 -60 -218 -101t-306 -41q-322 0 -491 161.5t-169 477.5q0 145 35 280t109 255t181 209.5t260.5 141.5t336.5 52q298 0 461 -127l-156 -409q-115 143 -305 143q-129 0 -230.5 -70t-154.5 -182.5
t-53 -243.5q0 -149 71.5 -221.5t204.5 -72.5q105 0 208 43t183 116z" />
    <glyph glyph-name="ccaron" unicode="&#x10d;" horiz-adv-x="1089" 
d="M1313 1692l-402 -422h-352l-213 424l342 26l80 -245l182 245zM956 90q-76 -52 -182.5 -83.5t-226.5 -31.5q-235 0 -369.5 125.5t-134.5 362.5q0 104 26 204t82 192t135.5 161t196.5 110t256 41q126 0 222.5 -31.5t154.5 -82.5l-125 -332q-90 98 -225 98q-72 0 -128 -28
t-89.5 -74.5t-50.5 -101.5t-17 -113q0 -182 185 -182q146 0 266 96z" />
    <glyph glyph-name="Dcaron" unicode="&#x10e;" horiz-adv-x="1597" 
d="M1536 2011l-422 -373h-352l-250 373l367 29l90 -197l176 197zM1569 922q0 -204 -63 -373.5t-180 -291.5t-294 -189.5t-397 -67.5h-619l303 1520h566q190 0 323.5 -39t212 -118t113.5 -186.5t35 -254.5zM807 1149h-102l-156 -776h125q83 0 152.5 26.5t117.5 72.5
t81.5 109.5t49 137t15.5 155.5q0 150 -62.5 212.5t-220.5 62.5z" />
    <glyph glyph-name="dcaron" unicode="&#x10f;" horiz-adv-x="1441" 
d="M1747 1241h-270l145 475h373zM737 0l25 156q-135 -181 -354 -181q-179 0 -272 115.5t-93 335.5q0 116 25.5 225.5t76 203.5t120 164.5t164 111t202.5 40.5q185 0 289 -116l108 538h434l-319 -1593h-406zM489 496q0 -164 125 -164q122 0 189 135l57 287q-19 34 -57 55.5
t-82 21.5q-98 0 -165 -101.5t-67 -233.5z" />
    <glyph glyph-name="Dcroat" unicode="&#x110;" horiz-adv-x="1630" 
d="M1602 922q0 -204 -63 -373.5t-180 -291.5t-294 -189.5t-397 -67.5h-619l121 608h-152l66 328h152l116 584h566q190 0 323.5 -39t212 -118t113.5 -186.5t35 -254.5zM864 608h-235l-47 -235h125q104 0 184.5 40t130 110t75 159t25.5 192q0 150 -62 212.5t-220 62.5h-103
l-43 -213h236z" />
    <glyph glyph-name="dcroat" unicode="&#x111;" horiz-adv-x="1368" 
d="M737 0l25 156q-135 -181 -354 -181q-179 0 -272 115.5t-93 335.5q0 116 25.5 225.5t76 203.5t120 164.5t164 111t202.5 40.5q185 0 289 -116l41 200h-316l47 236h316l24 127h434l-24 -127h123l-47 -236h-123l-252 -1255h-406zM489 496q0 -164 125 -164q122 0 189 135
l57 287q-19 34 -57 55.5t-82 21.5q-98 0 -165 -101.5t-67 -233.5z" />
    <glyph glyph-name="Emacron" unicode="&#x112;" horiz-adv-x="1343" 
d="M477 1683l53 263h844l-53 -263h-844zM1221 377l-76 -377h-1129l303 1520h1113l-74 -373h-656l-38 -197h571l-72 -356h-571l-43 -217h672z" />
    <glyph glyph-name="emacron" unicode="&#x113;" horiz-adv-x="1257" 
d="M399 1298l52 263h774l-51 -263h-775zM1114 82q-210 -107 -491 -107q-295 0 -437.5 119.5t-142.5 358.5q0 107 26.5 209t84 195t139.5 162.5t201 110.5t260 41q110 0 194 -25.5t135 -66t83.5 -99t44.5 -117t12 -126.5q0 -151 -56 -274h-690q3 -86 52.5 -127t191.5 -41
q212 0 377 106zM717 885q-148 0 -209 -193h307q14 25 14 74q0 119 -112 119z" />
    <glyph glyph-name="Ebreve" unicode="&#x114;" horiz-adv-x="1343" 
d="M524 1995l307 12q-6 -30 -6 -55q0 -94 99 -94q124 0 151 149l322 -12q-46 -192 -178.5 -286.5t-323.5 -94.5q-178 0 -277.5 79t-99.5 224q0 37 6 78zM1221 377l-76 -377h-1129l303 1520h1113l-74 -373h-656l-38 -197h571l-72 -356h-571l-43 -217h672z" />
    <glyph glyph-name="ebreve" unicode="&#x115;" horiz-adv-x="1257" 
d="M426 1679l307 13q-10 -48 -10 -78q0 -105 96 -105q62 0 99.5 44.5t58.5 138.5l321 -13q-51 -208 -186 -312.5t-326 -104.5q-173 0 -270.5 84t-97.5 241q0 48 8 92zM1114 82q-210 -107 -491 -107q-295 0 -437.5 119.5t-142.5 358.5q0 107 26.5 209t84 195t139.5 162.5
t201 110.5t260 41q110 0 194 -25.5t135 -66t83.5 -99t44.5 -117t12 -126.5q0 -151 -56 -274h-690q3 -86 52.5 -127t191.5 -41q212 0 377 106zM717 885q-148 0 -209 -193h307q14 25 14 74q0 119 -112 119z" />
    <glyph glyph-name="Edotaccent" unicode="&#x116;" horiz-adv-x="1343" 
d="M668 1651l65 327h459l-66 -327h-458zM1221 377l-76 -377h-1129l303 1520h1113l-74 -373h-656l-38 -197h571l-72 -356h-571l-43 -217h672z" />
    <glyph glyph-name="edotaccent" unicode="&#x117;" horiz-adv-x="1257" 
d="M555 1266l66 327h450l-65 -327h-451zM1114 82q-210 -107 -491 -107q-295 0 -437.5 119.5t-142.5 358.5q0 107 26.5 209t84 195t139.5 162.5t201 110.5t260 41q110 0 194 -25.5t135 -66t83.5 -99t44.5 -117t12 -126.5q0 -151 -56 -274h-690q3 -86 52.5 -127t191.5 -41
q212 0 377 106zM717 885q-148 0 -209 -193h307q14 25 14 74q0 119 -112 119z" />
    <glyph glyph-name="Eogonek" unicode="&#x118;" horiz-adv-x="1343" 
d="M485 -307q0 94 53 167.5t169 139.5h-691l303 1520h1113l-74 -373h-656l-38 -197h571l-72 -356h-571l-43 -217h672l-76 -377h-115q-120 -26 -189 -80t-69 -119q0 -67 90 -67q66 0 160 49l12 -250q-112 -61 -256 -61q-142 0 -217.5 57t-75.5 164z" />
    <glyph glyph-name="eogonek" unicode="&#x119;" horiz-adv-x="1257" 
d="M950 -467q-112 -61 -256 -61q-142 0 -217.5 57t-75.5 164q0 172 187 282q-277 7 -411 127t-134 351q0 107 26.5 209t84 195t139.5 162.5t201 110.5t260 41q110 0 194 -25.5t135 -66t83.5 -99t44.5 -117t12 -126.5q0 -151 -56 -274h-690q3 -86 52.5 -127t191.5 -41
q212 0 377 106l16 -319q-86 -44 -172 -66q-121 -38 -187.5 -94t-66.5 -121q0 -67 90 -67q66 0 160 49zM717 885q-148 0 -209 -193h307q14 25 14 74q0 119 -112 119z" />
    <glyph glyph-name="Ecaron" unicode="&#x11a;" horiz-adv-x="1343" 
d="M1485 2011l-422 -373h-352l-250 373l366 29l91 -197l176 197zM1221 377l-76 -377h-1129l303 1520h1113l-74 -373h-656l-38 -197h571l-72 -356h-571l-43 -217h672z" />
    <glyph glyph-name="ecaron" unicode="&#x11b;" horiz-adv-x="1257" 
d="M1352 1692l-402 -422h-352l-213 424l342 26l80 -245l182 245zM1114 82q-210 -107 -491 -107q-295 0 -437.5 119.5t-142.5 358.5q0 107 26.5 209t84 195t139.5 162.5t201 110.5t260 41q110 0 194 -25.5t135 -66t83.5 -99t44.5 -117t12 -126.5q0 -151 -56 -274h-690
q3 -86 52.5 -127t191.5 -41q212 0 377 106zM717 885q-148 0 -209 -193h307q14 25 14 74q0 119 -112 119z" />
    <glyph glyph-name="Gcircumflex" unicode="&#x11c;" horiz-adv-x="1589" 
d="M1546 1651l-366 -29l-90 197l-177 -197l-391 29l422 372h352zM1389 113q-98 -60 -252 -101t-340 -41q-693 0 -693 647q0 146 33.5 278.5t109 252.5t185.5 208t274 139.5t365 51.5q333 0 531 -127l-156 -409q-63 63 -162 103t-221 40q-117 0 -209.5 -40t-149.5 -109.5
t-86.5 -159t-29.5 -193.5q0 -149 68.5 -218.5t232.5 -69.5q81 0 147 14l35 178h-254l66 324h659z" />
    <glyph glyph-name="gcircumflex" unicode="&#x11d;" horiz-adv-x="1359" 
d="M1298 1292l-342 -26l-82 250l-184 -250l-362 28l403 426h352zM1147 20q-100 -495 -698 -495q-316 0 -504 123l94 323q65 -55 175 -91t226 -36q119 0 188 47t91 158l18 96q-127 -145 -321 -145q-181 0 -277 110t-96 326q0 141 41.5 273t115.5 235t187 165t246 62
q202 0 303 -145l31 121h405zM489 506q0 -162 127 -162q122 0 189 135l53 266q-18 41 -55 63.5t-82 22.5q-97 0 -164.5 -98.5t-67.5 -226.5z" />
    <glyph glyph-name="Gbreve" unicode="&#x11e;" horiz-adv-x="1589" 
d="M678 1995l307 12q-6 -30 -6 -55q0 -94 98 -94q125 0 152 149l321 -12q-46 -192 -178 -286.5t-323 -94.5q-178 0 -277.5 79t-99.5 224q0 37 6 78zM1389 113q-98 -60 -252 -101t-340 -41q-693 0 -693 647q0 146 33.5 278.5t109 252.5t185.5 208t274 139.5t365 51.5
q333 0 531 -127l-156 -409q-63 63 -162 103t-221 40q-117 0 -209.5 -40t-149.5 -109.5t-86.5 -159t-29.5 -193.5q0 -149 68.5 -218.5t232.5 -69.5q81 0 147 14l35 178h-254l66 324h659z" />
    <glyph glyph-name="gbreve" unicode="&#x11f;" horiz-adv-x="1359" 
d="M461 1679l307 13q-10 -48 -10 -78q0 -105 96 -105q62 0 99.5 44.5t58.5 138.5l321 -13q-51 -208 -186 -312.5t-326 -104.5q-173 0 -270.5 84t-97.5 241q0 48 8 92zM1147 20q-100 -495 -698 -495q-316 0 -504 123l94 323q65 -55 175 -91t226 -36q119 0 188 47t91 158
l18 96q-127 -145 -321 -145q-181 0 -277 110t-96 326q0 141 41.5 273t115.5 235t187 165t246 62q202 0 303 -145l31 121h405zM489 506q0 -162 127 -162q122 0 189 135l53 266q-18 41 -55 63.5t-82 22.5q-97 0 -164.5 -98.5t-67.5 -226.5z" />
    <glyph glyph-name="Gdotaccent" unicode="&#x120;" horiz-adv-x="1589" 
d="M821 1651l66 327h459l-66 -327h-459zM1389 113q-98 -60 -252 -101t-340 -41q-693 0 -693 647q0 146 33.5 278.5t109 252.5t185.5 208t274 139.5t365 51.5q333 0 531 -127l-156 -409q-63 63 -162 103t-221 40q-117 0 -209.5 -40t-149.5 -109.5t-86.5 -159t-29.5 -193.5
q0 -149 68.5 -218.5t232.5 -69.5q81 0 147 14l35 178h-254l66 324h659z" />
    <glyph glyph-name="gdotaccent" unicode="&#x121;" horiz-adv-x="1359" 
d="M586 1266l65 327h451l-66 -327h-450zM1147 20q-100 -495 -698 -495q-316 0 -504 123l94 323q65 -55 175 -91t226 -36q119 0 188 47t91 158l18 96q-127 -145 -321 -145q-181 0 -277 110t-96 326q0 141 41.5 273t115.5 235t187 165t246 62q202 0 303 -145l31 121h405z
M489 506q0 -162 127 -162q122 0 189 135l53 266q-18 41 -55 63.5t-82 22.5q-97 0 -164.5 -98.5t-67.5 -226.5z" />
    <glyph glyph-name="uni0122" unicode="&#x122;" horiz-adv-x="1589" 
d="M1389 113q-98 -60 -252 -101t-340 -41q-693 0 -693 647q0 146 33.5 278.5t109 252.5t185.5 208t274 139.5t365 51.5q333 0 531 -127l-156 -409q-63 63 -162 103t-221 40q-117 0 -209.5 -40t-149.5 -109.5t-86.5 -159t-29.5 -193.5q0 -149 68.5 -218.5t232.5 -69.5
q81 0 147 14l35 178h-254l66 324h659zM672 -549l-299 68q165 176 196 395h361q-38 -287 -258 -463z" />
    <glyph glyph-name="uni0123" unicode="&#x123;" horiz-adv-x="1359" 
d="M858 1716l299 -67q-149 -175 -176 -396h-360q36 289 237 463zM1147 20q-100 -495 -698 -495q-316 0 -504 123l94 323q65 -55 175 -91t226 -36q119 0 188 47t91 158l18 96q-127 -145 -321 -145q-181 0 -277 110t-96 326q0 141 41.5 273t115.5 235t187 165t246 62
q202 0 303 -145l31 121h405zM489 506q0 -162 127 -162q122 0 189 135l53 266q-18 41 -55 63.5t-82 22.5q-97 0 -164.5 -98.5t-67.5 -226.5z" />
    <glyph glyph-name="Hcircumflex" unicode="&#x124;" horiz-adv-x="1613" 
d="M1513 1651l-366 -29l-90 197l-176 -197l-392 29l422 372h353zM909 0l117 584h-434l-117 -584h-459l303 1520h459l-110 -557h434l110 557h459l-303 -1520h-459z" />
    <glyph glyph-name="hcircumflex" unicode="&#x125;" horiz-adv-x="1323" 
d="M1358 1651l-367 -29l-90 197l-176 -197l-391 29l422 372h352zM557 676l-135 -676h-434l319 1593h434l-123 -600q151 178 361 178q135 0 213 -76.5t78 -230.5q0 -54 -17 -147l-143 -717h-434l135 676q6 27 6 51q0 80 -80 80q-51 0 -99 -32t-81 -99z" />
    <glyph glyph-name="Hbar" unicode="&#x126;" horiz-adv-x="1646" 
d="M926 0l116 584h-434l-116 -584h-459l223 1118h-139l49 246h139l31 156h459l-31 -156h434l31 156h459l-31 -156h139l-49 -246h-139l-224 -1118h-458zM684 963h434l31 155h-434z" />
    <glyph glyph-name="hbar" unicode="&#x127;" horiz-adv-x="1331" 
d="M565 676l-135 -676h-434l252 1255h-123l47 236h123l24 127h435l-27 -127h322l-48 -236h-321l-53 -262q151 178 360 178q135 0 213 -76.5t78 -230.5q0 -59 -16 -147l-144 -717h-434l135 676q6 27 6 51q0 80 -80 80q-51 0 -99 -32t-81 -99z" />
    <glyph glyph-name="Itilde" unicode="&#x128;" horiz-adv-x="720" 
d="M346 1606l-291 20q63 385 359 385q108 0 209 -59q87 -51 133 -51q39 0 61 28t31 94l291 -20q-63 -385 -359 -385q-108 0 -209 59q-89 52 -133 52q-39 0 -61 -28.5t-31 -94.5zM16 0l303 1520h459l-303 -1520h-459z" />
    <glyph glyph-name="itilde" unicode="&#x129;" horiz-adv-x="679" 
d="M315 1253l-278 21q35 196 119 290.5t202 94.5q92 0 177 -55q76 -48 110 -48q28 0 45 25t29 90l278 -20q-35 -196 -119 -290.5t-202 -94.5q-91 0 -176 55q-75 47 -111 47q-28 0 -45 -25t-29 -90zM8 0l230 1147h434l-230 -1147h-434z" />
    <glyph glyph-name="Imacron" unicode="&#x12a;" horiz-adv-x="720" 
d="M152 1683l53 263h844l-54 -263h-843zM16 0l303 1520h459l-303 -1520h-459z" />
    <glyph glyph-name="imacron" unicode="&#x12b;" horiz-adv-x="679" 
d="M158 1298l51 263h655l-51 -263h-655zM8 0l230 1147h434l-230 -1147h-434z" />
    <glyph glyph-name="Ibreve" unicode="&#x12c;" horiz-adv-x="720" 
d="M199 1995l307 12q-6 -30 -6 -55q0 -94 98 -94q125 0 152 149l321 -12q-46 -192 -178.5 -286.5t-323.5 -94.5q-178 0 -277 79t-99 224q0 37 6 78zM16 0l303 1520h459l-303 -1520h-459z" />
    <glyph glyph-name="ibreve" unicode="&#x12d;" horiz-adv-x="679" 
d="M156 1679l284 13q-10 -52 -10 -82q0 -101 88 -101q59 0 94 44.5t56 138.5l299 -13q-45 -209 -170 -313t-312 -104q-164 0 -252 78.5t-88 228.5q0 39 11 110zM8 0l230 1147h434l-230 -1147h-434z" />
    <glyph glyph-name="Iogonek" unicode="&#x12e;" horiz-adv-x="720" 
d="M-115 -307q0 96 49.5 169t163.5 138h-82l303 1520h459l-303 -1520h-45q-258 -74 -258 -199q0 -67 90 -67q66 0 160 49l12 -250q-112 -61 -256 -61q-142 0 -217.5 57t-75.5 164z" />
    <glyph glyph-name="iogonek" unicode="&#x12f;" horiz-adv-x="671" 
d="M250 1266l65 327h451l-66 -327h-450zM-139 -307q0 96 49.5 169t163.5 138h-70l229 1147h435l-230 -1147h-32q-259 -74 -259 -199q0 -67 91 -67q65 0 159 49l13 -250q-112 -61 -256 -61q-142 0 -217.5 57t-75.5 164z" />
    <glyph glyph-name="Idotaccent" unicode="&#x130;" horiz-adv-x="720" 
d="M342 1651l66 327h458l-65 -327h-459zM16 0l303 1520h459l-303 -1520h-459z" />
    <glyph glyph-name="dotlessi" unicode="&#x131;" horiz-adv-x="647" 
d="M-8 0l229 1147h434l-229 -1147h-434z" />
    <glyph glyph-name="IJ" unicode="&#x132;" horiz-adv-x="1714" 
d="M16 0l303 1520h459l-303 -1520h-459zM612 37l99 387q101 -59 194 -59q94 0 152.5 60.5t89.5 213.5l176 881h459l-197 -983q-31 -155 -88.5 -265t-141 -175.5t-185.5 -95.5t-232 -30q-106 0 -178.5 17t-147.5 49z" />
    <glyph glyph-name="ij" unicode="&#x133;" horiz-adv-x="1310" 
d="M238 1266l65 327h451l-66 -327h-450zM909 1266l66 327h450l-65 -327h-451zM-8 0l229 1147h434l-229 -1147h-434zM291 -422l94 336q67 -37 123 -37q62 0 105 41.5t63 142.5l217 1086h434l-207 -1034q-26 -133 -68.5 -234t-95 -166.5t-120 -107.5t-138.5 -59t-155 -17
q-149 0 -252 49z" />
    <glyph glyph-name="Jcircumflex" unicode="&#x134;" horiz-adv-x="993" 
d="M1350 1651l-367 -29l-90 197l-176 -197l-391 29l422 372h352zM-109 37l99 387q101 -59 194 -59q94 0 152.5 60.5t89.5 213.5l176 881h459l-197 -983q-31 -155 -88.5 -265t-141 -175.5t-185.5 -95.5t-232 -30q-106 0 -178.5 17t-147.5 49z" />
    <glyph glyph-name="jcircumflex" unicode="&#x135;" horiz-adv-x="663" 
d="M950 1292l-342 -26l-82 250l-184 -250l-362 28l403 426h352zM-356 -422l94 336q67 -37 123 -37q62 0 105 41.5t63 142.5l217 1086h434l-207 -1034q-26 -133 -68.5 -234t-95 -166.5t-120 -107.5t-138.5 -59t-155 -17q-149 0 -252 49z" />
    <glyph glyph-name="uni0136" unicode="&#x136;" horiz-adv-x="1609" 
d="M981 0l-262 526l-170 -151l-74 -375h-459l303 1520h459l-123 -615l557 615h603v-4l-766 -691l467 -821v-4h-535zM635 -549l-299 68q165 176 196 395h361q-38 -287 -258 -463z" />
    <glyph glyph-name="uni0137" unicode="&#x137;" horiz-adv-x="1339" 
d="M776 0l-180 373l-121 -109l-53 -264h-434l319 1593h434l-176 -882l375 436h530v-4l-565 -498l361 -641v-4h-490zM498 -549l-299 68q165 176 196 395h361q-38 -287 -258 -463z" />
    <glyph glyph-name="kgreenlandic" unicode="&#x138;" horiz-adv-x="1339" 
d="M776 0l-180 373l-121 -109l-53 -264h-434l229 1147h434l-88 -436l377 436h530v-4l-565 -498l361 -641v-4h-490z" />
    <glyph glyph-name="Lacute" unicode="&#x139;" horiz-adv-x="1220" 
d="M569 1614l-237 110l422 340l360 -172zM1153 377l-76 -377h-1061l303 1520h459l-229 -1143h604z" />
    <glyph glyph-name="lacute" unicode="&#x13a;" horiz-adv-x="647" 
d="M475 1614l-237 110l421 340l361 -172zM-8 0l319 1593h434l-319 -1593h-434z" />
    <glyph glyph-name="uni013B" unicode="&#x13b;" horiz-adv-x="1220" 
d="M1153 377l-76 -377h-1061l303 1520h459l-229 -1143h604zM463 -549l-299 68q165 176 196 395h361q-38 -287 -258 -463z" />
    <glyph glyph-name="uni013C" unicode="&#x13c;" horiz-adv-x="647" 
d="M-8 0l319 1593h434l-319 -1593h-434zM115 -549l-299 68q165 176 196 395h361q-38 -287 -258 -463z" />
    <glyph glyph-name="Lcaron" unicode="&#x13d;" horiz-adv-x="1220" 
d="M1096 1118h-271l146 475h372zM1153 377l-76 -377h-1061l303 1520h459l-229 -1143h604z" />
    <glyph glyph-name="lcaron" unicode="&#x13e;" horiz-adv-x="729" 
d="M1034 1241h-270l145 475h373zM-8 0l319 1593h434l-319 -1593h-434z" />
    <glyph glyph-name="Ldot" unicode="&#x13f;" horiz-adv-x="1220" 
d="M1153 377l-76 -377h-1061l303 1520h459l-229 -1143h604zM788 686l84 410h410l-84 -410h-410z" />
    <glyph glyph-name="ldot" unicode="&#x140;" horiz-adv-x="1097" 
d="M-8 0l319 1593h434l-319 -1593h-434zM670 588l84 409h409l-84 -409h-409z" />
    <glyph glyph-name="Lslash" unicode="&#x141;" horiz-adv-x="1245" 
d="M1178 377l-76 -377h-1061l98 492l-174 -80l62 309l174 80l143 719h459l-107 -535l367 166l-62 -309l-368 -168l-60 -297h605z" />
    <glyph glyph-name="lslash" unicode="&#x142;" horiz-adv-x="802" 
d="M858 848l-207 -115l-147 -733h-434l104 516l-201 -110l62 307l201 110l153 770h434l-110 -553l207 115z" />
    <glyph glyph-name="Nacute" unicode="&#x143;" horiz-adv-x="1630" 
d="M967 1614l-238 110l422 340l360 -172zM950 0l-338 805l-161 -805h-435l303 1520h435l338 -805l161 805h435l-304 -1520h-434z" />
    <glyph glyph-name="nacute" unicode="&#x144;" horiz-adv-x="1323" 
d="M868 1257l-270 46l307 430l389 -66zM557 676l-135 -676h-434l229 1147h406l-27 -178q74 98 172 150t211 52q135 0 213 -76.5t78 -230.5q0 -54 -17 -147l-143 -717h-434l135 676q6 27 6 51q0 80 -80 80q-51 0 -99 -32t-81 -99z" />
    <glyph glyph-name="uni0145" unicode="&#x145;" horiz-adv-x="1630" 
d="M950 0l-338 805l-161 -805h-435l303 1520h435l338 -805l161 805h435l-304 -1520h-434zM618 -549l-299 68q166 177 197 395h361q-38 -286 -259 -463z" />
    <glyph glyph-name="uni0146" unicode="&#x146;" horiz-adv-x="1323" 
d="M557 676l-135 -676h-434l229 1147h406l-27 -178q74 98 172 150t211 52q135 0 213 -76.5t78 -230.5q0 -54 -17 -147l-143 -717h-434l135 676q6 27 6 51q0 80 -80 80q-51 0 -99 -32t-81 -99zM463 -549l-299 68q165 176 196 395h361q-38 -287 -258 -463z" />
    <glyph glyph-name="Ncaron" unicode="&#x147;" horiz-adv-x="1630" 
d="M1614 2011l-422 -373h-352l-250 373l366 29l91 -197l176 197zM950 0l-338 805l-161 -805h-435l303 1520h435l338 -805l161 805h435l-304 -1520h-434z" />
    <glyph glyph-name="ncaron" unicode="&#x148;" horiz-adv-x="1323" 
d="M1362 1692l-401 -422h-353l-213 424l342 26l80 -245l182 245zM557 676l-135 -676h-434l229 1147h406l-27 -178q74 98 172 150t211 52q135 0 213 -76.5t78 -230.5q0 -54 -17 -147l-143 -717h-434l135 676q6 27 6 51q0 80 -80 80q-51 0 -99 -32t-81 -99z" />
    <glyph glyph-name="Eng" unicode="&#x14a;" horiz-adv-x="1630" 
d="M1393 41q-54 -269 -202.5 -390.5t-389.5 -121.5q-160 0 -293 61l86 344q78 -53 168 -53q71 0 117 31.5t67 107.5l-334 787l-161 -807h-435l303 1520h435l338 -809l161 809h435z" />
    <glyph glyph-name="eng" unicode="&#x14b;" horiz-adv-x="1323" 
d="M1126 82q-31 -157 -85 -267t-127 -171.5t-155 -88t-184 -26.5q-140 0 -239 45l84 332q56 -33 110 -33q58 0 96.5 37t57.5 131l127 635q6 27 6 51q0 80 -80 80q-51 0 -99 -32t-81 -99l-135 -676h-434l229 1147h406l-27 -178q74 98 172 150t211 52q135 0 213 -76.5
t78 -230.5q0 -54 -17 -147z" />
    <glyph glyph-name="Omacron" unicode="&#x14c;" horiz-adv-x="1630" 
d="M606 1683l53 263h844l-53 -263h-844zM731 -29q-296 0 -463.5 165t-167.5 460q0 149 35.5 288t108.5 259.5t175.5 211t245 142t308.5 51.5q296 0 463.5 -164.5t167.5 -459.5q0 -149 -35.5 -288t-108.5 -260t-175.5 -211t-245 -142t-308.5 -52zM780 365q80 0 146 48.5
t107.5 127t64 172t22.5 188.5q0 254 -196 254q-79 0 -145.5 -48.5t-108 -127t-64 -172.5t-22.5 -189q0 -253 196 -253z" />
    <glyph glyph-name="omacron" unicode="&#x14d;" horiz-adv-x="1294" 
d="M397 1298l52 263h774l-52 -263h-774zM575 -25q-83 0 -157.5 15.5t-144 52t-120 91t-80.5 138.5t-30 189q0 107 26 209t81.5 193t133.5 159.5t190.5 108.5t244.5 40q83 0 157.5 -15.5t144 -51.5t120 -90.5t80.5 -138.5t30 -189q0 -107 -26 -209t-81.5 -193.5t-133.5 -160
t-190.5 -108.5t-244.5 -40zM606 315q63 0 112 56.5t72 137t23 165.5q0 157 -125 157q-63 0 -112 -56t-72 -136.5t-23 -165.5q0 -158 125 -158z" />
    <glyph glyph-name="Obreve" unicode="&#x14e;" horiz-adv-x="1630" 
d="M653 1995l308 12q-7 -35 -7 -55q0 -94 99 -94q124 0 151 149l322 -12q-46 -192 -178.5 -286.5t-323.5 -94.5q-178 0 -277.5 79t-99.5 224q0 37 6 78zM731 -29q-296 0 -463.5 165t-167.5 460q0 149 35.5 288t108.5 259.5t175.5 211t245 142t308.5 51.5q296 0 463.5 -164.5
t167.5 -459.5q0 -149 -35.5 -288t-108.5 -260t-175.5 -211t-245 -142t-308.5 -52zM780 365q80 0 146 48.5t107.5 127t64 172t22.5 188.5q0 254 -196 254q-79 0 -145.5 -48.5t-108 -127t-64 -172.5t-22.5 -189q0 -253 196 -253z" />
    <glyph glyph-name="obreve" unicode="&#x14f;" horiz-adv-x="1294" 
d="M424 1679l307 13q-10 -48 -10 -78q0 -105 96 -105q62 0 99.5 44.5t58.5 138.5l321 -13q-51 -208 -186 -312.5t-326 -104.5q-173 0 -270.5 84t-97.5 241q0 48 8 92zM575 -25q-83 0 -157.5 15.5t-144 52t-120 91t-80.5 138.5t-30 189q0 107 26 209t81.5 193t133.5 159.5
t190.5 108.5t244.5 40q83 0 157.5 -15.5t144 -51.5t120 -90.5t80.5 -138.5t30 -189q0 -107 -26 -209t-81.5 -193.5t-133.5 -160t-190.5 -108.5t-244.5 -40zM606 315q63 0 112 56.5t72 137t23 165.5q0 157 -125 157q-63 0 -112 -56t-72 -136.5t-23 -165.5q0 -158 125 -158z
" />
    <glyph glyph-name="Ohungarumlaut" unicode="&#x150;" horiz-adv-x="1630" 
d="M856 1614l-229 94l309 356l324 -131zM1343 1614l-229 94l309 356l324 -131zM731 -29q-296 0 -463.5 165t-167.5 460q0 149 35.5 288t108.5 259.5t175.5 211t245 142t308.5 51.5q296 0 463.5 -164.5t167.5 -459.5q0 -149 -35.5 -288t-108.5 -260t-175.5 -211t-245 -142
t-308.5 -52zM780 365q80 0 146 48.5t107.5 127t64 172t22.5 188.5q0 254 -196 254q-79 0 -145.5 -48.5t-108 -127t-64 -172.5t-22.5 -189q0 -253 196 -253z" />
    <glyph glyph-name="ohungarumlaut" unicode="&#x151;" horiz-adv-x="1294" 
d="M657 1257l-274 54l317 422l347 -66zM1116 1257l-272 54l317 422l344 -66zM575 -25q-83 0 -157.5 15.5t-144 52t-120 91t-80.5 138.5t-30 189q0 107 26 209t81.5 193t133.5 159.5t190.5 108.5t244.5 40q83 0 157.5 -15.5t144 -51.5t120 -90.5t80.5 -138.5t30 -189
q0 -107 -26 -209t-81.5 -193.5t-133.5 -160t-190.5 -108.5t-244.5 -40zM606 315q63 0 112 56.5t72 137t23 165.5q0 157 -125 157q-63 0 -112 -56t-72 -136.5t-23 -165.5q0 -158 125 -158z" />
    <glyph glyph-name="OE" unicode="&#x152;" horiz-adv-x="2236" 
d="M2038 0h-1088q-104 -29 -221 -29q-298 0 -463.5 173.5t-165.5 476.5q0 135 32.5 265.5t102.5 251t170 211t245.5 145t318.5 54.5q128 0 229 -28h1126l-73 -373h-656l-39 -197h572l-72 -356h-571l-43 -217h672zM584 657q0 -144 63.5 -220.5t204.5 -76.5q71 0 135 25
l148 743q-57 31 -148 31q-103 0 -183 -44t-126.5 -117.5t-70 -160t-23.5 -180.5z" />
    <glyph glyph-name="oe" unicode="&#x153;" horiz-adv-x="1998" 
d="M1855 82q-210 -107 -485 -107q-289 0 -418 129q-154 -129 -383 -129q-81 0 -154 15.5t-142 52t-119.5 91t-80.5 138.5t-30 189q0 107 26.5 209t81.5 193t133 159.5t189 108.5t242 40q245 0 370 -133q165 133 414 133q108 0 191 -25.5t134 -66t83.5 -99t44.5 -117
t12 -126.5q0 -153 -55 -274h-690q3 -86 52 -127t191 -41q212 0 377 106zM1458 885q-148 0 -209 -193h307q15 27 15 74q0 119 -113 119zM606 315q63 0 112 56.5t72 137t23 165.5q0 157 -125 157q-63 0 -112 -56t-72 -136.5t-23 -165.5q0 -158 125 -158z" />
    <glyph glyph-name="Racute" unicode="&#x154;" horiz-adv-x="1523" 
d="M862 1614l-237 110l422 340l360 -172zM907 0l-217 438h-127l-88 -438h-459l303 1520h633q274 0 410.5 -119t136.5 -336q0 -187 -102 -337t-285 -226l318 -502h-523zM852 1149h-147l-70 -350h151q120 0 181 57t61 148q0 76 -44.5 110.5t-131.5 34.5z" />
    <glyph glyph-name="racute" unicode="&#x155;" horiz-adv-x="962" 
d="M647 1257l-270 46l307 430l389 -66zM545 614l-123 -614h-434l229 1147h401l-32 -219q66 137 149.5 190t188.5 53q91 0 137 -24l-115 -402q-60 29 -139 29q-85 0 -156 -40.5t-106 -119.5z" />
    <glyph glyph-name="uni0156" unicode="&#x156;" horiz-adv-x="1523" 
d="M907 0l-217 438h-127l-88 -438h-459l303 1520h633q274 0 410.5 -119t136.5 -336q0 -187 -102 -337t-285 -226l318 -502h-523zM852 1149h-147l-70 -350h151q120 0 181 57t61 148q0 76 -44.5 110.5t-131.5 34.5zM602 -549l-299 68q166 177 197 395h360q-38 -287 -258 -463z
" />
    <glyph glyph-name="uni0157" unicode="&#x157;" horiz-adv-x="962" 
d="M545 614l-123 -614h-434l229 1147h401l-32 -219q66 137 149.5 190t188.5 53q91 0 137 -24l-115 -402q-60 29 -139 29q-85 0 -156 -40.5t-106 -119.5zM113 -549l-299 68q165 176 196 395h361q-38 -287 -258 -463z" />
    <glyph glyph-name="Rcaron" unicode="&#x158;" horiz-adv-x="1523" 
d="M1509 2011l-422 -373h-352l-250 373l367 29l90 -197l176 197zM907 0l-217 438h-127l-88 -438h-459l303 1520h633q274 0 410.5 -119t136.5 -336q0 -187 -102 -337t-285 -226l318 -502h-523zM852 1149h-147l-70 -350h151q120 0 181 57t61 148q0 76 -44.5 110.5t-131.5 34.5
z" />
    <glyph glyph-name="rcaron" unicode="&#x159;" horiz-adv-x="962" 
d="M1186 1692l-402 -422h-352l-213 424l342 26l80 -245l182 245zM545 614l-123 -614h-434l229 1147h401l-32 -219q66 137 149.5 190t188.5 53q91 0 137 -24l-115 -402q-60 29 -139 29q-85 0 -156 -40.5t-106 -119.5z" />
    <glyph glyph-name="Sacute" unicode="&#x15a;" horiz-adv-x="1327" 
d="M834 1614l-238 110l422 340l360 -172zM-27 113l127 405q101 -75 224.5 -120.5t246.5 -45.5q103 0 146 29.5t43 73.5q0 58 -87 94q-34 14 -130 41q-56 16 -99.5 33.5t-92 50.5t-79.5 74t-52 105t-21 144q0 118 43.5 217.5t127 174.5t214.5 117t297 42q274 0 485 -110
l-119 -406q-180 135 -391 135q-98 0 -140 -27.5t-42 -68.5q0 -21 11.5 -38.5t28.5 -29.5t47.5 -24t57 -19.5t68.5 -17.5q55 -13 99 -30t93.5 -49.5t82.5 -74.5t55 -108t22 -148q0 -121 -44.5 -222.5t-130 -177.5t-220.5 -118.5t-307 -42.5q-319 0 -564 142z" />
    <glyph glyph-name="sacute" unicode="&#x15b;" horiz-adv-x="1085" 
d="M758 1257l-271 46l308 430l389 -66zM-35 82l107 332q76 -59 171 -93t191 -34q127 0 127 61q0 20 -23.5 38t-56 29.5t-82.5 24.5q-44 12 -79 24.5t-75.5 38t-67 57.5t-44.5 82.5t-18 113.5q0 196 145.5 305.5t423.5 109.5q232 0 401 -88l-106 -331q-144 110 -303 110
q-63 0 -95 -16t-32 -43q0 -15 10 -27.5t34.5 -22.5t44.5 -16.5t60 -17.5q46 -12 81.5 -25.5t78 -40t70.5 -59.5t47.5 -85.5t19.5 -117.5q0 -197 -147 -306.5t-428 -109.5q-249 0 -455 107z" />
    <glyph glyph-name="Scircumflex" unicode="&#x15c;" horiz-adv-x="1327" 
d="M1389 1651l-367 -29l-90 197l-176 -197l-391 29l421 372h353zM-27 113l127 405q101 -75 224.5 -120.5t246.5 -45.5q103 0 146 29.5t43 73.5q0 58 -87 94q-34 14 -130 41q-56 16 -99.5 33.5t-92 50.5t-79.5 74t-52 105t-21 144q0 118 43.5 217.5t127 174.5t214.5 117
t297 42q274 0 485 -110l-119 -406q-180 135 -391 135q-98 0 -140 -27.5t-42 -68.5q0 -21 11.5 -38.5t28.5 -29.5t47.5 -24t57 -19.5t68.5 -17.5q55 -13 99 -30t93.5 -49.5t82.5 -74.5t55 -108t22 -148q0 -121 -44.5 -222.5t-130 -177.5t-220.5 -118.5t-307 -42.5
q-319 0 -564 142z" />
    <glyph glyph-name="scircumflex" unicode="&#x15d;" horiz-adv-x="1085" 
d="M1167 1292l-342 -26l-82 250l-184 -250l-362 28l403 426h352zM-35 82l107 332q76 -59 171 -93t191 -34q127 0 127 61q0 20 -23.5 38t-56 29.5t-82.5 24.5q-44 12 -79 24.5t-75.5 38t-67 57.5t-44.5 82.5t-18 113.5q0 196 145.5 305.5t423.5 109.5q232 0 401 -88
l-106 -331q-144 110 -303 110q-63 0 -95 -16t-32 -43q0 -15 10 -27.5t34.5 -22.5t44.5 -16.5t60 -17.5q46 -12 81.5 -25.5t78 -40t70.5 -59.5t47.5 -85.5t19.5 -117.5q0 -197 -147 -306.5t-428 -109.5q-249 0 -455 107z" />
    <glyph glyph-name="Scedilla" unicode="&#x15e;" horiz-adv-x="1327" 
d="M829 -248q0 -131 -101 -205.5t-286 -74.5q-144 0 -272 49l90 246q96 -54 205 -54q94 0 94 51q0 15 -10 25.5t-52 24.5t-120 28l84 131q-274 16 -488 140l127 405q101 -75 224.5 -120.5t246.5 -45.5q103 0 146 29.5t43 73.5q0 58 -87 94q-34 14 -130 41q-56 16 -99.5 33.5
t-92 50.5t-79.5 74t-52 105t-21 144q0 118 43.5 217.5t127 174.5t214.5 117t297 42q274 0 485 -110l-119 -406q-180 135 -391 135q-98 0 -140 -27.5t-42 -68.5q0 -21 11.5 -38.5t28.5 -29.5t47.5 -24t57 -19.5t68.5 -17.5q55 -13 99 -30t93.5 -49.5t82.5 -74.5t55 -108
t22 -148q0 -234 -160 -386.5t-461 -172.5l-8 -10q124 -34 171.5 -83t47.5 -128z" />
    <glyph glyph-name="scedilla" unicode="&#x15f;" horiz-adv-x="1085" 
d="M696 -248q0 -131 -101 -205.5t-286 -74.5q-144 0 -272 49l90 246q96 -54 205 -54q94 0 94 51q0 15 -10 25.5t-52 24.5t-120 28l88 138q-200 14 -367 102l107 332q76 -59 171 -93t191 -34q127 0 127 61q0 20 -23.5 38t-56 29.5t-82.5 24.5q-44 12 -79 24.5t-75.5 38
t-67 57.5t-44.5 82.5t-18 113.5q0 196 145.5 305.5t423.5 109.5q232 0 401 -88l-106 -331q-144 110 -303 110q-63 0 -95 -16t-32 -43q0 -15 10 -27.5t34.5 -22.5t44.5 -16.5t60 -17.5q46 -12 81.5 -25.5t78 -40t70.5 -59.5t47.5 -85.5t19.5 -117.5q0 -184 -129.5 -292.5
t-378.5 -121.5l-10 -14q124 -34 171.5 -83t47.5 -128z" />
    <glyph glyph-name="Scaron" unicode="&#x160;" horiz-adv-x="1327" 
d="M1481 2011l-422 -373h-352l-250 373l366 29l90 -197l177 197zM-27 113l127 405q101 -75 224.5 -120.5t246.5 -45.5q103 0 146 29.5t43 73.5q0 58 -87 94q-34 14 -130 41q-56 16 -99.5 33.5t-92 50.5t-79.5 74t-52 105t-21 144q0 118 43.5 217.5t127 174.5t214.5 117
t297 42q274 0 485 -110l-119 -406q-180 135 -391 135q-98 0 -140 -27.5t-42 -68.5q0 -21 11.5 -38.5t28.5 -29.5t47.5 -24t57 -19.5t68.5 -17.5q55 -13 99 -30t93.5 -49.5t82.5 -74.5t55 -108t22 -148q0 -121 -44.5 -222.5t-130 -177.5t-220.5 -118.5t-307 -42.5
q-319 0 -564 142z" />
    <glyph glyph-name="scaron" unicode="&#x161;" horiz-adv-x="1085" 
d="M1260 1692l-402 -422h-352l-213 424l342 26l80 -245l182 245zM-35 82l107 332q76 -59 171 -93t191 -34q127 0 127 61q0 20 -23.5 38t-56 29.5t-82.5 24.5q-44 12 -79 24.5t-75.5 38t-67 57.5t-44.5 82.5t-18 113.5q0 196 145.5 305.5t423.5 109.5q232 0 401 -88
l-106 -331q-144 110 -303 110q-63 0 -95 -16t-32 -43q0 -15 10 -27.5t34.5 -22.5t44.5 -16.5t60 -17.5q46 -12 81.5 -25.5t78 -40t70.5 -59.5t47.5 -85.5t19.5 -117.5q0 -197 -147 -306.5t-428 -109.5q-249 0 -455 107z" />
    <glyph glyph-name="uni0162" unicode="&#x162;" horiz-adv-x="1347" 
d="M825 -248q0 -131 -101 -205.5t-286 -74.5q-144 0 -272 49l90 246q96 -54 205 -54q94 0 94 51q0 15 -10 25.5t-52 24.5t-120 28l100 158h-141l229 1147h-418l74 373h1290l-73 -373h-414l-229 -1147h-158l-27 -37q124 -34 171.5 -83t47.5 -128z" />
    <glyph glyph-name="uni0163" unicode="&#x163;" horiz-adv-x="958" 
d="M670 -248q0 -131 -101 -205.5t-286 -74.5q-145 0 -273 49l90 246q96 -54 205 -54q94 0 94 51q0 15 -10 25.5t-52 24.5t-120 28l102 160q-174 62 -174 285q0 72 17 153l82 410h-164l59 297h164l57 287l447 86l-74 -373h283l-60 -297h-282l-80 -395q-4 -16 -4 -43
q0 -42 22.5 -61t73.5 -19q87 0 162 37l-31 -332q-158 -62 -356 -62l-10 -12q124 -34 171.5 -83t47.5 -128z" />
    <glyph glyph-name="Tcaron" unicode="&#x164;" horiz-adv-x="1347" 
d="M1473 2011l-422 -373h-353l-249 373l366 29l90 -197l176 197zM1434 1147h-414l-229 -1147h-459l229 1147h-418l74 373h1290z" />
    <glyph glyph-name="tcaron" unicode="&#x165;" horiz-adv-x="958" 
d="M1104 1241h-270l145 475h373zM817 37q-153 -62 -323 -62q-349 0 -349 312q0 72 17 153l82 410h-164l59 297h164l57 287l447 86l-74 -373h283l-60 -297h-282l-80 -395q-4 -16 -4 -43q0 -42 22.5 -61t73.5 -19q87 0 162 37z" />
    <glyph glyph-name="Tbar" unicode="&#x166;" horiz-adv-x="1347" 
d="M1184 506h-293l-100 -506h-459l100 506h-293l66 328h293l63 313h-418l74 373h1290l-73 -373h-414l-64 -313h293z" />
    <glyph glyph-name="tbar" unicode="&#x167;" horiz-adv-x="999" 
d="M838 37q-153 -62 -324 -62q-348 0 -348 312q0 77 16 153l8 37h-163l49 246h164l24 127h-164l60 297h164l57 287l446 86l-73 -373h282l-59 -297h-283l-26 -127h284l-49 -246h-285l-4 -22q-4 -18 -4 -43q0 -41 23 -60.5t74 -19.5q86 0 161 37z" />
    <glyph glyph-name="Utilde" unicode="&#x168;" horiz-adv-x="1568" 
d="M770 1606l-291 20q63 385 359 385q108 0 209 -59q87 -51 133 -51q39 0 61 28t31 94l291 -20q-63 -385 -359 -385q-108 0 -209 59q-89 52 -133 52q-39 0 -61 -28.5t-31 -94.5zM1638 1520l-180 -902q-66 -329 -257 -488t-513 -159q-286 0 -432.5 122t-146.5 353
q0 73 20 183l178 891h455l-178 -891q-11 -64 -11 -92q0 -168 172 -168q107 0 171 64.5t90 195.5l178 891h454z" />
    <glyph glyph-name="utilde" unicode="&#x169;" horiz-adv-x="1323" 
d="M594 1253l-291 21q64 385 350 385q98 0 201 -60q86 -51 125 -51q34 0 54 27t30 96l291 -20q-64 -385 -350 -385q-100 0 -201 59q-86 51 -125 51q-34 0 -54 -27t-30 -96zM700 0l27 180q-152 -205 -379 -205q-136 0 -215.5 77t-79.5 231q0 53 17 147l143 717h434l-135 -676
q-6 -27 -6 -51q0 -80 82 -80q60 0 106.5 40t73.5 101l133 666h434l-229 -1147h-406z" />
    <glyph glyph-name="Umacron" unicode="&#x16a;" horiz-adv-x="1568" 
d="M575 1683l54 263h844l-54 -263h-844zM1638 1520l-180 -902q-66 -329 -257 -488t-513 -159q-286 0 -432.5 122t-146.5 353q0 73 20 183l178 891h455l-178 -891q-11 -64 -11 -92q0 -168 172 -168q107 0 171 64.5t90 195.5l178 891h454z" />
    <glyph glyph-name="umacron" unicode="&#x16b;" horiz-adv-x="1323" 
d="M410 1298l51 263h774l-51 -263h-774zM700 0l27 180q-152 -205 -379 -205q-136 0 -215.5 77t-79.5 231q0 53 17 147l143 717h434l-135 -676q-6 -27 -6 -51q0 -80 82 -80q60 0 106.5 40t73.5 101l133 666h434l-229 -1147h-406z" />
    <glyph glyph-name="Ubreve" unicode="&#x16c;" horiz-adv-x="1568" 
d="M623 1995l307 12q-6 -30 -6 -55q0 -94 98 -94q125 0 152 149l321 -12q-46 -192 -178.5 -286.5t-323.5 -94.5q-178 0 -277.5 79t-99.5 224q0 31 7 78zM1638 1520l-180 -902q-66 -329 -257 -488t-513 -159q-286 0 -432.5 122t-146.5 353q0 73 20 183l178 891h455l-178 -891
q-11 -64 -11 -92q0 -168 172 -168q107 0 171 64.5t90 195.5l178 891h454z" />
    <glyph glyph-name="ubreve" unicode="&#x16d;" horiz-adv-x="1323" 
d="M436 1679l307 13q-10 -48 -10 -78q0 -105 96 -105q62 0 99.5 44.5t58.5 138.5l322 -13q-51 -208 -186 -312.5t-326 -104.5q-173 0 -271 84t-98 241q0 48 8 92zM700 0l27 180q-152 -205 -379 -205q-136 0 -215.5 77t-79.5 231q0 53 17 147l143 717h434l-135 -676
q-6 -27 -6 -51q0 -80 82 -80q60 0 106.5 40t73.5 101l133 666h434l-229 -1147h-406z" />
    <glyph glyph-name="Uring" unicode="&#x16e;" horiz-adv-x="1568" 
d="M995 1569q-133 0 -214 79.5t-81 204.5q0 147 106 247t259 100q133 0 214 -80t81 -205q0 -147 -106 -246.5t-259 -99.5zM1016 1772q54 0 88.5 35.5t34.5 90.5q0 45 -25 72t-70 27q-54 0 -88 -35.5t-34 -91.5q0 -45 24.5 -71.5t69.5 -26.5zM1638 1520l-180 -902
q-66 -329 -257 -488t-513 -159q-286 0 -432.5 122t-146.5 353q0 73 20 183l178 891h455l-178 -891q-11 -64 -11 -92q0 -168 172 -168q107 0 171 64.5t90 195.5l178 891h454z" />
    <glyph glyph-name="uring" unicode="&#x16f;" horiz-adv-x="1323" 
d="M801 1204q-133 0 -214 80t-81 205q0 147 105.5 246.5t258.5 99.5q133 0 214 -80t81 -205q0 -147 -105.5 -246.5t-258.5 -99.5zM821 1407q54 0 88.5 35.5t34.5 91.5q0 45 -24.5 71.5t-69.5 26.5q-54 0 -88.5 -35.5t-34.5 -91.5q0 -45 24.5 -71.5t69.5 -26.5zM700 0l27 180
q-152 -205 -379 -205q-136 0 -215.5 77t-79.5 231q0 53 17 147l143 717h434l-135 -676q-6 -27 -6 -51q0 -80 82 -80q60 0 106.5 40t73.5 101l133 666h434l-229 -1147h-406z" />
    <glyph glyph-name="Uhungarumlaut" unicode="&#x170;" horiz-adv-x="1568" 
d="M825 1614l-229 94l309 356l324 -131zM1313 1614l-230 94l310 356l323 -131zM1638 1520l-180 -902q-66 -329 -257 -488t-513 -159q-286 0 -432.5 122t-146.5 353q0 73 20 183l178 891h455l-178 -891q-11 -64 -11 -92q0 -168 172 -168q107 0 171 64.5t90 195.5l178 891h454
z" />
    <glyph glyph-name="uhungarumlaut" unicode="&#x171;" horiz-adv-x="1323" 
d="M670 1257l-275 54l318 422l346 -66zM1128 1257l-272 54l318 422l344 -66zM700 0l27 180q-152 -205 -379 -205q-136 0 -215.5 77t-79.5 231q0 53 17 147l143 717h434l-135 -676q-6 -27 -6 -51q0 -80 82 -80q60 0 106.5 40t73.5 101l133 666h434l-229 -1147h-406z" />
    <glyph glyph-name="Uogonek" unicode="&#x172;" horiz-adv-x="1568" 
d="M971 -467q-112 -61 -256 -61q-142 0 -217.5 57t-75.5 164q0 83 46 151t146 129q-250 15 -377.5 136t-127.5 337q0 73 20 183l178 891h455l-178 -891q-11 -64 -11 -92q0 -168 172 -168q107 0 171 64.5t90 195.5l178 891h454l-180 -902q-103 -508 -514 -616
q-111 -36 -173 -88t-62 -113q0 -67 90 -67q65 0 159 49z" />
    <glyph glyph-name="uogonek" unicode="&#x173;" horiz-adv-x="1323" 
d="M1036 -467q-112 -61 -256 -61q-142 0 -217.5 57t-75.5 164q0 94 48.5 168t164.5 139l27 180q-152 -205 -379 -205q-136 0 -215.5 77t-79.5 231q0 53 17 147l143 717h434l-135 -676q-6 -27 -6 -51q0 -80 82 -80q60 0 106.5 40t73.5 101l133 666h434l-229 -1147h-74
q-258 -74 -258 -199q0 -67 90 -67q66 0 160 49z" />
    <glyph glyph-name="Wcircumflex" unicode="&#x174;" horiz-adv-x="2265" 
d="M1839 1651l-366 -29l-91 197l-176 -197l-391 29l422 372h352zM1210 0l-14 944l-371 -944h-508l-120 1520h487l4 -969l381 969h463l16 -965l369 965h528l-727 -1520h-508z" />
    <glyph glyph-name="wcircumflex" unicode="&#x175;" horiz-adv-x="1929" 
d="M1569 1292l-342 -26l-82 250l-184 -250l-363 28l403 426h353zM983 0l-6 678l-268 -678h-480l-106 1147h455l2 -707l264 707h430l8 -707l258 707h488l-566 -1147h-479z" />
    <glyph glyph-name="Ycircumflex" unicode="&#x176;" horiz-adv-x="1462" 
d="M1438 1651l-367 -29l-90 197l-176 -197l-391 29l422 372h352zM1683 1520l-735 -1006l-102 -514h-459l107 537l-338 983h503l144 -578l332 578h548z" />
    <glyph glyph-name="ycircumflex" unicode="&#x177;" horiz-adv-x="1314" 
d="M1266 1292l-342 -26l-82 250l-185 -250l-362 28l403 426h353zM799 10q-79 -145 -156.5 -240.5t-160 -147.5t-163 -72.5t-184.5 -20.5q-162 0 -266 53l94 336q84 -45 184 -45q55 0 97 20.5t80 73.5l-209 1180h475l41 -748l307 748h483z" />
    <glyph glyph-name="Ydieresis" unicode="&#x178;" horiz-adv-x="1462" 
d="M1040 1651l66 327h356l-65 -327h-357zM479 1651l66 327h356l-65 -327h-357zM1683 1520l-735 -1006l-102 -514h-459l107 537l-338 983h503l144 -578l332 578h548z" />
    <glyph glyph-name="Zacute" unicode="&#x179;" horiz-adv-x="1363" 
d="M834 1614l-238 110l422 340l360 -172zM1255 377l-75 -377h-1229l67 336l791 811h-600l78 373h1179l-65 -328l-797 -815h651z" />
    <glyph glyph-name="zacute" unicode="&#x17a;" horiz-adv-x="1134" 
d="M778 1257l-270 46l307 430l389 -66zM1022 315l-64 -315h-1015l59 303l582 528h-459l63 316h981l-59 -303l-582 -529h494z" />
    <glyph glyph-name="Zdotaccent" unicode="&#x17b;" horiz-adv-x="1363" 
d="M664 1651l65 327h459l-66 -327h-458zM1255 377l-75 -377h-1229l67 336l791 811h-600l78 373h1179l-65 -328l-797 -815h651z" />
    <glyph glyph-name="zdotaccent" unicode="&#x17c;" horiz-adv-x="1134" 
d="M475 1266l66 327h450l-65 -327h-451zM1022 315l-64 -315h-1015l59 303l582 528h-459l63 316h981l-59 -303l-582 -529h494z" />
    <glyph glyph-name="Zcaron" unicode="&#x17d;" horiz-adv-x="1363" 
d="M1481 2011l-422 -373h-352l-250 373l366 29l90 -197l177 197zM1255 377l-75 -377h-1229l67 336l791 811h-600l78 373h1179l-65 -328l-797 -815h651z" />
    <glyph glyph-name="zcaron" unicode="&#x17e;" horiz-adv-x="1134" 
d="M1272 1692l-402 -422h-352l-213 424l342 26l80 -245l182 245zM1022 315l-64 -315h-1015l59 303l582 528h-459l63 316h981l-59 -303l-582 -529h494z" />
    <glyph glyph-name="longs" unicode="&#x17f;" horiz-adv-x="774" 
d="M-12 0l229 1147q23 116 66.5 202t95.5 136.5t120.5 81t131.5 41t139 10.5q139 0 244 -37l-88 -324q-59 25 -117 25q-63 0 -103 -30t-57 -115l-227 -1137h-434z" />
    <glyph glyph-name="uni018F" unicode="&#x18f;" horiz-adv-x="1593" 
d="M1561 903q0 -137 -28.5 -266.5t-94 -251.5t-162 -213t-242.5 -146t-325 -55q-136 0 -245 32t-180 85t-118.5 125t-67.5 149.5t-20 161.5q0 95 24.5 204.5t57.5 176.5h917q-4 144 -65 197t-219 53q-276 0 -508 -147l-27 393q114 67 281 107t344 40q678 0 678 -645z
M723 348q124 0 201 70t114 188h-510q-12 -35 -12 -84q0 -76 52 -125t155 -49z" />
    <glyph glyph-name="florin" unicode="&#x192;" 
d="M707 174q-38 -129 -87 -224t-100.5 -152.5t-114.5 -91.5t-122.5 -46t-132.5 -12q-178 0 -293 53l114 373q70 -49 144 -49q69 0 103.5 39.5t68.5 154.5l135 457h-176l53 262h201l24 82q38 129 89 224.5t105.5 153t121.5 92t130.5 46.5t139.5 12q189 0 305 -57l-115 -373
q-80 53 -161 53q-78 0 -120.5 -43t-74.5 -153l-10 -37h266l-53 -262h-291z" />
    <glyph glyph-name="Ohorn" unicode="&#x1a0;" horiz-adv-x="1650" 
d="M1604 924q0 -149 -35.5 -288t-108.5 -260t-175.5 -211t-245 -142t-308.5 -52q-296 0 -463.5 165t-167.5 460q0 149 35.5 288t108.5 259.5t175.5 211t245 142t308.5 51.5t293 -53h28q94 0 138.5 59.5t44.5 147.5q0 29 -2 43h364q2 -20 2 -53q0 -72 -16 -134t-51.5 -119
t-101 -98.5t-156.5 -60.5q88 -145 88 -356zM780 365q80 0 146 48.5t107.5 127t64 172t22.5 188.5q0 254 -196 254q-79 0 -145.5 -48.5t-108 -127t-64 -172.5t-22.5 -189q0 -253 196 -253z" />
    <glyph glyph-name="ohorn" unicode="&#x1a1;" horiz-adv-x="1355" 
d="M1251 686q0 -107 -26 -209t-81.5 -193.5t-133.5 -160t-190.5 -108.5t-244.5 -40q-83 0 -157.5 15.5t-144 52t-120 91t-80.5 138.5t-30 189q0 107 26 209t81.5 193t133.5 159.5t190.5 108.5t244.5 40q152 0 264 -49q87 4 128.5 63.5t41.5 143.5q0 29 -2 43h365
q2 -20 2 -53q0 -71 -15.5 -132t-50 -117.5t-97 -97.5t-149.5 -61q45 -95 45 -225zM606 315q63 0 112 56.5t72 137t23 165.5q0 157 -125 157q-63 0 -112 -56t-72 -136.5t-23 -165.5q0 -158 125 -158z" />
    <glyph glyph-name="Uhorn" unicode="&#x1af;" horiz-adv-x="1650" 
d="M1006 629l178 891h209q82 0 116.5 51t34.5 131q0 29 -2 43h365q2 -20 2 -53q0 -54 -9 -102t-32 -95.5t-58 -84t-90 -65t-125 -42.5l-137 -685q-66 -329 -257 -488t-513 -159q-286 0 -432.5 122t-146.5 353q0 73 20 183l178 891h455l-178 -891q-11 -64 -11 -92
q0 -168 172 -168q107 0 171 64.5t90 195.5z" />
    <glyph glyph-name="uhorn" unicode="&#x1b0;" horiz-adv-x="1433" 
d="M768 481l133 666h184q82 0 117 51.5t35 130.5q0 29 -2 43h364q3 -30 3 -53q0 -68 -15 -127t-49 -112.5t-96.5 -92t-149.5 -55.5l-186 -932h-406l27 180q-152 -205 -379 -205q-136 0 -215.5 77t-79.5 231q0 53 17 147l143 717h434l-135 -676q-6 -27 -6 -51q0 -80 82 -80
q60 0 106.5 40t73.5 101z" />
    <glyph glyph-name="Aringacute" unicode="&#x1fa;" horiz-adv-x="1605" 
d="M1004 0l-17 250h-469l-112 -250h-525l803 1520h121q-57 37 -88 98.5t-31 136.5q0 112 64.5 199t167.5 125l-119 55l422 340l360 -172l-424 -217q88 -28 138.5 -99.5t50.5 -168.5q0 -95 -47.5 -173.5t-127.5 -123.5h127l197 -1520h-491zM1001 1673q54 0 88.5 35.5
t34.5 91.5q0 45 -24.5 71.5t-69.5 26.5q-54 0 -88.5 -35.5t-34.5 -90.5q0 -45 24.5 -72t69.5 -27zM682 614h279l-37 541z" />
    <glyph glyph-name="aringacute" unicode="&#x1fb;" horiz-adv-x="1255" 
d="M637 0l20 137q-136 -162 -344 -162q-142 0 -227.5 79.5t-85.5 232.5q0 204 164 318t473 114h117q4 28 4 41q0 51 -35.5 71.5t-122.5 20.5q-198 0 -381 -111l-16 324q175 89 426 104q-76 32 -119 100.5t-43 157.5q0 118 71 207.5t183 122.5l-150 70l422 340l361 -172
l-447 -230q101 -22 160 -96.5t59 -179.5q0 -117 -68.5 -206.5t-178.5 -123.5q319 -51 319 -325q0 -56 -12 -117l-144 -717h-405zM782 1346q54 0 88.5 35.5t34.5 91.5q0 45 -24.5 71.5t-69.5 26.5q-54 0 -88.5 -35.5t-34.5 -91.5q0 -45 24.5 -71.5t69.5 -26.5zM508 279
q117 0 180 116l23 111h-54q-117 0 -180 -39t-63 -105q0 -83 94 -83z" />
    <glyph glyph-name="AEacute" unicode="&#x1fc;" horiz-adv-x="2252" 
d="M1540 1614l-237 110l421 340l361 -172zM950 0l62 305h-494l-203 -305h-544l1077 1520h1493l-74 -373h-655l-39 -197h571l-71 -356h-572l-43 -217h672l-76 -377h-1104zM1182 1153h-99l-321 -483h323z" />
    <glyph glyph-name="aeacute" unicode="&#x1fd;" horiz-adv-x="1896" 
d="M1157 1257l-270 46l307 430l389 -66zM0 287q0 206 161 316t472 110h125q4 16 4 45q0 51 -37.5 72.5t-128.5 21.5q-206 0 -389 -111l-17 324q97 50 234.5 78t286.5 28q231 0 319 -102q145 102 363 102q110 0 194 -25.5t135 -66t83.5 -99t44.5 -117t12 -126.5
q0 -143 -54 -270h-692q1 -43 10.5 -71.5t35 -53t74.5 -36t124 -11.5q212 0 377 106l16 -319q-210 -107 -491 -107q-322 0 -451 166q-169 -166 -428 -166q-176 0 -279.5 80t-103.5 232zM1356 885q-146 0 -207 -189h307q12 24 12 70q0 119 -112 119zM522 279q62 0 116.5 27
t84.5 75q-4 36 -4 61q0 36 2 54h-68q-239 0 -239 -131q0 -86 108 -86z" />
    <glyph glyph-name="Oslashacute" unicode="&#x1fe;" horiz-adv-x="1630" 
d="M967 1614l-238 110l422 340l360 -172zM731 -29q-241 0 -395 109l-162 -170l-180 98l205 213q-99 154 -99 375q0 149 35.5 288t108.5 259.5t175.5 211t245 142t308.5 51.5q242 0 395 -108l162 170l180 -99l-205 -213q99 -154 99 -374q0 -149 -35.5 -288t-108.5 -260
t-175.5 -211t-245 -142t-308.5 -52zM924 1155q-79 0 -145.5 -48.5t-108 -126.5t-64 -170.5t-22.5 -186.5l469 489q-49 43 -129 43zM780 365q79 0 145.5 48.5t108 126.5t64 170.5t22.5 186.5l-469 -489q49 -43 129 -43z" />
    <glyph glyph-name="oslashacute" unicode="&#x1ff;" horiz-adv-x="1294" 
d="M856 1257l-270 46l307 430l389 -66zM575 -25q-187 0 -313 74l-160 -168l-149 84l182 191q-92 119 -92 305q0 107 26 209t81.5 193t133.5 159.5t190.5 108.5t244.5 40q189 0 313 -73l160 168l149 -84l-182 -191q92 -119 92 -305q0 -107 -26 -209t-81.5 -193.5t-133.5 -160
t-190.5 -108.5t-244.5 -40zM688 831q-85 0 -140 -92.5t-65 -216.5l277 291q-27 18 -72 18zM606 315q85 0 140 93t65 217l-276 -291q29 -19 71 -19z" />
    <glyph glyph-name="uni0218" unicode="&#x218;" horiz-adv-x="1327" 
d="M-27 113l127 405q101 -75 224.5 -120.5t246.5 -45.5q103 0 146 29.5t43 73.5q0 58 -87 94q-34 14 -130 41q-56 16 -99.5 33.5t-92 50.5t-79.5 74t-52 105t-21 144q0 118 43.5 217.5t127 174.5t214.5 117t297 42q274 0 485 -110l-119 -406q-180 135 -391 135
q-98 0 -140 -27.5t-42 -68.5q0 -21 11.5 -38.5t28.5 -29.5t47.5 -24t57 -19.5t68.5 -17.5q55 -13 99 -30t93.5 -49.5t82.5 -74.5t55 -108t22 -148q0 -121 -44.5 -222.5t-130 -177.5t-220.5 -118.5t-307 -42.5q-319 0 -564 142zM485 -549l-299 68q166 177 197 395h360
q-38 -287 -258 -463z" />
    <glyph glyph-name="uni0219" unicode="&#x219;" horiz-adv-x="1085" 
d="M-35 82l107 332q76 -59 171 -93t191 -34q127 0 127 61q0 20 -23.5 38t-56 29.5t-82.5 24.5q-44 12 -79 24.5t-75.5 38t-67 57.5t-44.5 82.5t-18 113.5q0 196 145.5 305.5t423.5 109.5q232 0 401 -88l-106 -331q-144 110 -303 110q-63 0 -95 -16t-32 -43q0 -15 10 -27.5
t34.5 -22.5t44.5 -16.5t60 -17.5q46 -12 81.5 -25.5t78 -40t70.5 -59.5t47.5 -85.5t19.5 -117.5q0 -197 -147 -306.5t-428 -109.5q-249 0 -455 107zM348 -549l-299 68q166 177 197 395h360q-38 -287 -258 -463z" />
    <glyph glyph-name="uni021A" unicode="&#x21a;" horiz-adv-x="1347" 
d="M1434 1147h-414l-229 -1147h-459l229 1147h-418l74 373h1290zM469 -549l-299 68q166 177 197 395h360q-38 -287 -258 -463z" />
    <glyph glyph-name="uni021B" unicode="&#x21b;" horiz-adv-x="958" 
d="M817 37q-153 -62 -323 -62q-349 0 -349 312q0 72 17 153l82 410h-164l59 297h164l57 287l447 86l-74 -373h283l-60 -297h-282l-80 -395q-4 -16 -4 -43q0 -42 22.5 -61t73.5 -19q87 0 162 37zM317 -549l-299 68q166 177 197 395h360q-38 -287 -258 -463z" />
    <glyph glyph-name="uni0237" unicode="&#x237;" horiz-adv-x="663" 
d="M-356 -422l94 336q67 -37 123 -37q62 0 105 41.5t63 142.5l217 1086h434l-207 -1034q-26 -133 -68.5 -234t-95 -166.5t-120 -107.5t-138.5 -59t-155 -17q-149 0 -252 49z" />
    <glyph glyph-name="uni0259" unicode="&#x259;" horiz-adv-x="1265" 
d="M1225 682q0 -103 -23 -201t-75.5 -191t-130 -162t-195.5 -111t-262 -42q-110 0 -196.5 24.5t-141.5 65.5t-91 97.5t-50.5 115.5t-14.5 125q0 155 61 281h689q-1 63 -19 98t-63.5 52.5t-128.5 17.5q-116 0 -206.5 -28t-178.5 -83l-19 324q96 50 227 78t269 28
q549 0 549 -489zM557 268q150 0 207 187h-322q-12 -22 -12 -66q0 -56 31 -88.5t96 -32.5z" />
    <glyph glyph-name="uni02BB" unicode="&#x2bb;" horiz-adv-x="729" 
d="M514 1602l336 -86q-217 -298 -260 -689h-414q36 441 338 775z" />
    <glyph glyph-name="uni02BC" unicode="&#x2bc;" horiz-adv-x="729" 
d="M463 819l-336 86q217 298 260 688h414q-36 -440 -338 -774z" />
    <glyph glyph-name="circumflex" unicode="&#x2c6;" horiz-adv-x="1024" 
d="M1122 1292l-342 -26l-82 250l-184 -250l-362 28l403 426h352z" />
    <glyph glyph-name="caron" unicode="&#x2c7;" horiz-adv-x="1024" 
d="M1214 1692l-401 -422h-352l-213 424l342 26l80 -245l182 245z" />
    <glyph glyph-name="uni02C9" unicode="&#x2c9;" horiz-adv-x="1024" 
d="M262 1298l51 263h774l-51 -263h-774z" />
    <glyph glyph-name="breve" unicode="&#x2d8;" horiz-adv-x="1024" 
d="M289 1679l307 13q-10 -48 -10 -78q0 -105 96 -105q62 0 99.5 44.5t58.5 138.5l321 -13q-51 -208 -186 -312.5t-326 -104.5q-173 0 -270.5 84t-97.5 241q0 48 8 92z" />
    <glyph glyph-name="dotaccent" unicode="&#x2d9;" horiz-adv-x="1024" 
d="M418 1266l65 327h451l-66 -327h-450z" />
    <glyph glyph-name="ring" unicode="&#x2da;" horiz-adv-x="1024" 
d="M653 1204q-133 0 -214 80t-81 205q0 147 106 246.5t259 99.5q133 0 214 -80t81 -205q0 -147 -106 -246.5t-259 -99.5zM674 1407q54 0 88.5 35.5t34.5 91.5q0 45 -25 71.5t-70 26.5q-54 0 -88 -35.5t-34 -91.5q0 -45 24.5 -71.5t69.5 -26.5z" />
    <glyph glyph-name="ogonek" unicode="&#x2db;" horiz-adv-x="1024" 
d="M618 -467q-112 -61 -256 -61q-142 0 -217 57t-75 164q0 95 61 172t193 147h290q-123 -39 -190.5 -93t-67.5 -118q0 -67 90 -67q66 0 160 49z" />
    <glyph glyph-name="tilde" unicode="&#x2dc;" horiz-adv-x="1024" 
d="M446 1253l-290 21q64 385 350 385q98 0 201 -60q86 -51 124 -51q34 0 54 27t30 96l291 -20q-64 -385 -350 -385q-100 0 -201 59q-86 51 -125 51q-34 0 -54 -27t-30 -96z" />
    <glyph glyph-name="hungarumlaut" unicode="&#x2dd;" horiz-adv-x="1024" 
d="M522 1257l-274 54l317 422l346 -66zM981 1257l-272 54l317 422l344 -66z" />
    <glyph glyph-name="gravecomb" unicode="&#x300;" horiz-adv-x="0" 
d="M59 1257l-295 445l371 31l178 -445z" />
    <glyph glyph-name="acutecomb" unicode="&#x301;" horiz-adv-x="0" 
d="M209 1257l-270 46l307 430l389 -66z" />
    <glyph glyph-name="uni0302" unicode="&#x302;" horiz-adv-x="0" 
d="M610 1292l-342 -26l-82 250l-184 -250l-362 28l403 426h352z" />
    <glyph glyph-name="tildecomb" unicode="&#x303;" horiz-adv-x="0" 
d="M-66 1253l-290 21q64 385 350 385q98 0 201 -60q86 -51 124 -51q34 0 54 27t30 96l291 -20q-64 -385 -350 -385q-100 0 -201 59q-86 51 -125 51q-34 0 -54 -27t-30 -96z" />
    <glyph glyph-name="uni0304" unicode="&#x304;" horiz-adv-x="0" 
d="M-250 1298l51 263h774l-51 -263h-774z" />
    <glyph glyph-name="uni0306" unicode="&#x306;" horiz-adv-x="0" 
d="M-223 1679l307 13q-10 -48 -10 -78q0 -105 96 -105q62 0 99.5 44.5t58.5 138.5l321 -13q-51 -208 -186 -312.5t-326 -104.5q-173 0 -270.5 84t-97.5 241q0 48 8 92z" />
    <glyph glyph-name="uni0307" unicode="&#x307;" horiz-adv-x="0" 
d="M-94 1266l65 327h451l-66 -327h-450z" />
    <glyph glyph-name="uni0308" unicode="&#x308;" horiz-adv-x="0" 
d="M217 1266l66 327h352l-66 -327h-352zM-307 1266l65 327h353l-66 -327h-352z" />
    <glyph glyph-name="hookabovecomb" unicode="&#x309;" horiz-adv-x="0" 
d="M152 1225l-146 143q89 23 148 56t59 65q0 31 -70 31q-115 0 -233 -74v250q156 73 326 73q142 0 219 -54t77 -159q0 -66 -29.5 -119t-86 -92t-118 -66.5t-146.5 -53.5z" />
    <glyph glyph-name="uni030A" unicode="&#x30a;" horiz-adv-x="0" 
d="M141 1204q-133 0 -214 80t-81 205q0 147 106 246.5t259 99.5q133 0 214 -80t81 -205q0 -147 -106 -246.5t-259 -99.5zM162 1407q54 0 88.5 35.5t34.5 91.5q0 45 -25 71.5t-70 26.5q-54 0 -88 -35.5t-34 -91.5q0 -45 24.5 -71.5t69.5 -26.5z" />
    <glyph glyph-name="uni030B" unicode="&#x30b;" horiz-adv-x="0" 
d="M10 1257l-274 54l317 422l346 -66zM469 1257l-272 54l317 422l344 -66z" />
    <glyph glyph-name="uni030C" unicode="&#x30c;" horiz-adv-x="0" 
d="M702 1692l-401 -422h-352l-213 424l342 26l80 -245l182 245z" />
    <glyph glyph-name="uni0312" unicode="&#x312;" horiz-adv-x="0" 
d="M184 1716l299 -67q-149 -175 -176 -396h-360q36 289 237 463z" />
    <glyph glyph-name="uni031B" unicode="&#x31b;" horiz-adv-x="0" 
d="M-258 1147h20q82 0 117 51.5t35 130.5q0 29 -2 43h364q3 -30 3 -53q0 -64 -13 -120t-45.5 -108.5t-83 -90t-131.5 -60t-186 -22.5h-123z" />
    <glyph glyph-name="dotbelowcomb" unicode="&#x323;" horiz-adv-x="0" 
d="M-430 -455l65 328h451l-66 -328h-450z" />
    <glyph glyph-name="uni0326" unicode="&#x326;" horiz-adv-x="0" 
d="M-197 -549l-299 68q166 177 197 395h360q-38 -287 -258 -463z" />
    <glyph glyph-name="uni0327" unicode="&#x327;" horiz-adv-x="0" 
d="M147 -248q0 -131 -101 -205.5t-286 -74.5q-144 0 -272 49l90 246q96 -54 205 -54q94 0 94 51q0 15 -10 25.5t-52 24.5t-120 28l108 170h160l-35 -49q124 -34 171.5 -83t47.5 -128z" />
    <glyph glyph-name="uni0328" unicode="&#x328;" horiz-adv-x="0" 
d="M106 -467q-112 -61 -256 -61q-142 0 -217 57t-75 164q0 95 61 172t193 147h290q-123 -39 -190.5 -93t-67.5 -118q0 -67 90 -67q66 0 160 49z" />
    <glyph glyph-name="uni0374" unicode="&#x374;" horiz-adv-x="651" 
d="M164 844l270 749h422v-4l-389 -745h-303z" />
    <glyph glyph-name="uni037E" unicode="&#x37e;" horiz-adv-x="802" 
d="M172 655l98 492h492l-98 -492h-492zM201 -332l-348 80q301 342 319 756h434q0 -477 -405 -836z" />
    <glyph glyph-name="tonos" unicode="&#x384;" horiz-adv-x="491" 
d="M449 1249l-267 17l119 467h404v-4z" />
    <glyph glyph-name="dieresistonos" unicode="&#x385;" horiz-adv-x="1024" 
d="M739 1249l-266 17l119 467h385v-4zM883 1266l65 327h352l-65 -327h-352zM63 1266l66 327h352l-65 -327h-353z" />
    <glyph glyph-name="Alphatonos" unicode="&#x386;" horiz-adv-x="1605" 
d="M1044 0l-16 250h-469l-113 -250h-524l803 1520h614l197 -1520h-492zM334 1036l-266 17l118 467h404v-4zM723 614h278l-36 541z" />
    <glyph glyph-name="anoteleia" unicode="&#x387;" horiz-adv-x="868" 
d="M205 655l98 492h492l-99 -492h-491z" />
    <glyph glyph-name="Epsilontonos" unicode="&#x388;" horiz-adv-x="1683" 
d="M1561 377l-76 -377h-1129l303 1520h1113l-74 -373h-656l-38 -197h571l-72 -356h-571l-43 -217h672zM334 1036l-266 17l118 467h404v-4z" />
    <glyph glyph-name="Etatonos" unicode="&#x389;" horiz-adv-x="1953" 
d="M1249 0l117 584h-434l-117 -584h-459l303 1520h459l-110 -557h434l110 557h459l-303 -1520h-459zM334 1036l-266 17l118 467h404v-4z" />
    <glyph glyph-name="Iotatonos" unicode="&#x38a;" horiz-adv-x="1060" 
d="M356 0l303 1520h459l-303 -1520h-459zM334 1036l-266 17l118 467h404v-4z" />
    <glyph glyph-name="Omicrontonos" unicode="&#x38c;" horiz-adv-x="1908" 
d="M1010 -29q-296 0 -463.5 165t-167.5 460q0 149 35.5 288t108 259.5t175 211t245 142t308.5 51.5q296 0 463.5 -164.5t167.5 -459.5q0 -149 -35.5 -288t-108 -260t-175 -211t-245 -142t-308.5 -52zM334 1036l-266 17l118 467h404v-4zM1059 365q80 0 146 48.5t107.5 127
t64 172t22.5 188.5q0 254 -197 254q-79 0 -145.5 -48.5t-108 -127t-64 -172.5t-22.5 -189q0 -253 197 -253z" />
    <glyph glyph-name="Upsilontonos" unicode="&#x38e;" horiz-adv-x="1916" 
d="M2138 1520l-735 -1006l-103 -514h-458l106 537l-338 983h504l143 -578l332 578h549zM334 1036l-266 17l118 467h404v-4z" />
    <glyph glyph-name="Omegatonos" unicode="&#x38f;" horiz-adv-x="1994" 
d="M1028 348l-70 -348h-733l76 377h287q-170 194 -170 428q0 92 25.5 182t74.5 173t124.5 153.5t169.5 123t216.5 82t259.5 29.5q140 0 255 -31t194 -85.5t133 -129.5t79 -162t25 -184q0 -177 -82 -318t-241 -261h239l-75 -377h-734l70 348q319 247 319 543q0 124 -58.5 194
t-176.5 70q-153 0 -245.5 -113.5t-92.5 -300.5q0 -110 33.5 -216t97.5 -177zM334 1036l-266 17l118 467h404v-4z" />
    <glyph glyph-name="iotadieresistonos" unicode="&#x390;" horiz-adv-x="753" 
d="M547 1249l-266 17l118 467h385v-4zM690 1266l66 327h352l-66 -327h-352zM-129 1266l66 327h352l-66 -327h-352zM627 8q-110 -28 -234 -28q-177 0 -258.5 63.5t-81.5 200.5q0 62 15 135l153 768h434l-141 -707q-6 -27 -6 -47q0 -32 17.5 -44.5t58.5 -12.5q61 0 112 20z
" />
    <glyph glyph-name="Alpha" unicode="&#x391;" horiz-adv-x="1605" 
d="M1004 0l-17 250h-469l-112 -250h-525l803 1520h614l197 -1520h-491zM682 614h279l-37 541z" />
    <glyph glyph-name="Beta" unicode="&#x392;" horiz-adv-x="1548" 
d="M1454 459q0 -69 -18.5 -131.5t-65 -123.5t-117.5 -105.5t-183.5 -71.5t-254.5 -27h-799l303 1520h742q243 0 351 -90.5t108 -255.5q0 -66 -16.5 -124t-53.5 -112.5t-104.5 -96t-161.5 -63.5q270 -69 270 -319zM915 1159h-229l-47 -241h246q86 0 125 42t39 101
q0 52 -33.5 75t-100.5 23zM846 618h-268l-50 -253h279q88 0 132 41.5t44 105.5q0 106 -137 106z" />
    <glyph glyph-name="Gamma" unicode="&#x393;" horiz-adv-x="1228" 
d="M1311 1135h-609l-227 -1135h-459l303 1520h1070z" />
    <glyph glyph-name="uni0394" unicode="&#x394;" horiz-adv-x="1605" 
d="M1298 1520l197 -1520h-1614l803 1520h614zM575 377h402l-53 778z" />
    <glyph glyph-name="Epsilon" unicode="&#x395;" horiz-adv-x="1343" 
d="M1221 377l-76 -377h-1129l303 1520h1113l-74 -373h-656l-38 -197h571l-72 -356h-571l-43 -217h672z" />
    <glyph glyph-name="Zeta" unicode="&#x396;" horiz-adv-x="1363" 
d="M1255 377l-75 -377h-1229l67 336l791 811h-600l78 373h1179l-65 -328l-797 -815h651z" />
    <glyph glyph-name="Eta" unicode="&#x397;" horiz-adv-x="1613" 
d="M909 0l117 584h-434l-117 -584h-459l303 1520h459l-110 -557h434l110 557h459l-303 -1520h-459z" />
    <glyph glyph-name="Theta" unicode="&#x398;" horiz-adv-x="1630" 
d="M731 -29q-296 0 -463.5 165t-167.5 460q0 149 35.5 288t108.5 259.5t175.5 211t245 142t308.5 51.5q296 0 463.5 -164.5t167.5 -459.5q0 -149 -35.5 -288t-108.5 -260t-175.5 -211t-245 -142t-308.5 -52zM780 365q80 0 146 48.5t107.5 127t64 172t22.5 188.5
q0 254 -196 254q-79 0 -145.5 -48.5t-108 -127t-64 -172.5t-22.5 -189q0 -253 196 -253zM662 614l61 308h324l-62 -308h-323z" />
    <glyph glyph-name="Iota" unicode="&#x399;" horiz-adv-x="720" 
d="M16 0l303 1520h459l-303 -1520h-459z" />
    <glyph glyph-name="Kappa" unicode="&#x39a;" horiz-adv-x="1609" 
d="M981 0l-262 526l-170 -151l-74 -375h-459l303 1520h459l-123 -615l557 615h603v-4l-766 -691l467 -821v-4h-535z" />
    <glyph glyph-name="Lambda" unicode="&#x39b;" horiz-adv-x="1605" 
d="M1004 0l-80 1155l-518 -1155h-525l803 1520h614l197 -1520h-491z" />
    <glyph glyph-name="Mu" unicode="&#x39c;" horiz-adv-x="2121" 
d="M782 0l-137 1020l-205 -1020h-424l303 1520h615l123 -914l467 914h655l-303 -1520h-438l204 1024l-528 -1024h-332z" />
    <glyph glyph-name="Nu" unicode="&#x39d;" horiz-adv-x="1630" 
d="M950 0l-338 805l-161 -805h-435l303 1520h435l338 -805l161 805h435l-304 -1520h-434z" />
    <glyph glyph-name="Xi" unicode="&#x39e;" horiz-adv-x="1417" 
d="M215 1143l76 377h1212l-76 -377h-1212zM256 590l72 356h909l-72 -356h-909zM-29 0l76 381h1247l-77 -381h-1246z" />
    <glyph glyph-name="Omicron" unicode="&#x39f;" horiz-adv-x="1630" 
d="M731 -29q-296 0 -463.5 165t-167.5 460q0 149 35.5 288t108.5 259.5t175.5 211t245 142t308.5 51.5q296 0 463.5 -164.5t167.5 -459.5q0 -149 -35.5 -288t-108.5 -260t-175.5 -211t-245 -142t-308.5 -52zM780 365q80 0 146 48.5t107.5 127t64 172t22.5 188.5
q0 254 -196 254q-79 0 -145.5 -48.5t-108 -127t-64 -172.5t-22.5 -189q0 -253 196 -253z" />
    <glyph glyph-name="Pi" unicode="&#x3a0;" horiz-adv-x="1589" 
d="M885 0l229 1143h-409l-230 -1143h-459l303 1520h1328l-304 -1520h-458z" />
    <glyph glyph-name="Rho" unicode="&#x3a1;" horiz-adv-x="1470" 
d="M750 414h-193l-82 -414h-459l303 1520h642q546 0 546 -469q0 -101 -24.5 -191.5t-82 -173t-143 -142.5t-215.5 -95t-292 -35zM856 1149h-151l-74 -367h151q132 0 193 64t61 158q0 74 -42 109.5t-138 35.5z" />
    <glyph glyph-name="Sigma" unicode="&#x3a3;" horiz-adv-x="1363" 
d="M1264 377l-76 -377h-1229l68 336l508 455l-322 401l66 328h1179l-76 -373h-614l289 -361l-4 -20l-445 -389h656z" />
    <glyph glyph-name="Tau" unicode="&#x3a4;" horiz-adv-x="1347" 
d="M1434 1147h-414l-229 -1147h-459l229 1147h-418l74 373h1290z" />
    <glyph glyph-name="Upsilon" unicode="&#x3a5;" horiz-adv-x="1462" 
d="M1683 1520l-735 -1006l-102 -514h-459l107 537l-338 983h503l144 -578l332 578h548z" />
    <glyph glyph-name="Phi" unicode="&#x3a6;" horiz-adv-x="2019" 
d="M2001 842q0 -329 -232.5 -524t-629.5 -199l-29 -148h-442l30 150q-287 30 -443.5 178.5t-156.5 411.5q0 328 232 523t628 200l29 139h443l-29 -141q287 -30 443.5 -178.5t156.5 -411.5zM573 729q0 -103 50 -171t145 -81l121 600q-135 -6 -225.5 -103.5t-90.5 -244.5z
M1526 823q0 103 -50 171t-145 81l-121 -600q135 6 225.5 103.5t90.5 244.5z" />
    <glyph glyph-name="Chi" unicode="&#x3a7;" horiz-adv-x="1540" 
d="M901 0l-164 440l-286 -440h-582l661 782l-350 738h541l158 -422l272 422h582l-650 -766l359 -754h-541z" />
    <glyph glyph-name="Psi" unicode="&#x3a8;" horiz-adv-x="1957" 
d="M1976 1090q-45 -223 -112.5 -372.5t-169.5 -240t-230.5 -128.5t-306.5 -38l-63 -311h-459l63 311q-250 3 -390 139t-140 406q0 113 27 254l81 410h459l-92 -461q-22 -110 -22 -191q0 -99 38.5 -135.5t114.5 -36.5l166 824h459l-166 -824q74 1 123 30.5t88 109.5t67 223
l93 461h458z" />
    <glyph glyph-name="uni03A9" unicode="&#x3a9;" horiz-adv-x="1720" 
d="M754 348l-70 -348h-733l76 377h286q-170 194 -170 428q0 110 36 217t109 202t175.5 167.5t244.5 114.5t306 42q140 0 255 -31t194 -85.5t133 -129.5t79 -162t25 -184q0 -177 -82 -318t-242 -261h240l-76 -377h-733l70 348q319 247 319 543q0 124 -58.5 194t-176.5 70
q-153 0 -245.5 -113.5t-92.5 -300.5q0 -110 33.5 -216t97.5 -177z" />
    <glyph glyph-name="Iotadieresis" unicode="&#x3aa;" horiz-adv-x="720" 
d="M670 1651l65 327h357l-66 -327h-356zM109 1651l65 327h356l-65 -327h-356zM16 0l303 1520h459l-303 -1520h-459z" />
    <glyph glyph-name="Upsilondieresis" unicode="&#x3ab;" horiz-adv-x="1462" 
d="M1040 1651l66 327h356l-65 -327h-357zM479 1651l66 327h356l-65 -327h-357zM1683 1520l-735 -1006l-102 -514h-459l107 537l-338 983h503l144 -578l332 578h548z" />
    <glyph glyph-name="alphatonos" unicode="&#x3ac;" horiz-adv-x="1429" 
d="M936 1249l-266 17l118 467h404v-4zM1063 -20q-147 0 -211.5 47.5t-69.5 150.5q-70 -99 -158.5 -151t-209.5 -52q-169 0 -270 109.5t-101 335.5q0 116 27 227t80 205.5t124.5 166t165.5 112t199 40.5q129 0 206.5 -58.5t104.5 -162.5l66 197h442q-153 -309 -211.5 -466
t-58.5 -249q0 -96 74 -96q50 0 94 20l-70 -348q-105 -28 -223 -28zM489 483q0 -151 101 -151q66 0 119.5 60t89.5 181l16 54v28q0 168 -100 168q-89 0 -157.5 -101.5t-68.5 -238.5z" />
    <glyph glyph-name="epsilontonos" unicode="&#x3ad;" horiz-adv-x="1204" 
d="M881 1249l-267 17l119 467h404v-4zM1055 88q-197 -113 -525 -113q-249 0 -383.5 74.5t-134.5 226.5q0 119 78 202.5t215 121.5q-160 60 -160 225q0 155 145 250.5t431 95.5q135 0 265 -23.5t218 -66.5l-114 -323q-134 94 -320 94q-77 0 -121.5 -18.5t-44.5 -55.5
q0 -31 30.5 -47t117.5 -16h200l-55 -275h-192q-121 0 -173.5 -18t-52.5 -66q0 -61 166 -61q214 0 393 113z" />
    <glyph glyph-name="etatonos" unicode="&#x3ae;" horiz-adv-x="1409" 
d="M1006 1249l-267 17l119 467h404v-4zM1339 717l-227 -1139h-434l219 1098q6 27 6 51q0 80 -80 80q-51 0 -99 -32t-81 -99l-135 -676h-434l141 707q6 27 6 47q0 31 -16.5 44t-52.5 13q-50 0 -91 -16l70 348q104 28 223 28q293 0 299 -210q77 100 183 155t225 55
q137 0 216 -76t79 -229q0 -56 -17 -149z" />
    <glyph glyph-name="iotatonos" unicode="&#x3af;" horiz-adv-x="753" 
d="M567 1249l-266 17l119 467h403v-4zM627 8q-110 -28 -234 -28q-177 0 -258.5 63.5t-81.5 200.5q0 62 15 135l153 768h434l-141 -707q-6 -27 -6 -47q0 -32 17.5 -44.5t58.5 -12.5q61 0 112 20z" />
    <glyph glyph-name="upsilondieresistonos" unicode="&#x3b0;" horiz-adv-x="1294" 
d="M842 1249l-267 17l119 467h385v-4zM985 1266l66 327h352l-66 -327h-352zM166 1266l65 327h353l-66 -327h-352zM1243 1147q10 -160 10 -295q0 -96 -9 -183t-31 -177t-57 -164.5t-90.5 -141t-127.5 -112.5t-171.5 -72.5t-219.5 -26.5q-229 0 -355 99t-126 301q0 81 16 157
l123 615h434l-133 -666q-6 -27 -6 -51q0 -54 26 -82.5t76 -28.5q217 0 217 572q0 133 -6 256h430z" />
    <glyph glyph-name="alpha" unicode="&#x3b1;" horiz-adv-x="1429" 
d="M1063 -20q-147 0 -211.5 47.5t-69.5 150.5q-70 -99 -158.5 -151t-209.5 -52q-169 0 -270 109.5t-101 335.5q0 116 27 227t80 205.5t124.5 166t165.5 112t199 40.5q129 0 206.5 -58.5t104.5 -162.5l66 197h442q-153 -309 -211.5 -466t-58.5 -249q0 -96 74 -96q50 0 94 20
l-70 -348q-105 -28 -223 -28zM489 483q0 -151 101 -151q66 0 119.5 60t89.5 181l16 54v28q0 168 -100 168q-89 0 -157.5 -101.5t-68.5 -238.5z" />
    <glyph glyph-name="beta" unicode="&#x3b2;" horiz-adv-x="1380" 
d="M768 -25q-204 0 -326 107l-100 -504h-430l301 1507q56 281 218.5 407t422.5 126q249 0 388.5 -97.5t139.5 -279.5q0 -154 -88 -257.5t-237 -141.5q121 -37 187.5 -131t66.5 -230q0 -95 -34.5 -184t-99.5 -161.5t-171 -116.5t-238 -44zM643 1085l-137 -686q18 -34 64 -57
t104 -23q98 0 150.5 61t52.5 144q0 70 -43.5 111t-128.5 41h-41l59 295h41q85 0 134.5 52.5t49.5 129.5q0 125 -123 125q-71 0 -116 -45t-66 -148z" />
    <glyph glyph-name="gamma" unicode="&#x3b3;" horiz-adv-x="1466" 
d="M1585 1147l-809 -1167l-112 -402h-488l182 428q19 143 19 307q0 117 -10 202t-33 152.5t-65 101.5t-103 34q-52 0 -92 -12l37 352q115 28 225 28q219 0 308 -119t89 -399q0 -89 -6 -180l338 674h520z" />
    <glyph glyph-name="delta" unicode="&#x3b4;" horiz-adv-x="1298" 
d="M1251 604q0 -125 -45.5 -238.5t-129.5 -200.5t-213 -138.5t-285 -51.5q-246 0 -390.5 125t-144.5 359q0 215 126 354.5t355 185.5q-92 70 -133 138t-41 161q0 324 475 324q175 0 328 -40.5t260 -104.5l-143 -355q-87 68 -196.5 114t-192.5 46q-66 0 -66 -39
q0 -31 35.5 -63t112.5 -84q46 -31 80.5 -59t76 -74t68 -94.5t45 -117.5t18.5 -147zM481 475q0 -72 30 -116t95 -44t113 47.5t70 113t22 134.5q0 63 -21.5 103.5t-68.5 77.5q-79 -11 -135.5 -63t-80.5 -117.5t-24 -135.5z" />
    <glyph glyph-name="epsilon" unicode="&#x3b5;" horiz-adv-x="1204" 
d="M1055 88q-197 -113 -525 -113q-249 0 -383.5 74.5t-134.5 226.5q0 119 78 202.5t215 121.5q-160 60 -160 225q0 155 145 250.5t431 95.5q135 0 265 -23.5t218 -66.5l-114 -323q-134 94 -320 94q-77 0 -121.5 -18.5t-44.5 -55.5q0 -31 30.5 -47t117.5 -16h200l-55 -275
h-192q-121 0 -173.5 -18t-52.5 -66q0 -61 166 -61q214 0 393 113z" />
    <glyph glyph-name="zeta" unicode="&#x3b6;" horiz-adv-x="1032" 
d="M934 72q0 -159 -98.5 -294.5t-257.5 -232.5l-328 168q121 66 187.5 130.5t66.5 115.5q0 21 -11.5 37.5t-41 31.5t-50 23t-69.5 25q-42 14 -72.5 27.5t-68.5 34.5t-65 47.5t-51 61t-36 82t-12 103.5q0 186 143 382t453 435q-247 0 -367 21l70 344q134 -25 585 -25
q134 0 314 4l-62 -311q-353 -225 -523.5 -418.5t-170.5 -316.5q0 -34 13.5 -59.5t45 -45t55 -30t72.5 -27.5q52 -18 80 -29.5t72 -38t67.5 -56t41.5 -78.5t18 -111z" />
    <glyph glyph-name="eta" unicode="&#x3b7;" horiz-adv-x="1409" 
d="M1339 717l-227 -1139h-434l219 1098q6 27 6 51q0 80 -80 80q-51 0 -99 -32t-81 -99l-135 -676h-434l141 707q6 27 6 47q0 31 -16.5 44t-52.5 13q-50 0 -91 -16l70 348q104 28 223 28q293 0 299 -210q77 100 183 155t225 55q137 0 216 -76t79 -229q0 -56 -17 -149z" />
    <glyph glyph-name="theta" unicode="&#x3b8;" horiz-adv-x="1302" 
d="M557 -25q-229 0 -351 136t-122 399q0 141 35 313q157 787 712 787q229 0 351.5 -136t122.5 -399q0 -141 -35 -313q-157 -787 -713 -787zM797 1270q-76 0 -132 -78.5t-102 -261.5h318q20 123 20 196q0 144 -104 144zM487 459q0 -144 105 -144q77 0 132.5 79.5t100.5 264.5
h-317q-21 -154 -21 -200z" />
    <glyph glyph-name="iota" unicode="&#x3b9;" horiz-adv-x="753" 
d="M627 8q-110 -28 -234 -28q-177 0 -258.5 63.5t-81.5 200.5q0 62 15 135l153 768h434l-141 -707q-6 -27 -6 -47q0 -32 17.5 -44.5t58.5 -12.5q61 0 112 20z" />
    <glyph glyph-name="kappa" unicode="&#x3ba;" horiz-adv-x="1392" 
d="M805 0l-148 395q-109 -101 -192 -182l-43 -213h-434l229 1147h434l-96 -479q165 206 275 310.5t211.5 148.5t232.5 44q99 0 176 -24l-104 -365q-49 17 -109 17q-61 0 -115.5 -24.5t-152.5 -102.5l321 -668v-4h-485z" />
    <glyph glyph-name="lambda" unicode="&#x3bb;" horiz-adv-x="1363" 
d="M807 0l-68 649l-317 -649h-516l731 1118q-21 77 -69.5 112.5t-141.5 35.5q-81 0 -168 -37l61 344q67 25 118.5 35t121.5 10q122 0 207.5 -28.5t143.5 -91.5t92 -151.5t55 -220.5l184 -1126h-434z" />
    <glyph glyph-name="uni03BC" unicode="&#x3bc;" horiz-adv-x="1417" 
d="M500 -25q-59 0 -113 23l-49 -420h-432l168 832l147 737h434l-135 -676q-6 -27 -6 -51q0 -80 82 -80q60 0 106.5 40t73.5 101l133 666h434l-141 -707q-6 -27 -6 -47q0 -57 68 -57q52 0 96 20l-70 -348q-105 -28 -223 -28q-245 0 -291 139q-117 -144 -276 -144z" />
    <glyph glyph-name="nu" unicode="&#x3bd;" horiz-adv-x="1351" 
d="M1380 1147q-56 -315 -230.5 -621.5t-424.5 -525.5h-442q-21 331 -59.5 615t-112.5 532h454q49 -336 72 -768q102 174 170 375t90 393h483z" />
    <glyph glyph-name="xi" unicode="&#x3be;" horiz-adv-x="1142" 
d="M1008 70q0 -158 -99 -293t-258 -232l-327 168q121 66 187.5 129t66.5 113q0 38 -38.5 56t-138.5 42q-46 11 -74 18.5t-72 22.5t-71.5 31t-60.5 42t-51.5 56.5t-31.5 73.5t-13 94q0 148 95.5 259t268.5 163q-172 57 -172 213q0 94 64 159t176 95q-142 3 -248 18l63 316
q161 -25 631 -25q122 0 352 4l-69 -344h-287q-104 0 -167.5 -40t-63.5 -115q0 -107 135 -107h258l-72 -362h-332q-89 0 -135.5 -35t-46.5 -90q0 -22 9 -38.5t20.5 -27t38.5 -20.5t47 -15.5t63 -15.5q47 -11 72.5 -17.5t69 -21t68 -29t56 -38.5t47.5 -52t28 -67.5t12 -87.5z
" />
    <glyph glyph-name="omicron" unicode="&#x3bf;" horiz-adv-x="1294" 
d="M575 -25q-83 0 -157.5 15.5t-144 52t-120 91t-80.5 138.5t-30 189q0 107 26 209t81.5 193t133.5 159.5t190.5 108.5t244.5 40q83 0 157.5 -15.5t144 -51.5t120 -90.5t80.5 -138.5t30 -189q0 -107 -26 -209t-81.5 -193.5t-133.5 -160t-190.5 -108.5t-244.5 -40zM606 315
q63 0 112 56.5t72 137t23 165.5q0 157 -125 157q-63 0 -112 -56t-72 -136.5t-23 -165.5q0 -158 125 -158z" />
    <glyph glyph-name="uni03C0" unicode="&#x3c0;" horiz-adv-x="1572" 
d="M1384 8q-110 -28 -235 -28q-175 0 -255.5 63.5t-80.5 204.5q0 70 18 162l78 393h-172q-52 -250 -117 -450t-163 -353h-467q193 289 321 803h-198l69 344h1438l-70 -344h-207l-71 -363q-6 -27 -6 -47q0 -32 17.5 -44.5t57.5 -12.5q62 0 113 20z" />
    <glyph glyph-name="rho" unicode="&#x3c1;" horiz-adv-x="1343" 
d="M715 -25q-185 0 -281 117l-102 -514h-434l198 1006q116 587 666 587q120 0 216.5 -28.5t171 -87.5t115 -157t40.5 -230q0 -135 -42.5 -260t-117.5 -221.5t-187.5 -154t-242.5 -57.5zM528 573l-32 -163q12 -43 50.5 -69t86.5 -26q67 0 119.5 49.5t79 125t26.5 159.5
q0 174 -133 174q-46 0 -80 -19.5t-56.5 -57t-36 -77.5t-24.5 -96z" />
    <glyph glyph-name="sigma1" unicode="&#x3c2;" horiz-adv-x="1089" 
d="M565 -455l-327 168q122 66 188 130t66 118q0 35 -29.5 57t-97.5 48q-36 14 -59.5 24.5t-59.5 31t-60 42t-52 56t-44.5 74t-27.5 94.5t-11 120q0 96 22 187t73.5 178.5t128 152.5t196 105t266.5 40q228 0 369 -102l-119 -344q-46 43 -108.5 66.5t-128.5 23.5
q-69 0 -121.5 -25.5t-80 -65.5t-41 -80.5t-13.5 -80.5q0 -32 9.5 -57.5t23 -43t39.5 -34t47.5 -26.5t58.5 -25q39 -16 62 -26.5t56.5 -29.5t53.5 -40t40 -51t29 -69.5t9 -88.5q0 -159 -99 -294.5t-258 -232.5z" />
    <glyph glyph-name="sigma" unicode="&#x3c3;" horiz-adv-x="1363" 
d="M1217 520q0 -82 -25.5 -160.5t-78.5 -148t-128 -122t-182 -83.5t-232 -31q-114 0 -209 30.5t-167 89.5t-112 153t-40 213q0 224 95 380t263.5 231t399.5 75h639l-70 -344h-270q117 -114 117 -283zM602 315q68 0 117 53t69.5 125t20.5 150q0 109 -41 160h-61
q-105 0 -165.5 -94t-60.5 -222q0 -172 121 -172z" />
    <glyph glyph-name="tau" unicode="&#x3c4;" horiz-adv-x="1130" 
d="M866 16q-127 -36 -268 -36q-175 0 -255.5 63.5t-80.5 204.5q0 65 19 162l77 393h-290l69 344h1082l-70 -344h-356l-70 -352q-6 -35 -6 -56q0 -34 17.5 -46.5t58.5 -12.5q73 0 135 29z" />
    <glyph glyph-name="upsilon" unicode="&#x3c5;" horiz-adv-x="1294" 
d="M1243 1147q10 -160 10 -295q0 -96 -9 -183t-31 -177t-57 -164.5t-90.5 -141t-127.5 -112.5t-171.5 -72.5t-219.5 -26.5q-229 0 -355 99t-126 301q0 81 16 157l123 615h434l-133 -666q-6 -27 -6 -51q0 -54 26 -82.5t76 -28.5q217 0 217 572q0 133 -6 256h430z" />
    <glyph glyph-name="phi" unicode="&#x3c6;" horiz-adv-x="1810" 
d="M1774 625q0 -190 -103.5 -339t-282 -230t-399.5 -81l-80 -397h-405l82 406q-256 30 -401.5 166t-145.5 372q0 142 60.5 264t165 206t249 131.5t309.5 47.5l84 422h406l-86 -430q256 -30 401.5 -166t145.5 -372zM477 528q0 -98 43.5 -158.5t126.5 -72.5l113 561
q-117 -2 -200 -94t-83 -236zM1335 618q0 99 -43.5 159.5t-128.5 72.5l-112 -561q119 2 201.5 93.5t82.5 235.5z" />
    <glyph glyph-name="chi" unicode="&#x3c7;" horiz-adv-x="1351" 
d="M1124 -422q-106 -24 -211 -24q-55 0 -101 9t-80.5 22.5t-63 37.5t-47.5 45.5t-34.5 55t-24 57.5t-15.5 62t-10 60t-7 58l-4 41l-250 -424h-497v4l657 844l-22 119q-12 66 -25 108.5t-35.5 80.5t-57 55.5t-83.5 17.5q-45 0 -100 -12l37 352q106 24 206 24q54 0 99.5 -9
t79.5 -23t62.5 -37t48 -45.5t35 -53.5t24 -56t16 -59t10.5 -55.5t6 -52.5l2 -26l201 393h498v-4l-613 -797l31 -164q10 -54 19 -89t24.5 -71.5t35.5 -57t50.5 -33.5t71.5 -13q49 0 104 12z" />
    <glyph glyph-name="psi" unicode="&#x3c8;" horiz-adv-x="1839" 
d="M1819 913q0 -164 -28 -302.5t-90 -255t-155.5 -198t-230 -128t-307.5 -49.5l-80 -402h-418l80 402q-83 5 -154 23.5t-137.5 57.5t-113.5 96.5t-75 146t-28 200.5q0 109 27 244l79 399h433l-93 -461q-18 -99 -18 -166q0 -102 38.5 -146.5t110.5 -51.5l240 1198h418
l-240 -1201q154 10 230.5 166t76.5 424q0 115 -10 238h434q11 -146 11 -234z" />
    <glyph glyph-name="omega" unicode="&#x3c9;" horiz-adv-x="1875" 
d="M1827 659q0 -312 -163.5 -498t-438.5 -186q-143 0 -235 55.5t-124 162.5q-80 -109 -192 -163.5t-242 -54.5q-188 0 -292.5 110.5t-104.5 317.5q0 217 108.5 414.5t270.5 329.5l487 -21q-121 -95 -211 -193.5t-149.5 -217.5t-59.5 -232q0 -68 21.5 -97.5t68.5 -29.5
q68 0 108 66t71 223l51 256h409l-51 -256q-24 -123 -24 -176q0 -113 88 -113q74 0 115.5 67.5t41.5 199.5q0 267 -172 503l484 21q59 -75 97 -206t38 -282z" />
    <glyph glyph-name="iotadieresis" unicode="&#x3ca;" horiz-adv-x="753" 
d="M537 1266l65 327h352l-65 -327h-352zM12 1266l66 327h352l-65 -327h-353zM627 8q-110 -28 -234 -28q-177 0 -258.5 63.5t-81.5 200.5q0 62 15 135l153 768h434l-141 -707q-6 -27 -6 -47q0 -32 17.5 -44.5t58.5 -12.5q61 0 112 20z" />
    <glyph glyph-name="upsilondieresis" unicode="&#x3cb;" horiz-adv-x="1294" 
d="M836 1266l65 327h352l-65 -327h-352zM311 1266l66 327h352l-65 -327h-353zM1243 1147q10 -160 10 -295q0 -96 -9 -183t-31 -177t-57 -164.5t-90.5 -141t-127.5 -112.5t-171.5 -72.5t-219.5 -26.5q-229 0 -355 99t-126 301q0 81 16 157l123 615h434l-133 -666
q-6 -27 -6 -51q0 -54 26 -82.5t76 -28.5q217 0 217 572q0 133 -6 256h430z" />
    <glyph glyph-name="omicrontonos" unicode="&#x3cc;" horiz-adv-x="1294" 
d="M915 1249l-266 17l119 467h403v-4zM575 -25q-83 0 -157.5 15.5t-144 52t-120 91t-80.5 138.5t-30 189q0 107 26 209t81.5 193t133.5 159.5t190.5 108.5t244.5 40q83 0 157.5 -15.5t144 -51.5t120 -90.5t80.5 -138.5t30 -189q0 -107 -26 -209t-81.5 -193.5t-133.5 -160
t-190.5 -108.5t-244.5 -40zM606 315q63 0 112 56.5t72 137t23 165.5q0 157 -125 157q-63 0 -112 -56t-72 -136.5t-23 -165.5q0 -158 125 -158z" />
    <glyph glyph-name="upsilontonos" unicode="&#x3cd;" horiz-adv-x="1294" 
d="M870 1249l-266 17l119 467h403v-4zM1243 1147q10 -160 10 -295q0 -96 -9 -183t-31 -177t-57 -164.5t-90.5 -141t-127.5 -112.5t-171.5 -72.5t-219.5 -26.5q-229 0 -355 99t-126 301q0 81 16 157l123 615h434l-133 -666q-6 -27 -6 -51q0 -54 26 -82.5t76 -28.5
q217 0 217 572q0 133 -6 256h430z" />
    <glyph glyph-name="omegatonos" unicode="&#x3ce;" horiz-adv-x="1875" 
d="M1198 1249l-266 17l119 467h403v-4zM1827 659q0 -312 -163.5 -498t-438.5 -186q-143 0 -235 55.5t-124 162.5q-80 -109 -192 -163.5t-242 -54.5q-188 0 -292.5 110.5t-104.5 317.5q0 217 108.5 414.5t270.5 329.5l487 -21q-121 -95 -211 -193.5t-149.5 -217.5t-59.5 -232
q0 -68 21.5 -97.5t68.5 -29.5q68 0 108 66t71 223l51 256h409l-51 -256q-24 -123 -24 -176q0 -113 88 -113q74 0 115.5 67.5t41.5 199.5q0 267 -172 503l484 21q59 -75 97 -206t38 -282z" />
    <glyph glyph-name="uni0400" unicode="&#x400;" horiz-adv-x="1343" 
d="M967 1614l-447 315l377 135l311 -354zM1221 377l-76 -377h-1129l303 1520h1113l-74 -373h-656l-38 -197h571l-72 -356h-571l-43 -217h672z" />
    <glyph glyph-name="uni0401" unicode="&#x401;" horiz-adv-x="1343" 
d="M1006 1651l65 327h356l-65 -327h-356zM444 1651l66 327h356l-65 -327h-357zM1221 377l-76 -377h-1129l303 1520h1113l-74 -373h-656l-38 -197h571l-72 -356h-571l-43 -217h672z" />
    <glyph glyph-name="uni0402" unicode="&#x402;" horiz-adv-x="1777" 
d="M1704 524q0 -256 -158.5 -404.5t-417.5 -148.5q-142 0 -247 33l80 352q46 -20 112 -20q68 0 112 34.5t44 100.5q0 59 -39 85t-137 26q-94 0 -193 -29l-110 -553h-459l229 1147h-377l74 373h1290l-73 -373h-455l-45 -221q115 32 262 32q508 0 508 -434z" />
    <glyph glyph-name="uni0403" unicode="&#x403;" horiz-adv-x="1228" 
d="M844 1614l-238 110l422 340l361 -172zM1311 1135h-609l-227 -1135h-459l303 1520h1070z" />
    <glyph glyph-name="uni0404" unicode="&#x404;" horiz-adv-x="1429" 
d="M1284 98q-76 -56 -209.5 -91.5t-296.5 -35.5q-330 0 -502 162t-172 483q0 144 32.5 277t104.5 253.5t176.5 209t259.5 140.5t343 52q153 0 273 -31.5t194 -82.5l-154 -406q-119 131 -329 131q-269 0 -383 -209h559l-74 -356h-547q13 -125 84.5 -179.5t218.5 -54.5
q116 0 207.5 32.5t181.5 103.5z" />
    <glyph glyph-name="uni0405" unicode="&#x405;" horiz-adv-x="1327" 
d="M-27 113l127 405q101 -75 224.5 -120.5t246.5 -45.5q103 0 146 29.5t43 73.5q0 58 -87 94q-34 14 -130 41q-56 16 -99.5 33.5t-92 50.5t-79.5 74t-52 105t-21 144q0 118 43.5 217.5t127 174.5t214.5 117t297 42q274 0 485 -110l-119 -406q-180 135 -391 135
q-98 0 -140 -27.5t-42 -68.5q0 -21 11.5 -38.5t28.5 -29.5t47.5 -24t57 -19.5t68.5 -17.5q55 -13 99 -30t93.5 -49.5t82.5 -74.5t55 -108t22 -148q0 -121 -44.5 -222.5t-130 -177.5t-220.5 -118.5t-307 -42.5q-319 0 -564 142z" />
    <glyph glyph-name="uni0406" unicode="&#x406;" horiz-adv-x="720" 
d="M16 0l303 1520h459l-303 -1520h-459z" />
    <glyph glyph-name="uni0407" unicode="&#x407;" horiz-adv-x="720" 
d="M649 1651l66 327h356l-65 -327h-357zM129 1651l66 327h356l-66 -327h-356zM16 0l303 1520h459l-303 -1520h-459z" />
    <glyph glyph-name="uni0408" unicode="&#x408;" horiz-adv-x="993" 
d="M-109 37l99 387q101 -59 194 -59q94 0 152.5 60.5t89.5 213.5l176 881h459l-197 -983q-31 -155 -88.5 -265t-141 -175.5t-185.5 -95.5t-232 -30q-106 0 -178.5 17t-147.5 49z" />
    <glyph glyph-name="uni0409" unicode="&#x409;" horiz-adv-x="2392" 
d="M920 0l229 1143h-174q-54 -160 -97 -278.5t-88.5 -232t-85.5 -192.5t-84 -152t-88.5 -119.5t-94.5 -84.5t-107 -58.5t-120 -31t-140 -10.5q-116 0 -174 16l75 387q30 -10 74 -10q39 0 70.5 9t64.5 36.5t61 63.5t63 105.5t67.5 146.5t78.5 202t91.5 256t109.5 324h1030
l-102 -508h219q270 0 401.5 -108.5t131.5 -328.5q0 -91 -21 -171.5t-73 -155.5t-130.5 -129t-201.5 -86.5t-279 -32.5h-706zM1702 651h-195l-55 -282h207q106 0 153.5 47.5t47.5 120.5q0 59 -36.5 86.5t-121.5 27.5z" />
    <glyph glyph-name="uni040A" unicode="&#x40a;" horiz-adv-x="2383" 
d="M909 0l117 584h-434l-117 -584h-459l303 1520h459l-110 -557h434l110 557h459l-102 -508h221q269 0 400.5 -108.5t131.5 -328.5q0 -91 -21 -171t-72.5 -155.5t-130 -129.5t-201.5 -86.5t-279 -32.5h-709zM1694 651h-197l-55 -282h209q106 0 153 47.5t47 120.5
q0 60 -36 87t-121 27z" />
    <glyph glyph-name="uni040B" unicode="&#x40b;" horiz-adv-x="1777" 
d="M850 502l-100 -502h-459l229 1147h-377l74 373h1290l-73 -373h-455l-51 -252q142 63 319 63q209 0 315.5 -91.5t106.5 -264.5q0 -70 -14 -141l-92 -461h-459l74 369q8 40 8 65q0 60 -35.5 85.5t-112.5 25.5q-111 0 -188 -43z" />
    <glyph glyph-name="uni040C" unicode="&#x40c;" horiz-adv-x="1609" 
d="M956 1614l-237 110l422 340l360 -172zM971 0l-367 647l-129 -647h-459l303 1520h459l-129 -652l563 652h603v-4l-775 -740l476 -772v-4h-545z" />
    <glyph glyph-name="uni040D" unicode="&#x40d;" horiz-adv-x="1630" 
d="M1102 1614l-447 315l377 135l311 -354zM938 0l162 805l-649 -805h-435l303 1520h447l-162 -805l649 805h435l-304 -1520h-446z" />
    <glyph glyph-name="uni040E" unicode="&#x40e;" horiz-adv-x="1499" 
d="M555 1995l332 8q-6 -24 -6 -47q0 -98 118 -98q68 0 114 36.5t58 108.5l347 -8q-31 -133 -110 -220t-187.5 -124t-249.5 -37q-202 0 -313 77t-111 224q0 26 8 80zM1051 451q-90 -141 -174.5 -234.5t-175.5 -147.5t-183.5 -76t-210.5 -22q-176 0 -291 45l99 381
q63 -32 153 -32q72 0 117.5 18.5t83.5 62.5l-285 1074h504l117 -705l371 705h548z" />
    <glyph glyph-name="uni040F" unicode="&#x40f;" horiz-adv-x="1589" 
d="M1343 0h-460l-86 -422h-406l86 422h-461l303 1520h459l-229 -1143h409l230 1143h459z" />
    <glyph glyph-name="uni0410" unicode="&#x410;" horiz-adv-x="1605" 
d="M1004 0l-17 250h-469l-112 -250h-525l803 1520h614l197 -1520h-491zM682 614h279l-37 541z" />
    <glyph glyph-name="uni0411" unicode="&#x411;" horiz-adv-x="1503" 
d="M1430 545q0 -85 -21 -161.5t-70.5 -147.5t-125 -122.5t-192 -82.5t-263.5 -31h-742l303 1520h1166l-72 -361h-706l-39 -201h252q510 0 510 -413zM819 618h-221l-49 -253h233q92 0 134 42.5t42 106.5q0 53 -32.5 78.5t-106.5 25.5z" />
    <glyph glyph-name="uni0412" unicode="&#x412;" horiz-adv-x="1548" 
d="M1454 459q0 -69 -18.5 -131.5t-65 -123.5t-117.5 -105.5t-183.5 -71.5t-254.5 -27h-799l303 1520h742q243 0 351 -90.5t108 -255.5q0 -66 -16.5 -124t-53.5 -112.5t-104.5 -96t-161.5 -63.5q270 -69 270 -319zM915 1159h-229l-47 -241h246q86 0 125 42t39 101
q0 52 -33.5 75t-100.5 23zM846 618h-268l-50 -253h279q88 0 132 41.5t44 105.5q0 106 -137 106z" />
    <glyph glyph-name="uni0413" unicode="&#x413;" horiz-adv-x="1228" 
d="M1311 1135h-609l-227 -1135h-459l303 1520h1070z" />
    <glyph glyph-name="uni0414" unicode="&#x414;" horiz-adv-x="1753" 
d="M-170 -397l156 774h69q43 31 88 78t108.5 139.5t125 211.5t134.5 305t140 409h1037l-230 -1143h203l-156 -774h-405l80 397h-865l-79 -397h-406zM586 377h422l155 766h-207q-155 -490 -370 -766z" />
    <glyph glyph-name="uni0415" unicode="&#x415;" horiz-adv-x="1343" 
d="M1221 377l-76 -377h-1129l303 1520h1113l-74 -373h-656l-38 -197h571l-72 -356h-571l-43 -217h672z" />
    <glyph glyph-name="uni0416" unicode="&#x416;" horiz-adv-x="2326" 
d="M823 0l131 653l-471 -653h-598v4l688 799l-376 713v4h536l264 -648l129 648h451l-131 -654l471 654h594v-4l-678 -766l379 -746v-4h-545l-264 647l-129 -647h-451z" />
    <glyph glyph-name="uni0417" unicode="&#x417;" horiz-adv-x="1409" 
d="M1307 461q0 -227 -192.5 -358.5t-569.5 -131.5q-366 0 -578 123l137 389q74 -55 188.5 -89t248.5 -34q116 0 189 34.5t73 101.5q0 47 -42 69.5t-155 22.5h-270l74 356h270q231 0 231 117q0 98 -209 98q-232 0 -426 -112l-28 387q255 114 602 114q293 0 428 -89.5
t135 -274.5q0 -148 -88.5 -255t-275.5 -149q258 -68 258 -319z" />
    <glyph glyph-name="uni0418" unicode="&#x418;" horiz-adv-x="1630" 
d="M938 0l162 805l-649 -805h-435l303 1520h447l-162 -805l649 805h435l-304 -1520h-446z" />
    <glyph glyph-name="uni0419" unicode="&#x419;" horiz-adv-x="1630" 
d="M625 1995l331 8q-6 -24 -6 -47q0 -98 119 -98q68 0 114 36.5t58 108.5l346 -8q-31 -133 -110 -220t-187.5 -124t-249.5 -37q-202 0 -313 77t-111 224q0 19 9 80zM938 0l162 805l-649 -805h-435l303 1520h447l-162 -805l649 805h435l-304 -1520h-446z" />
    <glyph glyph-name="uni041A" unicode="&#x41a;" horiz-adv-x="1609" 
d="M971 0l-367 647l-129 -647h-459l303 1520h459l-129 -652l563 652h603v-4l-775 -740l476 -772v-4h-545z" />
    <glyph glyph-name="uni041B" unicode="&#x41b;" horiz-adv-x="1622" 
d="M920 0l229 1143h-174q-54 -160 -97 -278.5t-88.5 -232t-85.5 -192.5t-84 -152t-88.5 -119.5t-94.5 -84.5t-107 -58.5t-120 -31t-140 -10.5q-116 0 -174 16l75 387q30 -10 74 -10q39 0 70.5 9t64.5 36.5t61 63.5t63 105.5t67.5 146.5t78.5 202t91.5 256t109.5 324h1030
l-303 -1520h-458z" />
    <glyph glyph-name="uni041C" unicode="&#x41c;" horiz-adv-x="2121" 
d="M782 0l-137 1020l-205 -1020h-424l303 1520h615l123 -914l467 914h655l-303 -1520h-438l204 1024l-528 -1024h-332z" />
    <glyph glyph-name="uni041D" unicode="&#x41d;" horiz-adv-x="1613" 
d="M909 0l117 584h-434l-117 -584h-459l303 1520h459l-110 -557h434l110 557h459l-303 -1520h-459z" />
    <glyph glyph-name="uni041E" unicode="&#x41e;" horiz-adv-x="1630" 
d="M731 -29q-296 0 -463.5 165t-167.5 460q0 149 35.5 288t108.5 259.5t175.5 211t245 142t308.5 51.5q296 0 463.5 -164.5t167.5 -459.5q0 -149 -35.5 -288t-108.5 -260t-175.5 -211t-245 -142t-308.5 -52zM780 365q80 0 146 48.5t107.5 127t64 172t22.5 188.5
q0 254 -196 254q-79 0 -145.5 -48.5t-108 -127t-64 -172.5t-22.5 -189q0 -253 196 -253z" />
    <glyph glyph-name="uni041F" unicode="&#x41f;" horiz-adv-x="1589" 
d="M885 0l229 1143h-409l-230 -1143h-459l303 1520h1328l-304 -1520h-458z" />
    <glyph glyph-name="uni0420" unicode="&#x420;" horiz-adv-x="1474" 
d="M750 414h-193l-82 -414h-459l303 1520h642q546 0 546 -469q0 -101 -24.5 -191.5t-82 -173t-143 -142.5t-215.5 -95t-292 -35zM856 1149h-151l-74 -367h151q132 0 193 64t61 158q0 74 -42 109.5t-138 35.5z" />
    <glyph glyph-name="uni0421" unicode="&#x421;" horiz-adv-x="1421" 
d="M1288 113q-82 -60 -218 -101t-306 -41q-322 0 -491 161.5t-169 477.5q0 145 35 280t109 255t181 209.5t260.5 141.5t336.5 52q298 0 461 -127l-156 -409q-115 143 -305 143q-129 0 -230.5 -70t-154.5 -182.5t-53 -243.5q0 -149 71.5 -221.5t204.5 -72.5q105 0 208 43
t183 116z" />
    <glyph glyph-name="uni0422" unicode="&#x422;" horiz-adv-x="1347" 
d="M1434 1147h-414l-229 -1147h-459l229 1147h-418l74 373h1290z" />
    <glyph glyph-name="uni0423" unicode="&#x423;" horiz-adv-x="1499" 
d="M1051 451q-90 -141 -174.5 -234.5t-175.5 -147.5t-183.5 -76t-210.5 -22q-176 0 -291 45l99 381q63 -32 153 -32q72 0 117.5 18.5t83.5 62.5l-285 1074h504l117 -705l371 705h548z" />
    <glyph glyph-name="uni0424" unicode="&#x424;" horiz-adv-x="2039" 
d="M1180 168h-21l-41 -205h-442l41 205q-183 3 -323 63.5t-220 176.5t-80 274q0 331 223 504.5t619 173.5h20l39 196h443l-39 -196q183 -3 323 -63.5t219.5 -176.5t79.5 -274q0 -331 -222.5 -504.5t-618.5 -173.5zM1542 807q0 95 -58.5 146t-156.5 51l-96 -480h20
q128 0 209.5 74t81.5 209zM573 721q0 -95 58.5 -146t156.5 -51l97 480h-21q-128 0 -209.5 -74t-81.5 -209z" />
    <glyph glyph-name="uni0425" unicode="&#x425;" horiz-adv-x="1540" 
d="M901 0l-164 440l-286 -440h-582l661 782l-350 738h541l158 -422l272 422h582l-650 -766l359 -754h-541z" />
    <glyph glyph-name="uni0426" unicode="&#x426;" horiz-adv-x="1695" 
d="M1604 377l-156 -774h-406l80 397h-1106l303 1520h459l-229 -1143h393l229 1143h459l-229 -1143h203z" />
    <glyph glyph-name="uni0427" unicode="&#x427;" horiz-adv-x="1519" 
d="M1577 1520l-303 -1520h-459l98 494q-161 -60 -315 -60q-221 0 -330.5 103.5t-109.5 285.5q0 73 14 144l111 553h458l-94 -471q-10 -58 -10 -88q0 -63 37.5 -88t130.5 -25q104 0 184 26l129 646h459z" />
    <glyph glyph-name="uni0428" unicode="&#x428;" horiz-adv-x="2269" 
d="M2327 1520l-304 -1520h-2007l303 1520h459l-229 -1143h315l230 1143h458l-229 -1143h315l230 1143h459z" />
    <glyph glyph-name="uni0429" unicode="&#x429;" horiz-adv-x="2392" 
d="M2300 377l-156 -774h-405l80 397h-1803l303 1520h459l-229 -1143h315l230 1143h458l-229 -1143h315l230 1143h459l-230 -1143h203z" />
    <glyph glyph-name="uni042A" unicode="&#x42a;" horiz-adv-x="1773" 
d="M1712 586q0 -92 -21.5 -174t-73.5 -158.5t-131.5 -132t-204 -88.5t-282.5 -33h-700l229 1147h-401l74 373h860l-98 -492h211q273 0 405.5 -110t132.5 -332zM1077 668h-186l-60 -299h201q110 0 159.5 50.5t49.5 125.5q0 63 -38.5 93t-125.5 30z" />
    <glyph glyph-name="uni042B" unicode="&#x42b;" horiz-adv-x="2158" 
d="M1405 586q0 -92 -21.5 -174t-73.5 -158.5t-131.5 -132t-204 -88.5t-282.5 -33h-676l303 1520h459l-98 -492h186q273 0 406 -110t133 -332zM1452 0l305 1520h459l-305 -1520h-459zM770 668h-162l-59 -299h176q110 0 159.5 50.5t49.5 125.5q0 63 -38.5 93t-125.5 30z" />
    <glyph glyph-name="uni042C" unicode="&#x42c;" horiz-adv-x="1499" 
d="M1438 586q0 -92 -21.5 -174t-73.5 -158.5t-131.5 -132t-204 -88.5t-282.5 -33h-709l303 1520h459l-98 -492h219q273 0 406 -110t133 -332zM803 668h-195l-59 -299h209q110 0 159.5 50.5t49.5 125.5q0 63 -38.5 93t-125.5 30z" />
    <glyph glyph-name="uni042D" unicode="&#x42d;" horiz-adv-x="1429" 
d="M1395 885q0 -100 -15 -194t-49 -186t-84.5 -171t-124 -146.5t-165.5 -115t-212.5 -74.5t-259.5 -27q-161 0 -294.5 33.5t-206.5 89.5l137 389q57 -57 147.5 -90t204.5 -33q151 0 256.5 62t159.5 172h-565l73 356h539q-19 109 -90.5 159t-208.5 50q-218 0 -365 -112
l-36 387q96 54 232.5 84t272.5 30q146 0 263.5 -38t206 -115.5t136.5 -207t48 -302.5z" />
    <glyph glyph-name="uni042E" unicode="&#x42e;" horiz-adv-x="2318" 
d="M2292 928q0 -149 -35 -288.5t-106.5 -261t-172 -212.5t-240 -143t-302.5 -52q-287 0 -451 162t-164 451h-229l-117 -584h-459l303 1520h459l-110 -557h213q44 127 116 232t170 184.5t228.5 124t281.5 44.5q288 0 451.5 -163t163.5 -457zM1485 365q99 0 175 84.5
t112 205.5t36 250q0 250 -180 250q-75 0 -138 -49.5t-102.5 -128.5t-61 -173.5t-21.5 -189.5q0 -249 180 -249z" />
    <glyph glyph-name="uni042F" unicode="&#x42f;" horiz-adv-x="1560" 
d="M856 0l88 438h-143l-340 -438h-582l510 539q-188 136 -188 387q0 121 45 228.5t128 189t211.5 129t284.5 47.5h748l-303 -1520h-459zM838 799h178l69 350h-196q-104 0 -160.5 -55.5t-56.5 -141.5q0 -76 44.5 -114.5t121.5 -38.5z" />
    <glyph glyph-name="uni0430" unicode="&#x430;" horiz-adv-x="1255" 
d="M637 0l20 137q-136 -162 -344 -162q-142 0 -227.5 79.5t-85.5 232.5q0 204 164 318t473 114h117q4 28 4 41q0 51 -35.5 71.5t-122.5 20.5q-198 0 -381 -111l-16 324q97 50 233.5 78t282.5 28q479 0 479 -337q0 -56 -12 -117l-144 -717h-405zM508 279q117 0 180 116
l23 111h-54q-117 0 -180 -39t-63 -105q0 -83 94 -83z" />
    <glyph glyph-name="uni0431" unicode="&#x431;" horiz-adv-x="1294" 
d="M1243 666q0 -138 -45.5 -262t-129.5 -220t-215 -152.5t-290 -56.5q-244 0 -370.5 126.5t-126.5 371.5q0 123 30 277q77 387 264.5 582t530.5 233l479 53l-76 -377l-483 -53q-135 -15 -216 -85.5t-126 -207.5q148 178 383 178q186 0 288.5 -99.5t102.5 -307.5zM483 471
q0 -156 113 -156q89 0 149 97t60 213q0 137 -111 137q-122 0 -188 -131q-23 -90 -23 -160z" />
    <glyph glyph-name="uni0432" unicode="&#x432;" horiz-adv-x="1327" 
d="M1221 348q0 -53 -13.5 -101t-47 -94t-84 -79t-131 -53.5t-181.5 -20.5h-776l229 1147h698q363 0 363 -264q0 -49 -12.5 -92.5t-40.5 -84t-79.5 -71.5t-121.5 -47q197 -49 197 -240zM762 852h-187l-32 -162h192q58 0 85.5 26.5t27.5 67.5q0 68 -86 68zM698 465h-200
l-33 -166h209q57 0 84.5 27t27.5 69q0 70 -88 70z" />
    <glyph glyph-name="uni0433" unicode="&#x433;" horiz-adv-x="1040" 
d="M1042 791h-462l-158 -791h-434l229 1147h897z" />
    <glyph glyph-name="uni0434" unicode="&#x434;" horiz-adv-x="1544" 
d="M-168 -397l152 745h69q39 26 73 57.5t81.5 94t90.5 144t94.5 211.5t99.5 292h933l-159 -799h190l-151 -745h-394l80 397h-686l-80 -397h-393zM555 348h285l90 451h-158q-80 -260 -217 -451z" />
    <glyph glyph-name="uni0435" unicode="&#x435;" horiz-adv-x="1257" 
d="M1114 82q-210 -107 -491 -107q-295 0 -437.5 119.5t-142.5 358.5q0 107 26.5 209t84 195t139.5 162.5t201 110.5t260 41q110 0 194 -25.5t135 -66t83.5 -99t44.5 -117t12 -126.5q0 -151 -56 -274h-690q3 -86 52.5 -127t191.5 -41q212 0 377 106zM717 885
q-148 0 -209 -193h307q14 25 14 74q0 119 -112 119z" />
    <glyph glyph-name="uni0436" unicode="&#x436;" horiz-adv-x="1966" 
d="M657 0l99 496l-363 -496h-528v4l530 604l-293 535v4h480l211 -475l94 475h422l-99 -490l363 490h520v-4l-514 -570l293 -569v-4h-488l-208 477l-97 -477h-422z" />
    <glyph glyph-name="uni0437" unicode="&#x437;" horiz-adv-x="1191" 
d="M1083 352q0 -183 -161 -280t-471 -97q-166 0 -277.5 26t-202.5 73l115 327q48 -45 140.5 -75.5t201.5 -30.5q87 0 137.5 22t50.5 66q0 30 -31.5 43.5t-119.5 13.5h-217l55 275h215q168 0 168 76q0 65 -139 65q-185 0 -357 -106l-30 323q218 98 522 98q244 0 357.5 -70
t113.5 -208q0 -113 -68 -191t-194 -112q192 -48 192 -238z" />
    <glyph glyph-name="uni0438" unicode="&#x438;" horiz-adv-x="1368" 
d="M729 0l111 549l-439 -549h-413l229 1147h422l-111 -549l439 549h413l-229 -1147h-422z" />
    <glyph glyph-name="uni0439" unicode="&#x439;" horiz-adv-x="1368" 
d="M438 1683l332 9q-14 -68 -14 -99q0 -44 21.5 -66t72.5 -22q71 0 105.5 45t50.5 142l346 -9q-84 -421 -531 -421q-189 0 -292 76.5t-103 230.5q0 53 12 114zM729 0l111 549l-439 -549h-413l229 1147h422l-111 -549l439 549h413l-229 -1147h-422z" />
    <glyph glyph-name="uni043A" unicode="&#x43a;" horiz-adv-x="1351" 
d="M791 0l-271 489l-98 -489h-434l229 1147h434l-94 -475l406 475h520v-4l-555 -553l350 -586v-4h-487z" />
    <glyph glyph-name="uni043B" unicode="&#x43b;" horiz-adv-x="1388" 
d="M737 0l160 799h-141q-43 -136 -77.5 -232.5t-74.5 -187.5t-79.5 -150.5t-87.5 -109.5t-104 -77.5t-123.5 -42.5t-150.5 -15q-86 0 -147 16l72 356q20 -8 49 -8q115 0 204 172.5t230 626.5h934l-230 -1147h-434z" />
    <glyph glyph-name="uni043C" unicode="&#x43c;" horiz-adv-x="1761" 
d="M625 0l-97 719l-143 -719h-397l229 1147h555l88 -651l332 651h582l-230 -1147h-405l143 719l-364 -719h-293z" />
    <glyph glyph-name="uni043D" unicode="&#x43d;" horiz-adv-x="1343" 
d="M692 0l80 403h-270l-80 -403h-434l229 1147h434l-78 -391h271l78 391h434l-230 -1147h-434z" />
    <glyph glyph-name="uni043E" unicode="&#x43e;" horiz-adv-x="1294" 
d="M575 -25q-83 0 -157.5 15.5t-144 52t-120 91t-80.5 138.5t-30 189q0 107 26 209t81.5 193t133.5 159.5t190.5 108.5t244.5 40q83 0 157.5 -15.5t144 -51.5t120 -90.5t80.5 -138.5t30 -189q0 -107 -26 -209t-81.5 -193.5t-133.5 -160t-190.5 -108.5t-244.5 -40zM606 315
q63 0 112 56.5t72 137t23 165.5q0 157 -125 157q-63 0 -112 -56t-72 -136.5t-23 -165.5q0 -158 125 -158z" />
    <glyph glyph-name="uni043F" unicode="&#x43f;" horiz-adv-x="1335" 
d="M684 0l160 799h-262l-160 -799h-434l229 1147h1131l-230 -1147h-434z" />
    <glyph glyph-name="uni0440" unicode="&#x440;" horiz-adv-x="1359" 
d="M729 -25q-180 0 -289 113l-102 -510h-434l313 1569h406l-27 -172q132 196 358 196q177 0 270 -115t93 -335q0 -115 -25.5 -224.5t-76 -203.5t-120 -165.5t-164 -112t-202.5 -40.5zM559 684l-57 -291q17 -35 55 -56.5t82 -21.5q98 0 164.5 102t66.5 234q0 164 -125 164
q-121 0 -186 -131z" />
    <glyph glyph-name="uni0441" unicode="&#x441;" horiz-adv-x="1089" 
d="M956 90q-76 -52 -182.5 -83.5t-226.5 -31.5q-235 0 -369.5 125.5t-134.5 362.5q0 104 26 204t82 192t135.5 161t196.5 110t256 41q126 0 222.5 -31.5t154.5 -82.5l-125 -332q-90 98 -225 98q-72 0 -128 -28t-89.5 -74.5t-50.5 -101.5t-17 -113q0 -182 185 -182
q146 0 266 96z" />
    <glyph glyph-name="uni0442" unicode="&#x442;" horiz-adv-x="1142" 
d="M1145 799h-311l-160 -799h-434l159 799h-315l72 348h1061z" />
    <glyph glyph-name="uni0443" unicode="&#x443;" horiz-adv-x="1314" 
d="M799 10q-79 -145 -156.5 -240.5t-160 -147.5t-163 -72.5t-184.5 -20.5q-162 0 -266 53l94 336q84 -45 184 -45q55 0 97 20.5t80 73.5l-209 1180h475l41 -748l307 748h483z" />
    <glyph glyph-name="uni0444" unicode="&#x444;" horiz-adv-x="1798" 
d="M1761 676q0 -170 -56 -301.5t-159 -216t-243.5 -128.5t-313.5 -46l-82 -406h-413l81 406q-236 6 -386 138t-150 349q0 170 56 301.5t158.5 216t243 128.5t314.5 46l86 430h414l-86 -430q236 -6 386 -138t150 -349zM1323 633q0 97 -40.5 154t-121.5 57l-108 -541
q116 0 193 86.5t77 243.5zM477 514q0 -97 40.5 -154t121.5 -57l109 541q-116 0 -193.5 -86.5t-77.5 -243.5z" />
    <glyph glyph-name="uni0445" unicode="&#x445;" horiz-adv-x="1302" 
d="M713 0l-117 301l-199 -301h-524v4l528 592l-290 547v4h487l109 -285l188 285h522v-4l-514 -578l297 -561v-4h-487z" />
    <glyph glyph-name="uni0446" unicode="&#x446;" horiz-adv-x="1466" 
d="M1378 348l-151 -745h-393l79 397h-925l229 1147h434l-159 -799h262l159 799h435l-160 -799h190z" />
    <glyph glyph-name="uni0447" unicode="&#x447;" 
d="M1303 1147l-230 -1147h-434l72 362q-133 -47 -279 -47q-169 0 -256.5 74.5t-87.5 208.5q0 40 10 98l90 451h435l-70 -348q-6 -27 -6 -49q0 -40 25.5 -57t84.5 -17q63 0 121 20l90 451h435z" />
    <glyph glyph-name="uni0448" unicode="&#x448;" horiz-adv-x="1990" 
d="M2003 1147l-229 -1147h-1786l229 1147h434l-159 -799h241l160 799h434l-160 -799h242l160 799h434z" />
    <glyph glyph-name="uni0449" unicode="&#x449;" horiz-adv-x="2121" 
d="M2034 348l-152 -745h-393l80 397h-1581l229 1147h434l-159 -799h241l160 799h434l-160 -799h242l160 799h434l-160 -799h191z" />
    <glyph glyph-name="uni044A" unicode="&#x44a;" horiz-adv-x="1527" 
d="M1458 467q0 -75 -17 -140.5t-59 -126.5t-106.5 -104.5t-166 -69.5t-230.5 -26h-650l164 799h-307l70 348h741l-66 -320h187q226 0 333 -90t107 -270zM891 537h-119l-47 -230h131q87 0 125.5 38.5t38.5 96.5q0 48 -30.5 71.5t-98.5 23.5z" />
    <glyph glyph-name="uni044B" unicode="&#x44b;" horiz-adv-x="1867" 
d="M1196 467q0 -75 -17.5 -140.5t-59.5 -126.5t-106.5 -104.5t-166 -69.5t-230.5 -26h-628l229 1147h434l-63 -320h168q226 0 333 -90t107 -270zM1217 0l229 1147h434l-229 -1147h-434zM629 537h-101l-45 -230h111q87 0 125.5 38.5t38.5 96.5q0 48 -30.5 71.5t-98.5 23.5z
" />
    <glyph glyph-name="uni044C" unicode="&#x44c;" 
d="M1221 467q0 -75 -17.5 -140.5t-59.5 -126.5t-106.5 -104.5t-166 -69.5t-230.5 -26h-653l229 1147h434l-63 -320h192q226 0 333.5 -90.5t107.5 -269.5zM653 537h-125l-45 -230h135q87 0 125.5 38.5t38.5 96.5q0 48 -30.5 71.5t-98.5 23.5z" />
    <glyph glyph-name="uni044D" unicode="&#x44d;" horiz-adv-x="1183" 
d="M1137 657q0 -111 -24.5 -209.5t-81 -186t-141 -150.5t-211 -99.5t-284.5 -36.5q-135 0 -249.5 26.5t-182.5 72.5l115 327q48 -50 126.5 -78t174.5 -28q218 0 295 145h-436l53 275h422q-15 74 -65.5 105.5t-147.5 31.5q-187 0 -307 -102l-31 323q175 98 434 98
q541 0 541 -514z" />
    <glyph glyph-name="uni044E" unicode="&#x44e;" horiz-adv-x="1916" 
d="M1874 690q0 -107 -25.5 -209.5t-80 -194.5t-131.5 -161t-187 -109.5t-240 -40.5q-76 0 -145 13.5t-134.5 45.5t-115 80t-83 123t-40.5 169h-188l-82 -406h-434l229 1147h434l-78 -393h170q72 186 228.5 301.5t382.5 115.5q80 0 152 -15t140.5 -50.5t118 -89.5
t79.5 -137.5t30 -188.5zM1241 315q59 0 105 57.5t68 139t22 166.5q0 153 -113 153q-59 0 -105 -57t-68 -138.5t-22 -166.5q0 -154 113 -154z" />
    <glyph glyph-name="uni044F" unicode="&#x44f;" horiz-adv-x="1323" 
d="M672 0l65 332h-82l-239 -332h-516v4l370 399q-147 102 -147 295q0 91 34 172t96.5 143t159.5 98t214 36h708l-229 -1147h-434zM666 623h131l43 217h-142q-65 0 -101 -34t-36 -89q0 -46 28 -70t77 -24z" />
    <glyph glyph-name="uni0450" unicode="&#x450;" horiz-adv-x="1257" 
d="M709 1257l-295 445l370 31l179 -445zM1114 82q-210 -107 -491 -107q-295 0 -437.5 119.5t-142.5 358.5q0 107 26.5 209t84 195t139.5 162.5t201 110.5t260 41q110 0 194 -25.5t135 -66t83.5 -99t44.5 -117t12 -126.5q0 -151 -56 -274h-690q3 -86 52.5 -127t191.5 -41
q212 0 377 106zM717 885q-148 0 -209 -193h307q14 25 14 74q0 119 -112 119z" />
    <glyph glyph-name="uni0451" unicode="&#x451;" horiz-adv-x="1257" 
d="M866 1266l66 327h352l-65 -327h-353zM342 1266l66 327h352l-66 -327h-352zM1114 82q-210 -107 -491 -107q-295 0 -437.5 119.5t-142.5 358.5q0 107 26.5 209t84 195t139.5 162.5t201 110.5t260 41q110 0 194 -25.5t135 -66t83.5 -99t44.5 -117t12 -126.5q0 -151 -56 -274
h-690q3 -86 52.5 -127t191.5 -41q212 0 377 106zM717 885q-148 0 -209 -193h307q14 25 14 74q0 119 -112 119z" />
    <glyph glyph-name="uni0452" unicode="&#x452;" horiz-adv-x="1339" 
d="M1151 82q-31 -157 -85 -267t-127 -171.5t-155 -88t-184 -26.5q-141 0 -240 45l84 332q56 -33 111 -33q58 0 96.5 37t57.5 131l108 543q6 35 6 59q0 78 -78 78q-122 0 -188 -127l-119 -594h-434l240 1192h-156l49 242h154l33 159h434l-33 -159h346l-49 -242h-344l-57 -287
q150 180 366 180q135 0 212 -76.5t77 -230.5q0 -77 -16 -153z" />
    <glyph glyph-name="uni0453" unicode="&#x453;" horiz-adv-x="1040" 
d="M696 1257l-270 46l307 430l389 -66zM1042 791h-462l-158 -791h-434l229 1147h897z" />
    <glyph glyph-name="uni0454" unicode="&#x454;" horiz-adv-x="1183" 
d="M1024 74q-162 -99 -420 -99q-561 0 -561 494q0 110 26.5 210.5t85 191t144.5 156.5t213 105t283 39q134 0 235.5 -26.5t157.5 -69.5l-121 -327q-44 46 -116.5 75t-164.5 29q-194 0 -274 -137h432l-53 -275h-426q11 -75 60 -110t151 -35q181 0 328 106z" />
    <glyph glyph-name="uni0455" unicode="&#x455;" horiz-adv-x="1085" 
d="M-35 82l107 332q76 -59 171 -93t191 -34q127 0 127 61q0 20 -23.5 38t-56 29.5t-82.5 24.5q-44 12 -79 24.5t-75.5 38t-67 57.5t-44.5 82.5t-18 113.5q0 196 145.5 305.5t423.5 109.5q232 0 401 -88l-106 -331q-144 110 -303 110q-63 0 -95 -16t-32 -43q0 -15 10 -27.5
t34.5 -22.5t44.5 -16.5t60 -17.5q46 -12 81.5 -25.5t78 -40t70.5 -59.5t47.5 -85.5t19.5 -117.5q0 -197 -147 -306.5t-428 -109.5q-249 0 -455 107z" />
    <glyph glyph-name="uni0456" unicode="&#x456;" horiz-adv-x="647" 
d="M238 1266l65 327h451l-66 -327h-450zM-8 0l229 1147h434l-229 -1147h-434z" />
    <glyph glyph-name="uni0457" unicode="&#x457;" horiz-adv-x="679" 
d="M528 1266l66 327h328l-66 -327h-328zM102 1266l66 327h328l-66 -327h-328zM8 0l230 1147h434l-230 -1147h-434z" />
    <glyph glyph-name="uni0458" unicode="&#x458;" horiz-adv-x="663" 
d="M262 1266l66 327h450l-65 -327h-451zM-356 -422l94 336q67 -37 123 -37q62 0 105 41.5t63 142.5l217 1086h434l-207 -1034q-26 -133 -68.5 -234t-95 -166.5t-120 -107.5t-138.5 -59t-155 -17q-149 0 -252 49z" />
    <glyph glyph-name="uni0459" unicode="&#x459;" horiz-adv-x="2035" 
d="M737 0l160 799h-141q-43 -136 -77.5 -232.5t-74.5 -187.5t-79.5 -150.5t-87.5 -109.5t-104 -77.5t-123.5 -42.5t-150.5 -15q-86 0 -147 16l72 356q20 -8 49 -8q115 0 204 172.5t230 626.5h934l-66 -328h195q223 0 329.5 -89.5t106.5 -266.5q0 -74 -17 -139t-59 -125.5
t-106 -103.5t-164.5 -69t-228.5 -26h-654zM1405 528h-127l-45 -221h137q84 0 121 37.5t37 93.5q0 46 -29 68t-94 22z" />
    <glyph glyph-name="uni045A" unicode="&#x45a;" horiz-adv-x="1990" 
d="M692 0l80 403h-270l-80 -403h-434l229 1147h434l-78 -391h271l78 391h434l-66 -328h195q223 0 329.5 -89.5t106.5 -266.5q0 -74 -17 -139t-59 -125.5t-106 -103.5t-164.5 -69t-228.5 -26h-654zM1360 528h-127l-45 -221h137q84 0 121 37.5t37 93.5q0 46 -29 68t-94 22z
" />
    <glyph glyph-name="uni045B" unicode="&#x45b;" horiz-adv-x="1339" 
d="M557 594l-119 -594h-434l240 1192h-156l49 242h154l33 159h434l-33 -159h346l-49 -242h-344l-57 -287q150 180 366 180q135 0 212 -76.5t77 -230.5q0 -77 -16 -153l-125 -625h-435l117 584q6 35 6 59q0 78 -78 78q-122 0 -188 -127z" />
    <glyph glyph-name="uni045C" unicode="&#x45c;" horiz-adv-x="1351" 
d="M838 1257l-271 46l307 430l390 -66zM791 0l-271 489l-98 -489h-434l229 1147h434l-94 -475l406 475h520v-4l-555 -553l350 -586v-4h-487z" />
    <glyph glyph-name="uni045D" unicode="&#x45d;" horiz-adv-x="1368" 
d="M743 1257l-294 445l370 31l178 -445zM729 0l111 549l-439 -549h-413l229 1147h422l-111 -549l439 549h413l-229 -1147h-422z" />
    <glyph glyph-name="uni045E" unicode="&#x45e;" horiz-adv-x="1314" 
d="M422 1683l332 9q-15 -73 -15 -99q0 -44 22 -66t73 -22q71 0 105 45t50 142l346 -9q-84 -421 -530 -421q-189 0 -292 76.5t-103 230.5q0 53 12 114zM799 10q-79 -145 -156.5 -240.5t-160 -147.5t-163 -72.5t-184.5 -20.5q-162 0 -266 53l94 336q84 -45 184 -45
q55 0 97 20.5t80 73.5l-209 1180h475l41 -748l307 748h483z" />
    <glyph glyph-name="uni045F" unicode="&#x45f;" horiz-adv-x="1335" 
d="M1118 0h-360l-86 -422h-393l86 422h-377l229 1147h434l-159 -799h262l159 799h435z" />
    <glyph glyph-name="uni0462" unicode="&#x462;" horiz-adv-x="1626" 
d="M1556 541q0 -85 -20.5 -160.5t-70.5 -146.5t-125 -122t-191.5 -81.5t-263.5 -30.5h-709l219 1102h-284l57 287h285l41 204h458l-41 -204h490l-58 -287h-489l-29 -152h224q507 0 507 -409zM948 610h-192l-47 -245h200q93 0 134.5 41t41.5 104q0 52 -32 76t-105 24z" />
    <glyph glyph-name="uni0463" unicode="&#x463;" horiz-adv-x="1339" 
d="M1262 440q0 -70 -16.5 -131.5t-56.5 -119.5t-101 -99t-157 -65.5t-218 -24.5h-652l179 893h-177l52 254h176l74 373h434l-74 -373h344l-51 -254h-344l-23 -111h193q214 0 316 -86t102 -256zM709 508h-111l-41 -201h121q77 0 111 34t34 85q0 42 -27 62t-87 20z" />
    <glyph glyph-name="uni0472" unicode="&#x472;" horiz-adv-x="1630" 
d="M731 -29q-296 0 -463.5 165t-167.5 460q0 149 35.5 288t108.5 259.5t175.5 211t245 142t308.5 51.5q296 0 463.5 -164.5t167.5 -459.5q0 -149 -35.5 -288t-108.5 -260t-175.5 -211t-245 -142t-308.5 -52zM928 1159q-108 0 -187.5 -65.5t-126.5 -175.5h535
q-3 116 -58.5 178.5t-162.5 62.5zM555 618q0 -258 221 -258q111 0 193 70.5t129 187.5h-543z" />
    <glyph glyph-name="uni0473" unicode="&#x473;" horiz-adv-x="1294" 
d="M575 -25q-83 0 -157.5 15.5t-144 52t-120 91t-80.5 138.5t-30 189q0 107 26 209t81.5 193t133.5 159.5t190.5 108.5t244.5 40q83 0 157.5 -15.5t144 -51.5t120 -90.5t80.5 -138.5t30 -189q0 -107 -26 -209t-81.5 -193.5t-133.5 -160t-190.5 -108.5t-244.5 -40zM698 848
q-136 0 -200 -158h336q-2 73 -36 115.5t-100 42.5zM461 465q0 -76 34 -121t101 -45q142 0 203 166h-338z" />
    <glyph glyph-name="uni0474" unicode="&#x474;" horiz-adv-x="1671" 
d="M1384 938l-471 -938h-532l-197 1520h492l65 -977l168 403q75 182 153.5 302t165.5 185t174 90t200 25q156 0 251 -49l-127 -409q-62 32 -116 32q-73 0 -124.5 -42.5t-101.5 -141.5z" />
    <glyph glyph-name="uni0475" unicode="&#x475;" horiz-adv-x="1380" 
d="M1114 647l-336 -647h-499l-160 1147h454l37 -729l123 299q56 137 115 227t126.5 139.5t137 68.5t160.5 19q138 0 231 -41l-110 -372q-45 28 -101 28q-60 0 -99 -31t-79 -108z" />
    <glyph glyph-name="uni0490" unicode="&#x490;" horiz-adv-x="1228" 
d="M1300 1135h-598l-227 -1135h-459l301 1520h670l109 376h381z" />
    <glyph glyph-name="uni0491" unicode="&#x491;" horiz-adv-x="1064" 
d="M1065 791h-487l-158 -791h-432l229 1147h557l113 377h348z" />
    <glyph glyph-name="uni0492" unicode="&#x492;" horiz-adv-x="1314" 
d="M1038 539h-368l-109 -539h-459l107 539h-203l66 327h202l132 654h1069l-78 -385h-609l-53 -269h369z" />
    <glyph glyph-name="uni0493" unicode="&#x493;" horiz-adv-x="1138" 
d="M887 348h-297l-70 -348h-434l70 348h-176l59 287h174l102 512h897l-71 -356h-463l-31 -156h299z" />
    <glyph glyph-name="uni0496" unicode="&#x496;" horiz-adv-x="2441" 
d="M2367 377l-155 -774h-406l82 397h-221l-264 647l-129 -647h-451l131 653l-471 -653h-598v4l688 799l-376 713v4h536l264 -648l129 648h451l-131 -654l471 654h594v-4l-678 -766l188 -373h346z" />
    <glyph glyph-name="uni0497" unicode="&#x497;" horiz-adv-x="2060" 
d="M1999 348l-152 -745h-393l82 397h-152l-208 477l-97 -477h-422l99 496l-363 -496h-528v4l530 604l-293 535v4h480l211 -475l94 475h422l-99 -490l363 490h520v-4l-514 -570l115 -225h305z" />
    <glyph glyph-name="uni0498" unicode="&#x498;" horiz-adv-x="1409" 
d="M795 -231q0 -126 -93 -205.5t-274 -79.5t-258 41l100 291q50 -33 119 -33q100 0 100 96q0 51 -40 94q-301 16 -482 121l137 389q74 -55 188.5 -89t248.5 -34q116 0 189 34.5t73 101.5q0 47 -42 69.5t-155 22.5h-270l74 356h270q231 0 231 117q0 98 -209 98
q-232 0 -426 -112l-28 387q255 114 602 114q293 0 428 -89.5t135 -274.5q0 -148 -88.5 -255t-275.5 -149q258 -68 258 -319q0 -202 -154.5 -330t-458.5 -154q101 -91 101 -208z" />
    <glyph glyph-name="uni0499" unicode="&#x499;" horiz-adv-x="1191" 
d="M713 -231q0 -126 -93 -205.5t-274 -79.5t-258 41l100 291q21 -14 55 -23.5t64 -9.5q101 0 101 96q0 52 -46 98q-232 12 -391 97l115 327q48 -45 140.5 -75.5t201.5 -30.5q87 0 137.5 22t50.5 66q0 30 -31.5 43.5t-119.5 13.5h-217l55 275h215q168 0 168 76q0 65 -139 65
q-185 0 -357 -106l-30 323q218 98 522 98q244 0 357.5 -70t113.5 -208q0 -113 -68 -191t-194 -112q192 -48 192 -238q0 -157 -121.5 -251t-355.5 -117q107 -93 107 -215z" />
    <glyph glyph-name="uni049A" unicode="&#x49a;" horiz-adv-x="1695" 
d="M1622 377l-156 -774h-405l82 397h-172l-367 647l-129 -647h-459l303 1520h459l-129 -652l563 652h603v-4l-775 -740l246 -399h336z" />
    <glyph glyph-name="uni049B" unicode="&#x49b;" horiz-adv-x="1431" 
d="M1372 348l-151 -745h-394l82 397h-118l-271 489l-98 -489h-434l229 1147h434l-94 -475l406 475h520v-4l-555 -553l145 -242h299z" />
    <glyph glyph-name="uni04A0" unicode="&#x4a0;" horiz-adv-x="1892" 
d="M127 1147l74 373h860l-129 -652l563 652h602v-4l-774 -740l475 -772v-4h-545l-366 647l-129 -647h-459l229 1147h-401z" />
    <glyph glyph-name="uni04A1" unicode="&#x4a1;" horiz-adv-x="1597" 
d="M86 799l70 348h741l-94 -475l405 475h521v-4l-555 -553l350 -586v-4h-488l-270 489l-98 -489h-435l160 799h-307z" />
    <glyph glyph-name="uni04A2" unicode="&#x4a2;" horiz-adv-x="1736" 
d="M1645 377l-156 -774h-406l82 397h-256l117 584h-434l-117 -584h-459l303 1520h459l-110 -557h434l110 557h459l-227 -1143h201z" />
    <glyph glyph-name="uni04A3" unicode="&#x4a3;" horiz-adv-x="1474" 
d="M1386 348l-151 -745h-393l82 397h-232l80 403h-270l-80 -403h-434l229 1147h434l-78 -391h271l78 391h434l-160 -799h190z" />
    <glyph glyph-name="uni04AA" unicode="&#x4aa;" horiz-adv-x="1421" 
d="M938 -231q0 -126 -93 -205.5t-274 -79.5t-258 41l101 291q50 -33 118 -33q101 0 101 96q0 59 -55 109q-232 42 -353 198.5t-121 423.5q0 145 35 280t109 255t181 209.5t260.5 141.5t336.5 52q298 0 461 -127l-156 -409q-115 143 -305 143q-129 0 -230.5 -70
t-154.5 -182.5t-53 -243.5q0 -149 71.5 -221.5t204.5 -72.5q105 0 208 43t183 116l33 -411q-74 -53 -188.5 -92.5t-257.5 -47.5q96 -87 96 -204z" />
    <glyph glyph-name="uni04AB" unicode="&#x4ab;" horiz-adv-x="1089" 
d="M729 -231q0 -126 -93 -205.5t-274 -79.5t-258 41l101 291q21 -14 55 -23.5t64 -9.5q100 0 100 96q0 65 -70 121h4q-151 44 -233 161.5t-82 301.5q0 104 26 204t82 192t135.5 161t196.5 110t256 41q126 0 222.5 -31.5t154.5 -82.5l-125 -332q-90 98 -225 98
q-72 0 -128 -28t-89.5 -74.5t-50.5 -101.5t-17 -113q0 -182 185 -182q146 0 266 96l24 -330q-134 -92 -329 -110q102 -88 102 -211z" />
    <glyph glyph-name="uni04AE" unicode="&#x4ae;" horiz-adv-x="1462" 
d="M1683 1520l-735 -1006l-102 -514h-459l107 537l-338 983h503l144 -578l332 578h548z" />
    <glyph glyph-name="uni04AF" unicode="&#x4af;" horiz-adv-x="1298" 
d="M1407 1147l-649 -1098l-94 -471h-435l97 479l-205 1090h450l52 -672l292 672h492z" />
    <glyph glyph-name="uni04B0" unicode="&#x4b0;" horiz-adv-x="1462" 
d="M1255 299h-350l-59 -299h-459l59 299h-337l65 332h289l-307 889h503l144 -578l332 578h548l-649 -889h287z" />
    <glyph glyph-name="uni04B1" unicode="&#x4b1;" horiz-adv-x="1298" 
d="M1014 -125h-291l-59 -297h-435l60 297h-271l50 246h245l-192 1026h450l52 -672l292 672h492l-606 -1026h262z" />
    <glyph glyph-name="uni04B2" unicode="&#x4b2;" horiz-adv-x="1675" 
d="M1602 377l-156 -774h-406l82 397h-221l-164 440l-286 -440h-582l661 782l-350 738h541l158 -422l272 422h582l-650 -766l181 -377h338z" />
    <glyph glyph-name="uni04B3" unicode="&#x4b3;" horiz-adv-x="1380" 
d="M1319 348l-152 -745h-393l82 397h-143l-117 301l-199 -301h-524v4l528 592l-290 547v4h487l109 -285l188 285h522v-4l-514 -578l115 -217h301z" />
    <glyph glyph-name="uni04B6" unicode="&#x4b6;" horiz-adv-x="1642" 
d="M1550 377l-155 -774h-406l80 397h-254l98 494q-161 -60 -315 -60q-221 0 -330.5 103.5t-109.5 285.5q0 73 14 144l111 553h458l-94 -471q-10 -58 -10 -88q0 -63 37.5 -88t130.5 -25q104 0 184 26l129 646h459l-227 -1143h200z" />
    <glyph glyph-name="uni04B7" unicode="&#x4b7;" horiz-adv-x="1419" 
d="M1333 348l-151 -745h-394l82 397h-231l72 362q-133 -47 -279 -47q-169 0 -256.5 74.5t-87.5 208.5q0 40 10 98l90 451h435l-70 -348q-6 -27 -6 -49q0 -40 25.5 -57t84.5 -17q63 0 121 20l90 451h435l-160 -799h190z" />
    <glyph glyph-name="uni04BA" unicode="&#x4ba;" horiz-adv-x="1519" 
d="M600 625l-125 -625h-459l303 1520h459l-100 -506q165 71 338 71q212 0 317 -102t105 -281q0 -59 -17 -149l-110 -553h-459l94 471q12 55 12 92q0 61 -34.5 85t-118.5 24q-130 0 -205 -47z" />
    <glyph glyph-name="uni04BB" unicode="&#x4bb;" horiz-adv-x="1323" 
d="M557 676l-135 -676h-434l319 1593h434l-123 -600q151 178 361 178q135 0 213 -76.5t78 -230.5q0 -54 -17 -147l-143 -717h-434l135 676q6 27 6 51q0 80 -80 80q-51 0 -99 -32t-81 -99z" />
    <glyph glyph-name="uni04C0" unicode="&#x4c0;" horiz-adv-x="720" 
d="M16 0l303 1520h459l-303 -1520h-459z" />
    <glyph glyph-name="uni04C1" unicode="&#x4c1;" horiz-adv-x="2326" 
d="M952 1995l332 8q-6 -24 -6 -47q0 -98 119 -98q68 0 114 36.5t58 108.5l346 -8q-31 -133 -110 -220t-187.5 -124t-249.5 -37q-202 0 -313 77t-111 224q0 26 8 80zM823 0l131 653l-471 -653h-598v4l688 799l-376 713v4h536l264 -648l129 648h451l-131 -654l471 654h594v-4
l-678 -766l379 -746v-4h-545l-264 647l-129 -647h-451z" />
    <glyph glyph-name="uni04C2" unicode="&#x4c2;" horiz-adv-x="1966" 
d="M741 1683l332 9q-14 -68 -14 -99q0 -44 21.5 -66t72.5 -22q71 0 105.5 45t50.5 142l346 -9q-84 -421 -531 -421q-189 0 -292 76.5t-103 230.5q0 53 12 114zM657 0l99 496l-363 -496h-528v4l530 604l-293 535v4h480l211 -475l94 475h422l-99 -490l363 490h520v-4
l-514 -570l293 -569v-4h-488l-208 477l-97 -477h-422z" />
    <glyph glyph-name="uni04CF" unicode="&#x4cf;" horiz-adv-x="655" 
d="M-4 0l233 1171h435l-234 -1171h-434z" />
    <glyph glyph-name="uni04D0" unicode="&#x4d0;" horiz-adv-x="1605" 
d="M596 1995l332 8q-6 -24 -6 -47q0 -98 118 -98q68 0 114 36.5t58 108.5l347 -8q-31 -133 -110 -220t-187.5 -124t-249.5 -37q-202 0 -313 77t-111 224q0 26 8 80zM1004 0l-17 250h-469l-112 -250h-525l803 1520h614l197 -1520h-491zM682 614h279l-37 541z" />
    <glyph glyph-name="uni04D1" unicode="&#x4d1;" horiz-adv-x="1255" 
d="M387 1683l332 9q-14 -68 -14 -99q0 -44 21.5 -66t72.5 -22q71 0 105 45t50 142l346 -9q-84 -421 -530 -421q-189 0 -292 76.5t-103 230.5q0 53 12 114zM637 0l20 137q-136 -162 -344 -162q-142 0 -227.5 79.5t-85.5 232.5q0 204 164 318t473 114h117q4 28 4 41
q0 51 -35.5 71.5t-122.5 20.5q-198 0 -381 -111l-16 324q97 50 233.5 78t282.5 28q479 0 479 -337q0 -56 -12 -117l-144 -717h-405zM508 279q117 0 180 116l23 111h-54q-117 0 -180 -39t-63 -105q0 -83 94 -83z" />
    <glyph glyph-name="uni04D4" unicode="&#x4d4;" horiz-adv-x="2252" 
d="M950 0l62 305h-494l-203 -305h-544l1077 1520h1493l-74 -373h-655l-39 -197h571l-71 -356h-572l-43 -217h672l-76 -377h-1104zM1182 1153h-99l-321 -483h323z" />
    <glyph glyph-name="uni04D5" unicode="&#x4d5;" horiz-adv-x="1896" 
d="M0 287q0 206 161 316t472 110h125q4 16 4 45q0 51 -37.5 72.5t-128.5 21.5q-206 0 -389 -111l-17 324q97 50 234.5 78t286.5 28q231 0 319 -102q145 102 363 102q110 0 194 -25.5t135 -66t83.5 -99t44.5 -117t12 -126.5q0 -143 -54 -270h-692q1 -43 10.5 -71.5t35 -53
t74.5 -36t124 -11.5q212 0 377 106l16 -319q-210 -107 -491 -107q-322 0 -451 166q-169 -166 -428 -166q-176 0 -279.5 80t-103.5 232zM1356 885q-146 0 -207 -189h307q12 24 12 70q0 119 -112 119zM522 279q62 0 116.5 27t84.5 75q-4 36 -4 61q0 36 2 54h-68
q-239 0 -239 -131q0 -86 108 -86z" />
    <glyph glyph-name="uni04D6" unicode="&#x4d6;" horiz-adv-x="1343" 
d="M479 1995l332 8q-6 -24 -6 -47q0 -98 119 -98q68 0 114 36.5t58 108.5l346 -8q-31 -133 -110 -220t-187.5 -124t-249.5 -37q-202 0 -313 77t-111 224q0 26 8 80zM1221 377l-76 -377h-1129l303 1520h1113l-74 -373h-656l-38 -197h571l-72 -356h-571l-43 -217h672z" />
    <glyph glyph-name="uni04D7" unicode="&#x4d7;" horiz-adv-x="1257" 
d="M403 1683l332 9q-14 -68 -14 -99q0 -44 21.5 -66t72.5 -22q71 0 105.5 45t50.5 142l346 -9q-84 -421 -531 -421q-189 0 -292 76.5t-103 230.5q0 53 12 114zM1114 82q-210 -107 -491 -107q-295 0 -437.5 119.5t-142.5 358.5q0 107 26.5 209t84 195t139.5 162.5t201 110.5
t260 41q110 0 194 -25.5t135 -66t83.5 -99t44.5 -117t12 -126.5q0 -151 -56 -274h-690q3 -86 52.5 -127t191.5 -41q212 0 377 106zM717 885q-148 0 -209 -193h307q14 25 14 74q0 119 -112 119z" />
    <glyph glyph-name="uni04D8" unicode="&#x4d8;" horiz-adv-x="1593" 
d="M1561 903q0 -137 -28.5 -266.5t-94 -251.5t-162 -213t-242.5 -146t-325 -55q-136 0 -245 32t-180 85t-118.5 125t-67.5 149.5t-20 161.5q0 95 24.5 204.5t57.5 176.5h917q-4 144 -65 197t-219 53q-276 0 -508 -147l-27 393q114 67 281 107t344 40q678 0 678 -645z
M723 348q124 0 201 70t114 188h-510q-12 -35 -12 -84q0 -76 52 -125t155 -49z" />
    <glyph glyph-name="uni04D9" unicode="&#x4d9;" horiz-adv-x="1265" 
d="M1225 682q0 -103 -23 -201t-75.5 -191t-130 -162t-195.5 -111t-262 -42q-110 0 -196.5 24.5t-141.5 65.5t-91 97.5t-50.5 115.5t-14.5 125q0 155 61 281h689q-1 63 -19 98t-63.5 52.5t-128.5 17.5q-116 0 -206.5 -28t-178.5 -83l-19 324q96 50 227 78t269 28
q549 0 549 -489zM557 268q150 0 207 187h-322q-12 -22 -12 -66q0 -56 31 -88.5t96 -32.5z" />
    <glyph glyph-name="uni04E2" unicode="&#x4e2;" horiz-adv-x="1630" 
d="M623 1683l53 263h844l-54 -263h-843zM938 0l162 805l-649 -805h-435l303 1520h447l-162 -805l649 805h435l-304 -1520h-446z" />
    <glyph glyph-name="uni04E3" unicode="&#x4e3;" horiz-adv-x="1368" 
d="M434 1298l51 263h775l-52 -263h-774zM729 0l111 549l-439 -549h-413l229 1147h422l-111 -549l439 549h413l-229 -1147h-422z" />
    <glyph glyph-name="uni04E6" unicode="&#x4e6;" horiz-adv-x="1630" 
d="M1124 1651l66 327h356l-65 -327h-357zM563 1651l66 327h356l-65 -327h-357zM731 -29q-296 0 -463.5 165t-167.5 460q0 149 35.5 288t108.5 259.5t175.5 211t245 142t308.5 51.5q296 0 463.5 -164.5t167.5 -459.5q0 -149 -35.5 -288t-108.5 -260t-175.5 -211t-245 -142
t-308.5 -52zM780 365q80 0 146 48.5t107.5 127t64 172t22.5 188.5q0 254 -196 254q-79 0 -145.5 -48.5t-108 -127t-64 -172.5t-22.5 -189q0 -253 196 -253z" />
    <glyph glyph-name="uni04E7" unicode="&#x4e7;" horiz-adv-x="1294" 
d="M864 1266l66 327h352l-65 -327h-353zM340 1266l66 327h352l-66 -327h-352zM575 -25q-83 0 -157.5 15.5t-144 52t-120 91t-80.5 138.5t-30 189q0 107 26 209t81.5 193t133.5 159.5t190.5 108.5t244.5 40q83 0 157.5 -15.5t144 -51.5t120 -90.5t80.5 -138.5t30 -189
q0 -107 -26 -209t-81.5 -193.5t-133.5 -160t-190.5 -108.5t-244.5 -40zM606 315q63 0 112 56.5t72 137t23 165.5q0 157 -125 157q-63 0 -112 -56t-72 -136.5t-23 -165.5q0 -158 125 -158z" />
    <glyph glyph-name="uni04E8" unicode="&#x4e8;" horiz-adv-x="1630" 
d="M731 -29q-296 0 -463.5 165t-167.5 460q0 149 35.5 288t108.5 259.5t175.5 211t245 142t308.5 51.5q296 0 463.5 -164.5t167.5 -459.5q0 -149 -35.5 -288t-108.5 -260t-175.5 -211t-245 -142t-308.5 -52zM928 1159q-108 0 -187.5 -65.5t-126.5 -175.5h535
q-3 116 -58.5 178.5t-162.5 62.5zM555 618q0 -258 221 -258q111 0 193 70.5t129 187.5h-543z" />
    <glyph glyph-name="uni04E9" unicode="&#x4e9;" horiz-adv-x="1294" 
d="M575 -25q-83 0 -157.5 15.5t-144 52t-120 91t-80.5 138.5t-30 189q0 107 26 209t81.5 193t133.5 159.5t190.5 108.5t244.5 40q83 0 157.5 -15.5t144 -51.5t120 -90.5t80.5 -138.5t30 -189q0 -107 -26 -209t-81.5 -193.5t-133.5 -160t-190.5 -108.5t-244.5 -40zM698 848
q-136 0 -200 -158h336q-2 73 -36 115.5t-100 42.5zM461 465q0 -77 34 -121.5t101 -44.5q142 0 203 166h-338z" />
    <glyph glyph-name="uni04EE" unicode="&#x4ee;" horiz-adv-x="1499" 
d="M553 1683l53 263h844l-53 -263h-844zM1051 451q-90 -141 -174.5 -234.5t-175.5 -147.5t-183.5 -76t-210.5 -22q-176 0 -291 45l99 381q63 -32 153 -32q72 0 117.5 18.5t83.5 62.5l-285 1074h504l117 -705l371 705h548z" />
    <glyph glyph-name="uni04EF" unicode="&#x4ef;" horiz-adv-x="1314" 
d="M418 1298l51 263h774l-51 -263h-774zM799 10q-79 -145 -156.5 -240.5t-160 -147.5t-163 -72.5t-184.5 -20.5q-162 0 -266 53l94 336q84 -45 184 -45q55 0 97 20.5t80 73.5l-209 1180h475l41 -748l307 748h483z" />
    <glyph glyph-name="uni04F2" unicode="&#x4f2;" horiz-adv-x="1499" 
d="M803 1614l-230 94l310 356l323 -131zM1290 1614l-229 94l309 356l324 -131zM1051 451q-90 -141 -174.5 -234.5t-175.5 -147.5t-183.5 -76t-210.5 -22q-176 0 -291 45l99 381q63 -32 153 -32q72 0 117.5 18.5t83.5 62.5l-285 1074h504l117 -705l371 705h548z" />
    <glyph glyph-name="uni04F3" unicode="&#x4f3;" horiz-adv-x="1314" 
d="M678 1257l-275 54l318 422l346 -66zM1137 1257l-273 54l318 422l344 -66zM799 10q-79 -145 -156.5 -240.5t-160 -147.5t-163 -72.5t-184.5 -20.5q-162 0 -266 53l94 336q84 -45 184 -45q55 0 97 20.5t80 73.5l-209 1180h475l41 -748l307 748h483z" />
    <glyph glyph-name="uni0E3F" unicode="&#xe3f;" horiz-adv-x="1396" 
d="M410 -201l41 201h-504l303 1520h504l39 196h217l-39 -196h8q243 0 351 -90.5t108 -255.5q0 -53 -10 -100t-34.5 -94.5t-62.5 -85.5t-98.5 -69t-138.5 -49q258 -66 258 -315q0 -69 -18.5 -132t-65 -124.5t-117.5 -106t-183.5 -71.5t-254.5 -27h-45l-41 -201h-217z
M584 1176l-52 -258h101l51 258h-100zM999 1065q0 50 -23 76.5t-75 32.5l-51 -256q84 3 116.5 46t32.5 101zM471 618l-53 -274h100l55 274h-102zM913 504q0 114 -122 114l-56 -274q92 0 135 46t43 114z" />
    <glyph glyph-name="Wgrave" unicode="&#x1e80;" horiz-adv-x="2265" 
d="M1403 1614l-447 315l377 135l312 -354zM1210 0l-14 944l-371 -944h-508l-120 1520h487l4 -969l381 969h463l16 -965l369 965h528l-727 -1520h-508z" />
    <glyph glyph-name="wgrave" unicode="&#x1e81;" horiz-adv-x="1929" 
d="M1018 1257l-295 445l371 31l178 -445zM983 0l-6 678l-268 -678h-480l-106 1147h455l2 -707l264 707h430l8 -707l258 707h488l-566 -1147h-479z" />
    <glyph glyph-name="Wacute" unicode="&#x1e82;" horiz-adv-x="2265" 
d="M1284 1614l-237 110l421 340l361 -172zM1210 0l-14 944l-371 -944h-508l-120 1520h487l4 -969l381 969h463l16 -965l369 965h528l-727 -1520h-508z" />
    <glyph glyph-name="wacute" unicode="&#x1e83;" horiz-adv-x="1929" 
d="M1167 1257l-270 46l307 430l389 -66zM983 0l-6 678l-268 -678h-480l-106 1147h455l2 -707l264 707h430l8 -707l258 707h488l-566 -1147h-479z" />
    <glyph glyph-name="Wdieresis" unicode="&#x1e84;" horiz-adv-x="2265" 
d="M1442 1651l65 327h357l-66 -327h-356zM881 1651l65 327h357l-66 -327h-356zM1210 0l-14 944l-371 -944h-508l-120 1520h487l4 -969l381 969h463l16 -965l369 965h528l-727 -1520h-508z" />
    <glyph glyph-name="wdieresis" unicode="&#x1e85;" horiz-adv-x="1929" 
d="M1176 1266l65 327h352l-65 -327h-352zM651 1266l66 327h352l-65 -327h-353zM983 0l-6 678l-268 -678h-480l-106 1147h455l2 -707l264 707h430l8 -707l258 707h488l-566 -1147h-479z" />
    <glyph glyph-name="uni1E9E" unicode="&#x1e9e;" horiz-adv-x="1703" 
d="M4 0l180 901q69 348 268.5 497.5t569.5 149.5q223 0 406 -46t309 -122l-316 -475q105 -69 159 -157t54 -218q0 -86 -23.5 -166.5t-74.5 -152.5t-124 -125t-179 -84t-232 -31q-221 0 -399 99l127 385q48 -44 118 -73.5t138 -29.5q85 0 127.5 44.5t42.5 111.5
q0 38 -15.5 71t-35.5 55.5t-61.5 48t-70.5 39.5t-85 40l256 389q-78 16 -160 16q-155 0 -234.5 -69.5t-113.5 -237.5l-172 -860h-459z" />
    <glyph glyph-name="uni1EA0" unicode="&#x1ea0;" horiz-adv-x="1605" 
d="M1004 0l-17 250h-469l-112 -250h-525l803 1520h614l197 -1520h-491zM682 614h279l-37 541zM373 -455l65 328h451l-66 -328h-450z" />
    <glyph glyph-name="uni1EA1" unicode="&#x1ea1;" horiz-adv-x="1255" 
d="M637 0l20 137q-136 -162 -344 -162q-142 0 -227.5 79.5t-85.5 232.5q0 204 164 318t473 114h117q4 28 4 41q0 51 -35.5 71.5t-122.5 20.5q-198 0 -381 -111l-16 324q97 50 233.5 78t282.5 28q479 0 479 -337q0 -56 -12 -117l-144 -717h-405zM508 279q117 0 180 116
l23 111h-54q-117 0 -180 -39t-63 -105q0 -83 94 -83zM203 -455l65 328h451l-66 -328h-450z" />
    <glyph glyph-name="uni1EA2" unicode="&#x1ea2;" horiz-adv-x="1605" 
d="M1030 1606l-145 143q89 23 148 56t59 65q0 31 -70 31q-116 0 -234 -74v250q156 73 326 73q143 0 220 -54t77 -159q0 -53 -21 -98.5t-54 -78.5t-84.5 -62.5t-103 -50t-118.5 -41.5zM1004 0l-17 250h-469l-112 -250h-525l803 1520h614l197 -1520h-491zM682 614h279l-37 541
z" />
    <glyph glyph-name="uni1EA3" unicode="&#x1ea3;" horiz-adv-x="1255" 
d="M784 1225l-145 143q89 23 148 56t59 65q0 31 -70 31q-115 0 -233 -74v250q156 73 325 73q143 0 220 -54t77 -159q0 -53 -21 -98.5t-54 -78.5t-84.5 -62.5t-103 -50t-118.5 -41.5zM637 0l20 137q-136 -162 -344 -162q-142 0 -227.5 79.5t-85.5 232.5q0 204 164 318
t473 114h117q4 28 4 41q0 51 -35.5 71.5t-122.5 20.5q-198 0 -381 -111l-16 324q97 50 233.5 78t282.5 28q479 0 479 -337q0 -56 -12 -117l-144 -717h-405zM508 279q117 0 180 116l23 111h-54q-117 0 -180 -39t-63 -105q0 -83 94 -83z" />
    <glyph glyph-name="uni1EA4" unicode="&#x1ea4;" horiz-adv-x="1605" 
d="M1540 1962l-213 100l397 342l342 -163zM1499 1651l-360 -29l-88 193l-170 -193l-385 29l409 360h352zM1004 0l-17 250h-469l-112 -250h-525l803 1520h614l197 -1520h-491zM682 614h279l-37 541z" />
    <glyph glyph-name="uni1EA5" unicode="&#x1ea5;" horiz-adv-x="1255" 
d="M1343 1569l-249 41l286 405l361 -59zM1223 1292l-338 -26l-74 202l-160 -202l-358 28l371 365h352zM637 0l20 137q-136 -162 -344 -162q-142 0 -227.5 79.5t-85.5 232.5q0 204 164 318t473 114h117q4 28 4 41q0 51 -35.5 71.5t-122.5 20.5q-198 0 -381 -111l-16 324
q97 50 233.5 78t282.5 28q479 0 479 -337q0 -56 -12 -117l-144 -717h-405zM508 279q117 0 180 116l23 111h-54q-117 0 -180 -39t-63 -105q0 -83 94 -83z" />
    <glyph glyph-name="uni1EA6" unicode="&#x1ea6;" horiz-adv-x="1605" 
d="M1489 1962l-426 311l352 131l291 -356zM1499 1651l-360 -29l-88 193l-170 -193l-385 29l409 360h352zM1004 0l-17 250h-469l-112 -250h-525l803 1520h614l197 -1520h-491zM682 614h279l-37 541z" />
    <glyph glyph-name="uni1EA7" unicode="&#x1ea7;" horiz-adv-x="1255" 
d="M1198 1569l-276 418l342 28l168 -418zM1223 1292l-338 -26l-74 202l-160 -202l-358 28l371 365h352zM637 0l20 137q-136 -162 -344 -162q-142 0 -227.5 79.5t-85.5 232.5q0 204 164 318t473 114h117q4 28 4 41q0 51 -35.5 71.5t-122.5 20.5q-198 0 -381 -111l-16 324
q97 50 233.5 78t282.5 28q479 0 479 -337q0 -56 -12 -117l-144 -717h-405zM508 279q117 0 180 116l23 111h-54q-117 0 -180 -39t-63 -105q0 -83 94 -83z" />
    <glyph glyph-name="uni1EA8" unicode="&#x1ea8;" horiz-adv-x="1605" 
d="M1458 1933l-135 133q82 21 136 51t54 60q0 29 -63 29q-108 0 -217 -68v232q147 67 303 67q132 0 203 -49.5t71 -146.5q0 -61 -27.5 -110.5t-80.5 -86t-109.5 -61.5t-134.5 -50zM1499 1651l-360 -29l-88 193l-170 -193l-385 29l409 360h352zM1004 0l-17 250h-469
l-112 -250h-525l803 1520h614l197 -1520h-491zM682 614h279l-37 541z" />
    <glyph glyph-name="uni1EA9" unicode="&#x1ea9;" horiz-adv-x="1255" 
d="M1231 1540l-135 133q82 21 136 51t54 60q0 28 -63 28q-110 0 -217 -67v231q149 68 303 68q132 0 203 -50t71 -147q0 -61 -27.5 -110.5t-80.5 -85.5t-109 -61t-135 -50zM1223 1292l-338 -26l-74 202l-160 -202l-358 28l371 365h352zM637 0l20 137q-136 -162 -344 -162
q-142 0 -227.5 79.5t-85.5 232.5q0 204 164 318t473 114h117q4 28 4 41q0 51 -35.5 71.5t-122.5 20.5q-198 0 -381 -111l-16 324q97 50 233.5 78t282.5 28q479 0 479 -337q0 -56 -12 -117l-144 -717h-405zM508 279q117 0 180 116l23 111h-54q-117 0 -180 -39t-63 -105
q0 -83 94 -83z" />
    <glyph glyph-name="uni1EAA" unicode="&#x1eaa;" horiz-adv-x="1605" 
d="M932 2058l-285 19q64 327 322 327q92 0 178 -51q29 -17 41 -24t29 -13t32 -6q27 0 43.5 23t26.5 82l285 -19q-64 -328 -322 -328q-90 0 -178 52q-28 17 -41 24t-30 13t-32 6q-27 0 -43 -22.5t-26 -82.5zM1499 1651l-360 -29l-88 193l-170 -193l-385 29l409 360h352z
M1004 0l-17 250h-469l-112 -250h-525l803 1520h614l197 -1520h-491zM682 614h279l-37 541z" />
    <glyph glyph-name="uni1EAB" unicode="&#x1eab;" horiz-adv-x="1255" 
d="M692 1706l-274 18q64 328 317 328q53 0 91 -12.5t81 -38.5q28 -17 41 -24t30 -13t32 -6q27 0 43 22.5t26 81.5l275 -18q-64 -328 -318 -328q-53 0 -91 12.5t-81 38.5q-29 17 -41 24t-29 13t-32 6q-28 0 -44 -22.5t-26 -81.5zM1223 1292l-338 -26l-74 202l-160 -202
l-358 28l371 365h352zM637 0l20 137q-136 -162 -344 -162q-142 0 -227.5 79.5t-85.5 232.5q0 204 164 318t473 114h117q4 28 4 41q0 51 -35.5 71.5t-122.5 20.5q-198 0 -381 -111l-16 324q97 50 233.5 78t282.5 28q479 0 479 -337q0 -56 -12 -117l-144 -717h-405zM508 279
q117 0 180 116l23 111h-54q-117 0 -180 -39t-63 -105q0 -83 94 -83z" />
    <glyph glyph-name="uni1EAC" unicode="&#x1eac;" horiz-adv-x="1605" 
d="M1509 1651l-366 -29l-90 197l-176 -197l-392 29l422 372h353zM1004 0l-17 250h-469l-112 -250h-525l803 1520h614l197 -1520h-491zM682 614h279l-37 541zM373 -455l65 328h451l-66 -328h-450z" />
    <glyph glyph-name="uni1EAD" unicode="&#x1ead;" horiz-adv-x="1255" 
d="M1243 1292l-342 -26l-82 250l-184 -250l-363 28l404 426h352zM637 0l20 137q-136 -162 -344 -162q-142 0 -227.5 79.5t-85.5 232.5q0 204 164 318t473 114h117q4 28 4 41q0 51 -35.5 71.5t-122.5 20.5q-198 0 -381 -111l-16 324q97 50 233.5 78t282.5 28q479 0 479 -337
q0 -56 -12 -117l-144 -717h-405zM508 279q117 0 180 116l23 111h-54q-117 0 -180 -39t-63 -105q0 -83 94 -83zM203 -455l65 328h451l-66 -328h-450z" />
    <glyph glyph-name="uni1EAE" unicode="&#x1eae;" horiz-adv-x="1605" 
d="M1042 2003l-213 100l398 342l342 -164zM637 1970l307 12q-19 -127 98 -127q111 0 146 127l321 -12q-51 -180 -181.5 -268t-315.5 -88q-179 0 -279 79.5t-100 225.5q0 19 4 51zM1004 0l-17 250h-469l-112 -250h-525l803 1520h614l197 -1520h-491zM682 614h279l-37 541z
" />
    <glyph glyph-name="uni1EAF" unicode="&#x1eaf;" horiz-adv-x="1255" 
d="M915 1651l-249 41l286 405l361 -59zM401 1618l306 12q-9 -127 96 -127q101 0 141 127l320 -12q-60 -177 -189.5 -266.5t-306.5 -89.5q-171 0 -270 84.5t-99 234.5q0 17 2 37zM637 0l20 137q-136 -162 -344 -162q-142 0 -227.5 79.5t-85.5 232.5q0 204 164 318t473 114
h117q4 28 4 41q0 51 -35.5 71.5t-122.5 20.5q-198 0 -381 -111l-16 324q97 50 233.5 78t282.5 28q479 0 479 -337q0 -56 -12 -117l-144 -717h-405zM508 279q117 0 180 116l23 111h-54q-117 0 -180 -39t-63 -105q0 -83 94 -83z" />
    <glyph glyph-name="uni1EB0" unicode="&#x1eb0;" horiz-adv-x="1605" 
d="M1090 2003l-426 311l352 131l291 -356zM637 1970l307 12q-10 -62 15 -94.5t83 -32.5q111 0 146 127l321 -12q-51 -180 -181.5 -268t-315.5 -88q-179 0 -279 79.5t-100 225.5q0 19 4 51zM1004 0l-17 250h-469l-112 -250h-525l803 1520h614l197 -1520h-491zM682 614h279
l-37 541z" />
    <glyph glyph-name="uni1EB1" unicode="&#x1eb1;" horiz-adv-x="1255" 
d="M743 1651l-276 417l342 29l168 -418zM401 1618l306 12q-9 -127 96 -127q101 0 141 127l320 -12q-60 -177 -189.5 -266.5t-306.5 -89.5q-172 0 -270.5 83.5t-98.5 235.5q0 17 2 37zM637 0l20 137q-136 -162 -344 -162q-142 0 -227.5 79.5t-85.5 232.5q0 204 164 318
t473 114h117q4 28 4 41q0 51 -35.5 71.5t-122.5 20.5q-198 0 -381 -111l-16 324q97 50 233.5 78t282.5 28q479 0 479 -337q0 -56 -12 -117l-144 -717h-405zM508 279q117 0 180 116l23 111h-54q-117 0 -180 -39t-63 -105q0 -83 94 -83z" />
    <glyph glyph-name="uni1EB2" unicode="&#x1eb2;" horiz-adv-x="1605" 
d="M1083 1982l-135 134q83 22 137 51.5t54 58.5t-64 29q-108 0 -217 -68v232q147 67 303 67q132 0 203.5 -49.5t71.5 -146.5q0 -61 -27.5 -110.5t-80.5 -86t-110 -61.5t-135 -50zM637 1970l307 12q-19 -127 98 -127q111 0 146 127l321 -12q-51 -180 -181.5 -268t-315.5 -88
q-179 0 -279 79.5t-100 225.5q0 19 4 51zM1004 0l-17 250h-469l-112 -250h-525l803 1520h614l197 -1520h-491zM682 614h279l-37 541z" />
    <glyph glyph-name="uni1EB3" unicode="&#x1eb3;" horiz-adv-x="1255" 
d="M844 1630l-135 133q82 21 136 51t54 60q0 29 -63 29q-109 0 -218 -68v231q149 68 304 68q132 0 203 -50t71 -147q0 -61 -27.5 -110.5t-80.5 -85.5t-109 -61t-135 -50zM401 1618l306 12q-9 -127 96 -127q101 0 141 127l320 -12q-60 -177 -189.5 -266.5t-306.5 -89.5
q-172 0 -270.5 83.5t-98.5 237.5q0 15 2 35zM637 0l20 137q-136 -162 -344 -162q-142 0 -227.5 79.5t-85.5 232.5q0 204 164 318t473 114h117q4 28 4 41q0 51 -35.5 71.5t-122.5 20.5q-198 0 -381 -111l-16 324q97 50 233.5 78t282.5 28q479 0 479 -337q0 -56 -12 -117
l-144 -717h-405zM508 279q117 0 180 116l23 111h-54q-117 0 -180 -39t-63 -105q0 -83 94 -83z" />
    <glyph glyph-name="uni1EB4" unicode="&#x1eb4;" horiz-adv-x="1605" 
d="M938 2058l-285 19q64 327 322 327q92 0 178 -51q29 -17 41 -24t29 -13t32 -6q27 0 43.5 23t26.5 82l285 -19q-64 -328 -322 -328q-90 0 -178 52q-29 17 -41 24t-29 13t-32 6q-27 0 -43.5 -23t-26.5 -82zM637 1970l307 12q-18 -127 98 -127q111 0 146 127l321 -12
q-51 -180 -181.5 -268t-315.5 -88q-177 0 -278 79.5t-101 225.5q0 19 4 51zM1004 0l-17 250h-469l-112 -250h-525l803 1520h614l197 -1520h-491zM682 614h279l-37 541z" />
    <glyph glyph-name="uni1EB5" unicode="&#x1eb5;" horiz-adv-x="1255" 
d="M692 1706l-274 18q64 328 317 328q53 0 91 -12.5t81 -38.5q28 -17 41 -24t30 -13t32 -6q27 0 43 22.5t26 81.5l275 -18q-64 -328 -318 -328q-53 0 -91 12.5t-81 38.5q-29 17 -41 24t-29 13t-32 6q-28 0 -44 -22.5t-26 -81.5zM401 1618l306 12q-9 -127 96 -127
q101 0 141 127l320 -12q-60 -177 -189.5 -266.5t-306.5 -89.5q-172 0 -270.5 83.5t-98.5 237.5q0 19 2 35zM637 0l20 137q-136 -162 -344 -162q-142 0 -227.5 79.5t-85.5 232.5q0 204 164 318t473 114h117q4 28 4 41q0 51 -35.5 71.5t-122.5 20.5q-198 0 -381 -111l-16 324
q97 50 233.5 78t282.5 28q479 0 479 -337q0 -56 -12 -117l-144 -717h-405zM508 279q117 0 180 116l23 111h-54q-117 0 -180 -39t-63 -105q0 -83 94 -83z" />
    <glyph glyph-name="uni1EB6" unicode="&#x1eb6;" horiz-adv-x="1605" 
d="M641 1995l307 12q-6 -30 -6 -55q0 -94 98 -94q125 0 152 149l321 -12q-46 -192 -178 -286.5t-323 -94.5q-178 0 -277.5 79t-99.5 224q0 37 6 78zM1004 0l-17 250h-469l-112 -250h-525l803 1520h614l197 -1520h-491zM682 614h279l-37 541zM373 -455l65 328h451l-66 -328
h-450z" />
    <glyph glyph-name="uni1EB7" unicode="&#x1eb7;" horiz-adv-x="1255" 
d="M410 1679l307 13q-10 -48 -10 -78q0 -105 96 -105q62 0 99.5 44.5t58.5 138.5l321 -13q-51 -208 -186 -312.5t-326 -104.5q-173 0 -271 84t-98 241q0 43 9 92zM637 0l20 137q-136 -162 -344 -162q-142 0 -227.5 79.5t-85.5 232.5q0 204 164 318t473 114h117q4 28 4 41
q0 51 -35.5 71.5t-122.5 20.5q-198 0 -381 -111l-16 324q97 50 233.5 78t282.5 28q479 0 479 -337q0 -56 -12 -117l-144 -717h-405zM508 279q117 0 180 116l23 111h-54q-117 0 -180 -39t-63 -105q0 -83 94 -83zM203 -455l65 328h451l-66 -328h-450z" />
    <glyph glyph-name="uni1EB8" unicode="&#x1eb8;" horiz-adv-x="1343" 
d="M1221 377l-76 -377h-1129l303 1520h1113l-74 -373h-656l-38 -197h571l-72 -356h-571l-43 -217h672zM256 -455l66 328h450l-65 -328h-451z" />
    <glyph glyph-name="uni1EB9" unicode="&#x1eb9;" horiz-adv-x="1257" 
d="M1114 82q-210 -107 -491 -107q-295 0 -437.5 119.5t-142.5 358.5q0 107 26.5 209t84 195t139.5 162.5t201 110.5t260 41q110 0 194 -25.5t135 -66t83.5 -99t44.5 -117t12 -126.5q0 -151 -56 -274h-690q3 -86 52.5 -127t191.5 -41q212 0 377 106zM717 885
q-148 0 -209 -193h307q14 25 14 74q0 119 -112 119zM219 -455l66 328h450l-65 -328h-451z" />
    <glyph glyph-name="uni1EBA" unicode="&#x1eba;" horiz-adv-x="1343" 
d="M901 1606l-145 143q89 23 148 56t59 65q0 31 -70 31q-116 0 -234 -74v250q156 73 326 73q143 0 220 -54t77 -159q0 -53 -21 -98.5t-54 -78.5t-84.5 -62.5t-103 -50t-118.5 -41.5zM1221 377l-76 -377h-1129l303 1520h1113l-74 -373h-656l-38 -197h571l-72 -356h-571
l-43 -217h672z" />
    <glyph glyph-name="uni1EBB" unicode="&#x1ebb;" horiz-adv-x="1257" 
d="M801 1225l-146 143q89 23 148 56t59 65q0 31 -69 31q-116 0 -234 -74v250q156 73 326 73q143 0 220 -54t77 -159q0 -53 -21 -98.5t-54 -78.5t-84.5 -62.5t-103 -50t-118.5 -41.5zM1114 82q-210 -107 -491 -107q-295 0 -437.5 119.5t-142.5 358.5q0 107 26.5 209t84 195
t139.5 162.5t201 110.5t260 41q110 0 194 -25.5t135 -66t83.5 -99t44.5 -117t12 -126.5q0 -151 -56 -274h-690q3 -86 52.5 -127t191.5 -41q212 0 377 106zM717 885q-148 0 -209 -193h307q14 25 14 74q0 119 -112 119z" />
    <glyph glyph-name="uni1EBC" unicode="&#x1ebc;" horiz-adv-x="1343" 
d="M672 1606l-291 20q63 385 358 385q108 0 209 -59q87 -51 133 -51q39 0 61.5 28t31.5 94l290 -20q-63 -385 -358 -385q-108 0 -209 59q-89 52 -133 52q-39 0 -61 -28.5t-31 -94.5zM1221 377l-76 -377h-1129l303 1520h1113l-74 -373h-656l-38 -197h571l-72 -356h-571
l-43 -217h672z" />
    <glyph glyph-name="uni1EBD" unicode="&#x1ebd;" horiz-adv-x="1257" 
d="M584 1253l-291 21q64 385 350 385q98 0 201 -60q86 -51 125 -51q34 0 54 27t30 96l290 -20q-64 -385 -350 -385q-99 0 -200 59q-86 51 -125 51q-34 0 -54 -27t-30 -96zM1114 82q-210 -107 -491 -107q-295 0 -437.5 119.5t-142.5 358.5q0 107 26.5 209t84 195t139.5 162.5
t201 110.5t260 41q110 0 194 -25.5t135 -66t83.5 -99t44.5 -117t12 -126.5q0 -151 -56 -274h-690q3 -86 52.5 -127t191.5 -41q212 0 377 106zM717 885q-148 0 -209 -193h307q14 25 14 74q0 119 -112 119z" />
    <glyph glyph-name="uni1EBE" unicode="&#x1ebe;" horiz-adv-x="1343" 
d="M1423 1962l-213 100l398 342l342 -163zM1382 1651l-360 -29l-88 193l-170 -193l-385 29l409 360h353zM1221 377l-76 -377h-1129l303 1520h1113l-74 -373h-656l-38 -197h571l-72 -356h-571l-43 -217h672z" />
    <glyph glyph-name="uni1EBF" unicode="&#x1ebf;" horiz-adv-x="1257" 
d="M1360 1569l-250 41l287 405l360 -59zM1239 1292l-338 -26l-74 202l-159 -202l-359 28l371 365h352zM1114 82q-210 -107 -491 -107q-295 0 -437.5 119.5t-142.5 358.5q0 107 26.5 209t84 195t139.5 162.5t201 110.5t260 41q110 0 194 -25.5t135 -66t83.5 -99t44.5 -117
t12 -126.5q0 -151 -56 -274h-690q3 -86 52.5 -127t191.5 -41q212 0 377 106zM717 885q-148 0 -209 -193h307q14 25 14 74q0 119 -112 119z" />
    <glyph glyph-name="uni1EC0" unicode="&#x1ec0;" horiz-adv-x="1343" 
d="M1372 1962l-426 311l352 131l291 -356zM1382 1651l-360 -29l-88 193l-170 -193l-385 29l409 360h353zM1221 377l-76 -377h-1129l303 1520h1113l-74 -373h-656l-38 -197h571l-72 -356h-571l-43 -217h672z" />
    <glyph glyph-name="uni1EC1" unicode="&#x1ec1;" horiz-adv-x="1257" 
d="M1214 1569l-276 418l342 28l168 -418zM1239 1292l-338 -26l-74 202l-159 -202l-359 28l371 365h352zM1114 82q-210 -107 -491 -107q-295 0 -437.5 119.5t-142.5 358.5q0 107 26.5 209t84 195t139.5 162.5t201 110.5t260 41q110 0 194 -25.5t135 -66t83.5 -99t44.5 -117
t12 -126.5q0 -151 -56 -274h-690q3 -86 52.5 -127t191.5 -41q212 0 377 106zM717 885q-148 0 -209 -193h307q14 25 14 74q0 119 -112 119z" />
    <glyph glyph-name="uni1EC2" unicode="&#x1ec2;" horiz-adv-x="1343" 
d="M1341 1933l-135 133q82 21 136.5 51.5t54.5 59.5t-64 29q-108 0 -217 -68v232q147 67 303 67q132 0 203.5 -49.5t71.5 -146.5q0 -61 -27.5 -110.5t-80.5 -86t-110 -61.5t-135 -50zM1382 1651l-360 -29l-88 193l-170 -193l-385 29l409 360h353zM1221 377l-76 -377h-1129
l303 1520h1113l-74 -373h-656l-38 -197h571l-72 -356h-571l-43 -217h672z" />
    <glyph glyph-name="uni1EC3" unicode="&#x1ec3;" horiz-adv-x="1257" 
d="M1247 1540l-135 133q82 21 136.5 51.5t54.5 59.5q0 28 -64 28q-110 0 -217 -67v231q149 68 303 68q132 0 203 -50t71 -147q0 -61 -27.5 -110.5t-80.5 -85.5t-109 -61t-135 -50zM1239 1292l-338 -26l-74 202l-159 -202l-359 28l371 365h352zM1114 82q-210 -107 -491 -107
q-295 0 -437.5 119.5t-142.5 358.5q0 107 26.5 209t84 195t139.5 162.5t201 110.5t260 41q110 0 194 -25.5t135 -66t83.5 -99t44.5 -117t12 -126.5q0 -151 -56 -274h-690q3 -86 52.5 -127t191.5 -41q212 0 377 106zM717 885q-148 0 -209 -193h307q14 25 14 74
q0 119 -112 119z" />
    <glyph glyph-name="uni1EC4" unicode="&#x1ec4;" horiz-adv-x="1343" 
d="M815 2058l-285 19q64 327 322 327q92 0 178 -51q28 -17 41 -24t30 -13t32 -6q27 0 43 22.5t26 82.5l285 -19q-64 -328 -322 -328q-90 0 -178 52q-29 17 -41 24t-29 13t-32 6q-27 0 -43.5 -23t-26.5 -82zM1382 1651l-360 -29l-88 193l-170 -193l-385 29l409 360h353z
M1221 377l-76 -377h-1129l303 1520h1113l-74 -373h-656l-38 -197h571l-72 -356h-571l-43 -217h672z" />
    <glyph glyph-name="uni1EC5" unicode="&#x1ec5;" horiz-adv-x="1257" 
d="M709 1706l-275 18q64 328 318 328q53 0 91 -12.5t81 -38.5q29 -17 41 -24t29 -13t32 -6q28 0 44 22.5t26 81.5l274 -18q-64 -328 -317 -328q-53 0 -91 12.5t-81 38.5q-28 17 -41 24t-30 13t-32 6q-27 0 -43 -22.5t-26 -81.5zM1239 1292l-338 -26l-74 202l-159 -202
l-359 28l371 365h352zM1114 82q-210 -107 -491 -107q-295 0 -437.5 119.5t-142.5 358.5q0 107 26.5 209t84 195t139.5 162.5t201 110.5t260 41q110 0 194 -25.5t135 -66t83.5 -99t44.5 -117t12 -126.5q0 -151 -56 -274h-690q3 -86 52.5 -127t191.5 -41q212 0 377 106z
M717 885q-148 0 -209 -193h307q14 25 14 74q0 119 -112 119z" />
    <glyph glyph-name="uni1EC6" unicode="&#x1ec6;" horiz-adv-x="1343" 
d="M1393 1651l-367 -29l-90 197l-176 -197l-391 29l422 372h352zM1221 377l-76 -377h-1129l303 1520h1113l-74 -373h-656l-38 -197h571l-72 -356h-571l-43 -217h672zM256 -455l66 328h450l-65 -328h-451z" />
    <glyph glyph-name="uni1EC7" unicode="&#x1ec7;" horiz-adv-x="1257" 
d="M1260 1292l-342 -26l-82 250l-185 -250l-362 28l403 426h352zM1114 82q-210 -107 -491 -107q-295 0 -437.5 119.5t-142.5 358.5q0 107 26.5 209t84 195t139.5 162.5t201 110.5t260 41q110 0 194 -25.5t135 -66t83.5 -99t44.5 -117t12 -126.5q0 -151 -56 -274h-690
q3 -86 52.5 -127t191.5 -41q212 0 377 106zM717 885q-148 0 -209 -193h307q14 25 14 74q0 119 -112 119zM219 -455l66 328h450l-65 -328h-451z" />
    <glyph glyph-name="uni1EC8" unicode="&#x1ec8;" horiz-adv-x="720" 
d="M588 1606l-146 143q89 23 148 56t59 65q0 31 -69 31q-116 0 -234 -74v250q156 73 326 73q143 0 220 -54t77 -159q0 -53 -21 -98.5t-54 -78.5t-84.5 -62.5t-103 -50t-118.5 -41.5zM16 0l303 1520h459l-303 -1520h-459z" />
    <glyph glyph-name="uni1EC9" unicode="&#x1ec9;" horiz-adv-x="679" 
d="M492 1225l-146 143q89 23 148 56t59 65q0 31 -70 31q-115 0 -233 -74v250q156 73 325 73q143 0 220 -54t77 -159q0 -66 -29.5 -119t-86 -92t-118 -66.5t-146.5 -53.5zM8 0l230 1147h434l-230 -1147h-434z" />
    <glyph glyph-name="uni1ECA" unicode="&#x1eca;" horiz-adv-x="720" 
d="M16 0l303 1520h459l-303 -1520h-459zM-70 -455l66 328h450l-65 -328h-451z" />
    <glyph glyph-name="uni1ECB" unicode="&#x1ecb;" horiz-adv-x="647" 
d="M238 1266l65 327h451l-66 -327h-450zM-8 0l229 1147h434l-229 -1147h-434zM-106 -455l65 328h451l-66 -328h-450z" />
    <glyph glyph-name="uni1ECC" unicode="&#x1ecc;" horiz-adv-x="1630" 
d="M731 -29q-296 0 -463.5 165t-167.5 460q0 149 35.5 288t108.5 259.5t175.5 211t245 142t308.5 51.5q296 0 463.5 -164.5t167.5 -459.5q0 -149 -35.5 -288t-108.5 -260t-175.5 -211t-245 -142t-308.5 -52zM780 365q80 0 146 48.5t107.5 127t64 172t22.5 188.5
q0 254 -196 254q-79 0 -145.5 -48.5t-108 -127t-64 -172.5t-22.5 -189q0 -253 196 -253zM385 -455l66 328h450l-65 -328h-451z" />
    <glyph glyph-name="uni1ECD" unicode="&#x1ecd;" horiz-adv-x="1294" 
d="M575 -25q-83 0 -157.5 15.5t-144 52t-120 91t-80.5 138.5t-30 189q0 107 26 209t81.5 193t133.5 159.5t190.5 108.5t244.5 40q83 0 157.5 -15.5t144 -51.5t120 -90.5t80.5 -138.5t30 -189q0 -107 -26 -209t-81.5 -193.5t-133.5 -160t-190.5 -108.5t-244.5 -40zM606 315
q63 0 112 56.5t72 137t23 165.5q0 157 -125 157q-63 0 -112 -56t-72 -136.5t-23 -165.5q0 -158 125 -158zM217 -455l66 328h450l-65 -328h-451z" />
    <glyph glyph-name="uni1ECE" unicode="&#x1ece;" horiz-adv-x="1630" 
d="M1042 1606l-145 143q89 23 148 56t59 65q0 31 -70 31q-115 0 -233 -74v250q156 73 325 73q143 0 220 -54t77 -159q0 -53 -21 -98.5t-54 -78.5t-84.5 -62.5t-103 -50t-118.5 -41.5zM731 -29q-296 0 -463.5 165t-167.5 460q0 149 35.5 288t108.5 259.5t175.5 211t245 142
t308.5 51.5q296 0 463.5 -164.5t167.5 -459.5q0 -149 -35.5 -288t-108.5 -260t-175.5 -211t-245 -142t-308.5 -52zM780 365q80 0 146 48.5t107.5 127t64 172t22.5 188.5q0 254 -196 254q-79 0 -145.5 -48.5t-108 -127t-64 -172.5t-22.5 -189q0 -253 196 -253z" />
    <glyph glyph-name="uni1ECF" unicode="&#x1ecf;" horiz-adv-x="1294" 
d="M799 1225l-146 143q89 23 148 56t59 65q0 31 -69 31q-116 0 -234 -74v250q156 73 326 73q143 0 220 -54t77 -159q0 -53 -21 -98.5t-54 -78.5t-84.5 -62.5t-103 -50t-118.5 -41.5zM575 -25q-83 0 -157.5 15.5t-144 52t-120 91t-80.5 138.5t-30 189q0 107 26 209t81.5 193
t133.5 159.5t190.5 108.5t244.5 40q83 0 157.5 -15.5t144 -51.5t120 -90.5t80.5 -138.5t30 -189q0 -107 -26 -209t-81.5 -193.5t-133.5 -160t-190.5 -108.5t-244.5 -40zM606 315q63 0 112 56.5t72 137t23 165.5q0 157 -125 157q-63 0 -112 -56t-72 -136.5t-23 -165.5
q0 -158 125 -158z" />
    <glyph glyph-name="uni1ED0" unicode="&#x1ed0;" horiz-adv-x="1630" 
d="M1552 1962l-213 100l398 342l342 -163zM1511 1651l-360 -29l-88 193l-170 -193l-385 29l410 360h352zM731 -29q-296 0 -463.5 165t-167.5 460q0 149 35.5 288t108.5 259.5t175.5 211t245 142t308.5 51.5q296 0 463.5 -164.5t167.5 -459.5q0 -149 -35.5 -288t-108.5 -260
t-175.5 -211t-245 -142t-308.5 -52zM780 365q80 0 146 48.5t107.5 127t64 172t22.5 188.5q0 254 -196 254q-79 0 -145.5 -48.5t-108 -127t-64 -172.5t-22.5 -189q0 -253 196 -253z" />
    <glyph glyph-name="uni1ED1" unicode="&#x1ed1;" horiz-adv-x="1294" 
d="M1358 1569l-250 41l287 405l360 -59zM1237 1292l-338 -26l-74 202l-159 -202l-359 28l371 365h352zM575 -25q-83 0 -157.5 15.5t-144 52t-120 91t-80.5 138.5t-30 189q0 107 26 209t81.5 193t133.5 159.5t190.5 108.5t244.5 40q83 0 157.5 -15.5t144 -51.5t120 -90.5
t80.5 -138.5t30 -189q0 -107 -26 -209t-81.5 -193.5t-133.5 -160t-190.5 -108.5t-244.5 -40zM606 315q63 0 112 56.5t72 137t23 165.5q0 157 -125 157q-63 0 -112 -56t-72 -136.5t-23 -165.5q0 -158 125 -158z" />
    <glyph glyph-name="uni1ED2" unicode="&#x1ed2;" horiz-adv-x="1630" 
d="M1501 1962l-426 311l352 131l291 -356zM1511 1651l-360 -29l-88 193l-170 -193l-385 29l410 360h352zM731 -29q-296 0 -463.5 165t-167.5 460q0 149 35.5 288t108.5 259.5t175.5 211t245 142t308.5 51.5q296 0 463.5 -164.5t167.5 -459.5q0 -149 -35.5 -288t-108.5 -260
t-175.5 -211t-245 -142t-308.5 -52zM780 365q80 0 146 48.5t107.5 127t64 172t22.5 188.5q0 254 -196 254q-79 0 -145.5 -48.5t-108 -127t-64 -172.5t-22.5 -189q0 -253 196 -253z" />
    <glyph glyph-name="uni1ED3" unicode="&#x1ed3;" horiz-adv-x="1294" 
d="M1212 1569l-276 418l342 28l168 -418zM1237 1292l-338 -26l-74 202l-159 -202l-359 28l371 365h352zM575 -25q-83 0 -157.5 15.5t-144 52t-120 91t-80.5 138.5t-30 189q0 107 26 209t81.5 193t133.5 159.5t190.5 108.5t244.5 40q83 0 157.5 -15.5t144 -51.5t120 -90.5
t80.5 -138.5t30 -189q0 -107 -26 -209t-81.5 -193.5t-133.5 -160t-190.5 -108.5t-244.5 -40zM606 315q63 0 112 56.5t72 137t23 165.5q0 157 -125 157q-63 0 -112 -56t-72 -136.5t-23 -165.5q0 -158 125 -158z" />
    <glyph glyph-name="uni1ED4" unicode="&#x1ed4;" horiz-adv-x="1630" 
d="M1470 1933l-135 133q82 21 136.5 51.5t54.5 59.5t-64 29q-108 0 -217 -68v232q147 67 303 67q132 0 203.5 -49.5t71.5 -146.5q0 -61 -27.5 -110.5t-80.5 -86t-110 -61.5t-135 -50zM1511 1651l-360 -29l-88 193l-170 -193l-385 29l410 360h352zM731 -29q-296 0 -463.5 165
t-167.5 460q0 149 35.5 288t108.5 259.5t175.5 211t245 142t308.5 51.5q296 0 463.5 -164.5t167.5 -459.5q0 -149 -35.5 -288t-108.5 -260t-175.5 -211t-245 -142t-308.5 -52zM780 365q80 0 146 48.5t107.5 127t64 172t22.5 188.5q0 254 -196 254q-79 0 -145.5 -48.5
t-108 -127t-64 -172.5t-22.5 -189q0 -253 196 -253z" />
    <glyph glyph-name="uni1ED5" unicode="&#x1ed5;" horiz-adv-x="1294" 
d="M1245 1540l-135 133q82 21 136 51t54 60q0 28 -63 28q-110 0 -217 -67v231q149 68 303 68q132 0 203 -50t71 -147q0 -61 -27.5 -110.5t-80.5 -85.5t-109 -61t-135 -50zM1237 1292l-338 -26l-74 202l-159 -202l-359 28l371 365h352zM575 -25q-83 0 -157.5 15.5t-144 52
t-120 91t-80.5 138.5t-30 189q0 107 26 209t81.5 193t133.5 159.5t190.5 108.5t244.5 40q83 0 157.5 -15.5t144 -51.5t120 -90.5t80.5 -138.5t30 -189q0 -107 -26 -209t-81.5 -193.5t-133.5 -160t-190.5 -108.5t-244.5 -40zM606 315q63 0 112 56.5t72 137t23 165.5
q0 157 -125 157q-63 0 -112 -56t-72 -136.5t-23 -165.5q0 -158 125 -158z" />
    </font>
</defs>
</svg>
