<?xml version="1.0" standalone="no"?>
<!DOCTYPE svg PUBLIC "-//W3C//DTD SVG 1.1//EN" "http://www.w3.org/Graphics/SVG/1.1/DTD/svg11.dtd" >
<svg xmlns="http://www.w3.org/2000/svg" xmlns:xlink="http://www.w3.org/1999/xlink" version="1.1">
<metadata>
Created by FontForge 20170731 at Tue Jul 21 14:26:18 2020
 By Aleksey,,,
Copyright (c) 2018 by Morisawa In.. All rights reserved.
</metadata>
<defs>
<font id="ClarimoUDPE-DemiBoldItalic" horiz-adv-x="1290" >
  <font-face 
    font-family="Clarimo UD PE DemiBold"
    font-weight="600"
    font-style="italic"
    font-stretch="normal"
    units-per-em="2048"
    panose-1="2 11 7 0 0 0 0 0 0 0"
    ascent="1593"
    descent="-455"
    x-height="1110"
    cap-height="1520"
    bbox="-582 -614 2806 2425"
    underline-thickness="102"
    underline-position="-409"
    slope="-11"
    unicode-range="U+0020-FB04"
  />
<missing-glyph horiz-adv-x="1024" 
d="M0 0v1434h1024v-1434h-1024zM512 809l348 522h-696zM573 717l349 -522v1044zM164 102h696l-348 523zM102 1239v-1044l349 522z" />
    <glyph glyph-name=".notdef" horiz-adv-x="1024" 
d="M0 0v1434h1024v-1434h-1024zM512 809l348 522h-696zM573 717l349 -522v1044zM164 102h696l-348 523zM102 1239v-1044l349 522z" />
    <glyph glyph-name=".null" horiz-adv-x="0" 
 />
    <glyph glyph-name="nonmarkingreturn" horiz-adv-x="682" 
 />
    <glyph glyph-name="space" unicode=" " horiz-adv-x="483" 
 />
    <glyph glyph-name="space" unicode="&#xa0;" horiz-adv-x="483" 
 />
    <glyph glyph-name="exclam" unicode="!" horiz-adv-x="770" 
d="M250 442l139 1002l17 76h339l-14 -76l-262 -1002h-219zM111 0l59 289h319l-59 -289h-319z" />
    <glyph glyph-name="quotedbl" unicode="&#x22;" horiz-adv-x="1060" 
d="M700 942l121 647l2 4h299v-4l-225 -647h-197zM242 942l120 647l3 4h299v-4l-226 -647h-196z" />
    <glyph glyph-name="numbersign" unicode="#" horiz-adv-x="1462" 
d="M653 0l129 389h-262l-129 -389h-225l129 389h-254l43 215h283l104 311h-258l45 215h285l129 390h225l-129 -390h262l129 390h223l-129 -390h256l-45 -215h-282l-105 -311h260l-45 -215h-286l-129 -389h-224zM592 604h262l104 311h-262z" />
    <glyph glyph-name="dollar" unicode="$" 
d="M1167 475q0 -201 -139.5 -328.5t-402.5 -144.5l-41 -203h-168l41 205q-247 19 -441 154l78 245q184 -136 410 -159l84 418q-65 20 -109 38t-98 50.5t-86.5 70t-55 96.5t-22.5 132q0 196 142 325t401 144l39 198h168l-41 -200q206 -21 360 -123l-78 -246
q-149 109 -329 129l-82 -406q54 -17 94 -32.5t86 -39t77 -52.5t58.5 -67.5t41 -90t13.5 -113.5zM475 1075q0 -61 39.5 -94.5t124.5 -62.5l72 360q-120 -14 -178 -70.5t-58 -132.5zM909 451q0 62 -38 97t-126 64l-73 -368q121 16 179 73t58 134z" />
    <glyph glyph-name="percent" unicode="%" horiz-adv-x="2015" 
d="M469 616q-149 0 -229 86.5t-80 249.5q0 45 5.5 95t20.5 109t37 113t58 105t80.5 88.5t108.5 60.5t138 23q149 0 229.5 -86.5t80.5 -249.5q0 -66 -11.5 -138t-43.5 -155.5t-80 -148.5t-129.5 -108.5t-184.5 -43.5zM262 0l1331 1520h240l-1331 -1520h-240zM479 797
q140 0 193 266q20 97 20 170q0 133 -94 133q-139 0 -192 -266q-21 -102 -21 -170q0 -133 94 -133zM1487 -27q-149 0 -229 86.5t-80 249.5q0 45 5.5 95t20.5 109t37 113t58 105t80.5 88.5t108.5 60.5t138 23q149 0 229 -86.5t80 -249.5q0 -45 -5.5 -95t-20.5 -109t-37 -113
t-58 -105t-80.5 -88.5t-108.5 -60.5t-138 -23zM1497 154q140 0 193 266q20 98 20 170q0 133 -94 133q-140 0 -193 -266q-20 -97 -20 -170q0 -133 94 -133z" />
    <glyph glyph-name="ampersand" unicode="&#x26;" horiz-adv-x="1482" 
d="M1063 0l-111 147q-198 -176 -460 -176q-203 0 -321 96t-118 271q0 311 400 479q-65 93 -96 170t-31 164q0 178 123 287.5t335 109.5q189 0 296.5 -89t107.5 -242q0 -147 -98 -252t-281 -183l197 -264q75 100 172 330l208 -174q-104 -184 -243 -338l252 -336h-332z
M602 1149q0 -50 23 -100.5t77 -122.5q104 46 157.5 112.5t53.5 141.5q0 66 -37.5 101.5t-101.5 35.5q-76 0 -124 -46t-48 -122zM352 399q0 -89 54 -136.5t151 -47.5q146 0 262 113l-258 344q-105 -48 -157 -118.5t-52 -154.5z" />
    <glyph glyph-name="quotesingle" unicode="'" horiz-adv-x="602" 
d="M242 942l120 647l3 4h299v-4l-226 -647h-196z" />
    <glyph glyph-name="parenleft" unicode="(" horiz-adv-x="917" 
d="M522 -389q-56 52 -102.5 105t-97 131.5t-85 163.5t-57 199t-22.5 239q0 196 54 380t152 336.5t233.5 275.5t299.5 206l115 -177q-129 -73 -236 -177.5t-188 -234t-126.5 -288.5t-45.5 -330q0 -222 70.5 -397t181.5 -283z" />
    <glyph glyph-name="parenright" unicode=")" horiz-adv-x="917" 
d="M424 1642q56 -52 102 -104.5t97 -131.5t85.5 -163.5t57 -198.5t22.5 -239q0 -196 -54 -380t-152 -336.5t-233.5 -275.5t-299.5 -206l-115 176q129 73 236 177.5t188 234t126.5 288.5t45.5 330q0 222 -70 397t-181 283z" />
    <glyph glyph-name="asterisk" unicode="*" horiz-adv-x="1196" 
d="M1030 805l-229 -146l-113 326l-246 -326l-182 156l311 266l-344 70l123 233l299 -153l27 362h258l-119 -362l361 158l30 -246l-372 -66z" />
    <glyph glyph-name="plus" unicode="+" 
d="M1192 506h-432v-455h-230v455h-432v231h432v457h230v-457h432v-231z" />
    <glyph glyph-name="comma" unicode="," horiz-adv-x="626" 
d="M88 -332l-235 58q256 286 274 639h299q0 -396 -338 -697z" />
    <glyph glyph-name="hyphen" unicode="-" horiz-adv-x="917" 
d="M113 494l51 258h667l-53 -258h-665z" />
    <glyph glyph-name="hyphen" unicode="&#xad;" horiz-adv-x="917" 
d="M113 494l51 258h667l-53 -258h-665z" />
    <glyph glyph-name="period" unicode="." horiz-adv-x="626" 
d="M31 0l71 358h344l-71 -358h-344z" />
    <glyph glyph-name="slash" unicode="/" horiz-adv-x="958" 
d="M-246 -340l1110 1933h269l-1110 -1933h-269z" />
    <glyph glyph-name="zero" unicode="0" 
d="M549 -27q-217 0 -334 134t-117 385q0 82 9.5 172t33 194t59.5 200t93.5 186t130 156t173.5 106t220 40q217 0 334 -133.5t117 -384.5q0 -82 -9.5 -172t-33 -194.5t-59.5 -200.5t-93.5 -186t-130 -156t-173.5 -106t-220 -40zM573 223q124 0 215.5 128t143.5 382
q35 172 35 305q0 258 -174 258q-123 0 -215 -128.5t-144 -381.5q-35 -172 -35 -305q0 -258 174 -258z" />
    <glyph glyph-name="one" unicode="1" 
d="M1106 240l-47 -240h-926l47 240h324l182 915q-148 -105 -328 -188l-100 217q308 134 559 344h232l-258 -1288h315z" />
    <glyph glyph-name="two" unicode="2" 
d="M1106 258l-53 -258h-1043l47 240l529 399q108 83 168.5 134t111.5 109t70.5 110.5t19.5 115.5q0 89 -50.5 136.5t-141.5 47.5q-107 0 -214.5 -65t-184.5 -174l-91 235q108 126 253 193t313 67q199 0 310.5 -102.5t111.5 -286.5q0 -106 -29 -192t-95.5 -166.5t-151 -150.5
t-220.5 -163l-332 -229h672z" />
    <glyph glyph-name="three" unicode="3" 
d="M1157 473q0 -224 -181 -363t-480 -139q-146 0 -272 36t-201 97l106 271q142 -148 377 -148q159 0 252.5 68.5t93.5 181.5q0 92 -73 138.5t-247 46.5h-172l43 223h156q178 0 285.5 69t107.5 191q0 147 -194 147q-208 0 -377 -153l-88 235q233 174 530 174q212 0 323 -94
t111 -237q0 -169 -96.5 -280t-271.5 -155q133 -30 200.5 -105t67.5 -204z" />
    <glyph glyph-name="four" unicode="4" 
d="M1186 330h-205l-66 -330h-280l65 330h-692l53 262l857 938h303l-191 -957h203zM319 573h431l118 605z" />
    <glyph glyph-name="five" unicode="5" 
d="M1163 537q0 -268 -178 -417t-483 -149q-147 0 -272 36t-203 97l106 271q145 -148 379 -148q164 0 254 75t90 212q0 92 -77.5 139t-260.5 47q-158 0 -285 -30l170 850h893l-51 -258h-643l-67 -342q75 10 155 10q473 0 473 -393z" />
    <glyph glyph-name="six" unicode="6" 
d="M1219 586q0 -124 -46 -236t-127 -196t-198.5 -133.5t-253.5 -49.5q-228 0 -355.5 136.5t-127.5 390.5q0 318 110 555.5t314 366t477 128.5q178 0 284 -37l-63 -247q-98 36 -244 36q-205 0 -341.5 -121t-192.5 -348q172 152 387 152q178 0 277.5 -105.5t99.5 -291.5z
M414 483q0 -128 56 -196t155 -68q125 0 207.5 100t82.5 242q0 99 -48 148t-148 49q-186 0 -299 -144q-6 -68 -6 -131z" />
    <glyph glyph-name="seven" unicode="7" 
d="M1374 1282q-285 -262 -496 -591t-333 -691h-326q241 718 805 1262h-764l51 258h1110z" />
    <glyph glyph-name="eight" unicode="8" 
d="M1176 444q0 -148 -80.5 -257.5t-221 -166.5t-323.5 -57q-238 0 -368 98t-130 269q0 150 102 262t287 176q-192 124 -192 330q0 204 161 331t418 127q221 0 341 -96.5t120 -253.5q0 -134 -90 -237.5t-262 -163.5q54 -30 93.5 -60.5t74 -73.5t52.5 -100t18 -127zM545 1108
q0 -71 51.5 -118t155.5 -97q114 41 177.5 110.5t63.5 153.5q0 73 -49.5 117.5t-142.5 44.5q-111 0 -183.5 -61t-72.5 -150zM350 375q0 -82 61 -128t173 -46q139 0 218 68t79 161q0 44 -19 80t-59 66t-76 49.5t-96 46.5q-143 -52 -212 -132.5t-69 -164.5z" />
    <glyph glyph-name="nine" unicode="9" 
d="M1268 1008q0 -305 -112 -541t-317.5 -366t-473.5 -130q-177 0 -283 37l63 248q101 -37 244 -37q197 0 333 115t196 332q-153 -129 -351 -129q-187 0 -297 110.5t-110 300.5q0 119 46 228t127 191.5t199.5 131.5t255.5 49q224 0 352 -133t128 -407zM463 969
q0 -207 213 -207q176 0 280 129q9 115 9 139q0 270 -207 270q-129 0 -212 -97.5t-83 -233.5z" />
    <glyph glyph-name="colon" unicode=":" horiz-adv-x="802" 
d="M270 752l72 358h344l-72 -358h-344zM119 0l71 358h345l-72 -358h-344z" />
    <glyph glyph-name="semicolon" unicode=";" horiz-adv-x="802" 
d="M270 752l72 358h344l-72 -358h-344zM176 -332l-235 58q256 286 274 639h299q0 -396 -338 -697z" />
    <glyph glyph-name="less" unicode="&#x3c;" 
d="M1122 313v-254l-983 469v189l983 469v-256l-706 -307z" />
    <glyph glyph-name="equal" unicode="=" 
d="M123 731v232h1044v-232h-1044zM123 283v229h1044v-229h-1044z" />
    <glyph glyph-name="greater" unicode="&#x3e;" 
d="M1151 528l-983 -469v254l706 310l-706 307v256l983 -469v-189z" />
    <glyph glyph-name="question" unicode="?" horiz-adv-x="1161" 
d="M342 442l10 54q11 62 31 114t48.5 91.5t56.5 69t66.5 55t66.5 41t69 34.5q39 19 62 31.5t53 34t45.5 42.5t27 52.5t11.5 68.5q0 160 -178 160q-111 0 -209 -52t-170 -146l-88 235q101 107 239.5 164t294.5 57q194 0 310 -93t116 -288q0 -71 -17.5 -130t-43.5 -100
t-68.5 -77.5t-79 -59t-88.5 -48.5q-131 -67 -175 -100q-88 -66 -105 -156l-11 -54h-274zM236 0l57 289h319l-57 -289h-319z" />
    <glyph glyph-name="at" unicode="@" horiz-adv-x="2170" 
d="M1726 -168q-311 -213 -696 -213q-278 0 -474.5 106t-293 295t-96.5 447q0 182 49.5 349t144 303t224.5 236.5t300 156t361 55.5q371 0 585 -200.5t214 -553.5q0 -168 -49.5 -309.5t-130.5 -232.5t-182 -142t-207 -51q-103 0 -164.5 48t-61.5 140v6q-62 -97 -150.5 -145.5
t-185.5 -48.5q-141 0 -230 97t-89 286q0 124 40 244t110 214.5t174 152.5t223 58q176 0 233 -135l58 107h213l-191 -635q-18 -60 -18 -111q0 -90 84 -90q55 0 113 37t107.5 103t81 170t31.5 225q0 276 -157.5 432t-452.5 156q-198 0 -365.5 -72.5t-281.5 -197t-178 -293.5
t-64 -361q0 -314 174 -491t521 -177q360 0 653 213zM848 481q0 -186 131 -186q74 0 139.5 60.5t102.5 187.5l82 272q-49 96 -154 96q-88 0 -158.5 -65t-106.5 -162.5t-36 -202.5z" />
    <glyph glyph-name="A" unicode="A" horiz-adv-x="1480" 
d="M1028 0l-41 352h-557l-176 -352h-340l831 1520h373l228 -1520h-318zM553 596h405l-75 661z" />
    <glyph glyph-name="B" unicode="B" horiz-adv-x="1441" 
d="M1329 461q0 -69 -18 -132t-62.5 -124.5t-112.5 -106t-176 -71.5t-245 -27h-654l304 1520h583q445 0 445 -346q0 -66 -16 -123.5t-51.5 -111t-100 -94.5t-154.5 -63q258 -69 258 -321zM870 1274h-262l-78 -391h289q72 0 125.5 20.5t82.5 55t42.5 73t13.5 82.5
q0 84 -53 122t-160 38zM793 670h-306l-84 -420h326q145 0 217 69t72 173q0 91 -55 134.5t-170 43.5z" />
    <glyph glyph-name="C" unicode="C" horiz-adv-x="1392" 
d="M1251 129q-82 -67 -214 -112.5t-296 -45.5q-292 0 -453 159.5t-161 471.5q0 144 34.5 280.5t107 257.5t175 211.5t247.5 143.5t315 53q283 0 440 -139l-107 -281q-132 158 -348 158q-103 0 -192 -36.5t-153 -99.5t-110.5 -146.5t-69 -179.5t-22.5 -197q0 -198 90 -296
t261 -98q239 0 434 179z" />
    <glyph glyph-name="D" unicode="D" horiz-adv-x="1546" 
d="M1501 924q0 -272 -108 -480.5t-316 -326t-489 -117.5h-527l304 1520h473q183 0 311.5 -39t205.5 -117.5t111.5 -186t34.5 -253.5zM786 1270h-170l-202 -1018h209q177 0 306.5 88.5t193 233.5t63.5 327q0 195 -90 282t-310 87z" />
    <glyph glyph-name="E" unicode="E" horiz-adv-x="1298" 
d="M1133 254l-52 -254h-1020l304 1520h1003l-51 -252h-703l-71 -357h620l-49 -243h-618l-84 -414h721z" />
    <glyph glyph-name="F" unicode="F" horiz-adv-x="1208" 
d="M1063 616h-578l-123 -616h-301l304 1520h976l-49 -252h-678l-79 -408h577z" />
    <glyph glyph-name="G" unicode="G" horiz-adv-x="1544" 
d="M1321 123q-91 -63 -236 -107.5t-319 -44.5q-311 0 -475 159t-164 476q0 145 34 280.5t107 256.5t178 210.5t257.5 142t334.5 52.5q313 0 492 -139l-107 -281q-67 70 -171 114t-234 44q-141 0 -253 -55t-180.5 -148.5t-104.5 -210.5t-36 -247q0 -199 90 -295.5t285 -96.5
q139 0 260 43l66 330h-348l47 230h620z" />
    <glyph glyph-name="H" unicode="H" horiz-adv-x="1560" 
d="M975 0l133 664h-612l-134 -664h-301l304 1520h301l-121 -605h612l121 605h301l-303 -1520h-301z" />
    <glyph glyph-name="I" unicode="I" horiz-adv-x="647" 
d="M61 0l304 1520h301l-304 -1520h-301z" />
    <glyph glyph-name="J" unicode="J" horiz-adv-x="905" 
d="M-106 33l69 262q32 -19 54 -29.5t64 -21.5t85 -11q107 0 173.5 70.5t100.5 243.5l195 973h301l-203 -1014q-30 -151 -81 -256t-123 -165.5t-158 -87t-197 -26.5q-90 0 -152 16t-128 46z" />
    <glyph glyph-name="K" unicode="K" horiz-adv-x="1454" 
d="M999 0l-362 639l-178 -156l-97 -483h-301l304 1520h301l-138 -691l713 691h399v-4l-790 -693l502 -819v-4h-353z" />
    <glyph glyph-name="L" unicode="L" horiz-adv-x="1159" 
d="M1073 254l-51 -254h-961l304 1520h301l-254 -1266h661z" />
    <glyph glyph-name="M" unicode="M" horiz-adv-x="2002" 
d="M791 0l-207 1210l-242 -1210h-281l304 1520h415l189 -1102l606 1102h448l-303 -1520h-290l245 1225l-678 -1225h-206z" />
    <glyph glyph-name="N" unicode="N" horiz-adv-x="1585" 
d="M1008 0l-451 1059l-211 -1059h-285l304 1520h294l451 -1059l211 1059h285l-303 -1520h-295z" />
    <glyph glyph-name="O" unicode="O" horiz-adv-x="1581" 
d="M705 -29q-271 0 -424.5 160.5t-153.5 448.5q0 146 33.5 286t102.5 263.5t166.5 217t233.5 147.5t295 54q271 0 424.5 -160t153.5 -448q0 -146 -33.5 -286t-102.5 -264t-166.5 -217t-233.5 -147.5t-295 -54.5zM735 233q92 0 172 41.5t136.5 110.5t97.5 158.5t60.5 186
t19.5 192.5q0 181 -75 272.5t-218 91.5q-92 0 -172.5 -41.5t-137 -110t-97 -158t-60 -186t-19.5 -192.5q0 -181 75.5 -273t217.5 -92z" />
    <glyph glyph-name="P" unicode="P" horiz-adv-x="1376" 
d="M696 479h-237l-97 -479h-301l304 1520h530q512 0 512 -441q0 -95 -23.5 -180.5t-77 -163t-134 -134t-202.5 -89.5t-274 -33zM834 1270h-218l-108 -541h219q101 0 175.5 27.5t116.5 74.5t61.5 103t19.5 121q0 109 -62 162t-204 53z" />
    <glyph glyph-name="Q" unicode="Q" horiz-adv-x="1581" 
d="M1309 -369q-114 -67 -271 -67q-184 0 -303.5 109t-173.5 311q-207 40 -320.5 194.5t-113.5 401.5q0 146 33.5 286t102.5 263.5t166.5 217t233.5 147.5t295 54q271 0 424.5 -160t153.5 -448q0 -136 -29 -267t-89 -249t-144.5 -211t-203 -155.5t-257.5 -80.5
q35 -72 107.5 -112.5t177.5 -40.5q145 0 239 49zM735 233q92 0 172 41.5t136.5 110.5t97.5 158.5t60.5 186t19.5 192.5q0 181 -75 272.5t-218 91.5q-92 0 -172.5 -41.5t-137 -110t-97 -158t-60 -186t-19.5 -192.5q0 -181 75.5 -273t217.5 -92z" />
    <glyph glyph-name="R" unicode="R" horiz-adv-x="1437" 
d="M979 0l-272 528h-238l-107 -528h-301l304 1520h528q250 0 375 -109.5t125 -308.5q0 -187 -108 -331.5t-300 -205.5l332 -565h-338zM831 1270h-215l-100 -498h225q169 0 255.5 81t86.5 210q0 107 -63.5 157t-188.5 50z" />
    <glyph glyph-name="S" unicode="S" horiz-adv-x="1255" 
d="M-2 123l92 274q96 -77 215.5 -122.5t241.5 -45.5q142 0 213 61.5t71 153.5q0 30 -7 53t-25.5 42.5t-35 32t-53.5 27.5t-60 23t-75 25q-61 20 -103.5 37t-93 49.5t-81 70.5t-51.5 98.5t-21 135.5q0 106 40 198.5t115 162t192 109.5t262 40q253 0 438 -121l-88 -274
q-171 137 -379 137q-136 0 -204.5 -60t-68.5 -149q0 -33 10.5 -58t27 -43t52 -35t70 -29t96.5 -31t104 -36t94 -49.5t83.5 -71.5t53.5 -101t22 -140q0 -110 -41 -203.5t-119 -163.5t-199.5 -109.5t-273.5 -39.5q-295 0 -514 152z" />
    <glyph glyph-name="T" unicode="T" horiz-adv-x="1245" 
d="M1362 1268h-444l-254 -1268h-302l254 1268h-450l49 252h1198z" />
    <glyph glyph-name="U" unicode="U" horiz-adv-x="1531" 
d="M1567 1520l-187 -926q-125 -623 -710 -623q-255 0 -387.5 119t-132.5 340q0 86 18 180l182 910h299l-184 -916q-12 -67 -12 -125q0 -243 249 -243q308 0 381 368l185 916h299z" />
    <glyph glyph-name="V" unicode="V" horiz-adv-x="1423" 
d="M1587 1520l-823 -1520h-326l-219 1520h318l127 -1176l583 1176h340z" />
    <glyph glyph-name="W" unicode="W" horiz-adv-x="2174" 
d="M1255 0l-61 1137l-504 -1137h-325l-136 1520h316l53 -1164l512 1164h313l58 -1160l506 1160h342l-748 -1520h-326z" />
    <glyph glyph-name="X" unicode="X" horiz-adv-x="1400" 
d="M920 0l-226 557l-405 -557h-373l653 784l-333 736h342l213 -533l385 533h370l-631 -760l347 -760h-342z" />
    <glyph glyph-name="Y" unicode="Y" horiz-adv-x="1323" 
d="M1516 1520l-705 -965l-111 -555h-301l115 571l-324 949h326l199 -693l446 693h355z" />
    <glyph glyph-name="Z" unicode="Z" horiz-adv-x="1327" 
d="M1180 254l-52 -254h-1155l47 233l965 1035h-725l53 252h1100l-45 -230l-969 -1036h781z" />
    <glyph glyph-name="bracketleft" unicode="[" horiz-adv-x="917" 
d="M664 -147l-39 -193h-578l387 1933h578l-39 -192h-322l-309 -1548h322z" />
    <glyph glyph-name="backslash" unicode="\" horiz-adv-x="958" 
d="M838 -340h-252l-338 1933h252z" />
    <glyph glyph-name="bracketright" unicode="]" horiz-adv-x="917" 
d="M899 1593l-387 -1933h-578l39 193h322l309 1548h-321l39 192h577z" />
    <glyph glyph-name="asciicircum" unicode="^" horiz-adv-x="1089" 
d="M846 762l-148 514l-354 -514h-254l547 758h201l243 -758h-235z" />
    <glyph glyph-name="underscore" unicode="_" horiz-adv-x="1310" 
d="M-150 -348l44 221h1249l-43 -221h-1250z" />
    <glyph glyph-name="grave" unicode="`" horiz-adv-x="1024" 
d="M629 1231l-281 426l260 53l183 -438z" />
    <glyph glyph-name="a" unicode="a" horiz-adv-x="1189" 
d="M682 0l23 152q-67 -85 -158.5 -131t-198.5 -46q-139 0 -224 76.5t-85 224.5q0 197 164.5 305.5t476.5 108.5h115l2 10q8 44 8 74q0 71 -44.5 103t-142.5 32q-189 0 -366 -116l-14 231q84 51 203 81t245 30q206 0 307 -81.5t101 -236.5q0 -55 -15 -125l-137 -692h-260z
M459 193q85 0 155.5 45t114.5 127l31 157h-82q-176 0 -267.5 -54t-91.5 -151q0 -124 140 -124z" />
    <glyph glyph-name="b" unicode="b" 
d="M1219 698q0 -141 -40.5 -270.5t-113 -230.5t-184 -161.5t-244.5 -60.5q-204 0 -307 156l-37 -131h-260l319 1593h287l-125 -626q136 168 338 168q176 0 271.5 -117t95.5 -320zM387 332q28 -60 82 -92.5t123 -32.5q99 0 176 64.5t116.5 166t39.5 217.5q0 236 -191 236
q-86 0 -156.5 -48.5t-115.5 -135.5z" />
    <glyph glyph-name="c" unicode="c" horiz-adv-x="1064" 
d="M915 94q-69 -51 -168.5 -85t-216.5 -34q-215 0 -336.5 117.5t-121.5 343.5q0 103 25 202.5t78 189.5t127.5 158t182 108.5t234.5 40.5q230 0 344 -119l-88 -232q-96 111 -252 111q-72 0 -133 -25.5t-102.5 -68t-70.5 -98.5t-42 -116t-13 -122q0 -250 238 -250
q163 0 297 115z" />
    <glyph glyph-name="d" unicode="d" 
d="M776 0l29 174q-143 -199 -365 -199q-177 0 -272.5 117t-95.5 320q0 141 40 270.5t113 230.5t184 161.5t244 60.5q195 0 297 -131l119 589h287l-320 -1593h-260zM367 455q0 -118 49 -177t141 -59q86 0 156.5 49t117.5 142l76 381q-28 51 -83 81.5t-124 30.5
q-100 0 -177.5 -64.5t-116.5 -166t-39 -217.5z" />
    <glyph glyph-name="e" unicode="e" horiz-adv-x="1185" 
d="M1016 92q-177 -117 -441 -117q-253 0 -378 118t-125 343q0 100 24.5 198t76.5 189t126 160t181.5 110.5t234.5 41.5q94 0 167.5 -23.5t118.5 -61t74 -91t40 -108.5t11 -118q0 -141 -51 -248h-713v-30q0 -129 60.5 -190.5t214.5 -61.5q201 0 364 119zM690 926
q-112 0 -186 -73.5t-111 -190.5h449q16 33 16 92q0 172 -168 172z" />
    <glyph glyph-name="f" unicode="f" horiz-adv-x="806" 
d="M846 905h-275l-180 -905h-287l181 905h-185l41 205h185l20 98q20 98 56 171.5t79 117.5t100 71t111.5 36.5t120.5 9.5q120 0 223 -35l-67 -236q-58 35 -148 35q-78 0 -124.5 -38.5t-65.5 -133.5l-19 -96h275z" />
    <glyph glyph-name="g" unicode="g" 
d="M1038 8q-26 -131 -81.5 -225.5t-136 -150t-178.5 -81.5t-220 -26q-281 0 -449 121l70 229q64 -55 167.5 -89t219.5 -34q135 0 215.5 62.5t108.5 208.5l24 127q-132 -164 -336 -164q-177 0 -273.5 114.5t-96.5 315.5q0 139 40.5 268t113.5 229.5t184 161t243 60.5
q207 0 310 -156l34 131h260zM367 459q0 -118 49 -177t141 -59q87 0 158 49.5t116 139.5l74 368q-28 58 -83 90.5t-124 32.5q-99 0 -176 -64t-116 -164.5t-39 -215.5z" />
    <glyph glyph-name="h" unicode="h" horiz-adv-x="1257" 
d="M457 688l-138 -688h-286l319 1593h287l-131 -647q151 189 362 189q132 0 211.5 -76.5t79.5 -229.5q0 -66 -14 -137l-139 -692h-287l135 676q10 52 10 84q0 125 -123 125q-82 0 -160 -51t-126 -146z" />
    <glyph glyph-name="i" unicode="i" horiz-adv-x="583" 
d="M283 1294l53 265h313l-53 -265h-313zM37 0l223 1110h287l-223 -1110h-287z" />
    <glyph glyph-name="j" unicode="j" horiz-adv-x="600" 
d="M305 1294l53 265h314l-54 -265h-313zM-336 -430l66 237q70 -36 133 -36q72 0 121 50t73 167l224 1122h286l-219 -1102q-26 -132 -72 -226t-109 -149t-136 -79.5t-162 -24.5q-121 0 -205 41z" />
    <glyph glyph-name="k" unicode="k" horiz-adv-x="1212" 
d="M786 0l-258 459l-141 -121l-68 -338h-286l319 1593h287l-193 -960l482 477h364v-4l-563 -477l385 -625v-4h-328z" />
    <glyph glyph-name="l" unicode="l" horiz-adv-x="583" 
d="M37 0l319 1593h287l-319 -1593h-287z" />
    <glyph glyph-name="m" unicode="m" horiz-adv-x="1918" 
d="M457 688l-138 -688h-286l223 1110h260l-31 -190q72 98 169 156.5t210 58.5q110 0 182.5 -56t92.5 -168q74 102 176 163t223 61q127 0 206 -76.5t79 -229.5q0 -61 -15 -137l-139 -692h-287l136 676q10 55 10 84q0 125 -119 125q-78 0 -153 -51t-123 -146l-138 -688h-286
l135 676q10 52 10 84q0 125 -119 125q-79 0 -154.5 -51t-123.5 -146z" />
    <glyph glyph-name="n" unicode="n" horiz-adv-x="1257" 
d="M457 688l-138 -688h-286l223 1110h260l-31 -188q74 99 172 156t213 57q132 0 211.5 -76.5t79.5 -229.5q0 -66 -14 -137l-139 -692h-287l135 676q10 52 10 84q0 125 -123 125q-82 0 -160 -51t-126 -146z" />
    <glyph glyph-name="o" unicode="o" horiz-adv-x="1234" 
d="M537 -25q-97 0 -179.5 27t-147 81.5t-101.5 144.5t-37 208q0 103 25.5 203t77.5 190t125 158t176 108t222 40q97 0 179.5 -27t147 -81.5t101.5 -144.5t37 -208q0 -103 -25.5 -203t-77.5 -190t-125 -158t-176 -108t-222 -40zM559 209q74 0 135 40.5t99 106.5t58.5 144.5
t20.5 158.5q0 121 -50 181.5t-144 60.5q-74 0 -136 -40.5t-100 -106.5t-59 -144.5t-21 -158.5q0 -121 51.5 -181.5t145.5 -60.5z" />
    <glyph glyph-name="p" unicode="p" 
d="M637 -25q-187 0 -297 129l-109 -546h-286l311 1552h260l-29 -178q140 203 365 203q176 0 271.5 -117t95.5 -320q0 -111 -25 -217.5t-75 -197.5t-119 -160t-162.5 -108.5t-200.5 -39.5zM459 702l-76 -380q28 -52 84 -83.5t125 -31.5q99 0 176 64.5t116.5 166t39.5 217.5
q0 236 -189 236q-87 0 -159 -48.5t-117 -140.5z" />
    <glyph glyph-name="q" unicode="q" 
d="M1257 1110l-311 -1552h-287l117 579q-137 -162 -336 -162q-176 0 -272 117t-96 320q0 141 40 270.5t113 230.5t184 161.5t244 60.5q204 0 310 -156l34 131h260zM367 455q0 -118 49 -177t141 -59q87 0 158 49.5t114 139.5l76 372q-28 58 -83 90.5t-124 32.5
q-99 0 -176 -64.5t-116 -166t-39 -217.5z" />
    <glyph glyph-name="r" unicode="r" horiz-adv-x="876" 
d="M446 633l-127 -633h-286l223 1110h258l-35 -215q129 238 350 238q81 0 129 -25l-77 -268q-53 24 -127 24q-99 0 -183 -59t-125 -172z" />
    <glyph glyph-name="s" unicode="s" horiz-adv-x="1013" 
d="M-6 92l80 230q158 -125 344 -125q97 0 145.5 35.5t48.5 89.5q0 50 -46 77t-142 56q-36 10 -63 20t-62 27t-59.5 39t-47 51.5t-34 70t-11.5 89.5q0 174 131 278.5t357 104.5q203 0 350 -95l-78 -229q-136 102 -284 102q-92 0 -142.5 -36t-50.5 -89q0 -27 13.5 -48t44 -37
t55.5 -25.5t73 -24.5q46 -14 79.5 -27t74 -38t65.5 -54.5t42.5 -76.5t17.5 -105q0 -173 -131.5 -275t-366.5 -102q-226 0 -403 117z" />
    <glyph glyph-name="t" unicode="t" horiz-adv-x="862" 
d="M723 35q-129 -60 -272 -60q-137 0 -214 66t-77 207q0 62 12 129l107 528h-179l41 205h178l58 291l299 67l-72 -358h305l-41 -205h-305l-108 -538q-4 -18 -4 -50q0 -98 108 -98q97 0 176 51z" />
    <glyph glyph-name="u" unicode="u" horiz-adv-x="1257" 
d="M741 0l29 193q-151 -218 -381 -218q-132 0 -213.5 76.5t-81.5 229.5q0 50 17 137l137 692h287l-136 -676q-8 -41 -8 -82q0 -64 30.5 -95.5t96.5 -31.5q95 0 167 59.5t118 153.5l133 672h287l-222 -1110h-260z" />
    <glyph glyph-name="v" unicode="v" horiz-adv-x="1163" 
d="M1237 1110l-619 -1110h-307l-176 1110h301l82 -838l395 838h324z" />
    <glyph glyph-name="w" unicode="w" horiz-adv-x="1779" 
d="M979 0l-49 797l-365 -797h-301l-114 1110h301l34 -815l351 815h292l48 -819l340 819h323l-559 -1110h-301z" />
    <glyph glyph-name="x" unicode="x" horiz-adv-x="1150" 
d="M694 0l-157 375l-283 -375h-340v4l502 567l-266 535v4h313l151 -358l269 358h340v-4l-490 -553l275 -549v-4h-314z" />
    <glyph glyph-name="y" unicode="y" horiz-adv-x="1177" 
d="M639 10q-108 -195 -200 -300t-177 -143t-199 -38q-124 0 -208 43l67 238q68 -39 156 -39q70 0 128.5 46t125.5 167l-197 1126h307l88 -846l400 846h321z" />
    <glyph glyph-name="z" unicode="z" horiz-adv-x="1050" 
d="M909 219l-43 -219h-905l41 207l682 684h-524l45 219h866l-41 -207l-682 -684h561z" />
    <glyph glyph-name="braceleft" unicode="{" horiz-adv-x="917" 
d="M664 -147l-39 -193h-181q-166 0 -249.5 62.5t-83.5 197.5q0 52 14.5 104t29.5 82t42 78q63 110 63 195q0 67 -41 100t-139 33h-68l47 229h68q129 0 189.5 57t60.5 185q0 43 -6 92q-9 61 -9 113q0 203 122 304t347 101h181l-39 -192h-154q-102 0 -150 -53.5t-48 -145.5
q0 -44 8 -110q6 -53 6 -95q0 -177 -100.5 -275t-272.5 -104q256 -10 256 -221q0 -116 -76 -241q-37 -62 -54 -103.5t-17 -83.5q0 -53 33 -84.5t100 -31.5h160z" />
    <glyph glyph-name="bar" unicode="|" horiz-adv-x="942" 
d="M348 -455v2048h252v-2048h-252z" />
    <glyph glyph-name="braceright" unicode="}" horiz-adv-x="917" 
d="M584 66q0 -203 -122 -304.5t-347 -101.5h-181l39 193h154q102 0 150.5 53t48.5 145q0 37 -9 111q-6 53 -6 94q0 177 100.5 275t272.5 104q-256 10 -256 221q0 117 76 242q37 63 54 103.5t17 82.5q0 53 -33 85t-100 32h-159l39 192h180q166 0 250 -62.5t84 -197.5
q0 -52 -14.5 -104t-29.5 -82t-42 -78q-64 -112 -64 -195q0 -67 41 -100t139 -33h68l-47 -229h-68q-129 0 -189.5 -57t-60.5 -185q0 -42 6 -92q9 -61 9 -112z" />
    <glyph glyph-name="asciitilde" unicode="~" 
d="M330 406l-215 18q0 112 25.5 193.5t70 125t94 63t107.5 19.5q51 0 108.5 -16.5t96 -34.5t90.5 -47q134 -76 182 -76q98 0 98 187l217 -19q0 -90 -17.5 -160.5t-46 -114.5t-68 -72.5t-80.5 -40t-87 -11.5q-51 0 -108 16t-95 34t-92 48q-48 27 -72.5 39.5t-56.5 24.5
t-53 12q-98 0 -98 -188z" />
    <glyph glyph-name="exclamdown" unicode="&#xa1;" horiz-adv-x="770" 
d="M659 1110l-59 -289h-319l59 289h319zM520 668l-139 -1002l-16 -76h-340l14 76l262 1002h219z" />
    <glyph glyph-name="cent" unicode="&#xa2;" 
d="M1049 344q-148 -115 -367 -125l-49 -248h-168l51 256q-175 29 -269.5 147.5t-94.5 311.5q0 260 161 431t420 194l47 241h168l-49 -243q173 -21 283 -115l-88 -229q-91 98 -240 114l-125 -628q161 11 303 127zM408 713q0 -200 155 -248l121 608q-131 -29 -203.5 -125
t-72.5 -235z" />
    <glyph glyph-name="sterling" unicode="&#xa3;" 
d="M1141 258l-51 -258h-1092l43 213q82 6 144.5 31.5t98 59t57.5 77.5t29 81t7 75q0 55 -12 114h-250l39 189h174q-15 92 -15 151q0 169 78 296.5t213 194t307 66.5q132 0 236 -39t172 -106l-92 -246q-111 137 -305 137q-140 0 -225 -77t-85 -236q0 -57 15 -141h411
l-39 -189h-337q6 -38 6 -76q0 -91 -36.5 -177t-117.5 -140h627z" />
    <glyph glyph-name="currency" unicode="&#xa4;" 
d="M1212 377l-143 -144l-184 185q-90 -49 -199 -49q-111 0 -199 51l-186 -187l-143 144l186 186q-51 88 -51 197q0 108 51 196l-186 187l143 143l186 -186q88 51 199 51q109 0 199 -49l184 184l143 -143l-184 -185q51 -88 51 -198q0 -111 -51 -199zM686 563q86 0 135 53
t49 144t-49 143.5t-135 52.5q-87 0 -136.5 -52.5t-49.5 -143.5t49.5 -144t136.5 -53z" />
    <glyph glyph-name="yen" unicode="&#xa5;" 
d="M1104 258h-377l-51 -258h-285l51 258h-370l37 188h372l31 154h-373l37 188h316l-261 732h308l176 -613l391 613h338l-543 -732h307l-37 -188h-374l-31 -154h375z" />
    <glyph glyph-name="brokenbar" unicode="&#xa6;" horiz-adv-x="942" 
d="M348 825v768h252v-768h-252zM348 -455v768h252v-768h-252z" />
    <glyph glyph-name="section" unicode="&#xa7;" horiz-adv-x="1284" 
d="M1010 70q0 -186 -142 -302t-403 -116q-258 0 -453 129l76 235q191 -141 408 -141q118 0 183.5 48t65.5 116q0 27 -12.5 49t-29 37t-50 30t-58 23.5t-69.5 22.5q-41 13 -71 23t-69.5 27.5t-67.5 36t-57.5 46t-47.5 59t-29.5 74t-11.5 92.5q0 236 229 334q-102 85 -102 235
q0 85 33 160t97 133.5t168 92.5t237 34q245 0 407 -106l-78 -236q-73 54 -167.5 86.5t-190.5 32.5q-115 0 -177.5 -49t-62.5 -115q0 -27 12.5 -49t29 -36.5t49.5 -30t57 -24t69 -22.5q36 -12 56 -18.5t55 -20t55 -24.5t49.5 -28.5t47 -35.5t38 -43t31 -52.5t18 -62.5
t7.5 -75q0 -118 -59.5 -202t-172.5 -130q103 -86 103 -237zM659 424q18 -6 70 -25q80 32 116 82.5t36 102.5q0 33 -14.5 60t-33.5 44.5t-56 36t-61 27t-71 24.5q-29 9 -65 23q-80 -33 -116 -82.5t-36 -102.5q0 -32 13.5 -58.5t31.5 -44t54 -35.5t60.5 -27t71.5 -25z" />
    <glyph glyph-name="dieresis" unicode="&#xa8;" horiz-adv-x="1024" 
d="M748 1294l53 265h266l-53 -265h-266zM289 1294l53 265h266l-53 -265h-266z" />
    <glyph glyph-name="copyright" unicode="&#xa9;" horiz-adv-x="1880" 
d="M981 -29q-164 0 -310.5 62t-251 167.5t-165.5 251t-61 308.5q0 162 61 308t165.5 251.5t251 167t310.5 61.5t310.5 -61.5t251 -167t165.5 -251.5t61 -308q0 -163 -61 -308.5t-165.5 -251t-251 -167.5t-310.5 -62zM981 113q179 0 325 86t228 234t82 327t-82 327t-228 234
t-325 86t-325 -86t-228 -234t-82 -327t82 -327t228 -234t325 -86zM1317 393q-121 -96 -307 -96q-210 0 -334.5 125t-124.5 338q0 216 127 338.5t340 122.5q175 0 289 -88l-45 -199q-88 88 -226 88q-120 0 -186 -70.5t-66 -189.5q0 -123 68 -193.5t184 -70.5q139 0 236 90z
" />
    <glyph glyph-name="ordfeminine" unicode="&#xaa;" horiz-adv-x="940" 
d="M637 739l16 105q-97 -121 -245 -121q-99 0 -159.5 54.5t-60.5 160.5q0 141 116.5 218t334.5 77h78q6 27 6 47q0 44 -29.5 64t-95.5 20q-139 0 -258 -78l-10 184q62 35 149.5 56.5t177.5 21.5q299 0 299 -229q0 -37 -10 -92l-96 -488h-213zM498 901q111 0 172 100l20 99
h-53q-111 0 -168 -33t-57 -92q0 -74 86 -74zM98 412l39 198h686l-39 -198h-686z" />
    <glyph glyph-name="guillemotleft" unicode="&#xab;" horiz-adv-x="1443" 
d="M1204 211l-205 -141l-325 495l4 21l483 495l176 -159l-374 -359zM682 211l-205 -141l-325 495l4 21l483 495l176 -159l-375 -359z" />
    <glyph glyph-name="logicalnot" unicode="&#xac;" 
d="M1161 737v-575h-231v344h-801v231h1032z" />
    <glyph glyph-name="registered" unicode="&#xae;" horiz-adv-x="1345" 
d="M793 590q-160 0 -292 76t-207 207t-75 288t75 288t207 207.5t292 76.5q121 0 228 -45t183 -122t120 -182.5t44 -222.5q0 -157 -74.5 -287.5t-207 -207t-293.5 -76.5zM793 711q189 0 315.5 130t126.5 320t-126.5 320.5t-315.5 130.5t-316 -130.5t-127 -320.5t127 -320
t316 -130zM702 1053v-193h-155v615h254q123 0 187.5 -52.5t64.5 -152.5q0 -133 -117 -189l164 -221h-189l-129 193h-80zM702 1352v-178h91q96 0 96 90q0 88 -107 88h-80z" />
    <glyph glyph-name="macron" unicode="&#xaf;" horiz-adv-x="1024" 
d="M315 1327l39 199h686l-39 -199h-686z" />
    <glyph glyph-name="degree" unicode="&#xb0;" horiz-adv-x="921" 
d="M551 866q-154 0 -245 94.5t-91 243.5q0 176 120.5 293t295.5 117q154 0 245 -94.5t91 -243.5q0 -174 -121 -292t-295 -118zM567 1047q92 0 149.5 61.5t57.5 155.5q0 78 -41.5 124t-118.5 46q-91 0 -148.5 -61t-57.5 -156q0 -78 41.5 -124t117.5 -46z" />
    <glyph glyph-name="plusminus" unicode="&#xb1;" 
d="M1167 743h-407v-411h-230v411h-407v230h407v411h230v-411h407v-230zM123 0v231h1044v-231h-1044z" />
    <glyph glyph-name="two.sups" unicode="&#xb2;" horiz-adv-x="800" 
d="M823 1030l-37 -190h-657l37 182l297 201q117 79 166 130.5t49 110.5q0 46 -29 69t-78 23q-62 0 -123.5 -35t-109.5 -96l-66 170q68 73 160.5 112.5t198.5 39.5q133 0 203.5 -61.5t70.5 -184.5q0 -115 -68 -199t-237 -184l-147 -88h370z" />
    <glyph glyph-name="three.sups" unicode="&#xb3;" horiz-adv-x="792" 
d="M846 1112q0 -131 -112 -212t-302 -81q-94 0 -176.5 21t-132.5 57l76 193q92 -82 229 -82q85 0 136.5 32t51.5 84q0 84 -178 84h-112l30 158h99q100 0 160.5 32.5t60.5 86.5q0 36 -29.5 55t-81.5 19q-117 0 -227 -84l-57 174q144 98 340 98q142 0 213 -56.5t71 -152.5
q0 -90 -59 -152.5t-164 -89.5q82 -18 123 -62t41 -122z" />
    <glyph glyph-name="acute" unicode="&#xb4;" horiz-adv-x="1024" 
d="M651 1231l-166 53l312 426l260 -90z" />
    <glyph glyph-name="uni00B5" unicode="&#xb5;" horiz-adv-x="1333" 
d="M481 -25q-108 0 -174 66l-71 -483h-285l311 1552h287l-135 -676q-11 -57 -11 -82q0 -127 127 -127q95 0 167 59.5t118 153.5l135 672h287l-156 -774q-6 -27 -6 -47q0 -62 70 -62q47 0 94 19l-49 -238q-81 -24 -158 -24q-114 0 -172 40t-65 128q-132 -177 -314 -177z" />
    <glyph glyph-name="paragraph" unicode="&#xb6;" horiz-adv-x="1392" 
d="M977 1362l-340 -1694h-172l168 838q-457 15 -457 418q0 265 182 430.5t476 165.5h546l-370 -1852h-172l340 1694h-201z" />
    <glyph glyph-name="periodcentered" unicode="&#xb7;" horiz-adv-x="657" 
d="M137 459l72 358h344l-72 -358h-344z" />
    <glyph glyph-name="cedilla" unicode="&#xb8;" horiz-adv-x="1024" 
d="M623 -252q0 -119 -89 -185.5t-249 -66.5q-112 0 -232 41l66 182q82 -45 184 -45q57 0 89 20t32 54q0 16 -10 28.5t-53 30t-121 33.5l104 172h131l-51 -73q115 -36 157 -80.5t42 -110.5z" />
    <glyph glyph-name="one.sups" unicode="&#xb9;" horiz-adv-x="649" 
d="M731 1720l-176 -880h-217l125 622q-80 -52 -184 -98l-74 158q191 77 344 198h182z" />
    <glyph glyph-name="ordmasculine" unicode="&#xba;" horiz-adv-x="940" 
d="M528 723q-69 0 -127.5 18.5t-106 57t-74.5 104t-27 152.5q0 92 29 178.5t83.5 157.5t142.5 114t197 43q69 0 128 -18t106.5 -56t74.5 -103.5t27 -153.5q0 -73 -18 -143.5t-55.5 -134t-90.5 -111.5t-127.5 -76.5t-161.5 -28.5zM549 918q63 0 110 45.5t68 109.5t21 133
q0 148 -123 148q-63 0 -110 -45.5t-68 -109.5t-21 -134q0 -147 123 -147zM98 412l39 198h686l-39 -198h-686z" />
    <glyph glyph-name="guillemotright" unicode="&#xbb;" horiz-adv-x="1443" 
d="M1294 565l-483 -495l-176 159l375 359l-242 352l205 141l325 -495zM772 565l-483 -495l-176 159l374 359l-241 352l205 141l325 -495z" />
    <glyph glyph-name="onequarter" unicode="&#xbc;" horiz-adv-x="1728" 
d="M690 1520l-176 -881h-217l125 623q-85 -55 -184 -99l-74 158q188 76 344 199h182zM96 0l1331 1520h240l-1331 -1520h-240zM1618 170h-123l-35 -174h-211l35 174h-430l35 182l516 541h235l-110 -547h123zM1079 346h240l65 320z" />
    <glyph glyph-name="onehalf" unicode="&#xbd;" horiz-adv-x="1826" 
d="M690 1520l-176 -881h-217l125 623q-85 -55 -184 -99l-74 158q188 76 344 199h182zM96 0l1331 1520h240l-1331 -1520h-240zM1681 190l-36 -190h-658l37 182l297 201q116 78 165.5 130.5t49.5 111.5q0 46 -28.5 69t-77.5 23q-62 0 -124 -35t-110 -96l-66 170
q142 151 359 151q133 0 203.5 -61t70.5 -184q0 -115 -68 -199t-237 -184l-147 -89h370z" />
    <glyph glyph-name="threequarters" unicode="&#xbe;" horiz-adv-x="1843" 
d="M805 911q0 -131 -112 -212t-302 -81q-94 0 -176.5 21t-132.5 57l76 193q92 -82 229 -82q85 0 136.5 32.5t51.5 84.5q0 84 -178 84h-112l30 157h99q100 0 160.5 32.5t60.5 86.5q0 36 -29.5 55t-81.5 19q-117 0 -227 -84l-57 174q144 98 340 98q142 0 213 -56.5t71 -152.5
q0 -90 -58.5 -152t-164.5 -89q164 -36 164 -185zM211 0l1331 1520h240l-1331 -1520h-240zM1733 170h-123l-35 -174h-211l35 174h-430l35 182l516 541h235l-110 -547h122zM1194 346h240l65 320z" />
    <glyph glyph-name="questiondown" unicode="&#xbf;" horiz-adv-x="1161" 
d="M950 1110l-57 -289h-320l58 289h319zM844 668l-10 -54q-11 -62 -31 -114t-48.5 -91.5t-56.5 -69t-66.5 -55t-66.5 -41t-69 -34.5q-39 -19 -62 -31.5t-53 -34t-45.5 -42.5t-27 -52.5t-11.5 -68.5q0 -160 178 -160q111 0 209 52t170 146l88 -235q-101 -107 -239.5 -164
t-294.5 -57q-194 0 -310 93t-116 288q0 71 17.5 130t43.5 100t68.5 77.5t79 59t88.5 48.5q131 67 175 100q88 66 105 156l10 54h275z" />
    <glyph glyph-name="Agrave" unicode="&#xc0;" horiz-adv-x="1480" 
d="M1026 1626l-399 303l266 109l289 -336zM1028 0l-41 352h-557l-176 -352h-340l831 1520h373l228 -1520h-318zM553 596h405l-75 661z" />
    <glyph glyph-name="Aacute" unicode="&#xc1;" horiz-adv-x="1480" 
d="M883 1626l-146 86l385 326l242 -146zM1028 0l-41 352h-557l-176 -352h-340l831 1520h373l228 -1520h-318zM553 596h405l-75 661z" />
    <glyph glyph-name="Acircumflex" unicode="&#xc2;" horiz-adv-x="1480" 
d="M1368 1669l-244 -35l-129 215l-223 -215l-260 35l387 332h234zM1028 0l-41 352h-557l-176 -352h-340l831 1520h373l228 -1520h-318zM553 596h405l-75 661z" />
    <glyph glyph-name="Atilde" unicode="&#xc3;" horiz-adv-x="1480" 
d="M705 1632l-197 17q63 333 301 333q98 0 197 -69q90 -64 137 -64q84 0 110 148l197 -17q-63 -333 -301 -333q-98 0 -197 69q-90 64 -137 64q-84 0 -110 -148zM1028 0l-41 352h-557l-176 -352h-340l831 1520h373l228 -1520h-318zM553 596h405l-75 661z" />
    <glyph glyph-name="Adieresis" unicode="&#xc4;" horiz-adv-x="1480" 
d="M1059 1683l53 263h270l-53 -263h-270zM578 1683l53 263h270l-53 -263h-270zM1028 0l-41 352h-557l-176 -352h-340l831 1520h373l228 -1520h-318zM553 596h405l-75 661z" />
    <glyph glyph-name="Aring" unicode="&#xc5;" horiz-adv-x="1480" 
d="M1028 0l-41 352h-557l-176 -352h-340l831 1520h48q-55 33 -85 88t-30 125q0 126 91 212.5t220 86.5q114 0 182 -69t68 -177q0 -86 -44.5 -157.5t-119.5 -108.5h43l228 -1520h-318zM944 1636q58 0 95.5 39t37.5 99q0 50 -26.5 79t-75.5 29q-58 0 -95.5 -39.5t-37.5 -99.5
q0 -49 26 -78t76 -29zM553 596h405l-75 661z" />
    <glyph glyph-name="AE" unicode="&#xc6;" horiz-adv-x="2138" 
d="M897 0l84 418h-532l-297 -418h-353l1108 1520h1284l-49 -252h-702l-72 -357h621l-50 -243h-620l-84 -414h721l-51 -254h-1008zM1151 1272h-96l-434 -610h407z" />
    <glyph glyph-name="Ccedilla" unicode="&#xc7;" horiz-adv-x="1392" 
d="M905 -252q0 -119 -89 -185.5t-249 -66.5q-111 0 -231 41l65 182q82 -45 185 -45q57 0 89 20t32 54q0 16 -10.5 28.5t-53.5 30t-121 33.5l86 142q-230 33 -355.5 189t-125.5 431q0 144 34.5 280.5t107 257.5t175 211.5t247.5 143.5t315 53q283 0 440 -139l-107 -281
q-132 158 -348 158q-103 0 -192 -36.5t-153 -99.5t-110.5 -146.5t-69 -179.5t-22.5 -197q0 -198 90 -296t261 -98q239 0 434 179l22 -283q-82 -67 -214 -112.5t-296 -45.5h-12l-22 -32q115 -36 156.5 -80.5t41.5 -110.5z" />
    <glyph glyph-name="Egrave" unicode="&#xc8;" horiz-adv-x="1298" 
d="M961 1626l-400 303l266 109l289 -336zM1133 254l-52 -254h-1020l304 1520h1003l-51 -252h-703l-71 -357h620l-49 -243h-618l-84 -414h721z" />
    <glyph glyph-name="Eacute" unicode="&#xc9;" horiz-adv-x="1298" 
d="M817 1626l-145 86l385 326l241 -146zM1133 254l-52 -254h-1020l304 1520h1003l-51 -252h-703l-71 -357h620l-49 -243h-618l-84 -414h721z" />
    <glyph glyph-name="Ecircumflex" unicode="&#xca;" horiz-adv-x="1298" 
d="M1303 1669l-244 -35l-129 215l-223 -215l-261 35l388 332h233zM1133 254l-52 -254h-1020l304 1520h1003l-51 -252h-703l-71 -357h620l-49 -243h-618l-84 -414h721z" />
    <glyph glyph-name="Edieresis" unicode="&#xcb;" horiz-adv-x="1298" 
d="M993 1683l54 263h270l-53 -263h-271zM512 1683l53 263h271l-54 -263h-270zM1133 254l-52 -254h-1020l304 1520h1003l-51 -252h-703l-71 -357h620l-49 -243h-618l-84 -414h721z" />
    <glyph glyph-name="Igrave" unicode="&#xcc;" horiz-adv-x="647" 
d="M610 1626l-399 303l266 109l289 -336zM61 0l304 1520h301l-304 -1520h-301z" />
    <glyph glyph-name="Iacute" unicode="&#xcd;" horiz-adv-x="647" 
d="M467 1626l-145 86l385 326l241 -146zM61 0l304 1520h301l-304 -1520h-301z" />
    <glyph glyph-name="Icircumflex" unicode="&#xce;" horiz-adv-x="647" 
d="M952 1669l-243 -35l-129 215l-224 -215l-260 35l387 332h234zM61 0l304 1520h301l-304 -1520h-301z" />
    <glyph glyph-name="Idieresis" unicode="&#xcf;" horiz-adv-x="647" 
d="M643 1683l53 263h271l-54 -263h-270zM162 1683l53 263h270l-53 -263h-270zM61 0l304 1520h301l-304 -1520h-301z" />
    <glyph glyph-name="Eth" unicode="&#xd0;" horiz-adv-x="1579" 
d="M1534 924q0 -272 -108 -480.5t-316 -326t-489 -117.5h-527l135 678h-170l45 225h170l123 617h473q183 0 312 -39t206 -117.5t111.5 -186t34.5 -253.5zM852 678h-322l-84 -426h209q133 0 241.5 51t178 139.5t107 206t37.5 252.5q0 195 -90 282t-310 87h-170l-74 -367h322z
" />
    <glyph glyph-name="Ntilde" unicode="&#xd1;" horiz-adv-x="1585" 
d="M1008 0l-451 1059l-211 -1059h-285l304 1520h294l451 -1059l211 1059h285l-303 -1520h-295zM760 1632l-197 17q63 333 301 333q98 0 197 -69q90 -64 137 -64q85 0 111 148l196 -17q-63 -333 -301 -333q-97 0 -196 69q-90 64 -138 64q-84 0 -110 -148z" />
    <glyph glyph-name="Ograve" unicode="&#xd2;" horiz-adv-x="1581" 
d="M1077 1626l-399 303l266 109l289 -336zM705 -29q-271 0 -424.5 160.5t-153.5 448.5q0 146 33.5 286t102.5 263.5t166.5 217t233.5 147.5t295 54q271 0 424.5 -160t153.5 -448q0 -146 -33.5 -286t-102.5 -264t-166.5 -217t-233.5 -147.5t-295 -54.5zM735 233
q92 0 172 41.5t136.5 110.5t97.5 158.5t60.5 186t19.5 192.5q0 181 -75 272.5t-218 91.5q-92 0 -172.5 -41.5t-137 -110t-97 -158t-60 -186t-19.5 -192.5q0 -181 75.5 -273t217.5 -92z" />
    <glyph glyph-name="Oacute" unicode="&#xd3;" horiz-adv-x="1581" 
d="M934 1626l-146 86l386 326l241 -146zM705 -29q-271 0 -424.5 160.5t-153.5 448.5q0 146 33.5 286t102.5 263.5t166.5 217t233.5 147.5t295 54q271 0 424.5 -160t153.5 -448q0 -146 -33.5 -286t-102.5 -264t-166.5 -217t-233.5 -147.5t-295 -54.5zM735 233q92 0 172 41.5
t136.5 110.5t97.5 158.5t60.5 186t19.5 192.5q0 181 -75 272.5t-218 91.5q-92 0 -172.5 -41.5t-137 -110t-97 -158t-60 -186t-19.5 -192.5q0 -181 75.5 -273t217.5 -92z" />
    <glyph glyph-name="Ocircumflex" unicode="&#xd4;" horiz-adv-x="1581" 
d="M1419 1669l-243 -35l-129 215l-224 -215l-260 35l387 332h234zM705 -29q-271 0 -424.5 160.5t-153.5 448.5q0 146 33.5 286t102.5 263.5t166.5 217t233.5 147.5t295 54q271 0 424.5 -160t153.5 -448q0 -146 -33.5 -286t-102.5 -264t-166.5 -217t-233.5 -147.5t-295 -54.5
zM735 233q92 0 172 41.5t136.5 110.5t97.5 158.5t60.5 186t19.5 192.5q0 181 -75 272.5t-218 91.5q-92 0 -172.5 -41.5t-137 -110t-97 -158t-60 -186t-19.5 -192.5q0 -181 75.5 -273t217.5 -92z" />
    <glyph glyph-name="Otilde" unicode="&#xd5;" horiz-adv-x="1581" 
d="M705 -29q-271 0 -424.5 160.5t-153.5 448.5q0 146 33.5 286t102.5 263.5t166.5 217t233.5 147.5t295 54q271 0 424.5 -160t153.5 -448q0 -146 -33.5 -286t-102.5 -264t-166.5 -217t-233.5 -147.5t-295 -54.5zM735 233q92 0 172 41.5t136.5 110.5t97.5 158.5t60.5 186
t19.5 192.5q0 181 -75 272.5t-218 91.5q-92 0 -172.5 -41.5t-137 -110t-97 -158t-60 -186t-19.5 -192.5q0 -181 75.5 -273t217.5 -92zM756 1632l-197 17q63 333 301 333q98 0 197 -69q90 -64 137 -64q85 0 111 148l196 -17q-63 -333 -301 -333q-97 0 -196 69q-90 64 -138 64
q-84 0 -110 -148z" />
    <glyph glyph-name="Odieresis" unicode="&#xd6;" horiz-adv-x="1581" 
d="M1110 1683l53 263h271l-54 -263h-270zM629 1683l53 263h270l-53 -263h-270zM705 -29q-271 0 -424.5 160.5t-153.5 448.5q0 146 33.5 286t102.5 263.5t166.5 217t233.5 147.5t295 54q271 0 424.5 -160t153.5 -448q0 -146 -33.5 -286t-102.5 -264t-166.5 -217
t-233.5 -147.5t-295 -54.5zM735 233q92 0 172 41.5t136.5 110.5t97.5 158.5t60.5 186t19.5 192.5q0 181 -75 272.5t-218 91.5q-92 0 -172.5 -41.5t-137 -110t-97 -158t-60 -186t-19.5 -192.5q0 -181 75.5 -273t217.5 -92z" />
    <glyph glyph-name="multiply" unicode="&#xd7;" 
d="M1184 248l-164 -166l-375 383l-375 -383l-164 166l381 375l-381 374l164 164l375 -381l375 381l164 -164l-381 -374z" />
    <glyph glyph-name="Oslash" unicode="&#xd8;" horiz-adv-x="1581" 
d="M705 -29q-236 0 -381 121l-166 -182l-138 76l201 221q-94 148 -94 373q0 146 33.5 286t102.5 263.5t166.5 217t233.5 147.5t295 54q237 0 379 -118l166 180l139 -76l-200 -221q94 -148 94 -373q0 -146 -33.5 -286t-102.5 -264t-166.5 -217t-233.5 -147.5t-295 -54.5z
M442 598q0 -72 13 -135l680 743q-74 80 -207 80q-92 0 -172.5 -41.5t-137 -110t-97 -158t-60 -186t-19.5 -192.5zM1221 922q0 76 -15 137l-680 -746q74 -80 209 -80q92 0 172 41.5t136.5 110.5t97.5 158.5t60.5 186t19.5 192.5z" />
    <glyph glyph-name="Ugrave" unicode="&#xd9;" horiz-adv-x="1531" 
d="M1053 1626l-400 303l267 109l288 -336zM1567 1520l-187 -926q-125 -623 -710 -623q-255 0 -387.5 119t-132.5 340q0 86 18 180l182 910h299l-184 -916q-12 -67 -12 -125q0 -243 249 -243q308 0 381 368l185 916h299z" />
    <glyph glyph-name="Uacute" unicode="&#xda;" horiz-adv-x="1531" 
d="M909 1626l-145 86l385 326l242 -146zM1567 1520l-187 -926q-125 -623 -710 -623q-255 0 -387.5 119t-132.5 340q0 86 18 180l182 910h299l-184 -916q-12 -67 -12 -125q0 -243 249 -243q308 0 381 368l185 916h299z" />
    <glyph glyph-name="Ucircumflex" unicode="&#xdb;" horiz-adv-x="1531" 
d="M1395 1669l-244 -35l-129 215l-223 -215l-260 35l387 332h233zM1567 1520l-187 -926q-125 -623 -710 -623q-255 0 -387.5 119t-132.5 340q0 86 18 180l182 910h299l-184 -916q-12 -67 -12 -125q0 -243 249 -243q308 0 381 368l185 916h299z" />
    <glyph glyph-name="Udieresis" unicode="&#xdc;" horiz-adv-x="1531" 
d="M1085 1683l54 263h270l-53 -263h-271zM604 1683l53 263h271l-54 -263h-270zM1567 1520l-187 -926q-125 -623 -710 -623q-255 0 -387.5 119t-132.5 340q0 86 18 180l182 910h299l-184 -916q-12 -67 -12 -125q0 -243 249 -243q308 0 381 368l185 916h299z" />
    <glyph glyph-name="Yacute" unicode="&#xdd;" horiz-adv-x="1323" 
d="M805 1626l-146 86l385 326l242 -146zM1516 1520l-705 -965l-111 -555h-301l115 571l-324 949h326l199 -693l446 693h355z" />
    <glyph glyph-name="Thorn" unicode="&#xde;" horiz-adv-x="1337" 
d="M676 301h-254l-60 -301h-301l304 1520h301l-50 -244h246q481 0 481 -414q0 -89 -21.5 -168.5t-72 -152.5t-126 -125.5t-190 -83.5t-257.5 -31zM799 1028h-230l-96 -481h232q89 0 155.5 24.5t103.5 66.5t54.5 92t17.5 108q0 98 -54.5 144t-182.5 46z" />
    <glyph glyph-name="germandbls" unicode="&#xdf;" horiz-adv-x="1337" 
d="M1243 469q0 -225 -133 -359.5t-365 -134.5q-180 0 -296 68l69 231q85 -63 197 -63q118 0 179.5 72.5t61.5 193.5q0 126 -73.5 196t-237.5 91l41 201q161 0 238 65t77 174q0 174 -184 174q-121 0 -186 -77t-96 -232l-213 -1069h-287l217 1085q19 97 48 174.5t76.5 145
t110 112.5t150.5 71t197 26q218 0 334 -96.5t116 -270.5q0 -149 -82 -247.5t-235 -129.5q142 -54 209 -152t67 -249z" />
    <glyph glyph-name="agrave" unicode="&#xe0;" horiz-adv-x="1189" 
d="M719 1231l-281 426l260 53l183 -438zM682 0l23 152q-67 -85 -158.5 -131t-198.5 -46q-139 0 -224 76.5t-85 224.5q0 197 164.5 305.5t476.5 108.5h115l2 10q8 44 8 74q0 71 -44.5 103t-142.5 32q-189 0 -366 -116l-14 231q84 51 203 81t245 30q206 0 307 -81.5
t101 -236.5q0 -55 -15 -125l-137 -692h-260zM459 193q85 0 155.5 45t114.5 127l31 157h-82q-176 0 -267.5 -54t-91.5 -151q0 -124 140 -124z" />
    <glyph glyph-name="aacute" unicode="&#xe1;" horiz-adv-x="1189" 
d="M737 1231l-166 53l312 426l260 -90zM682 0l23 152q-67 -85 -158.5 -131t-198.5 -46q-139 0 -224 76.5t-85 224.5q0 197 164.5 305.5t476.5 108.5h115l2 10q8 44 8 74q0 71 -44.5 103t-142.5 32q-189 0 -366 -116l-14 231q84 51 203 81t245 30q206 0 307 -81.5t101 -236.5
q0 -55 -15 -125l-137 -692h-260zM459 193q85 0 155.5 45t114.5 127l31 157h-82q-176 0 -267.5 -54t-91.5 -151q0 -124 140 -124z" />
    <glyph glyph-name="acircumflex" unicode="&#xe2;" horiz-adv-x="1189" 
d="M1126 1276l-227 -33l-106 291l-228 -291l-241 35l374 410h234zM682 0l23 152q-67 -85 -158.5 -131t-198.5 -46q-139 0 -224 76.5t-85 224.5q0 197 164.5 305.5t476.5 108.5h115l2 10q8 44 8 74q0 71 -44.5 103t-142.5 32q-189 0 -366 -116l-14 231q84 51 203 81t245 30
q206 0 307 -81.5t101 -236.5q0 -55 -15 -125l-137 -692h-260zM459 193q85 0 155.5 45t114.5 127l31 157h-82q-176 0 -267.5 -54t-91.5 -151q0 -124 140 -124z" />
    <glyph glyph-name="atilde" unicode="&#xe3;" horiz-adv-x="1189" 
d="M506 1257l-197 17q30 168 104.5 251t186.5 83q95 0 191 -70q86 -63 129 -63q77 0 102 147l197 -16q-30 -167 -104.5 -250.5t-186.5 -83.5q-100 0 -191 69q-83 64 -129 64q-78 0 -102 -148zM682 0l23 152q-67 -85 -158.5 -131t-198.5 -46q-139 0 -224 76.5t-85 224.5
q0 197 164.5 305.5t476.5 108.5h115l2 10q8 44 8 74q0 71 -44.5 103t-142.5 32q-189 0 -366 -116l-14 231q84 51 203 81t245 30q206 0 307 -81.5t101 -236.5q0 -55 -15 -125l-137 -692h-260zM459 193q85 0 155.5 45t114.5 127l31 157h-82q-176 0 -267.5 -54t-91.5 -151
q0 -124 140 -124z" />
    <glyph glyph-name="adieresis" unicode="&#xe4;" horiz-adv-x="1189" 
d="M834 1294l53 265h266l-53 -265h-266zM375 1294l53 265h266l-53 -265h-266zM682 0l23 152q-67 -85 -158.5 -131t-198.5 -46q-139 0 -224 76.5t-85 224.5q0 197 164.5 305.5t476.5 108.5h115l2 10q8 44 8 74q0 71 -44.5 103t-142.5 32q-189 0 -366 -116l-14 231
q84 51 203 81t245 30q206 0 307 -81.5t101 -236.5q0 -55 -15 -125l-137 -692h-260zM459 193q85 0 155.5 45t114.5 127l31 157h-82q-176 0 -267.5 -54t-91.5 -151q0 -124 140 -124z" />
    <glyph glyph-name="aring" unicode="&#xe5;" horiz-adv-x="1189" 
d="M745 1204q-114 0 -181.5 69t-67.5 177q0 128 90 214.5t219 86.5q114 0 183 -69.5t69 -176.5q0 -128 -91.5 -214.5t-220.5 -86.5zM760 1356q58 0 95.5 38.5t37.5 98.5q0 50 -26 78t-76 28q-59 0 -96.5 -38.5t-37.5 -98.5q0 -48 27 -77t76 -29zM682 0l23 152
q-67 -85 -158.5 -131t-198.5 -46q-139 0 -224 76.5t-85 224.5q0 197 164.5 305.5t476.5 108.5h115l2 10q8 44 8 74q0 71 -44.5 103t-142.5 32q-189 0 -366 -116l-14 231q84 51 203 81t245 30q206 0 307 -81.5t101 -236.5q0 -55 -15 -125l-137 -692h-260zM459 193
q85 0 155.5 45t114.5 127l31 157h-82q-176 0 -267.5 -54t-91.5 -151q0 -124 140 -124z" />
    <glyph glyph-name="ae" unicode="&#xe6;" horiz-adv-x="1851" 
d="M1681 92q-177 -117 -440 -117q-303 0 -416 185q-182 -185 -438 -185q-159 0 -253.5 76.5t-94.5 222.5q0 195 161.5 299.5t475.5 104.5h119l4 22q8 46 8 72q0 73 -45.5 105t-145.5 32q-193 0 -370 -116l-15 231q84 52 204 81.5t249 29.5q246 0 322 -134q154 134 374 134
q94 0 167.5 -23t118.5 -61t74.5 -91.5t40.5 -108t11 -116.5q0 -134 -47 -241h-715q-2 -12 -2 -39q0 -129 60.5 -190.5t214.5 -61.5q204 0 364 119zM1358 926q-111 0 -184.5 -70.5t-112.5 -185.5h450q15 35 15 86q0 76 -39.5 123t-128.5 47zM469 193q88 0 167 44.5t126 120.5
q-4 40 -4 68q0 24 4 82h-88q-176 0 -265.5 -49t-89.5 -142q0 -124 150 -124z" />
    <glyph glyph-name="ccedilla" unicode="&#xe7;" horiz-adv-x="1064" 
d="M696 -252q0 -119 -89 -185.5t-249 -66.5q-111 0 -231 41l66 182q82 -45 184 -45q57 0 89 20t32 54q0 16 -10.5 28.5t-53.5 30t-121 33.5l90 148q-158 31 -244.5 144.5t-86.5 303.5q0 103 25 202.5t78 189.5t127.5 158t182 108.5t234.5 40.5q230 0 344 -119l-88 -232
q-96 111 -252 111q-72 0 -133 -25.5t-102.5 -68t-70.5 -98.5t-42 -116t-13 -122q0 -250 238 -250q163 0 297 115l18 -236q-69 -51 -168.5 -85t-216.5 -34h-6l-26 -36q115 -36 156.5 -80.5t41.5 -110.5z" />
    <glyph glyph-name="egrave" unicode="&#xe8;" horiz-adv-x="1185" 
d="M729 1231l-280 426l260 53l182 -438zM1016 92q-177 -117 -441 -117q-253 0 -378 118t-125 343q0 100 24.5 198t76.5 189t126 160t181.5 110.5t234.5 41.5q94 0 167.5 -23.5t118.5 -61t74 -91t40 -108.5t11 -118q0 -141 -51 -248h-713v-30q0 -129 60.5 -190.5t214.5 -61.5
q201 0 364 119zM690 926q-112 0 -186 -73.5t-111 -190.5h449q16 33 16 92q0 172 -168 172z" />
    <glyph glyph-name="eacute" unicode="&#xe9;" horiz-adv-x="1185" 
d="M752 1231l-166 53l311 426l260 -90zM1016 92q-177 -117 -441 -117q-253 0 -378 118t-125 343q0 100 24.5 198t76.5 189t126 160t181.5 110.5t234.5 41.5q94 0 167.5 -23.5t118.5 -61t74 -91t40 -108.5t11 -118q0 -141 -51 -248h-713v-30q0 -129 60.5 -190.5t214.5 -61.5
q201 0 364 119zM690 926q-112 0 -186 -73.5t-111 -190.5h449q16 33 16 92q0 172 -168 172z" />
    <glyph glyph-name="ecircumflex" unicode="&#xea;" horiz-adv-x="1185" 
d="M1141 1276l-228 -33l-106 291l-227 -291l-242 35l375 410h233zM1016 92q-177 -117 -441 -117q-253 0 -378 118t-125 343q0 100 24.5 198t76.5 189t126 160t181.5 110.5t234.5 41.5q94 0 167.5 -23.5t118.5 -61t74 -91t40 -108.5t11 -118q0 -141 -51 -248h-713v-30
q0 -129 60.5 -190.5t214.5 -61.5q201 0 364 119zM690 926q-112 0 -186 -73.5t-111 -190.5h449q16 33 16 92q0 172 -168 172z" />
    <glyph glyph-name="edieresis" unicode="&#xeb;" horiz-adv-x="1185" 
d="M848 1294l53 265h266l-53 -265h-266zM389 1294l53 265h267l-54 -265h-266zM1016 92q-177 -117 -441 -117q-253 0 -378 118t-125 343q0 100 24.5 198t76.5 189t126 160t181.5 110.5t234.5 41.5q94 0 167.5 -23.5t118.5 -61t74 -91t40 -108.5t11 -118q0 -141 -51 -248h-713
v-30q0 -129 60.5 -190.5t214.5 -61.5q201 0 364 119zM690 926q-112 0 -186 -73.5t-111 -190.5h449q16 33 16 92q0 172 -168 172z" />
    <glyph glyph-name="igrave" unicode="&#xec;" horiz-adv-x="591" 
d="M428 1231l-281 426l261 53l182 -438zM41 0l223 1110h287l-223 -1110h-287z" />
    <glyph glyph-name="iacute" unicode="&#xed;" horiz-adv-x="591" 
d="M426 1231l-166 53l311 426l260 -90zM41 0l223 1110h287l-223 -1110h-287z" />
    <glyph glyph-name="icircumflex" unicode="&#xee;" horiz-adv-x="602" 
d="M797 1276l-213 -33l-78 287l-189 -287l-227 35l326 410h227zM45 0l223 1110h287l-223 -1110h-287z" />
    <glyph glyph-name="idieresis" unicode="&#xef;" horiz-adv-x="602" 
d="M524 1294l54 265h262l-54 -265h-262zM111 1294l53 265h262l-53 -265h-262zM45 0l223 1110h287l-223 -1110h-287z" />
    <glyph glyph-name="eth" unicode="&#xf0;" horiz-adv-x="1234" 
d="M1167 752q0 -164 -39 -303.5t-115 -246t-197 -167t-275 -60.5q-222 0 -345.5 122t-123.5 345q0 173 71 315.5t197 225t281 82.5q191 0 282 -141q-44 185 -158 329l-260 -114l-86 114l246 109q-87 84 -215 170l275 106q104 -84 180 -168l248 111l88 -117l-242 -106
q188 -262 188 -606zM362 455q0 -121 49.5 -183.5t145.5 -62.5q150 0 239 137t89 363q-24 65 -78 102t-131 37q-144 0 -229 -115.5t-85 -277.5z" />
    <glyph glyph-name="ntilde" unicode="&#xf1;" horiz-adv-x="1257" 
d="M457 688l-138 -688h-286l223 1110h260l-31 -188q74 99 172 156t213 57q132 0 211.5 -76.5t79.5 -229.5q0 -66 -14 -137l-139 -692h-287l135 676q10 52 10 84q0 125 -123 125q-82 0 -160 -51t-126 -146zM539 1257l-197 17q30 168 104.5 251t186.5 83q94 0 190 -70
q86 -63 129 -63q78 0 103 147l196 -16q-30 -167 -104 -250.5t-186 -83.5q-100 0 -191 69q-83 64 -129 64q-78 0 -102 -148z" />
    <glyph glyph-name="ograve" unicode="&#xf2;" horiz-adv-x="1234" 
d="M735 1231l-280 426l260 53l182 -438zM537 -25q-97 0 -179.5 27t-147 81.5t-101.5 144.5t-37 208q0 103 25.5 203t77.5 190t125 158t176 108t222 40q97 0 179.5 -27t147 -81.5t101.5 -144.5t37 -208q0 -103 -25.5 -203t-77.5 -190t-125 -158t-176 -108t-222 -40zM559 209
q74 0 135 40.5t99 106.5t58.5 144.5t20.5 158.5q0 121 -50 181.5t-144 60.5q-74 0 -136 -40.5t-100 -106.5t-59 -144.5t-21 -158.5q0 -121 51.5 -181.5t145.5 -60.5z" />
    <glyph glyph-name="oacute" unicode="&#xf3;" horiz-adv-x="1234" 
d="M758 1231l-166 53l311 426l260 -90zM537 -25q-97 0 -179.5 27t-147 81.5t-101.5 144.5t-37 208q0 103 25.5 203t77.5 190t125 158t176 108t222 40q97 0 179.5 -27t147 -81.5t101.5 -144.5t37 -208q0 -103 -25.5 -203t-77.5 -190t-125 -158t-176 -108t-222 -40zM559 209
q74 0 135 40.5t99 106.5t58.5 144.5t20.5 158.5q0 121 -50 181.5t-144 60.5q-74 0 -136 -40.5t-100 -106.5t-59 -144.5t-21 -158.5q0 -121 51.5 -181.5t145.5 -60.5z" />
    <glyph glyph-name="ocircumflex" unicode="&#xf4;" horiz-adv-x="1234" 
d="M1147 1276l-227 -33l-107 291l-227 -291l-242 35l375 410h233zM537 -25q-97 0 -179.5 27t-147 81.5t-101.5 144.5t-37 208q0 103 25.5 203t77.5 190t125 158t176 108t222 40q97 0 179.5 -27t147 -81.5t101.5 -144.5t37 -208q0 -103 -25.5 -203t-77.5 -190t-125 -158
t-176 -108t-222 -40zM559 209q74 0 135 40.5t99 106.5t58.5 144.5t20.5 158.5q0 121 -50 181.5t-144 60.5q-74 0 -136 -40.5t-100 -106.5t-59 -144.5t-21 -158.5q0 -121 51.5 -181.5t145.5 -60.5z" />
    <glyph glyph-name="otilde" unicode="&#xf5;" horiz-adv-x="1234" 
d="M537 -25q-97 0 -179.5 27t-147 81.5t-101.5 144.5t-37 208q0 103 25.5 203t77.5 190t125 158t176 108t222 40q97 0 179.5 -27t147 -81.5t101.5 -144.5t37 -208q0 -103 -25.5 -203t-77.5 -190t-125 -158t-176 -108t-222 -40zM559 209q74 0 135 40.5t99 106.5t58.5 144.5
t20.5 158.5q0 121 -50 181.5t-144 60.5q-74 0 -136 -40.5t-100 -106.5t-59 -144.5t-21 -158.5q0 -121 51.5 -181.5t145.5 -60.5zM526 1257l-196 17q30 168 104.5 251t186.5 83q94 0 190 -70q86 -63 129 -63q77 0 102 147l197 -16q-30 -167 -104.5 -250.5t-186.5 -83.5
q-99 0 -190 69q-83 64 -129 64q-79 0 -103 -148z" />
    <glyph glyph-name="odieresis" unicode="&#xf6;" horiz-adv-x="1234" 
d="M854 1294l53 265h267l-54 -265h-266zM395 1294l54 265h266l-53 -265h-267zM537 -25q-97 0 -179.5 27t-147 81.5t-101.5 144.5t-37 208q0 103 25.5 203t77.5 190t125 158t176 108t222 40q97 0 179.5 -27t147 -81.5t101.5 -144.5t37 -208q0 -103 -25.5 -203t-77.5 -190
t-125 -158t-176 -108t-222 -40zM559 209q74 0 135 40.5t99 106.5t58.5 144.5t20.5 158.5q0 121 -50 181.5t-144 60.5q-74 0 -136 -40.5t-100 -106.5t-59 -144.5t-21 -158.5q0 -121 51.5 -181.5t145.5 -60.5z" />
    <glyph glyph-name="divide" unicode="&#xf7;" 
d="M465 1067q0 75 52.5 128.5t127.5 53.5t127.5 -53.5t52.5 -128.5t-52.5 -127.5t-127.5 -52.5t-127.5 52.5t-52.5 127.5zM106 510v223h1078v-223h-1078zM465 176q0 76 52.5 129t127.5 53t127.5 -53t52.5 -129q0 -75 -52.5 -127.5t-127.5 -52.5t-127.5 52.5t-52.5 127.5z
" />
    <glyph glyph-name="oslash" unicode="&#xf8;" horiz-adv-x="1234" 
d="M537 -25q-166 0 -285 76l-158 -172l-121 72l181 196q-82 116 -82 289q0 103 25.5 203t77.5 190t125 158t176 108t222 40q166 0 285 -76l158 172l121 -72l-181 -196q82 -116 82 -289q0 -103 -25.5 -203t-77.5 -190t-125 -158t-176 -108t-222 -40zM362 451q0 -18 5 -68
l436 477q-50 41 -125 41q-74 0 -136 -40.5t-100 -106.5t-59 -144.5t-21 -158.5zM872 659q0 28 -4 68l-436 -477q50 -41 127 -41q74 0 135 40.5t99 106.5t58.5 144.5t20.5 158.5z" />
    <glyph glyph-name="ugrave" unicode="&#xf9;" horiz-adv-x="1257" 
d="M741 1231l-280 426l260 53l182 -438zM741 0l29 193q-151 -218 -381 -218q-132 0 -213.5 76.5t-81.5 229.5q0 50 17 137l137 692h287l-136 -676q-8 -41 -8 -82q0 -64 30.5 -95.5t96.5 -31.5q95 0 167 59.5t118 153.5l133 672h287l-222 -1110h-260z" />
    <glyph glyph-name="uacute" unicode="&#xfa;" horiz-adv-x="1257" 
d="M764 1231l-166 53l311 426l260 -90zM741 0l29 193q-151 -218 -381 -218q-132 0 -213.5 76.5t-81.5 229.5q0 50 17 137l137 692h287l-136 -676q-8 -41 -8 -82q0 -64 30.5 -95.5t96.5 -31.5q95 0 167 59.5t118 153.5l133 672h287l-222 -1110h-260z" />
    <glyph glyph-name="ucircumflex" unicode="&#xfb;" horiz-adv-x="1257" 
d="M1153 1276l-227 -33l-107 291l-227 -291l-242 35l375 410h233zM741 0l29 193q-151 -218 -381 -218q-132 0 -213.5 76.5t-81.5 229.5q0 50 17 137l137 692h287l-136 -676q-8 -41 -8 -82q0 -64 30.5 -95.5t96.5 -31.5q95 0 167 59.5t118 153.5l133 672h287l-222 -1110h-260
z" />
    <glyph glyph-name="udieresis" unicode="&#xfc;" horiz-adv-x="1257" 
d="M860 1294l53 265h267l-54 -265h-266zM401 1294l54 265h266l-53 -265h-267zM741 0l29 193q-151 -218 -381 -218q-132 0 -213.5 76.5t-81.5 229.5q0 50 17 137l137 692h287l-136 -676q-8 -41 -8 -82q0 -64 30.5 -95.5t96.5 -31.5q95 0 167 59.5t118 153.5l133 672h287
l-222 -1110h-260z" />
    <glyph glyph-name="yacute" unicode="&#xfd;" horiz-adv-x="1177" 
d="M729 1231l-166 53l311 426l261 -90zM639 10q-108 -195 -200 -300t-177 -143t-199 -38q-124 0 -208 43l67 238q68 -39 156 -39q70 0 128.5 46t125.5 167l-197 1126h307l88 -846l400 846h321z" />
    <glyph glyph-name="thorn" unicode="&#xfe;" 
d="M639 -25q-191 0 -297 129l-111 -546h-286l407 2035h287l-125 -626q136 168 338 168q176 0 271.5 -117t95.5 -320q0 -141 -40.5 -270.5t-113 -230.5t-183.5 -161.5t-243 -60.5zM385 322q28 -54 83.5 -84.5t123.5 -30.5q99 0 176 64.5t116.5 166t39.5 217.5q0 236 -191 236
q-85 0 -156 -48t-114 -134z" />
    <glyph glyph-name="ydieresis" unicode="&#xff;" horiz-adv-x="1177" 
d="M825 1294l54 265h266l-53 -265h-267zM367 1294l53 265h266l-53 -265h-266zM639 10q-108 -195 -200 -300t-177 -143t-199 -38q-124 0 -208 43l67 238q68 -39 156 -39q70 0 128.5 46t125.5 167l-197 1126h307l88 -846l400 846h321z" />
    <glyph glyph-name="Amacron" unicode="&#x100;" horiz-adv-x="1480" 
d="M582 1716l39 197h759l-39 -197h-759zM1028 0l-41 352h-557l-176 -352h-340l831 1520h373l228 -1520h-318zM553 596h405l-75 661z" />
    <glyph glyph-name="amacron" unicode="&#x101;" horiz-adv-x="1189" 
d="M401 1327l39 199h686l-39 -199h-686zM682 0l23 152q-67 -85 -158.5 -131t-198.5 -46q-139 0 -224 76.5t-85 224.5q0 197 164.5 305.5t476.5 108.5h115l2 10q8 44 8 74q0 71 -44.5 103t-142.5 32q-189 0 -366 -116l-14 231q84 51 203 81t245 30q206 0 307 -81.5
t101 -236.5q0 -55 -15 -125l-137 -692h-260zM459 193q85 0 155.5 45t114.5 127l31 157h-82q-176 0 -267.5 -54t-91.5 -151q0 -124 140 -124z" />
    <glyph glyph-name="Abreve" unicode="&#x102;" horiz-adv-x="1480" 
d="M635 1982l203 13q-7 -35 -7 -56q0 -122 138 -122q161 0 207 178l217 -13q-44 -178 -161.5 -265t-281.5 -87q-152 0 -236.5 72.5t-84.5 204.5q0 35 6 75zM1028 0l-41 352h-557l-176 -352h-340l831 1520h373l228 -1520h-318zM553 596h405l-75 661z" />
    <glyph glyph-name="abreve" unicode="&#x103;" horiz-adv-x="1189" 
d="M426 1630l203 12q-8 -54 -8 -73q0 -142 133 -142q163 0 213 215l217 -12q-48 -193 -167 -291t-284 -98q-148 0 -231.5 77.5t-83.5 221.5q0 46 8 90zM682 0l23 152q-67 -85 -158.5 -131t-198.5 -46q-139 0 -224 76.5t-85 224.5q0 197 164.5 305.5t476.5 108.5h115l2 10
q8 44 8 74q0 71 -44.5 103t-142.5 32q-189 0 -366 -116l-14 231q84 51 203 81t245 30q206 0 307 -81.5t101 -236.5q0 -55 -15 -125l-137 -692h-260zM459 193q85 0 155.5 45t114.5 127l31 157h-82q-176 0 -267.5 -54t-91.5 -151q0 -124 140 -124z" />
    <glyph glyph-name="Aogonek" unicode="&#x104;" horiz-adv-x="1480" 
d="M1255 -446q-91 -58 -217 -58q-117 0 -180 52.5t-63 148.5q0 92 56.5 165.5t176.5 143.5l-41 346h-557l-176 -352h-340l831 1520h373l228 -1520h-64q-131 -42 -204.5 -101.5t-73.5 -129.5q0 -80 94 -80q62 0 147 49zM553 596h405l-75 661z" />
    <glyph glyph-name="aogonek" unicode="&#x105;" horiz-adv-x="1189" 
d="M879 -446q-91 -58 -213 -58q-116 0 -178 51t-62 148q0 95 61.5 172t196.5 145l21 140q-67 -85 -158.5 -131t-198.5 -46q-139 0 -224 76.5t-85 224.5q0 197 164.5 305.5t476.5 108.5h115l2 10q8 44 8 74q0 71 -44.5 103t-142.5 32q-189 0 -366 -116l-14 231q84 51 203 81
t245 30q206 0 307 -81.5t101 -236.5q0 -55 -15 -125l-137 -692h-31q-132 -47 -205 -108t-73 -130q0 -73 92 -73q60 0 145 49zM459 193q85 0 155.5 45t114.5 127l31 157h-82q-176 0 -267.5 -54t-91.5 -151q0 -124 140 -124z" />
    <glyph glyph-name="Cacute" unicode="&#x106;" horiz-adv-x="1392" 
d="M938 1626l-145 86l385 326l241 -146zM1251 129q-82 -67 -214 -112.5t-296 -45.5q-292 0 -453 159.5t-161 471.5q0 144 34.5 280.5t107 257.5t175 211.5t247.5 143.5t315 53q283 0 440 -139l-107 -281q-132 158 -348 158q-103 0 -192 -36.5t-153 -99.5t-110.5 -146.5
t-69 -179.5t-22.5 -197q0 -198 90 -296t261 -98q239 0 434 179z" />
    <glyph glyph-name="cacute" unicode="&#x107;" horiz-adv-x="1064" 
d="M729 1231l-166 53l311 426l261 -90zM915 94q-69 -51 -168.5 -85t-216.5 -34q-215 0 -336.5 117.5t-121.5 343.5q0 103 25 202.5t78 189.5t127.5 158t182 108.5t234.5 40.5q230 0 344 -119l-88 -232q-96 111 -252 111q-72 0 -133 -25.5t-102.5 -68t-70.5 -98.5t-42 -116
t-13 -122q0 -250 238 -250q163 0 297 115z" />
    <glyph glyph-name="Ccircumflex" unicode="&#x108;" horiz-adv-x="1392" 
d="M1423 1669l-243 -35l-129 215l-224 -215l-260 35l387 332h234zM1251 129q-82 -67 -214 -112.5t-296 -45.5q-292 0 -453 159.5t-161 471.5q0 144 34.5 280.5t107 257.5t175 211.5t247.5 143.5t315 53q283 0 440 -139l-107 -281q-132 158 -348 158q-103 0 -192 -36.5
t-153 -99.5t-110.5 -146.5t-69 -179.5t-22.5 -197q0 -198 90 -296t261 -98q239 0 434 179z" />
    <glyph glyph-name="ccircumflex" unicode="&#x109;" horiz-adv-x="1064" 
d="M1133 1276l-228 -33l-106 291l-228 -291l-241 35l375 410h233zM915 94q-69 -51 -168.5 -85t-216.5 -34q-215 0 -336.5 117.5t-121.5 343.5q0 103 25 202.5t78 189.5t127.5 158t182 108.5t234.5 40.5q230 0 344 -119l-88 -232q-96 111 -252 111q-72 0 -133 -25.5
t-102.5 -68t-70.5 -98.5t-42 -116t-13 -122q0 -250 238 -250q163 0 297 115z" />
    <glyph glyph-name="Cdotaccent" unicode="&#x10a;" horiz-adv-x="1392" 
d="M858 1683l53 263h316l-53 -263h-316zM1251 129q-82 -67 -214 -112.5t-296 -45.5q-292 0 -453 159.5t-161 471.5q0 144 34.5 280.5t107 257.5t175 211.5t247.5 143.5t315 53q283 0 440 -139l-107 -281q-132 158 -348 158q-103 0 -192 -36.5t-153 -99.5t-110.5 -146.5
t-69 -179.5t-22.5 -197q0 -198 90 -296t261 -98q239 0 434 179z" />
    <glyph glyph-name="cdotaccent" unicode="&#x10b;" horiz-adv-x="1064" 
d="M582 1294l53 265h313l-53 -265h-313zM915 94q-69 -51 -168.5 -85t-216.5 -34q-215 0 -336.5 117.5t-121.5 343.5q0 103 25 202.5t78 189.5t127.5 158t182 108.5t234.5 40.5q230 0 344 -119l-88 -232q-96 111 -252 111q-72 0 -133 -25.5t-102.5 -68t-70.5 -98.5t-42 -116
t-13 -122q0 -250 238 -250q163 0 297 115z" />
    <glyph glyph-name="Ccaron" unicode="&#x10c;" horiz-adv-x="1392" 
d="M1503 1978l-387 -329h-233l-236 329l244 35l129 -213l223 215zM1251 129q-82 -67 -214 -112.5t-296 -45.5q-292 0 -453 159.5t-161 471.5q0 144 34.5 280.5t107 257.5t175 211.5t247.5 143.5t315 53q283 0 440 -139l-107 -281q-132 158 -348 158q-103 0 -192 -36.5
t-153 -99.5t-110.5 -146.5t-69 -179.5t-22.5 -197q0 -198 90 -296t261 -98q239 0 434 179z" />
    <glyph glyph-name="ccaron" unicode="&#x10d;" horiz-adv-x="1064" 
d="M1210 1651l-372 -402h-234l-194 402l229 35l104 -283l226 285zM915 94q-69 -51 -168.5 -85t-216.5 -34q-215 0 -336.5 117.5t-121.5 343.5q0 103 25 202.5t78 189.5t127.5 158t182 108.5t234.5 40.5q230 0 344 -119l-88 -232q-96 111 -252 111q-72 0 -133 -25.5
t-102.5 -68t-70.5 -98.5t-42 -116t-13 -122q0 -250 238 -250q163 0 297 115z" />
    <glyph glyph-name="Dcaron" unicode="&#x10e;" horiz-adv-x="1546" 
d="M1421 1978l-387 -329h-233l-236 329l244 35l129 -213l223 215zM1501 924q0 -272 -108 -480.5t-316 -326t-489 -117.5h-527l304 1520h473q183 0 311.5 -39t205.5 -117.5t111.5 -186t34.5 -253.5zM786 1270h-170l-202 -1018h209q177 0 306.5 88.5t193 233.5t63.5 327
q0 195 -90 282t-310 87z" />
    <glyph glyph-name="dcaron" unicode="&#x10f;" horiz-adv-x="1359" 
d="M1589 1204h-186l141 475h273zM776 0l29 174q-143 -199 -365 -199q-177 0 -272.5 117t-95.5 320q0 141 40 270.5t113 230.5t184 161.5t244 60.5q195 0 297 -131l119 589h287l-320 -1593h-260zM367 455q0 -118 49 -177t141 -59q86 0 156.5 49t117.5 142l76 381
q-28 51 -83 81.5t-124 30.5q-100 0 -177.5 -64.5t-116.5 -166t-39 -217.5z" />
    <glyph glyph-name="Dcroat" unicode="&#x110;" horiz-adv-x="1579" 
d="M1534 924q0 -272 -108 -480.5t-316 -326t-489 -117.5h-527l135 680h-170l45 221h170l123 619h473q183 0 312 -39t206 -117.5t111.5 -186t34.5 -253.5zM852 680h-320l-86 -428h209q133 0 241.5 51t178 139.5t107 206t37.5 252.5q0 195 -90 282t-310 87h-170l-74 -369h322z
" />
    <glyph glyph-name="dcroat" unicode="&#x111;" horiz-adv-x="1296" 
d="M776 0l29 174q-143 -199 -365 -199q-177 0 -272.5 117t-95.5 320q0 141 40 270.5t113 230.5t184 161.5t244 60.5q191 0 297 -131l51 251h-315l35 172h313l39 191h287l-39 -191h143l-34 -172h-142l-252 -1255h-260zM367 455q0 -118 49 -177t141 -59q87 0 158 49t116 142
l76 381q-28 52 -82.5 82t-124.5 30q-100 0 -177.5 -64.5t-116.5 -166t-39 -217.5z" />
    <glyph glyph-name="Emacron" unicode="&#x112;" horiz-adv-x="1298" 
d="M516 1716l39 197h760l-39 -197h-760zM1133 254l-52 -254h-1020l304 1520h1003l-51 -252h-703l-71 -357h620l-49 -243h-618l-84 -414h721z" />
    <glyph glyph-name="emacron" unicode="&#x113;" horiz-adv-x="1185" 
d="M416 1327l39 199h686l-39 -199h-686zM1016 92q-177 -117 -441 -117q-253 0 -378 118t-125 343q0 100 24.5 198t76.5 189t126 160t181.5 110.5t234.5 41.5q94 0 167.5 -23.5t118.5 -61t74 -91t40 -108.5t11 -118q0 -141 -51 -248h-713v-30q0 -129 60.5 -190.5t214.5 -61.5
q201 0 364 119zM690 926q-112 0 -186 -73.5t-111 -190.5h449q16 33 16 92q0 172 -168 172z" />
    <glyph glyph-name="Ebreve" unicode="&#x114;" horiz-adv-x="1298" 
d="M569 1982l203 13q-6 -30 -6 -56q0 -122 137 -122q161 0 207 178l217 -13q-44 -178 -161 -265t-281 -87q-153 0 -237.5 72.5t-84.5 204.5q0 35 6 75zM1133 254l-52 -254h-1020l304 1520h1003l-51 -252h-703l-71 -357h620l-49 -243h-618l-84 -414h721z" />
    <glyph glyph-name="ebreve" unicode="&#x115;" horiz-adv-x="1185" 
d="M440 1630l203 12q-8 -54 -8 -73q0 -142 133 -142q163 0 213 215l217 -12q-48 -193 -166.5 -291t-283.5 -98q-148 0 -232 77.5t-84 221.5q0 46 8 90zM1016 92q-177 -117 -441 -117q-253 0 -378 118t-125 343q0 100 24.5 198t76.5 189t126 160t181.5 110.5t234.5 41.5
q94 0 167.5 -23.5t118.5 -61t74 -91t40 -108.5t11 -118q0 -141 -51 -248h-713v-30q0 -129 60.5 -190.5t214.5 -61.5q201 0 364 119zM690 926q-112 0 -186 -73.5t-111 -190.5h449q16 33 16 92q0 172 -168 172z" />
    <glyph glyph-name="Edotaccent" unicode="&#x116;" horiz-adv-x="1298" 
d="M737 1683l54 263h315l-53 -263h-316zM1133 254l-52 -254h-1020l304 1520h1003l-51 -252h-703l-71 -357h620l-49 -243h-618l-84 -414h721z" />
    <glyph glyph-name="edotaccent" unicode="&#x117;" horiz-adv-x="1185" 
d="M596 1294l53 265h314l-54 -265h-313zM1016 92q-177 -117 -441 -117q-253 0 -378 118t-125 343q0 100 24.5 198t76.5 189t126 160t181.5 110.5t234.5 41.5q94 0 167.5 -23.5t118.5 -61t74 -91t40 -108.5t11 -118q0 -141 -51 -248h-713v-30q0 -129 60.5 -190.5t214.5 -61.5
q201 0 364 119zM690 926q-112 0 -186 -73.5t-111 -190.5h449q16 33 16 92q0 172 -168 172z" />
    <glyph glyph-name="Eogonek" unicode="&#x118;" horiz-adv-x="1298" 
d="M514 -303q0 92 55.5 165t167.5 138h-676l304 1520h1003l-51 -252h-703l-71 -357h620l-49 -243h-618l-84 -414h721l-52 -254h-84q-126 -32 -201 -95t-75 -136q0 -80 94 -80q65 0 150 49l8 -184q-91 -58 -215 -58q-117 0 -180.5 52.5t-63.5 148.5z" />
    <glyph glyph-name="eogonek" unicode="&#x119;" horiz-adv-x="1185" 
d="M842 -446q-91 -58 -217 -58q-117 0 -180.5 52.5t-63.5 148.5q0 81 44 148t144 130q-250 1 -373.5 119.5t-123.5 341.5q0 100 24.5 198t76.5 189t126 160t181.5 110.5t234.5 41.5q94 0 167.5 -23.5t118.5 -61t74 -91t40 -108.5t11 -118q0 -141 -51 -248h-713v-30
q0 -129 60.5 -190.5t214.5 -61.5q201 0 364 119l15 -230q-69 -46 -168 -78q-258 -108 -258 -245q0 -80 94 -80q62 0 147 49zM690 926q-112 0 -186 -73.5t-111 -190.5h449q16 33 16 92q0 172 -168 172z" />
    <glyph glyph-name="Ecaron" unicode="&#x11a;" horiz-adv-x="1298" 
d="M1382 1978l-387 -329h-233l-236 329l244 35l129 -213l223 215zM1133 254l-52 -254h-1020l304 1520h1003l-51 -252h-703l-71 -357h620l-49 -243h-618l-84 -414h721z" />
    <glyph glyph-name="ecaron" unicode="&#x11b;" horiz-adv-x="1185" 
d="M1227 1651l-373 -402h-233l-195 402l229 35l105 -283l225 285zM1016 92q-177 -117 -441 -117q-253 0 -378 118t-125 343q0 100 24.5 198t76.5 189t126 160t181.5 110.5t234.5 41.5q94 0 167.5 -23.5t118.5 -61t74 -91t40 -108.5t11 -118q0 -141 -51 -248h-713v-30
q0 -129 60.5 -190.5t214.5 -61.5q201 0 364 119zM690 926q-112 0 -186 -73.5t-111 -190.5h449q16 33 16 92q0 172 -168 172z" />
    <glyph glyph-name="Gcircumflex" unicode="&#x11c;" horiz-adv-x="1544" 
d="M1446 1669l-244 -35l-129 215l-223 -215l-260 35l387 332h233zM1321 123q-91 -63 -236 -107.5t-319 -44.5q-311 0 -475 159t-164 476q0 145 34 280.5t107 256.5t178 210.5t257.5 142t334.5 52.5q313 0 492 -139l-107 -281q-67 70 -171 114t-234 44q-141 0 -253 -55
t-180.5 -148.5t-104.5 -210.5t-36 -247q0 -199 90 -295.5t285 -96.5q139 0 260 43l66 330h-348l47 230h620z" />
    <glyph glyph-name="gcircumflex" unicode="&#x11d;" 
d="M1178 1276l-228 -33l-106 291l-228 -291l-241 35l375 410h233zM1038 8q-26 -131 -81.5 -225.5t-136 -150t-178.5 -81.5t-220 -26q-281 0 -449 121l70 229q64 -55 167.5 -89t219.5 -34q135 0 215.5 62.5t108.5 208.5l24 127q-132 -164 -336 -164q-177 0 -273.5 114.5
t-96.5 315.5q0 139 40.5 268t113.5 229.5t184 161t243 60.5q207 0 310 -156l34 131h260zM367 459q0 -118 49 -177t141 -59q87 0 158 49.5t116 139.5l74 368q-28 58 -83 90.5t-124 32.5q-99 0 -176 -64t-116 -164.5t-39 -215.5z" />
    <glyph glyph-name="Gbreve" unicode="&#x11e;" horiz-adv-x="1544" 
d="M713 1982l202 13q-6 -30 -6 -56q0 -122 138 -122q160 0 206 178l217 -13q-44 -178 -161 -265t-281 -87q-152 0 -236.5 72.5t-84.5 204.5q0 35 6 75zM1321 123q-91 -63 -236 -107.5t-319 -44.5q-311 0 -475 159t-164 476q0 145 34 280.5t107 256.5t178 210.5t257.5 142
t334.5 52.5q313 0 492 -139l-107 -281q-67 70 -171 114t-234 44q-141 0 -253 -55t-180.5 -148.5t-104.5 -210.5t-36 -247q0 -199 90 -295.5t285 -96.5q139 0 260 43l66 330h-348l47 230h620z" />
    <glyph glyph-name="gbreve" unicode="&#x11f;" 
d="M477 1630l203 12q-8 -54 -8 -73q0 -142 133 -142q163 0 213 215l217 -12q-48 -193 -167 -291t-284 -98q-148 0 -231.5 77.5t-83.5 221.5q0 46 8 90zM1038 8q-26 -131 -81.5 -225.5t-136 -150t-178.5 -81.5t-220 -26q-281 0 -449 121l70 229q64 -55 167.5 -89t219.5 -34
q135 0 215.5 62.5t108.5 208.5l24 127q-132 -164 -336 -164q-177 0 -273.5 114.5t-96.5 315.5q0 139 40.5 268t113.5 229.5t184 161t243 60.5q207 0 310 -156l34 131h260zM367 459q0 -118 49 -177t141 -59q87 0 158 49.5t116 139.5l74 368q-28 58 -83 90.5t-124 32.5
q-99 0 -176 -64t-116 -164.5t-39 -215.5z" />
    <glyph glyph-name="Gdotaccent" unicode="&#x120;" horiz-adv-x="1544" 
d="M881 1683l53 263h315l-53 -263h-315zM1321 123q-91 -63 -236 -107.5t-319 -44.5q-311 0 -475 159t-164 476q0 145 34 280.5t107 256.5t178 210.5t257.5 142t334.5 52.5q313 0 492 -139l-107 -281q-67 70 -171 114t-234 44q-141 0 -253 -55t-180.5 -148.5t-104.5 -210.5
t-36 -247q0 -199 90 -295.5t285 -96.5q139 0 260 43l66 330h-348l47 230h620z" />
    <glyph glyph-name="gdotaccent" unicode="&#x121;" 
d="M635 1294l53 265h313l-53 -265h-313zM1038 8q-26 -131 -81.5 -225.5t-136 -150t-178.5 -81.5t-220 -26q-281 0 -449 121l70 229q64 -55 167.5 -89t219.5 -34q135 0 215.5 62.5t108.5 208.5l24 127q-132 -164 -336 -164q-177 0 -273.5 114.5t-96.5 315.5q0 139 40.5 268
t113.5 229.5t184 161t243 60.5q207 0 310 -156l34 131h260zM367 459q0 -118 49 -177t141 -59q87 0 158 49.5t116 139.5l74 368q-28 58 -83 90.5t-124 32.5q-99 0 -176 -64t-116 -164.5t-39 -215.5z" />
    <glyph glyph-name="uni0122" unicode="&#x122;" horiz-adv-x="1544" 
d="M1321 123q-91 -63 -236 -107.5t-319 -44.5q-311 0 -475 159t-164 476q0 145 34 280.5t107 256.5t178 210.5t257.5 142t334.5 52.5q313 0 492 -139l-107 -281q-67 70 -171 114t-234 44q-141 0 -253 -55t-180.5 -148.5t-104.5 -210.5t-36 -247q0 -199 90 -295.5t285 -96.5
q139 0 260 43l66 330h-348l47 230h620zM623 -520l-203 49q158 172 180 365h254q-39 -254 -231 -414z" />
    <glyph glyph-name="uni0123" unicode="&#x123;" 
d="M854 1679l205 -47q-138 -169 -158 -366h-254q33 256 207 413zM1038 8q-26 -131 -81.5 -225.5t-136 -150t-178.5 -81.5t-220 -26q-281 0 -449 121l70 229q64 -55 167.5 -89t219.5 -34q135 0 215.5 62.5t108.5 208.5l24 127q-132 -164 -336 -164q-177 0 -273.5 114.5
t-96.5 315.5q0 139 40.5 268t113.5 229.5t184 161t243 60.5q207 0 310 -156l34 131h260zM367 459q0 -118 49 -177t141 -59q87 0 158 49.5t116 139.5l74 368q-28 58 -83 90.5t-124 32.5q-99 0 -176 -64t-116 -164.5t-39 -215.5z" />
    <glyph glyph-name="Hcircumflex" unicode="&#x124;" horiz-adv-x="1560" 
d="M1409 1669l-244 -35l-129 215l-223 -215l-260 35l387 332h234zM975 0l133 664h-612l-134 -664h-301l304 1520h301l-121 -605h612l121 605h301l-303 -1520h-301z" />
    <glyph glyph-name="hcircumflex" unicode="&#x125;" horiz-adv-x="1257" 
d="M1253 1669l-243 -35l-129 215l-224 -215l-260 35l387 332h234zM457 688l-138 -688h-286l319 1593h287l-131 -647q151 189 362 189q132 0 211.5 -76.5t79.5 -229.5q0 -66 -14 -137l-139 -692h-287l135 676q10 52 10 84q0 125 -123 125q-82 0 -160 -51t-126 -146z" />
    <glyph glyph-name="Hbar" unicode="&#x126;" horiz-adv-x="1587" 
d="M989 0l133 664h-612l-133 -664h-301l223 1122h-154l35 181h156l43 217h301l-43 -217h612l43 217h301l-43 -217h152l-35 -181h-154l-223 -1122h-301zM559 915h612l41 207h-612z" />
    <glyph glyph-name="hbar" unicode="&#x127;" horiz-adv-x="1261" 
d="M463 688l-137 -688h-287l252 1255h-144l35 172h142l38 191h287l-39 -191h322l-35 -172h-322l-63 -313q151 193 365 193q130 0 210 -76.5t80 -229.5q0 -66 -14 -137l-139 -692h-287l135 676q10 52 10 84q0 125 -122 125q-82 0 -160.5 -51.5t-126.5 -145.5z" />
    <glyph glyph-name="Itilde" unicode="&#x128;" horiz-adv-x="647" 
d="M61 0l304 1520h301l-304 -1520h-301zM289 1632l-197 17q63 333 301 333q98 0 197 -69q90 -64 137 -64q85 0 111 148l196 -17q-63 -333 -301 -333q-97 0 -196 69q-90 64 -138 64q-84 0 -110 -148z" />
    <glyph glyph-name="itilde" unicode="&#x129;" horiz-adv-x="602" 
d="M244 1257l-191 17q30 167 100 250.5t171 83.5q90 0 174 -68q77 -61 114 -61q35 0 57.5 33.5t35.5 109.5l192 -16q-32 -166 -102 -250t-170 -84q-88 0 -172 69q-78 62 -117 62q-67 0 -92 -146zM45 0l223 1110h287l-223 -1110h-287z" />
    <glyph glyph-name="Imacron" unicode="&#x12a;" horiz-adv-x="647" 
d="M166 1716l39 197h760l-39 -197h-760zM61 0l304 1520h301l-304 -1520h-301z" />
    <glyph glyph-name="imacron" unicode="&#x12b;" horiz-adv-x="602" 
d="M160 1327l39 199h592l-39 -199h-592zM45 0l223 1110h287l-223 -1110h-287z" />
    <glyph glyph-name="Ibreve" unicode="&#x12c;" horiz-adv-x="647" 
d="M219 1982l203 13q-6 -30 -6 -56q0 -122 137 -122q161 0 207 178l217 -13q-44 -178 -161 -265t-281 -87q-153 0 -237.5 72.5t-84.5 204.5q0 35 6 75zM61 0l304 1520h301l-304 -1520h-301z" />
    <glyph glyph-name="ibreve" unicode="&#x12d;" horiz-adv-x="602" 
d="M162 1630l194 12q-10 -55 -10 -83q0 -132 117 -132q149 0 201 215l206 -12q-45 -194 -156 -291.5t-270 -97.5q-139 0 -214.5 74t-75.5 213q0 53 8 102zM45 0l223 1110h287l-223 -1110h-287z" />
    <glyph glyph-name="Iogonek" unicode="&#x12e;" horiz-adv-x="647" 
d="M-104 -303q0 92 53.5 164.5t163.5 138.5h-52l304 1520h301l-304 -1520h-16q-244 -102 -244 -231q0 -80 95 -80q64 0 149 49l8 -184q-91 -58 -215 -58q-117 0 -180 52.5t-63 148.5z" />
    <glyph glyph-name="iogonek" unicode="&#x12f;" horiz-adv-x="593" 
d="M287 1294l53 265h313l-53 -265h-313zM-131 -303q0 91 53 164t162 139h-43l223 1110h287l-223 -1110h-13q-239 -101 -239 -231q0 -80 94 -80q64 0 149 49l9 -184q-91 -58 -215 -58q-118 0 -181 52.5t-63 148.5z" />
    <glyph glyph-name="Idotaccent" unicode="&#x130;" horiz-adv-x="647" 
d="M387 1683l53 263h316l-54 -263h-315zM61 0l304 1520h301l-304 -1520h-301z" />
    <glyph glyph-name="dotlessi" unicode="&#x131;" horiz-adv-x="583" 
d="M37 0l223 1110h287l-223 -1110h-287z" />
    <glyph glyph-name="IJ" unicode="&#x132;" horiz-adv-x="1552" 
d="M61 0l304 1520h301l-304 -1520h-301zM541 33l69 262q32 -19 54 -29.5t64 -21.5t85 -11q107 0 173.5 70.5t100.5 243.5l195 973h301l-203 -1014q-30 -151 -81 -256t-123 -165.5t-158 -87t-197 -26.5q-90 0 -152 16t-128 46z" />
    <glyph glyph-name="ij" unicode="&#x133;" horiz-adv-x="1183" 
d="M283 1294l53 265h313l-53 -265h-313zM37 0l223 1110h287l-223 -1110h-287zM889 1294l53 265h313l-53 -265h-313zM248 -430l65 237q70 -36 133 -36q72 0 122 50t73 167l223 1122h287l-219 -1102q-26 -132 -72 -226t-109 -149t-136 -79.5t-162 -24.5q-121 0 -205 41z" />
    <glyph glyph-name="Jcircumflex" unicode="&#x134;" horiz-adv-x="905" 
d="M1223 1669l-244 -35l-129 215l-223 -215l-260 35l387 332h233zM-106 33l69 262q32 -19 54 -29.5t64 -21.5t85 -11q107 0 173.5 70.5t100.5 243.5l195 973h301l-203 -1014q-30 -151 -81 -256t-123 -165.5t-158 -87t-197 -26.5q-90 0 -152 16t-128 46z" />
    <glyph glyph-name="jcircumflex" unicode="&#x135;" horiz-adv-x="600" 
d="M836 1276l-228 -33l-106 291l-228 -291l-241 35l375 410h233zM-336 -430l66 237q70 -36 133 -36q72 0 121 50t73 167l224 1122h286l-219 -1102q-26 -132 -72 -226t-109 -149t-136 -79.5t-162 -24.5q-121 0 -205 41z" />
    <glyph glyph-name="uni0136" unicode="&#x136;" horiz-adv-x="1454" 
d="M999 0l-362 639l-178 -156l-97 -483h-301l304 1520h301l-138 -691l713 691h399v-4l-790 -693l502 -819v-4h-353zM539 -520l-203 49q158 172 180 365h254q-39 -254 -231 -414z" />
    <glyph glyph-name="uni0137" unicode="&#x137;" horiz-adv-x="1212" 
d="M786 0l-258 459l-141 -121l-68 -338h-286l319 1593h287l-193 -960l482 477h364v-4l-563 -477l385 -625v-4h-328zM412 -520l-203 49q158 172 180 365h254q-39 -254 -231 -414z" />
    <glyph glyph-name="kgreenlandic" unicode="&#x138;" horiz-adv-x="1212" 
d="M786 0l-258 459l-141 -121l-68 -338h-286l223 1110h287l-97 -477l482 477h364v-4l-563 -477l385 -625v-4h-328z" />
    <glyph glyph-name="Lacute" unicode="&#x139;" horiz-adv-x="1159" 
d="M528 1626l-145 86l385 326l242 -146zM1073 254l-51 -254h-961l304 1520h301l-254 -1266h661z" />
    <glyph glyph-name="lacute" unicode="&#x13a;" horiz-adv-x="583" 
d="M434 1626l-145 86l385 326l241 -146zM37 0l319 1593h287l-319 -1593h-287z" />
    <glyph glyph-name="uni013B" unicode="&#x13b;" horiz-adv-x="1159" 
d="M1073 254l-51 -254h-961l304 1520h301l-254 -1266h661zM428 -520l-203 49q159 173 181 365h253q-39 -254 -231 -414z" />
    <glyph glyph-name="uni013C" unicode="&#x13c;" horiz-adv-x="583" 
d="M37 0l319 1593h287l-319 -1593h-287zM55 -520l-202 49q158 172 180 365h254q-38 -253 -232 -414z" />
    <glyph glyph-name="Lcaron" unicode="&#x13d;" horiz-adv-x="1159" 
d="M950 1118h-186l141 475h273zM1073 254l-51 -254h-961l304 1520h301l-254 -1266h661z" />
    <glyph glyph-name="lcaron" unicode="&#x13e;" horiz-adv-x="653" 
d="M883 1204h-187l142 475h272zM37 0l319 1593h287l-319 -1593h-287z" />
    <glyph glyph-name="Ldot" unicode="&#x13f;" horiz-adv-x="1159" 
d="M1073 254l-51 -254h-961l304 1520h301l-254 -1266h661zM774 686l68 328h311l-68 -328h-311z" />
    <glyph glyph-name="ldot" unicode="&#x140;" horiz-adv-x="911" 
d="M37 0l319 1593h287l-319 -1593h-287zM606 629l68 327h311l-67 -327h-312z" />
    <glyph glyph-name="Lslash" unicode="&#x141;" horiz-adv-x="1183" 
d="M1096 254l-52 -254h-960l111 557l-195 -88l45 223l195 88l147 740h301l-123 -619l449 205l-45 -223l-449 -205l-86 -424h662z" />
    <glyph glyph-name="lslash" unicode="&#x142;" horiz-adv-x="694" 
d="M748 895l-213 -119l-156 -776h-287l129 639l-203 -113l43 222l203 112l148 733h286l-118 -596l213 119z" />
    <glyph glyph-name="Nacute" unicode="&#x143;" horiz-adv-x="1585" 
d="M938 1626l-145 86l385 326l241 -146zM1008 0l-451 1059l-211 -1059h-285l304 1520h294l451 -1059l211 1059h285l-303 -1520h-295z" />
    <glyph glyph-name="nacute" unicode="&#x144;" horiz-adv-x="1257" 
d="M770 1231l-166 53l311 426l261 -90zM457 688l-138 -688h-286l223 1110h260l-31 -188q74 99 172 156t213 57q132 0 211.5 -76.5t79.5 -229.5q0 -66 -14 -137l-139 -692h-287l135 676q10 52 10 84q0 125 -123 125q-82 0 -160 -51t-126 -146z" />
    <glyph glyph-name="uni0145" unicode="&#x145;" horiz-adv-x="1585" 
d="M1008 0l-451 1059l-211 -1059h-285l304 1520h294l451 -1059l211 1059h285l-303 -1520h-295zM571 -520l-202 49q158 172 180 365h254q-38 -253 -232 -414z" />
    <glyph glyph-name="uni0146" unicode="&#x146;" horiz-adv-x="1257" 
d="M457 688l-138 -688h-286l223 1110h260l-31 -188q74 99 172 156t213 57q132 0 211.5 -76.5t79.5 -229.5q0 -66 -14 -137l-139 -692h-287l135 676q10 52 10 84q0 125 -123 125q-82 0 -160 -51t-126 -146zM408 -520l-203 49q158 172 180 365h254q-39 -254 -231 -414z" />
    <glyph glyph-name="Ncaron" unicode="&#x147;" horiz-adv-x="1585" 
d="M1503 1978l-387 -329h-233l-236 329l244 35l129 -213l223 215zM1008 0l-451 1059l-211 -1059h-285l304 1520h294l451 -1059l211 1059h285l-303 -1520h-295z" />
    <glyph glyph-name="ncaron" unicode="&#x148;" horiz-adv-x="1257" 
d="M1245 1651l-373 -402h-233l-195 402l230 35l104 -283l226 285zM457 688l-138 -688h-286l223 1110h260l-31 -188q74 99 172 156t213 57q132 0 211.5 -76.5t79.5 -229.5q0 -66 -14 -137l-139 -692h-287l135 676q10 52 10 84q0 125 -123 125q-82 0 -160 -51t-126 -146z" />
    <glyph glyph-name="Eng" unicode="&#x14a;" horiz-adv-x="1585" 
d="M1309 35q-28 -140 -76.5 -239t-117 -157t-150 -84t-185.5 -26q-141 0 -262 57l64 242q87 -57 186 -57q92 0 152 53t90 186l-451 1057l-213 -1067h-285l304 1520h294l449 -1061l213 1061h285z" />
    <glyph glyph-name="eng" unicode="&#x14b;" horiz-adv-x="1257" 
d="M1008 -4q-26 -130 -71.5 -222.5t-107 -145t-132 -76t-156.5 -23.5q-119 0 -203 41l61 233q58 -36 127 -36q71 0 119.5 45.5t71.5 160.5l139 703q10 52 10 84q0 125 -123 125q-82 0 -160 -51t-126 -146l-138 -688h-286l223 1110h260l-31 -188q74 99 172 156t213 57
q132 0 211.5 -76.5t79.5 -229.5q0 -66 -14 -137z" />
    <glyph glyph-name="Omacron" unicode="&#x14c;" horiz-adv-x="1581" 
d="M633 1716l39 197h760l-39 -197h-760zM705 -29q-271 0 -424.5 160.5t-153.5 448.5q0 146 33.5 286t102.5 263.5t166.5 217t233.5 147.5t295 54q271 0 424.5 -160t153.5 -448q0 -146 -33.5 -286t-102.5 -264t-166.5 -217t-233.5 -147.5t-295 -54.5zM735 233q92 0 172 41.5
t136.5 110.5t97.5 158.5t60.5 186t19.5 192.5q0 181 -75 272.5t-218 91.5q-92 0 -172.5 -41.5t-137 -110t-97 -158t-60 -186t-19.5 -192.5q0 -181 75.5 -273t217.5 -92z" />
    <glyph glyph-name="omacron" unicode="&#x14d;" horiz-adv-x="1234" 
d="M422 1327l39 199h686l-39 -199h-686zM537 -25q-97 0 -179.5 27t-147 81.5t-101.5 144.5t-37 208q0 103 25.5 203t77.5 190t125 158t176 108t222 40q97 0 179.5 -27t147 -81.5t101.5 -144.5t37 -208q0 -103 -25.5 -203t-77.5 -190t-125 -158t-176 -108t-222 -40zM559 209
q74 0 135 40.5t99 106.5t58.5 144.5t20.5 158.5q0 121 -50 181.5t-144 60.5q-74 0 -136 -40.5t-100 -106.5t-59 -144.5t-21 -158.5q0 -121 51.5 -181.5t145.5 -60.5z" />
    <glyph glyph-name="Obreve" unicode="&#x14e;" horiz-adv-x="1581" 
d="M686 1982l203 13q-6 -30 -6 -56q0 -122 137 -122q161 0 207 178l217 -13q-44 -178 -161.5 -265t-281.5 -87q-152 0 -236.5 72.5t-84.5 204.5q0 35 6 75zM705 -29q-271 0 -424.5 160.5t-153.5 448.5q0 146 33.5 286t102.5 263.5t166.5 217t233.5 147.5t295 54
q271 0 424.5 -160t153.5 -448q0 -146 -33.5 -286t-102.5 -264t-166.5 -217t-233.5 -147.5t-295 -54.5zM735 233q92 0 172 41.5t136.5 110.5t97.5 158.5t60.5 186t19.5 192.5q0 181 -75 272.5t-218 91.5q-92 0 -172.5 -41.5t-137 -110t-97 -158t-60 -186t-19.5 -192.5
q0 -181 75.5 -273t217.5 -92z" />
    <glyph glyph-name="obreve" unicode="&#x14f;" horiz-adv-x="1234" 
d="M446 1630l203 12q-8 -54 -8 -73q0 -142 133 -142q163 0 213 215l217 -12q-48 -193 -166.5 -291t-283.5 -98q-148 0 -232 77.5t-84 221.5q0 46 8 90zM537 -25q-97 0 -179.5 27t-147 81.5t-101.5 144.5t-37 208q0 103 25.5 203t77.5 190t125 158t176 108t222 40
q97 0 179.5 -27t147 -81.5t101.5 -144.5t37 -208q0 -103 -25.5 -203t-77.5 -190t-125 -158t-176 -108t-222 -40zM559 209q74 0 135 40.5t99 106.5t58.5 144.5t20.5 158.5q0 121 -50 181.5t-144 60.5q-74 0 -136 -40.5t-100 -106.5t-59 -144.5t-21 -158.5q0 -121 51.5 -181.5
t145.5 -60.5z" />
    <glyph glyph-name="Ohungarumlaut" unicode="&#x150;" horiz-adv-x="1581" 
d="M827 1626l-147 72l309 340l225 -119zM1249 1626l-145 72l309 340l225 -119zM705 -29q-271 0 -424.5 160.5t-153.5 448.5q0 146 33.5 286t102.5 263.5t166.5 217t233.5 147.5t295 54q271 0 424.5 -160t153.5 -448q0 -146 -33.5 -286t-102.5 -264t-166.5 -217
t-233.5 -147.5t-295 -54.5zM735 233q92 0 172 41.5t136.5 110.5t97.5 158.5t60.5 186t19.5 192.5q0 181 -75 272.5t-218 91.5q-92 0 -172.5 -41.5t-137 -110t-97 -158t-60 -186t-19.5 -192.5q0 -181 75.5 -273t217.5 -92z" />
    <glyph glyph-name="ohungarumlaut" unicode="&#x151;" horiz-adv-x="1234" 
d="M592 1237l-162 57l309 416l234 -88zM997 1237l-161 57l309 416l233 -88zM537 -25q-97 0 -179.5 27t-147 81.5t-101.5 144.5t-37 208q0 103 25.5 203t77.5 190t125 158t176 108t222 40q97 0 179.5 -27t147 -81.5t101.5 -144.5t37 -208q0 -103 -25.5 -203t-77.5 -190
t-125 -158t-176 -108t-222 -40zM559 209q74 0 135 40.5t99 106.5t58.5 144.5t20.5 158.5q0 121 -50 181.5t-144 60.5q-74 0 -136 -40.5t-100 -106.5t-59 -144.5t-21 -158.5q0 -121 51.5 -181.5t145.5 -60.5z" />
    <glyph glyph-name="OE" unicode="&#x152;" horiz-adv-x="2191" 
d="M1974 0h-1005q-107 -29 -230 -29q-290 0 -450 169.5t-160 469.5q0 137 32 269t101.5 254t168.5 213.5t245 146.5t319 55q126 0 224 -28h1042l-51 -252h-703l-71 -357h620l-49 -243h-618l-84 -414h720zM444 629q0 -402 373 -402q109 0 191 37l196 983q-85 45 -209 45
q-112 0 -205 -39t-156 -104.5t-106.5 -152t-63.5 -179t-20 -188.5z" />
    <glyph glyph-name="oe" unicode="&#x153;" horiz-adv-x="1957" 
d="M1786 92q-177 -117 -438 -117q-295 0 -408 172q-162 -172 -408 -172q-96 0 -177 27t-145.5 81.5t-101 144.5t-36.5 208q0 130 41 253t117 223.5t196.5 161.5t267.5 61q255 0 367 -174q164 174 426 174q94 0 166.5 -23.5t117.5 -61t74 -91t40 -108.5t11 -118
q0 -141 -51 -248h-712v-30q0 -128 60.5 -190t213.5 -62q204 0 367 119zM1462 926q-112 0 -187 -73.5t-112 -190.5h451q16 33 16 92q0 78 -39.5 125t-128.5 47zM557 209q74 0 134.5 40.5t97.5 106.5t57 144.5t20 158.5q0 242 -192 242q-96 0 -169.5 -70t-108 -170.5
t-34.5 -209.5q0 -120 51 -181t144 -61z" />
    <glyph glyph-name="Racute" unicode="&#x154;" horiz-adv-x="1437" 
d="M819 1626l-145 86l385 326l241 -146zM979 0l-272 528h-238l-107 -528h-301l304 1520h528q250 0 375 -109.5t125 -308.5q0 -187 -108 -331.5t-300 -205.5l332 -565h-338zM831 1270h-215l-100 -498h225q169 0 255.5 81t86.5 210q0 107 -63.5 157t-188.5 50z" />
    <glyph glyph-name="racute" unicode="&#x155;" horiz-adv-x="876" 
d="M557 1231l-166 53l311 426l261 -90zM446 633l-127 -633h-286l223 1110h258l-35 -215q129 238 350 238q81 0 129 -25l-77 -268q-53 24 -127 24q-99 0 -183 -59t-125 -172z" />
    <glyph glyph-name="uni0156" unicode="&#x156;" horiz-adv-x="1437" 
d="M979 0l-272 528h-238l-107 -528h-301l304 1520h528q250 0 375 -109.5t125 -308.5q0 -187 -108 -331.5t-300 -205.5l332 -565h-338zM831 1270h-215l-100 -498h225q169 0 255.5 81t86.5 210q0 107 -63.5 157t-188.5 50zM528 -520l-202 49q158 172 180 365h254
q-38 -253 -232 -414z" />
    <glyph glyph-name="uni0157" unicode="&#x157;" horiz-adv-x="876" 
d="M446 633l-127 -633h-286l223 1110h258l-35 -215q129 238 350 238q81 0 129 -25l-77 -268q-53 24 -127 24q-99 0 -183 -59t-125 -172zM51 -520l-203 49q159 173 181 365h254q-38 -253 -232 -414z" />
    <glyph glyph-name="Rcaron" unicode="&#x158;" horiz-adv-x="1437" 
d="M1384 1978l-387 -329h-233l-236 329l244 35l129 -213l223 215zM979 0l-272 528h-238l-107 -528h-301l304 1520h528q250 0 375 -109.5t125 -308.5q0 -187 -108 -331.5t-300 -205.5l332 -565h-338zM831 1270h-215l-100 -498h225q169 0 255.5 81t86.5 210q0 107 -63.5 157
t-188.5 50z" />
    <glyph glyph-name="rcaron" unicode="&#x159;" horiz-adv-x="876" 
d="M1065 1651l-373 -402h-233l-195 402l230 35l104 -283l225 285zM446 633l-127 -633h-286l223 1110h258l-35 -215q129 238 350 238q81 0 129 -25l-77 -268q-53 24 -127 24q-99 0 -183 -59t-125 -172z" />
    <glyph glyph-name="Sacute" unicode="&#x15a;" horiz-adv-x="1255" 
d="M786 1626l-145 86l385 326l242 -146zM-2 123l92 274q96 -77 215.5 -122.5t241.5 -45.5q142 0 213 61.5t71 153.5q0 30 -7 53t-25.5 42.5t-35 32t-53.5 27.5t-60 23t-75 25q-61 20 -103.5 37t-93 49.5t-81 70.5t-51.5 98.5t-21 135.5q0 106 40 198.5t115 162t192 109.5
t262 40q253 0 438 -121l-88 -274q-171 137 -379 137q-136 0 -204.5 -60t-68.5 -149q0 -33 10.5 -58t27 -43t52 -35t70 -29t96.5 -31t104 -36t94 -49.5t83.5 -71.5t53.5 -101t22 -140q0 -110 -41 -203.5t-119 -163.5t-199.5 -109.5t-273.5 -39.5q-295 0 -514 152z" />
    <glyph glyph-name="sacute" unicode="&#x15b;" horiz-adv-x="1013" 
d="M653 1231l-166 53l312 426l260 -90zM-6 92l80 230q158 -125 344 -125q97 0 145.5 35.5t48.5 89.5q0 50 -46 77t-142 56q-36 10 -63 20t-62 27t-59.5 39t-47 51.5t-34 70t-11.5 89.5q0 174 131 278.5t357 104.5q203 0 350 -95l-78 -229q-136 102 -284 102
q-92 0 -142.5 -36t-50.5 -89q0 -27 13.5 -48t44 -37t55.5 -25.5t73 -24.5q46 -14 79.5 -27t74 -38t65.5 -54.5t42.5 -76.5t17.5 -105q0 -173 -131.5 -275t-366.5 -102q-226 0 -403 117z" />
    <glyph glyph-name="Scircumflex" unicode="&#x15c;" horiz-adv-x="1255" 
d="M1272 1669l-244 -35l-129 215l-223 -215l-260 35l387 332h233zM-2 123l92 274q96 -77 215.5 -122.5t241.5 -45.5q142 0 213 61.5t71 153.5q0 30 -7 53t-25.5 42.5t-35 32t-53.5 27.5t-60 23t-75 25q-61 20 -103.5 37t-93 49.5t-81 70.5t-51.5 98.5t-21 135.5
q0 106 40 198.5t115 162t192 109.5t262 40q253 0 438 -121l-88 -274q-171 137 -379 137q-136 0 -204.5 -60t-68.5 -149q0 -33 10.5 -58t27 -43t52 -35t70 -29t96.5 -31t104 -36t94 -49.5t83.5 -71.5t53.5 -101t22 -140q0 -110 -41 -203.5t-119 -163.5t-199.5 -109.5
t-273.5 -39.5q-295 0 -514 152z" />
    <glyph glyph-name="scircumflex" unicode="&#x15d;" horiz-adv-x="1013" 
d="M1047 1276l-228 -33l-106 291l-228 -291l-241 35l374 410h234zM-6 92l80 230q158 -125 344 -125q97 0 145.5 35.5t48.5 89.5q0 50 -46 77t-142 56q-36 10 -63 20t-62 27t-59.5 39t-47 51.5t-34 70t-11.5 89.5q0 174 131 278.5t357 104.5q203 0 350 -95l-78 -229
q-136 102 -284 102q-92 0 -142.5 -36t-50.5 -89q0 -27 13.5 -48t44 -37t55.5 -25.5t73 -24.5q46 -14 79.5 -27t74 -38t65.5 -54.5t42.5 -76.5t17.5 -105q0 -173 -131.5 -275t-366.5 -102q-226 0 -403 117z" />
    <glyph glyph-name="Scedilla" unicode="&#x15e;" horiz-adv-x="1255" 
d="M754 -252q0 -119 -89 -185.5t-249 -66.5q-112 0 -232 41l66 182q82 -45 184 -45q57 0 89 20t32 54q0 16 -10 28.5t-53 30t-121 33.5l80 133q-256 13 -453 150l92 274q96 -77 215.5 -122.5t241.5 -45.5q142 0 213 61.5t71 153.5q0 30 -7 53t-25.5 42.5t-35 32t-53.5 27.5
t-60 23t-75 25q-61 20 -103.5 37t-93 49.5t-81 70.5t-51.5 98.5t-21 135.5q0 106 40 198.5t115 162t192 109.5t262 40q253 0 438 -121l-88 -274q-171 137 -379 137q-136 0 -204.5 -60t-68.5 -149q0 -33 10.5 -58t27 -43t52 -35t70 -29t96.5 -31t104 -36t94 -49.5t83.5 -71.5
t53.5 -101t22 -140q0 -213 -147.5 -355t-417.5 -159l-25 -34q115 -36 157 -80.5t42 -110.5z" />
    <glyph glyph-name="scedilla" unicode="&#x15f;" horiz-adv-x="1013" 
d="M625 -252q0 -119 -89 -185.5t-249 -66.5q-112 0 -232 41l66 182q82 -45 184 -45q57 0 89 20t32 54q0 16 -10 28.5t-53 30t-121 33.5l84 137q-181 16 -332 115l80 230q158 -125 344 -125q97 0 145.5 35.5t48.5 89.5q0 50 -46 77t-142 56q-36 10 -63 20t-62 27t-59.5 39
t-47 51.5t-34 70t-11.5 89.5q0 174 131 278.5t357 104.5q203 0 350 -95l-78 -229q-136 102 -284 102q-92 0 -142.5 -36t-50.5 -89q0 -27 13.5 -48t44 -37t55.5 -25.5t73 -24.5q46 -14 79.5 -27t74 -38t65.5 -54.5t42.5 -76.5t17.5 -105q0 -162 -116 -262.5t-326 -112.5
l-27 -38q115 -36 157 -80.5t42 -110.5z" />
    <glyph glyph-name="Scaron" unicode="&#x160;" horiz-adv-x="1255" 
d="M1352 1978l-387 -329h-234l-235 329l243 35l129 -213l224 215zM-2 123l92 274q96 -77 215.5 -122.5t241.5 -45.5q142 0 213 61.5t71 153.5q0 30 -7 53t-25.5 42.5t-35 32t-53.5 27.5t-60 23t-75 25q-61 20 -103.5 37t-93 49.5t-81 70.5t-51.5 98.5t-21 135.5
q0 106 40 198.5t115 162t192 109.5t262 40q253 0 438 -121l-88 -274q-171 137 -379 137q-136 0 -204.5 -60t-68.5 -149q0 -33 10.5 -58t27 -43t52 -35t70 -29t96.5 -31t104 -36t94 -49.5t83.5 -71.5t53.5 -101t22 -140q0 -110 -41 -203.5t-119 -163.5t-199.5 -109.5
t-273.5 -39.5q-295 0 -514 152z" />
    <glyph glyph-name="scaron" unicode="&#x161;" horiz-adv-x="1013" 
d="M1133 1651l-373 -402h-234l-194 402l229 35l105 -283l225 285zM-6 92l80 230q158 -125 344 -125q97 0 145.5 35.5t48.5 89.5q0 50 -46 77t-142 56q-36 10 -63 20t-62 27t-59.5 39t-47 51.5t-34 70t-11.5 89.5q0 174 131 278.5t357 104.5q203 0 350 -95l-78 -229
q-136 102 -284 102q-92 0 -142.5 -36t-50.5 -89q0 -27 13.5 -48t44 -37t55.5 -25.5t73 -24.5q46 -14 79.5 -27t74 -38t65.5 -54.5t42.5 -76.5t17.5 -105q0 -173 -131.5 -275t-366.5 -102q-226 0 -403 117z" />
    <glyph glyph-name="uni0162" unicode="&#x162;" horiz-adv-x="1245" 
d="M735 -252q0 -119 -89 -185.5t-249 -66.5q-111 0 -231 41l65 182q82 -45 185 -45q57 0 89 20t32 54q0 16 -10.5 28.5t-53.5 30t-121 33.5l97 160h-87l254 1268h-450l49 252h1198l-51 -252h-444l-254 -1268h-84l-43 -61q115 -36 156.5 -80.5t41.5 -110.5z" />
    <glyph glyph-name="uni0163" unicode="&#x163;" horiz-adv-x="862" 
d="M592 -252q0 -119 -89 -185.5t-249 -66.5q-111 0 -231 41l65 182q82 -45 184 -45q57 0 89 20t32 54q0 16 -10 28.5t-53 30t-121 33.5l96 160q-145 56 -145 248q0 62 12 129l107 528h-179l41 205h178l58 291l299 67l-72 -358h305l-41 -205h-305l-108 -538q-4 -18 -4 -50
q0 -98 108 -98q97 0 176 51l-12 -235q-129 -60 -272 -60h-31l-27 -36q115 -36 157 -80.5t42 -110.5z" />
    <glyph glyph-name="Tcaron" unicode="&#x164;" horiz-adv-x="1245" 
d="M1331 1978l-387 -329h-233l-236 329l244 35l129 -213l223 215zM1362 1268h-444l-254 -1268h-302l254 1268h-450l49 252h1198z" />
    <glyph glyph-name="tcaron" unicode="&#x165;" horiz-adv-x="862" 
d="M944 1237h-186l141 475h272zM723 35q-129 -60 -272 -60q-137 0 -214 66t-77 207q0 62 12 129l107 528h-179l41 205h178l58 291l299 67l-72 -358h305l-41 -205h-305l-108 -538q-4 -18 -4 -50q0 -98 108 -98q97 0 176 51z" />
    <glyph glyph-name="Tbar" unicode="&#x166;" horiz-adv-x="1245" 
d="M1106 633h-315l-127 -633h-302l127 633h-315l45 221h313l84 414h-450l49 252h1198l-51 -252h-444l-84 -414h315z" />
    <glyph glyph-name="tbar" unicode="&#x167;" horiz-adv-x="903" 
d="M743 35q-129 -60 -272 -60q-137 0 -214 66t-77 207q0 56 13 129l28 141h-178l37 176h176l43 211h-178l41 205h178l57 291l299 67l-71 -358h305l-41 -205h-305l-43 -211h307l-35 -176h-307l-31 -151q-4 -18 -4 -50q0 -98 109 -98q97 0 176 51z" />
    <glyph glyph-name="Utilde" unicode="&#x168;" horiz-adv-x="1531" 
d="M1567 1520l-187 -926q-125 -623 -710 -623q-255 0 -387.5 119t-132.5 340q0 86 18 180l182 910h299l-184 -916q-12 -67 -12 -125q0 -243 249 -243q308 0 381 368l185 916h299zM731 1632l-196 17q63 333 301 333q97 0 196 -69q90 -64 137 -64q85 0 111 148l197 -17
q-63 -333 -301 -333q-98 0 -197 69q-90 64 -137 64q-85 0 -111 -148z" />
    <glyph glyph-name="utilde" unicode="&#x169;" horiz-adv-x="1257" 
d="M741 0l29 193q-151 -218 -381 -218q-132 0 -213.5 76.5t-81.5 229.5q0 50 17 137l137 692h287l-136 -676q-8 -41 -8 -82q0 -64 30.5 -95.5t96.5 -31.5q95 0 167 59.5t118 153.5l133 672h287l-222 -1110h-260zM532 1257l-196 17q30 168 104.5 251t186.5 83q94 0 190 -70
q86 -63 129 -63q78 0 103 147l196 -16q-30 -167 -104.5 -250.5t-186.5 -83.5q-99 0 -190 69q-83 64 -129 64q-79 0 -103 -148z" />
    <glyph glyph-name="Umacron" unicode="&#x16a;" horiz-adv-x="1531" 
d="M608 1716l39 197h760l-39 -197h-760zM1567 1520l-187 -926q-125 -623 -710 -623q-255 0 -387.5 119t-132.5 340q0 86 18 180l182 910h299l-184 -916q-12 -67 -12 -125q0 -243 249 -243q308 0 381 368l185 916h299z" />
    <glyph glyph-name="umacron" unicode="&#x16b;" horiz-adv-x="1257" 
d="M428 1327l39 199h686l-39 -199h-686zM741 0l29 193q-151 -218 -381 -218q-132 0 -213.5 76.5t-81.5 229.5q0 50 17 137l137 692h287l-136 -676q-8 -41 -8 -82q0 -64 30.5 -95.5t96.5 -31.5q95 0 167 59.5t118 153.5l133 672h287l-222 -1110h-260z" />
    <glyph glyph-name="Ubreve" unicode="&#x16c;" horiz-adv-x="1531" 
d="M662 1982l202 13q-6 -30 -6 -56q0 -122 137 -122q161 0 207 178l217 -13q-44 -178 -161 -265t-281 -87q-153 0 -237.5 72.5t-84.5 204.5q0 28 7 75zM1567 1520l-187 -926q-125 -623 -710 -623q-255 0 -387.5 119t-132.5 340q0 86 18 180l182 910h299l-184 -916
q-12 -67 -12 -125q0 -243 249 -243q308 0 381 368l185 916h299z" />
    <glyph glyph-name="ubreve" unicode="&#x16d;" horiz-adv-x="1257" 
d="M453 1630l202 12q-8 -54 -8 -73q0 -142 133 -142q163 0 213 215l217 -12q-48 -193 -166.5 -291t-283.5 -98q-148 0 -232 77.5t-84 221.5q0 40 9 90zM741 0l29 193q-151 -218 -381 -218q-132 0 -213.5 76.5t-81.5 229.5q0 50 17 137l137 692h287l-136 -676q-8 -41 -8 -82
q0 -64 30.5 -95.5t96.5 -31.5q95 0 167 59.5t118 153.5l133 672h287l-222 -1110h-260z" />
    <glyph glyph-name="Uring" unicode="&#x16e;" horiz-adv-x="1531" 
d="M981 1583q-114 0 -183 69.5t-69 178.5q0 126 91 212.5t220 86.5q114 0 182 -69t68 -177q0 -127 -90.5 -214t-218.5 -87zM995 1735q58 0 95.5 38.5t37.5 98.5q0 50 -26.5 79t-75.5 29q-58 0 -95.5 -39.5t-37.5 -99.5q0 -49 26 -77.5t76 -28.5zM1567 1520l-187 -926
q-125 -623 -710 -623q-255 0 -387.5 119t-132.5 340q0 86 18 180l182 910h299l-184 -916q-12 -67 -12 -125q0 -243 249 -243q308 0 381 368l185 916h299z" />
    <glyph glyph-name="uring" unicode="&#x16f;" horiz-adv-x="1257" 
d="M772 1204q-114 0 -182 69t-68 177q0 128 90 214.5t219 86.5q114 0 183 -69.5t69 -176.5q0 -128 -91 -214.5t-220 -86.5zM786 1356q59 0 96.5 38.5t37.5 98.5q0 50 -26.5 78t-76.5 28q-58 0 -95.5 -38.5t-37.5 -98.5q0 -48 26.5 -77t75.5 -29zM741 0l29 193
q-151 -218 -381 -218q-132 0 -213.5 76.5t-81.5 229.5q0 50 17 137l137 692h287l-136 -676q-8 -41 -8 -82q0 -64 30.5 -95.5t96.5 -31.5q95 0 167 59.5t118 153.5l133 672h287l-222 -1110h-260z" />
    <glyph glyph-name="Uhungarumlaut" unicode="&#x170;" horiz-adv-x="1531" 
d="M803 1626l-148 72l310 340l225 -119zM1225 1626l-146 72l310 340l225 -119zM1567 1520l-187 -926q-125 -623 -710 -623q-255 0 -387.5 119t-132.5 340q0 86 18 180l182 910h299l-184 -916q-12 -67 -12 -125q0 -243 249 -243q308 0 381 368l185 916h299z" />
    <glyph glyph-name="uhungarumlaut" unicode="&#x171;" horiz-adv-x="1257" 
d="M598 1237l-162 57l309 416l234 -88zM1004 1237l-162 57l309 416l233 -88zM741 0l29 193q-151 -218 -381 -218q-132 0 -213.5 76.5t-81.5 229.5q0 50 17 137l137 692h287l-136 -676q-8 -41 -8 -82q0 -64 30.5 -95.5t96.5 -31.5q95 0 167 59.5t118 153.5l133 672h287
l-222 -1110h-260z" />
    <glyph glyph-name="Uogonek" unicode="&#x172;" horiz-adv-x="1531" 
d="M905 -446q-91 -58 -217 -58q-117 0 -180.5 52.5t-63.5 148.5q0 159 187 274q-236 9 -358.5 127.5t-122.5 331.5q0 86 18 180l182 910h299l-184 -916q-12 -67 -12 -125q0 -243 249 -243q308 0 381 368l185 916h299l-187 -926q-98 -489 -481 -594q-115 -42 -180.5 -102.5
t-65.5 -128.5q0 -80 95 -80q62 0 147 49z" />
    <glyph glyph-name="uogonek" unicode="&#x173;" horiz-adv-x="1257" 
d="M940 -446q-91 -58 -213 -58q-116 0 -179 51.5t-63 147.5q0 93 61 169.5t197 145.5l27 183q-151 -218 -381 -218q-132 0 -213.5 76.5t-81.5 229.5q0 50 17 137l137 692h287l-136 -676q-8 -41 -8 -82q0 -64 30.5 -95.5t96.5 -31.5q95 0 167 59.5t118 153.5l133 672h287
l-222 -1110h-28q-133 -47 -207 -108t-74 -130q0 -73 92 -73q61 0 146 49z" />
    <glyph glyph-name="Wcircumflex" unicode="&#x174;" horiz-adv-x="2174" 
d="M1710 1669l-244 -35l-129 215l-223 -215l-260 35l387 332h234zM1255 0l-61 1137l-504 -1137h-325l-136 1520h316l53 -1164l512 1164h313l58 -1160l506 1160h342l-748 -1520h-326z" />
    <glyph glyph-name="wcircumflex" unicode="&#x175;" horiz-adv-x="1779" 
d="M1411 1276l-227 -33l-107 291l-227 -291l-242 35l375 410h234zM979 0l-49 797l-365 -797h-301l-114 1110h301l34 -815l351 815h292l48 -819l340 819h323l-559 -1110h-301z" />
    <glyph glyph-name="Ycircumflex" unicode="&#x176;" horiz-adv-x="1323" 
d="M1290 1669l-243 -35l-129 215l-224 -215l-260 35l387 332h234zM1516 1520l-705 -965l-111 -555h-301l115 571l-324 949h326l199 -693l446 693h355z" />
    <glyph glyph-name="ycircumflex" unicode="&#x177;" horiz-adv-x="1177" 
d="M1118 1276l-227 -33l-107 291l-227 -291l-242 35l375 410h234zM639 10q-108 -195 -200 -300t-177 -143t-199 -38q-124 0 -208 43l67 238q68 -39 156 -39q70 0 128.5 46t125.5 167l-197 1126h307l88 -846l400 846h321z" />
    <glyph glyph-name="Ydieresis" unicode="&#x178;" horiz-adv-x="1323" 
d="M981 1683l53 263h271l-54 -263h-270zM500 1683l53 263h270l-53 -263h-270zM1516 1520l-705 -965l-111 -555h-301l115 571l-324 949h326l199 -693l446 693h355z" />
    <glyph glyph-name="Zacute" unicode="&#x179;" horiz-adv-x="1327" 
d="M799 1626l-146 86l385 326l242 -146zM1180 254l-52 -254h-1155l47 233l965 1035h-725l53 252h1100l-45 -230l-969 -1036h781z" />
    <glyph glyph-name="zacute" unicode="&#x17a;" horiz-adv-x="1050" 
d="M666 1231l-166 53l311 426l260 -90zM909 219l-43 -219h-905l41 207l682 684h-524l45 219h866l-41 -207l-682 -684h561z" />
    <glyph glyph-name="Zdotaccent" unicode="&#x17b;" horiz-adv-x="1327" 
d="M719 1683l53 263h315l-53 -263h-315zM1180 254l-52 -254h-1155l47 233l965 1035h-725l53 252h1100l-45 -230l-969 -1036h781z" />
    <glyph glyph-name="zdotaccent" unicode="&#x17c;" horiz-adv-x="1050" 
d="M510 1294l53 265h314l-54 -265h-313zM909 219l-43 -219h-905l41 207l682 684h-524l45 219h866l-41 -207l-682 -684h561z" />
    <glyph glyph-name="Zcaron" unicode="&#x17d;" horiz-adv-x="1327" 
d="M1364 1978l-387 -329h-234l-235 329l244 35l129 -213l223 215zM1180 254l-52 -254h-1155l47 233l965 1035h-725l53 252h1100l-45 -230l-969 -1036h781z" />
    <glyph glyph-name="zcaron" unicode="&#x17e;" horiz-adv-x="1050" 
d="M1141 1651l-373 -402h-233l-195 402l229 35l105 -283l225 285zM909 219l-43 -219h-905l41 207l682 684h-524l45 219h866l-41 -207l-682 -684h561z" />
    <glyph glyph-name="longs" unicode="&#x17f;" horiz-adv-x="673" 
d="M33 0l237 1184q21 104 58 182.5t81 125t101 74.5t111 38t118 10q114 0 209 -35l-63 -231q-58 30 -133 30q-77 0 -125 -41.5t-70 -150.5l-238 -1186h-286z" />
    <glyph glyph-name="uni018F" unicode="&#x18f;" horiz-adv-x="1519" 
d="M1473 920q0 -133 -26.5 -262.5t-89 -255t-154 -220.5t-232 -153t-312.5 -58q-124 0 -223 30.5t-162 80.5t-105 119t-59.5 142t-17.5 153q0 91 22 188.5t54 161.5h985q2 20 2 61q0 206 -80 292.5t-270 86.5q-149 0 -270.5 -44t-237.5 -126l-23 270q107 74 263 118t323 44
q308 0 460.5 -159.5t152.5 -468.5zM672 227q93 0 170 32t130 89t89.5 126.5t58.5 154.5h-717q-22 -55 -22 -140q0 -116 72 -189t219 -73z" />
    <glyph glyph-name="florin" unicode="&#x192;" 
d="M610 96q-40 -136 -91.5 -227.5t-112.5 -138t-121 -64.5t-135 -18q-147 0 -248 53l78 248q76 -49 155 -49q69 0 113 43.5t80 167.5l190 639h-207l39 188h223l48 156q34 113 78 196t89.5 132t101.5 78t107 38.5t113 9.5q163 0 260 -57l-80 -252q-46 30 -84.5 43.5
t-89.5 13.5q-86 0 -133 -47t-82 -170l-41 -141h295l-37 -188h-315z" />
    <glyph glyph-name="Ohorn" unicode="&#x1a0;" horiz-adv-x="1589" 
d="M1536 940q0 -146 -33.5 -286t-102.5 -264t-166.5 -217t-233.5 -147.5t-295 -54.5q-271 0 -424.5 160.5t-153.5 448.5q0 146 33.5 286t102.5 263.5t166.5 217t233.5 147.5t295 54q155 0 273 -53h14q118 0 176 63t58 181q0 27 -2 43h247q2 -18 2 -45q0 -55 -9.5 -104
t-31.5 -96t-56.5 -84.5t-87.5 -67t-120 -44.5q115 -155 115 -401zM735 233q92 0 172 41.5t136.5 110.5t97.5 158.5t60.5 186t19.5 192.5q0 181 -75 272.5t-218 91.5q-92 0 -172.5 -41.5t-137 -110t-97 -158t-60 -186t-19.5 -192.5q0 -181 75.5 -273t217.5 -92z" />
    <glyph glyph-name="ohorn" unicode="&#x1a1;" horiz-adv-x="1284" 
d="M1163 674q0 -103 -25.5 -203t-77.5 -190t-125 -158t-176 -108t-222 -40q-97 0 -179.5 27t-147 81.5t-101.5 144.5t-37 208q0 103 25.5 203t77.5 190t125 158t176 108t222 40q130 0 236 -50q118 0 175.5 63t57.5 181q0 27 -2 43h248q2 -18 2 -45q0 -70 -16 -130.5
t-51 -114.5t-97.5 -93t-148.5 -57q61 -106 61 -258zM559 209q74 0 135 40.5t99 106.5t58.5 144.5t20.5 158.5q0 121 -50 181.5t-144 60.5q-74 0 -136 -40.5t-100 -106.5t-59 -144.5t-21 -158.5q0 -121 51.5 -181.5t145.5 -60.5z" />
    <glyph glyph-name="Uhorn" unicode="&#x1af;" horiz-adv-x="1589" 
d="M1083 604l185 916h159q185 0 185 219q0 27 -2 43h248q2 -18 2 -45q0 -68 -15.5 -127t-51 -113.5t-101.5 -91t-158 -49.5l-154 -762q-125 -623 -710 -623q-255 0 -387.5 119t-132.5 340q0 86 18 180l182 910h299l-184 -916q-12 -67 -12 -125q0 -243 249 -243
q308 0 381 368z" />
    <glyph glyph-name="uhorn" unicode="&#x1b0;" horiz-adv-x="1345" 
d="M803 438l133 672h154q176 0 176 219q0 27 -2 43h247q2 -18 2 -45q0 -54 -9 -102.5t-32 -96t-59 -84t-93 -62.5t-130 -36l-189 -946h-260l29 193q-151 -218 -381 -218q-132 0 -213.5 76.5t-81.5 229.5q0 50 17 137l137 692h287l-136 -676q-8 -41 -8 -82q0 -64 30.5 -95.5
t96.5 -31.5q95 0 167 59.5t118 153.5z" />
    <glyph glyph-name="Aringacute" unicode="&#x1fa;" horiz-adv-x="1480" 
d="M1028 0l-41 352h-557l-176 -352h-340l831 1520h48q-55 33 -85 88t-30 125q0 112 73.5 194t182.5 101l-119 69l385 326l242 -146l-445 -245q111 -3 176.5 -71.5t65.5 -174.5q0 -86 -44.5 -157.5t-119.5 -108.5h43l228 -1520h-318zM944 1636q58 0 95.5 39t37.5 99
q0 50 -26.5 79t-75.5 29q-58 0 -95.5 -39.5t-37.5 -99.5q0 -49 26 -78t76 -29zM553 596h405l-75 661z" />
    <glyph glyph-name="aringacute" unicode="&#x1fb;" horiz-adv-x="1189" 
d="M758 1729l-146 86l385 325l242 -145zM743 1180q-114 0 -181.5 68.5t-67.5 176.5q0 128 90 214.5t219 86.5q114 0 183 -69t69 -176q0 -128 -91.5 -214.5t-220.5 -86.5zM758 1331q58 0 95.5 38.5t37.5 98.5q0 50 -26.5 78.5t-76.5 28.5q-58 0 -95.5 -38.5t-37.5 -98.5
q0 -48 27 -77.5t76 -29.5zM682 0l23 152q-67 -85 -158.5 -131t-198.5 -46q-139 0 -224 76.5t-85 224.5q0 197 164.5 305.5t476.5 108.5h115l2 10q8 44 8 74q0 71 -44.5 103t-142.5 32q-189 0 -366 -116l-14 231q84 51 203 81t245 30q206 0 307 -81.5t101 -236.5
q0 -55 -15 -125l-137 -692h-260zM459 193q85 0 155.5 45t114.5 127l31 157h-82q-176 0 -267.5 -54t-91.5 -151q0 -124 140 -124z" />
    <glyph glyph-name="AEacute" unicode="&#x1fc;" horiz-adv-x="2138" 
d="M1448 1626l-145 86l385 326l241 -146zM897 0l84 418h-532l-297 -418h-353l1108 1520h1284l-49 -252h-702l-72 -357h621l-50 -243h-620l-84 -414h721l-51 -254h-1008zM1151 1272h-96l-434 -610h407z" />
    <glyph glyph-name="aeacute" unicode="&#x1fd;" horiz-adv-x="1851" 
d="M1042 1231l-165 53l311 426l260 -90zM1681 92q-177 -117 -440 -117q-303 0 -416 185q-182 -185 -438 -185q-159 0 -253.5 76.5t-94.5 222.5q0 195 161.5 299.5t475.5 104.5h119l4 22q8 46 8 72q0 73 -45.5 105t-145.5 32q-193 0 -370 -116l-15 231q84 52 204 81.5
t249 29.5q246 0 322 -134q154 134 374 134q94 0 167.5 -23t118.5 -61t74.5 -91.5t40.5 -108t11 -116.5q0 -134 -47 -241h-715q-2 -12 -2 -39q0 -129 60.5 -190.5t214.5 -61.5q204 0 364 119zM1358 926q-111 0 -184.5 -70.5t-112.5 -185.5h450q15 35 15 86q0 76 -39.5 123
t-128.5 47zM469 193q88 0 167 44.5t126 120.5q-4 40 -4 68q0 24 4 82h-88q-176 0 -265.5 -49t-89.5 -142q0 -124 150 -124z" />
    <glyph glyph-name="Oslashacute" unicode="&#x1fe;" horiz-adv-x="1581" 
d="M934 1626l-146 86l386 326l241 -146zM705 -29q-236 0 -381 121l-166 -182l-138 76l201 221q-94 148 -94 373q0 146 33.5 286t102.5 263.5t166.5 217t233.5 147.5t295 54q237 0 379 -118l166 180l139 -76l-200 -221q94 -148 94 -373q0 -146 -33.5 -286t-102.5 -264
t-166.5 -217t-233.5 -147.5t-295 -54.5zM442 598q0 -72 13 -135l680 743q-74 80 -207 80q-92 0 -172.5 -41.5t-137 -110t-97 -158t-60 -186t-19.5 -192.5zM1221 922q0 76 -15 137l-680 -746q74 -80 209 -80q92 0 172 41.5t136.5 110.5t97.5 158.5t60.5 186t19.5 192.5z" />
    <glyph glyph-name="oslashacute" unicode="&#x1ff;" horiz-adv-x="1234" 
d="M758 1231l-166 53l311 426l260 -90zM537 -25q-166 0 -285 76l-158 -172l-121 72l181 196q-82 116 -82 289q0 103 25.5 203t77.5 190t125 158t176 108t222 40q166 0 285 -76l158 172l121 -72l-181 -196q82 -116 82 -289q0 -103 -25.5 -203t-77.5 -190t-125 -158t-176 -108
t-222 -40zM362 451q0 -18 5 -68l436 477q-50 41 -125 41q-74 0 -136 -40.5t-100 -106.5t-59 -144.5t-21 -158.5zM872 659q0 28 -4 68l-436 -477q50 -41 127 -41q74 0 135 40.5t99 106.5t58.5 144.5t20.5 158.5z" />
    <glyph glyph-name="uni0218" unicode="&#x218;" horiz-adv-x="1255" 
d="M420 -520l-203 49q158 172 180 365h254q-39 -254 -231 -414zM-2 123l92 274q96 -77 215.5 -122.5t241.5 -45.5q142 0 213 61.5t71 153.5q0 30 -7 53t-25.5 42.5t-35 32t-53.5 27.5t-60 23t-75 25q-61 20 -103.5 37t-93 49.5t-81 70.5t-51.5 98.5t-21 135.5
q0 106 40 198.5t115 162t192 109.5t262 40q253 0 438 -121l-88 -274q-171 137 -379 137q-136 0 -204.5 -60t-68.5 -149q0 -33 10.5 -58t27 -43t52 -35t70 -29t96.5 -31t104 -36t94 -49.5t83.5 -71.5t53.5 -101t22 -140q0 -110 -41 -203.5t-119 -163.5t-199.5 -109.5
t-273.5 -39.5q-295 0 -514 152z" />
    <glyph glyph-name="uni0219" unicode="&#x219;" horiz-adv-x="1013" 
d="M285 -520l-203 49q158 172 180 365h254q-39 -254 -231 -414zM-6 92l80 230q158 -125 344 -125q97 0 145.5 35.5t48.5 89.5q0 50 -46 77t-142 56q-36 10 -63 20t-62 27t-59.5 39t-47 51.5t-34 70t-11.5 89.5q0 174 131 278.5t357 104.5q203 0 350 -95l-78 -229
q-136 102 -284 102q-92 0 -142.5 -36t-50.5 -89q0 -27 13.5 -48t44 -37t55.5 -25.5t73 -24.5q46 -14 79.5 -27t74 -38t65.5 -54.5t42.5 -76.5t17.5 -105q0 -173 -131.5 -275t-366.5 -102q-226 0 -403 117z" />
    <glyph glyph-name="uni021A" unicode="&#x21a;" horiz-adv-x="1245" 
d="M1362 1268h-444l-254 -1268h-302l254 1268h-450l49 252h1198zM389 -520l-203 49q159 173 181 365h254q-38 -253 -232 -414z" />
    <glyph glyph-name="uni021B" unicode="&#x21b;" horiz-adv-x="862" 
d="M723 35q-129 -60 -272 -60q-137 0 -214 66t-77 207q0 62 12 129l107 528h-179l41 205h178l58 291l299 67l-72 -358h305l-41 -205h-305l-108 -538q-4 -18 -4 -50q0 -98 108 -98q97 0 176 51zM250 -520l-203 49q158 172 180 365h254q-39 -254 -231 -414z" />
    <glyph glyph-name="uni0237" unicode="&#x237;" horiz-adv-x="600" 
d="M-336 -430l66 237q70 -36 133 -36q72 0 121 50t73 167l224 1122h286l-219 -1102q-26 -132 -72 -226t-109 -149t-136 -79.5t-162 -24.5q-121 0 -205 41z" />
    <glyph glyph-name="uni0259" unicode="&#x259;" horiz-adv-x="1193" 
d="M1122 666q0 -97 -20.5 -191.5t-68.5 -186t-118 -160t-177 -111t-238 -42.5q-96 0 -171.5 22.5t-123 60t-79 89.5t-44 106.5t-12.5 115.5q0 145 53 256h715v39q0 132 -56 188.5t-192 56.5q-199 0 -371 -116l-16 231q84 52 200 81.5t238 29.5q238 0 359.5 -120t121.5 -349z
M512 188q115 0 188 72t107 189h-461q-16 -29 -16 -89q0 -79 44.5 -125.5t137.5 -46.5z" />
    <glyph glyph-name="uni02BB" unicode="&#x2bb;" horiz-adv-x="616" 
d="M498 1602l225 -58q-188 -254 -225 -594h-285q28 368 285 652z" />
    <glyph glyph-name="uni02BC" unicode="&#x2bc;" horiz-adv-x="616" 
d="M397 942l-225 57q188 254 225 594h285q-28 -367 -285 -651z" />
    <glyph glyph-name="circumflex" unicode="&#x2c6;" horiz-adv-x="1024" 
d="M1040 1276l-227 -33l-106 291l-228 -291l-241 35l374 410h234z" />
    <glyph glyph-name="caron" unicode="&#x2c7;" horiz-adv-x="1024" 
d="M1126 1651l-372 -402h-234l-194 402l229 35l104 -283l226 285z" />
    <glyph glyph-name="uni02C9" unicode="&#x2c9;" horiz-adv-x="1024" 
d="M315 1327l39 199h686l-39 -199h-686z" />
    <glyph glyph-name="breve" unicode="&#x2d8;" horiz-adv-x="1024" 
d="M340 1630l203 12q-8 -54 -8 -73q0 -142 133 -142q163 0 213 215l217 -12q-48 -193 -167 -291t-284 -98q-148 0 -231.5 77.5t-83.5 221.5q0 46 8 90z" />
    <glyph glyph-name="dotaccent" unicode="&#x2d9;" horiz-adv-x="1024" 
d="M496 1294l53 265h313l-53 -265h-313z" />
    <glyph glyph-name="ring" unicode="&#x2da;" horiz-adv-x="1024" 
d="M659 1204q-114 0 -181.5 69t-67.5 177q0 128 90 214.5t219 86.5q114 0 183 -69.5t69 -176.5q0 -128 -91.5 -214.5t-220.5 -86.5zM674 1356q58 0 95.5 38.5t37.5 98.5q0 50 -26 78t-76 28q-59 0 -96.5 -38.5t-37.5 -98.5q0 -48 27 -77t76 -29z" />
    <glyph glyph-name="ogonek" unicode="&#x2db;" horiz-adv-x="1024" 
d="M580 -446q-91 -58 -215 -58q-117 0 -180.5 52.5t-63.5 148.5q0 93 61.5 170t188.5 145h231q-128 -45 -200 -108t-72 -135q0 -80 94 -80q62 0 147 49z" />
    <glyph glyph-name="tilde" unicode="&#x2dc;" horiz-adv-x="1024" 
d="M420 1257l-197 17q30 168 104.5 251t186.5 83q95 0 191 -70q86 -63 129 -63q77 0 102 147l197 -16q-30 -167 -104.5 -250.5t-186.5 -83.5q-100 0 -191 69q-83 64 -129 64q-78 0 -102 -148z" />
    <glyph glyph-name="hungarumlaut" unicode="&#x2dd;" horiz-adv-x="1024" 
d="M485 1237l-161 57l309 416l233 -88zM891 1237l-162 57l309 416l234 -88z" />
    <glyph glyph-name="gravecomb" unicode="&#x300;" horiz-adv-x="0" 
d="M117 1231l-281 426l260 53l183 -438z" />
    <glyph glyph-name="acutecomb" unicode="&#x301;" horiz-adv-x="0" 
d="M139 1231l-166 53l312 426l260 -90z" />
    <glyph glyph-name="uni0302" unicode="&#x302;" horiz-adv-x="0" 
d="M528 1276l-227 -33l-106 291l-228 -291l-241 35l374 410h234z" />
    <glyph glyph-name="tildecomb" unicode="&#x303;" horiz-adv-x="0" 
d="M-92 1257l-197 17q30 168 104.5 251t186.5 83q95 0 191 -70q86 -63 129 -63q77 0 102 147l197 -16q-30 -167 -104.5 -250.5t-186.5 -83.5q-100 0 -191 69q-83 64 -129 64q-78 0 -102 -148z" />
    <glyph glyph-name="uni0304" unicode="&#x304;" horiz-adv-x="0" 
d="M-197 1327l39 199h686l-39 -199h-686z" />
    <glyph glyph-name="uni0306" unicode="&#x306;" horiz-adv-x="0" 
d="M-172 1630l203 12q-8 -54 -8 -73q0 -142 133 -142q163 0 213 215l217 -12q-48 -193 -167 -291t-284 -98q-148 0 -231.5 77.5t-83.5 221.5q0 46 8 90z" />
    <glyph glyph-name="uni0307" unicode="&#x307;" horiz-adv-x="0" 
d="M-16 1294l53 265h313l-53 -265h-313z" />
    <glyph glyph-name="uni0308" unicode="&#x308;" horiz-adv-x="0" 
d="M236 1294l53 265h266l-53 -265h-266zM-223 1294l53 265h266l-53 -265h-266z" />
    <glyph glyph-name="hookabovecomb" unicode="&#x309;" horiz-adv-x="0" 
d="M143 1217l-106 110q107 44 162 82t55 84q0 53 -88 53q-107 0 -217 -67l-4 178q135 74 280 74q120 0 187 -49t67 -148q0 -48 -18 -90t-46.5 -73t-74.5 -60t-91 -50t-106 -44z" />
    <glyph glyph-name="uni030A" unicode="&#x30a;" horiz-adv-x="0" 
d="M147 1204q-114 0 -181.5 69t-67.5 177q0 128 90 214.5t219 86.5q114 0 183 -69.5t69 -176.5q0 -128 -91.5 -214.5t-220.5 -86.5zM162 1356q58 0 95.5 38.5t37.5 98.5q0 50 -26 78t-76 28q-59 0 -96.5 -38.5t-37.5 -98.5q0 -48 27 -77t76 -29z" />
    <glyph glyph-name="uni030B" unicode="&#x30b;" horiz-adv-x="0" 
d="M-27 1237l-161 57l309 416l233 -88zM379 1237l-162 57l309 416l234 -88z" />
    <glyph glyph-name="uni030C" unicode="&#x30c;" horiz-adv-x="0" 
d="M614 1651l-372 -402h-234l-194 402l229 35l104 -283l226 285z" />
    <glyph glyph-name="uni0312" unicode="&#x312;" horiz-adv-x="0" 
d="M213 1679l205 -47q-138 -169 -158 -366h-254q33 256 207 413z" />
    <glyph glyph-name="uni031B" unicode="&#x31b;" horiz-adv-x="0" 
d="M-201 1110h35q49 0 85 18t55 49.5t27.5 69t8.5 82.5q0 27 -2 43h248q2 -18 2 -45q0 -77 -19.5 -141.5t-64.5 -122t-129.5 -90.5t-202.5 -33h-78z" />
    <glyph glyph-name="dotbelowcomb" unicode="&#x323;" horiz-adv-x="0" 
d="M-348 -414l53 264h313l-53 -264h-313z" />
    <glyph glyph-name="uni0326" unicode="&#x326;" horiz-adv-x="0" 
d="M-223 -520l-203 49q158 172 180 365h254q-39 -254 -231 -414z" />
    <glyph glyph-name="uni0327" unicode="&#x327;" horiz-adv-x="0" 
d="M111 -252q0 -119 -89 -185.5t-249 -66.5q-112 0 -232 41l66 182q82 -45 184 -45q57 0 89 20t32 54q0 16 -10 28.5t-53 30t-121 33.5l104 172h131l-51 -73q115 -36 157 -80.5t42 -110.5z" />
    <glyph glyph-name="uni0328" unicode="&#x328;" horiz-adv-x="0" 
d="M68 -446q-91 -58 -215 -58q-117 0 -180.5 52.5t-63.5 148.5q0 93 61.5 170t188.5 145h231q-128 -45 -200 -108t-72 -135q0 -80 94 -80q62 0 147 49z" />
    <glyph glyph-name="uni0374" unicode="&#x374;" horiz-adv-x="585" 
d="M193 932l239 661h313v-4l-350 -657h-202z" />
    <glyph glyph-name="uni037E" unicode="&#x37e;" horiz-adv-x="802" 
d="M270 752l72 358h344l-72 -358h-344zM176 -332l-235 58q256 286 274 639h299q0 -396 -338 -697z" />
    <glyph glyph-name="tonos" unicode="&#x384;" horiz-adv-x="491" 
d="M401 1227l-178 16l133 467h291v-4z" />
    <glyph glyph-name="dieresistonos" unicode="&#x385;" horiz-adv-x="1024" 
d="M688 1227l-176 16l127 467h281v-4zM868 1294l54 265h266l-53 -265h-267zM174 1294l53 265h267l-54 -265h-266z" />
    <glyph glyph-name="Alphatonos" unicode="&#x386;" horiz-adv-x="1480" 
d="M1044 0l-40 352h-558l-176 -352h-340l832 1520h373l227 -1520h-318zM295 1036l-178 17l133 467h291v-4zM569 596h406l-76 661z" />
    <glyph glyph-name="anoteleia" unicode="&#x387;" horiz-adv-x="802" 
d="M268 754l72 356h346l-72 -356h-346z" />
    <glyph glyph-name="Epsilontonos" unicode="&#x388;" horiz-adv-x="1523" 
d="M1358 254l-51 -254h-1020l303 1520h1003l-51 -252h-702l-72 -357h621l-50 -243h-618l-84 -414h721zM233 1036l-178 17l133 467h291v-4z" />
    <glyph glyph-name="Etatonos" unicode="&#x389;" horiz-adv-x="1783" 
d="M1200 0l133 664h-612l-133 -664h-301l303 1520h301l-121 -605h612l121 605h301l-303 -1520h-301zM233 1036l-178 17l133 467h291v-4z" />
    <glyph glyph-name="Iotatonos" unicode="&#x38a;" horiz-adv-x="872" 
d="M287 0l303 1520h301l-303 -1520h-301zM233 1036l-178 17l133 467h291v-4z" />
    <glyph glyph-name="Omicrontonos" unicode="&#x38c;" horiz-adv-x="1759" 
d="M883 -29q-271 0 -424.5 160.5t-153.5 448.5q0 122 24 239.5t70 226t118 200t162 159t207.5 105.5t250.5 38q271 0 424 -160t153 -448q0 -146 -33.5 -286t-102.5 -264t-166.5 -217t-233.5 -147.5t-295 -54.5zM233 1036l-178 17l133 467h291v-4zM913 233q92 0 172 41.5
t136.5 110.5t97.5 158.5t60.5 186t19.5 192.5q0 181 -75 272.5t-218 91.5q-92 0 -172.5 -41.5t-136.5 -110t-96.5 -158t-60 -186t-19.5 -192.5q0 -181 75 -273t217 -92z" />
    <glyph glyph-name="Upsilontonos" unicode="&#x38e;" horiz-adv-x="1673" 
d="M1868 1520l-705 -965l-110 -555h-301l114 571l-323 949h325l199 -693l446 693h355zM233 1036l-178 17l133 467h291v-4z" />
    <glyph glyph-name="Omegatonos" unicode="&#x38f;" horiz-adv-x="1845" 
d="M842 231l-47 -231h-650l52 254h348q-205 246 -205 528q0 115 33.5 226t102.5 208.5t165.5 171.5t230.5 117t289 43q128 0 233 -29.5t178 -82t123 -126t73.5 -159.5t23.5 -184q0 -399 -418 -713h316l-52 -254h-649l47 231q432 331 432 699q0 166 -86 261t-254 95
q-217 0 -346 -152t-129 -395q0 -143 48 -274.5t141 -233.5zM233 1036l-178 17l133 467h291v-4z" />
    <glyph glyph-name="iotadieresistonos" unicode="&#x390;" horiz-adv-x="669" 
d="M494 1227l-177 16l127 467h281v-4zM674 1294l53 265h266l-53 -265h-266zM-20 1294l53 265h266l-53 -265h-266zM526 8q-88 -24 -170 -24q-136 0 -202 51t-66 162q0 47 12 102l162 811h287l-156 -774q-6 -27 -6 -47q0 -33 19 -47.5t61 -14.5q55 0 108 19z" />
    <glyph glyph-name="Alpha" unicode="&#x391;" horiz-adv-x="1480" 
d="M1028 0l-41 352h-557l-176 -352h-340l831 1520h373l228 -1520h-318zM553 596h405l-75 661z" />
    <glyph glyph-name="Beta" unicode="&#x392;" horiz-adv-x="1441" 
d="M1329 461q0 -69 -18 -132t-62.5 -124.5t-112.5 -106t-176 -71.5t-245 -27h-654l304 1520h583q445 0 445 -346q0 -66 -16 -123.5t-51.5 -111t-100 -94.5t-154.5 -63q258 -69 258 -321zM870 1274h-262l-78 -391h289q72 0 125.5 20.5t82.5 55t42.5 73t13.5 82.5
q0 84 -53 122t-160 38zM793 670h-306l-84 -420h326q145 0 217 69t72 173q0 91 -55 134.5t-170 43.5z" />
    <glyph glyph-name="Gamma" unicode="&#x393;" horiz-adv-x="1163" 
d="M1278 1262h-662l-254 -1262h-301l304 1520h966z" />
    <glyph glyph-name="uni0394" unicode="&#x394;" horiz-adv-x="1480" 
d="M1118 1520l228 -1520h-1432l831 1520h373zM383 256h616l-116 1001z" />
    <glyph glyph-name="Epsilon" unicode="&#x395;" horiz-adv-x="1298" 
d="M1133 254l-52 -254h-1020l304 1520h1003l-51 -252h-703l-71 -357h620l-49 -243h-618l-84 -414h721z" />
    <glyph glyph-name="Zeta" unicode="&#x396;" horiz-adv-x="1327" 
d="M1180 254l-52 -254h-1155l47 233l965 1035h-725l53 252h1100l-45 -230l-969 -1036h781z" />
    <glyph glyph-name="Eta" unicode="&#x397;" horiz-adv-x="1560" 
d="M975 0l133 664h-612l-134 -664h-301l304 1520h301l-121 -605h612l121 605h301l-303 -1520h-301z" />
    <glyph glyph-name="Theta" unicode="&#x398;" horiz-adv-x="1581" 
d="M705 -29q-271 0 -424.5 160.5t-153.5 448.5q0 146 33.5 286t102.5 263.5t166.5 217t233.5 147.5t295 54q271 0 424.5 -160t153.5 -448q0 -146 -33.5 -286t-102.5 -264t-166.5 -217t-233.5 -147.5t-295 -54.5zM735 233q92 0 172 41.5t136.5 110.5t97.5 158.5t60.5 186
t19.5 192.5q0 181 -75 272.5t-218 91.5q-92 0 -172.5 -41.5t-137 -110t-97 -158t-60 -186t-19.5 -192.5q0 -181 75.5 -273t217.5 -92zM559 664l45 223h506l-45 -223h-506z" />
    <glyph glyph-name="Iota" unicode="&#x399;" horiz-adv-x="647" 
d="M61 0l304 1520h301l-304 -1520h-301z" />
    <glyph glyph-name="Kappa" unicode="&#x39a;" horiz-adv-x="1454" 
d="M999 0l-362 639l-178 -156l-97 -483h-301l304 1520h301l-138 -691l713 691h399v-4l-790 -693l502 -819v-4h-353z" />
    <glyph glyph-name="Lambda" unicode="&#x39b;" horiz-adv-x="1480" 
d="M1028 0l-141 1262l-633 -1262h-340l831 1520h373l228 -1520h-318z" />
    <glyph glyph-name="Mu" unicode="&#x39c;" horiz-adv-x="2002" 
d="M791 0l-207 1210l-242 -1210h-281l304 1520h415l189 -1102l606 1102h448l-303 -1520h-290l245 1225l-678 -1225h-206z" />
    <glyph glyph-name="Nu" unicode="&#x39d;" horiz-adv-x="1585" 
d="M1008 0l-451 1059l-211 -1059h-285l304 1520h294l451 -1059l211 1059h285l-303 -1520h-295z" />
    <glyph glyph-name="Xi" unicode="&#x39e;" horiz-adv-x="1370" 
d="M266 1264l51 256h1121l-52 -256h-1120zM254 662l51 247h901l-49 -247h-903zM-2 0l51 258h1155l-53 -258h-1153z" />
    <glyph glyph-name="Omicron" unicode="&#x39f;" horiz-adv-x="1581" 
d="M705 -29q-271 0 -424.5 160.5t-153.5 448.5q0 146 33.5 286t102.5 263.5t166.5 217t233.5 147.5t295 54q271 0 424.5 -160t153.5 -448q0 -146 -33.5 -286t-102.5 -264t-166.5 -217t-233.5 -147.5t-295 -54.5zM735 233q92 0 172 41.5t136.5 110.5t97.5 158.5t60.5 186
t19.5 192.5q0 181 -75 272.5t-218 91.5q-92 0 -172.5 -41.5t-137 -110t-97 -158t-60 -186t-19.5 -192.5q0 -181 75.5 -273t217.5 -92z" />
    <glyph glyph-name="Pi" unicode="&#x3a0;" horiz-adv-x="1540" 
d="M954 0l252 1268h-592l-252 -1268h-301l304 1520h1194l-304 -1520h-301z" />
    <glyph glyph-name="Rho" unicode="&#x3a1;" horiz-adv-x="1374" 
d="M696 479h-237l-97 -479h-301l304 1520h530q512 0 512 -441q0 -95 -23.5 -180.5t-77 -163t-134 -134t-202.5 -89.5t-274 -33zM834 1270h-218l-108 -541h219q101 0 175.5 27.5t116.5 74.5t61.5 103t19.5 121q0 109 -62 162t-204 53z" />
    <glyph glyph-name="Sigma" unicode="&#x3a3;" horiz-adv-x="1327" 
d="M1188 254l-51 -254h-1155l47 236l618 557l-391 497l45 230h1106l-49 -252h-744l375 -482l-4 -20l-573 -512h776z" />
    <glyph glyph-name="Tau" unicode="&#x3a4;" horiz-adv-x="1245" 
d="M1362 1268h-444l-254 -1268h-302l254 1268h-450l49 252h1198z" />
    <glyph glyph-name="Upsilon" unicode="&#x3a5;" horiz-adv-x="1323" 
d="M1516 1520l-705 -965l-111 -555h-301l115 571l-324 949h326l199 -693l446 693h355z" />
    <glyph glyph-name="Phi" unicode="&#x3a6;" horiz-adv-x="1859" 
d="M1821 848q0 -215 -103.5 -379t-292.5 -254.5t-438 -93.5l-31 -150h-286l30 152q-268 27 -420.5 175t-152.5 409q0 325 228 523.5t606 203.5l28 139h287l-29 -141q267 -27 420.5 -175t153.5 -409zM440 713q0 -156 80.5 -246t227.5 -105l165 834q-201 -6 -337 -140
t-136 -343zM1507 844q0 153 -79.5 242t-227.5 108l-166 -834q131 4 238.5 64t171 170t63.5 250z" />
    <glyph glyph-name="Chi" unicode="&#x3a7;" horiz-adv-x="1400" 
d="M920 0l-226 557l-405 -557h-373l653 784l-333 736h342l213 -533l385 533h370l-631 -760l347 -760h-342z" />
    <glyph glyph-name="Psi" unicode="&#x3a8;" horiz-adv-x="1775" 
d="M1778 1133q-43 -215 -109 -361t-162.5 -234t-217.5 -125.5t-285 -37.5l-76 -375h-301l75 375q-234 2 -364.5 130t-130.5 386q0 101 29 256l73 373h301l-78 -394q-26 -136 -26 -235q0 -147 62.5 -203.5t185.5 -56.5l178 889h301l-178 -889q83 1 144.5 23t115 76.5
t92.5 152t68 243.5l77 394h303z" />
    <glyph glyph-name="uni03A9" unicode="&#x3a9;" horiz-adv-x="1683" 
d="M680 231l-47 -231h-649l51 254h348q-205 246 -205 528q0 115 33.5 226t102.5 208.5t165.5 171.5t230.5 117t289 43q128 0 233 -29.5t178 -82t123 -126t73.5 -159.5t23.5 -184q0 -399 -418 -713h316l-51 -254h-650l47 231q433 332 433 699q0 166 -86 261t-254 95
q-217 0 -346 -152t-129 -395q0 -143 47.5 -274.5t140.5 -233.5z" />
    <glyph glyph-name="Iotadieresis" unicode="&#x3aa;" horiz-adv-x="647" 
d="M643 1683l53 263h271l-54 -263h-270zM162 1683l53 263h270l-53 -263h-270zM61 0l304 1520h301l-304 -1520h-301z" />
    <glyph glyph-name="Upsilondieresis" unicode="&#x3ab;" horiz-adv-x="1323" 
d="M981 1683l53 263h271l-54 -263h-270zM500 1683l53 263h270l-53 -263h-270zM1516 1520l-705 -965l-111 -555h-301l115 571l-324 949h326l199 -693l446 693h355z" />
    <glyph glyph-name="alphatonos" unicode="&#x3ac;" horiz-adv-x="1345" 
d="M864 1227l-178 16l133 467h291v-4zM803 182v11q-150 -218 -375 -218q-160 0 -258 107.5t-98 327.5q0 189 71.5 353.5t206.5 268t303 103.5q133 0 209.5 -63.5t100.5 -176.5l69 215h295q-140 -310 -200 -484.5t-60 -287.5q0 -53 17 -82t69 -29q45 0 90 19l-47 -238
q-81 -24 -162 -24q-123 0 -177 48.5t-54 149.5zM367 438q0 -219 153 -219q102 0 183 86.5t128 245.5l21 70q2 14 2 43q0 233 -166 233q-92 0 -166.5 -65.5t-114.5 -170t-40 -223.5z" />
    <glyph glyph-name="epsilontonos" unicode="&#x3ad;" horiz-adv-x="1105" 
d="M786 1227l-178 16l133 467h291v-4zM946 90q-180 -115 -463 -115q-214 0 -330 70.5t-116 212.5q0 119 78.5 203t218.5 121q-162 57 -162 215q0 147 135 242.5t379 95.5q245 0 399 -93l-79 -229q-129 94 -316 94q-101 0 -160 -31.5t-59 -93.5q0 -55 51 -83.5t174 -28.5h154
l-41 -203h-164q-146 0 -225.5 -42t-79.5 -116q0 -108 209 -108q119 0 209 30t174 88z" />
    <glyph glyph-name="etatonos" unicode="&#x3ae;" horiz-adv-x="1320" 
d="M901 1227l-178 16l133 467h291v-4zM1210 692l-227 -1134h-287l224 1118q10 48 10 84q0 125 -123 125q-82 0 -159.5 -51t-125.5 -146l-139 -688h-287l156 774q6 27 6 47q0 33 -17.5 47.5t-54.5 14.5q-33 0 -77 -13l45 236q67 20 153 20q118 0 175 -45.5t57 -142.5v-20
q74 100 176 158.5t219 58.5q131 0 211 -76t80 -228q0 -63 -15 -139z" />
    <glyph glyph-name="iotatonos" unicode="&#x3af;" horiz-adv-x="669" 
d="M500 1227l-178 16l133 467h290v-4zM526 8q-88 -24 -170 -24q-136 0 -202 51t-66 162q0 47 12 102l162 811h287l-156 -774q-6 -27 -6 -47q0 -33 19 -47.5t61 -14.5q55 0 108 19z" />
    <glyph glyph-name="upsilondieresistonos" unicode="&#x3b0;" horiz-adv-x="1247" 
d="M768 1227l-176 16l127 467h280v-4zM948 1294l53 265h267l-54 -265h-266zM254 1294l53 265h266l-53 -265h-266zM1149 1110q16 -123 16 -287q0 -83 -7 -161t-26.5 -164.5t-50 -160t-81 -141.5t-115 -116t-156.5 -76.5t-203 -28.5q-200 0 -311 91t-111 276q0 68 15 147
l125 621h286l-131 -653q-8 -39 -8 -80q0 -166 166 -166q60 0 109 23.5t81.5 61t57.5 92t38.5 109t22 119t11 114.5t2.5 104q0 138 -15 276h285z" />
    <glyph glyph-name="alpha" unicode="&#x3b1;" horiz-adv-x="1345" 
d="M803 182v11q-150 -218 -375 -218q-160 0 -258 107.5t-98 327.5q0 189 71.5 353.5t206.5 268t303 103.5q133 0 209.5 -63.5t100.5 -176.5l69 215h295q-140 -310 -200 -484.5t-60 -287.5q0 -53 17 -82t69 -29q45 0 90 19l-47 -238q-81 -24 -162 -24q-123 0 -177 48.5
t-54 149.5zM367 438q0 -219 153 -219q102 0 183 86.5t128 245.5l21 70q2 14 2 43q0 233 -166 233q-92 0 -166.5 -65.5t-114.5 -170t-40 -223.5z" />
    <glyph glyph-name="beta" unicode="&#x3b2;" horiz-adv-x="1298" 
d="M672 -25q-206 0 -328 119l-106 -536h-285l307 1540q28 140 79.5 241t123.5 160.5t159 87t195 27.5q213 0 333 -97t120 -270q0 -153 -90 -259t-236 -146q122 -35 190 -129t68 -228q0 -94 -34.5 -183.5t-99 -163t-167.5 -118.5t-229 -45zM547 1104l-156 -782
q24 -49 86.5 -81t145.5 -32q70 0 127 26t91.5 69t53 95.5t18.5 108.5q0 101 -59.5 160t-181.5 59h-68l41 211h70q125 0 196.5 75t71.5 183q0 89 -48 135.5t-136 46.5q-200 0 -252 -274z" />
    <glyph glyph-name="gamma" unicode="&#x3b3;" horiz-adv-x="1294" 
d="M1395 1110l-779 -1159l-110 -393h-324l162 426q23 180 23 395q0 270 -48 386t-151 116q-43 0 -96 -17l26 240q82 26 168 26q182 0 264 -129.5t82 -437.5q0 -129 -12 -264l449 811h346z" />
    <glyph glyph-name="delta" unicode="&#x3b4;" horiz-adv-x="1239" 
d="M1161 604q0 -94 -25.5 -184t-77 -170.5t-124 -142t-173.5 -97t-218 -35.5q-220 0 -345.5 120t-125.5 339q0 233 138 384.5t380 193.5q-98 75 -144.5 143.5t-46.5 165.5q0 138 99.5 217.5t302.5 79.5q157 0 296.5 -47t239.5 -117l-100 -242q-90 73 -201 122.5t-219 49.5
q-123 0 -123 -84q0 -26 11 -49.5t38.5 -50.5t50 -45t70.5 -53q52 -39 87.5 -69.5t78.5 -78.5t69 -96t44 -114t18 -140zM362 446q0 -111 51 -174t148 -63q95 0 167.5 60t107 150t34.5 191q0 89 -30 145t-99 109q-169 -9 -274 -130t-105 -288z" />
    <glyph glyph-name="epsilon" unicode="&#x3b5;" horiz-adv-x="1105" 
d="M946 90q-180 -115 -463 -115q-214 0 -330 70.5t-116 212.5q0 119 78.5 203t218.5 121q-162 57 -162 215q0 147 135 242.5t379 95.5q245 0 399 -93l-79 -229q-129 94 -316 94q-101 0 -160 -31.5t-59 -93.5q0 -55 51 -83.5t174 -28.5h154l-41 -203h-164q-146 0 -225.5 -42
t-79.5 -116q0 -108 209 -108q119 0 209 30t174 88z" />
    <glyph glyph-name="zeta" unicode="&#x3b6;" horiz-adv-x="978" 
d="M874 -2q0 -127 -84 -249t-219 -204l-219 127q108 57 174 129t66 129q0 44 -42.5 68.5t-170.5 64.5q-44 14 -76.5 26.5t-72.5 33t-68 46.5t-53 60t-37.5 80.5t-12.5 102.5q0 407 711 950h-72q-274 0 -385 20l45 232q137 -25 502 -25q120 0 316 4l-41 -211
q-201 -138 -356.5 -276t-246.5 -253.5t-136.5 -211.5t-45.5 -168q0 -27 7.5 -50t18 -40t31.5 -32.5t37 -25.5t46 -21.5t48 -17.5t52 -16q37 -11 60.5 -19t57 -22t54 -27.5t44.5 -34.5t37 -44t22 -55t9 -70z" />
    <glyph glyph-name="eta" unicode="&#x3b7;" horiz-adv-x="1320" 
d="M1210 692l-227 -1134h-287l224 1118q10 48 10 84q0 125 -123 125q-82 0 -159.5 -51t-125.5 -146l-139 -688h-287l156 774q6 27 6 47q0 33 -17.5 47.5t-54.5 14.5q-33 0 -77 -13l45 236q67 20 153 20q118 0 175 -45.5t57 -142.5v-20q74 100 176 158.5t219 58.5
q131 0 211 -76t80 -228q0 -63 -15 -139z" />
    <glyph glyph-name="theta" unicode="&#x3b8;" horiz-adv-x="1249" 
d="M524 -25q-199 0 -305 128t-106 378q0 162 34 324q78 389 247 597t423 208q199 0 305.5 -128.5t106.5 -377.5q0 -157 -35 -324q-78 -389 -247 -597t-423 -208zM793 1378q-226 0 -340 -477h481q24 150 24 236q0 241 -165 241zM385 449q0 -242 164 -242q119 0 202.5 121.5
t141.5 371.5h-481q-27 -163 -27 -251z" />
    <glyph glyph-name="iota" unicode="&#x3b9;" horiz-adv-x="669" 
d="M526 8q-88 -24 -170 -24q-136 0 -202 51t-66 162q0 47 12 102l162 811h287l-156 -774q-6 -27 -6 -47q0 -33 19 -47.5t61 -14.5q55 0 108 19z" />
    <glyph glyph-name="kappa" unicode="&#x3ba;" horiz-adv-x="1255" 
d="M817 0l-221 471q-66 -68 -229 -231l-48 -240h-286l223 1110h287l-109 -539q113 134 189.5 218t153 155.5t138.5 108.5t127 57t138 20q75 0 133 -20l-70 -250q-46 17 -94 17q-72 0 -144.5 -42.5t-218.5 -179.5l351 -651v-4h-320z" />
    <glyph glyph-name="lambda" unicode="&#x3bb;" horiz-adv-x="1228" 
d="M805 0l-107 782l-422 -782h-342l699 1100q-24 153 -67.5 212.5t-143.5 59.5q-65 0 -143 -35l43 236q55 23 93.5 32t94.5 9q183 0 266.5 -103t126.5 -370l187 -1141h-285z" />
    <glyph glyph-name="uni03BC" unicode="&#x3bc;" horiz-adv-x="1333" 
d="M481 -25q-108 0 -174 66l-71 -483h-285l311 1552h287l-135 -676q-11 -57 -11 -82q0 -127 127 -127q95 0 167 59.5t118 153.5l135 672h287l-156 -774q-6 -27 -6 -47q0 -62 70 -62q47 0 94 19l-49 -238q-81 -24 -158 -24q-114 0 -172 40t-65 128q-132 -177 -314 -177z" />
    <glyph glyph-name="nu" unicode="&#x3bd;" horiz-adv-x="1208" 
d="M1214 1110q-58 -308 -228.5 -602.5t-410.5 -507.5h-272q-45 688 -178 1110h301q78 -370 109 -858q136 179 231 403t133 455h315z" />
    <glyph glyph-name="xi" unicode="&#x3be;" horiz-adv-x="1052" 
d="M918 -2q0 -126 -83.5 -247.5t-220.5 -205.5l-219 127q110 59 175 130t65 126q0 17 -6 31t-22 25.5t-30 19.5t-44.5 17.5t-50.5 15t-62 16.5q-43 11 -74.5 20.5t-71.5 25t-68 33t-57 43.5t-47 56.5t-29.5 72.5t-11.5 91q0 156 104 273t290 166q-54 17 -92.5 44.5
t-58.5 60.5t-29 65.5t-9 68.5q0 110 76 190.5t205 118.5q-168 3 -279 19l41 213q138 -25 551 -25q116 0 316 4l-48 -231h-190q-163 0 -270 -67.5t-107 -184.5q0 -83 56 -123.5t157 -40.5h207l-47 -244h-250q-150 0 -239 -71t-89 -176q0 -43 15.5 -72.5t52 -50.5t72.5 -33.5
t100 -28.5q38 -10 59 -15.5t56.5 -16.5t56 -21.5t47.5 -26t43 -33.5t31 -41.5t22 -53t7 -64.5z" />
    <glyph glyph-name="omicron" unicode="&#x3bf;" horiz-adv-x="1234" 
d="M537 -25q-97 0 -179.5 27t-147 81.5t-101.5 144.5t-37 208q0 103 25.5 203t77.5 190t125 158t176 108t222 40q97 0 179.5 -27t147 -81.5t101.5 -144.5t37 -208q0 -103 -25.5 -203t-77.5 -190t-125 -158t-176 -108t-222 -40zM559 209q74 0 135 40.5t99 106.5t58.5 144.5
t20.5 158.5q0 121 -50 181.5t-144 60.5q-74 0 -136 -40.5t-100 -106.5t-59 -144.5t-21 -158.5q0 -121 51.5 -181.5t145.5 -60.5z" />
    <glyph glyph-name="uni03C0" unicode="&#x3c0;" horiz-adv-x="1421" 
d="M1214 8q-88 -24 -172 -24q-136 0 -200 51t-64 168q0 43 15 127l110 549h-274q-58 -286 -126 -501.5t-175 -377.5h-310q118 176 195 392t137 487h-227l45 231h1284l-47 -231h-215l-109 -543q-6 -27 -6 -47q0 -33 19 -47.5t61 -14.5q57 0 107 19z" />
    <glyph glyph-name="rho" unicode="&#x3c1;" horiz-adv-x="1280" 
d="M633 -25q-194 0 -297 148l-113 -565h-286l198 1001q115 576 600 576q219 0 346 -117t127 -352q0 -132 -42 -257t-116 -221.5t-183 -154.5t-234 -58zM420 549l-37 -182q22 -74 76.5 -117t132.5 -43q96 0 171.5 66.5t113.5 166.5t38 211q0 244 -200 244q-65 0 -116 -26
t-85 -75t-56 -108t-38 -137z" />
    <glyph glyph-name="sigma1" unicode="&#x3c2;" horiz-adv-x="1042" 
d="M557 -455l-219 127q107 59 172 129.5t65 128.5q0 44 -38 68.5t-131 56.5q-49 17 -85 33.5t-85.5 52t-81.5 79t-55 115t-23 159.5q0 89 20.5 176t69 172.5t119.5 149.5t180.5 103.5t243.5 39.5q198 0 333 -97l-84 -237q-106 92 -249 92q-73 0 -132.5 -24.5t-97.5 -63
t-64 -88.5t-37 -98.5t-11 -96.5q0 -35 6.5 -65t17.5 -52t29.5 -41.5t36 -33t44.5 -27t49 -22t54 -19.5q41 -14 64.5 -23.5t58 -26.5t54 -35t39.5 -43.5t29 -59.5t9 -76q0 -128 -83 -249.5t-218 -203.5z" />
    <glyph glyph-name="sigma" unicode="&#x3c3;" horiz-adv-x="1306" 
d="M1145 561q0 -111 -40.5 -215t-114.5 -187t-190.5 -133.5t-256.5 -50.5q-212 0 -341.5 120t-129.5 341q0 191 81 343t237.5 241.5t363.5 89.5h620l-47 -231h-315q133 -124 133 -318zM559 209q97 0 168.5 62.5t105 155.5t33.5 198q0 76 -22 144.5t-66 109.5h-80
q-80 0 -145.5 -36.5t-106 -97.5t-62.5 -135.5t-22 -154.5q0 -117 49.5 -181.5t147.5 -64.5z" />
    <glyph glyph-name="tau" unicode="&#x3c4;" horiz-adv-x="1036" 
d="M750 16q-100 -32 -205 -32q-136 0 -200 51t-64 168q0 61 14 127l108 549h-315l47 231h983l-47 -231h-379l-108 -545q-6 -30 -6 -45q0 -34 18 -48t61 -14q68 0 131 27z" />
    <glyph glyph-name="upsilon" unicode="&#x3c5;" horiz-adv-x="1247" 
d="M1149 1110q16 -123 16 -287q0 -83 -7 -161t-26.5 -164.5t-50 -160t-81 -141.5t-115 -116t-156.5 -76.5t-203 -28.5q-200 0 -311 91t-111 276q0 68 15 147l125 621h286l-131 -653q-8 -39 -8 -80q0 -166 166 -166q60 0 109 23.5t81.5 61t57.5 92t38.5 109t22 119t11 114.5
t2.5 104q0 138 -15 276h285z" />
    <glyph glyph-name="phi" unicode="&#x3c6;" horiz-adv-x="1628" 
d="M1563 604q0 -138 -56 -256t-153.5 -199.5t-231.5 -127.5t-286 -46l-84 -417h-271l84 426q-109 15 -198.5 54.5t-156.5 103t-104.5 156.5t-37.5 208q0 138 56 256t153.5 199.5t231.5 127.5t286 46l92 458h270l-92 -467q225 -31 361.5 -164t136.5 -358zM356 510
q0 -132 68 -214t184 -97l144 721q-104 -1 -194 -51t-146 -145t-56 -214zM1276 600q0 132 -68.5 214t-185.5 97l-143 -721q104 1 194 51t146.5 145t56.5 214z" />
    <glyph glyph-name="chi" unicode="&#x3c7;" horiz-adv-x="1187" 
d="M969 -438q-84 -23 -162 -23q-51 0 -92.5 12.5t-69 26.5t-51.5 49t-35.5 54t-24.5 68.5t-16.5 66t-12.5 72.5q-3 19 -5 28l-31 180l-350 -538h-332v4l625 819l-41 227q-10 56 -17 88t-17 68t-20.5 54.5t-26.5 35.5t-36.5 23t-48.5 6q-39 0 -99 -17l27 240q79 24 160 24
q57 0 100.5 -12t73.5 -38t50.5 -56.5t35.5 -78.5t24.5 -92t21.5 -107q1 -5 1 -7l25 -131l309 502h334v-4l-590 -772l51 -279q11 -57 17 -86t16.5 -66t20.5 -54t26 -34.5t37 -23.5t49 -6q48 0 100 18z" />
    <glyph glyph-name="psi" unicode="&#x3c8;" horiz-adv-x="1701" 
d="M1634 862q0 -154 -26 -284t-84.5 -240.5t-146 -188t-216 -122t-289.5 -47.5l-84 -422h-276l84 422q-78 5 -144.5 22.5t-128.5 55.5t-106 93.5t-70 141.5t-26 194q0 106 26 236l76 387h287l-88 -436q-21 -110 -21 -187q0 -141 63 -203.5t179 -70.5l260 1307h279
l-262 -1309q215 9 320.5 184t105.5 475q0 87 -13 240h287q14 -128 14 -248z" />
    <glyph glyph-name="omega" unicode="&#x3c9;" horiz-adv-x="1792" 
d="M1710 643q0 -298 -154 -483t-403 -185q-133 0 -216 58.5t-108 169.5q-71 -114 -176.5 -171t-228.5 -57q-168 0 -262 106.5t-94 303.5q0 216 106.5 406t263.5 319l316 -20q-87 -75 -152.5 -145t-122.5 -153t-87 -175t-30 -187q0 -105 35.5 -155t110.5 -50q101 0 162 89.5
t96 267.5l51 262h279l-54 -262q-22 -110 -22 -183q0 -174 137 -174q119 0 188.5 110.5t69.5 289.5q0 252 -149 465l311 20q58 -74 95.5 -197.5t37.5 -269.5z" />
    <glyph glyph-name="iotadieresis" unicode="&#x3ca;" horiz-adv-x="669" 
d="M539 1294l53 265h266l-53 -265h-266zM80 1294l53 265h266l-53 -265h-266zM526 8q-88 -24 -170 -24q-136 0 -202 51t-66 162q0 47 12 102l162 811h287l-156 -774q-6 -27 -6 -47q0 -33 19 -47.5t61 -14.5q55 0 108 19z" />
    <glyph glyph-name="upsilondieresis" unicode="&#x3cb;" horiz-adv-x="1247" 
d="M825 1294l54 265h266l-53 -265h-267zM367 1294l53 265h266l-53 -265h-266zM1149 1110q16 -123 16 -287q0 -83 -7 -161t-26.5 -164.5t-50 -160t-81 -141.5t-115 -116t-156.5 -76.5t-203 -28.5q-200 0 -311 91t-111 276q0 68 15 147l125 621h286l-131 -653q-8 -39 -8 -80
q0 -166 166 -166q60 0 109 23.5t81.5 61t57.5 92t38.5 109t22 119t11 114.5t2.5 104q0 138 -15 276h285z" />
    <glyph glyph-name="omicrontonos" unicode="&#x3cc;" horiz-adv-x="1234" 
d="M840 1227l-178 16l133 467h290v-4zM537 -25q-97 0 -179.5 27t-147 81.5t-101.5 144.5t-37 208q0 103 25.5 203t77.5 190t125 158t176 108t222 40q97 0 179.5 -27t147 -81.5t101.5 -144.5t37 -208q0 -103 -25.5 -203t-77.5 -190t-125 -158t-176 -108t-222 -40zM559 209
q74 0 135 40.5t99 106.5t58.5 144.5t20.5 158.5q0 121 -50 181.5t-144 60.5q-74 0 -136 -40.5t-100 -106.5t-59 -144.5t-21 -158.5q0 -121 51.5 -181.5t145.5 -60.5z" />
    <glyph glyph-name="upsilontonos" unicode="&#x3cd;" horiz-adv-x="1247" 
d="M797 1227l-179 16l134 467h290v-4zM1149 1110q16 -123 16 -287q0 -83 -7 -161t-26.5 -164.5t-50 -160t-81 -141.5t-115 -116t-156.5 -76.5t-203 -28.5q-200 0 -311 91t-111 276q0 68 15 147l125 621h286l-131 -653q-8 -39 -8 -80q0 -166 166 -166q60 0 109 23.5t81.5 61
t57.5 92t38.5 109t22 119t11 114.5t2.5 104q0 138 -15 276h285z" />
    <glyph glyph-name="omegatonos" unicode="&#x3ce;" horiz-adv-x="1792" 
d="M1114 1227l-178 16l133 467h291v-4zM1710 643q0 -298 -154 -483t-403 -185q-133 0 -216 58.5t-108 169.5q-71 -114 -176.5 -171t-228.5 -57q-168 0 -262 106.5t-94 303.5q0 216 106.5 406t263.5 319l316 -20q-87 -75 -152.5 -145t-122.5 -153t-87 -175t-30 -187
q0 -105 35.5 -155t110.5 -50q101 0 162 89.5t96 267.5l51 262h279l-54 -262q-22 -110 -22 -183q0 -174 137 -174q119 0 188.5 110.5t69.5 289.5q0 252 -149 465l311 20q58 -74 95.5 -197.5t37.5 -269.5z" />
    <glyph glyph-name="uni0400" unicode="&#x400;" horiz-adv-x="1298" 
d="M965 1626l-400 303l266 109l289 -336zM1133 254l-52 -254h-1020l304 1520h1003l-51 -252h-703l-71 -357h620l-49 -243h-618l-84 -414h721z" />
    <glyph glyph-name="uni0401" unicode="&#x401;" horiz-adv-x="1298" 
d="M997 1683l54 263h270l-53 -263h-271zM516 1683l53 263h271l-54 -263h-270zM1133 254l-52 -254h-1020l304 1520h1003l-51 -252h-703l-71 -357h620l-49 -243h-618l-84 -414h721z" />
    <glyph glyph-name="uni0402" unicode="&#x402;" horiz-adv-x="1665" 
d="M1577 510q0 -248 -151 -393.5t-396 -145.5q-127 0 -233 33l59 242q21 -11 67.5 -20t86.5 -9q116 0 186 71t70 195q0 103 -60 149t-205 46q-133 0 -249 -39l-129 -639h-301l253 1268h-409l49 252h1198l-51 -252h-485l-76 -383q134 45 286 45q490 0 490 -420z" />
    <glyph glyph-name="uni0403" unicode="&#x403;" horiz-adv-x="1163" 
d="M797 1626l-146 86l385 326l242 -146zM1278 1262h-662l-254 -1262h-301l304 1520h966z" />
    <glyph glyph-name="uni0404" unicode="&#x404;" horiz-adv-x="1380" 
d="M1214 111q-73 -60 -198.5 -100t-278.5 -40q-295 0 -452.5 159t-157.5 474q0 145 32.5 280t102 256.5t169 211.5t244 143t316.5 53q282 0 430 -127l-106 -276q-122 141 -344 141q-190 0 -316 -103.5t-184 -275.5h649l-49 -243h-643v-37q0 -207 87 -300.5t273 -93.5
q118 0 214 37t190 119z" />
    <glyph glyph-name="uni0405" unicode="&#x405;" horiz-adv-x="1255" 
d="M-2 123l92 274q96 -77 215.5 -122.5t241.5 -45.5q142 0 213 61.5t71 153.5q0 30 -7 53t-25.5 42.5t-35 32t-53.5 27.5t-60 23t-75 25q-61 20 -103.5 37t-93 49.5t-81 70.5t-51.5 98.5t-21 135.5q0 106 40 198.5t115 162t192 109.5t262 40q253 0 438 -121l-88 -274
q-171 137 -379 137q-136 0 -204.5 -60t-68.5 -149q0 -33 10.5 -58t27 -43t52 -35t70 -29t96.5 -31t104 -36t94 -49.5t83.5 -71.5t53.5 -101t22 -140q0 -110 -41 -203.5t-119 -163.5t-199.5 -109.5t-273.5 -39.5q-295 0 -514 152z" />
    <glyph glyph-name="uni0406" unicode="&#x406;" horiz-adv-x="647" 
d="M61 0l304 1520h301l-304 -1520h-301z" />
    <glyph glyph-name="uni0407" unicode="&#x407;" horiz-adv-x="647" 
d="M623 1683l53 263h270l-53 -263h-270zM182 1683l54 263h270l-53 -263h-271zM61 0l304 1520h301l-304 -1520h-301z" />
    <glyph glyph-name="uni0408" unicode="&#x408;" horiz-adv-x="905" 
d="M-106 33l69 262q32 -19 54 -29.5t64 -21.5t85 -11q107 0 173.5 70.5t100.5 243.5l195 973h301l-203 -1014q-30 -151 -81 -256t-123 -165.5t-158 -87t-197 -26.5q-90 0 -152 16t-128 46z" />
    <glyph glyph-name="uni0409" unicode="&#x409;" horiz-adv-x="2260" 
d="M946 0l254 1268h-278q-58 -168 -101 -287.5t-91.5 -245.5t-88 -210.5t-85.5 -170t-89 -139.5t-93 -102t-103 -74t-113.5 -40.5t-130.5 -14.5q-87 0 -129 14l51 258q30 -10 71 -10q44 0 82 14t76.5 50t73.5 83.5t76 128.5t79.5 170t88.5 222.5t98.5 272.5t114.5 333h841
l-116 -582h249q498 0 498 -401q0 -87 -20.5 -163.5t-69.5 -146t-123 -119t-187.5 -79t-256.5 -29.5h-578zM1620 692h-236l-88 -442h256q84 0 147.5 22t100 60.5t54.5 84t18 97.5q0 92 -59.5 135t-192.5 43z" />
    <glyph glyph-name="uni040A" unicode="&#x40a;" horiz-adv-x="2269" 
d="M952 0l133 664h-589l-134 -664h-301l304 1520h301l-121 -605h590l120 605h301l-116 -584h250q497 0 497 -399q0 -87 -20.5 -163.5t-69.5 -146t-123 -119t-187.5 -79t-256.5 -29.5h-578zM1626 690h-235l-88 -440h256q84 0 147.5 22t100 60.5t54 84t17.5 97.5q0 92 -59 134
t-193 42z" />
    <glyph glyph-name="uni040B" unicode="&#x40b;" horiz-adv-x="1675" 
d="M743 600l-120 -600h-301l253 1268h-409l49 252h1198l-51 -252h-485l-82 -404q154 74 348 74q199 0 299 -86.5t100 -251.5q0 -70 -14 -139l-92 -461h-301l84 418q10 55 10 92q0 84 -50 121t-161 37q-160 0 -275 -68z" />
    <glyph glyph-name="uni040C" unicode="&#x40c;" horiz-adv-x="1454" 
d="M870 1626l-145 86l385 326l242 -146zM993 0l-489 713l-142 -713h-301l304 1520h301l-142 -707l717 707h399v-4l-833 -742l543 -770v-4h-357z" />
    <glyph glyph-name="uni040D" unicode="&#x40d;" horiz-adv-x="1576" 
d="M1083 1626l-399 303l266 109l289 -336zM995 0l207 1038l-840 -1038h-301l304 1520h297l-209 -1041l841 1041h301l-303 -1520h-297z" />
    <glyph glyph-name="uni040E" unicode="&#x40e;" horiz-adv-x="1359" 
d="M539 1982l223 11q-6 -30 -6 -58q0 -129 162 -129q183 0 233 187l238 -11q-44 -183 -172.5 -267.5t-317.5 -84.5q-173 0 -271 70.5t-98 204.5q0 16 9 77zM887 451q-93 -147 -167.5 -238.5t-150.5 -146t-149.5 -75t-171.5 -20.5q-132 0 -217 35l63 258q62 -33 148 -33
q84 0 139 38t129 151l-291 1100h324l178 -852l485 852h353z" />
    <glyph glyph-name="uni040F" unicode="&#x40f;" horiz-adv-x="1540" 
d="M1255 0h-460l-88 -442h-275l90 442h-461l304 1520h301l-254 -1266h592l253 1266h302z" />
    <glyph glyph-name="uni0410" unicode="&#x410;" horiz-adv-x="1480" 
d="M1028 0l-41 352h-557l-176 -352h-340l831 1520h373l228 -1520h-318zM553 596h405l-75 661z" />
    <glyph glyph-name="uni0411" unicode="&#x411;" horiz-adv-x="1406" 
d="M1309 524q0 -85 -20 -159.5t-68 -142.5t-120 -116.5t-184 -77t-253 -28.5h-603l304 1520h1017l-51 -246h-713l-71 -356h274q244 0 366 -100t122 -294zM754 680h-254l-88 -430h278q83 0 144.5 21t96.5 58t51.5 81t16.5 96q0 89 -58 131.5t-187 42.5z" />
    <glyph glyph-name="uni0412" unicode="&#x412;" horiz-adv-x="1441" 
d="M1329 461q0 -69 -18 -132t-62.5 -124.5t-112.5 -106t-176 -71.5t-245 -27h-654l304 1520h583q445 0 445 -346q0 -66 -16 -123.5t-51.5 -111t-100 -94.5t-154.5 -63q258 -69 258 -321zM870 1274h-262l-78 -391h289q72 0 125.5 20.5t82.5 55t42.5 73t13.5 82.5
q0 84 -53 122t-160 38zM793 670h-306l-84 -420h326q145 0 217 69t72 173q0 91 -55 134.5t-170 43.5z" />
    <glyph glyph-name="uni0413" unicode="&#x413;" horiz-adv-x="1163" 
d="M1278 1262h-662l-254 -1262h-301l304 1520h966z" />
    <glyph glyph-name="uni0414" unicode="&#x414;" horiz-adv-x="1622" 
d="M-178 -418l135 672h74q347 250 661 1266h862l-254 -1266h203l-135 -672h-272l82 418h-1000l-82 -418h-274zM389 254h612l205 1014h-311q-219 -683 -506 -1014z" />
    <glyph glyph-name="uni0415" unicode="&#x415;" horiz-adv-x="1298" 
d="M1133 254l-52 -254h-1020l304 1520h1003l-51 -252h-703l-71 -357h620l-49 -243h-618l-84 -414h721z" />
    <glyph glyph-name="uni0416" unicode="&#x416;" horiz-adv-x="2127" 
d="M805 0l143 723l-647 -723h-399v4l774 789l-459 723v4h340l412 -697l139 697h295l-141 -709l641 709h393v-4l-758 -756l467 -756v-4h-350l-414 713l-141 -713h-295z" />
    <glyph glyph-name="uni0417" unicode="&#x417;" horiz-adv-x="1318" 
d="M1198 463q0 -225 -182.5 -358.5t-509.5 -133.5q-322 0 -510 135l100 269q156 -142 416 -142q165 0 265 65.5t100 186.5q0 86 -64 127t-229 41h-219l49 244h213q185 0 267.5 61t82.5 160q0 168 -248 168q-224 0 -426 -127l-29 262q230 127 529 127q495 0 495 -364
q0 -149 -85.5 -255.5t-268.5 -148.5q254 -69 254 -317z" />
    <glyph glyph-name="uni0418" unicode="&#x418;" horiz-adv-x="1576" 
d="M995 0l207 1038l-840 -1038h-301l304 1520h297l-209 -1041l841 1041h301l-303 -1520h-297z" />
    <glyph glyph-name="uni0419" unicode="&#x419;" horiz-adv-x="1576" 
d="M647 1982l223 11q-6 -30 -6 -58q0 -129 162 -129q184 0 234 187l237 -11q-44 -183 -172 -267.5t-317 -84.5q-173 0 -271 70.5t-98 204.5q0 23 8 77zM995 0l207 1038l-840 -1038h-301l304 1520h297l-209 -1041l841 1041h301l-303 -1520h-297z" />
    <glyph glyph-name="uni041A" unicode="&#x41a;" horiz-adv-x="1454" 
d="M993 0l-489 713l-142 -713h-301l304 1520h301l-142 -707l717 707h399v-4l-833 -742l543 -770v-4h-357z" />
    <glyph glyph-name="uni041B" unicode="&#x41b;" horiz-adv-x="1540" 
d="M956 0l254 1268h-288q-58 -168 -101 -287.5t-91.5 -245.5t-88 -210.5t-85.5 -170t-89 -139.5t-93 -102t-103 -74t-113.5 -40.5t-130.5 -14.5q-75 0 -129 14l51 258q30 -10 71 -10q44 0 82 14t76.5 50t73.5 83.5t76 128.5t79.5 170t88.5 222.5t98.5 272.5t114.5 333h852
l-304 -1520h-301z" />
    <glyph glyph-name="uni041C" unicode="&#x41c;" horiz-adv-x="2002" 
d="M791 0l-207 1210l-242 -1210h-281l304 1520h415l189 -1102l606 1102h448l-303 -1520h-290l245 1225l-678 -1225h-206z" />
    <glyph glyph-name="uni041D" unicode="&#x41d;" horiz-adv-x="1560" 
d="M975 0l133 664h-612l-134 -664h-301l304 1520h301l-121 -605h612l121 605h301l-303 -1520h-301z" />
    <glyph glyph-name="uni041E" unicode="&#x41e;" horiz-adv-x="1581" 
d="M705 -29q-271 0 -424.5 160.5t-153.5 448.5q0 146 33.5 286t102.5 263.5t166.5 217t233.5 147.5t295 54q271 0 424.5 -160t153.5 -448q0 -146 -33.5 -286t-102.5 -264t-166.5 -217t-233.5 -147.5t-295 -54.5zM735 233q92 0 172 41.5t136.5 110.5t97.5 158.5t60.5 186
t19.5 192.5q0 181 -75 272.5t-218 91.5q-92 0 -172.5 -41.5t-137 -110t-97 -158t-60 -186t-19.5 -192.5q0 -181 75.5 -273t217.5 -92z" />
    <glyph glyph-name="uni041F" unicode="&#x41f;" horiz-adv-x="1540" 
d="M954 0l252 1268h-592l-252 -1268h-301l304 1520h1194l-304 -1520h-301z" />
    <glyph glyph-name="uni0420" unicode="&#x420;" horiz-adv-x="1376" 
d="M696 479h-237l-97 -479h-301l304 1520h530q512 0 512 -441q0 -95 -23.5 -180.5t-77 -163t-134 -134t-202.5 -89.5t-274 -33zM834 1270h-218l-108 -541h219q101 0 175.5 27.5t116.5 74.5t61.5 103t19.5 121q0 109 -62 162t-204 53z" />
    <glyph glyph-name="uni0421" unicode="&#x421;" horiz-adv-x="1392" 
d="M1251 129q-82 -67 -214 -112.5t-296 -45.5q-292 0 -453 159.5t-161 471.5q0 144 34.5 280.5t107 257.5t175 211.5t247.5 143.5t315 53q283 0 440 -139l-107 -281q-132 158 -348 158q-103 0 -192 -36.5t-153 -99.5t-110.5 -146.5t-69 -179.5t-22.5 -197q0 -198 90 -296
t261 -98q239 0 434 179z" />
    <glyph glyph-name="uni0422" unicode="&#x422;" horiz-adv-x="1245" 
d="M1362 1268h-444l-254 -1268h-302l254 1268h-450l49 252h1198z" />
    <glyph glyph-name="uni0423" unicode="&#x423;" horiz-adv-x="1359" 
d="M887 451q-93 -147 -167.5 -238.5t-150.5 -146t-149.5 -75t-171.5 -20.5q-132 0 -217 35l63 258q62 -33 148 -33q84 0 139 38t129 151l-291 1100h324l178 -852l485 852h353z" />
    <glyph glyph-name="uni0424" unicode="&#x424;" horiz-adv-x="1863" 
d="M1006 168h-9l-41 -205h-288l41 205q-125 2 -232 38t-185.5 100t-123.5 161t-45 215q0 326 218.5 502t598.5 176h8l39 196h289l-39 -196q125 -2 232 -38t185.5 -100t123.5 -161t45 -215q0 -326 -218.5 -502t-598.5 -176zM434 700q0 -141 88 -217.5t234 -76.5l143 716h-6
q-208 0 -333.5 -109.5t-125.5 -312.5zM1511 827q0 142 -87.5 218.5t-235.5 76.5l-144 -716h9q208 0 333 109t125 312z" />
    <glyph glyph-name="uni0425" unicode="&#x425;" horiz-adv-x="1400" 
d="M920 0l-226 557l-405 -557h-373l653 784l-333 736h342l213 -533l385 533h370l-631 -760l347 -760h-342z" />
    <glyph glyph-name="uni0426" unicode="&#x426;" horiz-adv-x="1611" 
d="M1491 254l-133 -672h-275l84 418h-1106l304 1520h301l-254 -1266h575l254 1266h301l-254 -1266h203z" />
    <glyph glyph-name="uni0427" unicode="&#x427;" horiz-adv-x="1441" 
d="M1460 1520l-303 -1520h-301l113 565q-166 -78 -348 -78q-210 0 -318 97.5t-108 271.5q0 62 12 129l108 535h301l-98 -490q-12 -58 -12 -104q0 -89 52.5 -127.5t174.5 -38.5q164 0 287 65l139 695h301z" />
    <glyph glyph-name="uni0428" unicode="&#x428;" horiz-adv-x="2125" 
d="M2146 1520l-303 -1520h-1782l304 1520h301l-252 -1266h436l254 1266h303l-254 -1266h438l254 1266h301z" />
    <glyph glyph-name="uni0429" unicode="&#x429;" horiz-adv-x="2215" 
d="M2095 254l-135 -672h-272l84 418h-1711l304 1520h301l-252 -1266h436l254 1266h303l-254 -1266h438l254 1266h301l-254 -1266h203z" />
    <glyph glyph-name="uni042A" unicode="&#x42a;" horiz-adv-x="1650" 
d="M1569 551q0 -90 -20 -168t-68.5 -149.5t-123 -122.5t-190.5 -81t-264 -30h-581l253 1268h-421l51 252h723l-111 -557h248q504 0 504 -412zM1004 717h-236l-94 -467h260q89 0 154.5 23t102.5 63.5t54 88t17 103.5q0 97 -60.5 143t-197.5 46z" />
    <glyph glyph-name="uni042B" unicode="&#x42b;" horiz-adv-x="1972" 
d="M1290 551q0 -90 -20 -168t-69 -149.5t-123.5 -122.5t-190.5 -81t-264 -30h-562l304 1520h301l-111 -557h229q506 0 506 -412zM1386 0l304 1520h301l-303 -1520h-302zM723 717h-217l-94 -467h241q89 0 154.5 23t102.5 63.5t54 88t17 103.5q0 97 -60.5 143t-197.5 46z" />
    <glyph glyph-name="uni042C" unicode="&#x42c;" horiz-adv-x="1400" 
d="M1319 551q0 -90 -20 -168t-68.5 -149.5t-123 -122.5t-190.5 -81t-264 -30h-592l304 1520h301l-111 -557h260q504 0 504 -412zM754 717h-248l-94 -467h272q89 0 154.5 23t102.5 63.5t54 88t17 103.5q0 97 -60.5 143t-197.5 46z" />
    <glyph glyph-name="uni042D" unicode="&#x42d;" horiz-adv-x="1380" 
d="M1331 907q0 -146 -30.5 -279.5t-98 -254t-166 -209.5t-244.5 -141t-323 -52q-152 0 -275 36.5t-190 98.5l98 269q60 -66 157.5 -104t215.5 -38q203 0 339.5 117t189.5 314h-654l49 243h633q-3 192 -86 285.5t-268 93.5q-230 0 -389 -127l-31 262q91 61 217 94t260 33
q282 0 439 -157.5t157 -483.5z" />
    <glyph glyph-name="uni042E" unicode="&#x42e;" horiz-adv-x="2187" 
d="M2142 944q0 -146 -33 -286.5t-101 -265t-163.5 -218t-229 -148.5t-288.5 -55q-263 0 -412 158.5t-149 445.5q0 31 4 89h-274l-134 -664h-301l304 1520h301l-121 -605h268q39 134 106.5 246.5t162.5 200t223 137t276 49.5q263 0 412 -158.5t149 -445.5zM1358 233
q89 0 166.5 42t132 111.5t93.5 159.5t58 187t19 193q0 180 -71.5 270t-205.5 90q-88 0 -165.5 -41.5t-132 -111.5t-94 -159.5t-58.5 -186.5t-19 -193q0 -180 71.5 -270.5t205.5 -90.5z" />
    <glyph glyph-name="uni042F" unicode="&#x42f;" horiz-adv-x="1464" 
d="M879 0l106 528h-262l-430 -528h-379l535 592q-99 56 -156 152.5t-57 228.5q0 112 41.5 211t118.5 174t195 118.5t261 43.5h633l-303 -1520h-303zM780 772h252l101 498h-279q-148 0 -228.5 -79.5t-80.5 -201.5q0 -107 63 -162t172 -55z" />
    <glyph glyph-name="uni0430" unicode="&#x430;" horiz-adv-x="1189" 
d="M682 0l23 152q-67 -85 -158.5 -131t-198.5 -46q-139 0 -224 76.5t-85 224.5q0 197 164.5 305.5t476.5 108.5h115l2 10q8 44 8 74q0 71 -44.5 103t-142.5 32q-189 0 -366 -116l-14 231q84 51 203 81t245 30q206 0 307 -81.5t101 -236.5q0 -55 -15 -125l-137 -692h-260z
M459 193q85 0 155.5 45t114.5 127l31 157h-82q-176 0 -267.5 -54t-91.5 -151q0 -124 140 -124z" />
    <glyph glyph-name="uni0431" unicode="&#x431;" horiz-adv-x="1245" 
d="M1167 659q0 -105 -26 -204.5t-79 -186.5t-127 -152.5t-177 -103t-223 -37.5q-216 0 -328.5 120t-112.5 351q0 115 31 277q81 401 255.5 597t481.5 236l432 58l-53 -262l-434 -56q-157 -20 -257.5 -124.5t-152.5 -303.5q153 197 394 197q177 0 276.5 -101t99.5 -305z
M373 444q0 -235 182 -235q96 0 171.5 65t113 160.5t37.5 198.5q0 211 -179 211q-94 0 -171.5 -53t-127.5 -148q-26 -110 -26 -199z" />
    <glyph glyph-name="uni0432" unicode="&#x432;" horiz-adv-x="1224" 
d="M1098 336q0 -65 -22 -121.5t-70.5 -106.5t-137 -79t-209.5 -29h-626l223 1110h559q340 0 340 -252q0 -65 -21 -119.5t-78 -102t-145 -67.5q187 -46 187 -233zM735 903h-243l-50 -252h252q89 0 132.5 42t43.5 106q0 104 -135 104zM666 477h-258l-54 -266h273
q91 0 136.5 43.5t45.5 110.5q0 112 -143 112z" />
    <glyph glyph-name="uni0433" unicode="&#x433;" horiz-adv-x="964" 
d="M987 872h-493l-175 -872h-286l223 1110h778z" />
    <glyph glyph-name="uni0434" unicode="&#x434;" horiz-adv-x="1376" 
d="M-178 -418l131 651h70q277 183 481 877h743l-174 -877h189l-132 -651h-264l84 418h-782l-84 -418h-262zM373 233h415l127 644h-217q-126 -405 -325 -644z" />
    <glyph glyph-name="uni0435" unicode="&#x435;" horiz-adv-x="1185" 
d="M1016 92q-177 -117 -441 -117q-253 0 -378 118t-125 343q0 100 24.5 198t76.5 189t126 160t181.5 110.5t234.5 41.5q94 0 167.5 -23.5t118.5 -61t74 -91t40 -108.5t11 -118q0 -141 -51 -248h-713v-30q0 -129 60.5 -190.5t214.5 -61.5q201 0 364 119zM690 926
q-112 0 -186 -73.5t-111 -190.5h449q16 33 16 92q0 172 -168 172z" />
    <glyph glyph-name="uni0436" unicode="&#x436;" horiz-adv-x="1767" 
d="M635 0l106 532l-493 -532h-361v4l592 586l-346 516v4h316l309 -496l98 496h277l-101 -504l473 504h350v-4l-561 -543l363 -559v-4h-324l-317 520l-105 -520h-276z" />
    <glyph glyph-name="uni0437" unicode="&#x437;" horiz-adv-x="1105" 
d="M977 340q0 -173 -149.5 -269t-417.5 -96q-143 0 -238.5 26.5t-175.5 74.5l84 233q50 -48 136.5 -78t195.5 -30q122 0 192 39.5t70 119.5q0 54 -44.5 78.5t-166.5 24.5h-203l41 201h197q128 0 185.5 38.5t57.5 98.5q0 108 -180 108q-184 0 -344 -102l-24 227
q186 101 440 101q411 0 411 -271q0 -108 -67 -184.5t-189 -108.5q189 -46 189 -231z" />
    <glyph glyph-name="uni0438" unicode="&#x438;" horiz-adv-x="1296" 
d="M762 0l143 711l-592 -711h-280l223 1110h279l-142 -711l590 711h281l-222 -1110h-280z" />
    <glyph glyph-name="uni0439" unicode="&#x439;" horiz-adv-x="1296" 
d="M467 1632l221 10q-12 -56 -12 -96q0 -129 125 -129q82 0 129.5 53t77.5 172l235 -10q-41 -198 -164 -294.5t-297 -96.5q-154 0 -240.5 72.5t-86.5 208.5q0 48 12 110zM762 0l143 711l-592 -711h-280l223 1110h279l-142 -711l590 711h281l-222 -1110h-280z" />
    <glyph glyph-name="uni043A" unicode="&#x43a;" horiz-adv-x="1216" 
d="M788 0l-362 524l-107 -524h-286l223 1110h287l-101 -498l500 498h361v-4l-590 -533l407 -569v-4h-332z" />
    <glyph glyph-name="uni043B" unicode="&#x43b;" horiz-adv-x="1277" 
d="M735 0l176 877h-221q-46 -141 -82 -241.5t-77.5 -200.5t-80 -166t-84.5 -124t-96 -91t-109.5 -51.5t-129.5 -18.5q-75 0 -117 14l49 244q22 -9 51 -9q39 0 73.5 17t66 48t64.5 87.5t62.5 120t66.5 162.5t71 198.5t80 243.5h747l-223 -1110h-287z" />
    <glyph glyph-name="uni043C" unicode="&#x43c;" horiz-adv-x="1611" 
d="M604 0l-141 836l-168 -836h-262l223 1110h377l129 -760l418 760h399l-223 -1110h-269l170 842l-460 -842h-193z" />
    <glyph glyph-name="uni043D" unicode="&#x43d;" horiz-adv-x="1277" 
d="M735 0l90 455h-413l-93 -455h-286l223 1110h287l-84 -420h413l84 420h287l-221 -1110h-287z" />
    <glyph glyph-name="uni043E" unicode="&#x43e;" horiz-adv-x="1234" 
d="M537 -25q-97 0 -179.5 27t-147 81.5t-101.5 144.5t-37 208q0 103 25.5 203t77.5 190t125 158t176 108t222 40q97 0 179.5 -27t147 -81.5t101.5 -144.5t37 -208q0 -103 -25.5 -203t-77.5 -190t-125 -158t-176 -108t-222 -40zM559 209q74 0 135 40.5t99 106.5t58.5 144.5
t20.5 158.5q0 121 -50 181.5t-144 60.5q-74 0 -136 -40.5t-100 -106.5t-59 -144.5t-21 -158.5q0 -121 51.5 -181.5t145.5 -60.5z" />
    <glyph glyph-name="uni043F" unicode="&#x43f;" horiz-adv-x="1261" 
d="M719 0l176 877h-401l-175 -877h-286l223 1110h973l-223 -1110h-287z" />
    <glyph glyph-name="uni0440" unicode="&#x440;" 
d="M637 -25q-187 0 -297 129l-109 -546h-286l311 1552h260l-29 -178q140 203 365 203q176 0 271.5 -117t95.5 -320q0 -111 -25 -217.5t-75 -197.5t-119 -160t-162.5 -108.5t-200.5 -39.5zM459 702l-76 -380q28 -52 84 -83.5t125 -31.5q99 0 176 64.5t116.5 166t39.5 217.5
q0 236 -189 236q-87 0 -159 -48.5t-117 -140.5z" />
    <glyph glyph-name="uni0441" unicode="&#x441;" horiz-adv-x="1064" 
d="M915 94q-69 -51 -168.5 -85t-216.5 -34q-215 0 -336.5 117.5t-121.5 343.5q0 103 25 202.5t78 189.5t127.5 158t182 108.5t234.5 40.5q230 0 344 -119l-88 -232q-96 111 -252 111q-72 0 -133 -25.5t-102.5 -68t-70.5 -98.5t-42 -116t-13 -122q0 -250 238 -250
q163 0 297 115z" />
    <glyph glyph-name="uni0442" unicode="&#x442;" horiz-adv-x="1040" 
d="M1063 877h-334l-176 -877h-287l176 877h-338l48 233h958z" />
    <glyph glyph-name="uni0443" unicode="&#x443;" horiz-adv-x="1177" 
d="M639 10q-108 -195 -200 -300t-177 -143t-199 -38q-124 0 -208 43l67 238q68 -39 156 -39q70 0 128.5 46t125.5 167l-197 1126h307l88 -846l400 846h321z" />
    <glyph glyph-name="uni0444" unicode="&#x444;" horiz-adv-x="1648" 
d="M1585 653q0 -164 -54 -291.5t-152 -208.5t-232 -124t-299 -45l-86 -426h-273l84 426q-224 6 -365.5 134t-141.5 339q0 163 53.5 290.5t151.5 209t232.5 124.5t299.5 45l92 467h274l-94 -467q226 -6 368 -134t142 -339zM1032 907l-141 -704q181 0 293 111t112 317
q0 127 -68.5 201.5t-195.5 74.5zM352 479q0 -127 69.5 -201.5t196.5 -74.5l140 704q-181 0 -293.5 -111t-112.5 -317z" />
    <glyph glyph-name="uni0445" unicode="&#x445;" horiz-adv-x="1150" 
d="M694 0l-157 375l-283 -375h-340v4l502 567l-266 535v4h313l151 -358l269 358h340v-4l-490 -553l275 -549v-4h-314z" />
    <glyph glyph-name="uni0446" unicode="&#x446;" horiz-adv-x="1357" 
d="M1243 233l-131 -651h-264l84 418h-899l223 1110h287l-176 -877h401l174 877h287l-174 -877h188z" />
    <glyph glyph-name="uni0447" unicode="&#x447;" horiz-adv-x="1202" 
d="M1169 1110l-223 -1110h-287l80 397q-131 -59 -286 -59q-159 0 -243.5 70t-84.5 200q0 39 10 94l82 408h287l-70 -348q-8 -36 -8 -72q0 -60 36.5 -85t121.5 -25q116 0 200 43l99 487h286z" />
    <glyph glyph-name="uni0448" unicode="&#x448;" horiz-adv-x="1843" 
d="M1810 1110l-223 -1110h-1554l223 1110h287l-176 -877h348l174 877h287l-175 -877h349l174 877h286z" />
    <glyph glyph-name="uni0449" unicode="&#x449;" horiz-adv-x="1939" 
d="M1825 233l-131 -651h-264l83 418h-1480l223 1110h287l-176 -877h348l174 877h287l-175 -877h349l174 877h286l-174 -877h189z" />
    <glyph glyph-name="uni044A" unicode="&#x44a;" horiz-adv-x="1394" 
d="M1300 422q0 -68 -15.5 -127t-53.5 -114t-96.5 -94.5t-150 -63t-208.5 -23.5h-524l180 877h-326l46 233h614l-74 -360h211q203 0 300 -82.5t97 -245.5zM825 545h-174l-69 -332h194q123 0 179.5 56.5t56.5 138.5q0 70 -44 103.5t-143 33.5z" />
    <glyph glyph-name="uni044B" unicode="&#x44b;" horiz-adv-x="1679" 
d="M1059 422q0 -68 -15.5 -127t-53.5 -114t-96.5 -94.5t-150 -63t-208.5 -23.5h-502l223 1110h287l-72 -360h188q204 0 302 -82.5t98 -245.5zM1137 0l221 1110h287l-222 -1110h-286zM584 545h-154l-68 -332h173q123 0 179 56.5t56 138.5q0 70 -44 103.5t-142 33.5z" />
    <glyph glyph-name="uni044C" unicode="&#x44c;" horiz-adv-x="1183" 
d="M1090 422q0 -68 -15.5 -127t-54 -114t-97 -94.5t-150 -63t-208.5 -23.5h-532l223 1110h287l-72 -360h221q203 0 300.5 -82.5t97.5 -245.5zM614 545h-184l-68 -332h203q125 0 181.5 56.5t56.5 138.5q0 70 -44.5 103.5t-144.5 33.5z" />
    <glyph glyph-name="uni044D" unicode="&#x44d;" horiz-adv-x="1112" 
d="M1038 647q0 -107 -23 -203t-74.5 -182.5t-127 -149.5t-188.5 -100t-252 -37q-120 0 -222.5 27.5t-164.5 75.5l84 231q47 -50 128.5 -78t176.5 -28q150 0 239 70.5t123 193.5h-485l39 203h467q-6 126 -66.5 181.5t-181.5 55.5q-182 0 -303 -100l-25 227q73 48 173 74.5
t210 26.5q229 0 351 -120t122 -368z" />
    <glyph glyph-name="uni044E" unicode="&#x44e;" horiz-adv-x="1777" 
d="M1704 678q0 -103 -24.5 -203.5t-75.5 -191t-122 -159t-172.5 -109t-219.5 -40.5q-93 0 -172.5 26.5t-142.5 80t-99.5 143t-36.5 207.5v25h-227l-93 -457h-286l223 1110h287l-84 -422h219q65 197 212.5 322t362.5 125q93 0 172.5 -26.5t142.5 -80t99.5 -143t36.5 -207.5z
M1112 209q71 0 129.5 41.5t95 108t56.5 146t20 159.5q0 237 -182 237q-71 0 -129.5 -41.5t-95 -108t-56.5 -146t-20 -159.5q0 -237 182 -237z" />
    <glyph glyph-name="uni044F" unicode="&#x44f;" horiz-adv-x="1228" 
d="M688 0l76 377h-186l-299 -377h-340v4l383 418q-76 42 -120 114t-44 171q0 170 122 286.5t332 116.5h584l-221 -1110h-287zM600 582h203l63 317h-219q-96 0 -148.5 -50.5t-52.5 -129.5q0 -67 41 -102t113 -35z" />
    <glyph glyph-name="uni0450" unicode="&#x450;" horiz-adv-x="1185" 
d="M729 1231l-280 426l260 53l182 -438zM1016 92q-177 -117 -441 -117q-253 0 -378 118t-125 343q0 100 24.5 198t76.5 189t126 160t181.5 110.5t234.5 41.5q94 0 167.5 -23.5t118.5 -61t74 -91t40 -108.5t11 -118q0 -141 -51 -248h-713v-30q0 -129 60.5 -190.5t214.5 -61.5
q201 0 364 119zM690 926q-112 0 -186 -73.5t-111 -190.5h449q16 33 16 92q0 172 -168 172z" />
    <glyph glyph-name="uni0451" unicode="&#x451;" horiz-adv-x="1185" 
d="M848 1294l53 265h266l-53 -265h-266zM389 1294l53 265h267l-54 -265h-266zM1016 92q-177 -117 -441 -117q-253 0 -378 118t-125 343q0 100 24.5 198t76.5 189t126 160t181.5 110.5t234.5 41.5q94 0 167.5 -23.5t118.5 -61t74 -91t40 -108.5t11 -118q0 -141 -51 -248h-713
v-30q0 -129 60.5 -190.5t214.5 -61.5q201 0 364 119zM690 926q-112 0 -186 -73.5t-111 -190.5h449q16 33 16 92q0 172 -168 172z" />
    <glyph glyph-name="uni0452" unicode="&#x452;" horiz-adv-x="1263" 
d="M1024 -4q-26 -130 -71.5 -222.5t-107 -145t-132 -76t-156.5 -23.5q-121 0 -201 41l60 233q58 -36 127 -36q71 0 119 45.5t71 160.5l123 617q10 55 10 86q0 64 -30.5 93.5t-92.5 29.5q-84 0 -163.5 -49.5t-128.5 -143.5l-121 -606h-287l246 1225h-166l35 176h166l38 192
h287l-39 -192h367l-37 -176h-367l-73 -369q148 193 368 193q133 0 213 -76t80 -228q0 -68 -14 -139z" />
    <glyph glyph-name="uni0453" unicode="&#x453;" horiz-adv-x="964" 
d="M649 1231l-166 53l312 426l260 -90zM987 872h-493l-175 -872h-286l223 1110h778z" />
    <glyph glyph-name="uni0454" unicode="&#x454;" horiz-adv-x="1112" 
d="M940 78q-149 -103 -387 -103q-232 0 -356.5 114.5t-124.5 352.5q0 107 24.5 206t77.5 188t130.5 155t190 105t248.5 39q121 0 211.5 -28.5t139.5 -74.5l-86 -231q-99 106 -277 106q-135 0 -219.5 -64.5t-124.5 -172.5h477l-39 -203h-473q0 -137 58.5 -200.5t193.5 -63.5
q175 0 318 108z" />
    <glyph glyph-name="uni0455" unicode="&#x455;" horiz-adv-x="1013" 
d="M-6 92l80 230q158 -125 344 -125q97 0 145.5 35.5t48.5 89.5q0 50 -46 77t-142 56q-36 10 -63 20t-62 27t-59.5 39t-47 51.5t-34 70t-11.5 89.5q0 174 131 278.5t357 104.5q203 0 350 -95l-78 -229q-136 102 -284 102q-92 0 -142.5 -36t-50.5 -89q0 -27 13.5 -48t44 -37
t55.5 -25.5t73 -24.5q46 -14 79.5 -27t74 -38t65.5 -54.5t42.5 -76.5t17.5 -105q0 -173 -131.5 -275t-366.5 -102q-226 0 -403 117z" />
    <glyph glyph-name="uni0456" unicode="&#x456;" horiz-adv-x="583" 
d="M283 1294l53 265h313l-53 -265h-313zM37 0l223 1110h287l-223 -1110h-287z" />
    <glyph glyph-name="uni0457" unicode="&#x457;" horiz-adv-x="602" 
d="M510 1294l53 265h256l-53 -265h-256zM131 1294l53 265h256l-53 -265h-256zM45 0l223 1110h287l-223 -1110h-287z" />
    <glyph glyph-name="uni0458" unicode="&#x458;" horiz-adv-x="600" 
d="M305 1294l53 265h314l-54 -265h-313zM-336 -430l66 237q70 -36 133 -36q72 0 121 50t73 167l224 1122h286l-219 -1102q-26 -132 -72 -226t-109 -149t-136 -79.5t-162 -24.5q-121 0 -205 41z" />
    <glyph glyph-name="uni0459" unicode="&#x459;" horiz-adv-x="1855" 
d="M727 0l174 877h-211q-46 -141 -82 -241.5t-77.5 -200.5t-80 -166t-84.5 -124t-96 -91t-109.5 -51.5t-129.5 -18.5q-75 0 -117 14l49 244q22 -9 51 -9q39 0 73.5 17t66 48t64.5 87.5t62.5 120t66.5 162.5t71 198.5t80 243.5h737l-76 -381h209q203 0 298 -79t95 -238
q0 -66 -15 -124t-52.5 -112t-95 -92t-148 -61t-205.5 -23h-518zM1292 524h-174l-63 -311h190q121 0 175.5 52t54.5 132q0 65 -43 96t-140 31z" />
    <glyph glyph-name="uni045A" unicode="&#x45a;" horiz-adv-x="1855" 
d="M725 0l94 469h-405l-95 -469h-286l223 1110h287l-82 -408h405l82 408h287l-76 -381h209q202 0 297.5 -79t95.5 -238q0 -66 -15.5 -124t-53 -112t-95 -92t-147.5 -61t-205 -23h-520zM1292 524h-174l-63 -311h190q121 0 174.5 52t53.5 132q0 66 -42 96.5t-139 30.5z" />
    <glyph glyph-name="uni045B" unicode="&#x45b;" horiz-adv-x="1263" 
d="M451 606l-121 -606h-287l246 1225h-166l35 176h166l38 192h287l-39 -192h367l-37 -176h-367l-73 -369q148 193 368 193q133 0 213 -76t80 -228q0 -68 -14 -139l-121 -606h-287l117 590q10 55 10 86q0 64 -30.5 93.5t-92.5 29.5q-84 0 -163.5 -49.5t-128.5 -143.5z" />
    <glyph glyph-name="uni045C" unicode="&#x45c;" horiz-adv-x="1216" 
d="M723 1231l-166 53l311 426l260 -90zM788 0l-362 524l-107 -524h-286l223 1110h287l-101 -498l500 498h361v-4l-590 -533l407 -569v-4h-332z" />
    <glyph glyph-name="uni045D" unicode="&#x45d;" horiz-adv-x="1296" 
d="M766 1231l-281 426l260 53l183 -438zM762 0l143 711l-592 -711h-280l223 1110h279l-142 -711l590 711h281l-222 -1110h-280z" />
    <glyph glyph-name="uni045E" unicode="&#x45e;" horiz-adv-x="1177" 
d="M416 1632l221 10q-12 -56 -12 -96q0 -129 125 -129q82 0 129 53t77 172l236 -10q-41 -198 -164 -294.5t-297 -96.5q-154 0 -241 72.5t-87 208.5q0 43 13 110zM639 10q-108 -195 -200 -300t-177 -143t-199 -38q-124 0 -208 43l67 238q68 -39 156 -39q70 0 128.5 46
t125.5 167l-197 1126h307l88 -846l400 846h321z" />
    <glyph glyph-name="uni045F" unicode="&#x45f;" horiz-adv-x="1269" 
d="M1014 0h-350l-91 -442h-262l88 442h-366l223 1110h287l-176 -877h407l174 877h287z" />
    <glyph glyph-name="uni0462" unicode="&#x462;" horiz-adv-x="1523" 
d="M1432 518q0 -83 -20.5 -157t-69 -141t-121 -115t-184 -76.5t-251.5 -28.5h-569l227 1141h-313l41 207h313l50 245h301l-50 -245h490l-41 -207h-490l-47 -238h244q242 0 366 -98.5t124 -286.5zM874 668h-223l-84 -418h246q82 0 143.5 21t96.5 57t52 79t17 93
q0 85 -60.5 126.5t-187.5 41.5z" />
    <glyph glyph-name="uni0463" unicode="&#x463;" horiz-adv-x="1239" 
d="M1139 403q0 -53 -11 -101t-34.5 -94.5t-63.5 -83.5t-94.5 -65t-131.5 -43.5t-171 -15.5h-520l184 922h-205l39 188h203l82 410h286l-81 -410h344l-37 -188h-344l-41 -205h211q197 0 291 -79t94 -235zM672 518h-170l-62 -305h187q115 0 169 52t54 128q0 64 -41.5 94.5
t-136.5 30.5z" />
    <glyph glyph-name="uni0472" unicode="&#x472;" horiz-adv-x="1581" 
d="M705 -29q-271 0 -424.5 160.5t-153.5 448.5q0 146 33.5 286t102.5 263.5t166.5 217t233.5 147.5t295 54q271 0 424.5 -160t153.5 -448q0 -146 -33.5 -286t-102.5 -264t-166.5 -217t-233.5 -147.5t-295 -54.5zM928 1286q-112 0 -205 -56t-153 -144t-97 -203h760v41
q0 179 -77 270.5t-228 91.5zM430 596q0 -179 77 -271t228 -92q88 0 164.5 34t133 94.5t97 136t66.5 164.5h-764q-2 -23 -2 -66z" />
    <glyph glyph-name="uni0473" unicode="&#x473;" horiz-adv-x="1234" 
d="M537 -25q-97 0 -179.5 27t-147 81.5t-101.5 144.5t-37 208q0 103 25.5 203t77.5 190t125 158t176 108t222 40q97 0 179.5 -27t147 -81.5t101.5 -144.5t37 -208q0 -103 -25.5 -203t-77.5 -190t-125 -158t-176 -108t-222 -40zM682 907q-110 0 -185 -69t-112 -187h500v31
q0 108 -54.5 166.5t-148.5 58.5zM352 428q0 -108 54.5 -166.5t148.5 -58.5q112 0 190 74.5t113 199.5h-504q-2 -16 -2 -49z" />
    <glyph glyph-name="uni0474" unicode="&#x474;" horiz-adv-x="1560" 
d="M1294 1026l-530 -1026h-326l-219 1520h318l127 -1168l309 666q62 133 121.5 228t113.5 153.5t114.5 92t116.5 45t128 11.5q135 0 209 -47l-84 -266q-61 37 -125 37q-82 0 -141.5 -52.5t-131.5 -193.5z" />
    <glyph glyph-name="uni0475" unicode="&#x475;" horiz-adv-x="1241" 
d="M1001 725l-383 -725h-307l-176 1110h299l84 -829l215 462q55 119 106 196t106.5 120t112 59.5t130.5 16.5q105 0 170 -33l-74 -248q-46 27 -94 27q-60 0 -102.5 -35t-86.5 -121z" />
    <glyph glyph-name="uni0490" unicode="&#x490;" horiz-adv-x="1163" 
d="M1268 1262h-654l-252 -1262h-301l304 1520h694l108 376h254z" />
    <glyph glyph-name="uni0491" unicode="&#x491;" horiz-adv-x="974" 
d="M993 872h-499l-175 -872h-286l223 1110h541l110 377h234z" />
    <glyph glyph-name="uni0492" unicode="&#x492;" horiz-adv-x="1220" 
d="M963 645h-412l-129 -645h-301l129 645h-193l45 223h193l129 652h967l-54 -258h-661l-80 -394h412z" />
    <glyph glyph-name="uni0493" unicode="&#x493;" horiz-adv-x="1030" 
d="M780 426h-311l-86 -426h-287l86 426h-164l39 192h164l98 492h779l-47 -238h-494l-51 -254h315z" />
    <glyph glyph-name="uni0496" unicode="&#x496;" horiz-adv-x="2232" 
d="M2132 254l-135 -672h-273l84 418h-153l-414 713l-141 -713h-295l143 723l-647 -723h-399v4l774 789l-459 723v4h340l412 -697l139 697h295l-141 -709l641 709h393v-4l-758 -756l311 -506h283z" />
    <glyph glyph-name="uni0497" unicode="&#x497;" horiz-adv-x="1859" 
d="M1769 233l-131 -651h-262l84 418h-127l-317 520l-105 -520h-276l106 532l-493 -532h-361v4l592 586l-346 516v4h316l309 -496l98 496h277l-101 -504l473 504h350v-4l-561 -543l213 -330h262z" />
    <glyph glyph-name="uni0498" unicode="&#x498;" horiz-adv-x="1318" 
d="M729 -221q0 -120 -87 -195.5t-234 -75.5q-59 0 -118 11t-91 28l71 203q46 -31 119 -31q59 0 92 32.5t33 92.5q0 71 -53 127q-292 11 -465 135l100 269q156 -142 416 -142q165 0 265 65.5t100 186.5q0 86 -64 127t-229 41h-219l49 244h213q185 0 267.5 61t82.5 160
q0 168 -248 168q-224 0 -426 -127l-29 262q230 127 529 127q495 0 495 -364q0 -149 -85.5 -255.5t-268.5 -148.5q254 -69 254 -317q0 -200 -146.5 -329t-412.5 -157q90 -90 90 -198z" />
    <glyph glyph-name="uni0499" unicode="&#x499;" horiz-adv-x="1105" 
d="M643 -221q0 -120 -87 -195.5t-234 -75.5q-59 0 -118 11t-91 28l71 203q46 -31 119 -31q59 0 92 32.5t33 92.5q0 74 -57 131q-217 7 -375 101l84 233q50 -48 136.5 -78t195.5 -30q122 0 192 39.5t70 119.5q0 54 -44.5 78.5t-166.5 24.5h-203l41 201h197q128 0 185.5 38.5
t57.5 98.5q0 108 -180 108q-184 0 -344 -102l-24 227q186 101 440 101q411 0 411 -271q0 -108 -67 -184.5t-189 -108.5q189 -46 189 -231q0 -148 -112 -240.5t-316 -115.5q46 -48 70 -95t24 -110z" />
    <glyph glyph-name="uni049A" unicode="&#x49a;" horiz-adv-x="1546" 
d="M1446 254l-135 -672h-273l84 418h-129l-489 713l-142 -713h-301l304 1520h301l-142 -707l717 707h399v-4l-833 -742l367 -520h272z" />
    <glyph glyph-name="uni049B" unicode="&#x49b;" horiz-adv-x="1296" 
d="M1208 233l-133 -651h-262l84 418h-109l-362 524l-107 -524h-286l223 1110h287l-101 -498l500 498h361v-4l-590 -533l243 -340h252z" />
    <glyph glyph-name="uni04A0" unicode="&#x4a0;" horiz-adv-x="1716" 
d="M154 1268l51 252h721l-142 -707l717 707h400v-4l-834 -742l543 -770v-4h-357l-489 713l-141 -713h-301l251 1268h-419z" />
    <glyph glyph-name="uni04A1" unicode="&#x4a1;" horiz-adv-x="1439" 
d="M106 877l46 233h614l-100 -498l499 498h361v-4l-590 -533l407 -569v-4h-331l-363 524l-106 -524h-287l176 877h-326z" />
    <glyph glyph-name="uni04A2" unicode="&#x4a2;" horiz-adv-x="1648" 
d="M1528 254l-135 -672h-273l84 418h-229l133 664h-612l-134 -664h-301l304 1520h301l-121 -605h612l121 605h301l-252 -1266h201z" />
    <glyph glyph-name="uni04A3" unicode="&#x4a3;" horiz-adv-x="1374" 
d="M1260 233l-134 -651h-262l84 418h-213l90 455h-413l-93 -455h-286l223 1110h287l-84 -420h413l84 420h287l-174 -877h191z" />
    <glyph glyph-name="uni04AA" unicode="&#x4aa;" horiz-adv-x="1392" 
d="M881 -221q0 -120 -87.5 -195.5t-234.5 -75.5q-59 0 -118 11t-91 28l72 203q46 -31 119 -31q59 0 92 32.5t33 92.5q0 79 -64 138q-228 36 -351.5 191.5t-123.5 428.5q0 144 34.5 280.5t107 257.5t175 211.5t247.5 143.5t315 53q283 0 440 -139l-107 -281
q-132 158 -348 158q-103 0 -192 -36.5t-153 -99.5t-110.5 -146.5t-69 -179.5t-22.5 -197q0 -198 90 -296t261 -98q239 0 434 179l22 -283q-74 -61 -192 -105t-264 -51q86 -89 86 -194z" />
    <glyph glyph-name="uni04AB" unicode="&#x4ab;" horiz-adv-x="1064" 
d="M672 -221q0 -120 -87.5 -195.5t-234.5 -75.5q-59 0 -118 11t-91 28l72 203q47 -31 119 -31q59 0 92 32.5t33 92.5q0 89 -74 148q-149 36 -230 148t-81 296q0 103 25 202.5t78 189.5t127.5 158t182 108.5t234.5 40.5q230 0 344 -119l-88 -232q-96 111 -252 111
q-72 0 -133 -25.5t-102.5 -68t-70.5 -98.5t-42 -116t-13 -122q0 -250 238 -250q163 0 297 115l18 -236q-139 -104 -333 -117q90 -93 90 -198z" />
    <glyph glyph-name="uni04AE" unicode="&#x4ae;" horiz-adv-x="1323" 
d="M1516 1520l-705 -965l-111 -555h-301l115 571l-324 949h326l199 -693l446 693h355z" />
    <glyph glyph-name="uni04AF" unicode="&#x4af;" horiz-adv-x="1171" 
d="M1251 1110l-624 -1061l-99 -491h-286l100 497l-201 1055h299l97 -786l389 786h325z" />
    <glyph glyph-name="uni04B0" unicode="&#x4b0;" horiz-adv-x="1323" 
d="M1106 360h-334l-72 -360h-301l72 360h-326l45 224h320l-320 936h326l199 -693l446 693h355l-685 -936h320z" />
    <glyph glyph-name="uni04B1" unicode="&#x4b1;" horiz-adv-x="1171" 
d="M870 -156h-284l-58 -286h-286l57 286h-276l36 176h275l8 35l-201 1055h299l97 -786l389 786h325l-624 -1061l-6 -29h286z" />
    <glyph glyph-name="uni04B2" unicode="&#x4b2;" horiz-adv-x="1507" 
d="M1407 254l-135 -672h-273l84 418h-163l-226 557l-405 -557h-373l653 784l-333 736h342l213 -533l385 533h370l-631 -760l230 -506h262z" />
    <glyph glyph-name="uni04B3" unicode="&#x4b3;" horiz-adv-x="1216" 
d="M1126 233l-131 -651h-262l84 418h-123l-157 375l-283 -375h-340v4l502 567l-266 535v4h313l151 -358l269 358h340v-4l-490 -553l160 -320h233z" />
    <glyph glyph-name="uni04B6" unicode="&#x4b6;" horiz-adv-x="1529" 
d="M1409 254l-135 -672h-273l84 418h-229l113 565q-166 -78 -348 -78q-210 0 -318 97.5t-108 271.5q0 62 12 129l108 535h301l-98 -490q-12 -58 -12 -104q0 -89 52.5 -127.5t174.5 -38.5q164 0 287 65l139 695h301l-252 -1266h201z" />
    <glyph glyph-name="uni04B7" unicode="&#x4b7;" horiz-adv-x="1298" 
d="M1184 233l-133 -651h-263l84 418h-213l80 397q-131 -59 -286 -59q-159 0 -243.5 70t-84.5 200q0 39 10 94l82 408h287l-70 -348q-8 -36 -8 -72q0 -60 36.5 -85t121.5 -25q116 0 200 43l99 487h286l-176 -877h191z" />
    <glyph glyph-name="uni04BA" unicode="&#x4ba;" horiz-adv-x="1441" 
d="M498 674l-136 -674h-301l304 1520h301l-115 -580q168 92 367 92q202 0 306.5 -95.5t104.5 -266.5q0 -56 -14 -135l-107 -535h-303l99 489q14 72 14 109q0 88 -49.5 125t-165.5 37q-182 0 -305 -86z" />
    <glyph glyph-name="uni04BB" unicode="&#x4bb;" horiz-adv-x="1257" 
d="M457 688l-138 -688h-286l319 1593h287l-131 -647q151 189 362 189q132 0 211.5 -76.5t79.5 -229.5q0 -66 -14 -137l-139 -692h-287l135 676q10 52 10 84q0 125 -123 125q-82 0 -160 -51t-126 -146z" />
    <glyph glyph-name="uni04C0" unicode="&#x4c0;" horiz-adv-x="647" 
d="M61 0l304 1520h301l-304 -1520h-301z" />
    <glyph glyph-name="uni04C1" unicode="&#x4c1;" horiz-adv-x="2127" 
d="M913 1982l224 11q-7 -35 -7 -58q0 -129 162 -129q184 0 234 187l237 -11q-44 -183 -172 -267.5t-317 -84.5q-173 0 -271 70.5t-98 204.5q0 23 8 77zM805 0l143 723l-647 -723h-399v4l774 789l-459 723v4h340l412 -697l139 697h295l-141 -709l641 709h393v-4l-758 -756
l467 -756v-4h-350l-414 713l-141 -713h-295z" />
    <glyph glyph-name="uni04C2" unicode="&#x4c2;" horiz-adv-x="1767" 
d="M702 1632l222 10q-13 -60 -13 -96q0 -129 125 -129q82 0 129.5 53t77.5 172l236 -10q-41 -198 -164 -294.5t-297 -96.5q-154 0 -241 72.5t-87 208.5q0 48 12 110zM635 0l106 532l-493 -532h-361v4l592 586l-346 516v4h316l309 -496l98 496h277l-101 -504l473 504h350v-4
l-561 -543l363 -559v-4h-324l-317 520l-105 -520h-276z" />
    <glyph glyph-name="uni04CF" unicode="&#x4cf;" horiz-adv-x="591" 
d="M41 0l227 1135h287l-227 -1135h-287z" />
    <glyph glyph-name="uni04D0" unicode="&#x4d0;" horiz-adv-x="1480" 
d="M590 1982l223 11q-6 -30 -6 -58q0 -129 162 -129q183 0 233 187l238 -11q-44 -183 -172.5 -267.5t-317.5 -84.5q-173 0 -270.5 70.5t-97.5 204.5q0 23 8 77zM1028 0l-41 352h-557l-176 -352h-340l831 1520h373l228 -1520h-318zM553 596h405l-75 661z" />
    <glyph glyph-name="uni04D1" unicode="&#x4d1;" horiz-adv-x="1189" 
d="M418 1632l221 10q-12 -56 -12 -96q0 -129 125 -129q82 0 129 53t77 172l236 -10q-41 -198 -164 -294.5t-297 -96.5q-154 0 -240.5 72.5t-86.5 208.5q0 48 12 110zM682 0l23 152q-67 -85 -158.5 -131t-198.5 -46q-139 0 -224 76.5t-85 224.5q0 197 164.5 305.5
t476.5 108.5h115l2 10q8 44 8 74q0 71 -44.5 103t-142.5 32q-189 0 -366 -116l-14 231q84 51 203 81t245 30q206 0 307 -81.5t101 -236.5q0 -55 -15 -125l-137 -692h-260zM459 193q85 0 155.5 45t114.5 127l31 157h-82q-176 0 -267.5 -54t-91.5 -151q0 -124 140 -124z" />
    <glyph glyph-name="uni04D4" unicode="&#x4d4;" horiz-adv-x="2138" 
d="M897 0l84 418h-532l-297 -418h-353l1108 1520h1284l-49 -252h-702l-72 -357h621l-50 -243h-620l-84 -414h721l-51 -254h-1008zM1151 1272h-96l-434 -610h407z" />
    <glyph glyph-name="uni04D5" unicode="&#x4d5;" horiz-adv-x="1851" 
d="M1681 92q-177 -117 -440 -117q-303 0 -416 185q-182 -185 -438 -185q-159 0 -253.5 76.5t-94.5 222.5q0 195 161.5 299.5t475.5 104.5h119l4 22q8 46 8 72q0 73 -45.5 105t-145.5 32q-193 0 -370 -116l-15 231q84 52 204 81.5t249 29.5q246 0 322 -134q154 134 374 134
q94 0 167.5 -23t118.5 -61t74.5 -91.5t40.5 -108t11 -116.5q0 -134 -47 -241h-715q-2 -12 -2 -39q0 -129 60.5 -190.5t214.5 -61.5q204 0 364 119zM1358 926q-111 0 -184.5 -70.5t-112.5 -185.5h450q15 35 15 86q0 76 -39.5 123t-128.5 47zM469 193q88 0 167 44.5t126 120.5
q-4 40 -4 68q0 24 4 82h-88q-176 0 -265.5 -49t-89.5 -142q0 -124 150 -124z" />
    <glyph glyph-name="uni04D6" unicode="&#x4d6;" horiz-adv-x="1298" 
d="M524 1982l224 11q-7 -35 -7 -58q0 -129 162 -129q184 0 234 187l237 -11q-44 -183 -172 -267.5t-317 -84.5q-173 0 -271 70.5t-98 204.5q0 23 8 77zM1133 254l-52 -254h-1020l304 1520h1003l-51 -252h-703l-71 -357h620l-49 -243h-618l-84 -414h721z" />
    <glyph glyph-name="uni04D7" unicode="&#x4d7;" horiz-adv-x="1185" 
d="M430 1632l221 10q-12 -56 -12 -96q0 -129 125 -129q82 0 129.5 53t77.5 172l235 -10q-41 -198 -164 -294.5t-297 -96.5q-154 0 -240.5 72.5t-86.5 208.5q0 48 12 110zM1016 92q-177 -117 -441 -117q-253 0 -378 118t-125 343q0 100 24.5 198t76.5 189t126 160
t181.5 110.5t234.5 41.5q94 0 167.5 -23.5t118.5 -61t74 -91t40 -108.5t11 -118q0 -141 -51 -248h-713v-30q0 -129 60.5 -190.5t214.5 -61.5q201 0 364 119zM690 926q-112 0 -186 -73.5t-111 -190.5h449q16 33 16 92q0 172 -168 172z" />
    <glyph glyph-name="uni04D8" unicode="&#x4d8;" horiz-adv-x="1519" 
d="M1473 920q0 -133 -26.5 -262.5t-89 -255t-154 -220.5t-232 -153t-312.5 -58q-124 0 -223 30.5t-162 80.5t-105 119t-59.5 142t-17.5 153q0 91 22 188.5t54 161.5h985q2 20 2 61q0 206 -80 292.5t-270 86.5q-149 0 -270.5 -44t-237.5 -126l-23 270q107 74 263 118t323 44
q308 0 460.5 -159.5t152.5 -468.5zM672 227q93 0 170 32t130 89t89.5 126.5t58.5 154.5h-717q-22 -55 -22 -140q0 -116 72 -189t219 -73z" />
    <glyph glyph-name="uni04D9" unicode="&#x4d9;" horiz-adv-x="1193" 
d="M1122 666q0 -97 -20.5 -191.5t-68.5 -186t-118 -160t-177 -111t-238 -42.5q-96 0 -171.5 22.5t-123 60t-79 89.5t-44 106.5t-12.5 115.5q0 145 53 256h715v39q0 132 -56 188.5t-192 56.5q-199 0 -371 -116l-16 231q84 52 200 81.5t238 29.5q238 0 359.5 -120t121.5 -349z
M512 188q115 0 188 72t107 189h-461q-16 -29 -16 -89q0 -79 44.5 -125.5t137.5 -46.5z" />
    <glyph glyph-name="uni04E2" unicode="&#x4e2;" horiz-adv-x="1576" 
d="M639 1716l39 197h760l-39 -197h-760zM995 0l207 1038l-840 -1038h-301l304 1520h297l-209 -1041l841 1041h301l-303 -1520h-297z" />
    <glyph glyph-name="uni04E3" unicode="&#x4e3;" horiz-adv-x="1296" 
d="M453 1327l39 199h686l-39 -199h-686zM762 0l143 711l-592 -711h-280l223 1110h279l-142 -711l590 711h281l-222 -1110h-280z" />
    <glyph glyph-name="uni04E6" unicode="&#x4e6;" horiz-adv-x="1581" 
d="M1110 1683l53 263h271l-54 -263h-270zM629 1683l53 263h270l-53 -263h-270zM705 -29q-271 0 -424.5 160.5t-153.5 448.5q0 146 33.5 286t102.5 263.5t166.5 217t233.5 147.5t295 54q271 0 424.5 -160t153.5 -448q0 -146 -33.5 -286t-102.5 -264t-166.5 -217
t-233.5 -147.5t-295 -54.5zM735 233q92 0 172 41.5t136.5 110.5t97.5 158.5t60.5 186t19.5 192.5q0 181 -75 272.5t-218 91.5q-92 0 -172.5 -41.5t-137 -110t-97 -158t-60 -186t-19.5 -192.5q0 -181 75.5 -273t217.5 -92z" />
    <glyph glyph-name="uni04E7" unicode="&#x4e7;" horiz-adv-x="1234" 
d="M854 1294l53 265h267l-54 -265h-266zM395 1294l54 265h266l-53 -265h-267zM537 -25q-97 0 -179.5 27t-147 81.5t-101.5 144.5t-37 208q0 103 25.5 203t77.5 190t125 158t176 108t222 40q97 0 179.5 -27t147 -81.5t101.5 -144.5t37 -208q0 -103 -25.5 -203t-77.5 -190
t-125 -158t-176 -108t-222 -40zM559 209q74 0 135 40.5t99 106.5t58.5 144.5t20.5 158.5q0 121 -50 181.5t-144 60.5q-74 0 -136 -40.5t-100 -106.5t-59 -144.5t-21 -158.5q0 -121 51.5 -181.5t145.5 -60.5z" />
    <glyph glyph-name="uni04E8" unicode="&#x4e8;" horiz-adv-x="1581" 
d="M705 -29q-271 0 -424.5 160.5t-153.5 448.5q0 146 33.5 286t102.5 263.5t166.5 217t233.5 147.5t295 54q271 0 424.5 -160t153.5 -448q0 -146 -33.5 -286t-102.5 -264t-166.5 -217t-233.5 -147.5t-295 -54.5zM928 1286q-112 0 -205 -56t-153 -144t-97 -203h760v41
q0 179 -77 270.5t-228 91.5zM430 596q0 -179 77 -271t228 -92q88 0 164.5 34t133 94.5t97 136t66.5 164.5h-764q-2 -23 -2 -66z" />
    <glyph glyph-name="uni04E9" unicode="&#x4e9;" horiz-adv-x="1234" 
d="M537 -25q-97 0 -179.5 27t-147 81.5t-101.5 144.5t-37 208q0 103 25.5 203t77.5 190t125 158t176 108t222 40q97 0 179.5 -27t147 -81.5t101.5 -144.5t37 -208q0 -103 -25.5 -203t-77.5 -190t-125 -158t-176 -108t-222 -40zM682 907q-110 0 -185 -69t-112 -187h500v31
q0 108 -54.5 166.5t-148.5 58.5zM352 428q0 -108 54.5 -166.5t148.5 -58.5q112 0 190 74.5t113 199.5h-504q-2 -16 -2 -49z" />
    <glyph glyph-name="uni04EE" unicode="&#x4ee;" horiz-adv-x="1359" 
d="M530 1716l39 197h760l-39 -197h-760zM887 451q-93 -147 -167.5 -238.5t-150.5 -146t-149.5 -75t-171.5 -20.5q-132 0 -217 35l63 258q62 -33 148 -33q84 0 139 38t129 151l-291 1100h324l178 -852l485 852h353z" />
    <glyph glyph-name="uni04EF" unicode="&#x4ef;" horiz-adv-x="1177" 
d="M401 1327l39 199h686l-39 -199h-686zM639 10q-108 -195 -200 -300t-177 -143t-199 -38q-124 0 -208 43l67 238q68 -39 156 -39q70 0 128.5 46t125.5 167l-197 1126h307l88 -846l400 846h321z" />
    <glyph glyph-name="uni04F2" unicode="&#x4f2;" horiz-adv-x="1359" 
d="M725 1626l-147 72l309 340l225 -119zM1147 1626l-146 72l310 340l225 -119zM887 451q-93 -147 -167.5 -238.5t-150.5 -146t-149.5 -75t-171.5 -20.5q-132 0 -217 35l63 258q62 -33 148 -33q84 0 139 38t129 151l-291 1100h324l178 -852l485 852h353z" />
    <glyph glyph-name="uni04F3" unicode="&#x4f3;" horiz-adv-x="1177" 
d="M571 1237l-161 57l309 416l233 -88zM977 1237l-162 57l309 416l234 -88zM639 10q-108 -195 -200 -300t-177 -143t-199 -38q-124 0 -208 43l67 238q68 -39 156 -39q70 0 128.5 46t125.5 167l-197 1126h307l88 -846l400 846h321z" />
    <glyph glyph-name="uni0E3F" unicode="&#xe3f;" horiz-adv-x="1396" 
d="M442 -201l41 201h-448l303 1520h448l39 196h168l-39 -196q426 -3 426 -346q0 -316 -329 -394q252 -69 252 -319q0 -69 -18 -132t-63 -124.5t-113 -106t-176 -71.5t-245 -27h-37l-41 -201h-168zM565 1284l-82 -401h176l80 401h-174zM1090 1120q0 83 -44.5 121t-138.5 43
l-80 -401q73 0 127 21t82 57t41 75.5t13 83.5zM442 670l-88 -434h176l86 434h-174zM1010 487q0 183 -226 183l-86 -434h17q150 0 222.5 71.5t72.5 179.5z" />
    <glyph glyph-name="Wgrave" unicode="&#x1e80;" horiz-adv-x="2174" 
d="M1368 1626l-399 303l266 109l289 -336zM1255 0l-61 1137l-504 -1137h-325l-136 1520h316l53 -1164l512 1164h313l58 -1160l506 1160h342l-748 -1520h-326z" />
    <glyph glyph-name="wgrave" unicode="&#x1e81;" horiz-adv-x="1779" 
d="M999 1231l-280 426l260 53l182 -438zM979 0l-49 797l-365 -797h-301l-114 1110h301l34 -815l351 815h292l48 -819l340 819h323l-559 -1110h-301z" />
    <glyph glyph-name="Wacute" unicode="&#x1e82;" horiz-adv-x="2174" 
d="M1225 1626l-146 86l385 326l242 -146zM1255 0l-61 1137l-504 -1137h-325l-136 1520h316l53 -1164l512 1164h313l58 -1160l506 1160h342l-748 -1520h-326z" />
    <glyph glyph-name="wacute" unicode="&#x1e83;" horiz-adv-x="1779" 
d="M1022 1231l-166 53l311 426l260 -90zM979 0l-49 797l-365 -797h-301l-114 1110h301l34 -815l351 815h292l48 -819l340 819h323l-559 -1110h-301z" />
    <glyph glyph-name="Wdieresis" unicode="&#x1e84;" horiz-adv-x="2174" 
d="M1401 1683l53 263h270l-53 -263h-270zM920 1683l53 263h270l-53 -263h-270zM1255 0l-61 1137l-504 -1137h-325l-136 1520h316l53 -1164l512 1164h313l58 -1160l506 1160h342l-748 -1520h-326z" />
    <glyph glyph-name="wdieresis" unicode="&#x1e85;" horiz-adv-x="1779" 
d="M1118 1294l53 265h267l-54 -265h-266zM659 1294l54 265h266l-53 -265h-267zM979 0l-49 797l-365 -797h-301l-114 1110h301l34 -815l351 815h292l48 -819l340 819h323l-559 -1110h-301z" />
    <glyph glyph-name="uni1E9E" unicode="&#x1e9e;" horiz-adv-x="1613" 
d="M47 0l184 926q66 329 247 475.5t515 146.5q194 0 351.5 -42t267.5 -113l-371 -521q88 -46 144 -94.5t91 -122t35 -168.5q0 -101 -35.5 -191.5t-104 -164t-182 -117t-257.5 -43.5q-221 0 -389 111l90 264q57 -53 138.5 -85t166.5 -32q126 0 193 69.5t67 172.5q0 31 -6 58
t-20.5 50t-28.5 41t-41 36.5t-47 31t-57 29.5t-59.5 26t-66.5 27l342 487q-115 33 -241 33q-198 0 -301.5 -91t-145.5 -306l-178 -893h-301z" />
    <glyph glyph-name="uni1EA0" unicode="&#x1ea0;" horiz-adv-x="1480" 
d="M1028 0l-41 352h-557l-176 -352h-340l831 1520h373l228 -1520h-318zM553 596h405l-75 661zM391 -414l53 264h314l-53 -264h-314z" />
    <glyph glyph-name="uni1EA1" unicode="&#x1ea1;" horiz-adv-x="1189" 
d="M250 -414l53 264h313l-53 -264h-313zM682 0l23 152q-67 -85 -158.5 -131t-198.5 -46q-139 0 -224 76.5t-85 224.5q0 197 164.5 305.5t476.5 108.5h115l2 10q8 44 8 74q0 71 -44.5 103t-142.5 32q-189 0 -366 -116l-14 231q84 51 203 81t245 30q206 0 307 -81.5
t101 -236.5q0 -55 -15 -125l-137 -692h-260zM459 193q85 0 155.5 45t114.5 127l31 157h-82q-176 0 -267.5 -54t-91.5 -151q0 -124 140 -124z" />
    <glyph glyph-name="uni1EA2" unicode="&#x1ea2;" horiz-adv-x="1480" 
d="M965 1620l-109 111q114 46 166.5 83t52.5 84q0 52 -88 52q-110 0 -217 -70l-6 180q138 74 285 74q121 0 187.5 -47.5t66.5 -144.5q0 -60 -25.5 -109.5t-75.5 -88t-105 -67t-132 -57.5zM1028 0l-41 352h-557l-176 -352h-340l831 1520h373l228 -1520h-318zM553 596h405
l-75 661z" />
    <glyph glyph-name="uni1EA3" unicode="&#x1ea3;" horiz-adv-x="1189" 
d="M741 1217l-106 110q107 44 162 82t55 84q0 53 -88 53q-107 0 -217 -67l-4 178q135 74 280 74q120 0 187 -49t67 -148q0 -48 -18 -90t-46.5 -73t-74.5 -60t-91 -50t-106 -44zM682 0l23 152q-67 -85 -158.5 -131t-198.5 -46q-139 0 -224 76.5t-85 224.5q0 197 164.5 305.5
t476.5 108.5h115l2 10q8 44 8 74q0 71 -44.5 103t-142.5 32q-189 0 -366 -116l-14 231q84 51 203 81t245 30q206 0 307 -81.5t101 -236.5q0 -55 -15 -125l-137 -692h-260zM459 193q85 0 155.5 45t114.5 127l31 157h-82q-176 0 -267.5 -54t-91.5 -151q0 -124 140 -124z" />
    <glyph glyph-name="uni1EA4" unicode="&#x1ea4;" horiz-adv-x="1480" 
d="M1374 1937l-133 78l363 318l229 -138zM1364 1669l-242 -35l-127 215l-221 -215l-258 35l383 328h234zM1028 0l-41 352h-557l-176 -352h-340l831 1520h373l228 -1520h-318zM553 596h405l-75 661z" />
    <glyph glyph-name="uni1EA5" unicode="&#x1ea5;" horiz-adv-x="1189" 
d="M1194 1516l-156 49l287 397l240 -82zM1106 1276l-223 -33l-103 238l-198 -238l-238 35l342 348h234zM682 0l23 152q-67 -85 -158.5 -131t-198.5 -46q-139 0 -224 76.5t-85 224.5q0 197 164.5 305.5t476.5 108.5h115l2 10q8 44 8 74q0 71 -44.5 103t-142.5 32
q-189 0 -366 -116l-14 231q84 51 203 81t245 30q206 0 307 -81.5t101 -236.5q0 -55 -15 -125l-137 -692h-260zM459 193q85 0 155.5 45t114.5 127l31 157h-82q-176 0 -267.5 -54t-91.5 -151q0 -124 140 -124z" />
    <glyph glyph-name="uni1EA6" unicode="&#x1ea6;" horiz-adv-x="1480" 
d="M1399 1937l-381 295l244 101l278 -326zM1364 1669l-242 -35l-127 215l-221 -215l-258 35l383 328h234zM1028 0l-41 352h-557l-176 -352h-340l831 1520h373l228 -1520h-318zM553 596h405l-75 661z" />
    <glyph glyph-name="uni1EA7" unicode="&#x1ea7;" horiz-adv-x="1189" 
d="M1153 1516l-258 397l238 49l174 -408zM1106 1276l-223 -33l-103 238l-198 -238l-238 35l342 348h234zM682 0l23 152q-67 -85 -158.5 -131t-198.5 -46q-139 0 -224 76.5t-85 224.5q0 197 164.5 305.5t476.5 108.5h115l2 10q8 44 8 74q0 71 -44.5 103t-142.5 32
q-189 0 -366 -116l-14 231q84 51 203 81t245 30q206 0 307 -81.5t101 -236.5q0 -55 -15 -125l-137 -692h-260zM459 193q85 0 155.5 45t114.5 127l31 157h-82q-176 0 -267.5 -54t-91.5 -151q0 -124 140 -124z" />
    <glyph glyph-name="uni1EA8" unicode="&#x1ea8;" horiz-adv-x="1480" 
d="M1362 1901l-98 102q101 42 149.5 75.5t48.5 75.5q0 52 -78 52q-99 0 -200 -64l-6 168q126 66 260 66q110 0 171.5 -46t61.5 -137q0 -55 -22.5 -99.5t-68 -79.5t-95.5 -60t-123 -53zM1364 1669l-242 -35l-127 215l-221 -215l-258 35l383 328h234zM1028 0l-41 352h-557
l-176 -352h-340l831 1520h373l228 -1520h-318zM553 596h405l-75 661z" />
    <glyph glyph-name="uni1EA9" unicode="&#x1ea9;" horiz-adv-x="1189" 
d="M1151 1505l-100 103q99 40 148.5 74.5t49.5 76.5q0 51 -78 51q-96 0 -200 -63l-4 166q127 67 260 67q110 0 171.5 -45.5t61.5 -136.5q0 -55 -22.5 -100t-68 -79.5t-95.5 -60t-123 -53.5zM1106 1276l-223 -33l-103 238l-198 -238l-238 35l342 348h234zM682 0l23 152
q-67 -85 -158.5 -131t-198.5 -46q-139 0 -224 76.5t-85 224.5q0 197 164.5 305.5t476.5 108.5h115l2 10q8 44 8 74q0 71 -44.5 103t-142.5 32q-189 0 -366 -116l-14 231q84 51 203 81t245 30q206 0 307 -81.5t101 -236.5q0 -55 -15 -125l-137 -692h-260zM459 193
q85 0 155.5 45t114.5 127l31 157h-82q-176 0 -267.5 -54t-91.5 -151q0 -124 140 -124z" />
    <glyph glyph-name="uni1EAA" unicode="&#x1eaa;" horiz-adv-x="1480" 
d="M836 2054l-191 14q56 285 270 285q82 0 168 -59q74 -53 111 -53q32 0 52 28t32 94l192 -14q-56 -283 -270 -283q-83 0 -168 58q-39 28 -62.5 40.5t-47.5 12.5q-32 0 -52.5 -28.5t-33.5 -94.5zM1364 1669l-242 -35l-127 215l-221 -215l-258 35l383 328h234zM1028 0
l-41 352h-557l-176 -352h-340l831 1520h373l228 -1520h-318zM553 596h405l-75 661z" />
    <glyph glyph-name="uni1EAB" unicode="&#x1eab;" horiz-adv-x="1189" 
d="M631 1679l-189 17q55 282 265 282q49 0 85 -14.5t78 -44.5q72 -51 107 -51q32 0 52 28t32 95l186 -17q-55 -282 -262 -282q-89 0 -166 59q-69 51 -106 51q-31 0 -50.5 -28t-31.5 -95zM1106 1276l-223 -33l-103 238l-198 -238l-238 35l342 348h234zM682 0l23 152
q-67 -85 -158.5 -131t-198.5 -46q-139 0 -224 76.5t-85 224.5q0 197 164.5 305.5t476.5 108.5h115l2 10q8 44 8 74q0 71 -44.5 103t-142.5 32q-189 0 -366 -116l-14 231q84 51 203 81t245 30q206 0 307 -81.5t101 -236.5q0 -55 -15 -125l-137 -692h-260zM459 193
q85 0 155.5 45t114.5 127l31 157h-82q-176 0 -267.5 -54t-91.5 -151q0 -124 140 -124z" />
    <glyph glyph-name="uni1EAC" unicode="&#x1eac;" horiz-adv-x="1480" 
d="M1368 1669l-244 -35l-129 215l-223 -215l-260 35l387 332h234zM1028 0l-41 352h-557l-176 -352h-340l831 1520h373l228 -1520h-318zM553 596h405l-75 661zM391 -414l53 264h314l-53 -264h-314z" />
    <glyph glyph-name="uni1EAD" unicode="&#x1ead;" horiz-adv-x="1189" 
d="M1126 1276l-227 -33l-106 291l-228 -291l-241 35l374 410h234zM250 -414l53 264h313l-53 -264h-313zM682 0l23 152q-67 -85 -158.5 -131t-198.5 -46q-139 0 -224 76.5t-85 224.5q0 197 164.5 305.5t476.5 108.5h115l2 10q8 44 8 74q0 71 -44.5 103t-142.5 32
q-189 0 -366 -116l-14 231q84 51 203 81t245 30q206 0 307 -81.5t101 -236.5q0 -55 -15 -125l-137 -692h-260zM459 193q85 0 155.5 45t114.5 127l31 157h-82q-176 0 -267.5 -54t-91.5 -151q0 -124 140 -124z" />
    <glyph glyph-name="uni1EAE" unicode="&#x1eae;" horiz-adv-x="1480" 
d="M969 1982l-131 80l362 318l230 -137zM631 1948l203 12q-8 -73 26.5 -112.5t108.5 -39.5q144 0 198 152l215 -12q-49 -160 -162.5 -239t-269.5 -79q-153 0 -238 73t-85 206q0 15 4 39zM1028 0l-41 352h-557l-176 -352h-340l831 1520h373l228 -1520h-318zM553 596h405
l-75 661z" />
    <glyph glyph-name="uni1EAF" unicode="&#x1eaf;" horiz-adv-x="1189" 
d="M819 1577l-155 49l288 397l238 -81zM420 1569l203 12q-6 -160 129 -160q140 0 198 160l215 -12q-56 -163 -168.5 -245.5t-265.5 -82.5q-146 0 -229.5 77t-83.5 216q0 17 2 35zM682 0l23 152q-67 -85 -158.5 -131t-198.5 -46q-139 0 -224 76.5t-85 224.5
q0 197 164.5 305.5t476.5 108.5h115l2 10q8 44 8 74q0 71 -44.5 103t-142.5 32q-189 0 -366 -116l-14 231q84 51 203 81t245 30q206 0 307 -81.5t101 -236.5q0 -55 -15 -125l-137 -692h-260zM459 193q85 0 155.5 45t114.5 127l31 157h-82q-176 0 -267.5 -54t-91.5 -151
q0 -124 140 -124z" />
    <glyph glyph-name="uni1EB0" unicode="&#x1eb0;" horiz-adv-x="1480" 
d="M1030 1982l-381 295l244 103l278 -328zM631 1948l203 12q-9 -74 25.5 -113t109.5 -39q144 0 198 152l215 -12q-49 -160 -162.5 -239t-269.5 -79q-153 0 -238 73t-85 206q0 15 4 39zM1028 0l-41 352h-557l-176 -352h-340l831 1520h373l228 -1520h-318zM553 596h405
l-75 661z" />
    <glyph glyph-name="uni1EB1" unicode="&#x1eb1;" horiz-adv-x="1189" 
d="M750 1577l-258 397l237 49l174 -407zM420 1569l203 12q-6 -160 129 -160q140 0 198 160l215 -12q-56 -163 -168.5 -245.5t-265.5 -82.5q-146 0 -229.5 77t-83.5 216q0 17 2 35zM682 0l23 152q-67 -85 -158.5 -131t-198.5 -46q-139 0 -224 76.5t-85 224.5
q0 197 164.5 305.5t476.5 108.5h115l2 10q8 44 8 74q0 71 -44.5 103t-142.5 32q-189 0 -366 -116l-14 231q84 51 203 81t245 30q206 0 307 -81.5t101 -236.5q0 -55 -15 -125l-137 -692h-260zM459 193q85 0 155.5 45t114.5 127l31 157h-82q-176 0 -267.5 -54t-91.5 -151
q0 -124 140 -124z" />
    <glyph glyph-name="uni1EB2" unicode="&#x1eb2;" horiz-adv-x="1480" 
d="M1004 1950l-101 102q101 42 150 76t49 76q0 51 -78 51q-100 0 -201 -64l-6 168q126 66 260 66q111 0 173.5 -45.5t62.5 -136.5q0 -55 -22.5 -100t-68 -79.5t-95.5 -60t-123 -53.5zM631 1948l203 12q-8 -74 26.5 -113t108.5 -39q144 0 198 152l215 -12
q-49 -160 -162.5 -239t-269.5 -79q-153 0 -238 73t-85 206q0 15 4 39zM1028 0l-41 352h-557l-176 -352h-340l831 1520h373l228 -1520h-318zM553 596h405l-75 661z" />
    <glyph glyph-name="uni1EB3" unicode="&#x1eb3;" horiz-adv-x="1189" 
d="M791 1571l-101 102q100 40 150.5 75t50.5 77q0 51 -80 51q-95 0 -201 -64l-4 166q129 68 260 68q111 0 172.5 -45.5t61.5 -136.5q0 -55 -22.5 -100t-68 -79.5t-95.5 -60t-123 -53.5zM420 1569l203 12q-6 -160 129 -160q140 0 198 160l215 -12q-56 -163 -168.5 -245.5
t-265.5 -82.5q-146 0 -229.5 78t-83.5 217q0 15 2 33zM682 0l23 152q-67 -85 -158.5 -131t-198.5 -46q-139 0 -224 76.5t-85 224.5q0 197 164.5 305.5t476.5 108.5h115l2 10q8 44 8 74q0 71 -44.5 103t-142.5 32q-189 0 -366 -116l-14 231q84 51 203 81t245 30
q206 0 307 -81.5t101 -236.5q0 -55 -15 -125l-137 -692h-260zM459 193q85 0 155.5 45t114.5 127l31 157h-82q-176 0 -267.5 -54t-91.5 -151q0 -124 140 -124z" />
    <glyph glyph-name="uni1EB4" unicode="&#x1eb4;" horiz-adv-x="1480" 
d="M840 2054l-193 14q28 141 96.5 213t174.5 72q49 0 86 -14t81 -45q77 -53 111 -53q32 0 52.5 28t33.5 94l191 -14q-56 -283 -271 -283q-85 0 -168 58q-30 21 -43 29.5t-31.5 16t-35.5 7.5q-32 0 -52 -28.5t-32 -94.5zM631 1948l203 12q-8 -74 26.5 -113t108.5 -39
q144 0 198 152l215 -12q-49 -160 -162.5 -239t-269.5 -79q-152 0 -237.5 73t-85.5 206q0 15 4 39zM1028 0l-41 352h-557l-176 -352h-340l831 1520h373l228 -1520h-318zM553 596h405l-75 661z" />
    <glyph glyph-name="uni1EB5" unicode="&#x1eb5;" horiz-adv-x="1189" 
d="M420 1569l203 12q-6 -160 129 -160q140 0 198 160l215 -12q-56 -163 -168.5 -245.5t-265.5 -82.5q-146 0 -229.5 77.5t-83.5 217.5q0 17 2 33zM682 0l23 152q-67 -85 -158.5 -131t-198.5 -46q-139 0 -224 76.5t-85 224.5q0 197 164.5 305.5t476.5 108.5h115l2 10
q8 44 8 74q0 71 -44.5 103t-142.5 32q-189 0 -366 -116l-14 231q84 51 203 81t245 30q206 0 307 -81.5t101 -236.5q0 -55 -15 -125l-137 -692h-260zM459 193q85 0 155.5 45t114.5 127l31 157h-82q-176 0 -267.5 -54t-91.5 -151q0 -124 140 -124zM631 1679l-189 17
q55 282 265 282q49 0 85 -14.5t78 -44.5q72 -51 107 -51q32 0 52 28t32 95l186 -17q-55 -282 -262 -282q-89 0 -166 59q-69 51 -106 51q-31 0 -50.5 -28t-31.5 -95z" />
    <glyph glyph-name="uni1EB6" unicode="&#x1eb6;" horiz-adv-x="1480" 
d="M635 1982l203 13q-7 -35 -7 -56q0 -122 138 -122q161 0 207 178l217 -13q-44 -178 -161.5 -265t-281.5 -87q-152 0 -236.5 72.5t-84.5 204.5q0 35 6 75zM1028 0l-41 352h-557l-176 -352h-340l831 1520h373l228 -1520h-318zM553 596h405l-75 661zM391 -414l53 264h314
l-53 -264h-314z" />
    <glyph glyph-name="uni1EB7" unicode="&#x1eb7;" horiz-adv-x="1189" 
d="M426 1630l203 12q-8 -54 -8 -73q0 -142 133 -142q163 0 213 215l217 -12q-48 -193 -167 -291t-284 -98q-148 0 -231.5 77.5t-83.5 221.5q0 46 8 90zM250 -414l53 264h313l-53 -264h-313zM682 0l23 152q-67 -85 -158.5 -131t-198.5 -46q-139 0 -224 76.5t-85 224.5
q0 197 164.5 305.5t476.5 108.5h115l2 10q8 44 8 74q0 71 -44.5 103t-142.5 32q-189 0 -366 -116l-14 231q84 51 203 81t245 30q206 0 307 -81.5t101 -236.5q0 -55 -15 -125l-137 -692h-260zM459 193q85 0 155.5 45t114.5 127l31 157h-82q-176 0 -267.5 -54t-91.5 -151
q0 -124 140 -124z" />
    <glyph glyph-name="uni1EB8" unicode="&#x1eb8;" horiz-adv-x="1298" 
d="M1133 254l-52 -254h-1020l304 1520h1003l-51 -252h-703l-71 -357h620l-49 -243h-618l-84 -414h721zM326 -414l53 264h313l-53 -264h-313z" />
    <glyph glyph-name="uni1EB9" unicode="&#x1eb9;" horiz-adv-x="1185" 
d="M1016 92q-177 -117 -441 -117q-253 0 -378 118t-125 343q0 100 24.5 198t76.5 189t126 160t181.5 110.5t234.5 41.5q94 0 167.5 -23.5t118.5 -61t74 -91t40 -108.5t11 -118q0 -141 -51 -248h-713v-30q0 -129 60.5 -190.5t214.5 -61.5q201 0 364 119zM690 926
q-112 0 -186 -73.5t-111 -190.5h449q16 33 16 92q0 172 -168 172zM264 -414l53 264h314l-53 -264h-314z" />
    <glyph glyph-name="uni1EBA" unicode="&#x1eba;" horiz-adv-x="1298" 
d="M885 1620l-109 111q114 46 166.5 83t52.5 84q0 52 -88 52q-110 0 -217 -70l-6 180q138 74 285 74q121 0 187.5 -47.5t66.5 -144.5q0 -60 -25.5 -109.5t-75.5 -88t-105 -67t-132 -57.5zM1133 254l-52 -254h-1020l304 1520h1003l-51 -252h-703l-71 -357h620l-49 -243h-618
l-84 -414h721z" />
    <glyph glyph-name="uni1EBB" unicode="&#x1ebb;" horiz-adv-x="1185" 
d="M756 1217l-107 110q107 44 162 82t55 84q0 53 -88 53q-107 0 -217 -67l-4 178q135 74 281 74q120 0 187 -49t67 -148q0 -48 -18 -90t-46.5 -73t-74.5 -60t-91 -50t-106 -44zM1016 92q-177 -117 -441 -117q-253 0 -378 118t-125 343q0 100 24.5 198t76.5 189t126 160
t181.5 110.5t234.5 41.5q94 0 167.5 -23.5t118.5 -61t74 -91t40 -108.5t11 -118q0 -141 -51 -248h-713v-30q0 -129 60.5 -190.5t214.5 -61.5q201 0 364 119zM690 926q-112 0 -186 -73.5t-111 -190.5h449q16 33 16 92q0 172 -168 172z" />
    <glyph glyph-name="uni1EBC" unicode="&#x1ebc;" horiz-adv-x="1298" 
d="M1133 254l-52 -254h-1020l304 1520h1003l-51 -252h-703l-71 -357h620l-49 -243h-618l-84 -414h721zM639 1632l-197 17q63 333 301 333q98 0 197 -69q90 -64 137 -64q85 0 111 148l196 -17q-63 -333 -301 -333q-97 0 -196 69q-90 64 -137 64q-85 0 -111 -148z" />
    <glyph glyph-name="uni1EBD" unicode="&#x1ebd;" horiz-adv-x="1185" 
d="M1016 92q-177 -117 -441 -117q-253 0 -378 118t-125 343q0 100 24.5 198t76.5 189t126 160t181.5 110.5t234.5 41.5q94 0 167.5 -23.5t118.5 -61t74 -91t40 -108.5t11 -118q0 -141 -51 -248h-713v-30q0 -129 60.5 -190.5t214.5 -61.5q201 0 364 119zM690 926
q-112 0 -186 -73.5t-111 -190.5h449q16 33 16 92q0 172 -168 172zM520 1257l-196 17q30 168 104 251t186 83q95 0 191 -70q86 -63 129 -63q77 0 102 147l197 -16q-30 -167 -104.5 -250.5t-186.5 -83.5q-99 0 -190 69q-83 64 -129 64q-79 0 -103 -148z" />
    <glyph glyph-name="uni1EBE" unicode="&#x1ebe;" horiz-adv-x="1298" 
d="M1309 1937l-133 78l362 318l229 -138zM1298 1669l-241 -35l-127 215l-221 -215l-258 35l383 328h233zM1133 254l-52 -254h-1020l304 1520h1003l-51 -252h-703l-71 -357h620l-49 -243h-618l-84 -414h721z" />
    <glyph glyph-name="uni1EBF" unicode="&#x1ebf;" horiz-adv-x="1185" 
d="M1208 1516l-155 49l286 397l240 -82zM1120 1276l-223 -33l-102 238l-199 -238l-238 35l342 348h234zM1016 92q-177 -117 -441 -117q-253 0 -378 118t-125 343q0 100 24.5 198t76.5 189t126 160t181.5 110.5t234.5 41.5q94 0 167.5 -23.5t118.5 -61t74 -91t40 -108.5
t11 -118q0 -141 -51 -248h-713v-30q0 -129 60.5 -190.5t214.5 -61.5q201 0 364 119zM690 926q-112 0 -186 -73.5t-111 -190.5h449q16 33 16 92q0 172 -168 172z" />
    <glyph glyph-name="uni1EC0" unicode="&#x1ec0;" horiz-adv-x="1298" 
d="M1333 1937l-381 295l244 101l279 -326zM1298 1669l-241 -35l-127 215l-221 -215l-258 35l383 328h233zM1133 254l-52 -254h-1020l304 1520h1003l-51 -252h-703l-71 -357h620l-49 -243h-618l-84 -414h721z" />
    <glyph glyph-name="uni1EC1" unicode="&#x1ec1;" horiz-adv-x="1185" 
d="M1167 1516l-258 397l238 49l174 -408zM1120 1276l-223 -33l-102 238l-199 -238l-238 35l342 348h234zM1016 92q-177 -117 -441 -117q-253 0 -378 118t-125 343q0 100 24.5 198t76.5 189t126 160t181.5 110.5t234.5 41.5q94 0 167.5 -23.5t118.5 -61t74 -91t40 -108.5
t11 -118q0 -141 -51 -248h-713v-30q0 -129 60.5 -190.5t214.5 -61.5q201 0 364 119zM690 926q-112 0 -186 -73.5t-111 -190.5h449q16 33 16 92q0 172 -168 172z" />
    <glyph glyph-name="uni1EC2" unicode="&#x1ec2;" horiz-adv-x="1298" 
d="M1296 1901l-98 102q102 43 150.5 76t48.5 75q0 52 -78 52q-100 0 -201 -64l-6 168q126 66 260 66q110 0 172 -46t62 -137q0 -55 -22.5 -99.5t-68.5 -79.5t-96 -60t-123 -53zM1298 1669l-241 -35l-127 215l-221 -215l-258 35l383 328h233zM1133 254l-52 -254h-1020
l304 1520h1003l-51 -252h-703l-71 -357h620l-49 -243h-618l-84 -414h721z" />
    <glyph glyph-name="uni1EC3" unicode="&#x1ec3;" horiz-adv-x="1185" 
d="M1165 1505l-100 103q100 40 149.5 74.5t49.5 76.5q0 51 -78 51q-97 0 -201 -63l-4 166q127 67 260 67q111 0 172.5 -45.5t61.5 -136.5q0 -44 -16 -82.5t-42.5 -67t-68 -55.5t-84 -46.5t-99.5 -41.5zM1120 1276l-223 -33l-102 238l-199 -238l-238 35l342 348h234zM1016 92
q-177 -117 -441 -117q-253 0 -378 118t-125 343q0 100 24.5 198t76.5 189t126 160t181.5 110.5t234.5 41.5q94 0 167.5 -23.5t118.5 -61t74 -91t40 -108.5t11 -118q0 -141 -51 -248h-713v-30q0 -129 60.5 -190.5t214.5 -61.5q201 0 364 119zM690 926q-112 0 -186 -73.5
t-111 -190.5h449q16 33 16 92q0 172 -168 172z" />
    <glyph glyph-name="uni1EC4" unicode="&#x1ec4;" horiz-adv-x="1298" 
d="M770 2054l-190 14q56 285 270 285q82 0 168 -59q39 -28 62.5 -40.5t47.5 -12.5q32 0 52 28t32 94l193 -14q-56 -283 -270 -283q-83 0 -168 58q-74 53 -111 53q-32 0 -52.5 -28.5t-33.5 -94.5zM1298 1669l-241 -35l-127 215l-221 -215l-258 35l383 328h233zM1133 254
l-52 -254h-1020l304 1520h1003l-51 -252h-703l-71 -357h620l-49 -243h-618l-84 -414h721z" />
    <glyph glyph-name="uni1EC5" unicode="&#x1ec5;" horiz-adv-x="1185" 
d="M1120 1276l-223 -33l-102 238l-199 -238l-238 35l342 348h234zM1016 92q-177 -117 -441 -117q-253 0 -378 118t-125 343q0 100 24.5 198t76.5 189t126 160t181.5 110.5t234.5 41.5q94 0 167.5 -23.5t118.5 -61t74 -91t40 -108.5t11 -118q0 -141 -51 -248h-713v-30
q0 -129 60.5 -190.5t214.5 -61.5q201 0 364 119zM690 926q-112 0 -186 -73.5t-111 -190.5h449q16 33 16 92q0 172 -168 172zM645 1679l-188 17q55 282 264 282q49 0 85.5 -14.5t78.5 -44.5q72 -51 106 -51q32 0 52 28t32 95l187 -17q-56 -282 -263 -282q-88 0 -165 59
q-69 51 -107 51q-31 0 -50.5 -28t-31.5 -95z" />
    <glyph glyph-name="uni1EC6" unicode="&#x1ec6;" horiz-adv-x="1298" 
d="M1303 1669l-244 -35l-129 215l-223 -215l-261 35l388 332h233zM1133 254l-52 -254h-1020l304 1520h1003l-51 -252h-703l-71 -357h620l-49 -243h-618l-84 -414h721zM326 -414l53 264h313l-53 -264h-313z" />
    <glyph glyph-name="uni1EC7" unicode="&#x1ec7;" horiz-adv-x="1185" 
d="M1141 1276l-228 -33l-106 291l-227 -291l-242 35l375 410h233zM1016 92q-177 -117 -441 -117q-253 0 -378 118t-125 343q0 100 24.5 198t76.5 189t126 160t181.5 110.5t234.5 41.5q94 0 167.5 -23.5t118.5 -61t74 -91t40 -108.5t11 -118q0 -141 -51 -248h-713v-30
q0 -129 60.5 -190.5t214.5 -61.5q201 0 364 119zM690 926q-112 0 -186 -73.5t-111 -190.5h449q16 33 16 92q0 172 -168 172zM264 -414l53 264h314l-53 -264h-314z" />
    <glyph glyph-name="uni1EC8" unicode="&#x1ec8;" horiz-adv-x="647" 
d="M549 1620l-109 111q114 46 166.5 83t52.5 84q0 52 -88 52q-110 0 -217 -70l-6 180q138 74 285 74q121 0 187.5 -47.5t66.5 -144.5q0 -60 -25.5 -109.5t-75.5 -88t-105 -67t-132 -57.5zM61 0l304 1520h301l-304 -1520h-301z" />
    <glyph glyph-name="uni1EC9" unicode="&#x1ec9;" horiz-adv-x="602" 
d="M444 1217l-106 110q107 44 162 82t55 84q0 53 -88 53q-107 0 -217 -67l-4 178q135 74 280 74q120 0 187 -49t67 -148q0 -48 -18 -90t-46.5 -73t-74.5 -60t-91 -50t-106 -44zM45 0l223 1110h287l-223 -1110h-287z" />
    <glyph glyph-name="uni1ECA" unicode="&#x1eca;" horiz-adv-x="647" 
d="M61 0l304 1520h301l-304 -1520h-301zM-25 -414l54 264h313l-53 -264h-314z" />
    <glyph glyph-name="uni1ECB" unicode="&#x1ecb;" horiz-adv-x="583" 
d="M283 1294l53 265h313l-53 -265h-313zM37 0l223 1110h287l-223 -1110h-287zM-57 -414l53 264h313l-53 -264h-313z" />
    <glyph glyph-name="uni1ECC" unicode="&#x1ecc;" horiz-adv-x="1581" 
d="M705 -29q-271 0 -424.5 160.5t-153.5 448.5q0 146 33.5 286t102.5 263.5t166.5 217t233.5 147.5t295 54q271 0 424.5 -160t153.5 -448q0 -146 -33.5 -286t-102.5 -264t-166.5 -217t-233.5 -147.5t-295 -54.5zM735 233q92 0 172 41.5t136.5 110.5t97.5 158.5t60.5 186
t19.5 192.5q0 181 -75 272.5t-218 91.5q-92 0 -172.5 -41.5t-137 -110t-97 -158t-60 -186t-19.5 -192.5q0 -181 75.5 -273t217.5 -92zM442 -414l54 264h313l-53 -264h-314z" />
    </font>
</defs>
</svg>
