<?xml version="1.0" standalone="no"?>
<!DOCTYPE svg PUBLIC "-//W3C//DTD SVG 1.1//EN" "http://www.w3.org/Graphics/SVG/1.1/DTD/svg11.dtd" >
<svg xmlns="http://www.w3.org/2000/svg" xmlns:xlink="http://www.w3.org/1999/xlink" version="1.1">
<metadata>
Created by FontForge 20170731 at Tue Jul 21 14:26:12 2020
 By Aleksey,,,
Copyright (c) 2018 by Morisawa In.. All rights reserved.
</metadata>
<defs>
<font id="ClarimoUDPE-Bold" horiz-adv-x="1290" >
  <font-face 
    font-family="Clarimo UD PE"
    font-weight="700"
    font-stretch="normal"
    units-per-em="2048"
    panose-1="2 11 8 0 0 0 0 0 0 0"
    ascent="1593"
    descent="-455"
    x-height="1122"
    cap-height="1520"
    bbox="-506 -647 2859 2445"
    underline-thickness="102"
    underline-position="-409"
    unicode-range="U+0020-FB04"
  />
<missing-glyph horiz-adv-x="1024" 
d="M0 0v1434h1024v-1434h-1024zM512 809l348 522h-696zM573 717l349 -522v1044zM164 102h696l-348 523zM102 1239v-1044l349 522z" />
    <glyph glyph-name=".notdef" horiz-adv-x="1024" 
d="M0 0v1434h1024v-1434h-1024zM512 809l348 522h-696zM573 717l349 -522v1044zM164 102h696l-348 523zM102 1239v-1044l349 522z" />
    <glyph glyph-name=".null" horiz-adv-x="0" 
 />
    <glyph glyph-name="nonmarkingreturn" horiz-adv-x="682" 
 />
    <glyph glyph-name="space" unicode=" " horiz-adv-x="458" 
 />
    <glyph glyph-name="space" unicode="&#xa0;" horiz-adv-x="458" 
 />
    <glyph glyph-name="exclam" unicode="!" horiz-adv-x="786" 
d="M266 455l-73 952v113h401v-113l-74 -952h-254zM209 0v313h369v-313h-369z" />
    <glyph glyph-name="quotedbl" unicode="&#x22;" horiz-adv-x="1110" 
d="M680 901l-55 688v4h342v-4l-56 -688h-231zM201 901l-56 688v4h342v-4l-55 -688h-231z" />
    <glyph glyph-name="numbersign" unicode="#" horiz-adv-x="1495" 
d="M739 0l62 369h-238l-61 -369h-260l61 369h-244v256h287l45 270h-254v256h297l62 369h260l-62 -369h238l61 369h262l-61 -369h244v-256h-287l-45 -270h254v-256h-297l-62 -369h-262zM606 625h238l45 270h-238z" />
    <glyph glyph-name="dollar" unicode="$" 
d="M1204 444q0 -187 -116.5 -301t-346.5 -137v-207h-184v203q-270 14 -483 148l69 307q198 -152 414 -172v354q-54 14 -93 25t-90.5 31.5t-88 42t-75 55t-62 72.5t-39 93t-15.5 117q0 184 118 301t345 140v200h184v-198q244 -19 402 -119l-64 -305q-161 120 -338 139v-340
q56 -14 99.5 -27.5t94 -34.5t87 -44.5t73 -57.5t59 -74t36.5 -94t14 -117zM393 1092q0 -58 40 -91.5t124 -60.5v293q-164 -24 -164 -141zM905 440q0 59 -39 92.5t-125 57.5v-301q164 28 164 151z" />
    <glyph glyph-name="percent" unicode="%" horiz-adv-x="2039" 
d="M438 616q-181 0 -282 120t-101 345t101 345t282 120q179 0 280 -120t101 -345t-101 -345t-280 -120zM346 0l1086 1520h264l-1086 -1520h-264zM438 817q59 0 88 63t29 201t-29 201.5t-88 63.5q-61 0 -90 -63.5t-29 -201.5t29 -201t90 -63zM1602 -23q-181 0 -282 120
t-101 345t101 345t282 120q179 0 279.5 -120t100.5 -345t-100.5 -345t-279.5 -120zM1602 178q59 0 87.5 63t28.5 201t-28.5 201.5t-87.5 63.5q-61 0 -90 -63.5t-29 -201.5t29 -201t90 -63z" />
    <glyph glyph-name="ampersand" unicode="&#x26;" horiz-adv-x="1556" 
d="M1153 0l-127 135q-179 -164 -436 -164q-239 0 -373.5 116t-134.5 300q0 76 23.5 140t68.5 114t99 88.5t126 73.5q-99 110 -138.5 187t-39.5 171q0 179 123 283t340 104q208 0 331.5 -96.5t123.5 -267.5q0 -131 -76 -224t-225 -172l200 -210q60 99 119 286l277 -149
q-78 -184 -199 -342l354 -373h-436zM557 1159q0 -46 28 -92t101 -119q125 83 125 199q0 63 -34.5 98t-94.5 35q-58 0 -91.5 -31.5t-33.5 -89.5zM434 438q0 -89 57 -136.5t154 -47.5q112 0 191 82l-281 297q-61 -42 -91 -87.5t-30 -107.5z" />
    <glyph glyph-name="quotesingle" unicode="'" horiz-adv-x="630" 
d="M201 901l-56 688v4h342v-4l-55 -688h-231z" />
    <glyph glyph-name="parenleft" unicode="(" horiz-adv-x="937" 
d="M690 -397q-255 170 -400 434.5t-145 589.5t145 589.5t400 434.5l174 -197q-190 -141 -297.5 -353t-107.5 -474t107.5 -475t297.5 -353z" />
    <glyph glyph-name="parenright" unicode=")" horiz-adv-x="937" 
d="M248 1651q255 -170 400 -434.5t145 -589.5t-145 -589.5t-400 -434.5l-174 196q190 140 297.5 353t107.5 475t-107.5 474t-297.5 353z" />
    <glyph glyph-name="asterisk" unicode="*" horiz-adv-x="1224" 
d="M1020 788l-236 -170l-172 320l-172 -320l-235 170l250 261l-357 65l92 277l324 -156l-47 358h291l-47 -358l323 156l92 -277l-356 -65z" />
    <glyph glyph-name="plus" unicode="+" 
d="M1196 494h-416v-443h-270v443h-416v268h416v440h270v-440h416v-268z" />
    <glyph glyph-name="comma" unicode="," horiz-adv-x="651" 
d="M285 -332l-281 39q160 259 160 574q0 69 -6 129h338q10 -50 10 -140q0 -164 -57.5 -320.5t-163.5 -281.5z" />
    <glyph glyph-name="hyphen" unicode="-" horiz-adv-x="950" 
d="M115 473v309h721v-309h-721z" />
    <glyph glyph-name="hyphen" unicode="&#xad;" horiz-adv-x="950" 
d="M115 473v309h721v-309h-721z" />
    <glyph glyph-name="period" unicode="." horiz-adv-x="651" 
d="M129 0v403h393v-403h-393z" />
    <glyph glyph-name="slash" unicode="/" horiz-adv-x="999" 
d="M-68 -340l725 1933h306l-725 -1933h-306z" />
    <glyph glyph-name="zero" unicode="0" 
d="M645 -27q-271 0 -421 202.5t-150 584.5t150 584t421 202t421.5 -202.5t150.5 -583.5q0 -382 -150.5 -584.5t-421.5 -202.5zM645 264q106 0 158.5 119t52.5 377t-52.5 376.5t-158.5 118.5t-158.5 -118.5t-52.5 -376.5t52.5 -377t158.5 -119z" />
    <glyph glyph-name="one" unicode="1" 
d="M1194 281v-281h-975v281h324v833q-121 -98 -279 -180l-149 250q274 137 481 344h283v-1247h315z" />
    <glyph glyph-name="two" unicode="2" 
d="M1180 307v-307h-1074v279l426 368q100 88 152.5 143t85.5 117t33 127q0 95 -58.5 152t-158.5 57t-187.5 -60.5t-148.5 -162.5l-141 272q88 121 230.5 188.5t311.5 67.5q234 0 373 -125t139 -344q0 -77 -18 -143t-49 -121t-87 -114.5t-117 -111t-155 -122.5l-211 -160h654
z" />
    <glyph glyph-name="three" unicode="3" 
d="M1194 424q0 -215 -161 -334t-437 -119q-302 0 -500 133l60 320q157 -148 405 -148q130 0 201.5 46.5t71.5 138.5q0 43 -17 75t-56 56.5t-108.5 37.5t-169.5 13h-168v256h158q156 0 238 48.5t82 137.5q0 76 -58 117t-162 41q-205 0 -352 -141l-110 276q205 170 528 170
q245 0 379.5 -100.5t134.5 -286.5q0 -140 -74 -235t-211 -135q159 -32 242.5 -120.5t83.5 -246.5z" />
    <glyph glyph-name="four" unicode="4" 
d="M1239 309h-188v-309h-330v309h-676v283l655 938h351v-936h188v-285zM340 594h381v547z" />
    <glyph glyph-name="five" unicode="5" 
d="M1194 475q0 -245 -157 -374.5t-437 -129.5q-301 0 -496 133l60 320q157 -148 401 -148q269 0 269 199q0 101 -84 153t-285 52q-150 0 -268 -25v865h927v-306h-639v-278q98 8 156 8q264 0 408.5 -118.5t144.5 -350.5z" />
    <glyph glyph-name="six" unicode="6" 
d="M1229 508q0 -153 -67 -274t-195.5 -192t-298.5 -71q-280 0 -435 193.5t-155 558.5q0 400 192.5 612.5t563.5 212.5q171 0 280 -37l-29 -297q-99 41 -237 41q-193 0 -287 -98.5t-115 -296.5q146 131 330 131q203 0 328 -134t125 -349zM668 737q-140 0 -228 -131
q12 -178 67.5 -262t156.5 -84q97 0 150.5 69t53.5 181q0 108 -51.5 167.5t-148.5 59.5z" />
    <glyph glyph-name="seven" unicode="7" 
d="M1233 1245q-226 -253 -368.5 -574.5t-190.5 -670.5h-379q93 680 536 1214h-733v306h1135v-275z" />
    <glyph glyph-name="eight" unicode="8" 
d="M1221 408q0 -213 -159 -329t-425 -116q-261 0 -414 109.5t-153 296.5q0 132 75.5 229t212.5 154q-56 31 -98.5 64.5t-79 79t-55.5 105.5t-19 132q0 107 43 189.5t119 132.5t173 75.5t212 25.5q128 0 231 -31.5t167.5 -86t98.5 -125t34 -150.5q0 -110 -63 -204t-191 -144
q64 -30 112.5 -64.5t91 -83t65 -114t22.5 -145.5zM459 1124q0 -73 58 -120.5t177 -94.5q137 74 137 207q0 79 -52 120.5t-134 41.5q-84 0 -135 -42.5t-51 -111.5zM420 422q0 -83 63 -131.5t164 -48.5q105 0 164 50.5t59 125.5q0 42 -20 76t-63 62.5t-86.5 48t-114.5 46.5
q-84 -42 -125 -103t-41 -126z" />
    <glyph glyph-name="nine" unicode="9" 
d="M1219 829q0 -404 -194 -631t-562 -227q-156 0 -281 33l29 297q110 -37 235 -37q336 0 398 371q-131 -107 -301 -107q-211 0 -343 135.5t-132 354.5q0 234 154 382t413 148q101 0 186.5 -23.5t160 -77.5t126.5 -136t81.5 -204.5t29.5 -277.5zM428 1016q0 -112 57.5 -173
t159.5 -61q131 0 215 109q-6 196 -61.5 282.5t-159.5 86.5q-100 0 -155.5 -68t-55.5 -176z" />
    <glyph glyph-name="colon" unicode=":" horiz-adv-x="802" 
d="M205 719v403h393v-403h-393zM205 0v403h393v-403h-393z" />
    <glyph glyph-name="semicolon" unicode=";" horiz-adv-x="802" 
d="M205 719v403h393v-403h-393zM360 -332l-280 39q160 259 160 574q0 59 -7 129h338q11 -55 11 -140q0 -164 -58 -320.5t-164 -281.5z" />
    <glyph glyph-name="less" unicode="&#x3c;" 
d="M1126 350v-297l-991 463v221l991 463v-295l-675 -276z" />
    <glyph glyph-name="equal" unicode="=" 
d="M119 725v268h1052v-268h-1052zM119 260v270h1052v-270h-1052z" />
    <glyph glyph-name="greater" unicode="&#x3e;" 
d="M1155 516l-991 -463v297l676 279l-676 276v295l991 -463v-221z" />
    <glyph glyph-name="question" unicode="?" horiz-adv-x="1181" 
d="M354 455v86q0 61 14.5 111.5t34 82.5t55 62t61 45t67.5 37q34 18 51 27.5t42.5 28.5t37.5 36t21.5 43.5t9.5 58.5q0 87 -58.5 127.5t-146.5 40.5q-190 0 -320 -186l-141 272q192 221 520 221q112 0 206 -27.5t165.5 -80.5t112 -139t40.5 -197q0 -68 -16.5 -124.5t-39 -93
t-64.5 -72t-73 -54.5t-85 -49q-42 -22 -67 -38t-52.5 -40t-40 -53t-12.5 -64v-61h-322zM332 0v313h368v-313h-368z" />
    <glyph glyph-name="at" unicode="@" horiz-adv-x="2170" 
d="M1790 -172q-284 -209 -680 -209q-225 0 -406.5 69t-301.5 192.5t-184 294.5t-64 376q0 217 71.5 405.5t199 325t315.5 215t411 78.5q255 0 451.5 -98.5t307.5 -286t111 -438.5q0 -159 -45.5 -290t-120.5 -213t-167 -126.5t-189 -44.5q-101 0 -165.5 49.5t-73.5 142.5
q-58 -96 -146 -144t-190 -48q-157 0 -251.5 106.5t-94.5 311.5q0 133 41 253t109 205t159 135t188 50q87 0 147 -37t87 -94l47 102h243l-129 -645q-10 -48 -10 -76q0 -98 82 -98q105 0 186.5 120.5t81.5 325.5q0 296 -176.5 467.5t-482.5 171.5q-180 0 -328.5 -63
t-248.5 -173.5t-154.5 -261t-54.5 -325.5q0 -163 47.5 -296.5t140 -232t236.5 -152.5t329 -54q361 0 633 209zM870 510q0 -54 12 -92t32.5 -56.5t41 -26t43.5 -7.5q70 0 125 71.5t84 218.5l37 185q-58 88 -141 88q-54 0 -100 -36.5t-74.5 -93.5t-44 -122.5t-15.5 -128.5z
" />
    <glyph glyph-name="A" unicode="A" horiz-adv-x="1574" 
d="M1167 0l-100 315h-569l-101 -315h-385l549 1520h453l549 -1520h-396zM590 602h385l-193 608z" />
    <glyph glyph-name="B" unicode="B" horiz-adv-x="1503" 
d="M1415 422q0 -94 -31.5 -168t-83.5 -121t-125.5 -77.5t-152 -43t-168.5 -12.5h-694v1520h674q255 0 387.5 -101t132.5 -293q0 -258 -254 -333q315 -69 315 -371zM782 1233h-282v-338h280q99 0 153 38.5t54 133.5q0 91 -52 128.5t-153 37.5zM500 649v-362h317q72 0 120 14
t79 55t31 111q0 99 -57 140.5t-167 41.5h-323z" />
    <glyph glyph-name="C" unicode="C" horiz-adv-x="1435" 
d="M1360 127q-197 -156 -504 -156q-355 0 -560.5 209.5t-205.5 579.5q0 249 95.5 427.5t269 269.5t409.5 91q290 0 475 -139l-69 -324q-155 152 -375 152q-204 0 -316 -126t-112 -349q0 -232 117.5 -355.5t310.5 -123.5q122 0 223 44t170 111z" />
    <glyph glyph-name="D" unicode="D" horiz-adv-x="1595" 
d="M1505 760q0 -383 -207 -571.5t-587 -188.5h-551v1520h551q172 0 307 -37.5t226 -104.5t150 -163.5t85 -208.5t26 -246zM694 1227h-182v-934h184q216 0 324 113t108 354q0 84 -13.5 153t-45 128.5t-81 100t-124 63t-170.5 22.5z" />
    <glyph glyph-name="E" unicode="E" horiz-adv-x="1335" 
d="M1233 299v-299h-1073v1520h1057v-295h-705v-297h623v-289h-623v-340h721z" />
    <glyph glyph-name="F" unicode="F" horiz-adv-x="1257" 
d="M1102 575h-590v-575h-352v1520h1036v-295h-684v-357h590v-293z" />
    <glyph glyph-name="G" unicode="G" horiz-adv-x="1601" 
d="M1475 119q-85 -63 -248.5 -105.5t-343.5 -42.5q-384 0 -588.5 207t-204.5 582q0 377 212.5 582.5t600.5 205.5q171 0 311 -39t228 -100l-70 -324q-183 152 -444 152q-233 0 -347 -123.5t-114 -353.5q0 -235 115.5 -356t343.5 -121q119 0 231 28v275h-326v270h644v-737z
" />
    <glyph glyph-name="H" unicode="H" horiz-adv-x="1609" 
d="M1098 0v633h-586v-633h-352v1520h352v-582h586v582h354v-1520h-354z" />
    <glyph glyph-name="I" unicode="I" horiz-adv-x="671" 
d="M160 0v1520h352v-1520h-352z" />
    <glyph glyph-name="J" unicode="J" horiz-adv-x="933" 
d="M0 8l14 309q89 -38 205 -38q113 0 164 64t51 230v947h352v-996q0 -292 -133 -422.5t-391 -130.5q-161 0 -262 37z" />
    <glyph glyph-name="K" unicode="K" horiz-adv-x="1542" 
d="M1102 0l-443 612l-147 -153v-459h-352v1520h352v-662l578 662h450v-4l-645 -662l655 -850v-4h-448z" />
    <glyph glyph-name="L" unicode="L" horiz-adv-x="1206" 
d="M1180 299v-299h-1020v1520h352v-1221h668z" />
    <glyph glyph-name="M" unicode="M" horiz-adv-x="2080" 
d="M909 0l-422 1116v-1116h-327v1520h495l385 -1020l385 1020h496v-1520h-340v1122l-424 -1122h-248z" />
    <glyph glyph-name="N" unicode="N" horiz-adv-x="1646" 
d="M1147 0l-653 965v-965h-334v1520h342l651 -963v963h334v-1520h-340z" />
    <glyph glyph-name="O" unicode="O" horiz-adv-x="1654" 
d="M827 -29q-334 0 -535.5 211.5t-201.5 577.5t201.5 577t535.5 211t536 -211t202 -577t-202 -577.5t-536 -211.5zM827 283q169 0 265 126t96 351q0 224 -96 350.5t-265 126.5t-264.5 -126t-95.5 -351q0 -224 95.5 -350.5t264.5 -126.5z" />
    <glyph glyph-name="P" unicode="P" horiz-adv-x="1433" 
d="M512 459v-459h-352v1520h604q301 0 456.5 -135t155.5 -392q0 -123 -36 -218t-94.5 -153.5t-141 -96t-167 -52t-181.5 -14.5h-244zM733 1227h-221v-477h217q281 0 281 237q0 240 -277 240z" />
    <glyph glyph-name="Q" unicode="Q" horiz-adv-x="1654" 
d="M1561 -381q-142 -74 -291 -74q-381 0 -572 435q-281 40 -444.5 245.5t-163.5 534.5q0 366 201.5 577t535.5 211t536 -211t202 -577q0 -315 -152 -517.5t-414 -254.5q36 -60 119.5 -96.5t194.5 -36.5q107 0 223 43zM827 283q169 0 265 126t96 351q0 224 -96 350.5
t-265 126.5t-264.5 -126t-95.5 -351q0 -224 95.5 -350.5t264.5 -126.5z" />
    <glyph glyph-name="R" unicode="R" horiz-adv-x="1505" 
d="M512 498v-498h-352v1520h590q298 0 454 -129.5t156 -376.5q0 -95 -24 -174t-66.5 -134t-93.5 -92.5t-113 -62.5l428 -551h-436l-342 498h-201zM715 1227h-203v-445h229q33 0 64 5t66.5 19.5t61.5 38t43 65.5t17 96q0 118 -72.5 169.5t-205.5 51.5z" />
    <glyph glyph-name="S" unicode="S" horiz-adv-x="1314" 
d="M78 115l72 323q226 -164 499 -164q223 0 223 144q0 23 -6.5 42t-16 33.5t-31 28.5t-39 23t-54.5 21.5t-62.5 20t-76.5 21.5q-82 23 -129.5 39t-121.5 54t-115 82.5t-73 120.5t-32 171q0 215 148 344t433 129q135 0 261.5 -29.5t216.5 -82.5l-66 -324q-183 133 -414 133
q-217 0 -217 -141q0 -31 11 -53.5t28 -38.5t56.5 -31.5t76 -26.5t107.5 -30q58 -15 96.5 -26.5t94 -33.5t92.5 -44.5t78 -59.5t65.5 -79.5t40.5 -102t16 -129.5q0 -223 -150.5 -350.5t-447.5 -127.5q-161 0 -307 38.5t-256 105.5z" />
    <glyph glyph-name="T" unicode="T" horiz-adv-x="1306" 
d="M1282 1225h-451v-1225h-354v1225h-452v295h1257v-295z" />
    <glyph glyph-name="U" unicode="U" horiz-adv-x="1576" 
d="M145 610v910h355v-906q0 -163 75.5 -247t217.5 -84t217 84t75 247v906h347v-910q0 -313 -164 -476t-484 -163q-319 0 -479 162.5t-160 476.5z" />
    <glyph glyph-name="V" unicode="V" horiz-adv-x="1525" 
d="M1507 1520l-536 -1520h-416l-539 1520h400l354 -1127l354 1127h383z" />
    <glyph glyph-name="W" unicode="W" horiz-adv-x="2281" 
d="M1409 0l-268 1057l-271 -1057h-401l-440 1520h399l258 -1119l281 1119h364l279 -1114l258 1114h385l-443 -1520h-401z" />
    <glyph glyph-name="X" unicode="X" horiz-adv-x="1499" 
d="M1044 0l-307 514l-301 -514h-424l518 764l-503 756h442l291 -496l289 496h421l-503 -742l520 -778h-443z" />
    <glyph glyph-name="Y" unicode="Y" horiz-adv-x="1413" 
d="M1421 1520l-538 -973v-547h-355v543l-536 977h414l307 -646l307 646h401z" />
    <glyph glyph-name="Z" unicode="Z" horiz-adv-x="1394" 
d="M1311 299v-299h-1233v270l762 955h-727v295h1181v-263l-766 -958h783z" />
    <glyph glyph-name="bracketleft" unicode="[" horiz-adv-x="937" 
d="M217 -340v1933h619v-225h-320v-1483h320v-225h-619z" />
    <glyph glyph-name="backslash" unicode="\" horiz-adv-x="999" 
d="M1067 -340h-303l-725 1933h303z" />
    <glyph glyph-name="bracketright" unicode="]" horiz-adv-x="937" 
d="M721 1593v-1933h-619v225h320v1483h-320v225h619z" />
    <glyph glyph-name="asciicircum" unicode="^" horiz-adv-x="1122" 
d="M801 762l-240 481l-239 -481h-285l403 758h242l403 -758h-284z" />
    <glyph glyph-name="underscore" unicode="_" horiz-adv-x="1310" 
d="M31 -373v254h1249v-254h-1249z" />
    <glyph glyph-name="grave" unicode="`" horiz-adv-x="1024" 
d="M479 1239l-338 401l308 78l239 -428z" />
    <glyph glyph-name="a" unicode="a" horiz-adv-x="1230" 
d="M786 0l-4 135q-129 -160 -344 -160q-168 0 -266 92t-98 259q0 189 137.5 281.5t421.5 92.5h137v27q0 81 -46.5 119.5t-164.5 38.5q-203 0 -364 -111l-54 262q181 111 467 111q263 0 380.5 -103.5t117.5 -298.5v-745h-320zM547 229q77 0 135.5 35t87.5 92v148h-90
q-146 0 -213.5 -35t-67.5 -113q0 -63 38.5 -95t109.5 -32z" />
    <glyph glyph-name="b" unicode="b" horiz-adv-x="1345" 
d="M1276 573q0 -281 -139 -439.5t-369 -158.5q-197 0 -319 144l-7 -119h-311v1593h336v-610q138 164 344 164q213 0 339 -152.5t126 -421.5zM467 346q67 -98 209 -98q120 0 188 85t68 232q0 145 -64 220t-172 75q-74 0 -134 -33.5t-95 -93.5v-387z" />
    <glyph glyph-name="c" unicode="c" horiz-adv-x="1085" 
d="M1032 94q-67 -50 -170 -84.5t-229 -34.5q-264 0 -414.5 153.5t-150.5 426.5q0 277 156.5 434.5t422.5 157.5q121 0 217.5 -32.5t159.5 -82.5l-68 -268q-44 48 -113 78t-151 30q-133 0 -206.5 -82t-73.5 -227q0 -148 75 -230.5t211 -82.5q150 0 273 110z" />
    <glyph glyph-name="d" unicode="d" horiz-adv-x="1345" 
d="M897 0l-4 141q-128 -166 -340 -166q-220 0 -350.5 155t-130.5 425q0 276 137.5 434t370.5 158q182 0 301 -119v565h336v-1593h-320zM414 559q0 -146 66.5 -222.5t178.5 -76.5q77 0 136.5 34.5t85.5 88.5v385q-74 104 -209 104q-122 0 -190 -83t-68 -230z" />
    <glyph glyph-name="e" unicode="e" horiz-adv-x="1241" 
d="M1149 90q-190 -115 -465 -115q-304 0 -460 149t-156 427q0 281 151.5 438.5t419.5 157.5q115 0 206 -29t149.5 -79t97.5 -120.5t55 -147.5t16 -167v-139h-753q13 -108 87 -165.5t226 -57.5q203 0 373 110zM645 905q-98 0 -163 -60t-72 -175h432v18q0 45 -10 82
t-31.5 68.5t-61 49t-94.5 17.5z" />
    <glyph glyph-name="f" unicode="f" horiz-adv-x="839" 
d="M209 0v879h-178v243h178v84q0 98 27.5 172t70.5 118t104.5 71.5t122 37t130.5 9.5q118 0 200 -21l-16 -272q-82 20 -154 20q-80 0 -114.5 -32.5t-34.5 -112.5v-74h270v-243h-270v-879h-336z" />
    <glyph glyph-name="g" unicode="g" horiz-adv-x="1314" 
d="M1241 -84q0 -186 -164 -294.5t-493 -108.5q-289 0 -426.5 82t-137.5 217q0 85 55.5 151t174.5 96q-103 56 -103 172q0 139 160 197q-209 99 -209 330q0 192 141 290.5t377 98.5q188 0 320 -66l342 56h14v-246l-184 8q27 -61 27 -141q0 -191 -141 -290t-378 -99
q-63 0 -135 10q-51 -13 -51 -66q0 -66 92 -71l318 -15q401 -17 401 -311zM616 588q91 0 141 44t50 124t-50 126t-141 46q-89 0 -139.5 -44.5t-50.5 -123.5q0 -80 50 -126t140 -46zM346 -131q0 -65 64 -99t211 -34q294 0 294 137q0 40 -31 63t-116 27l-340 14
q-40 -13 -61 -42t-21 -66z" />
    <glyph glyph-name="h" unicode="h" horiz-adv-x="1310" 
d="M467 705v-705h-336v1593h336v-624q127 178 346 178q179 0 277 -109.5t98 -308.5v-729h-336v659q0 201 -162 201q-74 0 -133 -41t-90 -114z" />
    <glyph glyph-name="i" unicode="i" horiz-adv-x="604" 
d="M123 1286v285h358v-285h-358zM135 0v1122h336v-1122h-336z" />
    <glyph glyph-name="j" unicode="j" horiz-adv-x="620" 
d="M141 1286v285h359v-285h-359zM-154 -442l25 274q52 -25 129 -25q79 0 115.5 46.5t36.5 160.5v1108h335v-1073q0 -142 -30.5 -244t-89 -161.5t-136.5 -87t-180 -27.5q-125 0 -205 29z" />
    <glyph glyph-name="k" unicode="k" horiz-adv-x="1271" 
d="M881 0l-301 424l-113 -117v-307h-336v1593h336v-946l375 475h415v-4l-456 -469l493 -645v-4h-413z" />
    <glyph glyph-name="l" unicode="l" horiz-adv-x="604" 
d="M135 0v1593h336v-1593h-336z" />
    <glyph glyph-name="m" unicode="m" horiz-adv-x="2009" 
d="M467 705v-705h-336v1122h320l4 -172q129 197 350 197q121 0 207 -54t127 -157q135 211 374 211q177 0 274 -109.5t97 -308.5v-729h-336v659q0 201 -155 201q-72 0 -129.5 -42.5t-87.5 -112.5v-705h-336v659q0 201 -156 201q-72 0 -129.5 -42.5t-87.5 -112.5z" />
    <glyph glyph-name="n" unicode="n" horiz-adv-x="1310" 
d="M467 705v-705h-336v1122h320l4 -170q129 195 358 195q179 0 277 -109.5t98 -308.5v-729h-336v659q0 201 -162 201q-74 0 -133 -41t-90 -114z" />
    <glyph glyph-name="o" unicode="o" horiz-adv-x="1277" 
d="M639 -25q-167 0 -294.5 65.5t-202 199.5t-74.5 321t74.5 321t202 199.5t294.5 65.5t294.5 -65.5t202 -199.5t74.5 -321t-74.5 -321t-202 -199.5t-294.5 -65.5zM639 248q107 0 168 81.5t61 231.5t-61 231.5t-168 81.5q-106 0 -166.5 -81.5t-60.5 -231.5t60.5 -231.5
t166.5 -81.5z" />
    <glyph glyph-name="p" unicode="p" horiz-adv-x="1345" 
d="M770 -25q-183 0 -303 109v-518h-336v1556h320l4 -153q131 178 358 178q211 0 337 -153.5t126 -420.5q0 -280 -139 -439t-367 -159zM467 723v-387q73 -88 207 -88q120 0 189 84t69 233q0 142 -63.5 218.5t-172.5 76.5q-77 0 -137 -35.5t-92 -101.5z" />
    <glyph glyph-name="q" unicode="q" horiz-adv-x="1345" 
d="M1217 1122v-1556h-336v551q-133 -142 -330 -142q-219 0 -349 155.5t-130 424.5q0 274 137 433t371 159q199 0 317 -143l8 118h312zM414 559q0 -148 66 -223.5t177 -75.5q148 0 224 107v391q-67 114 -209 114q-122 0 -190 -83t-68 -230z" />
    <glyph glyph-name="r" unicode="r" horiz-adv-x="919" 
d="M467 635v-635h-336v1122h320l4 -207q52 125 127 177.5t178 52.5q83 0 135 -25l-23 -313q-71 29 -149 29q-92 0 -161 -47.5t-95 -153.5z" />
    <glyph glyph-name="s" unicode="s" horiz-adv-x="1081" 
d="M72 82l49 270q192 -125 399 -125q156 0 156 86q0 16 -4.5 28t-18.5 22.5t-26.5 17.5t-42.5 17t-52.5 16t-68.5 18q-63 17 -108 32.5t-97.5 44t-85 64t-54.5 91t-22 124.5q0 169 121.5 264t360.5 95q236 0 389 -86l-49 -270q-164 104 -336 104q-150 0 -150 -86
q0 -48 45.5 -69.5t179.5 -53.5q57 -14 102.5 -30t95 -45t83 -65t55 -90.5t21.5 -121.5q0 -176 -130.5 -267.5t-365.5 -91.5q-259 0 -446 107z" />
    <glyph glyph-name="t" unicode="t" horiz-adv-x="909" 
d="M864 37q-119 -62 -286 -62q-373 0 -373 394v510h-174v243h174v291l334 72v-363h317v-243h-317v-457q0 -87 33 -126.5t106 -39.5q78 0 156 47z" />
    <glyph glyph-name="u" unicode="u" horiz-adv-x="1310" 
d="M862 0l-4 170q-119 -195 -356 -195q-180 0 -278.5 109t-98.5 309v729h336v-659q0 -201 164 -201q83 0 138 45.5t83 114.5v700h336v-1122h-320z" />
    <glyph glyph-name="v" unicode="v" horiz-adv-x="1234" 
d="M1221 1122l-414 -1122h-381l-412 1122h375l238 -807l235 807h359z" />
    <glyph glyph-name="w" unicode="w" horiz-adv-x="1886" 
d="M1139 0l-195 752l-194 -752h-369l-356 1122h376l179 -800l198 800h342l199 -798l180 798h365l-357 -1122h-368z" />
    <glyph glyph-name="x" unicode="x" horiz-adv-x="1241" 
d="M823 0l-211 350l-211 -350h-387v4l408 559l-399 555v4h403l201 -336l200 336h385v-4l-397 -540l410 -574v-4h-402z" />
    <glyph glyph-name="y" unicode="y" horiz-adv-x="1251" 
d="M825 12q-53 -144 -110 -238.5t-124.5 -148t-140 -75t-167.5 -21.5q-112 0 -213 33l26 278q79 -28 154 -28q79 0 124 34.5t87 124.5l-441 1151h381l240 -813l240 813h356z" />
    <glyph glyph-name="z" unicode="z" horiz-adv-x="1103" 
d="M1034 256v-256h-966v240l544 626h-522v256h930v-239l-547 -627h561z" />
    <glyph glyph-name="braceleft" unicode="{" horiz-adv-x="937" 
d="M836 -115v-225h-193q-418 0 -418 328q0 80 33 198q27 94 27 152q0 80 -46.5 119t-152.5 39h-74v262h74q106 0 152.5 38.5t46.5 118.5q0 57 -27 152q-33 118 -33 199q0 170 106.5 248.5t311.5 78.5h193v-225h-156q-77 0 -116.5 -35.5t-39.5 -99.5q0 -38 27 -129
q33 -116 33 -189q0 -256 -281 -288q281 -32 281 -289q0 -72 -33 -188q-27 -91 -27 -130q0 -64 39.5 -99.5t116.5 -35.5h156z" />
    <glyph glyph-name="bar" unicode="|" horiz-adv-x="974" 
d="M342 -455v2048h293v-2048h-293z" />
    <glyph glyph-name="braceright" unicode="}" horiz-adv-x="937" 
d="M713 -12q0 -328 -418 -328h-193v225h156q77 0 116.5 35.5t39.5 99.5q0 39 -27 130q-33 115 -33 188q0 257 281 289q-281 32 -281 288q0 76 33 189q27 91 27 129q0 64 -39.5 99.5t-116.5 35.5h-156v225h193q205 0 311.5 -78.5t106.5 -248.5q0 -81 -33 -199
q-27 -95 -27 -152q0 -80 46.5 -118.5t152.5 -38.5h74v-262h-74q-106 0 -152.5 -39t-46.5 -119q0 -58 27 -152q33 -118 33 -198z" />
    <glyph glyph-name="asciitilde" unicode="~" 
d="M334 399l-250 19q0 96 17.5 171.5t46.5 122.5t69.5 77.5t84 42.5t93.5 12q125 0 301 -96q129 -70 172 -70q88 0 88 178l250 -18q0 -97 -17.5 -172.5t-46.5 -123t-69.5 -78t-84 -42.5t-93.5 -12q-125 0 -301 96q-128 69 -172 69q-88 0 -88 -176z" />
    <glyph glyph-name="exclamdown" unicode="&#xa1;" horiz-adv-x="786" 
d="M578 1122v-313h-369v313h369zM520 668l74 -953v-112h-401v112l73 953h254z" />
    <glyph glyph-name="cent" unicode="&#xa2;" 
d="M1081 330q-140 -104 -329 -121v-238h-185v242q-216 30 -341.5 173.5t-125.5 373.5q0 231 125.5 377t341.5 180v235h185v-227q191 -13 321 -117l-67 -264q-105 98 -254 111v-578q144 11 270 117zM395 766q0 -206 172 -268v536q-84 -29 -128 -97.5t-44 -170.5z" />
    <glyph glyph-name="sterling" unicode="&#xa3;" 
d="M1204 307v-307h-1108v252q78 6 132.5 27.5t81.5 54.5t38.5 67t11.5 74q0 77 -38 168h-240v213h158q-31 102 -31 203q0 229 148.5 359t412.5 130q266 0 426 -137l-86 -287q-67 62 -139 95.5t-168 33.5q-117 0 -180.5 -55.5t-63.5 -169.5q0 -75 33 -172h403v-213h-327
q14 -65 14 -117q0 -137 -88 -219h610z" />
    <glyph glyph-name="currency" unicode="&#xa4;" 
d="M1188 377l-160 -160l-186 186q-86 -47 -197 -47q-110 0 -196 47l-187 -186l-160 160l183 182q-49 93 -49 201t49 201l-183 182l160 160l187 -187q86 47 196 47q111 0 197 -47l186 187l160 -160l-182 -182q49 -93 49 -201t-49 -201zM645 571q83 0 130.5 50.5t47.5 138.5
t-47.5 138t-130.5 50q-84 0 -131 -50t-47 -138t47 -138.5t131 -50.5z" />
    <glyph glyph-name="yen" unicode="&#xa5;" 
d="M1180 242h-367v-242h-336v242h-366v213h366v141h-366v213h292l-401 711h393l258 -566l258 566h377l-401 -711h293v-213h-367v-141h367v-213z" />
    <glyph glyph-name="brokenbar" unicode="&#xa6;" horiz-adv-x="974" 
d="M342 825v768h293v-768h-293zM342 -455v768h293v-768h-293z" />
    <glyph glyph-name="section" unicode="&#xa7;" horiz-adv-x="1292" 
d="M1135 59q0 -188 -132.5 -297.5t-392.5 -109.5q-271 0 -463 127l62 272q197 -139 418 -139q196 0 196 113q0 26 -13.5 47.5t-31 35t-54.5 28t-62.5 21.5t-77.5 21q-41 11 -64.5 17.5t-64.5 19.5t-66 24.5t-60 30t-57 38t-46.5 47t-38 58t-22.5 70t-9 84.5q0 194 147 293
q-135 96 -135 279t130 296t384 113q240 0 418 -102l-62 -272q-97 59 -181.5 86.5t-194.5 27.5q-93 0 -138 -30.5t-45 -81.5q0 -26 13 -47t32.5 -35.5t54 -28.5t64 -22.5t76.5 -20.5q53 -13 84 -21.5t82 -27t82.5 -36.5t69.5 -48.5t59 -65t36 -83.5t15 -107q0 -195 -150 -293
q138 -98 138 -281zM723 451q3 -1 57 -17q68 49 68 125q0 33 -13.5 58.5t-33 43.5t-58 35t-72 27.5t-91.5 26.5q-19 6 -62 16q-63 -48 -63 -121q0 -22 4.5 -41t17.5 -35t23.5 -27.5t34.5 -23.5l38 -19t47 -17.5t48.5 -15t54.5 -15.5z" />
    <glyph glyph-name="dieresis" unicode="&#xa8;" horiz-adv-x="1024" 
d="M608 1286v285h299v-285h-299zM117 1286v285h299v-285h-299z" />
    <glyph glyph-name="copyright" unicode="&#xa9;" horiz-adv-x="1880" 
d="M940 -29q-164 0 -310.5 61.5t-251 167t-165.5 251.5t-61 309t61 309t165.5 251t251 166.5t310.5 61.5t311 -61.5t251.5 -166.5t165.5 -251t61 -309q0 -218 -103.5 -399t-285 -285.5t-400.5 -104.5zM940 129q174 0 316.5 84t222.5 228.5t80 318.5t-80 318.5t-222.5 228.5
t-316.5 84t-316 -84t-222 -228.5t-80 -318.5t80 -318.5t222 -228.5t316 -84zM1278 389q-123 -92 -307 -92q-213 0 -339 123.5t-126 337.5q0 217 128.5 340t344.5 123q176 0 287 -82l-47 -226q-81 84 -215 84q-111 0 -171.5 -64t-60.5 -173q0 -113 63 -176.5t169 -63.5
q134 0 223 86z" />
    <glyph glyph-name="ordfeminine" unicode="&#xaa;" horiz-adv-x="956" 
d="M588 731l-2 92q-80 -108 -230 -108q-119 0 -189.5 65.5t-70.5 182.5q0 262 393 262h86v20q0 48 -30.5 71t-104.5 23q-142 0 -256 -71l-41 202q125 78 336 78q191 0 277 -73t86 -209v-535h-254zM442 913q93 0 133 74v90h-53q-170 0 -170 -88q0 -36 23 -56t67 -20zM115 391
v227h727v-227h-727z" />
    <glyph glyph-name="guillemotleft" unicode="&#xab;" horiz-adv-x="1476" 
d="M1323 223l-233 -162l-408 510v21l408 510l233 -162l-297 -358zM776 223l-233 -162l-408 510v21l408 510l233 -162l-297 -358z" />
    <glyph glyph-name="logicalnot" unicode="&#xac;" 
d="M1167 762v-612h-268v344h-776v268h1044z" />
    <glyph glyph-name="registered" unicode="&#xae;" horiz-adv-x="1353" 
d="M678 578q-164 0 -299.5 77.5t-212 211t-76.5 294.5q0 159 76.5 293t212 212.5t299.5 78.5t299 -78.5t211 -212.5t76 -293q0 -161 -76 -294.5t-211 -211t-299 -77.5zM678 713q188 0 314 129t126 319t-126 319.5t-314 129.5q-189 0 -314.5 -129.5t-125.5 -319.5t125.5 -319
t314.5 -129zM594 1040v-184h-174v619h266q127 0 193.5 -54.5t66.5 -158.5q0 -136 -115 -191l158 -215h-213l-117 184h-65zM594 1335v-159h82q88 0 88 81q0 78 -96 78h-74z" />
    <glyph glyph-name="macron" unicode="&#xaf;" horiz-adv-x="1024" 
d="M145 1319v219h734v-219h-734z" />
    <glyph glyph-name="degree" unicode="&#xb0;" horiz-adv-x="921" 
d="M461 838q-169 0 -280 111.5t-111 275.5t111 276.5t280 112.5t280 -112.5t111 -276.5t-111 -275.5t-280 -111.5zM461 1038q81 0 128.5 51t47.5 136q0 87 -47 137.5t-129 50.5q-83 0 -129.5 -50.5t-46.5 -137.5q0 -86 47 -136.5t129 -50.5z" />
    <glyph glyph-name="plusminus" unicode="&#xb1;" 
d="M1171 756h-391v-396h-270v396h-391v270h391v395h270v-395h391v-270zM119 0v268h1052v-268h-1052z" />
    <glyph glyph-name="two.sups" unicode="&#xb2;" horiz-adv-x="813" 
d="M745 1055v-215h-677v204l243 189q87 67 123.5 109.5t36.5 91.5q0 44 -30 71t-81 27q-57 0 -110 -33.5t-92 -87.5l-99 186q56 68 149 109t204 41q148 0 236.5 -74t88.5 -209q0 -78 -31.5 -139t-87.5 -109t-157 -110l-84 -51h368z" />
    <glyph glyph-name="three.sups" unicode="&#xb3;" horiz-adv-x="800" 
d="M750 1092q0 -130 -102 -201.5t-277 -71.5q-200 0 -326 78l41 219q109 -84 248 -84q70 0 109.5 23t39.5 65q0 38 -43.5 58t-152.5 20h-107v176h99q90 0 137 23.5t47 62.5q0 34 -33.5 54t-87.5 20q-117 0 -217 -76l-72 193q134 96 342 96q158 0 245 -60.5t87 -173.5
q0 -79 -45 -133t-129 -77q197 -40 197 -211z" />
    <glyph glyph-name="acute" unicode="&#xb4;" horiz-adv-x="1024" 
d="M545 1239l-209 51l239 428l308 -78z" />
    <glyph glyph-name="uni00B5" unicode="&#xb5;" horiz-adv-x="1396" 
d="M610 -25q-97 0 -170 48l31 -457h-332v1556h336v-659q0 -201 164 -201q83 0 138 45.5t83 114.5v700h336v-727q0 -74 21 -102.5t71 -28.5q40 0 80 15v-275q-74 -20 -184 -20q-226 0 -285 155q-104 -164 -289 -164z" />
    <glyph glyph-name="paragraph" unicode="&#xb6;" horiz-adv-x="1400" 
d="M819 1346v-1678h-188v811q-257 11 -401 141.5t-144 378.5q0 244 151.5 382.5t405.5 138.5h565v-1852h-188v1678h-201z" />
    <glyph glyph-name="periodcentered" unicode="&#xb7;" horiz-adv-x="665" 
d="M137 428v403h393v-403h-393z" />
    <glyph glyph-name="cedilla" unicode="&#xb8;" horiz-adv-x="1024" 
d="M786 -276q0 -107 -79 -171.5t-242 -64.5q-135 0 -240 39l49 203q91 -43 193 -43q96 0 96 55q0 31 -41 50t-164 42l76 178h139l-32 -65q75 -19 125 -44t75.5 -55t35 -59t9.5 -65z" />
    <glyph glyph-name="one.sups" unicode="&#xb9;" horiz-adv-x="665" 
d="M524 1720v-880h-248v602q-64 -48 -159 -96l-105 176q174 80 297 198h215z" />
    <glyph glyph-name="ordmasculine" unicode="&#xba;" horiz-adv-x="956" 
d="M479 715q-184 0 -296.5 108t-112.5 307q0 200 112.5 309t296.5 109q183 0 295.5 -109t112.5 -309q0 -198 -112.5 -306.5t-295.5 -108.5zM479 934q63 0 99 50.5t36 145.5t-36 147t-99 52q-64 0 -100.5 -52t-36.5 -147q0 -94 36.5 -145t100.5 -51zM115 391v227h727v-227
h-727z" />
    <glyph glyph-name="guillemotright" unicode="&#xbb;" horiz-adv-x="1476" 
d="M1341 571l-407 -510l-234 162l297 359l-297 358l234 162l407 -510v-21zM795 571l-408 -510l-233 162l297 359l-297 358l233 162l408 -510v-21z" />
    <glyph glyph-name="onequarter" unicode="&#xbc;" horiz-adv-x="1769" 
d="M524 1520v-881h-248v602q-64 -48 -159 -96l-105 176q172 79 297 199h215zM193 0l1085 1520h264l-1085 -1520h-264zM1726 160h-114v-164h-242v164h-412v202l394 531h260v-537h114v-196zM1169 356h201v271z" />
    <glyph glyph-name="onehalf" unicode="&#xbd;" horiz-adv-x="1867" 
d="M524 1520v-881h-248v602q-64 -48 -159 -96l-105 176q172 79 297 199h215zM193 0l1085 1520h264l-1085 -1520h-264zM1800 215v-215h-678v205l244 188q87 67 123.5 109.5t36.5 91.5q0 44 -30 71t-81 27q-57 0 -110.5 -33.5t-92.5 -87.5l-98 187q56 68 148.5 108.5
t203.5 40.5q148 0 237 -73.5t89 -208.5q0 -113 -64 -190.5t-212 -168.5l-84 -51h368z" />
    <glyph glyph-name="threequarters" unicode="&#xbe;" horiz-adv-x="1871" 
d="M750 891q0 -130 -102 -201.5t-277 -71.5q-200 0 -326 78l41 219q109 -84 248 -84q70 0 109.5 23.5t39.5 65.5q0 38 -43.5 57.5t-152.5 19.5h-107v177h99q90 0 137 23.5t47 62.5q0 33 -33.5 53t-87.5 20q-117 0 -217 -76l-72 193q134 96 342 96q158 0 245 -60t87 -173
q0 -79 -45 -133.5t-129 -77.5q197 -40 197 -211zM295 0l1085 1520h265l-1086 -1520h-264zM1829 160h-115v-164h-241v164h-412v202l393 531h260v-537h115v-196zM1272 356h201v271z" />
    <glyph glyph-name="questiondown" unicode="&#xbf;" horiz-adv-x="1181" 
d="M874 1122v-313h-368v313h368zM852 668v-86q0 -61 -14.5 -111.5t-34 -82.5t-54.5 -62t-60.5 -45t-67.5 -37q-33 -17 -50.5 -27.5t-42.5 -29t-37.5 -36t-22 -44t-9.5 -58.5q0 -87 58.5 -127.5t146.5 -40.5q188 0 319 187l141 -273q-192 -221 -520 -221q-112 0 -206 27.5
t-165.5 80.5t-112 139t-40.5 197q0 50 9 94.5t21.5 76.5t37 63t43.5 50t54 42.5t54.5 35t58.5 32.5q45 25 67.5 39.5t51.5 39t41 52.5t12 63v62h322z" />
    <glyph glyph-name="Agrave" unicode="&#xc0;" horiz-adv-x="1574" 
d="M850 1622l-455 276l299 148l348 -330zM1167 0l-100 315h-569l-101 -315h-385l549 1520h453l549 -1520h-396zM590 602h385l-193 608z" />
    <glyph glyph-name="Aacute" unicode="&#xc1;" horiz-adv-x="1574" 
d="M723 1622l-193 94l349 330l299 -148zM1167 0l-100 315h-569l-101 -315h-385l549 1520h453l549 -1520h-396zM590 602h385l-193 608z" />
    <glyph glyph-name="Acircumflex" unicode="&#xc2;" horiz-adv-x="1574" 
d="M1245 1665l-299 -35l-160 205l-159 -205l-299 35l321 344h275zM1167 0l-100 315h-569l-101 -315h-385l549 1520h453l549 -1520h-396zM590 602h385l-193 608z" />
    <glyph glyph-name="Atilde" unicode="&#xc3;" horiz-adv-x="1574" 
d="M537 1624l-230 16q0 178 76.5 265.5t200.5 87.5q106 0 235 -74q49 -29 76.5 -40t54.5 -11q86 0 86 137l230 -16q0 -178 -76.5 -265.5t-200.5 -87.5q-106 0 -235 74q-90 51 -131 51q-86 0 -86 -137zM1167 0l-100 315h-569l-101 -315h-385l549 1520h453l549 -1520h-396z
M590 602h385l-193 608z" />
    <glyph glyph-name="Adieresis" unicode="&#xc4;" horiz-adv-x="1574" 
d="M893 1671v287h299v-287h-299zM381 1671v287h299v-287h-299zM1167 0l-100 315h-569l-101 -315h-385l549 1520h453l549 -1520h-396zM590 602h385l-193 608z" />
    <glyph glyph-name="Aring" unicode="&#xc5;" horiz-adv-x="1574" 
d="M1167 0l-100 315h-569l-101 -315h-385l549 1520h68q-67 37 -106.5 103t-39.5 144q0 123 86 206t217 83t217.5 -83.5t86.5 -205.5q0 -78 -39.5 -144t-106.5 -103h70l549 -1520h-396zM786 1651q55 0 88 31.5t33 84.5t-33 85t-88 32t-87.5 -32t-32.5 -85t32.5 -84.5
t87.5 -31.5zM590 602h385l-193 608z" />
    <glyph glyph-name="AE" unicode="&#xc6;" horiz-adv-x="2207" 
d="M1047 0v377h-547l-199 -377h-399l839 1520h1348v-295h-705v-297h623v-289h-623v-340h721v-299h-1058zM1047 1231h-97l-297 -565h394v565z" />
    <glyph glyph-name="Ccedilla" unicode="&#xc7;" horiz-adv-x="1435" 
d="M1094 -276q0 -107 -79.5 -171.5t-242.5 -64.5q-135 0 -240 39l50 203q91 -43 192 -43q96 0 96 55q0 31 -41 50t-163 42l61 146q-299 37 -468 241.5t-169 538.5q0 249 95.5 427.5t269 269.5t409.5 91q290 0 475 -139l-69 -324q-155 152 -375 152q-204 0 -316 -126
t-112 -349q0 -232 117.5 -355.5t310.5 -123.5q122 0 223 44t170 111l72 -311q-197 -156 -500 -156l-12 -24q75 -19 125.5 -44t75.5 -55t35 -59t10 -65z" />
    <glyph glyph-name="Egrave" unicode="&#xc8;" horiz-adv-x="1335" 
d="M754 1622l-455 276l299 148l348 -330zM1233 299v-299h-1073v1520h1057v-295h-705v-297h623v-289h-623v-340h721z" />
    <glyph glyph-name="Eacute" unicode="&#xc9;" horiz-adv-x="1335" 
d="M627 1622l-193 94l348 330l299 -148zM1233 299v-299h-1073v1520h1057v-295h-705v-297h623v-289h-623v-340h721z" />
    <glyph glyph-name="Ecircumflex" unicode="&#xca;" horiz-adv-x="1335" 
d="M1149 1665l-299 -35l-160 205l-160 -205l-299 35l322 344h274zM1233 299v-299h-1073v1520h1057v-295h-705v-297h623v-289h-623v-340h721z" />
    <glyph glyph-name="Edieresis" unicode="&#xcb;" horiz-adv-x="1335" 
d="M797 1671v287h299v-287h-299zM285 1671v287h299v-287h-299zM1233 299v-299h-1073v1520h1057v-295h-705v-297h623v-289h-623v-340h721z" />
    <glyph glyph-name="Igrave" unicode="&#xcc;" horiz-adv-x="671" 
d="M399 1622l-454 276l299 148l348 -330zM160 0v1520h352v-1520h-352z" />
    <glyph glyph-name="Iacute" unicode="&#xcd;" horiz-adv-x="671" 
d="M272 1622l-192 94l348 330l299 -148zM160 0v1520h352v-1520h-352z" />
    <glyph glyph-name="Icircumflex" unicode="&#xce;" horiz-adv-x="671" 
d="M795 1665l-299 -35l-160 205l-160 -205l-299 35l322 344h274zM160 0v1520h352v-1520h-352z" />
    <glyph glyph-name="Idieresis" unicode="&#xcf;" horiz-adv-x="671" 
d="M442 1671v287h299v-287h-299zM-70 1671v287h299v-287h-299zM160 0v1520h352v-1520h-352z" />
    <glyph glyph-name="Eth" unicode="&#xd0;" horiz-adv-x="1628" 
d="M1538 760q0 -382 -207.5 -571t-587.5 -189h-550v651h-166v267h166v602h550q172 0 307.5 -37.5t226 -104.5t150 -163.5t85.5 -208.5t26 -246zM844 651h-299v-358h184q216 0 324 113t108 354q0 84 -13.5 153t-45 128.5t-81 100t-124 63t-170.5 22.5h-182v-309h299v-267z
" />
    <glyph glyph-name="Ntilde" unicode="&#xd1;" horiz-adv-x="1646" 
d="M573 1624l-229 16q0 178 76.5 265.5t200.5 87.5q113 0 235 -74q84 -51 131 -51q86 0 86 137l230 -16q0 -178 -76.5 -265.5t-200.5 -87.5q-103 0 -235 74q-87 51 -132 51q-86 0 -86 -137zM1147 0l-653 965v-965h-334v1520h342l651 -963v963h334v-1520h-340z" />
    <glyph glyph-name="Ograve" unicode="&#xd2;" horiz-adv-x="1654" 
d="M891 1622l-455 276l299 148l348 -330zM827 -29q-334 0 -535.5 211.5t-201.5 577.5t201.5 577t535.5 211t536 -211t202 -577t-202 -577.5t-536 -211.5zM827 283q169 0 265 126t96 351q0 224 -96 350.5t-265 126.5t-264.5 -126t-95.5 -351q0 -224 95.5 -350.5t264.5 -126.5
z" />
    <glyph glyph-name="Oacute" unicode="&#xd3;" horiz-adv-x="1654" 
d="M764 1622l-193 94l349 330l299 -148zM827 -29q-334 0 -535.5 211.5t-201.5 577.5t201.5 577t535.5 211t536 -211t202 -577t-202 -577.5t-536 -211.5zM827 283q169 0 265 126t96 351q0 224 -96 350.5t-265 126.5t-264.5 -126t-95.5 -351q0 -224 95.5 -350.5t264.5 -126.5z
" />
    <glyph glyph-name="Ocircumflex" unicode="&#xd4;" horiz-adv-x="1654" 
d="M1286 1665l-299 -35l-160 205l-159 -205l-299 35l321 344h275zM827 -29q-334 0 -535.5 211.5t-201.5 577.5t201.5 577t535.5 211t536 -211t202 -577t-202 -577.5t-536 -211.5zM827 283q169 0 265 126t96 351q0 224 -96 350.5t-265 126.5t-264.5 -126t-95.5 -351
q0 -224 95.5 -350.5t264.5 -126.5z" />
    <glyph glyph-name="Otilde" unicode="&#xd5;" horiz-adv-x="1654" 
d="M578 1624l-230 16q0 178 76.5 265.5t200.5 87.5q114 0 235 -74q81 -51 131 -51q86 0 86 137l230 -16q0 -178 -76.5 -265.5t-200.5 -87.5q-106 0 -235 74q-87 51 -131 51q-86 0 -86 -137zM827 -29q-334 0 -535.5 211.5t-201.5 577.5t201.5 577t535.5 211t536 -211
t202 -577t-202 -577.5t-536 -211.5zM827 283q169 0 265 126t96 351q0 224 -96 350.5t-265 126.5t-264.5 -126t-95.5 -351q0 -224 95.5 -350.5t264.5 -126.5z" />
    <glyph glyph-name="Odieresis" unicode="&#xd6;" horiz-adv-x="1654" 
d="M934 1671v287h299v-287h-299zM422 1671v287h299v-287h-299zM827 -29q-334 0 -535.5 211.5t-201.5 577.5t201.5 577t535.5 211t536 -211t202 -577t-202 -577.5t-536 -211.5zM827 283q169 0 265 126t96 351q0 224 -96 350.5t-265 126.5t-264.5 -126t-95.5 -351
q0 -224 95.5 -350.5t264.5 -126.5z" />
    <glyph glyph-name="multiply" unicode="&#xd7;" 
d="M1200 264l-192 -190l-363 366l-362 -366l-193 190l369 363l-369 362l193 193l362 -369l363 369l192 -193l-369 -362z" />
    <glyph glyph-name="Oslash" unicode="&#xd8;" horiz-adv-x="1654" 
d="M827 -29q-235 0 -409 109l-129 -170l-170 70l164 213q-193 212 -193 567q0 366 201.5 577t535.5 211q237 0 410 -108l129 170l170 -70l-164 -213q193 -212 193 -567q0 -366 -202 -577.5t-536 -211.5zM467 760q0 -155 47 -264l518 675q-84 66 -205 66q-169 0 -264.5 -126
t-95.5 -351zM1188 760q0 155 -47 264l-518 -676q83 -65 204 -65q169 0 265 126t96 351z" />
    <glyph glyph-name="Ugrave" unicode="&#xd9;" horiz-adv-x="1576" 
d="M852 1622l-455 276l299 148l348 -330zM145 610v910h355v-906q0 -163 75.5 -247t217.5 -84t217 84t75 247v906h347v-910q0 -313 -164 -476t-484 -163q-319 0 -479 162.5t-160 476.5z" />
    <glyph glyph-name="Uacute" unicode="&#xda;" horiz-adv-x="1576" 
d="M725 1622l-193 94l349 330l299 -148zM145 610v910h355v-906q0 -163 75.5 -247t217.5 -84t217 84t75 247v906h347v-910q0 -313 -164 -476t-484 -163q-319 0 -479 162.5t-160 476.5z" />
    <glyph glyph-name="Ucircumflex" unicode="&#xdb;" horiz-adv-x="1576" 
d="M1247 1665l-299 -35l-160 205l-159 -205l-299 35l321 344h275zM145 610v910h355v-906q0 -163 75.5 -247t217.5 -84t217 84t75 247v906h347v-910q0 -313 -164 -476t-484 -163q-319 0 -479 162.5t-160 476.5z" />
    <glyph glyph-name="Udieresis" unicode="&#xdc;" horiz-adv-x="1576" 
d="M895 1671v287h299v-287h-299zM383 1671v287h299v-287h-299zM145 610v910h355v-906q0 -163 75.5 -247t217.5 -84t217 84t75 247v906h347v-910q0 -313 -164 -476t-484 -163q-319 0 -479 162.5t-160 476.5z" />
    <glyph glyph-name="Yacute" unicode="&#xdd;" horiz-adv-x="1413" 
d="M643 1622l-192 94l348 330l299 -148zM1421 1520l-538 -973v-547h-355v543l-536 977h414l307 -646l307 646h401z" />
    <glyph glyph-name="Thorn" unicode="&#xde;" horiz-adv-x="1388" 
d="M512 287v-287h-352v1520h352v-230h242q286 0 433.5 -126.5t147.5 -370.5q0 -116 -34 -206t-89.5 -145.5t-134.5 -91.5t-159.5 -49.5t-172.5 -13.5h-233zM719 999h-207v-424h203q256 0 256 211q0 213 -252 213z" />
    <glyph glyph-name="germandbls" unicode="&#xdf;" horiz-adv-x="1361" 
d="M1298 432q0 -206 -128 -331.5t-347 -125.5q-142 0 -254 45l41 275q79 -47 166 -47q88 0 136.5 55t48.5 150q0 254 -343 282v232q240 17 240 202q0 84 -47.5 130.5t-134.5 46.5q-209 0 -209 -283v-1063h-336v1085q0 246 139.5 387.5t415.5 141.5q240 0 373 -106.5
t133 -288.5q0 -128 -70.5 -214.5t-193.5 -119.5q184 -49 277 -166.5t93 -286.5z" />
    <glyph glyph-name="agrave" unicode="&#xe0;" horiz-adv-x="1230" 
d="M590 1239l-338 401l307 78l240 -428zM786 0l-4 135q-129 -160 -344 -160q-168 0 -266 92t-98 259q0 189 137.5 281.5t421.5 92.5h137v27q0 81 -46.5 119.5t-164.5 38.5q-203 0 -364 -111l-54 262q181 111 467 111q263 0 380.5 -103.5t117.5 -298.5v-745h-320zM547 229
q77 0 135.5 35t87.5 92v148h-90q-146 0 -213.5 -35t-67.5 -113q0 -63 38.5 -95t109.5 -32z" />
    <glyph glyph-name="aacute" unicode="&#xe1;" horiz-adv-x="1230" 
d="M655 1239l-209 51l240 428l307 -78zM786 0l-4 135q-129 -160 -344 -160q-168 0 -266 92t-98 259q0 189 137.5 281.5t421.5 92.5h137v27q0 81 -46.5 119.5t-164.5 38.5q-203 0 -364 -111l-54 262q181 111 467 111q263 0 380.5 -103.5t117.5 -298.5v-745h-320zM547 229
q77 0 135.5 35t87.5 92v148h-90q-146 0 -213.5 -35t-67.5 -113q0 -63 38.5 -95t109.5 -32z" />
    <glyph glyph-name="acircumflex" unicode="&#xe2;" horiz-adv-x="1230" 
d="M1055 1284l-277 -35l-155 271l-156 -271l-277 35l295 416h275zM786 0l-4 135q-129 -160 -344 -160q-168 0 -266 92t-98 259q0 189 137.5 281.5t421.5 92.5h137v27q0 81 -46.5 119.5t-164.5 38.5q-203 0 -364 -111l-54 262q181 111 467 111q263 0 380.5 -103.5
t117.5 -298.5v-745h-320zM547 229q77 0 135.5 35t87.5 92v148h-90q-146 0 -213.5 -35t-67.5 -113q0 -63 38.5 -95t109.5 -32z" />
    <glyph glyph-name="atilde" unicode="&#xe3;" horiz-adv-x="1230" 
d="M389 1257l-229 17q0 177 73 264.5t193 87.5q103 0 229 -74q84 -51 123 -51q78 0 78 137l229 -16q0 -179 -73 -265.5t-193 -86.5q-99 0 -229 73q-85 50 -123 50q-78 0 -78 -136zM786 0l-4 135q-129 -160 -344 -160q-168 0 -266 92t-98 259q0 189 137.5 281.5t421.5 92.5
h137v27q0 81 -46.5 119.5t-164.5 38.5q-203 0 -364 -111l-54 262q181 111 467 111q263 0 380.5 -103.5t117.5 -298.5v-745h-320zM547 229q77 0 135.5 35t87.5 92v148h-90q-146 0 -213.5 -35t-67.5 -113q0 -63 38.5 -95t109.5 -32z" />
    <glyph glyph-name="adieresis" unicode="&#xe4;" horiz-adv-x="1230" 
d="M719 1286v285h299v-285h-299zM227 1286v285h299v-285h-299zM786 0l-4 135q-129 -160 -344 -160q-168 0 -266 92t-98 259q0 189 137.5 281.5t421.5 92.5h137v27q0 81 -46.5 119.5t-164.5 38.5q-203 0 -364 -111l-54 262q181 111 467 111q263 0 380.5 -103.5t117.5 -298.5
v-745h-320zM547 229q77 0 135.5 35t87.5 92v148h-90q-146 0 -213.5 -35t-67.5 -113q0 -63 38.5 -95t109.5 -32z" />
    <glyph glyph-name="aring" unicode="&#xe5;" horiz-adv-x="1230" 
d="M623 1204q-131 0 -217.5 83t-86.5 204q0 122 86.5 205.5t217.5 83.5t217 -83t86 -206q0 -121 -86 -204t-217 -83zM623 1374q55 0 87.5 32t32.5 85t-32.5 86t-87.5 33t-88 -33t-33 -86t33 -85t88 -32zM786 0l-4 135q-129 -160 -344 -160q-168 0 -266 92t-98 259
q0 189 137.5 281.5t421.5 92.5h137v27q0 81 -46.5 119.5t-164.5 38.5q-203 0 -364 -111l-54 262q181 111 467 111q263 0 380.5 -103.5t117.5 -298.5v-745h-320zM547 229q77 0 135.5 35t87.5 92v148h-90q-146 0 -213.5 -35t-67.5 -113q0 -63 38.5 -95t109.5 -32z" />
    <glyph glyph-name="ae" unicode="&#xe6;" horiz-adv-x="1921" 
d="M1829 90q-193 -115 -463 -115q-308 0 -457 175q-165 -175 -430 -175q-195 0 -300 91.5t-105 255.5q0 182 134 273t425 91h149v41q0 79 -50.5 118.5t-168.5 39.5q-210 0 -368 -111l-54 262q181 111 465 111q264 0 357 -125q137 125 360 125q114 0 204 -29t148.5 -79
t97 -120.5t54.5 -148t16 -166.5v-133h-745q19 -229 309 -229q202 0 369 110zM1329 905q-95 0 -158.5 -58.5t-72.5 -170.5h424v16q0 92 -45.5 152.5t-147.5 60.5zM555 229q82 0 147 34.5t101 94.5q-16 63 -19 127h-104q-152 0 -216.5 -32t-64.5 -101q0 -123 156 -123z" />
    <glyph glyph-name="ccedilla" unicode="&#xe7;" horiz-adv-x="1085" 
d="M872 -276q0 -107 -79 -171.5t-242 -64.5q-135 0 -240 39l49 203q91 -43 193 -43q96 0 96 55q0 31 -41 50t-164 42l64 152q-207 34 -323.5 183t-116.5 386q0 277 156.5 434.5t422.5 157.5q121 0 217.5 -32.5t159.5 -82.5l-68 -268q-44 48 -113 78t-151 30
q-133 0 -206.5 -82t-73.5 -227q0 -148 75 -230.5t211 -82.5q150 0 273 110l61 -266q-66 -50 -168 -84.5t-223 -34.5l-14 -28q75 -19 125 -44t75.5 -55t35 -59t9.5 -65z" />
    <glyph glyph-name="egrave" unicode="&#xe8;" horiz-adv-x="1241" 
d="M608 1239l-338 401l308 78l239 -428zM1149 90q-190 -115 -465 -115q-304 0 -460 149t-156 427q0 281 151.5 438.5t419.5 157.5q115 0 206 -29t149.5 -79t97.5 -120.5t55 -147.5t16 -167v-139h-753q13 -108 87 -165.5t226 -57.5q203 0 373 110zM645 905q-98 0 -163 -60
t-72 -175h432v18q0 45 -10 82t-31.5 68.5t-61 49t-94.5 17.5z" />
    <glyph glyph-name="eacute" unicode="&#xe9;" horiz-adv-x="1241" 
d="M674 1239l-209 51l240 428l307 -78zM1149 90q-190 -115 -465 -115q-304 0 -460 149t-156 427q0 281 151.5 438.5t419.5 157.5q115 0 206 -29t149.5 -79t97.5 -120.5t55 -147.5t16 -167v-139h-753q13 -108 87 -165.5t226 -57.5q203 0 373 110zM645 905q-98 0 -163 -60
t-72 -175h432v18q0 45 -10 82t-31.5 68.5t-61 49t-94.5 17.5z" />
    <glyph glyph-name="ecircumflex" unicode="&#xea;" horiz-adv-x="1241" 
d="M1073 1284l-276 -35l-156 271l-156 -271l-276 35l295 416h274zM1149 90q-190 -115 -465 -115q-304 0 -460 149t-156 427q0 281 151.5 438.5t419.5 157.5q115 0 206 -29t149.5 -79t97.5 -120.5t55 -147.5t16 -167v-139h-753q13 -108 87 -165.5t226 -57.5q203 0 373 110z
M645 905q-98 0 -163 -60t-72 -175h432v18q0 45 -10 82t-31.5 68.5t-61 49t-94.5 17.5z" />
    <glyph glyph-name="edieresis" unicode="&#xeb;" horiz-adv-x="1241" 
d="M737 1286v285h299v-285h-299zM246 1286v285h299v-285h-299zM1149 90q-190 -115 -465 -115q-304 0 -460 149t-156 427q0 281 151.5 438.5t419.5 157.5q115 0 206 -29t149.5 -79t97.5 -120.5t55 -147.5t16 -167v-139h-753q13 -108 87 -165.5t226 -57.5q203 0 373 110z
M645 905q-98 0 -163 -60t-72 -175h432v18q0 45 -10 82t-31.5 68.5t-61 49t-94.5 17.5z" />
    <glyph glyph-name="igrave" unicode="&#xec;" horiz-adv-x="612" 
d="M283 1239l-338 401l307 78l240 -428zM139 0v1122h336v-1122h-336z" />
    <glyph glyph-name="iacute" unicode="&#xed;" horiz-adv-x="612" 
d="M330 1239l-209 51l239 428l308 -78zM139 0v1122h336v-1122h-336z" />
    <glyph glyph-name="icircumflex" unicode="&#xee;" horiz-adv-x="626" 
d="M696 1284l-256 -35l-127 271l-127 -271l-256 35l252 416h264zM147 0v1122h336v-1122h-336z" />
    <glyph glyph-name="idieresis" unicode="&#xef;" horiz-adv-x="626" 
d="M385 1286v285h287v-285h-287zM-45 1286v285h287v-285h-287zM147 0v1122h336v-1122h-336z" />
    <glyph glyph-name="eth" unicode="&#xf0;" horiz-adv-x="1282" 
d="M1208 604q0 -134 -29 -240.5t-80.5 -178.5t-124 -120t-156 -69t-181.5 -21q-141 0 -251 43.5t-178.5 120t-104 177.5t-35.5 219q0 127 39.5 229.5t107 168.5t155.5 101t187 35q175 0 285 -117q-74 154 -207 287l-254 -121l-111 125l232 111q-119 90 -256 166l332 122
q115 -78 202 -157l254 121l111 -123l-244 -117q307 -332 307 -762zM412 541q0 -135 61 -214t172 -79q108 0 172 80.5t64 249.5q0 44 -11 108q-68 135 -223 135q-109 0 -172 -70.5t-63 -209.5z" />
    <glyph glyph-name="ntilde" unicode="&#xf1;" horiz-adv-x="1310" 
d="M422 1257l-229 17q0 177 73 264.5t193 87.5q102 0 229 -74q84 -51 123 -51q78 0 78 137l229 -16q0 -179 -73 -265.5t-193 -86.5q-62 0 -114.5 19t-114.5 54q-84 50 -123 50q-78 0 -78 -136zM467 705v-705h-336v1122h320l4 -170q129 195 358 195q179 0 277 -109.5
t98 -308.5v-729h-336v659q0 201 -162 201q-74 0 -133 -41t-90 -114z" />
    <glyph glyph-name="ograve" unicode="&#xf2;" horiz-adv-x="1277" 
d="M606 1239l-338 401l307 78l240 -428zM639 -25q-167 0 -294.5 65.5t-202 199.5t-74.5 321t74.5 321t202 199.5t294.5 65.5t294.5 -65.5t202 -199.5t74.5 -321t-74.5 -321t-202 -199.5t-294.5 -65.5zM639 248q107 0 168 81.5t61 231.5t-61 231.5t-168 81.5
q-106 0 -166.5 -81.5t-60.5 -231.5t60.5 -231.5t166.5 -81.5z" />
    <glyph glyph-name="oacute" unicode="&#xf3;" horiz-adv-x="1277" 
d="M672 1239l-209 51l239 428l308 -78zM639 -25q-167 0 -294.5 65.5t-202 199.5t-74.5 321t74.5 321t202 199.5t294.5 65.5t294.5 -65.5t202 -199.5t74.5 -321t-74.5 -321t-202 -199.5t-294.5 -65.5zM639 248q107 0 168 81.5t61 231.5t-61 231.5t-168 81.5
q-106 0 -166.5 -81.5t-60.5 -231.5t60.5 -231.5t166.5 -81.5z" />
    <glyph glyph-name="ocircumflex" unicode="&#xf4;" horiz-adv-x="1277" 
d="M1071 1284l-276 -35l-156 271l-156 -271l-276 35l295 416h274zM639 -25q-167 0 -294.5 65.5t-202 199.5t-74.5 321t74.5 321t202 199.5t294.5 65.5t294.5 -65.5t202 -199.5t74.5 -321t-74.5 -321t-202 -199.5t-294.5 -65.5zM639 248q107 0 168 81.5t61 231.5t-61 231.5
t-168 81.5q-106 0 -166.5 -81.5t-60.5 -231.5t60.5 -231.5t166.5 -81.5z" />
    <glyph glyph-name="otilde" unicode="&#xf5;" horiz-adv-x="1277" 
d="M406 1257l-230 17q0 177 73 264.5t193 87.5q111 0 230 -74q81 -51 123 -51q77 0 77 137l230 -16q0 -179 -73 -265.5t-193 -86.5q-63 0 -115 19t-115 54q-84 50 -123 50q-77 0 -77 -136zM639 -25q-167 0 -294.5 65.5t-202 199.5t-74.5 321t74.5 321t202 199.5t294.5 65.5
t294.5 -65.5t202 -199.5t74.5 -321t-74.5 -321t-202 -199.5t-294.5 -65.5zM639 248q107 0 168 81.5t61 231.5t-61 231.5t-168 81.5q-106 0 -166.5 -81.5t-60.5 -231.5t60.5 -231.5t166.5 -81.5z" />
    <glyph glyph-name="odieresis" unicode="&#xf6;" horiz-adv-x="1277" 
d="M735 1286v285h299v-285h-299zM244 1286v285h299v-285h-299zM639 -25q-167 0 -294.5 65.5t-202 199.5t-74.5 321t74.5 321t202 199.5t294.5 65.5t294.5 -65.5t202 -199.5t74.5 -321t-74.5 -321t-202 -199.5t-294.5 -65.5zM639 248q107 0 168 81.5t61 231.5t-61 231.5
t-168 81.5q-106 0 -166.5 -81.5t-60.5 -231.5t60.5 -231.5t166.5 -81.5z" />
    <glyph glyph-name="divide" unicode="&#xf7;" 
d="M444 1067q0 83 58 141t143 58q83 0 142 -58t59 -141q0 -84 -58.5 -142.5t-142.5 -58.5q-85 0 -143 58t-58 143zM102 500v256h1086v-256h-1086zM444 188q0 83 58 141t143 58t143 -58t58 -141q0 -85 -58 -142.5t-143 -57.5t-143 57.5t-58 142.5z" />
    <glyph glyph-name="oslash" unicode="&#xf8;" horiz-adv-x="1277" 
d="M639 -25q-168 0 -295 68l-123 -162l-149 66l145 190q-149 155 -149 424q0 187 74.5 321t202 199.5t294.5 65.5t297 -68l123 162l149 -65l-145 -193q147 -157 147 -422q0 -187 -74.5 -321t-202 -199.5t-294.5 -65.5zM412 561q0 -82 18 -143l326 424q-46 32 -117 32
q-106 0 -166.5 -81.5t-60.5 -231.5zM868 561q0 83 -18 144l-326 -426q51 -31 115 -31q107 0 168 81.5t61 231.5z" />
    <glyph glyph-name="ugrave" unicode="&#xf9;" horiz-adv-x="1310" 
d="M623 1239l-338 401l307 78l239 -428zM862 0l-4 170q-119 -195 -356 -195q-180 0 -278.5 109t-98.5 309v729h336v-659q0 -201 164 -201q83 0 138 45.5t83 114.5v700h336v-1122h-320z" />
    <glyph glyph-name="uacute" unicode="&#xfa;" horiz-adv-x="1310" 
d="M688 1239l-209 51l240 428l307 -78zM862 0l-4 170q-119 -195 -356 -195q-180 0 -278.5 109t-98.5 309v729h336v-659q0 -201 164 -201q83 0 138 45.5t83 114.5v700h336v-1122h-320z" />
    <glyph glyph-name="ucircumflex" unicode="&#xfb;" horiz-adv-x="1310" 
d="M1087 1284l-276 -35l-156 271l-155 -271l-277 35l295 416h275zM862 0l-4 170q-119 -195 -356 -195q-180 0 -278.5 109t-98.5 309v729h336v-659q0 -201 164 -201q83 0 138 45.5t83 114.5v700h336v-1122h-320z" />
    <glyph glyph-name="udieresis" unicode="&#xfc;" horiz-adv-x="1310" 
d="M752 1286v285h299v-285h-299zM260 1286v285h299v-285h-299zM862 0l-4 170q-119 -195 -356 -195q-180 0 -278.5 109t-98.5 309v729h336v-659q0 -201 164 -201q83 0 138 45.5t83 114.5v700h336v-1122h-320z" />
    <glyph glyph-name="yacute" unicode="&#xfd;" horiz-adv-x="1251" 
d="M668 1239l-209 51l239 428l308 -78zM825 12q-53 -144 -110 -238.5t-124.5 -148t-140 -75t-167.5 -21.5q-112 0 -213 33l26 278q79 -28 154 -28q79 0 124 34.5t87 124.5l-441 1151h381l240 -813l240 813h356z" />
    <glyph glyph-name="thorn" unicode="&#xfe;" horiz-adv-x="1345" 
d="M766 -25q-181 0 -299 115v-524h-336v2027h336v-610q138 164 346 164q210 0 336.5 -153t126.5 -421q0 -281 -139.5 -439.5t-370.5 -158.5zM467 340q32 -44 88 -68t121 -24q120 0 188 85t68 232q0 145 -64 220t-172 75q-72 0 -132 -32.5t-97 -92.5v-395z" />
    <glyph glyph-name="ydieresis" unicode="&#xff;" horiz-adv-x="1251" 
d="M731 1286v285h299v-285h-299zM240 1286v285h299v-285h-299zM825 12q-53 -144 -110 -238.5t-124.5 -148t-140 -75t-167.5 -21.5q-112 0 -213 33l26 278q79 -28 154 -28q79 0 124 34.5t87 124.5l-441 1151h381l240 -813l240 813h356z" />
    <glyph glyph-name="Amacron" unicode="&#x100;" horiz-adv-x="1574" 
d="M387 1704v221h799v-221h-799zM1167 0l-100 315h-569l-101 -315h-385l549 1520h453l549 -1520h-396zM590 602h385l-193 608z" />
    <glyph glyph-name="amacron" unicode="&#x101;" horiz-adv-x="1230" 
d="M256 1319v219h733v-219h-733zM786 0l-4 135q-129 -160 -344 -160q-168 0 -266 92t-98 259q0 189 137.5 281.5t421.5 92.5h137v27q0 81 -46.5 119.5t-164.5 38.5q-203 0 -364 -111l-54 262q181 111 467 111q263 0 380.5 -103.5t117.5 -298.5v-745h-320zM547 229
q77 0 135.5 35t87.5 92v148h-90q-146 0 -213.5 -35t-67.5 -113q0 -63 38.5 -95t109.5 -32z" />
    <glyph glyph-name="Abreve" unicode="&#x102;" horiz-adv-x="1574" 
d="M379 1985l246 14q4 -83 45.5 -125.5t115.5 -42.5t116 42.5t46 125.5l246 -14q-7 -174 -119.5 -266.5t-288.5 -92.5t-288 92.5t-119 266.5zM1167 0l-100 315h-569l-101 -315h-385l549 1520h453l549 -1520h-396zM590 602h385l-193 608z" />
    <glyph glyph-name="abreve" unicode="&#x103;" horiz-adv-x="1230" 
d="M215 1647l248 12q3 -101 44.5 -151t115.5 -50t115 50t44 151l248 -12q-7 -191 -119.5 -294.5t-287.5 -103.5t-288 103.5t-120 294.5zM786 0l-4 135q-129 -160 -344 -160q-168 0 -266 92t-98 259q0 189 137.5 281.5t421.5 92.5h137v27q0 81 -46.5 119.5t-164.5 38.5
q-203 0 -364 -111l-54 262q181 111 467 111q263 0 380.5 -103.5t117.5 -298.5v-745h-320zM547 229q77 0 135.5 35t87.5 92v148h-90q-146 0 -213.5 -35t-67.5 -113q0 -63 38.5 -95t109.5 -32z" />
    <glyph glyph-name="Aogonek" unicode="&#x104;" horiz-adv-x="1574" 
d="M983 -285q0 87 46 154t138 131l-100 315h-569l-101 -315h-385l549 1520h453l549 -1520h-123q-223 -75 -223 -201q0 -43 26.5 -68.5t81.5 -25.5q72 0 139 45l45 -199q-104 -63 -245 -63q-137 0 -209 60.5t-72 166.5zM590 602h385l-193 608z" />
    <glyph glyph-name="aogonek" unicode="&#x105;" horiz-adv-x="1230" 
d="M1108 -449q-104 -63 -246 -63q-137 0 -208.5 60.5t-71.5 166.5q0 88 49.5 159t154.5 132l-4 129q-129 -160 -344 -160q-168 0 -266 92t-98 259q0 189 137.5 281.5t421.5 92.5h137v27q0 81 -46.5 119.5t-164.5 38.5q-203 0 -364 -111l-54 262q181 111 467 111
q263 0 380.5 -103.5t117.5 -298.5v-745h-64q-227 -77 -227 -201q0 -43 27 -68.5t82 -25.5q72 0 139 45zM547 229q77 0 135.5 35t87.5 92v148h-90q-146 0 -213.5 -35t-67.5 -113q0 -63 38.5 -95t109.5 -32z" />
    <glyph glyph-name="Cacute" unicode="&#x106;" horiz-adv-x="1435" 
d="M756 1622l-193 94l348 330l299 -148zM1360 127q-197 -156 -504 -156q-355 0 -560.5 209.5t-205.5 579.5q0 249 95.5 427.5t269 269.5t409.5 91q290 0 475 -139l-69 -324q-155 152 -375 152q-204 0 -316 -126t-112 -349q0 -232 117.5 -355.5t310.5 -123.5q122 0 223 44
t170 111z" />
    <glyph glyph-name="cacute" unicode="&#x107;" horiz-adv-x="1085" 
d="M637 1239l-209 51l240 428l307 -78zM1032 94q-67 -50 -170 -84.5t-229 -34.5q-264 0 -414.5 153.5t-150.5 426.5q0 277 156.5 434.5t422.5 157.5q121 0 217.5 -32.5t159.5 -82.5l-68 -268q-44 48 -113 78t-151 30q-133 0 -206.5 -82t-73.5 -227q0 -148 75 -230.5
t211 -82.5q150 0 273 110z" />
    <glyph glyph-name="Ccircumflex" unicode="&#x108;" horiz-adv-x="1435" 
d="M1278 1665l-299 -35l-160 205l-160 -205l-299 35l322 344h274zM1360 127q-197 -156 -504 -156q-355 0 -560.5 209.5t-205.5 579.5q0 249 95.5 427.5t269 269.5t409.5 91q290 0 475 -139l-69 -324q-155 152 -375 152q-204 0 -316 -126t-112 -349q0 -232 117.5 -355.5
t310.5 -123.5q122 0 223 44t170 111z" />
    <glyph glyph-name="ccircumflex" unicode="&#x109;" horiz-adv-x="1085" 
d="M1049 1284l-277 -35l-156 271l-155 -271l-277 35l295 416h275zM1032 94q-67 -50 -170 -84.5t-229 -34.5q-264 0 -414.5 153.5t-150.5 426.5q0 277 156.5 434.5t422.5 157.5q121 0 217.5 -32.5t159.5 -82.5l-68 -268q-44 48 -113 78t-151 30q-133 0 -206.5 -82t-73.5 -227
q0 -148 75 -230.5t211 -82.5q150 0 273 110z" />
    <glyph glyph-name="Cdotaccent" unicode="&#x10a;" horiz-adv-x="1435" 
d="M637 1671v287h364v-287h-364zM1360 127q-197 -156 -504 -156q-355 0 -560.5 209.5t-205.5 579.5q0 249 95.5 427.5t269 269.5t409.5 91q290 0 475 -139l-69 -324q-155 152 -375 152q-204 0 -316 -126t-112 -349q0 -232 117.5 -355.5t310.5 -123.5q122 0 223 44t170 111z
" />
    <glyph glyph-name="cdotaccent" unicode="&#x10b;" horiz-adv-x="1085" 
d="M428 1286v285h360v-285h-360zM1032 94q-67 -50 -170 -84.5t-229 -34.5q-264 0 -414.5 153.5t-150.5 426.5q0 277 156.5 434.5t422.5 157.5q121 0 217.5 -32.5t159.5 -82.5l-68 -268q-44 48 -113 78t-151 30q-133 0 -206.5 -82t-73.5 -227q0 -148 75 -230.5t211 -82.5
q150 0 273 110z" />
    <glyph glyph-name="Ccaron" unicode="&#x10c;" horiz-adv-x="1435" 
d="M1278 1989l-322 -344h-274l-322 344l299 34l160 -204l160 204zM1360 127q-197 -156 -504 -156q-355 0 -560.5 209.5t-205.5 579.5q0 249 95.5 427.5t269 269.5t409.5 91q290 0 475 -139l-69 -324q-155 152 -375 152q-204 0 -316 -126t-112 -349q0 -232 117.5 -355.5
t310.5 -123.5q122 0 223 44t170 111z" />
    <glyph glyph-name="ccaron" unicode="&#x10d;" horiz-adv-x="1085" 
d="M1040 1663l-295 -406h-274l-295 406l277 35l155 -264l156 264zM1032 94q-67 -50 -170 -84.5t-229 -34.5q-264 0 -414.5 153.5t-150.5 426.5q0 277 156.5 434.5t422.5 157.5q121 0 217.5 -32.5t159.5 -82.5l-68 -268q-44 48 -113 78t-151 30q-133 0 -206.5 -82t-73.5 -227
q0 -148 75 -230.5t211 -82.5q150 0 273 110z" />
    <glyph glyph-name="Dcaron" unicode="&#x10e;" horiz-adv-x="1595" 
d="M1194 1989l-322 -344h-274l-322 344l299 34l160 -204l160 204zM1505 760q0 -383 -207 -571.5t-587 -188.5h-551v1520h551q172 0 307 -37.5t226 -104.5t150 -163.5t85 -208.5t26 -246zM694 1227h-182v-934h184q216 0 324 113t108 354q0 84 -13.5 153t-45 128.5t-81 100
t-124 63t-170.5 22.5z" />
    <glyph glyph-name="dcaron" unicode="&#x10f;" horiz-adv-x="1419" 
d="M1540 1217h-211l49 475h299zM897 0l-4 141q-128 -166 -340 -166q-220 0 -350.5 155t-130.5 425q0 276 137.5 434t370.5 158q182 0 301 -119v565h336v-1593h-320zM414 559q0 -146 66.5 -222.5t178.5 -76.5q77 0 136.5 34.5t85.5 88.5v385q-74 104 -209 104
q-122 0 -190 -83t-68 -230z" />
    <glyph glyph-name="Dcroat" unicode="&#x110;" horiz-adv-x="1628" 
d="M1538 760q0 -382 -207.5 -571t-587.5 -189h-550v651h-166v267h166v602h550q172 0 307.5 -37.5t226 -104.5t150 -163.5t85.5 -208.5t26 -246zM844 651h-299v-358h184q216 0 324 113t108 354q0 84 -13.5 153t-45 128.5t-81 100t-124 63t-170.5 22.5h-182v-309h299v-267z
" />
    <glyph glyph-name="dcroat" unicode="&#x111;" horiz-adv-x="1353" 
d="M897 0l-4 141q-128 -166 -340 -166q-220 0 -350.5 155t-130.5 425q0 276 137.5 434t370.5 158q182 0 301 -119v225h-316v199h316v170h336v-170h135v-199h-135v-1253h-320zM414 559q0 -146 66.5 -222.5t178.5 -76.5q77 0 136.5 34.5t85.5 88.5v385q-74 104 -209 104
q-122 0 -190 -83t-68 -230z" />
    <glyph glyph-name="Emacron" unicode="&#x112;" horiz-adv-x="1335" 
d="M291 1704v221h799v-221h-799zM1233 299v-299h-1073v1520h1057v-295h-705v-297h623v-289h-623v-340h721z" />
    <glyph glyph-name="emacron" unicode="&#x113;" horiz-adv-x="1241" 
d="M274 1319v219h734v-219h-734zM1149 90q-190 -115 -465 -115q-304 0 -460 149t-156 427q0 281 151.5 438.5t419.5 157.5q115 0 206 -29t149.5 -79t97.5 -120.5t55 -147.5t16 -167v-139h-753q13 -108 87 -165.5t226 -57.5q203 0 373 110zM645 905q-98 0 -163 -60t-72 -175
h432v18q0 45 -10 82t-31.5 68.5t-61 49t-94.5 17.5z" />
    <glyph glyph-name="Ebreve" unicode="&#x114;" horiz-adv-x="1335" 
d="M283 1985l245 14q4 -83 46 -125.5t116 -42.5t116 42.5t46 125.5l246 -14q-7 -174 -119.5 -266.5t-288.5 -92.5t-288 92.5t-119 266.5zM1233 299v-299h-1073v1520h1057v-295h-705v-297h623v-289h-623v-340h721z" />
    <glyph glyph-name="ebreve" unicode="&#x115;" horiz-adv-x="1241" 
d="M233 1647l248 12q3 -101 44.5 -151t115.5 -50t115.5 50t44.5 151l248 -12q-7 -191 -120 -294.5t-288 -103.5t-288 103.5t-120 294.5zM1149 90q-190 -115 -465 -115q-304 0 -460 149t-156 427q0 281 151.5 438.5t419.5 157.5q115 0 206 -29t149.5 -79t97.5 -120.5
t55 -147.5t16 -167v-139h-753q13 -108 87 -165.5t226 -57.5q203 0 373 110zM645 905q-98 0 -163 -60t-72 -175h432v18q0 45 -10 82t-31.5 68.5t-61 49t-94.5 17.5z" />
    <glyph glyph-name="Edotaccent" unicode="&#x116;" horiz-adv-x="1335" 
d="M508 1671v287h364v-287h-364zM1233 299v-299h-1073v1520h1057v-295h-705v-297h623v-289h-623v-340h721z" />
    <glyph glyph-name="edotaccent" unicode="&#x117;" horiz-adv-x="1241" 
d="M461 1286v285h360v-285h-360zM1149 90q-190 -115 -465 -115q-304 0 -460 149t-156 427q0 281 151.5 438.5t419.5 157.5q115 0 206 -29t149.5 -79t97.5 -120.5t55 -147.5t16 -167v-139h-753q13 -108 87 -165.5t226 -57.5q203 0 373 110zM645 905q-98 0 -163 -60t-72 -175
h432v18q0 45 -10 82t-31.5 68.5t-61 49t-94.5 17.5z" />
    <glyph glyph-name="Eogonek" unicode="&#x118;" horiz-adv-x="1335" 
d="M684 -285q0 86 47 154.5t137 130.5h-708v1520h1057v-295h-705v-297h623v-289h-623v-340h721v-299h-115q-97 -35 -147.5 -86t-50.5 -113q0 -44 26.5 -70t79.5 -26q71 0 141 45l45 -199q-107 -63 -247 -63q-136 0 -208.5 60.5t-72.5 166.5z" />
    <glyph glyph-name="eogonek" unicode="&#x119;" horiz-adv-x="1241" 
d="M1083 -449q-104 -63 -247 -63q-136 0 -207.5 60.5t-71.5 166.5q0 151 148 260h-21q-304 0 -460 149t-156 427q0 281 151.5 438.5t419.5 157.5q115 0 206 -29t149.5 -79t97.5 -120.5t55 -147.5t16 -167v-139h-753q13 -108 87 -165.5t226 -57.5q203 0 373 110l53 -262
q-58 -34 -137 -63q-221 -95 -221 -226q0 -44 26.5 -70t79.5 -26q74 0 141 45zM645 905q-98 0 -163 -60t-72 -175h432v18q0 45 -10 82t-31.5 68.5t-61 49t-94.5 17.5z" />
    <glyph glyph-name="Ecaron" unicode="&#x11a;" horiz-adv-x="1335" 
d="M1149 1989l-322 -344h-274l-322 344l299 34l160 -204l160 204zM1233 299v-299h-1073v1520h1057v-295h-705v-297h623v-289h-623v-340h721z" />
    <glyph glyph-name="ecaron" unicode="&#x11b;" horiz-adv-x="1241" 
d="M1073 1663l-295 -406h-274l-295 406l276 35l156 -264l156 264zM1149 90q-190 -115 -465 -115q-304 0 -460 149t-156 427q0 281 151.5 438.5t419.5 157.5q115 0 206 -29t149.5 -79t97.5 -120.5t55 -147.5t16 -167v-139h-753q13 -108 87 -165.5t226 -57.5q203 0 373 110z
M645 905q-98 0 -163 -60t-72 -175h432v18q0 45 -10 82t-31.5 68.5t-61 49t-94.5 17.5z" />
    <glyph glyph-name="Gcircumflex" unicode="&#x11c;" horiz-adv-x="1601" 
d="M1307 1665l-299 -35l-160 205l-160 -205l-299 35l322 344h274zM1475 119q-85 -63 -248.5 -105.5t-343.5 -42.5q-384 0 -588.5 207t-204.5 582q0 377 212.5 582.5t600.5 205.5q171 0 311 -39t228 -100l-70 -324q-183 152 -444 152q-233 0 -347 -123.5t-114 -353.5
q0 -235 115.5 -356t343.5 -121q119 0 231 28v275h-326v270h644v-737z" />
    <glyph glyph-name="gcircumflex" unicode="&#x11d;" horiz-adv-x="1314" 
d="M1057 1284l-277 -35l-155 271l-156 -271l-276 35l294 416h275zM1241 -84q0 -186 -164 -294.5t-493 -108.5q-289 0 -426.5 82t-137.5 217q0 85 55.5 151t174.5 96q-103 56 -103 172q0 139 160 197q-209 99 -209 330q0 192 141 290.5t377 98.5q188 0 320 -66l342 56h14
v-246l-184 8q27 -61 27 -141q0 -191 -141 -290t-378 -99q-63 0 -135 10q-51 -13 -51 -66q0 -66 92 -71l318 -15q401 -17 401 -311zM616 588q91 0 141 44t50 124t-50 126t-141 46q-89 0 -139.5 -44.5t-50.5 -123.5q0 -80 50 -126t140 -46zM346 -131q0 -65 64 -99t211 -34
q294 0 294 137q0 40 -31 63t-116 27l-340 14q-40 -13 -61 -42t-21 -66z" />
    <glyph glyph-name="Gbreve" unicode="&#x11e;" horiz-adv-x="1601" 
d="M440 1985l246 14q4 -83 46 -125.5t116 -42.5t116 42.5t46 125.5l245 -14q-7 -174 -119 -266.5t-288 -92.5t-288.5 92.5t-119.5 266.5zM1475 119q-85 -63 -248.5 -105.5t-343.5 -42.5q-384 0 -588.5 207t-204.5 582q0 377 212.5 582.5t600.5 205.5q171 0 311 -39t228 -100
l-70 -324q-183 152 -444 152q-233 0 -347 -123.5t-114 -353.5q0 -235 115.5 -356t343.5 -121q119 0 231 28v275h-326v270h644v-737z" />
    <glyph glyph-name="gbreve" unicode="&#x11f;" horiz-adv-x="1314" 
d="M217 1647l248 12q3 -101 44.5 -151t115.5 -50t115 50t44 151l248 -12q-7 -191 -119.5 -294.5t-287.5 -103.5t-288 103.5t-120 294.5zM1241 -84q0 -186 -164 -294.5t-493 -108.5q-289 0 -426.5 82t-137.5 217q0 85 55.5 151t174.5 96q-103 56 -103 172q0 139 160 197
q-209 99 -209 330q0 192 141 290.5t377 98.5q188 0 320 -66l342 56h14v-246l-184 8q27 -61 27 -141q0 -191 -141 -290t-378 -99q-63 0 -135 10q-51 -13 -51 -66q0 -66 92 -71l318 -15q401 -17 401 -311zM616 588q91 0 141 44t50 124t-50 126t-141 46q-89 0 -139.5 -44.5
t-50.5 -123.5q0 -80 50 -126t140 -46zM346 -131q0 -65 64 -99t211 -34q294 0 294 137q0 40 -31 63t-116 27l-340 14q-40 -13 -61 -42t-21 -66z" />
    <glyph glyph-name="Gdotaccent" unicode="&#x120;" horiz-adv-x="1601" 
d="M666 1671v287h364v-287h-364zM1475 119q-85 -63 -248.5 -105.5t-343.5 -42.5q-384 0 -588.5 207t-204.5 582q0 377 212.5 582.5t600.5 205.5q171 0 311 -39t228 -100l-70 -324q-183 152 -444 152q-233 0 -347 -123.5t-114 -353.5q0 -235 115.5 -356t343.5 -121
q119 0 231 28v275h-326v270h644v-737z" />
    <glyph glyph-name="gdotaccent" unicode="&#x121;" horiz-adv-x="1314" 
d="M442 1286v285h361v-285h-361zM1241 -84q0 -186 -164 -294.5t-493 -108.5q-289 0 -426.5 82t-137.5 217q0 85 55.5 151t174.5 96q-103 56 -103 172q0 139 160 197q-209 99 -209 330q0 192 141 290.5t377 98.5q188 0 320 -66l342 56h14v-246l-184 8q27 -61 27 -141
q0 -191 -141 -290t-378 -99q-63 0 -135 10q-51 -13 -51 -66q0 -66 92 -71l318 -15q401 -17 401 -311zM616 588q91 0 141 44t50 124t-50 126t-141 46q-89 0 -139.5 -44.5t-50.5 -123.5q0 -80 50 -126t140 -46zM346 -131q0 -65 64 -99t211 -34q294 0 294 137q0 40 -31 63
t-116 27l-340 14q-40 -13 -61 -42t-21 -66z" />
    <glyph glyph-name="uni0122" unicode="&#x122;" horiz-adv-x="1601" 
d="M1475 119q-85 -63 -248.5 -105.5t-343.5 -42.5q-384 0 -588.5 207t-204.5 582q0 377 212.5 582.5t600.5 205.5q171 0 311 -39t228 -100l-70 -324q-183 152 -444 152q-233 0 -347 -123.5t-114 -353.5q0 -235 115.5 -356t343.5 -121q119 0 231 28v275h-326v270h644v-737z
M881 -528l-252 32q116 159 116 357v41h287q2 -20 2 -60q0 -206 -153 -370z" />
    <glyph glyph-name="uni0123" unicode="&#x123;" horiz-adv-x="1314" 
d="M604 1692l252 -33q-98 -144 -98 -330q0 -43 4 -67h-285q-8 40 -8 79q0 191 135 351zM1241 -84q0 -186 -164 -294.5t-493 -108.5q-289 0 -426.5 82t-137.5 217q0 85 55.5 151t174.5 96q-103 56 -103 172q0 139 160 197q-209 99 -209 330q0 192 141 290.5t377 98.5
q188 0 320 -66l342 56h14v-246l-184 8q27 -61 27 -141q0 -191 -141 -290t-378 -99q-63 0 -135 10q-51 -13 -51 -66q0 -66 92 -71l318 -15q401 -17 401 -311zM616 588q91 0 141 44t50 124t-50 126t-141 46q-89 0 -139.5 -44.5t-50.5 -123.5q0 -80 50 -126t140 -46zM346 -131
q0 -65 64 -99t211 -34q294 0 294 137q0 40 -31 63t-116 27l-340 14q-40 -13 -61 -42t-21 -66z" />
    <glyph glyph-name="Hcircumflex" unicode="&#x124;" horiz-adv-x="1609" 
d="M1264 1665l-299 -35l-160 205l-160 -205l-299 35l322 344h274zM1098 0v633h-586v-633h-352v1520h352v-582h586v582h354v-1520h-354z" />
    <glyph glyph-name="hcircumflex" unicode="&#x125;" horiz-adv-x="1310" 
d="M1104 1677l-299 -35l-160 205l-160 -205l-299 35l322 344h274zM467 705v-705h-336v1593h336v-624q127 178 346 178q179 0 277 -109.5t98 -308.5v-729h-336v659q0 201 -162 201q-74 0 -133 -41t-90 -114z" />
    <glyph glyph-name="Hbar" unicode="&#x126;" horiz-adv-x="1640" 
d="M1112 0v633h-586v-633h-352v1118h-149v209h149v193h352v-193h586v193h354v-193h150v-209h-150v-1118h-354zM526 938h586v180h-586v-180z" />
    <glyph glyph-name="hbar" unicode="&#x127;" horiz-adv-x="1318" 
d="M475 705v-705h-336v1253h-137v199h137v170h336v-170h320v-199h-320v-284q127 178 346 178q179 0 277 -109.5t98 -308.5v-729h-336v659q0 201 -162 201q-74 0 -133 -41t-90 -114z" />
    <glyph glyph-name="Itilde" unicode="&#x128;" horiz-adv-x="671" 
d="M86 1624l-229 16q0 178 76 265.5t200 87.5q114 0 236 -74q84 -51 131 -51q86 0 86 137l229 -16q0 -178 -76 -265.5t-200 -87.5q-104 0 -236 74q-87 51 -131 51q-86 0 -86 -137zM160 0v1520h352v-1520h-352z" />
    <glyph glyph-name="itilde" unicode="&#x129;" horiz-adv-x="626" 
d="M123 1257l-219 17q0 176 65 264t176 88q39 0 78.5 -12.5t63 -25.5t57.5 -36q67 -45 100 -45q30 0 45 30t15 101l219 -16q0 -177 -65 -264.5t-177 -87.5q-90 0 -198 73q-66 46 -99 46q-32 0 -46.5 -30t-14.5 -102zM147 0v1122h336v-1122h-336z" />
    <glyph glyph-name="Imacron" unicode="&#x12a;" horiz-adv-x="671" 
d="M-63 1704v221h798v-221h-798zM160 0v1520h352v-1520h-352z" />
    <glyph glyph-name="imacron" unicode="&#x12b;" horiz-adv-x="626" 
d="M8 1319v219h613v-219h-613zM147 0v1122h336v-1122h-336z" />
    <glyph glyph-name="Ibreve" unicode="&#x12c;" horiz-adv-x="671" 
d="M-72 1985l246 14q4 -83 46 -125.5t116 -42.5t116 42.5t46 125.5l245 -14q-7 -174 -119 -266.5t-288 -92.5t-288.5 92.5t-119.5 266.5zM160 0v1520h352v-1520h-352z" />
    <glyph glyph-name="ibreve" unicode="&#x12d;" horiz-adv-x="626" 
d="M-61 1647l229 12q3 -201 145 -201t148 201l227 -12q-4 -193 -104 -295.5t-271 -102.5q-169 0 -268.5 102.5t-105.5 295.5zM147 0v1122h336v-1122h-336z" />
    <glyph glyph-name="Iogonek" unicode="&#x12e;" horiz-adv-x="671" 
d="M61 -285q0 86 45.5 154t131.5 131h-78v1520h352v-1520h-33q-184 -85 -184 -199q0 -44 26.5 -70t79.5 -26q75 0 142 45l45 -199q-104 -63 -248 -63q-136 0 -207.5 60.5t-71.5 166.5z" />
    <glyph glyph-name="iogonek" unicode="&#x12f;" horiz-adv-x="622" 
d="M131 1286v285h358v-285h-358zM37 -285q0 86 44.5 154t129.5 131h-68v1122h336v-1122h-28q-181 -86 -181 -199q0 -43 27 -69.5t80 -26.5q74 0 141 45l45 -199q-104 -63 -248 -63q-136 0 -207 60.5t-71 166.5z" />
    <glyph glyph-name="Idotaccent" unicode="&#x130;" horiz-adv-x="671" 
d="M154 1671v287h364v-287h-364zM160 0v1520h352v-1520h-352z" />
    <glyph glyph-name="dotlessi" unicode="&#x131;" horiz-adv-x="604" 
d="M135 0v1122h336v-1122h-336z" />
    <glyph glyph-name="IJ" unicode="&#x132;" horiz-adv-x="1605" 
d="M160 0v1520h352v-1520h-352zM672 8l14 309q89 -38 205 -38q113 0 164 64t51 230v947h352v-996q0 -292 -133 -422.5t-391 -130.5q-161 0 -262 37z" />
    <glyph glyph-name="ij" unicode="&#x133;" horiz-adv-x="1224" 
d="M123 1286v285h358v-285h-358zM745 1286v285h359v-285h-359zM135 0v1122h336v-1122h-336zM451 -442l24 274q52 -25 129 -25q79 0 115.5 46.5t36.5 160.5v1108h336v-1073q0 -142 -30.5 -244t-89.5 -161.5t-137 -87t-180 -27.5q-124 0 -204 29z" />
    <glyph glyph-name="Jcircumflex" unicode="&#x134;" horiz-adv-x="933" 
d="M1069 1665l-299 -35l-160 205l-159 -205l-299 35l321 344h275zM0 8l14 309q89 -38 205 -38q113 0 164 64t51 230v947h352v-996q0 -292 -133 -422.5t-391 -130.5q-161 0 -262 37z" />
    <glyph glyph-name="jcircumflex" unicode="&#x135;" horiz-adv-x="620" 
d="M752 1284l-277 -35l-156 271l-155 -271l-277 35l295 416h275zM-154 -442l25 274q52 -25 129 -25q79 0 115.5 46.5t36.5 160.5v1108h335v-1073q0 -142 -30.5 -244t-89 -161.5t-136.5 -87t-180 -27.5q-125 0 -205 29z" />
    <glyph glyph-name="uni0136" unicode="&#x136;" horiz-adv-x="1542" 
d="M1102 0l-443 612l-147 -153v-459h-352v1520h352v-662l578 662h450v-4l-645 -662l655 -850v-4h-448zM774 -528l-252 32q117 160 117 357v41h287q2 -20 2 -60q0 -205 -154 -370z" />
    <glyph glyph-name="uni0137" unicode="&#x137;" horiz-adv-x="1271" 
d="M881 0l-301 424l-113 -117v-307h-336v1593h336v-946l375 475h415v-4l-456 -469l493 -645v-4h-413zM647 -528l-252 32q117 160 117 357v41h287q2 -20 2 -60q0 -205 -154 -370z" />
    <glyph glyph-name="kgreenlandic" unicode="&#x138;" horiz-adv-x="1271" 
d="M881 0l-301 424l-113 -117v-307h-336v1122h336v-475l375 475h415v-4l-456 -469l493 -645v-4h-413z" />
    <glyph glyph-name="Lacute" unicode="&#x139;" horiz-adv-x="1206" 
d="M342 1622l-192 94l348 330l299 -148zM1180 299v-299h-1020v1520h352v-1221h668z" />
    <glyph glyph-name="lacute" unicode="&#x13a;" horiz-adv-x="604" 
d="M240 1675l-193 94l348 330l299 -147zM135 0v1593h336v-1593h-336z" />
    <glyph glyph-name="uni013B" unicode="&#x13b;" horiz-adv-x="1206" 
d="M1180 299v-299h-1020v1520h352v-1221h668zM659 -528l-251 32q116 159 116 357v41h287q2 -20 2 -60q0 -205 -154 -370z" />
    <glyph glyph-name="uni013C" unicode="&#x13c;" horiz-adv-x="604" 
d="M135 0v1593h336v-1593h-336zM295 -528l-252 32q117 160 117 357v41h286q3 -30 3 -60q0 -205 -154 -370z" />
    <glyph glyph-name="Lcaron" unicode="&#x13d;" horiz-adv-x="1206" 
d="M885 1118h-211l49 475h299zM1180 299v-299h-1020v1520h352v-1221h668z" />
    <glyph glyph-name="lcaron" unicode="&#x13e;" horiz-adv-x="677" 
d="M799 1217h-211l49 475h299zM135 0v1593h336v-1593h-336z" />
    <glyph glyph-name="Ldot" unicode="&#x13f;" horiz-adv-x="1206" 
d="M1180 299v-299h-1020v1520h352v-1221h668zM772 686v352h344v-352h-344z" />
    <glyph glyph-name="ldot" unicode="&#x140;" horiz-adv-x="972" 
d="M135 0v1593h336v-1593h-336zM616 616v353h345v-353h-345z" />
    <glyph glyph-name="Lslash" unicode="&#x141;" horiz-adv-x="1230" 
d="M1204 299v-299h-1020v535l-174 -89v252l174 88v734h353v-588l385 192v-252l-385 -192v-381h667z" />
    <glyph glyph-name="lslash" unicode="&#x142;" horiz-adv-x="733" 
d="M731 883l-196 -119v-764h-336v602l-187 -113v246l187 113v745h336v-583l196 118v-245z" />
    <glyph glyph-name="Nacute" unicode="&#x143;" horiz-adv-x="1646" 
d="M760 1622l-193 94l348 330l299 -148zM1147 0l-653 965v-965h-334v1520h342l651 -963v963h334v-1520h-340z" />
    <glyph glyph-name="nacute" unicode="&#x144;" horiz-adv-x="1310" 
d="M688 1239l-209 51l240 428l307 -78zM467 705v-705h-336v1122h320l4 -170q129 195 358 195q179 0 277 -109.5t98 -308.5v-729h-336v659q0 201 -162 201q-74 0 -133 -41t-90 -114z" />
    <glyph glyph-name="uni0145" unicode="&#x145;" horiz-adv-x="1646" 
d="M1147 0l-653 965v-965h-334v1520h342l651 -963v963h334v-1520h-340zM827 -528l-252 32q117 160 117 357v41h287q2 -20 2 -60q0 -205 -154 -370z" />
    <glyph glyph-name="uni0146" unicode="&#x146;" horiz-adv-x="1310" 
d="M467 705v-705h-336v1122h320l4 -170q129 195 358 195q179 0 277 -109.5t98 -308.5v-729h-336v659q0 201 -162 201q-74 0 -133 -41t-90 -114zM659 -528l-251 32q116 159 116 357v41h287q2 -20 2 -60q0 -205 -154 -370z" />
    <glyph glyph-name="Ncaron" unicode="&#x147;" horiz-adv-x="1646" 
d="M1282 1989l-321 -344h-275l-321 344l299 34l159 -204l160 204zM1147 0l-653 965v-965h-334v1520h342l651 -963v963h334v-1520h-340z" />
    <glyph glyph-name="ncaron" unicode="&#x148;" horiz-adv-x="1310" 
d="M1087 1663l-294 -406h-275l-295 406l277 35l155 -264l156 264zM467 705v-705h-336v1122h320l4 -170q129 195 358 195q179 0 277 -109.5t98 -308.5v-729h-336v659q0 201 -162 201q-74 0 -133 -41t-90 -114z" />
    <glyph glyph-name="Eng" unicode="&#x14a;" horiz-adv-x="1646" 
d="M1153 1520h334v-1475q0 -142 -34.5 -243.5t-100 -160t-150.5 -85.5t-196 -27q-142 0 -242 35l12 278q84 -35 180 -35q97 0 143 48t46 153l-651 961v-969h-334v1520h346l647 -957v957z" />
    <glyph glyph-name="eng" unicode="&#x14b;" horiz-adv-x="1310" 
d="M705 -197q78 0 112.5 43t34.5 154v659q0 201 -162 201q-74 0 -133 -41t-90 -114v-705h-336v1122h320l4 -170q129 195 358 195q179 0 277 -109.5t98 -308.5v-700q0 -138 -29.5 -236t-87.5 -155t-134 -83t-177 -26q-121 0 -195 27l17 270q45 -23 123 -23z" />
    <glyph glyph-name="Omacron" unicode="&#x14c;" horiz-adv-x="1654" 
d="M428 1704v221h799v-221h-799zM827 -29q-334 0 -535.5 211.5t-201.5 577.5t201.5 577t535.5 211t536 -211t202 -577t-202 -577.5t-536 -211.5zM827 283q169 0 265 126t96 351q0 224 -96 350.5t-265 126.5t-264.5 -126t-95.5 -351q0 -224 95.5 -350.5t264.5 -126.5z" />
    <glyph glyph-name="omacron" unicode="&#x14d;" horiz-adv-x="1277" 
d="M272 1319v219h734v-219h-734zM639 -25q-167 0 -294.5 65.5t-202 199.5t-74.5 321t74.5 321t202 199.5t294.5 65.5t294.5 -65.5t202 -199.5t74.5 -321t-74.5 -321t-202 -199.5t-294.5 -65.5zM639 248q107 0 168 81.5t61 231.5t-61 231.5t-168 81.5q-106 0 -166.5 -81.5
t-60.5 -231.5t60.5 -231.5t166.5 -81.5z" />
    <glyph glyph-name="Obreve" unicode="&#x14e;" horiz-adv-x="1654" 
d="M420 1985l246 14q4 -83 45.5 -125.5t115.5 -42.5t116 42.5t46 125.5l246 -14q-7 -174 -119.5 -266.5t-288.5 -92.5t-288 92.5t-119 266.5zM827 -29q-334 0 -535.5 211.5t-201.5 577.5t201.5 577t535.5 211t536 -211t202 -577t-202 -577.5t-536 -211.5zM827 283
q169 0 265 126t96 351q0 224 -96 350.5t-265 126.5t-264.5 -126t-95.5 -351q0 -224 95.5 -350.5t264.5 -126.5z" />
    <glyph glyph-name="obreve" unicode="&#x14f;" horiz-adv-x="1277" 
d="M231 1647l248 12q3 -101 44.5 -151t115.5 -50t115.5 50t44.5 151l248 -12q-7 -191 -120 -294.5t-288 -103.5t-288 103.5t-120 294.5zM639 -25q-167 0 -294.5 65.5t-202 199.5t-74.5 321t74.5 321t202 199.5t294.5 65.5t294.5 -65.5t202 -199.5t74.5 -321t-74.5 -321
t-202 -199.5t-294.5 -65.5zM639 248q107 0 168 81.5t61 231.5t-61 231.5t-168 81.5q-106 0 -166.5 -81.5t-60.5 -231.5t60.5 -231.5t166.5 -81.5z" />
    <glyph glyph-name="Ohungarumlaut" unicode="&#x150;" horiz-adv-x="1654" 
d="M668 1622l-189 80l262 344l267 -117zM1102 1622l-187 80l263 344l264 -117zM827 -29q-334 0 -535.5 211.5t-201.5 577.5t201.5 577t535.5 211t536 -211t202 -577t-202 -577.5t-536 -211.5zM827 283q169 0 265 126t96 351q0 224 -96 350.5t-265 126.5t-264.5 -126
t-95.5 -351q0 -224 95.5 -350.5t264.5 -126.5z" />
    <glyph glyph-name="ohungarumlaut" unicode="&#x151;" horiz-adv-x="1277" 
d="M504 1245l-205 53l246 420l272 -76zM915 1245l-202 53l243 420l273 -76zM639 -25q-167 0 -294.5 65.5t-202 199.5t-74.5 321t74.5 321t202 199.5t294.5 65.5t294.5 -65.5t202 -199.5t74.5 -321t-74.5 -321t-202 -199.5t-294.5 -65.5zM639 248q107 0 168 81.5t61 231.5
t-61 231.5t-168 81.5q-106 0 -166.5 -81.5t-60.5 -231.5t60.5 -231.5t166.5 -81.5z" />
    <glyph glyph-name="OE" unicode="&#x152;" horiz-adv-x="2258" 
d="M2159 0h-1063q-113 -29 -240 -29q-169 0 -310.5 55t-242.5 155.5t-157 249t-56 329.5t56 329t157 248.5t242.5 155.5t310.5 55q131 0 240 -28h1046v-295h-704v-297h622v-289h-622v-340h721v-299zM467 760q0 -228 112.5 -356t317.5 -128q111 0 186 37v891q-86 39 -192 39
q-200 0 -312 -126.5t-112 -356.5z" />
    <glyph glyph-name="oe" unicode="&#x153;" horiz-adv-x="2023" 
d="M1931 90q-86 -51 -206.5 -83t-260.5 -32q-294 0 -440 158q-143 -158 -387 -158q-167 0 -294 65.5t-201 199.5t-74 321t74 321t201 199.5t294 65.5q244 0 389 -160q142 160 395 160q115 0 206 -29t150 -79t97.5 -120.5t55 -148t16.5 -166.5v-139h-754q13 -108 87 -165.5
t226 -57.5q203 0 373 110zM1427 905q-98 0 -163 -60t-72 -175h432v18q0 45 -10 82t-31.5 68.5t-61 49t-94.5 17.5zM637 248q107 0 166 81t59 232t-59 232t-166 81t-166 -81t-59 -232t59 -232t166 -81z" />
    <glyph glyph-name="Racute" unicode="&#x154;" horiz-adv-x="1505" 
d="M641 1622l-192 94l348 330l299 -148zM512 498v-498h-352v1520h590q298 0 454 -129.5t156 -376.5q0 -95 -24 -174t-66.5 -134t-93.5 -92.5t-113 -62.5l428 -551h-436l-342 498h-201zM715 1227h-203v-445h229q33 0 64 5t66.5 19.5t61.5 38t43 65.5t17 96q0 118 -72.5 169.5
t-205.5 51.5z" />
    <glyph glyph-name="racute" unicode="&#x155;" horiz-adv-x="919" 
d="M465 1239l-209 51l240 428l307 -78zM467 635v-635h-336v1122h320l4 -207q52 125 127 177.5t178 52.5q83 0 135 -25l-23 -313q-71 29 -149 29q-92 0 -161 -47.5t-95 -153.5z" />
    <glyph glyph-name="uni0156" unicode="&#x156;" horiz-adv-x="1505" 
d="M512 498v-498h-352v1520h590q298 0 454 -129.5t156 -376.5q0 -95 -24 -174t-66.5 -134t-93.5 -92.5t-113 -62.5l428 -551h-436l-342 498h-201zM715 1227h-203v-445h229q33 0 64 5t66.5 19.5t61.5 38t43 65.5t17 96q0 118 -72.5 169.5t-205.5 51.5zM756 -528l-252 32
q117 160 117 357v41h286q2 -20 2 -60q0 -206 -153 -370z" />
    <glyph glyph-name="uni0157" unicode="&#x157;" horiz-adv-x="919" 
d="M467 635v-635h-336v1122h320l4 -207q52 125 127 177.5t178 52.5q83 0 135 -25l-23 -313q-71 29 -149 29q-92 0 -161 -47.5t-95 -153.5zM295 -528l-252 32q117 160 117 357v41h286q3 -30 3 -60q0 -205 -154 -370z" />
    <glyph glyph-name="Rcaron" unicode="&#x158;" horiz-adv-x="1505" 
d="M1163 1989l-321 -344h-275l-321 344l299 34l160 -204l159 204zM512 498v-498h-352v1520h590q298 0 454 -129.5t156 -376.5q0 -95 -24 -174t-66.5 -134t-93.5 -92.5t-113 -62.5l428 -551h-436l-342 498h-201zM715 1227h-203v-445h229q33 0 64 5t66.5 19.5t61.5 38t43 65.5
t17 96q0 118 -72.5 169.5t-205.5 51.5z" />
    <glyph glyph-name="rcaron" unicode="&#x159;" horiz-adv-x="919" 
d="M901 1663l-295 -406h-274l-295 406l276 35l156 -264l156 264zM467 635v-635h-336v1122h320l4 -207q52 125 127 177.5t178 52.5q83 0 135 -25l-23 -313q-71 29 -149 29q-92 0 -161 -47.5t-95 -153.5z" />
    <glyph glyph-name="Sacute" unicode="&#x15a;" horiz-adv-x="1314" 
d="M610 1622l-192 94l348 330l299 -148zM78 115l72 323q226 -164 499 -164q223 0 223 144q0 27 -6.5 48t-25 38.5t-37.5 29.5t-57.5 26t-70 23t-89.5 25q-42 12 -69.5 20t-70.5 23t-72 29t-66.5 36t-62.5 45.5t-52 57t-42.5 70.5t-25.5 84.5t-10 101.5q0 215 148 344
t433 129q135 0 261.5 -29.5t216.5 -82.5l-66 -324q-183 133 -414 133q-217 0 -217 -141q0 -31 11 -53.5t28 -38.5t56.5 -31.5t76 -26.5t107.5 -30q60 -16 98 -27.5t94.5 -33.5t92.5 -44.5t77 -59t65 -79t40 -102t16 -129.5q0 -223 -150.5 -350.5t-447.5 -127.5
q-161 0 -307 38.5t-256 105.5z" />
    <glyph glyph-name="sacute" unicode="&#x15b;" horiz-adv-x="1081" 
d="M580 1239l-209 51l239 428l308 -78zM72 82l49 270q192 -125 399 -125q156 0 156 86q0 16 -4.5 28t-18.5 22.5t-26.5 17.5t-42.5 17t-52.5 16t-68.5 18q-63 17 -108 32.5t-97.5 44t-85 64t-54.5 91t-22 124.5q0 169 121.5 264t360.5 95q236 0 389 -86l-49 -270
q-164 104 -336 104q-150 0 -150 -86q0 -48 45.5 -69.5t179.5 -53.5q57 -14 102.5 -30t95 -45t83 -65t55 -90.5t21.5 -121.5q0 -176 -130.5 -267.5t-365.5 -91.5q-259 0 -446 107z" />
    <glyph glyph-name="Scircumflex" unicode="&#x15c;" horiz-adv-x="1314" 
d="M1133 1665l-299 -35l-160 205l-160 -205l-299 35l322 344h274zM78 115l72 323q226 -164 499 -164q223 0 223 144q0 23 -6.5 42t-16 33.5t-30.5 28.5t-39 23t-53.5 21t-63 20t-77.5 22q-42 12 -69.5 20t-70.5 23t-72 29t-66.5 36t-62.5 45.5t-52 57t-42.5 70.5t-25.5 84.5
t-10 101.5q0 215 148 344t433 129q135 0 261.5 -29.5t216.5 -82.5l-66 -324q-183 133 -414 133q-217 0 -217 -141q0 -31 11 -53.5t28 -38.5t56.5 -31.5t76 -26.5t107.5 -30q60 -16 98 -27.5t94.5 -33.5t92.5 -44.5t77 -59t65 -79t40 -102t16 -129.5q0 -223 -150.5 -350.5
t-447.5 -127.5q-161 0 -307 38.5t-256 105.5z" />
    <glyph glyph-name="scircumflex" unicode="&#x15d;" horiz-adv-x="1081" 
d="M985 1284l-276 -35l-156 271l-156 -271l-276 35l295 416h274zM72 82l49 270q192 -125 399 -125q156 0 156 86q0 16 -4.5 28t-18.5 22.5t-26.5 17.5t-42.5 17t-52.5 16t-68.5 18q-63 17 -108 32.5t-97.5 44t-85 64t-54.5 91t-22 124.5q0 169 121.5 264t360.5 95
q236 0 389 -86l-49 -270q-164 104 -336 104q-150 0 -150 -86q0 -48 45.5 -69.5t179.5 -53.5q57 -14 102.5 -30t95 -45t83 -65t55 -90.5t21.5 -121.5q0 -176 -130.5 -267.5t-365.5 -91.5q-259 0 -446 107z" />
    <glyph glyph-name="Scedilla" unicode="&#x15e;" horiz-adv-x="1314" 
d="M948 -276q0 -107 -79 -171.5t-242 -64.5q-135 0 -240 39l49 203q91 -43 193 -43q96 0 96 55q0 31 -41 50t-164 42l60 139q-292 12 -502 142l72 323q226 -164 499 -164q223 0 223 144q0 27 -7 48t-25.5 38.5t-38 30t-57.5 26t-70 23t-88 24.5q-54 14 -89 25t-89.5 32.5
t-90.5 44t-77.5 59t-66.5 78t-41.5 100.5t-16.5 128q0 215 148 344t433 129q135 0 261.5 -29.5t216.5 -82.5l-66 -324q-183 133 -414 133q-217 0 -217 -141q0 -72 57.5 -105t221.5 -75q44 -11 75 -20t74.5 -24t74.5 -29.5t68 -36.5t62.5 -46.5t51.5 -58t42 -71t25.5 -86
t9.5 -103.5q0 -208 -131.5 -333.5t-390.5 -142.5l-15 -26q75 -19 125.5 -44t75.5 -55t35 -59t10 -65z" />
    <glyph glyph-name="scedilla" unicode="&#x15f;" horiz-adv-x="1081" 
d="M821 -276q0 -107 -79 -171.5t-242 -64.5q-135 0 -240 39l49 203q91 -43 193 -43q96 0 96 55q0 31 -41 50t-164 42l62 143q-218 12 -383 105l49 270q192 -125 399 -125q156 0 156 86q0 16 -4.5 28t-18.5 22.5t-26.5 17.5t-42.5 17t-52.5 16t-68.5 18q-63 17 -108 32.5
t-97.5 44t-85 64t-54.5 91t-22 124.5q0 169 121.5 264t360.5 95q236 0 389 -86l-49 -270q-164 104 -336 104q-150 0 -150 -86q0 -48 45.5 -69.5t179.5 -53.5q57 -14 102.5 -30t95 -45t83 -65t55 -90.5t21.5 -121.5q0 -162 -110.5 -252.5t-311.5 -104.5l-17 -30
q75 -19 125.5 -44t75.5 -55t35 -59t10 -65z" />
    <glyph glyph-name="Scaron" unicode="&#x160;" horiz-adv-x="1314" 
d="M1133 1989l-322 -344h-274l-322 344l299 34l160 -204l160 204zM78 115l72 323q226 -164 499 -164q223 0 223 144q0 32 -13 57t-32 42t-60.5 34t-77 28t-103.5 29q-42 12 -69.5 20t-70.5 23t-72 29t-66.5 36t-62.5 45.5t-52 57t-42.5 70.5t-25.5 84.5t-10 101.5
q0 215 148 344t433 129q135 0 261.5 -29.5t216.5 -82.5l-66 -324q-183 133 -414 133q-217 0 -217 -141q0 -31 11 -53.5t28 -38.5t56.5 -31.5t76 -26.5t107.5 -30q58 -15 96.5 -26.5t94 -33.5t92.5 -44.5t78 -59.5t65.5 -79.5t40.5 -102t16 -129.5q0 -223 -150.5 -350.5
t-447.5 -127.5q-161 0 -307 38.5t-256 105.5z" />
    <glyph glyph-name="scaron" unicode="&#x161;" horiz-adv-x="1081" 
d="M985 1663l-295 -406h-274l-295 406l276 35l156 -264l156 264zM72 82l49 270q192 -125 399 -125q156 0 156 86q0 16 -4.5 28t-18.5 22.5t-26.5 17.5t-42.5 17t-52.5 16t-68.5 18q-63 17 -108 32.5t-97.5 44t-85 64t-54.5 91t-22 124.5q0 169 121.5 264t360.5 95
q236 0 389 -86l-49 -270q-164 104 -336 104q-150 0 -150 -86q0 -48 45.5 -69.5t179.5 -53.5q57 -14 102.5 -30t95 -45t83 -65t55 -90.5t21.5 -121.5q0 -176 -130.5 -267.5t-365.5 -91.5q-259 0 -446 107z" />
    <glyph glyph-name="uni0162" unicode="&#x162;" horiz-adv-x="1306" 
d="M932 -276q0 -107 -79.5 -171.5t-242.5 -64.5q-134 0 -239 39l49 203q91 -43 192 -43q97 0 97 55q0 31 -41 50t-164 42l69 166h-96v1225h-452v295h1257v-295h-451v-1225h-118l-27 -53q75 -19 125.5 -44t75.5 -55t35 -59t10 -65z" />
    <glyph glyph-name="uni0163" unicode="&#x163;" horiz-adv-x="909" 
d="M776 -276q0 -107 -79 -171.5t-242 -64.5q-135 0 -240 39l49 203q91 -43 193 -43q96 0 96 55q0 31 -41 50t-164 42l70 164q-213 71 -213 371v510h-174v243h174v291l334 72v-363h317v-243h-317v-457q0 -87 33 -126.5t106 -39.5q78 0 156 47l30 -266q-119 -62 -286 -62h-33
l-15 -28q75 -19 125.5 -44t75.5 -55t35 -59t10 -65z" />
    <glyph glyph-name="Tcaron" unicode="&#x164;" horiz-adv-x="1306" 
d="M1112 1989l-321 -344h-275l-321 344l299 34l159 -204l160 204zM1282 1225h-451v-1225h-354v1225h-452v295h1257v-295z" />
    <glyph glyph-name="tcaron" unicode="&#x165;" horiz-adv-x="909" 
d="M866 1237h-211l50 475h299zM864 37q-119 -62 -286 -62q-373 0 -373 394v510h-174v243h174v291l334 72v-363h317v-243h-317v-457q0 -87 33 -126.5t106 -39.5q78 0 156 47z" />
    <glyph glyph-name="Tbar" unicode="&#x166;" horiz-adv-x="1306" 
d="M1151 586h-320v-586h-354v586h-321v266h321v373h-452v295h1257v-295h-451v-373h320v-266z" />
    <glyph glyph-name="tbar" unicode="&#x167;" horiz-adv-x="950" 
d="M885 37q-119 -62 -287 -62q-373 0 -373 394v135h-174v203h174v172h-174v243h174v291l334 72v-363h318v-243h-318v-172h318v-203h-318v-82q0 -87 33 -126.5t106 -39.5q78 0 156 47z" />
    <glyph glyph-name="Utilde" unicode="&#x168;" horiz-adv-x="1576" 
d="M539 1624l-230 16q0 178 76.5 265.5t200.5 87.5q112 0 235 -74q84 -51 131 -51q86 0 86 137l230 -16q0 -178 -76.5 -265.5t-200.5 -87.5q-107 0 -235 74q-87 51 -131 51q-86 0 -86 -137zM145 610v910h355v-906q0 -163 75.5 -247t217.5 -84t217 84t75 247v906h347v-910
q0 -313 -164 -476t-484 -163q-319 0 -479 162.5t-160 476.5z" />
    <glyph glyph-name="utilde" unicode="&#x169;" horiz-adv-x="1310" 
d="M422 1257l-229 17q0 177 73 264.5t193 87.5q106 0 229 -74q85 -51 123 -51q78 0 78 137l229 -16q0 -179 -73 -265.5t-193 -86.5q-104 0 -229 73q-84 50 -123 50q-78 0 -78 -136zM862 0l-4 170q-119 -195 -356 -195q-180 0 -278.5 109t-98.5 309v729h336v-659
q0 -201 164 -201q83 0 138 45.5t83 114.5v700h336v-1122h-320z" />
    <glyph glyph-name="Umacron" unicode="&#x16a;" horiz-adv-x="1576" 
d="M389 1704v221h799v-221h-799zM145 610v910h355v-906q0 -163 75.5 -247t217.5 -84t217 84t75 247v906h347v-910q0 -313 -164 -476t-484 -163q-319 0 -479 162.5t-160 476.5z" />
    <glyph glyph-name="umacron" unicode="&#x16b;" horiz-adv-x="1310" 
d="M289 1319v219h733v-219h-733zM862 0l-4 170q-119 -195 -356 -195q-180 0 -278.5 109t-98.5 309v729h336v-659q0 -201 164 -201q83 0 138 45.5t83 114.5v700h336v-1122h-320z" />
    <glyph glyph-name="Ubreve" unicode="&#x16c;" horiz-adv-x="1576" 
d="M381 1985l246 14q4 -83 45.5 -125.5t115.5 -42.5t116 42.5t46 125.5l246 -14q-7 -174 -119.5 -266.5t-288.5 -92.5t-288 92.5t-119 266.5zM145 610v910h355v-906q0 -163 75.5 -247t217.5 -84t217 84t75 247v906h347v-910q0 -313 -164 -476t-484 -163q-319 0 -479 162.5
t-160 476.5z" />
    <glyph glyph-name="ubreve" unicode="&#x16d;" horiz-adv-x="1310" 
d="M248 1647l248 12q3 -101 44 -151t115 -50t115.5 50t44.5 151l248 -12q-7 -191 -120 -294.5t-288 -103.5t-287.5 103.5t-119.5 294.5zM862 0l-4 170q-119 -195 -356 -195q-180 0 -278.5 109t-98.5 309v729h336v-659q0 -201 164 -201q83 0 138 45.5t83 114.5v700h336v-1122
h-320z" />
    <glyph glyph-name="Uring" unicode="&#x16e;" horiz-adv-x="1576" 
d="M788 1579q-131 0 -217 83t-86 204q0 122 86 205t217 83t217.5 -83t86.5 -205q0 -121 -86.5 -204t-217.5 -83zM788 1749q55 0 88 32t33 85t-33 84.5t-88 31.5t-87.5 -31.5t-32.5 -84.5t32.5 -85t87.5 -32zM145 610v910h355v-906q0 -163 75.5 -247t217.5 -84t217 84t75 247
v906h347v-910q0 -313 -164 -476t-484 -163q-319 0 -479 162.5t-160 476.5z" />
    <glyph glyph-name="uring" unicode="&#x16f;" horiz-adv-x="1310" 
d="M655 1204q-131 0 -217 83t-86 204q0 123 86 206t217 83t217 -83t86 -206q0 -121 -86 -204t-217 -83zM655 1374q55 0 88 32t33 85t-33 86t-88 33t-87.5 -33t-32.5 -86t32.5 -85t87.5 -32zM862 0l-4 170q-119 -195 -356 -195q-180 0 -278.5 109t-98.5 309v729h336v-659
q0 -201 164 -201q83 0 138 45.5t83 114.5v700h336v-1122h-320z" />
    <glyph glyph-name="Uhungarumlaut" unicode="&#x170;" horiz-adv-x="1576" 
d="M629 1622l-189 80l262 344l267 -117zM1063 1622l-186 80l262 344l264 -117zM145 610v910h355v-906q0 -163 75.5 -247t217.5 -84t217 84t75 247v906h347v-910q0 -313 -164 -476t-484 -163q-319 0 -479 162.5t-160 476.5z" />
    <glyph glyph-name="uhungarumlaut" unicode="&#x171;" horiz-adv-x="1310" 
d="M520 1245l-205 53l246 420l273 -76zM932 1245l-203 53l244 420l272 -76zM862 0l-4 170q-119 -195 -356 -195q-180 0 -278.5 109t-98.5 309v729h336v-659q0 -201 164 -201q83 0 138 45.5t83 114.5v700h336v-1122h-320z" />
    <glyph glyph-name="Uogonek" unicode="&#x172;" horiz-adv-x="1576" 
d="M1153 -449q-104 -63 -246 -63q-137 0 -208.5 60.5t-71.5 166.5q0 150 143 256q-311 3 -468 165.5t-157 473.5v910h355v-906q0 -163 75.5 -247t217.5 -84t217 84t75 247v906h347v-910q0 -237 -94 -388.5t-279 -211.5q-199 -90 -199 -209q0 -44 27 -70t82 -26q72 0 139 45z
" />
    <glyph glyph-name="uogonek" unicode="&#x173;" horiz-adv-x="1310" 
d="M1184 -449q-107 -63 -248 -63q-137 0 -209 60.5t-72 166.5q0 171 207 291l-4 164q-119 -195 -356 -195q-180 0 -278.5 109t-98.5 309v729h336v-659q0 -201 164 -201q83 0 138 45.5t83 114.5v700h336v-1122h-64q-227 -76 -227 -201q0 -43 26.5 -68.5t79.5 -25.5
q72 0 142 45z" />
    <glyph glyph-name="Wcircumflex" unicode="&#x174;" horiz-adv-x="2281" 
d="M1599 1665l-299 -35l-159 205l-160 -205l-299 35l322 344h274zM1409 0l-268 1057l-271 -1057h-401l-440 1520h399l258 -1119l281 1119h364l279 -1114l258 1114h385l-443 -1520h-401z" />
    <glyph glyph-name="wcircumflex" unicode="&#x175;" horiz-adv-x="1886" 
d="M1382 1284l-276 -35l-156 271l-155 -271l-277 35l295 416h274zM1139 0l-195 752l-194 -752h-369l-356 1122h376l179 -800l198 800h342l199 -798l180 798h365l-357 -1122h-368z" />
    <glyph glyph-name="Ycircumflex" unicode="&#x176;" horiz-adv-x="1413" 
d="M1165 1665l-299 -35l-159 205l-160 -205l-299 35l321 344h275zM1421 1520l-538 -973v-547h-355v543l-536 977h414l307 -646l307 646h401z" />
    <glyph glyph-name="ycircumflex" unicode="&#x177;" horiz-adv-x="1251" 
d="M1067 1284l-276 -35l-156 271l-156 -271l-276 35l295 416h274zM825 12q-53 -144 -110 -238.5t-124.5 -148t-140 -75t-167.5 -21.5q-112 0 -213 33l26 278q79 -28 154 -28q79 0 124 34.5t87 124.5l-441 1151h381l240 -813l240 813h356z" />
    <glyph glyph-name="Ydieresis" unicode="&#x178;" horiz-adv-x="1413" 
d="M813 1671v287h299v-287h-299zM301 1671v287h299v-287h-299zM1421 1520l-538 -973v-547h-355v543l-536 977h414l307 -646l307 646h401z" />
    <glyph glyph-name="Zacute" unicode="&#x179;" horiz-adv-x="1394" 
d="M633 1622l-193 94l348 330l299 -148zM1311 299v-299h-1233v270l762 955h-727v295h1181v-263l-766 -958h783z" />
    <glyph glyph-name="zacute" unicode="&#x17a;" horiz-adv-x="1103" 
d="M586 1239l-209 51l239 428l308 -78zM1034 256v-256h-966v240l544 626h-522v256h930v-239l-547 -627h561z" />
    <glyph glyph-name="Zdotaccent" unicode="&#x17b;" horiz-adv-x="1394" 
d="M514 1671v287h365v-287h-365zM1311 299v-299h-1233v270l762 955h-727v295h1181v-263l-766 -958h783z" />
    <glyph glyph-name="zdotaccent" unicode="&#x17c;" horiz-adv-x="1103" 
d="M373 1286v285h360v-285h-360zM1034 256v-256h-966v240l544 626h-522v256h930v-239l-547 -627h561z" />
    <glyph glyph-name="Zcaron" unicode="&#x17d;" horiz-adv-x="1394" 
d="M1155 1989l-321 -344h-275l-321 344l299 34l159 -204l160 204zM1311 299v-299h-1233v270l762 955h-727v295h1181v-263l-766 -958h783z" />
    <glyph glyph-name="zcaron" unicode="&#x17e;" horiz-adv-x="1103" 
d="M985 1663l-295 -406h-274l-295 406l276 35l156 -264l156 264zM1034 256v-256h-966v240l544 626h-522v256h930v-239l-547 -627h561z" />
    <glyph glyph-name="longs" unicode="&#x17f;" horiz-adv-x="706" 
d="M152 0v1165q0 109 27 191t69 130t103 78t120 40t129 10q124 0 191 -21l-17 -272q-62 20 -139 20q-79 0 -113.5 -38.5t-34.5 -135.5v-1167h-335z" />
    <glyph glyph-name="uni018F" unicode="&#x18f;" horiz-adv-x="1568" 
d="M1479 762q0 -381 -177.5 -586t-525.5 -205q-146 0 -260.5 37t-192 102.5t-128 160t-73 205t-22.5 241.5q0 77 6 160h998q-11 181 -104 270.5t-304 89.5q-299 0 -485 -160l-92 301q94 72 254 121t356 49q750 0 750 -786zM772 283q144 0 231.5 83t100.5 244h-633v-18
q0 -138 75.5 -223.5t225.5 -85.5z" />
    <glyph glyph-name="florin" unicode="&#x192;" 
d="M688 127q-53 -261 -167 -370t-314 -109q-148 0 -227 43l59 297q57 -47 147 -47q72 0 110 44.5t62 166.5l115 573h-178v213h221l27 131q24 122 68.5 211.5t94.5 140t116 80t121.5 38.5t123.5 9q138 0 233 -43l-63 -297q-80 47 -172 47q-87 0 -128.5 -45t-64.5 -166
l-20 -106h281v-213h-324z" />
    <glyph glyph-name="Ohorn" unicode="&#x1a0;" horiz-adv-x="1667" 
d="M1565 760q0 -366 -202 -577.5t-536 -211.5t-535.5 211.5t-201.5 577.5t201.5 577t535.5 211q166 0 299 -53h17q97 0 138.5 45t41.5 133q0 42 -12 96h288q15 -73 15 -127q0 -261 -238 -319q189 -211 189 -563zM827 283q169 0 265 126t96 351q0 224 -96 350.5t-265 126.5
t-264.5 -126t-95.5 -351q0 -224 95.5 -350.5t264.5 -126.5z" />
    <glyph glyph-name="ohorn" unicode="&#x1a1;" horiz-adv-x="1331" 
d="M1210 561q0 -187 -74.5 -321t-202 -199.5t-294.5 -65.5t-294.5 65.5t-202 199.5t-74.5 321t74.5 321t202 199.5t294.5 65.5q139 0 254 -47q81 6 116 50.5t35 125.5q0 42 -12 96h287q14 -68 14 -127q0 -254 -225 -317q102 -145 102 -367zM639 248q107 0 168 81.5t61 231.5
t-61 231.5t-168 81.5q-106 0 -166.5 -81.5t-60.5 -231.5t60.5 -231.5t166.5 -81.5z" />
    <glyph glyph-name="Uhorn" unicode="&#x1af;" horiz-adv-x="1642" 
d="M1085 614v906h168q82 0 113 39t31 114q0 47 -11 96h287q15 -73 15 -127q0 -264 -256 -307v-725q0 -313 -164 -476t-484 -163q-319 0 -479 162.5t-160 476.5v910h355v-906q0 -163 75.5 -247t217.5 -84t217 84t75 247z" />
    <glyph glyph-name="uhorn" unicode="&#x1b0;" horiz-adv-x="1406" 
d="M846 422v700h164q68 0 102.5 35t34.5 119q0 42 -12 96h288q15 -73 15 -127q0 -266 -256 -307v-938h-320l-4 170q-119 -195 -356 -195q-180 0 -278.5 109t-98.5 309v729h336v-659q0 -201 164 -201q83 0 138 45.5t83 114.5z" />
    <glyph glyph-name="Aringacute" unicode="&#x1fa;" horiz-adv-x="1574" 
d="M1167 0l-100 315h-569l-101 -315h-385l549 1520h68q-67 37 -106.5 103t-39.5 144q0 93 52.5 166.5t140.5 104.5l-146 71l349 330l299 -147l-387 -236q129 -1 214 -84.5t85 -204.5q0 -78 -39.5 -144t-106.5 -103h70l549 -1520h-396zM786 1651q55 0 88 31.5t33 84.5t-33 85
t-88 32t-87.5 -32t-32.5 -85t32.5 -84.5t87.5 -31.5zM590 602h385l-193 608z" />
    <glyph glyph-name="aringacute" unicode="&#x1fb;" horiz-adv-x="1230" 
d="M926 1454q0 -121 -86 -204t-217 -83t-217.5 83t-86.5 204q0 100 60 176.5t158 102.5l-179 86l349 329l299 -147l-431 -260q20 2 48 2q131 0 217 -83t86 -206zM623 1337q55 0 87.5 32t32.5 85t-32.5 86t-87.5 33t-88 -33t-33 -86t33 -85t88 -32zM786 0l-4 135
q-129 -160 -344 -160q-168 0 -266 92t-98 259q0 189 137.5 281.5t421.5 92.5h137v27q0 81 -46.5 119.5t-164.5 38.5q-203 0 -364 -111l-54 262q181 111 467 111q263 0 380.5 -103.5t117.5 -298.5v-745h-320zM547 229q77 0 135.5 35t87.5 92v148h-90q-146 0 -213.5 -35
t-67.5 -113q0 -63 38.5 -95t109.5 -32z" />
    <glyph glyph-name="AEacute" unicode="&#x1fc;" horiz-adv-x="2207" 
d="M1288 1622l-192 94l348 330l299 -148zM1047 0v377h-547l-199 -377h-399l839 1520h1348v-295h-705v-297h623v-289h-623v-340h721v-299h-1058zM1047 1231h-97l-297 -565h394v565z" />
    <glyph glyph-name="aeacute" unicode="&#x1fd;" horiz-adv-x="1921" 
d="M979 1239l-209 51l240 428l307 -78zM1829 90q-193 -115 -463 -115q-308 0 -457 175q-165 -175 -430 -175q-195 0 -300 91.5t-105 255.5q0 182 134 273t425 91h149v41q0 79 -50.5 118.5t-168.5 39.5q-210 0 -368 -111l-54 262q181 111 465 111q264 0 357 -125
q137 125 360 125q114 0 204 -29t148.5 -79t97 -120.5t54.5 -148t16 -166.5v-133h-745q19 -229 309 -229q202 0 369 110zM1329 905q-95 0 -158.5 -58.5t-72.5 -170.5h424v16q0 92 -45.5 152.5t-147.5 60.5zM555 229q82 0 147 34.5t101 94.5q-16 63 -19 127h-104
q-152 0 -216.5 -32t-64.5 -101q0 -123 156 -123z" />
    <glyph glyph-name="Oslashacute" unicode="&#x1fe;" horiz-adv-x="1654" 
d="M764 1622l-193 94l349 330l299 -148zM827 -29q-235 0 -409 109l-129 -170l-170 70l164 213q-193 212 -193 567q0 366 201.5 577t535.5 211q237 0 410 -108l129 170l170 -70l-164 -213q193 -212 193 -567q0 -366 -202 -577.5t-536 -211.5zM467 760q0 -155 47 -264l518 675
q-84 66 -205 66q-169 0 -264.5 -126t-95.5 -351zM1188 760q0 155 -47 264l-518 -676q83 -65 204 -65q169 0 265 126t96 351z" />
    <glyph glyph-name="oslashacute" unicode="&#x1ff;" horiz-adv-x="1277" 
d="M672 1239l-209 51l239 428l308 -78zM639 -25q-168 0 -295 68l-123 -162l-149 66l145 190q-149 155 -149 424q0 187 74.5 321t202 199.5t294.5 65.5t297 -68l123 162l149 -65l-145 -193q147 -157 147 -422q0 -187 -74.5 -321t-202 -199.5t-294.5 -65.5zM412 561
q0 -82 18 -143l326 424q-46 32 -117 32q-106 0 -166.5 -81.5t-60.5 -231.5zM868 561q0 83 -18 144l-326 -426q51 -31 115 -31q107 0 168 81.5t61 231.5z" />
    <glyph glyph-name="uni0218" unicode="&#x218;" horiz-adv-x="1314" 
d="M78 115l72 323q226 -164 499 -164q223 0 223 144q0 32 -12.5 57t-31.5 42t-59.5 33.5t-77.5 28t-105 29.5q-54 14 -89 25t-89.5 32.5t-90.5 44t-77.5 59t-66.5 78t-41.5 100.5t-16.5 128q0 215 148 344t433 129q135 0 261.5 -29.5t216.5 -82.5l-66 -324
q-183 133 -414 133q-217 0 -217 -141q0 -72 57.5 -105t221.5 -75q44 -11 75 -20t74.5 -24t74.5 -29.5t68 -36.5t62.5 -46.5t51.5 -58t42 -71t25.5 -86t9.5 -103.5q0 -223 -150.5 -350.5t-447.5 -127.5q-161 0 -307 38.5t-256 105.5zM678 -528l-252 32q117 160 117 357v41
h286q2 -20 2 -60q0 -206 -153 -370z" />
    <glyph glyph-name="uni0219" unicode="&#x219;" horiz-adv-x="1081" 
d="M72 82l49 270q192 -125 399 -125q156 0 156 86q0 16 -4.5 28t-18.5 22.5t-26.5 17.5t-42.5 17t-52.5 16t-68.5 18q-63 17 -108 32.5t-97.5 44t-85 64t-54.5 91t-22 124.5q0 169 121.5 264t360.5 95q236 0 389 -86l-49 -270q-164 104 -336 104q-150 0 -150 -86
q0 -48 45.5 -69.5t179.5 -53.5q57 -14 102.5 -30t95 -45t83 -65t55 -90.5t21.5 -121.5q0 -176 -130.5 -267.5t-365.5 -91.5q-259 0 -446 107zM547 -528l-252 32q117 160 117 357v41h286q2 -20 2 -60q0 -206 -153 -370z" />
    <glyph glyph-name="uni021A" unicode="&#x21a;" horiz-adv-x="1306" 
d="M1282 1225h-451v-1225h-354v1225h-452v295h1257v-295zM647 -528l-252 32q117 160 117 357v41h287q2 -20 2 -60q0 -205 -154 -370z" />
    <glyph glyph-name="uni021B" unicode="&#x21b;" horiz-adv-x="909" 
d="M864 37q-119 -62 -286 -62q-373 0 -373 394v510h-174v243h174v291l334 72v-363h317v-243h-317v-457q0 -87 33 -126.5t106 -39.5q78 0 156 47zM498 -528l-252 32q116 159 116 357v41h287q2 -20 2 -60q0 -206 -153 -370z" />
    <glyph glyph-name="uni0237" unicode="&#x237;" horiz-adv-x="620" 
d="M-154 -442l25 274q52 -25 129 -25q79 0 115.5 46.5t36.5 160.5v1108h335v-1073q0 -142 -30.5 -244t-89 -161.5t-136.5 -87t-180 -27.5q-125 0 -205 29z" />
    <glyph glyph-name="uni0259" unicode="&#x259;" horiz-adv-x="1249" 
d="M1182 563q0 -286 -142 -437t-417 -151q-143 0 -248.5 41t-167.5 116t-91.5 172t-29.5 218q0 53 4 135h754q-11 113 -78.5 170.5t-218.5 57.5q-213 0 -375 -111l-53 262q82 50 206 80.5t263 30.5q157 0 272.5 -41t185.5 -119.5t103 -183.5t33 -240zM614 223
q100 0 160.5 58t69.5 172h-436v-19q0 -99 52.5 -155t153.5 -56z" />
    <glyph glyph-name="uni02BB" unicode="&#x2bb;" horiz-adv-x="653" 
d="M578 1585q-125 -244 -125 -551q0 -92 2 -125h-324q-2 33 -2 125q0 311 162 551h287z" />
    <glyph glyph-name="uni02BC" unicode="&#x2bc;" horiz-adv-x="653" 
d="M76 918q125 244 125 550q0 92 -2 125h323q2 -33 2 -125q0 -310 -162 -550h-286z" />
    <glyph glyph-name="circumflex" unicode="&#x2c6;" horiz-adv-x="1024" 
d="M944 1284l-276 -35l-156 271l-156 -271l-276 35l295 416h274z" />
    <glyph glyph-name="caron" unicode="&#x2c7;" horiz-adv-x="1024" 
d="M944 1663l-295 -406h-274l-295 406l276 35l156 -264l156 264z" />
    <glyph glyph-name="uni02C9" unicode="&#x2c9;" horiz-adv-x="1024" 
d="M145 1319v219h734v-219h-734z" />
    <glyph glyph-name="breve" unicode="&#x2d8;" horiz-adv-x="1024" 
d="M104 1647l248 12q3 -101 44.5 -151t115.5 -50t115.5 50t44.5 151l248 -12q-7 -191 -120 -294.5t-288 -103.5t-288 103.5t-120 294.5z" />
    <glyph glyph-name="dotaccent" unicode="&#x2d9;" horiz-adv-x="1024" 
d="M332 1286v285h360v-285h-360z" />
    <glyph glyph-name="ring" unicode="&#x2da;" horiz-adv-x="1024" 
d="M512 1204q-131 0 -217 83t-86 204q0 123 86 206t217 83t217 -83t86 -206q0 -121 -86 -204t-217 -83zM512 1374q55 0 88 32t33 85t-33 86t-88 33t-88 -33t-33 -86t33 -85t88 -32z" />
    <glyph glyph-name="ogonek" unicode="&#x2db;" horiz-adv-x="1024" 
d="M807 -449q-104 -63 -246 -63q-137 0 -208.5 60.5t-71.5 166.5q0 89 50 161t152 136h230q-199 -97 -199 -211q0 -44 27 -70t82 -26q72 0 139 45z" />
    <glyph glyph-name="tilde" unicode="&#x2dc;" horiz-adv-x="1024" 
d="M279 1257l-230 17q0 177 73 264.5t193 87.5q102 0 230 -74q85 -51 123 -51q77 0 77 137l230 -16q0 -179 -73 -265.5t-193 -86.5q-100 0 -230 73q-84 50 -123 50q-77 0 -77 -136z" />
    <glyph glyph-name="hungarumlaut" unicode="&#x2dd;" horiz-adv-x="1024" 
d="M377 1245l-205 53l246 420l272 -76zM788 1245l-202 53l243 420l273 -76z" />
    <glyph glyph-name="gravecomb" unicode="&#x300;" horiz-adv-x="0" 
d="M-33 1239l-338 401l308 78l239 -428z" />
    <glyph glyph-name="acutecomb" unicode="&#x301;" horiz-adv-x="0" 
d="M33 1239l-209 51l239 428l308 -78z" />
    <glyph glyph-name="uni0302" unicode="&#x302;" horiz-adv-x="0" 
d="M432 1284l-276 -35l-156 271l-156 -271l-276 35l295 416h274z" />
    <glyph glyph-name="tildecomb" unicode="&#x303;" horiz-adv-x="0" 
d="M-233 1257l-230 17q0 177 73 264.5t193 87.5q108 0 230 -74q83 -51 123 -51q77 0 77 137l230 -16q0 -179 -73 -265.5t-193 -86.5q-104 0 -230 73q-84 50 -123 50q-77 0 -77 -136z" />
    <glyph glyph-name="uni0304" unicode="&#x304;" horiz-adv-x="0" 
d="M-367 1319v219h734v-219h-734z" />
    <glyph glyph-name="uni0306" unicode="&#x306;" horiz-adv-x="0" 
d="M-408 1647l248 12q3 -101 44.5 -151t115.5 -50t115.5 50t44.5 151l248 -12q-7 -191 -120 -294.5t-288 -103.5t-288 103.5t-120 294.5z" />
    <glyph glyph-name="uni0307" unicode="&#x307;" horiz-adv-x="0" 
d="M-180 1286v285h360v-285h-360z" />
    <glyph glyph-name="uni0308" unicode="&#x308;" horiz-adv-x="0" 
d="M96 1286v285h299v-285h-299zM-395 1286v285h299v-285h-299z" />
    <glyph glyph-name="hookabovecomb" unicode="&#x309;" horiz-adv-x="0" 
d="M25 1221l-146 120q93 33 137.5 66.5t44.5 73.5q0 57 -90 57q-114 0 -207 -72l-43 203q132 74 289 74q140 0 223.5 -57.5t83.5 -169.5q0 -106 -73 -172t-219 -123z" />
    <glyph glyph-name="uni030A" unicode="&#x30a;" horiz-adv-x="0" 
d="M0 1204q-131 0 -217 83t-86 204q0 123 86 206t217 83t217 -83t86 -206q0 -121 -86 -204t-217 -83zM0 1374q55 0 88 32t33 85t-33 86t-88 33t-88 -33t-33 -86t33 -85t88 -32z" />
    <glyph glyph-name="uni030B" unicode="&#x30b;" horiz-adv-x="0" 
d="M-135 1245l-205 53l246 420l272 -76zM276 1245l-202 53l243 420l273 -76z" />
    <glyph glyph-name="uni030C" unicode="&#x30c;" horiz-adv-x="0" 
d="M432 1663l-295 -406h-274l-295 406l276 35l156 -264l156 264z" />
    <glyph glyph-name="uni0312" unicode="&#x312;" horiz-adv-x="0" 
d="M-14 1692l252 -33q-99 -146 -99 -330q0 -43 4 -67h-284q-9 45 -9 79q0 190 136 351z" />
    <glyph glyph-name="uni031B" unicode="&#x31b;" horiz-adv-x="0" 
d="M-360 1122h57q70 0 104.5 35t34.5 119q0 42 -12 96h287q14 -68 14 -127q0 -313 -350 -313h-135v190z" />
    <glyph glyph-name="dotbelowcomb" unicode="&#x323;" horiz-adv-x="0" 
d="M-180 -426v285h360v-285h-360z" />
    <glyph glyph-name="uni0326" unicode="&#x326;" horiz-adv-x="0" 
d="M4 -528l-252 32q117 160 117 357v41h287q2 -20 2 -60q0 -205 -154 -370z" />
    <glyph glyph-name="uni0327" unicode="&#x327;" horiz-adv-x="0" 
d="M274 -276q0 -107 -79 -171.5t-242 -64.5q-135 0 -240 39l49 203q91 -43 193 -43q96 0 96 55q0 31 -41 50t-164 42l76 178h139l-32 -65q75 -19 125 -44t75.5 -55t35 -59t9.5 -65z" />
    <glyph glyph-name="uni0328" unicode="&#x328;" horiz-adv-x="0" 
d="M295 -449q-104 -63 -246 -63q-137 0 -208.5 60.5t-71.5 166.5q0 89 50 161t152 136h230q-199 -97 -199 -211q0 -44 27 -70t82 -26q72 0 139 45z" />
    <glyph glyph-name="uni0374" unicode="&#x374;" horiz-adv-x="606" 
d="M94 903l174 690h342v-4l-278 -686h-238z" />
    <glyph glyph-name="uni037E" unicode="&#x37e;" horiz-adv-x="802" 
d="M205 719v403h393v-403h-393zM360 -332l-280 39q160 259 160 574q0 59 -7 129h338q11 -55 11 -140q0 -164 -58 -320.5t-164 -281.5z" />
    <glyph glyph-name="tonos" unicode="&#x384;" horiz-adv-x="491" 
d="M301 1235l-217 16l80 467h328v-4z" />
    <glyph glyph-name="dieresistonos" unicode="&#x385;" horiz-adv-x="1024" 
d="M573 1235l-215 16l52 467h311v-4zM733 1286v285h297v-285h-297zM-6 1286v285h297v-285h-297z" />
    <glyph glyph-name="Alphatonos" unicode="&#x386;" horiz-adv-x="1599" 
d="M1192 0l-100 315h-570l-100 -315h-385l549 1520h452l549 -1520h-395zM203 1036l-217 17l80 467h327v-4zM614 602h385l-192 608z" />
    <glyph glyph-name="anoteleia" unicode="&#x387;" horiz-adv-x="823" 
d="M215 721v401h395v-401h-395z" />
    <glyph glyph-name="Epsilontonos" unicode="&#x388;" horiz-adv-x="1597" 
d="M1495 299v-299h-1073v1520h1057v-295h-705v-297h623v-289h-623v-340h721zM150 1036l-218 17l80 467h328v-4z" />
    <glyph glyph-name="Etatonos" unicode="&#x389;" horiz-adv-x="1873" 
d="M1360 0v633h-586v-633h-352v1520h352v-582h586v582h354v-1520h-354zM150 1036l-218 17l80 467h328v-4z" />
    <glyph glyph-name="Iotatonos" unicode="&#x38a;" horiz-adv-x="933" 
d="M422 0v1520h352v-1520h-352zM150 1036l-218 17l80 467h328v-4z" />
    <glyph glyph-name="Omicrontonos" unicode="&#x38c;" horiz-adv-x="1835" 
d="M1008 -29q-334 0 -536 211.5t-202 577.5t202 577t536 211t535.5 -211t201.5 -577t-201.5 -577.5t-535.5 -211.5zM150 1036l-218 17l80 467h328v-4zM1008 283q169 0 264.5 126t95.5 351q0 224 -95.5 350.5t-264.5 126.5t-265 -126t-96 -351q0 -224 96 -350.5t265 -126.5z
" />
    <glyph glyph-name="Upsilontonos" unicode="&#x38e;" horiz-adv-x="1798" 
d="M1806 1520l-538 -973v-547h-355v543l-536 977h414l307 -646l307 646h401zM150 1036l-218 17l80 467h328v-4z" />
    <glyph glyph-name="Omegatonos" unicode="&#x38f;" horiz-adv-x="1898" 
d="M944 270v-270h-690v299h285q-121 109 -188.5 253.5t-67.5 311.5q0 145 51.5 270t146.5 217t237 144.5t314 52.5q173 0 315.5 -52.5t237.5 -144.5t147 -217t52 -270q0 -167 -67.5 -311.5t-188.5 -253.5h284v-299h-690v270q287 252 287 557q0 189 -98.5 299.5t-278.5 110.5
q-178 0 -276.5 -111t-98.5 -299q0 -311 287 -557zM150 1036l-218 17l80 467h328v-4z" />
    <glyph glyph-name="iotadieresistonos" unicode="&#x390;" horiz-adv-x="698" 
d="M379 1235l-215 16l51 467h311v-4zM539 1286v285h297v-285h-297zM-201 1286v285h297v-285h-297zM668 4q-76 -20 -193 -20q-178 0 -259 83t-81 259v796h336v-725q0 -75 22 -104t82 -29q49 0 93 15v-275z" />
    <glyph glyph-name="Alpha" unicode="&#x391;" horiz-adv-x="1574" 
d="M1167 0l-100 315h-569l-101 -315h-385l549 1520h453l549 -1520h-396zM590 602h385l-193 608z" />
    <glyph glyph-name="Beta" unicode="&#x392;" horiz-adv-x="1503" 
d="M1415 422q0 -94 -31.5 -168t-83.5 -121t-125.5 -77.5t-152 -43t-168.5 -12.5h-694v1520h674q255 0 387.5 -101t132.5 -293q0 -258 -254 -333q315 -69 315 -371zM782 1233h-282v-338h280q99 0 153 38.5t54 133.5q0 91 -52 128.5t-153 37.5zM500 649v-362h317q72 0 120 14
t79 55t31 111q0 99 -57 140.5t-167 41.5h-323z" />
    <glyph glyph-name="Gamma" unicode="&#x393;" horiz-adv-x="1208" 
d="M1182 1214h-670v-1214h-352v1520h1022v-306z" />
    <glyph glyph-name="uni0394" unicode="&#x394;" horiz-adv-x="1574" 
d="M1014 1520l549 -1520h-1551l549 1520h453zM492 299h581l-291 911z" />
    <glyph glyph-name="Epsilon" unicode="&#x395;" horiz-adv-x="1335" 
d="M1233 299v-299h-1073v1520h1057v-295h-705v-297h623v-289h-623v-340h721z" />
    <glyph glyph-name="Zeta" unicode="&#x396;" horiz-adv-x="1394" 
d="M1311 299v-299h-1233v270l762 955h-727v295h1181v-263l-766 -958h783z" />
    <glyph glyph-name="Eta" unicode="&#x397;" horiz-adv-x="1609" 
d="M1098 0v633h-586v-633h-352v1520h352v-582h586v582h354v-1520h-354z" />
    <glyph glyph-name="Theta" unicode="&#x398;" horiz-adv-x="1654" 
d="M827 -29q-334 0 -535.5 211.5t-201.5 577.5t201.5 577t535.5 211t536 -211t202 -577t-202 -577.5t-536 -211.5zM827 283q169 0 265 126t96 351q0 224 -96 350.5t-265 126.5t-264.5 -126t-95.5 -351q0 -224 95.5 -350.5t264.5 -126.5zM582 645v256h489v-256h-489z" />
    <glyph glyph-name="Iota" unicode="&#x399;" horiz-adv-x="671" 
d="M160 0v1520h352v-1520h-352z" />
    <glyph glyph-name="Kappa" unicode="&#x39a;" horiz-adv-x="1542" 
d="M1102 0l-443 612l-147 -153v-459h-352v1520h352v-662l578 662h450v-4l-645 -662l655 -850v-4h-448z" />
    <glyph glyph-name="Lambda" unicode="&#x39b;" horiz-adv-x="1574" 
d="M1167 0l-385 1210l-385 -1210h-385l549 1520h453l549 -1520h-396z" />
    <glyph glyph-name="Mu" unicode="&#x39c;" horiz-adv-x="2080" 
d="M909 0l-422 1116v-1116h-327v1520h495l385 -1020l385 1020h496v-1520h-340v1122l-424 -1122h-248z" />
    <glyph glyph-name="Nu" unicode="&#x39d;" horiz-adv-x="1646" 
d="M1147 0l-653 965v-965h-334v1520h342l651 -963v963h334v-1520h-340z" />
    <glyph glyph-name="Xi" unicode="&#x39e;" horiz-adv-x="1406" 
d="M117 1219v301h1173v-301h-1173zM242 635v291h923v-291h-923zM100 0v303h1207v-303h-1207z" />
    <glyph glyph-name="Omicron" unicode="&#x39f;" horiz-adv-x="1654" 
d="M827 -29q-334 0 -535.5 211.5t-201.5 577.5t201.5 577t535.5 211t536 -211t202 -577t-202 -577.5t-536 -211.5zM827 283q169 0 265 126t96 351q0 224 -96 350.5t-265 126.5t-264.5 -126t-95.5 -351q0 -224 95.5 -350.5t264.5 -126.5z" />
    <glyph glyph-name="Pi" unicode="&#x3a0;" horiz-adv-x="1589" 
d="M1077 0v1221h-565v-1221h-352v1520h1270v-1520h-353z" />
    <glyph glyph-name="Rho" unicode="&#x3a1;" horiz-adv-x="1433" 
d="M512 459v-459h-352v1520h604q301 0 456.5 -135t155.5 -392q0 -123 -36 -218t-94.5 -153.5t-141 -96t-167 -52t-181.5 -14.5h-244zM733 1227h-221v-477h217q281 0 281 237q0 240 -277 240z" />
    <glyph glyph-name="Sigma" unicode="&#x3a3;" horiz-adv-x="1394" 
d="M1319 299v-299h-1233v270l473 502l-457 485v263h1184v-295h-721l418 -439v-20l-442 -467h778z" />
    <glyph glyph-name="Tau" unicode="&#x3a4;" horiz-adv-x="1306" 
d="M1282 1225h-451v-1225h-354v1225h-452v295h1257v-295z" />
    <glyph glyph-name="Upsilon" unicode="&#x3a5;" horiz-adv-x="1413" 
d="M1421 1520l-538 -973v-547h-355v543l-536 977h414l307 -646l307 646h401z" />
    <glyph glyph-name="Phi" unicode="&#x3a6;" horiz-adv-x="1918" 
d="M1841 776q0 -197 -97.5 -347t-257.5 -228t-358 -82v-148h-337v148q-198 4 -358 82t-257.5 228t-97.5 347q0 148 56.5 272t153.5 207t226.5 129.5t276.5 49.5v139h337v-139q147 -3 276.5 -49.5t226.5 -129.5t153.5 -207t56.5 -272zM1473 776q0 167 -97.5 270t-247.5 109
v-758q150 6 247.5 109t97.5 270zM446 776q0 -166 98 -269.5t247 -109.5v758q-149 -6 -247 -109.5t-98 -269.5z" />
    <glyph glyph-name="Chi" unicode="&#x3a7;" horiz-adv-x="1499" 
d="M1044 0l-307 514l-301 -514h-424l518 764l-503 756h442l291 -496l289 496h421l-503 -742l520 -778h-443z" />
    <glyph glyph-name="Psi" unicode="&#x3a8;" horiz-adv-x="1867" 
d="M1761 1141q0 -173 -30 -306.5t-85 -224t-136.5 -148t-179.5 -83t-220 -25.5v-354h-352v354q-123 1 -221.5 26.5t-180 84t-136 148.5t-84.5 223t-30 305v379h353v-418q0 -105 15 -184.5t40.5 -129t64.5 -80t81.5 -42t97.5 -11.5v865h352v-865q56 1 99 13.5t82 43t64 80.5
t39.5 128t14.5 182v418h352v-379z" />
    <glyph glyph-name="uni03A9" unicode="&#x3a9;" horiz-adv-x="1730" 
d="M776 270v-270h-690v299h285q-121 109 -188.5 253.5t-67.5 311.5q0 145 51.5 270t146.5 217t237 144.5t314 52.5q173 0 315.5 -52.5t237.5 -144.5t147 -217t52 -270q0 -167 -67.5 -311.5t-188.5 -253.5h285v-299h-691v270q287 252 287 557q0 189 -98.5 299.5t-278.5 110.5
q-178 0 -276.5 -111t-98.5 -299q0 -311 287 -557z" />
    <glyph glyph-name="Iotadieresis" unicode="&#x3aa;" horiz-adv-x="671" 
d="M442 1671v287h299v-287h-299zM-70 1671v287h299v-287h-299zM160 0v1520h352v-1520h-352z" />
    <glyph glyph-name="Upsilondieresis" unicode="&#x3ab;" horiz-adv-x="1413" 
d="M813 1671v287h299v-287h-299zM301 1671v287h299v-287h-299zM1421 1520l-538 -973v-547h-355v543l-536 977h414l307 -646l307 646h401z" />
    <glyph glyph-name="alphatonos" unicode="&#x3ac;" horiz-adv-x="1398" 
d="M797 1235l-217 16l79 467h328v-4zM1178 -16q-127 0 -195 50t-90 150q-117 -209 -348 -209q-96 0 -179.5 35.5t-149.5 103.5t-104 178.5t-38 250.5q0 277 138.5 440.5t358.5 163.5q247 0 344 -221l25 196h340q-68 -269 -93.5 -398.5t-25.5 -236.5q0 -118 29.5 -170.5
t91.5 -52.5q40 0 80 15v-275q-74 -20 -184 -20zM418 547q0 -146 57 -219.5t148 -73.5q94 0 153 78t74 225l4 47q-32 268 -213 268q-104 0 -163.5 -87.5t-59.5 -237.5z" />
    <glyph glyph-name="epsilontonos" unicode="&#x3ad;" horiz-adv-x="1148" 
d="M719 1235l-217 16l80 467h327v-4zM1087 90q-188 -115 -483 -115q-250 0 -386 82.5t-136 237.5q0 210 229 287q-202 62 -202 254q0 147 136 229t394 82t422 -84l-51 -270q-145 96 -342 96q-97 0 -150 -25.5t-53 -72.5q0 -55 61.5 -79t192.5 -24h153v-231h-172
q-262 0 -262 -121q0 -103 221 -103q121 0 205 29t168 90z" />
    <glyph glyph-name="etatonos" unicode="&#x3ae;" horiz-adv-x="1382" 
d="M838 1235l-217 16l79 467h328v-4zM1257 729v-1163h-335v1093q0 201 -160 201q-74 0 -133 -41t-92 -114v-705h-336v727q0 74 -21 102.5t-71 28.5q-44 0 -72 -12v272q86 25 178 25q250 0 293 -199q133 203 373 203q182 0 279 -109t97 -309z" />
    <glyph glyph-name="iotatonos" unicode="&#x3af;" horiz-adv-x="698" 
d="M403 1235l-217 16l80 467h328v-4zM668 4q-76 -20 -193 -20q-178 0 -259 83t-81 259v796h336v-725q0 -75 22 -104t82 -29q49 0 93 15v-275z" />
    <glyph glyph-name="upsilondieresistonos" unicode="&#x3b0;" horiz-adv-x="1280" 
d="M672 1235l-215 16l51 467h311v-4zM831 1286v285h297v-285h-297zM92 1286v285h297v-285h-297zM123 1122h336v-616q0 -125 51 -191.5t143 -66.5q110 0 155.5 93t45.5 265q0 230 -88 516h336q88 -266 88 -518q0 -302 -135 -465.5t-414 -163.5q-248 0 -383 129.5t-135 376.5
v641z" />
    <glyph glyph-name="alpha" unicode="&#x3b1;" horiz-adv-x="1398" 
d="M1178 -16q-127 0 -195 50t-90 150q-117 -209 -348 -209q-96 0 -179.5 35.5t-149.5 103.5t-104 178.5t-38 250.5q0 277 138.5 440.5t358.5 163.5q247 0 344 -221l25 196h340q-68 -269 -93.5 -398.5t-25.5 -236.5q0 -118 29.5 -170.5t91.5 -52.5q40 0 80 15v-275
q-74 -20 -184 -20zM418 547q0 -146 57 -219.5t148 -73.5q94 0 153 78t74 225l4 47q-32 268 -213 268q-104 0 -163.5 -87.5t-59.5 -237.5z" />
    <glyph glyph-name="beta" unicode="&#x3b2;" horiz-adv-x="1347" 
d="M778 -25q-185 0 -307 101v-510h-334v1521q0 114 28.5 204.5t77.5 150t118.5 99t148.5 56.5t170 17q243 0 380.5 -110.5t137.5 -299.5q0 -132 -68.5 -222.5t-183.5 -127.5q154 -37 242 -145t88 -271q0 -206 -140 -334.5t-358 -128.5zM471 1096v-750q76 -98 223 -98
q113 0 178.5 61t65.5 170t-69 169.5t-212 60.5h-59v241h61q98 0 149.5 56t51.5 149q0 91 -48.5 141t-137.5 50q-93 0 -148 -59.5t-55 -190.5z" />
    <glyph glyph-name="gamma" unicode="&#x3b3;" horiz-adv-x="1370" 
d="M1393 1122q-402 -707 -572 -1138l-16 -418h-373l60 426q-23 174 -62.5 351t-79.5 286q-45 121 -98 173t-135 52q-34 0 -84 -12l-23 280q80 21 183 21q98 0 167.5 -21.5t128 -73t99 -143.5t71.5 -226.5t54 -328.5q117 427 288 772h392z" />
    <glyph glyph-name="delta" unicode="&#x3b4;" horiz-adv-x="1282" 
d="M1214 526q0 -245 -153 -398t-422 -153q-257 0 -413 142t-156 385q0 373 403 493q-113 66 -173 144t-60 188q0 291 442 291q302 0 522 -131l-57 -285q-229 148 -442 148q-105 0 -105 -64q0 -38 38 -70.5t146 -95.5q76 -44 118 -70.5t110.5 -84t105.5 -112.5t66.5 -141.5
t29.5 -185.5zM414 524q0 -130 65.5 -203t165.5 -73q102 0 164.5 78.5t62.5 205.5q0 112 -47.5 183.5t-138.5 126.5q-116 -15 -194 -95t-78 -223z" />
    <glyph glyph-name="epsilon" unicode="&#x3b5;" horiz-adv-x="1148" 
d="M1087 90q-188 -115 -483 -115q-250 0 -386 82.5t-136 237.5q0 210 229 287q-202 62 -202 254q0 147 136 229t394 82t422 -84l-51 -270q-145 96 -342 96q-97 0 -150 -25.5t-53 -72.5q0 -55 61.5 -79t192.5 -24h153v-231h-172q-262 0 -262 -121q0 -103 221 -103
q121 0 205 29t168 90z" />
    <glyph glyph-name="zeta" unicode="&#x3b6;" horiz-adv-x="1026" 
d="M1026 -20q0 -111 -51.5 -225.5t-147.5 -209.5l-282 103q153 142 153 246q0 58 -48 85t-181 62q-69 18 -118.5 36.5t-105.5 52t-90.5 75t-57.5 106.5t-23 146q0 196 130 414.5t390 449.5h-47q-289 0 -412 20v273q141 -25 586 -25q93 0 297 4v-247q-300 -238 -450 -447
t-150 -364q0 -39 8 -69t28 -53t39.5 -38.5t58.5 -30.5t67.5 -24t82.5 -23q45 -12 73 -21t66 -24t61.5 -30t49.5 -39t40.5 -52t24 -66.5t9.5 -84.5z" />
    <glyph glyph-name="eta" unicode="&#x3b7;" horiz-adv-x="1382" 
d="M1257 729v-1163h-335v1093q0 201 -160 201q-74 0 -133 -41t-92 -114v-705h-336v727q0 74 -21 102.5t-71 28.5q-44 0 -72 -12v272q86 25 178 25q250 0 293 -199q133 203 373 203q182 0 279 -109t97 -309z" />
    <glyph glyph-name="theta" unicode="&#x3b8;" horiz-adv-x="1288" 
d="M645 -25q-269 0 -413 210.5t-144 607.5t144 607t413 210t412 -210t143 -607t-143 -607.5t-412 -210.5zM645 1337q-107 0 -162 -104.5t-61 -319.5h444q-6 215 -60.5 319.5t-160.5 104.5zM645 248q107 0 162 107.5t61 328.5h-448q6 -222 61 -329t164 -107z" />
    <glyph glyph-name="iota" unicode="&#x3b9;" horiz-adv-x="698" 
d="M668 4q-76 -20 -193 -20q-178 0 -259 83t-81 259v796h336v-725q0 -75 22 -104t82 -29q49 0 93 15v-275z" />
    <glyph glyph-name="kappa" unicode="&#x3ba;" horiz-adv-x="1302" 
d="M895 0l-272 457q-65 -79 -156 -199v-258h-336v1122h336v-501q186 294 327.5 408t331.5 114q78 0 136 -21l-25 -286q-43 16 -94 16q-81 0 -153.5 -36t-160.5 -124l471 -688v-4h-405z" />
    <glyph glyph-name="lambda" unicode="&#x3bb;" horiz-adv-x="1294" 
d="M909 0l-241 752l-262 -752h-371l481 1096q-54 140 -103.5 187.5t-152.5 47.5q-77 0 -139 -22l-21 274q109 31 238 31q86 0 150 -18t112 -50.5t90 -94.5t75 -132t75 -182l432 -1137h-363z" />
    <glyph glyph-name="uni03BC" unicode="&#x3bc;" horiz-adv-x="1396" 
d="M610 -25q-97 0 -170 48l31 -457h-332v1556h336v-659q0 -201 164 -201q83 0 138 45.5t83 114.5v700h336v-727q0 -74 21 -102.5t71 -28.5q40 0 80 15v-275q-74 -20 -184 -20q-226 0 -285 155q-104 -164 -289 -164z" />
    <glyph glyph-name="nu" unicode="&#x3bd;" horiz-adv-x="1273" 
d="M1194 1122q-8 -288 -121.5 -590t-306.5 -532h-340q-182 686 -420 1122h375q143 -325 266 -819q92 183 142.5 399.5t50.5 419.5h354z" />
    <glyph glyph-name="xi" unicode="&#x3be;" horiz-adv-x="1101" 
d="M1081 -18q0 -114 -51 -228.5t-147 -208.5l-283 103q154 143 154 246q0 19 -5 33.5t-22 27t-31.5 20.5t-51 18t-62 16t-82.5 18q-46 10 -81 19t-81.5 26t-80 36t-69 49t-57.5 65.5t-36.5 85.5t-14.5 108q0 148 80 249.5t229 149.5q-126 33 -182.5 106t-56.5 162
q0 97 60.5 164.5t160.5 100.5q-189 3 -283 16v250q198 -25 660 -25q84 0 280 4v-272h-246q-79 0 -137 -17.5t-87.5 -47t-42.5 -60.5t-13 -66q0 -78 60.5 -122.5t160.5 -44.5h240v-287h-297q-115 0 -179.5 -55.5t-64.5 -143.5q0 -31 8 -54.5t28 -41t40 -29.5t58.5 -23
t68 -17.5t82.5 -16.5q52 -10 82.5 -16.5t75 -20t71.5 -28t58 -38t47.5 -52t28 -69t11.5 -89.5z" />
    <glyph glyph-name="omicron" unicode="&#x3bf;" horiz-adv-x="1277" 
d="M639 -25q-167 0 -294.5 65.5t-202 199.5t-74.5 321t74.5 321t202 199.5t294.5 65.5t294.5 -65.5t202 -199.5t74.5 -321t-74.5 -321t-202 -199.5t-294.5 -65.5zM639 248q107 0 168 81.5t61 231.5t-61 231.5t-168 81.5q-106 0 -166.5 -81.5t-60.5 -231.5t60.5 -231.5
t166.5 -81.5z" />
    <glyph glyph-name="uni03C0" unicode="&#x3c0;" horiz-adv-x="1495" 
d="M1403 4q-76 -20 -197 -20q-181 0 -258.5 86.5t-77.5 283.5v496h-258q-12 -569 -125 -850h-360q139 326 158 850h-232v272h1372v-272h-219v-453q0 -75 21.5 -104t81.5 -29q47 0 94 15v-275z" />
    <glyph glyph-name="rho" unicode="&#x3c1;" horiz-adv-x="1333" 
d="M754 -25q-181 0 -297 113v-522h-336v985q0 128 30.5 230.5t83 170t126 112t154.5 64t173 19.5q260 0 418 -152t158 -428q0 -137 -40.5 -250t-110 -187t-162 -114.5t-197.5 -40.5zM457 377q33 -66 90.5 -97.5t124.5 -31.5q117 0 182.5 84t65.5 233q0 147 -63.5 223
t-172.5 76q-106 0 -166.5 -76.5t-60.5 -230.5v-180z" />
    <glyph glyph-name="sigma1" unicode="&#x3c2;" horiz-adv-x="1077" 
d="M799 -455l-283 103q154 143 154 246q0 24 -9.5 43t-23.5 32.5t-44 28t-55.5 24t-72.5 25.5q-94 32 -163 74.5t-123 105t-81.5 152t-27.5 205.5q0 124 32 222.5t85.5 161t129 104t156 58.5t172.5 17q213 0 363 -96l-52 -279q-66 46 -127.5 70t-142.5 24
q-135 0 -204.5 -70.5t-69.5 -199.5q0 -122 70 -189t212 -112q62 -19 100 -34t81 -40.5t66 -55.5t38.5 -77t15.5 -108q0 -112 -50 -226.5t-146 -208.5z" />
    <glyph glyph-name="sigma" unicode="&#x3c3;" horiz-adv-x="1366" 
d="M1198 481q0 -234 -157 -370t-404 -136q-167 0 -294.5 65t-201 196.5t-73.5 312.5q0 141 45 251.5t126.5 180t191 105.5t241.5 36h649v-272h-305q182 -137 182 -369zM637 248q102 0 162.5 71.5t60.5 206.5q0 107 -36 192.5t-95 131.5h-72q-117 0 -181 -78.5t-64 -226.5
q0 -139 58.5 -218t166.5 -79z" />
    <glyph glyph-name="tau" unicode="&#x3c4;" horiz-adv-x="1089" 
d="M905 12q-95 -28 -229 -28q-181 0 -258.5 86.5t-77.5 283.5v496h-317v272h1036v-272h-383v-461q0 -68 21 -96.5t81 -28.5q63 0 119 23z" />
    <glyph glyph-name="upsilon" unicode="&#x3c5;" horiz-adv-x="1280" 
d="M123 1122h336v-616q0 -125 51 -191.5t143 -66.5q110 0 155.5 93t45.5 265q0 230 -88 516h336q88 -266 88 -518q0 -302 -135 -465.5t-414 -163.5q-248 0 -383 129.5t-135 376.5v641z" />
    <glyph glyph-name="phi" unicode="&#x3c6;" horiz-adv-x="1708" 
d="M406 561q0 -149 83 -237.5t207 -94.5v664q-124 -6 -207 -94.5t-83 -237.5zM1300 561q0 150 -82 238t-206 94v-664q124 6 206 94t82 238zM696 1593h316v-446q128 -7 241 -48.5t199.5 -113.5t137 -181.5t50.5 -242.5t-50.5 -242.5t-137 -181.5t-199.5 -113.5t-241 -48.5
v-409h-316v409q-129 7 -242 48.5t-200 113.5t-137.5 181.5t-50.5 242.5t50.5 242.5t137.5 181.5t200 113.5t242 48.5v446z" />
    <glyph glyph-name="chi" unicode="&#x3c7;" horiz-adv-x="1284" 
d="M1257 -434q-104 -23 -198 -23q-52 0 -94 8t-73.5 20t-59.5 38t-47.5 50.5t-41.5 69.5t-37.5 83t-39.5 102l-56 147l-248 -495h-370v4l477 807l-82 209q-23 59 -38.5 93.5t-38 72.5t-45 57t-54.5 32t-72 13q-34 0 -84 -12l-20 278q91 23 198 23q60 0 104.5 -8t81.5 -29.5
t63 -47.5t53 -74.5t47 -95.5t49 -126l41 -109l215 469h373v-4l-453 -768l96 -241q22 -55 35 -84.5t32 -67t35 -55.5t38.5 -36t48.5 -25t59 -7q36 0 86 10z" />
    <glyph glyph-name="psi" unicode="&#x3c8;" horiz-adv-x="1771" 
d="M1679 696q0 -706 -630 -716v-414h-324v414q-147 2 -259.5 43t-195 125.5t-125.5 224.5t-43 332v417h336v-436q0 -124 20 -209t59.5 -133t89.5 -69t118 -23v1268h324v-1268q99 4 161.5 45t97.5 138t35 257q0 223 -73 430h336q73 -209 73 -426z" />
    <glyph glyph-name="omega" unicode="&#x3c9;" horiz-adv-x="1843" 
d="M1769 514q0 -256 -128 -397.5t-338 -141.5q-133 0 -231 58.5t-150 171.5q-52 -113 -151 -171.5t-232 -58.5q-210 0 -337.5 141.5t-127.5 397.5q0 189 68 349t167 259l369 -20q-260 -270 -260 -567q0 -130 45.5 -197.5t126.5 -67.5q91 0 130.5 84.5t39.5 253.5v256h321
v-256q0 -168 40.5 -253t131.5 -85q81 0 125.5 67.5t44.5 197.5q0 162 -67.5 300t-190.5 267l367 20q100 -99 168.5 -259t68.5 -349z" />
    <glyph glyph-name="iotadieresis" unicode="&#x3ca;" horiz-adv-x="698" 
d="M401 1286v285h299v-285h-299zM-90 1286v285h299v-285h-299zM668 4q-76 -20 -193 -20q-178 0 -259 83t-81 259v796h336v-725q0 -75 22 -104t82 -29q49 0 93 15v-275z" />
    <glyph glyph-name="upsilondieresis" unicode="&#x3cb;" horiz-adv-x="1280" 
d="M707 1286v285h299v-285h-299zM215 1286v285h299v-285h-299zM123 1122h336v-616q0 -125 51 -191.5t143 -66.5q110 0 155.5 93t45.5 265q0 230 -88 516h336q88 -266 88 -518q0 -302 -135 -465.5t-414 -163.5q-248 0 -383 129.5t-135 376.5v641z" />
    <glyph glyph-name="omicrontonos" unicode="&#x3cc;" horiz-adv-x="1277" 
d="M760 1235l-217 16l80 467h327v-4zM639 -25q-167 0 -294.5 65.5t-202 199.5t-74.5 321t74.5 321t202 199.5t294.5 65.5t294.5 -65.5t202 -199.5t74.5 -321t-74.5 -321t-202 -199.5t-294.5 -65.5zM639 248q107 0 168 81.5t61 231.5t-61 231.5t-168 81.5
q-106 0 -166.5 -81.5t-60.5 -231.5t60.5 -231.5t166.5 -81.5z" />
    <glyph glyph-name="upsilontonos" unicode="&#x3cd;" horiz-adv-x="1280" 
d="M709 1235l-217 16l79 467h328v-4zM123 1122h336v-616q0 -125 51 -191.5t143 -66.5q110 0 155.5 93t45.5 265q0 230 -88 516h336q88 -266 88 -518q0 -302 -135 -465.5t-414 -163.5q-248 0 -383 129.5t-135 376.5v641z" />
    <glyph glyph-name="omegatonos" unicode="&#x3ce;" horiz-adv-x="1843" 
d="M1038 1235l-217 16l80 467h328v-4zM1769 514q0 -256 -128 -397.5t-338 -141.5q-133 0 -231 58.5t-150 171.5q-52 -113 -151 -171.5t-232 -58.5q-210 0 -337.5 141.5t-127.5 397.5q0 189 68 349t167 259l369 -20q-260 -270 -260 -567q0 -130 45.5 -197.5t126.5 -67.5
q91 0 130.5 84.5t39.5 253.5v256h321v-256q0 -168 40.5 -253t131.5 -85q81 0 125.5 67.5t44.5 197.5q0 162 -67.5 300t-190.5 267l367 20q100 -99 168.5 -259t68.5 -349z" />
    <glyph glyph-name="uni0400" unicode="&#x400;" horiz-adv-x="1335" 
d="M739 1622l-454 276l299 148l348 -330zM1233 299v-299h-1073v1520h1057v-295h-705v-297h623v-289h-623v-340h721z" />
    <glyph glyph-name="uni0401" unicode="&#x401;" horiz-adv-x="1335" 
d="M797 1671v287h299v-287h-299zM285 1671v287h299v-287h-299zM1233 299v-299h-1073v1520h1057v-295h-705v-297h623v-289h-623v-340h721z" />
    <glyph glyph-name="uni0402" unicode="&#x402;" horiz-adv-x="1732" 
d="M1667 459q0 -109 -31.5 -196t-81 -140t-116 -88.5t-131 -49.5t-131.5 -14q-55 0 -122 8.5t-102 20.5l17 283q56 -25 139 -25q35 0 66 8.5t61 28t47.5 58.5t17.5 93q0 105 -68.5 150t-203.5 45q-137 0 -237 -31v-610h-355v1225h-411v295h1257v-295h-491v-318
q135 31 299 31q286 0 431.5 -122.5t145.5 -356.5z" />
    <glyph glyph-name="uni0403" unicode="&#x403;" horiz-adv-x="1208" 
d="M616 1622l-192 94l348 330l299 -148zM1182 1214h-670v-1214h-352v1520h1022v-306z" />
    <glyph glyph-name="uni0404" unicode="&#x404;" horiz-adv-x="1433" 
d="M1350 102q-89 -63 -219.5 -97t-280.5 -34q-366 0 -564 205t-198 584q0 375 197 581.5t573 206.5q147 0 275.5 -32.5t207.5 -90.5l-75 -309q-150 125 -385 125q-355 0 -420 -315h643v-289h-651q28 -182 138.5 -270t287.5 -88q235 0 413 141z" />
    <glyph glyph-name="uni0405" unicode="&#x405;" horiz-adv-x="1314" 
d="M78 115l72 323q226 -164 499 -164q223 0 223 144q0 32 -13 57t-32 42t-60.5 34t-77 28t-103.5 29q-56 15 -91 26t-90 32.5t-90.5 44t-77 58.5t-65.5 78t-40.5 100.5t-16.5 127.5q0 215 148 344t433 129q135 0 261.5 -29.5t216.5 -82.5l-66 -324q-183 133 -414 133
q-217 0 -217 -141q0 -72 57 -105t222 -75q57 -14 97 -26t94.5 -33t92 -44.5t78 -60t65 -79.5t40.5 -102.5t16 -129.5q0 -223 -150.5 -350.5t-447.5 -127.5q-161 0 -307 38.5t-256 105.5z" />
    <glyph glyph-name="uni0406" unicode="&#x406;" horiz-adv-x="671" 
d="M160 0v1520h352v-1520h-352z" />
    <glyph glyph-name="uni0407" unicode="&#x407;" horiz-adv-x="671" 
d="M422 1671v287h299v-287h-299zM-49 1671v287h299v-287h-299zM160 0v1520h352v-1520h-352z" />
    <glyph glyph-name="uni0408" unicode="&#x408;" horiz-adv-x="933" 
d="M0 8l14 309q89 -38 205 -38q113 0 164 64t51 230v947h352v-996q0 -292 -133 -422.5t-391 -130.5q-161 0 -262 37z" />
    <glyph glyph-name="uni0409" unicode="&#x409;" horiz-adv-x="2347" 
d="M1427 1520v-555h261q302 0 450 -122t148 -356q0 -131 -45.5 -227t-129 -152t-190 -82t-240.5 -26h-608v1221h-266q-28 -183 -51 -315t-51.5 -261t-57.5 -215.5t-66 -165.5t-79 -127t-96.5 -84t-118.5 -50.5t-144 -14.5q-73 0 -135 12v301q21 -6 68 -6q42 0 75.5 12.5
t64 45.5t55 77.5t49.5 120.5t45.5 161.5t44 214.5t45 265.5t49.5 327.5h923zM1661 678h-234v-385h230q123 0 191.5 41t68.5 149q0 105 -65 150t-191 45z" />
    <glyph glyph-name="uni040A" unicode="&#x40a;" horiz-adv-x="2357" 
d="M1438 1520v-555h260q300 0 448 -122t148 -356q0 -131 -45 -227t-128 -152t-189 -82t-240 -26h-609v633h-571v-633h-352v1520h352v-582h571v582h355zM1669 678h-231v-385h227q60 0 104 8t81.5 28t57 58.5t19.5 95.5q0 105 -66 150t-192 45z" />
    <glyph glyph-name="uni040B" unicode="&#x40b;" horiz-adv-x="1742" 
d="M791 567v-567h-355v1225h-411v295h1257v-295h-491v-353q172 74 356 74q234 0 356.5 -123.5t122.5 -341.5v-481h-354v397q0 124 -54.5 175t-175.5 51q-74 0 -142.5 -15.5t-108.5 -40.5z" />
    <glyph glyph-name="uni040C" unicode="&#x40c;" horiz-adv-x="1542" 
d="M709 1622l-193 94l348 330l299 -148zM160 1520h352v-680l578 680h450v-4l-678 -719l688 -793v-4h-456l-582 694v-694h-352v1520z" />
    <glyph glyph-name="uni040D" unicode="&#x40d;" horiz-adv-x="1638" 
d="M883 1622l-455 276l299 148l348 -330zM1135 0v965l-641 -965h-334v1520h346v-965l641 965h334v-1520h-346z" />
    <glyph glyph-name="uni040E" unicode="&#x40e;" horiz-adv-x="1456" 
d="M295 1985l266 12q1 -84 53 -127t134 -43t133.5 43t52.5 127l266 -12q-6 -180 -128.5 -269.5t-323.5 -89.5t-324 89.5t-129 269.5zM1018 469q-52 -119 -110 -207.5t-116 -143.5t-126 -88.5t-132.5 -46t-142.5 -12.5q-142 0 -252 37l21 299q74 -28 182 -28q84 0 134 30
t93 113l-553 1098h412l352 -807l295 807h398z" />
    <glyph glyph-name="uni040F" unicode="&#x40f;" horiz-adv-x="1589" 
d="M1430 0h-478v-434h-315v434h-477v1520h352v-1221h565v1221h353v-1520z" />
    <glyph glyph-name="uni0410" unicode="&#x410;" horiz-adv-x="1574" 
d="M1167 0l-100 315h-569l-101 -315h-385l549 1520h453l549 -1520h-396zM590 602h385l-193 608z" />
    <glyph glyph-name="uni0411" unicode="&#x411;" horiz-adv-x="1460" 
d="M1249 1231h-737v-301h293q579 0 579 -461q0 -101 -29 -180.5t-80.5 -133.5t-125.5 -89t-160.5 -50.5t-189.5 -15.5h-639v1520h1089v-289zM772 655h-260v-368h256q55 0 97 8t77.5 27.5t54.5 57t19 91.5q0 99 -62 141.5t-182 42.5z" />
    <glyph glyph-name="uni0412" unicode="&#x412;" horiz-adv-x="1503" 
d="M1415 422q0 -94 -31.5 -168t-83.5 -121t-125.5 -77.5t-152 -43t-168.5 -12.5h-694v1520h674q255 0 387.5 -101t132.5 -293q0 -258 -254 -333q315 -69 315 -371zM782 1233h-282v-338h280q99 0 153 38.5t54 133.5q0 91 -52 128.5t-153 37.5zM500 649v-362h317q72 0 120 14
t79 55t31 111q0 99 -57 140.5t-167 41.5h-323z" />
    <glyph glyph-name="uni0413" unicode="&#x413;" horiz-adv-x="1208" 
d="M1182 1214h-670v-1214h-352v1520h1022v-306z" />
    <glyph glyph-name="uni0414" unicode="&#x414;" horiz-adv-x="1687" 
d="M20 -412v711h82q55 47 105.5 131t104 223t99.5 361.5t78 505.5h941v-1221h200v-711h-317v412h-975v-412h-318zM512 299h569v922h-297q-75 -600 -272 -922z" />
    <glyph glyph-name="uni0415" unicode="&#x415;" horiz-adv-x="1335" 
d="M1233 299v-299h-1073v1520h1057v-295h-705v-297h623v-289h-623v-340h721z" />
    <glyph glyph-name="uni0416" unicode="&#x416;" horiz-adv-x="2258" 
d="M956 1520h347v-680l493 680h447v-4l-596 -725l604 -787v-4h-455l-493 694v-694h-347v694l-493 -694h-455v4l604 778l-596 734v4h447l493 -680v680z" />
    <glyph glyph-name="uni0417" unicode="&#x417;" horiz-adv-x="1347" 
d="M1262 428q0 -223 -167 -340t-466 -117q-330 0 -553 131l55 320q195 -143 467 -143q142 0 213.5 42.5t71.5 135.5q0 83 -68 126.5t-231 43.5h-240v288h231q138 0 209.5 46t71.5 129q0 151 -250 151q-243 0 -413 -123l-80 307q112 62 259 92.5t294 30.5q281 0 425 -104.5
t144 -292.5q0 -137 -76.5 -228t-218.5 -130q322 -68 322 -365z" />
    <glyph glyph-name="uni0418" unicode="&#x418;" horiz-adv-x="1638" 
d="M1135 0v965l-641 -965h-334v1520h346v-965l641 965h334v-1520h-346z" />
    <glyph glyph-name="uni0419" unicode="&#x419;" horiz-adv-x="1638" 
d="M367 1985l266 12q1 -84 52.5 -127t133.5 -43t134 43t53 127l266 -12q-6 -180 -129 -269.5t-324 -89.5t-323.5 89.5t-128.5 269.5zM1135 0v965l-641 -965h-334v1520h346v-965l641 965h334v-1520h-346z" />
    <glyph glyph-name="uni041A" unicode="&#x41a;" horiz-adv-x="1542" 
d="M160 1520h352v-680l578 680h450v-4l-678 -719l688 -793v-4h-456l-582 694v-694h-352v1520z" />
    <glyph glyph-name="uni041B" unicode="&#x41b;" horiz-adv-x="1593" 
d="M1079 0v1221h-272q-28 -183 -51 -315t-51.5 -261t-57.5 -215.5t-66 -165.5t-79 -127t-96.5 -84t-118.5 -50.5t-144 -14.5q-73 0 -135 12v301q21 -6 68 -6q42 0 75.5 12.5t64 45.5t55 77.5t49.5 120.5t45.5 161.5t44 214.5t45 265.5t49.5 327.5h930v-1520h-355z" />
    <glyph glyph-name="uni041C" unicode="&#x41c;" horiz-adv-x="2080" 
d="M909 0l-422 1116v-1116h-327v1520h495l385 -1020l385 1020h496v-1520h-340v1122l-424 -1122h-248z" />
    <glyph glyph-name="uni041D" unicode="&#x41d;" horiz-adv-x="1609" 
d="M1098 0v633h-586v-633h-352v1520h352v-582h586v582h354v-1520h-354z" />
    <glyph glyph-name="uni041E" unicode="&#x41e;" horiz-adv-x="1654" 
d="M827 -29q-334 0 -535.5 211.5t-201.5 577.5t201.5 577t535.5 211t536 -211t202 -577t-202 -577.5t-536 -211.5zM827 283q169 0 265 126t96 351q0 224 -96 350.5t-265 126.5t-264.5 -126t-95.5 -351q0 -224 95.5 -350.5t264.5 -126.5z" />
    <glyph glyph-name="uni041F" unicode="&#x41f;" horiz-adv-x="1589" 
d="M1077 0v1221h-565v-1221h-352v1520h1270v-1520h-353z" />
    <glyph glyph-name="uni0420" unicode="&#x420;" horiz-adv-x="1433" 
d="M512 459v-459h-352v1520h604q301 0 456.5 -135t155.5 -392q0 -123 -36 -218t-94.5 -153.5t-141 -96t-167 -52t-181.5 -14.5h-244zM733 1227h-221v-477h217q281 0 281 237q0 240 -277 240z" />
    <glyph glyph-name="uni0421" unicode="&#x421;" horiz-adv-x="1435" 
d="M1360 127q-197 -156 -504 -156q-355 0 -560.5 209.5t-205.5 579.5q0 249 95.5 427.5t269 269.5t409.5 91q290 0 475 -139l-69 -324q-155 152 -375 152q-204 0 -316 -126t-112 -349q0 -232 117.5 -355.5t310.5 -123.5q122 0 223 44t170 111z" />
    <glyph glyph-name="uni0422" unicode="&#x422;" horiz-adv-x="1306" 
d="M1282 1225h-451v-1225h-354v1225h-452v295h1257v-295z" />
    <glyph glyph-name="uni0423" unicode="&#x423;" horiz-adv-x="1456" 
d="M1018 469q-52 -119 -110 -207.5t-116 -143.5t-126 -88.5t-132.5 -46t-142.5 -12.5q-142 0 -252 37l21 299q74 -28 182 -28q84 0 134 30t93 113l-553 1098h412l352 -807l295 807h398z" />
    <glyph glyph-name="uni0424" unicode="&#x424;" horiz-adv-x="1941" 
d="M1161 168h-20v-205h-340v205h-21q-329 0 -515.5 155t-186.5 441t186.5 441t515.5 155h21v196h340v-196h20q329 0 516 -155t187 -441t-187 -441t-516 -155zM1167 1077h-26v-626h26q145 0 237.5 78t92.5 235t-92.5 235t-237.5 78zM774 451h27v626h-27q-144 0 -236 -78
t-92 -235t92 -235t236 -78z" />
    <glyph glyph-name="uni0425" unicode="&#x425;" horiz-adv-x="1499" 
d="M1044 0l-307 514l-301 -514h-424l518 764l-503 756h442l291 -496l289 496h421l-503 -742l520 -778h-443z" />
    <glyph glyph-name="uni0426" unicode="&#x426;" horiz-adv-x="1673" 
d="M1614 299v-711h-316v412h-1138v1520h352v-1221h549v1221h352v-1221h201z" />
    <glyph glyph-name="uni0427" unicode="&#x427;" horiz-adv-x="1495" 
d="M1335 1520v-1520h-352v543q-167 -72 -360 -72q-250 0 -379 129.5t-129 360.5v559h354v-478q0 -138 58.5 -193.5t191.5 -55.5q166 0 264 57v670h352z" />
    <glyph glyph-name="uni0428" unicode="&#x428;" horiz-adv-x="2199" 
d="M2040 1520v-1520h-1880v1520h352v-1221h410v1221h354v-1221h410v1221h354z" />
    <glyph glyph-name="uni0429" unicode="&#x429;" horiz-adv-x="2297" 
d="M2241 299v-711h-318v412h-1763v1520h352v-1221h410v1221h354v-1221h410v1221h354v-1221h201z" />
    <glyph glyph-name="uni042A" unicode="&#x42a;" horiz-adv-x="1714" 
d="M780 1520v-537h267q604 0 604 -487q0 -134 -45.5 -231.5t-130 -154.5t-192.5 -83.5t-245 -26.5h-612v1223h-414v297h768zM1020 696h-240v-403h236q62 0 107.5 8.5t83.5 29.5t57.5 62t19.5 101q0 111 -66 156.5t-198 45.5z" />
    <glyph glyph-name="uni042B" unicode="&#x42b;" horiz-adv-x="2054" 
d="M512 1520v-537h242q606 0 606 -487q0 -108 -30.5 -192.5t-84.5 -141t-132 -93.5t-168.5 -53t-199.5 -16h-585v1520h352zM1542 0v1520h354v-1520h-354zM727 696h-215v-403h211q62 0 107.5 8.5t83.5 29.5t57.5 62t19.5 101q0 111 -66 156.5t-198 45.5z" />
    <glyph glyph-name="uni042C" unicode="&#x42c;" horiz-adv-x="1456" 
d="M512 1520v-537h276q605 0 605 -487q0 -134 -45.5 -231.5t-130 -154.5t-192.5 -83.5t-245 -26.5h-620v1520h352zM762 696h-250v-403h246q62 0 107.5 8.5t83.5 29.5t57.5 62t19.5 101q0 111 -66 156.5t-198 45.5z" />
    <glyph glyph-name="uni042D" unicode="&#x42d;" horiz-adv-x="1433" 
d="M1343 772q0 -387 -199 -594t-564 -207q-149 0 -279.5 34.5t-220.5 96.5l55 318q183 -141 420 -141q367 0 422 358h-651v289h649q-59 315 -404 315q-114 0 -222.5 -32t-180.5 -93l-80 309q79 57 223.5 90t294.5 33q365 0 551 -203t186 -573z" />
    <glyph glyph-name="uni042E" unicode="&#x42e;" horiz-adv-x="2258" 
d="M2169 760q0 -369 -189.5 -579t-515.5 -210q-296 0 -481 174.5t-217 487.5h-254v-633h-352v1520h352v-582h260q44 289 226.5 449.5t465.5 160.5q326 0 515.5 -210t189.5 -578zM1462 283q158 0 244 125.5t86 351.5q0 225 -86.5 351t-243.5 126q-156 0 -240.5 -125
t-84.5 -352q0 -226 84.5 -351.5t240.5 -125.5z" />
    <glyph glyph-name="uni042F" unicode="&#x42f;" horiz-adv-x="1525" 
d="M1014 498h-242l-305 -498h-436l393 551q-129 58 -205 175t-76 282q0 162 74.5 279t202.5 175t295 58h653v-1520h-354v498zM1014 782v445h-252q-252 0 -252 -221q0 -224 250 -224h254z" />
    <glyph glyph-name="uni0430" unicode="&#x430;" horiz-adv-x="1230" 
d="M786 0l-4 135q-129 -160 -344 -160q-168 0 -266 92t-98 259q0 189 137.5 281.5t421.5 92.5h137v27q0 81 -46.5 119.5t-164.5 38.5q-203 0 -364 -111l-54 262q181 111 467 111q263 0 380.5 -103.5t117.5 -298.5v-745h-320zM547 229q77 0 135.5 35t87.5 92v148h-90
q-146 0 -213.5 -35t-67.5 -113q0 -63 38.5 -95t109.5 -32z" />
    <glyph glyph-name="uni0431" unicode="&#x431;" 
d="M1223 559q0 -125 -38 -231.5t-110 -185t-183.5 -123t-250.5 -44.5q-278 0 -418.5 177.5t-140.5 525.5v4q0 232 38 393.5t118.5 262.5t192.5 152.5t274 70.5l448 53v-299l-465 -58q-157 -20 -230.5 -103t-86.5 -259q138 174 381 174q217 0 344 -137t127 -373zM424 600
q0 -168 55 -260t166 -92t172.5 86.5t61.5 218.5q0 125 -56 191.5t-157 66.5q-77 0 -140 -36.5t-100 -100.5q-2 -29 -2 -74z" />
    <glyph glyph-name="uni0432" unicode="&#x432;" horiz-adv-x="1269" 
d="M1196 311q0 -85 -32 -147.5t-89 -97t-126 -50.5t-152 -16h-666v1122h657q191 0 285 -73t94 -209q0 -205 -200 -256q229 -49 229 -273zM686 883h-231v-217h229q143 0 143 112q0 105 -141 105zM455 471v-227h241q158 0 158 114q0 113 -154 113h-245z" />
    <glyph glyph-name="uni0433" unicode="&#x433;" horiz-adv-x="997" 
d="M956 840h-489v-840h-336v1122h825v-282z" />
    <glyph glyph-name="uni0434" unicode="&#x434;" horiz-adv-x="1441" 
d="M18 -412v686h82q38 32 75.5 89.5t79 154t78.5 252.5t62 352h809v-848h189v-686h-308v412h-761v-412h-306zM473 274h399v574h-210q-54 -357 -189 -574z" />
    <glyph glyph-name="uni0435" unicode="&#x435;" horiz-adv-x="1241" 
d="M1149 90q-190 -115 -465 -115q-304 0 -460 149t-156 427q0 281 151.5 438.5t419.5 157.5q115 0 206 -29t149.5 -79t97.5 -120.5t55 -147.5t16 -167v-139h-753q13 -108 87 -165.5t226 -57.5q203 0 373 110zM645 905q-98 0 -163 -60t-72 -175h432v18q0 45 -10 82
t-31.5 68.5t-61 49t-94.5 17.5z" />
    <glyph glyph-name="uni0436" unicode="&#x436;" horiz-adv-x="1869" 
d="M772 1122h326v-495l354 495h408v-4l-439 -532l457 -582v-4h-418l-362 510v-510h-326v510l-362 -510h-418v4l452 576l-436 538v4h412l352 -495v495z" />
    <glyph glyph-name="uni0437" unicode="&#x437;" horiz-adv-x="1144" 
d="M1067 319q0 -169 -139 -256.5t-383 -87.5q-274 0 -471 101l57 266q80 -53 166 -81t201 -28q211 0 211 117q0 51 -47 78t-170 27h-216v229h211q201 0 201 104q0 101 -180 101q-202 0 -344 -103l-66 265q95 49 221.5 72.5t251.5 23.5q232 0 352.5 -77t120.5 -222
q0 -98 -55.5 -165.5t-159.5 -96.5q238 -55 238 -267z" />
    <glyph glyph-name="uni0438" unicode="&#x438;" horiz-adv-x="1351" 
d="M895 0v670l-446 -670h-318v1122h326v-669l446 669h318v-1122h-326z" />
    <glyph glyph-name="uni0439" unicode="&#x439;" horiz-adv-x="1351" 
d="M256 1647l264 12q3 -209 156 -209q152 0 155 209l265 -12q0 -133 -56.5 -224t-149.5 -132.5t-214 -41.5t-214 41.5t-149.5 132.5t-56.5 224zM895 0v670l-446 -670h-318v1122h326v-669l446 669h318v-1122h-326z" />
    <glyph glyph-name="uni043A" unicode="&#x43a;" horiz-adv-x="1271" 
d="M131 1122h336v-489l389 489h418v-4l-481 -526l501 -588v-4h-417l-410 504v-504h-336v1122z" />
    <glyph glyph-name="uni043B" unicode="&#x43b;" horiz-adv-x="1331" 
d="M864 0v848h-196q-19 -123 -35.5 -212t-37.5 -178t-43.5 -150t-52.5 -117.5t-65.5 -91.5t-81 -61.5t-100.5 -38t-123 -11.5q-59 0 -104 10v287q12 -6 45 -6q43 0 76 16t61.5 58.5t50.5 101t45 159.5t42.5 217.5t45.5 290.5h809v-1122h-336z" />
    <glyph glyph-name="uni043C" unicode="&#x43c;" horiz-adv-x="1685" 
d="M727 0l-289 774v-774h-307v1122h449l264 -704l262 704h450v-1122h-315v774l-289 -774h-225z" />
    <glyph glyph-name="uni043D" unicode="&#x43d;" horiz-adv-x="1331" 
d="M864 0v436h-397v-436h-336v1122h336v-409h397v409h336v-1122h-336z" />
    <glyph glyph-name="uni043E" unicode="&#x43e;" horiz-adv-x="1277" 
d="M639 -25q-167 0 -294.5 65.5t-202 199.5t-74.5 321t74.5 321t202 199.5t294.5 65.5t294.5 -65.5t202 -199.5t74.5 -321t-74.5 -321t-202 -199.5t-294.5 -65.5zM639 248q107 0 168 81.5t61 231.5t-61 231.5t-168 81.5q-106 0 -166.5 -81.5t-60.5 -231.5t60.5 -231.5
t166.5 -81.5z" />
    <glyph glyph-name="uni043F" unicode="&#x43f;" horiz-adv-x="1312" 
d="M846 0v848h-379v-848h-336v1122h1051v-1122h-336z" />
    <glyph glyph-name="uni0440" unicode="&#x440;" horiz-adv-x="1345" 
d="M770 -25q-183 0 -303 109v-518h-336v1556h320l4 -153q131 178 358 178q211 0 337 -153.5t126 -420.5q0 -280 -139 -439t-367 -159zM467 723v-387q73 -88 207 -88q120 0 189 84t69 233q0 142 -63.5 218.5t-172.5 76.5q-77 0 -137 -35.5t-92 -101.5z" />
    <glyph glyph-name="uni0441" unicode="&#x441;" horiz-adv-x="1085" 
d="M1032 94q-67 -50 -170 -84.5t-229 -34.5q-264 0 -414.5 153.5t-150.5 426.5q0 277 156.5 434.5t422.5 157.5q121 0 217.5 -32.5t159.5 -82.5l-68 -268q-44 48 -113 78t-151 30q-133 0 -206.5 -82t-73.5 -227q0 -148 75 -230.5t211 -82.5q150 0 273 110z" />
    <glyph glyph-name="uni0442" unicode="&#x442;" horiz-adv-x="1093" 
d="M1053 848h-338v-848h-336v848h-338v274h1012v-274z" />
    <glyph glyph-name="uni0443" unicode="&#x443;" horiz-adv-x="1251" 
d="M825 12q-53 -144 -110 -238.5t-124.5 -148t-140 -75t-167.5 -21.5q-112 0 -213 33l26 278q79 -28 154 -28q79 0 124 34.5t87 124.5l-441 1151h381l240 -813l240 813h356z" />
    <glyph glyph-name="uni0444" unicode="&#x444;" horiz-adv-x="1722" 
d="M61 561q0 182 82.5 314t225.5 198t331 66v454h322v-454q188 0 331 -66t225.5 -198t82.5 -314t-82.5 -313.5t-225.5 -197.5t-331 -66v-418h-322v418q-188 0 -331 66t-225.5 197.5t-82.5 313.5zM700 242v639h-18q-132 0 -206.5 -83t-74.5 -237t74.5 -236.5t206.5 -82.5h18z
M1038 881h-16v-639h16q133 0 208 82.5t75 236.5t-75 237t-208 83z" />
    <glyph glyph-name="uni0445" unicode="&#x445;" horiz-adv-x="1241" 
d="M823 0l-211 350l-211 -350h-387v4l408 559l-399 555v4h403l201 -336l200 336h385v-4l-397 -540l410 -574v-4h-402z" />
    <glyph glyph-name="uni0446" unicode="&#x446;" horiz-adv-x="1421" 
d="M1370 274v-686h-305v412h-934v1122h336v-848h379v848h336v-848h188z" />
    <glyph glyph-name="uni0447" unicode="&#x447;" horiz-adv-x="1249" 
d="M1118 1122v-1122h-336v389q-137 -59 -309 -59q-187 0 -283 94t-96 270v428h336v-342q0 -93 39 -128.5t133 -35.5q115 0 180 35v471h336z" />
    <glyph glyph-name="uni0448" unicode="&#x448;" horiz-adv-x="1931" 
d="M1802 1122v-1122h-1671v1122h336v-848h332v848h336v-848h331v848h336z" />
    <glyph glyph-name="uni0449" unicode="&#x449;" horiz-adv-x="2039" 
d="M1991 274v-686h-308v412h-1552v1122h336v-848h332v848h336v-848h331v848h336v-848h189z" />
    <glyph glyph-name="uni044A" unicode="&#x44a;" horiz-adv-x="1454" 
d="M696 1122v-348h230q477 0 477 -383q0 -87 -26 -155t-70 -112t-106.5 -72.5t-131.5 -40t-149 -11.5h-560v848h-319v274h655zM872 537h-176v-287h174q34 0 59.5 3t51.5 11.5t42.5 24t27 42t10.5 62.5q0 80 -48.5 112t-140.5 32z" />
    <glyph glyph-name="uni044B" unicode="&#x44b;" horiz-adv-x="1759" 
d="M467 1122v-348h205q477 0 477 -383q0 -87 -26 -155t-70 -112t-106.5 -72.5t-131.5 -40t-149 -11.5h-535v1122h336zM1294 0v1122h336v-1122h-336zM618 537h-151v-287h149q34 0 59.5 3t51.5 11.5t42.5 24t27 42t10.5 62.5q0 80 -48.5 112t-140.5 32z" />
    <glyph glyph-name="uni044C" unicode="&#x44c;" horiz-adv-x="1232" 
d="M467 1122v-348h240q477 0 477 -383q0 -87 -26 -155t-70 -112t-107 -72.5t-132 -40t-149 -11.5h-569v1122h336zM653 537h-186v-287h184q34 0 59.5 3t51.5 11.5t42.5 24t27 42t10.5 62.5q0 80 -49 112t-140 32z" />
    <glyph glyph-name="uni044D" unicode="&#x44d;" horiz-adv-x="1161" 
d="M1094 567q0 -285 -160 -438.5t-451 -153.5q-121 0 -230 27t-181 74l57 266q58 -47 147 -78t187 -31q248 0 293 224h-484v231h482q-50 201 -289 201q-90 0 -177 -27.5t-143 -75.5l-63 265q64 44 181 70t237 26q289 0 441.5 -151.5t152.5 -428.5z" />
    <glyph glyph-name="uni044E" unicode="&#x44e;" horiz-adv-x="1847" 
d="M1780 561q0 -187 -73.5 -321t-197.5 -199.5t-286 -65.5q-217 0 -364.5 121.5t-180.5 345.5h-211v-442h-336v1122h336v-411h215q40 210 186 323t355 113q162 0 286 -65.5t197.5 -199.5t73.5 -321zM1221 248q102 0 158.5 81t56.5 232t-56.5 232t-158.5 81t-158.5 -81
t-56.5 -232t56.5 -232t158.5 -81z" />
    <glyph glyph-name="uni044F" unicode="&#x44f;" horiz-adv-x="1282" 
d="M815 360h-168l-211 -360h-397v4l287 395q-97 43 -153 129.5t-56 210.5q0 182 118 282.5t308 100.5h608v-1122h-336v360zM815 598v276h-199q-157 0 -157 -137q0 -69 40.5 -104t114.5 -35h201z" />
    <glyph glyph-name="uni0450" unicode="&#x450;" horiz-adv-x="1241" 
d="M602 1239l-338 401l307 78l240 -428zM1149 90q-190 -115 -465 -115q-304 0 -460 149t-156 427q0 281 151.5 438.5t419.5 157.5q115 0 206 -29t149.5 -79t97.5 -120.5t55 -147.5t16 -167v-139h-753q13 -108 87 -165.5t226 -57.5q203 0 373 110zM645 905q-98 0 -163 -60
t-72 -175h432v18q0 45 -10 82t-31.5 68.5t-61 49t-94.5 17.5z" />
    <glyph glyph-name="uni0451" unicode="&#x451;" horiz-adv-x="1241" 
d="M737 1286v285h299v-285h-299zM246 1286v285h299v-285h-299zM1149 90q-190 -115 -465 -115q-304 0 -460 149t-156 427q0 281 151.5 438.5t419.5 157.5q115 0 206 -29t149.5 -79t97.5 -120.5t55 -147.5t16 -167v-139h-753q13 -108 87 -165.5t226 -57.5q203 0 373 110z
M645 905q-98 0 -163 -60t-72 -175h432v18q0 45 -10 82t-31.5 68.5t-61 49t-94.5 17.5z" />
    <glyph glyph-name="uni0452" unicode="&#x452;" horiz-adv-x="1323" 
d="M725 -197q78 0 112.5 43t34.5 154v573q0 201 -165 201q-76 0 -136.5 -42t-91.5 -114v-618h-336v1212h-161v201h161v180h336v-180h359v-201h-359v-331q129 180 352 180q180 0 278.5 -109t98.5 -309v-614q0 -138 -29.5 -236t-87 -155t-133.5 -83t-176 -26q-122 0 -196 27
l16 270q47 -23 123 -23z" />
    <glyph glyph-name="uni0453" unicode="&#x453;" horiz-adv-x="997" 
d="M557 1239l-209 51l240 428l307 -78zM956 840h-489v-840h-336v1122h825v-282z" />
    <glyph glyph-name="uni0454" unicode="&#x454;" horiz-adv-x="1161" 
d="M1090 76q-166 -101 -410 -101q-292 0 -452 151t-160 435q0 282 160.5 434t463.5 152q239 0 389 -96l-63 -267q-133 105 -311 105q-242 0 -297 -201h479v-231h-483q46 -224 305 -224q172 0 321 109z" />
    <glyph glyph-name="uni0455" unicode="&#x455;" horiz-adv-x="1081" 
d="M72 82l49 270q192 -125 399 -125q156 0 156 86q0 16 -4.5 28t-18.5 22.5t-26.5 17.5t-42.5 17t-52.5 16t-68.5 18q-63 17 -108 32.5t-97.5 44t-85 64t-54.5 91t-22 124.5q0 169 121.5 264t360.5 95q236 0 389 -86l-49 -270q-164 104 -336 104q-150 0 -150 -86
q0 -48 45.5 -69.5t179.5 -53.5q57 -14 102.5 -30t95 -45t83 -65t55 -90.5t21.5 -121.5q0 -176 -130.5 -267.5t-365.5 -91.5q-259 0 -446 107z" />
    <glyph glyph-name="uni0456" unicode="&#x456;" horiz-adv-x="604" 
d="M123 1286v285h358v-285h-358zM135 0v1122h336v-1122h-336z" />
    <glyph glyph-name="uni0457" unicode="&#x457;" horiz-adv-x="626" 
d="M371 1286v285h284v-285h-284zM-27 1286v285h283v-285h-283zM147 0v1122h336v-1122h-336z" />
    <glyph glyph-name="uni0458" unicode="&#x458;" horiz-adv-x="620" 
d="M141 1286v285h359v-285h-359zM-154 -442l25 274q52 -25 129 -25q79 0 115.5 46.5t36.5 160.5v1108h335v-1073q0 -142 -30.5 -244t-89 -161.5t-136.5 -87t-180 -27.5q-125 0 -205 29z" />
    <glyph glyph-name="uni0459" unicode="&#x459;" horiz-adv-x="1943" 
d="M1194 1122v-362h219q479 0 479 -373q0 -107 -38.5 -185t-107.5 -120.5t-152 -62t-185 -19.5h-551v848h-190q-19 -123 -35.5 -212t-37.5 -178t-43.5 -150t-52.5 -117.5t-65.5 -91.5t-81 -61.5t-100.5 -38t-123 -11.5q-59 0 -104 10v287q12 -6 45 -6q43 0 76 16t61.5 58.5
t50.5 101t45 159.5t42.5 217.5t45.5 290.5h803zM1364 522h-170v-272h168q89 0 138.5 28t49.5 107q0 76 -47 106.5t-139 30.5z" />
    <glyph glyph-name="uni045A" unicode="&#x45a;" horiz-adv-x="1943" 
d="M1194 1122v-362h219q479 0 479 -373q0 -107 -38.5 -185t-107.5 -120.5t-152 -62t-185 -19.5h-551v446h-391v-446h-336v1122h336v-399h391v399h336zM1364 522h-170v-272h168q89 0 138.5 28t49.5 107q0 76 -47 106.5t-139 30.5z" />
    <glyph glyph-name="uni045B" unicode="&#x45b;" horiz-adv-x="1323" 
d="M479 618v-618h-336v1212h-161v201h161v180h336v-180h359v-201h-359v-331q129 180 352 180q180 0 278.5 -109t98.5 -309v-643h-336v573q0 201 -165 201q-76 0 -136.5 -42t-91.5 -114z" />
    <glyph glyph-name="uni045C" unicode="&#x45c;" horiz-adv-x="1271" 
d="M645 1239l-209 51l240 428l307 -78zM131 1122h336v-489l389 489h418v-4l-481 -526l501 -588v-4h-417l-410 504v-504h-336v1122z" />
    <glyph glyph-name="uni045D" unicode="&#x45d;" horiz-adv-x="1351" 
d="M643 1239l-338 401l307 78l240 -428zM895 0v670l-446 -670h-318v1122h326v-669l446 669h318v-1122h-326z" />
    <glyph glyph-name="uni045E" unicode="&#x45e;" horiz-adv-x="1251" 
d="M215 1647l264 12q3 -209 156 -209t156 209l264 -12q0 -133 -56.5 -224t-149.5 -132.5t-214 -41.5t-214 41.5t-149.5 132.5t-56.5 224zM825 12q-53 -144 -110 -238.5t-124.5 -148t-140 -75t-167.5 -21.5q-112 0 -213 33l26 278q79 -28 154 -28q79 0 124 34.5t87 124.5
l-441 1151h381l240 -813l240 813h356z" />
    <glyph glyph-name="uni045F" unicode="&#x45f;" horiz-adv-x="1316" 
d="M1188 0h-377v-434h-305v434h-375v1122h336v-848h385v848h336v-1122z" />
    <glyph glyph-name="uni0462" unicode="&#x462;" horiz-adv-x="1576" 
d="M1178 1124h-508v-204h264q573 0 573 -455q0 -126 -43.5 -217.5t-123.5 -144.5t-183 -78t-233 -25h-609v1124h-305v238h305v231h355v-231h508v-238zM895 643h-225v-356h223q55 0 97 7.5t77.5 26.5t54.5 55t19 89q0 98 -63 138t-183 40z" />
    <glyph glyph-name="uni0463" unicode="&#x463;" horiz-adv-x="1286" 
d="M887 911h-344v-174h229q461 0 461 -362q0 -84 -25 -149t-67.5 -107t-103 -69.5t-126.5 -38.5t-143 -11h-561v911h-195v211h195v398h336v-398h344v-211zM715 510h-172v-260h170q84 0 130 26.5t46 102.5q0 72 -45 101.5t-129 29.5z" />
    <glyph glyph-name="uni0472" unicode="&#x472;" horiz-adv-x="1654" 
d="M827 -29q-334 0 -535.5 211.5t-201.5 577.5t201.5 577t535.5 211t536 -211t202 -577t-202 -577.5t-536 -211.5zM827 1237q-149 0 -244.5 -89.5t-123.5 -252.5h737q-29 164 -124.5 253t-244.5 89zM827 283q154 0 251 94.5t120 267.5h-741q25 -173 121 -267.5t249 -94.5z
" />
    <glyph glyph-name="uni0473" unicode="&#x473;" horiz-adv-x="1277" 
d="M639 -25q-167 0 -294.5 65.5t-202 199.5t-74.5 321t74.5 321t202 199.5t294.5 65.5t294.5 -65.5t202 -199.5t74.5 -321t-74.5 -321t-202 -199.5t-294.5 -65.5zM639 883q-96 0 -156.5 -54.5t-79.5 -162.5h474q-19 108 -79.5 162.5t-158.5 54.5zM639 240q206 0 240 231
h-478q34 -231 238 -231z" />
    <glyph glyph-name="uni0474" unicode="&#x474;" horiz-adv-x="1675" 
d="M1298 997l-327 -997h-416l-539 1520h400l350 -1117l170 590q39 137 83.5 235.5t90 160t102.5 97.5t114.5 49t131.5 13q156 0 234 -47l-43 -317q-63 39 -142 39q-76 0 -121 -49t-88 -177z" />
    <glyph glyph-name="uni0475" unicode="&#x475;" horiz-adv-x="1318" 
d="M1044 700l-237 -700h-381l-412 1122h375l236 -800l116 413q34 121 75 202t92.5 126.5t109 64.5t133.5 19q117 0 184 -33l-28 -291q-48 25 -105 25q-62 0 -96.5 -33.5t-61.5 -114.5z" />
    <glyph glyph-name="uni0490" unicode="&#x490;" horiz-adv-x="1208" 
d="M1182 1214h-670v-1214h-352v1520h706l6 376h310v-682z" />
    <glyph glyph-name="uni0491" unicode="&#x491;" horiz-adv-x="1011" 
d="M971 840h-504v-840h-336v1122h535l8 377h297v-659z" />
    <glyph glyph-name="uni0492" unicode="&#x492;" horiz-adv-x="1275" 
d="M999 604h-419v-604h-353v604h-196v268h196v648h1022v-306h-669v-342h419v-268z" />
    <glyph glyph-name="uni0493" unicode="&#x493;" horiz-adv-x="1073" 
d="M858 399h-315v-399h-336v399h-170v226h170v497h825v-282h-489v-215h315v-226z" />
    <glyph glyph-name="uni0496" unicode="&#x496;" horiz-adv-x="2357" 
d="M956 1520h347v-680l493 680h447v-4l-596 -725l376 -492h295v-711h-315v412h-207l-493 694v-694h-347v694l-493 -694h-455v4l604 778l-596 734v4h447l493 -680v680z" />
    <glyph glyph-name="uni0497" unicode="&#x497;" horiz-adv-x="1959" 
d="M772 1122h326v-495l354 495h408v-4l-439 -532l244 -312h274v-686h-307v412h-172l-362 510v-510h-326v510l-362 -510h-418v4l452 576l-436 538v4h412l352 -495v495z" />
    <glyph glyph-name="uni0498" unicode="&#x498;" horiz-adv-x="1347" 
d="M915 -244q0 -124 -81.5 -190t-225.5 -66q-131 0 -215 37l49 238q51 -31 123 -31q44 0 68 23.5t24 66.5q0 75 -73 137q-301 12 -508 131l55 320q195 -143 467 -143q142 0 213.5 42.5t71.5 135.5q0 83 -68 126.5t-231 43.5h-240v288h231q138 0 209.5 46t71.5 129
q0 151 -250 151q-243 0 -413 -123l-80 307q112 62 259 92.5t294 30.5q281 0 425 -104.5t144 -292.5q0 -137 -76.5 -228t-218.5 -130q322 -68 322 -365q0 -188 -119.5 -300.5t-339.5 -143.5q57 -50 84.5 -103t27.5 -125z" />
    <glyph glyph-name="uni0499" unicode="&#x499;" horiz-adv-x="1144" 
d="M823 -244q0 -124 -81.5 -190t-225.5 -66q-131 0 -215 37l49 238q51 -31 123 -31q44 0 68 23.5t24 66.5q0 75 -80 143q-233 8 -411 99l57 266q80 -53 166 -81t201 -28q211 0 211 117q0 51 -47 78t-170 27h-216v229h211q201 0 201 104q0 101 -180 101q-202 0 -344 -103
l-66 265q95 49 221.5 72.5t251.5 23.5q232 0 352.5 -77t120.5 -222q0 -98 -55.5 -165.5t-159.5 -96.5q238 -55 238 -267q0 -138 -94.5 -222t-265.5 -109q59 -53 87.5 -106t28.5 -126z" />
    <glyph glyph-name="uni049A" unicode="&#x49a;" horiz-adv-x="1652" 
d="M160 1520h352v-680l578 680h450v-4l-678 -719l432 -498h322v-711h-318v412h-204l-582 694v-694h-352v1520z" />
    <glyph glyph-name="uni049B" unicode="&#x49b;" horiz-adv-x="1376" 
d="M131 1122h336v-489l389 489h418v-4l-481 -526l270 -318h293v-686h-307v412h-172l-410 504v-504h-336v1122z" />
    <glyph glyph-name="uni04A0" unicode="&#x4a0;" horiz-adv-x="1810" 
d="M12 1520h768v-680l578 680h450v-4l-678 -719l689 -793v-4h-457l-582 694v-694h-352v1223h-416v297z" />
    <glyph glyph-name="uni04A1" unicode="&#x4a1;" horiz-adv-x="1503" 
d="M41 1122h657v-489l389 489h418v-4l-481 -526l502 -588v-4h-418l-410 504v-504h-336v848h-321v274z" />
    <glyph glyph-name="uni04A2" unicode="&#x4a2;" horiz-adv-x="1710" 
d="M1653 299v-711h-318v412h-237v633h-586v-633h-352v1520h352v-582h586v582h354v-1221h201z" />
    <glyph glyph-name="uni04A3" unicode="&#x4a3;" horiz-adv-x="1437" 
d="M1389 274v-686h-308v412h-217v436h-397v-436h-336v1122h336v-409h397v409h336v-848h189z" />
    <glyph glyph-name="uni04AA" unicode="&#x4aa;" horiz-adv-x="1435" 
d="M1065 -244q0 -124 -81.5 -190t-225.5 -66q-131 0 -215 37l49 238q51 -31 123 -31q44 0 68 23.5t24 66.5q0 79 -84 146q-297 39 -465 243.5t-168 536.5q0 249 95.5 427.5t269 269.5t409.5 91q290 0 475 -139l-69 -324q-155 152 -375 152q-204 0 -316 -126t-112 -349
q0 -232 117.5 -355.5t310.5 -123.5q122 0 223 44t170 111l72 -311q-160 -128 -399 -152q53 -49 78.5 -99.5t25.5 -119.5z" />
    <glyph glyph-name="uni04AB" unicode="&#x4ab;" horiz-adv-x="1085" 
d="M844 -244q0 -124 -81.5 -190t-225.5 -66q-131 0 -215 37l49 238q51 -31 123 -31q44 0 68 23.5t24 66.5q0 84 -94 154q-201 39 -312.5 186.5t-111.5 380.5q0 277 156.5 434.5t422.5 157.5q121 0 217.5 -32.5t159.5 -82.5l-68 -268q-44 48 -113 78t-151 30
q-133 0 -206.5 -82t-73.5 -227q0 -148 75 -230.5t211 -82.5q150 0 273 110l61 -266q-122 -91 -299 -112q56 -50 83.5 -103t27.5 -123z" />
    <glyph glyph-name="uni04AE" unicode="&#x4ae;" horiz-adv-x="1413" 
d="M1421 1520l-538 -973v-547h-355v543l-536 977h414l307 -646l307 646h401z" />
    <glyph glyph-name="uni04AF" unicode="&#x4af;" horiz-adv-x="1251" 
d="M1233 1122l-440 -1073v-483h-336v483l-439 1073h379l240 -751l240 751h356z" />
    <glyph glyph-name="uni04B0" unicode="&#x4b0;" horiz-adv-x="1413" 
d="M1217 336h-334v-336h-355v336h-333v268h301l-504 916h414l307 -646l307 646h401l-506 -916h302v-268z" />
    <glyph glyph-name="uni04B1" unicode="&#x4b1;" horiz-adv-x="1251" 
d="M1073 -147h-280v-287h-336v287h-281v204h277l-435 1065h379l240 -751l240 751h356l-436 -1065h276v-204z" />
    <glyph glyph-name="uni04B2" unicode="&#x4b2;" horiz-adv-x="1603" 
d="M1567 299v-711h-318v412h-205l-307 514l-301 -514h-424l518 764l-503 756h442l291 -496l289 496h421l-503 -742l319 -479h281z" />
    <glyph glyph-name="uni04B3" unicode="&#x4b3;" horiz-adv-x="1323" 
d="M1303 274v-686h-308v412h-172l-211 350l-211 -350h-387v4l408 559l-399 555v4h403l201 -336l200 336h385v-4l-397 -540l217 -304h271z" />
    <glyph glyph-name="uni04B6" unicode="&#x4b6;" horiz-adv-x="1599" 
d="M1536 299v-711h-315v412h-238v543q-167 -72 -360 -72q-250 0 -379 129.5t-129 360.5v559h354v-478q0 -138 58.5 -193.5t191.5 -55.5q166 0 264 57v670h352v-1221h201z" />
    <glyph glyph-name="uni04B7" unicode="&#x4b7;" horiz-adv-x="1357" 
d="M1307 274v-686h-306v412h-219v389q-137 -59 -309 -59q-187 0 -283 94t-96 270v428h336v-342q0 -93 39 -128.5t133 -35.5q115 0 180 35v471h336v-848h189z" />
    <glyph glyph-name="uni04BA" unicode="&#x4ba;" horiz-adv-x="1495" 
d="M512 670v-670h-352v1520h352v-545q168 74 369 74q249 0 374 -129t125 -361v-559h-354v477q0 140 -57 195t-193 55q-171 0 -264 -57z" />
    <glyph glyph-name="uni04BB" unicode="&#x4bb;" horiz-adv-x="1310" 
d="M467 705v-705h-336v1593h336v-624q127 178 346 178q179 0 277 -109.5t98 -308.5v-729h-336v659q0 201 -162 201q-74 0 -133 -41t-90 -114z" />
    <glyph glyph-name="uni04C0" unicode="&#x4c0;" horiz-adv-x="671" 
d="M160 0v1520h352v-1520h-352z" />
    <glyph glyph-name="uni04C1" unicode="&#x4c1;" horiz-adv-x="2258" 
d="M678 1985l266 12q1 -84 52.5 -127t133.5 -43t134 43t53 127l266 -12q-6 -180 -129 -269.5t-324 -89.5t-323.5 89.5t-128.5 269.5zM956 1520h347v-680l493 680h447v-4l-596 -725l604 -787v-4h-455l-493 694v-694h-347v694l-493 -694h-455v4l604 778l-596 734v4h447
l493 -680v680z" />
    <glyph glyph-name="uni04C2" unicode="&#x4c2;" horiz-adv-x="1869" 
d="M516 1647l264 12q3 -209 156 -209t156 209l264 -12q0 -133 -56.5 -224t-149.5 -132.5t-214 -41.5t-214 41.5t-149.5 132.5t-56.5 224zM772 1122h326v-495l354 495h408v-4l-439 -532l457 -582v-4h-418l-362 510v-510h-326v510l-362 -510h-418v4l452 576l-436 538v4h412
l352 -495v495z" />
    <glyph glyph-name="uni04CF" unicode="&#x4cf;" horiz-adv-x="612" 
d="M139 0v1147h336v-1147h-336z" />
    <glyph glyph-name="uni04D0" unicode="&#x4d0;" horiz-adv-x="1574" 
d="M334 1985l266 12q1 -84 52.5 -127t133.5 -43t134 43t53 127l266 -12q-6 -180 -129 -269.5t-324 -89.5t-323.5 89.5t-128.5 269.5zM1167 0l-100 315h-569l-101 -315h-385l549 1520h453l549 -1520h-396zM590 602h385l-193 608z" />
    <glyph glyph-name="uni04D1" unicode="&#x4d1;" horiz-adv-x="1230" 
d="M203 1647l264 12q3 -209 156 -209q152 0 155 209l264 -12q0 -100 -32 -177.5t-89.5 -125t-132.5 -71.5t-165 -24q-121 0 -214 41.5t-149.5 132.5t-56.5 224zM786 0l-4 135q-129 -160 -344 -160q-168 0 -266 92t-98 259q0 189 137.5 281.5t421.5 92.5h137v27
q0 81 -46.5 119.5t-164.5 38.5q-203 0 -364 -111l-54 262q181 111 467 111q263 0 380.5 -103.5t117.5 -298.5v-745h-320zM547 229q77 0 135.5 35t87.5 92v148h-90q-146 0 -213.5 -35t-67.5 -113q0 -63 38.5 -95t109.5 -32z" />
    <glyph glyph-name="uni04D4" unicode="&#x4d4;" horiz-adv-x="2207" 
d="M1047 0v377h-547l-199 -377h-399l839 1520h1348v-295h-705v-297h623v-289h-623v-340h721v-299h-1058zM1047 1231h-97l-297 -565h394v565z" />
    <glyph glyph-name="uni04D5" unicode="&#x4d5;" horiz-adv-x="1921" 
d="M1829 90q-193 -115 -463 -115q-308 0 -457 175q-165 -175 -430 -175q-195 0 -300 91.5t-105 255.5q0 182 134 273t425 91h149v41q0 79 -50.5 118.5t-168.5 39.5q-210 0 -368 -111l-54 262q181 111 465 111q264 0 357 -125q137 125 360 125q114 0 204 -29t148.5 -79
t97 -120.5t54.5 -148t16 -166.5v-133h-745q19 -229 309 -229q202 0 369 110zM1329 905q-95 0 -158.5 -58.5t-72.5 -170.5h424v16q0 92 -45.5 152.5t-147.5 60.5zM555 229q82 0 147 34.5t101 94.5q-16 63 -19 127h-104q-152 0 -216.5 -32t-64.5 -101q0 -123 156 -123z" />
    <glyph glyph-name="uni04D6" unicode="&#x4d6;" horiz-adv-x="1335" 
d="M238 1985l266 12q1 -84 52.5 -127t133.5 -43t134 43t53 127l266 -12q-6 -180 -129 -269.5t-324 -89.5t-323.5 89.5t-128.5 269.5zM1233 299v-299h-1073v1520h1057v-295h-705v-297h623v-289h-623v-340h721z" />
    <glyph glyph-name="uni04D7" unicode="&#x4d7;" horiz-adv-x="1241" 
d="M221 1647l264 12q3 -209 156 -209t156 209l264 -12q0 -133 -56.5 -224t-149.5 -132.5t-214 -41.5t-214 41.5t-149.5 132.5t-56.5 224zM1149 90q-190 -115 -465 -115q-304 0 -460 149t-156 427q0 281 151.5 438.5t419.5 157.5q115 0 206 -29t149.5 -79t97.5 -120.5
t55 -147.5t16 -167v-139h-753q13 -108 87 -165.5t226 -57.5q203 0 373 110zM645 905q-98 0 -163 -60t-72 -175h432v18q0 45 -10 82t-31.5 68.5t-61 49t-94.5 17.5z" />
    <glyph glyph-name="uni04D8" unicode="&#x4d8;" horiz-adv-x="1568" 
d="M1479 762q0 -381 -177.5 -586t-525.5 -205q-146 0 -260.5 37t-192 102.5t-128 160t-73 205t-22.5 241.5q0 77 6 160h998q-11 181 -104 270.5t-304 89.5q-299 0 -485 -160l-92 301q94 72 254 121t356 49q750 0 750 -786zM772 283q144 0 231.5 83t100.5 244h-633v-18
q0 -138 75.5 -223.5t225.5 -85.5z" />
    <glyph glyph-name="uni04D9" unicode="&#x4d9;" horiz-adv-x="1249" 
d="M1182 563q0 -286 -142 -437t-417 -151q-143 0 -248.5 41t-167.5 116t-91.5 172t-29.5 218q0 53 4 135h754q-11 113 -78.5 170.5t-218.5 57.5q-213 0 -375 -111l-53 262q82 50 206 80.5t263 30.5q157 0 272.5 -41t185.5 -119.5t103 -183.5t33 -240zM614 223
q100 0 160.5 58t69.5 172h-436v-19q0 -99 52.5 -155t153.5 -56z" />
    <glyph glyph-name="uni04E2" unicode="&#x4e2;" horiz-adv-x="1638" 
d="M420 1704v221h799v-221h-799zM1135 0v965l-641 -965h-334v1520h346v-965l641 965h334v-1520h-346z" />
    <glyph glyph-name="uni04E3" unicode="&#x4e3;" horiz-adv-x="1351" 
d="M309 1319v219h733v-219h-733zM895 0v670l-446 -670h-318v1122h326v-669l446 669h318v-1122h-326z" />
    <glyph glyph-name="uni04E6" unicode="&#x4e6;" horiz-adv-x="1654" 
d="M934 1671v287h299v-287h-299zM422 1671v287h299v-287h-299zM827 -29q-334 0 -535.5 211.5t-201.5 577.5t201.5 577t535.5 211t536 -211t202 -577t-202 -577.5t-536 -211.5zM827 283q169 0 265 126t96 351q0 224 -96 350.5t-265 126.5t-264.5 -126t-95.5 -351
q0 -224 95.5 -350.5t264.5 -126.5z" />
    <glyph glyph-name="uni04E7" unicode="&#x4e7;" horiz-adv-x="1277" 
d="M735 1286v285h299v-285h-299zM244 1286v285h299v-285h-299zM639 -25q-167 0 -294.5 65.5t-202 199.5t-74.5 321t74.5 321t202 199.5t294.5 65.5t294.5 -65.5t202 -199.5t74.5 -321t-74.5 -321t-202 -199.5t-294.5 -65.5zM639 248q107 0 168 81.5t61 231.5t-61 231.5
t-168 81.5q-106 0 -166.5 -81.5t-60.5 -231.5t60.5 -231.5t166.5 -81.5z" />
    <glyph glyph-name="uni04E8" unicode="&#x4e8;" horiz-adv-x="1654" 
d="M827 -29q-334 0 -535.5 211.5t-201.5 577.5t201.5 577t535.5 211t536 -211t202 -577t-202 -577.5t-536 -211.5zM827 1237q-149 0 -244.5 -89.5t-123.5 -252.5h737q-29 164 -124.5 253t-244.5 89zM827 283q154 0 251 94.5t120 267.5h-741q25 -173 121 -267.5t249 -94.5z
" />
    <glyph glyph-name="uni04E9" unicode="&#x4e9;" horiz-adv-x="1277" 
d="M639 -25q-167 0 -294.5 65.5t-202 199.5t-74.5 321t74.5 321t202 199.5t294.5 65.5t294.5 -65.5t202 -199.5t74.5 -321t-74.5 -321t-202 -199.5t-294.5 -65.5zM639 883q-96 0 -156.5 -54.5t-79.5 -162.5h474q-19 108 -79.5 162.5t-158.5 54.5zM639 240q206 0 240 231
h-478q34 -231 238 -231z" />
    <glyph glyph-name="uni04EE" unicode="&#x4ee;" horiz-adv-x="1456" 
d="M348 1704v221h799v-221h-799zM1018 469q-52 -119 -110 -207.5t-116 -143.5t-126 -88.5t-132.5 -46t-142.5 -12.5q-142 0 -252 37l21 299q74 -28 182 -28q84 0 134 30t93 113l-553 1098h412l352 -807l295 807h398z" />
    <glyph glyph-name="uni04EF" unicode="&#x4ef;" horiz-adv-x="1251" 
d="M268 1319v219h733v-219h-733zM825 12q-53 -144 -110 -238.5t-124.5 -148t-140 -75t-167.5 -21.5q-112 0 -213 33l26 278q79 -28 154 -28q79 0 124 34.5t87 124.5l-441 1151h381l240 -813l240 813h356z" />
    <glyph glyph-name="uni04F2" unicode="&#x4f2;" horiz-adv-x="1456" 
d="M588 1622l-189 80l263 344l266 -117zM1022 1622l-186 80l262 344l264 -117zM1018 469q-52 -119 -110 -207.5t-116 -143.5t-126 -88.5t-132.5 -46t-142.5 -12.5q-142 0 -252 37l21 299q74 -28 182 -28q84 0 134 30t93 113l-553 1098h412l352 -807l295 807h398z" />
    <glyph glyph-name="uni04F3" unicode="&#x4f3;" horiz-adv-x="1251" 
d="M500 1245l-205 53l246 420l272 -76zM911 1245l-202 53l243 420l273 -76zM825 12q-53 -144 -110 -238.5t-124.5 -148t-140 -75t-167.5 -21.5q-112 0 -213 33l26 278q79 -28 154 -28q79 0 124 34.5t87 124.5l-441 1151h381l240 -813l240 813h356z" />
    <glyph glyph-name="uni0E3F" unicode="&#xe3f;" horiz-adv-x="1396" 
d="M584 -201v201h-467v1520h467v196h184v-196h4q253 0 385.5 -101t132.5 -293q0 -263 -258 -333q303 -73 303 -371q0 -94 -31.5 -168t-83.5 -121t-125.5 -77.5t-151.5 -43t-167 -12.5h-8v-201h-184zM434 895h150v352h-150v-352zM958 1073q0 94 -48.5 134t-141.5 40v-352
q91 2 140.5 42.5t49.5 135.5zM434 649v-377h150v377h-150zM768 649v-377q105 0 163 42t58 145q0 102 -56.5 146t-164.5 44z" />
    <glyph glyph-name="Wgrave" unicode="&#x1e80;" horiz-adv-x="2281" 
d="M1204 1622l-454 276l299 148l348 -330zM1409 0l-268 1057l-271 -1057h-401l-440 1520h399l258 -1119l281 1119h364l279 -1114l258 1114h385l-443 -1520h-401z" />
    <glyph glyph-name="wgrave" unicode="&#x1e81;" horiz-adv-x="1886" 
d="M918 1239l-338 401l307 78l239 -428zM1139 0l-195 752l-194 -752h-369l-356 1122h376l179 -800l198 800h342l199 -798l180 798h365l-357 -1122h-368z" />
    <glyph glyph-name="Wacute" unicode="&#x1e82;" horiz-adv-x="2281" 
d="M1077 1622l-192 94l348 330l299 -148zM1409 0l-268 1057l-271 -1057h-401l-440 1520h399l258 -1119l281 1119h364l279 -1114l258 1114h385l-443 -1520h-401z" />
    <glyph glyph-name="wacute" unicode="&#x1e83;" horiz-adv-x="1886" 
d="M983 1239l-209 51l240 428l307 -78zM1139 0l-195 752l-194 -752h-369l-356 1122h376l179 -800l198 800h342l199 -798l180 798h365l-357 -1122h-368z" />
    <glyph glyph-name="Wdieresis" unicode="&#x1e84;" horiz-adv-x="2281" 
d="M1247 1671v287h299v-287h-299zM735 1671v287h299v-287h-299zM1409 0l-268 1057l-271 -1057h-401l-440 1520h399l258 -1119l281 1119h364l279 -1114l258 1114h385l-443 -1520h-401z" />
    <glyph glyph-name="wdieresis" unicode="&#x1e85;" horiz-adv-x="1886" 
d="M1047 1286v285h299v-285h-299zM555 1286v285h299v-285h-299zM1139 0l-195 752l-194 -752h-369l-356 1122h376l179 -800l198 800h342l199 -798l180 798h365l-357 -1122h-368z" />
    <glyph glyph-name="uni1E9E" unicode="&#x1e9e;" horiz-adv-x="1679" 
d="M145 0v911q0 335 172.5 486t540.5 151q200 0 373.5 -40.5t292.5 -118.5l-240 -486q55 -26 98 -53t85 -66.5t69.5 -84.5t44 -107t16.5 -135q0 -103 -32 -190t-95 -154t-164.5 -104.5t-232.5 -37.5q-216 0 -414 103l74 309q150 -109 295 -109q102 0 151.5 49.5t49.5 131.5
q0 43 -12.5 79.5t-40.5 66t-56 51.5t-76 44t-82 35.5t-92 34.5l215 444q-106 35 -245 35q-181 0 -260.5 -82t-79.5 -272v-891h-355z" />
    <glyph glyph-name="uni1EA0" unicode="&#x1ea0;" horiz-adv-x="1574" 
d="M1167 0l-100 315h-569l-101 -315h-385l549 1520h453l549 -1520h-396zM590 602h385l-193 608zM606 -426v285h361v-285h-361z" />
    <glyph glyph-name="uni1EA1" unicode="&#x1ea1;" horiz-adv-x="1230" 
d="M786 0l-4 135q-129 -160 -344 -160q-168 0 -266 92t-98 259q0 189 137.5 281.5t421.5 92.5h137v27q0 81 -46.5 119.5t-164.5 38.5q-203 0 -364 -111l-54 262q181 111 467 111q263 0 380.5 -103.5t117.5 -298.5v-745h-320zM547 229q77 0 135.5 35t87.5 92v148h-90
q-146 0 -213.5 -35t-67.5 -113q0 -63 38.5 -95t109.5 -32zM442 -426v285h361v-285h-361z" />
    <glyph glyph-name="uni1EA2" unicode="&#x1ea2;" horiz-adv-x="1574" 
d="M811 1616l-145 121q94 35 138 67.5t44 71.5q0 57 -90 57q-115 0 -207 -69l-43 200q132 74 289 74q141 0 224 -57t83 -170q0 -105 -74 -171.5t-219 -123.5zM1167 0l-100 315h-569l-101 -315h-385l549 1520h453l549 -1520h-396zM590 602h385l-193 608z" />
    <glyph glyph-name="uni1EA3" unicode="&#x1ea3;" horiz-adv-x="1230" 
d="M647 1221l-145 120q93 33 137.5 66.5t44.5 73.5q0 57 -90 57q-114 0 -207 -72l-43 203q132 74 289 74q140 0 223.5 -57.5t83.5 -169.5q0 -106 -73.5 -172t-219.5 -123zM786 0l-4 135q-129 -160 -344 -160q-168 0 -266 92t-98 259q0 189 137.5 281.5t421.5 92.5h137v27
q0 81 -46.5 119.5t-164.5 38.5q-203 0 -364 -111l-54 262q181 111 467 111q263 0 380.5 -103.5t117.5 -298.5v-745h-320zM547 229q77 0 135.5 35t87.5 92v148h-90q-146 0 -213.5 -35t-67.5 -113q0 -63 38.5 -95t109.5 -32z" />
    <glyph glyph-name="uni1EA4" unicode="&#x1ea4;" horiz-adv-x="1574" 
d="M1204 1946l-172 84l330 329l276 -139zM1239 1665l-295 -35l-158 203l-157 -203l-295 35l315 336h275zM1167 0l-100 315h-569l-101 -315h-385l549 1520h453l549 -1520h-396zM590 602h385l-193 608z" />
    <glyph glyph-name="uni1EA5" unicode="&#x1ea5;" horiz-adv-x="1230" 
d="M1075 1532l-190 47l221 399l283 -69zM1034 1284l-272 -35l-139 219l-140 -219l-272 35l274 354h275zM786 0l-4 135q-129 -160 -344 -160q-168 0 -266 92t-98 259q0 189 137.5 281.5t421.5 92.5h137v27q0 81 -46.5 119.5t-164.5 38.5q-203 0 -364 -111l-54 262
q181 111 467 111q263 0 380.5 -103.5t117.5 -298.5v-745h-320zM547 229q77 0 135.5 35t87.5 92v148h-90q-146 0 -213.5 -35t-67.5 -113q0 -63 38.5 -95t109.5 -32z" />
    <glyph glyph-name="uni1EA6" unicode="&#x1ea6;" horiz-adv-x="1574" 
d="M1210 1946l-434 274l277 139l329 -329zM1239 1665l-295 -35l-158 203l-157 -203l-295 35l315 336h275zM1167 0l-100 315h-569l-101 -315h-385l549 1520h453l549 -1520h-396zM590 602h385l-193 608z" />
    <glyph glyph-name="uni1EA7" unicode="&#x1ea7;" horiz-adv-x="1230" 
d="M1018 1532l-313 377l282 69l221 -399zM1034 1284l-272 -35l-139 219l-140 -219l-272 35l274 354h275zM786 0l-4 135q-129 -160 -344 -160q-168 0 -266 92t-98 259q0 189 137.5 281.5t421.5 92.5h137v27q0 81 -46.5 119.5t-164.5 38.5q-203 0 -364 -111l-54 262
q181 111 467 111q263 0 380.5 -103.5t117.5 -298.5v-745h-320zM547 229q77 0 135.5 35t87.5 92v148h-90q-146 0 -213.5 -35t-67.5 -113q0 -63 38.5 -95t109.5 -32z" />
    <glyph glyph-name="uni1EA8" unicode="&#x1ea8;" horiz-adv-x="1574" 
d="M1176 1913l-136 110q86 31 127 62t41 67q0 54 -84 54q-99 0 -190 -66l-41 189q124 67 266 67q132 0 209.5 -53.5t77.5 -157.5q0 -98 -68 -160t-202 -112zM1239 1665l-295 -35l-158 203l-157 -203l-295 35l315 336h275zM1167 0l-100 315h-569l-101 -315h-385l549 1520h453
l549 -1520h-396zM590 602h385l-193 608z" />
    <glyph glyph-name="uni1EA9" unicode="&#x1ea9;" horiz-adv-x="1230" 
d="M1024 1518l-135 110q87 33 127.5 63t40.5 66q0 53 -84 53q-106 0 -191 -65l-41 190q122 66 267 66q132 0 209 -53.5t77 -157.5q0 -98 -68 -160t-202 -112zM1034 1284l-272 -35l-139 219l-140 -219l-272 35l274 354h275zM786 0l-4 135q-129 -160 -344 -160q-168 0 -266 92
t-98 259q0 189 137.5 281.5t421.5 92.5h137v27q0 81 -46.5 119.5t-164.5 38.5q-203 0 -364 -111l-54 262q181 111 467 111q263 0 380.5 -103.5t117.5 -298.5v-745h-320zM547 229q77 0 135.5 35t87.5 92v148h-90q-146 0 -213.5 -35t-67.5 -113q0 -63 38.5 -95t109.5 -32z" />
    <glyph glyph-name="uni1EAA" unicode="&#x1eaa;" horiz-adv-x="1574" 
d="M604 2056l-225 17q0 151 67 224t179 73q94 0 196 -66q58 -39 88 -39q60 0 60 117l225 -17q0 -151 -67 -225t-179 -74q-57 0 -99 16.5t-97 51.5q-60 37 -88 37q-60 0 -60 -115zM1239 1665l-295 -35l-158 203l-157 -203l-295 35l315 336h275zM1167 0l-100 315h-569
l-101 -315h-385l549 1520h453l549 -1520h-396zM590 602h385l-193 608z" />
    <glyph glyph-name="uni1EAB" unicode="&#x1eab;" horiz-adv-x="1230" 
d="M444 1690l-221 14q0 151 66 225t176 74q55 0 97 -16.5t95 -49.5q59 -39 86 -39q58 0 58 115l221 -14q0 -151 -66 -225t-176 -74q-55 0 -97.5 16t-94.5 49q-59 39 -86 39q-58 0 -58 -114zM1034 1284l-272 -35l-139 219l-140 -219l-272 35l274 354h275zM786 0l-4 135
q-129 -160 -344 -160q-168 0 -266 92t-98 259q0 189 137.5 281.5t421.5 92.5h137v27q0 81 -46.5 119.5t-164.5 38.5q-203 0 -364 -111l-54 262q181 111 467 111q263 0 380.5 -103.5t117.5 -298.5v-745h-320zM547 229q77 0 135.5 35t87.5 92v148h-90q-146 0 -213.5 -35
t-67.5 -113q0 -63 38.5 -95t109.5 -32z" />
    <glyph glyph-name="uni1EAC" unicode="&#x1eac;" horiz-adv-x="1574" 
d="M1245 1665l-299 -35l-160 205l-159 -205l-299 35l321 344h275zM1167 0l-100 315h-569l-101 -315h-385l549 1520h453l549 -1520h-396zM590 602h385l-193 608zM606 -426v285h361v-285h-361z" />
    <glyph glyph-name="uni1EAD" unicode="&#x1ead;" horiz-adv-x="1230" 
d="M1055 1284l-277 -35l-155 271l-156 -271l-277 35l295 416h275zM786 0l-4 135q-129 -160 -344 -160q-168 0 -266 92t-98 259q0 189 137.5 281.5t421.5 92.5h137v27q0 81 -46.5 119.5t-164.5 38.5q-203 0 -364 -111l-54 262q181 111 467 111q263 0 380.5 -103.5
t117.5 -298.5v-745h-320zM547 229q77 0 135.5 35t87.5 92v148h-90q-146 0 -213.5 -35t-67.5 -113q0 -63 38.5 -95t109.5 -32zM442 -426v285h361v-285h-361z" />
    <glyph glyph-name="uni1EAE" unicode="&#x1eae;" horiz-adv-x="1574" 
d="M758 1991l-172 84l329 327l277 -137zM381 1954l244 14q10 -70 53 -105.5t108 -35.5t108.5 35.5t53.5 105.5l244 -14q-15 -158 -126 -243t-280 -85q-168 0 -278 84.5t-127 243.5zM1167 0l-100 315h-569l-101 -315h-385l549 1520h453l549 -1520h-396zM590 602h385l-193 608
z" />
    <glyph glyph-name="uni1EAF" unicode="&#x1eaf;" horiz-adv-x="1230" 
d="M676 1602l-191 47l226 399l282 -72zM223 1585l246 12q23 -147 154 -147q130 0 153 147l246 -12q-26 -165 -132 -250.5t-267 -85.5t-267.5 85.5t-132.5 250.5zM786 0l-4 135q-129 -160 -344 -160q-168 0 -266 92t-98 259q0 189 137.5 281.5t421.5 92.5h137v27
q0 81 -46.5 119.5t-164.5 38.5q-203 0 -364 -111l-54 262q181 111 467 111q263 0 380.5 -103.5t117.5 -298.5v-745h-320zM547 229q77 0 135.5 35t87.5 92v148h-90q-146 0 -213.5 -35t-67.5 -113q0 -63 38.5 -95t109.5 -32z" />
    <glyph glyph-name="uni1EB0" unicode="&#x1eb0;" horiz-adv-x="1574" 
d="M815 1991l-434 274l276 137l330 -327zM381 1954l244 14q10 -70 53 -105.5t108 -35.5t108.5 35.5t53.5 105.5l244 -14q-15 -158 -126 -243t-280 -85q-168 0 -278 84.5t-127 243.5zM1167 0l-100 315h-569l-101 -315h-385l549 1520h453l549 -1520h-396zM590 602h385
l-193 608z" />
    <glyph glyph-name="uni1EB1" unicode="&#x1eb1;" horiz-adv-x="1230" 
d="M569 1602l-317 374l283 72l225 -399zM223 1585l246 12q23 -147 154 -147q130 0 153 147l246 -12q-26 -165 -132 -250.5t-267 -85.5t-267.5 85.5t-132.5 250.5zM786 0l-4 135q-129 -160 -344 -160q-168 0 -266 92t-98 259q0 189 137.5 281.5t421.5 92.5h137v27
q0 81 -46.5 119.5t-164.5 38.5q-203 0 -364 -111l-54 262q181 111 467 111q263 0 380.5 -103.5t117.5 -298.5v-745h-320zM547 229q77 0 135.5 35t87.5 92v148h-90q-146 0 -213.5 -35t-67.5 -113q0 -63 38.5 -95t109.5 -32z" />
    <glyph glyph-name="uni1EB2" unicode="&#x1eb2;" horiz-adv-x="1574" 
d="M791 1962l-134 111q86 32 127 62.5t41 66.5q0 53 -86 53q-96 0 -190 -66l-39 189q121 67 266 67q132 0 209.5 -53.5t77.5 -157.5q0 -51 -19 -92t-57 -73.5t-84.5 -57t-111.5 -49.5zM381 1954l244 14q10 -70 53 -105.5t108 -35.5t108.5 35.5t53.5 105.5l244 -14
q-15 -158 -126 -243t-280 -85q-168 0 -278 84.5t-127 243.5zM1167 0l-100 315h-569l-101 -315h-385l549 1520h453l549 -1520h-396zM590 602h385l-193 608z" />
    <glyph glyph-name="uni1EB3" unicode="&#x1eb3;" horiz-adv-x="1230" 
d="M627 1591l-133 111q87 34 127.5 64t40.5 65q0 53 -87 53q-102 0 -190 -65l-39 190q119 66 266 66q132 0 209.5 -53.5t77.5 -157.5q0 -98 -69 -160.5t-203 -112.5zM223 1585l246 12q23 -147 154 -147q130 0 153 147l246 -12q-26 -165 -132 -250.5t-267 -85.5t-267.5 85.5
t-132.5 250.5zM786 0l-4 135q-129 -160 -344 -160q-168 0 -266 92t-98 259q0 189 137.5 281.5t421.5 92.5h137v27q0 81 -46.5 119.5t-164.5 38.5q-203 0 -364 -111l-54 262q181 111 467 111q263 0 380.5 -103.5t117.5 -298.5v-745h-320zM547 229q77 0 135.5 35t87.5 92v148
h-90q-146 0 -213.5 -35t-67.5 -113q0 -63 38.5 -95t109.5 -32z" />
    <glyph glyph-name="uni1EB4" unicode="&#x1eb4;" horiz-adv-x="1574" 
d="M604 2056l-225 17q0 151 67 224t179 73q58 0 102 -16.5t94 -49.5q59 -39 88 -39q60 0 60 117l225 -17q0 -151 -67 -225t-179 -74q-57 0 -99 16.5t-97 51.5q-60 37 -88 37q-60 0 -60 -115zM381 1954l244 14q10 -70 53 -105.5t108 -35.5t108.5 35.5t53.5 105.5l244 -14
q-15 -158 -126 -243t-280 -85q-168 0 -278 84.5t-127 243.5zM1167 0l-100 315h-569l-101 -315h-385l549 1520h453l549 -1520h-396zM590 602h385l-193 608z" />
    <glyph glyph-name="uni1EB5" unicode="&#x1eb5;" horiz-adv-x="1230" 
d="M444 1690l-221 14q0 151 66 225t176 74q55 0 97 -16.5t95 -49.5q59 -39 86 -39q58 0 58 115l221 -14q0 -151 -66 -225t-176 -74q-55 0 -97.5 16t-94.5 49q-59 39 -86 39q-58 0 -58 -114zM223 1585l246 12q23 -147 154 -147q130 0 153 147l246 -12q-26 -165 -132 -250.5
t-267 -85.5t-267.5 85.5t-132.5 250.5zM786 0l-4 135q-129 -160 -344 -160q-168 0 -266 92t-98 259q0 189 137.5 281.5t421.5 92.5h137v27q0 81 -46.5 119.5t-164.5 38.5q-203 0 -364 -111l-54 262q181 111 467 111q263 0 380.5 -103.5t117.5 -298.5v-745h-320zM547 229
q77 0 135.5 35t87.5 92v148h-90q-146 0 -213.5 -35t-67.5 -113q0 -63 38.5 -95t109.5 -32z" />
    <glyph glyph-name="uni1EB6" unicode="&#x1eb6;" horiz-adv-x="1574" 
d="M379 1985l246 14q4 -83 45.5 -125.5t115.5 -42.5t116 42.5t46 125.5l246 -14q-7 -174 -119.5 -266.5t-288.5 -92.5t-288 92.5t-119 266.5zM1167 0l-100 315h-569l-101 -315h-385l549 1520h453l549 -1520h-396zM590 602h385l-193 608zM606 -426v285h361v-285h-361z" />
    <glyph glyph-name="uni1EB7" unicode="&#x1eb7;" horiz-adv-x="1230" 
d="M215 1647l248 12q3 -101 44.5 -151t115.5 -50t115 50t44 151l248 -12q-7 -191 -119.5 -294.5t-287.5 -103.5t-288 103.5t-120 294.5zM786 0l-4 135q-129 -160 -344 -160q-168 0 -266 92t-98 259q0 189 137.5 281.5t421.5 92.5h137v27q0 81 -46.5 119.5t-164.5 38.5
q-203 0 -364 -111l-54 262q181 111 467 111q263 0 380.5 -103.5t117.5 -298.5v-745h-320zM547 229q77 0 135.5 35t87.5 92v148h-90q-146 0 -213.5 -35t-67.5 -113q0 -63 38.5 -95t109.5 -32zM442 -426v285h361v-285h-361z" />
    <glyph glyph-name="uni1EB8" unicode="&#x1eb8;" horiz-adv-x="1335" 
d="M1233 299v-299h-1073v1520h1057v-295h-705v-297h623v-289h-623v-340h721zM496 -426v285h360v-285h-360z" />
    <glyph glyph-name="uni1EB9" unicode="&#x1eb9;" horiz-adv-x="1241" 
d="M1149 90q-190 -115 -465 -115q-304 0 -460 149t-156 427q0 281 151.5 438.5t419.5 157.5q115 0 206 -29t149.5 -79t97.5 -120.5t55 -147.5t16 -167v-139h-753q13 -108 87 -165.5t226 -57.5q203 0 373 110zM645 905q-98 0 -163 -60t-72 -175h432v18q0 45 -10 82
t-31.5 68.5t-61 49t-94.5 17.5zM461 -426v285h360v-285h-360z" />
    <glyph glyph-name="uni1EBA" unicode="&#x1eba;" horiz-adv-x="1335" 
d="M700 1616l-145 121q94 35 138 67.5t44 71.5q0 57 -90 57q-115 0 -207 -69l-43 200q132 74 289 74q141 0 224 -57t83 -170q0 -105 -74 -171.5t-219 -123.5zM1233 299v-299h-1073v1520h1057v-295h-705v-297h623v-289h-623v-340h721z" />
    <glyph glyph-name="uni1EBB" unicode="&#x1ebb;" horiz-adv-x="1241" 
d="M666 1221l-146 120q93 33 137.5 66.5t44.5 73.5q0 57 -90 57q-113 0 -206 -72l-44 203q132 74 289 74q140 0 223.5 -57.5t83.5 -169.5q0 -106 -73 -172t-219 -123zM1149 90q-190 -115 -465 -115q-304 0 -460 149t-156 427q0 281 151.5 438.5t419.5 157.5q115 0 206 -29
t149.5 -79t97.5 -120.5t55 -147.5t16 -167v-139h-753q13 -108 87 -165.5t226 -57.5q203 0 373 110zM645 905q-98 0 -163 -60t-72 -175h432v18q0 45 -10 82t-31.5 68.5t-61 49t-94.5 17.5z" />
    <glyph glyph-name="uni1EBC" unicode="&#x1ebc;" horiz-adv-x="1335" 
d="M426 1624l-229 16q0 178 76 265.5t200 87.5q111 0 236 -74q86 -51 131 -51q86 0 86 137l229 -16q0 -178 -76 -265.5t-200 -87.5q-104 0 -236 74q-90 51 -131 51q-86 0 -86 -137zM1233 299v-299h-1073v1520h1057v-295h-705v-297h623v-289h-623v-340h721z" />
    <glyph glyph-name="uni1EBD" unicode="&#x1ebd;" horiz-adv-x="1241" 
d="M408 1257l-230 17q0 177 73 264.5t193 87.5q110 0 230 -74q83 -51 123 -51q77 0 77 137l230 -16q0 -179 -73 -265.5t-193 -86.5q-63 0 -115 19t-115 54q-84 50 -123 50q-77 0 -77 -136zM1149 90q-190 -115 -465 -115q-304 0 -460 149t-156 427q0 281 151.5 438.5
t419.5 157.5q115 0 206 -29t149.5 -79t97.5 -120.5t55 -147.5t16 -167v-139h-753q13 -108 87 -165.5t226 -57.5q203 0 373 110zM645 905q-98 0 -163 -60t-72 -175h432v18q0 45 -10 82t-31.5 68.5t-61 49t-94.5 17.5z" />
    <glyph glyph-name="uni1EBE" unicode="&#x1ebe;" horiz-adv-x="1335" 
d="M1094 1946l-172 84l329 329l277 -139zM1128 1665l-294 -35l-158 203l-158 -203l-295 35l316 336h274zM1233 299v-299h-1073v1520h1057v-295h-705v-297h623v-289h-623v-340h721z" />
    <glyph glyph-name="uni1EBF" unicode="&#x1ebf;" horiz-adv-x="1241" 
d="M1094 1532l-191 47l221 399l283 -69zM1053 1284l-273 -35l-139 219l-139 -219l-273 35l275 354h274zM1149 90q-190 -115 -465 -115q-304 0 -460 149t-156 427q0 281 151.5 438.5t419.5 157.5q115 0 206 -29t149.5 -79t97.5 -120.5t55 -147.5t16 -167v-139h-753
q13 -108 87 -165.5t226 -57.5q203 0 373 110zM645 905q-98 0 -163 -60t-72 -175h432v18q0 45 -10 82t-31.5 68.5t-61 49t-94.5 17.5z" />
    <glyph glyph-name="uni1EC0" unicode="&#x1ec0;" horiz-adv-x="1335" 
d="M1100 1946l-434 274l276 139l330 -329zM1128 1665l-294 -35l-158 203l-158 -203l-295 35l316 336h274zM1233 299v-299h-1073v1520h1057v-295h-705v-297h623v-289h-623v-340h721z" />
    <glyph glyph-name="uni1EC1" unicode="&#x1ec1;" horiz-adv-x="1241" 
d="M1036 1532l-313 377l283 69l221 -399zM1053 1284l-273 -35l-139 219l-139 -219l-273 35l275 354h274zM1149 90q-190 -115 -465 -115q-304 0 -460 149t-156 427q0 281 151.5 438.5t419.5 157.5q115 0 206 -29t149.5 -79t97.5 -120.5t55 -147.5t16 -167v-139h-753
q13 -108 87 -165.5t226 -57.5q203 0 373 110zM645 905q-98 0 -163 -60t-72 -175h432v18q0 45 -10 82t-31.5 68.5t-61 49t-94.5 17.5z" />
    <glyph glyph-name="uni1EC2" unicode="&#x1ec2;" horiz-adv-x="1335" 
d="M1065 1913l-135 110q86 31 127 62t41 67q0 54 -84 54q-100 0 -191 -66l-41 189q124 67 267 67q132 0 209 -53.5t77 -157.5q0 -98 -68 -160t-202 -112zM1128 1665l-294 -35l-158 203l-158 -203l-295 35l316 336h274zM1233 299v-299h-1073v1520h1057v-295h-705v-297h623
v-289h-623v-340h721z" />
    <glyph glyph-name="uni1EC3" unicode="&#x1ec3;" horiz-adv-x="1241" 
d="M1042 1518l-135 110q87 33 127.5 63t40.5 66q0 53 -84 53q-105 0 -190 -65l-41 190q122 66 266 66q132 0 209.5 -53.5t77.5 -157.5q0 -98 -68.5 -160t-202.5 -112zM1053 1284l-273 -35l-139 219l-139 -219l-273 35l275 354h274zM1149 90q-190 -115 -465 -115
q-304 0 -460 149t-156 427q0 281 151.5 438.5t419.5 157.5q115 0 206 -29t149.5 -79t97.5 -120.5t55 -147.5t16 -167v-139h-753q13 -108 87 -165.5t226 -57.5q203 0 373 110zM645 905q-98 0 -163 -60t-72 -175h432v18q0 45 -10 82t-31.5 68.5t-61 49t-94.5 17.5z" />
    <glyph glyph-name="uni1EC4" unicode="&#x1ec4;" horiz-adv-x="1335" 
d="M494 2056l-226 17q0 151 67 224t179 73q93 0 197 -66q58 -39 88 -39q59 0 59 117l225 -17q0 -151 -66.5 -225t-178.5 -74q-57 0 -99.5 17t-97.5 51q-60 37 -88 37q-59 0 -59 -115zM1128 1665l-294 -35l-158 203l-158 -203l-295 35l316 336h274zM1233 299v-299h-1073v1520
h1057v-295h-705v-297h623v-289h-623v-340h721z" />
    <glyph glyph-name="uni1EC5" unicode="&#x1ec5;" horiz-adv-x="1241" 
d="M463 1690l-221 14q0 151 65.5 225t175.5 74q55 0 97.5 -16.5t95.5 -49.5q59 -39 86 -39q57 0 57 115l221 -14q0 -151 -65.5 -225t-175.5 -74q-55 0 -98 16t-95 49q-59 39 -86 39q-57 0 -57 -114zM1053 1284l-273 -35l-139 219l-139 -219l-273 35l275 354h274zM1149 90
q-190 -115 -465 -115q-304 0 -460 149t-156 427q0 281 151.5 438.5t419.5 157.5q115 0 206 -29t149.5 -79t97.5 -120.5t55 -147.5t16 -167v-139h-753q13 -108 87 -165.5t226 -57.5q203 0 373 110zM645 905q-98 0 -163 -60t-72 -175h432v18q0 45 -10 82t-31.5 68.5t-61 49
t-94.5 17.5z" />
    <glyph glyph-name="uni1EC6" unicode="&#x1ec6;" horiz-adv-x="1335" 
d="M1135 1665l-299 -35l-160 205l-160 -205l-299 35l322 344h274zM1233 299v-299h-1073v1520h1057v-295h-705v-297h623v-289h-623v-340h721zM496 -426v285h360v-285h-360z" />
    <glyph glyph-name="uni1EC7" unicode="&#x1ec7;" horiz-adv-x="1241" 
d="M1073 1284l-276 -35l-156 271l-156 -271l-276 35l295 416h274zM1149 90q-190 -115 -465 -115q-304 0 -460 149t-156 427q0 281 151.5 438.5t419.5 157.5q115 0 206 -29t149.5 -79t97.5 -120.5t55 -147.5t16 -167v-139h-753q13 -108 87 -165.5t226 -57.5q203 0 373 110z
M645 905q-98 0 -163 -60t-72 -175h432v18q0 45 -10 82t-31.5 68.5t-61 49t-94.5 17.5zM461 -426v285h360v-285h-360z" />
    <glyph glyph-name="uni1EC8" unicode="&#x1ec8;" horiz-adv-x="671" 
d="M360 1616l-145 121q94 35 138 67.5t44 71.5q0 57 -90 57q-115 0 -207 -69l-43 200q132 74 289 74q141 0 224 -57t83 -170q0 -105 -74 -171.5t-219 -123.5zM160 0v1520h352v-1520h-352z" />
    <glyph glyph-name="uni1EC9" unicode="&#x1ec9;" horiz-adv-x="626" 
d="M338 1221l-145 120q93 33 137.5 66.5t44.5 73.5q0 57 -90 57q-114 0 -207 -72l-43 203q132 74 289 74q140 0 223.5 -57.5t83.5 -169.5q0 -106 -73.5 -172t-219.5 -123zM147 0v1122h336v-1122h-336z" />
    <glyph glyph-name="uni1ECA" unicode="&#x1eca;" horiz-adv-x="671" 
d="M160 0v1520h352v-1520h-352zM156 -426v285h360v-285h-360z" />
    <glyph glyph-name="uni1ECB" unicode="&#x1ecb;" horiz-adv-x="604" 
d="M123 1286v285h358v-285h-358zM135 0v1122h336v-1122h-336zM123 -426v285h360v-285h-360z" />
    <glyph glyph-name="uni1ECC" unicode="&#x1ecc;" horiz-adv-x="1654" 
d="M827 -29q-334 0 -535.5 211.5t-201.5 577.5t201.5 577t535.5 211t536 -211t202 -577t-202 -577.5t-536 -211.5zM827 283q169 0 265 126t96 351q0 224 -96 350.5t-265 126.5t-264.5 -126t-95.5 -351q0 -224 95.5 -350.5t264.5 -126.5zM647 -426v285h361v-285h-361z" />
    <glyph glyph-name="uni1ECD" unicode="&#x1ecd;" horiz-adv-x="1277" 
d="M639 -25q-167 0 -294.5 65.5t-202 199.5t-74.5 321t74.5 321t202 199.5t294.5 65.5t294.5 -65.5t202 -199.5t74.5 -321t-74.5 -321t-202 -199.5t-294.5 -65.5zM639 248q107 0 168 81.5t61 231.5t-61 231.5t-168 81.5q-106 0 -166.5 -81.5t-60.5 -231.5t60.5 -231.5
t166.5 -81.5zM459 -426v285h360v-285h-360z" />
    <glyph glyph-name="uni1ECE" unicode="&#x1ece;" horiz-adv-x="1654" 
d="M852 1616l-145 121q94 35 138 67.5t44 71.5q0 57 -90 57q-115 0 -207 -69l-43 200q132 74 289 74q141 0 224 -57t83 -170q0 -105 -74 -171.5t-219 -123.5zM827 -29q-334 0 -535.5 211.5t-201.5 577.5t201.5 577t535.5 211t536 -211t202 -577t-202 -577.5t-536 -211.5z
M827 283q169 0 265 126t96 351q0 224 -96 350.5t-265 126.5t-264.5 -126t-95.5 -351q0 -224 95.5 -350.5t264.5 -126.5z" />
    <glyph glyph-name="uni1ECF" unicode="&#x1ecf;" horiz-adv-x="1277" 
d="M664 1221l-146 120q93 33 137.5 66.5t44.5 73.5q0 57 -90 57q-114 0 -207 -72l-43 203q132 74 289 74q140 0 223.5 -57.5t83.5 -169.5q0 -106 -73 -172t-219 -123zM639 -25q-167 0 -294.5 65.5t-202 199.5t-74.5 321t74.5 321t202 199.5t294.5 65.5t294.5 -65.5
t202 -199.5t74.5 -321t-74.5 -321t-202 -199.5t-294.5 -65.5zM639 248q107 0 168 81.5t61 231.5t-61 231.5t-168 81.5q-106 0 -166.5 -81.5t-60.5 -231.5t60.5 -231.5t166.5 -81.5z" />
    <glyph glyph-name="uni1ED0" unicode="&#x1ed0;" horiz-adv-x="1654" 
d="M1245 1946l-172 84l330 329l276 -139zM1280 1665l-295 -35l-158 203l-157 -203l-295 35l315 336h275zM827 -29q-334 0 -535.5 211.5t-201.5 577.5t201.5 577t535.5 211t536 -211t202 -577t-202 -577.5t-536 -211.5zM827 283q169 0 265 126t96 351q0 224 -96 350.5
t-265 126.5t-264.5 -126t-95.5 -351q0 -224 95.5 -350.5t264.5 -126.5z" />
    <glyph glyph-name="uni1ED1" unicode="&#x1ed1;" horiz-adv-x="1277" 
d="M1092 1532l-191 47l221 399l283 -69zM1051 1284l-273 -35l-139 219l-139 -219l-273 35l275 354h274zM639 -25q-167 0 -294.5 65.5t-202 199.5t-74.5 321t74.5 321t202 199.5t294.5 65.5t294.5 -65.5t202 -199.5t74.5 -321t-74.5 -321t-202 -199.5t-294.5 -65.5zM639 248
q107 0 168 81.5t61 231.5t-61 231.5t-168 81.5q-106 0 -166.5 -81.5t-60.5 -231.5t60.5 -231.5t166.5 -81.5z" />
    <glyph glyph-name="uni1ED2" unicode="&#x1ed2;" horiz-adv-x="1654" 
d="M1251 1946l-434 274l277 139l329 -329zM1280 1665l-295 -35l-158 203l-157 -203l-295 35l315 336h275zM827 -29q-334 0 -535.5 211.5t-201.5 577.5t201.5 577t535.5 211t536 -211t202 -577t-202 -577.5t-536 -211.5zM827 283q169 0 265 126t96 351q0 224 -96 350.5
t-265 126.5t-264.5 -126t-95.5 -351q0 -224 95.5 -350.5t264.5 -126.5z" />
    <glyph glyph-name="uni1ED3" unicode="&#x1ed3;" horiz-adv-x="1277" 
d="M1034 1532l-313 377l283 69l221 -399zM1051 1284l-273 -35l-139 219l-139 -219l-273 35l275 354h274zM639 -25q-167 0 -294.5 65.5t-202 199.5t-74.5 321t74.5 321t202 199.5t294.5 65.5t294.5 -65.5t202 -199.5t74.5 -321t-74.5 -321t-202 -199.5t-294.5 -65.5zM639 248
q107 0 168 81.5t61 231.5t-61 231.5t-168 81.5q-106 0 -166.5 -81.5t-60.5 -231.5t60.5 -231.5t166.5 -81.5z" />
    <glyph glyph-name="uni1ED4" unicode="&#x1ed4;" horiz-adv-x="1654" 
d="M1217 1913l-136 110q86 31 127 62t41 67q0 54 -84 54q-99 0 -190 -66l-41 189q124 67 266 67q132 0 209.5 -53.5t77.5 -157.5q0 -98 -68 -160t-202 -112zM1280 1665l-295 -35l-158 203l-157 -203l-295 35l315 336h275zM827 -29q-334 0 -535.5 211.5t-201.5 577.5
t201.5 577t535.5 211t536 -211t202 -577t-202 -577.5t-536 -211.5zM827 283q169 0 265 126t96 351q0 224 -96 350.5t-265 126.5t-264.5 -126t-95.5 -351q0 -224 95.5 -350.5t264.5 -126.5z" />
    <glyph glyph-name="uni1ED5" unicode="&#x1ed5;" horiz-adv-x="1277" 
d="M1040 1518l-135 110q87 33 127.5 63t40.5 66q0 53 -84 53q-105 0 -190 -65l-41 190q122 66 266 66q132 0 209.5 -53.5t77.5 -157.5q0 -98 -68.5 -160t-202.5 -112zM1051 1284l-273 -35l-139 219l-139 -219l-273 35l275 354h274zM639 -25q-167 0 -294.5 65.5t-202 199.5
t-74.5 321t74.5 321t202 199.5t294.5 65.5t294.5 -65.5t202 -199.5t74.5 -321t-74.5 -321t-202 -199.5t-294.5 -65.5zM639 248q107 0 168 81.5t61 231.5t-61 231.5t-168 81.5q-106 0 -166.5 -81.5t-60.5 -231.5t60.5 -231.5t166.5 -81.5z" />
    <glyph glyph-name="uni1ED6" unicode="&#x1ed6;" horiz-adv-x="1654" 
d="M645 2056l-225 17q0 151 67 224t179 73q94 0 196 -66q58 -39 88 -39q60 0 60 117l225 -17q0 -151 -67 -225t-179 -74q-57 0 -99 16.5t-97 51.5q-60 37 -88 37q-60 0 -60 -115zM1280 1665l-295 -35l-158 203l-157 -203l-295 35l315 336h275zM827 -29q-334 0 -535.5 211.5
t-201.5 577.5t201.5 577t535.5 211t536 -211t202 -577t-202 -577.5t-536 -211.5zM827 283q169 0 265 126t96 351q0 224 -96 350.5t-265 126.5t-264.5 -126t-95.5 -351q0 -224 95.5 -350.5t264.5 -126.5z" />
    <glyph glyph-name="uni1ED7" unicode="&#x1ed7;" horiz-adv-x="1277" 
d="M461 1690l-221 14q0 151 65.5 225t175.5 74q55 0 97.5 -16.5t95.5 -49.5q59 -39 86 -39q57 0 57 115l221 -14q0 -151 -65.5 -225t-175.5 -74q-55 0 -98 16t-95 49q-59 39 -86 39q-57 0 -57 -114zM1051 1284l-273 -35l-139 219l-139 -219l-273 35l275 354h274zM639 -25
q-167 0 -294.5 65.5t-202 199.5t-74.5 321t74.5 321t202 199.5t294.5 65.5t294.5 -65.5t202 -199.5t74.5 -321t-74.5 -321t-202 -199.5t-294.5 -65.5zM639 248q107 0 168 81.5t61 231.5t-61 231.5t-168 81.5q-106 0 -166.5 -81.5t-60.5 -231.5t60.5 -231.5t166.5 -81.5z" />
    <glyph glyph-name="uni1ED8" unicode="&#x1ed8;" horiz-adv-x="1654" 
d="M1286 1665l-299 -35l-160 205l-159 -205l-299 35l321 344h275zM827 -29q-334 0 -535.5 211.5t-201.5 577.5t201.5 577t535.5 211t536 -211t202 -577t-202 -577.5t-536 -211.5zM827 283q169 0 265 126t96 351q0 224 -96 350.5t-265 126.5t-264.5 -126t-95.5 -351
q0 -224 95.5 -350.5t264.5 -126.5zM647 -426v285h361v-285h-361z" />
    <glyph glyph-name="uni1ED9" unicode="&#x1ed9;" horiz-adv-x="1277" 
d="M1071 1284l-276 -35l-156 271l-156 -271l-276 35l295 416h274zM639 -25q-167 0 -294.5 65.5t-202 199.5t-74.5 321t74.5 321t202 199.5t294.5 65.5t294.5 -65.5t202 -199.5t74.5 -321t-74.5 -321t-202 -199.5t-294.5 -65.5zM639 248q107 0 168 81.5t61 231.5t-61 231.5
t-168 81.5q-106 0 -166.5 -81.5t-60.5 -231.5t60.5 -231.5t166.5 -81.5zM459 -426v285h360v-285h-360z" />
    <glyph glyph-name="uni1EDA" unicode="&#x1eda;" horiz-adv-x="1667" 
d="M764 1622l-193 94l349 330l299 -148zM1565 760q0 -366 -202 -577.5t-536 -211.5t-535.5 211.5t-201.5 577.5t201.5 577t535.5 211q166 0 299 -53h17q97 0 138.5 45t41.5 133q0 42 -12 96h288q15 -73 15 -127q0 -261 -238 -319q189 -211 189 -563zM827 283q169 0 265 126
t96 351q0 224 -96 350.5t-265 126.5t-264.5 -126t-95.5 -351q0 -224 95.5 -350.5t264.5 -126.5z" />
    <glyph glyph-name="uni1EDB" unicode="&#x1edb;" horiz-adv-x="1331" 
d="M672 1239l-209 51l239 428l308 -78zM1210 561q0 -187 -74.5 -321t-202 -199.5t-294.5 -65.5t-294.5 65.5t-202 199.5t-74.5 321t74.5 321t202 199.5t294.5 65.5q139 0 254 -47q81 6 116 50.5t35 125.5q0 42 -12 96h287q14 -68 14 -127q0 -254 -225 -317
q102 -145 102 -367zM639 248q107 0 168 81.5t61 231.5t-61 231.5t-168 81.5q-106 0 -166.5 -81.5t-60.5 -231.5t60.5 -231.5t166.5 -81.5z" />
    <glyph glyph-name="uni1EDC" unicode="&#x1edc;" horiz-adv-x="1667" 
d="M891 1622l-455 276l299 148l348 -330zM1565 760q0 -366 -202 -577.5t-536 -211.5t-535.5 211.5t-201.5 577.5t201.5 577t535.5 211q166 0 299 -53h17q97 0 138.5 45t41.5 133q0 42 -12 96h288q15 -73 15 -127q0 -261 -238 -319q189 -211 189 -563zM827 283q169 0 265 126
t96 351q0 224 -96 350.5t-265 126.5t-264.5 -126t-95.5 -351q0 -224 95.5 -350.5t264.5 -126.5z" />
    <glyph glyph-name="uni1EDD" unicode="&#x1edd;" horiz-adv-x="1331" 
d="M606 1239l-338 401l307 78l240 -428zM1210 561q0 -187 -74.5 -321t-202 -199.5t-294.5 -65.5t-294.5 65.5t-202 199.5t-74.5 321t74.5 321t202 199.5t294.5 65.5q139 0 254 -47q81 6 116 50.5t35 125.5q0 42 -12 96h287q14 -68 14 -127q0 -254 -225 -317
q102 -145 102 -367zM639 248q107 0 168 81.5t61 231.5t-61 231.5t-168 81.5q-106 0 -166.5 -81.5t-60.5 -231.5t60.5 -231.5t166.5 -81.5z" />
    <glyph glyph-name="uni1EDE" unicode="&#x1ede;" horiz-adv-x="1667" 
d="M852 1616l-145 121q94 35 138 67.5t44 71.5q0 57 -90 57q-115 0 -207 -69l-43 200q132 74 289 74q141 0 224 -57t83 -170q0 -105 -74 -171.5t-219 -123.5zM1565 760q0 -366 -202 -577.5t-536 -211.5t-535.5 211.5t-201.5 577.5t201.5 577t535.5 211q166 0 299 -53h17
q97 0 138.5 45t41.5 133q0 42 -12 96h288q15 -73 15 -127q0 -261 -238 -319q189 -211 189 -563zM827 283q169 0 265 126t96 351q0 224 -96 350.5t-265 126.5t-264.5 -126t-95.5 -351q0 -224 95.5 -350.5t264.5 -126.5z" />
    <glyph glyph-name="uni1EDF" unicode="&#x1edf;" horiz-adv-x="1331" 
d="M664 1221l-146 120q93 33 137.5 66.5t44.5 73.5q0 57 -90 57q-114 0 -207 -72l-43 203q132 74 289 74q140 0 223.5 -57.5t83.5 -169.5q0 -106 -73 -172t-219 -123zM1210 561q0 -187 -74.5 -321t-202 -199.5t-294.5 -65.5t-294.5 65.5t-202 199.5t-74.5 321t74.5 321
t202 199.5t294.5 65.5q139 0 254 -47q81 6 116 50.5t35 125.5q0 42 -12 96h287q14 -68 14 -127q0 -254 -225 -317q102 -145 102 -367zM639 248q107 0 168 81.5t61 231.5t-61 231.5t-168 81.5q-106 0 -166.5 -81.5t-60.5 -231.5t60.5 -231.5t166.5 -81.5z" />
    <glyph glyph-name="uni1EE0" unicode="&#x1ee0;" horiz-adv-x="1667" 
d="M578 1665l-230 16q0 178 76.5 265.5t200.5 87.5q112 0 235 -74q84 -51 131 -51q86 0 86 137l230 -16q0 -178 -76.5 -265.5t-200.5 -87.5q-103 0 -235 74q-86 51 -131 51q-86 0 -86 -137zM1565 760q0 -366 -202 -577.5t-536 -211.5t-535.5 211.5t-201.5 577.5t201.5 577
t535.5 211q166 0 299 -53h17q97 0 138.5 45t41.5 133q0 42 -12 96h288q15 -73 15 -127q0 -261 -238 -319q189 -211 189 -563zM827 283q169 0 265 126t96 351q0 224 -96 350.5t-265 126.5t-264.5 -126t-95.5 -351q0 -224 95.5 -350.5t264.5 -126.5z" />
    <glyph glyph-name="uni1EE1" unicode="&#x1ee1;" horiz-adv-x="1331" 
d="M406 1356l-230 16q0 177 73 264.5t193 87.5q110 0 230 -73q84 -52 123 -52q77 0 77 138l230 -17q0 -179 -73 -265.5t-193 -86.5q-101 0 -230 74q-85 49 -123 49t-57.5 -31.5t-19.5 -103.5zM1210 561q0 -187 -74.5 -321t-202 -199.5t-294.5 -65.5t-294.5 65.5t-202 199.5
t-74.5 321t74.5 321t202 199.5t294.5 65.5q139 0 254 -47q81 6 116 50.5t35 125.5q0 42 -12 96h287q14 -68 14 -127q0 -254 -225 -317q102 -145 102 -367zM639 248q107 0 168 81.5t61 231.5t-61 231.5t-168 81.5q-106 0 -166.5 -81.5t-60.5 -231.5t60.5 -231.5t166.5 -81.5z
" />
    <glyph glyph-name="uni1EE2" unicode="&#x1ee2;" horiz-adv-x="1667" 
d="M1565 760q0 -366 -202 -577.5t-536 -211.5t-535.5 211.5t-201.5 577.5t201.5 577t535.5 211q166 0 299 -53h17q97 0 138.5 45t41.5 133q0 42 -12 96h288q15 -73 15 -127q0 -261 -238 -319q189 -211 189 -563zM827 283q169 0 265 126t96 351q0 224 -96 350.5t-265 126.5
t-264.5 -126t-95.5 -351q0 -224 95.5 -350.5t264.5 -126.5zM647 -426v285h361v-285h-361z" />
    <glyph glyph-name="uni1EE3" unicode="&#x1ee3;" horiz-adv-x="1331" 
d="M1210 561q0 -187 -74.5 -321t-202 -199.5t-294.5 -65.5t-294.5 65.5t-202 199.5t-74.5 321t74.5 321t202 199.5t294.5 65.5q139 0 254 -47q81 6 116 50.5t35 125.5q0 42 -12 96h287q14 -68 14 -127q0 -254 -225 -317q102 -145 102 -367zM639 248q107 0 168 81.5t61 231.5
t-61 231.5t-168 81.5q-106 0 -166.5 -81.5t-60.5 -231.5t60.5 -231.5t166.5 -81.5zM459 -426v285h360v-285h-360z" />
    <glyph glyph-name="uni1EE4" unicode="&#x1ee4;" horiz-adv-x="1576" 
d="M145 610v910h355v-906q0 -163 75.5 -247t217.5 -84t217 84t75 247v906h347v-910q0 -313 -164 -476t-484 -163q-319 0 -479 162.5t-160 476.5zM608 -426v285h361v-285h-361z" />
    <glyph glyph-name="uni1EE5" unicode="&#x1ee5;" horiz-adv-x="1310" 
d="M862 0l-4 170q-119 -195 -356 -195q-180 0 -278.5 109t-98.5 309v729h336v-659q0 -201 164 -201q83 0 138 45.5t83 114.5v700h336v-1122h-320zM475 -426v285h361v-285h-361z" />
    <glyph glyph-name="uni1EE6" unicode="&#x1ee6;" horiz-adv-x="1576" 
d="M813 1616l-145 121q94 35 138 67.5t44 71.5q0 57 -90 57q-115 0 -207 -69l-43 200q132 74 289 74q141 0 224 -57t83 -170q0 -105 -74 -171.5t-219 -123.5zM145 610v910h355v-906q0 -163 75.5 -247t217.5 -84t217 84t75 247v906h347v-910q0 -313 -164 -476t-484 -163
q-319 0 -479 162.5t-160 476.5z" />
    <glyph glyph-name="uni1EE7" unicode="&#x1ee7;" horiz-adv-x="1310" 
d="M680 1221l-145 120q93 33 137.5 66.5t44.5 73.5q0 57 -90 57q-114 0 -207 -72l-43 203q132 74 289 74q140 0 223.5 -57.5t83.5 -169.5q0 -106 -73.5 -172t-219.5 -123zM862 0l-4 170q-119 -195 -356 -195q-180 0 -278.5 109t-98.5 309v729h336v-659q0 -201 164 -201
q83 0 138 45.5t83 114.5v700h336v-1122h-320z" />
    <glyph glyph-name="uni1EE8" unicode="&#x1ee8;" horiz-adv-x="1642" 
d="M725 1622l-193 94l349 330l299 -148zM1085 614v906h168q82 0 113 39t31 114q0 47 -11 96h287q15 -73 15 -127q0 -264 -256 -307v-725q0 -313 -164 -476t-484 -163q-319 0 -479 162.5t-160 476.5v910h355v-906q0 -163 75.5 -247t217.5 -84t217 84t75 247z" />
    <glyph glyph-name="uni1EE9" unicode="&#x1ee9;" horiz-adv-x="1406" 
d="M688 1239l-209 51l240 428l307 -78zM846 422v700h164q68 0 102.5 35t34.5 119q0 42 -12 96h288q15 -73 15 -127q0 -266 -256 -307v-938h-320l-4 170q-119 -195 -356 -195q-180 0 -278.5 109t-98.5 309v729h336v-659q0 -201 164 -201q83 0 138 45.5t83 114.5z" />
    <glyph glyph-name="uni1EEA" unicode="&#x1eea;" horiz-adv-x="1642" 
d="M852 1622l-455 276l299 148l348 -330zM1085 614v906h168q82 0 113 39t31 114q0 47 -11 96h287q15 -73 15 -127q0 -264 -256 -307v-725q0 -313 -164 -476t-484 -163q-319 0 -479 162.5t-160 476.5v910h355v-906q0 -163 75.5 -247t217.5 -84t217 84t75 247z" />
    <glyph glyph-name="uni1EEB" unicode="&#x1eeb;" horiz-adv-x="1406" 
d="M623 1239l-338 401l307 78l239 -428zM846 422v700h164q68 0 102.5 35t34.5 119q0 42 -12 96h288q15 -73 15 -127q0 -266 -256 -307v-938h-320l-4 170q-119 -195 -356 -195q-180 0 -278.5 109t-98.5 309v729h336v-659q0 -201 164 -201q83 0 138 45.5t83 114.5z" />
    <glyph glyph-name="uni1EEC" unicode="&#x1eec;" horiz-adv-x="1642" 
d="M813 1616l-145 121q94 35 138 67.5t44 71.5q0 57 -90 57q-115 0 -207 -69l-43 200q132 74 289 74q141 0 224 -57t83 -170q0 -105 -74 -171.5t-219 -123.5zM1085 614v906h168q82 0 113 39t31 114q0 47 -11 96h287q15 -73 15 -127q0 -264 -256 -307v-725q0 -313 -164 -476
t-484 -163q-319 0 -479 162.5t-160 476.5v910h355v-906q0 -163 75.5 -247t217.5 -84t217 84t75 247z" />
    <glyph glyph-name="uni1EED" unicode="&#x1eed;" horiz-adv-x="1406" 
d="M680 1221l-145 120q93 33 137.5 66.5t44.5 73.5q0 57 -90 57q-114 0 -207 -72l-43 203q132 74 289 74q140 0 223.5 -57.5t83.5 -169.5q0 -106 -73.5 -172t-219.5 -123zM846 422v700h164q68 0 102.5 35t34.5 119q0 42 -12 96h288q15 -73 15 -127q0 -266 -256 -307v-938
h-320l-4 170q-119 -195 -356 -195q-180 0 -278.5 109t-98.5 309v729h336v-659q0 -201 164 -201q83 0 138 45.5t83 114.5z" />
    <glyph glyph-name="uni1EEE" unicode="&#x1eee;" horiz-adv-x="1642" 
d="M539 1665l-230 16q0 178 76.5 265.5t200.5 87.5q107 0 235 -74q87 -51 131 -51q86 0 86 137l230 -16q0 -178 -76.5 -265.5t-200.5 -87.5q-108 0 -235 74q-85 51 -131 51q-86 0 -86 -137zM1085 614v906h168q82 0 113 39t31 114q0 47 -11 96h287q15 -73 15 -127
q0 -264 -256 -307v-725q0 -313 -164 -476t-484 -163q-319 0 -479 162.5t-160 476.5v910h355v-906q0 -163 75.5 -247t217.5 -84t217 84t75 247z" />
    <glyph glyph-name="uni1EEF" unicode="&#x1eef;" horiz-adv-x="1406" 
d="M422 1356l-229 16q0 177 73 264.5t193 87.5q109 0 229 -73q84 -52 123 -52q78 0 78 138l229 -17q0 -179 -73 -265.5t-193 -86.5q-43 0 -87 12t-72.5 25.5t-69.5 36.5q-85 49 -123 49q-78 0 -78 -135zM846 422v700h164q68 0 102.5 35t34.5 119q0 42 -12 96h288
q15 -73 15 -127q0 -266 -256 -307v-938h-320l-4 170q-119 -195 -356 -195q-180 0 -278.5 109t-98.5 309v729h336v-659q0 -201 164 -201q83 0 138 45.5t83 114.5z" />
    <glyph glyph-name="uni1EF0" unicode="&#x1ef0;" horiz-adv-x="1642" 
d="M1085 614v906h168q82 0 113 39t31 114q0 47 -11 96h287q15 -73 15 -127q0 -264 -256 -307v-725q0 -313 -164 -476t-484 -163q-319 0 -479 162.5t-160 476.5v910h355v-906q0 -163 75.5 -247t217.5 -84t217 84t75 247zM608 -426v285h361v-285h-361z" />
    <glyph glyph-name="uni1EF1" unicode="&#x1ef1;" horiz-adv-x="1406" 
d="M846 422v700h164q68 0 102.5 35t34.5 119q0 42 -12 96h288q15 -73 15 -127q0 -266 -256 -307v-938h-320l-4 170q-119 -195 -356 -195q-180 0 -278.5 109t-98.5 309v729h336v-659q0 -201 164 -201q83 0 138 45.5t83 114.5zM475 -426v285h361v-285h-361z" />
    <glyph glyph-name="Ygrave" unicode="&#x1ef2;" horiz-adv-x="1413" 
d="M770 1622l-455 276l299 148l349 -330zM1421 1520l-538 -973v-547h-355v543l-536 977h414l307 -646l307 646h401z" />
    <glyph glyph-name="ygrave" unicode="&#x1ef3;" horiz-adv-x="1251" 
d="M602 1239l-338 401l307 78l240 -428zM825 12q-53 -144 -110 -238.5t-124.5 -148t-140 -75t-167.5 -21.5q-112 0 -213 33l26 278q79 -28 154 -28q79 0 124 34.5t87 124.5l-441 1151h381l240 -813l240 813h356z" />
    <glyph glyph-name="uni1EF4" unicode="&#x1ef4;" horiz-adv-x="1413" 
d="M1421 1520l-538 -973v-547h-355v543l-536 977h414l307 -646l307 646h401zM526 -426v285h361v-285h-361z" />
    <glyph glyph-name="uni1EF5" unicode="&#x1ef5;" horiz-adv-x="1251" 
d="M825 12q-53 -144 -110 -238.5t-124.5 -148t-140 -75t-167.5 -21.5q-112 0 -213 33l26 278q79 -28 154 -28q79 0 124 34.5t87 124.5l-441 1151h381l240 -813l240 813h356zM842 -426v285h360v-285h-360z" />
    <glyph glyph-name="uni1EF6" unicode="&#x1ef6;" horiz-adv-x="1413" 
d="M731 1616l-145 121q94 35 138 67.5t44 71.5q0 57 -90 57q-115 0 -207 -69l-43 200q132 74 289 74q141 0 224 -57t83 -170q0 -105 -74 -171.5t-219 -123.5zM1421 1520l-538 -973v-547h-355v543l-536 977h414l307 -646l307 646h401z" />
    <glyph glyph-name="uni1EF7" unicode="&#x1ef7;" horiz-adv-x="1251" 
d="M659 1221l-145 120q93 33 137.5 66.5t44.5 73.5q0 57 -90 57q-114 0 -207 -72l-43 203q132 74 289 74q140 0 223.5 -57.5t83.5 -169.5q0 -106 -73.5 -172t-219.5 -123zM825 12q-53 -144 -110 -238.5t-124.5 -148t-140 -75t-167.5 -21.5q-112 0 -213 33l26 278
q79 -28 154 -28q79 0 124 34.5t87 124.5l-441 1151h381l240 -813l240 813h356z" />
    <glyph glyph-name="uni1EF8" unicode="&#x1ef8;" horiz-adv-x="1413" 
d="M457 1624l-230 16q0 178 76.5 265.5t200.5 87.5q110 0 235 -74q86 -51 131 -51q86 0 86 137l230 -16q0 -178 -76.5 -265.5t-200.5 -87.5q-106 0 -235 74q-87 51 -131 51q-86 0 -86 -137zM1421 1520l-538 -973v-547h-355v543l-536 977h414l307 -646l307 646h401z" />
    <glyph glyph-name="uni1EF9" unicode="&#x1ef9;" horiz-adv-x="1251" 
d="M401 1257l-229 17q0 177 73 264.5t193 87.5q108 0 230 -74q83 -51 123 -51q77 0 77 137l230 -16q0 -178 -73.5 -265t-193.5 -87q-62 0 -114.5 19t-114.5 54q-87 50 -123 50q-78 0 -78 -136zM825 12q-53 -144 -110 -238.5t-124.5 -148t-140 -75t-167.5 -21.5
q-112 0 -213 33l26 278q79 -28 154 -28q79 0 124 34.5t87 124.5l-441 1151h381l240 -813l240 813h356z" />
    <glyph glyph-name="uni2002" unicode="&#x2002;" horiz-adv-x="1024" 
 />
    <glyph glyph-name="uni2003" unicode="&#x2003;" horiz-adv-x="2048" 
 />
    <glyph glyph-name="uni2004" unicode="&#x2004;" horiz-adv-x="681" 
 />
    <glyph glyph-name="uni2005" unicode="&#x2005;" horiz-adv-x="512" 
 />
    <glyph glyph-name="uni2006" unicode="&#x2006;" horiz-adv-x="339" 
 />
    <glyph glyph-name="uni2007" unicode="&#x2007;" 
 />
    </font>
</defs>
</svg>
