<?xml version="1.0" standalone="no"?>
<!DOCTYPE svg PUBLIC "-//W3C//DTD SVG 1.1//EN" "http://www.w3.org/Graphics/SVG/1.1/DTD/svg11.dtd" >
<svg xmlns="http://www.w3.org/2000/svg" xmlns:xlink="http://www.w3.org/1999/xlink" version="1.1">
<metadata>
Created by FontForge 20170731 at Tue Jul 21 14:26:12 2020
 By Aleksey,,,
Copyright (c) 2018 by Morisawa In.. All rights reserved.
</metadata>
<defs>
<font id="ClarimoUDPE-LightItalic" horiz-adv-x="1290" >
  <font-face 
    font-family="Clarimo UD PE Light"
    font-weight="300"
    font-style="italic"
    font-stretch="normal"
    units-per-em="2048"
    panose-1="2 11 4 0 0 0 0 0 0 0"
    ascent="1593"
    descent="-455"
    x-height="1075"
    cap-height="1520"
    bbox="-545 -522 2646 2376"
    underline-thickness="102"
    underline-position="-409"
    slope="-11"
    unicode-range="U+0020-FB04"
  />
<missing-glyph horiz-adv-x="1024" 
d="M0 0v1434h1024v-1434h-1024zM512 809l348 522h-696zM573 717l349 -522v1044zM164 102h696l-348 523zM102 1239v-1044l349 522z" />
    <glyph glyph-name=".notdef" horiz-adv-x="1024" 
d="M0 0v1434h1024v-1434h-1024zM512 809l348 522h-696zM573 717l349 -522v1044zM164 102h696l-348 523zM102 1239v-1044l349 522z" />
    <glyph glyph-name=".null" horiz-adv-x="0" 
 />
    <glyph glyph-name="nonmarkingreturn" horiz-adv-x="682" 
 />
    <glyph glyph-name="space" unicode=" " horiz-adv-x="532" 
 />
    <glyph glyph-name="space" unicode="&#xa0;" horiz-adv-x="532" 
 />
    <glyph glyph-name="exclam" unicode="!" horiz-adv-x="718" 
d="M272 371l201 1145l2 4h160v-4l-258 -1145h-105zM168 0l39 190h166l-39 -190h-166z" />
    <glyph glyph-name="quotedbl" unicode="&#x22;" horiz-adv-x="872" 
d="M647 1044l113 545l2 4h158v-4l-179 -545h-94zM274 1044l113 545l2 4h158v-4l-178 -545h-95z" />
    <glyph glyph-name="numbersign" unicode="#" horiz-adv-x="1355" 
d="M645 0l152 455h-353l-151 -455h-109l152 455h-268l22 102h281l133 406h-266l20 102h281l151 455h109l-152 -455h352l152 455h109l-152 -455h268l-22 -102h-281l-133 -406h266l-20 -102h-281l-151 -455h-109zM479 557h352l134 406h-353z" />
    <glyph glyph-name="dollar" unicode="$" 
d="M1102 444q0 -186 -132.5 -310t-377.5 -134l-41 -201h-102l40 203q-244 16 -417 166l47 117q159 -149 393 -166l121 602q-63 21 -106.5 39.5t-93.5 49.5t-80 66t-50 87.5t-20 117.5q0 86 33 162.5t95.5 137.5t161 98t220.5 41l38 196h103l-41 -200q195 -17 332 -130
l-47 -116q-126 111 -308 129l-116 -586q66 -24 110 -43.5t93.5 -51t78 -67.5t47.5 -89t19 -118zM412 1090q0 -98 58.5 -148.5t186.5 -95.5l111 557q-170 -10 -263 -100t-93 -213zM973 436q0 100 -57.5 152t-186.5 98l-115 -567q173 10 266 98.5t93 218.5z" />
    <glyph glyph-name="percent" unicode="%" horiz-adv-x="1906" 
d="M449 618q-129 0 -198 79.5t-69 234.5q0 46 5.5 97t19.5 111.5t35 116.5t54.5 109t75.5 92t100.5 62.5t127.5 23.5q128 0 197 -79t69 -234q0 -54 -8 -115t-26 -132t-50.5 -134.5t-76.5 -116.5t-110 -84t-146 -31zM264 0l1331 1520h136l-1332 -1520h-135zM451 719
q104 0 175.5 94t102.5 250q19 104 19 174q0 207 -150 207q-106 0 -177 -94t-102 -250q-18 -99 -18 -174q0 -207 150 -207zM1395 -20q-129 0 -198 79t-69 234q0 46 5.5 97t19.5 111.5t35 116.5t54.5 109t75.5 92t100.5 62.5t127.5 23.5q128 0 197 -79t69 -234q0 -54 -8 -115
t-26 -132t-50.5 -134t-76.5 -116t-110 -84t-146 -31zM1397 80q104 0 175.5 94t102.5 250q19 104 19 174q0 207 -150 207q-106 0 -176.5 -94t-101.5 -250q-19 -105 -19 -174q0 -207 150 -207z" />
    <glyph glyph-name="ampersand" unicode="&#x26;" horiz-adv-x="1378" 
d="M1122 0l-153 205q-203 -234 -488 -234q-183 0 -293 95t-110 262q0 161 109.5 286t318.5 209q-77 105 -114.5 186.5t-37.5 174.5q0 159 107.5 261.5t283.5 102.5q155 0 246.5 -83t91.5 -224q0 -150 -104 -258.5t-299 -187.5l301 -400q105 155 203 443l106 -84
q-103 -260 -241 -451l227 -303h-154zM485 1182q0 -73 32.5 -141.5t107.5 -172.5q327 137 327 365q0 96 -55.5 147.5t-153.5 51.5q-114 0 -186 -68t-72 -182zM219 348q0 -122 76 -189t209 -67q230 0 397 201l-342 457q-173 -72 -256.5 -174.5t-83.5 -227.5z" />
    <glyph glyph-name="quotesingle" unicode="'" horiz-adv-x="499" 
d="M274 1044l113 545l2 4h158v-4l-178 -545h-95z" />
    <glyph glyph-name="parenleft" unicode="(" horiz-adv-x="823" 
d="M508 -381q-340 329 -340 823q0 392 197 708t526 488l55 -88q-139 -76 -256.5 -188t-206 -252.5t-138.5 -314t-50 -359.5q0 -245 80 -436.5t205 -306.5z" />
    <glyph glyph-name="parenright" unicode=")" horiz-adv-x="823" 
d="M350 1632q340 -329 340 -823q0 -392 -197 -708t-526 -488l-55 88q139 76 256.5 188t206 252.5t138.5 314t50 359.5q0 245 -79.5 437.5t-204.5 306.5z" />
    <glyph glyph-name="asterisk" unicode="*" horiz-adv-x="1138" 
d="M940 836l-117 -76l-141 330l-274 -328l-97 84l316 291l-355 96l62 119l330 -148l47 389h135l-105 -387l387 148l17 -129l-395 -90z" />
    <glyph glyph-name="plus" unicode="+" 
d="M1171 555h-469v-496h-114v496h-469v115h469v495h114v-495h469v-115z" />
    <glyph glyph-name="comma" unicode="," horiz-adv-x="534" 
d="M23 -332l-117 29q212 231 221 510h152q0 -308 -256 -539z" />
    <glyph glyph-name="hyphen" unicode="-" horiz-adv-x="917" 
d="M160 545l24 125h600l-24 -125h-600z" />
    <glyph glyph-name="hyphen" unicode="&#xad;" horiz-adv-x="917" 
d="M160 545l24 125h600l-24 -125h-600z" />
    <glyph glyph-name="period" unicode="." horiz-adv-x="534" 
d="M70 0l41 209h182l-43 -209h-180z" />
    <glyph glyph-name="slash" unicode="/" horiz-adv-x="823" 
d="M-244 -340l1110 1933h135l-1110 -1933h-135z" />
    <glyph glyph-name="zero" unicode="0" 
d="M545 -25q-196 0 -300 129t-104 375q0 80 10 170.5t33.5 195t59 202.5t91 189t123.5 159t163 108.5t204 40.5q196 0 300 -129t104 -375q0 -80 -10 -170.5t-33.5 -195t-59 -202.5t-91 -189t-123.5 -159t-163 -108.5t-204 -40.5zM551 96q127 0 230 85t169 223.5t103 322.5
q34 167 34 320q0 376 -270 376q-96 0 -178 -48t-143.5 -134t-106 -198.5t-72.5 -249.5q-34 -167 -34 -320q0 -377 268 -377z" />
    <glyph glyph-name="one" unicode="1" 
d="M1036 117l-24 -117h-828l25 117h350l242 1212q-194 -149 -426 -256l-51 111q295 125 557 344h94l-281 -1411h342z" />
    <glyph glyph-name="two" unicode="2" 
d="M1032 125l-24 -125h-951l23 111l569 475q85 70 133.5 112.5t104 96t84 92t54.5 86.5t36 95t10 103q0 125 -65.5 190.5t-184.5 65.5q-123 0 -237.5 -69t-198.5 -195l-51 115q96 131 226.5 200.5t277.5 69.5q174 0 274 -98.5t100 -269.5q0 -80 -21 -151t-55 -129.5
t-100 -128.5t-130.5 -126.5t-172.5 -144.5l-459 -375h758z" />
    <glyph glyph-name="three" unicode="3" 
d="M1106 469q0 -218 -163 -358t-433 -140q-134 0 -248.5 36t-181.5 97l53 129q144 -141 385 -141q203 0 326 101.5t123 265.5q0 131 -91.5 197.5t-302.5 66.5h-151l24 119h140q216 0 348.5 95.5t132.5 266.5q0 110 -65.5 166.5t-190.5 56.5q-224 0 -405 -178l-48 115
q206 184 467 184q183 0 282 -91t99 -238q0 -167 -100.5 -279t-280.5 -154q145 -30 213 -108.5t68 -208.5z" />
    <glyph glyph-name="four" unicode="4" 
d="M1171 389h-249l-78 -389h-131l78 389h-742l27 135l928 1008h145l-203 -1020h250zM211 512h604l166 836z" />
    <glyph glyph-name="five" unicode="5" 
d="M1114 516q0 -254 -162 -399.5t-432 -145.5q-135 0 -249 36t-183 97l53 129q144 -141 385 -141q211 0 329 110.5t118 303.5q0 134 -87.5 199t-281.5 65q-154 0 -297 -41l158 791h784l-24 -123h-656l-106 -527q116 21 205 21q222 0 334 -91.5t112 -283.5z" />
    <glyph glyph-name="six" unicode="6" 
d="M1174 569q0 -159 -73.5 -295.5t-206.5 -219.5t-296 -83q-205 0 -324.5 133t-119.5 373q0 320 104.5 563t298 375.5t449.5 132.5q160 0 249 -39l-32 -125q-94 43 -236 43q-117 0 -217.5 -37.5t-174 -100.5t-131 -150t-93 -181t-54.5 -198q202 205 465 205
q187 0 289.5 -104.5t102.5 -291.5zM293 477q0 -183 84 -284t233 -101q120 0 217.5 64.5t151 171t53.5 231.5q0 283 -291 283q-273 0 -442 -211q-6 -76 -6 -154z" />
    <glyph glyph-name="seven" unicode="7" 
d="M1384 1407q-308 -285 -538.5 -647.5t-364.5 -759.5h-153q271 797 882 1397h-862l27 123h1034z" />
    <glyph glyph-name="eight" unicode="8" 
d="M1130 418q0 -201 -160.5 -328t-414.5 -127q-219 0 -336 96.5t-117 259.5q0 157 114.5 275t336.5 188q-52 29 -92.5 60t-76.5 72.5t-55.5 95t-19.5 116.5q0 183 146 306.5t374 123.5q197 0 303.5 -95.5t106.5 -243.5q0 -143 -99.5 -254t-301.5 -177q69 -33 116 -63.5
t90 -74t64.5 -101t21.5 -129.5zM446 1128q0 -44 15 -81.5t37 -64.5t63.5 -54.5t77 -46t94.5 -45.5q182 59 275.5 154t93.5 214q0 105 -73 170.5t-208 65.5q-163 0 -269 -90t-106 -222zM242 326q0 -112 83.5 -179t243.5 -67q196 0 310 96.5t114 231.5q0 28 -6 54t-14 46.5
t-25.5 41.5t-31.5 35.5t-41 33t-45 29.5t-53 28.5t-54.5 26.5t-60.5 28q-216 -70 -318 -176.5t-102 -228.5z" />
    <glyph glyph-name="nine" unicode="9" 
d="M1235 1022q0 -228 -62.5 -423t-173.5 -333t-269.5 -216.5t-344.5 -78.5q-163 0 -252 39l33 125q91 -43 233 -43q251 0 429 175t243 483q-189 -195 -436 -195q-194 0 -307 110.5t-113 299.5q0 114 43.5 220.5t119 186.5t184.5 128t233 48q202 0 321 -133t119 -393z
M356 971q0 -139 78 -216t236 -77q258 0 420 205q6 73 6 141q0 203 -83 303t-231 100q-122 0 -221 -63.5t-152 -167.5t-53 -225z" />
    <glyph glyph-name="colon" unicode=":" horiz-adv-x="802" 
d="M371 836l41 208h182l-43 -208h-180zM201 0l41 209h182l-43 -209h-180z" />
    <glyph glyph-name="semicolon" unicode=";" horiz-adv-x="802" 
d="M371 836l41 208h182l-43 -208h-180zM154 -332l-117 29q212 231 221 510h152q0 -308 -256 -539z" />
    <glyph glyph-name="less" unicode="&#x3c;" 
d="M1112 219v-129l-962 481v82l962 482v-129l-803 -394z" />
    <glyph glyph-name="equal" unicode="=" 
d="M143 766v115h1004v-115h-1004zM143 344v115h1004v-115h-1004z" />
    <glyph glyph-name="greater" unicode="&#x3e;" 
d="M1141 571l-963 -481v129l803 393l-803 394v129l963 -482v-82z" />
    <glyph glyph-name="question" unicode="?" horiz-adv-x="1083" 
d="M362 371l17 78q14 67 41.5 123.5t55 92t74.5 73t76 55t84 49.5l21 12q55 32 93 60.5t72 67t50.5 87.5t16.5 109q0 126 -68 185.5t-180 59.5q-111 0 -217.5 -55t-178.5 -156l-49 115q84 106 207 163.5t258 57.5q167 0 268 -90.5t101 -265.5q0 -80 -22 -147.5t-64 -119
t-89 -89t-110 -72.5q-131 -75 -175 -110q-114 -89 -136 -205l-14 -78h-132zM274 0l39 190h166l-39 -190h-166z" />
    <glyph glyph-name="at" unicode="@" horiz-adv-x="2170" 
d="M1718 -160q-306 -221 -690 -221q-205 0 -367 60t-267.5 170.5t-160.5 264t-55 341.5q0 180 49.5 346t143.5 301t223 235.5t296 155.5t353 55q363 0 576 -201.5t213 -547.5q0 -131 -31.5 -247t-86 -201.5t-125 -147.5t-150 -93.5t-160.5 -31.5q-95 0 -153 46.5t-58 137.5
q0 17 2 27q-60 -102 -148 -156.5t-184 -54.5q-127 0 -209 90.5t-82 271.5q0 121 39 239t106.5 211.5t168.5 151.5t217 58q176 0 243 -146l52 117h114l-188 -627q-25 -82 -25 -137q0 -127 119 -127q73 0 148 43.5t137 120.5t101.5 197t39.5 258q0 299 -178 471t-496 172
q-169 0 -319 -50t-265 -140.5t-199 -213t-127.5 -273t-43.5 -314.5q0 -339 189 -532t558 -193q366 0 666 217zM778 444q0 -251 180 -251q102 0 190.5 81t137.5 242l98 326q-64 143 -210 143q-117 0 -209.5 -81.5t-139.5 -203.5t-47 -256z" />
    <glyph glyph-name="A" unicode="A" horiz-adv-x="1368" 
d="M1059 0l-68 455h-635l-247 -455h-156l852 1520h151l246 -1520h-143zM420 573h553l-121 795z" />
    <glyph glyph-name="B" unicode="B" horiz-adv-x="1361" 
d="M1219 461q0 -70 -17.5 -133.5t-60 -124t-106.5 -105t-165.5 -71.5t-228.5 -27h-532l303 1520h450q222 0 321 -87t99 -249q0 -69 -16.5 -129t-51.5 -114.5t-98.5 -95t-150.5 -61.5q254 -64 254 -323zM838 1397h-312l-110 -557h348q104 0 180 29t117.5 77.5t60.5 103.5
t19 117q0 122 -75 176t-228 54zM756 725h-363l-121 -600h390q106 0 187.5 28t129.5 76.5t72 109.5t24 132q0 254 -319 254z" />
    <glyph glyph-name="C" unicode="C" horiz-adv-x="1366" 
d="M1217 150q-206 -179 -496 -179q-263 0 -415 156.5t-152 462.5q0 145 34 283.5t103.5 260.5t166.5 214.5t232 146t291 53.5q269 0 426 -157l-59 -138q-142 168 -383 168q-126 0 -235 -46t-187 -125.5t-134 -185t-83 -224.5t-27 -244q0 -498 436 -498q257 0 469 193z" />
    <glyph glyph-name="D" unicode="D" horiz-adv-x="1495" 
d="M1430 924q0 -200 -62.5 -370.5t-176 -293t-281 -191.5t-369.5 -69h-432l303 1520h372q174 0 298.5 -39t200.5 -116.5t111.5 -186t35.5 -254.5zM762 1397h-236l-254 -1272h291q166 0 303 62.5t228 170.5t140.5 253t49.5 311q0 121 -27.5 207.5t-89 147.5t-162 90.5
t-243.5 29.5z" />
    <glyph glyph-name="E" unicode="E" horiz-adv-x="1253" 
d="M1044 125l-26 -125h-909l303 1520h893l-25 -123h-754l-106 -533h674l-25 -121h-674l-123 -618h772z" />
    <glyph glyph-name="F" unicode="F" horiz-adv-x="1140" 
d="M1006 715h-615l-143 -715h-139l303 1520h860l-25 -123h-721l-110 -559h616z" />
    <glyph glyph-name="G" unicode="G" horiz-adv-x="1509" 
d="M1260 139q-86 -70 -219.5 -119t-301.5 -49q-277 0 -431 155.5t-154 465.5q0 145 33.5 282.5t104 260t169.5 214.5t239 145.5t304 53.5q290 0 458 -157l-57 -138q-157 168 -420 168q-134 0 -247.5 -46t-193 -125t-135.5 -184.5t-83 -224t-27 -243.5q0 -253 114 -376.5
t345 -123.5q213 0 383 101l94 469h-447l25 120h578z" />
    <glyph glyph-name="H" unicode="H" horiz-adv-x="1503" 
d="M1038 0l148 743h-791l-147 -743h-139l303 1520h139l-131 -656h790l131 656h142l-303 -1520h-142z" />
    <glyph glyph-name="I" unicode="I" horiz-adv-x="571" 
d="M109 0l303 1520h139l-303 -1520h-139z" />
    <glyph glyph-name="J" unicode="J" horiz-adv-x="833" 
d="M-98 35l39 131q105 -68 219 -68q124 0 200.5 81.5t116.5 279.5l213 1061h139l-213 -1061q-28 -141 -71 -237t-103 -150.5t-129.5 -77.5t-160.5 -23q-135 0 -250 64z" />
    <glyph glyph-name="K" unicode="K" horiz-adv-x="1318" 
d="M1036 0l-461 739l-217 -188l-110 -551h-139l303 1520h139l-160 -801l897 801h189v-4l-805 -693l524 -819v-4h-160z" />
    <glyph glyph-name="L" unicode="L" horiz-adv-x="1099" 
d="M989 125l-24 -125h-856l303 1520h139l-279 -1395h717z" />
    <glyph glyph-name="M" unicode="M" horiz-adv-x="1900" 
d="M805 0l-289 1378l-276 -1378h-131l303 1520h202l273 -1297l768 1297h225l-303 -1520h-139l278 1391l-827 -1391h-84z" />
    <glyph glyph-name="N" unicode="N" horiz-adv-x="1540" 
d="M1073 0l-571 1315l-262 -1315h-131l303 1520h145l569 -1315l263 1315h131l-303 -1520h-144z" />
    <glyph glyph-name="O" unicode="O" horiz-adv-x="1533" 
d="M680 -29q-248 0 -387 156.5t-139 437.5q0 145 32 286t97.5 267t157.5 222t221.5 152t279.5 56q248 0 387 -156.5t139 -437.5q0 -145 -32 -286t-98 -267t-158 -222t-221.5 -152t-278.5 -56zM692 98q149 0 272 76.5t199.5 200t118 271t41.5 298.5q0 235 -101.5 356
t-291.5 121q-149 0 -272 -76.5t-199.5 -200t-118 -271t-41.5 -298.5q0 -235 101.5 -356t291.5 -121z" />
    <glyph glyph-name="P" unicode="P" horiz-adv-x="1284" 
d="M651 551h-293l-110 -551h-139l303 1520h426q471 0 471 -406q0 -89 -22 -169t-72 -153t-124.5 -126t-187 -84t-252.5 -31zM811 1397h-285l-145 -725h289q108 0 194.5 24.5t142 65.5t92.5 98.5t52.5 119t15.5 130.5q0 147 -82 217t-274 70z" />
    <glyph glyph-name="Q" unicode="Q" horiz-adv-x="1533" 
d="M1270 -332q-100 -53 -236 -53q-315 0 -436 360q-211 26 -327.5 180t-116.5 410q0 145 32 286t97.5 267t157.5 222t221.5 152t279.5 56q248 0 387 -156.5t139 -437.5q0 -141 -30.5 -278t-93 -260.5t-149.5 -219.5t-209 -155.5t-263 -67.5q99 -231 340 -231q132 0 221 47z
M692 98q149 0 272 76.5t199.5 200t118 271t41.5 298.5q0 235 -101.5 356t-291.5 121q-149 0 -272 -76.5t-199.5 -200t-118 -271t-41.5 -298.5q0 -235 101.5 -356t291.5 -121z" />
    <glyph glyph-name="R" unicode="R" horiz-adv-x="1355" 
d="M709 623h-336l-125 -623h-139l303 1520h424q225 0 337.5 -99.5t112.5 -281.5q0 -191 -115 -329t-327 -175l358 -635h-151zM813 1397h-287l-131 -656h305q219 0 331 106t112 277q0 142 -82 207.5t-248 65.5z" />
    <glyph glyph-name="S" unicode="S" horiz-adv-x="1196" 
d="M25 131l51 133q192 -166 436 -166q187 0 295 93.5t108 238.5q0 43 -9 76.5t-31 60.5t-43.5 45.5t-63 37.5t-71.5 30.5t-85 30.5q-49 17 -81.5 30t-73.5 32.5t-68 39t-55.5 47.5t-44.5 59t-26.5 72.5t-10.5 89.5q0 95 36.5 179.5t104 148.5t170.5 101.5t228 37.5
q231 0 395 -127l-51 -133q-160 133 -361 133q-175 0 -279 -92t-104 -231q0 -35 8.5 -65t19.5 -51.5t35.5 -42t44 -33t58.5 -28.5t64 -25t75 -26q44 -15 76 -27t72.5 -31.5t69 -40t57.5 -50t47 -63t29.5 -78.5t11.5 -97q0 -204 -151 -336.5t-414 -132.5q-268 0 -469 160z" />
    <glyph glyph-name="T" unicode="T" horiz-adv-x="1157" 
d="M1305 1397h-484l-278 -1397h-140l279 1397h-487l24 123h1110z" />
    <glyph glyph-name="U" unicode="U" horiz-adv-x="1488" 
d="M1487 1520l-191 -955q-58 -291 -223 -442.5t-422 -151.5q-226 0 -344.5 114.5t-118.5 322.5q0 78 19 178l186 934h139l-188 -945q-18 -89 -18 -159q0 -160 86.5 -239t249.5 -79q401 0 497 477l191 945h137z" />
    <glyph glyph-name="V" unicode="V" horiz-adv-x="1337" 
d="M1470 1520l-839 -1520h-137l-236 1520h141l195 -1342l723 1342h153z" />
    <glyph glyph-name="W" unicode="W" horiz-adv-x="2086" 
d="M1300 0l-108 1307l-633 -1307h-147l-146 1520h142l112 -1332l637 1332h150l104 -1332l647 1332h154l-764 -1520h-148z" />
    <glyph glyph-name="X" unicode="X" horiz-adv-x="1275" 
d="M948 0l-286 668l-531 -668h-166l647 784l-323 736h147l271 -639l505 639h166l-620 -754l338 -766h-148z" />
    <glyph glyph-name="Y" unicode="Y" horiz-adv-x="1206" 
d="M1366 1520l-682 -932l-119 -588h-139l119 598l-316 922h146l262 -805l567 805h162z" />
    <glyph glyph-name="Z" unicode="Z" 
d="M1102 125l-27 -125h-1077l25 119l1138 1278h-846l25 123h1018l-23 -119l-1138 -1276h905z" />
    <glyph glyph-name="bracketleft" unicode="[" horiz-adv-x="823" 
d="M541 -240l-19 -100h-452l387 1933h452l-20 -100h-324l-346 -1733h322z" />
    <glyph glyph-name="backslash" unicode="\" horiz-adv-x="823" 
d="M709 -340h-121l-338 1933h121z" />
    <glyph glyph-name="bracketright" unicode="]" horiz-adv-x="823" 
d="M788 1593l-387 -1933h-452l20 100h324l346 1733h-322l19 100h452z" />
    <glyph glyph-name="asciicircum" unicode="^" horiz-adv-x="1024" 
d="M862 762l-174 610l-422 -610h-127l531 758h75l228 -758h-111z" />
    <glyph glyph-name="underscore" unicode="_" horiz-adv-x="1310" 
d="M-129 -266l20 108h1250l-21 -108h-1249z" />
    <glyph glyph-name="grave" unicode="`" horiz-adv-x="1024" 
d="M682 1212l-252 412l133 49l195 -424z" />
    <glyph glyph-name="a" unicode="a" horiz-adv-x="1126" 
d="M725 0l31 174q-71 -94 -168.5 -146.5t-212.5 -52.5q-135 0 -219 72.5t-84 212.5q0 190 164.5 292.5t478.5 102.5h123l8 39q12 56 12 101q0 96 -53 140t-168 44q-201 0 -358 -121l-11 127q71 53 175.5 84t213.5 31q166 0 250 -74t84 -219q0 -57 -12 -127l-137 -680h-117z
M408 92q114 0 211.5 64.5t154.5 171.5l45 225h-121q-240 0 -364.5 -73.5t-124.5 -207.5q0 -90 53.5 -135t145.5 -45z" />
    <glyph glyph-name="b" unicode="b" horiz-adv-x="1226" 
d="M1126 672q0 -133 -39.5 -257.5t-110.5 -222.5t-180.5 -157.5t-238.5 -59.5q-216 0 -321 179l-39 -154h-119l319 1593h135l-137 -684q152 191 369 191q172 0 267 -116t95 -312zM268 270q37 -84 110.5 -131t170.5 -47q98 0 182 47t139.5 125.5t87 181t31.5 213.5
q0 158 -68.5 238t-193.5 80q-116 0 -213 -66t-154 -184z" />
    <glyph glyph-name="c" unicode="c" horiz-adv-x="1036" 
d="M866 100q-143 -125 -354 -125q-193 0 -302.5 112.5t-109.5 328.5q0 100 23.5 197t72.5 185.5t118 155.5t167 106.5t213 39.5q208 0 314 -125l-50 -119q-97 123 -274 123q-89 0 -164 -33t-126 -87.5t-87 -126.5t-52.5 -149t-16.5 -155q0 -164 76 -248t221 -84
q177 0 319 129z" />
    <glyph glyph-name="d" unicode="d" horiz-adv-x="1226" 
d="M815 0l35 188q-70 -102 -168.5 -157.5t-216.5 -55.5q-174 0 -269.5 116t-95.5 312q0 105 24.5 206.5t74 190t117 156t159 106t195.5 38.5q208 0 317 -162l131 655h135l-319 -1593h-119zM238 416q0 -159 68.5 -239.5t193.5 -80.5q116 0 211.5 65.5t156.5 188.5l95 467
q-39 74 -112.5 120t-170.5 46q-99 0 -183.5 -47t-140 -126t-87 -181t-31.5 -213z" />
    <glyph glyph-name="e" unicode="e" horiz-adv-x="1120" 
d="M926 100q-66 -53 -165.5 -89t-223.5 -36q-217 0 -327 118t-110 327q0 94 21.5 188t68.5 183t113 157.5t162.5 110t210.5 41.5q81 0 144.5 -21t103 -55.5t65.5 -82.5t36.5 -97.5t10.5 -104.5q0 -118 -45 -217h-747q-6 -50 -6 -96q0 -164 77.5 -247t243.5 -83
q196 0 354 129zM668 985q-154 0 -257.5 -101t-146.5 -257h621q20 41 20 121q0 107 -57 172t-180 65z" />
    <glyph glyph-name="f" unicode="f" horiz-adv-x="698" 
d="M754 969h-299l-193 -969h-135l195 969h-195l20 106h195l31 152q22 110 59.5 186.5t89 118.5t109.5 60t131 18q99 0 178 -33l-37 -125q-65 37 -151 37q-98 0 -157 -56.5t-87 -199.5l-31 -158h297z" />
    <glyph glyph-name="g" unicode="g" horiz-adv-x="1226" 
d="M936 2q-51 -253 -185 -365t-354 -112q-247 0 -395 121l43 121q59 -55 155.5 -88t209.5 -33q158 0 254 79.5t135 274.5l32 166q-148 -191 -366 -191q-174 0 -269.5 116t-95.5 312q0 105 24.5 206.5t74 190t117 156t159 106t195.5 38.5q219 0 321 -178l41 153h117zM238 416
q0 -159 68.5 -239.5t193.5 -80.5q117 0 212.5 66t153.5 182l92 461q-37 84 -109.5 131t-170.5 47t-182 -47t-139.5 -125.5t-87 -181t-31.5 -213.5z" />
    <glyph glyph-name="h" unicode="h" horiz-adv-x="1189" 
d="M356 715l-143 -715h-135l319 1593h135l-141 -704q69 96 165.5 153.5t213.5 57.5q128 0 206.5 -74t78.5 -221q0 -59 -15 -129l-135 -676h-135l135 676q15 69 15 115q0 184 -179 184q-116 0 -220 -69.5t-165 -190.5z" />
    <glyph glyph-name="i" unicode="i" horiz-adv-x="516" 
d="M332 1321l35 180h165l-34 -180h-166zM82 0l217 1075h135l-217 -1075h-135z" />
    <glyph glyph-name="j" unicode="j" horiz-adv-x="534" 
d="M354 1321l35 180h166l-35 -180h-166zM-328 -434l37 125q64 -37 139 -37q187 0 240 260l231 1161h136l-230 -1157q-42 -210 -140 -299.5t-245 -89.5q-96 0 -168 37z" />
    <glyph glyph-name="k" unicode="k" horiz-adv-x="1091" 
d="M813 0l-334 530l-192 -159l-74 -371h-135l319 1593h135l-217 -1077l629 559h182v-4l-557 -465l398 -602v-4h-154z" />
    <glyph glyph-name="l" unicode="l" horiz-adv-x="516" 
d="M82 0l319 1593h136l-320 -1593h-135z" />
    <glyph glyph-name="m" unicode="m" horiz-adv-x="1849" 
d="M356 715l-143 -715h-135l217 1075h117l-35 -201q161 226 385 226q110 0 182.5 -58t89.5 -176q71 103 174.5 168.5t229.5 65.5q123 0 199.5 -73t76.5 -220q0 -62 -14 -131l-135 -676h-135l135 676q12 65 12 115q0 184 -174 184q-110 0 -210 -69t-161 -191l-143 -715h-135
l135 676q14 65 14 115q0 184 -174 184q-111 0 -211.5 -69t-161.5 -191z" />
    <glyph glyph-name="n" unicode="n" horiz-adv-x="1189" 
d="M356 715l-143 -715h-135l217 1075h117l-35 -201q71 102 171.5 164t221.5 62q128 0 206.5 -73.5t78.5 -219.5q0 -61 -15 -131l-135 -676h-135l135 676q15 73 15 115q0 184 -179 184q-116 0 -220 -69.5t-165 -190.5z" />
    <glyph glyph-name="o" unicode="o" horiz-adv-x="1179" 
d="M504 -25q-185 0 -294.5 114.5t-109.5 326.5q0 124 38.5 244t109.5 219t182.5 160t245.5 61q184 0 293.5 -114.5t109.5 -326.5q0 -99 -23.5 -196.5t-72 -185.5t-115.5 -155t-161.5 -107t-202.5 -40zM514 94q102 0 185.5 50t135 131.5t79.5 178.5t28 197q0 161 -72 245.5
t-204 84.5q-102 0 -185.5 -50t-135 -131.5t-79.5 -178.5t-28 -197q0 -161 72.5 -245.5t203.5 -84.5z" />
    <glyph glyph-name="p" unicode="p" horiz-adv-x="1226" 
d="M557 -25q-207 0 -317 160l-117 -590h-135l307 1530h117l-33 -186q70 101 168.5 156t216.5 55q172 0 267 -116t95 -312q0 -105 -24.5 -206.5t-73.5 -190t-116.5 -156t-159 -106t-195.5 -38.5zM358 727l-92 -467q37 -75 111 -121.5t172 -46.5t182 47t139.5 125.5t87 181
t31.5 213.5q0 158 -68.5 238t-193.5 80q-115 0 -211.5 -64.5t-157.5 -185.5z" />
    <glyph glyph-name="q" unicode="q" horiz-adv-x="1226" 
d="M1149 1075l-307 -1530h-135l122 619q-147 -189 -364 -189q-174 0 -269.5 116t-95.5 312q0 105 24.5 206.5t74 190t117 156t159 106t195.5 38.5q219 0 321 -178l41 153h117zM238 416q0 -159 68.5 -239.5t193.5 -80.5q114 0 209 64.5t157 181.5l92 463q-37 84 -109.5 131
t-170.5 47t-182 -47t-139.5 -125.5t-87 -181t-31.5 -213.5z" />
    <glyph glyph-name="r" unicode="r" horiz-adv-x="784" 
d="M346 664l-133 -664h-135l217 1075h117l-37 -217q131 238 358 238q78 0 119 -25l-39 -131q-48 25 -115 25q-109 0 -206 -77.5t-146 -223.5z" />
    <glyph glyph-name="s" unicode="s" horiz-adv-x="946" 
d="M25 100l45 119q139 -125 325 -125q127 0 200 56.5t73 144.5q0 33 -12.5 59.5t-28.5 43.5t-49 33.5t-57.5 25.5t-69.5 24q-49 16 -81 29t-72 37t-63.5 50.5t-40 68t-16.5 92.5q0 152 114 247t292 95q182 0 301 -101l-47 -116q-113 98 -267 98q-123 0 -192.5 -59
t-69.5 -144q0 -32 12.5 -58.5t28.5 -43t51 -34.5t59.5 -27.5t74.5 -26.5q48 -17 80 -30.5t69.5 -37t60 -50.5t37.5 -68t15 -91q0 -149 -113 -242.5t-305 -93.5q-209 0 -354 125z" />
    <glyph glyph-name="t" unicode="t" horiz-adv-x="757" 
d="M623 31q-109 -56 -220 -56q-108 0 -169.5 55.5t-61.5 168.5q0 44 10 102l133 668h-188l23 106h188l59 301l144 39l-68 -340h326l-23 -106h-325l-138 -693q-8 -46 -8 -59q0 -60 34 -90.5t97 -30.5q103 0 182 62z" />
    <glyph glyph-name="u" unicode="u" horiz-adv-x="1189" 
d="M778 0l35 205q-69 -104 -167 -167t-222 -63q-130 0 -209.5 73.5t-79.5 219.5q0 60 15 131l135 676h135l-135 -676q-13 -70 -13 -114q0 -185 183 -185q128 0 224.5 77t158.5 204l139 694h135l-215 -1075h-119z" />
    <glyph glyph-name="v" unicode="v" horiz-adv-x="1044" 
d="M1083 1075l-614 -1075h-127l-182 1075h141l135 -921l494 921h153z" />
    <glyph glyph-name="w" unicode="w" horiz-adv-x="1626" 
d="M967 0l-88 901l-451 -901h-129l-121 1075h141l78 -903l437 903h143l88 -903l428 903h154l-551 -1075h-129z" />
    <glyph glyph-name="x" unicode="x" horiz-adv-x="1019" 
d="M700 0l-208 446l-377 -446h-154v4l479 547l-250 520v4h140l202 -434l363 434h154v-4l-467 -532l258 -535v-4h-140z" />
    <glyph glyph-name="y" unicode="y" horiz-adv-x="1052" 
d="M487 6q-159 -281 -255.5 -379t-229.5 -98q-80 0 -156 35l37 127q57 -37 129 -37q81 0 157 77.5t179 268.5l-188 1075h141l141 -930l496 930h154z" />
    <glyph glyph-name="z" unicode="z" horiz-adv-x="983" 
d="M811 113l-23 -113h-808l22 106l799 857h-602l22 112h770l-22 -106l-801 -856h643z" />
    <glyph glyph-name="braceleft" unicode="{" horiz-adv-x="823" 
d="M522 -340h-133q-133 0 -201.5 62t-68.5 182q0 52 15.5 104.5t30.5 82t48 87.5q25 44 38.5 72.5t25.5 72t12 85.5q0 78 -42 118.5t-145 40.5h-57l23 119h57q145 0 209.5 72.5t64.5 214.5q0 55 -6 114q-10 82 -10 130q0 178 102.5 277t284.5 99h139l-20 -100h-137
q-117 0 -178.5 -74t-61.5 -192q0 -41 8 -119t8 -121q0 -150 -72 -248.5t-196 -113.5l-2 -9q75 -12 117.5 -63.5t42.5 -140.5q0 -69 -21.5 -127.5t-62.5 -132.5q-31 -56 -45.5 -83.5t-28.5 -71t-14 -81.5q0 -70 40 -113t122 -43h135z" />
    <glyph glyph-name="bar" unicode="|" horiz-adv-x="823" 
d="M358 -455v2048h121v-2048h-121z" />
    <glyph glyph-name="braceright" unicode="}" horiz-adv-x="823" 
d="M336 1593h133q133 0 201.5 -61.5t68.5 -181.5q0 -52 -15.5 -104.5t-30.5 -83t-48 -87.5q-25 -45 -38.5 -72.5t-25.5 -71t-12 -85.5q0 -78 42 -119t145 -41h57l-22 -119h-58q-145 0 -209.5 -72t-64.5 -214q0 -57 6 -115q10 -82 10 -129q0 -178 -102.5 -277.5t-284.5 -99.5
h-139l20 100h137q117 0 178.5 74.5t61.5 192.5q0 40 -8 118t-8 121q0 150 72 249t196 114l2 8q-75 12 -117.5 64t-42.5 141q0 69 21.5 127.5t62.5 132.5q32 57 45.5 83.5t28 70.5t14.5 81q0 71 -39.5 113.5t-121.5 42.5h-136z" />
    <glyph glyph-name="asciitilde" unicode="~" 
d="M281 436l-111 13q0 90 23 156t61 100.5t79.5 50.5t86.5 16q109 0 270 -108q146 -97 213 -97q56 0 95.5 50.5t39.5 170.5l111 -12q0 -90 -23 -156t-61 -100.5t-79.5 -50.5t-86.5 -16q-63 0 -127.5 29t-142.5 79q-148 96 -213 96q-56 0 -95.5 -50.5t-39.5 -170.5z" />
    <glyph glyph-name="exclamdown" unicode="&#xa1;" horiz-adv-x="718" 
d="M551 1075l-39 -190h-166l39 190h166zM446 705l-200 -1145l-2 -4h-160v4l258 1145h104z" />
    <glyph glyph-name="cent" unicode="&#xa2;" 
d="M1034 371q-149 -121 -381 -127l-55 -273h-102l55 279q-173 22 -267 136t-94 304q0 254 158.5 418t409.5 178l53 266h102l-53 -266q185 -16 297 -121l-47 -118q-103 111 -272 122l-162 -809q195 5 348 138zM322 698q0 -287 253 -331l160 800q-188 -19 -300.5 -145.5
t-112.5 -323.5z" />
    <glyph glyph-name="sterling" unicode="&#xa3;" 
d="M1092 125l-25 -125h-1022l23 104q93 7 164 40t111.5 76.5t65.5 100.5t33.5 104.5t8.5 94.5q0 57 -23 166h-250l23 102h205q-31 151 -31 230q0 160 70.5 281.5t192 185t275.5 63.5q243 0 379 -166l-57 -118q-114 159 -330 159q-171 0 -280 -102.5t-109 -296.5
q0 -93 33 -236h442l-20 -102h-400q17 -87 17 -154q0 -78 -17.5 -149.5t-65.5 -143t-122 -114.5h709z" />
    <glyph glyph-name="currency" unicode="&#xa4;" 
d="M1171 358l-79 -82l-203 203q-85 -63 -201 -63q-118 0 -199 63l-202 -203l-80 82l203 203q-60 85 -60 199q0 113 60 198l-203 203l80 82l202 -203q83 64 199 64q115 0 201 -64l203 203l79 -82l-202 -203q59 -83 59 -198q0 -116 -59 -199zM688 526q99 0 160 66t61 168
t-61 167.5t-160 65.5t-159 -65.5t-60 -167.5q0 -103 60 -168.5t159 -65.5z" />
    <glyph glyph-name="yen" unicode="&#xa5;" 
d="M1051 297h-387l-60 -297h-133l59 297h-385l23 104h383l43 215h-385l22 105h363l-281 799h142l239 -732l516 732h158l-590 -799h359l-23 -105h-387l-43 -215h389z" />
    <glyph glyph-name="brokenbar" unicode="&#xa6;" horiz-adv-x="823" 
d="M358 825v768h121v-768h-121zM358 -455v768h121v-768h-121z" />
    <glyph glyph-name="section" unicode="&#xa7;" horiz-adv-x="1257" 
d="M944 41q0 -167 -129 -278t-352 -111q-231 0 -402 131l50 125q76 -64 173 -101.5t199 -37.5q153 0 244.5 78t91.5 182q0 24 -5 45.5t-17.5 39.5t-24 31.5t-34.5 27.5t-38 22.5t-46 20.5l-46.5 18t-50.5 18q-45 16 -69.5 24.5t-65.5 27t-64 34t-52 41t-44 53t-26 66
t-11 82.5q0 119 70.5 205t202.5 126q-146 87 -146 248q0 166 129 277.5t348 111.5q208 0 355 -104l-49 -125q-140 113 -320 113q-156 0 -247 -78.5t-91 -182.5q0 -38 15 -69.5t35.5 -52t59 -40.5t67.5 -31t79 -28q44 -15 70 -24.5t66.5 -28t64.5 -34.5t53.5 -42t45.5 -54
t27 -66.5t11 -82.5q0 -119 -69.5 -204t-200.5 -125q143 -85 143 -248zM623 365q12 -4 65 -25q131 34 193.5 105t62.5 155q0 34 -9 62t-30 50.5t-42 39t-57.5 33.5t-63.5 27t-72 26q-28 8 -62 22q-130 -33 -194 -105t-64 -157q0 -40 15.5 -72.5t36 -53.5t62 -42.5t72.5 -33.5
t87 -31z" />
    <glyph glyph-name="dieresis" unicode="&#xa8;" horiz-adv-x="1024" 
d="M778 1321l37 180h160l-37 -180h-160zM383 1321l35 180h160l-35 -180h-160z" />
    <glyph glyph-name="copyright" unicode="&#xa9;" horiz-adv-x="1880" 
d="M983 -29q-164 0 -310.5 62t-251 167.5t-165.5 251t-61 308.5q0 162 61 308t165.5 251.5t251 167t310.5 61.5t311 -61.5t251.5 -167t165.5 -251.5t61 -308q0 -217 -103.5 -398t-285 -286t-400.5 -105zM983 61q146 0 275.5 54.5t221 148t144.5 222.5t53 274q0 193 -90 353
t-249.5 252.5t-354.5 92.5q-194 0 -353 -92.5t-249 -252.5t-90 -353t90 -353.5t249 -253t353 -92.5zM1319 408q-54 -48 -134 -78.5t-177 -30.5q-198 0 -320.5 125.5t-122.5 335.5q0 212 124 336.5t325 124.5q94 0 170.5 -28t124.5 -71l-33 -106q-99 96 -256 96
q-155 0 -242.5 -96.5t-87.5 -253.5q0 -161 88.5 -256.5t237.5 -95.5q165 0 272 104z" />
    <glyph glyph-name="ordfeminine" unicode="&#xaa;" horiz-adv-x="915" 
d="M696 758l21 121q-106 -138 -273 -138q-98 0 -157.5 51t-59.5 152q0 138 116.5 212.5t340.5 74.5h94l4 22q6 37 6 66q0 65 -37 95t-118 30q-142 0 -260 -86l-8 108q53 37 130.5 59.5t159.5 22.5q123 0 186.5 -56t63.5 -161q0 -36 -10 -94l-94 -479h-105zM475 844
q83 0 150 42t106 113l29 144h-84q-163 0 -247.5 -48.5t-84.5 -136.5q0 -114 131 -114zM143 471l23 107h600l-21 -107h-602z" />
    <glyph glyph-name="guillemotleft" unicode="&#xab;" horiz-adv-x="1318" 
d="M1028 164l-102 -68l-297 455l2 14l452 455l91 -84l-406 -387zM594 164l-102 -68l-297 455l2 14l452 455l90 -84l-405 -387z" />
    <glyph glyph-name="logicalnot" unicode="&#xac;" 
d="M1137 670v-469h-115v354h-868v115h983z" />
    <glyph glyph-name="registered" unicode="&#xae;" horiz-adv-x="1327" 
d="M786 614q-114 0 -216 43t-175 116.5t-115 175t-42 214.5q0 150 71.5 276t197.5 199.5t279 73.5t279.5 -73.5t198 -199.5t71.5 -276q0 -151 -71.5 -276.5t-197.5 -199t-280 -73.5zM786 690q199 0 333 137.5t134 335.5t-134 335.5t-333 137.5q-198 0 -331 -137.5
t-133 -335.5t133 -335.5t331 -137.5zM659 1083v-219h-88v611h222q113 0 172 -48.5t59 -140.5q0 -139 -129 -184l180 -238h-106l-164 219h-146zM659 1401v-244h134q23 0 43.5 4.5t42.5 16.5t35.5 39t13.5 65q0 119 -140 119h-129z" />
    <glyph glyph-name="macron" unicode="&#xaf;" horiz-adv-x="1024" 
d="M362 1356l23 114h610l-22 -114h-611z" />
    <glyph glyph-name="degree" unicode="&#xb0;" horiz-adv-x="921" 
d="M563 936q-135 0 -215 84.5t-80 216.5q0 157 105 262t258 105q135 0 215 -84.5t80 -216.5q0 -157 -105.5 -262t-257.5 -105zM569 1038q107 0 176.5 73.5t69.5 186.5q0 93 -49.5 148t-140.5 55q-107 0 -177.5 -74t-70.5 -186q0 -92 50.5 -147.5t141.5 -55.5z" />
    <glyph glyph-name="plusminus" unicode="&#xb1;" 
d="M1147 725h-445v-461h-114v461h-445v115h445v460h114v-460h445v-115zM143 0v115h1004v-115h-1004z" />
    <glyph glyph-name="two.sups" unicode="&#xb2;" horiz-adv-x="757" 
d="M756 944l-23 -104h-594l19 100l331 254q94 72 140.5 114t76 92t29.5 105q0 69 -39.5 104.5t-105.5 35.5q-71 0 -139 -40.5t-121 -113.5l-39 96q130 158 319 158q113 0 177.5 -58.5t64.5 -168.5q0 -108 -66 -191.5t-225 -200.5l-248 -182h443z" />
    <glyph glyph-name="three.sups" unicode="&#xb3;" horiz-adv-x="757" 
d="M795 1110q0 -128 -100.5 -209.5t-268.5 -81.5q-86 0 -162 21t-121 57l43 111q43 -41 106.5 -64.5t135.5 -23.5q111 0 179.5 52.5t68.5 135.5q0 68 -53.5 102.5t-176.5 34.5h-96l19 92h90q123 0 199.5 52t76.5 135q0 58 -39 89.5t-110 31.5q-129 0 -244 -103l-37 98
q133 105 303 105q120 0 183 -55t63 -148t-59.5 -157t-167.5 -89q168 -34 168 -186z" />
    <glyph glyph-name="acute" unicode="&#xb4;" horiz-adv-x="1024" 
d="M590 1212l-72 45l322 416l123 -76z" />
    <glyph glyph-name="uni00B5" unicode="&#xb5;" horiz-adv-x="1257" 
d="M461 -25q-79 0 -140.5 32t-91.5 95l-98 -557h-135l307 1530h135l-135 -676q-14 -71 -14 -114q0 -95 46 -140t138 -45q127 0 223 77t160 204l137 694h135l-170 -856q-6 -27 -6 -47q0 -34 17 -48.5t53 -14.5q47 0 92 18l-24 -119q-49 -20 -105 -20q-80 0 -122 33.5
t-42 109.5q0 25 6 55q-68 -95 -161 -153t-205 -58z" />
    <glyph glyph-name="paragraph" unicode="&#xb6;" horiz-adv-x="1368" 
d="M989 1425l-350 -1757h-104l178 893h-33q-463 0 -463 395q0 250 172 407t449 157h475l-371 -1852h-102l350 1757h-201z" />
    <glyph glyph-name="periodcentered" unicode="&#xb7;" horiz-adv-x="606" 
d="M205 508l41 209h182l-43 -209h-180z" />
    <glyph glyph-name="cedilla" unicode="&#xb8;" horiz-adv-x="1024" 
d="M582 -270q0 -101 -76.5 -159t-204.5 -58q-104 0 -197 41l35 100q80 -41 172 -41q71 0 114.5 29.5t43.5 78.5q0 36 -37.5 63t-150.5 54l104 174h88l-74 -110q110 -37 146.5 -76.5t36.5 -95.5z" />
    <glyph glyph-name="one.sups" unicode="&#xb9;" horiz-adv-x="606" 
d="M655 1720l-176 -880h-114l143 721q-97 -67 -238 -131l-43 90q189 78 340 200h88z" />
    <glyph glyph-name="ordmasculine" unicode="&#xba;" horiz-adv-x="915" 
d="M520 741q-134 0 -214.5 81.5t-80.5 236.5q0 89 27.5 175t78 156.5t131.5 114t179 43.5q133 0 213 -81t80 -236q0 -71 -17 -140.5t-51.5 -132.5t-83 -111.5t-116.5 -77t-146 -28.5zM528 848q69 0 126 34t91.5 88.5t53 120t18.5 132.5q0 108 -48.5 163.5t-135.5 55.5
q-70 0 -127 -34t-91.5 -89t-52.5 -120t-18 -132q0 -108 48 -163.5t136 -55.5zM143 471l23 107h600l-21 -107h-602z" />
    <glyph glyph-name="guillemotright" unicode="&#xbb;" horiz-adv-x="1318" 
d="M1128 551l-452 -455l-90 84l405 387l-260 385l103 68l296 -455zM694 551l-452 -455l-90 84l405 387l-260 385l102 68l297 -455z" />
    <glyph glyph-name="onequarter" unicode="&#xbc;" horiz-adv-x="1599" 
d="M614 1520l-176 -881h-114l143 721q-97 -67 -238 -131l-43 90q187 77 340 201h88zM82 0l1331 1520h135l-1331 -1520h-135zM1497 209h-143l-43 -213h-111l43 213h-455l23 106l547 578h133l-117 -586h142zM924 307h340l92 457z" />
    <glyph glyph-name="onehalf" unicode="&#xbd;" horiz-adv-x="1693" 
d="M614 1520l-176 -881h-114l143 721q-97 -67 -238 -131l-43 90q187 77 340 201h88zM82 0l1331 1520h135l-1331 -1520h-135zM1524 104l-23 -104h-594l19 100l331 254q94 72 140.5 114.5t76 92.5t29.5 105q0 69 -39.5 104t-105.5 35q-71 0 -139 -40.5t-121 -113.5l-39 97
q129 157 319 157q113 0 177.5 -58.5t64.5 -168.5q0 -108 -66 -191t-225 -200l-248 -183h443z" />
    <glyph glyph-name="threequarters" unicode="&#xbe;" horiz-adv-x="1730" 
d="M754 909q0 -128 -100.5 -209.5t-268.5 -81.5q-86 0 -162 21t-121 57l43 111q43 -41 106.5 -64.5t135.5 -23.5q111 0 179.5 52.5t68.5 135.5q0 68 -53 102.5t-176 34.5h-97l19 93h90q123 0 199.5 51.5t76.5 134.5q0 58 -39 89.5t-110 31.5q-129 0 -244 -103l-37 99
q131 104 303 104q120 0 183 -55t63 -148t-59.5 -156.5t-167.5 -88.5q168 -34 168 -187zM213 0l1331 1520h135l-1331 -1520h-135zM1628 209h-143l-43 -213h-111l43 213h-454l22 106l547 578h133l-117 -586h142zM1055 307h340l92 457z" />
    <glyph glyph-name="questiondown" unicode="&#xbf;" horiz-adv-x="1083" 
d="M834 1075l-39 -190h-166l39 190h166zM745 705l-16 -78q-10 -50 -28.5 -94t-36.5 -76t-49.5 -64.5t-52.5 -51.5t-61.5 -45.5t-59.5 -38t-64 -36.5q-56 -32 -93.5 -60t-71.5 -66.5t-50.5 -87.5t-16.5 -109q0 -127 68 -186.5t180 -59.5q111 0 217 55t178 156l50 -115
q-84 -106 -207 -163.5t-258 -57.5q-167 0 -268 90.5t-101 265.5q0 81 22 148t64 118t88.5 88.5t110.5 73.5q133 76 180 114q109 87 131 202l14 78h131z" />
    <glyph glyph-name="Agrave" unicode="&#xc0;" horiz-adv-x="1368" 
d="M989 1638l-346 301l135 68l283 -321zM1059 0l-68 455h-635l-247 -455h-156l852 1520h151l246 -1520h-143zM420 573h553l-121 795z" />
    <glyph glyph-name="Aacute" unicode="&#xc1;" horiz-adv-x="1368" 
d="M809 1638l-64 54l383 315l115 -94zM1059 0l-68 455h-635l-247 -455h-156l852 1520h151l246 -1520h-143zM420 573h553l-121 795z" />
    <glyph glyph-name="Acircumflex" unicode="&#xc2;" horiz-adv-x="1368" 
d="M1233 1675l-117 -28l-166 247l-274 -247l-125 28l358 312h103zM1059 0l-68 455h-635l-247 -455h-156l852 1520h151l246 -1520h-143zM420 573h553l-121 795z" />
    <glyph glyph-name="Atilde" unicode="&#xc3;" horiz-adv-x="1368" 
d="M627 1659l-99 10q53 275 238 275q86 0 184 -84q31 -26 49.5 -39.5t45 -26t49.5 -12.5q96 0 135 176l98 -8q-26 -136 -86.5 -206.5t-150.5 -70.5q-87 0 -185 84q-45 39 -77 58.5t-66 19.5q-97 0 -135 -176zM1059 0l-68 455h-635l-247 -455h-156l852 1520h151l246 -1520
h-143zM420 573h553l-121 795z" />
    <glyph glyph-name="Adieresis" unicode="&#xc4;" horiz-adv-x="1368" 
d="M1034 1720l35 178h162l-35 -178h-162zM623 1720l36 178h162l-37 -178h-161zM1059 0l-68 455h-635l-247 -455h-156l852 1520h151l246 -1520h-143zM420 573h553l-121 795z" />
    <glyph glyph-name="Aring" unicode="&#xc5;" horiz-adv-x="1368" 
d="M1059 0l-68 455h-635l-247 -455h-156l850 1518q-60 22 -93.5 74.5t-33.5 123.5q0 111 76 185.5t184 74.5q94 0 151.5 -60t57.5 -153q0 -89 -53 -157.5t-136 -92.5l246 -1513h-143zM893 1591q69 0 113.5 48t44.5 120q0 60 -32 94.5t-91 34.5q-69 0 -113.5 -48t-44.5 -120
q0 -58 32 -93.5t91 -35.5zM420 573h553l-121 795z" />
    <glyph glyph-name="AE" unicode="&#xc6;" horiz-adv-x="1986" 
d="M840 0l102 512h-567l-381 -512h-162l1137 1520h1059l-27 -123h-744l-106 -533h664l-25 -121h-664l-122 -618h761l-24 -125h-901zM1118 1399h-86l-569 -768h502z" />
    <glyph glyph-name="Ccedilla" unicode="&#xc7;" horiz-adv-x="1366" 
d="M850 -270q0 -101 -76.5 -159t-204.5 -58q-103 0 -196 41l35 100q80 -41 172 -41q71 0 114 29.5t43 78.5q0 36 -37.5 63t-150.5 54l82 137q-223 26 -350 181.5t-127 433.5q0 145 34 283.5t103.5 260.5t166.5 214.5t232 146t291 53.5q269 0 426 -157l-59 -138
q-142 168 -383 168q-126 0 -235 -46t-187 -125.5t-134 -185t-83 -224.5t-27 -244q0 -498 436 -498q257 0 469 193l13 -141q-206 -179 -496 -179h-6l-47 -69q110 -37 146 -76.5t36 -95.5z" />
    <glyph glyph-name="Egrave" unicode="&#xc8;" horiz-adv-x="1253" 
d="M965 1638l-347 301l136 68l282 -321zM1044 125l-26 -125h-909l303 1520h893l-25 -123h-754l-106 -533h674l-25 -121h-674l-123 -618h772z" />
    <glyph glyph-name="Eacute" unicode="&#xc9;" horiz-adv-x="1253" 
d="M784 1638l-63 54l383 315l115 -94zM1044 125l-26 -125h-909l303 1520h893l-25 -123h-754l-106 -533h674l-25 -121h-674l-123 -618h772z" />
    <glyph glyph-name="Ecircumflex" unicode="&#xca;" horiz-adv-x="1253" 
d="M1208 1675l-116 -28l-166 247l-275 -247l-125 28l359 312h102zM1044 125l-26 -125h-909l303 1520h893l-25 -123h-754l-106 -533h674l-25 -121h-674l-123 -618h772z" />
    <glyph glyph-name="Edieresis" unicode="&#xcb;" horiz-adv-x="1253" 
d="M1010 1720l34 178h162l-35 -178h-161zM598 1720l37 178h162l-37 -178h-162zM1044 125l-26 -125h-909l303 1520h893l-25 -123h-754l-106 -533h674l-25 -121h-674l-123 -618h772z" />
    <glyph glyph-name="Igrave" unicode="&#xcc;" horiz-adv-x="571" 
d="M592 1638l-346 301l135 68l283 -321zM109 0l303 1520h139l-303 -1520h-139z" />
    <glyph glyph-name="Iacute" unicode="&#xcd;" horiz-adv-x="571" 
d="M412 1638l-64 54l383 315l115 -94zM109 0l303 1520h139l-303 -1520h-139z" />
    <glyph glyph-name="Icircumflex" unicode="&#xce;" horiz-adv-x="571" 
d="M836 1675l-117 -28l-166 247l-274 -247l-125 28l358 312h102zM109 0l303 1520h139l-303 -1520h-139z" />
    <glyph glyph-name="Idieresis" unicode="&#xcf;" horiz-adv-x="571" 
d="M637 1720l35 178h162l-35 -178h-162zM225 1720l37 178h162l-37 -178h-162zM109 0l303 1520h139l-303 -1520h-139z" />
    <glyph glyph-name="Eth" unicode="&#xd0;" horiz-adv-x="1513" 
d="M1448 924q0 -200 -62.5 -370.5t-176 -293t-281 -191.5t-369.5 -69h-432l149 748h-184l23 114h184l131 658h373q174 0 298.5 -39t200.5 -116.5t111 -186t35 -254.5zM829 748h-413l-125 -623h291q166 0 303 62.5t228 170.5t140.5 253t49.5 311q0 243 -120.5 359t-402.5 116
h-235l-107 -535h414z" />
    <glyph glyph-name="Ntilde" unicode="&#xd1;" horiz-adv-x="1540" 
d="M715 1659l-99 10q53 275 238 275q86 0 184 -84q31 -26 49.5 -39.5t45 -26t49.5 -12.5q96 0 135 176l98 -8q-26 -136 -86.5 -206.5t-150.5 -70.5q-87 0 -185 84q-45 39 -77 58.5t-66 19.5q-97 0 -135 -176zM1073 0l-571 1315l-262 -1315h-131l303 1520h145l569 -1315
l263 1315h131l-303 -1520h-144z" />
    <glyph glyph-name="Ograve" unicode="&#xd2;" horiz-adv-x="1533" 
d="M1073 1638l-346 301l135 68l283 -321zM680 -29q-248 0 -387 156.5t-139 437.5q0 145 32 286t97.5 267t157.5 222t221.5 152t279.5 56q248 0 387 -156.5t139 -437.5q0 -145 -32 -286t-98 -267t-158 -222t-221.5 -152t-278.5 -56zM692 98q149 0 272 76.5t199.5 200t118 271
t41.5 298.5q0 235 -101.5 356t-291.5 121q-149 0 -272 -76.5t-199.5 -200t-118 -271t-41.5 -298.5q0 -235 101.5 -356t291.5 -121z" />
    <glyph glyph-name="Oacute" unicode="&#xd3;" horiz-adv-x="1533" 
d="M893 1638l-64 54l383 315l115 -94zM680 -29q-248 0 -387 156.5t-139 437.5q0 145 32 286t97.5 267t157.5 222t221.5 152t279.5 56q248 0 387 -156.5t139 -437.5q0 -145 -32 -286t-98 -267t-158 -222t-221.5 -152t-278.5 -56zM692 98q149 0 272 76.5t199.5 200t118 271
t41.5 298.5q0 235 -101.5 356t-291.5 121q-149 0 -272 -76.5t-199.5 -200t-118 -271t-41.5 -298.5q0 -235 101.5 -356t291.5 -121z" />
    <glyph glyph-name="Ocircumflex" unicode="&#xd4;" horiz-adv-x="1533" 
d="M1317 1675l-117 -28l-166 247l-274 -247l-125 28l358 312h103zM680 -29q-248 0 -387 156.5t-139 437.5q0 145 32 286t97.5 267t157.5 222t221.5 152t279.5 56q248 0 387 -156.5t139 -437.5q0 -145 -32 -286t-98 -267t-158 -222t-221.5 -152t-278.5 -56zM692 98
q149 0 272 76.5t199.5 200t118 271t41.5 298.5q0 235 -101.5 356t-291.5 121q-149 0 -272 -76.5t-199.5 -200t-118 -271t-41.5 -298.5q0 -235 101.5 -356t291.5 -121z" />
    <glyph glyph-name="Otilde" unicode="&#xd5;" horiz-adv-x="1533" 
d="M711 1659l-99 10q53 275 238 275q86 0 184 -84q31 -26 49.5 -39.5t45 -26t49.5 -12.5q96 0 135 176l98 -8q-26 -136 -86.5 -206.5t-150.5 -70.5q-87 0 -185 84q-45 39 -77 58.5t-66 19.5q-97 0 -135 -176zM680 -29q-248 0 -387 156.5t-139 437.5q0 145 32 286t97.5 267
t157.5 222t221.5 152t279.5 56q248 0 387 -156.5t139 -437.5q0 -145 -32 -286t-98 -267t-158 -222t-221.5 -152t-278.5 -56zM692 98q149 0 272 76.5t199.5 200t118 271t41.5 298.5q0 235 -101.5 356t-291.5 121q-149 0 -272 -76.5t-199.5 -200t-118 -271t-41.5 -298.5
q0 -235 101.5 -356t291.5 -121z" />
    <glyph glyph-name="Odieresis" unicode="&#xd6;" horiz-adv-x="1533" 
d="M1118 1720l35 178h162l-35 -178h-162zM707 1720l36 178h162l-37 -178h-161zM680 -29q-248 0 -387 156.5t-139 437.5q0 145 32 286t97.5 267t157.5 222t221.5 152t279.5 56q248 0 387 -156.5t139 -437.5q0 -145 -32 -286t-98 -267t-158 -222t-221.5 -152t-278.5 -56z
M692 98q149 0 272 76.5t199.5 200t118 271t41.5 298.5q0 235 -101.5 356t-291.5 121q-149 0 -272 -76.5t-199.5 -200t-118 -271t-41.5 -298.5q0 -235 101.5 -356t291.5 -121z" />
    <glyph glyph-name="multiply" unicode="&#xd7;" 
d="M1133 207l-82 -82l-406 414l-405 -414l-82 82l413 405l-413 406l82 82l405 -414l406 414l82 -82l-414 -406z" />
    <glyph glyph-name="Oslash" unicode="&#xd8;" horiz-adv-x="1533" 
d="M680 -29q-237 0 -377 146l-176 -201l-84 47l203 230q-92 150 -92 372q0 145 32 286t97.5 267t157.5 222t221.5 152t279.5 56q238 0 377 -145l176 201l84 -48l-203 -229q92 -150 92 -373q0 -145 -32 -286t-98 -267t-158 -222t-221.5 -152t-278.5 -56zM299 575
q0 -161 49 -268l877 989q-101 125 -295 125q-149 0 -272 -76.5t-199.5 -200t-118 -271t-41.5 -298.5zM1323 944q0 161 -49 268l-877 -989q101 -125 295 -125q149 0 272 76.5t199.5 200t118 271t41.5 298.5z" />
    <glyph glyph-name="Ugrave" unicode="&#xd9;" horiz-adv-x="1488" 
d="M1051 1638l-346 301l135 68l282 -321zM1487 1520l-191 -955q-58 -291 -223 -442.5t-422 -151.5q-226 0 -344.5 114.5t-118.5 322.5q0 78 19 178l186 934h139l-188 -945q-18 -89 -18 -159q0 -160 86.5 -239t249.5 -79q400 0 497 477l191 945h137z" />
    <glyph glyph-name="Uacute" unicode="&#xda;" horiz-adv-x="1488" 
d="M870 1638l-63 54l383 315l115 -94zM1487 1520l-191 -955q-58 -292 -223 -443t-422 -151q-226 0 -344.5 114.5t-118.5 322.5q0 78 19 178l186 934h139l-188 -945q-18 -89 -18 -159q0 -160 86.5 -239t249.5 -79q400 0 497 477l191 945h137z" />
    <glyph glyph-name="Ucircumflex" unicode="&#xdb;" horiz-adv-x="1488" 
d="M1294 1675l-116 -28l-166 247l-275 -247l-125 28l359 312h102zM1487 1520l-191 -955q-58 -291 -223 -442.5t-422 -151.5q-226 0 -344.5 114.5t-118.5 322.5q0 78 19 178l186 934h139l-188 -945q-18 -89 -18 -159q0 -160 86.5 -239t249.5 -79q400 0 497 477l191 945h137z
" />
    <glyph glyph-name="Udieresis" unicode="&#xdc;" horiz-adv-x="1488" 
d="M1096 1720l34 178h162l-35 -178h-161zM684 1720l37 178h162l-37 -178h-162zM1487 1520l-191 -955q-58 -291 -223 -442.5t-422 -151.5q-226 0 -344.5 114.5t-118.5 322.5q0 78 19 178l186 934h139l-188 -945q-18 -89 -18 -159q0 -160 86.5 -239t249.5 -79q400 0 497 477
l191 945h137z" />
    <glyph glyph-name="Yacute" unicode="&#xdd;" horiz-adv-x="1206" 
d="M727 1638l-63 54l383 315l114 -94zM1366 1520l-682 -932l-119 -588h-139l119 598l-316 922h146l262 -805l567 805h162z" />
    <glyph glyph-name="Thorn" unicode="&#xde;" horiz-adv-x="1239" 
d="M635 342h-318l-69 -342h-139l303 1520h139l-55 -283h311q434 0 434 -375q0 -83 -20 -156.5t-66 -141t-114.5 -116t-172.5 -77.5t-233 -29zM778 1114h-307l-131 -651h313q98 0 175.5 22t127.5 59t83 88t47 106.5t14 117.5q0 133 -74 195.5t-248 62.5z" />
    <glyph glyph-name="germandbls" unicode="&#xdf;" horiz-adv-x="1251" 
d="M1133 467q0 -222 -126.5 -357t-342.5 -135q-176 0 -289 76l41 123q113 -80 248 -80q159 0 246 102t87 271q0 166 -94.5 257t-296.5 120l23 104q215 0 318.5 86.5t103.5 229.5q0 112 -63 169.5t-181 57.5q-159 0 -248 -103.5t-129 -302.5l-217 -1085h-135l217 1085
q25 122 64.5 215t100 164.5t149 108.5t202.5 37q178 0 274.5 -87.5t96.5 -244.5q0 -158 -94.5 -263t-256.5 -130q156 -54 229 -156.5t73 -261.5z" />
    <glyph glyph-name="agrave" unicode="&#xe0;" horiz-adv-x="1126" 
d="M739 1212l-252 412l134 49l194 -424zM725 0l31 174q-71 -94 -168.5 -146.5t-212.5 -52.5q-135 0 -219 72.5t-84 212.5q0 190 164.5 292.5t478.5 102.5h123l8 39q12 56 12 101q0 96 -53 140t-168 44q-201 0 -358 -121l-11 127q71 53 175.5 84t213.5 31q166 0 250 -74
t84 -219q0 -63 -12 -127l-137 -680h-117zM408 92q114 0 211.5 64.5t154.5 171.5l45 225h-121q-240 0 -364.5 -73.5t-124.5 -207.5q0 -90 53.5 -135t145.5 -45z" />
    <glyph glyph-name="aacute" unicode="&#xe1;" horiz-adv-x="1126" 
d="M643 1212l-72 45l322 416l123 -76zM725 0l31 174q-71 -94 -168.5 -146.5t-212.5 -52.5q-135 0 -219 72.5t-84 212.5q0 190 164.5 292.5t478.5 102.5h123l8 39q12 56 12 101q0 96 -53 140t-168 44q-201 0 -358 -121l-11 127q71 53 175.5 84t213.5 31q166 0 250 -74
t84 -219q0 -63 -12 -127l-137 -680h-117zM408 92q114 0 211.5 64.5t154.5 171.5l45 225h-121q-240 0 -364.5 -73.5t-124.5 -207.5q0 -90 53.5 -135t145.5 -45z" />
    <glyph glyph-name="acircumflex" unicode="&#xe2;" horiz-adv-x="1126" 
d="M1012 1249l-111 -28l-133 340l-274 -340l-115 30l350 406h102zM725 0l31 174q-71 -94 -168.5 -146.5t-212.5 -52.5q-135 0 -219 72.5t-84 212.5q0 190 164.5 292.5t478.5 102.5h123l8 39q12 56 12 101q0 96 -53 140t-168 44q-201 0 -358 -121l-11 127q71 53 175.5 84
t213.5 31q166 0 250 -74t84 -219q0 -65 -12 -127l-137 -680h-117zM408 92q114 0 211.5 64.5t154.5 171.5l45 225h-121q-240 0 -364.5 -73.5t-124.5 -207.5q0 -90 53.5 -135t145.5 -45z" />
    <glyph glyph-name="atilde" unicode="&#xe3;" horiz-adv-x="1126" 
d="M444 1262l-98 10q54 274 227 274q86 0 177 -84q29 -27 45.5 -40t41 -25.5t46.5 -12.5q92 0 127 177l100 -11q-54 -274 -229 -274q-85 0 -176 84q-82 78 -134 78q-92 0 -127 -176zM725 0l31 174q-71 -94 -168.5 -146.5t-212.5 -52.5q-135 0 -219 72.5t-84 212.5
q0 190 164.5 292.5t478.5 102.5h123l8 39q12 56 12 101q0 96 -53 140t-168 44q-201 0 -358 -121l-11 127q71 53 175.5 84t213.5 31q166 0 250 -74t84 -219q0 -65 -12 -127l-137 -680h-117zM408 92q114 0 211.5 64.5t154.5 171.5l45 225h-121q-240 0 -364.5 -73.5
t-124.5 -207.5q0 -90 53.5 -135t145.5 -45z" />
    <glyph glyph-name="adieresis" unicode="&#xe4;" horiz-adv-x="1126" 
d="M831 1321l37 180h160l-37 -180h-160zM436 1321l35 180h160l-35 -180h-160zM725 0l31 174q-71 -94 -168.5 -146.5t-212.5 -52.5q-135 0 -219 72.5t-84 212.5q0 190 164.5 292.5t478.5 102.5h123l8 39q12 56 12 101q0 96 -53 140t-168 44q-201 0 -358 -121l-11 127
q71 53 175.5 84t213.5 31q166 0 250 -74t84 -219q0 -63 -12 -127l-137 -680h-117zM408 92q114 0 211.5 64.5t154.5 171.5l45 225h-121q-240 0 -364.5 -73.5t-124.5 -207.5q0 -90 53.5 -135t145.5 -45z" />
    <glyph glyph-name="aring" unicode="&#xe5;" horiz-adv-x="1126" 
d="M717 1204q-94 0 -151.5 60t-57.5 153q0 111 76.5 185.5t183.5 74.5q94 0 151.5 -60t57.5 -153q0 -110 -76 -185t-184 -75zM725 1292q69 0 113.5 48t44.5 120q0 60 -32 94.5t-91 34.5q-69 0 -113.5 -48t-44.5 -120q0 -58 32 -93.5t91 -35.5zM725 0l31 174
q-71 -94 -168.5 -146.5t-212.5 -52.5q-135 0 -219 72.5t-84 212.5q0 190 164.5 292.5t478.5 102.5h123l8 39q12 56 12 101q0 96 -53 140t-168 44q-201 0 -358 -121l-11 127q71 53 175.5 84t213.5 31q166 0 250 -74t84 -219q0 -63 -12 -127l-137 -680h-117zM408 92
q114 0 211.5 64.5t154.5 171.5l45 225h-121q-240 0 -364.5 -73.5t-124.5 -207.5q0 -90 53.5 -135t145.5 -45z" />
    <glyph glyph-name="ae" unicode="&#xe6;" horiz-adv-x="1820" 
d="M1626 100q-66 -53 -166 -89t-223 -36q-304 0 -393 238q-85 -111 -204 -174.5t-253 -63.5q-142 0 -228.5 71.5t-86.5 209.5q0 186 161.5 284.5t477.5 98.5h125l12 59q12 56 12 97q0 94 -54 139t-169 45q-201 0 -358 -121l-11 127q71 53 175.5 84t213.5 31q261 0 314 -207
q155 207 407 207q79 0 142 -21t103 -55.5t66.5 -82t37 -97.5t10.5 -105q0 -107 -41 -207h-750q-8 -47 -8 -104q0 -165 77 -248.5t242 -83.5q196 0 357 129zM1368 985q-153 0 -254.5 -98t-146.5 -252h622q17 56 17 115q0 105 -57.5 170t-180.5 65zM412 92q123 0 228 68
t169 186q-2 20 -2 64q0 65 10 127h-123q-241 0 -363 -68.5t-122 -200.5q0 -88 54 -132t149 -44z" />
    <glyph glyph-name="ccedilla" unicode="&#xe7;" horiz-adv-x="1036" 
d="M639 -270q0 -101 -76.5 -159t-204.5 -58q-103 0 -196 41l35 100q80 -41 172 -41q71 0 114 29.5t43 78.5q0 36 -37.5 63t-150.5 54l86 144q-154 25 -239 134.5t-85 299.5q0 100 23.5 197t72.5 185.5t118 155.5t167 106.5t213 39.5q208 0 314 -125l-50 -119
q-97 123 -274 123q-89 0 -164 -33t-126 -87.5t-87 -126.5t-52.5 -149t-16.5 -155q0 -164 76 -248t221 -84q177 0 319 129l12 -125q-142 -125 -360 -125l-49 -73q110 -37 146 -76.5t36 -95.5z" />
    <glyph glyph-name="egrave" unicode="&#xe8;" horiz-adv-x="1120" 
d="M750 1212l-252 412l133 49l194 -424zM926 100q-66 -53 -165.5 -89t-223.5 -36q-217 0 -327 118t-110 327q0 94 21.5 188t68.5 183t113 157.5t162.5 110t210.5 41.5q81 0 144.5 -21t103 -55.5t65.5 -82.5t36.5 -97.5t10.5 -104.5q0 -118 -45 -217h-747q-6 -50 -6 -96
q0 -164 77.5 -247t243.5 -83q196 0 354 129zM668 985q-154 0 -257.5 -101t-146.5 -257h621q20 41 20 121q0 107 -57 172t-180 65z" />
    <glyph glyph-name="eacute" unicode="&#xe9;" horiz-adv-x="1120" 
d="M657 1212l-71 45l321 416l123 -76zM926 100q-66 -53 -165.5 -89t-223.5 -36q-217 0 -327 118t-110 327q0 94 21.5 188t68.5 183t113 157.5t162.5 110t210.5 41.5q81 0 144.5 -21t103 -55.5t65.5 -82.5t36.5 -97.5t10.5 -104.5q0 -118 -45 -217h-747q-6 -50 -6 -96
q0 -164 77.5 -247t243.5 -83q196 0 354 129zM668 985q-154 0 -257.5 -101t-146.5 -257h621q20 41 20 121q0 107 -57 172t-180 65z" />
    <glyph glyph-name="ecircumflex" unicode="&#xea;" horiz-adv-x="1120" 
d="M1026 1249l-111 -28l-133 340l-274 -340l-115 30l350 406h103zM926 100q-66 -53 -165.5 -89t-223.5 -36q-217 0 -327 118t-110 327q0 94 21.5 188t68.5 183t113 157.5t162.5 110t210.5 41.5q81 0 144.5 -21t103 -55.5t65.5 -82.5t36.5 -97.5t10.5 -104.5q0 -118 -45 -217
h-747q-6 -50 -6 -96q0 -164 77.5 -247t243.5 -83q196 0 354 129zM668 985q-154 0 -257.5 -101t-146.5 -257h621q20 41 20 121q0 107 -57 172t-180 65z" />
    <glyph glyph-name="edieresis" unicode="&#xeb;" horiz-adv-x="1120" 
d="M846 1321l37 180h159l-36 -180h-160zM451 1321l34 180h160l-35 -180h-159zM926 100q-66 -53 -165.5 -89t-223.5 -36q-217 0 -327 118t-110 327q0 94 21.5 188t68.5 183t113 157.5t162.5 110t210.5 41.5q81 0 144.5 -21t103 -55.5t65.5 -82.5t36.5 -97.5t10.5 -104.5
q0 -118 -45 -217h-747q-6 -50 -6 -96q0 -164 77.5 -247t243.5 -83q196 0 354 129zM668 985q-154 0 -257.5 -101t-146.5 -257h621q20 41 20 121q0 107 -57 172t-180 65z" />
    <glyph glyph-name="igrave" unicode="&#xec;" horiz-adv-x="520" 
d="M438 1212l-252 412l133 49l195 -424zM84 0l217 1075h135l-217 -1075h-135z" />
    <glyph glyph-name="iacute" unicode="&#xed;" horiz-adv-x="520" 
d="M340 1212l-72 45l322 416l123 -76zM84 0l217 1075h135l-217 -1075h-135z" />
    <glyph glyph-name="icircumflex" unicode="&#xee;" horiz-adv-x="520" 
d="M678 1249l-105 -28l-104 338l-231 -338l-111 30l307 406h103zM84 0l217 1075h135l-217 -1075h-135z" />
    <glyph glyph-name="idieresis" unicode="&#xef;" horiz-adv-x="520" 
d="M518 1321l37 180h160l-37 -180h-160zM156 1321l37 180h157l-35 -180h-159zM84 0l217 1075h135l-217 -1075h-135z" />
    <glyph glyph-name="eth" unicode="&#xf0;" horiz-adv-x="1185" 
d="M1087 737q0 -161 -38.5 -299.5t-110.5 -241.5t-182 -162t-246 -59q-196 0 -303 117.5t-107 325.5q0 125 38.5 240.5t108 205.5t174 143.5t228.5 53.5q113 0 188 -44t124 -130q-36 222 -175 409l-270 -125l-49 74l260 121q-90 106 -221 199l125 55q122 -96 211 -201
l260 121l51 -74l-256 -118q190 -261 190 -611zM238 426q0 -161 72 -246.5t206 -85.5q196 0 318 172.5t122 454.5v6q-33 107 -108.5 161t-183.5 54q-130 0 -229 -74t-148 -190t-49 -252z" />
    <glyph glyph-name="ntilde" unicode="&#xf1;" horiz-adv-x="1189" 
d="M479 1262l-98 10q54 274 227 274q85 0 176 -84q29 -26 45.5 -39.5t41.5 -26t47 -12.5q91 0 126 177l101 -11q-54 -274 -230 -274q-85 0 -176 84q-82 78 -133 78q-92 0 -127 -176zM356 715l-143 -715h-135l217 1075h117l-35 -201q71 102 171.5 164t221.5 62
q128 0 206.5 -73.5t78.5 -219.5q0 -61 -15 -131l-135 -676h-135l135 676q15 70 15 115q0 184 -179 184q-116 0 -220 -69.5t-165 -190.5z" />
    <glyph glyph-name="ograve" unicode="&#xf2;" horiz-adv-x="1179" 
d="M760 1212l-252 412l133 49l195 -424zM504 -25q-185 0 -294.5 114.5t-109.5 326.5q0 124 38.5 244t109.5 219t182.5 160t245.5 61q184 0 293.5 -114.5t109.5 -326.5q0 -99 -23.5 -196.5t-72 -185.5t-115.5 -155t-161.5 -107t-202.5 -40zM514 94q102 0 185.5 50t135 131.5
t79.5 178.5t28 197q0 161 -72 245.5t-204 84.5q-102 0 -185.5 -50t-135 -131.5t-79.5 -178.5t-28 -197q0 -161 72.5 -245.5t203.5 -84.5z" />
    <glyph glyph-name="oacute" unicode="&#xf3;" horiz-adv-x="1179" 
d="M668 1212l-72 45l322 416l122 -76zM504 -25q-185 0 -294.5 114.5t-109.5 326.5q0 124 38.5 244t109.5 219t182.5 160t245.5 61q184 0 293.5 -114.5t109.5 -326.5q0 -99 -23.5 -196.5t-72 -185.5t-115.5 -155t-161.5 -107t-202.5 -40zM514 94q102 0 185.5 50t135 131.5
t79.5 178.5t28 197q0 161 -72 245.5t-204 84.5q-102 0 -185.5 -50t-135 -131.5t-79.5 -178.5t-28 -197q0 -161 72.5 -245.5t203.5 -84.5z" />
    <glyph glyph-name="ocircumflex" unicode="&#xf4;" horiz-adv-x="1179" 
d="M1036 1249l-110 -28l-133 340l-275 -340l-115 30l351 406h102zM504 -25q-185 0 -294.5 114.5t-109.5 326.5q0 124 38.5 244t109.5 219t182.5 160t245.5 61q184 0 293.5 -114.5t109.5 -326.5q0 -99 -23.5 -196.5t-72 -185.5t-115.5 -155t-161.5 -107t-202.5 -40zM514 94
q102 0 185.5 50t135 131.5t79.5 178.5t28 197q0 161 -72 245.5t-204 84.5q-102 0 -185.5 -50t-135 -131.5t-79.5 -178.5t-28 -197q0 -161 72.5 -245.5t203.5 -84.5z" />
    <glyph glyph-name="otilde" unicode="&#xf5;" horiz-adv-x="1179" 
d="M469 1262l-98 10q54 274 227 274q85 0 176 -84q29 -27 45.5 -40t41 -25.5t46.5 -12.5q92 0 127 177l101 -11q-54 -274 -230 -274q-85 0 -176 84q-82 78 -133 78q-92 0 -127 -176zM504 -25q-185 0 -294.5 114.5t-109.5 326.5q0 124 38.5 244t109.5 219t182.5 160t245.5 61
q184 0 293.5 -114.5t109.5 -326.5q0 -99 -23.5 -196.5t-72 -185.5t-115.5 -155t-161.5 -107t-202.5 -40zM514 94q102 0 185.5 50t135 131.5t79.5 178.5t28 197q0 161 -72 245.5t-204 84.5q-102 0 -185.5 -50t-135 -131.5t-79.5 -178.5t-28 -197q0 -161 72.5 -245.5
t203.5 -84.5z" />
    <glyph glyph-name="odieresis" unicode="&#xf6;" horiz-adv-x="1179" 
d="M856 1321l37 180h160l-37 -180h-160zM461 1321l35 180h159l-34 -180h-160zM504 -25q-185 0 -294.5 114.5t-109.5 326.5q0 124 38.5 244t109.5 219t182.5 160t245.5 61q184 0 293.5 -114.5t109.5 -326.5q0 -99 -23.5 -196.5t-72 -185.5t-115.5 -155t-161.5 -107
t-202.5 -40zM514 94q102 0 185.5 50t135 131.5t79.5 178.5t28 197q0 161 -72 245.5t-204 84.5q-102 0 -185.5 -50t-135 -131.5t-79.5 -178.5t-28 -197q0 -161 72.5 -245.5t203.5 -84.5z" />
    <glyph glyph-name="divide" unicode="&#xf7;" 
d="M535 1069q0 44 33 77.5t77 33.5t77.5 -33.5t33.5 -77.5t-33.5 -77.5t-77.5 -33.5t-77 33.5t-33 77.5zM127 555v115h1036v-115h-1036zM535 156q0 44 33 77t77 33t77.5 -33t33.5 -77t-33.5 -77.5t-77.5 -33.5t-77 33.5t-33 77.5z" />
    <glyph glyph-name="oslash" unicode="&#xf8;" horiz-adv-x="1179" 
d="M504 -25q-164 0 -271 93l-159 -183l-78 47l178 203q-74 110 -74 281q0 124 38.5 244t109.5 219t182.5 160t245.5 61q164 0 270 -92l162 182l76 -47l-178 -203q73 -109 73 -281q0 -99 -23.5 -196.5t-72 -185.5t-115.5 -155t-161.5 -107t-202.5 -40zM238 424
q0 -105 32 -180l588 665q-69 72 -192 72q-102 0 -185.5 -50t-135 -131.5t-79.5 -178.5t-28 -197zM942 651q0 113 -33 180l-587 -665q72 -72 192 -72q102 0 185.5 50t135 131.5t79.5 178.5t28 197z" />
    <glyph glyph-name="ugrave" unicode="&#xf9;" horiz-adv-x="1189" 
d="M762 1212l-252 412l133 49l195 -424zM778 0l35 205q-69 -104 -167 -167t-222 -63q-130 0 -209.5 73.5t-79.5 219.5q0 60 15 131l135 676h135l-135 -676q-13 -70 -13 -114q0 -185 183 -185q128 0 224.5 77t158.5 204l139 694h135l-215 -1075h-119z" />
    <glyph glyph-name="uacute" unicode="&#xfa;" horiz-adv-x="1189" 
d="M670 1212l-72 45l322 416l122 -76zM778 0l35 205q-69 -104 -167 -167t-222 -63q-130 0 -209.5 73.5t-79.5 219.5q0 60 15 131l135 676h135l-135 -676q-13 -70 -13 -114q0 -185 183 -185q128 0 224.5 77t158.5 204l139 694h135l-215 -1075h-119z" />
    <glyph glyph-name="ucircumflex" unicode="&#xfb;" horiz-adv-x="1189" 
d="M1038 1249l-110 -28l-133 340l-275 -340l-114 30l350 406h102zM778 0l35 205q-69 -104 -167 -167t-222 -63q-130 0 -209.5 73.5t-79.5 219.5q0 60 15 131l135 676h135l-135 -676q-13 -70 -13 -114q0 -185 183 -185q128 0 224.5 77t158.5 204l139 694h135l-215 -1075h-119
z" />
    <glyph glyph-name="udieresis" unicode="&#xfc;" horiz-adv-x="1189" 
d="M858 1321l37 180h160l-37 -180h-160zM463 1321l35 180h159l-34 -180h-160zM778 0l35 205q-69 -104 -167 -167t-222 -63q-130 0 -209.5 73.5t-79.5 219.5q0 60 15 131l135 676h135l-135 -676q-13 -70 -13 -114q0 -185 183 -185q128 0 224.5 77t158.5 204l139 694h135
l-215 -1075h-119z" />
    <glyph glyph-name="yacute" unicode="&#xfd;" horiz-adv-x="1052" 
d="M602 1212l-72 45l322 416l123 -76zM487 6q-81 -145 -137 -230t-113.5 -144t-111.5 -81t-123 -22q-80 0 -156 35l37 127q57 -37 129 -37q81 0 157 77.5t179 268.5l-188 1075h141l141 -930l496 930h154z" />
    <glyph glyph-name="thorn" unicode="&#xfe;" horiz-adv-x="1226" 
d="M557 -25q-208 0 -315 158l-119 -588h-135l409 2048h135l-137 -684q152 191 369 191q172 0 267 -116t95 -312q0 -133 -39.5 -257.5t-110.5 -222.5t-180.5 -157.5t-238.5 -59.5zM266 260q38 -78 113 -123t170 -45q98 0 182 47t139.5 125.5t87 181t31.5 213.5
q0 158 -68.5 238t-193.5 80q-116 0 -213 -65.5t-154 -180.5z" />
    <glyph glyph-name="ydieresis" unicode="&#xff;" horiz-adv-x="1052" 
d="M791 1321l36 180h160l-37 -180h-159zM395 1321l35 180h160l-35 -180h-160zM487 6q-81 -145 -137 -230t-113.5 -144t-111.5 -81t-123 -22q-80 0 -156 35l37 127q57 -37 129 -37q81 0 157 77.5t179 268.5l-188 1075h141l141 -930l496 930h154z" />
    <glyph glyph-name="Amacron" unicode="&#x100;" horiz-adv-x="1368" 
d="M571 1753l23 113h690l-22 -113h-691zM1059 0l-68 455h-635l-247 -455h-156l852 1520h151l246 -1520h-143zM420 573h553l-121 795z" />
    <glyph glyph-name="amacron" unicode="&#x101;" horiz-adv-x="1126" 
d="M416 1356l22 114h611l-23 -114h-610zM725 0l31 174q-71 -94 -168.5 -146.5t-212.5 -52.5q-135 0 -219 72.5t-84 212.5q0 190 164.5 292.5t478.5 102.5h123l8 39q12 56 12 101q0 96 -53 140t-168 44q-201 0 -358 -121l-11 127q71 53 175.5 84t213.5 31q166 0 250 -74
t84 -219q0 -57 -12 -127l-137 -680h-117zM408 92q114 0 211.5 64.5t154.5 171.5l45 225h-121q-240 0 -364.5 -73.5t-124.5 -207.5q0 -90 53.5 -135t145.5 -45z" />
    <glyph glyph-name="Abreve" unicode="&#x102;" horiz-adv-x="1368" 
d="M639 1968l100 8q-4 -23 -4 -59q0 -160 172 -160q204 0 262 219l111 -8q-40 -159 -140.5 -239t-238.5 -80q-126 0 -196 64.5t-70 184.5q0 43 4 70zM1059 0l-68 455h-635l-247 -455h-156l852 1520h151l246 -1520h-143zM420 573h553l-121 795z" />
    <glyph glyph-name="abreve" unicode="&#x103;" horiz-adv-x="1126" 
d="M449 1587l98 8q-6 -37 -6 -77q0 -92 44.5 -135.5t123.5 -43.5q205 0 268 256l110 -8q-42 -175 -144 -264.5t-243 -89.5q-123 0 -191.5 69t-68.5 199q0 39 9 86zM725 0l31 174q-71 -94 -168.5 -146.5t-212.5 -52.5q-135 0 -219 72.5t-84 212.5q0 190 164.5 292.5
t478.5 102.5h123l8 39q12 56 12 101q0 96 -53 140t-168 44q-201 0 -358 -121l-11 127q71 53 175.5 84t213.5 31q166 0 250 -74t84 -219q0 -65 -12 -127l-137 -680h-117zM408 92q114 0 211.5 64.5t154.5 171.5l45 225h-121q-240 0 -364.5 -73.5t-124.5 -207.5
q0 -90 53.5 -135t145.5 -45z" />
    <glyph glyph-name="Aogonek" unicode="&#x104;" horiz-adv-x="1368" 
d="M1155 -436q-71 -51 -176 -51q-91 0 -142 46t-51 128q0 91 66.5 169t204.5 154l-66 445h-635l-247 -455h-156l852 1520h151l246 -1520q-301 -125 -301 -285q0 -94 107 -94q70 0 143 51zM420 573h553l-121 795z" />
    <glyph glyph-name="aogonek" unicode="&#x105;" horiz-adv-x="1126" 
d="M786 -436q-71 -51 -174 -51q-89 0 -138.5 45t-49.5 125q0 92 72.5 171t232.5 164l27 156q-71 -94 -168.5 -146.5t-212.5 -52.5q-135 0 -219 72.5t-84 212.5q0 190 164.5 292.5t478.5 102.5h123l8 39q12 56 12 101q0 96 -53 140t-168 44q-201 0 -358 -121l-11 127
q71 53 175.5 84t213.5 31q166 0 250 -74t84 -219q0 -65 -12 -127l-137 -680q-146 -70 -224.5 -140.5t-78.5 -150.5q0 -88 102 -88q68 0 141 51zM408 92q114 0 211.5 64.5t154.5 171.5l45 225h-121q-240 0 -364.5 -73.5t-124.5 -207.5q0 -90 53.5 -135t145.5 -45z" />
    <glyph glyph-name="Cacute" unicode="&#x106;" horiz-adv-x="1366" 
d="M905 1638l-63 54l383 315l114 -94zM1217 150q-206 -179 -496 -179q-263 0 -415 156.5t-152 462.5q0 145 34 283.5t103.5 260.5t166.5 214.5t232 146t291 53.5q269 0 426 -157l-59 -138q-142 168 -383 168q-126 0 -235 -46t-187 -125.5t-134 -185t-83 -224.5t-27 -244
q0 -498 436 -498q257 0 469 193z" />
    <glyph glyph-name="cacute" unicode="&#x107;" horiz-adv-x="1036" 
d="M647 1212l-72 45l322 416l123 -76zM866 100q-143 -125 -354 -125q-193 0 -302.5 112.5t-109.5 328.5q0 100 23.5 197t72.5 185.5t118 155.5t167 106.5t213 39.5q208 0 314 -125l-50 -119q-97 123 -274 123q-89 0 -164 -33t-126 -87.5t-87 -126.5t-52.5 -149t-16.5 -155
q0 -164 76 -248t221 -84q177 0 319 129z" />
    <glyph glyph-name="Ccircumflex" unicode="&#x108;" horiz-adv-x="1366" 
d="M1329 1675l-117 -28l-165 247l-275 -247l-125 28l359 312h102zM1217 150q-206 -179 -496 -179q-263 0 -415 156.5t-152 462.5q0 145 34 283.5t103.5 260.5t166.5 214.5t232 146t291 53.5q269 0 426 -157l-59 -138q-142 168 -383 168q-126 0 -235 -46t-187 -125.5
t-134 -185t-83 -224.5t-27 -244q0 -498 436 -498q257 0 469 193z" />
    <glyph glyph-name="ccircumflex" unicode="&#x109;" horiz-adv-x="1036" 
d="M1036 1249l-110 -28l-133 340l-275 -340l-115 30l351 406h102zM866 100q-143 -125 -354 -125q-193 0 -302.5 112.5t-109.5 328.5q0 100 23.5 197t72.5 185.5t118 155.5t167 106.5t213 39.5q208 0 314 -125l-50 -119q-97 123 -274 123q-89 0 -164 -33t-126 -87.5
t-87 -126.5t-52.5 -149t-16.5 -155q0 -164 76 -248t221 -84q177 0 319 129z" />
    <glyph glyph-name="Cdotaccent" unicode="&#x10a;" horiz-adv-x="1366" 
d="M928 1720l35 178h167l-36 -178h-166zM1217 150q-206 -179 -496 -179q-263 0 -415 156.5t-152 462.5q0 145 34 283.5t103.5 260.5t166.5 214.5t232 146t291 53.5q269 0 426 -157l-59 -138q-142 168 -383 168q-126 0 -235 -46t-187 -125.5t-134 -185t-83 -224.5t-27 -244
q0 -498 436 -498q257 0 469 193z" />
    <glyph glyph-name="cdotaccent" unicode="&#x10b;" horiz-adv-x="1036" 
d="M647 1321l35 180h168l-37 -180h-166zM866 100q-143 -125 -354 -125q-193 0 -302.5 112.5t-109.5 328.5q0 100 23.5 197t72.5 185.5t118 155.5t167 106.5t213 39.5q208 0 314 -125l-50 -119q-97 123 -274 123q-89 0 -164 -33t-126 -87.5t-87 -126.5t-52.5 -149t-16.5 -155
q0 -164 76 -248t221 -84q177 0 319 129z" />
    <glyph glyph-name="Ccaron" unicode="&#x10c;" horiz-adv-x="1366" 
d="M1399 1962l-359 -307h-102l-221 307l117 31l165 -248l277 250zM1217 150q-206 -179 -496 -179q-263 0 -415 156.5t-152 462.5q0 145 34 283.5t103.5 260.5t166.5 214.5t232 146t291 53.5q269 0 426 -157l-59 -138q-142 168 -383 168q-126 0 -235 -46t-187 -125.5
t-134 -185t-83 -224.5t-27 -244q0 -498 436 -498q257 0 469 193z" />
    <glyph glyph-name="ccaron" unicode="&#x10d;" horiz-adv-x="1036" 
d="M1108 1622l-350 -393h-103l-178 393l111 33l133 -330l272 332zM866 100q-143 -125 -354 -125q-193 0 -302.5 112.5t-109.5 328.5q0 100 23.5 197t72.5 185.5t118 155.5t167 106.5t213 39.5q208 0 314 -125l-50 -119q-97 123 -274 123q-89 0 -164 -33t-126 -87.5
t-87 -126.5t-52.5 -149t-16.5 -155q0 -164 76 -248t221 -84q177 0 319 129z" />
    <glyph glyph-name="Dcaron" unicode="&#x10e;" horiz-adv-x="1495" 
d="M1309 1962l-359 -307h-102l-221 307l116 31l166 -248l277 250zM1430 924q0 -200 -62.5 -370.5t-176 -293t-281 -191.5t-369.5 -69h-432l303 1520h372q174 0 298.5 -39t200.5 -116.5t111.5 -186t35.5 -254.5zM762 1397h-236l-254 -1272h291q166 0 303 62.5t228 170.5
t140.5 253t49.5 311q0 121 -27.5 207.5t-89 147.5t-162 90.5t-243.5 29.5z" />
    <glyph glyph-name="dcaron" unicode="&#x10f;" horiz-adv-x="1271" 
d="M1434 1174h-97l150 475h147zM815 0l35 188q-70 -102 -168.5 -157.5t-216.5 -55.5q-174 0 -269.5 116t-95.5 312q0 105 24.5 206.5t74 190t117 156t159 106t195.5 38.5q208 0 317 -162l131 655h135l-319 -1593h-119zM238 416q0 -159 68.5 -239.5t193.5 -80.5
q116 0 211.5 65.5t156.5 188.5l95 467q-39 74 -112.5 120t-170.5 46q-99 0 -183.5 -47t-140 -126t-87 -181t-31.5 -213z" />
    <glyph glyph-name="Dcroat" unicode="&#x110;" horiz-adv-x="1513" 
d="M1448 924q0 -200 -62.5 -370.5t-176 -293t-281 -191.5t-369.5 -69h-432l149 750h-184l23 110h184l131 660h373q174 0 298.5 -39t200.5 -116.5t111 -186t35 -254.5zM829 750h-413l-125 -625h291q166 0 303 62.5t228 170.5t140.5 253t49.5 311q0 243 -120.5 359t-402.5 116
h-235l-107 -537h414z" />
    <glyph glyph-name="dcroat" unicode="&#x111;" horiz-adv-x="1228" 
d="M815 0l35 188q-70 -102 -168.5 -157.5t-216.5 -55.5q-174 0 -269.5 116t-95.5 312q0 105 24.5 206.5t74 190t117 156t159 106t195.5 38.5q208 0 317 -162l66 332h-316l21 98h315l47 242h135l-49 -242h162l-20 -98h-160l-254 -1270h-119zM238 416q0 -159 68.5 -239.5
t193.5 -80.5q116 0 212.5 66t157.5 188l93 465q-39 76 -112.5 122t-170.5 46q-99 0 -183.5 -47t-140 -126t-87 -181t-31.5 -213z" />
    <glyph glyph-name="Emacron" unicode="&#x112;" horiz-adv-x="1253" 
d="M547 1753l22 113h691l-23 -113h-690zM1044 125l-26 -125h-909l303 1520h893l-25 -123h-754l-106 -533h674l-25 -121h-674l-123 -618h772z" />
    <glyph glyph-name="emacron" unicode="&#x113;" horiz-adv-x="1120" 
d="M430 1356l23 114h610l-23 -114h-610zM926 100q-66 -53 -165.5 -89t-223.5 -36q-217 0 -327 118t-110 327q0 94 21.5 188t68.5 183t113 157.5t162.5 110t210.5 41.5q81 0 144.5 -21t103 -55.5t65.5 -82.5t36.5 -97.5t10.5 -104.5q0 -118 -45 -217h-747q-6 -50 -6 -96
q0 -164 77.5 -247t243.5 -83q196 0 354 129zM668 985q-154 0 -257.5 -101t-146.5 -257h621q20 41 20 121q0 107 -57 172t-180 65z" />
    <glyph glyph-name="Ebreve" unicode="&#x114;" horiz-adv-x="1253" 
d="M614 1968l101 8q-4 -23 -4 -59q0 -160 172 -160q204 0 262 219l110 -8q-40 -159 -140.5 -239t-237.5 -80q-126 0 -196.5 64.5t-70.5 184.5q0 43 4 70zM1044 125l-26 -125h-909l303 1520h893l-25 -123h-754l-106 -533h674l-25 -121h-674l-123 -618h772z" />
    <glyph glyph-name="ebreve" unicode="&#x115;" horiz-adv-x="1120" 
d="M463 1587l98 8q-6 -37 -6 -77q0 -92 44.5 -135.5t123.5 -43.5q205 0 268 256l111 -8q-42 -175 -144 -264.5t-243 -89.5q-123 0 -191.5 69t-68.5 199q0 45 8 86zM926 100q-66 -53 -165.5 -89t-223.5 -36q-217 0 -327 118t-110 327q0 94 21.5 188t68.5 183t113 157.5
t162.5 110t210.5 41.5q81 0 144.5 -21t103 -55.5t65.5 -82.5t36.5 -97.5t10.5 -104.5q0 -118 -45 -217h-747q-6 -50 -6 -96q0 -164 77.5 -247t243.5 -83q196 0 354 129zM668 985q-154 0 -257.5 -101t-146.5 -257h621q20 41 20 121q0 107 -57 172t-180 65z" />
    <glyph glyph-name="Edotaccent" unicode="&#x116;" horiz-adv-x="1253" 
d="M807 1720l35 178h168l-37 -178h-166zM1044 125l-26 -125h-909l303 1520h893l-25 -123h-754l-106 -533h674l-25 -121h-674l-123 -618h772z" />
    <glyph glyph-name="edotaccent" unicode="&#x117;" horiz-adv-x="1120" 
d="M645 1321l35 180h168l-37 -180h-166zM926 100q-66 -53 -165.5 -89t-223.5 -36q-217 0 -327 118t-110 327q0 94 21.5 188t68.5 183t113 157.5t162.5 110t210.5 41.5q81 0 144.5 -21t103 -55.5t65.5 -82.5t36.5 -97.5t10.5 -104.5q0 -118 -45 -217h-747q-6 -50 -6 -96
q0 -164 77.5 -247t243.5 -83q196 0 354 129zM668 985q-154 0 -257.5 -101t-146.5 -257h621q20 41 20 121q0 107 -57 172t-180 65z" />
    <glyph glyph-name="Eogonek" unicode="&#x118;" horiz-adv-x="1253" 
d="M543 -311q0 178 250 311h-684l303 1520h893l-25 -123h-754l-106 -533h674l-25 -121h-674l-123 -618h772l-26 -125h-60q-136 -47 -218.5 -123t-82.5 -162q0 -94 107 -94q71 0 141 51l6 -108q-74 -51 -176 -51q-91 0 -141.5 46.5t-50.5 129.5z" />
    <glyph glyph-name="eogonek" unicode="&#x119;" horiz-adv-x="1120" 
d="M735 -436q-71 -51 -176 -51q-91 0 -141.5 46.5t-50.5 129.5q0 155 206 286h-36q-217 0 -327 118t-110 327q0 94 21.5 188t68.5 183t113 157.5t162.5 110t210.5 41.5q81 0 144.5 -21t103 -55.5t65.5 -82.5t36.5 -97.5t10.5 -104.5q0 -118 -45 -217h-747q-6 -50 -6 -96
q0 -164 77.5 -247t243.5 -83q196 0 354 129l13 -125q-54 -44 -135 -77q-310 -151 -310 -308q0 -94 107 -94q70 0 143 51zM668 985q-154 0 -257.5 -101t-146.5 -257h621q20 41 20 121q0 107 -57 172t-180 65z" />
    <glyph glyph-name="Ecaron" unicode="&#x11a;" horiz-adv-x="1253" 
d="M1278 1962l-358 -307h-103l-221 307l117 31l166 -248l276 250zM1044 125l-26 -125h-909l303 1520h893l-25 -123h-754l-106 -533h674l-25 -121h-674l-123 -618h772z" />
    <glyph glyph-name="ecaron" unicode="&#x11b;" horiz-adv-x="1120" 
d="M1108 1622l-350 -393h-103l-178 393l111 33l133 -330l272 332zM926 100q-66 -53 -165.5 -89t-223.5 -36q-217 0 -327 118t-110 327q0 94 21.5 188t68.5 183t113 157.5t162.5 110t210.5 41.5q81 0 144.5 -21t103 -55.5t65.5 -82.5t36.5 -97.5t10.5 -104.5q0 -118 -45 -217
h-747q-6 -50 -6 -96q0 -164 77.5 -247t243.5 -83q196 0 354 129zM668 985q-154 0 -257.5 -101t-146.5 -257h621q20 41 20 121q0 107 -57 172t-180 65z" />
    <glyph glyph-name="Gcircumflex" unicode="&#x11c;" horiz-adv-x="1509" 
d="M1348 1675l-117 -28l-166 247l-274 -247l-125 28l358 312h102zM1260 139q-86 -70 -219.5 -119t-301.5 -49q-277 0 -431 155.5t-154 465.5q0 145 33.5 282.5t104 260t169.5 214.5t239 145.5t304 53.5q290 0 458 -157l-57 -138q-157 168 -420 168q-134 0 -247.5 -46
t-193 -125t-135.5 -184.5t-83 -224t-27 -243.5q0 -253 114 -376.5t345 -123.5q213 0 383 101l94 469h-447l25 120h578z" />
    <glyph glyph-name="gcircumflex" unicode="&#x11d;" horiz-adv-x="1226" 
d="M1063 1249l-111 -28l-133 340l-274 -340l-115 30l350 406h103zM936 2q-51 -253 -185 -365t-354 -112q-247 0 -395 121l43 121q59 -55 155.5 -88t209.5 -33q158 0 254 79.5t135 274.5l32 166q-148 -191 -366 -191q-174 0 -269.5 116t-95.5 312q0 105 24.5 206.5t74 190
t117 156t159 106t195.5 38.5q219 0 321 -178l41 153h117zM238 416q0 -159 68.5 -239.5t193.5 -80.5q117 0 212.5 66t153.5 182l92 461q-37 84 -109.5 131t-170.5 47t-182 -47t-139.5 -125.5t-87 -181t-31.5 -213.5z" />
    <glyph glyph-name="Gbreve" unicode="&#x11e;" horiz-adv-x="1509" 
d="M754 1968l100 8q-4 -23 -4 -59q0 -160 172 -160q204 0 262 219l111 -8q-40 -159 -140.5 -239t-238.5 -80q-126 0 -196 64.5t-70 184.5q0 43 4 70zM1260 139q-86 -70 -219.5 -119t-301.5 -49q-277 0 -431 155.5t-154 465.5q0 145 33.5 282.5t104 260t169.5 214.5
t239 145.5t304 53.5q290 0 458 -157l-57 -138q-157 168 -420 168q-134 0 -247.5 -46t-193 -125t-135.5 -184.5t-83 -224t-27 -243.5q0 -253 114 -376.5t345 -123.5q213 0 383 101l94 469h-447l25 120h578z" />
    <glyph glyph-name="gbreve" unicode="&#x11f;" horiz-adv-x="1226" 
d="M500 1587l98 8q-6 -37 -6 -77q0 -92 44.5 -135.5t123.5 -43.5q205 0 268 256l111 -8q-42 -175 -144 -264.5t-243 -89.5q-123 0 -191.5 69t-68.5 199q0 45 8 86zM936 2q-51 -253 -185 -365t-354 -112q-247 0 -395 121l43 121q59 -55 155.5 -88t209.5 -33q158 0 254 79.5
t135 274.5l32 166q-148 -191 -366 -191q-174 0 -269.5 116t-95.5 312q0 105 24.5 206.5t74 190t117 156t159 106t195.5 38.5q219 0 321 -178l41 153h117zM238 416q0 -159 68.5 -239.5t193.5 -80.5q117 0 212.5 66t153.5 182l92 461q-37 84 -109.5 131t-170.5 47t-182 -47
t-139.5 -125.5t-87 -181t-31.5 -213.5z" />
    <glyph glyph-name="Gdotaccent" unicode="&#x120;" horiz-adv-x="1509" 
d="M946 1720l35 178h168l-37 -178h-166zM1260 139q-86 -70 -219.5 -119t-301.5 -49q-277 0 -431 155.5t-154 465.5q0 145 33.5 282.5t104 260t169.5 214.5t239 145.5t304 53.5q290 0 458 -157l-57 -138q-157 168 -420 168q-134 0 -247.5 -46t-193 -125t-135.5 -184.5
t-83 -224t-27 -243.5q0 -253 114 -376.5t345 -123.5q213 0 383 101l94 469h-447l25 120h578z" />
    <glyph glyph-name="gdotaccent" unicode="&#x121;" horiz-adv-x="1226" 
d="M686 1321l35 180h168l-37 -180h-166zM936 2q-51 -253 -185 -365t-354 -112q-247 0 -395 121l43 121q59 -55 155.5 -88t209.5 -33q158 0 254 79.5t135 274.5l32 166q-148 -191 -366 -191q-174 0 -269.5 116t-95.5 312q0 105 24.5 206.5t74 190t117 156t159 106t195.5 38.5
q219 0 321 -178l41 153h117zM238 416q0 -159 68.5 -239.5t193.5 -80.5q117 0 212.5 66t153.5 182l92 461q-37 84 -109.5 131t-170.5 47t-182 -47t-139.5 -125.5t-87 -181t-31.5 -213.5z" />
    <glyph glyph-name="uni0122" unicode="&#x122;" horiz-adv-x="1509" 
d="M1260 139q-86 -70 -219.5 -119t-301.5 -49q-277 0 -431 155.5t-154 465.5q0 145 33.5 282.5t104 260t169.5 214.5t239 145.5t304 53.5q290 0 458 -157l-57 -138q-157 168 -420 168q-134 0 -247.5 -46t-193 -125t-135.5 -184.5t-83 -224t-27 -243.5q0 -253 114 -376.5
t345 -123.5q213 0 383 101l94 469h-447l25 120h578zM578 -494l-103 25q145 152 162 336h133q-29 -223 -192 -361z" />
    <glyph glyph-name="uni0123" unicode="&#x123;" horiz-adv-x="1226" 
d="M856 1634l102 -24q-129 -146 -147 -336h-133q26 220 178 360zM936 2q-51 -253 -185 -365t-354 -112q-247 0 -395 121l43 121q59 -55 155.5 -88t209.5 -33q158 0 254 79.5t135 274.5l32 166q-148 -191 -366 -191q-174 0 -269.5 116t-95.5 312q0 105 24.5 206.5t74 190
t117 156t159 106t195.5 38.5q219 0 321 -178l41 153h117zM238 416q0 -159 68.5 -239.5t193.5 -80.5q117 0 212.5 66t153.5 182l92 461q-37 84 -109.5 131t-170.5 47t-182 -47t-139.5 -125.5t-87 -181t-31.5 -213.5z" />
    <glyph glyph-name="Hcircumflex" unicode="&#x124;" horiz-adv-x="1503" 
d="M1300 1675l-116 -28l-166 247l-275 -247l-125 28l359 312h102zM1038 0l148 743h-791l-147 -743h-139l303 1520h139l-131 -656h790l131 656h142l-303 -1520h-142z" />
    <glyph glyph-name="hcircumflex" unicode="&#x125;" horiz-adv-x="1189" 
d="M1141 1675l-117 -28l-166 247l-274 -247l-125 28l358 312h103zM356 715l-143 -715h-135l319 1593h135l-141 -704q69 96 165.5 153.5t213.5 57.5q128 0 206.5 -74t78.5 -221q0 -59 -15 -129l-135 -676h-135l135 676q15 69 15 115q0 184 -179 184q-116 0 -220 -69.5
t-165 -190.5z" />
    <glyph glyph-name="Hbar" unicode="&#x126;" horiz-adv-x="1515" 
d="M1044 0l148 743h-791l-147 -743h-139l227 1145h-164l21 100h163l56 275h139l-55 -275h790l56 275h141l-55 -275h163l-20 -100h-164l-227 -1145h-142zM426 864h791l55 281h-791z" />
    <glyph glyph-name="hbar" unicode="&#x127;" horiz-adv-x="1191" 
d="M358 715l-141 -715h-135l254 1270h-160l21 98h157l49 242h136l-50 -242h322l-20 -98h-322l-76 -381q156 211 379 211q128 0 206.5 -73.5t78.5 -219.5q0 -61 -15 -131l-135 -676h-135l135 676q15 69 15 115q0 184 -179 184q-114 0 -219 -69.5t-166 -190.5z" />
    <glyph glyph-name="Itilde" unicode="&#x128;" horiz-adv-x="571" 
d="M229 1659l-98 10q53 275 238 275q86 0 184 -84q32 -26 49.5 -39.5t44 -26t49.5 -12.5q96 0 135 176l99 -8q-26 -135 -86.5 -206t-151.5 -71q-86 0 -184 84q-45 39 -77 58.5t-66 19.5q-98 0 -136 -176zM109 0l303 1520h139l-303 -1520h-139z" />
    <glyph glyph-name="itilde" unicode="&#x129;" horiz-adv-x="520" 
d="M176 1262l-100 10q25 134 79.5 204t133.5 70q82 0 166 -84q78 -78 123 -78q84 0 112 177l101 -11q-25 -134 -79.5 -204t-133.5 -70q-78 0 -166 84q-40 40 -68 59t-55 19q-85 0 -113 -176zM84 0l217 1075h135l-217 -1075h-135z" />
    <glyph glyph-name="Imacron" unicode="&#x12a;" horiz-adv-x="571" 
d="M174 1753l23 113h690l-23 -113h-690zM109 0l303 1520h139l-303 -1520h-139z" />
    <glyph glyph-name="imacron" unicode="&#x12b;" horiz-adv-x="520" 
d="M168 1356l22 114h512l-22 -114h-512zM84 0l217 1075h135l-217 -1075h-135z" />
    <glyph glyph-name="Ibreve" unicode="&#x12c;" horiz-adv-x="571" 
d="M242 1968l100 8q-4 -23 -4 -59q0 -160 172 -160q204 0 262 219l111 -8q-40 -159 -140.5 -239t-238.5 -80q-126 0 -196 64.5t-70 184.5q0 43 4 70zM109 0l303 1520h139l-303 -1520h-139z" />
    <glyph glyph-name="ibreve" unicode="&#x12d;" horiz-adv-x="520" 
d="M172 1587l100 8q-8 -47 -8 -88q0 -168 148 -168q88 0 152 62t95 194l111 -8q-42 -176 -138 -265t-229 -89q-115 0 -177 66.5t-62 193.5q0 53 8 94zM84 0l217 1075h135l-217 -1075h-135z" />
    <glyph glyph-name="Iogonek" unicode="&#x12e;" horiz-adv-x="571" 
d="M264 -436q-74 -51 -176 -51q-92 0 -142 46t-50 130q0 163 223 311h-10l303 1520h139l-303 -1520q-69 -43 -116.5 -81.5t-84.5 -93.5t-37 -110q0 -94 105 -94q73 0 143 51z" />
    <glyph glyph-name="iogonek" unicode="&#x12f;" horiz-adv-x="516" 
d="M332 1321l35 180h165l-34 -180h-166zM236 -436q-71 -51 -177 -51q-91 0 -141.5 46.5t-50.5 129.5q0 163 223 311h-8l217 1075h135l-217 -1075q-68 -43 -115 -81.5t-83.5 -93.5t-36.5 -110q0 -94 106 -94q70 0 143 51z" />
    <glyph glyph-name="Idotaccent" unicode="&#x130;" horiz-adv-x="571" 
d="M434 1720l35 178h168l-37 -178h-166zM109 0l303 1520h139l-303 -1520h-139z" />
    <glyph glyph-name="dotlessi" unicode="&#x131;" horiz-adv-x="516" 
d="M82 0l217 1075h135l-217 -1075h-135z" />
    <glyph glyph-name="IJ" unicode="&#x132;" horiz-adv-x="1404" 
d="M109 0l303 1520h139l-303 -1520h-139zM473 35l39 131q105 -68 219 -68q124 0 201 81.5t117 279.5l213 1061h139l-213 -1061q-28 -140 -71 -236.5t-103 -151t-130 -77.5t-161 -23q-135 0 -250 64z" />
    <glyph glyph-name="ij" unicode="&#x133;" horiz-adv-x="1050" 
d="M332 1321l35 180h165l-34 -180h-166zM870 1321l35 180h166l-35 -180h-166zM82 0l217 1075h135l-217 -1075h-135zM188 -434l37 125q64 -37 140 -37q186 0 239 260l232 1161h135l-230 -1157q-76 -389 -385 -389q-96 0 -168 37z" />
    <glyph glyph-name="Jcircumflex" unicode="&#x134;" horiz-adv-x="833" 
d="M1112 1675l-117 -28l-166 247l-274 -247l-125 28l358 312h103zM-98 35l39 131q105 -68 219 -68q124 0 200.5 81.5t116.5 279.5l213 1061h139l-213 -1061q-28 -141 -71 -237t-103 -150.5t-129.5 -77.5t-160.5 -23q-135 0 -250 64z" />
    <glyph glyph-name="jcircumflex" unicode="&#x135;" horiz-adv-x="534" 
d="M725 1249l-111 -28l-133 340l-274 -340l-115 30l350 406h103zM-328 -434l37 125q64 -37 139 -37q187 0 240 260l231 1161h136l-230 -1157q-42 -210 -140 -299.5t-245 -89.5q-96 0 -168 37z" />
    <glyph glyph-name="uni0136" unicode="&#x136;" horiz-adv-x="1318" 
d="M1036 0l-461 739l-217 -188l-110 -551h-139l303 1520h139l-160 -801l897 801h189v-4l-805 -693l524 -819v-4h-160zM446 -494l-102 25q145 152 162 336h133q-29 -222 -193 -361z" />
    <glyph glyph-name="uni0137" unicode="&#x137;" horiz-adv-x="1091" 
d="M813 0l-334 530l-192 -159l-74 -371h-135l319 1593h135l-217 -1077l629 559h182v-4l-557 -465l398 -602v-4h-154zM326 -494l-103 25q145 152 162 336h133q-29 -223 -192 -361z" />
    <glyph glyph-name="kgreenlandic" unicode="&#x138;" horiz-adv-x="1091" 
d="M813 0l-334 530l-190 -159l-76 -371h-135l217 1075h135l-113 -559l627 559h182v-4l-557 -465l398 -602v-4h-154z" />
    <glyph glyph-name="Lacute" unicode="&#x139;" horiz-adv-x="1099" 
d="M481 1638l-63 54l383 315l114 -94zM989 125l-24 -125h-856l303 1520h139l-279 -1395h717z" />
    <glyph glyph-name="lacute" unicode="&#x13a;" horiz-adv-x="516" 
d="M401 1638l-63 54l383 315l115 -94zM82 0l319 1593h136l-320 -1593h-135z" />
    <glyph glyph-name="uni013B" unicode="&#x13b;" horiz-adv-x="1099" 
d="M989 125l-24 -125h-856l303 1520h139l-279 -1395h717zM389 -494l-102 25q145 152 162 336h133q-29 -222 -193 -361z" />
    <glyph glyph-name="uni013C" unicode="&#x13c;" horiz-adv-x="516" 
d="M82 0l319 1593h136l-320 -1593h-135zM0 -494l-102 25q144 151 161 336h134q-29 -222 -193 -361z" />
    <glyph glyph-name="Lcaron" unicode="&#x13d;" horiz-adv-x="1099" 
d="M815 1118h-96l149 475h148zM989 125l-24 -125h-856l303 1520h139l-279 -1395h717z" />
    <glyph glyph-name="lcaron" unicode="&#x13e;" horiz-adv-x="559" 
d="M723 1174h-96l149 475h148zM82 0l319 1593h136l-320 -1593h-135z" />
    <glyph glyph-name="Ldot" unicode="&#x13f;" horiz-adv-x="1099" 
d="M989 125l-24 -125h-856l303 1520h139l-279 -1395h717zM780 700l43 209h181l-41 -209h-183z" />
    <glyph glyph-name="ldot" unicode="&#x140;" horiz-adv-x="698" 
d="M82 0l319 1593h136l-320 -1593h-135zM543 672l43 209h180l-41 -209h-182z" />
    <glyph glyph-name="Lslash" unicode="&#x141;" horiz-adv-x="1114" 
d="M1001 125l-24 -125h-856l127 635l-211 -96l24 123l211 96l152 762h139l-141 -705l514 234l-25 -123l-514 -234l-112 -567h716z" />
    <glyph glyph-name="lslash" unicode="&#x142;" horiz-adv-x="589" 
d="M641 946l-221 -121l-166 -825h-135l153 764l-211 -117l25 123l211 117l141 706h135l-129 -645l222 121z" />
    <glyph glyph-name="Nacute" unicode="&#x143;" horiz-adv-x="1540" 
d="M897 1638l-63 54l383 315l114 -94zM1073 0l-571 1315l-262 -1315h-131l303 1520h145l569 -1315l263 1315h131l-303 -1520h-144z" />
    <glyph glyph-name="nacute" unicode="&#x144;" horiz-adv-x="1189" 
d="M678 1212l-72 45l322 416l123 -76zM356 715l-143 -715h-135l217 1075h117l-35 -201q71 102 171.5 164t221.5 62q128 0 206.5 -73.5t78.5 -219.5q0 -61 -15 -131l-135 -676h-135l135 676q15 77 15 115q0 184 -179 184q-116 0 -220 -69.5t-165 -190.5z" />
    <glyph glyph-name="uni0145" unicode="&#x145;" horiz-adv-x="1540" 
d="M1073 0l-571 1315l-262 -1315h-131l303 1520h145l569 -1315l263 1315h131l-303 -1520h-144zM520 -494l-102 25q145 152 162 336h133q-29 -222 -193 -361z" />
    <glyph glyph-name="uni0146" unicode="&#x146;" horiz-adv-x="1189" 
d="M356 715l-143 -715h-135l217 1075h117l-35 -201q71 102 171.5 164t221.5 62q128 0 206.5 -73.5t78.5 -219.5q0 -61 -15 -131l-135 -676h-135l135 676q15 73 15 115q0 184 -179 184q-116 0 -220 -69.5t-165 -190.5zM348 -494l-102 25q145 152 162 336h133
q-29 -222 -193 -361z" />
    <glyph glyph-name="Ncaron" unicode="&#x147;" horiz-adv-x="1540" 
d="M1391 1962l-359 -307h-102l-221 307l116 31l166 -248l277 250zM1073 0l-571 1315l-262 -1315h-131l303 1520h145l569 -1315l263 1315h131l-303 -1520h-144z" />
    <glyph glyph-name="ncaron" unicode="&#x148;" horiz-adv-x="1189" 
d="M1128 1622l-350 -393h-102l-178 393l110 33l133 -330l273 332zM356 715l-143 -715h-135l217 1075h117l-35 -201q71 102 171.5 164t221.5 62q128 0 206.5 -73.5t78.5 -219.5q0 -61 -15 -131l-135 -676h-135l135 676q15 73 15 115q0 184 -179 184q-116 0 -220 -69.5
t-165 -190.5z" />
    <glyph glyph-name="Eng" unicode="&#x14a;" horiz-adv-x="1540" 
d="M1219 8q-27 -137 -69 -231t-100.5 -148t-126.5 -77t-157 -23q-121 0 -229 55l34 125q98 -59 201 -59q57 0 101.5 16.5t84.5 55t70.5 108t50.5 170.5l-575 1321l-264 -1321h-131l303 1520h145l569 -1309l263 1309h131z" />
    <glyph glyph-name="eng" unicode="&#x14b;" horiz-adv-x="1189" 
d="M889 -80q-42 -210 -140 -300.5t-243 -90.5q-96 0 -168 37l35 123q60 -39 137 -39q88 0 150.5 58t91.5 202l153 766q15 70 15 115q0 184 -179 184q-116 0 -220 -69.5t-165 -190.5l-143 -715h-135l217 1075h117l-35 -201q71 102 171.5 164t221.5 62q128 0 206.5 -73.5
t78.5 -219.5q0 -61 -15 -131z" />
    <glyph glyph-name="Omacron" unicode="&#x14c;" horiz-adv-x="1533" 
d="M655 1753l23 113h690l-22 -113h-691zM680 -29q-248 0 -387 156.5t-139 437.5q0 145 32 286t97.5 267t157.5 222t221.5 152t279.5 56q248 0 387 -156.5t139 -437.5q0 -145 -32 -286t-98 -267t-158 -222t-221.5 -152t-278.5 -56zM692 98q149 0 272 76.5t199.5 200t118 271
t41.5 298.5q0 235 -101.5 356t-291.5 121q-149 0 -272 -76.5t-199.5 -200t-118 -271t-41.5 -298.5q0 -235 101.5 -356t291.5 -121z" />
    <glyph glyph-name="omacron" unicode="&#x14d;" horiz-adv-x="1179" 
d="M440 1356l23 114h610l-22 -114h-611zM504 -25q-185 0 -294.5 114.5t-109.5 326.5q0 124 38.5 244t109.5 219t182.5 160t245.5 61q184 0 293.5 -114.5t109.5 -326.5q0 -99 -23.5 -196.5t-72 -185.5t-115.5 -155t-161.5 -107t-202.5 -40zM514 94q102 0 185.5 50t135 131.5
t79.5 178.5t28 197q0 161 -72 245.5t-204 84.5q-102 0 -185.5 -50t-135 -131.5t-79.5 -178.5t-28 -197q0 -161 72.5 -245.5t203.5 -84.5z" />
    <glyph glyph-name="Obreve" unicode="&#x14e;" horiz-adv-x="1533" 
d="M723 1968l100 8q-4 -23 -4 -59q0 -160 172 -160q204 0 262 219l111 -8q-40 -159 -140.5 -239t-238.5 -80q-126 0 -196 64.5t-70 184.5q0 43 4 70zM680 -29q-248 0 -387 156.5t-139 437.5q0 145 32 286t97.5 267t157.5 222t221.5 152t279.5 56q248 0 387 -156.5
t139 -437.5q0 -145 -32 -286t-98 -267t-158 -222t-221.5 -152t-278.5 -56zM692 98q149 0 272 76.5t199.5 200t118 271t41.5 298.5q0 235 -101.5 356t-291.5 121q-149 0 -272 -76.5t-199.5 -200t-118 -271t-41.5 -298.5q0 -235 101.5 -356t291.5 -121z" />
    <glyph glyph-name="obreve" unicode="&#x14f;" horiz-adv-x="1179" 
d="M473 1587l98 8q-6 -37 -6 -77q0 -92 44.5 -135.5t123.5 -43.5q205 0 268 256l111 -8q-42 -175 -144 -264.5t-243 -89.5q-123 0 -191.5 69t-68.5 199q0 45 8 86zM504 -25q-185 0 -294.5 114.5t-109.5 326.5q0 124 38.5 244t109.5 219t182.5 160t245.5 61
q184 0 293.5 -114.5t109.5 -326.5q0 -99 -23.5 -196.5t-72 -185.5t-115.5 -155t-161.5 -107t-202.5 -40zM514 94q102 0 185.5 50t135 131.5t79.5 178.5t28 197q0 161 -72 245.5t-204 84.5q-102 0 -185.5 -50t-135 -131.5t-79.5 -178.5t-28 -197q0 -161 72.5 -245.5
t203.5 -84.5z" />
    <glyph glyph-name="Ohungarumlaut" unicode="&#x150;" horiz-adv-x="1533" 
d="M795 1638l-68 43l326 326l114 -82zM1174 1638l-68 43l328 326l114 -82zM680 -29q-248 0 -387 156.5t-139 437.5q0 145 32 286t97.5 267t157.5 222t221.5 152t279.5 56q248 0 387 -156.5t139 -437.5q0 -145 -32 -286t-98 -267t-158 -222t-221.5 -152t-278.5 -56zM692 98
q149 0 272 76.5t199.5 200t118 271t41.5 298.5q0 235 -101.5 356t-291.5 121q-149 0 -272 -76.5t-199.5 -200t-118 -271t-41.5 -298.5q0 -235 101.5 -356t291.5 -121z" />
    <glyph glyph-name="ohungarumlaut" unicode="&#x151;" horiz-adv-x="1179" 
d="M539 1219l-66 43l313 411l115 -74zM887 1219l-66 43l314 411l116 -74zM504 -25q-185 0 -294.5 114.5t-109.5 326.5q0 124 38.5 244t109.5 219t182.5 160t245.5 61q184 0 293.5 -114.5t109.5 -326.5q0 -99 -23.5 -196.5t-72 -185.5t-115.5 -155t-161.5 -107t-202.5 -40z
M514 94q102 0 185.5 50t135 131.5t79.5 178.5t28 197q0 161 -72 245.5t-204 84.5q-102 0 -185.5 -50t-135 -131.5t-79.5 -178.5t-28 -197q0 -161 72.5 -245.5t203.5 -84.5z" />
    <glyph glyph-name="OE" unicode="&#x152;" horiz-adv-x="2154" 
d="M1919 0h-926q-107 -29 -231 -29q-293 0 -449.5 162t-156.5 461q0 139 31.5 273t100 258t167 217.5t244 149.5t319.5 56q113 0 231 -28h957l-25 -123h-756l-106 -533h674l-25 -121h-672l-122 -618h770zM301 598q0 -251 120 -378.5t370 -127.5q147 0 245 45l246 1237
q-109 53 -268 53q-145 0 -266 -49.5t-202.5 -131.5t-137.5 -190.5t-81.5 -224t-25.5 -233.5z" />
    <glyph glyph-name="oe" unicode="&#x153;" horiz-adv-x="1937" 
d="M1743 100q-66 -53 -165.5 -89t-223.5 -36q-163 0 -264.5 70t-139.5 197q-73 -122 -187 -194.5t-261 -72.5q-183 0 -292.5 114.5t-109.5 326.5q0 99 23.5 196.5t72 185.5t115.5 155t161 107t202 40q137 0 231.5 -68t132.5 -198q72 121 187.5 193.5t267.5 72.5
q81 0 144.5 -21t103 -55.5t65.5 -82.5t36.5 -97.5t10.5 -104.5q0 -118 -45 -217h-747q-6 -50 -6 -96q0 -164 77.5 -247t243.5 -83q197 0 355 129zM1485 985q-154 0 -257.5 -101t-146.5 -257h621q20 41 20 121q0 107 -57 172t-180 65zM512 94q82 0 152.5 33t119.5 88
t84 127.5t51.5 151t16.5 157.5q0 162 -70.5 246t-201.5 84q-81 0 -151.5 -33t-120 -88.5t-85 -127.5t-52.5 -150.5t-17 -157.5q0 -161 72.5 -245.5t201.5 -84.5z" />
    <glyph glyph-name="Racute" unicode="&#x154;" horiz-adv-x="1355" 
d="M764 1638l-64 54l383 315l115 -94zM709 623h-336l-125 -623h-139l303 1520h424q225 0 337.5 -99.5t112.5 -281.5q0 -191 -115 -329t-327 -175l358 -635h-151zM813 1397h-287l-131 -656h305q219 0 331 106t112 277q0 142 -82 207.5t-248 65.5z" />
    <glyph glyph-name="racute" unicode="&#x155;" horiz-adv-x="784" 
d="M467 1212l-72 45l322 416l123 -76zM346 664l-133 -664h-135l217 1075h117l-37 -217q131 238 358 238q78 0 119 -25l-39 -131q-48 25 -115 25q-109 0 -206 -77.5t-146 -223.5z" />
    <glyph glyph-name="uni0156" unicode="&#x156;" horiz-adv-x="1355" 
d="M709 623h-336l-125 -623h-139l303 1520h424q225 0 337.5 -99.5t112.5 -281.5q0 -191 -115 -329t-327 -175l358 -635h-151zM813 1397h-287l-131 -656h305q219 0 331 106t112 277q0 142 -82 207.5t-248 65.5zM455 -494l-103 25q145 152 162 336h133q-29 -223 -192 -361z
" />
    <glyph glyph-name="uni0157" unicode="&#x157;" horiz-adv-x="784" 
d="M346 664l-133 -664h-135l217 1075h117l-37 -217q131 238 358 238q78 0 119 -25l-39 -131q-48 25 -115 25q-109 0 -206 -77.5t-146 -223.5zM-12 -494l-103 25q145 152 162 336h133q-29 -223 -192 -361z" />
    <glyph glyph-name="Rcaron" unicode="&#x158;" horiz-adv-x="1355" 
d="M1257 1962l-358 -307h-102l-222 307l117 31l166 -248l277 250zM709 623h-336l-125 -623h-139l303 1520h424q225 0 337.5 -99.5t112.5 -281.5q0 -191 -115 -329t-327 -175l358 -635h-151zM813 1397h-287l-131 -656h305q219 0 331 106t112 277q0 142 -82 207.5t-248 65.5z
" />
    <glyph glyph-name="rcaron" unicode="&#x159;" horiz-adv-x="784" 
d="M942 1622l-350 -393h-103l-178 393l111 33l133 -330l272 332zM346 664l-133 -664h-135l217 1075h117l-37 -217q131 238 358 238q78 0 119 -25l-39 -131q-48 25 -115 25q-109 0 -206 -77.5t-146 -223.5z" />
    <glyph glyph-name="Sacute" unicode="&#x15a;" horiz-adv-x="1196" 
d="M735 1638l-63 54l383 315l114 -94zM25 131l51 133q192 -166 436 -166q187 0 295 93.5t108 238.5q0 43 -9 76.5t-31 60.5t-43.5 45.5t-63 37.5t-71.5 30.5t-85 30.5q-49 17 -81.5 30t-73.5 32.5t-68 39t-55.5 47.5t-44.5 59t-26.5 72.5t-10.5 89.5q0 95 36.5 179.5
t104 148.5t170.5 101.5t228 37.5q231 0 395 -127l-51 -133q-160 133 -361 133q-175 0 -279 -92t-104 -231q0 -35 8.5 -65t19.5 -51.5t35.5 -42t44 -33t58.5 -28.5t64 -25t75 -26q44 -15 76 -27t72.5 -31.5t69 -40t57.5 -50t47 -63t29.5 -78.5t11.5 -97q0 -204 -151 -336.5
t-414 -132.5q-268 0 -469 160z" />
    <glyph glyph-name="sacute" unicode="&#x15b;" horiz-adv-x="946" 
d="M557 1212l-72 45l322 416l123 -76zM25 100l45 119q139 -125 325 -125q127 0 200 56.5t73 144.5q0 28 -6.5 50t-23.5 40t-32 30t-46 25t-50 20t-59 21q-51 17 -83 30t-72 37t-63 50.5t-39 67.5t-16 92q0 152 114 247t292 95q182 0 301 -101l-47 -116q-113 98 -267 98
q-123 0 -192.5 -59t-69.5 -144q0 -32 12.5 -58.5t28.5 -43t51 -34.5t59.5 -27.5t74.5 -26.5q48 -17 80 -30.5t69.5 -37t60 -50.5t37.5 -68t15 -91q0 -149 -113 -242.5t-305 -93.5q-209 0 -354 125z" />
    <glyph glyph-name="Scircumflex" unicode="&#x15c;" horiz-adv-x="1196" 
d="M1159 1675l-117 -28l-165 247l-275 -247l-125 28l359 312h102zM25 131l51 133q192 -166 436 -166q187 0 295 93.5t108 238.5q0 43 -9 76.5t-31 60.5t-43.5 45.5t-63 37.5t-71.5 30.5t-85 30.5q-49 17 -81.5 30t-73.5 32.5t-68 39t-55.5 47.5t-44.5 59t-26.5 72.5
t-10.5 89.5q0 95 36.5 179.5t104 148.5t170.5 101.5t228 37.5q231 0 395 -127l-51 -133q-160 133 -361 133q-175 0 -279 -92t-104 -231q0 -41 9 -74t31 -58.5t43.5 -43.5t63.5 -36.5t72 -29.5t86 -29q51 -17 87.5 -31.5t82.5 -38t77 -52t59.5 -66t42.5 -88t14 -111.5
q0 -204 -151 -336.5t-414 -132.5q-268 0 -469 160z" />
    <glyph glyph-name="scircumflex" unicode="&#x15d;" horiz-adv-x="946" 
d="M926 1249l-111 -28l-133 340l-274 -340l-115 30l350 406h102zM25 100l45 119q139 -125 325 -125q127 0 200 56.5t73 144.5q0 28 -6.5 50t-23.5 40t-32 30t-46 25t-50 20t-59 21q-51 17 -83 30t-72 37t-63 50.5t-39 67.5t-16 92q0 152 114 247t292 95q182 0 301 -101
l-47 -116q-113 98 -267 98q-123 0 -192.5 -59t-69.5 -144q0 -32 12.5 -58.5t28.5 -43t51 -34.5t59.5 -27.5t74.5 -26.5q48 -17 80 -30.5t69.5 -37t60 -50.5t37.5 -68t15 -91q0 -149 -113 -242.5t-305 -93.5q-209 0 -354 125z" />
    <glyph glyph-name="Scedilla" unicode="&#x15e;" horiz-adv-x="1196" 
d="M680 -270q0 -101 -76.5 -159t-204.5 -58q-103 0 -196 41l35 100q80 -41 172 -41q71 0 114 29.5t43 78.5q0 36 -37.5 63t-150.5 54l80 133q-250 10 -434 160l51 133q192 -166 436 -166q187 0 295 93.5t108 238.5q0 43 -9 76.5t-31 60.5t-43.5 45.5t-63 37.5t-71.5 30.5
t-85 30.5q-49 17 -81.5 30t-73.5 32.5t-68 39t-55.5 47.5t-44.5 59t-26.5 72.5t-10.5 89.5q0 95 36.5 179.5t104 148.5t170.5 101.5t228 37.5q231 0 395 -127l-51 -133q-160 133 -361 133q-175 0 -279 -92t-104 -231q0 -41 9 -74t31 -58.5t43.5 -43.5t63.5 -36.5t72 -29.5
t86 -29q51 -17 88 -31.5t82.5 -38t77 -52t59.5 -66t42 -88t14 -111.5q0 -193 -136.5 -323.5t-377.5 -143.5l-47 -71q110 -37 146 -76.5t36 -95.5z" />
    <glyph glyph-name="scedilla" unicode="&#x15f;" horiz-adv-x="946" 
d="M549 -270q0 -101 -76.5 -159t-204.5 -58q-103 0 -196 41l34 100q80 -41 173 -41q71 0 114 29.5t43 78.5q0 36 -37.5 63t-150.5 54l84 139q-174 11 -307 123l45 119q139 -125 325 -125q127 0 200 56.5t73 144.5q0 24 -6.5 44t-14 34.5t-26.5 29t-31.5 22.5t-42 20
t-44.5 17.5t-52 18.5q-52 18 -83.5 31t-72.5 37t-63 50t-38 67t-16 92q0 152 114 247t292 95q182 0 301 -101l-47 -116q-113 98 -267 98q-123 0 -192.5 -59t-69.5 -144q0 -32 12.5 -58.5t28.5 -43t51 -34.5t59.5 -27.5t74.5 -26.5q48 -17 80 -30.5t69.5 -37t60 -50.5
t37.5 -68t15 -91q0 -140 -102.5 -232.5t-276.5 -101.5l-51 -75q110 -37 146 -76.5t36 -95.5z" />
    <glyph glyph-name="Scaron" unicode="&#x160;" horiz-adv-x="1196" 
d="M1229 1962l-359 -307h-102l-221 307l117 31l165 -248l277 250zM25 131l51 133q192 -166 436 -166q187 0 295 93.5t108 238.5q0 43 -9 76.5t-31 60.5t-43.5 45.5t-63 37.5t-71.5 30.5t-85 30.5q-49 17 -81.5 30t-73.5 32.5t-68 39t-55.5 47.5t-44.5 59t-26.5 72.5
t-10.5 89.5q0 95 36.5 179.5t104 148.5t170.5 101.5t228 37.5q231 0 395 -127l-51 -133q-160 133 -361 133q-175 0 -279 -92t-104 -231q0 -41 9 -74t31 -58.5t43.5 -43.5t63.5 -36.5t72 -29.5t86 -29q51 -17 87.5 -31.5t82.5 -38t77 -52t59.5 -66t42.5 -88t14 -111.5
q0 -204 -151 -336.5t-414 -132.5q-268 0 -469 160z" />
    <glyph glyph-name="scaron" unicode="&#x161;" horiz-adv-x="946" 
d="M1008 1622l-351 -393h-102l-178 393l110 33l134 -330l272 332zM25 100l45 119q139 -125 325 -125q127 0 200 56.5t73 144.5q0 28 -6.5 50t-23.5 40t-32 30t-46 25t-50 20t-59 21q-51 17 -83 30t-72 37t-63 50.5t-39 67.5t-16 92q0 152 114 247t292 95q182 0 301 -101
l-47 -116q-113 98 -267 98q-123 0 -192.5 -59t-69.5 -144q0 -32 12.5 -58.5t28.5 -43t51 -34.5t59.5 -27.5t74.5 -26.5q48 -17 80 -30.5t69.5 -37t60 -50.5t37.5 -68t15 -91q0 -149 -113 -242.5t-305 -93.5q-209 0 -354 125z" />
    <glyph glyph-name="uni0162" unicode="&#x162;" horiz-adv-x="1157" 
d="M637 -270q0 -101 -76.5 -159t-204.5 -58q-103 0 -196 41l35 100q80 -41 172 -41q71 0 114 29.5t43 78.5q0 36 -37.5 63t-150.5 54l96 162h-29l279 1397h-487l24 123h1110l-24 -123h-484l-278 -1397h-23l-65 -98q110 -37 146 -76.5t36 -95.5z" />
    <glyph glyph-name="uni0163" unicode="&#x163;" horiz-adv-x="757" 
d="M502 -270q0 -101 -76.5 -159t-204.5 -58q-103 0 -196 41l34 100q80 -41 172 -41q71 0 114.5 29.5t43.5 78.5q0 36 -37.5 63t-150.5 54l94 156q-123 46 -123 205q0 44 10 102l133 668h-188l23 106h188l59 301l144 39l-68 -340h326l-23 -106h-325l-138 -693q-8 -40 -8 -59
q0 -60 34 -90.5t97 -30.5q103 0 182 62l5 -127q-109 -56 -220 -56q-22 0 -32 2l-52 -75q110 -37 146.5 -76.5t36.5 -95.5z" />
    <glyph glyph-name="Tcaron" unicode="&#x164;" horiz-adv-x="1157" 
d="M1198 1962l-358 -307h-103l-221 307l117 31l166 -248l276 250zM1305 1397h-484l-278 -1397h-140l279 1397h-487l24 123h1110z" />
    <glyph glyph-name="tcaron" unicode="&#x165;" horiz-adv-x="757" 
d="M770 1219h-96l149 475h148zM623 31q-109 -56 -220 -56q-108 0 -169.5 55.5t-61.5 168.5q0 47 10 102l133 668h-188l23 106h188l59 301l144 39l-68 -340h326l-23 -106h-325l-138 -693q-8 -46 -8 -59q0 -60 34 -90.5t97 -30.5q103 0 182 62z" />
    <glyph glyph-name="Tbar" unicode="&#x166;" horiz-adv-x="1157" 
d="M1022 743h-332l-147 -743h-140l148 743h-328l23 113h327l109 541h-487l24 123h1110l-24 -123h-484l-108 -541h331z" />
    <glyph glyph-name="tbar" unicode="&#x167;" horiz-adv-x="798" 
d="M643 31q-109 -56 -219 -56q-108 0 -169.5 55.5t-61.5 168.5q0 47 10 102l51 260h-188l20 98h188l62 310h-189l23 106h188l60 301l143 39l-67 -340h325l-22 -106h-326l-61 -310h325l-20 -98h-324l-57 -285q-8 -46 -8 -59q0 -60 34 -90.5t97 -30.5q103 0 182 62z" />
    <glyph glyph-name="Utilde" unicode="&#x168;" horiz-adv-x="1488" 
d="M688 1659l-98 10q53 275 237 275q87 0 185 -84q32 -26 49.5 -39.5t44 -26t49.5 -12.5q96 0 135 176l99 -8q-26 -135 -86.5 -206t-151.5 -71q-86 0 -184 84q-88 78 -144 78q-97 0 -135 -176zM1487 1520l-191 -955q-58 -291 -223 -442.5t-422 -151.5q-226 0 -344.5 114.5
t-118.5 322.5q0 78 19 178l186 934h139l-188 -945q-18 -89 -18 -159q0 -160 86.5 -239t249.5 -79q400 0 497 477l191 945h137z" />
    <glyph glyph-name="utilde" unicode="&#x169;" horiz-adv-x="1189" 
d="M471 1262l-98 10q54 274 227 274q85 0 176 -84q29 -27 45.5 -40t41 -25.5t46.5 -12.5q92 0 127 177l101 -11q-54 -274 -230 -274q-85 0 -176 84q-82 78 -133 78q-92 0 -127 -176zM778 0l35 205q-69 -104 -167 -167t-222 -63q-130 0 -209.5 73.5t-79.5 219.5q0 60 15 131
l135 676h135l-135 -676q-13 -70 -13 -114q0 -185 183 -185q128 0 224.5 77t158.5 204l139 694h135l-215 -1075h-119z" />
    <glyph glyph-name="Umacron" unicode="&#x16a;" horiz-adv-x="1488" 
d="M633 1753l22 113h691l-23 -113h-690zM1487 1520l-191 -955q-58 -291 -223 -442.5t-422 -151.5q-226 0 -344.5 114.5t-118.5 322.5q0 78 19 178l186 934h139l-188 -945q-18 -89 -18 -159q0 -160 86.5 -239t249.5 -79q400 0 497 477l191 945h137z" />
    <glyph glyph-name="umacron" unicode="&#x16b;" horiz-adv-x="1189" 
d="M442 1356l23 114h610l-22 -114h-611zM778 0l35 205q-69 -104 -167 -167t-222 -63q-130 0 -209.5 73.5t-79.5 219.5q0 60 15 131l135 676h135l-135 -676q-13 -70 -13 -114q0 -185 183 -185q128 0 224.5 77t158.5 204l139 694h135l-215 -1075h-119z" />
    <glyph glyph-name="Ubreve" unicode="&#x16c;" horiz-adv-x="1488" 
d="M700 1968l101 8q-4 -23 -4 -59q0 -160 172 -160q204 0 262 219l110 -8q-40 -159 -140.5 -239t-237.5 -80q-126 0 -196.5 64.5t-70.5 184.5q0 43 4 70zM1487 1520l-191 -955q-58 -291 -223 -442.5t-422 -151.5q-226 0 -344.5 114.5t-118.5 322.5q0 78 19 178l186 934h139
l-188 -945q-18 -89 -18 -159q0 -160 86.5 -239t249.5 -79q400 0 497 477l191 945h137z" />
    <glyph glyph-name="ubreve" unicode="&#x16d;" horiz-adv-x="1189" 
d="M475 1587l98 8q-6 -37 -6 -77q0 -92 44.5 -135.5t123.5 -43.5q96 0 166.5 62t102.5 194l110 -8q-42 -175 -144 -264.5t-243 -89.5q-123 0 -191.5 69t-68.5 199q0 45 8 86zM778 0l35 205q-69 -104 -167 -167t-222 -63q-130 0 -209.5 73.5t-79.5 219.5q0 60 15 131l135 676
h135l-135 -676q-13 -70 -13 -114q0 -185 183 -185q128 0 224.5 77t158.5 204l139 694h135l-215 -1075h-119z" />
    <glyph glyph-name="Uring" unicode="&#x16e;" horiz-adv-x="1488" 
d="M965 1593q-94 0 -151.5 60t-57.5 153q0 111 76 185.5t184 74.5q94 0 151.5 -60t57.5 -153q0 -109 -76.5 -184.5t-183.5 -75.5zM973 1681q69 0 113 48t44 120q0 60 -31.5 94.5t-90.5 34.5q-69 0 -113.5 -48t-44.5 -120q0 -58 32 -93.5t91 -35.5zM1487 1520l-191 -955
q-58 -291 -223 -442.5t-422 -151.5q-226 0 -344.5 114.5t-118.5 322.5q0 78 19 178l186 934h139l-188 -945q-18 -89 -18 -159q0 -160 86.5 -239t249.5 -79q400 0 497 477l191 945h137z" />
    <glyph glyph-name="uring" unicode="&#x16f;" horiz-adv-x="1189" 
d="M743 1204q-94 0 -151 59.5t-57 153.5q0 111 76.5 185.5t183.5 74.5q94 0 151.5 -60t57.5 -153q0 -109 -76.5 -184.5t-184.5 -75.5zM752 1292q69 0 113 48t44 120q0 60 -32 94.5t-91 34.5q-69 0 -113 -48t-44 -120q0 -58 32 -93.5t91 -35.5zM778 0l35 205
q-69 -104 -167 -167t-222 -63q-130 0 -209.5 73.5t-79.5 219.5q0 60 15 131l135 676h135l-135 -676q-13 -70 -13 -114q0 -185 183 -185q128 0 224.5 77t158.5 204l139 694h135l-215 -1075h-119z" />
    <glyph glyph-name="Uhungarumlaut" unicode="&#x170;" horiz-adv-x="1488" 
d="M772 1638l-67 43l325 326l115 -82zM1151 1638l-68 43l328 326l115 -82zM1487 1520l-191 -955q-58 -291 -223 -442.5t-422 -151.5q-226 0 -344.5 114.5t-118.5 322.5q0 78 19 178l186 934h139l-188 -945q-18 -89 -18 -159q0 -160 86.5 -239t249.5 -79q400 0 497 477
l191 945h137z" />
    <glyph glyph-name="uhungarumlaut" unicode="&#x171;" horiz-adv-x="1189" 
d="M541 1219l-66 43l313 411l115 -74zM889 1219l-66 43l314 411l116 -74zM778 0l35 205q-69 -104 -167 -167t-222 -63q-130 0 -209.5 73.5t-79.5 219.5q0 60 15 131l135 676h135l-135 -676q-13 -70 -13 -114q0 -185 183 -185q128 0 224.5 77t158.5 204l139 694h135
l-215 -1075h-119z" />
    <glyph glyph-name="Uogonek" unicode="&#x172;" horiz-adv-x="1488" 
d="M836 -436q-71 -51 -177 -51q-91 0 -141.5 46.5t-50.5 129.5q0 157 199 282h-15q-226 0 -344.5 114.5t-118.5 322.5q0 78 19 178l186 934h139l-188 -945q-18 -89 -18 -159q0 -160 86.5 -239t249.5 -79q400 0 497 477l191 945h137l-191 -955q-44 -223 -152.5 -365
t-273.5 -196q-135 -59 -211.5 -133t-76.5 -156q0 -94 106 -94q70 0 143 51z" />
    <glyph glyph-name="uogonek" unicode="&#x173;" horiz-adv-x="1189" 
d="M842 -436q-74 -51 -174 -51q-89 0 -140 45.5t-51 124.5q0 92 72.5 171t232.5 164l31 187q-69 -104 -167 -167t-222 -63q-130 0 -209.5 73.5t-79.5 219.5q0 60 15 131l135 676h135l-135 -676q-13 -70 -13 -114q0 -185 183 -185q128 0 224.5 77t158.5 204l139 694h135
l-215 -1075q-147 -70 -226 -140.5t-79 -150.5q0 -88 102 -88q69 0 142 51z" />
    <glyph glyph-name="Wcircumflex" unicode="&#x174;" horiz-adv-x="2086" 
d="M1587 1675l-117 -28l-165 247l-275 -247l-125 28l359 312h102zM1300 0l-108 1307l-633 -1307h-147l-146 1520h142l112 -1332l637 1332h150l104 -1332l647 1332h154l-764 -1520h-148z" />
    <glyph glyph-name="wcircumflex" unicode="&#x175;" horiz-adv-x="1626" 
d="M1251 1249l-110 -28l-133 340l-275 -340l-115 30l351 406h102zM967 0l-88 901l-451 -901h-129l-121 1075h141l78 -903l437 903h143l88 -903l428 903h154l-551 -1075h-129z" />
    <glyph glyph-name="Ycircumflex" unicode="&#x176;" horiz-adv-x="1206" 
d="M1151 1675l-117 -28l-166 247l-274 -247l-125 28l358 312h103zM1366 1520l-682 -932l-119 -588h-139l119 598l-316 922h146l262 -805l567 805h162z" />
    <glyph glyph-name="ycircumflex" unicode="&#x177;" horiz-adv-x="1052" 
d="M971 1249l-111 -28l-133 340l-274 -340l-115 30l350 406h103zM487 6q-81 -145 -137 -230t-113.5 -144t-111.5 -81t-123 -22q-80 0 -156 35l37 127q57 -37 129 -37q81 0 157 77.5t179 268.5l-188 1075h141l141 -930l496 930h154z" />
    <glyph glyph-name="Ydieresis" unicode="&#x178;" horiz-adv-x="1206" 
d="M952 1720l35 178h162l-35 -178h-162zM541 1720l37 178h161l-37 -178h-161zM1366 1520l-682 -932l-119 -588h-139l119 598l-316 922h146l262 -805l567 805h162z" />
    <glyph glyph-name="Zacute" unicode="&#x179;" 
d="M764 1638l-64 54l383 315l115 -94zM1102 125l-27 -125h-1077l25 119l1138 1278h-846l25 123h1018l-23 -119l-1138 -1276h905z" />
    <glyph glyph-name="zacute" unicode="&#x17a;" horiz-adv-x="983" 
d="M569 1212l-71 45l321 416l123 -76zM811 113l-23 -113h-808l22 106l799 857h-602l22 112h770l-22 -106l-801 -856h643z" />
    <glyph glyph-name="Zdotaccent" unicode="&#x17b;" 
d="M786 1720l35 178h168l-37 -178h-166zM1102 125l-27 -125h-1077l25 119l1138 1278h-846l25 123h1018l-23 -119l-1138 -1276h905z" />
    <glyph glyph-name="zdotaccent" unicode="&#x17c;" horiz-adv-x="983" 
d="M557 1321l35 180h168l-37 -180h-166zM811 113l-23 -113h-808l22 106l799 857h-602l22 112h770l-22 -106l-801 -856h643z" />
    <glyph glyph-name="Zcaron" unicode="&#x17d;" 
d="M1257 1962l-358 -307h-102l-222 307l117 31l166 -248l277 250zM1102 125l-27 -125h-1077l25 119l1138 1278h-846l25 123h1018l-23 -119l-1138 -1276h905z" />
    <glyph glyph-name="zcaron" unicode="&#x17e;" horiz-adv-x="983" 
d="M1020 1622l-350 -393h-103l-178 393l111 33l133 -330l272 332zM811 113l-23 -113h-808l22 106l799 857h-602l22 112h770l-22 -106l-801 -856h643z" />
    <glyph glyph-name="longs" unicode="&#x17f;" horiz-adv-x="573" 
d="M78 0l246 1227q22 109 58.5 185.5t87 118.5t107.5 60.5t128 18.5q94 0 169 -33l-34 -123q-68 35 -144 35q-95 0 -150.5 -55.5t-84.5 -200.5l-248 -1233h-135z" />
    <glyph glyph-name="uni018F" unicode="&#x18f;" horiz-adv-x="1464" 
d="M1399 936q0 -91 -12.5 -184t-41.5 -188.5t-71 -181.5t-105 -161.5t-140.5 -130.5t-180.5 -87t-221 -32q-137 0 -239 41.5t-160 113t-85.5 157t-27.5 184.5q0 87 18.5 175.5t46.5 148.5h1067q8 65 8 145q0 251 -105 368t-327 117q-285 0 -508 -178l-14 135
q98 78 242.5 124t298.5 46q280 0 418.5 -158.5t138.5 -453.5zM631 98q128 0 232.5 47t175.5 129.5t117 181t71 214.5h-942q-37 -79 -37 -207q0 -78 22 -143t67 -115.5t120 -78.5t174 -28z" />
    <glyph glyph-name="florin" unicode="&#x192;" 
d="M512 23q-34 -112 -73 -187.5t-85 -115.5t-93.5 -56t-108.5 -16q-113 0 -207 53l41 121q80 -53 166 -53q53 0 90 19t71 74.5t64 155.5l235 799h-235l20 103h246l76 254q34 114 78 190.5t96 115t103 53.5t114 15q136 0 215 -57l-41 -123q-83 59 -180 59q-93 0 -151 -55
t-99 -196l-76 -256h328l-21 -103h-337z" />
    <glyph glyph-name="Ohorn" unicode="&#x1a0;" horiz-adv-x="1533" 
d="M1468 954q0 -145 -32 -286t-98 -267t-158 -222t-221.5 -152t-278.5 -56q-248 0 -387 156.5t-139 437.5q0 145 32 286t97.5 267t157.5 222t221.5 152t279.5 56q153 0 270 -63h9q144 0 214 65t70 213q0 27 -2 43h125q2 -16 2 -41q0 -151 -73.5 -247t-229.5 -123
q141 -156 141 -441zM692 98q149 0 272 76.5t199.5 200t118 271t41.5 298.5q0 235 -101.5 356t-291.5 121q-149 0 -272 -76.5t-199.5 -200t-118 -271t-41.5 -298.5q0 -235 101.5 -356t291.5 -121z" />
    <glyph glyph-name="ohorn" unicode="&#x1a1;" horiz-adv-x="1204" 
d="M1079 659q0 -99 -23.5 -196.5t-72 -185.5t-115.5 -155t-161.5 -107t-202.5 -40q-185 0 -294.5 114.5t-109.5 326.5q0 124 38.5 244t109.5 219t182.5 160t245.5 61q121 0 209 -49h18q136 0 203.5 65.5t67.5 212.5q0 19 -3 43h125q2 -16 2 -41q0 -153 -74 -250.5
t-231 -122.5q86 -113 86 -299zM514 94q102 0 185.5 50t135 131.5t79.5 178.5t28 197q0 161 -72 245.5t-204 84.5q-102 0 -185.5 -50t-135 -131.5t-79.5 -178.5t-28 -197q0 -161 72.5 -245.5t203.5 -84.5z" />
    <glyph glyph-name="Uhorn" unicode="&#x1af;" horiz-adv-x="1521" 
d="M1159 575l191 945h92q117 0 169 62t52 183q0 25 -2 41h125q2 -16 2 -41q0 -148 -76 -240t-244 -102l-172 -858q-58 -291 -223 -442.5t-422 -151.5q-227 0 -345 114.5t-118 322.5q0 78 19 178l186 934h139l-188 -945q-18 -89 -18 -159q0 -160 86.5 -239t249.5 -79
q404 0 497 477z" />
    <glyph glyph-name="uhorn" unicode="&#x1b0;" horiz-adv-x="1243" 
d="M838 381l139 694h96q213 0 213 254q0 27 -2 43h125q2 -16 2 -41q0 -74 -17 -134.5t-53.5 -109t-99.5 -77.5t-149 -33l-195 -977h-119l35 205q-69 -104 -167 -167t-222 -63q-129 0 -209 73t-80 220q0 47 15 131l135 676h135l-135 -676q-13 -70 -13 -114q0 -185 183 -185
q128 0 224.5 77t158.5 204z" />
    <glyph glyph-name="Aringacute" unicode="&#x1fa;" horiz-adv-x="1368" 
d="M883 2007l-64 53l383 316l115 -95zM1059 0l-68 455h-635l-247 -455h-156l850 1518q-60 22 -93.5 74.5t-33.5 123.5q0 111 76 185.5t184 74.5q94 0 151.5 -60t57.5 -153q0 -89 -53 -157.5t-136 -92.5l246 -1513h-143zM893 1591q69 0 113.5 48t44.5 120q0 60 -32 94.5
t-91 34.5q-69 0 -113.5 -48t-44.5 -120q0 -58 32 -93.5t91 -35.5zM420 573h553l-121 795z" />
    <glyph glyph-name="aringacute" unicode="&#x1fb;" horiz-adv-x="1126" 
d="M700 1741l-63 53l383 315l115 -94zM721 1204q-94 0 -151.5 60t-57.5 153q0 111 76.5 185.5t183.5 74.5q94 0 151.5 -60t57.5 -153q0 -110 -76 -185t-184 -75zM729 1292q69 0 113.5 48t44.5 120q0 60 -32 94.5t-91 34.5q-69 0 -113.5 -48t-44.5 -120q0 -58 32 -93.5
t91 -35.5zM725 0l31 174q-71 -94 -168.5 -146.5t-212.5 -52.5q-135 0 -219 72.5t-84 212.5q0 190 164.5 292.5t478.5 102.5h123l8 39q12 56 12 101q0 96 -53 140t-168 44q-201 0 -358 -121l-11 127q71 53 175.5 84t213.5 31q166 0 250 -74t84 -219q0 -63 -12 -127l-137 -680
h-117zM408 92q114 0 211.5 64.5t154.5 171.5l45 225h-121q-240 0 -364.5 -73.5t-124.5 -207.5q0 -90 53.5 -135t145.5 -45z" />
    <glyph glyph-name="AEacute" unicode="&#x1fc;" horiz-adv-x="1986" 
d="M1323 1638l-63 54l382 315l115 -94zM840 0l102 512h-567l-381 -512h-162l1137 1520h1059l-27 -123h-744l-106 -533h664l-25 -121h-664l-122 -618h761l-24 -125h-901zM1118 1399h-86l-569 -768h502z" />
    <glyph glyph-name="aeacute" unicode="&#x1fd;" horiz-adv-x="1820" 
d="M952 1212l-71 45l321 416l123 -76zM1626 100q-66 -53 -166 -89t-223 -36q-304 0 -393 238q-85 -111 -204 -174.5t-253 -63.5q-142 0 -228.5 71.5t-86.5 209.5q0 186 161.5 284.5t477.5 98.5h125l12 59q12 56 12 97q0 94 -54 139t-169 45q-201 0 -358 -121l-11 127
q71 53 175.5 84t213.5 31q261 0 314 -207q155 207 407 207q79 0 142 -21t103 -55.5t66.5 -82t37 -97.5t10.5 -105q0 -107 -41 -207h-750q-8 -47 -8 -104q0 -165 77 -248.5t242 -83.5q196 0 357 129zM1368 985q-153 0 -254.5 -98t-146.5 -252h622q17 56 17 115
q0 105 -57.5 170t-180.5 65zM412 92q123 0 228 68t169 186q-2 20 -2 64q0 65 10 127h-123q-241 0 -363 -68.5t-122 -200.5q0 -88 54 -132t149 -44z" />
    <glyph glyph-name="Oslashacute" unicode="&#x1fe;" horiz-adv-x="1533" 
d="M893 1638l-64 54l383 315l115 -94zM680 -29q-237 0 -377 146l-176 -201l-84 47l203 230q-92 150 -92 372q0 145 32 286t97.5 267t157.5 222t221.5 152t279.5 56q238 0 377 -145l176 201l84 -48l-203 -229q92 -150 92 -373q0 -145 -32 -286t-98 -267t-158 -222
t-221.5 -152t-278.5 -56zM299 575q0 -161 49 -268l877 989q-101 125 -295 125q-149 0 -272 -76.5t-199.5 -200t-118 -271t-41.5 -298.5zM1323 944q0 161 -49 268l-877 -989q101 -125 295 -125q149 0 272 76.5t199.5 200t118 271t41.5 298.5z" />
    <glyph glyph-name="oslashacute" unicode="&#x1ff;" horiz-adv-x="1179" 
d="M668 1212l-72 45l322 416l122 -76zM504 -25q-164 0 -271 93l-159 -183l-78 47l178 203q-74 110 -74 281q0 124 38.5 244t109.5 219t182.5 160t245.5 61q164 0 270 -92l162 182l76 -47l-178 -203q73 -109 73 -281q0 -99 -23.5 -196.5t-72 -185.5t-115.5 -155t-161.5 -107
t-202.5 -40zM238 424q0 -105 32 -180l588 665q-69 72 -192 72q-102 0 -185.5 -50t-135 -131.5t-79.5 -178.5t-28 -197zM942 651q0 113 -33 180l-587 -665q72 -72 192 -72q102 0 185.5 50t135 131.5t79.5 178.5t28 197z" />
    <glyph glyph-name="uni0218" unicode="&#x218;" horiz-adv-x="1196" 
d="M25 131l51 133q192 -166 436 -166q187 0 295 93.5t108 238.5q0 43 -9 76.5t-31 60.5t-43.5 45.5t-63 37.5t-71.5 30.5t-85 30.5q-49 17 -81.5 30t-73.5 32.5t-68 39t-55.5 47.5t-44.5 59t-26.5 72.5t-10.5 89.5q0 95 36.5 179.5t104 148.5t170.5 101.5t228 37.5
q231 0 395 -127l-51 -133q-160 133 -361 133q-175 0 -279 -92t-104 -231q0 -31 5 -57t18 -48t26 -39t37.5 -33t43 -26.5t53 -24t57.5 -21.5t65 -22q44 -15 76 -27t72.5 -31.5t69 -40t57.5 -50t47 -63t29.5 -78.5t11.5 -97q0 -204 -151 -336.5t-414 -132.5q-268 0 -469 160z
M358 -494l-102 25q145 152 162 336h133q-29 -222 -193 -361z" />
    <glyph glyph-name="uni0219" unicode="&#x219;" horiz-adv-x="946" 
d="M25 100l45 119q139 -125 325 -125q127 0 200 56.5t73 144.5q0 28 -6.5 50t-23.5 40t-32 30t-46 25t-50 20t-59 21q-64 22 -102.5 39.5t-83 49.5t-66 78.5t-21.5 109.5q0 152 114 247t292 95q182 0 301 -101l-47 -116q-113 98 -267 98q-123 0 -192.5 -59t-69.5 -144
q0 -32 12.5 -58.5t28.5 -43t51 -34.5t59.5 -27.5t74.5 -26.5q48 -17 80 -30.5t69.5 -37t60 -50.5t37.5 -68t15 -91q0 -149 -113 -242.5t-305 -93.5q-209 0 -354 125zM221 -494l-102 25q145 152 162 336h133q-29 -222 -193 -361z" />
    <glyph glyph-name="uni021A" unicode="&#x21a;" horiz-adv-x="1157" 
d="M1305 1397h-484l-278 -1397h-140l279 1397h-487l24 123h1110zM317 -494l-102 25q145 152 162 336h133q-29 -222 -193 -361z" />
    <glyph glyph-name="uni021B" unicode="&#x21b;" horiz-adv-x="757" 
d="M623 31q-109 -56 -220 -56q-108 0 -169.5 55.5t-61.5 168.5q0 44 10 102l133 668h-188l23 106h188l59 301l144 39l-68 -340h326l-23 -106h-325l-138 -693q-8 -46 -8 -59q0 -60 34 -90.5t97 -30.5q103 0 182 62zM176 -494l-102 25q145 152 162 336h133q-29 -222 -193 -361
z" />
    <glyph glyph-name="uni0237" unicode="&#x237;" horiz-adv-x="534" 
d="M-328 -434l37 125q64 -37 139 -37q187 0 240 260l231 1161h136l-230 -1157q-41 -208 -139.5 -298.5t-245.5 -90.5q-96 0 -168 37z" />
    <glyph glyph-name="uni0259" unicode="&#x259;" horiz-adv-x="1128" 
d="M1028 653q0 -92 -18.5 -184t-61.5 -182t-106 -158.5t-160 -111t-215 -42.5q-103 0 -179 31t-117 84t-60 113t-19 129q0 131 49 231h748q4 62 4 90q0 169 -71 247.5t-224 78.5q-203 0 -360 -121l-13 127q72 53 176 84t211 31q206 0 311 -116.5t105 -330.5zM471 92
q85 0 154.5 29.5t117 82t78.5 116t49 139.5h-626q-25 -52 -25 -129q0 -106 62 -172t190 -66z" />
    <glyph glyph-name="uni02BB" unicode="&#x2bb;" horiz-adv-x="499" 
d="M483 1602l111 -27q-162 -215 -191 -498h-141q22 299 221 525z" />
    <glyph glyph-name="uni02BC" unicode="&#x2bc;" horiz-adv-x="499" 
d="M332 1069l-111 27q162 215 191 497h141q-22 -298 -221 -524z" />
    <glyph glyph-name="circumflex" unicode="&#x2c6;" horiz-adv-x="1024" 
d="M958 1249l-110 -28l-133 340l-275 -340l-114 30l350 406h102z" />
    <glyph glyph-name="caron" unicode="&#x2c7;" horiz-adv-x="1024" 
d="M1040 1622l-350 -393h-102l-178 393l110 33l133 -330l273 332z" />
    <glyph glyph-name="uni02C9" unicode="&#x2c9;" horiz-adv-x="1024" 
d="M362 1356l23 114h610l-22 -114h-611z" />
    <glyph glyph-name="breve" unicode="&#x2d8;" horiz-adv-x="1024" 
d="M395 1587l99 8q-7 -44 -7 -77q0 -92 44.5 -135.5t123.5 -43.5q96 0 166.5 62t102.5 194l110 -8q-42 -175 -144 -264.5t-243 -89.5q-123 0 -191.5 69t-68.5 199q0 45 8 86z" />
    <glyph glyph-name="dotaccent" unicode="&#x2d9;" horiz-adv-x="1024" 
d="M578 1321l34 180h168l-37 -180h-165z" />
    <glyph glyph-name="ring" unicode="&#x2da;" horiz-adv-x="1024" 
d="M664 1204q-94 0 -151.5 60t-57.5 153q0 111 76.5 185.5t183.5 74.5q94 0 151.5 -60t57.5 -153q0 -110 -76 -185t-184 -75zM672 1292q69 0 113 48t44 120q0 60 -31.5 94.5t-90.5 34.5q-69 0 -113.5 -48t-44.5 -120q0 -58 32 -93.5t91 -35.5z" />
    <glyph glyph-name="ogonek" unicode="&#x2db;" horiz-adv-x="1024" 
d="M535 -436q-74 -51 -177 -51q-92 0 -143 46.5t-51 129.5q0 177 264 323h150q-299 -134 -299 -297q0 -94 106 -94q70 0 143 51z" />
    <glyph glyph-name="tilde" unicode="&#x2dc;" horiz-adv-x="1024" 
d="M391 1262l-98 10q54 274 227 274q85 0 176 -84q29 -27 45.5 -40t41 -25.5t46.5 -12.5q92 0 127 177l101 -11q-54 -274 -230 -274q-85 0 -176 84q-82 78 -133 78q-92 0 -127 -176z" />
    <glyph glyph-name="hungarumlaut" unicode="&#x2dd;" horiz-adv-x="1024" 
d="M461 1219l-66 43l314 411l114 -74zM809 1219l-66 43l314 411l117 -74z" />
    <glyph glyph-name="gravecomb" unicode="&#x300;" horiz-adv-x="0" 
d="M170 1212l-252 412l133 49l195 -424z" />
    <glyph glyph-name="acutecomb" unicode="&#x301;" horiz-adv-x="0" 
d="M78 1212l-72 45l322 416l123 -76z" />
    <glyph glyph-name="uni0302" unicode="&#x302;" horiz-adv-x="0" 
d="M446 1249l-110 -28l-133 340l-275 -340l-114 30l350 406h102z" />
    <glyph glyph-name="tildecomb" unicode="&#x303;" horiz-adv-x="0" 
d="M-121 1262l-98 10q54 274 227 274q85 0 176 -84q29 -27 45.5 -40t41 -25.5t46.5 -12.5q92 0 127 177l101 -11q-54 -274 -230 -274q-85 0 -176 84q-82 78 -133 78q-92 0 -127 -176z" />
    <glyph glyph-name="uni0304" unicode="&#x304;" horiz-adv-x="0" 
d="M-150 1356l23 114h610l-22 -114h-611z" />
    <glyph glyph-name="uni0306" unicode="&#x306;" horiz-adv-x="0" 
d="M-117 1587l99 8q-7 -44 -7 -77q0 -92 44.5 -135.5t123.5 -43.5q96 0 166.5 62t102.5 194l110 -8q-42 -175 -144 -264.5t-243 -89.5q-123 0 -191.5 69t-68.5 199q0 45 8 86z" />
    <glyph glyph-name="uni0307" unicode="&#x307;" horiz-adv-x="0" 
d="M66 1321l34 180h168l-37 -180h-165z" />
    <glyph glyph-name="uni0308" unicode="&#x308;" horiz-adv-x="0" 
d="M266 1321l37 180h160l-37 -180h-160zM-129 1321l35 180h160l-35 -180h-160z" />
    <glyph glyph-name="hookabovecomb" unicode="&#x309;" horiz-adv-x="0" 
d="M137 1212l-59 68q62 30 96 49t71.5 46.5t53.5 57t16 64.5q0 92 -120 92q-105 0 -211 -69l-7 100q115 74 242 74q98 0 155.5 -45.5t57.5 -135.5q0 -56 -21.5 -101t-65.5 -81t-90.5 -62t-117.5 -57z" />
    <glyph glyph-name="uni030A" unicode="&#x30a;" horiz-adv-x="0" 
d="M152 1204q-94 0 -151.5 60t-57.5 153q0 111 76.5 185.5t183.5 74.5q94 0 151.5 -60t57.5 -153q0 -110 -76 -185t-184 -75zM160 1292q69 0 113 48t44 120q0 60 -31.5 94.5t-90.5 34.5q-69 0 -113.5 -48t-44.5 -120q0 -58 32 -93.5t91 -35.5z" />
    <glyph glyph-name="uni030B" unicode="&#x30b;" horiz-adv-x="0" 
d="M-51 1219l-66 43l314 411l114 -74zM297 1219l-66 43l314 411l117 -74z" />
    <glyph glyph-name="uni030C" unicode="&#x30c;" horiz-adv-x="0" 
d="M528 1622l-350 -393h-102l-178 393l110 33l133 -330l273 332z" />
    <glyph glyph-name="uni0312" unicode="&#x312;" horiz-adv-x="0" 
d="M248 1634l102 -24q-129 -146 -147 -336h-133q26 220 178 360z" />
    <glyph glyph-name="uni031B" unicode="&#x31b;" horiz-adv-x="0" 
d="M-152 1075h35q213 0 213 254q0 27 -2 43h125q2 -16 2 -41q0 -163 -84.5 -259.5t-271.5 -96.5h-37z" />
    <glyph glyph-name="dotbelowcomb" unicode="&#x323;" horiz-adv-x="0" 
d="M-256 -356l35 178h168l-37 -178h-166z" />
    <glyph glyph-name="uni0326" unicode="&#x326;" horiz-adv-x="0" 
d="M-252 -494l-102 25q144 151 161 336h134q-29 -222 -193 -361z" />
    <glyph glyph-name="uni0327" unicode="&#x327;" horiz-adv-x="0" 
d="M70 -270q0 -101 -76.5 -159t-204.5 -58q-104 0 -197 41l35 100q80 -41 172 -41q71 0 114.5 29.5t43.5 78.5q0 36 -37.5 63t-150.5 54l104 174h88l-74 -110q110 -37 146.5 -76.5t36.5 -95.5z" />
    <glyph glyph-name="uni0328" unicode="&#x328;" horiz-adv-x="0" 
d="M23 -436q-74 -51 -177 -51q-92 0 -143 46.5t-51 129.5q0 177 264 323h150q-299 -134 -299 -297q0 -94 106 -94q70 0 143 51z" />
    <glyph glyph-name="uni0374" unicode="&#x374;" horiz-adv-x="540" 
d="M233 1001l228 592h172v-4l-301 -588h-99z" />
    <glyph glyph-name="uni037E" unicode="&#x37e;" horiz-adv-x="802" 
d="M371 836l41 208h182l-43 -208h-180zM154 -332l-117 29q212 231 221 510h152q0 -308 -256 -539z" />
    <glyph glyph-name="tonos" unicode="&#x384;" horiz-adv-x="491" 
d="M350 1212l-86 15l160 448h156v-4z" />
    <glyph glyph-name="dieresistonos" unicode="&#x385;" horiz-adv-x="1024" 
d="M641 1212l-86 15l152 448h151v-4zM858 1321l37 180h160l-37 -180h-160zM309 1321l37 180h158l-35 -180h-160z" />
    <glyph glyph-name="Alphatonos" unicode="&#x386;" horiz-adv-x="1368" 
d="M1059 0l-68 455h-635l-247 -455h-156l852 1520h151l246 -1520h-143zM287 1057l-86 14l159 449h156v-4zM420 573h553l-121 795z" />
    <glyph glyph-name="anoteleia" unicode="&#x387;" horiz-adv-x="706" 
d="M328 877l41 198h186l-41 -198h-186z" />
    <glyph glyph-name="Epsilontonos" unicode="&#x388;" horiz-adv-x="1368" 
d="M1159 125l-26 -125h-910l303 1520h893l-24 -123h-754l-106 -533h673l-24 -121h-674l-123 -618h772zM129 1057l-86 14l160 449h155v-4z" />
    <glyph glyph-name="Etatonos" unicode="&#x389;" horiz-adv-x="1615" 
d="M1153 0l147 743h-790l-148 -743h-139l303 1520h140l-131 -656h790l131 656h141l-303 -1520h-141zM129 1057l-86 14l160 449h155v-4z" />
    <glyph glyph-name="Iotatonos" unicode="&#x38a;" horiz-adv-x="686" 
d="M223 0l303 1520h140l-304 -1520h-139zM129 1057l-86 14l160 449h155v-4z" />
    <glyph glyph-name="Omicrontonos" unicode="&#x38c;" horiz-adv-x="1611" 
d="M758 -29q-248 0 -387.5 156.5t-139.5 437.5q0 145 32 286t98 267t158 222t221.5 152t279.5 56q248 0 387 -156.5t139 -437.5q0 -145 -32 -286t-98 -267t-158 -222t-221.5 -152t-278.5 -56zM129 1057l-86 14l160 449h155v-4zM770 98q149 0 272 76.5t199.5 200t118 271
t41.5 298.5q0 235 -101.5 356t-291.5 121q-149 0 -272 -76.5t-199.5 -200t-118 -271t-41.5 -298.5q0 -235 101.5 -356t291.5 -121z" />
    <glyph glyph-name="Upsilontonos" unicode="&#x38e;" horiz-adv-x="1427" 
d="M1589 1520l-682 -932l-119 -588h-139l119 598l-315 922h145l262 -805l567 805h162zM129 1057l-86 14l160 449h155v-4z" />
    <glyph glyph-name="Omegatonos" unicode="&#x38f;" horiz-adv-x="1695" 
d="M670 113l-23 -113h-575l24 125h414q-244 284 -244 627q0 126 32.5 244t98 218t156.5 174.5t214.5 117t266.5 42.5q145 0 257 -44t181.5 -122t104.5 -181t35 -226q0 -238 -129 -453.5t-387 -396.5h393l-27 -125h-573l22 111q127 90 225 183t174.5 199t117 225t40.5 245
q0 211 -113 334.5t-331 123.5q-185 0 -326 -90t-214.5 -245t-73.5 -351q0 -353 260 -622zM129 1057l-86 14l160 449h155v-4z" />
    <glyph glyph-name="iotadieresistonos" unicode="&#x390;" horiz-adv-x="587" 
d="M428 1212l-86 15l152 448h151v-4zM645 1321l37 180h160l-37 -180h-160zM96 1321l37 180h158l-35 -180h-160zM422 8q-54 -20 -117 -20q-184 0 -184 149q0 30 6 68l176 870h135l-172 -850q-6 -30 -6 -53q0 -34 19.5 -48.5t62.5 -14.5q54 0 104 18z" />
    <glyph glyph-name="Alpha" unicode="&#x391;" horiz-adv-x="1368" 
d="M1059 0l-68 455h-635l-247 -455h-156l852 1520h151l246 -1520h-143zM420 573h553l-121 795z" />
    <glyph glyph-name="Beta" unicode="&#x392;" horiz-adv-x="1361" 
d="M1219 461q0 -70 -17.5 -133.5t-60 -124t-106.5 -105t-165.5 -71.5t-228.5 -27h-532l303 1520h450q222 0 321 -87t99 -249q0 -69 -16.5 -129t-51.5 -114.5t-98.5 -95t-150.5 -61.5q254 -64 254 -323zM838 1397h-312l-110 -557h348q104 0 180 29t117.5 77.5t60.5 103.5
t19 117q0 122 -75 176t-228 54zM756 725h-363l-121 -600h390q106 0 187.5 28t129.5 76.5t72 109.5t24 132q0 254 -319 254z" />
    <glyph glyph-name="Gamma" unicode="&#x393;" horiz-adv-x="1101" 
d="M1247 1395h-721l-278 -1395h-139l303 1520h860z" />
    <glyph glyph-name="uni0394" unicode="&#x394;" horiz-adv-x="1368" 
d="M956 1520l246 -1520h-1249l852 1520h151zM178 127h862l-188 1241z" />
    <glyph glyph-name="Epsilon" unicode="&#x395;" horiz-adv-x="1253" 
d="M1044 125l-26 -125h-909l303 1520h893l-25 -123h-754l-106 -533h674l-25 -121h-674l-123 -618h772z" />
    <glyph glyph-name="Zeta" unicode="&#x396;" 
d="M1102 125l-27 -125h-1077l25 119l1138 1278h-846l25 123h1018l-23 -119l-1138 -1276h905z" />
    <glyph glyph-name="Eta" unicode="&#x397;" horiz-adv-x="1503" 
d="M1038 0l148 743h-791l-147 -743h-139l303 1520h139l-131 -656h790l131 656h142l-303 -1520h-142z" />
    <glyph glyph-name="Theta" unicode="&#x398;" horiz-adv-x="1533" 
d="M680 -29q-248 0 -387 156.5t-139 437.5q0 145 32 286t97.5 267t157.5 222t221.5 152t279.5 56q248 0 387 -156.5t139 -437.5q0 -145 -32 -286t-98 -267t-158 -222t-221.5 -152t-278.5 -56zM692 98q149 0 272 76.5t199.5 200t118 271t41.5 298.5q0 235 -101.5 356
t-291.5 121q-149 0 -272 -76.5t-199.5 -200t-118 -271t-41.5 -298.5q0 -235 101.5 -356t291.5 -121zM457 719l22 123h695l-23 -123h-694z" />
    <glyph glyph-name="Iota" unicode="&#x399;" horiz-adv-x="571" 
d="M109 0l303 1520h139l-303 -1520h-139z" />
    <glyph glyph-name="Kappa" unicode="&#x39a;" horiz-adv-x="1318" 
d="M1036 0l-461 739l-217 -188l-110 -551h-139l303 1520h139l-160 -801l897 801h189v-4l-805 -693l524 -819v-4h-160z" />
    <glyph glyph-name="Lambda" unicode="&#x39b;" horiz-adv-x="1368" 
d="M1059 0l-205 1366l-745 -1366h-156l852 1520h151l246 -1520h-143z" />
    <glyph glyph-name="Mu" unicode="&#x39c;" horiz-adv-x="1900" 
d="M805 0l-289 1378l-276 -1378h-131l303 1520h202l273 -1297l768 1297h225l-303 -1520h-139l278 1391l-827 -1391h-84z" />
    <glyph glyph-name="Nu" unicode="&#x39d;" horiz-adv-x="1540" 
d="M1073 0l-571 1315l-262 -1315h-131l303 1520h145l569 -1315l263 1315h131l-303 -1520h-144z" />
    <glyph glyph-name="Xi" unicode="&#x39e;" horiz-adv-x="1320" 
d="M315 1393l25 127h1034l-24 -127h-1035zM266 739l25 125h870l-24 -125h-871zM20 0l25 127h1067l-25 -127h-1067z" />
    <glyph glyph-name="Omicron" unicode="&#x39f;" horiz-adv-x="1533" 
d="M680 -29q-248 0 -387 156.5t-139 437.5q0 145 32 286t97.5 267t157.5 222t221.5 152t279.5 56q248 0 387 -156.5t139 -437.5q0 -145 -32 -286t-98 -267t-158 -222t-221.5 -152t-278.5 -56zM692 98q149 0 272 76.5t199.5 200t118 271t41.5 298.5q0 235 -101.5 356
t-291.5 121q-149 0 -272 -76.5t-199.5 -200t-118 -271t-41.5 -298.5q0 -235 101.5 -356t291.5 -121z" />
    <glyph glyph-name="Pi" unicode="&#x3a0;" horiz-adv-x="1486" 
d="M1022 0l278 1397h-774l-278 -1397h-139l303 1520h1054l-303 -1520h-141z" />
    <glyph glyph-name="Rho" unicode="&#x3a1;" horiz-adv-x="1284" 
d="M651 551h-293l-110 -551h-139l303 1520h426q471 0 471 -406q0 -89 -22 -169t-72 -153t-124.5 -126t-187 -84t-252.5 -31zM811 1397h-285l-145 -725h289q108 0 194.5 24.5t142 65.5t92.5 98.5t52.5 119t15.5 130.5q0 147 -82 217t-274 70z" />
    <glyph glyph-name="Sigma" unicode="&#x3a3;" horiz-adv-x="1288" 
d="M1106 125l-25 -125h-1075l25 121l727 670l-455 610l25 119h1024l-23 -123h-866l455 -615l-3 -12l-706 -645h897z" />
    <glyph glyph-name="Tau" unicode="&#x3a4;" horiz-adv-x="1157" 
d="M1305 1397h-484l-278 -1397h-140l279 1397h-487l24 123h1110z" />
    <glyph glyph-name="Upsilon" unicode="&#x3a5;" horiz-adv-x="1206" 
d="M1366 1520l-682 -932l-119 -588h-139l119 598l-316 922h146l262 -805l567 805h162z" />
    <glyph glyph-name="Phi" unicode="&#x3a6;" horiz-adv-x="1714" 
d="M1655 856q0 -215 -100.5 -380.5t-286 -257.5t-428.5 -95l-31 -152h-131l31 154q-261 25 -408 171t-147 404q0 216 101.5 381.5t286.5 257.5t427 95l28 139h131l-28 -141q261 -25 408 -171.5t147 -404.5zM297 698q0 -207 112.5 -322.5t321.5 -137.5l215 1083
q-187 -5 -334 -82t-231 -218t-84 -323zM1509 858q0 208 -111.5 323.5t-320.5 137.5l-215 -1083q285 8 466 178.5t181 443.5z" />
    <glyph glyph-name="Chi" unicode="&#x3a7;" horiz-adv-x="1275" 
d="M948 0l-286 668l-531 -668h-166l647 784l-323 736h147l271 -639l505 639h166l-620 -754l338 -766h-148z" />
    <glyph glyph-name="Psi" unicode="&#x3a8;" horiz-adv-x="1617" 
d="M1595 1157q-43 -210 -107 -352.5t-157 -228t-207.5 -122t-269.5 -36.5l-84 -418h-139l84 418q-223 2 -346 123.5t-123 369.5q0 107 28 256l70 353h139l-69 -353q-31 -158 -31 -262q0 -198 91 -282t265 -84l197 981h139l-196 -981q118 1 205 30.5t160.5 100.5t125.5 193.5
t88 303.5l70 353h141z" />
    <glyph glyph-name="uni03A9" unicode="&#x3a9;" horiz-adv-x="1642" 
d="M616 113l-22 -113h-576l25 125h414q-244 284 -244 627q0 126 32.5 244t98 218t156.5 174.5t214.5 117t266.5 42.5q145 0 257 -44t181.5 -122t104.5 -181t35 -226q0 -238 -129.5 -453.5t-387.5 -396.5h394l-27 -125h-573l22 111q127 90 225 183t174.5 199t117 225
t40.5 245q0 211 -113 334.5t-331 123.5q-185 0 -326 -90t-215 -245t-74 -351q0 -353 260 -622z" />
    <glyph glyph-name="Iotadieresis" unicode="&#x3aa;" horiz-adv-x="571" 
d="M637 1720l35 178h162l-35 -178h-162zM225 1720l37 178h162l-37 -178h-162zM109 0l303 1520h139l-303 -1520h-139z" />
    <glyph glyph-name="Upsilondieresis" unicode="&#x3ab;" horiz-adv-x="1206" 
d="M963 1720l34 178h162l-35 -178h-161zM551 1720l37 178h162l-37 -178h-162zM1366 1520l-682 -932l-119 -588h-139l119 598l-316 922h146l262 -805l567 805h162z" />
    <glyph glyph-name="alphatonos" unicode="&#x3ac;" horiz-adv-x="1269" 
d="M791 1212l-86 15l159 448h156v-4zM825 170q0 39 2 57q-154 -252 -389 -252q-151 0 -244.5 105t-93.5 317q0 109 26 213t76 192.5t117.5 155t156 104.5t186.5 38q141 0 217 -74.5t96 -204.5l84 254h141q-129 -317 -190.5 -512t-61.5 -330q0 -61 19.5 -92.5t76.5 -31.5
q49 0 91 18l-25 -119q-49 -20 -106 -20q-93 0 -136 45t-43 137zM238 401q0 -157 58.5 -231t162.5 -74q134 0 242.5 114.5t170.5 319.5l31 103v33q0 313 -237 313q-95 0 -176.5 -48.5t-135.5 -129t-85 -185t-31 -215.5z" />
    <glyph glyph-name="epsilontonos" unicode="&#x3ad;" horiz-adv-x="1026" 
d="M696 1212l-86 15l160 448h156v-4zM856 94q-159 -119 -410 -119q-185 0 -286 66.5t-101 200.5q0 119 81 203t227 118q-172 57 -172 213q0 140 122.5 232t331.5 92q202 0 342 -94l-47 -121q-129 94 -313 94q-134 0 -217.5 -53.5t-83.5 -147.5q0 -162 297 -162h135l-23 -114
h-161q-173 0 -277 -67.5t-104 -174.5q0 -166 268 -166q126 0 215 32.5t166 92.5z" />
    <glyph glyph-name="etatonos" unicode="&#x3ae;" horiz-adv-x="1241" 
d="M805 1212l-86 15l160 448h155v-4zM1092 676l-228 -1131h-135l227 1131q13 70 13 115q0 184 -178 184q-114 0 -218 -69.5t-165 -190.5l-144 -715h-135l170 854q6 27 6 49q0 33 -17.5 47.5t-54.5 14.5q-39 0 -73 -11l24 117q37 16 92 16q78 0 118 -33t40 -110q0 -30 -6 -67
q71 101 171.5 162t221.5 61q127 0 206 -73.5t79 -219.5q0 -65 -14 -131z" />
    <glyph glyph-name="iotatonos" unicode="&#x3af;" horiz-adv-x="587" 
d="M426 1212l-86 15l160 448h155v-4zM422 8q-54 -20 -117 -20q-184 0 -184 149q0 30 6 68l176 870h135l-172 -850q-6 -30 -6 -53q0 -34 19.5 -48.5t62.5 -14.5q54 0 104 18z" />
    <glyph glyph-name="upsilondieresistonos" unicode="&#x3b0;" horiz-adv-x="1202" 
d="M700 1212l-86 15l152 448h152v-4zM918 1321l36 180h160l-37 -180h-159zM369 1321l37 180h157l-35 -180h-159zM1059 1075q24 -135 24 -291q0 -72 -6.5 -143t-23.5 -153t-44 -153.5t-72 -139t-103.5 -115t-142 -76.5t-183.5 -29q-173 0 -271 83.5t-98 254.5q0 65 15 142
l125 620h135l-127 -633q-13 -70 -13 -114q0 -234 240 -234q78 0 142 25t108 66t78 99.5t53.5 119t32 130.5t16.5 128.5t4 119.5q0 143 -24 293h135z" />
    <glyph glyph-name="alpha" unicode="&#x3b1;" horiz-adv-x="1269" 
d="M825 170q0 39 2 57q-154 -252 -389 -252q-151 0 -244.5 105t-93.5 317q0 109 26 213t76 192.5t117.5 155t156 104.5t186.5 38q141 0 217 -74.5t96 -204.5l84 254h141q-129 -317 -190.5 -512t-61.5 -330q0 -61 19.5 -92.5t76.5 -31.5q49 0 91 18l-25 -119
q-49 -20 -106 -20q-93 0 -136 45t-43 137zM238 401q0 -157 58.5 -231t162.5 -74q134 0 242.5 114.5t170.5 319.5l31 103v33q0 313 -237 313q-95 0 -176.5 -48.5t-135.5 -129t-85 -185t-31 -215.5z" />
    <glyph glyph-name="beta" unicode="&#x3b2;" horiz-adv-x="1230" 
d="M600 -25q-226 0 -354 156l-117 -586h-135l311 1561q53 268 176 386t310 118q176 0 278 -92.5t102 -257.5q0 -152 -88.5 -264t-238.5 -152q125 -37 195.5 -133t70.5 -232q0 -93 -34 -182t-96 -161.5t-161 -116.5t-219 -44zM442 1112l-170 -852q38 -73 120.5 -120.5
t195.5 -47.5q92 0 166.5 34t121 90t71 126t24.5 145q0 135 -80 216t-248 81h-92l22 115h103q170 0 265 100t95 244q0 121 -68 184.5t-182 63.5q-269 0 -344 -379z" />
    <glyph glyph-name="gamma" unicode="&#x3b3;" horiz-adv-x="1144" 
d="M1212 1075l-737 -1134l-119 -396h-149l145 426q27 205 27 465q0 155 -15 262t-43.5 165t-63.5 82t-83 24q-42 0 -88 -19l12 121q59 21 111 21q70 0 122.5 -31t92 -99.5t60 -187t20.5 -285.5q0 -169 -21 -344l564 930h165z" />
    <glyph glyph-name="delta" unicode="&#x3b4;" horiz-adv-x="1183" 
d="M1075 594q0 -89 -23 -177.5t-70.5 -168t-113 -140.5t-158 -97t-198.5 -36q-195 0 -303.5 115t-108.5 326q0 248 152 411.5t405 194.5q-55 41 -88 70.5t-66 69t-48 83.5t-15 96q0 125 84.5 198t249.5 73q142 0 269.5 -53t216.5 -134l-52 -120q-86 81 -200.5 135.5
t-241.5 54.5q-197 0 -197 -152q0 -37 11.5 -67.5t41.5 -63t61 -58t89 -69.5t94.5 -74.5t80.5 -78.5t68.5 -93.5t42 -109t17.5 -135.5zM238 420q0 -157 74 -241.5t208 -84.5q96 0 177.5 43.5t134 115t81.5 161t29 184.5q0 117 -44.5 191.5t-141.5 150.5q-226 -3 -372 -148
t-146 -372z" />
    <glyph glyph-name="epsilon" unicode="&#x3b5;" horiz-adv-x="1026" 
d="M856 94q-159 -119 -410 -119q-185 0 -286 66.5t-101 200.5q0 119 81 203t227 118q-172 57 -172 213q0 140 122.5 232t331.5 92q202 0 342 -94l-47 -121q-129 94 -313 94q-134 0 -217.5 -53.5t-83.5 -147.5q0 -162 297 -162h135l-23 -114h-161q-173 0 -277 -67.5
t-104 -174.5q0 -166 268 -166q126 0 215 32.5t166 92.5z" />
    <glyph glyph-name="zeta" unicode="&#x3b6;" horiz-adv-x="923" 
d="M807 -78q0 -100 -69.5 -204t-184.5 -173l-104 78q99 54 163 131t64 142q0 31 -14.5 53t-45 38.5t-76.5 32t-109 33.5q-3 0 -5 0.5t-4 1.5q-59 18 -98.5 32.5t-88.5 42.5t-78 60.5t-49 84.5t-20 116q0 215 208 493.5t626 594.5q-70 -2 -162 -2q-276 0 -395 22l22 115
q137 -25 436 -25q107 0 307 4l-20 -104q-227 -163 -402 -326t-278 -300.5t-155 -252.5t-52 -202q0 -39 10 -71t32.5 -56.5t44.5 -42t60.5 -33t65 -24.5t72.5 -23t71.5 -22t62.5 -21.5t57 -25t44 -29.5t35.5 -37t20 -45t8.5 -56z" />
    <glyph glyph-name="eta" unicode="&#x3b7;" horiz-adv-x="1241" 
d="M1092 676l-228 -1131h-135l227 1131q13 70 13 115q0 184 -178 184q-114 0 -218 -69.5t-165 -190.5l-144 -715h-135l170 854q6 27 6 49q0 33 -17.5 47.5t-54.5 14.5q-39 0 -73 -11l24 117q37 16 92 16q78 0 118 -33t40 -110q0 -30 -6 -67q71 101 171.5 162t221.5 61
q127 0 206 -73.5t79 -219.5q0 -65 -14 -131z" />
    <glyph glyph-name="theta" unicode="&#x3b8;" horiz-adv-x="1196" 
d="M492 -25q-170 0 -261.5 121.5t-91.5 354.5q0 147 39 342q77 388 237 602.5t390 214.5q170 0 261 -120.5t91 -352.5q0 -149 -39 -344q-80 -393 -238 -605.5t-388 -212.5zM793 1493q-162 0 -278.5 -166t-186.5 -469h665q31 163 31 291q0 344 -231 344zM272 436
q0 -344 232 -344q165 0 283 171t186 482h-668q-33 -185 -33 -309z" />
    <glyph glyph-name="iota" unicode="&#x3b9;" horiz-adv-x="587" 
d="M422 8q-54 -20 -117 -20q-184 0 -184 149q0 30 6 68l176 870h135l-172 -850q-6 -30 -6 -53q0 -34 19.5 -48.5t62.5 -14.5q54 0 104 18z" />
    <glyph glyph-name="kappa" unicode="&#x3ba;" horiz-adv-x="1122" 
d="M840 0l-314 557q-98 -104 -258 -278l-55 -279h-135l217 1075h135l-123 -606q111 126 176 198t144.5 154t130 123.5t109.5 80t109 53t103 14.5q58 0 97 -17l-35 -125q-34 17 -78 17q-84 0 -177 -65.5t-276 -256.5l377 -641v-4h-147z" />
    <glyph glyph-name="lambda" unicode="&#x3bb;" horiz-adv-x="1101" 
d="M807 0l-141 903l-539 -903h-156l664 1069q-39 257 -78.5 338.5t-134.5 81.5q-53 0 -121 -33l18 119q68 35 142 35q89 0 141 -40t86 -134t64 -279l190 -1157h-135z" />
    <glyph glyph-name="uni03BC" unicode="&#x3bc;" horiz-adv-x="1257" 
d="M461 -25q-79 0 -140.5 32t-91.5 95l-98 -557h-135l307 1530h135l-135 -676q-14 -71 -14 -114q0 -95 46 -140t138 -45q127 0 223 77t160 204l137 694h135l-170 -856q-6 -27 -6 -47q0 -34 17 -48.5t53 -14.5q47 0 92 18l-24 -119q-49 -20 -105 -20q-80 0 -122 33.5
t-42 109.5q0 25 6 55q-68 -95 -161 -153t-205 -58z" />
    <glyph glyph-name="nu" unicode="&#x3bd;" horiz-adv-x="1081" 
d="M1055 1075q-61 -313 -221 -590t-396 -485h-112q-45 667 -176 1075h141q109 -393 145 -938q365 380 473 938h146z" />
    <glyph glyph-name="xi" unicode="&#x3be;" horiz-adv-x="970" 
d="M831 -78q0 -100 -69.5 -203.5t-186.5 -173.5l-104 78q101 53 164 130.5t63 144.5q0 25 -10.5 44t-29.5 33t-50.5 26.5t-69 23.5t-88.5 25l-12 3q-45 12 -75.5 22t-69.5 26.5t-65.5 33.5t-54 43t-44 56t-27 71t-10.5 90q0 161 109.5 283.5t308.5 167.5q-105 31 -155 100
t-50 164q0 133 92 233.5t248 145.5q-207 0 -326 18l21 107q137 -25 463 -25q113 0 297 4l-25 -116h-102q-148 0 -268.5 -42.5t-192.5 -124.5t-72 -190q0 -114 78 -168.5t219 -54.5h164l-24 -121h-177q-214 0 -343.5 -106t-129.5 -260q0 -40 9 -72t29.5 -56t42 -40.5
t60.5 -32.5t69 -25.5t81 -23.5q50 -14 74.5 -21t64.5 -21t60 -25t46 -29t38 -37.5t21 -46t9 -58.5z" />
    <glyph glyph-name="omicron" unicode="&#x3bf;" horiz-adv-x="1179" 
d="M504 -25q-185 0 -294.5 114.5t-109.5 326.5q0 124 38.5 244t109.5 219t182.5 160t245.5 61q184 0 293.5 -114.5t109.5 -326.5q0 -99 -23.5 -196.5t-72 -185.5t-115.5 -155t-161.5 -107t-202.5 -40zM514 94q102 0 185.5 50t135 131.5t79.5 178.5t28 197q0 161 -72 245.5
t-204 84.5q-102 0 -185.5 -50t-135 -131.5t-79.5 -178.5t-28 -197q0 -161 72.5 -245.5t203.5 -84.5z" />
    <glyph glyph-name="uni03C0" unicode="&#x3c0;" horiz-adv-x="1306" 
d="M1067 8q-54 -20 -121 -20q-92 0 -136 36t-44 117q0 38 10 90l148 732h-387q-69 -336 -140 -565.5t-186 -397.5h-145q123 185 197 409.5t143 553.5h-250l24 112h1127l-25 -112h-223l-148 -738q-8 -36 -8 -53q0 -35 19 -49t63 -14q55 0 105 18z" />
    <glyph glyph-name="rho" unicode="&#x3c1;" horiz-adv-x="1220" 
d="M563 -25q-231 0 -332 201l-125 -631h-135l197 994q54 269 188.5 415t352.5 146q191 0 301 -112.5t110 -328.5q0 -129 -40.5 -252t-111.5 -219t-177 -154.5t-228 -58.5zM301 526l-39 -194q30 -110 104.5 -175t186.5 -65q95 0 177 47.5t136.5 126t85.5 179t31 206.5
q0 165 -75.5 246.5t-205.5 81.5q-87 0 -155 -33.5t-115.5 -97t-78.5 -142t-52 -180.5z" />
    <glyph glyph-name="sigma1" unicode="&#x3c2;" horiz-adv-x="999" 
d="M539 -455l-103 78q99 53 162.5 129.5t63.5 145.5q0 25 -10.5 45t-24.5 33.5t-45.5 28t-56 23.5t-72.5 25q-39 13 -67.5 24t-68 31.5t-67.5 42t-58.5 55t-49 72t-30.5 92t-12 115.5q0 82 19 164.5t63.5 165t109.5 145t165.5 101.5t222.5 39q176 0 299 -94l-47 -121
q-108 94 -260 94q-92 0 -167.5 -31.5t-124 -81.5t-82 -115t-48 -130t-14.5 -129q0 -47 9 -86.5t23 -69t38 -54.5t46 -42t56.5 -33t60.5 -26t66 -23q44 -15 68.5 -24.5t59.5 -25t55 -32t40 -39t28.5 -51.5t8.5 -64q0 -101 -70 -204.5t-186 -172.5z" />
    <glyph glyph-name="sigma" unicode="&#x3c3;" horiz-adv-x="1255" 
d="M1073 594q0 -92 -24 -182t-72 -168.5t-114 -138.5t-156 -95t-193 -35q-191 0 -302.5 116.5t-111.5 324.5q0 124 41.5 241t117.5 210.5t196 150.5t264 57h586l-23 -112h-362q153 -138 153 -369zM518 94q78 0 145.5 29t117 78.5t85 115t53 140.5t17.5 153q0 109 -35 203.5
t-104 149.5h-95q-111 0 -202 -47.5t-146.5 -125.5t-85.5 -172.5t-30 -195.5q0 -156 71 -242t209 -86z" />
    <glyph glyph-name="tau" unicode="&#x3c4;" horiz-adv-x="964" 
d="M637 16q-69 -28 -150 -28q-92 0 -136 36t-44 117q0 42 10 90l146 732h-348l22 112h895l-22 -112h-412l-147 -744q-7 -31 -7 -49q0 -32 18.5 -46.5t61.5 -14.5q70 0 129 26z" />
    <glyph glyph-name="upsilon" unicode="&#x3c5;" horiz-adv-x="1202" 
d="M1059 1075q24 -135 24 -291q0 -72 -6.5 -143t-23.5 -153t-44 -153.5t-72 -139t-103.5 -115t-142 -76.5t-183.5 -29q-173 0 -271 83.5t-98 254.5q0 65 15 142l125 620h135l-127 -633q-13 -70 -13 -114q0 -234 240 -234q78 0 142 25t108 66t78 99.5t53.5 119t32 130.5
t16.5 128.5t4 119.5q0 143 -24 293h135z" />
    <glyph glyph-name="phi" unicode="&#x3c6;" horiz-adv-x="1458" 
d="M1366 586q0 -179 -90.5 -319t-246.5 -216t-349 -76l-86 -430h-127l88 439q-99 13 -182.5 51t-146.5 100t-98.5 152.5t-35.5 199.5q0 180 90.5 320.5t246.5 216.5t349 76l99 487h127l-101 -495q205 -26 334 -158t129 -348zM227 489q0 -169 95.5 -274t255.5 -123l178 897
q-107 -1 -203.5 -37t-168.5 -100t-114.5 -158.5t-42.5 -204.5zM1231 586q0 169 -94.5 274t-253.5 123l-181 -897q107 1 203.5 37t168.5 100t114.5 158.5t42.5 204.5z" />
    <glyph glyph-name="chi" unicode="&#x3c7;" horiz-adv-x="1050" 
d="M831 -451q-49 -20 -112 -20q-34 0 -61 9t-46.5 21.5t-35.5 38t-26 46.5t-20 60.5t-15.5 65.5t-14.5 76l-66 355l-467 -656h-157v4l600 793l-70 383q-27 151 -49.5 197.5t-85.5 46.5q-41 0 -90 -19l12 121q61 21 115 21q46 0 80 -17t55 -41.5t38 -72t25.5 -86.5t20.5 -107
l55 -315l434 622h160v-4l-567 -749l78 -435q26 -146 48 -191.5t85 -45.5q40 0 92 20z" />
    <glyph glyph-name="psi" unicode="&#x3c8;" horiz-adv-x="1550" 
d="M1446 815q0 -146 -24.5 -268.5t-78.5 -227t-136.5 -177.5t-203.5 -115t-274 -45l-88 -437h-131l88 437q-73 4 -136 21.5t-120.5 54t-98.5 89.5t-65 134t-24 182q0 100 24 229l76 383h135l-82 -411q-24 -117 -24 -205q0 -96 25 -165.5t72.5 -110t106 -60.5t134.5 -25
l284 1415h131l-284 -1417q145 4 253.5 58.5t174.5 152t98.5 226.5t32.5 290q0 97 -19 252h135q19 -131 19 -260z" />
    <glyph glyph-name="omega" unicode="&#x3c9;" horiz-adv-x="1708" 
d="M1593 621q0 -285 -141.5 -465.5t-366.5 -180.5q-260 0 -288 250q-64 -125 -163.5 -187.5t-219.5 -62.5q-155 0 -236.5 101.5t-81.5 283.5q0 113 30.5 221.5t83.5 198.5t115 163t134 132l145 -18q-80 -70 -142 -139.5t-116.5 -154.5t-83.5 -184.5t-29 -205.5
q0 -279 209 -279q134 0 216.5 106.5t123.5 309.5l60 289h135l-59 -289q-21 -105 -21 -182q0 -234 195 -234q165 0 264.5 148t99.5 374q0 259 -133 441l139 18q58 -71 94.5 -189.5t36.5 -264.5z" />
    <glyph glyph-name="iotadieresis" unicode="&#x3ca;" horiz-adv-x="587" 
d="M537 1321l36 180h160l-37 -180h-159zM141 1321l35 180h160l-35 -180h-160zM422 8q-54 -20 -117 -20q-184 0 -184 149q0 30 6 68l176 870h135l-172 -850q-6 -30 -6 -53q0 -34 19.5 -48.5t62.5 -14.5q54 0 104 18z" />
    <glyph glyph-name="upsilondieresis" unicode="&#x3cb;" horiz-adv-x="1202" 
d="M827 1321l37 180h160l-37 -180h-160zM432 1321l35 180h160l-35 -180h-160zM1059 1075q24 -135 24 -291q0 -72 -6.5 -143t-23.5 -153t-44 -153.5t-72 -139t-103.5 -115t-142 -76.5t-183.5 -29q-173 0 -271 83.5t-98 254.5q0 65 15 142l125 620h135l-127 -633
q-13 -70 -13 -114q0 -234 240 -234q78 0 142 25t108 66t78 99.5t53.5 119t32 130.5t16.5 128.5t4 119.5q0 143 -24 293h135z" />
    <glyph glyph-name="omicrontonos" unicode="&#x3cc;" horiz-adv-x="1179" 
d="M760 1212l-86 15l160 448h155v-4zM504 -25q-185 0 -294.5 114.5t-109.5 326.5q0 124 38.5 244t109.5 219t182.5 160t245.5 61q184 0 293.5 -114.5t109.5 -326.5q0 -99 -23.5 -196.5t-72 -185.5t-115.5 -155t-161.5 -107t-202.5 -40zM514 94q102 0 185.5 50t135 131.5
t79.5 178.5t28 197q0 161 -72 245.5t-204 84.5q-102 0 -185.5 -50t-135 -131.5t-79.5 -178.5t-28 -197q0 -161 72.5 -245.5t203.5 -84.5z" />
    <glyph glyph-name="upsilontonos" unicode="&#x3cd;" horiz-adv-x="1202" 
d="M723 1212l-86 15l160 448h155v-4zM1059 1075q24 -135 24 -291q0 -72 -6.5 -143t-23.5 -153t-44 -153.5t-72 -139t-103.5 -115t-142 -76.5t-183.5 -29q-173 0 -271 83.5t-98 254.5q0 65 15 142l125 620h135l-127 -633q-13 -70 -13 -114q0 -234 240 -234q78 0 142 25
t108 66t78 99.5t53.5 119t32 130.5t16.5 128.5t4 119.5q0 143 -24 293h135z" />
    <glyph glyph-name="omegatonos" unicode="&#x3ce;" horiz-adv-x="1708" 
d="M1022 1212l-86 15l160 448h155v-4zM1593 621q0 -285 -141.5 -465.5t-366.5 -180.5q-260 0 -288 250q-64 -125 -163.5 -187.5t-219.5 -62.5q-155 0 -236.5 101.5t-81.5 283.5q0 113 30.5 221.5t83.5 198.5t115 163t134 132l145 -18q-80 -70 -142 -139.5t-116.5 -154.5
t-83.5 -184.5t-29 -205.5q0 -279 209 -279q134 0 216.5 106.5t123.5 309.5l60 289h135l-59 -289q-21 -105 -21 -182q0 -234 195 -234q165 0 264.5 148t99.5 374q0 259 -133 441l139 18q58 -71 94.5 -189.5t36.5 -264.5z" />
    <glyph glyph-name="uni0400" unicode="&#x400;" horiz-adv-x="1253" 
d="M965 1638l-347 301l136 68l282 -321zM1044 125l-26 -125h-909l303 1520h893l-25 -123h-754l-106 -533h674l-25 -121h-674l-123 -618h772z" />
    <glyph glyph-name="uni0401" unicode="&#x401;" horiz-adv-x="1253" 
d="M1010 1720l34 178h162l-35 -178h-161zM598 1720l37 178h162l-37 -178h-162zM1044 125l-26 -125h-909l303 1520h893l-25 -123h-754l-106 -533h674l-25 -121h-674l-123 -618h772z" />
    <glyph glyph-name="uni0402" unicode="&#x402;" horiz-adv-x="1570" 
d="M1464 492q0 -235 -144 -378t-376 -143q-123 0 -225 35l35 123q26 -14 84 -25.5t112 -11.5q166 0 269.5 107.5t103.5 287.5q0 147 -84 213t-283 66q-169 0 -311 -47l-143 -719h-140l279 1397h-446l24 123h1110l-24 -123h-525l-108 -559q150 51 319 51q243 0 358 -99.5
t115 -297.5z" />
    <glyph glyph-name="uni0403" unicode="&#x403;" horiz-adv-x="1101" 
d="M752 1638l-64 54l383 315l115 -94zM1247 1395h-721l-278 -1395h-139l303 1520h860z" />
    <glyph glyph-name="uni0404" unicode="&#x404;" horiz-adv-x="1341" 
d="M1167 127q-74 -67 -194.5 -111.5t-267.5 -44.5q-262 0 -406.5 156.5t-144.5 462.5q0 146 32.5 284.5t100 260.5t163 214t229.5 145.5t290 53.5q260 0 403 -143l-57 -135q-129 151 -361 151q-125 0 -231.5 -44t-183.5 -122t-130 -178t-81 -219h743l-24 -121h-742
q-8 -63 -8 -143q0 -496 426 -496q244 0 428 170z" />
    <glyph glyph-name="uni0405" unicode="&#x405;" horiz-adv-x="1196" 
d="M25 131l51 133q192 -166 436 -166q187 0 295 93.5t108 238.5q0 43 -9 76.5t-31 60.5t-43.5 45.5t-63 37.5t-71.5 30.5t-85 30.5q-49 17 -81.5 30t-73.5 32.5t-68 39t-55.5 47.5t-44.5 59t-26.5 72.5t-10.5 89.5q0 95 36.5 179.5t104 148.5t170.5 101.5t228 37.5
q231 0 395 -127l-51 -133q-160 133 -361 133q-175 0 -279 -92t-104 -231q0 -35 8.5 -65t19.5 -51.5t35.5 -42t44 -33t58.5 -28.5t64 -25t75 -26q44 -15 75.5 -27t72 -31.5t69 -40t58 -50t47.5 -63t29.5 -78.5t11.5 -97q0 -204 -151 -336.5t-414 -132.5q-268 0 -469 160z" />
    <glyph glyph-name="uni0406" unicode="&#x406;" horiz-adv-x="571" 
d="M109 0l303 1520h139l-303 -1520h-139z" />
    <glyph glyph-name="uni0407" unicode="&#x407;" horiz-adv-x="571" 
d="M614 1720l37 178h162l-37 -178h-162zM246 1720l37 178h161l-36 -178h-162zM109 0l303 1520h139l-303 -1520h-139z" />
    <glyph glyph-name="uni0408" unicode="&#x408;" horiz-adv-x="833" 
d="M-98 35l39 131q105 -68 219 -68q124 0 200.5 81.5t116.5 279.5l213 1061h139l-213 -1061q-28 -141 -71 -237t-103 -150.5t-129.5 -77.5t-160.5 -23q-135 0 -250 64z" />
    <glyph glyph-name="uni0409" unicode="&#x409;" horiz-adv-x="2156" 
d="M985 0l279 1397h-400q-66 -195 -118.5 -343t-108.5 -291t-104.5 -245t-101 -194.5t-103.5 -152t-107 -104t-115.5 -64t-125.5 -19.5q-47 0 -82 10l26 125q20 -8 64 -8q62 0 120 33.5t117.5 109t119 184t127 270.5t138 357.5t156.5 454.5h664l-132 -652h301
q457 0 457 -368q0 -80 -19 -151t-64 -136t-112.5 -111.5t-171.5 -74t-235 -27.5h-469zM1569 745h-295l-125 -620h324q118 0 206 31t138 84.5t74 117t24 136.5q0 129 -81.5 190t-264.5 61z" />
    <glyph glyph-name="uni040A" unicode="&#x40a;" horiz-adv-x="2170" 
d="M999 0l148 743h-752l-147 -743h-139l303 1520h139l-131 -656h751l132 656h139l-131 -656h301q459 0 459 -364q0 -80 -19.5 -151t-64.5 -136t-113.5 -111.5t-172.5 -74t-235 -27.5h-467zM1581 743h-295l-123 -618h322q118 0 206.5 31t138.5 84.5t73.5 117t23.5 136.5
q0 129 -81 189t-265 60z" />
    <glyph glyph-name="uni040B" unicode="&#x40b;" horiz-adv-x="1587" 
d="M639 684l-137 -684h-140l279 1397h-446l24 123h1110l-24 -123h-525l-114 -584q182 92 385 92q188 0 282 -82t94 -237q0 -63 -14 -129l-90 -457h-141l90 451q14 75 14 116q0 109 -66.5 160t-211.5 51q-198 0 -369 -94z" />
    <glyph glyph-name="uni040C" unicode="&#x40c;" horiz-adv-x="1304" 
d="M782 1638l-63 54l383 315l115 -94zM1014 0l-615 762l-151 -762h-139l303 1520h139l-148 -742l871 742h190v-4l-907 -750l623 -762v-4h-166z" />
    <glyph glyph-name="uni040D" unicode="&#x40d;" horiz-adv-x="1527" 
d="M1071 1638l-346 301l135 68l283 -321zM1065 0l260 1298l-1057 -1298h-159l303 1520h139l-260 -1299l1057 1299h159l-303 -1520h-139z" />
    <glyph glyph-name="uni040E" unicode="&#x40e;" horiz-adv-x="1257" 
d="M543 1968l110 8q-6 -37 -6 -65q0 -164 207 -164q236 0 299 229l121 -8q-42 -166 -155 -242.5t-273 -76.5q-145 0 -228 63t-83 186q0 20 8 70zM754 451q-98 -155 -160 -241t-125 -144t-118.5 -76.5t-133.5 -18.5q-94 0 -156 29l29 129q59 -33 141 -33q88 0 151 53.5
t177 229.5l-303 1141h145l250 -1010l617 1010h157z" />
    <glyph glyph-name="uni040F" unicode="&#x40f;" horiz-adv-x="1486" 
d="M1163 0h-463l-92 -455h-131l92 455h-460l303 1520h139l-281 -1395h777l278 1395h141z" />
    <glyph glyph-name="uni0410" unicode="&#x410;" horiz-adv-x="1368" 
d="M1059 0l-68 455h-635l-247 -455h-156l852 1520h151l246 -1520h-143zM420 573h553l-121 795z" />
    <glyph glyph-name="uni0411" unicode="&#x411;" horiz-adv-x="1318" 
d="M1196 498q0 -80 -19 -150.5t-64 -135t-113 -111t-173 -74t-237 -27.5h-481l303 1520h878l-24 -123h-740l-106 -531h315q461 0 461 -368zM700 743h-305l-123 -618h336q120 0 209.5 31t139.5 84.5t74 117t24 136.5q0 129 -84 189t-271 60z" />
    <glyph glyph-name="uni0412" unicode="&#x412;" horiz-adv-x="1361" 
d="M1219 461q0 -70 -17.5 -133.5t-60 -124t-106.5 -105t-165.5 -71.5t-228.5 -27h-532l303 1520h450q222 0 321 -87t99 -249q0 -69 -16.5 -129t-51.5 -114.5t-98.5 -95t-150.5 -61.5q254 -64 254 -323zM838 1397h-312l-110 -557h348q104 0 180 29t117.5 77.5t60.5 103.5
t19 117q0 122 -75 176t-228 54zM756 725h-363l-121 -600h390q106 0 187.5 28t129.5 76.5t72 109.5t24 132q0 254 -319 254z" />
    <glyph glyph-name="uni0413" unicode="&#x413;" horiz-adv-x="1101" 
d="M1247 1395h-721l-278 -1395h-139l303 1520h860z" />
    <glyph glyph-name="uni0414" unicode="&#x414;" horiz-adv-x="1505" 
d="M-180 -432l112 557h70q182 123 369 470t372 925h689l-281 -1395h203l-111 -557h-131l86 432h-1161l-86 -432h-131zM193 125h819l254 1272h-428q-303 -933 -645 -1272z" />
    <glyph glyph-name="uni0415" unicode="&#x415;" horiz-adv-x="1253" 
d="M1044 125l-26 -125h-909l303 1520h893l-25 -123h-754l-106 -533h674l-25 -121h-674l-123 -618h772z" />
    <glyph glyph-name="uni0416" unicode="&#x416;" horiz-adv-x="1908" 
d="M780 0l154 770l-821 -770h-191v4l862 780l-546 732v4h151l547 -740l147 740h136l-148 -742l803 742h188v-4l-843 -750l555 -762v-4h-158l-549 764l-152 -764h-135z" />
    <glyph glyph-name="uni0417" unicode="&#x417;" horiz-adv-x="1241" 
d="M1104 461q0 -223 -172 -356.5t-459 -133.5q-279 0 -450 144l53 135q149 -152 407 -152q215 0 346.5 98.5t131.5 272.5q0 128 -89 190t-309 62h-176l25 123h163q247 0 364.5 90.5t117.5 239.5q0 124 -79 185.5t-226 61.5q-228 0 -430 -143l-23 129q207 141 469 141
q205 0 317.5 -91t112.5 -267q0 -152 -86 -259.5t-266 -148.5q258 -65 258 -321z" />
    <glyph glyph-name="uni0418" unicode="&#x418;" horiz-adv-x="1527" 
d="M1065 0l260 1298l-1057 -1298h-159l303 1520h139l-260 -1299l1057 1299h159l-303 -1520h-139z" />
    <glyph glyph-name="uni0419" unicode="&#x419;" horiz-adv-x="1527" 
d="M676 1968l110 8q-6 -37 -6 -65q0 -164 207 -164q236 0 299 229l121 -8q-42 -166 -155 -242.5t-273 -76.5q-145 0 -228 63t-83 186q0 20 8 70zM1065 0l260 1298l-1057 -1298h-159l303 1520h139l-260 -1299l1057 1299h159l-303 -1520h-139z" />
    <glyph glyph-name="uni041A" unicode="&#x41a;" horiz-adv-x="1304" 
d="M1014 0l-615 762l-151 -762h-139l303 1520h139l-148 -742l871 742h190v-4l-907 -750l623 -762v-4h-166z" />
    <glyph glyph-name="uni041B" unicode="&#x41b;" horiz-adv-x="1466" 
d="M1001 0l279 1397h-416q-66 -195 -118.5 -343t-108.5 -291t-104.5 -245t-101 -194.5t-103.5 -152t-107 -104t-115.5 -64t-125.5 -19.5q-47 0 -82 10l26 125q20 -8 64 -8q62 0 120 33.5t117.5 109t119 184t127 270.5t138 357.5t156.5 454.5h680l-303 -1520h-142z" />
    <glyph glyph-name="uni041C" unicode="&#x41c;" horiz-adv-x="1900" 
d="M805 0l-289 1378l-276 -1378h-131l303 1520h202l273 -1297l768 1297h225l-303 -1520h-139l278 1391l-827 -1391h-84z" />
    <glyph glyph-name="uni041D" unicode="&#x41d;" horiz-adv-x="1503" 
d="M1038 0l148 743h-791l-147 -743h-139l303 1520h139l-131 -656h790l131 656h142l-303 -1520h-142z" />
    <glyph glyph-name="uni041E" unicode="&#x41e;" horiz-adv-x="1533" 
d="M680 -29q-248 0 -387 156.5t-139 437.5q0 145 32 286t97.5 267t157.5 222t221.5 152t279.5 56q248 0 387 -156.5t139 -437.5q0 -145 -32 -286t-98 -267t-158 -222t-221.5 -152t-278.5 -56zM692 98q149 0 272 76.5t199.5 200t118 271t41.5 298.5q0 235 -101.5 356
t-291.5 121q-149 0 -272 -76.5t-199.5 -200t-118 -271t-41.5 -298.5q0 -235 101.5 -356t291.5 -121z" />
    <glyph glyph-name="uni041F" unicode="&#x41f;" horiz-adv-x="1486" 
d="M1022 0l278 1397h-774l-278 -1397h-139l303 1520h1054l-303 -1520h-141z" />
    <glyph glyph-name="uni0420" unicode="&#x420;" horiz-adv-x="1284" 
d="M651 551h-293l-110 -551h-139l303 1520h426q471 0 471 -406q0 -89 -22 -169t-72 -153t-124.5 -126t-187 -84t-252.5 -31zM811 1397h-285l-145 -725h289q108 0 194.5 24.5t142 65.5t92.5 98.5t52.5 119t15.5 130.5q0 147 -82 217t-274 70z" />
    <glyph glyph-name="uni0421" unicode="&#x421;" horiz-adv-x="1366" 
d="M1217 150q-206 -179 -496 -179q-263 0 -415 156.5t-152 462.5q0 145 34 283.5t103.5 260.5t166.5 214.5t232 146t291 53.5q269 0 426 -157l-59 -138q-142 168 -383 168q-126 0 -235 -46t-187 -125.5t-134 -185t-83 -224.5t-27 -244q0 -498 436 -498q257 0 469 193z" />
    <glyph glyph-name="uni0422" unicode="&#x422;" horiz-adv-x="1157" 
d="M1305 1397h-484l-278 -1397h-140l279 1397h-487l24 123h1110z" />
    <glyph glyph-name="uni0423" unicode="&#x423;" horiz-adv-x="1257" 
d="M754 451q-98 -155 -160 -241t-125 -144t-118.5 -76.5t-133.5 -18.5q-94 0 -156 29l29 129q59 -33 141 -33q88 0 151 53.5t177 229.5l-303 1141h145l250 -1010l617 1010h157z" />
    <glyph glyph-name="uni0424" unicode="&#x424;" horiz-adv-x="1710" 
d="M1649 846q0 -323 -216.5 -500.5t-586.5 -177.5l-41 -205h-131l41 205q-158 4 -284 64t-202.5 177t-76.5 273q0 323 216 500.5t586 177.5l39 196h131l-39 -196q117 -2 219.5 -38t179 -100t121 -161t44.5 -215zM293 684q0 -189 124 -294t320 -105l193 958
q-187 0 -328.5 -60.5t-225 -188.5t-83.5 -310zM1505 844q0 189 -123.5 294t-320.5 105l-193 -958q187 0 328.5 60.5t225 188.5t83.5 310z" />
    <glyph glyph-name="uni0425" unicode="&#x425;" horiz-adv-x="1275" 
d="M948 0l-286 668l-531 -668h-166l647 784l-323 736h147l271 -639l505 639h166l-620 -754l338 -766h-148z" />
    <glyph glyph-name="uni0426" unicode="&#x426;" horiz-adv-x="1527" 
d="M1376 125l-112 -557h-131l86 432h-1110l303 1520h139l-281 -1395h764l279 1395h139l-278 -1395h202z" />
    <glyph glyph-name="uni0427" unicode="&#x427;" horiz-adv-x="1368" 
d="M1348 1520l-304 -1520h-141l129 645q-179 -100 -395 -100q-198 0 -301 87t-103 249q0 50 13 120l104 519h139l-100 -506q-14 -75 -14 -119q0 -117 71 -171t226 -54q219 0 387 104l147 746h142z" />
    <glyph glyph-name="uni0428" unicode="&#x428;" horiz-adv-x="2004" 
d="M1987 1520l-304 -1520h-1574l303 1520h139l-279 -1395h578l278 1395h142l-281 -1395h578l278 1395h142z" />
    <glyph glyph-name="uni0429" unicode="&#x429;" horiz-adv-x="2060" 
d="M1909 125l-111 -557h-131l86 432h-1644l303 1520h139l-279 -1395h578l278 1395h142l-281 -1395h578l278 1395h142l-281 -1395h203z" />
    <glyph glyph-name="uni042A" unicode="&#x42a;" horiz-adv-x="1531" 
d="M1432 514q0 -83 -19 -155.5t-64.5 -139.5t-114.5 -114.5t-176 -76t-243 -28.5h-471l279 1395h-441l25 125h579l-124 -625h303q467 0 467 -381zM934 772h-297l-129 -647h328q123 0 214 32t141 88t73.5 122t23.5 143q0 136 -82 199t-272 63z" />
    <glyph glyph-name="uni042B" unicode="&#x42b;" horiz-adv-x="1792" 
d="M1178 514q0 -83 -19 -155.5t-64 -139.5t-114 -114.5t-176 -76t-242 -28.5h-454l303 1520h139l-125 -625h285q467 0 467 -381zM1329 0l303 1520h140l-304 -1520h-139zM680 772h-279l-129 -647h310q99 0 178 21.5t130 57.5t84.5 86.5t47.5 104.5t14 115q0 136 -83 199
t-273 63z" />
    <glyph glyph-name="uni042C" unicode="&#x42c;" horiz-adv-x="1308" 
d="M1208 514q0 -83 -19 -155.5t-64 -139.5t-114 -114.5t-176 -76t-243 -28.5h-483l303 1520h139l-125 -625h315q467 0 467 -381zM711 772h-310l-129 -647h340q123 0 214.5 32t142 88t74.5 122t24 143q0 136 -83 199t-273 63z" />
    <glyph glyph-name="uni042D" unicode="&#x42d;" horiz-adv-x="1341" 
d="M1276 928q0 -152 -33 -292.5t-101.5 -261.5t-164.5 -210.5t-231 -141t-293 -51.5q-144 0 -255.5 40t-174.5 110l53 135q60 -74 161 -116t228 -42q173 0 312.5 83.5t225.5 226.5t117 329h-747l26 121h734q2 23 2 68q0 245 -100.5 370t-315.5 125q-248 0 -422 -147l-21 131
q186 143 457 143q263 0 403 -154t140 -466z" />
    <glyph glyph-name="uni042E" unicode="&#x42e;" horiz-adv-x="2066" 
d="M1999 958q0 -145 -31.5 -286.5t-96 -268t-154 -223t-216 -153t-272.5 -56.5q-239 0 -374.5 155t-135.5 435q0 91 12 182h-336l-147 -743h-139l303 1520h139l-131 -656h334q35 142 98.5 263t154 216.5t215.5 150t269 54.5q238 0 373 -155t135 -435zM1241 98
q116 0 217 50.5t172.5 135.5t123 195t76.5 229.5t25 239.5q0 235 -97.5 354t-278.5 119q-117 0 -218.5 -50.5t-173.5 -135.5t-123.5 -195t-76.5 -229.5t-25 -239.5q0 -235 98 -354t281 -119z" />
    <glyph glyph-name="uni042F" unicode="&#x42f;" horiz-adv-x="1382" 
d="M920 0l122 621h-378l-533 -621h-174l571 651q-118 43 -186 137.5t-68 235.5q0 102 38 192t108 158t177 107t237 39h528l-303 -1520h-139zM733 741h334l131 656h-371q-196 0 -302.5 -104.5t-106.5 -264.5q0 -142 84.5 -214.5t230.5 -72.5z" />
    <glyph glyph-name="uni0430" unicode="&#x430;" horiz-adv-x="1126" 
d="M725 0l31 174q-71 -94 -168.5 -146.5t-212.5 -52.5q-135 0 -219 72.5t-84 212.5q0 190 164.5 292.5t478.5 102.5h123l8 39q12 56 12 101q0 96 -53 140t-168 44q-201 0 -358 -121l-11 127q71 53 175.5 84t213.5 31q166 0 250 -74t84 -219q0 -63 -12 -127l-137 -680h-117z
M408 92q114 0 211.5 64.5t154.5 171.5l45 225h-121q-240 0 -364.5 -73.5t-124.5 -207.5q0 -90 53.5 -135t145.5 -45z" />
    <glyph glyph-name="uni0431" unicode="&#x431;" horiz-adv-x="1196" 
d="M1094 653q0 -101 -24 -198.5t-73.5 -184.5t-118 -152.5t-164.5 -104t-206 -38.5q-193 0 -287 118t-94 327q0 126 31 278q56 279 148.5 459t221.5 272.5t308 118.5l383 56l-27 -134l-383 -55q-186 -27 -310.5 -170.5t-189.5 -421.5q169 228 424 228q173 0 267 -100.5
t94 -297.5zM260 418q0 -324 258 -324q101 0 186 48t139 127t83.5 176t29.5 198q0 148 -63 217.5t-188 69.5q-131 0 -238 -69.5t-178 -198.5q-29 -136 -29 -244z" />
    <glyph glyph-name="uni0432" unicode="&#x432;" horiz-adv-x="1142" 
d="M995 324q0 -49 -12 -93.5t-42.5 -87.5t-77 -74t-120.5 -50t-168 -19h-497l217 1075h438q320 0 320 -239q0 -100 -56 -177.5t-180 -107.5q178 -46 178 -227zM711 967h-308l-73 -365h323q138 0 201.5 60t63.5 151q0 81 -50.5 117.5t-156.5 36.5zM639 500h-330l-78 -389h349
q142 0 210 62t68 161q0 84 -52.5 125t-166.5 41z" />
    <glyph glyph-name="uni0433" unicode="&#x433;" horiz-adv-x="890" 
d="M934 958h-528l-193 -958h-135l217 1075h661z" />
    <glyph glyph-name="uni0434" unicode="&#x434;" horiz-adv-x="1230" 
d="M-186 -432l110 545h62q292 183 532 962h569l-192 -962h190l-110 -545h-125l86 432h-909l-86 -432h-127zM170 113h590l170 850h-316q-190 -596 -444 -850z" />
    <glyph glyph-name="uni0435" unicode="&#x435;" horiz-adv-x="1120" 
d="M926 100q-66 -53 -165.5 -89t-223.5 -36q-217 0 -327 118t-110 327q0 94 21.5 188t68.5 183t113 157.5t162.5 110t210.5 41.5q81 0 144.5 -21t103 -55.5t65.5 -82.5t36.5 -97.5t10.5 -104.5q0 -118 -45 -217h-747q-6 -50 -6 -96q0 -164 77.5 -247t243.5 -83
q196 0 354 129zM668 985q-154 0 -257.5 -101t-146.5 -257h621q20 41 20 121q0 107 -57 172t-180 65z" />
    <glyph glyph-name="uni0436" unicode="&#x436;" horiz-adv-x="1546" 
d="M600 0l111 549l-619 -549h-176v4l651 559l-409 508v4h147l408 -514l102 514h129l-102 -514l588 514h172v-4l-617 -524l428 -543v-4h-151l-422 547v6l-111 -553h-129z" />
    <glyph glyph-name="uni0437" unicode="&#x437;" horiz-adv-x="1030" 
d="M881 328q0 -166 -136.5 -259.5t-367.5 -93.5q-216 0 -361 103l50 123q117 -107 323 -107q161 0 257.5 60t96.5 180q0 55 -23 88.5t-86.5 52.5t-174.5 19h-185l23 112h178q174 0 254 59t80 152q0 162 -238 162q-186 0 -333 -102l-19 120q165 103 371 103q172 0 264 -66.5
t92 -193.5q0 -107 -66.5 -181.5t-189.5 -103.5q94 -23 142.5 -77.5t48.5 -149.5z" />
    <glyph glyph-name="uni0438" unicode="&#x438;" horiz-adv-x="1234" 
d="M809 0l176 879l-768 -879h-139l217 1075h131l-176 -878l768 878h139l-215 -1075h-133z" />
    <glyph glyph-name="uni0439" unicode="&#x439;" horiz-adv-x="1234" 
d="M496 1587l108 8q-10 -62 -10 -98q0 -168 162 -168q97 0 163.5 63.5t102.5 202.5l119 -8q-38 -178 -144 -266t-249 -88q-123 0 -194 65.5t-71 184.5q0 41 13 104zM809 0l176 879l-768 -879h-139l217 1075h131l-176 -878l768 878h139l-215 -1075h-133z" />
    <glyph glyph-name="uni043A" unicode="&#x43a;" horiz-adv-x="1071" 
d="M786 0l-462 543l-111 -543h-135l217 1075h135l-104 -514l620 514h184v-4l-655 -522l473 -545v-4h-162z" />
    <glyph glyph-name="uni043B" unicode="&#x43b;" horiz-adv-x="1181" 
d="M752 0l192 963h-317q-60 -178 -108.5 -308t-100 -245.5t-99 -190.5t-100.5 -130.5t-109.5 -80t-121.5 -24.5q-48 0 -78 10l22 121q27 -9 54 -9q135 0 251.5 216t294.5 753h570l-215 -1075h-135z" />
    <glyph glyph-name="uni043C" unicode="&#x43c;" horiz-adv-x="1480" 
d="M594 0l-201 942l-190 -942h-125l217 1075h188l187 -885l528 885h205l-215 -1075h-127l188 946l-567 -946h-88z" />
    <glyph glyph-name="uni043D" unicode="&#x43d;" horiz-adv-x="1212" 
d="M782 0l101 506h-568l-102 -506h-135l217 1075h135l-92 -454h569l90 454h136l-215 -1075h-136z" />
    <glyph glyph-name="uni043E" unicode="&#x43e;" horiz-adv-x="1179" 
d="M504 -25q-185 0 -294.5 114.5t-109.5 326.5q0 124 38.5 244t109.5 219t182.5 160t245.5 61q184 0 293.5 -114.5t109.5 -326.5q0 -99 -23.5 -196.5t-72 -185.5t-115.5 -155t-161.5 -107t-202.5 -40zM514 94q102 0 185.5 50t135 131.5t79.5 178.5t28 197q0 161 -72 245.5
t-204 84.5q-102 0 -185.5 -50t-135 -131.5t-79.5 -178.5t-28 -197q0 -161 72.5 -245.5t203.5 -84.5z" />
    <glyph glyph-name="uni043F" unicode="&#x43f;" horiz-adv-x="1198" 
d="M770 0l193 963h-557l-193 -963h-135l217 1075h825l-215 -1075h-135z" />
    <glyph glyph-name="uni0440" unicode="&#x440;" horiz-adv-x="1226" 
d="M557 -25q-207 0 -317 160l-117 -590h-135l307 1530h117l-33 -186q70 101 168.5 156t216.5 55q172 0 267 -116t95 -312q0 -105 -24.5 -206.5t-73.5 -190t-116.5 -156t-159 -106t-195.5 -38.5zM358 727l-92 -467q37 -75 111 -121.5t172 -46.5t182 47t139.5 125.5t87 181
t31.5 213.5q0 158 -68.5 238t-193.5 80q-115 0 -211.5 -64.5t-157.5 -185.5z" />
    <glyph glyph-name="uni0441" unicode="&#x441;" horiz-adv-x="1036" 
d="M866 100q-143 -125 -354 -125q-193 0 -302.5 112.5t-109.5 328.5q0 100 23.5 197t72.5 185.5t118 155.5t167 106.5t213 39.5q208 0 314 -125l-50 -119q-97 123 -274 123q-89 0 -164 -33t-126 -87.5t-87 -126.5t-52.5 -149t-16.5 -155q0 -164 76 -248t221 -84
q177 0 319 129z" />
    <glyph glyph-name="uni0442" unicode="&#x442;" horiz-adv-x="946" 
d="M989 963h-364l-193 -963h-135l192 963h-364l25 112h862z" />
    <glyph glyph-name="uni0443" unicode="&#x443;" horiz-adv-x="1052" 
d="M487 6q-82 -146 -138 -231t-113.5 -144t-111 -80.5t-122.5 -21.5q-80 0 -156 35l37 127q57 -37 129 -37q81 0 157 77.5t179 268.5l-188 1075h141l141 -930l496 930h154z" />
    <glyph glyph-name="uni0444" unicode="&#x444;" horiz-adv-x="1505" 
d="M1415 631q0 -160 -51.5 -283t-146 -201.5t-223 -119.5t-287.5 -43l-89 -439h-126l88 439q-214 6 -350 131t-136 329q0 159 51.5 282.5t146 202.5t223 120t286.5 43l100 495h127l-100 -495q214 -6 350.5 -131.5t136.5 -329.5zM229 449q0 -157 101.5 -255t271.5 -98
l176 883q-120 0 -219 -32.5t-173.5 -97t-115.5 -166.5t-41 -234zM1280 627q0 157 -102.5 254.5t-272.5 97.5l-176 -883q161 0 283 56.5t195 178t73 296.5z" />
    <glyph glyph-name="uni0445" unicode="&#x445;" horiz-adv-x="1019" 
d="M700 0l-208 446l-377 -446h-154v4l479 547l-250 520v4h140l202 -434l363 434h154v-4l-467 -532l258 -535v-4h-140z" />
    <glyph glyph-name="uni0446" unicode="&#x446;" horiz-adv-x="1263" 
d="M1118 113l-110 -545h-125l86 432h-891l217 1075h135l-192 -962h555l192 962h135l-192 -962h190z" />
    <glyph glyph-name="uni0447" unicode="&#x447;" horiz-adv-x="1124" 
d="M1047 1075l-216 -1075h-135l88 436q-142 -71 -311 -71q-152 0 -231.5 65t-79.5 188q0 36 10 91l74 366h135l-70 -348q-10 -55 -10 -88q0 -83 51.5 -119.5t167.5 -36.5q151 0 287 66l104 526h136z" />
    <glyph glyph-name="uni0448" unicode="&#x448;" horiz-adv-x="1724" 
d="M1645 1075l-215 -1075h-1352l217 1075h135l-192 -962h473l190 962h135l-190 -962h473l190 962h136z" />
    <glyph glyph-name="uni0449" unicode="&#x449;" horiz-adv-x="1787" 
d="M1645 113l-111 -545h-125l86 432h-1417l217 1075h135l-192 -962h473l190 962h135l-190 -962h473l190 962h136l-191 -962h191z" />
    <glyph glyph-name="uni044A" unicode="&#x44a;" horiz-adv-x="1269" 
d="M1161 377q0 -75 -24 -139.5t-75.5 -119.5t-145 -86.5t-220.5 -31.5h-417l196 963h-348l23 112h483l-84 -411h260q352 0 352 -287zM776 555h-250l-92 -444h275q86 0 149.5 22t99 60.5t52 83t16.5 96.5q0 94 -58.5 138t-191.5 44z" />
    <glyph glyph-name="uni044B" unicode="&#x44b;" horiz-adv-x="1503" 
d="M936 377q0 -75 -24 -139.5t-75.5 -119.5t-145 -86.5t-220.5 -31.5h-393l217 1075h135l-82 -411h236q352 0 352 -287zM1073 0l215 1075h135l-215 -1075h-135zM549 555h-223l-90 -444h247q86 0 149.5 22t99 60.5t52.5 83t17 96.5q0 94 -59.5 138t-192.5 44z" />
    <glyph glyph-name="uni044C" unicode="&#x44c;" horiz-adv-x="1081" 
d="M975 377q0 -75 -24 -139.5t-75.5 -119.5t-145 -86.5t-220.5 -31.5h-432l217 1075h135l-82 -411h273q354 0 354 -287zM588 555h-262l-90 -444h286q86 0 149.5 22t99 60.5t52.5 83t17 96.5q0 94 -59.5 138t-192.5 44z" />
    <glyph glyph-name="uni044D" unicode="&#x44d;" horiz-adv-x="1052" 
d="M952 641q0 -103 -21.5 -198.5t-68.5 -181t-116 -149t-170 -100.5t-224 -37q-109 0 -199.5 27.5t-144.5 77.5l47 121q47 -49 127.5 -77t175.5 -28q98 0 177.5 31t133.5 86.5t88.5 128t49.5 160.5h-539l23 114h526v25q0 175 -73.5 256.5t-221.5 81.5q-180 0 -305 -102
l-16 120q64 48 152.5 75.5t185.5 27.5q196 0 304.5 -113.5t108.5 -345.5z" />
    <glyph glyph-name="uni044E" unicode="&#x44e;" horiz-adv-x="1642" 
d="M1542 664q0 -99 -22.5 -197t-69.5 -186.5t-112.5 -156.5t-157.5 -108.5t-199 -40.5q-177 0 -283 113t-106 324q0 47 6 94h-283l-102 -506h-135l217 1075h135l-92 -454h280q24 98 70 182.5t111.5 152t156.5 106t197 38.5q177 0 283 -112.5t106 -323.5zM991 94
q79 0 147.5 33.5t116.5 89t82.5 128.5t51 152t16.5 158q0 160 -68.5 243t-193.5 83q-79 0 -147.5 -33.5t-116.5 -89t-82.5 -128.5t-51 -152t-16.5 -158q0 -161 68 -243.5t194 -82.5z" />
    <glyph glyph-name="uni044F" unicode="&#x44f;" horiz-adv-x="1148" 
d="M723 0l86 426h-299l-369 -426h-161v4l403 445q-85 30 -135.5 99.5t-50.5 170.5q0 152 106.5 254t292.5 102h475l-215 -1075h-133zM541 535h288l86 432h-311q-130 0 -201 -68t-71 -174q0 -93 56 -141.5t153 -48.5z" />
    <glyph glyph-name="uni0450" unicode="&#x450;" horiz-adv-x="1120" 
d="M750 1212l-252 412l133 49l194 -424zM926 100q-66 -53 -165.5 -89t-223.5 -36q-217 0 -327 118t-110 327q0 94 21.5 188t68.5 183t113 157.5t162.5 110t210.5 41.5q81 0 144.5 -21t103 -55.5t65.5 -82.5t36.5 -97.5t10.5 -104.5q0 -118 -45 -217h-747q-6 -50 -6 -96
q0 -164 77.5 -247t243.5 -83q196 0 354 129zM668 985q-154 0 -257.5 -101t-146.5 -257h621q20 41 20 121q0 107 -57 172t-180 65z" />
    <glyph glyph-name="uni0451" unicode="&#x451;" horiz-adv-x="1120" 
d="M846 1321l37 180h159l-36 -180h-160zM451 1321l34 180h160l-35 -180h-159zM926 100q-66 -53 -165.5 -89t-223.5 -36q-217 0 -327 118t-110 327q0 94 21.5 188t68.5 183t113 157.5t162.5 110t210.5 41.5q81 0 144.5 -21t103 -55.5t65.5 -82.5t36.5 -97.5t10.5 -104.5
q0 -118 -45 -217h-747q-6 -50 -6 -96q0 -164 77.5 -247t243.5 -83q196 0 354 129zM668 985q-154 0 -257.5 -101t-146.5 -257h621q20 41 20 121q0 107 -57 172t-180 65z" />
    <glyph glyph-name="uni0452" unicode="&#x452;" horiz-adv-x="1187" 
d="M901 -80q-77 -391 -385 -391q-96 0 -168 37l35 123q60 -39 139 -39q190 0 242 260l135 684q14 65 14 113q0 95 -46 138.5t-136 43.5q-116 0 -221.5 -67.5t-167.5 -188.5l-125 -633h-135l254 1262h-178l20 98h176l47 233h136l-48 -233h371l-20 -98h-371l-92 -455
q71 94 168.5 150.5t214.5 56.5q131 0 210 -72t79 -219q0 -55 -15 -129z" />
    <glyph glyph-name="uni0453" unicode="&#x453;" horiz-adv-x="890" 
d="M594 1212l-72 45l322 416l123 -76zM934 958h-528l-193 -958h-135l217 1075h661z" />
    <glyph glyph-name="uni0454" unicode="&#x454;" horiz-adv-x="1052" 
d="M864 82q-57 -45 -146.5 -76t-203.5 -31q-199 0 -306.5 113t-107.5 334q0 102 22 198t70 184t117 153.5t169 104t220 38.5q109 0 189.5 -29.5t126.5 -77.5l-49 -123q-102 109 -279 109q-90 0 -164 -29t-125.5 -80.5t-85.5 -114.5t-53 -139h528l-22 -114h-524
q-4 -46 -4 -70q0 -168 73.5 -252t227.5 -84q181 0 315 113z" />
    <glyph glyph-name="uni0455" unicode="&#x455;" horiz-adv-x="946" 
d="M25 100l45 119q139 -125 325 -125q127 0 200 56.5t73 144.5q0 28 -6.5 50t-23.5 40t-32 30t-46 25t-50 20t-59 21q-51 17 -83 30t-72 37t-63 50.5t-39 67.5t-16 92q0 152 114 247t292 95q182 0 301 -101l-47 -116q-113 98 -267 98q-123 0 -192.5 -59t-69.5 -144
q0 -32 12.5 -58.5t28.5 -43t51 -34.5t59.5 -27.5t74.5 -26.5q48 -17 80 -30.5t69.5 -37t60 -50.5t37.5 -68t15 -91q0 -149 -113 -242.5t-305 -93.5q-209 0 -354 125z" />
    <glyph glyph-name="uni0456" unicode="&#x456;" horiz-adv-x="516" 
d="M332 1321l35 180h165l-34 -180h-166zM82 0l217 1075h135l-217 -1075h-135z" />
    <glyph glyph-name="uni0457" unicode="&#x457;" horiz-adv-x="520" 
d="M500 1321l37 180h159l-37 -180h-159zM176 1321l35 180h160l-37 -180h-158zM84 0l217 1075h135l-217 -1075h-135z" />
    <glyph glyph-name="uni0458" unicode="&#x458;" horiz-adv-x="534" 
d="M354 1321l35 180h166l-35 -180h-166zM-328 -434l37 125q64 -37 139 -37q187 0 240 260l231 1161h136l-230 -1157q-76 -389 -385 -389q-96 0 -168 37z" />
    <glyph glyph-name="uni0459" unicode="&#x459;" horiz-adv-x="1705" 
d="M735 0l193 963h-301q-60 -178 -108.5 -308t-100 -245.5t-99 -190.5t-100.5 -130.5t-109.5 -80t-121.5 -24.5q-48 0 -78 10l22 121q27 -9 54 -9q135 0 251.5 216t294.5 753h553l-86 -436h254q346 0 346 -277q0 -72 -23.5 -134t-73.5 -114.5t-141.5 -83t-215.5 -30.5h-410z
M1221 530h-244l-84 -419h264q83 0 144.5 20.5t96 56.5t50.5 78.5t16 91.5q0 89 -56.5 130.5t-186.5 41.5z" />
    <glyph glyph-name="uni045A" unicode="&#x45a;" horiz-adv-x="1734" 
d="M764 0l104 526h-549l-106 -526h-135l217 1075h135l-88 -436h549l88 436h135l-86 -436h254q346 0 346 -277q0 -72 -23.5 -134t-73.5 -114.5t-141.5 -83t-215.5 -30.5h-410zM1249 530h-243l-84 -419h264q83 0 144.5 20.5t96 56.5t50.5 78.5t16 91.5q0 89 -57 130.5
t-187 41.5z" />
    <glyph glyph-name="uni045B" unicode="&#x45b;" horiz-adv-x="1187" 
d="M342 633l-125 -633h-135l254 1262h-178l20 98h176l47 233h136l-48 -233h371l-20 -98h-371l-92 -455q71 94 168.5 150.5t214.5 56.5q131 0 210 -72t79 -219q0 -55 -15 -129l-119 -594h-135l119 594q14 66 14 113q0 95 -46 138.5t-136 43.5q-116 0 -221.5 -67.5
t-167.5 -188.5z" />
    <glyph glyph-name="uni045C" unicode="&#x45c;" horiz-adv-x="1071" 
d="M606 1212l-71 45l321 416l123 -76zM786 0l-462 543l-111 -543h-135l217 1075h135l-104 -514l620 514h184v-4l-655 -522l473 -545v-4h-162z" />
    <glyph glyph-name="uni045D" unicode="&#x45d;" horiz-adv-x="1234" 
d="M788 1212l-251 412l133 49l194 -424zM809 0l176 879l-768 -879h-139l217 1075h131l-176 -878l768 878h139l-215 -1075h-133z" />
    <glyph glyph-name="uni045E" unicode="&#x45e;" horiz-adv-x="1052" 
d="M408 1587l108 8q-10 -62 -10 -98q0 -168 162 -168q97 0 163.5 63.5t102.5 202.5l119 -8q-38 -178 -144.5 -266t-249.5 -88q-123 0 -193.5 65.5t-70.5 184.5q0 41 13 104zM487 6q-81 -145 -137 -230t-113.5 -144t-111.5 -81t-123 -22q-80 0 -156 35l37 127q57 -37 129 -37
q81 0 157 77.5t179 268.5l-188 1075h141l141 -930l496 930h154z" />
    <glyph glyph-name="uni045F" unicode="&#x45f;" horiz-adv-x="1204" 
d="M911 0h-346l-90 -455h-127l90 455h-360l217 1075h135l-192 -962h563l190 962h135z" />
    <glyph glyph-name="uni0462" unicode="&#x462;" horiz-adv-x="1419" 
d="M1309 494q0 -79 -19 -149t-64 -134t-112.5 -110.5t-171 -73.5t-233.5 -27h-465l235 1178h-332l23 112h332l59 303h141l-61 -303h496l-23 -112h-496l-63 -324h295q229 0 344 -92.5t115 -267.5zM817 733h-287l-122 -608h319q117 0 204.5 30.5t137 83t73 114.5t23.5 134
q0 126 -83.5 186t-264.5 60z" />
    <glyph glyph-name="uni0463" unicode="&#x463;" horiz-adv-x="1130" 
d="M1018 369q0 -58 -14 -109.5t-47.5 -100t-85 -83t-131.5 -55.5t-181 -21h-414l193 969h-219l22 106h219l89 445h135l-88 -445h362l-20 -106h-363l-65 -320h260q179 0 263.5 -70.5t84.5 -209.5zM635 541h-246l-86 -430h268q161 0 236.5 73t75.5 181q0 91 -57.5 133.5
t-190.5 42.5z" />
    <glyph glyph-name="uni0472" unicode="&#x472;" horiz-adv-x="1533" 
d="M680 -29q-248 0 -387 156.5t-139 437.5q0 145 32 286t97.5 267t157.5 222t221.5 152t279.5 56q248 0 387 -156.5t139 -437.5q0 -145 -32 -286t-98 -267t-158 -222t-221.5 -152t-278.5 -56zM928 1421q-95 0 -180.5 -31.5t-151 -86t-119.5 -129.5t-90.5 -160t-58.5 -180
h991q6 55 6 110q0 236 -102 356.5t-295 120.5zM297 575q0 -236 102 -356.5t295 -120.5q122 0 226.5 50.5t178.5 138t124.5 195.5t76.5 231h-995q-8 -60 -8 -138z" />
    <glyph glyph-name="uni0473" unicode="&#x473;" horiz-adv-x="1179" 
d="M504 -25q-185 0 -294.5 114.5t-109.5 326.5q0 124 38.5 244t109.5 219t182.5 160t245.5 61q184 0 293.5 -114.5t109.5 -326.5q0 -99 -23.5 -196.5t-72 -185.5t-115.5 -155t-161.5 -107t-202.5 -40zM666 981q-156 0 -261.5 -105.5t-146.5 -273.5h686q2 23 2 68
q0 152 -74.5 231.5t-205.5 79.5zM233 406q0 -153 75 -232.5t206 -79.5q163 0 270.5 113.5t143.5 290.5h-690q-5 -78 -5 -92z" />
    <glyph glyph-name="uni0474" unicode="&#x474;" horiz-adv-x="1464" 
d="M1204 1085l-573 -1085h-137l-236 1520h141l193 -1340l459 897q77 151 139 244.5t120.5 143.5t110 66.5t121.5 16.5q110 0 166 -43l-41 -125q-54 41 -129 41q-93 0 -160 -66.5t-174 -269.5z" />
    <glyph glyph-name="uni0475" unicode="&#x475;" horiz-adv-x="1112" 
d="M889 778l-420 -778h-127l-182 1075h139l135 -915l318 610q56 109 101 175t88.5 100t81 44.5t91.5 10.5q74 0 117 -27l-37 -119q-36 25 -88 25q-63 0 -109.5 -43t-107.5 -158z" />
    <glyph glyph-name="uni0490" unicode="&#x490;" horiz-adv-x="1101" 
d="M1239 1395h-713l-278 -1395h-139l303 1520h727l106 376h121z" />
    <glyph glyph-name="uni0491" unicode="&#x491;" horiz-adv-x="890" 
d="M930 958h-524l-193 -958h-135l217 1075h536l107 377h113z" />
    <glyph glyph-name="uni0492" unicode="&#x492;" horiz-adv-x="1132" 
d="M864 743h-440l-148 -743h-139l148 743h-183l23 113h182l133 664h860l-24 -125h-721l-109 -539h441z" />
    <glyph glyph-name="uni0493" unicode="&#x493;" horiz-adv-x="921" 
d="M666 494h-324l-98 -494h-135l100 494h-158l21 100h157l97 481h661l-22 -117h-529l-74 -364h324z" />
    <glyph glyph-name="uni0496" unicode="&#x496;" horiz-adv-x="2000" 
d="M1868 125l-111 -557h-131l86 432h-96l-549 764l-152 -764h-135l154 770l-821 -770h-191v4l862 780l-546 732v4h151l547 -740l147 740h136l-148 -742l803 742h188v-4l-843 -750l467 -641h182z" />
    <glyph glyph-name="uni0497" unicode="&#x497;" horiz-adv-x="1624" 
d="M1507 113l-110 -545h-125l86 432h-96l-422 547v6l-111 -553h-129l111 549l-619 -549h-176v4l651 559l-409 508v4h147l408 -514l102 514h129l-102 -514l588 514h172v-4l-617 -524l342 -434h180z" />
    <glyph glyph-name="uni0498" unicode="&#x498;" horiz-adv-x="1241" 
d="M664 -225q0 -116 -77.5 -183t-195.5 -67q-94 0 -162 35l37 106q53 -31 125 -31q71 0 115.5 42t44.5 118q0 96 -74 176q-283 0 -454 144l53 135q149 -152 407 -152q215 0 346.5 98.5t131.5 272.5q0 128 -89 190t-309 62h-176l25 123h163q247 0 364.5 90.5t117.5 239.5
q0 124 -79 185.5t-226 61.5q-228 0 -430 -143l-23 129q207 141 469 141q205 0 317.5 -91t112.5 -267q0 -152 -86 -259.5t-266 -148.5q258 -65 258 -321q0 -201 -141.5 -331t-384.5 -155q43 -48 64.5 -94.5t21.5 -105.5z" />
    <glyph glyph-name="uni0499" unicode="&#x499;" horiz-adv-x="1030" 
d="M567 -225q0 -116 -77 -183t-195 -67q-94 0 -162 35l37 106q53 -31 125 -31q71 0 115.5 42t44.5 118q0 102 -78 180q-216 0 -361 103l50 123q117 -107 323 -107q161 0 257.5 60t96.5 180q0 55 -23 88.5t-86.5 52.5t-174.5 19h-185l23 112h178q174 0 254 59t80 152
q0 162 -238 162q-186 0 -333 -102l-19 120q165 103 371 103q172 0 264 -66.5t92 -193.5q0 -107 -66.5 -181.5t-189.5 -103.5q94 -23 142.5 -77.5t48.5 -149.5q0 -147 -107.5 -237t-296.5 -111q45 -50 67.5 -97t22.5 -108z" />
    <glyph glyph-name="uni049A" unicode="&#x49a;" horiz-adv-x="1394" 
d="M1262 125l-111 -557h-131l86 432h-92l-615 762l-151 -762h-139l303 1520h139l-148 -742l871 742h190v-4l-907 -750l524 -641h181z" />
    <glyph glyph-name="uni049B" unicode="&#x49b;" horiz-adv-x="1144" 
d="M1026 113l-111 -545h-124l86 432h-91l-462 543l-111 -543h-135l217 1075h135l-104 -514l620 514h184v-4l-655 -522l379 -436h172z" />
    <glyph glyph-name="uni04A0" unicode="&#x4a0;" horiz-adv-x="1540" 
d="M182 1395l25 125h579l-147 -742l870 742h191v-4l-907 -750l622 -762v-4h-166l-614 762l-152 -762h-139l279 1395h-441z" />
    <glyph glyph-name="uni04A1" unicode="&#x4a1;" horiz-adv-x="1275" 
d="M127 963l23 112h483l-105 -514l621 514h184v-4l-655 -522l473 -545v-4h-162l-463 543l-110 -543h-135l194 963h-348z" />
    <glyph glyph-name="uni04A2" unicode="&#x4a2;" horiz-adv-x="1556" 
d="M1163 -432l86 432h-211l148 743h-791l-147 -743h-139l303 1520h139l-131 -656h790l131 656h142l-279 -1395h201l-111 -557h-131z" />
    <glyph glyph-name="uni04A3" unicode="&#x4a3;" horiz-adv-x="1275" 
d="M897 -432l86 432h-201l101 506h-568l-102 -506h-135l217 1075h135l-92 -454h569l90 454h136l-193 -962h193l-111 -545h-125z" />
    <glyph glyph-name="uni04AA" unicode="&#x4aa;" horiz-adv-x="1366" 
d="M823 -225q0 -116 -77 -183t-195 -67q-94 0 -162 35l37 106q53 -31 125 -31q71 0 115.5 42t44.5 118q0 102 -78 180q-225 26 -352 180.5t-127 434.5q0 145 34 283.5t103.5 260.5t166.5 214.5t232 146t291 53.5q269 0 426 -157l-59 -138q-142 168 -383 168q-126 0 -235 -46
t-187 -125.5t-134 -185t-83 -224.5t-27 -244q0 -498 436 -498q257 0 469 193l13 -141q-197 -174 -476 -179q41 -49 61.5 -94t20.5 -102z" />
    <glyph glyph-name="uni04AB" unicode="&#x4ab;" horiz-adv-x="1036" 
d="M612 -225q0 -116 -77 -183t-195 -67q-94 0 -162 35l37 106q53 -31 125 -31q71 0 115.5 42t44.5 118q0 106 -86 189q-149 27 -231.5 136.5t-82.5 295.5q0 100 23.5 197t72.5 185.5t118 155.5t167 106.5t213 39.5q208 0 314 -125l-50 -119q-97 123 -274 123q-89 0 -164 -33
t-126 -87.5t-87 -126.5t-52.5 -149t-16.5 -155q0 -164 76 -248t221 -84q177 0 319 129l12 -125q-138 -120 -340 -125q43 -48 64.5 -94.5t21.5 -105.5z" />
    <glyph glyph-name="uni04AE" unicode="&#x4ae;" horiz-adv-x="1206" 
d="M1366 1520l-682 -932l-119 -588h-139l119 598l-316 922h146l262 -805l567 805h162z" />
    <glyph glyph-name="uni04AF" unicode="&#x4af;" horiz-adv-x="1056" 
d="M1100 1075l-604 -1026l-101 -504h-135l102 512l-196 1018h141l148 -882l491 882h154z" />
    <glyph glyph-name="uni04B0" unicode="&#x4b0;" horiz-adv-x="1206" 
d="M971 422h-322l-84 -422h-139l84 422h-317l22 113h317l13 63l-316 922h146l262 -805l567 805h162l-682 -932l-10 -53h319z" />
    <glyph glyph-name="uni04B1" unicode="&#x4b1;" horiz-adv-x="1056" 
d="M737 -160h-282l-60 -295h-135l59 295h-278l20 101h277l24 116l-196 1018h141l148 -882l491 882h154l-604 -1026l-23 -108h285z" />
    <glyph glyph-name="uni04B2" unicode="&#x4b2;" horiz-adv-x="1345" 
d="M1212 125l-110 -557h-131l86 432h-109l-286 668l-531 -668h-166l647 784l-323 736h147l271 -639l505 639h166l-620 -754l282 -641h172z" />
    <glyph glyph-name="uni04B3" unicode="&#x4b3;" horiz-adv-x="1062" 
d="M946 113l-110 -545h-125l86 432h-97l-208 446l-377 -446h-154v4l479 547l-250 520v4h140l202 -434l363 434h154v-4l-467 -532l204 -426h160z" />
    <glyph glyph-name="uni04B6" unicode="&#x4b6;" horiz-adv-x="1421" 
d="M1028 -432l86 432h-211l129 645q-179 -100 -395 -100q-198 0 -301 87t-103 249q0 50 13 120l104 519h139l-100 -506q-14 -75 -14 -119q0 -117 71 -171t226 -54q219 0 387 104l147 746h142l-279 -1395h201l-111 -557h-131z" />
    <glyph glyph-name="uni04B7" unicode="&#x4b7;" horiz-adv-x="1189" 
d="M809 -432l88 432h-201l88 436q-142 -71 -311 -71q-152 0 -231.5 65t-79.5 188q0 36 10 91l74 366h135l-70 -348q-10 -55 -10 -88q0 -83 51.5 -119.5t167.5 -36.5q151 0 287 66l104 526h136l-193 -962h190l-108 -545h-127z" />
    <glyph glyph-name="uni04BA" unicode="&#x4ba;" horiz-adv-x="1368" 
d="M393 725l-145 -725h-139l303 1520h139l-133 -660q186 115 413 115q191 0 291.5 -86.5t100.5 -245.5q0 -41 -15 -125l-102 -518h-141l102 506q14 79 14 123q0 115 -67.5 168t-216.5 53q-240 0 -404 -125z" />
    <glyph glyph-name="uni04BB" unicode="&#x4bb;" horiz-adv-x="1189" 
d="M356 715l-143 -715h-135l319 1593h135l-141 -704q69 96 165.5 153.5t213.5 57.5q128 0 206.5 -74t78.5 -221q0 -59 -15 -129l-135 -676h-135l135 676q15 69 15 115q0 184 -179 184q-116 0 -220 -69.5t-165 -190.5z" />
    <glyph glyph-name="uni04C0" unicode="&#x4c0;" horiz-adv-x="571" 
d="M109 0l303 1520h139l-303 -1520h-139z" />
    <glyph glyph-name="uni04C1" unicode="&#x4c1;" horiz-adv-x="1908" 
d="M866 1968l111 8q-6 -37 -6 -65q0 -164 207 -164q236 0 299 229l120 -8q-42 -166 -155 -242.5t-273 -76.5q-145 0 -228 63t-83 186q0 24 8 70zM780 0l154 770l-821 -770h-191v4l862 780l-546 732v4h151l547 -740l147 740h136l-148 -742l803 742h188v-4l-843 -750l555 -762
v-4h-158l-549 764l-152 -764h-135z" />
    <glyph glyph-name="uni04C2" unicode="&#x4c2;" horiz-adv-x="1546" 
d="M651 1587l109 8q-10 -62 -10 -98q0 -168 161 -168q198 0 267 266l118 -8q-38 -178 -144 -266t-249 -88q-123 0 -193.5 65.5t-70.5 184.5q0 45 12 104zM600 0l111 549l-619 -549h-176v4l651 559l-409 508v4h147l408 -514l102 514h129l-102 -514l588 514h172v-4l-617 -524
l428 -543v-4h-151l-422 547v6l-111 -553h-129z" />
    <glyph glyph-name="uni04CF" unicode="&#x4cf;" horiz-adv-x="524" 
d="M86 0l221 1100h135l-221 -1100h-135z" />
    <glyph glyph-name="uni04D0" unicode="&#x4d0;" horiz-adv-x="1368" 
d="M594 1968l111 8q-7 -44 -7 -65q0 -164 207 -164q236 0 299 229l121 -8q-42 -166 -155 -242.5t-273 -76.5q-145 0 -228 63t-83 186q0 24 8 70zM1059 0l-68 455h-635l-247 -455h-156l852 1520h151l246 -1520h-143zM420 573h553l-121 795z" />
    <glyph glyph-name="uni04D1" unicode="&#x4d1;" horiz-adv-x="1126" 
d="M446 1587l109 8q-10 -62 -10 -98q0 -168 162 -168q97 0 163.5 63.5t102.5 202.5l119 -8q-38 -178 -144.5 -266t-249.5 -88q-123 0 -193.5 65.5t-70.5 184.5q0 45 12 104zM725 0l31 174q-71 -94 -168.5 -146.5t-212.5 -52.5q-135 0 -219 72.5t-84 212.5q0 190 164.5 292.5
t478.5 102.5h123l8 39q12 56 12 101q0 96 -53 140t-168 44q-201 0 -358 -121l-11 127q71 53 175.5 84t213.5 31q166 0 250 -74t84 -219q0 -63 -12 -127l-137 -680h-117zM408 92q114 0 211.5 64.5t154.5 171.5l45 225h-121q-240 0 -364.5 -73.5t-124.5 -207.5
q0 -90 53.5 -135t145.5 -45z" />
    <glyph glyph-name="uni04D4" unicode="&#x4d4;" horiz-adv-x="1986" 
d="M840 0l102 512h-567l-381 -512h-162l1137 1520h1059l-27 -123h-744l-106 -533h664l-25 -121h-664l-122 -618h761l-24 -125h-901zM1118 1399h-86l-569 -768h502z" />
    <glyph glyph-name="uni04D5" unicode="&#x4d5;" horiz-adv-x="1820" 
d="M1626 100q-66 -53 -166 -89t-223 -36q-304 0 -393 238q-85 -111 -204 -174.5t-253 -63.5q-142 0 -228.5 71.5t-86.5 209.5q0 186 161.5 284.5t477.5 98.5h125l12 59q12 56 12 97q0 94 -54 139t-169 45q-201 0 -358 -121l-11 127q71 53 175.5 84t213.5 31q261 0 314 -207
q155 207 407 207q79 0 142 -21t103 -55.5t66.5 -82t37 -97.5t10.5 -105q0 -107 -41 -207h-750q-8 -47 -8 -104q0 -165 77 -248.5t242 -83.5q196 0 357 129zM1368 985q-153 0 -254.5 -98t-146.5 -252h622q17 56 17 115q0 105 -57.5 170t-180.5 65zM412 92q123 0 228 68
t169 186q-2 20 -2 64q0 65 10 127h-123q-241 0 -363 -68.5t-122 -200.5q0 -88 54 -132t149 -44z" />
    <glyph glyph-name="uni04D6" unicode="&#x4d6;" horiz-adv-x="1253" 
d="M569 1968l111 8q-6 -37 -6 -65q0 -164 207 -164q236 0 299 229l120 -8q-42 -166 -155 -242.5t-273 -76.5q-145 0 -228 63t-83 186q0 24 8 70zM1044 125l-26 -125h-909l303 1520h893l-25 -123h-754l-106 -533h674l-25 -121h-674l-123 -618h772z" />
    <glyph glyph-name="uni04D7" unicode="&#x4d7;" horiz-adv-x="1120" 
d="M457 1587l108 8q-10 -62 -10 -98q0 -168 162 -168q97 0 163.5 63.5t102.5 202.5l119 -8q-38 -178 -144 -266t-249 -88q-123 0 -194 65.5t-71 184.5q0 41 13 104zM926 100q-66 -53 -165.5 -89t-223.5 -36q-217 0 -327 118t-110 327q0 94 21.5 188t68.5 183t113 157.5
t162.5 110t210.5 41.5q81 0 144.5 -21t103 -55.5t65.5 -82.5t36.5 -97.5t10.5 -104.5q0 -118 -45 -217h-747q-6 -50 -6 -96q0 -164 77.5 -247t243.5 -83q196 0 354 129zM668 985q-154 0 -257.5 -101t-146.5 -257h621q20 41 20 121q0 107 -57 172t-180 65z" />
    <glyph glyph-name="uni04D8" unicode="&#x4d8;" horiz-adv-x="1464" 
d="M1399 936q0 -91 -12.5 -184t-41.5 -188.5t-71 -181.5t-105 -161.5t-140.5 -130.5t-180.5 -87t-221 -32q-137 0 -239 41.5t-160 113t-85.5 157t-27.5 184.5q0 87 18.5 175.5t46.5 148.5h1067q8 65 8 145q0 251 -105 368t-327 117q-285 0 -508 -178l-14 135
q98 78 242.5 124t298.5 46q280 0 418.5 -158.5t138.5 -453.5zM631 98q128 0 232.5 47t175.5 129.5t117 181t71 214.5h-942q-37 -79 -37 -207q0 -78 22 -143t67 -115.5t120 -78.5t174 -28z" />
    <glyph glyph-name="uni04D9" unicode="&#x4d9;" horiz-adv-x="1128" 
d="M1028 653q0 -92 -18.5 -184t-61.5 -182t-106 -158.5t-160 -111t-215 -42.5q-103 0 -179 31t-117 84t-60 113t-19 129q0 131 49 231h748q4 62 4 90q0 169 -71 247.5t-224 78.5q-203 0 -360 -121l-13 127q72 53 176 84t211 31q206 0 311 -116.5t105 -330.5zM471 92
q85 0 154.5 29.5t117 82t78.5 116t49 139.5h-626q-25 -52 -25 -129q0 -106 62 -172t190 -66z" />
    <glyph glyph-name="uni04E2" unicode="&#x4e2;" horiz-adv-x="1527" 
d="M653 1753l23 113h690l-23 -113h-690zM1065 0l260 1298l-1057 -1298h-159l303 1520h139l-260 -1299l1057 1299h159l-303 -1520h-139z" />
    <glyph glyph-name="uni04E3" unicode="&#x4e3;" horiz-adv-x="1234" 
d="M469 1356l23 114h610l-23 -114h-610zM809 0l176 879l-768 -879h-139l217 1075h131l-176 -878l768 878h139l-215 -1075h-133z" />
    <glyph glyph-name="uni04E6" unicode="&#x4e6;" horiz-adv-x="1533" 
d="M1118 1720l35 178h162l-35 -178h-162zM707 1720l36 178h162l-37 -178h-161zM680 -29q-248 0 -387 156.5t-139 437.5q0 145 32 286t97.5 267t157.5 222t221.5 152t279.5 56q248 0 387 -156.5t139 -437.5q0 -145 -32 -286t-98 -267t-158 -222t-221.5 -152t-278.5 -56z
M692 98q149 0 272 76.5t199.5 200t118 271t41.5 298.5q0 235 -101.5 356t-291.5 121q-149 0 -272 -76.5t-199.5 -200t-118 -271t-41.5 -298.5q0 -235 101.5 -356t291.5 -121z" />
    <glyph glyph-name="uni04E7" unicode="&#x4e7;" horiz-adv-x="1179" 
d="M856 1321l37 180h160l-37 -180h-160zM461 1321l35 180h159l-34 -180h-160zM504 -25q-185 0 -294.5 114.5t-109.5 326.5q0 124 38.5 244t109.5 219t182.5 160t245.5 61q184 0 293.5 -114.5t109.5 -326.5q0 -99 -23.5 -196.5t-72 -185.5t-115.5 -155t-161.5 -107
t-202.5 -40zM514 94q102 0 185.5 50t135 131.5t79.5 178.5t28 197q0 161 -72 245.5t-204 84.5q-102 0 -185.5 -50t-135 -131.5t-79.5 -178.5t-28 -197q0 -161 72.5 -245.5t203.5 -84.5z" />
    <glyph glyph-name="uni04E8" unicode="&#x4e8;" horiz-adv-x="1533" 
d="M680 -29q-248 0 -387 156.5t-139 437.5q0 145 32 286t97.5 267t157.5 222t221.5 152t279.5 56q248 0 387 -156.5t139 -437.5q0 -145 -32 -286t-98 -267t-158 -222t-221.5 -152t-278.5 -56zM928 1421q-95 0 -180.5 -31.5t-151 -86t-119.5 -129.5t-90.5 -160t-58.5 -180
h991q6 55 6 110q0 236 -102 356.5t-295 120.5zM297 575q0 -236 102 -356.5t295 -120.5q122 0 226.5 50.5t178.5 138t124.5 195.5t76.5 231h-995q-8 -60 -8 -138z" />
    <glyph glyph-name="uni04E9" unicode="&#x4e9;" horiz-adv-x="1179" 
d="M504 -25q-185 0 -294.5 114.5t-109.5 326.5q0 124 38.5 244t109.5 219t182.5 160t245.5 61q184 0 293.5 -114.5t109.5 -326.5q0 -99 -23.5 -196.5t-72 -185.5t-115.5 -155t-161.5 -107t-202.5 -40zM666 981q-156 0 -261.5 -105.5t-146.5 -273.5h686q2 23 2 68
q0 152 -74.5 231.5t-205.5 79.5zM233 406q0 -153 75 -232.5t206 -79.5q163 0 270.5 113.5t143.5 290.5h-690q-5 -78 -5 -92z" />
    <glyph glyph-name="uni04EE" unicode="&#x4ee;" horiz-adv-x="1257" 
d="M520 1753l23 113h690l-23 -113h-690zM754 451q-98 -155 -160 -241t-125 -144t-118.5 -76.5t-133.5 -18.5q-94 0 -156 29l29 129q59 -33 141 -33q88 0 151 53.5t177 229.5l-303 1141h145l250 -1010l617 1010h157z" />
    <glyph glyph-name="uni04EF" unicode="&#x4ef;" horiz-adv-x="1052" 
d="M381 1356l22 114h611l-23 -114h-610zM487 6q-81 -145 -137 -230t-113.5 -144t-111.5 -81t-123 -22q-80 0 -156 35l37 127q57 -37 129 -37q81 0 157 77.5t179 268.5l-188 1075h141l141 -930l496 930h154z" />
    <glyph glyph-name="uni04F2" unicode="&#x4f2;" horiz-adv-x="1257" 
d="M659 1638l-67 43l326 326l114 -82zM1038 1638l-67 43l327 326l115 -82zM754 451q-98 -155 -160 -241t-125 -144t-118.5 -76.5t-133.5 -18.5q-94 0 -156 29l29 129q59 -33 141 -33q88 0 151 53.5t177 229.5l-303 1141h145l250 -1010l617 1010h157z" />
    <glyph glyph-name="uni04F3" unicode="&#x4f3;" horiz-adv-x="1052" 
d="M479 1219l-65 43l313 411l115 -74zM827 1219l-65 43l313 411l117 -74zM487 6q-81 -145 -137 -230t-113.5 -144t-111.5 -81t-123 -22q-80 0 -156 35l37 127q57 -37 129 -37q81 0 157 77.5t179 268.5l-188 1075h141l141 -930l496 930h154z" />
    <glyph glyph-name="uni0E3F" unicode="&#xe3f;" horiz-adv-x="1396" 
d="M485 -201l41 201h-409l303 1520h409l39 196h101l-39 -196q395 -5 395 -336q0 -145 -76.5 -252.5t-249.5 -147.5q252 -67 252 -323q0 -70 -17.5 -133.5t-59.5 -124t-106 -105t-165.5 -71.5t-228.5 -27h-47l-41 -201h-101zM530 1401l-110 -561h272l113 561h-275zM1190 1171
q0 122 -71.5 176t-213.5 54l-112 -561h16q104 0 181.5 29.5t119 79t61 105t19.5 117.5zM397 725l-121 -606h273l121 606h-273zM791 725h-21l-121 -606h45q108 0 190.5 28.5t131.5 78t73.5 111t24.5 132.5q0 256 -323 256z" />
    <glyph glyph-name="Wgrave" unicode="&#x1e80;" horiz-adv-x="2086" 
d="M1343 1638l-346 301l136 68l282 -321zM1300 0l-108 1307l-633 -1307h-147l-146 1520h142l112 -1332l637 1332h150l104 -1332l647 1332h154l-764 -1520h-148z" />
    <glyph glyph-name="wgrave" unicode="&#x1e81;" horiz-adv-x="1626" 
d="M975 1212l-252 412l133 49l195 -424zM967 0l-88 901l-451 -901h-129l-121 1075h141l78 -903l437 903h143l88 -903l428 903h154l-551 -1075h-129z" />
    <glyph glyph-name="Wacute" unicode="&#x1e82;" horiz-adv-x="2086" 
d="M1163 1638l-63 54l383 315l114 -94zM1300 0l-108 1307l-633 -1307h-147l-146 1520h142l112 -1332l637 1332h150l104 -1332l647 1332h154l-764 -1520h-148z" />
    <glyph glyph-name="wacute" unicode="&#x1e83;" horiz-adv-x="1626" 
d="M883 1212l-72 45l322 416l122 -76zM967 0l-88 901l-451 -901h-129l-121 1075h141l78 -903l437 903h143l88 -903l428 903h154l-551 -1075h-129z" />
    <glyph glyph-name="Wdieresis" unicode="&#x1e84;" horiz-adv-x="2086" 
d="M1389 1720l34 178h162l-35 -178h-161zM977 1720l37 178h162l-37 -178h-162zM1300 0l-108 1307l-633 -1307h-147l-146 1520h142l112 -1332l637 1332h150l104 -1332l647 1332h154l-764 -1520h-148z" />
    <glyph glyph-name="wdieresis" unicode="&#x1e85;" horiz-adv-x="1626" 
d="M1071 1321l37 180h160l-37 -180h-160zM676 1321l35 180h159l-34 -180h-160zM967 0l-88 901l-451 -901h-129l-121 1075h141l78 -903l437 903h143l88 -903l428 903h154l-551 -1075h-129z" />
    <glyph glyph-name="uni1E9E" unicode="&#x1e9e;" horiz-adv-x="1519" 
d="M90 0l193 956q62 310 222 451t458 141q322 0 528 -141l-430 -567q62 -28 106.5 -53t88.5 -60t71.5 -74t44.5 -91.5t17 -115.5q0 -93 -33.5 -177.5t-97 -151.5t-167 -106.5t-233.5 -39.5q-220 0 -379 125l51 131q139 -129 342 -129q177 0 275 99t98 243q0 42 -10 78
t-24.5 63t-43.5 52.5t-54 43t-70 38.5t-77 34t-89 35l428 570q-134 67 -347 67q-238 0 -363 -111.5t-177 -373.5l-187 -936h-141z" />
    <glyph glyph-name="uni1EA0" unicode="&#x1ea0;" horiz-adv-x="1368" 
d="M1059 0l-68 455h-635l-247 -455h-156l852 1520h151l246 -1520h-143zM420 573h553l-121 795zM428 -356l35 178h168l-37 -178h-166z" />
    <glyph glyph-name="uni1EA1" unicode="&#x1ea1;" horiz-adv-x="1126" 
d="M725 0l31 174q-71 -94 -168.5 -146.5t-212.5 -52.5q-135 0 -219 72.5t-84 212.5q0 190 164.5 292.5t478.5 102.5h123l8 39q12 56 12 101q0 96 -53 140t-168 44q-201 0 -358 -121l-11 127q71 53 175.5 84t213.5 31q166 0 250 -74t84 -219q0 -59 -12 -127l-137 -680h-117z
M408 92q114 0 211.5 64.5t154.5 171.5l45 225h-121q-240 0 -364.5 -73.5t-124.5 -207.5q0 -90 53.5 -135t145.5 -45zM309 -356l35 178h168l-37 -178h-166z" />
    <glyph glyph-name="uni1EA2" unicode="&#x1ea2;" horiz-adv-x="1368" 
d="M905 1630l-59 68q127 61 182 106.5t55 112.5q0 90 -116 90q-108 0 -215 -70l-7 101q117 73 244 73q99 0 157 -43.5t58 -134.5q0 -55 -22 -100.5t-66.5 -82t-92.5 -63.5t-118 -57zM1059 0l-68 455h-635l-247 -455h-156l852 1520h151l246 -1520h-143zM420 573h553l-121 795
z" />
    <glyph glyph-name="uni1EA3" unicode="&#x1ea3;" horiz-adv-x="1126" 
d="M702 1212l-59 68q50 24 77.5 39t63 37.5t53.5 41.5t31 44.5t13 54.5q0 92 -121 92q-105 0 -211 -69l-6 100q115 74 241 74q98 0 155.5 -45.5t57.5 -135.5q0 -56 -21.5 -101t-65.5 -81t-90.5 -62t-117.5 -57zM725 0l31 174q-71 -94 -168.5 -146.5t-212.5 -52.5
q-135 0 -219 72.5t-84 212.5q0 190 164.5 292.5t478.5 102.5h123l8 39q12 56 12 101q0 96 -53 140t-168 44q-201 0 -358 -121l-11 127q71 53 175.5 84t213.5 31q166 0 250 -74t84 -219q0 -59 -12 -127l-137 -680h-117zM408 92q114 0 211.5 64.5t154.5 171.5l45 225h-121
q-240 0 -364.5 -73.5t-124.5 -207.5q0 -90 53.5 -135t145.5 -45z" />
    <glyph glyph-name="uni1EA4" unicode="&#x1ea4;" horiz-adv-x="1368" 
d="M1223 1921l-60 49l373 307l109 -88zM1233 1675l-117 -28l-166 247l-274 -247l-125 28l358 312h103zM1059 0l-68 455h-635l-247 -455h-156l852 1520h151l246 -1520h-143zM420 573h553l-121 795z" />
    <glyph glyph-name="uni1EA5" unicode="&#x1ea5;" horiz-adv-x="1126" 
d="M1049 1479l-70 41l303 393l115 -70zM999 1249l-108 -28l-133 290l-254 -290l-113 30l328 355h102zM725 0l31 174q-71 -94 -168.5 -146.5t-212.5 -52.5q-135 0 -219 72.5t-84 212.5q0 190 164.5 292.5t478.5 102.5h123l8 39q12 56 12 101q0 96 -53 140t-168 44
q-201 0 -358 -121l-11 127q71 53 175.5 84t213.5 31q166 0 250 -74t84 -219q0 -59 -12 -127l-137 -680h-117zM408 92q114 0 211.5 64.5t154.5 171.5l45 225h-121q-240 0 -364.5 -73.5t-124.5 -207.5q0 -90 53.5 -135t145.5 -45z" />
    <glyph glyph-name="uni1EA6" unicode="&#x1ea6;" horiz-adv-x="1368" 
d="M1327 1921l-336 295l123 61l279 -313zM1233 1675l-117 -28l-166 247l-274 -247l-125 28l358 312h103zM1059 0l-68 455h-635l-247 -455h-156l852 1520h151l246 -1520h-143zM420 573h553l-121 795z" />
    <glyph glyph-name="uni1EA7" unicode="&#x1ea7;" horiz-adv-x="1126" 
d="M1106 1479l-238 389l125 45l187 -400zM999 1249l-108 -28l-133 290l-254 -290l-113 30l328 355h102zM725 0l31 174q-71 -94 -168.5 -146.5t-212.5 -52.5q-135 0 -219 72.5t-84 212.5q0 190 164.5 292.5t478.5 102.5h123l8 39q12 56 12 101q0 96 -53 140t-168 44
q-201 0 -358 -121l-11 127q71 53 175.5 84t213.5 31q166 0 250 -74t84 -219q0 -59 -12 -127l-137 -680h-117zM408 92q114 0 211.5 64.5t154.5 171.5l45 225h-121q-240 0 -364.5 -73.5t-124.5 -207.5q0 -90 53.5 -135t145.5 -45z" />
    <glyph glyph-name="uni1EA8" unicode="&#x1ea8;" horiz-adv-x="1368" 
d="M1266 1880l-56 64q112 52 164.5 94t52.5 104q0 84 -106 84q-97 0 -197 -63l-6 94q111 67 223 67q91 0 144 -41.5t53 -125.5q0 -96 -69 -158.5t-203 -118.5zM1233 1675l-117 -28l-166 247l-274 -247l-125 28l358 312h103zM1059 0l-68 455h-635l-247 -455h-156l852 1520
h151l246 -1520h-143zM420 573h553l-121 795z" />
    <glyph glyph-name="uni1EA9" unicode="&#x1ea9;" horiz-adv-x="1126" 
d="M1059 1483l-55 63q112 52 164.5 94.5t52.5 104.5q0 84 -107 84q-95 0 -196 -64l-7 95q108 67 224 67q90 0 143 -42t53 -126q0 -50 -19.5 -91.5t-59 -74.5t-84 -58t-109.5 -52zM999 1249l-108 -28l-133 290l-254 -290l-113 30l328 355h102zM725 0l31 174
q-71 -94 -168.5 -146.5t-212.5 -52.5q-135 0 -219 72.5t-84 212.5q0 190 164.5 292.5t478.5 102.5h123l8 39q12 56 12 101q0 96 -53 140t-168 44q-201 0 -358 -121l-11 127q71 53 175.5 84t213.5 31q166 0 250 -74t84 -219q0 -59 -12 -127l-137 -680h-117zM408 92
q114 0 211.5 64.5t154.5 171.5l45 225h-121q-240 0 -364.5 -73.5t-124.5 -207.5q0 -90 53.5 -135t145.5 -45z" />
    <glyph glyph-name="uni1EAA" unicode="&#x1eaa;" horiz-adv-x="1368" 
d="M750 2054l-97 10q45 234 211 234q74 0 156 -70q40 -34 65.5 -49.5t53.5 -15.5q78 0 106 147l96 -10q-21 -114 -73.5 -175t-134.5 -61q-78 0 -158 70q-27 24 -41.5 36t-36 22t-41.5 10q-78 0 -106 -148zM1233 1675l-117 -28l-166 247l-274 -247l-125 28l358 312h103z
M1059 0l-68 455h-635l-247 -455h-156l852 1520h151l246 -1520h-143zM420 573h553l-121 795z" />
    <glyph glyph-name="uni1EAB" unicode="&#x1eab;" horiz-adv-x="1126" 
d="M567 1675l-96 8q45 236 205 236q76 0 155 -70q37 -34 61.5 -49.5t51.5 -15.5q77 0 105 145l96 -8q-45 -235 -205 -235q-76 0 -154 69q-26 23 -39 34t-34.5 21.5t-40.5 10.5q-77 0 -105 -146zM999 1249l-108 -28l-133 290l-254 -290l-113 30l328 355h102zM725 0l31 174
q-71 -94 -168.5 -146.5t-212.5 -52.5q-135 0 -219 72.5t-84 212.5q0 190 164.5 292.5t478.5 102.5h123l8 39q12 56 12 101q0 96 -53 140t-168 44q-201 0 -358 -121l-11 127q71 53 175.5 84t213.5 31q166 0 250 -74t84 -219q0 -59 -12 -127l-137 -680h-117zM408 92
q114 0 211.5 64.5t154.5 171.5l45 225h-121q-240 0 -364.5 -73.5t-124.5 -207.5q0 -90 53.5 -135t145.5 -45z" />
    <glyph glyph-name="uni1EAC" unicode="&#x1eac;" horiz-adv-x="1368" 
d="M1233 1675l-117 -28l-166 247l-274 -247l-125 28l358 312h103zM1059 0l-68 455h-635l-247 -455h-156l852 1520h151l246 -1520h-143zM420 573h553l-121 795zM428 -356l35 178h168l-37 -178h-166z" />
    <glyph glyph-name="uni1EAD" unicode="&#x1ead;" horiz-adv-x="1126" 
d="M1012 1249l-111 -28l-133 340l-274 -340l-115 30l350 406h102zM725 0l31 174q-71 -94 -168.5 -146.5t-212.5 -52.5q-135 0 -219 72.5t-84 212.5q0 190 164.5 292.5t478.5 102.5h123l8 39q12 56 12 101q0 96 -53 140t-168 44q-201 0 -358 -121l-11 127q71 53 175.5 84
t213.5 31q166 0 250 -74t84 -219q0 -59 -12 -127l-137 -680h-117zM408 92q114 0 211.5 64.5t154.5 171.5l45 225h-121q-240 0 -364.5 -73.5t-124.5 -207.5q0 -90 53.5 -135t145.5 -45zM309 -356l35 178h168l-37 -178h-166z" />
    <glyph glyph-name="uni1EAE" unicode="&#x1eae;" horiz-adv-x="1368" 
d="M899 1970l-59 49l370 308l111 -89zM635 1937l100 9q-9 -97 35.5 -146t136.5 -49q192 0 254 195l111 -9q-44 -144 -142 -216t-229 -72q-127 0 -197.5 64.5t-70.5 184.5q0 23 2 39zM1059 0l-68 455h-635l-247 -455h-156l852 1520h151l246 -1520h-143zM420 573h553l-121 795
z" />
    <glyph glyph-name="uni1EAF" unicode="&#x1eaf;" horiz-adv-x="1126" 
d="M737 1528l-69 41l303 393l114 -70zM444 1540l99 8q-8 -104 34 -158.5t132 -54.5q86 0 152.5 52t103.5 161l108 -8q-46 -152 -144.5 -229.5t-228.5 -77.5q-121 0 -189.5 69t-68.5 195q0 25 2 43zM725 0l31 174q-71 -94 -168.5 -146.5t-212.5 -52.5q-135 0 -219 72.5
t-84 212.5q0 190 164.5 292.5t478.5 102.5h123l8 39q12 56 12 101q0 96 -53 140t-168 44q-201 0 -358 -121l-11 127q71 53 175.5 84t213.5 31q166 0 250 -74t84 -219q0 -59 -12 -127l-137 -680h-117zM408 92q114 0 211.5 64.5t154.5 171.5l45 225h-121q-240 0 -364.5 -73.5
t-124.5 -207.5q0 -90 53.5 -135t145.5 -45z" />
    <glyph glyph-name="uni1EB0" unicode="&#x1eb0;" horiz-adv-x="1368" 
d="M999 1970l-337 295l124 62l279 -314zM635 1937l100 9q-18 -195 172 -195q192 0 254 195l111 -9q-44 -144 -142 -216t-229 -72q-127 0 -197.5 64.5t-70.5 184.5q0 23 2 39zM1059 0l-68 455h-635l-247 -455h-156l852 1520h151l246 -1520h-143zM420 573h553l-121 795z" />
    <glyph glyph-name="uni1EB1" unicode="&#x1eb1;" horiz-adv-x="1126" 
d="M766 1528l-238 389l125 45l185 -399zM444 1540l99 8q-8 -103 34.5 -158t131.5 -55q86 0 152.5 52t103.5 161l108 -8q-46 -152 -144.5 -229.5t-228.5 -77.5q-121 0 -189.5 69t-68.5 195q0 25 2 43zM725 0l31 174q-71 -94 -168.5 -146.5t-212.5 -52.5q-135 0 -219 72.5
t-84 212.5q0 190 164.5 292.5t478.5 102.5h123l8 39q12 56 12 101q0 96 -53 140t-168 44q-201 0 -358 -121l-11 127q71 53 175.5 84t213.5 31q166 0 250 -74t84 -219q0 -59 -12 -127l-137 -680h-117zM408 92q114 0 211.5 64.5t154.5 171.5l45 225h-121q-240 0 -364.5 -73.5
t-124.5 -207.5q0 -90 53.5 -135t145.5 -45z" />
    <glyph glyph-name="uni1EB2" unicode="&#x1eb2;" horiz-adv-x="1368" 
d="M938 1929l-55 64q113 51 165 93.5t52 104.5q0 84 -107 84q-94 0 -194 -63l-6 94q109 68 221 68q91 0 143.5 -41.5t52.5 -126.5q0 -96 -69 -158.5t-203 -118.5zM635 1937l100 9q-9 -97 35.5 -146t136.5 -49q192 0 254 195l111 -9q-44 -144 -142 -216t-229 -72
q-127 0 -197.5 64.5t-70.5 184.5q0 23 2 39zM1059 0l-68 455h-635l-247 -455h-156l852 1520h151l246 -1520h-143zM420 573h553l-121 795z" />
    <glyph glyph-name="uni1EB3" unicode="&#x1eb3;" horiz-adv-x="1126" 
d="M745 1532l-55 63q112 52 164.5 94.5t52.5 104.5q0 84 -106 84q-97 0 -197 -63l-6 94q108 67 221 67q92 0 145.5 -41.5t53.5 -126.5q0 -50 -19.5 -91.5t-59.5 -74.5t-84.5 -57.5t-109.5 -52.5zM444 1540l99 8q-8 -103 34.5 -158t131.5 -55q86 0 152.5 52t103.5 161l108 -8
q-46 -152 -144.5 -229.5t-228.5 -77.5q-122 0 -190 69t-68 195q0 25 2 43zM725 0l31 174q-71 -94 -168.5 -146.5t-212.5 -52.5q-135 0 -219 72.5t-84 212.5q0 190 164.5 292.5t478.5 102.5h123l8 39q12 56 12 101q0 96 -53 140t-168 44q-201 0 -358 -121l-11 127
q71 53 175.5 84t213.5 31q166 0 250 -74t84 -219q0 -59 -12 -127l-137 -680h-117zM408 92q114 0 211.5 64.5t154.5 171.5l45 225h-121q-240 0 -364.5 -73.5t-124.5 -207.5q0 -90 53.5 -135t145.5 -45z" />
    <glyph glyph-name="uni1EB4" unicode="&#x1eb4;" horiz-adv-x="1368" 
d="M754 2054l-97 10q20 114 73 174t136 60q44 0 79.5 -16.5t78.5 -53.5q40 -34 65.5 -49.5t53.5 -15.5q78 0 106 147l97 -10q-46 -236 -211 -236q-74 0 -156 70q-30 26 -44 37t-35 21t-40 10q-78 0 -106 -148zM635 1937l100 9q-17 -195 172 -195q192 0 254 195l111 -9
q-44 -144 -142 -216t-229 -72q-127 0 -197.5 64.5t-70.5 184.5q0 23 2 39zM1059 0l-68 455h-635l-247 -455h-156l852 1520h151l246 -1520h-143zM420 573h553l-121 795z" />
    <glyph glyph-name="uni1EB5" unicode="&#x1eb5;" horiz-adv-x="1126" 
d="M567 1675l-96 8q45 236 205 236q77 0 155 -70q26 -24 39.5 -34.5t34 -20.5t39.5 -10q77 0 105 145l96 -8q-45 -235 -205 -235q-79 0 -154 69q-24 21 -38.5 32.5t-36 22.5t-39.5 11q-77 0 -105 -146zM444 1540l99 8q-8 -102 33.5 -157.5t132.5 -55.5q86 0 152.5 52
t103.5 161l108 -8q-46 -152 -144.5 -229.5t-228.5 -77.5q-122 0 -190 68.5t-68 195.5q0 25 2 43zM725 0l31 174q-71 -94 -168.5 -146.5t-212.5 -52.5q-135 0 -219 72.5t-84 212.5q0 190 164.5 292.5t478.5 102.5h123l8 39q12 56 12 101q0 96 -53 140t-168 44
q-201 0 -358 -121l-11 127q71 53 175.5 84t213.5 31q166 0 250 -74t84 -219q0 -63 -12 -127l-137 -680h-117zM408 92q114 0 211.5 64.5t154.5 171.5l45 225h-121q-240 0 -364.5 -73.5t-124.5 -207.5q0 -90 53.5 -135t145.5 -45z" />
    <glyph glyph-name="uni1EB6" unicode="&#x1eb6;" horiz-adv-x="1368" 
d="M639 1968l100 8q-4 -23 -4 -59q0 -160 172 -160q204 0 262 219l111 -8q-40 -159 -140.5 -239t-238.5 -80q-126 0 -196 64.5t-70 184.5q0 43 4 70zM1059 0l-68 455h-635l-247 -455h-156l852 1520h151l246 -1520h-143zM420 573h553l-121 795zM428 -356l35 178h168l-37 -178
h-166z" />
    <glyph glyph-name="uni1EB7" unicode="&#x1eb7;" horiz-adv-x="1126" 
d="M449 1587l98 8q-6 -37 -6 -77q0 -92 44.5 -135.5t123.5 -43.5q205 0 268 256l110 -8q-42 -175 -144 -264.5t-243 -89.5q-123 0 -191.5 69t-68.5 199q0 39 9 86zM725 0l31 174q-71 -94 -168.5 -146.5t-212.5 -52.5q-135 0 -219 72.5t-84 212.5q0 190 164.5 292.5
t478.5 102.5h123l8 39q12 56 12 101q0 96 -53 140t-168 44q-201 0 -358 -121l-11 127q71 53 175.5 84t213.5 31q166 0 250 -74t84 -219q0 -59 -12 -127l-137 -680h-117zM408 92q114 0 211.5 64.5t154.5 171.5l45 225h-121q-240 0 -364.5 -73.5t-124.5 -207.5
q0 -90 53.5 -135t145.5 -45zM309 -356l35 178h168l-37 -178h-166z" />
    <glyph glyph-name="uni1EB8" unicode="&#x1eb8;" horiz-adv-x="1253" 
d="M1044 125l-26 -125h-909l303 1520h893l-25 -123h-754l-106 -533h674l-25 -121h-674l-123 -618h772zM403 -356l35 178h168l-37 -178h-166z" />
    <glyph glyph-name="uni1EB9" unicode="&#x1eb9;" horiz-adv-x="1120" 
d="M926 100q-66 -53 -165.5 -89t-223.5 -36q-217 0 -327 118t-110 327q0 94 21.5 188t68.5 183t113 157.5t162.5 110t210.5 41.5q81 0 144.5 -21t103 -55.5t65.5 -82.5t36.5 -97.5t10.5 -104.5q0 -118 -45 -217h-747q-6 -50 -6 -96q0 -164 77.5 -247t243.5 -83
q196 0 354 129zM668 985q-154 0 -257.5 -101t-146.5 -257h621q20 41 20 121q0 107 -57 172t-180 65zM324 -356l34 178h168l-37 -178h-165z" />
    <glyph glyph-name="uni1EBA" unicode="&#x1eba;" horiz-adv-x="1253" 
d="M864 1630l-59 68q127 61 182 106.5t55 112.5q0 90 -116 90q-108 0 -215 -70l-6 101q117 73 243 73q99 0 157 -43.5t58 -134.5q0 -55 -22 -100.5t-66.5 -82t-92.5 -63.5t-118 -57zM1044 125l-26 -125h-909l303 1520h893l-25 -123h-754l-106 -533h674l-25 -121h-674
l-123 -618h772z" />
    <glyph glyph-name="uni1EBB" unicode="&#x1ebb;" horiz-adv-x="1120" 
d="M717 1212l-60 68q50 24 77.5 39t63 37.5t53.5 41.5t31 44.5t13 54.5q0 92 -121 92q-105 0 -211 -69l-6 100q115 74 242 74q98 0 155.5 -45.5t57.5 -135.5q0 -56 -21.5 -101t-65.5 -81t-90.5 -62t-117.5 -57zM926 100q-66 -53 -165.5 -89t-223.5 -36q-217 0 -327 118
t-110 327q0 94 21.5 188t68.5 183t113 157.5t162.5 110t210.5 41.5q81 0 144.5 -21t103 -55.5t65.5 -82.5t36.5 -97.5t10.5 -104.5q0 -118 -45 -217h-747q-6 -50 -6 -96q0 -164 77.5 -247t243.5 -83q196 0 354 129zM668 985q-154 0 -257.5 -101t-146.5 -257h621
q20 41 20 121q0 107 -57 172t-180 65z" />
    <glyph glyph-name="uni1EBC" unicode="&#x1ebc;" horiz-adv-x="1253" 
d="M602 1659l-98 10q53 275 237 275q87 0 185 -84q32 -26 49.5 -39.5t44 -26t49.5 -12.5q96 0 135 176l99 -8q-26 -135 -86.5 -206t-151.5 -71q-86 0 -184 84q-88 78 -144 78q-97 0 -135 -176zM1044 125l-26 -125h-909l303 1520h893l-25 -123h-754l-106 -533h674l-25 -121
h-674l-123 -618h772z" />
    <glyph glyph-name="uni1EBD" unicode="&#x1ebd;" horiz-adv-x="1120" 
d="M459 1262l-99 10q26 134 84 204t144 70q85 0 176 -84q29 -27 45.5 -40t41 -25.5t46.5 -12.5q92 0 127 177l100 -11q-54 -274 -229 -274q-85 0 -176 84q-82 78 -133 78q-92 0 -127 -176zM926 100q-66 -53 -165.5 -89t-223.5 -36q-217 0 -327 118t-110 327q0 94 21.5 188
t68.5 183t113 157.5t162.5 110t210.5 41.5q81 0 144.5 -21t103 -55.5t65.5 -82.5t36.5 -97.5t10.5 -104.5q0 -118 -45 -217h-747q-6 -50 -6 -96q0 -164 77.5 -247t243.5 -83q196 0 354 129zM668 985q-154 0 -257.5 -101t-146.5 -257h621q20 41 20 121q0 107 -57 172t-180 65
z" />
    <glyph glyph-name="uni1EBE" unicode="&#x1ebe;" horiz-adv-x="1253" 
d="M1198 1921l-59 49l372 307l109 -88zM1208 1675l-116 -28l-166 247l-275 -247l-125 28l359 312h102zM1044 125l-26 -125h-909l303 1520h893l-25 -123h-754l-106 -533h674l-25 -121h-674l-123 -618h772z" />
    <glyph glyph-name="uni1EBF" unicode="&#x1ebf;" horiz-adv-x="1120" 
d="M1063 1479l-70 41l303 393l115 -70zM1014 1249l-109 -28l-133 290l-254 -290l-112 30l327 355h103zM926 100q-66 -53 -165.5 -89t-223.5 -36q-217 0 -327 118t-110 327q0 94 21.5 188t68.5 183t113 157.5t162.5 110t210.5 41.5q81 0 144.5 -21t103 -55.5t65.5 -82.5
t36.5 -97.5t10.5 -104.5q0 -118 -45 -217h-747q-6 -50 -6 -96q0 -164 77.5 -247t243.5 -83q196 0 354 129zM668 985q-154 0 -257.5 -101t-146.5 -257h621q20 41 20 121q0 107 -57 172t-180 65z" />
    <glyph glyph-name="uni1EC0" unicode="&#x1ec0;" horiz-adv-x="1253" 
d="M1303 1921l-336 295l123 61l278 -313zM1208 1675l-116 -28l-166 247l-275 -247l-125 28l359 312h102zM1044 125l-26 -125h-909l303 1520h893l-25 -123h-754l-106 -533h674l-25 -121h-674l-123 -618h772z" />
    <glyph glyph-name="uni1EC1" unicode="&#x1ec1;" horiz-adv-x="1120" 
d="M1120 1479l-237 389l125 45l186 -400zM1014 1249l-109 -28l-133 290l-254 -290l-112 30l327 355h103zM926 100q-66 -53 -165.5 -89t-223.5 -36q-217 0 -327 118t-110 327q0 94 21.5 188t68.5 183t113 157.5t162.5 110t210.5 41.5q81 0 144.5 -21t103 -55.5t65.5 -82.5
t36.5 -97.5t10.5 -104.5q0 -118 -45 -217h-747q-6 -50 -6 -96q0 -164 77.5 -247t243.5 -83q196 0 354 129zM668 985q-154 0 -257.5 -101t-146.5 -257h621q20 41 20 121q0 107 -57 172t-180 65z" />
    <glyph glyph-name="uni1EC2" unicode="&#x1ec2;" horiz-adv-x="1253" 
d="M1241 1880l-55 64q112 52 164.5 94t52.5 104q0 84 -107 84q-96 0 -196 -63l-6 94q111 67 223 67q91 0 143.5 -41.5t52.5 -125.5q0 -96 -69 -158.5t-203 -118.5zM1208 1675l-116 -28l-166 247l-275 -247l-125 28l359 312h102zM1044 125l-26 -125h-909l303 1520h893
l-25 -123h-754l-106 -533h674l-25 -121h-674l-123 -618h772z" />
    <glyph glyph-name="uni1EC3" unicode="&#x1ec3;" horiz-adv-x="1120" 
d="M1073 1483l-55 63q112 52 164.5 94.5t52.5 104.5q0 84 -107 84q-95 0 -196 -64l-6 95q108 67 223 67q91 0 144 -42t53 -126q0 -50 -19.5 -91.5t-59.5 -74.5t-84.5 -57.5t-109.5 -52.5zM1014 1249l-109 -28l-133 290l-254 -290l-112 30l327 355h103zM926 100
q-66 -53 -165.5 -89t-223.5 -36q-217 0 -327 118t-110 327q0 94 21.5 188t68.5 183t113 157.5t162.5 110t210.5 41.5q81 0 144.5 -21t103 -55.5t65.5 -82.5t36.5 -97.5t10.5 -104.5q0 -118 -45 -217h-747q-6 -50 -6 -96q0 -164 77.5 -247t243.5 -83q196 0 354 129zM668 985
q-154 0 -257.5 -101t-146.5 -257h621q20 41 20 121q0 107 -57 172t-180 65z" />
    </font>
</defs>
</svg>
