<?xml version="1.0" standalone="no"?>
<!DOCTYPE svg PUBLIC "-//W3C//DTD SVG 1.1//EN" "http://www.w3.org/Graphics/SVG/1.1/DTD/svg11.dtd" >
<svg xmlns="http://www.w3.org/2000/svg" xmlns:xlink="http://www.w3.org/1999/xlink" version="1.1">
<metadata>
Created by FontForge 20170731 at Tue Jul 21 14:26:19 2020
 By Aleksey,,,
Copyright (c) 2018 by Morisawa In.. All rights reserved.
</metadata>
<defs>
<font id="ClarimoUDPE-RegularItalic" horiz-adv-x="1290" >
  <font-face 
    font-family="Clarimo UD PE"
    font-weight="400"
    font-style="italic"
    font-stretch="normal"
    units-per-em="2048"
    panose-1="2 11 5 0 0 0 0 0 0 0"
    ascent="1593"
    descent="-455"
    x-height="1085"
    cap-height="1520"
    bbox="-561 -553 2736 2388"
    underline-thickness="102"
    underline-position="-409"
    slope="-11.31"
    unicode-range="U+0020-FB04"
  />
<missing-glyph horiz-adv-x="1024" 
d="M0 0v1434h1024v-1434h-1024zM512 809l348 522h-696zM573 717l349 -522v1044zM164 102h696l-348 523zM102 1239v-1044l349 522z" />
    <glyph glyph-name=".notdef" horiz-adv-x="1024" 
d="M0 0v1434h1024v-1434h-1024zM512 809l348 522h-696zM573 717l349 -522v1044zM164 102h696l-348 523zM102 1239v-1044l349 522z" />
    <glyph glyph-name=".null" horiz-adv-x="0" 
 />
    <glyph glyph-name="nonmarkingreturn" horiz-adv-x="682" 
 />
    <glyph glyph-name="space" unicode=" " horiz-adv-x="532" 
 />
    <glyph glyph-name="space" unicode="&#xa0;" horiz-adv-x="532" 
 />
    <glyph glyph-name="exclam" unicode="!" horiz-adv-x="737" 
d="M268 422l181 1094l2 4h223v-4l-258 -1094h-148zM147 0l50 242h221l-49 -242h-222z" />
    <glyph glyph-name="quotedbl" unicode="&#x22;" horiz-adv-x="958" 
d="M676 991l115 598l2 4h219v-4l-205 -598h-131zM258 991l115 598l2 4h219v-4l-205 -598h-131z" />
    <glyph glyph-name="numbersign" unicode="#" horiz-adv-x="1392" 
d="M649 0l146 434h-324l-145 -434h-146l146 434h-267l29 137h283l125 377h-267l29 137h283l145 435h145l-145 -435h324l145 435h145l-145 -435h266l-28 -137h-283l-125 -377h266l-28 -137h-283l-145 -434h-146zM516 571h324l125 377h-324z" />
    <glyph glyph-name="dollar" unicode="$" 
d="M1130 455q0 -191 -135.5 -315.5t-386.5 -137.5l-41 -203h-135l41 203q-233 16 -426 162l59 162q177 -140 400 -160l106 532q-64 22 -107.5 40t-95 49.5t-82.5 68t-52 91.5t-21 122q0 90 34 168.5t98 139.5t164.5 98.5t225.5 42.5l39 198h135l-41 -200q194 -18 340 -130
l-59 -161q-145 110 -311 129l-105 -520q68 -24 115 -44.5t96 -53t78.5 -69.5t48 -91t18.5 -121zM434 1083q0 -43 14 -75.5t44.5 -56t65 -39.5t89.5 -35l96 479q-153 -13 -231 -91t-78 -182zM950 442q0 81 -48.5 126t-164.5 87l-96 -491q152 14 230.5 91.5t78.5 186.5z" />
    <glyph glyph-name="percent" unicode="%" horiz-adv-x="1970" 
d="M461 618q-138 0 -211.5 82t-73.5 240q0 45 5.5 95.5t19.5 110t35.5 115t56 107.5t77.5 90.5t104.5 62t133.5 23.5q137 0 211 -81.5t74 -239.5q0 -45 -5.5 -95.5t-19.5 -110.5t-35.5 -115t-56 -107.5t-77.5 -91t-104.5 -62t-133.5 -23.5zM270 0l1332 1520h184l-1331 -1520
h-185zM465 754q88 0 152 78.5t94 230.5q18 91 18 170q0 176 -125 176q-88 0 -152 -78.5t-94 -230.5q-18 -91 -18 -170q0 -176 125 -176zM1448 -20q-138 0 -211.5 81.5t-73.5 239.5q0 45 5.5 95.5t19.5 110t35.5 115t56 107.5t77.5 90.5t104.5 62t133.5 23.5q137 0 211 -81.5
t74 -239.5q0 -45 -5.5 -95.5t-19.5 -110t-35.5 -115t-56 -107.5t-77.5 -90.5t-104.5 -62t-133.5 -23.5zM1452 115q88 0 152 78.5t94 230.5q18 91 18 170q0 176 -125 176q-87 0 -151 -78.5t-94 -230.5q-19 -97 -19 -170q0 -176 125 -176z" />
    <glyph glyph-name="ampersand" unicode="&#x26;" horiz-adv-x="1421" 
d="M1104 0l-139 184q-206 -213 -482 -213q-187 0 -300 98t-113 269q0 316 415 489q-68 95 -102.5 176t-34.5 171q0 165 112.5 269.5t297.5 104.5q164 0 260 -85.5t96 -231.5q0 -148 -100.5 -254t-286.5 -184l258 -344q82 119 189 395l147 -123q-118 -230 -244 -397l244 -324
h-217zM532 1171q0 -62 27.5 -124.5t93.5 -155.5q137 59 207 144t70 182q0 83 -47.5 127.5t-128.5 44.5q-98 0 -160 -59.5t-62 -158.5zM266 371q0 -111 67 -171.5t187 -60.5q197 0 352 168l-315 422q-291 -126 -291 -358z" />
    <glyph glyph-name="quotesingle" unicode="'" horiz-adv-x="540" 
d="M258 991l115 598l2 4h219v-4l-205 -598h-131z" />
    <glyph glyph-name="parenleft" unicode="(" horiz-adv-x="872" 
d="M514 -385q-53 51 -96 102.5t-92 130t-82.5 162.5t-55.5 197t-22 237q0 391 199 709t532 489l76 -116q-136 -77 -250 -187.5t-199.5 -248t-133.5 -306t-48 -350.5q0 -236 74.5 -421.5t193.5 -299.5z" />
    <glyph glyph-name="parenright" unicode=")" horiz-adv-x="872" 
d="M391 1634q53 -51 96 -102.5t92 -130t82.5 -162.5t55.5 -197t22 -237q0 -391 -199 -709t-532 -489l-76 117q136 77 250 187t199.5 247.5t133.5 306.5t48 350q0 236 -74.5 421.5t-193.5 299.5z" />
    <glyph glyph-name="asterisk" unicode="*" horiz-adv-x="1138" 
d="M965 850l-166 -105l-121 320l-252 -320l-133 115l309 270l-344 78l88 168l305 -149l33 366h188l-112 -366l364 153l23 -180l-377 -72z" />
    <glyph glyph-name="plus" unicode="+" 
d="M1182 535h-459v-486h-156v486h-458v155h458v486h156v-486h459v-155z" />
    <glyph glyph-name="comma" unicode="," horiz-adv-x="573" 
d="M47 -332l-162 41q229 256 244 561h209q0 -342 -291 -602z" />
    <glyph glyph-name="hyphen" unicode="-" horiz-adv-x="917" 
d="M143 526l35 172h623l-35 -172h-623z" />
    <glyph glyph-name="hyphen" unicode="&#xad;" horiz-adv-x="917" 
d="M143 526l35 172h623l-35 -172h-623z" />
    <glyph glyph-name="period" unicode="." horiz-adv-x="573" 
d="M55 0l56 270h245l-55 -270h-246z" />
    <glyph glyph-name="slash" unicode="/" horiz-adv-x="872" 
d="M-244 -340l1110 1933h185l-1110 -1933h-185z" />
    <glyph glyph-name="zero" unicode="0" 
d="M545 -25q-203 0 -310.5 130t-107.5 378q0 81 9.5 170.5t33.5 194t59 202t91.5 188.5t126 158t166.5 107.5t210 40.5q203 0 310.5 -130t107.5 -378q0 -81 -9.5 -170.5t-33.5 -194t-59 -202t-91.5 -188.5t-126 -158t-166.5 -107.5t-210 -40.5zM557 143q158 0 276 151
t175 433q34 167 34 315q0 334 -231 334q-158 0 -276.5 -150.5t-174.5 -432.5q-34 -167 -34 -316q0 -334 231 -334z" />
    <glyph glyph-name="one" unicode="1" 
d="M1044 160l-32 -160h-828l33 160h322l219 1093q-174 -128 -373 -221l-70 152q308 134 559 344h127l-274 -1368h317z" />
    <glyph glyph-name="two" unicode="2" 
d="M1059 172l-35 -172h-983l31 154l571 464q97 79 153.5 128.5t108.5 103.5t76.5 98.5t38.5 95t14 111.5q0 108 -59.5 166.5t-167.5 58.5q-117 0 -231.5 -68t-196.5 -190l-66 160q99 128 235 197t288 69q183 0 290 -103t107 -274q0 -82 -20 -153t-53 -130t-96.5 -125.5
t-129 -123t-172.5 -139.5l-422 -328h719z" />
    <glyph glyph-name="three" unicode="3" 
d="M1126 469q0 -218 -170.5 -358t-449.5 -140q-138 0 -257.5 36t-189.5 97l74 183q145 -148 387 -148q186 0 297 87.5t111 232.5q0 116 -85 175.5t-286 59.5h-160l33 164h150q202 0 326 89t124 247q0 186 -227 186q-221 0 -404 -172l-61 160q217 180 487 180
q194 0 298 -94.5t104 -232.5q0 -169 -99.5 -281t-277.5 -156q138 -30 207 -106.5t69 -208.5z" />
    <glyph glyph-name="four" unicode="4" 
d="M1178 369h-234l-74 -369h-184l74 369h-725l37 184l895 979h209l-199 -995h233zM256 537h537l151 753z" />
    <glyph glyph-name="five" unicode="5" 
d="M1133 528q0 -262 -168.5 -409.5t-450.5 -147.5q-139 0 -256.5 36t-189.5 97l73 183q145 -148 387 -148q194 0 300 97.5t106 275.5q0 112 -84.5 170.5t-274.5 58.5q-158 0 -294 -39l163 818h824l-35 -170h-647l-90 -455q82 14 176 14q461 0 461 -381z" />
    <glyph glyph-name="six" unicode="6" 
d="M1190 573q0 -162 -74.5 -299t-212.5 -220t-309 -83q-210 0 -333.5 128t-123.5 368q0 243 62 444.5t174.5 342t276.5 217.5t362 77q153 0 256 -35l-43 -170q-106 37 -236 37q-234 0 -397 -155t-225 -428q189 174 434 174q183 0 286 -105.5t103 -292.5zM334 475
q0 -163 74.5 -249.5t207.5 -86.5q162 0 268.5 121.5t106.5 292.5q0 127 -64 188.5t-200 61.5q-242 0 -385 -172q-8 -68 -8 -156z" />
    <glyph glyph-name="seven" unicode="7" 
d="M1384 1366q-301 -278 -523.5 -628.5t-352.5 -737.5h-217q260 768 856 1350h-825l34 170h1061z" />
    <glyph glyph-name="eight" unicode="8" 
d="M1147 430q0 -208 -165 -337.5t-427 -129.5q-224 0 -345.5 98.5t-121.5 264.5q0 158 109.5 274t308.5 180q-213 129 -213 336q0 91 39 171.5t108 140t170.5 94t220.5 34.5q208 0 318.5 -98.5t110.5 -251.5q0 -137 -94 -243.5t-283 -169.5q61 -32 103.5 -62.5t81.5 -73.5
t59 -100t20 -127zM485 1122q0 -40 14 -74t34 -58t58.5 -50t70.5 -42.5t86 -41.5q150 51 234.5 139.5t84.5 194.5q0 93 -64.5 150t-185.5 57q-145 0 -238.5 -79t-93.5 -196zM281 338q0 -99 77 -157t217 -58q177 0 278 86.5t101 204.5q0 34 -10 64.5t-24 53.5t-41.5 46.5
t-48 38.5t-59.5 35t-60.5 30t-65.5 29q-97 -32 -169.5 -78t-113.5 -96t-61 -100t-20 -99z" />
    <glyph glyph-name="nine" unicode="9" 
d="M1251 1032q0 -230 -64.5 -427t-179 -336.5t-277.5 -218.5t-355 -79q-151 0 -254 35l43 170q101 -37 233 -37q228 0 392 152.5t229 417.5q-169 -160 -397 -160q-193 0 -307.5 111t-114.5 301q0 116 44.5 223t121.5 187.5t190.5 128.5t243.5 48q207 0 329.5 -128
t122.5 -388zM397 977q0 -260 285 -260q121 0 213.5 45t151.5 121q8 68 8 143q0 354 -277 354q-167 0 -274 -119t-107 -284z" />
    <glyph glyph-name="colon" unicode=":" horiz-adv-x="802" 
d="M334 815l55 270h246l-55 -270h-246zM168 0l55 270h246l-55 -270h-246z" />
    <glyph glyph-name="semicolon" unicode=";" horiz-adv-x="802" 
d="M334 815l55 270h246l-55 -270h-246zM160 -332l-162 41q229 256 244 561h209q0 -342 -291 -602z" />
    <glyph glyph-name="less" unicode="&#x3c;" 
d="M1112 242v-174l-962 481v127l962 481v-174l-758 -371z" />
    <glyph glyph-name="equal" unicode="=" 
d="M133 745v156h1024v-156h-1024zM133 324v155h1024v-155h-1024z" />
    <glyph glyph-name="greater" unicode="&#x3e;" 
d="M1141 549l-963 -481v174l758 370l-758 371v174l963 -481v-127z" />
    <glyph glyph-name="question" unicode="?" horiz-adv-x="1118" 
d="M367 422l12 65q11 59 30 108t48 87t55 65.5t67.5 54.5t67 41.5t70.5 37.5q33 17 50.5 26.5t45.5 27t43 31t34 35.5t28.5 44.5t16.5 52.5t7 65q0 213 -221 213q-110 0 -213.5 -54.5t-179.5 -154.5l-64 160q92 107 219 164t269 57q177 0 284 -91t107 -275
q0 -69 -17.5 -127.5t-43.5 -99.5t-68.5 -79.5t-79 -62t-88.5 -51.5q-132 -71 -178 -108q-90 -73 -109 -167l-12 -65h-180zM264 0l49 242h222l-50 -242h-221z" />
    <glyph glyph-name="at" unicode="@" horiz-adv-x="2170" 
d="M1718 -160q-306 -221 -692 -221q-206 0 -368 60t-267.5 170.5t-161 264t-55.5 341.5q0 225 78.5 426t217 348t339.5 233t434 86q364 0 577.5 -201t213.5 -548q0 -131 -31.5 -247t-86.5 -201.5t-126 -147.5t-152 -93.5t-163 -31.5q-99 0 -159.5 45.5t-60.5 138.5v19
q-57 -100 -141.5 -151.5t-181.5 -51.5q-134 0 -220.5 95.5t-86.5 281.5q0 121 39 238t107 210t171 150t221 57q180 0 240 -139l53 110h158l-191 -635q-22 -73 -22 -127q0 -106 98 -106q64 0 131 40.5t124.5 112.5t94.5 186t37 245q0 284 -167.5 448t-475.5 164
q-204 0 -377.5 -75t-292 -204t-185 -304t-66.5 -373q0 -326 181 -510.5t537 -184.5q363 0 660 217zM805 463q0 -230 160 -230q91 0 172.5 73.5t124.5 219.5l90 303q-57 125 -191 125q-106 0 -189 -73.5t-125 -184t-42 -233.5z" />
    <glyph glyph-name="A" unicode="A" horiz-adv-x="1396" 
d="M1044 0l-61 420h-606l-225 -420h-218l852 1520h213l246 -1520h-201zM465 584h496l-107 729z" />
    <glyph glyph-name="B" unicode="B" horiz-adv-x="1372" 
d="M1245 461q0 -69 -17.5 -132t-61 -124.5t-109.5 -106t-171.5 -71.5t-238.5 -27h-555l303 1520h479q433 0 433 -346q0 -65 -15.5 -122t-49.5 -110.5t-97 -94.5t-150 -63q250 -69 250 -323zM840 1350h-281l-98 -490h313q91 0 158.5 25.5t103.5 69t53 92t17 102.5
q0 106 -66 153.5t-200 47.5zM758 705h-328l-106 -533h352q94 0 166 25t115 68t64 97t21 117q0 114 -70 170t-214 56z" />
    <glyph glyph-name="C" unicode="C" horiz-adv-x="1372" 
d="M1227 139q-83 -71 -212.5 -119.5t-287.5 -48.5q-272 0 -428 158.5t-156 466.5q0 144 34.5 282t105.5 259.5t170.5 213t238.5 144.5t301 53q272 0 426 -147l-73 -195q-140 166 -379 166q-119 0 -220.5 -43t-174 -117t-124 -172t-76 -209t-24.5 -227q0 -457 402 -457
q252 0 462 191z" />
    <glyph glyph-name="D" unicode="D" horiz-adv-x="1513" 
d="M1456 924q0 -203 -63.5 -374t-178.5 -292.5t-284.5 -189.5t-374.5 -68h-463l303 1520h410q178 0 304.5 -39t202 -117.5t110 -186t34.5 -253.5zM774 1350h-215l-235 -1178h266q204 0 355.5 100t228.5 267.5t77 378.5q0 226 -108 329t-369 103z" />
    <glyph glyph-name="E" unicode="E" horiz-adv-x="1269" 
d="M1073 172l-35 -172h-946l303 1520h930l-35 -170h-733l-94 -465h653l-35 -168h-651l-108 -545h751z" />
    <glyph glyph-name="F" unicode="F" horiz-adv-x="1155" 
d="M1018 680h-594l-135 -680h-197l303 1520h897l-35 -170h-700l-100 -502h596z" />
    <glyph glyph-name="G" unicode="G" horiz-adv-x="1515" 
d="M1276 131q-87 -67 -226 -113.5t-305 -46.5q-287 0 -444.5 157t-157.5 470q0 145 34 282t105.5 258.5t173 212.5t246 144t314.5 53q296 0 465 -147l-74 -195q-69 74 -175.5 120t-242.5 46q-126 0 -232.5 -43t-181 -116.5t-126.5 -171.5t-76.5 -208t-24.5 -227
q0 -233 104.5 -346t321.5 -113q181 0 336 74l84 418h-410l35 168h592z" />
    <glyph glyph-name="H" unicode="H" horiz-adv-x="1523" 
d="M1018 0l143 717h-729l-143 -717h-197l303 1520h197l-127 -635h729l127 635h197l-304 -1520h-196z" />
    <glyph glyph-name="I" unicode="I" horiz-adv-x="598" 
d="M92 0l303 1520h197l-303 -1520h-197z" />
    <glyph glyph-name="J" unicode="J" horiz-adv-x="845" 
d="M-104 29l51 180q108 -62 207 -62q116 0 188 76.5t109 261.5l206 1035h197l-207 -1035q-29 -147 -76 -248t-112 -159t-140.5 -82.5t-173.5 -24.5q-131 0 -249 58z" />
    <glyph glyph-name="K" unicode="K" horiz-adv-x="1351" 
d="M1012 0l-434 707l-179 -152l-110 -555h-197l303 1520h197l-148 -738l816 738h264v-4l-809 -691l526 -821v-4h-229z" />
    <glyph glyph-name="L" unicode="L" horiz-adv-x="1118" 
d="M1020 172l-35 -172h-893l303 1520h197l-270 -1348h698z" />
    <glyph glyph-name="M" unicode="M" horiz-adv-x="1925" 
d="M797 0l-256 1319l-265 -1319h-184l303 1520h283l235 -1209l695 1209h311l-303 -1520h-193l267 1333l-770 -1333h-123z" />
    <glyph glyph-name="N" unicode="N" horiz-adv-x="1556" 
d="M1047 0l-525 1227l-246 -1227h-184l303 1520h201l524 -1227l246 1227h184l-303 -1520h-200z" />
    <glyph glyph-name="O" unicode="O" horiz-adv-x="1548" 
d="M686 -29q-255 0 -399 157t-144 439q0 145 32.5 285.5t99.5 266.5t161 221.5t226 151.5t286 56q255 0 399 -157t144 -439q0 -145 -32.5 -285.5t-99.5 -266.5t-161 -221.5t-226 -151.5t-286 -56zM705 147q111 0 207 47.5t163.5 126t116 181t71.5 213.5t23 221
q0 216 -92 326t-264 110q-111 0 -207 -47t-163.5 -126t-116 -181t-72 -213t-23.5 -221q0 -216 92.5 -326.5t264.5 -110.5z" />
    <glyph glyph-name="P" unicode="P" horiz-adv-x="1310" 
d="M659 524h-266l-104 -524h-197l303 1520h455q491 0 491 -422q0 -91 -22 -172.5t-74 -156t-129 -128t-194 -85.5t-263 -32zM817 1350h-258l-131 -658h262q98 0 176 22.5t129 59.5t84.5 89t47.5 108t14 119q0 133 -74.5 196.5t-249.5 63.5z" />
    <glyph glyph-name="Q" unicode="Q" horiz-adv-x="1548" 
d="M1282 -344q-106 -59 -248 -59q-166 0 -278 101t-172 282q-209 31 -325 184t-116 403q0 145 32.5 285.5t99.5 266.5t161 221.5t226 151.5t286 56q255 0 399 -157t144 -439q0 -139 -29.5 -273t-90 -255.5t-145.5 -216.5t-204.5 -157t-259.5 -75q92 -202 317 -202
q135 0 224 47zM705 147q111 0 207 47.5t163.5 126t116 181t71.5 213.5t23 221q0 216 -92 326t-264 110q-111 0 -207 -47t-163.5 -126t-116 -181t-72 -213t-23.5 -221q0 -216 92.5 -326.5t264.5 -110.5z" />
    <glyph glyph-name="R" unicode="R" horiz-adv-x="1380" 
d="M715 590h-307l-119 -590h-197l303 1520h459q233 0 350 -103.5t117 -290.5t-110.5 -326t-309.5 -188l340 -612h-213zM819 1350h-260l-119 -596h273q201 0 304 97.5t103 252.5q0 127 -75.5 186.5t-225.5 59.5z" />
    <glyph glyph-name="S" unicode="S" horiz-adv-x="1208" 
d="M14 129l68 186q95 -77 211 -122.5t237 -45.5q167 0 259 83.5t92 207.5q0 33 -8 60.5t-18 47t-33.5 38.5t-40.5 30t-54.5 26t-59 22.5t-69.5 23.5q-53 18 -89 32t-81.5 37t-75 50t-57 64t-40.5 86.5t-13 109.5q0 99 37.5 186t106.5 153.5t176.5 105t238.5 38.5
q240 0 409 -127l-67 -186q-168 137 -371 137q-161 0 -247.5 -81.5t-86.5 -203.5q0 -36 7.5 -64.5t27.5 -51t39 -37.5t58.5 -31.5t68 -26.5t84.5 -28q44 -14 76.5 -26t72.5 -31t68 -39.5t57 -50t46.5 -63.5t28.5 -80t11 -99q0 -103 -38.5 -192t-111.5 -155t-185 -103.5
t-252 -37.5q-272 0 -482 158z" />
    <glyph glyph-name="T" unicode="T" horiz-adv-x="1175" 
d="M1315 1350h-465l-270 -1350h-197l270 1350h-473l35 170h1135z" />
    <glyph glyph-name="U" unicode="U" horiz-adv-x="1507" 
d="M1518 1520l-189 -942q-60 -298 -232 -452.5t-440 -154.5q-235 0 -358 117t-123 332q0 78 19 178l184 922h194l-186 -932q-16 -85 -16 -148q0 -293 303 -293q182 0 300.5 110.5t162.5 330.5l186 932h195z" />
    <glyph glyph-name="V" unicode="V" horiz-adv-x="1355" 
d="M1501 1520l-837 -1520h-189l-231 1520h200l170 -1270l670 1270h217z" />
    <glyph glyph-name="W" unicode="W" horiz-adv-x="2113" 
d="M1284 0l-96 1229l-588 -1229h-205l-143 1520h201l94 -1254l590 1254h213l90 -1254l594 1254h217l-762 -1520h-205z" />
    <glyph glyph-name="X" unicode="X" horiz-adv-x="1306" 
d="M932 0l-266 623l-486 -623h-231l647 786l-324 734h209l250 -596l461 596h231l-620 -758l338 -762h-209z" />
    <glyph glyph-name="Y" unicode="Y" horiz-adv-x="1228" 
d="M1403 1520l-682 -932l-117 -588h-196l118 594l-311 926h205l237 -754l521 754h225z" />
    <glyph glyph-name="Z" unicode="Z" horiz-adv-x="1302" 
d="M1130 172l-34 -172h-1106l33 164l1077 1186h-805l35 170h1048l-32 -164l-1076 -1184h860z" />
    <glyph glyph-name="bracketleft" unicode="[" horiz-adv-x="872" 
d="M588 -207l-27 -133h-495l387 1933h495l-26 -133h-320l-334 -1667h320z" />
    <glyph glyph-name="backslash" unicode="\" horiz-adv-x="872" 
d="M756 -340h-168l-338 1933h168z" />
    <glyph glyph-name="bracketright" unicode="]" horiz-adv-x="872" 
d="M842 1593l-387 -1933h-496l27 133h319l334 1667h-320l27 133h496z" />
    <glyph glyph-name="asciicircum" unicode="^" horiz-adv-x="1024" 
d="M840 762l-160 567l-389 -567h-172l530 758h115l227 -758h-151z" />
    <glyph glyph-name="underscore" unicode="_" horiz-adv-x="1310" 
d="M-135 -295l29 148h1249l-29 -148h-1249z" />
    <glyph glyph-name="grave" unicode="`" horiz-adv-x="1024" 
d="M666 1212l-271 416l187 68l186 -434z" />
    <glyph glyph-name="a" unicode="a" horiz-adv-x="1146" 
d="M711 0l26 160q-145 -185 -366 -185q-136 0 -222 75t-86 218q0 193 166 298.5t480 105.5h112l4 20q11 64 11 90q0 87 -49.5 125.5t-155.5 38.5q-188 0 -359 -121l-12 170q74 53 182 84t224 31q179 0 268.5 -78.5t89.5 -226.5q0 -63 -14 -129l-136 -676h-163zM426 135
q102 0 189.5 56t140.5 153l37 188h-101q-215 0 -325.5 -63.5t-110.5 -181.5q0 -76 45 -114t125 -38z" />
    <glyph glyph-name="b" unicode="b" horiz-adv-x="1245" 
d="M1153 682q0 -137 -40 -263.5t-112 -225.5t-182 -158.5t-241 -59.5q-208 0 -312 162l-39 -137h-164l320 1593h188l-131 -657q142 174 344 174q175 0 272 -118t97 -310zM309 283q34 -70 100 -109t152 -39q121 0 214 75.5t139.5 193.5t46.5 255q0 140 -61 211.5t-173 71.5
q-105 0 -191.5 -59.5t-138.5 -163.5z" />
    <glyph glyph-name="c" unicode="c" horiz-adv-x="1048" 
d="M887 98q-150 -123 -369 -123q-200 0 -313 113t-113 332q0 128 39.5 249t114 220.5t194.5 160t267 60.5q218 0 321 -123l-63 -164q-97 121 -271 121q-102 0 -183 -45.5t-129 -120t-72.5 -161.5t-24.5 -179q0 -297 270 -297q176 0 319 127z" />
    <glyph glyph-name="d" unicode="d" horiz-adv-x="1245" 
d="M801 0l30 182q-146 -207 -370 -207q-175 0 -272 118t-97 310q0 137 40 263.5t112.5 225.5t183.5 158.5t242 59.5q192 0 301 -139l125 622h188l-319 -1593h-164zM285 426q0 -140 60.5 -211.5t172.5 -71.5q103 0 190 59t142 169l90 444q-35 62 -101.5 98.5t-152.5 36.5
q-92 0 -169 -44t-127 -117t-77.5 -167t-27.5 -196z" />
    <glyph glyph-name="e" unicode="e" horiz-adv-x="1138" 
d="M950 98q-68 -51 -173 -87t-234 -36q-224 0 -337.5 117.5t-113.5 331.5q0 95 22.5 190.5t71 185t117 158.5t168.5 110.5t217 41.5q84 0 150 -22t107.5 -57.5t68 -86t37 -102.5t10.5 -111q0 -130 -47 -229h-727q-2 -23 -2 -66q0 -149 69.5 -222t225.5 -73q196 0 358 127z
M674 954q-135 0 -226.5 -87.5t-132.5 -225.5h545q19 39 19 104q0 95 -48.5 152t-156.5 57z" />
    <glyph glyph-name="f" unicode="f" horiz-adv-x="737" 
d="M784 942h-290l-189 -942h-188l188 942h-190l28 143h191l24 123q20 98 53.5 171t72.5 116.5t90.5 70t99.5 35.5t106 9q112 0 195 -33l-49 -172q-68 37 -154 37q-90 0 -144 -49t-79 -174l-27 -134h291z" />
    <glyph glyph-name="g" unicode="g" horiz-adv-x="1245" 
d="M965 0q-51 -252 -192 -363.5t-370 -111.5q-258 0 -409 121l53 166q63 -55 161 -88t214 -33q147 0 233 68.5t121 244.5l29 146q-142 -175 -344 -175q-175 0 -272 118t-97 310q0 109 25 212.5t74.5 193t118 157t161 106t197.5 38.5q207 0 311 -162l39 137h164zM285 426
q0 -140 60.5 -211.5t172.5 -71.5q104 0 191 60t139 164l88 436q-34 70 -100 108.5t-152 38.5q-121 0 -214 -75.5t-139 -193.5t-46 -255z" />
    <glyph glyph-name="h" unicode="h" horiz-adv-x="1212" 
d="M391 696l-139 -696h-189l320 1593h188l-139 -682q155 199 367 199q129 0 210 -75.5t81 -227.5q0 -61 -15 -131l-135 -676h-188l135 676q12 58 12 104q0 158 -151 158q-102 0 -201 -64.5t-156 -177.5z" />
    <glyph glyph-name="i" unicode="i" horiz-adv-x="540" 
d="M313 1315l45 221h222l-45 -221h-222zM68 0l217 1085h188l-217 -1085h-188z" />
    <glyph glyph-name="j" unicode="j" horiz-adv-x="557" 
d="M334 1315l45 221h221l-45 -221h-221zM-324 -434l50 172q64 -37 137 -37q80 0 133.5 54t79.5 184l229 1146h189l-230 -1146q-44 -219 -148.5 -314.5t-262.5 -95.5q-101 0 -177 37z" />
    <glyph glyph-name="k" unicode="k" horiz-adv-x="1126" 
d="M793 0l-314 510l-149 -123l-78 -387h-189l320 1593h188l-202 -1007l551 499h254v-4l-566 -465l406 -612v-4h-221z" />
    <glyph glyph-name="l" unicode="l" horiz-adv-x="540" 
d="M68 0l319 1593h188l-319 -1593h-188z" />
    <glyph glyph-name="m" unicode="m" horiz-adv-x="1867" 
d="M391 696l-139 -696h-189l218 1085h163l-30 -194q71 98 166.5 158.5t210.5 60.5q107 0 181 -56t93 -169q73 101 173.5 163t223.5 62q124 0 203.5 -76t79.5 -227q0 -62 -14 -131l-136 -676h-188l135 676q12 59 12 104q0 158 -147 158q-98 0 -192.5 -64t-151.5 -178
l-139 -696h-189l135 676q13 63 13 104q0 158 -148 158q-98 0 -192.5 -64t-151.5 -178z" />
    <glyph glyph-name="n" unicode="n" horiz-adv-x="1212" 
d="M391 696l-139 -696h-189l218 1085h163l-30 -192q72 99 170 158t215 59q129 0 210 -75.5t81 -227.5q0 -61 -15 -131l-135 -676h-188l135 676q12 58 12 104q0 158 -151 158q-102 0 -201 -64.5t-156 -177.5z" />
    <glyph glyph-name="o" unicode="o" horiz-adv-x="1196" 
d="M510 -25q-189 0 -303.5 114t-114.5 331q0 100 24.5 199t75 187.5t120.5 156t166.5 107.5t207.5 40q189 0 303.5 -113.5t114.5 -330.5q0 -100 -24.5 -199t-75 -187.5t-120.5 -156.5t-166.5 -108t-207.5 -40zM526 137q74 0 137.5 30.5t108 81.5t76.5 117.5t47.5 139
t15.5 145.5q0 146 -63 221.5t-178 75.5q-74 0 -137.5 -30.5t-108 -81.5t-76.5 -117.5t-47.5 -139t-15.5 -145.5q0 -146 63 -221.5t178 -75.5z" />
    <glyph glyph-name="p" unicode="p" horiz-adv-x="1245" 
d="M575 -25q-195 0 -301 142l-114 -572h-189l310 1540h163l-30 -182q146 207 370 207q175 0 272 -118t97 -310q0 -137 -40 -263.5t-112.5 -225.5t-183.5 -158.5t-242 -59.5zM393 715l-88 -443q35 -63 101.5 -100t152.5 -37q122 0 215.5 75.5t140 193.5t46.5 255
q0 140 -61 211.5t-173 71.5q-104 0 -191.5 -59t-142.5 -168z" />
    <glyph glyph-name="q" unicode="q" horiz-adv-x="1245" 
d="M1182 1085l-310 -1540h-188l121 605q-142 -175 -344 -175q-175 0 -272 118t-97 310q0 109 25 212.5t74.5 193t118 157t161 106t197.5 38.5q207 0 311 -162l39 137h164zM285 426q0 -140 60.5 -211.5t172.5 -71.5q104 0 191 60t139 164l88 436q-34 70 -100 108.5t-152 38.5
q-121 0 -214 -75.5t-139 -193.5t-46 -255z" />
    <glyph glyph-name="r" unicode="r" horiz-adv-x="819" 
d="M381 645l-129 -645h-189l218 1085h163l-34 -211q133 232 356 232q78 0 123 -25l-53 -180q-48 25 -117 25q-108 0 -200.5 -72t-137.5 -209z" />
    <glyph glyph-name="s" unicode="s" horiz-adv-x="966" 
d="M14 98l60 162q156 -123 334 -123q113 0 176 48t63 118q0 28 -12 50.5t-27.5 37.5t-47.5 30t-54.5 22.5t-65.5 21.5q-48 15 -78 27t-70.5 36t-64 51.5t-40.5 71.5t-17 99q0 161 120.5 260.5t311.5 99.5q184 0 316 -98l-60 -162q-128 98 -272 98q-112 0 -173 -50t-61 -120
q0 -24 7 -43.5t23.5 -35.5t32 -27.5t44.5 -23.5t48.5 -19t55.5 -19q47 -16 78 -28.5t70.5 -36t62 -51t39 -70.5t16.5 -96q0 -157 -121.5 -255t-324.5 -98q-209 0 -369 123z" />
    <glyph glyph-name="t" unicode="t" horiz-adv-x="798" 
d="M662 35q-114 -60 -240 -60q-119 0 -186.5 60.5t-67.5 185.5q0 51 12 115l121 606h-186l28 143h187l59 295l199 54l-70 -349h322l-29 -143h-322l-127 -635q-6 -30 -6 -53q0 -111 119 -111q103 0 184 62z" />
    <glyph glyph-name="u" unicode="u" horiz-adv-x="1212" 
d="M768 0l31 197q-152 -222 -381 -222q-130 0 -212.5 76t-82.5 228q0 65 14 131l135 675h189l-135 -675q-13 -63 -13 -103q0 -160 158 -160q117 0 206 73.5t148 189.5l136 675h188l-217 -1085h-164z" />
    <glyph glyph-name="v" unicode="v" horiz-adv-x="1077" 
d="M1130 1085l-618 -1085h-180l-185 1085h197l117 -880l457 880h212z" />
    <glyph glyph-name="w" unicode="w" horiz-adv-x="1679" 
d="M977 0l-84 848l-424 -848h-180l-121 1085h197l61 -860l405 860h201l80 -860l387 860h213l-555 -1085h-180z" />
    <glyph glyph-name="x" unicode="x" horiz-adv-x="1048" 
d="M682 0l-186 414l-336 -414h-217v4l485 553l-254 524v4h199l182 -399l319 399h218v-4l-471 -538l260 -539v-4h-199z" />
    <glyph glyph-name="y" unicode="y" horiz-adv-x="1085" 
d="M532 10q-112 -199 -192.5 -301t-153 -141t-170.5 -39q-96 0 -172 37l50 172q64 -37 137 -37q77 0 147 64.5t160 232.5l-191 1087h197l125 -888l457 888h213z" />
    <glyph glyph-name="z" unicode="z" horiz-adv-x="995" 
d="M836 154l-31 -154h-832l29 143l741 789h-559l31 153h791l-29 -143l-741 -788h600z" />
    <glyph glyph-name="braceleft" unicode="{" horiz-adv-x="872" 
d="M561 -340h-151q-293 0 -293 252q0 54 16 107t30.5 80.5t45.5 80.5q24 40 37 66t25 68t12 83q0 72 -40.5 110t-150.5 38h-57l33 164h57q143 0 207.5 64.5t64.5 199.5q0 38 -8 112q-10 73 -10 125q0 182 110.5 282.5t307.5 100.5h151l-26 -133h-148q-110 0 -164.5 -66.5
t-54.5 -162.5q0 -41 10 -123q8 -70 8 -111q0 -157 -84.5 -259t-222.5 -113l-2 -13q92 -8 143.5 -61t51.5 -152q0 -66 -20.5 -122.5t-59.5 -126.5q-32 -56 -46 -82.5t-27 -65.5t-13 -72q0 -60 35.5 -98.5t111.5 -38.5h148z" />
    <glyph glyph-name="bar" unicode="|" horiz-adv-x="872" 
d="M358 -455v2048h168v-2048h-168z" />
    <glyph glyph-name="braceright" unicode="}" horiz-adv-x="872" 
d="M346 1593h152q293 0 293 -252q0 -41 -7 -77t-24 -74t-27 -56.5t-35 -60.5q-23 -39 -36.5 -66t-25 -68.5t-11.5 -82.5q0 -72 40 -109.5t150 -37.5h57l-32 -164h-58q-143 0 -207.5 -64.5t-64.5 -199.5q0 -39 8 -113q10 -72 10 -125q0 -182 -110 -282.5t-307 -100.5h-152
l27 133h147q110 0 164.5 67t54.5 163q0 40 -10 122q-8 70 -8 111q0 157 84.5 260t222.5 113l2 12q-92 8 -143 61t-51 152q0 66 20.5 124t58.5 126q33 57 46 82.5t26.5 64.5t13.5 72q0 60 -35.5 98.5t-111.5 38.5h-148z" />
    <glyph glyph-name="asciitilde" unicode="~" 
d="M295 422l-148 16q0 78 17 140t44.5 100t64.5 63.5t73 35t74 9.5q46 0 101.5 -18t90.5 -36.5t88 -49.5q146 -88 205 -88q51 0 85 48t34 161l147 -17q0 -78 -17 -140t-44 -100t-64 -63.5t-73 -35t-74 -9.5q-47 0 -101 18t-87.5 35.5t-92.5 51.5q-50 30 -77 44.5t-64 29
t-63 14.5q-51 0 -85 -48t-34 -161z" />
    <glyph glyph-name="exclamdown" unicode="&#xa1;" horiz-adv-x="737" 
d="M590 1085l-49 -241h-222l50 241h221zM469 664l-180 -1094l-2 -4h-224v4l259 1094h147z" />
    <glyph glyph-name="cent" unicode="&#xa2;" 
d="M1053 369q-154 -123 -387 -131l-54 -267h-135l55 275q-172 28 -264 142.5t-92 301.5q0 250 157 415t408 187l52 260h135l-51 -260q184 -18 299 -121l-64 -163q-102 109 -268 122l-146 -731q188 8 342 140zM356 705q0 -246 209 -293l142 714q-161 -26 -256 -139.5
t-95 -281.5z" />
    <glyph glyph-name="sterling" unicode="&#xa3;" 
d="M1116 172l-35 -172h-1056l28 143q90 7 159.5 37t108.5 70t64 91.5t33 94t8 84.5q0 56 -18 148h-254l28 139h195q-23 121 -23 197q0 248 159 396t402 148q250 0 392 -159l-74 -166q-116 153 -328 153q-75 0 -138 -20.5t-112 -62t-76.5 -112t-27.5 -163.5q0 -74 29 -211
h428l-29 -139h-371q13 -67 13 -125q0 -109 -43.5 -210.5t-139.5 -160.5h678z" />
    <glyph glyph-name="currency" unicode="&#xa4;" 
d="M1186 373l-111 -111l-190 191q-88 -56 -197 -56q-108 0 -196 56l-191 -191l-111 111l191 190q-55 86 -55 197q0 110 55 196l-191 191l111 110l191 -190q86 55 196 55q111 0 197 -55l190 190l111 -110l-191 -191q56 -88 56 -196q0 -109 -56 -197zM688 549q92 0 145.5 57
t53.5 154t-53.5 154t-145.5 57q-93 0 -146 -57t-53 -154t53 -154t146 -57z" />
    <glyph glyph-name="yen" unicode="&#xa5;" 
d="M1075 291h-389l-57 -291h-185l58 291h-385l28 139h385l37 180h-387l29 140h348l-270 770h198l215 -691l474 691h219l-568 -770h342l-28 -140h-387l-37 -180h389z" />
    <glyph glyph-name="brokenbar" unicode="&#xa6;" horiz-adv-x="872" 
d="M358 825v768h168v-768h-168zM358 -455v768h168v-768h-168z" />
    <glyph glyph-name="section" unicode="&#xa7;" horiz-adv-x="1265" 
d="M971 55q0 -175 -135 -289t-371 -114q-240 0 -418 131l62 172q79 -65 181 -104t204 -39q141 0 223 68t82 157q0 39 -18 69t-55 51.5t-72 35.5t-91 33q-7 2 -10 3q-44 14 -71 24t-67.5 28t-65.5 34.5t-54.5 43.5t-46 56.5t-28 70.5t-11.5 89q0 119 63.5 204t184.5 128
q-125 83 -125 238q0 172 134.5 287.5t364.5 115.5q113 0 210 -29t163 -77l-61 -172q-66 54 -154.5 86.5t-181.5 32.5q-138 0 -220.5 -69t-82.5 -157q0 -27 7.5 -49.5t28 -41.5t36 -31t52 -27t54 -21.5t63.5 -21.5q46 -16 71 -25t68 -28t67.5 -35.5t55.5 -44t47 -57t28 -71
t12 -89.5q0 -240 -244 -328q121 -81 121 -238zM635 387q11 -4 23.5 -8t28.5 -9.5t26 -9.5q62 20 105.5 50t64.5 63t30 62t9 59q0 27 -8 51t-19 41.5t-33.5 35t-39 28t-50 24.5t-51.5 20.5t-57 20.5q-2 1 -72 25q-49 -16 -87 -39t-61 -47t-37.5 -51.5t-20 -51.5t-5.5 -49
q0 -27 7.5 -50.5t18.5 -40.5t32 -33.5t38.5 -27.5t49 -23.5t51.5 -20t57 -19.5z" />
    <glyph glyph-name="dieresis" unicode="&#xa8;" horiz-adv-x="1024" 
d="M760 1315l45 221h209l-45 -221h-209zM346 1315l45 221h209l-45 -221h-209z" />
    <glyph glyph-name="copyright" unicode="&#xa9;" horiz-adv-x="1880" 
d="M983 -29q-164 0 -310.5 62t-251 167.5t-165.5 251t-61 308.5q0 162 61 308t165.5 251.5t251 167t310.5 61.5t311 -61.5t251.5 -167t165.5 -251.5t61 -308q0 -217 -103.5 -398t-285 -286t-400.5 -105zM983 82q188 0 342 90t241 245.5t87 342.5t-87 342.5t-241 245.5
t-342 90t-342 -90t-241 -245.5t-87 -342.5t87 -342.5t241 -245.5t342 -90zM1319 406q-124 -107 -313 -107q-201 0 -324 125.5t-123 335.5q0 212 126.5 336.5t330.5 124.5q181 0 293 -97l-43 -145q-95 92 -242 92q-138 0 -215.5 -85t-77.5 -224q0 -141 79 -226t214 -85
q144 0 256 98z" />
    <glyph glyph-name="ordfeminine" unicode="&#xaa;" horiz-adv-x="921" 
d="M672 758l16 108q-98 -125 -254 -125q-97 0 -158 53t-61 156q0 137 117 212t338 75h80l2 12q6 30 6 56q0 54 -34 79t-106 25q-135 0 -256 -86l-8 145q55 36 135 58t164 22q132 0 198.5 -57t66.5 -166q0 -32 -11 -96l-94 -471h-141zM485 879q68 0 125.5 33.5t91.5 91.5
l25 120h-65q-143 0 -214 -40t-71 -113q0 -92 108 -92zM131 451l29 147h622l-28 -147h-623z" />
    <glyph glyph-name="guillemotleft" unicode="&#xab;" horiz-adv-x="1376" 
d="M1100 184l-144 -94l-305 463l4 20l463 463l123 -114l-393 -371zM629 184l-144 -94l-305 463l4 20l463 463l123 -114l-393 -371z" />
    <glyph glyph-name="logicalnot" unicode="&#xac;" 
d="M1147 690v-500h-156v345h-848v155h1004z" />
    <glyph glyph-name="registered" unicode="&#xae;" horiz-adv-x="1327" 
d="M786 614q-114 0 -216 43t-175 116.5t-115 175t-42 214.5q0 150 71.5 276t197.5 199.5t279 73.5t279.5 -73.5t198 -199.5t71.5 -276q0 -151 -71.5 -276.5t-197.5 -199t-280 -73.5zM786 709q191 0 319 131t128 323t-128 323.5t-319 131.5t-318.5 -131.5t-127.5 -323.5
t127.5 -323t318.5 -131zM678 1073v-209h-117v611h227q115 0 175.5 -49.5t60.5 -143.5q0 -133 -119 -184l180 -234h-143l-156 209h-108zM678 1380v-213h106q113 0 113 109q0 57 -31 80.5t-92 23.5h-96z" />
    <glyph glyph-name="macron" unicode="&#xaf;" horiz-adv-x="1024" 
d="M352 1348l31 155h627l-31 -155h-627z" />
    <glyph glyph-name="degree" unicode="&#xb0;" horiz-adv-x="921" 
d="M559 926q-142 0 -225.5 87.5t-83.5 223.5q0 160 111.5 268.5t271.5 108.5q142 0 225.5 -87.5t83.5 -223.5q0 -160 -111.5 -268.5t-271.5 -108.5zM571 1061q98 0 161 66.5t63 168.5q0 84 -45.5 133.5t-128.5 49.5q-98 0 -161 -67t-63 -169q0 -83 45.5 -132.5t128.5 -49.5z
" />
    <glyph glyph-name="plusminus" unicode="&#xb1;" 
d="M1157 715h-434v-441h-156v441h-434v155h434v441h156v-441h434v-155zM133 0v156h1024v-156h-1024z" />
    <glyph glyph-name="two.sups" unicode="&#xb2;" horiz-adv-x="778" 
d="M782 983l-28 -143h-615l27 135l321 235q128 93 178 151.5t50 127.5q0 61 -34.5 91t-92.5 30q-69 0 -135.5 -40.5t-118.5 -111.5l-49 129q133 158 333 158q120 0 188 -59.5t68 -176.5q0 -110 -65.5 -194t-222.5 -191l-205 -141h401z" />
    <glyph glyph-name="three.sups" unicode="&#xb3;" horiz-adv-x="778" 
d="M823 1112q0 -130 -105 -211.5t-284 -81.5q-90 0 -169.5 21t-125.5 57l60 150q96 -93 237 -93q100 0 163 45t63 113q0 56 -49.5 84.5t-163.5 28.5h-105l25 125h98q114 0 184 44t70 115q0 49 -35.5 75t-97.5 26q-125 0 -242 -99l-47 131q138 103 322 103q129 0 195.5 -56.5
t66.5 -150.5q0 -90 -59 -152.5t-165 -89.5q82 -18 123 -62t41 -122z" />
    <glyph glyph-name="acute" unicode="&#xb4;" horiz-adv-x="1024" 
d="M606 1212l-98 60l315 424l172 -107z" />
    <glyph glyph-name="uni00B5" unicode="&#xb5;" horiz-adv-x="1277" 
d="M469 -25q-145 0 -211 105l-90 -535h-188l309 1540h188l-135 -675q-12 -59 -12 -103q0 -80 38 -120t119 -40q117 0 206.5 73.5t148.5 189.5l135 675h188l-164 -819q-6 -27 -6 -47q0 -34 17 -48.5t53 -14.5q48 0 92 16l-33 -164q-56 -20 -116 -20q-97 0 -145 38t-48 128
q0 18 2 28q-66 -94 -154.5 -150.5t-193.5 -56.5z" />
    <glyph glyph-name="paragraph" unicode="&#xb6;" horiz-adv-x="1376" 
d="M975 1397l-346 -1729h-140l179 893q-461 0 -461 395q0 250 171.5 407t448.5 157h512l-370 -1852h-140l347 1729h-201z" />
    <glyph glyph-name="periodcentered" unicode="&#xb7;" horiz-adv-x="641" 
d="M184 481l56 271h245l-55 -271h-246z" />
    <glyph glyph-name="cedilla" unicode="&#xb8;" horiz-adv-x="1024" 
d="M598 -256q0 -108 -81.5 -169.5t-223.5 -61.5q-113 0 -203 36l49 138q76 -39 170 -39q63 0 100 24t37 64q0 18 -10.5 32t-53.5 33t-122 37l105 174h110l-61 -92q111 -37 147.5 -76.5t36.5 -99.5z" />
    <glyph glyph-name="one.sups" unicode="&#xb9;" horiz-adv-x="618" 
d="M682 1720l-176 -880h-156l135 676q-91 -62 -209 -115l-55 119q189 78 340 200h121z" />
    <glyph glyph-name="ordmasculine" unicode="&#xba;" horiz-adv-x="921" 
d="M520 741q-135 0 -219 80t-84 238q0 90 28 176t79.5 156.5t134.5 113.5t184 43q135 0 219 -79.5t84 -237.5q0 -72 -17 -141.5t-53 -132.5t-85.5 -111t-119.5 -76.5t-151 -28.5zM535 885q61 0 110 30.5t78.5 80t45 107t15.5 116.5q0 94 -41 140t-114 46q-61 0 -110.5 -30.5
t-79 -80t-45 -107t-15.5 -116.5q0 -94 41.5 -140t114.5 -46zM131 451l29 147h622l-28 -147h-623z" />
    <glyph glyph-name="guillemotright" unicode="&#xbb;" horiz-adv-x="1376" 
d="M1198 553l-463 -463l-123 115l394 370l-252 367l143 94l305 -463zM727 553l-463 -463l-123 115l394 370l-252 367l143 94l305 -463z" />
    <glyph glyph-name="onequarter" unicode="&#xbc;" horiz-adv-x="1646" 
d="M641 1520l-176 -881h-156l135 676q-93 -63 -208 -115l-56 119q187 77 340 201h121zM78 0l1331 1520h184l-1331 -1520h-184zM1540 188h-133l-39 -192h-151l38 192h-442l29 148l522 557h184l-114 -569h133zM985 324h297l80 403z" />
    <glyph glyph-name="onehalf" unicode="&#xbd;" horiz-adv-x="1744" 
d="M641 1520l-176 -881h-156l135 676q-93 -63 -208 -115l-56 119q187 77 340 201h121zM78 0l1331 1520h184l-1331 -1520h-184zM1581 143l-29 -143h-614l27 135l321 236q128 93 177.5 151t49.5 127q0 61 -34.5 91t-92.5 30q-69 0 -135 -40.5t-118 -111.5l-50 130
q132 157 334 157q120 0 188 -59t68 -176q0 -110 -65.5 -194t-223.5 -191l-204 -142h401z" />
    <glyph glyph-name="threequarters" unicode="&#xbe;" horiz-adv-x="1785" 
d="M782 911q0 -130 -105 -211.5t-284 -81.5q-90 0 -169.5 21t-125.5 57l60 150q95 -92 237 -92q100 0 163 44.5t63 112.5q0 56 -49.5 84.5t-163.5 28.5h-105l25 125h98q114 0 184 44.5t70 115.5q0 49 -35 74.5t-98 25.5q-126 0 -242 -98l-47 131q137 102 322 102
q129 0 195.5 -56.5t66.5 -150.5q0 -90 -59 -152t-165 -89q164 -36 164 -185zM217 0l1331 1520h185l-1332 -1520h-184zM1679 188h-133l-39 -192h-151l39 192h-443l29 148l522 557h185l-115 -569h133zM1124 324h297l80 403z" />
    <glyph glyph-name="questiondown" unicode="&#xbf;" horiz-adv-x="1118" 
d="M879 1085l-50 -241h-221l49 241h222zM776 664l-12 -66q-9 -50 -26.5 -94.5t-35.5 -77t-47.5 -63t-51.5 -50t-58.5 -42.5t-58 -34.5t-60.5 -31.5q-46 -24 -70.5 -37.5t-59 -40t-52 -52t-30.5 -65.5t-13 -88q0 -213 221 -213q110 0 213.5 54.5t179.5 154.5l64 -160
q-92 -107 -219 -164t-269 -57q-177 0 -284 91.5t-107 275.5q0 69 17.5 127.5t43.5 99.5t68.5 79.5t79 62t88.5 51.5q130 70 175 105q93 73 112 169l12 66h180z" />
    <glyph glyph-name="Agrave" unicode="&#xc0;" horiz-adv-x="1396" 
d="M995 1634l-368 295l192 90l277 -321zM1044 0l-61 420h-606l-225 -420h-218l852 1520h213l246 -1520h-201zM465 584h496l-107 729z" />
    <glyph glyph-name="Aacute" unicode="&#xc1;" horiz-adv-x="1396" 
d="M838 1634l-86 70l360 315l164 -127zM1044 0l-61 420h-606l-225 -420h-218l852 1520h213l246 -1520h-201zM465 584h496l-107 729z" />
    <glyph glyph-name="Acircumflex" unicode="&#xc2;" horiz-adv-x="1396" 
d="M1276 1681l-164 -39l-154 230l-253 -230l-175 39l365 306h156zM1044 0l-61 420h-606l-225 -420h-218l852 1520h213l246 -1520h-201zM465 584h496l-107 729z" />
    <glyph glyph-name="Atilde" unicode="&#xc3;" horiz-adv-x="1396" 
d="M649 1651l-133 12q63 301 262 301q89 0 189 -78q90 -71 139 -71q90 0 125 163l133 -12q-63 -301 -262 -301q-89 0 -189 78q-31 24 -48 36.5t-43 24t-48 11.5q-89 0 -125 -164zM1044 0l-61 420h-606l-225 -420h-218l852 1520h213l246 -1520h-201zM465 584h496l-107 729z
" />
    <glyph glyph-name="Adieresis" unicode="&#xc4;" horiz-adv-x="1396" 
d="M1024 1704l45 221h213l-45 -221h-213zM598 1704l45 221h213l-45 -221h-213zM1044 0l-61 420h-606l-225 -420h-218l852 1520h213l246 -1520h-201zM465 584h496l-107 729z" />
    <glyph glyph-name="Aring" unicode="&#xc5;" horiz-adv-x="1396" 
d="M1044 0l-61 420h-606l-225 -420h-218l852 1520q-54 26 -83 77.5t-29 118.5q0 115 80.5 193t193.5 78q100 0 160.5 -62.5t60.5 -159.5q0 -84 -47.5 -151.5t-122.5 -97.5l246 -1516h-201zM905 1612q62 0 102 41t40 104q0 52 -28.5 82.5t-80.5 30.5q-61 0 -101 -41.5
t-40 -104.5q0 -52 28 -82t80 -30zM465 584h496l-107 729z" />
    <glyph glyph-name="AE" unicode="&#xc6;" horiz-adv-x="2060" 
d="M860 0l98 492h-552l-363 -492h-225l1128 1520h1147l-35 -170h-733l-94 -465h653l-35 -168h-651l-108 -545h751l-35 -172h-946zM1130 1352h-92l-514 -697h467z" />
    <glyph glyph-name="Ccedilla" unicode="&#xc7;" horiz-adv-x="1372" 
d="M870 -256q0 -108 -81.5 -169.5t-223.5 -61.5q-113 0 -203 36l50 138q76 -39 170 -39q63 0 100 24t37 64q0 18 -10.5 32t-54 33t-122.5 37l84 142q-223 30 -348 185t-125 431q0 144 34.5 282t105.5 259.5t170.5 213t238.5 144.5t301 53q272 0 426 -147l-73 -195
q-140 166 -379 166q-119 0 -220.5 -43t-174 -117t-124 -172t-76 -209t-24.5 -227q0 -457 402 -457q252 0 462 191l15 -199q-90 -76 -221 -122t-285 -46l-35 -51q111 -37 147.5 -76.5t36.5 -99.5z" />
    <glyph glyph-name="Egrave" unicode="&#xc8;" horiz-adv-x="1269" 
d="M963 1634l-369 295l192 90l277 -321zM1073 172l-35 -172h-946l303 1520h930l-35 -170h-733l-94 -465h653l-35 -168h-651l-108 -545h751z" />
    <glyph glyph-name="Eacute" unicode="&#xc9;" horiz-adv-x="1269" 
d="M805 1634l-86 70l360 315l164 -127zM1073 172l-35 -172h-946l303 1520h930l-35 -170h-733l-94 -465h653l-35 -168h-651l-108 -545h751z" />
    <glyph glyph-name="Ecircumflex" unicode="&#xca;" horiz-adv-x="1269" 
d="M1243 1681l-164 -39l-153 230l-254 -230l-174 39l364 306h156zM1073 172l-35 -172h-946l303 1520h930l-35 -170h-733l-94 -465h653l-35 -168h-651l-108 -545h751z" />
    <glyph glyph-name="Edieresis" unicode="&#xcb;" horiz-adv-x="1269" 
d="M991 1704l45 221h213l-45 -221h-213zM565 1704l45 221h213l-45 -221h-213zM1073 172l-35 -172h-946l303 1520h930l-35 -170h-733l-94 -465h653l-35 -168h-651l-108 -545h751z" />
    <glyph glyph-name="Igrave" unicode="&#xcc;" horiz-adv-x="598" 
d="M596 1634l-369 295l193 90l276 -321zM92 0l303 1520h197l-303 -1520h-197z" />
    <glyph glyph-name="Iacute" unicode="&#xcd;" horiz-adv-x="598" 
d="M438 1634l-86 70l361 315l164 -127zM92 0l303 1520h197l-303 -1520h-197z" />
    <glyph glyph-name="Icircumflex" unicode="&#xce;" horiz-adv-x="598" 
d="M877 1681l-164 -39l-154 230l-254 -230l-174 39l365 306h155zM92 0l303 1520h197l-303 -1520h-197z" />
    <glyph glyph-name="Idieresis" unicode="&#xcf;" horiz-adv-x="598" 
d="M625 1704l45 221h213l-45 -221h-213zM199 1704l45 221h213l-45 -221h-213zM92 0l303 1520h197l-303 -1520h-197z" />
    <glyph glyph-name="Eth" unicode="&#xd0;" horiz-adv-x="1546" 
d="M1489 924q0 -203 -63.5 -374t-178.5 -292.5t-284.5 -189.5t-374.5 -68h-463l143 723h-182l31 160h184l127 637h410q178 0 304.5 -39t202 -117.5t110 -186t34.5 -253.5zM844 723h-377l-111 -551h267q204 0 355.5 100t228.5 267.5t77 378.5q0 226 -108 329t-369 103h-215
l-94 -467h376z" />
    <glyph glyph-name="Ntilde" unicode="&#xd1;" horiz-adv-x="1556" 
d="M731 1651l-133 12q63 301 262 301q89 0 189 -78q90 -71 139 -71q90 0 125 163l133 -12q-63 -301 -262 -301q-89 0 -189 78q-31 24 -48 36.5t-43 24t-48 11.5q-89 0 -125 -164zM1047 0l-525 1227l-246 -1227h-184l303 1520h201l524 -1227l246 1227h184l-303 -1520h-200z
" />
    <glyph glyph-name="Ograve" unicode="&#xd2;" horiz-adv-x="1548" 
d="M1071 1634l-369 295l193 90l276 -321zM686 -29q-255 0 -399 157t-144 439q0 145 32.5 285.5t99.5 266.5t161 221.5t226 151.5t286 56q255 0 399 -157t144 -439q0 -145 -32.5 -285.5t-99.5 -266.5t-161 -221.5t-226 -151.5t-286 -56zM705 147q111 0 207 47.5t163.5 126
t116 181t71.5 213.5t23 221q0 216 -92 326t-264 110q-111 0 -207 -47t-163.5 -126t-116 -181t-72 -213t-23.5 -221q0 -216 92.5 -326.5t264.5 -110.5z" />
    <glyph glyph-name="Oacute" unicode="&#xd3;" horiz-adv-x="1548" 
d="M913 1634l-86 70l361 315l164 -127zM686 -29q-255 0 -399 157t-144 439q0 145 32.5 285.5t99.5 266.5t161 221.5t226 151.5t286 56q255 0 399 -157t144 -439q0 -145 -32.5 -285.5t-99.5 -266.5t-161 -221.5t-226 -151.5t-286 -56zM705 147q111 0 207 47.5t163.5 126
t116 181t71.5 213.5t23 221q0 216 -92 326t-264 110q-111 0 -207 -47t-163.5 -126t-116 -181t-72 -213t-23.5 -221q0 -216 92.5 -326.5t264.5 -110.5z" />
    <glyph glyph-name="Ocircumflex" unicode="&#xd4;" horiz-adv-x="1548" 
d="M1352 1681l-164 -39l-154 230l-254 -230l-174 39l365 306h155zM686 -29q-255 0 -399 157t-144 439q0 145 32.5 285.5t99.5 266.5t161 221.5t226 151.5t286 56q255 0 399 -157t144 -439q0 -145 -32.5 -285.5t-99.5 -266.5t-161 -221.5t-226 -151.5t-286 -56zM705 147
q111 0 207 47.5t163.5 126t116 181t71.5 213.5t23 221q0 216 -92 326t-264 110q-111 0 -207 -47t-163.5 -126t-116 -181t-72 -213t-23.5 -221q0 -216 92.5 -326.5t264.5 -110.5z" />
    <glyph glyph-name="Otilde" unicode="&#xd5;" horiz-adv-x="1548" 
d="M725 1651l-133 12q63 301 262 301q88 0 188 -78q90 -71 140 -71q90 0 125 163l133 -12q-63 -301 -262 -301q-89 0 -189 78q-31 24 -48 36.5t-43 24t-48 11.5q-89 0 -125 -164zM686 -29q-255 0 -399 157t-144 439q0 145 32.5 285.5t99.5 266.5t161 221.5t226 151.5t286 56
q255 0 399 -157t144 -439q0 -145 -32.5 -285.5t-99.5 -266.5t-161 -221.5t-226 -151.5t-286 -56zM705 147q111 0 207 47.5t163.5 126t116 181t71.5 213.5t23 221q0 216 -92 326t-264 110q-111 0 -207 -47t-163.5 -126t-116 -181t-72 -213t-23.5 -221q0 -216 92.5 -326.5
t264.5 -110.5z" />
    <glyph glyph-name="Odieresis" unicode="&#xd6;" horiz-adv-x="1548" 
d="M1100 1704l45 221h213l-45 -221h-213zM674 1704l45 221h213l-45 -221h-213zM686 -29q-255 0 -399 157t-144 439q0 145 32.5 285.5t99.5 266.5t161 221.5t226 151.5t286 56q255 0 399 -157t144 -439q0 -145 -32.5 -285.5t-99.5 -266.5t-161 -221.5t-226 -151.5t-286 -56z
M705 147q111 0 207 47.5t163.5 126t116 181t71.5 213.5t23 221q0 216 -92 326t-264 110q-111 0 -207 -47t-163.5 -126t-116 -181t-72 -213t-23.5 -221q0 -216 92.5 -326.5t264.5 -110.5z" />
    <glyph glyph-name="multiply" unicode="&#xd7;" 
d="M1155 213l-111 -111l-399 408l-399 -408l-111 111l408 399l-408 400l111 110l399 -407l399 407l111 -110l-407 -400z" />
    <glyph glyph-name="Oslash" unicode="&#xd8;" horiz-adv-x="1548" 
d="M686 -29q-230 0 -371 129l-168 -190l-110 61l199 226q-93 151 -93 370q0 145 32.5 285.5t99.5 266.5t161 221.5t226 151.5t286 56q230 0 371 -129l168 191l110 -62l-198 -225q92 -150 92 -371q0 -145 -32.5 -285.5t-99.5 -266.5t-161 -221.5t-226 -151.5t-286 -56z
M348 584q0 -131 35 -224l803 910q-88 102 -256 102q-111 0 -207 -47t-163.5 -126t-116 -181t-72 -213t-23.5 -221zM1286 936q0 130 -35 223l-802 -909q89 -103 256 -103q111 0 207 47.5t163.5 126t116 181t71.5 213.5t23 221z" />
    <glyph glyph-name="Ugrave" unicode="&#xd9;" horiz-adv-x="1507" 
d="M1051 1634l-369 295l192 90l277 -321zM1518 1520l-189 -942q-60 -298 -232 -452.5t-440 -154.5q-235 0 -358 117t-123 332q0 78 19 178l184 922h194l-186 -932q-16 -85 -16 -148q0 -293 303 -293q182 0 300.5 110.5t162.5 330.5l186 932h195z" />
    <glyph glyph-name="Uacute" unicode="&#xda;" horiz-adv-x="1507" 
d="M893 1634l-86 70l360 315l164 -127zM1518 1520l-189 -942q-60 -298 -232 -452.5t-440 -154.5q-235 0 -358 117t-123 332q0 78 19 178l184 922h194l-186 -932q-16 -85 -16 -148q0 -293 303 -293q182 0 300.5 110.5t162.5 330.5l186 932h195z" />
    <glyph glyph-name="Ucircumflex" unicode="&#xdb;" horiz-adv-x="1507" 
d="M1331 1681l-164 -39l-153 230l-254 -230l-174 39l364 306h156zM1518 1520l-189 -942q-60 -298 -232 -452.5t-440 -154.5q-235 0 -358 117t-123 332q0 78 19 178l184 922h194l-186 -932q-16 -85 -16 -148q0 -293 303 -293q182 0 300.5 110.5t162.5 330.5l186 932h195z" />
    <glyph glyph-name="Udieresis" unicode="&#xdc;" horiz-adv-x="1507" 
d="M1079 1704l45 221h213l-45 -221h-213zM653 1704l45 221h213l-45 -221h-213zM1518 1520l-189 -942q-60 -298 -232 -452.5t-440 -154.5q-235 0 -358 117t-123 332q0 78 19 178l184 922h194l-186 -932q-16 -85 -16 -148q0 -293 303 -293q182 0 300.5 110.5t162.5 330.5
l186 932h195z" />
    <glyph glyph-name="Yacute" unicode="&#xdd;" horiz-adv-x="1228" 
d="M754 1634l-86 70l360 315l164 -127zM1403 1520l-682 -932l-117 -588h-196l118 594l-311 926h205l237 -754l521 754h225z" />
    <glyph glyph-name="Thorn" unicode="&#xde;" horiz-adv-x="1265" 
d="M643 328h-289l-65 -328h-197l303 1520h197l-53 -271h280q455 0 455 -391q0 -84 -20.5 -159t-68 -144t-119 -118.5t-180 -79t-243.5 -29.5zM784 1081h-278l-119 -585h285q109 0 189 29.5t125 80.5t66 112t21 132q0 119 -66.5 175t-222.5 56z" />
    <glyph glyph-name="germandbls" unicode="&#xdf;" horiz-adv-x="1282" 
d="M1171 471q0 -225 -129.5 -360.5t-353.5 -135.5q-178 0 -287 72l54 166q104 -74 231 -74q144 0 220.5 90t76.5 242q0 151 -84.5 235.5t-269.5 110.5l28 144q191 0 283 77t92 205q0 203 -221 203q-147 0 -226.5 -91t-115.5 -270l-217 -1085h-189l218 1085q50 255 177 390
t361 135q192 0 295 -89.5t103 -254.5q0 -151 -86 -255t-242 -134q146 -52 214 -152t68 -254z" />
    <glyph glyph-name="agrave" unicode="&#xe0;" horiz-adv-x="1146" 
d="M735 1212l-270 416l186 68l187 -434zM711 0l26 160q-145 -185 -366 -185q-136 0 -222 75t-86 218q0 193 166 298.5t480 105.5h112l4 20q11 64 11 90q0 87 -49.5 125.5t-155.5 38.5q-188 0 -359 -121l-12 170q74 53 182 84t224 31q179 0 268.5 -78.5t89.5 -226.5
q0 -63 -14 -129l-136 -676h-163zM426 135q102 0 189.5 56t140.5 153l37 188h-101q-215 0 -325.5 -63.5t-110.5 -181.5q0 -76 45 -114t125 -38z" />
    <glyph glyph-name="aacute" unicode="&#xe1;" horiz-adv-x="1146" 
d="M668 1212l-99 60l316 424l172 -107zM711 0l26 160q-145 -185 -366 -185q-136 0 -222 75t-86 218q0 193 166 298.5t480 105.5h112l4 20q11 64 11 90q0 87 -49.5 125.5t-155.5 38.5q-188 0 -359 -121l-12 170q74 53 182 84t224 31q179 0 268.5 -78.5t89.5 -226.5
q0 -63 -14 -129l-136 -676h-163zM426 135q102 0 189.5 56t140.5 153l37 188h-101q-215 0 -325.5 -63.5t-110.5 -181.5q0 -76 45 -114t125 -38z" />
    <glyph glyph-name="acircumflex" unicode="&#xe2;" horiz-adv-x="1146" 
d="M1049 1264l-154 -35l-123 317l-256 -317l-160 39l355 399h155zM711 0l26 160q-145 -185 -366 -185q-136 0 -222 75t-86 218q0 193 166 298.5t480 105.5h112l4 20q11 64 11 90q0 87 -49.5 125.5t-155.5 38.5q-188 0 -359 -121l-12 170q74 53 182 84t224 31
q179 0 268.5 -78.5t89.5 -226.5q0 -63 -14 -129l-136 -676h-163zM426 135q102 0 189.5 56t140.5 153l37 188h-101q-215 0 -325.5 -63.5t-110.5 -181.5q0 -76 45 -114t125 -38z" />
    <glyph glyph-name="atilde" unicode="&#xe3;" horiz-adv-x="1146" 
d="M463 1262l-133 12q60 301 252 301q89 0 182 -78q84 -72 131 -72q84 0 117 164l133 -12q-60 -301 -252 -301q-88 0 -182 78q-83 71 -131 71q-84 0 -117 -163zM711 0l26 160q-145 -185 -366 -185q-136 0 -222 75t-86 218q0 193 166 298.5t480 105.5h112l4 20q11 64 11 90
q0 87 -49.5 125.5t-155.5 38.5q-188 0 -359 -121l-12 170q74 53 182 84t224 31q179 0 268.5 -78.5t89.5 -226.5q0 -63 -14 -129l-136 -676h-163zM426 135q102 0 189.5 56t140.5 153l37 188h-101q-215 0 -325.5 -63.5t-110.5 -181.5q0 -76 45 -114t125 -38z" />
    <glyph glyph-name="adieresis" unicode="&#xe4;" horiz-adv-x="1146" 
d="M821 1315l45 221h209l-45 -221h-209zM408 1315l45 221h209l-46 -221h-208zM711 0l26 160q-145 -185 -366 -185q-136 0 -222 75t-86 218q0 193 166 298.5t480 105.5h112l4 20q11 64 11 90q0 87 -49.5 125.5t-155.5 38.5q-188 0 -359 -121l-12 170q74 53 182 84t224 31
q179 0 268.5 -78.5t89.5 -226.5q0 -63 -14 -129l-136 -676h-163zM426 135q102 0 189.5 56t140.5 153l37 188h-101q-215 0 -325.5 -63.5t-110.5 -181.5q0 -76 45 -114t125 -38z" />
    <glyph glyph-name="aring" unicode="&#xe5;" horiz-adv-x="1146" 
d="M725 1204q-100 0 -160.5 62t-60.5 159q0 115 80.5 193t193.5 78q100 0 160.5 -62t60.5 -159q0 -115 -80.5 -193t-193.5 -78zM735 1321q62 0 102 41t40 104q0 52 -28.5 82.5t-80.5 30.5q-61 0 -101 -41t-40 -104q0 -52 28 -82.5t80 -30.5zM711 0l26 160
q-145 -185 -366 -185q-136 0 -222 75t-86 218q0 193 166 298.5t480 105.5h112l4 20q11 64 11 90q0 87 -49.5 125.5t-155.5 38.5q-188 0 -359 -121l-12 170q74 53 182 84t224 31q179 0 268.5 -78.5t89.5 -226.5q0 -63 -14 -129l-136 -676h-163zM426 135q102 0 189.5 56
t140.5 153l37 188h-101q-215 0 -325.5 -63.5t-110.5 -181.5q0 -76 45 -114t125 -38z" />
    <glyph glyph-name="ae" unicode="&#xe6;" horiz-adv-x="1822" 
d="M1634 98q-68 -51 -173 -87t-232 -36q-288 0 -393 199q-88 -94 -203 -146.5t-242 -52.5q-150 0 -239 74t-89 217q0 189 163 289t479 100h112l8 37q11 57 11 90q0 87 -49.5 125.5t-155.5 38.5q-188 0 -359 -121l-12 170q74 53 182 84t224 31q253 0 323 -162
q152 162 383 162q84 0 149.5 -22t107 -57.5t68.5 -85.5t37.5 -102t10.5 -110q0 -126 -43 -221h-729q-4 -50 -4 -76q0 -149 69.5 -222t225.5 -73q196 0 358 127zM1358 954q-132 0 -223 -85t-134 -218h547q15 44 15 97q0 93 -48.5 149.5t-156.5 56.5zM432 135q107 0 202 56
t152 153q-4 46 -4 70q0 28 9 102h-103q-432 0 -432 -231q0 -150 176 -150z" />
    <glyph glyph-name="ccedilla" unicode="&#xe7;" horiz-adv-x="1048" 
d="M662 -256q0 -108 -82 -169.5t-224 -61.5q-112 0 -202 36l49 138q76 -39 170 -39q63 0 100 24t37 64q0 18 -10.5 32t-53.5 33t-122 37l88 146q-153 28 -236.5 138t-83.5 298q0 128 39.5 249t114 220.5t194.5 160t267 60.5q218 0 321 -123l-63 -164q-97 121 -271 121
q-102 0 -183 -45.5t-129 -120t-72.5 -161.5t-24.5 -179q0 -297 270 -297q176 0 319 127l13 -170q-150 -123 -369 -123h-4l-37 -55q111 -37 148 -76.5t37 -99.5z" />
    <glyph glyph-name="egrave" unicode="&#xe8;" horiz-adv-x="1138" 
d="M741 1212l-270 416l186 68l187 -434zM950 98q-68 -51 -173 -87t-234 -36q-224 0 -337.5 117.5t-113.5 331.5q0 95 22.5 190.5t71 185t117 158.5t168.5 110.5t217 41.5q84 0 150 -22t107.5 -57.5t68 -86t37 -102.5t10.5 -111q0 -130 -47 -229h-727q-2 -23 -2 -66
q0 -149 69.5 -222t225.5 -73q196 0 358 127zM674 954q-135 0 -226.5 -87.5t-132.5 -225.5h545q19 39 19 104q0 95 -48.5 152t-156.5 57z" />
    <glyph glyph-name="eacute" unicode="&#xe9;" horiz-adv-x="1138" 
d="M682 1212l-98 60l315 424l172 -107zM950 98q-68 -51 -173 -87t-234 -36q-224 0 -337.5 117.5t-113.5 331.5q0 95 22.5 190.5t71 185t117 158.5t168.5 110.5t217 41.5q84 0 150 -22t107.5 -57.5t68 -86t37 -102.5t10.5 -111q0 -130 -47 -229h-727q-2 -23 -2 -66
q0 -149 69.5 -222t225.5 -73q196 0 358 127zM674 954q-135 0 -226.5 -87.5t-132.5 -225.5h545q19 39 19 104q0 95 -48.5 152t-156.5 57z" />
    <glyph glyph-name="ecircumflex" unicode="&#xea;" horiz-adv-x="1138" 
d="M1063 1264l-154 -35l-123 317l-256 -317l-159 39l354 399h156zM950 98q-68 -51 -173 -87t-234 -36q-224 0 -337.5 117.5t-113.5 331.5q0 95 22.5 190.5t71 185t117 158.5t168.5 110.5t217 41.5q84 0 150 -22t107.5 -57.5t68 -86t37 -102.5t10.5 -111q0 -130 -47 -229
h-727q-2 -23 -2 -66q0 -149 69.5 -222t225.5 -73q196 0 358 127zM674 954q-135 0 -226.5 -87.5t-132.5 -225.5h545q19 39 19 104q0 95 -48.5 152t-156.5 57z" />
    <glyph glyph-name="edieresis" unicode="&#xeb;" horiz-adv-x="1138" 
d="M836 1315l45 221h209l-46 -221h-208zM422 1315l45 221h209l-45 -221h-209zM950 98q-68 -51 -173 -87t-234 -36q-224 0 -337.5 117.5t-113.5 331.5q0 95 22.5 190.5t71 185t117 158.5t168.5 110.5t217 41.5q84 0 150 -22t107.5 -57.5t68 -86t37 -102.5t10.5 -111
q0 -130 -47 -229h-727q-2 -23 -2 -66q0 -149 69.5 -222t225.5 -73q196 0 358 127zM674 954q-135 0 -226.5 -87.5t-132.5 -225.5h545q19 39 19 104q0 95 -48.5 152t-156.5 57z" />
    <glyph glyph-name="igrave" unicode="&#xec;" horiz-adv-x="548" 
d="M440 1212l-270 416l186 68l187 -434zM72 0l217 1085h188l-217 -1085h-188z" />
    <glyph glyph-name="iacute" unicode="&#xed;" horiz-adv-x="548" 
d="M369 1212l-99 60l316 424l172 -107zM72 0l217 1085h188l-217 -1085h-188z" />
    <glyph glyph-name="icircumflex" unicode="&#xee;" horiz-adv-x="548" 
d="M723 1264l-150 -35l-92 315l-213 -315l-155 39l309 399h156zM72 0l217 1085h188l-217 -1085h-188z" />
    <glyph glyph-name="idieresis" unicode="&#xef;" horiz-adv-x="548" 
d="M514 1315l45 221h209l-45 -221h-209zM133 1315l45 221h209l-45 -221h-209zM72 0l217 1085h188l-217 -1085h-188z" />
    <glyph glyph-name="eth" unicode="&#xf0;" horiz-adv-x="1196" 
d="M1110 750q0 -126 -23.5 -240.5t-72 -212t-117.5 -169.5t-167 -112.5t-214 -40.5q-205 0 -314.5 119.5t-109.5 327.5q0 167 66 311.5t193.5 236t289.5 91.5q198 0 295 -162q-39 205 -164 377l-262 -117l-66 98l248 111q-77 86 -213 184l180 74q118 -100 193 -186l256 112
l66 -98l-248 -111q184 -258 184 -593zM285 434q0 -145 62.5 -221t180.5 -76q174 0 284 157t114 423q-26 87 -94.5 134.5t-167.5 47.5q-88 0 -161 -38t-120 -103t-72.5 -148.5t-25.5 -175.5z" />
    <glyph glyph-name="ntilde" unicode="&#xf1;" horiz-adv-x="1212" 
d="M500 1262l-133 12q60 301 251 301q90 0 183 -78q84 -72 131 -72q84 0 117 164l133 -12q-60 -301 -252 -301q-88 0 -182 78q-83 71 -132 71q-83 0 -116 -163zM391 696l-139 -696h-189l218 1085h163l-30 -192q72 99 170 158t215 59q129 0 210 -75.5t81 -227.5
q0 -61 -15 -131l-135 -676h-188l135 676q12 58 12 104q0 158 -151 158q-102 0 -201 -64.5t-156 -177.5z" />
    <glyph glyph-name="ograve" unicode="&#xf2;" horiz-adv-x="1196" 
d="M752 1212l-271 416l187 68l186 -434zM510 -25q-189 0 -303.5 114t-114.5 331q0 100 24.5 199t75 187.5t120.5 156t166.5 107.5t207.5 40q189 0 303.5 -113.5t114.5 -330.5q0 -100 -24.5 -199t-75 -187.5t-120.5 -156.5t-166.5 -108t-207.5 -40zM526 137q74 0 137.5 30.5
t108 81.5t76.5 117.5t47.5 139t15.5 145.5q0 146 -63 221.5t-178 75.5q-74 0 -137.5 -30.5t-108 -81.5t-76.5 -117.5t-47.5 -139t-15.5 -145.5q0 -146 63 -221.5t178 -75.5z" />
    <glyph glyph-name="oacute" unicode="&#xf3;" horiz-adv-x="1196" 
d="M692 1212l-98 60l315 424l172 -107zM510 -25q-189 0 -303.5 114t-114.5 331q0 100 24.5 199t75 187.5t120.5 156t166.5 107.5t207.5 40q189 0 303.5 -113.5t114.5 -330.5q0 -100 -24.5 -199t-75 -187.5t-120.5 -156.5t-166.5 -108t-207.5 -40zM526 137q74 0 137.5 30.5
t108 81.5t76.5 117.5t47.5 139t15.5 145.5q0 146 -63 221.5t-178 75.5q-74 0 -137.5 -30.5t-108 -81.5t-76.5 -117.5t-47.5 -139t-15.5 -145.5q0 -146 63 -221.5t178 -75.5z" />
    <glyph glyph-name="ocircumflex" unicode="&#xf4;" horiz-adv-x="1196" 
d="M1073 1264l-153 -35l-123 317l-256 -317l-160 39l354 399h156zM510 -25q-189 0 -303.5 114t-114.5 331q0 100 24.5 199t75 187.5t120.5 156t166.5 107.5t207.5 40q189 0 303.5 -113.5t114.5 -330.5q0 -100 -24.5 -199t-75 -187.5t-120.5 -156.5t-166.5 -108t-207.5 -40z
M526 137q74 0 137.5 30.5t108 81.5t76.5 117.5t47.5 139t15.5 145.5q0 146 -63 221.5t-178 75.5q-74 0 -137.5 -30.5t-108 -81.5t-76.5 -117.5t-47.5 -139t-15.5 -145.5q0 -146 63 -221.5t178 -75.5z" />
    <glyph glyph-name="otilde" unicode="&#xf5;" horiz-adv-x="1196" 
d="M487 1262l-133 12q60 301 252 301q89 0 182 -78q84 -72 132 -72q83 0 116 164l133 -12q-60 -301 -251 -301q-89 0 -183 78q-83 71 -131 71q-84 0 -117 -163zM510 -25q-189 0 -303.5 114t-114.5 331q0 100 24.5 199t75 187.5t120.5 156t166.5 107.5t207.5 40
q189 0 303.5 -113.5t114.5 -330.5q0 -100 -24.5 -199t-75 -187.5t-120.5 -156.5t-166.5 -108t-207.5 -40zM526 137q74 0 137.5 30.5t108 81.5t76.5 117.5t47.5 139t15.5 145.5q0 146 -63 221.5t-178 75.5q-74 0 -137.5 -30.5t-108 -81.5t-76.5 -117.5t-47.5 -139
t-15.5 -145.5q0 -146 63 -221.5t178 -75.5z" />
    <glyph glyph-name="odieresis" unicode="&#xf6;" horiz-adv-x="1196" 
d="M846 1315l45 221h209l-45 -221h-209zM432 1315l45 221h209l-45 -221h-209zM510 -25q-189 0 -303.5 114t-114.5 331q0 100 24.5 199t75 187.5t120.5 156t166.5 107.5t207.5 40q189 0 303.5 -113.5t114.5 -330.5q0 -100 -24.5 -199t-75 -187.5t-120.5 -156.5t-166.5 -108
t-207.5 -40zM526 137q74 0 137.5 30.5t108 81.5t76.5 117.5t47.5 139t15.5 145.5q0 146 -63 221.5t-178 75.5q-74 0 -137.5 -30.5t-108 -81.5t-76.5 -117.5t-47.5 -139t-15.5 -145.5q0 -146 63 -221.5t178 -75.5z" />
    <glyph glyph-name="divide" unicode="&#xf7;" 
d="M502 1069q0 59 42 101t101 42t101 -42t42 -101t-42 -101t-101 -42t-101 42t-42 101zM117 535v155h1057v-155h-1057zM502 156q0 58 42 100.5t101 42.5t101 -42.5t42 -100.5q0 -59 -42.5 -101.5t-100.5 -42.5t-100.5 42.5t-42.5 101.5z" />
    <glyph glyph-name="oslash" unicode="&#xf8;" horiz-adv-x="1196" 
d="M510 -25q-157 0 -266 80l-156 -176l-100 62l178 200q-74 110 -74 279q0 100 24.5 199t75 187.5t120.5 156t166.5 107.5t207.5 40q157 0 266 -80l156 176l100 -61l-178 -201q74 -110 74 -278q0 -100 -24.5 -199t-75 -187.5t-120.5 -156.5t-166.5 -108t-207.5 -40zM285 434
q0 -78 18 -137l526 596q-61 55 -159 55q-74 0 -137.5 -30.5t-108 -81.5t-76.5 -117.5t-47.5 -139t-15.5 -145.5zM911 651q0 79 -18 137l-526 -595q62 -56 159 -56q74 0 137.5 30.5t108 81.5t76.5 117.5t47.5 139t15.5 145.5z" />
    <glyph glyph-name="ugrave" unicode="&#xf9;" horiz-adv-x="1212" 
d="M756 1212l-271 416l187 68l186 -434zM768 0l31 197q-152 -222 -381 -222q-130 0 -212.5 76t-82.5 228q0 65 14 131l135 675h189l-135 -675q-13 -63 -13 -103q0 -160 158 -160q117 0 206 73.5t148 189.5l136 675h188l-217 -1085h-164z" />
    <glyph glyph-name="uacute" unicode="&#xfa;" horiz-adv-x="1212" 
d="M696 1212l-98 60l315 424l172 -107zM768 0l31 197q-152 -222 -381 -222q-130 0 -212.5 76t-82.5 228q0 65 14 131l135 675h189l-135 -675q-13 -63 -13 -103q0 -160 158 -160q117 0 206 73.5t148 189.5l136 675h188l-217 -1085h-164z" />
    <glyph glyph-name="ucircumflex" unicode="&#xfb;" horiz-adv-x="1212" 
d="M1077 1264l-153 -35l-123 317l-256 -317l-160 39l354 399h156zM768 0l31 197q-152 -222 -381 -222q-130 0 -212.5 76t-82.5 228q0 65 14 131l135 675h189l-135 -675q-13 -63 -13 -103q0 -160 158 -160q117 0 206 73.5t148 189.5l136 675h188l-217 -1085h-164z" />
    <glyph glyph-name="udieresis" unicode="&#xfc;" horiz-adv-x="1212" 
d="M850 1315l45 221h209l-45 -221h-209zM436 1315l45 221h209l-45 -221h-209zM768 0l31 197q-152 -222 -381 -222q-130 0 -212.5 76t-82.5 228q0 65 14 131l135 675h189l-135 -675q-13 -63 -13 -103q0 -160 158 -160q117 0 206 73.5t148 189.5l136 675h188l-217 -1085h-164z
" />
    <glyph glyph-name="yacute" unicode="&#xfd;" horiz-adv-x="1085" 
d="M639 1212l-98 60l315 424l172 -107zM532 10q-112 -199 -192.5 -301t-153 -141t-170.5 -39q-96 0 -172 37l50 172q64 -37 137 -37q77 0 147 64.5t160 232.5l-191 1087h197l125 -888l457 888h213z" />
    <glyph glyph-name="thorn" unicode="&#xfe;" horiz-adv-x="1245" 
d="M578 -25q-195 0 -302 140l-114 -570h-189l410 2048h188l-131 -657q142 174 344 174q175 0 272 -118t97 -310q0 -137 -40 -263.5t-112 -225.5t-182 -158.5t-241 -59.5zM307 272q35 -65 102.5 -101t151.5 -36q121 0 214 75.5t139.5 193.5t46.5 255q0 140 -61 211.5
t-173 71.5q-102 0 -188 -57.5t-142 -159.5z" />
    <glyph glyph-name="ydieresis" unicode="&#xff;" horiz-adv-x="1085" 
d="M793 1315l45 221h209l-46 -221h-208zM379 1315l45 221h209l-45 -221h-209zM532 10q-112 -199 -192.5 -301t-153 -141t-170.5 -39q-96 0 -172 37l50 172q64 -37 137 -37q77 0 147 64.5t160 232.5l-191 1087h197l125 -888l457 888h213z" />
    <glyph glyph-name="Amacron" unicode="&#x100;" horiz-adv-x="1396" 
d="M573 1737l31 155h705l-31 -155h-705zM1044 0l-61 420h-606l-225 -420h-218l852 1520h213l246 -1520h-201zM465 584h496l-107 729z" />
    <glyph glyph-name="amacron" unicode="&#x101;" horiz-adv-x="1146" 
d="M414 1348l30 155h627l-31 -155h-626zM711 0l26 160q-145 -185 -366 -185q-136 0 -222 75t-86 218q0 193 166 298.5t480 105.5h112l4 20q11 64 11 90q0 87 -49.5 125.5t-155.5 38.5q-188 0 -359 -121l-12 170q74 53 182 84t224 31q179 0 268.5 -78.5t89.5 -226.5
q0 -63 -14 -129l-136 -676h-163zM426 135q102 0 189.5 56t140.5 153l37 188h-101q-215 0 -325.5 -63.5t-110.5 -181.5q0 -76 45 -114t125 -38z" />
    <glyph glyph-name="Abreve" unicode="&#x102;" horiz-adv-x="1396" 
d="M633 1974l133 13q-6 -30 -6 -56q0 -143 162 -143q188 0 245 199l146 -13q-43 -167 -150.5 -249.5t-253.5 -82.5q-134 0 -208 67.5t-74 191.5q0 32 6 73zM1044 0l-61 420h-606l-225 -420h-218l852 1520h213l246 -1520h-201zM465 584h496l-107 729z" />
    <glyph glyph-name="abreve" unicode="&#x103;" horiz-adv-x="1146" 
d="M436 1597l133 13q-6 -41 -6 -72q0 -164 156 -164q192 0 252 236l145 -13q-45 -183 -152.5 -275.5t-256.5 -92.5q-131 0 -205 71.5t-74 206.5q0 46 8 90zM711 0l26 160q-145 -185 -366 -185q-136 0 -222 75t-86 218q0 193 166 298.5t480 105.5h112l4 20q11 64 11 90
q0 87 -49.5 125.5t-155.5 38.5q-188 0 -359 -121l-12 170q74 53 182 84t224 31q179 0 268.5 -78.5t89.5 -226.5q0 -63 -14 -129l-136 -676h-163zM426 135q102 0 189.5 56t140.5 153l37 188h-101q-215 0 -325.5 -63.5t-110.5 -181.5q0 -76 45 -114t125 -38z" />
    <glyph glyph-name="Aogonek" unicode="&#x104;" horiz-adv-x="1396" 
d="M1198 -434q-75 -53 -188 -53q-100 0 -155.5 49t-55.5 137q0 90 60 162.5t183 146.5l-59 412h-606l-225 -420h-218l852 1520h213l246 -1520q-131 -46 -211 -111t-80 -143q0 -86 97 -86q67 0 141 49zM465 584h496l-107 729z" />
    <glyph glyph-name="aogonek" unicode="&#x105;" horiz-adv-x="1146" 
d="M817 -434q-75 -53 -184 -53q-98 0 -152.5 47t-54.5 135q0 94 69.5 171.5t217.5 151.5l24 142q-145 -185 -366 -185q-136 0 -222 75t-86 218q0 193 166 298.5t480 105.5h112l4 20q11 64 11 90q0 87 -49.5 125.5t-155.5 38.5q-188 0 -359 -121l-12 170q74 53 182 84t224 31
q179 0 268.5 -78.5t89.5 -226.5q0 -63 -14 -129l-136 -676q-135 -54 -213.5 -120.5t-78.5 -141.5q0 -78 92 -78q63 0 137 49zM426 135q102 0 189.5 56t140.5 153l37 188h-101q-215 0 -325.5 -63.5t-110.5 -181.5q0 -76 45 -114t125 -38z" />
    <glyph glyph-name="Cacute" unicode="&#x106;" horiz-adv-x="1372" 
d="M924 1634l-86 70l360 315l164 -127zM1227 139q-83 -71 -212.5 -119.5t-287.5 -48.5q-272 0 -428 158.5t-156 466.5q0 144 34.5 282t105.5 259.5t170.5 213t238.5 144.5t301 53q272 0 426 -147l-73 -195q-140 166 -379 166q-119 0 -220.5 -43t-174 -117t-124 -172
t-76 -209t-24.5 -227q0 -457 402 -457q252 0 462 191z" />
    <glyph glyph-name="cacute" unicode="&#x107;" horiz-adv-x="1048" 
d="M670 1212l-99 60l316 424l172 -107zM887 98q-150 -123 -369 -123q-200 0 -313 113t-113 332q0 128 39.5 249t114 220.5t194.5 160t267 60.5q218 0 321 -123l-63 -164q-97 121 -271 121q-102 0 -183 -45.5t-129 -120t-72.5 -161.5t-24.5 -179q0 -297 270 -297
q176 0 319 127z" />
    <glyph glyph-name="Ccircumflex" unicode="&#x108;" horiz-adv-x="1372" 
d="M1362 1681l-164 -39l-154 230l-253 -230l-175 39l365 306h156zM1227 139q-83 -71 -212.5 -119.5t-287.5 -48.5q-272 0 -428 158.5t-156 466.5q0 144 34.5 282t105.5 259.5t170.5 213t238.5 144.5t301 53q272 0 426 -147l-73 -195q-140 166 -379 166q-119 0 -220.5 -43
t-174 -117t-124 -172t-76 -209t-24.5 -227q0 -457 402 -457q252 0 462 191z" />
    <glyph glyph-name="ccircumflex" unicode="&#x109;" horiz-adv-x="1048" 
d="M1071 1264l-153 -35l-123 317l-256 -317l-160 39l354 399h156zM887 98q-150 -123 -369 -123q-200 0 -313 113t-113 332q0 128 39.5 249t114 220.5t194.5 160t267 60.5q218 0 321 -123l-63 -164q-97 121 -271 121q-102 0 -183 -45.5t-129 -120t-72.5 -161.5t-24.5 -179
q0 -297 270 -297q176 0 319 127z" />
    <glyph glyph-name="Cdotaccent" unicode="&#x10a;" horiz-adv-x="1372" 
d="M901 1704l45 221h221l-45 -221h-221zM1227 139q-83 -71 -212.5 -119.5t-287.5 -48.5q-272 0 -428 158.5t-156 466.5q0 144 34.5 282t105.5 259.5t170.5 213t238.5 144.5t301 53q272 0 426 -147l-73 -195q-140 166 -379 166q-119 0 -220.5 -43t-174 -117t-124 -172
t-76 -209t-24.5 -227q0 -457 402 -457q252 0 462 191z" />
    <glyph glyph-name="cdotaccent" unicode="&#x10b;" horiz-adv-x="1048" 
d="M625 1315l45 221h221l-45 -221h-221zM887 98q-150 -123 -369 -123q-200 0 -313 113t-113 332q0 128 39.5 249t114 220.5t194.5 160t267 60.5q218 0 321 -123l-63 -164q-97 121 -271 121q-102 0 -183 -45.5t-129 -120t-72.5 -161.5t-24.5 -179q0 -297 270 -297
q176 0 319 127z" />
    <glyph glyph-name="Ccaron" unicode="&#x10c;" horiz-adv-x="1372" 
d="M1434 1956l-365 -301h-156l-225 301l164 39l154 -226l254 230zM1227 139q-83 -71 -212.5 -119.5t-287.5 -48.5q-272 0 -428 158.5t-156 466.5q0 144 34.5 282t105.5 259.5t170.5 213t238.5 144.5t301 53q272 0 426 -147l-73 -195q-140 166 -379 166q-119 0 -220.5 -43
t-174 -117t-124 -172t-76 -209t-24.5 -227q0 -457 402 -457q252 0 462 191z" />
    <glyph glyph-name="ccaron" unicode="&#x10d;" horiz-adv-x="1048" 
d="M1141 1622l-353 -385h-155l-180 385l153 39l121 -303l254 307zM887 98q-150 -123 -369 -123q-200 0 -313 113t-113 332q0 128 39.5 249t114 220.5t194.5 160t267 60.5q218 0 321 -123l-63 -164q-97 121 -271 121q-102 0 -183 -45.5t-129 -120t-72.5 -161.5t-24.5 -179
q0 -297 270 -297q176 0 319 127z" />
    <glyph glyph-name="Dcaron" unicode="&#x10e;" horiz-adv-x="1513" 
d="M1346 1956l-365 -301h-156l-225 301l164 39l154 -226l253 230zM1456 924q0 -203 -63.5 -374t-178.5 -292.5t-284.5 -189.5t-374.5 -68h-463l303 1520h410q178 0 304.5 -39t202 -117.5t110 -186t34.5 -253.5zM774 1350h-215l-235 -1178h266q204 0 355.5 100t228.5 267.5
t77 378.5q0 226 -108 329t-369 103z" />
    <glyph glyph-name="dcaron" unicode="&#x10f;" horiz-adv-x="1306" 
d="M1487 1180h-131l139 475h205zM801 0l30 182q-146 -207 -370 -207q-175 0 -272 118t-97 310q0 137 40 263.5t112.5 225.5t183.5 158.5t242 59.5q192 0 301 -139l125 622h188l-319 -1593h-164zM285 426q0 -140 60.5 -211.5t172.5 -71.5q103 0 190 59t142 169l90 444
q-35 62 -101.5 98.5t-152.5 36.5q-92 0 -169 -44t-127 -117t-77.5 -167t-27.5 -196z" />
    <glyph glyph-name="Dcroat" unicode="&#x110;" horiz-adv-x="1546" 
d="M1489 924q0 -203 -63.5 -374t-178.5 -292.5t-284.5 -189.5t-374.5 -68h-463l145 727h-184l31 152h184l127 641h410q178 0 304.5 -39t202 -117.5t110 -186t34.5 -253.5zM844 727h-377l-111 -555h267q204 0 355.5 100t228.5 267.5t77 378.5q0 226 -108 329t-369 103h-215
l-94 -471h376z" />
    <glyph glyph-name="dcroat" unicode="&#x111;" horiz-adv-x="1249" 
d="M801 0l30 182q-146 -207 -370 -207q-175 0 -272 118t-97 310q0 137 40 263.5t112.5 225.5t183.5 158.5t242 59.5q195 0 301 -139l57 284h-315l26 131h316l45 232h188l-47 -232h158l-27 -131h-155l-252 -1255h-164zM285 426q0 -140 60.5 -211.5t172.5 -71.5
q104 0 191.5 59.5t142.5 168.5l88 444q-35 62 -101.5 98.5t-152.5 36.5q-92 0 -169 -44t-127 -117t-77.5 -167t-27.5 -196z" />
    <glyph glyph-name="Emacron" unicode="&#x112;" horiz-adv-x="1269" 
d="M541 1737l30 155h705l-31 -155h-704zM1073 172l-35 -172h-946l303 1520h930l-35 -170h-733l-94 -465h653l-35 -168h-651l-108 -545h751z" />
    <glyph glyph-name="emacron" unicode="&#x113;" horiz-adv-x="1138" 
d="M428 1348l31 155h626l-30 -155h-627zM950 98q-68 -51 -173 -87t-234 -36q-224 0 -337.5 117.5t-113.5 331.5q0 95 22.5 190.5t71 185t117 158.5t168.5 110.5t217 41.5q84 0 150 -22t107.5 -57.5t68 -86t37 -102.5t10.5 -111q0 -130 -47 -229h-727q-2 -23 -2 -66
q0 -149 69.5 -222t225.5 -73q196 0 358 127zM674 954q-135 0 -226.5 -87.5t-132.5 -225.5h545q19 39 19 104q0 95 -48.5 152t-156.5 57z" />
    <glyph glyph-name="Ebreve" unicode="&#x114;" horiz-adv-x="1269" 
d="M600 1974l133 13q-6 -30 -6 -56q0 -143 162 -143q189 0 246 199l145 -13q-43 -167 -150 -249.5t-253 -82.5q-134 0 -208.5 67.5t-74.5 191.5q0 32 6 73zM1073 172l-35 -172h-946l303 1520h930l-35 -170h-733l-94 -465h653l-35 -168h-651l-108 -545h751z" />
    <glyph glyph-name="ebreve" unicode="&#x115;" horiz-adv-x="1138" 
d="M451 1597l133 13q-6 -41 -6 -72q0 -164 155 -164q192 0 252 236l145 -13q-45 -183 -152.5 -275.5t-256.5 -92.5q-131 0 -205 71.5t-74 206.5q0 41 9 90zM950 98q-68 -51 -173 -87t-234 -36q-224 0 -337.5 117.5t-113.5 331.5q0 95 22.5 190.5t71 185t117 158.5
t168.5 110.5t217 41.5q84 0 150 -22t107.5 -57.5t68 -86t37 -102.5t10.5 -111q0 -130 -47 -229h-727q-2 -23 -2 -66q0 -149 69.5 -222t225.5 -73q196 0 358 127zM674 954q-135 0 -226.5 -87.5t-132.5 -225.5h545q19 39 19 104q0 95 -48.5 152t-156.5 57z" />
    <glyph glyph-name="Edotaccent" unicode="&#x116;" horiz-adv-x="1269" 
d="M782 1704l45 221h222l-45 -221h-222zM1073 172l-35 -172h-946l303 1520h930l-35 -170h-733l-94 -465h653l-35 -168h-651l-108 -545h751z" />
    <glyph glyph-name="edotaccent" unicode="&#x117;" horiz-adv-x="1138" 
d="M623 1315l45 221h221l-45 -221h-221zM950 98q-68 -51 -173 -87t-234 -36q-224 0 -337.5 117.5t-113.5 331.5q0 95 22.5 190.5t71 185t117 158.5t168.5 110.5t217 41.5q84 0 150 -22t107.5 -57.5t68 -86t37 -102.5t10.5 -111q0 -130 -47 -229h-727q-2 -23 -2 -66
q0 -149 69.5 -222t225.5 -73q196 0 358 127zM674 954q-135 0 -226.5 -87.5t-132.5 -225.5h545q19 39 19 104q0 95 -48.5 152t-156.5 57z" />
    <glyph glyph-name="Eogonek" unicode="&#x118;" horiz-adv-x="1269" 
d="M532 -299q0 169 226 299h-666l303 1520h930l-35 -170h-733l-94 -465h653l-35 -168h-651l-108 -545h751l-35 -172h-63q-130 -36 -208.5 -104.5t-78.5 -149.5q0 -86 96 -86q68 0 142 49l6 -143q-75 -53 -189 -53q-100 0 -155.5 49.5t-55.5 138.5z" />
    <glyph glyph-name="eogonek" unicode="&#x119;" horiz-adv-x="1138" 
d="M768 -434q-75 -53 -188 -53q-100 0 -155.5 49.5t-55.5 138.5q0 79 44 144.5t142 129.5h-12q-224 0 -337.5 117.5t-113.5 331.5q0 95 22.5 190.5t71 185t117 158.5t168.5 110.5t217 41.5q84 0 150 -22t107.5 -57.5t68 -86t37 -102.5t10.5 -111q0 -130 -47 -229h-727
q-2 -23 -2 -66q0 -149 69.5 -222t225.5 -73q196 0 358 127l12 -170q-65 -51 -143 -75q-144 -69 -213.5 -134.5t-69.5 -142.5q0 -86 97 -86q67 0 141 49zM674 954q-135 0 -226.5 -87.5t-132.5 -225.5h545q19 39 19 104q0 95 -48.5 152t-156.5 57z" />
    <glyph glyph-name="Ecaron" unicode="&#x11a;" horiz-adv-x="1269" 
d="M1315 1956l-365 -301h-155l-226 301l164 39l154 -226l254 230zM1073 172l-35 -172h-946l303 1520h930l-35 -170h-733l-94 -465h653l-35 -168h-651l-108 -545h751z" />
    <glyph glyph-name="ecaron" unicode="&#x11b;" horiz-adv-x="1138" 
d="M1143 1622l-352 -385h-156l-180 385l153 39l121 -303l254 307zM950 98q-68 -51 -173 -87t-234 -36q-224 0 -337.5 117.5t-113.5 331.5q0 95 22.5 190.5t71 185t117 158.5t168.5 110.5t217 41.5q84 0 150 -22t107.5 -57.5t68 -86t37 -102.5t10.5 -111q0 -130 -47 -229
h-727q-2 -23 -2 -66q0 -149 69.5 -222t225.5 -73q196 0 358 127zM674 954q-135 0 -226.5 -87.5t-132.5 -225.5h545q19 39 19 104q0 95 -48.5 152t-156.5 57z" />
    <glyph glyph-name="Gcircumflex" unicode="&#x11c;" horiz-adv-x="1515" 
d="M1378 1681l-164 -39l-153 230l-254 -230l-174 39l364 306h156zM1276 131q-87 -67 -226 -113.5t-305 -46.5q-287 0 -444.5 157t-157.5 470q0 145 34 282t105.5 258.5t173 212.5t246 144t314.5 53q296 0 465 -147l-74 -195q-69 74 -175.5 120t-242.5 46q-126 0 -232.5 -43
t-181 -116.5t-126.5 -171.5t-76.5 -208t-24.5 -227q0 -233 104.5 -346t321.5 -113q181 0 336 74l84 418h-410l35 168h592z" />
    <glyph glyph-name="gcircumflex" unicode="&#x11d;" horiz-adv-x="1245" 
d="M1100 1264l-154 -35l-123 317l-256 -317l-159 39l354 399h156zM965 0q-51 -252 -192 -363.5t-370 -111.5q-258 0 -409 121l53 166q63 -55 161 -88t214 -33q147 0 233 68.5t121 244.5l29 146q-142 -175 -344 -175q-175 0 -272 118t-97 310q0 109 25 212.5t74.5 193
t118 157t161 106t197.5 38.5q207 0 311 -162l39 137h164zM285 426q0 -140 60.5 -211.5t172.5 -71.5q104 0 191 60t139 164l88 436q-34 70 -100 108.5t-152 38.5q-121 0 -214 -75.5t-139 -193.5t-46 -255z" />
    <glyph glyph-name="Gbreve" unicode="&#x11e;" horiz-adv-x="1515" 
d="M735 1974l133 13q-6 -30 -6 -56q0 -143 162 -143q189 0 246 199l145 -13q-43 -167 -150 -249.5t-253 -82.5q-134 0 -208.5 67.5t-74.5 191.5q0 32 6 73zM1276 131q-87 -67 -226 -113.5t-305 -46.5q-287 0 -444.5 157t-157.5 470q0 145 34 282t105.5 258.5t173 212.5
t246 144t314.5 53q296 0 465 -147l-74 -195q-69 74 -175.5 120t-242.5 46q-126 0 -232.5 -43t-181 -116.5t-126.5 -171.5t-76.5 -208t-24.5 -227q0 -233 104.5 -346t321.5 -113q181 0 336 74l84 418h-410l35 168h592z" />
    <glyph glyph-name="gbreve" unicode="&#x11f;" horiz-adv-x="1245" 
d="M487 1597l134 13q-7 -47 -7 -72q0 -164 156 -164q192 0 252 236l145 -13q-45 -183 -152.5 -275.5t-256.5 -92.5q-131 0 -205 71.5t-74 206.5q0 46 8 90zM965 0q-51 -252 -192 -363.5t-370 -111.5q-258 0 -409 121l53 166q63 -55 161 -88t214 -33q147 0 233 68.5
t121 244.5l29 146q-142 -175 -344 -175q-175 0 -272 118t-97 310q0 109 25 212.5t74.5 193t118 157t161 106t197.5 38.5q207 0 311 -162l39 137h164zM285 426q0 -140 60.5 -211.5t172.5 -71.5q104 0 191 60t139 164l88 436q-34 70 -100 108.5t-152 38.5q-121 0 -214 -75.5
t-139 -193.5t-46 -255z" />
    <glyph glyph-name="Gdotaccent" unicode="&#x120;" horiz-adv-x="1515" 
d="M918 1704l45 221h221l-45 -221h-221zM1276 131q-87 -67 -226 -113.5t-305 -46.5q-287 0 -444.5 157t-157.5 470q0 145 34 282t105.5 258.5t173 212.5t246 144t314.5 53q296 0 465 -147l-74 -195q-69 74 -175.5 120t-242.5 46q-126 0 -232.5 -43t-181 -116.5
t-126.5 -171.5t-76.5 -208t-24.5 -227q0 -233 104.5 -346t321.5 -113q181 0 336 74l84 418h-410l35 168h592z" />
    <glyph glyph-name="gdotaccent" unicode="&#x121;" horiz-adv-x="1245" 
d="M668 1315l45 221h221l-45 -221h-221zM965 0q-51 -252 -192 -363.5t-370 -111.5q-258 0 -409 121l53 166q63 -55 161 -88t214 -33q147 0 233 68.5t121 244.5l29 146q-142 -175 -344 -175q-175 0 -272 118t-97 310q0 109 25 212.5t74.5 193t118 157t161 106t197.5 38.5
q207 0 311 -162l39 137h164zM285 426q0 -140 60.5 -211.5t172.5 -71.5q104 0 191 60t139 164l88 436q-34 70 -100 108.5t-152 38.5q-121 0 -214 -75.5t-139 -193.5t-46 -255z" />
    <glyph glyph-name="uni0122" unicode="&#x122;" horiz-adv-x="1515" 
d="M1276 131q-87 -67 -226 -113.5t-305 -46.5q-287 0 -444.5 157t-157.5 470q0 145 34 282t105.5 258.5t173 212.5t246 144t314.5 53q296 0 465 -147l-74 -195q-69 74 -175.5 120t-242.5 46q-126 0 -232.5 -43t-181 -116.5t-126.5 -171.5t-76.5 -208t-24.5 -227
q0 -233 104.5 -346t321.5 -113q181 0 336 74l84 418h-410l35 168h592zM588 -500l-139 35q152 167 169 346h185q-39 -234 -215 -381z" />
    <glyph glyph-name="uni0123" unicode="&#x123;" horiz-adv-x="1245" 
d="M852 1655l139 -35q-129 -165 -143 -346h-184q33 232 188 381zM965 0q-51 -252 -192 -363.5t-370 -111.5q-258 0 -409 121l53 166q63 -55 161 -88t214 -33q147 0 233 68.5t121 244.5l29 146q-142 -175 -344 -175q-175 0 -272 118t-97 310q0 109 25 212.5t74.5 193t118 157
t161 106t197.5 38.5q207 0 311 -162l39 137h164zM285 426q0 -140 60.5 -211.5t172.5 -71.5q104 0 191 60t139 164l88 436q-34 70 -100 108.5t-152 38.5q-121 0 -214 -75.5t-139 -193.5t-46 -255z" />
    <glyph glyph-name="Hcircumflex" unicode="&#x124;" horiz-adv-x="1523" 
d="M1339 1681l-163 -39l-154 230l-254 -230l-174 39l364 306h156zM1018 0l143 717h-729l-143 -717h-197l303 1520h197l-127 -635h729l127 635h197l-304 -1520h-196z" />
    <glyph glyph-name="hcircumflex" unicode="&#x125;" horiz-adv-x="1212" 
d="M1184 1681l-164 -39l-154 230l-254 -230l-174 39l365 306h155zM391 696l-139 -696h-189l320 1593h188l-139 -682q155 199 367 199q129 0 210 -75.5t81 -227.5q0 -61 -15 -131l-135 -676h-188l135 676q12 58 12 104q0 158 -151 158q-102 0 -201 -64.5t-156 -177.5z" />
    <glyph glyph-name="Hbar" unicode="&#x126;" horiz-adv-x="1548" 
d="M1030 0l144 717h-730l-143 -717h-197l226 1126h-166l26 136h166l52 258h196l-51 -258h729l51 258h197l-51 -258h161l-26 -136h-162l-225 -1126h-197zM477 885h729l49 241h-729z" />
    <glyph glyph-name="hbar" unicode="&#x127;" horiz-adv-x="1216" 
d="M395 696l-139 -696h-188l251 1255h-155l26 131h154l47 232h189l-48 -232h322l-27 -131h-321l-70 -344q155 199 367 199q129 0 210 -75.5t81 -227.5q0 -61 -15 -131l-135 -676h-188l135 676q12 58 12 104q0 158 -151 158q-102 0 -201 -64.5t-156 -177.5z" />
    <glyph glyph-name="Itilde" unicode="&#x128;" horiz-adv-x="598" 
d="M250 1651l-133 12q63 301 262 301q88 0 188 -78q90 -71 140 -71q89 0 124 163l134 -12q-63 -301 -263 -301q-88 0 -188 78q-31 24 -48 36.5t-43 24t-48 11.5q-89 0 -125 -164zM92 0l303 1520h197l-303 -1520h-197z" />
    <glyph glyph-name="itilde" unicode="&#x129;" horiz-adv-x="548" 
d="M197 1262l-134 12q28 148 88.5 224.5t149.5 76.5q86 0 172 -78q26 -23 40 -34.5t37.5 -24.5t41.5 -13q75 0 104 164l133 -12q-57 -301 -237 -301q-86 0 -172 78q-25 23 -40.5 35t-38 24t-40.5 12q-76 0 -104 -163zM72 0l217 1085h188l-217 -1085h-188z" />
    <glyph glyph-name="Imacron" unicode="&#x12a;" horiz-adv-x="598" 
d="M174 1737l31 155h704l-30 -155h-705zM92 0l303 1520h197l-303 -1520h-197z" />
    <glyph glyph-name="imacron" unicode="&#x12b;" horiz-adv-x="548" 
d="M162 1348l31 155h548l-30 -155h-549zM72 0l217 1085h188l-217 -1085h-188z" />
    <glyph glyph-name="Ibreve" unicode="&#x12c;" horiz-adv-x="598" 
d="M233 1974l134 13q-7 -35 -7 -56q0 -143 162 -143q189 0 246 199l145 -13q-43 -167 -150 -249.5t-253 -82.5q-134 0 -208.5 67.5t-74.5 191.5q0 32 6 73zM92 0l303 1520h197l-303 -1520h-197z" />
    <glyph glyph-name="ibreve" unicode="&#x12d;" horiz-adv-x="548" 
d="M166 1597l133 13q-8 -47 -8 -84q0 -154 135 -154q82 0 142.5 58t90.5 180l146 -13q-45 -183 -146 -275.5t-243 -92.5q-123 0 -190.5 69.5t-67.5 200.5q0 51 8 98zM72 0l217 1085h188l-217 -1085h-188z" />
    <glyph glyph-name="Iogonek" unicode="&#x12e;" horiz-adv-x="598" 
d="M-98 -299q0 89 56 160t163 139h-29l303 1520h197l-303 -1520q-105 -56 -168.5 -118t-63.5 -136q0 -86 97 -86q67 0 141 49l6 -143q-75 -53 -188 -53q-100 0 -155.5 49.5t-55.5 138.5z" />
    <glyph glyph-name="iogonek" unicode="&#x12f;" horiz-adv-x="540" 
d="M313 1315l45 221h222l-45 -221h-222zM-127 -299q0 89 56 160t163 139h-24l217 1085h188l-217 -1085q-102 -57 -164.5 -118.5t-62.5 -135.5q0 -86 96 -86q67 0 141 49l6 -143q-75 -53 -188 -53q-100 0 -155.5 49.5t-55.5 138.5z" />
    <glyph glyph-name="Idotaccent" unicode="&#x130;" horiz-adv-x="598" 
d="M416 1704l45 221h221l-45 -221h-221zM92 0l303 1520h197l-303 -1520h-197z" />
    <glyph glyph-name="dotlessi" unicode="&#x131;" horiz-adv-x="540" 
d="M68 0l217 1085h188l-217 -1085h-188z" />
    <glyph glyph-name="IJ" unicode="&#x132;" horiz-adv-x="1443" 
d="M92 0l303 1520h197l-303 -1520h-197zM494 29l51 180q108 -62 207 -62q116 0 188 76.5t109 261.5l206 1035h197l-207 -1035q-29 -147 -76 -248t-112 -159t-140.5 -82.5t-173.5 -24.5q-131 0 -249 58z" />
    <glyph glyph-name="ij" unicode="&#x133;" horiz-adv-x="1097" 
d="M313 1315l45 221h222l-45 -221h-222zM874 1315l46 221h221l-45 -221h-222zM68 0l217 1085h188l-217 -1085h-188zM217 -434l49 172q64 -37 137 -37q80 0 133.5 54t79.5 184l230 1146h188l-229 -1146q-44 -219 -149 -314.5t-263 -95.5q-100 0 -176 37z" />
    <glyph glyph-name="Jcircumflex" unicode="&#x134;" horiz-adv-x="845" 
d="M1139 1681l-164 -39l-154 230l-254 -230l-174 39l365 306h155zM-104 29l51 180q108 -62 207 -62q116 0 188 76.5t109 261.5l206 1035h197l-207 -1035q-29 -147 -76 -248t-112 -159t-140.5 -82.5t-173.5 -24.5q-131 0 -249 58z" />
    <glyph glyph-name="jcircumflex" unicode="&#x135;" horiz-adv-x="557" 
d="M762 1264l-154 -35l-123 317l-256 -317l-159 39l354 399h156zM-324 -434l50 172q64 -37 137 -37q80 0 133.5 54t79.5 184l229 1146h189l-230 -1146q-44 -219 -148.5 -314.5t-262.5 -95.5q-101 0 -177 37z" />
    <glyph glyph-name="uni0136" unicode="&#x136;" horiz-adv-x="1351" 
d="M1012 0l-434 707l-179 -152l-110 -555h-197l303 1520h197l-148 -738l816 738h264v-4l-809 -691l526 -821v-4h-229zM475 -500l-139 35q153 168 170 346h184q-39 -234 -215 -381z" />
    <glyph glyph-name="uni0137" unicode="&#x137;" horiz-adv-x="1126" 
d="M793 0l-314 510l-149 -123l-78 -387h-189l320 1593h188l-202 -1007l551 499h254v-4l-566 -465l406 -612v-4h-221zM354 -500l-139 35q153 168 170 346h184q-39 -234 -215 -381z" />
    <glyph glyph-name="kgreenlandic" unicode="&#x138;" horiz-adv-x="1126" 
d="M793 0l-314 510l-149 -123l-78 -387h-189l218 1085h188l-100 -499l551 499h254v-4l-566 -465l406 -612v-4h-221z" />
    <glyph glyph-name="Lacute" unicode="&#x139;" horiz-adv-x="1118" 
d="M504 1634l-86 70l360 315l164 -127zM1020 172l-35 -172h-893l303 1520h197l-270 -1348h698z" />
    <glyph glyph-name="lacute" unicode="&#x13a;" horiz-adv-x="540" 
d="M410 1634l-86 70l360 315l164 -127zM68 0l319 1593h188l-319 -1593h-188z" />
    <glyph glyph-name="uni013B" unicode="&#x13b;" horiz-adv-x="1118" 
d="M1020 172l-35 -172h-893l303 1520h197l-270 -1348h698zM406 -500l-140 35q153 168 170 346h185q-39 -234 -215 -381z" />
    <glyph glyph-name="uni013C" unicode="&#x13c;" horiz-adv-x="540" 
d="M68 0l319 1593h188l-319 -1593h-188zM16 -500l-139 35q153 168 170 346h184q-39 -234 -215 -381z" />
    <glyph glyph-name="Lcaron" unicode="&#x13d;" horiz-adv-x="1118" 
d="M856 1118h-131l139 475h205zM1020 172l-35 -172h-893l303 1520h197l-270 -1348h698z" />
    <glyph glyph-name="lcaron" unicode="&#x13e;" horiz-adv-x="602" 
d="M782 1180h-131l140 475h204zM68 0l319 1593h188l-319 -1593h-188z" />
    <glyph glyph-name="Ldot" unicode="&#x13f;" horiz-adv-x="1118" 
d="M1020 172l-35 -172h-893l303 1520h197l-270 -1348h698zM764 686l55 270h246l-55 -270h-246z" />
    <glyph glyph-name="ldot" unicode="&#x140;" horiz-adv-x="786" 
d="M68 0l319 1593h188l-319 -1593h-188zM563 657l55 271h246l-55 -271h-246z" />
    <glyph glyph-name="Lslash" unicode="&#x141;" horiz-adv-x="1142" 
d="M1040 172l-34 -172h-893l120 602l-208 -94l32 166l209 94l150 752h196l-135 -672l504 229l-33 -166l-504 -229l-102 -510h698z" />
    <glyph glyph-name="lslash" unicode="&#x142;" horiz-adv-x="622" 
d="M674 926l-215 -119l-162 -807h-188l145 723l-207 -115l33 164l207 115l141 706h188l-124 -622l215 119z" />
    <glyph glyph-name="Nacute" unicode="&#x143;" horiz-adv-x="1556" 
d="M920 1634l-86 70l360 315l164 -127zM1047 0l-525 1227l-246 -1227h-184l303 1520h201l524 -1227l246 1227h184l-303 -1520h-200z" />
    <glyph glyph-name="nacute" unicode="&#x144;" horiz-adv-x="1212" 
d="M705 1212l-99 60l316 424l172 -107zM391 696l-139 -696h-189l218 1085h163l-30 -192q72 99 170 158t215 59q129 0 210 -75.5t81 -227.5q0 -61 -15 -131l-135 -676h-188l135 676q12 58 12 104q0 158 -151 158q-102 0 -201 -64.5t-156 -177.5z" />
    <glyph glyph-name="uni0145" unicode="&#x145;" horiz-adv-x="1556" 
d="M1047 0l-525 1227l-246 -1227h-184l303 1520h201l524 -1227l246 1227h184l-303 -1520h-200zM539 -500l-140 35q153 168 170 346h185q-39 -234 -215 -381z" />
    <glyph glyph-name="uni0146" unicode="&#x146;" horiz-adv-x="1212" 
d="M391 696l-139 -696h-189l218 1085h163l-30 -192q72 99 170 158t215 59q129 0 210 -75.5t81 -227.5q0 -61 -15 -131l-135 -676h-188l135 676q12 58 12 104q0 158 -151 158q-102 0 -201 -64.5t-156 -177.5zM369 -500l-140 35q153 168 170 346h185q-39 -234 -215 -381z" />
    <glyph glyph-name="Ncaron" unicode="&#x147;" horiz-adv-x="1556" 
d="M1430 1956l-365 -301h-156l-225 301l164 39l153 -226l254 230zM1047 0l-525 1227l-246 -1227h-184l303 1520h201l524 -1227l246 1227h184l-303 -1520h-200z" />
    <glyph glyph-name="ncaron" unicode="&#x148;" horiz-adv-x="1212" 
d="M1165 1622l-352 -385h-156l-180 385l154 39l121 -303l254 307zM391 696l-139 -696h-189l218 1085h163l-30 -192q72 99 170 158t215 59q129 0 210 -75.5t81 -227.5q0 -61 -15 -131l-135 -676h-188l135 676q12 58 12 104q0 158 -151 158q-102 0 -201 -64.5t-156 -177.5z
" />
    <glyph glyph-name="Eng" unicode="&#x14a;" horiz-adv-x="1556" 
d="M1253 31q-29 -143 -74.5 -242t-108.5 -155.5t-136 -80.5t-168 -24q-128 0 -240 55l47 172q98 -59 199 -59q105 0 174.5 66.5t106.5 236.5l-529 1237l-248 -1237h-184l303 1520h201l524 -1227l246 1227h184z" />
    <glyph glyph-name="eng" unicode="&#x14b;" horiz-adv-x="1212" 
d="M928 -61q-44 -219 -149 -314.5t-263 -95.5q-100 0 -176 37l45 168q64 -37 137 -37q81 0 135 51t80 180l150 748q12 58 12 104q0 158 -151 158q-102 0 -201 -64.5t-156 -177.5l-139 -696h-189l218 1085h163l-30 -192q72 99 170 158t215 59q129 0 210 -75.5t81 -227.5
q0 -61 -15 -131z" />
    <glyph glyph-name="Omacron" unicode="&#x14c;" horiz-adv-x="1548" 
d="M649 1737l31 155h704l-30 -155h-705zM686 -29q-255 0 -399 157t-144 439q0 145 32.5 285.5t99.5 266.5t161 221.5t226 151.5t286 56q255 0 399 -157t144 -439q0 -145 -32.5 -285.5t-99.5 -266.5t-161 -221.5t-226 -151.5t-286 -56zM705 147q111 0 207 47.5t163.5 126
t116 181t71.5 213.5t23 221q0 216 -92 326t-264 110q-111 0 -207 -47t-163.5 -126t-116 -181t-72 -213t-23.5 -221q0 -216 92.5 -326.5t264.5 -110.5z" />
    <glyph glyph-name="omacron" unicode="&#x14d;" horiz-adv-x="1196" 
d="M438 1348l31 155h627l-31 -155h-627zM510 -25q-189 0 -303.5 114t-114.5 331q0 100 24.5 199t75 187.5t120.5 156t166.5 107.5t207.5 40q189 0 303.5 -113.5t114.5 -330.5q0 -100 -24.5 -199t-75 -187.5t-120.5 -156.5t-166.5 -108t-207.5 -40zM526 137q74 0 137.5 30.5
t108 81.5t76.5 117.5t47.5 139t15.5 145.5q0 146 -63 221.5t-178 75.5q-74 0 -137.5 -30.5t-108 -81.5t-76.5 -117.5t-47.5 -139t-15.5 -145.5q0 -146 63 -221.5t178 -75.5z" />
    <glyph glyph-name="Obreve" unicode="&#x14e;" horiz-adv-x="1548" 
d="M709 1974l133 13q-6 -30 -6 -56q0 -143 161 -143q189 0 246 199l146 -13q-43 -167 -150.5 -249.5t-253.5 -82.5q-134 0 -208.5 67.5t-74.5 191.5q0 26 7 73zM686 -29q-255 0 -399 157t-144 439q0 145 32.5 285.5t99.5 266.5t161 221.5t226 151.5t286 56q255 0 399 -157
t144 -439q0 -145 -32.5 -285.5t-99.5 -266.5t-161 -221.5t-226 -151.5t-286 -56zM705 147q111 0 207 47.5t163.5 126t116 181t71.5 213.5t23 221q0 216 -92 326t-264 110q-111 0 -207 -47t-163.5 -126t-116 -181t-72 -213t-23.5 -221q0 -216 92.5 -326.5t264.5 -110.5z" />
    <glyph glyph-name="obreve" unicode="&#x14f;" horiz-adv-x="1196" 
d="M461 1597l133 13q-6 -41 -6 -72q0 -164 155 -164q192 0 252 236l146 -13q-45 -182 -153 -275t-257 -93q-131 0 -204.5 71.5t-73.5 206.5q0 46 8 90zM510 -25q-189 0 -303.5 114t-114.5 331q0 100 24.5 199t75 187.5t120.5 156t166.5 107.5t207.5 40q189 0 303.5 -113.5
t114.5 -330.5q0 -100 -24.5 -199t-75 -187.5t-120.5 -156.5t-166.5 -108t-207.5 -40zM526 137q74 0 137.5 30.5t108 81.5t76.5 117.5t47.5 139t15.5 145.5q0 146 -63 221.5t-178 75.5q-74 0 -137.5 -30.5t-108 -81.5t-76.5 -117.5t-47.5 -139t-15.5 -145.5q0 -146 63 -221.5
t178 -75.5z" />
    <glyph glyph-name="Ohungarumlaut" unicode="&#x150;" horiz-adv-x="1548" 
d="M807 1634l-90 58l307 327l162 -110zM1188 1634l-90 58l307 327l162 -110zM686 -29q-255 0 -399 157t-144 439q0 145 32.5 285.5t99.5 266.5t161 221.5t226 151.5t286 56q255 0 399 -157t144 -439q0 -145 -32.5 -285.5t-99.5 -266.5t-161 -221.5t-226 -151.5t-286 -56z
M705 147q111 0 207 47.5t163.5 126t116 181t71.5 213.5t23 221q0 216 -92 326t-264 110q-111 0 -207 -47t-163.5 -126t-116 -181t-72 -213t-23.5 -221q0 -216 92.5 -326.5t264.5 -110.5z" />
    <glyph glyph-name="ohungarumlaut" unicode="&#x151;" horiz-adv-x="1196" 
d="M547 1225l-86 57l303 414l160 -103zM915 1225l-86 57l304 414l159 -103zM510 -25q-189 0 -303.5 114t-114.5 331q0 100 24.5 199t75 187.5t120.5 156t166.5 107.5t207.5 40q189 0 303.5 -113.5t114.5 -330.5q0 -100 -24.5 -199t-75 -187.5t-120.5 -156.5t-166.5 -108
t-207.5 -40zM526 137q74 0 137.5 30.5t108 81.5t76.5 117.5t47.5 139t15.5 145.5q0 146 -63 221.5t-178 75.5q-74 0 -137.5 -30.5t-108 -81.5t-76.5 -117.5t-47.5 -139t-15.5 -145.5q0 -146 63 -221.5t178 -75.5z" />
    <glyph glyph-name="OE" unicode="&#x152;" horiz-adv-x="2162" 
d="M1931 0h-950q-107 -29 -233 -29q-286 0 -443.5 167.5t-157.5 463.5q0 139 32 272t101 255.5t168.5 215.5t245 148t318.5 55q123 0 221 -28h985l-35 -170h-733l-94 -465h653l-35 -168h-651l-109 -545h752zM352 608q0 -469 441 -469q137 0 229 45l229 1143q-104 53 -250 53
q-131 0 -241 -46t-184 -122t-125.5 -177t-75 -208.5t-23.5 -218.5z" />
    <glyph glyph-name="oe" unicode="&#x153;" horiz-adv-x="1929" 
d="M1741 98q-68 -51 -173.5 -87t-234.5 -36q-297 0 -397 211q-169 -211 -428 -211q-187 0 -301.5 114t-114.5 331q0 100 24.5 199t74.5 187.5t119 156t165.5 107.5t206.5 40q125 0 217 -53.5t141 -159.5q76 99 187.5 156t251.5 57q84 0 150 -22t107 -57.5t67.5 -86
t37 -102.5t10.5 -111q0 -130 -47 -229h-727q-2 -23 -2 -66q0 -149 69.5 -222t225.5 -73q197 0 359 127zM1464 954q-135 0 -226 -87.5t-132 -225.5h545q18 37 18 104q0 95 -48.5 152t-156.5 57zM524 137q91 0 165 46t119.5 121t70 165t24.5 182q0 147 -61 222t-176 75
q-73 0 -136 -30.5t-107.5 -81.5t-76 -117.5t-46.5 -139t-15 -145.5q0 -146 62.5 -221.5t176.5 -75.5z" />
    <glyph glyph-name="Racute" unicode="&#x154;" horiz-adv-x="1380" 
d="M791 1634l-86 70l360 315l164 -127zM715 590h-307l-119 -590h-197l303 1520h459q233 0 350 -103.5t117 -290.5t-110.5 -326t-309.5 -188l340 -612h-213zM819 1350h-260l-119 -596h273q201 0 304 97.5t103 252.5q0 127 -75.5 186.5t-225.5 59.5z" />
    <glyph glyph-name="racute" unicode="&#x155;" horiz-adv-x="819" 
d="M498 1212l-99 60l316 424l172 -107zM381 645l-129 -645h-189l218 1085h163l-34 -211q133 232 356 232q78 0 123 -25l-53 -180q-48 25 -117 25q-108 0 -200.5 -72t-137.5 -209z" />
    <glyph glyph-name="uni0156" unicode="&#x156;" horiz-adv-x="1380" 
d="M715 590h-307l-119 -590h-197l303 1520h459q233 0 350 -103.5t117 -290.5t-110.5 -326t-309.5 -188l340 -612h-213zM819 1350h-260l-119 -596h273q201 0 304 97.5t103 252.5q0 127 -75.5 186.5t-225.5 59.5zM479 -500l-139 35q153 168 170 346h184q-39 -234 -215 -381z
" />
    <glyph glyph-name="uni0157" unicode="&#x157;" horiz-adv-x="819" 
d="M381 645l-129 -645h-189l218 1085h163l-34 -211q133 232 356 232q78 0 123 -25l-53 -180q-48 25 -117 25q-108 0 -200.5 -72t-137.5 -209zM8 -500l-139 35q153 168 170 346h184q-39 -234 -215 -381z" />
    <glyph glyph-name="Rcaron" unicode="&#x158;" horiz-adv-x="1380" 
d="M1300 1956l-364 -301h-156l-225 301l164 39l153 -226l254 230zM715 590h-307l-119 -590h-197l303 1520h459q233 0 350 -103.5t117 -290.5t-110.5 -326t-309.5 -188l340 -612h-213zM819 1350h-260l-119 -596h273q201 0 304 97.5t103 252.5q0 127 -75.5 186.5t-225.5 59.5z
" />
    <glyph glyph-name="rcaron" unicode="&#x159;" horiz-adv-x="819" 
d="M983 1622l-352 -385h-156l-180 385l154 39l120 -303l254 307zM381 645l-129 -645h-189l218 1085h163l-34 -211q133 232 356 232q78 0 123 -25l-53 -180q-48 25 -117 25q-108 0 -200.5 -72t-137.5 -209z" />
    <glyph glyph-name="Sacute" unicode="&#x15a;" horiz-adv-x="1208" 
d="M758 1634l-86 70l360 315l164 -127zM14 129l68 186q95 -77 211 -122.5t237 -45.5q167 0 259 83.5t92 207.5q0 33 -8 60.5t-18 47t-33.5 38.5t-40.5 30t-54.5 26t-59 22.5t-69.5 23.5q-53 18 -89 32t-81.5 37t-75 50t-57 64t-40.5 86.5t-13 109.5q0 99 37.5 186
t106.5 153.5t176.5 105t238.5 38.5q240 0 409 -127l-67 -186q-168 137 -371 137q-161 0 -247.5 -81.5t-86.5 -203.5q0 -36 7.5 -64.5t27.5 -51t39 -37.5t58.5 -31.5t68 -26.5t84.5 -28q44 -14 76.5 -26t72.5 -31t68 -39.5t57 -50t46.5 -63.5t28.5 -80t11 -99
q0 -103 -38.5 -192t-111.5 -155t-185 -103.5t-252 -37.5q-272 0 -482 158z" />
    <glyph glyph-name="sacute" unicode="&#x15b;" horiz-adv-x="966" 
d="M586 1212l-99 60l316 424l172 -107zM14 98l60 162q156 -123 334 -123q113 0 176 48t63 118q0 28 -12 50.5t-27.5 37.5t-47.5 30t-54.5 22.5t-65.5 21.5q-48 15 -78 27t-70.5 36t-64 51.5t-40.5 71.5t-17 99q0 161 120.5 260.5t311.5 99.5q184 0 316 -98l-60 -162
q-128 98 -272 98q-112 0 -173 -50t-61 -120q0 -24 7 -43.5t23.5 -35.5t32 -27.5t44.5 -23.5t48.5 -19t55.5 -19q47 -16 78 -28.5t70.5 -36t62 -51t39 -70.5t16.5 -96q0 -157 -121.5 -255t-324.5 -98q-209 0 -369 123z" />
    <glyph glyph-name="Scircumflex" unicode="&#x15c;" horiz-adv-x="1208" 
d="M1196 1681l-164 -39l-153 230l-254 -230l-174 39l364 306h156zM14 129l68 186q95 -77 211 -122.5t237 -45.5q167 0 259 83.5t92 207.5q0 33 -8 60.5t-18 47t-33.5 38.5t-40.5 30t-54.5 26t-59 22.5t-69.5 23.5q-53 18 -89 32t-81.5 37t-75 50t-57 64t-40.5 86.5
t-13 109.5q0 99 37.5 186t106.5 153.5t176.5 105t238.5 38.5q240 0 409 -127l-67 -186q-168 137 -371 137q-161 0 -247.5 -81.5t-86.5 -203.5q0 -36 7.5 -64.5t27.5 -51t39 -37.5t58.5 -31.5t68 -26.5t84.5 -28q44 -14 76.5 -26t72.5 -31t68 -39.5t57 -50t46.5 -63.5
t28.5 -80t11 -99q0 -103 -38.5 -192t-111.5 -155t-185 -103.5t-252 -37.5q-272 0 -482 158z" />
    <glyph glyph-name="scircumflex" unicode="&#x15d;" horiz-adv-x="966" 
d="M967 1264l-154 -35l-123 317l-256 -317l-160 39l355 399h155zM14 98l60 162q156 -123 334 -123q113 0 176 48t63 118q0 28 -12 50.5t-27.5 37.5t-47.5 30t-54.5 22.5t-65.5 21.5q-48 15 -78 27t-70.5 36t-64 51.5t-40.5 71.5t-17 99q0 161 120.5 260.5t311.5 99.5
q184 0 316 -98l-60 -162q-128 98 -272 98q-112 0 -173 -50t-61 -120q0 -24 7 -43.5t23.5 -35.5t32 -27.5t44.5 -23.5t48.5 -19t55.5 -19q47 -16 78 -28.5t70.5 -36t62 -51t39 -70.5t16.5 -96q0 -157 -121.5 -255t-324.5 -98q-209 0 -369 123z" />
    <glyph glyph-name="Scedilla" unicode="&#x15e;" horiz-adv-x="1208" 
d="M705 -256q0 -108 -82 -169.5t-224 -61.5q-112 0 -202 36l49 138q76 -39 170 -39q63 0 100 24t37 64q0 18 -10.5 32t-53.5 33t-122 37l79 135q-237 10 -432 156l68 186q95 -77 211 -122.5t237 -45.5q167 0 259 83.5t92 207.5q0 33 -8 60.5t-18 47t-33.5 38.5t-40.5 30
t-54.5 26t-59 22.5t-69.5 23.5q-53 18 -89 32t-81.5 37t-75 50t-57 64t-40.5 86.5t-13 109.5q0 99 37.5 186t106.5 153.5t176.5 105t238.5 38.5q240 0 409 -127l-67 -186q-168 137 -371 137q-161 0 -247.5 -81.5t-86.5 -203.5q0 -36 7.5 -64.5t27.5 -51t39 -37.5t58.5 -31.5
t68 -26.5t84.5 -28q44 -14 76.5 -26t72.5 -31t68 -39.5t57 -50t46.5 -63.5t28.5 -80t11 -99q0 -202 -138.5 -336.5t-389.5 -149.5l-35 -53q111 -37 148 -76.5t37 -99.5z" />
    <glyph glyph-name="scedilla" unicode="&#x15f;" horiz-adv-x="966" 
d="M578 -256q0 -108 -82 -169.5t-224 -61.5q-112 0 -202 36l49 138q76 -39 170 -39q63 0 100 24t37 64q0 18 -10.5 32t-53.5 33t-122 37l84 139q-166 13 -310 121l60 162q156 -123 334 -123q113 0 176 48t63 118q0 28 -12 50.5t-27.5 37.5t-47.5 30t-54.5 22.5t-65.5 21.5
q-48 15 -78 27t-70.5 36t-64 51.5t-40.5 71.5t-17 99q0 161 120.5 260.5t311.5 99.5q184 0 316 -98l-60 -162q-128 98 -272 98q-112 0 -173 -50t-61 -120q0 -24 7 -43.5t23.5 -35.5t32 -27.5t44.5 -23.5t48.5 -19t55.5 -19q47 -16 78 -28.5t70.5 -36t62 -51t39 -70.5
t16.5 -96q0 -147 -107 -243t-290 -108l-39 -57q111 -37 148 -76.5t37 -99.5z" />
    <glyph glyph-name="Scaron" unicode="&#x160;" horiz-adv-x="1208" 
d="M1268 1956l-365 -301h-155l-226 301l164 39l154 -226l254 230zM14 129l68 186q95 -77 211 -122.5t237 -45.5q167 0 259 83.5t92 207.5q0 33 -8 60.5t-18 47t-33.5 38.5t-40.5 30t-54.5 26t-59 22.5t-69.5 23.5q-53 18 -89 32t-81.5 37t-75 50t-57 64t-40.5 86.5
t-13 109.5q0 99 37.5 186t106.5 153.5t176.5 105t238.5 38.5q240 0 409 -127l-67 -186q-168 137 -371 137q-161 0 -247.5 -81.5t-86.5 -203.5q0 -36 7.5 -64.5t27.5 -51t39 -37.5t58.5 -31.5t68 -26.5t84.5 -28q44 -14 76.5 -26t72.5 -31t68 -39.5t57 -50t46.5 -63.5
t28.5 -80t11 -99q0 -103 -38.5 -192t-111.5 -155t-185 -103.5t-252 -37.5q-272 0 -482 158z" />
    <glyph glyph-name="scaron" unicode="&#x161;" horiz-adv-x="966" 
d="M1047 1622l-353 -385h-155l-181 385l154 39l121 -303l254 307zM14 98l60 162q156 -123 334 -123q113 0 176 48t63 118q0 28 -12 50.5t-27.5 37.5t-47.5 30t-54.5 22.5t-65.5 21.5q-48 15 -78 27t-70.5 36t-64 51.5t-40.5 71.5t-17 99q0 161 120.5 260.5t311.5 99.5
q184 0 316 -98l-60 -162q-128 98 -272 98q-112 0 -173 -50t-61 -120q0 -24 7 -43.5t23.5 -35.5t32 -27.5t44.5 -23.5t48.5 -19t55.5 -19q47 -16 78 -28.5t70.5 -36t62 -51t39 -70.5t16.5 -96q0 -157 -121.5 -255t-324.5 -98q-209 0 -369 123z" />
    <glyph glyph-name="uni0162" unicode="&#x162;" horiz-adv-x="1175" 
d="M674 -256q0 -108 -81.5 -169.5t-223.5 -61.5q-113 0 -203 36l49 138q76 -39 170 -39q63 0 100 24t37 64q0 18 -10.5 32t-53.5 33t-122 37l96 162h-49l270 1350h-473l35 170h1135l-35 -170h-465l-270 -1350h-37l-54 -80q111 -37 148 -76.5t37 -99.5z" />
    <glyph glyph-name="uni0163" unicode="&#x163;" horiz-adv-x="798" 
d="M539 -256q0 -108 -82 -169.5t-224 -61.5q-112 0 -202 36l49 138q76 -39 170 -39q63 0 100 24t37 64q0 18 -10.5 32t-53.5 33t-122 37l96 160q-129 53 -129 223q0 51 12 115l121 606h-186l28 143h187l59 295l199 54l-70 -349h322l-29 -143h-322l-127 -635q-6 -30 -6 -53
q0 -111 119 -111q103 0 184 62l3 -170q-114 -60 -240 -60q-21 0 -31 2l-37 -57q111 -37 148 -76.5t37 -99.5z" />
    <glyph glyph-name="Tcaron" unicode="&#x164;" horiz-adv-x="1175" 
d="M1237 1956l-365 -301h-155l-225 301l163 39l154 -226l254 230zM1315 1350h-465l-270 -1350h-197l270 1350h-473l35 170h1135z" />
    <glyph glyph-name="tcaron" unicode="&#x165;" horiz-adv-x="798" 
d="M840 1233h-131l139 475h205zM662 35q-114 -60 -240 -60q-119 0 -186.5 60.5t-67.5 185.5q0 51 12 115l121 606h-186l28 143h187l59 295l199 54l-70 -349h322l-29 -143h-322l-127 -635q-6 -30 -6 -53q0 -111 119 -111q103 0 184 62z" />
    <glyph glyph-name="Tbar" unicode="&#x166;" horiz-adv-x="1175" 
d="M1053 717h-330l-143 -717h-197l143 717h-329l30 151h330l96 482h-473l35 170h1135l-35 -170h-465l-96 -482h329z" />
    <glyph glyph-name="tbar" unicode="&#x167;" horiz-adv-x="839" 
d="M682 35q-114 -60 -240 -60q-119 0 -186.5 60.5t-67.5 185.5q0 45 13 115l41 209h-187l27 131h186l54 266h-187l29 143h186l60 295l198 54l-69 -349h321l-29 -143h-321l-53 -266h321l-26 -131h-322l-47 -238q-6 -30 -6 -53q0 -111 119 -111q103 0 184 62z" />
    <glyph glyph-name="Utilde" unicode="&#x168;" horiz-adv-x="1507" 
d="M705 1651l-134 12q63 301 263 301q88 0 188 -78q90 -71 139 -71q90 0 125 163l133 -12q-63 -301 -262 -301q-88 0 -188 78q-30 24 -48 36.5t-44 24t-48 11.5q-45 0 -75 -39.5t-49 -124.5zM1518 1520l-189 -942q-60 -298 -232 -452.5t-440 -154.5q-235 0 -358 117
t-123 332q0 78 19 178l184 922h194l-186 -932q-16 -85 -16 -148q0 -293 303 -293q182 0 300.5 110.5t162.5 330.5l186 932h195z" />
    <glyph glyph-name="utilde" unicode="&#x169;" horiz-adv-x="1212" 
d="M492 1262l-134 12q60 301 252 301q90 0 183 -78q84 -72 131 -72q83 0 116 164l134 -12q-60 -301 -252 -301q-89 0 -183 78q-83 71 -131 71q-83 0 -116 -163zM768 0l31 197q-152 -222 -381 -222q-130 0 -212.5 76t-82.5 228q0 65 14 131l135 675h189l-135 -675
q-13 -63 -13 -103q0 -160 158 -160q117 0 206 73.5t148 189.5l136 675h188l-217 -1085h-164z" />
    <glyph glyph-name="Umacron" unicode="&#x16a;" horiz-adv-x="1507" 
d="M629 1737l30 155h705l-31 -155h-704zM1518 1520l-189 -942q-60 -298 -232 -452.5t-440 -154.5q-235 0 -358 117t-123 332q0 78 19 178l184 922h194l-186 -932q-16 -85 -16 -148q0 -293 303 -293q182 0 300.5 110.5t162.5 330.5l186 932h195z" />
    <glyph glyph-name="umacron" unicode="&#x16b;" horiz-adv-x="1212" 
d="M442 1348l31 155h627l-31 -155h-627zM768 0l31 197q-152 -222 -381 -222q-130 0 -212.5 76t-82.5 228q0 65 14 131l135 675h189l-135 -675q-13 -63 -13 -103q0 -160 158 -160q117 0 206 73.5t148 189.5l136 675h188l-217 -1085h-164z" />
    <glyph glyph-name="Ubreve" unicode="&#x16c;" horiz-adv-x="1507" 
d="M688 1974l133 13q-6 -30 -6 -56q0 -143 162 -143q189 0 246 199l145 -13q-43 -167 -150 -249.5t-253 -82.5q-134 0 -208.5 67.5t-74.5 191.5q0 32 6 73zM1518 1520l-189 -942q-60 -298 -232 -452.5t-440 -154.5q-235 0 -358 117t-123 332q0 78 19 178l184 922h194
l-186 -932q-16 -85 -16 -148q0 -293 303 -293q182 0 300.5 110.5t162.5 330.5l186 932h195z" />
    <glyph glyph-name="ubreve" unicode="&#x16d;" horiz-adv-x="1212" 
d="M465 1597l133 13q-6 -41 -6 -72q0 -164 156 -164q191 0 251 236l146 -13q-45 -182 -153 -275t-257 -93q-131 0 -204.5 71.5t-73.5 206.5q0 46 8 90zM768 0l31 197q-152 -222 -381 -222q-130 0 -212.5 76t-82.5 228q0 65 14 131l135 675h189l-135 -675q-13 -63 -13 -103
q0 -160 158 -160q117 0 206 73.5t148 189.5l136 675h188l-217 -1085h-164z" />
    <glyph glyph-name="Uring" unicode="&#x16e;" horiz-adv-x="1507" 
d="M971 1593q-100 0 -160.5 62.5t-60.5 159.5q0 114 80 192t194 78q100 0 160.5 -62t60.5 -159q0 -115 -80.5 -193t-193.5 -78zM981 1710q61 0 101 41t40 104q0 52 -28 82.5t-80 30.5q-62 0 -102 -41t-40 -104q0 -52 28.5 -82.5t80.5 -30.5zM1518 1520l-189 -942
q-60 -298 -232 -452.5t-440 -154.5q-235 0 -358 117t-123 332q0 78 19 178l184 922h194l-186 -932q-16 -85 -16 -148q0 -293 303 -293q182 0 300.5 110.5t162.5 330.5l186 932h195z" />
    <glyph glyph-name="uring" unicode="&#x16f;" horiz-adv-x="1212" 
d="M754 1204q-100 0 -161 62t-61 159q0 114 80.5 192.5t194.5 78.5q100 0 160.5 -62t60.5 -159q0 -115 -80.5 -193t-193.5 -78zM764 1321q61 0 101 41t40 104q0 52 -28 82.5t-80 30.5q-62 0 -102 -41t-40 -104q0 -52 28.5 -82.5t80.5 -30.5zM768 0l31 197
q-152 -222 -381 -222q-130 0 -212.5 76t-82.5 228q0 65 14 131l135 675h189l-135 -675q-13 -63 -13 -103q0 -160 158 -160q117 0 206 73.5t148 189.5l136 675h188l-217 -1085h-164z" />
    <glyph glyph-name="Uhungarumlaut" unicode="&#x170;" horiz-adv-x="1507" 
d="M786 1634l-90 58l308 327l161 -110zM1167 1634l-90 58l307 327l162 -110zM1518 1520l-189 -942q-60 -298 -232 -452.5t-440 -154.5q-235 0 -358 117t-123 332q0 78 19 178l184 922h194l-186 -932q-16 -85 -16 -148q0 -293 303 -293q182 0 300.5 110.5t162.5 330.5
l186 932h195z" />
    <glyph glyph-name="uhungarumlaut" unicode="&#x171;" horiz-adv-x="1212" 
d="M551 1225l-86 57l303 414l160 -103zM920 1225l-86 57l303 414l159 -103zM768 0l31 197q-152 -222 -381 -222q-130 0 -212.5 76t-82.5 228q0 65 14 131l135 675h189l-135 -675q-13 -63 -13 -103q0 -160 158 -160q117 0 206 73.5t148 189.5l136 675h188l-217 -1085h-164z
" />
    <glyph glyph-name="Uogonek" unicode="&#x172;" horiz-adv-x="1507" 
d="M860 -434q-75 -53 -188 -53q-100 0 -155.5 49.5t-55.5 138.5q0 156 182 270q-229 4 -348 120.5t-119 328.5q0 78 19 178l184 922h194l-186 -932q-16 -85 -16 -148q0 -293 303 -293q182 0 300.5 110.5t162.5 330.5l186 932h195l-189 -942q-45 -229 -158 -373.5
t-286 -200.5q-125 -47 -197 -114t-72 -144q0 -86 97 -86q67 0 141 49z" />
    <glyph glyph-name="uogonek" unicode="&#x173;" horiz-adv-x="1212" 
d="M874 -434q-75 -53 -184 -53q-98 0 -152.5 47t-54.5 135q0 94 69.5 171.5t217.5 151.5l29 179q-152 -222 -381 -222q-130 0 -212.5 76t-82.5 228q0 65 14 131l135 675h189l-135 -675q-13 -63 -13 -103q0 -160 158 -160q117 0 206 73.5t148 189.5l136 675h188l-217 -1085
q-135 -54 -214 -121t-79 -141q0 -78 92 -78q63 0 137 49z" />
    <glyph glyph-name="Wcircumflex" unicode="&#x174;" horiz-adv-x="2113" 
d="M1626 1681l-164 -39l-153 230l-254 -230l-174 39l364 306h156zM1284 0l-96 1229l-588 -1229h-205l-143 1520h201l94 -1254l590 1254h213l90 -1254l594 1254h217l-762 -1520h-205z" />
    <glyph glyph-name="wcircumflex" unicode="&#x175;" horiz-adv-x="1679" 
d="M1307 1264l-154 -35l-123 317l-256 -317l-160 39l355 399h155zM977 0l-84 848l-424 -848h-180l-121 1085h197l61 -860l405 860h201l80 -860l387 860h213l-555 -1085h-180z" />
    <glyph glyph-name="Ycircumflex" unicode="&#x176;" horiz-adv-x="1228" 
d="M1192 1681l-164 -39l-154 230l-253 -230l-175 39l365 306h156zM1403 1520l-682 -932l-117 -588h-196l118 594l-311 926h205l237 -754l521 754h225z" />
    <glyph glyph-name="ycircumflex" unicode="&#x177;" horiz-adv-x="1085" 
d="M1020 1264l-154 -35l-123 317l-256 -317l-159 39l354 399h156zM532 10q-112 -199 -192.5 -301t-153 -141t-170.5 -39q-96 0 -172 37l50 172q64 -37 137 -37q77 0 147 64.5t160 232.5l-191 1087h197l125 -888l457 888h213z" />
    <glyph glyph-name="Ydieresis" unicode="&#x178;" horiz-adv-x="1228" 
d="M940 1704l45 221h213l-45 -221h-213zM514 1704l45 221h213l-45 -221h-213zM1403 1520l-682 -932l-117 -588h-196l118 594l-311 926h205l237 -754l521 754h225z" />
    <glyph glyph-name="Zacute" unicode="&#x179;" horiz-adv-x="1302" 
d="M778 1634l-86 70l361 315l164 -127zM1130 172l-34 -172h-1106l33 164l1077 1186h-805l35 170h1048l-32 -164l-1076 -1184h860z" />
    <glyph glyph-name="zacute" unicode="&#x17a;" horiz-adv-x="995" 
d="M592 1212l-98 60l315 424l172 -107zM836 154l-31 -154h-832l29 143l741 789h-559l31 153h791l-29 -143l-741 -788h600z" />
    <glyph glyph-name="Zdotaccent" unicode="&#x17b;" horiz-adv-x="1302" 
d="M756 1704l45 221h221l-45 -221h-221zM1130 172l-34 -172h-1106l33 164l1077 1186h-805l35 170h1048l-32 -164l-1076 -1184h860z" />
    <glyph glyph-name="zdotaccent" unicode="&#x17c;" horiz-adv-x="995" 
d="M532 1315l46 221h221l-45 -221h-222zM836 154l-31 -154h-832l29 143l741 789h-559l31 153h791l-29 -143l-741 -788h600z" />
    <glyph glyph-name="Zcaron" unicode="&#x17d;" horiz-adv-x="1302" 
d="M1288 1956l-364 -301h-156l-225 301l164 39l153 -226l254 230zM1130 172l-34 -172h-1106l33 164l1077 1186h-805l35 170h1048l-32 -164l-1076 -1184h860z" />
    <glyph glyph-name="zcaron" unicode="&#x17e;" horiz-adv-x="995" 
d="M1053 1622l-353 -385h-155l-180 385l153 39l121 -303l254 307zM836 154l-31 -154h-832l29 143l741 789h-559l31 153h791l-29 -143l-741 -788h600z" />
    <glyph glyph-name="longs" unicode="&#x17f;" horiz-adv-x="606" 
d="M63 0l242 1208q24 122 67.5 204.5t101 124t115.5 57.5t130 16q103 0 186 -33l-47 -168q-68 33 -145 33q-87 0 -139.5 -49t-77.5 -174l-244 -1219h-189z" />
    <glyph glyph-name="uni018F" unicode="&#x18f;" horiz-adv-x="1470" 
d="M1413 932q0 -92 -13 -185t-42 -188.5t-71.5 -180.5t-107 -160t-143 -129.5t-183.5 -86t-226 -31.5q-116 0 -208 29.5t-150.5 77.5t-97 114.5t-54 136t-15.5 146.5q0 89 20 179t50 153h1030q6 61 6 123q0 233 -93 337.5t-302 104.5q-273 0 -508 -182l-18 188
q101 78 250 124t307 46q286 0 427.5 -158.5t141.5 -457.5zM637 147q113 0 206 40t157 111.5t107 156.5t69 188h-857q-28 -67 -28 -174q0 -143 85.5 -232.5t260.5 -89.5z" />
    <glyph glyph-name="florin" unicode="&#x192;" 
d="M545 43q-36 -120 -80 -201t-96 -122t-103 -56.5t-116 -15.5q-120 0 -220 53l54 164q87 -49 166 -49q34 0 59.5 8t52.5 30t50 67.5t44 115.5l226 762h-226l29 139h238l61 205q30 100 68.5 174.5t79 118t89.5 69.5t92.5 34.5t96.5 8.5q145 0 231 -57l-57 -170
q-49 31 -90 45t-94 14q-91 0 -139.5 -49.5t-88.5 -181.5l-63 -211h317l-28 -139h-330z" />
    <glyph glyph-name="Ohorn" unicode="&#x1a0;" horiz-adv-x="1548" 
d="M1491 952q0 -145 -32.5 -285.5t-99.5 -266.5t-161 -221.5t-226 -151.5t-286 -56q-255 0 -399 157t-144 439q0 145 32.5 285.5t99.5 266.5t161 221.5t226 151.5t286 56q146 0 258 -53h6q134 0 201.5 65t67.5 203q0 27 -2 43h170q2 -16 2 -41q0 -141 -70.5 -244
t-224.5 -139q135 -156 135 -430zM705 147q111 0 207 47.5t163.5 126t116 181t71.5 213.5t23 221q0 216 -92 326t-264 110q-111 0 -207 -47t-163.5 -126t-116 -181t-72 -213t-23.5 -221q0 -216 92.5 -326.5t264.5 -110.5z" />
    <glyph glyph-name="ohorn" unicode="&#x1a1;" horiz-adv-x="1236" 
d="M1104 666q0 -100 -24.5 -199t-75 -187.5t-120.5 -156.5t-166.5 -108t-207.5 -40q-189 0 -303.5 114t-114.5 331q0 100 24.5 199t75 187.5t120.5 156t166.5 107.5t207.5 40q123 0 217 -49h6q134 0 201.5 65t67.5 203q0 27 -2 43h170q2 -16 2 -41q0 -146 -75 -250
t-241 -137q72 -115 72 -278zM526 137q74 0 137.5 30.5t108 81.5t76.5 117.5t47.5 139t15.5 145.5q0 146 -63 221.5t-178 75.5q-74 0 -137.5 -30.5t-108 -81.5t-76.5 -117.5t-47.5 -139t-15.5 -145.5q0 -146 63 -221.5t178 -75.5z" />
    <glyph glyph-name="Uhorn" unicode="&#x1af;" horiz-adv-x="1548" 
d="M1137 588l186 932h127q207 0 207 243q0 27 -2 43h170q2 -16 2 -41q0 -54 -9 -101.5t-32.5 -95.5t-60 -83.5t-96.5 -61t-138 -32.5l-162 -813q-60 -298 -232 -452.5t-440 -154.5q-235 0 -358 117t-123 332q0 78 19 178l184 922h194l-186 -932q-16 -85 -16 -148
q0 -293 303 -293q182 0 300.5 110.5t162.5 330.5z" />
    <glyph glyph-name="uhorn" unicode="&#x1b0;" horiz-adv-x="1286" 
d="M825 410l136 675h133q192 0 192 244q0 27 -2 43h170q2 -16 2 -41q0 -54 -9.5 -102.5t-33 -97t-60.5 -84.5t-96 -60.5t-135 -30.5l-190 -956h-164l31 197q-152 -222 -381 -222q-130 0 -212.5 76t-82.5 228q0 65 14 131l135 675h189l-135 -675q-13 -63 -13 -103
q0 -160 158 -160q117 0 206 73.5t148 189.5z" />
    <glyph glyph-name="Aringacute" unicode="&#x1fa;" horiz-adv-x="1396" 
d="M911 2003l-86 70l361 315l164 -127zM1044 0l-61 420h-606l-225 -420h-218l852 1520q-54 26 -83 77.5t-29 118.5q0 115 80.5 193t193.5 78q100 0 160.5 -62.5t60.5 -159.5q0 -84 -47.5 -151.5t-122.5 -97.5l246 -1516h-201zM905 1612q62 0 102 41t40 104q0 52 -28.5 82.5
t-80.5 30.5q-61 0 -101 -41.5t-40 -104.5q0 -52 28 -82t80 -30zM465 584h496l-107 729z" />
    <glyph glyph-name="aringacute" unicode="&#x1fb;" horiz-adv-x="1146" 
d="M725 1737l-86 69l360 316l164 -127zM731 1204q-100 0 -160.5 62t-60.5 159q0 115 80.5 193t193.5 78q100 0 161 -62t61 -159q0 -114 -80.5 -192.5t-194.5 -78.5zM741 1321q62 0 102 41t40 104q0 52 -28.5 82.5t-80.5 30.5q-61 0 -101 -41t-40 -104q0 -52 28 -82.5
t80 -30.5zM711 0l26 160q-145 -185 -366 -185q-136 0 -222 75t-86 218q0 193 166 298.5t480 105.5h112l4 20q11 64 11 90q0 87 -49.5 125.5t-155.5 38.5q-188 0 -359 -121l-12 170q74 53 182 84t224 31q179 0 268.5 -78.5t89.5 -226.5q0 -63 -14 -129l-136 -676h-163z
M426 135q102 0 189.5 56t140.5 153l37 188h-101q-215 0 -325.5 -63.5t-110.5 -181.5q0 -76 45 -114t125 -38z" />
    <glyph glyph-name="AEacute" unicode="&#x1fc;" horiz-adv-x="2060" 
d="M1389 1634l-86 70l360 315l164 -127zM860 0l98 492h-552l-363 -492h-225l1128 1520h1147l-35 -170h-733l-94 -465h653l-35 -168h-651l-108 -545h751l-35 -172h-946zM1130 1352h-92l-514 -697h467z" />
    <glyph glyph-name="aeacute" unicode="&#x1fd;" horiz-adv-x="1822" 
d="M969 1212l-99 60l316 424l172 -107zM1634 98q-68 -51 -173 -87t-232 -36q-288 0 -393 199q-88 -94 -203 -146.5t-242 -52.5q-150 0 -239 74t-89 217q0 189 163 289t479 100h112l8 37q11 57 11 90q0 87 -49.5 125.5t-155.5 38.5q-188 0 -359 -121l-12 170q74 53 182 84
t224 31q253 0 323 -162q152 162 383 162q84 0 149.5 -22t107 -57.5t68.5 -85.5t37.5 -102t10.5 -110q0 -126 -43 -221h-729q-4 -50 -4 -76q0 -149 69.5 -222t225.5 -73q196 0 358 127zM1358 954q-132 0 -223 -85t-134 -218h547q15 44 15 97q0 93 -48.5 149.5t-156.5 56.5z
M432 135q107 0 202 56t152 153q-4 46 -4 70q0 28 9 102h-103q-432 0 -432 -231q0 -150 176 -150z" />
    <glyph glyph-name="Oslashacute" unicode="&#x1fe;" horiz-adv-x="1548" 
d="M913 1634l-86 70l361 315l164 -127zM686 -29q-230 0 -371 129l-168 -190l-110 61l199 226q-93 151 -93 370q0 145 32.5 285.5t99.5 266.5t161 221.5t226 151.5t286 56q230 0 371 -129l168 191l110 -62l-198 -225q92 -150 92 -371q0 -145 -32.5 -285.5t-99.5 -266.5
t-161 -221.5t-226 -151.5t-286 -56zM348 584q0 -131 35 -224l803 910q-88 102 -256 102q-111 0 -207 -47t-163.5 -126t-116 -181t-72 -213t-23.5 -221zM1286 936q0 130 -35 223l-802 -909q89 -103 256 -103q111 0 207 47.5t163.5 126t116 181t71.5 213.5t23 221z" />
    <glyph glyph-name="oslashacute" unicode="&#x1ff;" horiz-adv-x="1196" 
d="M692 1212l-98 60l315 424l172 -107zM510 -25q-157 0 -266 80l-156 -176l-100 62l178 200q-74 110 -74 279q0 100 24.5 199t75 187.5t120.5 156t166.5 107.5t207.5 40q157 0 266 -80l156 176l100 -61l-178 -201q74 -110 74 -278q0 -100 -24.5 -199t-75 -187.5
t-120.5 -156.5t-166.5 -108t-207.5 -40zM285 434q0 -78 18 -137l526 596q-61 55 -159 55q-74 0 -137.5 -30.5t-108 -81.5t-76.5 -117.5t-47.5 -139t-15.5 -145.5zM911 651q0 79 -18 137l-526 -595q62 -56 159 -56q74 0 137.5 30.5t108 81.5t76.5 117.5t47.5 139t15.5 145.5z
" />
    <glyph glyph-name="uni0218" unicode="&#x218;" horiz-adv-x="1208" 
d="M14 129l68 186q95 -77 211 -122.5t237 -45.5q167 0 259 83.5t92 207.5q0 33 -8 60.5t-18 47t-33.5 38.5t-40.5 30t-54.5 26t-59 22.5t-69.5 23.5q-53 18 -89 32t-81.5 37t-75 50t-57 64t-40.5 86.5t-13 109.5q0 99 37.5 186t106.5 153.5t176.5 105t238.5 38.5
q240 0 409 -127l-67 -186q-168 137 -371 137q-161 0 -247.5 -81.5t-86.5 -203.5q0 -36 7.5 -64.5t27.5 -51t39 -37.5t58.5 -31.5t68 -26.5t84.5 -28q44 -14 76.5 -26t72.5 -31t68 -39.5t57 -50t46.5 -63.5t28.5 -80t11 -99q0 -103 -38.5 -192t-111.5 -155t-185 -103.5
t-252 -37.5q-272 0 -482 158zM377 -500l-139 35q153 168 170 346h184q-39 -234 -215 -381z" />
    <glyph glyph-name="uni0219" unicode="&#x219;" horiz-adv-x="966" 
d="M14 98l60 162q156 -123 334 -123q113 0 176 48t63 118q0 28 -12 50.5t-27.5 37.5t-47.5 30t-54.5 22.5t-65.5 21.5q-48 15 -78 27t-70.5 36t-64 51.5t-40.5 71.5t-17 99q0 161 120.5 260.5t311.5 99.5q184 0 316 -98l-60 -162q-128 98 -272 98q-112 0 -173 -50t-61 -120
q0 -24 7 -43.5t23.5 -35.5t32 -27.5t44.5 -23.5t48.5 -19t55.5 -19q47 -16 78 -28.5t70.5 -36t62 -51t39 -70.5t16.5 -96q0 -157 -121.5 -255t-324.5 -98q-209 0 -369 123zM242 -500l-140 35q153 168 170 346h185q-39 -234 -215 -381z" />
    <glyph glyph-name="uni021A" unicode="&#x21a;" horiz-adv-x="1175" 
d="M1315 1350h-465l-270 -1350h-197l270 1350h-473l35 170h1135zM334 -500l-139 35q153 168 170 346h184q-39 -234 -215 -381z" />
    <glyph glyph-name="uni021B" unicode="&#x21b;" horiz-adv-x="798" 
d="M662 35q-114 -60 -240 -60q-119 0 -186.5 60.5t-67.5 185.5q0 51 12 115l121 606h-186l28 143h187l59 295l199 54l-70 -349h322l-29 -143h-322l-127 -635q-6 -30 -6 -53q0 -111 119 -111q103 0 184 62zM203 -500l-140 35q153 168 170 346h185q-39 -234 -215 -381z" />
    <glyph glyph-name="uni0237" unicode="&#x237;" horiz-adv-x="557" 
d="M-324 -434l50 172q64 -37 137 -37q80 0 133.5 54t79.5 184l229 1146h189l-230 -1146q-44 -219 -148.5 -314.5t-262.5 -95.5q-101 0 -177 37z" />
    <glyph glyph-name="uni0259" unicode="&#x259;" horiz-adv-x="1146" 
d="M1055 655q0 -94 -19.5 -186t-64 -182.5t-109.5 -158.5t-165 -110.5t-222 -42.5q-86 0 -154 21.5t-111.5 56.5t-72 83.5t-40 99.5t-11.5 108q0 137 49 240h727q4 50 4 71q0 155 -63.5 223t-208.5 68q-192 0 -363 -121l-12 170q74 53 180.5 84t218.5 31q214 0 325.5 -118.5
t111.5 -336.5zM481 135q140 0 229 86t128 223h-557q-19 -39 -19 -104q0 -93 53.5 -149t165.5 -56z" />
    <glyph glyph-name="uni02BB" unicode="&#x2bb;" horiz-adv-x="540" 
d="M487 1602l152 -39q-171 -233 -203 -531h-196q25 326 247 570z" />
    <glyph glyph-name="uni02BC" unicode="&#x2bc;" horiz-adv-x="540" 
d="M354 1024l-151 39q171 233 203 530h196q-25 -323 -248 -569z" />
    <glyph glyph-name="circumflex" unicode="&#x2c6;" horiz-adv-x="1024" 
d="M987 1264l-153 -35l-123 317l-256 -317l-160 39l354 399h156z" />
    <glyph glyph-name="caron" unicode="&#x2c7;" horiz-adv-x="1024" 
d="M1067 1622l-352 -385h-156l-180 385l153 39l121 -303l254 307z" />
    <glyph glyph-name="uni02C9" unicode="&#x2c9;" horiz-adv-x="1024" 
d="M352 1348l31 155h627l-31 -155h-627z" />
    <glyph glyph-name="breve" unicode="&#x2d8;" horiz-adv-x="1024" 
d="M375 1597l133 13q-6 -41 -6 -72q0 -164 155 -164q192 0 252 236l146 -13q-45 -182 -153 -275t-257 -93q-131 0 -204.5 71.5t-73.5 206.5q0 46 8 90z" />
    <glyph glyph-name="dotaccent" unicode="&#x2d9;" horiz-adv-x="1024" 
d="M547 1315l45 221h221l-45 -221h-221z" />
    <glyph glyph-name="ring" unicode="&#x2da;" horiz-adv-x="1024" 
d="M664 1204q-100 0 -161 62t-61 159q0 114 80.5 192.5t194.5 78.5q100 0 160.5 -62t60.5 -159q0 -115 -80.5 -193t-193.5 -78zM674 1321q61 0 101 41t40 104q0 52 -28 82.5t-80 30.5q-62 0 -102 -41t-40 -104q0 -52 28.5 -82.5t80.5 -30.5z" />
    <glyph glyph-name="ogonek" unicode="&#x2db;" horiz-adv-x="1024" 
d="M555 -434q-75 -53 -188 -53q-100 0 -155.5 49.5t-55.5 138.5q0 92 61 168t184 143h193q-131 -49 -207 -118t-76 -148q0 -86 97 -86q67 0 141 49z" />
    <glyph glyph-name="tilde" unicode="&#x2dc;" horiz-adv-x="1024" 
d="M401 1262l-133 12q60 301 252 301q89 0 182 -78q84 -72 132 -72q83 0 116 164l133 -12q-60 -301 -252 -301q-88 0 -182 78q-83 71 -131 71q-84 0 -117 -163z" />
    <glyph glyph-name="hungarumlaut" unicode="&#x2dd;" horiz-adv-x="1024" 
d="M461 1225l-86 57l303 414l160 -103zM829 1225l-86 57l304 414l159 -103z" />
    <glyph glyph-name="gravecomb" unicode="&#x300;" horiz-adv-x="0" 
d="M154 1212l-271 416l187 68l186 -434z" />
    <glyph glyph-name="acutecomb" unicode="&#x301;" horiz-adv-x="0" 
d="M94 1212l-98 60l315 424l172 -107z" />
    <glyph glyph-name="uni0302" unicode="&#x302;" horiz-adv-x="0" 
d="M475 1264l-153 -35l-123 317l-256 -317l-160 39l354 399h156z" />
    <glyph glyph-name="tildecomb" unicode="&#x303;" horiz-adv-x="0" 
d="M-111 1262l-133 12q60 301 252 301q89 0 182 -78q84 -72 132 -72q83 0 116 164l133 -12q-60 -301 -252 -301q-88 0 -182 78q-83 71 -131 71q-84 0 -117 -163z" />
    <glyph glyph-name="uni0304" unicode="&#x304;" horiz-adv-x="0" 
d="M-160 1348l31 155h627l-31 -155h-627z" />
    <glyph glyph-name="uni0306" unicode="&#x306;" horiz-adv-x="0" 
d="M-137 1597l133 13q-6 -40 -6 -72q0 -164 155 -164q192 0 252 236l146 -13q-45 -182 -153 -275t-257 -93q-131 0 -204.5 71.5t-73.5 206.5q0 46 8 90z" />
    <glyph glyph-name="uni0307" unicode="&#x307;" horiz-adv-x="0" 
d="M35 1315l45 221h221l-45 -221h-221z" />
    <glyph glyph-name="uni0308" unicode="&#x308;" horiz-adv-x="0" 
d="M248 1315l45 221h209l-45 -221h-209zM-166 1315l45 221h209l-45 -221h-209z" />
    <glyph glyph-name="hookabovecomb" unicode="&#x309;" horiz-adv-x="0" 
d="M139 1212l-82 88q62 31 93 48t67 43t51 50.5t15 53.5q0 70 -103 70q-98 0 -205 -66l-8 131q122 74 252 74q104 0 163.5 -45.5t59.5 -138.5q0 -56 -22 -102.5t-66.5 -83.5t-93.5 -64t-121 -58z" />
    <glyph glyph-name="uni030A" unicode="&#x30a;" horiz-adv-x="0" 
d="M152 1204q-100 0 -161 62t-61 159q0 114 80.5 192.5t194.5 78.5q100 0 160.5 -62t60.5 -159q0 -115 -80.5 -193t-193.5 -78zM162 1321q61 0 101 41t40 104q0 52 -28 82.5t-80 30.5q-62 0 -102 -41t-40 -104q0 -52 28.5 -82.5t80.5 -30.5z" />
    <glyph glyph-name="uni030B" unicode="&#x30b;" horiz-adv-x="0" 
d="M-51 1225l-86 57l303 414l160 -103zM317 1225l-86 57l304 414l159 -103z" />
    <glyph glyph-name="uni030C" unicode="&#x30c;" horiz-adv-x="0" 
d="M555 1622l-352 -385h-156l-180 385l153 39l121 -303l254 307z" />
    <glyph glyph-name="uni0312" unicode="&#x312;" horiz-adv-x="0" 
d="M233 1655l140 -35q-130 -166 -144 -346h-184q33 232 188 381z" />
    <glyph glyph-name="uni031B" unicode="&#x31b;" horiz-adv-x="0" 
d="M-164 1085h45q55 0 94 20t60 55.5t30 77t9 91.5q0 27 -2 43h170q2 -16 2 -41q0 -57 -10.5 -108.5t-38 -101.5t-70 -86t-110.5 -58.5t-156 -22.5h-49z" />
    <glyph glyph-name="dotbelowcomb" unicode="&#x323;" horiz-adv-x="0" 
d="M-293 -385l45 221h221l-45 -221h-221z" />
    <glyph glyph-name="uni0326" unicode="&#x326;" horiz-adv-x="0" 
d="M-242 -500l-139 35q153 168 170 346h184q-39 -234 -215 -381z" />
    <glyph glyph-name="uni0327" unicode="&#x327;" horiz-adv-x="0" 
d="M86 -256q0 -108 -81.5 -169.5t-223.5 -61.5q-113 0 -203 36l49 138q76 -39 170 -39q63 0 100 24t37 64q0 18 -10.5 32t-53.5 33t-122 37l105 174h110l-61 -92q111 -37 147.5 -76.5t36.5 -99.5z" />
    <glyph glyph-name="uni0328" unicode="&#x328;" horiz-adv-x="0" 
d="M43 -434q-75 -53 -188 -53q-100 0 -155.5 49.5t-55.5 138.5q0 92 61 168t184 143h193q-131 -49 -207 -118t-76 -148q0 -86 97 -86q67 0 141 49z" />
    <glyph glyph-name="uni0374" unicode="&#x374;" horiz-adv-x="540" 
d="M213 991l217 602h242v-4l-324 -598h-135z" />
    <glyph glyph-name="uni037E" unicode="&#x37e;" horiz-adv-x="802" 
d="M334 815l55 270h246l-55 -270h-246zM160 -332l-162 41q229 256 244 561h209q0 -342 -291 -602z" />
    <glyph glyph-name="tonos" unicode="&#x384;" horiz-adv-x="491" 
d="M369 1212l-117 17l141 467h217v-4z" />
    <glyph glyph-name="dieresistonos" unicode="&#x385;" horiz-adv-x="1024" 
d="M653 1212l-116 17l135 467h211v-4zM858 1315l45 221h209l-45 -221h-209zM248 1315l45 221h209l-45 -221h-209z" />
    <glyph glyph-name="Alphatonos" unicode="&#x386;" horiz-adv-x="1396" 
d="M1044 0l-61 420h-606l-225 -420h-218l852 1520h213l246 -1520h-201zM266 1036l-116 17l141 467h217v-4zM465 584h496l-107 729z" />
    <glyph glyph-name="anoteleia" unicode="&#x387;" horiz-adv-x="757" 
d="M309 819l56 266h249l-55 -266h-250z" />
    <glyph glyph-name="Epsilontonos" unicode="&#x388;" horiz-adv-x="1417" 
d="M1221 172l-35 -172h-946l303 1520h930l-35 -170h-733l-95 -465h654l-35 -168h-651l-109 -545h752zM164 1036l-117 17l141 467h218v-4z" />
    <glyph glyph-name="Etatonos" unicode="&#x389;" horiz-adv-x="1671" 
d="M1165 0l144 717h-729l-144 -717h-196l303 1520h196l-127 -635h729l127 635h197l-303 -1520h-197zM164 1036l-117 17l141 467h218v-4z" />
    <glyph glyph-name="Iotatonos" unicode="&#x38a;" horiz-adv-x="745" 
d="M240 0l303 1520h196l-303 -1520h-196zM164 1036l-117 17l141 467h218v-4z" />
    <glyph glyph-name="Omicrontonos" unicode="&#x38c;" horiz-adv-x="1658" 
d="M797 -29q-255 0 -399 157t-144 439q0 145 32.5 285.5t99.5 266.5t161 221.5t226 151.5t286 56q255 0 399 -157t144 -439q0 -145 -32.5 -285.5t-99.5 -266.5t-161 -221.5t-226 -151.5t-286 -56zM164 1036l-117 17l141 467h218v-4zM815 147q138 0 251.5 72t184 187.5
t108.5 253t38 276.5q0 216 -92.5 326t-264.5 110q-111 0 -207 -47t-163.5 -126t-116 -181t-71.5 -213t-23 -221q0 -216 92 -326.5t264 -110.5z" />
    <glyph glyph-name="Upsilontonos" unicode="&#x38e;" horiz-adv-x="1511" 
d="M1686 1520l-682 -932l-117 -588h-197l119 594l-311 926h204l238 -754l520 754h226zM164 1036l-117 17l141 467h218v-4z" />
    <glyph glyph-name="Omegatonos" unicode="&#x38f;" horiz-adv-x="1744" 
d="M717 154l-31 -154h-594l35 172h377q-215 275 -215 594q0 119 32 232t98 213t158.5 175t220.5 118.5t277 43.5q150 0 265.5 -44t187 -122.5t107.5 -181t36 -225.5q0 -445 -465 -803h350l-34 -172h-594l30 154q118 90 206.5 178t158.5 187.5t106.5 209t36.5 225.5
q0 195 -104 306.5t-305 111.5q-172 0 -301.5 -81.5t-198 -225t-68.5 -326.5q0 -336 228 -585zM164 1036l-117 17l141 467h218v-4z" />
    <glyph glyph-name="iotadieresistonos" unicode="&#x390;" horiz-adv-x="614" 
d="M457 1212l-117 17l135 467h211v-4zM662 1315l45 221h208l-45 -221h-208zM51 1315l45 221h209l-45 -221h-209zM461 8q-61 -20 -129 -20q-219 0 -219 178q0 41 8 80l168 839h188l-164 -819q-6 -27 -6 -47q0 -34 19.5 -48.5t62.5 -14.5q56 0 105 16z" />
    <glyph glyph-name="Alpha" unicode="&#x391;" horiz-adv-x="1396" 
d="M1044 0l-61 420h-606l-225 -420h-218l852 1520h213l246 -1520h-201zM465 584h496l-107 729z" />
    <glyph glyph-name="Beta" unicode="&#x392;" horiz-adv-x="1372" 
d="M1245 461q0 -69 -17.5 -132t-61 -124.5t-109.5 -106t-171.5 -71.5t-238.5 -27h-555l303 1520h479q433 0 433 -346q0 -65 -15.5 -122t-49.5 -110.5t-97 -94.5t-150 -63q250 -69 250 -323zM840 1350h-281l-98 -490h313q91 0 158.5 25.5t103.5 69t53 92t17 102.5
q0 106 -66 153.5t-200 47.5zM758 705h-328l-106 -533h352q94 0 166 25t115 68t64 97t21 117q0 114 -70 170t-214 56z" />
    <glyph glyph-name="Gamma" unicode="&#x393;" horiz-adv-x="1118" 
d="M1257 1346h-700l-268 -1346h-197l303 1520h897z" />
    <glyph glyph-name="uni0394" unicode="&#x394;" horiz-adv-x="1396" 
d="M999 1520l246 -1520h-1311l852 1520h213zM246 176h772l-164 1137z" />
    <glyph glyph-name="Epsilon" unicode="&#x395;" horiz-adv-x="1269" 
d="M1073 172l-35 -172h-946l303 1520h930l-35 -170h-733l-94 -465h653l-35 -168h-651l-108 -545h751z" />
    <glyph glyph-name="Zeta" unicode="&#x396;" horiz-adv-x="1302" 
d="M1130 172l-34 -172h-1106l33 164l1077 1186h-805l35 170h1048l-32 -164l-1076 -1184h860z" />
    <glyph glyph-name="Eta" unicode="&#x397;" horiz-adv-x="1523" 
d="M1018 0l143 717h-729l-143 -717h-197l303 1520h197l-127 -635h729l127 635h197l-304 -1520h-196z" />
    <glyph glyph-name="Theta" unicode="&#x398;" horiz-adv-x="1548" 
d="M686 -29q-255 0 -399 157t-144 439q0 145 32.5 285.5t99.5 266.5t161 221.5t226 151.5t286 56q255 0 399 -157t144 -439q0 -145 -32.5 -285.5t-99.5 -266.5t-161 -221.5t-226 -151.5t-286 -56zM705 147q111 0 207 47.5t163.5 126t116 181t71.5 213.5t23 221
q0 216 -92 326t-264 110q-111 0 -207 -47t-163.5 -126t-116 -181t-72 -213t-23.5 -221q0 -216 92.5 -326.5t264.5 -110.5zM492 696l32 168h627l-33 -168h-626z" />
    <glyph glyph-name="Iota" unicode="&#x399;" horiz-adv-x="598" 
d="M92 0l303 1520h197l-303 -1520h-197z" />
    <glyph glyph-name="Kappa" unicode="&#x39a;" horiz-adv-x="1351" 
d="M1012 0l-434 707l-179 -152l-110 -555h-197l303 1520h197l-148 -738l816 738h264v-4l-809 -691l526 -821v-4h-229z" />
    <glyph glyph-name="Lambda" unicode="&#x39b;" horiz-adv-x="1396" 
d="M1044 0l-186 1313l-706 -1313h-218l852 1520h213l246 -1520h-201z" />
    <glyph glyph-name="Mu" unicode="&#x39c;" horiz-adv-x="1925" 
d="M797 0l-256 1319l-265 -1319h-184l303 1520h283l235 -1209l695 1209h311l-303 -1520h-193l267 1333l-770 -1333h-123z" />
    <glyph glyph-name="Nu" unicode="&#x39d;" horiz-adv-x="1556" 
d="M1047 0l-525 1227l-246 -1227h-184l303 1520h201l524 -1227l246 1227h184l-303 -1520h-200z" />
    <glyph glyph-name="Xi" unicode="&#x39e;" horiz-adv-x="1339" 
d="M299 1343l35 177h1061l-35 -177h-1061zM254 711l35 174h897l-35 -174h-897zM14 0l35 176h1094l-35 -176h-1094z" />
    <glyph glyph-name="Omicron" unicode="&#x39f;" horiz-adv-x="1548" 
d="M686 -29q-255 0 -399 157t-144 439q0 145 32.5 285.5t99.5 266.5t161 221.5t226 151.5t286 56q255 0 399 -157t144 -439q0 -145 -32.5 -285.5t-99.5 -266.5t-161 -221.5t-226 -151.5t-286 -56zM705 147q111 0 207 47.5t163.5 126t116 181t71.5 213.5t23 221
q0 216 -92 326t-264 110q-111 0 -207 -47t-163.5 -126t-116 -181t-72 -213t-23.5 -221q0 -216 92.5 -326.5t264.5 -110.5z" />
    <glyph glyph-name="Pi" unicode="&#x3a0;" horiz-adv-x="1507" 
d="M1001 0l269 1350h-713l-268 -1350h-197l303 1520h1106l-303 -1520h-197z" />
    <glyph glyph-name="Rho" unicode="&#x3a1;" horiz-adv-x="1310" 
d="M659 524h-266l-104 -524h-197l303 1520h455q491 0 491 -422q0 -91 -22 -172.5t-74 -156t-129 -128t-194 -85.5t-263 -32zM817 1350h-258l-131 -658h262q98 0 176 22.5t129 59.5t84.5 89t47.5 108t14 119q0 133 -74.5 196.5t-249.5 63.5z" />
    <glyph glyph-name="Sigma" unicode="&#x3a3;" horiz-adv-x="1302" 
d="M1139 172l-35 -172h-1106l33 168l690 627l-436 561l32 164h1057l-33 -170h-831l434 -564l-4 -20l-659 -594h858z" />
    <glyph glyph-name="Tau" unicode="&#x3a4;" horiz-adv-x="1175" 
d="M1315 1350h-465l-270 -1350h-197l270 1350h-473l35 170h1135z" />
    <glyph glyph-name="Upsilon" unicode="&#x3a5;" horiz-adv-x="1228" 
d="M1403 1520l-682 -932l-117 -588h-196l118 594l-311 926h205l237 -754l521 754h225z" />
    <glyph glyph-name="Phi" unicode="&#x3a6;" horiz-adv-x="1753" 
d="M1700 852q0 -159 -59.5 -293t-166 -229t-258 -149.5t-331.5 -57.5l-31 -152h-184l30 154q-254 26 -404.5 173.5t-150.5 406.5q0 212 102.5 376.5t288 257t425.5 95.5l28 139h185l-29 -141q254 -26 404.5 -173.5t150.5 -406.5zM350 700q0 -189 99.5 -292.5t281.5 -122.5
l199 989q-160 -4 -291.5 -74.5t-210 -201.5t-78.5 -298zM1495 856q0 189 -99 293t-282 123l-199 -989q120 3 226 45t184.5 115t124 180t45.5 233z" />
    <glyph glyph-name="Chi" unicode="&#x3a7;" horiz-adv-x="1306" 
d="M932 0l-266 623l-486 -623h-231l647 786l-324 734h209l250 -596l461 596h231l-620 -758l338 -762h-209z" />
    <glyph glyph-name="Psi" unicode="&#x3a8;" horiz-adv-x="1654" 
d="M1645 1161q-42 -210 -106.5 -353.5t-158 -229.5t-209 -123t-270.5 -37l-84 -418h-196l84 418q-223 2 -347.5 124t-124.5 371q0 103 29 258l70 349h196l-69 -349q-31 -161 -31 -264q0 -92 21 -156t63.5 -99.5t96.5 -50.5t128 -15l189 934h196l-188 -934q102 1 177.5 27.5
t142 91t114.5 179.5t82 287l70 349h196z" />
    <glyph glyph-name="uni03A9" unicode="&#x3a9;" horiz-adv-x="1658" 
d="M631 154l-31 -154h-594l35 172h377q-215 275 -215 594q0 119 32 232t98 213t158.5 175t220.5 118.5t277 43.5q150 0 265.5 -44t187 -122.5t107.5 -181t36 -225.5q0 -445 -465 -803h350l-34 -172h-594l30 154q118 90 206.5 178t158.5 187.5t106.5 209t36.5 225.5
q0 195 -104 306.5t-305 111.5q-172 0 -301.5 -81.5t-198 -225t-68.5 -326.5q0 -336 228 -585z" />
    <glyph glyph-name="Iotadieresis" unicode="&#x3aa;" horiz-adv-x="598" 
d="M625 1704l45 221h213l-45 -221h-213zM199 1704l45 221h213l-45 -221h-213zM92 0l303 1520h197l-303 -1520h-197z" />
    <glyph glyph-name="Upsilondieresis" unicode="&#x3ab;" horiz-adv-x="1228" 
d="M940 1704l45 221h213l-45 -221h-213zM514 1704l45 221h213l-45 -221h-213zM1403 1520l-682 -932l-117 -588h-196l118 594l-311 926h205l237 -754l521 754h225z" />
    <glyph glyph-name="alphatonos" unicode="&#x3ac;" 
d="M815 1212l-117 17l142 467h217v-4zM817 176v29q-153 -230 -379 -230q-74 0 -135.5 25t-109.5 75t-74.5 133t-26.5 193q0 184 70.5 345.5t203.5 262.5t298 101q135 0 210 -67.5t95 -186.5l75 229h197q-134 -315 -195 -500t-61 -311q0 -58 19 -88t75 -30q46 0 90 16
l-32 -164q-56 -20 -121 -20q-105 0 -152 46.5t-47 141.5zM285 410q0 -267 190 -267q125 0 224 104t155 290l23 73q2 20 2 60q0 276 -209 276q-115 0 -204.5 -78t-135 -199t-45.5 -259z" />
    <glyph glyph-name="epsilontonos" unicode="&#x3ad;" horiz-adv-x="1040" 
d="M721 1212l-117 17l141 467h218v-4zM872 92q-166 -117 -419 -117q-190 0 -295 68t-105 203q0 118 78.5 201t220.5 120q-162 57 -162 211q0 143 128 237.5t346 94.5q207 0 344 -92l-60 -168q-129 94 -311 94q-117 0 -186.5 -40.5t-69.5 -119.5q0 -143 278 -143h123
l-30 -156h-148q-164 0 -261 -58t-97 -151q0 -137 239 -137q120 0 206.5 31t168.5 92z" />
    <glyph glyph-name="etatonos" unicode="&#x3ae;" horiz-adv-x="1261" 
d="M831 1212l-116 17l141 467h217v-4zM1124 676l-227 -1131h-188l227 1131q12 58 12 104q0 158 -151 158q-102 0 -201 -64.5t-156 -177.5l-139 -696h-188l163 819q7 31 7 47q0 35 -17 49.5t-55 14.5q-39 0 -72 -8l31 159q46 17 106 17q93 0 140 -38.5t47 -129.5
q0 -27 -2 -41q73 101 171 161t216 60q129 0 210 -75.5t81 -227.5q0 -61 -15 -131z" />
    <glyph glyph-name="iotatonos" unicode="&#x3af;" horiz-adv-x="614" 
d="M455 1212l-117 17l141 467h217v-4zM461 8q-61 -20 -129 -20q-219 0 -219 178q0 41 8 80l168 839h188l-164 -819q-6 -27 -6 -47q0 -34 19.5 -48.5t62.5 -14.5q56 0 105 16z" />
    <glyph glyph-name="upsilondieresistonos" unicode="&#x3b0;" horiz-adv-x="1216" 
d="M719 1212l-117 17l135 467h211v-4zM924 1315l45 221h209l-45 -221h-209zM313 1315l45 221h209l-45 -221h-209zM1085 1085q23 -127 23 -282q0 -74 -6 -145.5t-23.5 -156t-45.5 -157t-74.5 -142t-107 -118.5t-147.5 -79t-192 -30q-180 0 -281.5 85.5t-101.5 258.5
q0 71 14 142l125 624h189l-129 -645q-11 -51 -11 -100q0 -201 209 -201q72 0 131 24.5t99.5 64.5t70.5 97t47.5 114.5t28 125t14 121t3.5 109.5q0 140 -21 290h186z" />
    <glyph glyph-name="alpha" unicode="&#x3b1;" 
d="M817 176v29q-153 -230 -379 -230q-74 0 -135.5 25t-109.5 75t-74.5 133t-26.5 193q0 184 70.5 345.5t203.5 262.5t298 101q135 0 210 -67.5t95 -186.5l75 229h197q-134 -315 -195 -500t-61 -311q0 -58 19 -88t75 -30q46 0 90 16l-32 -164q-56 -20 -121 -20
q-105 0 -152 46.5t-47 141.5zM285 410q0 -267 190 -267q125 0 224 104t155 290l23 73q2 20 2 60q0 276 -209 276q-115 0 -204.5 -78t-135 -199t-45.5 -259z" />
    <glyph glyph-name="beta" unicode="&#x3b2;" horiz-adv-x="1245" 
d="M606 -25q-208 0 -327 129l-111 -559h-188l311 1561q53 269 180.5 386.5t321.5 117.5q188 0 294.5 -96t106.5 -263q0 -153 -90.5 -260.5t-235.5 -148.5q123 -35 192.5 -128t69.5 -225q0 -94 -35 -184.5t-99.5 -164.5t-166 -119.5t-223.5 -45.5zM481 1116l-168 -846
q30 -59 104 -97t171 -38q84 0 152.5 31t110.5 83t64.5 116t22.5 133q0 121 -70.5 191.5t-218.5 70.5h-86l31 155h88q152 0 238 90.5t86 219.5q0 107 -60.5 164t-163.5 57q-236 0 -301 -330z" />
    <glyph glyph-name="gamma" unicode="&#x3b3;" horiz-adv-x="1179" 
d="M1268 1085l-762 -1159l-107 -381h-213l150 426q24 196 24 451q0 152 -13.5 255t-40 158t-59.5 77t-79 22q-42 0 -96 -21l18 166q65 23 129 23q77 0 133 -30.5t97.5 -99.5t62 -185.5t20.5 -282.5q0 -143 -16 -303l522 884h230z" />
    <glyph glyph-name="delta" unicode="&#x3b4;" horiz-adv-x="1200" 
d="M1100 604q0 -89 -23 -178t-71.5 -170t-116 -143.5t-163.5 -100t-208 -37.5q-202 0 -314 116.5t-112 326.5q0 244 146 404t393 196q-49 39 -79.5 68.5t-60.5 69t-44.5 83.5t-14.5 96q0 128 88 203.5t264 75.5q148 0 279.5 -50.5t222.5 -125.5l-69 -166q-216 182 -441 182
q-85 0 -124.5 -28.5t-39.5 -86.5q0 -43 26.5 -84t58.5 -68t102 -81q69 -53 114.5 -96.5t92.5 -105.5t70.5 -137t23.5 -163zM285 426q0 -137 64 -213t183 -76q114 0 202.5 69t132.5 175.5t44 228.5q0 104 -36.5 171t-118.5 132q-201 -3 -336 -142.5t-135 -344.5z" />
    <glyph glyph-name="epsilon" unicode="&#x3b5;" horiz-adv-x="1040" 
d="M872 92q-166 -117 -419 -117q-190 0 -295 68t-105 203q0 118 78.5 201t220.5 120q-162 57 -162 211q0 143 128 237.5t346 94.5q207 0 344 -92l-60 -168q-129 94 -311 94q-117 0 -186.5 -40.5t-69.5 -119.5q0 -143 278 -143h123l-30 -156h-148q-164 0 -261 -58t-97 -151
q0 -137 239 -137q120 0 206.5 31t168.5 92z" />
    <glyph glyph-name="zeta" unicode="&#x3b6;" horiz-adv-x="942" 
d="M834 -51q0 -106 -74 -218.5t-193 -185.5l-145 101q99 53 163 128.5t64 135.5q0 50 -48.5 76t-182.5 67q-5 1 -8 2q-56 17 -94 31.5t-86.5 43t-77.5 62t-49.5 86.5t-20.5 119q0 211 198.5 478t585.5 561h-127q-266 0 -389 22l31 156q141 -25 446 -25q112 0 316 4l-29 -143
q-172 -124 -314 -249.5t-239 -235t-163.5 -211t-97 -183.5t-30.5 -147q0 -53 19.5 -91t67 -65.5t78 -39t101.5 -32.5q3 -1 5 -1.5t4 -1.5q50 -15 75.5 -23.5t66 -24.5t61.5 -32t44 -40t32.5 -55t9.5 -69z" />
    <glyph glyph-name="eta" unicode="&#x3b7;" horiz-adv-x="1261" 
d="M1124 676l-227 -1131h-188l227 1131q12 58 12 104q0 158 -151 158q-102 0 -201 -64.5t-156 -177.5l-139 -696h-188l163 819q7 31 7 47q0 35 -17 49.5t-55 14.5q-39 0 -72 -8l31 159q46 17 106 17q93 0 140 -38.5t47 -129.5q0 -27 -2 -41q73 101 171 161t216 60
q129 0 210 -75.5t81 -227.5q0 -61 -15 -131z" />
    <glyph glyph-name="theta" unicode="&#x3b8;" horiz-adv-x="1212" 
d="M502 -25q-177 0 -274 124t-97 364q0 148 37 330q78 390 241.5 603.5t399.5 213.5q177 0 274 -124t97 -364q0 -147 -37 -329q-78 -390 -241.5 -604t-399.5 -214zM791 1450q-281 0 -414 -569h592q26 160 26 262q0 307 -204 307zM315 442q0 -307 205 -307q285 0 418 592
h-592q-31 -166 -31 -285z" />
    <glyph glyph-name="iota" unicode="&#x3b9;" horiz-adv-x="614" 
d="M461 8q-61 -20 -129 -20q-219 0 -219 178q0 41 8 80l168 839h188l-164 -819q-6 -27 -6 -47q0 -34 19.5 -48.5t62.5 -14.5q56 0 105 16z" />
    <glyph glyph-name="kappa" unicode="&#x3ba;" horiz-adv-x="1163" 
d="M825 0l-276 518q-153 -160 -246 -260l-51 -258h-189l218 1085h188l-117 -579q105 119 170.5 191t140.5 148.5t126.5 117.5t109.5 76.5t109.5 49t107.5 13.5q59 0 105 -17l-47 -172q-39 17 -84 17q-79 0 -162 -55.5t-262 -237.5l368 -633v-4h-209z" />
    <glyph glyph-name="lambda" unicode="&#x3bb;" horiz-adv-x="1138" 
d="M803 0l-131 858l-492 -858h-225l674 1083q-13 87 -24.5 140.5t-27 100t-36.5 69.5t-50.5 36t-70.5 13q-53 0 -127 -33l29 164q43 21 75 29t80 8q100 0 160 -41.5t97.5 -138t66.5 -279.5l188 -1151h-186z" />
    <glyph glyph-name="uni03BC" unicode="&#x3bc;" horiz-adv-x="1277" 
d="M469 -25q-145 0 -211 105l-90 -535h-188l309 1540h188l-135 -675q-12 -59 -12 -103q0 -80 38 -120t119 -40q117 0 206.5 73.5t148.5 189.5l135 675h188l-164 -819q-6 -27 -6 -47q0 -34 17 -48.5t53 -14.5q48 0 92 16l-33 -164q-56 -20 -116 -20q-97 0 -145 38t-48 128
q0 18 2 28q-66 -94 -154.5 -150.5t-193.5 -56.5z" />
    <glyph glyph-name="nu" unicode="&#x3bd;" horiz-adv-x="1114" 
d="M1104 1085q-59 -302 -226.5 -588.5t-402.5 -496.5h-160q-44 665 -180 1085h197q100 -384 135 -895q162 179 273.5 410.5t158.5 484.5h205z" />
    <glyph glyph-name="xi" unicode="&#x3be;" horiz-adv-x="991" 
d="M856 -51q0 -105 -72 -217t-194 -187l-146 101q101 54 164.5 129.5t63.5 134.5q0 20 -7 35.5t-25.5 29t-34 22.5t-50.5 20.5t-55.5 17.5t-67.5 18q-61 16 -104.5 31.5t-92.5 43.5t-79 62.5t-50 87.5t-20 119q0 162 109 283t305 166q-107 33 -154 103t-47 155q0 122 83 213
t224 135q-196 3 -301 18l29 144q134 -25 495 -25q111 0 291 4l-33 -157h-124q-132 0 -239.5 -37t-172 -109.5t-64.5 -169.5q0 -100 70.5 -151t196.5 -51h174l-33 -164h-195q-191 0 -308.5 -96t-117.5 -234q0 -42 13.5 -74t34 -53.5t61 -40.5t76.5 -31t98 -28
q40 -11 63.5 -17.5t59.5 -19.5t57 -25t46.5 -31t39.5 -40t23.5 -50.5t9.5 -64.5z" />
    <glyph glyph-name="omicron" unicode="&#x3bf;" horiz-adv-x="1196" 
d="M510 -25q-189 0 -303.5 114t-114.5 331q0 100 24.5 199t75 187.5t120.5 156t166.5 107.5t207.5 40q189 0 303.5 -113.5t114.5 -330.5q0 -100 -24.5 -199t-75 -187.5t-120.5 -156.5t-166.5 -108t-207.5 -40zM526 137q74 0 137.5 30.5t108 81.5t76.5 117.5t47.5 139
t15.5 145.5q0 146 -63 221.5t-178 75.5q-74 0 -137.5 -30.5t-108 -81.5t-76.5 -117.5t-47.5 -139t-15.5 -145.5q0 -146 63 -221.5t178 -75.5z" />
    <glyph glyph-name="uni03C0" unicode="&#x3c0;" horiz-adv-x="1318" 
d="M1102 8q-61 -20 -131 -20q-108 0 -161.5 43t-53.5 141q0 46 12 104l131 654h-340q-32 -153 -58 -260.5t-64.5 -237t-87 -237t-107.5 -195.5h-203q121 182 196.5 404t139.5 526h-246l31 155h1179l-30 -155h-222l-133 -664q-6 -27 -6 -47q0 -35 19 -49t63 -14q56 0 105 16z
" />
    <glyph glyph-name="rho" unicode="&#x3c1;" horiz-adv-x="1236" 
d="M580 -25q-208 0 -310 170l-118 -600h-189l197 998q54 272 192.5 419.5t366.5 147.5q199 0 312.5 -112.5t113.5 -331.5q0 -177 -70.5 -334.5t-202 -257t-292.5 -99.5zM346 532l-39 -194q28 -92 93.5 -147.5t164.5 -55.5q70 0 132 29.5t108 80t79.5 116.5t50.5 141t17 151
q0 148 -65 219.5t-180 71.5q-279 0 -361 -412z" />
    <glyph glyph-name="sigma1" unicode="&#x3c2;" horiz-adv-x="1011" 
d="M551 -455l-145 101q98 52 162.5 127t64.5 137q0 21 -10 38.5t-23 29t-44 25t-53 21t-71 23.5q-47 15 -85 32t-88.5 52.5t-84.5 79.5t-58 115.5t-24 158.5q0 84 20 168t66 167.5t113 147t170 103t227 39.5q183 0 311 -92l-61 -166q-109 92 -258 92q-84 0 -153.5 -29
t-114 -75.5t-75 -106.5t-43.5 -119.5t-13 -117.5q0 -60 16 -107.5t39 -77.5t63.5 -55.5t74 -39t85.5 -30.5q38 -12 57 -18.5t51.5 -20t49.5 -24.5t39.5 -29.5t33.5 -38t19 -47t8 -59.5q0 -108 -73 -219.5t-193 -184.5z" />
    <glyph glyph-name="sigma" unicode="&#x3c3;" horiz-adv-x="1269" 
d="M1096 588q0 -115 -40 -224t-111.5 -196t-182 -140t-240.5 -53q-197 0 -313.5 116.5t-116.5 328.5q0 100 26.5 196t80.5 180.5t128.5 149t176.5 102t219 37.5h606l-31 -155h-346q144 -131 144 -342zM530 137q115 0 202 69.5t129 176t42 229.5q0 99 -30 184t-89 134h-90
q-97 0 -177 -43.5t-129.5 -115t-76 -159t-26.5 -180.5q0 -140 61.5 -217.5t183.5 -77.5z" />
    <glyph glyph-name="tau" unicode="&#x3c4;" horiz-adv-x="974" 
d="M672 16q-74 -28 -164 -28q-108 0 -161.5 43t-53.5 141q0 46 12 104l131 654h-334l31 155h918l-31 -155h-395l-136 -674q-4 -18 -4 -39q0 -32 19 -46.5t63 -14.5q69 0 129 24z" />
    <glyph glyph-name="upsilon" unicode="&#x3c5;" horiz-adv-x="1216" 
d="M1085 1085q23 -127 23 -282q0 -74 -6 -145.5t-23.5 -156t-45.5 -157t-74.5 -142t-107 -118.5t-147.5 -79t-192 -30q-180 0 -281.5 85.5t-101.5 258.5q0 71 14 142l125 624h189l-129 -645q-11 -51 -11 -100q0 -201 209 -201q72 0 131 24.5t99.5 64.5t70.5 97t47.5 114.5
t28 125t14 121t3.5 109.5q0 140 -21 290h186z" />
    <glyph glyph-name="phi" unicode="&#x3c6;" horiz-adv-x="1507" 
d="M1423 592q0 -181 -92 -322.5t-249 -218t-351 -76.5l-86 -430h-180l88 439q-98 15 -181 54t-148 101t-101.5 153t-36.5 202q0 181 92 322.5t249 217.5t351 76l96 483h181l-99 -491q98 -15 181 -54t148 -101t101.5 -153t36.5 -202zM274 498q0 -154 85 -250t223 -115
l166 828q-124 -1 -231.5 -57.5t-175 -163.5t-67.5 -242zM1235 588q0 154 -85 249.5t-224 114.5l-164 -827q124 1 231 57.5t174.5 163.5t67.5 242z" />
    <glyph glyph-name="chi" unicode="&#x3c7;" horiz-adv-x="1077" 
d="M866 -449q-65 -22 -131 -22q-35 0 -64 6.5t-51.5 23t-39 32t-31 47.5t-23.5 53.5t-19 66t-15 70t-15 78.5l-45 250l-418 -611h-221v4l602 801l-53 299q-32 178 -49 220q-22 55 -68 63q-11 2 -24 2q-41 0 -99 -21l19 166q68 23 131 23q31 0 56.5 -6t46 -15t38 -27.5
t29.5 -34.5t24 -46.5t19.5 -52t16.5 -63t14 -68t14 -76.5l37 -203l383 575h223v-4l-573 -755l65 -357q30 -168 47 -208q23 -54 70 -62q11 -2 24 -2q44 0 99 20z" />
    <glyph glyph-name="psi" unicode="&#x3c8;" horiz-adv-x="1609" 
d="M1511 829q0 -147 -25 -271.5t-80.5 -231t-139.5 -181.5t-206.5 -118.5t-277.5 -46.5l-86 -435h-184l88 437q-74 4 -138 22t-123 55t-100.5 91.5t-66.5 137.5t-25 187q0 98 25 232l76 378h188l-84 -419q-22 -119 -22 -199q0 -166 78 -241t223 -85l276 1379h185l-277 -1381
q129 4 227 57t158.5 147.5t90.5 220.5t30 282q0 114 -16 239h188q18 -124 18 -256z" />
    <glyph glyph-name="omega" unicode="&#x3c9;" horiz-adv-x="1736" 
d="M1632 631q0 -143 -39 -265t-108 -208t-167 -134.5t-212 -48.5q-129 0 -204.5 60.5t-94.5 177.5q-69 -118 -170 -178t-217 -60q-156 0 -243 103.5t-87 294.5q0 112 31 220t84 197.5t115.5 162t134.5 132.5l200 -20q-86 -78 -146.5 -146t-115 -151.5t-82.5 -177.5t-28 -197
q0 -254 182 -254q122 0 197 104t114 298l53 266h189l-53 -266q-23 -115 -23 -187q0 -215 172 -215q98 0 173 65t114 175t39 246q0 241 -137 440l196 20q58 -71 95.5 -189.5t37.5 -264.5z" />
    <glyph glyph-name="iotadieresis" unicode="&#x3ca;" horiz-adv-x="614" 
d="M539 1315l45 221h209l-45 -221h-209zM125 1315l45 221h209l-45 -221h-209zM461 8q-61 -20 -129 -20q-219 0 -219 178q0 41 8 80l168 839h188l-164 -819q-6 -27 -6 -47q0 -34 19.5 -48.5t62.5 -14.5q56 0 105 16z" />
    <glyph glyph-name="upsilondieresis" unicode="&#x3cb;" horiz-adv-x="1216" 
d="M817 1315l45 221h209l-45 -221h-209zM403 1315l46 221h208l-45 -221h-209zM1085 1085q23 -127 23 -282q0 -74 -6 -145.5t-23.5 -156t-45.5 -157t-74.5 -142t-107 -118.5t-147.5 -79t-192 -30q-180 0 -281.5 85.5t-101.5 258.5q0 71 14 142l125 624h189l-129 -645
q-11 -51 -11 -100q0 -201 209 -201q72 0 131 24.5t99.5 64.5t70.5 97t47.5 114.5t28 125t14 121t3.5 109.5q0 140 -21 290h186z" />
    <glyph glyph-name="omicrontonos" unicode="&#x3cc;" horiz-adv-x="1196" 
d="M786 1212l-116 17l141 467h217v-4zM510 -25q-189 0 -303.5 114t-114.5 331q0 100 24.5 199t75 187.5t120.5 156t166.5 107.5t207.5 40q189 0 303.5 -113.5t114.5 -330.5q0 -100 -24.5 -199t-75 -187.5t-120.5 -156.5t-166.5 -108t-207.5 -40zM526 137q74 0 137.5 30.5
t108 81.5t76.5 117.5t47.5 139t15.5 145.5q0 146 -63 221.5t-178 75.5q-74 0 -137.5 -30.5t-108 -81.5t-76.5 -117.5t-47.5 -139t-15.5 -145.5q0 -146 63 -221.5t178 -75.5z" />
    <glyph glyph-name="upsilontonos" unicode="&#x3cd;" horiz-adv-x="1216" 
d="M745 1212l-116 17l141 467h217v-4zM1085 1085q23 -127 23 -282q0 -74 -6 -145.5t-23.5 -156t-45.5 -157t-74.5 -142t-107 -118.5t-147.5 -79t-192 -30q-180 0 -281.5 85.5t-101.5 258.5q0 71 14 142l125 624h189l-129 -645q-11 -51 -11 -100q0 -201 209 -201
q72 0 131 24.5t99.5 64.5t70.5 97t47.5 114.5t28 125t14 121t3.5 109.5q0 140 -21 290h186z" />
    <glyph glyph-name="omegatonos" unicode="&#x3ce;" horiz-adv-x="1736" 
d="M1057 1212l-117 17l141 467h217v-4zM1632 631q0 -143 -39 -265t-108 -208t-167 -134.5t-212 -48.5q-129 0 -204.5 60.5t-94.5 177.5q-69 -118 -170 -178t-217 -60q-156 0 -243 103.5t-87 294.5q0 112 31 220t84 197.5t115.5 162t134.5 132.5l200 -20q-86 -78 -146.5 -146
t-115 -151.5t-82.5 -177.5t-28 -197q0 -254 182 -254q122 0 197 104t114 298l53 266h189l-53 -266q-23 -115 -23 -187q0 -215 172 -215q98 0 173 65t114 175t39 246q0 241 -137 440l196 20q58 -71 95.5 -189.5t37.5 -264.5z" />
    <glyph glyph-name="uni0400" unicode="&#x400;" horiz-adv-x="1269" 
d="M963 1634l-369 295l192 90l277 -321zM1073 172l-35 -172h-946l303 1520h930l-35 -170h-733l-94 -465h653l-35 -168h-651l-108 -545h751z" />
    <glyph glyph-name="uni0401" unicode="&#x401;" horiz-adv-x="1269" 
d="M991 1704l45 221h213l-45 -221h-213zM565 1704l45 221h213l-45 -221h-213zM1073 172l-35 -172h-946l303 1520h930l-35 -170h-733l-94 -465h653l-35 -168h-651l-108 -545h751z" />
    <glyph glyph-name="uni0402" unicode="&#x402;" horiz-adv-x="1589" 
d="M1491 500q0 -241 -146 -385t-380 -144q-129 0 -226 33l47 168q24 -12 79.5 -22.5t103.5 -10.5q146 0 233.5 95.5t87.5 257.5q0 133 -73 191t-250 58q-155 0 -289 -45l-139 -696h-197l270 1350h-432l35 170h1135l-35 -170h-506l-98 -492q143 51 305 51q475 0 475 -409z
" />
    <glyph glyph-name="uni0403" unicode="&#x403;" horiz-adv-x="1118" 
d="M768 1634l-86 70l360 315l164 -127zM1257 1346h-700l-268 -1346h-197l303 1520h897z" />
    <glyph glyph-name="uni0404" unicode="&#x404;" horiz-adv-x="1347" 
d="M1169 119q-72 -64 -191.5 -106t-266.5 -42q-271 0 -419.5 157t-148.5 468q0 145 32 282t100 259t164.5 213.5t234 144.5t299.5 53q267 0 405 -135l-75 -190q-124 149 -353 149q-114 0 -210.5 -38.5t-166 -106.5t-118 -155.5t-76.5 -192.5h702l-34 -168h-697
q-6 -55 -6 -109q0 -235 98 -345t297 -110q119 0 217 40.5t195 129.5z" />
    <glyph glyph-name="uni0405" unicode="&#x405;" horiz-adv-x="1208" 
d="M14 129l68 186q95 -77 211 -122.5t237 -45.5q167 0 259 83.5t92 207.5q0 33 -8 60.5t-18 47t-33.5 38.5t-40.5 30t-54.5 26t-59 22.5t-69.5 23.5q-53 18 -89 32t-81.5 37t-75 50t-57 64t-40.5 86.5t-13 109.5q0 99 37.5 186t106.5 153.5t176.5 105t238.5 38.5
q240 0 409 -127l-67 -186q-168 137 -371 137q-161 0 -247.5 -81.5t-86.5 -203.5q0 -36 7.5 -64.5t27.5 -51t39 -37.5t58.5 -31.5t68 -26.5t84.5 -28q44 -14 76.5 -26t72.5 -31t68 -39.5t57 -50t46.5 -63.5t28.5 -80t11 -99q0 -103 -38.5 -192t-111.5 -155t-185 -103.5
t-252 -37.5q-272 0 -482 158z" />
    <glyph glyph-name="uni0406" unicode="&#x406;" horiz-adv-x="598" 
d="M92 0l303 1520h197l-303 -1520h-197z" />
    <glyph glyph-name="uni0407" unicode="&#x407;" horiz-adv-x="598" 
d="M604 1704l45 221h213l-45 -221h-213zM219 1704l45 221h213l-45 -221h-213zM92 0l303 1520h197l-303 -1520h-197z" />
    <glyph glyph-name="uni0408" unicode="&#x408;" horiz-adv-x="845" 
d="M-104 29l51 180q108 -62 207 -62q116 0 188 76.5t109 261.5l206 1035h197l-207 -1035q-29 -147 -76 -248t-112 -159t-140.5 -82.5t-173.5 -24.5q-131 0 -249 58z" />
    <glyph glyph-name="uni0409" unicode="&#x409;" horiz-adv-x="2174" 
d="M965 0l270 1350h-350q-61 -177 -103 -294t-94 -253.5t-90.5 -223t-86.5 -182t-89.5 -152.5t-91.5 -113t-100.5 -84.5t-108.5 -46t-123 -17.5q-58 0 -100 12l34 174q30 -10 72 -10q54 0 103 25.5t95 72.5t95.5 132.5t96 184.5t105 251.5t114.5 310.5t132 383h719
l-127 -631h269q236 0 355.5 -97.5t119.5 -281.5q0 -84 -20.5 -157.5t-67.5 -139t-118 -112.5t-178.5 -74t-242.5 -27h-489zM1565 721h-260l-111 -549h287q104 0 183.5 27.5t125 74.5t68 104t22.5 122q0 114 -74.5 167.5t-240.5 53.5z" />
    <glyph glyph-name="uni040A" unicode="&#x40a;" horiz-adv-x="2191" 
d="M981 0l143 717h-692l-143 -717h-197l303 1520h197l-127 -635h692l127 635h197l-127 -635h268q237 0 356 -96t119 -279q0 -84 -20.5 -157.5t-67.5 -139t-118 -112.5t-178.5 -74t-242.5 -27h-489zM1581 717h-260l-111 -545h287q104 0 183.5 27.5t125 74.5t68 104t22.5 122
q0 113 -74.5 165t-240.5 52z" />
    <glyph glyph-name="uni040B" unicode="&#x40b;" horiz-adv-x="1605" 
d="M672 666l-133 -666h-197l270 1350h-432l35 170h1135l-35 -170h-506l-102 -504q173 80 366 80t289 -84t96 -244q0 -68 -14 -137l-92 -461h-197l90 451q12 61 12 110q0 100 -59.5 144.5t-191.5 44.5q-191 0 -334 -84z" />
    <glyph glyph-name="uni040C" unicode="&#x40c;" horiz-adv-x="1351" 
d="M815 1634l-86 70l361 315l163 -127zM1010 0l-570 756l-151 -756h-197l303 1520h197l-148 -736l816 736h264v-4l-875 -746l590 -766v-4h-229z" />
    <glyph glyph-name="uni040D" unicode="&#x40d;" horiz-adv-x="1540" 
d="M1069 1634l-369 295l193 90l276 -321zM1034 0l240 1196l-969 -1196h-213l303 1520h197l-240 -1196l969 1196h213l-303 -1520h-197z" />
    <glyph glyph-name="uni040E" unicode="&#x40e;" horiz-adv-x="1265" 
d="M528 1974l152 13q-6 -37 -6 -64q0 -78 47 -113.5t143 -35.5q106 0 172.5 50t102.5 163l164 -13q-29 -118 -97.5 -194t-156.5 -107t-199 -31q-155 0 -242.5 65t-87.5 191q0 22 8 76zM776 451q-128 -203 -212.5 -302t-164.5 -138.5t-192 -39.5q-98 0 -166 29l41 176
q59 -33 141 -33q87 0 149 50.5t167 212.5l-297 1114h204l222 -934l559 934h221z" />
    <glyph glyph-name="uni040F" unicode="&#x40f;" horiz-adv-x="1507" 
d="M1198 0h-461l-92 -455h-184l92 455h-461l303 1520h197l-270 -1348h712l271 1348h196z" />
    <glyph glyph-name="uni0410" unicode="&#x410;" horiz-adv-x="1396" 
d="M1044 0l-61 420h-606l-225 -420h-218l852 1520h213l246 -1520h-201zM465 584h496l-107 729z" />
    <glyph glyph-name="uni0411" unicode="&#x411;" horiz-adv-x="1343" 
d="M1229 510q0 -85 -20 -158t-66.5 -139t-117 -112.5t-178.5 -73.5t-245 -27h-510l303 1520h918l-35 -170h-719l-92 -461h289q236 0 354.5 -97.5t118.5 -281.5zM711 721h-279l-108 -549h305q106 0 186 27.5t125 75t66.5 104t21.5 121.5q0 114 -75.5 167.5t-241.5 53.5z" />
    <glyph glyph-name="uni0412" unicode="&#x412;" horiz-adv-x="1372" 
d="M1245 461q0 -69 -17.5 -132t-61 -124.5t-109.5 -106t-171.5 -71.5t-238.5 -27h-555l303 1520h479q433 0 433 -346q0 -65 -15.5 -122t-49.5 -110.5t-97 -94.5t-150 -63q250 -69 250 -323zM840 1350h-281l-98 -490h313q91 0 158.5 25.5t103.5 69t53 92t17 102.5
q0 106 -66 153.5t-200 47.5zM758 705h-328l-106 -533h352q94 0 166 25t115 68t64 97t21 117q0 114 -70 170t-214 56z" />
    <glyph glyph-name="uni0413" unicode="&#x413;" horiz-adv-x="1118" 
d="M1257 1346h-700l-268 -1346h-197l303 1520h897z" />
    <glyph glyph-name="uni0414" unicode="&#x414;" horiz-adv-x="1536" 
d="M-182 -432l121 604h75q366 267 705 1348h745l-270 -1348h203l-121 -604h-184l86 432h-1090l-86 -432h-184zM266 172h731l236 1178h-379q-143 -438 -286.5 -724t-301.5 -454z" />
    <glyph glyph-name="uni0415" unicode="&#x415;" horiz-adv-x="1269" 
d="M1073 172l-35 -172h-946l303 1520h930l-35 -170h-733l-94 -465h653l-35 -168h-651l-108 -545h751z" />
    <glyph glyph-name="uni0416" unicode="&#x416;" horiz-adv-x="1994" 
d="M793 0l151 758l-766 -758h-266v4l836 782l-517 730v4h209l510 -729l146 729h192l-147 -736l751 736h260v-4l-813 -750l527 -762v-4h-219l-512 754l-150 -754h-192z" />
    <glyph glyph-name="uni0417" unicode="&#x417;" horiz-adv-x="1257" 
d="M1126 463q0 -222 -176.5 -357t-470.5 -135q-287 0 -463 144l74 188q149 -156 404 -156q196 0 314 87.5t118 244.5q0 74 -31 120t-111 71.5t-217 25.5h-184l35 170h172q224 0 328 80t104 211q0 215 -277 215q-215 0 -423 -139l-29 180q213 135 479 135q217 0 333 -91.5
t116 -272.5q0 -97 -33.5 -175t-113 -139t-200.5 -90q252 -68 252 -317z" />
    <glyph glyph-name="uni0418" unicode="&#x418;" horiz-adv-x="1540" 
d="M1034 0l240 1196l-969 -1196h-213l303 1520h197l-240 -1196l969 1196h213l-303 -1520h-197z" />
    <glyph glyph-name="uni0419" unicode="&#x419;" horiz-adv-x="1540" 
d="M662 1974l151 13q-6 -37 -6 -64q0 -78 47 -113.5t143 -35.5q106 0 172.5 50t102.5 163l164 -13q-29 -118 -97.5 -194t-156.5 -107t-199 -31q-155 0 -242.5 65t-87.5 191q0 15 9 76zM1034 0l240 1196l-969 -1196h-213l303 1520h197l-240 -1196l969 1196h213l-303 -1520
h-197z" />
    <glyph glyph-name="uni041A" unicode="&#x41a;" horiz-adv-x="1351" 
d="M1010 0l-570 756l-151 -756h-197l303 1520h197l-148 -736l816 736h264v-4l-875 -746l590 -766v-4h-229z" />
    <glyph glyph-name="uni041B" unicode="&#x41b;" horiz-adv-x="1486" 
d="M981 0l270 1350h-366q-61 -177 -103 -294t-94 -253.5t-90.5 -223t-86.5 -182t-89.5 -152.5t-91.5 -113t-100.5 -84.5t-108.5 -46t-123 -17.5q-50 0 -100 12l34 174q30 -10 72 -10q54 0 103 25.5t95 72.5t95.5 132.5t96 184.5t105 251.5t114.5 310.5t132 383h736
l-303 -1520h-197z" />
    <glyph glyph-name="uni041C" unicode="&#x41c;" horiz-adv-x="1925" 
d="M797 0l-256 1319l-265 -1319h-184l303 1520h283l235 -1209l695 1209h311l-303 -1520h-193l267 1333l-770 -1333h-123z" />
    <glyph glyph-name="uni041D" unicode="&#x41d;" horiz-adv-x="1523" 
d="M1018 0l143 717h-729l-143 -717h-197l303 1520h197l-127 -635h729l127 635h197l-304 -1520h-196z" />
    <glyph glyph-name="uni041E" unicode="&#x41e;" horiz-adv-x="1548" 
d="M686 -29q-255 0 -399 157t-144 439q0 145 32.5 285.5t99.5 266.5t161 221.5t226 151.5t286 56q255 0 399 -157t144 -439q0 -145 -32.5 -285.5t-99.5 -266.5t-161 -221.5t-226 -151.5t-286 -56zM705 147q111 0 207 47.5t163.5 126t116 181t71.5 213.5t23 221
q0 216 -92 326t-264 110q-111 0 -207 -47t-163.5 -126t-116 -181t-72 -213t-23.5 -221q0 -216 92.5 -326.5t264.5 -110.5z" />
    <glyph glyph-name="uni041F" unicode="&#x41f;" horiz-adv-x="1507" 
d="M1001 0l269 1350h-713l-268 -1350h-197l303 1520h1106l-303 -1520h-197z" />
    <glyph glyph-name="uni0420" unicode="&#x420;" horiz-adv-x="1310" 
d="M659 524h-266l-104 -524h-197l303 1520h455q491 0 491 -422q0 -91 -22 -172.5t-74 -156t-129 -128t-194 -85.5t-263 -32zM817 1350h-258l-131 -658h262q98 0 176 22.5t129 59.5t84.5 89t47.5 108t14 119q0 133 -74.5 196.5t-249.5 63.5z" />
    <glyph glyph-name="uni0421" unicode="&#x421;" horiz-adv-x="1372" 
d="M1227 139q-83 -71 -212.5 -119.5t-287.5 -48.5q-272 0 -428 158.5t-156 466.5q0 144 34.5 282t105.5 259.5t170.5 213t238.5 144.5t301 53q272 0 426 -147l-73 -195q-140 166 -379 166q-119 0 -220.5 -43t-174 -117t-124 -172t-76 -209t-24.5 -227q0 -457 402 -457
q252 0 462 191z" />
    <glyph glyph-name="uni0422" unicode="&#x422;" horiz-adv-x="1175" 
d="M1315 1350h-465l-270 -1350h-197l270 1350h-473l35 170h1135z" />
    <glyph glyph-name="uni0423" unicode="&#x423;" horiz-adv-x="1265" 
d="M776 451q-128 -203 -212.5 -302t-164.5 -138.5t-192 -39.5q-98 0 -166 29l41 176q59 -33 141 -33q87 0 149 50.5t167 212.5l-297 1114h204l222 -934l559 934h221z" />
    <glyph glyph-name="uni0424" unicode="&#x424;" horiz-adv-x="1744" 
d="M1692 846q0 -323 -216.5 -500.5t-586.5 -177.5l-41 -205h-184l41 205q-158 4 -284 64t-203 177t-77 273q0 323 216.5 500.5t586.5 177.5l39 196h184l-39 -196q117 -2 219.5 -38t179 -100t121 -161t44.5 -215zM342 686q0 -173 106.5 -265.5t288.5 -92.5l174 872
q-261 0 -415 -132.5t-154 -381.5zM1491 842q0 173 -106.5 265.5t-288.5 92.5l-174 -872q261 0 415 132.5t154 381.5z" />
    <glyph glyph-name="uni0425" unicode="&#x425;" horiz-adv-x="1306" 
d="M932 0l-266 623l-486 -623h-231l647 786l-324 734h209l250 -596l461 596h231l-620 -758l338 -762h-209z" />
    <glyph glyph-name="uni0426" unicode="&#x426;" horiz-adv-x="1556" 
d="M1417 172l-121 -604h-184l86 432h-1106l303 1520h197l-270 -1348h696l270 1348h197l-271 -1348h203z" />
    <glyph glyph-name="uni0427" unicode="&#x427;" horiz-adv-x="1388" 
d="M1382 1520l-303 -1520h-196l123 616q-168 -92 -371 -92q-201 0 -308.5 92.5t-107.5 260.5q0 55 12 120l105 523h196l-100 -502q-14 -75 -14 -117q0 -106 63.5 -153.5t204.5 -47.5q197 0 354 93l146 727h196z" />
    <glyph glyph-name="uni0428" unicode="&#x428;" horiz-adv-x="2031" 
d="M2025 1520l-303 -1520h-1630l303 1520h197l-268 -1348h518l270 1348h197l-271 -1348h523l268 1348h196z" />
    <glyph glyph-name="uni0429" unicode="&#x429;" horiz-adv-x="2097" 
d="M1958 172l-121 -604h-184l86 432h-1647l303 1520h197l-268 -1348h518l270 1348h197l-271 -1348h521l270 1348h196l-270 -1348h203z" />
    <glyph glyph-name="uni042A" unicode="&#x42a;" horiz-adv-x="1568" 
d="M1475 526q0 -88 -19.5 -163t-65.5 -143t-117.5 -116t-182.5 -76t-252 -28h-500l270 1348h-436l35 172h631l-121 -602h276q243 0 362.5 -100.5t119.5 -291.5zM954 750h-270l-117 -578h301q89 0 159 19.5t116 51.5t76 77t42.5 93.5t12.5 102.5q0 121 -75 177.5t-245 56.5z
" />
    <glyph glyph-name="uni042B" unicode="&#x42b;" horiz-adv-x="1847" 
d="M1212 526q0 -88 -19.5 -163t-65.5 -143t-117.5 -116t-182.5 -76t-252 -28h-483l303 1520h197l-121 -602h260q243 0 362 -100.5t119 -291.5zM1341 0l304 1520h196l-303 -1520h-197zM692 750h-254l-116 -578h284q89 0 159 19.5t116 51.5t76 77t42.5 93.5t12.5 102.5
q0 121 -75 177.5t-245 56.5z" />
    <glyph glyph-name="uni042C" unicode="&#x42c;" horiz-adv-x="1335" 
d="M1241 526q0 -88 -19.5 -163t-65.5 -143t-117.5 -116t-182.5 -76t-252 -28h-512l303 1520h197l-121 -602h289q243 0 362 -100.5t119 -291.5zM721 750h-283l-116 -578h313q89 0 159 19.5t115.5 51.5t75.5 77t42.5 93.5t12.5 102.5q0 121 -74.5 177.5t-244.5 56.5z" />
    <glyph glyph-name="uni042D" unicode="&#x42d;" horiz-adv-x="1347" 
d="M1290 922q0 -148 -31 -284.5t-97.5 -258.5t-162.5 -212.5t-235 -143t-305 -52.5q-146 0 -262 39t-181 105l74 188q61 -72 163.5 -114t223.5 -42q233 0 389 155t205 409h-704l34 168h689v39q0 226 -90 340t-293 114q-237 0 -406 -139l-27 180q88 65 206.5 100t250.5 35
q270 0 414.5 -154t144.5 -472z" />
    <glyph glyph-name="uni042E" unicode="&#x42e;" horiz-adv-x="2101" 
d="M2044 956q0 -145 -32 -286t-98 -267.5t-158 -222.5t-221.5 -152.5t-279.5 -56.5q-246 0 -386 155.5t-140 436.5q0 69 10 154h-307l-143 -717h-197l303 1520h197l-127 -635h305q36 138 101.5 256t157.5 210t218 144.5t271 52.5q246 0 386 -155.5t140 -436.5zM1274 147
q107 0 200.5 47.5t159 127t113 182.5t70 214.5t22.5 221.5q0 215 -88 323.5t-252 108.5q-133 0 -243.5 -72.5t-179 -188.5t-105.5 -254t-37 -277q0 -215 88 -324t252 -109z" />
    <glyph glyph-name="uni042F" unicode="&#x42f;" horiz-adv-x="1400" 
d="M895 0l117 588h-336l-496 -588h-241l550 633q-106 48 -167.5 143t-61.5 230q0 105 39.5 198t111.5 163.5t183 111.5t246 41h555l-303 -1520h-197zM743 754h304l118 596h-334q-177 0 -273.5 -95.5t-96.5 -240.5q0 -129 75.5 -194.5t206.5 -65.5z" />
    <glyph glyph-name="uni0430" unicode="&#x430;" horiz-adv-x="1146" 
d="M711 0l26 160q-145 -185 -366 -185q-136 0 -222 75t-86 218q0 193 166 298.5t480 105.5h112l4 20q11 64 11 90q0 87 -49.5 125.5t-155.5 38.5q-188 0 -359 -121l-12 170q74 53 182 84t224 31q179 0 268.5 -78.5t89.5 -226.5q0 -63 -14 -129l-136 -676h-163zM426 135
q102 0 189.5 56t140.5 153l37 188h-101q-215 0 -325.5 -63.5t-110.5 -181.5q0 -76 45 -114t125 -38z" />
    <glyph glyph-name="uni0431" unicode="&#x431;" horiz-adv-x="1212" 
d="M1116 655q0 -102 -24.5 -200t-74.5 -185t-120.5 -152.5t-169.5 -104t-213 -38.5q-195 0 -297 115.5t-102 339.5q0 124 30 277q82 410 248 607.5t449 237.5l401 58l-37 -185l-401 -57q-172 -25 -283.5 -150t-169.5 -364q157 207 398 207q171 0 268.5 -102.5t97.5 -303.5z
M299 426q0 -289 229 -289q91 0 167.5 44.5t125.5 116.5t76 161t27 180q0 258 -224 258q-116 0 -212 -64t-160 -180q-29 -136 -29 -227z" />
    <glyph glyph-name="uni0432" unicode="&#x432;" horiz-adv-x="1155" 
d="M1016 328q0 -50 -12.5 -95t-43.5 -88.5t-78 -75t-122 -50.5t-170 -19h-527l218 1085h469q168 0 245.5 -61.5t77.5 -181.5q0 -102 -55 -178.5t-182 -106.5q180 -48 180 -229zM717 938h-281l-63 -313h293q112 0 165.5 52t53.5 130q0 68 -41.5 99.5t-126.5 31.5zM645 485
h-301l-65 -333h315q116 0 172.5 54.5t56.5 137.5q0 72 -43.5 106.5t-134.5 34.5z" />
    <glyph glyph-name="uni0433" unicode="&#x433;" horiz-adv-x="915" 
d="M950 926h-514l-184 -926h-189l218 1085h700z" />
    <glyph glyph-name="uni0434" unicode="&#x434;" horiz-adv-x="1265" 
d="M-186 -432l118 588h70q59 40 119 107.5t126.5 175t135 273t129.5 373.5h616l-186 -929h191l-119 -588h-176l86 432h-848l-86 -432h-176zM246 156h508l155 774h-262q-157 -515 -401 -774z" />
    <glyph glyph-name="uni0435" unicode="&#x435;" horiz-adv-x="1138" 
d="M950 98q-68 -51 -173 -87t-234 -36q-224 0 -337.5 117.5t-113.5 331.5q0 95 22.5 190.5t71 185t117 158.5t168.5 110.5t217 41.5q84 0 150 -22t107.5 -57.5t68 -86t37 -102.5t10.5 -111q0 -130 -47 -229h-727q-2 -23 -2 -66q0 -149 69.5 -222t225.5 -73q196 0 358 127z
M674 954q-135 0 -226.5 -87.5t-132.5 -225.5h545q19 39 19 104q0 95 -48.5 152t-156.5 57z" />
    <glyph glyph-name="uni0436" unicode="&#x436;" horiz-adv-x="1634" 
d="M618 0l111 549l-579 -549h-246v4l637 571l-387 506v4h204l375 -507l103 507h180l-103 -507l547 507h238v-4l-596 -526l411 -551v-4h-213l-391 549l-110 -549h-181z" />
    <glyph glyph-name="uni0437" unicode="&#x437;" horiz-adv-x="1048" 
d="M905 332q0 -167 -141 -262t-381 -95q-129 0 -215 27t-156 76l64 170q109 -109 325 -109q144 0 228 51.5t84 153.5q0 70 -53 102.5t-197 32.5h-195l31 152h184q154 0 224.5 49.5t70.5 128.5q0 137 -209 137q-176 0 -333 -102l-23 166q166 100 387 100q180 0 275.5 -67.5
t95.5 -196.5q0 -106 -64.5 -180.5t-183.5 -106.5q182 -46 182 -227z" />
    <glyph glyph-name="uni0438" unicode="&#x438;" horiz-adv-x="1249" 
d="M784 0l162 809l-692 -809h-191l218 1085h184l-162 -809l692 809h191l-217 -1085h-185z" />
    <glyph glyph-name="uni0439" unicode="&#x439;" horiz-adv-x="1249" 
d="M485 1597l146 13q-10 -62 -10 -94q0 -156 147 -156q88 0 145 58.5t95 191.5l161 -13q-27 -124 -90 -208.5t-145 -122t-180 -37.5q-132 0 -206.5 68.5t-74.5 193.5q0 47 12 106zM784 0l162 809l-692 -809h-191l218 1085h184l-162 -809l692 809h191l-217 -1085h-185z" />
    <glyph glyph-name="uni043A" unicode="&#x43a;" horiz-adv-x="1126" 
d="M788 0l-426 549l-110 -549h-189l218 1085h188l-102 -507l563 507h254v-4l-619 -520l449 -557v-4h-226z" />
    <glyph glyph-name="uni043B" unicode="&#x43b;" horiz-adv-x="1204" 
d="M735 0l187 930h-275q-48 -146 -84.5 -249t-79.5 -209t-80.5 -176t-83 -134t-91.5 -100t-101 -57t-117 -21q-52 0 -94 12l33 168q20 -8 53 -8q41 0 78.5 18.5t70.5 51t68.5 93.5t66.5 127t71 172.5t75.5 209.5t85.5 257h623l-217 -1085h-189z" />
    <glyph glyph-name="uni043C" unicode="&#x43c;" horiz-adv-x="1511" 
d="M592 0l-176 905l-180 -905h-173l218 1085h260l157 -819l473 819h277l-217 -1085h-176l180 901l-520 -901h-123z" />
    <glyph glyph-name="uni043D" unicode="&#x43d;" horiz-adv-x="1232" 
d="M764 0l98 489h-512l-98 -489h-189l218 1085h188l-88 -440h512l88 440h188l-217 -1085h-188z" />
    <glyph glyph-name="uni043E" unicode="&#x43e;" horiz-adv-x="1196" 
d="M510 -25q-189 0 -303.5 114t-114.5 331q0 100 24.5 199t75 187.5t120.5 156t166.5 107.5t207.5 40q189 0 303.5 -113.5t114.5 -330.5q0 -100 -24.5 -199t-75 -187.5t-120.5 -156.5t-166.5 -108t-207.5 -40zM526 137q74 0 137.5 30.5t108 81.5t76.5 117.5t47.5 139
t15.5 145.5q0 146 -63 221.5t-178 75.5q-74 0 -137.5 -30.5t-108 -81.5t-76.5 -117.5t-47.5 -139t-15.5 -145.5q0 -146 63 -221.5t178 -75.5z" />
    <glyph glyph-name="uni043F" unicode="&#x43f;" horiz-adv-x="1212" 
d="M743 0l187 930h-492l-186 -930h-189l218 1085h868l-217 -1085h-189z" />
    <glyph glyph-name="uni0440" unicode="&#x440;" horiz-adv-x="1245" 
d="M575 -25q-195 0 -301 142l-114 -572h-189l310 1540h163l-30 -182q146 207 370 207q175 0 272 -118t97 -310q0 -137 -40 -263.5t-112.5 -225.5t-183.5 -158.5t-242 -59.5zM393 715l-88 -443q35 -63 101.5 -100t152.5 -37q122 0 215.5 75.5t140 193.5t46.5 255
q0 140 -61 211.5t-173 71.5q-104 0 -191.5 -59t-142.5 -168z" />
    <glyph glyph-name="uni0441" unicode="&#x441;" horiz-adv-x="1048" 
d="M887 98q-150 -123 -369 -123q-200 0 -313 113t-113 332q0 128 39.5 249t114 220.5t194.5 160t267 60.5q218 0 321 -123l-63 -164q-97 121 -271 121q-102 0 -183 -45.5t-129 -120t-72.5 -161.5t-24.5 -179q0 -297 270 -297q176 0 319 127z" />
    <glyph glyph-name="uni0442" unicode="&#x442;" horiz-adv-x="970" 
d="M1008 930h-351l-186 -930h-188l186 930h-350l31 155h888z" />
    <glyph glyph-name="uni0443" unicode="&#x443;" horiz-adv-x="1085" 
d="M532 10q-112 -199 -192.5 -301t-153 -141t-170.5 -39q-96 0 -172 37l50 172q64 -37 137 -37q77 0 147 64.5t160 232.5l-191 1087h197l125 -888l457 888h213z" />
    <glyph glyph-name="uni0444" unicode="&#x444;" horiz-adv-x="1548" 
d="M1468 639q0 -129 -34 -235t-96.5 -182.5t-151 -129.5t-197 -79.5t-235.5 -28.5l-88 -439h-181l88 439q-218 6 -354.5 130.5t-136.5 331.5q0 160 52.5 285t148 205t225.5 122t289 44l98 491h180l-98 -491q218 -6 354.5 -131t136.5 -332zM270 455q0 -145 88.5 -232.5
t245.5 -87.5l162 815q-225 0 -360.5 -128t-135.5 -367zM1280 631q0 145 -88.5 232t-245.5 87l-162 -815q225 0 360.5 128.5t135.5 367.5z" />
    <glyph glyph-name="uni0445" unicode="&#x445;" horiz-adv-x="1048" 
d="M682 0l-186 414l-336 -414h-217v4l485 553l-254 524v4h199l182 -399l319 399h218v-4l-471 -538l260 -539v-4h-199z" />
    <glyph glyph-name="uni0446" unicode="&#x446;" horiz-adv-x="1286" 
d="M1153 156l-119 -588h-176l86 432h-881l218 1085h188l-186 -929h491l187 929h188l-186 -929h190z" />
    <glyph glyph-name="uni0447" unicode="&#x447;" horiz-adv-x="1142" 
d="M1079 1085l-217 -1085h-188l84 418q-139 -66 -291 -66t-234.5 68.5t-82.5 195.5q0 36 10 91l76 378h188l-70 -348q-10 -55 -10 -86q0 -73 44.5 -104t146.5 -31q148 0 253 57l103 512h188z" />
    <glyph glyph-name="uni0448" unicode="&#x448;" horiz-adv-x="1744" 
d="M1681 1085l-217 -1085h-1401l218 1085h188l-186 -929h417l187 929h188l-186 -929h418l186 929h188z" />
    <glyph glyph-name="uni0449" unicode="&#x449;" horiz-adv-x="1816" 
d="M1686 156l-119 -588h-176l86 432h-1414l218 1085h188l-186 -929h417l187 929h188l-186 -929h418l186 929h188l-186 -929h191z" />
    <glyph glyph-name="uni044A" unicode="&#x44a;" horiz-adv-x="1306" 
d="M1196 393q0 -80 -24.5 -147t-78 -124t-152 -89.5t-232.5 -32.5h-441l191 930h-340l31 155h528l-80 -389h227q190 0 280.5 -76t90.5 -227zM782 549h-215l-80 -397h236q77 0 134.5 19.5t89 53.5t46.5 74t15 86q0 85 -53 124.5t-173 39.5z" />
    <glyph glyph-name="uni044B" unicode="&#x44b;" horiz-adv-x="1552" 
d="M967 393q0 -80 -24.5 -147t-78.5 -124t-152.5 -89.5t-232.5 -32.5h-416l218 1085h188l-78 -389h205q190 0 280.5 -76t90.5 -227zM1083 0l217 1085h189l-217 -1085h-189zM553 549h-191l-79 -397h211q77 0 134.5 19.5t89 53.5t46 74t14.5 86q0 85 -52.5 124.5t-172.5 39.5z
" />
    <glyph glyph-name="uni044C" unicode="&#x44c;" horiz-adv-x="1114" 
d="M1004 393q0 -80 -24.5 -147t-78.5 -124t-152.5 -89.5t-232.5 -32.5h-453l218 1085h188l-78 -389h242q190 0 280.5 -76t90.5 -227zM590 549h-228l-79 -397h247q77 0 134.5 19.5t89 53.5t46.5 74t15 86q0 85 -52.5 124.5t-172.5 39.5z" />
    <glyph glyph-name="uni044D" unicode="&#x44d;" horiz-adv-x="1064" 
d="M260 485l31 156h493q0 160 -65.5 231.5t-200.5 71.5q-180 0 -301 -100l-20 166q140 100 348 100q201 0 314.5 -114.5t113.5 -354.5q0 -104 -22 -199.5t-70 -181t-118.5 -148.5t-174.5 -100t-230 -37q-112 0 -206 27.5t-150 77.5l64 168q46 -49 128.5 -78t176.5 -29
q170 0 269 92.5t130 251.5h-510z" />
    <glyph glyph-name="uni044E" unicode="&#x44e;" horiz-adv-x="1683" 
d="M1591 670q0 -101 -24 -200t-72.5 -188.5t-116.5 -157.5t-163.5 -108.5t-204.5 -40.5q-180 0 -293 112.5t-113 328.5q0 23 4 73h-258l-98 -489h-189l218 1085h188l-88 -440h256q28 96 76 178.5t115.5 147.5t159.5 102t198 37q180 0 292.5 -112t112.5 -328zM1026 137
q88 0 161 47t118 122.5t69.5 166t24.5 182.5q0 145 -60.5 219t-169.5 74q-88 0 -161 -47t-118 -122.5t-69 -166t-24 -182.5q0 -145 60 -219t169 -74z" />
    <glyph glyph-name="uni044F" unicode="&#x44f;" horiz-adv-x="1167" 
d="M698 0l82 406h-250l-342 -406h-225v4l393 434q-80 34 -127 104t-47 169q0 159 113 266.5t307 107.5h502l-217 -1085h-189zM555 553h254l78 385h-275q-116 0 -178.5 -61t-62.5 -156q0 -83 48.5 -125.5t135.5 -42.5z" />
    <glyph glyph-name="uni0450" unicode="&#x450;" horiz-adv-x="1138" 
d="M741 1212l-270 416l186 68l187 -434zM950 98q-68 -51 -173 -87t-234 -36q-224 0 -337.5 117.5t-113.5 331.5q0 95 22.5 190.5t71 185t117 158.5t168.5 110.5t217 41.5q84 0 150 -22t107.5 -57.5t68 -86t37 -102.5t10.5 -111q0 -130 -47 -229h-727q-2 -23 -2 -66
q0 -149 69.5 -222t225.5 -73q196 0 358 127zM674 954q-135 0 -226.5 -87.5t-132.5 -225.5h545q19 39 19 104q0 95 -48.5 152t-156.5 57z" />
    <glyph glyph-name="uni0451" unicode="&#x451;" horiz-adv-x="1138" 
d="M836 1315l45 221h209l-46 -221h-208zM422 1315l45 221h209l-45 -221h-209zM950 98q-68 -51 -173 -87t-234 -36q-224 0 -337.5 117.5t-113.5 331.5q0 95 22.5 190.5t71 185t117 158.5t168.5 110.5t217 41.5q84 0 150 -22t107.5 -57.5t68 -86t37 -102.5t10.5 -111
q0 -130 -47 -229h-727q-2 -23 -2 -66q0 -149 69.5 -222t225.5 -73q196 0 358 127zM674 954q-135 0 -226.5 -87.5t-132.5 -225.5h545q19 39 19 104q0 95 -48.5 152t-156.5 57z" />
    <glyph glyph-name="uni0452" unicode="&#x452;" horiz-adv-x="1212" 
d="M940 -61q-44 -219 -149 -314.5t-263 -95.5q-100 0 -176 37l45 168q64 -37 138 -37q81 0 135 51t80 180l133 666q12 58 12 102q0 81 -38.5 118.5t-115.5 37.5q-104 0 -204 -62.5t-158 -175.5l-123 -614h-188l249 1247h-172l27 131h172l43 215h188l-43 -215h381l-26 -131
h-381l-86 -420q153 197 371 197q130 0 212 -74.5t82 -226.5q0 -63 -14 -129z" />
    <glyph glyph-name="uni0453" unicode="&#x453;" horiz-adv-x="915" 
d="M618 1212l-98 60l316 424l172 -107zM950 926h-514l-184 -926h-189l218 1085h700z" />
    <glyph glyph-name="uni0454" unicode="&#x454;" horiz-adv-x="1064" 
d="M883 80q-144 -105 -363 -105q-209 0 -318.5 111.5t-109.5 337.5q0 105 23 203t73 186t121.5 154t175 104.5t226.5 38.5q111 0 193 -29.5t128 -76.5l-63 -168q-97 108 -275 108q-153 0 -249 -83.5t-136 -219.5h502l-31 -156h-497q-2 -14 -2 -45q0 -154 65.5 -226.5
t208.5 -72.5q173 0 313 111z" />
    <glyph glyph-name="uni0455" unicode="&#x455;" horiz-adv-x="966" 
d="M14 98l60 162q156 -123 334 -123q113 0 176 48t63 118q0 28 -12 50.5t-27.5 37.5t-47.5 30t-54.5 22.5t-65.5 21.5q-48 15 -78 27t-70.5 36t-64 51.5t-40.5 71.5t-17 99q0 161 120.5 260.5t311.5 99.5q184 0 316 -98l-60 -162q-128 98 -272 98q-112 0 -173 -50t-61 -120
q0 -24 7 -43.5t23.5 -35.5t32 -27.5t44.5 -23.5t48.5 -19t55.5 -19q47 -16 78 -28.5t70.5 -36t62 -51t39 -70.5t16.5 -96q0 -157 -121.5 -255t-324.5 -98q-209 0 -369 123z" />
    <glyph glyph-name="uni0456" unicode="&#x456;" horiz-adv-x="540" 
d="M313 1315l45 221h222l-45 -221h-222zM68 0l217 1085h188l-217 -1085h-188z" />
    <glyph glyph-name="uni0457" unicode="&#x457;" horiz-adv-x="548" 
d="M498 1315l45 221h209l-45 -221h-209zM150 1315l45 221h208l-45 -221h-208zM72 0l217 1085h188l-217 -1085h-188z" />
    <glyph glyph-name="uni0458" unicode="&#x458;" horiz-adv-x="557" 
d="M334 1315l45 221h221l-45 -221h-221zM-324 -434l50 172q64 -37 137 -37q80 0 133.5 54t79.5 184l229 1146h189l-230 -1146q-44 -219 -148.5 -314.5t-262.5 -95.5q-101 0 -177 37z" />
    <glyph glyph-name="uni0459" unicode="&#x459;" horiz-adv-x="1736" 
d="M719 0l186 930h-258q-48 -146 -84.5 -249t-79.5 -209t-80.5 -176t-83 -134t-91.5 -100t-101 -57t-117 -21q-52 0 -94 12l33 168q20 -8 53 -8q41 0 78.5 18.5t70.5 51t68.5 93.5t66.5 127t71 172.5t75.5 209.5t85.5 257h606l-84 -417h222q188 0 276 -72t88 -219
q0 -61 -14 -113.5t-48.5 -102t-87.5 -84.5t-136.5 -56t-190.5 -21h-430zM1219 520h-207l-74 -368h225q145 0 210 61.5t65 155.5q0 79 -50.5 115t-168.5 36z" />
    <glyph glyph-name="uni045A" unicode="&#x45a;" horiz-adv-x="1765" 
d="M748 0l102 512h-496l-102 -512h-189l218 1085h188l-84 -417h496l84 417h188l-84 -417h221q188 0 276.5 -72t88.5 -219q0 -61 -14 -113.5t-48.5 -102t-87.5 -84.5t-136.5 -56t-190.5 -21h-430zM1247 520h-207l-73 -368h225q145 0 209.5 61.5t64.5 155.5q0 79 -50.5 115
t-168.5 36z" />
    <glyph glyph-name="uni045B" unicode="&#x45b;" horiz-adv-x="1212" 
d="M379 614l-123 -614h-188l249 1247h-172l27 131h172l43 215h188l-43 -215h381l-26 -131h-381l-86 -420q153 197 371 197q130 0 212 -74.5t82 -226.5q0 -63 -14 -129l-119 -594h-188l119 594q12 58 12 102q0 81 -38.5 118.5t-115.5 37.5q-104 0 -204 -62.5t-158 -175.5z
" />
    <glyph glyph-name="uni045C" unicode="&#x45c;" horiz-adv-x="1126" 
d="M649 1212l-98 60l315 424l172 -107zM788 0l-426 549l-110 -549h-189l218 1085h188l-102 -507l563 507h254v-4l-619 -520l449 -557v-4h-226z" />
    <glyph glyph-name="uni045D" unicode="&#x45d;" horiz-adv-x="1249" 
d="M778 1212l-270 416l186 68l187 -434zM784 0l162 809l-692 -809h-191l218 1085h184l-162 -809l692 809h191l-217 -1085h-185z" />
    <glyph glyph-name="uni045E" unicode="&#x45e;" horiz-adv-x="1085" 
d="M412 1597l145 13q-10 -62 -10 -94q0 -156 147 -156q88 0 145 58.5t95 191.5l162 -13q-27 -124 -90.5 -208.5t-145.5 -122t-180 -37.5q-132 0 -206.5 68.5t-74.5 193.5q0 43 13 106zM532 10q-112 -199 -192.5 -301t-153 -141t-170.5 -39q-96 0 -172 37l50 172
q64 -37 137 -37q77 0 147 64.5t160 232.5l-191 1087h197l125 -888l457 888h213z" />
    <glyph glyph-name="uni045F" unicode="&#x45f;" horiz-adv-x="1224" 
d="M944 0h-344l-92 -455h-176l92 455h-361l218 1085h188l-186 -929h503l187 929h188z" />
    <glyph glyph-name="uni0462" unicode="&#x462;" horiz-adv-x="1454" 
d="M1348 502q0 -104 -33.5 -191.5t-104.5 -158.5t-196 -111.5t-293 -40.5h-477l233 1167h-332l31 152h330l55 274h197l-56 -274h490l-31 -152h-487l-60 -295h256q234 0 356 -96t122 -274zM825 705h-243l-107 -533h273q105 0 184.5 27t125 73.5t67.5 101.5t22 118
q0 108 -79 160.5t-243 52.5z" />
    <glyph glyph-name="uni0463" unicode="&#x463;" horiz-adv-x="1171" 
d="M1057 379q0 -77 -24.5 -141.5t-77.5 -119.5t-148.5 -86.5t-226.5 -31.5h-435l189 942h-221l28 143h221l87 435h188l-86 -435h344l-29 -143h-344l-55 -270h225q188 0 276.5 -73t88.5 -220zM647 524h-209l-73 -372h227q74 0 129 18.5t86 50t46 69t15 81.5q0 80 -51 116.5
t-170 36.5z" />
    <glyph glyph-name="uni0472" unicode="&#x472;" horiz-adv-x="1548" 
d="M686 -29q-255 0 -399 157t-144 439q0 145 32.5 285.5t99.5 266.5t161 221.5t226 151.5t286 56q255 0 399 -157t144 -439q0 -145 -32.5 -285.5t-99.5 -266.5t-161 -221.5t-226 -151.5t-286 -56zM928 1372q-105 0 -196.5 -41.5t-158.5 -113.5t-114.5 -162.5t-75.5 -196.5
h903q2 27 2 78q0 217 -92 326.5t-268 109.5zM346 584q0 -217 92.5 -327t268.5 -110q108 0 202 44t162 121t115.5 172.5t73.5 205.5h-908q-6 -52 -6 -106z" />
    <glyph glyph-name="uni0473" unicode="&#x473;" horiz-adv-x="1196" 
d="M510 -25q-189 0 -303.5 114t-114.5 331q0 100 24.5 199t75 187.5t120.5 156t166.5 107.5t207.5 40q189 0 303.5 -113.5t114.5 -330.5q0 -100 -24.5 -199t-75 -187.5t-120.5 -156.5t-166.5 -108t-207.5 -40zM670 948q-133 0 -227.5 -88t-135.5 -235h608q3 27 3 55
q0 132 -68 200t-180 68zM279 406q0 -132 67.5 -200.5t179.5 -68.5q140 0 235.5 95.5t133.5 252.5h-612q-4 -54 -4 -79z" />
    <glyph glyph-name="uni0474" unicode="&#x474;" horiz-adv-x="1486" 
d="M1233 1085l-569 -1085h-189l-231 1520h200l170 -1266l402 811q77 156 144 254.5t131.5 147.5t119.5 65t131 16q121 0 182 -45l-57 -172q-59 41 -129 41q-86 0 -150.5 -58.5t-154.5 -228.5z" />
    <glyph glyph-name="uni0475" unicode="&#x475;" horiz-adv-x="1146" 
d="M926 778l-414 -778h-180l-185 1085h193l119 -872l274 549q69 140 131 216t123 104t146 28q81 0 129 -29l-52 -163q-34 24 -88 24q-60 0 -104.5 -37t-91.5 -127z" />
    <glyph glyph-name="uni0490" unicode="&#x490;" horiz-adv-x="1118" 
d="M1245 1346h-690l-266 -1346h-197l303 1520h713l109 376h167z" />
    <glyph glyph-name="uni0491" unicode="&#x491;" horiz-adv-x="915" 
d="M946 926h-510l-184 -926h-189l218 1085h530l111 377h155z" />
    <glyph glyph-name="uni0492" unicode="&#x492;" horiz-adv-x="1159" 
d="M911 717h-438l-143 -717h-197l143 717h-184l31 151h184l129 652h897l-35 -174h-700l-94 -478h438z" />
    <glyph glyph-name="uni0493" unicode="&#x493;" horiz-adv-x="956" 
d="M711 477h-322l-96 -477h-189l97 477h-158l27 131h155l97 477h700l-31 -159h-514l-63 -318h323z" />
    <glyph glyph-name="uni0496" unicode="&#x496;" horiz-adv-x="2093" 
d="M1974 172l-121 -604h-184l86 432h-108l-512 754l-150 -754h-192l151 758l-766 -758h-266v4l836 782l-517 730v4h209l510 -729l146 729h192l-147 -736l751 736h260v-4l-813 -750l410 -594h225z" />
    <glyph glyph-name="uni0497" unicode="&#x497;" horiz-adv-x="1724" 
d="M1618 156l-119 -588h-176l86 432h-109l-391 549l-110 -549h-181l111 549l-579 -549h-246v4l637 571l-387 506v4h204l375 -507l103 507h180l-103 -507l547 507h238v-4l-596 -526l299 -399h217z" />
    <glyph glyph-name="uni0498" unicode="&#x498;" horiz-adv-x="1257" 
d="M684 -213q0 -118 -82.5 -190t-206.5 -72q-48 0 -98.5 11t-77.5 26l51 145q46 -31 119 -31q63 0 102 38t39 106q0 84 -61 151q-279 3 -453 144l74 188q149 -156 404 -156q196 0 314 87.5t118 244.5q0 74 -31 120t-111 71.5t-217 25.5h-184l35 170h172q224 0 328 80
t104 211q0 215 -277 215q-215 0 -423 -139l-29 180q213 135 479 135q217 0 333 -91.5t116 -272.5q0 -97 -33.5 -175t-113 -139t-200.5 -90q252 -68 252 -317q0 -198 -141 -328t-383 -158q40 -47 61 -90t21 -100z" />
    <glyph glyph-name="uni0499" unicode="&#x499;" horiz-adv-x="1048" 
d="M594 -213q0 -118 -82.5 -190t-206.5 -72q-48 0 -98.5 11t-77.5 26l51 145q46 -31 119 -31q63 0 102 38t39 106q0 84 -65 155q-222 2 -363 103l64 170q109 -109 325 -109q144 0 228 51.5t84 153.5q0 70 -53 102.5t-197 32.5h-195l31 152h184q154 0 224.5 49.5t70.5 128.5
q0 137 -209 137q-176 0 -333 -102l-23 166q166 100 387 100q180 0 275.5 -67.5t95.5 -196.5q0 -106 -64.5 -180.5t-183.5 -106.5q182 -46 182 -227q0 -145 -105 -235.5t-292 -112.5q43 -50 64.5 -93.5t21.5 -103.5z" />
    <glyph glyph-name="uni049A" unicode="&#x49a;" horiz-adv-x="1445" 
d="M1327 172l-121 -604h-184l86 432h-98l-570 756l-151 -756h-197l303 1520h197l-148 -736l816 736h264v-4l-875 -746l461 -598h217z" />
    <glyph glyph-name="uni049B" unicode="&#x49b;" horiz-adv-x="1204" 
d="M1098 156l-119 -588h-176l86 432h-101l-426 549l-110 -549h-189l218 1085h188l-102 -507l563 507h254v-4l-619 -520l326 -405h207z" />
    <glyph glyph-name="uni04A0" unicode="&#x4a0;" horiz-adv-x="1597" 
d="M172 1348l35 172h631l-148 -736l815 736h264v-4l-874 -746l590 -766v-4h-230l-569 756l-151 -756h-197l268 1348h-434z" />
    <glyph glyph-name="uni04A1" unicode="&#x4a1;" horiz-adv-x="1335" 
d="M119 930l31 155h528l-103 -507l564 507h254v-4l-619 -520l449 -557v-4h-226l-426 549l-110 -549h-189l187 930h-340z" />
    <glyph glyph-name="uni04A2" unicode="&#x4a2;" horiz-adv-x="1589" 
d="M1145 -432l86 432h-213l143 717h-729l-143 -717h-197l303 1520h197l-127 -635h729l127 635h197l-269 -1348h201l-121 -604h-184z" />
    <glyph glyph-name="uni04A3" unicode="&#x4a3;" horiz-adv-x="1306" 
d="M879 -432l86 432h-201l98 489h-512l-98 -489h-189l218 1085h188l-88 -440h512l88 440h188l-186 -929h191l-119 -588h-176z" />
    <glyph glyph-name="uni04AA" unicode="&#x4aa;" horiz-adv-x="1372" 
d="M842 -213q0 -118 -82.5 -190t-206.5 -72q-48 0 -98.5 11t-77.5 26l51 145q46 -31 119 -31q63 0 102 38t39 106q0 87 -70 157q-224 30 -349.5 186.5t-125.5 432.5q0 144 34.5 282t105.5 259.5t170.5 213t238.5 144.5t301 53q272 0 426 -147l-73 -195q-140 166 -379 166
q-119 0 -220.5 -43t-174 -117t-124 -172t-76 -209t-24.5 -227q0 -457 402 -457q252 0 462 191l15 -199q-76 -66 -196 -113.5t-267 -54.5q38 -45 58 -86.5t20 -97.5z" />
    <glyph glyph-name="uni04AB" unicode="&#x4ab;" horiz-adv-x="1048" 
d="M633 -213q0 -118 -82.5 -190t-206.5 -72q-48 0 -98.5 11t-77.5 26l51 145q47 -31 119 -31q63 0 102 38t39 106q0 94 -78 166q-148 30 -228.5 139.5t-80.5 294.5q0 128 39.5 249t114 220.5t194.5 160t267 60.5q218 0 321 -123l-63 -164q-97 121 -271 121
q-102 0 -183 -45.5t-129 -120t-72.5 -161.5t-24.5 -179q0 -297 270 -297q176 0 319 127l13 -170q-140 -113 -336 -123q40 -44 61 -87t21 -101z" />
    <glyph glyph-name="uni04AE" unicode="&#x4ae;" horiz-adv-x="1228" 
d="M1403 1520l-682 -932l-117 -588h-196l118 594l-311 926h205l237 -754l521 754h225z" />
    <glyph glyph-name="uni04AF" unicode="&#x4af;" horiz-adv-x="1085" 
d="M1147 1085l-608 -1034l-101 -506h-188l102 510l-196 1030h196l129 -843l453 843h213z" />
    <glyph glyph-name="uni04B0" unicode="&#x4b0;" horiz-adv-x="1228" 
d="M1006 401h-322l-80 -401h-196l79 401h-317l31 152h317l8 41l-311 926h205l237 -754l521 754h225l-682 -932l-6 -35h321z" />
    <glyph glyph-name="uni04B1" unicode="&#x4b1;" horiz-adv-x="1085" 
d="M776 -176h-282l-56 -279h-188l55 279h-278l26 131h279l20 100l-196 1030h196l129 -843l453 843h213l-608 -1034l-19 -96h283z" />
    <glyph glyph-name="uni04B2" unicode="&#x4b2;" horiz-adv-x="1396" 
d="M1276 172l-121 -604h-184l86 432h-125l-266 623l-486 -623h-231l647 786l-324 734h209l250 -596l461 596h231l-620 -758l262 -590h211z" />
    <glyph glyph-name="uni04B3" unicode="&#x4b3;" horiz-adv-x="1105" 
d="M999 156l-118 -588h-176l86 432h-109l-186 414l-336 -414h-217v4l485 553l-254 524v4h199l182 -399l319 399h218v-4l-471 -538l186 -387h192z" />
    <glyph glyph-name="uni04B6" unicode="&#x4b6;" horiz-adv-x="1454" 
d="M1010 -432l86 432h-213l123 616q-168 -92 -371 -92q-201 0 -308.5 92.5t-107.5 260.5q0 55 12 120l105 523h196l-100 -502q-14 -75 -14 -117q0 -106 63.5 -153.5t204.5 -47.5q197 0 354 93l146 727h196l-268 -1348h201l-121 -604h-184z" />
    <glyph glyph-name="uni04B7" unicode="&#x4b7;" horiz-adv-x="1216" 
d="M788 -432l86 432h-200l84 418q-139 -66 -291 -66t-234.5 68.5t-82.5 195.5q0 36 10 91l76 378h188l-70 -348q-10 -55 -10 -86q0 -73 44.5 -104t146.5 -31q148 0 253 57l103 512h188l-186 -929h190l-118 -588h-177z" />
    <glyph glyph-name="uni04BA" unicode="&#x4ba;" horiz-adv-x="1388" 
d="M430 707l-141 -707h-197l303 1520h197l-127 -631q175 106 387 106q195 0 299 -90.5t104 -257.5q0 -57 -12 -125l-104 -522h-197l100 502q15 84 15 121q0 103 -59.5 149.5t-194.5 46.5q-220 0 -373 -112z" />
    <glyph glyph-name="uni04BB" unicode="&#x4bb;" horiz-adv-x="1212" 
d="M391 696l-139 -696h-189l320 1593h188l-139 -682q155 199 367 199q129 0 210 -75.5t81 -227.5q0 -61 -15 -131l-135 -676h-188l135 676q12 58 12 104q0 158 -151 158q-102 0 -201 -64.5t-156 -177.5z" />
    <glyph glyph-name="uni04C0" unicode="&#x4c0;" horiz-adv-x="598" 
d="M92 0l303 1520h197l-303 -1520h-197z" />
    <glyph glyph-name="uni04C1" unicode="&#x4c1;" horiz-adv-x="1994" 
d="M887 1974l151 13q-6 -37 -6 -64q0 -78 47.5 -113.5t143.5 -35.5q106 0 172 49.5t102 163.5l164 -13q-29 -118 -97.5 -194t-156.5 -107t-199 -31q-155 0 -242 65t-87 191q0 22 8 76zM793 0l151 758l-766 -758h-266v4l836 782l-517 730v4h209l510 -729l146 729h192
l-147 -736l751 736h260v-4l-813 -750l527 -762v-4h-219l-512 754l-150 -754h-192z" />
    <glyph glyph-name="uni04C2" unicode="&#x4c2;" horiz-adv-x="1634" 
d="M678 1597l145 13q-10 -62 -10 -94q0 -156 148 -156q87 0 144 58.5t95 191.5l162 -13q-27 -124 -90.5 -208.5t-145.5 -122t-180 -37.5q-132 0 -206 68.5t-74 193.5q0 47 12 106zM618 0l111 549l-579 -549h-246v4l637 571l-387 506v4h204l375 -507l103 507h180l-103 -507
l547 507h238v-4l-596 -526l411 -551v-4h-213l-391 549l-110 -549h-181z" />
    <glyph glyph-name="uni04CF" unicode="&#x4cf;" horiz-adv-x="548" 
d="M72 0l221 1110h188l-221 -1110h-188z" />
    <glyph glyph-name="uni04D0" unicode="&#x4d0;" horiz-adv-x="1396" 
d="M588 1974l151 13q-6 -37 -6 -64q0 -78 47.5 -113.5t143.5 -35.5q106 0 172 49.5t102 163.5l164 -13q-29 -118 -97.5 -194t-156.5 -107t-199 -31q-155 0 -242 65t-87 191q0 22 8 76zM1044 0l-61 420h-606l-225 -420h-218l852 1520h213l246 -1520h-201zM465 584h496
l-107 729z" />
    <glyph glyph-name="uni04D1" unicode="&#x4d1;" horiz-adv-x="1146" 
d="M440 1597l146 13q-11 -68 -11 -94q0 -156 148 -156q88 0 145 58.5t95 191.5l161 -13q-27 -124 -90 -208.5t-145 -122t-180 -37.5q-132 0 -206.5 68.5t-74.5 193.5q0 47 12 106zM711 0l26 160q-145 -185 -366 -185q-136 0 -222 75t-86 218q0 193 166 298.5t480 105.5h112
l4 20q11 64 11 90q0 87 -49.5 125.5t-155.5 38.5q-188 0 -359 -121l-12 170q74 53 182 84t224 31q179 0 268.5 -78.5t89.5 -226.5q0 -63 -14 -129l-136 -676h-163zM426 135q102 0 189.5 56t140.5 153l37 188h-101q-215 0 -325.5 -63.5t-110.5 -181.5q0 -76 45 -114t125 -38z
" />
    <glyph glyph-name="uni04D4" unicode="&#x4d4;" horiz-adv-x="2060" 
d="M860 0l98 492h-552l-363 -492h-225l1128 1520h1147l-35 -170h-733l-94 -465h653l-35 -168h-651l-108 -545h751l-35 -172h-946zM1130 1352h-92l-514 -697h467z" />
    <glyph glyph-name="uni04D5" unicode="&#x4d5;" horiz-adv-x="1822" 
d="M391 -25q-150 0 -239 74t-89 217q0 189 163 289t479 100h112l8 37q11 57 11 90q0 87 -49.5 125.5t-155.5 38.5q-188 0 -359 -121l-12 170q74 53 182 84t224 31q253 0 323 -162q152 162 383 162q84 0 149.5 -22t107 -57.5t68.5 -85.5t37.5 -102t10.5 -110q0 -126 -43 -221
h-729q-4 -50 -4 -76q0 -149 69.5 -222t225.5 -73q196 0 358 127l12 -170q-68 -51 -173 -87t-232 -36q-288 0 -393 199q-88 -94 -203 -146.5t-242 -52.5zM1358 954q-132 0 -223 -85t-134 -218h547q15 44 15 97q0 93 -48.5 149.5t-156.5 56.5zM432 135q107 0 202 56t152 153
q-4 46 -4 70q0 28 9 102h-103q-432 0 -432 -231q0 -150 176 -150z" />
    <glyph glyph-name="uni04D6" unicode="&#x4d6;" horiz-adv-x="1269" 
d="M555 1974l152 13q-7 -44 -7 -64q0 -78 47.5 -113.5t143.5 -35.5q106 0 172 49.5t102 163.5l164 -13q-29 -118 -97.5 -194t-156 -107t-198.5 -31q-155 0 -242.5 65t-87.5 191q0 22 8 76zM1073 172l-35 -172h-946l303 1520h930l-35 -170h-733l-94 -465h653l-35 -168h-651
l-108 -545h751z" />
    <glyph glyph-name="uni04D7" unicode="&#x4d7;" horiz-adv-x="1138" 
d="M449 1597l145 13q-10 -62 -10 -94q0 -156 147 -156q88 0 145 58.5t95 191.5l162 -13q-27 -124 -90.5 -208.5t-145.5 -122t-180 -37.5q-132 0 -206.5 68.5t-74.5 193.5q0 43 13 106zM950 98q-68 -51 -173 -87t-234 -36q-224 0 -337.5 117.5t-113.5 331.5q0 95 22.5 190.5
t71 185t117 158.5t168.5 110.5t217 41.5q84 0 150 -22t107.5 -57.5t68 -86t37 -102.5t10.5 -111q0 -130 -47 -229h-727q-2 -23 -2 -66q0 -149 69.5 -222t225.5 -73q196 0 358 127zM674 954q-135 0 -226.5 -87.5t-132.5 -225.5h545q19 39 19 104q0 95 -48.5 152t-156.5 57z
" />
    <glyph glyph-name="uni04D8" unicode="&#x4d8;" horiz-adv-x="1470" 
d="M1413 932q0 -92 -13 -185t-42 -188.5t-71.5 -180.5t-107 -160t-143 -129.5t-183.5 -86t-226 -31.5q-116 0 -208 29.5t-150.5 77.5t-97 114.5t-54 136t-15.5 146.5q0 89 20 179t50 153h1030q6 61 6 123q0 233 -93 337.5t-302 104.5q-273 0 -508 -182l-18 188
q101 78 250 124t307 46q286 0 427.5 -158.5t141.5 -457.5zM637 147q113 0 206 40t157 111.5t107 156.5t69 188h-857q-28 -67 -28 -174q0 -143 85.5 -232.5t260.5 -89.5z" />
    <glyph glyph-name="uni04D9" unicode="&#x4d9;" horiz-adv-x="1146" 
d="M1055 655q0 -94 -19.5 -186t-64 -182.5t-109.5 -158.5t-165 -110.5t-222 -42.5q-86 0 -154 21.5t-111.5 56.5t-72 83.5t-40 99.5t-11.5 108q0 137 49 240h727q4 50 4 71q0 155 -63.5 223t-208.5 68q-192 0 -363 -121l-12 170q74 53 180.5 84t218.5 31q214 0 325.5 -118.5
t111.5 -336.5zM481 135q140 0 229 86t128 223h-557q-19 -39 -19 -104q0 -93 53.5 -149t165.5 -56z" />
    <glyph glyph-name="uni04E2" unicode="&#x4e2;" horiz-adv-x="1540" 
d="M647 1737l31 155h704l-30 -155h-705zM1034 0l240 1196l-969 -1196h-213l303 1520h197l-240 -1196l969 1196h213l-303 -1520h-197z" />
    <glyph glyph-name="uni04E3" unicode="&#x4e3;" horiz-adv-x="1249" 
d="M465 1348l31 155h626l-30 -155h-627zM784 0l162 809l-692 -809h-191l218 1085h184l-162 -809l692 809h191l-217 -1085h-185z" />
    <glyph glyph-name="uni04E6" unicode="&#x4e6;" horiz-adv-x="1548" 
d="M1100 1704l45 221h213l-45 -221h-213zM674 1704l45 221h213l-45 -221h-213zM686 -29q-255 0 -399 157t-144 439q0 145 32.5 285.5t99.5 266.5t161 221.5t226 151.5t286 56q255 0 399 -157t144 -439q0 -145 -32.5 -285.5t-99.5 -266.5t-161 -221.5t-226 -151.5t-286 -56z
M705 147q111 0 207 47.5t163.5 126t116 181t71.5 213.5t23 221q0 216 -92 326t-264 110q-111 0 -207 -47t-163.5 -126t-116 -181t-72 -213t-23.5 -221q0 -216 92.5 -326.5t264.5 -110.5z" />
    <glyph glyph-name="uni04E7" unicode="&#x4e7;" horiz-adv-x="1196" 
d="M846 1315l45 221h209l-45 -221h-209zM432 1315l45 221h209l-45 -221h-209zM510 -25q-189 0 -303.5 114t-114.5 331q0 100 24.5 199t75 187.5t120.5 156t166.5 107.5t207.5 40q189 0 303.5 -113.5t114.5 -330.5q0 -100 -24.5 -199t-75 -187.5t-120.5 -156.5t-166.5 -108
t-207.5 -40zM526 137q74 0 137.5 30.5t108 81.5t76.5 117.5t47.5 139t15.5 145.5q0 146 -63 221.5t-178 75.5q-74 0 -137.5 -30.5t-108 -81.5t-76.5 -117.5t-47.5 -139t-15.5 -145.5q0 -146 63 -221.5t178 -75.5z" />
    <glyph glyph-name="uni04E8" unicode="&#x4e8;" horiz-adv-x="1548" 
d="M686 -29q-255 0 -399 157t-144 439q0 145 32.5 285.5t99.5 266.5t161 221.5t226 151.5t286 56q255 0 399 -157t144 -439q0 -145 -32.5 -285.5t-99.5 -266.5t-161 -221.5t-226 -151.5t-286 -56zM928 1372q-105 0 -196.5 -41.5t-158.5 -113.5t-114.5 -162.5t-75.5 -196.5
h903q2 27 2 78q0 217 -92 326.5t-268 109.5zM346 584q0 -217 92.5 -327t268.5 -110q108 0 202 44t162 121t115.5 172.5t73.5 205.5h-908q-6 -52 -6 -106z" />
    <glyph glyph-name="uni04E9" unicode="&#x4e9;" horiz-adv-x="1196" 
d="M510 -25q-189 0 -303.5 114t-114.5 331q0 100 24.5 199t75 187.5t120.5 156t166.5 107.5t207.5 40q189 0 303.5 -113.5t114.5 -330.5q0 -100 -24.5 -199t-75 -187.5t-120.5 -156.5t-166.5 -108t-207.5 -40zM670 948q-133 0 -227.5 -88t-135.5 -235h608q3 27 3 55
q0 132 -68 200t-180 68zM279 406q0 -132 67.5 -200.5t179.5 -68.5q140 0 235.5 95.5t133.5 252.5h-612q-4 -54 -4 -79z" />
    <glyph glyph-name="uni04EE" unicode="&#x4ee;" horiz-adv-x="1265" 
d="M514 1737l31 155h704l-30 -155h-705zM776 451q-128 -203 -212.5 -302t-164.5 -138.5t-192 -39.5q-98 0 -166 29l41 176q59 -33 141 -33q87 0 149 50.5t167 212.5l-297 1114h204l222 -934l559 934h221z" />
    <glyph glyph-name="uni04EF" unicode="&#x4ef;" horiz-adv-x="1085" 
d="M391 1348l31 155h627l-31 -155h-627zM532 10q-112 -199 -192.5 -301t-153 -141t-170.5 -39q-96 0 -172 37l50 172q64 -37 137 -37q77 0 147 64.5t160 232.5l-191 1087h197l125 -888l457 888h213z" />
    <glyph glyph-name="uni04F2" unicode="&#x4f2;" horiz-adv-x="1265" 
d="M672 1634l-90 58l307 327l162 -110zM1053 1634l-90 58l307 327l162 -110zM776 451q-128 -203 -212.5 -302t-164.5 -138.5t-192 -39.5q-98 0 -166 29l41 176q59 -33 141 -33q87 0 149 50.5t167 212.5l-297 1114h204l222 -934l559 934h221z" />
    <glyph glyph-name="uni04F3" unicode="&#x4f3;" horiz-adv-x="1085" 
d="M500 1225l-86 57l303 414l160 -103zM868 1225l-86 57l303 414l160 -103zM532 10q-112 -199 -192.5 -301t-153 -141t-170.5 -39q-96 0 -172 37l50 172q64 -37 137 -37q77 0 147 64.5t160 232.5l-191 1087h197l125 -888l457 888h213z" />
    <glyph glyph-name="uni0E3F" unicode="&#xe3f;" horiz-adv-x="1396" 
d="M465 -201l41 201h-414l303 1520h414l39 196h135l-39 -196q399 -5 399 -346q0 -65 -15.5 -122t-50.5 -110.5t-100 -94.5t-155 -63q248 -69 248 -323q0 -69 -17.5 -132t-61 -124.5t-109.5 -106t-171.5 -71.5t-238.5 -27h-31l-41 -201h-135zM551 1356l-98 -496h223l100 496
h-225zM1151 1157q0 107 -60 153t-180 46l-100 -496h4q92 0 160.5 26.5t105 71.5t53.5 94.5t17 104.5zM422 705l-109 -541h226l106 541h-223zM786 705h-6l-106 -541h28q77 0 140 16.5t105.5 45.5t72 69t42.5 85t13 95q0 230 -289 230z" />
    <glyph glyph-name="Wgrave" unicode="&#x1e80;" horiz-adv-x="2113" 
d="M1346 1634l-369 295l192 90l277 -321zM1284 0l-96 1229l-588 -1229h-205l-143 1520h201l94 -1254l590 1254h213l90 -1254l594 1254h217l-762 -1520h-205z" />
    <glyph glyph-name="wgrave" unicode="&#x1e81;" horiz-adv-x="1679" 
d="M985 1212l-270 416l186 68l186 -434zM977 0l-84 848l-424 -848h-180l-121 1085h197l61 -860l405 860h201l80 -860l387 860h213l-555 -1085h-180z" />
    <glyph glyph-name="Wacute" unicode="&#x1e82;" horiz-adv-x="2113" 
d="M1188 1634l-86 70l360 315l164 -127zM1284 0l-96 1229l-588 -1229h-205l-143 1520h201l94 -1254l590 1254h213l90 -1254l594 1254h217l-762 -1520h-205z" />
    <glyph glyph-name="wacute" unicode="&#x1e83;" horiz-adv-x="1679" 
d="M926 1212l-99 60l316 424l172 -107zM977 0l-84 848l-424 -848h-180l-121 1085h197l61 -860l405 860h201l80 -860l387 860h213l-555 -1085h-180z" />
    <glyph glyph-name="Wdieresis" unicode="&#x1e84;" horiz-adv-x="2113" 
d="M1374 1704l45 221h213l-45 -221h-213zM948 1704l45 221h213l-45 -221h-213zM1284 0l-96 1229l-588 -1229h-205l-143 1520h201l94 -1254l590 1254h213l90 -1254l594 1254h217l-762 -1520h-205z" />
    <glyph glyph-name="wdieresis" unicode="&#x1e85;" horiz-adv-x="1679" 
d="M1079 1315l45 221h209l-45 -221h-209zM666 1315l45 221h209l-46 -221h-208zM977 0l-84 848l-424 -848h-180l-121 1085h197l61 -860l405 860h201l80 -860l387 860h213l-555 -1085h-180z" />
    <glyph glyph-name="uni1E9E" unicode="&#x1e9e;" horiz-adv-x="1552" 
d="M76 0l188 942q63 317 231 461.5t480 144.5q338 0 553 -147l-408 -553q75 -36 126.5 -70t96 -80t66 -105t21.5 -134q0 -96 -33.5 -182t-98.5 -155.5t-171.5 -110t-241.5 -40.5q-219 0 -381 119l65 184q64 -57 153.5 -92t184.5 -35q153 0 236.5 87t83.5 212q0 36 -6.5 66
t-22.5 56t-31.5 46t-46 40t-52 33t-64 31t-67 27.5t-75.5 28.5l402 549q-119 49 -297 49q-222 0 -341.5 -102t-166.5 -338l-187 -932h-196z" />
    <glyph glyph-name="uni1EA0" unicode="&#x1ea0;" horiz-adv-x="1396" 
d="M1044 0l-61 420h-606l-225 -420h-218l852 1520h213l246 -1520h-201zM465 584h496l-107 729zM406 -385l45 221h221l-45 -221h-221z" />
    <glyph glyph-name="uni1EA1" unicode="&#x1ea1;" horiz-adv-x="1146" 
d="M711 0l26 160q-145 -185 -366 -185q-136 0 -222 75t-86 218q0 193 166 298.5t480 105.5h112l4 20q11 64 11 90q0 87 -49.5 125.5t-155.5 38.5q-188 0 -359 -121l-12 170q74 53 182 84t224 31q179 0 268.5 -78.5t89.5 -226.5q0 -63 -14 -129l-136 -676h-163zM426 135
q102 0 189.5 56t140.5 153l37 188h-101q-215 0 -325.5 -63.5t-110.5 -181.5q0 -76 45 -114t125 -38zM281 -385l45 221h221l-45 -221h-221z" />
    <glyph glyph-name="uni1EA2" unicode="&#x1ea2;" horiz-adv-x="1396" 
d="M922 1630l-82 88q127 64 176 103t49 96q0 33 -22.5 49t-75.5 16q-108 0 -209 -65l-8 131q125 74 258 74q223 0 223 -178q0 -56 -23 -103.5t-68.5 -85t-95.5 -66t-122 -59.5zM1044 0l-61 420h-606l-225 -420h-218l852 1520h213l246 -1520h-201zM465 584h496l-107 729z" />
    <glyph glyph-name="uni1EA3" unicode="&#x1ea3;" horiz-adv-x="1146" 
d="M713 1212l-82 88q49 25 75 38.5t59.5 35t50 38t28.5 38.5t12 45q0 70 -102 70q-98 0 -205 -66l-8 131q122 74 252 74q104 0 163.5 -45.5t59.5 -138.5q0 -56 -22 -102.5t-66.5 -83.5t-93.5 -64t-121 -58zM711 0l26 160q-145 -185 -366 -185q-136 0 -222 75t-86 218
q0 193 166 298.5t480 105.5h112l4 20q11 64 11 90q0 87 -49.5 125.5t-155.5 38.5q-188 0 -359 -121l-12 170q74 53 182 84t224 31q179 0 268.5 -78.5t89.5 -226.5q0 -63 -14 -129l-136 -676h-163zM426 135q102 0 189.5 56t140.5 153l37 188h-101q-215 0 -325.5 -63.5
t-110.5 -181.5q0 -76 45 -114t125 -38z" />
    <glyph glyph-name="uni1EA4" unicode="&#x1ea4;" horiz-adv-x="1396" 
d="M1264 1921l-78 64l340 301l153 -119zM1276 1681l-164 -39l-154 230l-253 -230l-175 39l365 306h156zM1044 0l-61 420h-606l-225 -420h-218l852 1520h213l246 -1520h-201zM465 584h496l-107 729z" />
    <glyph glyph-name="uni1EA5" unicode="&#x1ea5;" horiz-adv-x="1146" 
d="M1092 1479l-93 55l289 391l158 -96zM1028 1264l-149 -35l-119 258l-228 -258l-155 39l321 338h156zM711 0l26 160q-145 -185 -366 -185q-136 0 -222 75t-86 218q0 193 166 298.5t480 105.5h112l4 20q11 64 11 90q0 87 -49.5 125.5t-155.5 38.5q-188 0 -359 -121l-12 170
q74 53 182 84t224 31q179 0 268.5 -78.5t89.5 -226.5q0 -63 -14 -129l-136 -676h-163zM426 135q102 0 189.5 56t140.5 153l37 188h-101q-215 0 -325.5 -63.5t-110.5 -181.5q0 -76 45 -114t125 -38z" />
    <glyph glyph-name="uni1EA6" unicode="&#x1ea6;" horiz-adv-x="1396" 
d="M1341 1921l-352 283l172 82l271 -308zM1276 1681l-164 -39l-154 230l-253 -230l-175 39l365 306h156zM1044 0l-61 420h-606l-225 -420h-218l852 1520h213l246 -1520h-201zM465 584h496l-107 729z" />
    <glyph glyph-name="uni1EA7" unicode="&#x1ea7;" horiz-adv-x="1146" 
d="M1122 1479l-248 385l170 61l177 -399zM1028 1264l-149 -35l-119 258l-228 -258l-155 39l321 338h156zM711 0l26 160q-145 -185 -366 -185q-136 0 -222 75t-86 218q0 193 166 298.5t480 105.5h112l4 20q11 64 11 90q0 87 -49.5 125.5t-155.5 38.5q-188 0 -359 -121
l-12 170q74 53 182 84t224 31q179 0 268.5 -78.5t89.5 -226.5q0 -63 -14 -129l-136 -676h-163zM426 135q102 0 189.5 56t140.5 153l37 188h-101q-215 0 -325.5 -63.5t-110.5 -181.5q0 -76 45 -114t125 -38z" />
    <glyph glyph-name="uni1EA8" unicode="&#x1ea8;" horiz-adv-x="1396" 
d="M1300 1880l-75 82q46 22 70.5 35t54.5 31.5t44.5 34t25 35.5t10.5 42q0 66 -89 66q-90 0 -190 -62l-8 125q113 66 231 66q97 0 152 -42.5t55 -129.5q0 -97 -70.5 -160.5t-210.5 -122.5zM1276 1681l-164 -39l-154 230l-253 -230l-175 39l365 306h156zM1044 0l-61 420h-606
l-225 -420h-218l852 1520h213l246 -1520h-201zM465 584h496l-107 729z" />
    <glyph glyph-name="uni1EA9" unicode="&#x1ea9;" horiz-adv-x="1146" 
d="M1096 1483l-76 82q46 22 70.5 35t54.5 31.5t44.5 34t25 35.5t10.5 42q0 65 -88 65q-93 0 -191 -61l-8 125q111 65 231 65q97 0 152 -42.5t55 -129.5q0 -97 -70 -160t-210 -122zM1028 1264l-149 -35l-119 258l-228 -258l-155 39l321 338h156zM711 0l26 160
q-145 -185 -366 -185q-136 0 -222 75t-86 218q0 193 166 298.5t480 105.5h112l4 20q11 64 11 90q0 87 -49.5 125.5t-155.5 38.5q-188 0 -359 -121l-12 170q74 53 182 84t224 31q179 0 268.5 -78.5t89.5 -226.5q0 -63 -14 -129l-136 -676h-163zM426 135q102 0 189.5 56
t140.5 153l37 188h-101q-215 0 -325.5 -63.5t-110.5 -181.5q0 -76 45 -114t125 -38z" />
    <glyph glyph-name="uni1EAA" unicode="&#x1eaa;" horiz-adv-x="1396" 
d="M774 2052l-129 12q49 254 236 254q44 0 80.5 -15.5t80.5 -47.5q28 -21 42 -31t35 -19.5t38 -9.5q71 0 96 136l129 -13q-49 -254 -235 -254q-75 0 -162 64q-27 20 -41 30t-35.5 19.5t-38.5 9.5q-71 0 -96 -135zM1276 1681l-164 -39l-154 230l-253 -230l-175 39l365 306
h156zM1044 0l-61 420h-606l-225 -420h-218l852 1520h213l246 -1520h-201zM465 584h496l-107 729z" />
    <glyph glyph-name="uni1EAB" unicode="&#x1eab;" horiz-adv-x="1146" 
d="M588 1663l-129 12q49 254 227 254q81 0 160 -63q26 -21 40 -31.5t33 -19.5t35 -9q68 0 93 136l129 -13q-49 -254 -228 -254q-81 0 -160 64q-70 59 -108 59q-67 0 -92 -135zM1028 1264l-149 -35l-119 258l-228 -258l-155 39l321 338h156zM711 0l26 160
q-145 -185 -366 -185q-136 0 -222 75t-86 218q0 193 166 298.5t480 105.5h112l4 20q11 64 11 90q0 87 -49.5 125.5t-155.5 38.5q-188 0 -359 -121l-12 170q74 53 182 84t224 31q179 0 268.5 -78.5t89.5 -226.5q0 -63 -14 -129l-136 -676h-163zM426 135q102 0 189.5 56
t140.5 153l37 188h-101q-215 0 -325.5 -63.5t-110.5 -181.5q0 -76 45 -114t125 -38z" />
    <glyph glyph-name="uni1EAC" unicode="&#x1eac;" horiz-adv-x="1396" 
d="M1276 1681l-164 -39l-154 230l-253 -230l-175 39l365 306h156zM1044 0l-61 420h-606l-225 -420h-218l852 1520h213l246 -1520h-201zM465 584h496l-107 729zM406 -385l45 221h221l-45 -221h-221z" />
    <glyph glyph-name="uni1EAD" unicode="&#x1ead;" horiz-adv-x="1146" 
d="M1049 1264l-154 -35l-123 317l-256 -317l-160 39l355 399h155zM711 0l26 160q-145 -185 -366 -185q-136 0 -222 75t-86 218q0 193 166 298.5t480 105.5h112l4 20q11 64 11 90q0 87 -49.5 125.5t-155.5 38.5q-188 0 -359 -121l-12 170q74 53 182 84t224 31
q179 0 268.5 -78.5t89.5 -226.5q0 -63 -14 -129l-136 -676h-163zM426 135q102 0 189.5 56t140.5 153l37 188h-101q-215 0 -325.5 -63.5t-110.5 -181.5q0 -76 45 -114t125 -38zM281 -385l45 221h221l-45 -221h-221z" />
    <glyph glyph-name="uni1EAE" unicode="&#x1eae;" horiz-adv-x="1396" 
d="M922 1970l-78 64l340 301l153 -119zM627 1933l133 13q-6 -80 35 -124t125 -44q171 0 235 168l145 -13q-49 -147 -152 -219t-239 -72q-134 0 -209 67.5t-75 191.5q0 16 2 32zM1044 0l-61 420h-606l-225 -420h-218l852 1520h213l246 -1520h-201zM465 584h496l-107 729z" />
    <glyph glyph-name="uni1EAF" unicode="&#x1eaf;" horiz-adv-x="1146" 
d="M754 1528l-92 55l288 391l158 -96zM432 1536l133 12q-3 -86 34.5 -133t117.5 -47q167 0 235 180l146 -12q-51 -153 -153 -230t-238 -77q-129 0 -203 71.5t-74 200.5q0 17 2 35zM711 0l26 160q-145 -185 -366 -185q-136 0 -222 75t-86 218q0 193 166 298.5t480 105.5h112
l4 20q11 64 11 90q0 87 -49.5 125.5t-155.5 38.5q-188 0 -359 -121l-12 170q74 53 182 84t224 31q179 0 268.5 -78.5t89.5 -226.5q0 -63 -14 -129l-136 -676h-163zM426 135q102 0 189.5 56t140.5 153l37 188h-101q-215 0 -325.5 -63.5t-110.5 -181.5q0 -76 45 -114t125 -38z
" />
    <glyph glyph-name="uni1EB0" unicode="&#x1eb0;" horiz-adv-x="1396" 
d="M993 1970l-352 283l172 82l270 -307zM627 1933l133 13q-12 -168 160 -168q171 0 235 168l145 -13q-49 -147 -152 -219t-239 -72q-134 0 -209 67.5t-75 191.5q0 16 2 32zM1044 0l-61 420h-606l-225 -420h-218l852 1520h213l246 -1520h-201zM465 584h496l-107 729z" />
    <glyph glyph-name="uni1EB1" unicode="&#x1eb1;" horiz-adv-x="1146" 
d="M754 1528l-248 385l170 61l176 -399zM432 1536l133 12q-3 -86 35.5 -133t116.5 -47q167 0 235 180l146 -12q-51 -153 -153 -230t-238 -77q-129 0 -203 72.5t-74 201.5q0 15 2 33zM711 0l26 160q-145 -185 -366 -185q-136 0 -222 75t-86 218q0 193 166 298.5t480 105.5
h112l4 20q11 64 11 90q0 87 -49.5 125.5t-155.5 38.5q-188 0 -359 -121l-12 170q74 53 182 84t224 31q179 0 268.5 -78.5t89.5 -226.5q0 -63 -14 -129l-136 -676h-163zM426 135q102 0 189.5 56t140.5 153l37 188h-101q-215 0 -325.5 -63.5t-110.5 -181.5q0 -76 45 -114
t125 -38z" />
    <glyph glyph-name="uni1EB2" unicode="&#x1eb2;" horiz-adv-x="1396" 
d="M950 1929l-76 82q46 22 70.5 35t54.5 31.5t44.5 34t25 35.5t10.5 42q0 66 -88 66q-90 0 -190 -62l-8 125q113 66 231 66q97 0 152 -42.5t55 -129.5q0 -97 -70.5 -160.5t-210.5 -122.5zM627 1933l133 13q-6 -82 34.5 -125t125.5 -43q171 0 235 168l145 -13
q-49 -147 -152 -219t-239 -72q-134 0 -209 67.5t-75 191.5q0 16 2 32zM1044 0l-61 420h-606l-225 -420h-218l852 1520h213l246 -1520h-201zM465 584h496l-107 729z" />
    <glyph glyph-name="uni1EB3" unicode="&#x1eb3;" horiz-adv-x="1146" 
d="M754 1532l-76 82q46 22 70.5 35t54.5 31.5t44.5 34t25 35.5t10.5 42q0 66 -88 66q-91 0 -191 -62l-8 125q113 66 231 66q97 0 152 -42.5t55 -129.5q0 -97 -70 -160.5t-210 -122.5zM432 1536l133 12q-3 -86 34.5 -133t117.5 -47q167 0 235 180l146 -12q-51 -153 -153 -230
t-238 -77q-129 0 -203 72.5t-74 201.5q0 15 2 33zM711 0l26 160q-145 -185 -366 -185q-136 0 -222 75t-86 218q0 193 166 298.5t480 105.5h112l4 20q11 64 11 90q0 87 -49.5 125.5t-155.5 38.5q-188 0 -359 -121l-12 170q74 53 182 84t224 31q179 0 268.5 -78.5t89.5 -226.5
q0 -63 -14 -129l-136 -676h-163zM426 135q102 0 189.5 56t140.5 153l37 188h-101q-215 0 -325.5 -63.5t-110.5 -181.5q0 -76 45 -114t125 -38z" />
    <glyph glyph-name="uni1EB4" unicode="&#x1eb4;" horiz-adv-x="1396" 
d="M774 2052l-129 12q49 254 236 254q44 0 79 -14.5t82 -48.5q30 -23 44.5 -32.5t34 -18.5t36.5 -9q71 0 96 136l129 -13q-49 -254 -235 -254q-77 0 -162 64q-29 22 -44 32t-34.5 18.5t-36.5 8.5q-71 0 -96 -135zM627 1933l133 13q-6 -82 34.5 -125t125.5 -43q171 0 235 168
l145 -13q-49 -147 -152 -219t-239 -72q-134 0 -209 67.5t-75 191.5q0 16 2 32zM1044 0l-61 420h-606l-225 -420h-218l852 1520h213l246 -1520h-201zM465 584h496l-107 729z" />
    <glyph glyph-name="uni1EB5" unicode="&#x1eb5;" horiz-adv-x="1146" 
d="M588 1663l-129 12q49 254 227 254q80 0 160 -63q59 -48 86 -57q12 -3 22 -3q68 0 93 136l129 -13q-49 -254 -228 -254q-82 0 -160 64q-72 59 -108 59q-67 0 -92 -135zM432 1536l133 12q-3 -85 34 -132.5t118 -47.5q167 0 235 180l146 -12q-51 -153 -153 -230t-238 -77
q-129 0 -203 71.5t-74 202.5q0 17 2 33zM711 0l26 160q-145 -185 -366 -185q-136 0 -222 75t-86 218q0 193 166 298.5t480 105.5h112l4 20q11 64 11 90q0 87 -49.5 125.5t-155.5 38.5q-188 0 -359 -121l-12 170q74 53 182 84t224 31q179 0 268.5 -78.5t89.5 -226.5
q0 -63 -14 -129l-136 -676h-163zM426 135q102 0 189.5 56t140.5 153l37 188h-101q-215 0 -325.5 -63.5t-110.5 -181.5q0 -76 45 -114t125 -38z" />
    <glyph glyph-name="uni1EB6" unicode="&#x1eb6;" horiz-adv-x="1396" 
d="M633 1974l133 13q-6 -30 -6 -56q0 -143 162 -143q188 0 245 199l146 -13q-43 -167 -150.5 -249.5t-253.5 -82.5q-134 0 -208 67.5t-74 191.5q0 32 6 73zM1044 0l-61 420h-606l-225 -420h-218l852 1520h213l246 -1520h-201zM465 584h496l-107 729zM406 -385l45 221h221
l-45 -221h-221z" />
    <glyph glyph-name="uni1EB7" unicode="&#x1eb7;" horiz-adv-x="1146" 
d="M436 1597l133 13q-6 -41 -6 -72q0 -164 156 -164q192 0 252 236l145 -13q-45 -183 -152.5 -275.5t-256.5 -92.5q-131 0 -205 71.5t-74 206.5q0 46 8 90zM711 0l26 160q-145 -185 -366 -185q-136 0 -222 75t-86 218q0 193 166 298.5t480 105.5h112l4 20q11 64 11 90
q0 87 -49.5 125.5t-155.5 38.5q-188 0 -359 -121l-12 170q74 53 182 84t224 31q179 0 268.5 -78.5t89.5 -226.5q0 -63 -14 -129l-136 -676h-163zM426 135q102 0 189.5 56t140.5 153l37 188h-101q-215 0 -325.5 -63.5t-110.5 -181.5q0 -76 45 -114t125 -38zM281 -385l45 221
h221l-45 -221h-221z" />
    <glyph glyph-name="uni1EB8" unicode="&#x1eb8;" horiz-adv-x="1269" 
d="M1073 172l-35 -172h-946l303 1520h930l-35 -170h-733l-94 -465h653l-35 -168h-651l-108 -545h751zM373 -385l45 221h221l-45 -221h-221z" />
    <glyph glyph-name="uni1EB9" unicode="&#x1eb9;" horiz-adv-x="1138" 
d="M950 98q-68 -51 -173 -87t-234 -36q-224 0 -337.5 117.5t-113.5 331.5q0 95 22.5 190.5t71 185t117 158.5t168.5 110.5t217 41.5q84 0 150 -22t107.5 -57.5t68 -86t37 -102.5t10.5 -111q0 -130 -47 -229h-727q-2 -23 -2 -66q0 -149 69.5 -222t225.5 -73q196 0 358 127z
M674 954q-135 0 -226.5 -87.5t-132.5 -225.5h545q19 39 19 104q0 95 -48.5 152t-156.5 57zM295 -385l45 221h221l-45 -221h-221z" />
    <glyph glyph-name="uni1EBA" unicode="&#x1eba;" horiz-adv-x="1269" 
d="M872 1630l-81 88q127 64 176 103t49 96q0 33 -22.5 49t-75.5 16q-108 0 -209 -65l-9 131q125 74 258 74q104 0 164 -43t60 -135q0 -56 -23 -103.5t-68.5 -85t-96 -66t-122.5 -59.5zM1073 172l-35 -172h-946l303 1520h930l-35 -170h-733l-94 -465h653l-35 -168h-651
l-108 -545h751z" />
    <glyph glyph-name="uni1EBB" unicode="&#x1ebb;" horiz-adv-x="1138" 
d="M727 1212l-82 88q49 25 75 38.5t59.5 35t50 38t28.5 38.5t12 45q0 70 -102 70q-98 0 -205 -66l-8 131q122 74 252 74q104 0 163.5 -45.5t59.5 -138.5q0 -56 -22 -102.5t-66.5 -83.5t-93.5 -64t-121 -58zM950 98q-68 -51 -173 -87t-234 -36q-224 0 -337.5 117.5
t-113.5 331.5q0 95 22.5 190.5t71 185t117 158.5t168.5 110.5t217 41.5q84 0 150 -22t107.5 -57.5t68 -86t37 -102.5t10.5 -111q0 -130 -47 -229h-727q-2 -23 -2 -66q0 -149 69.5 -222t225.5 -73q196 0 358 127zM674 954q-135 0 -226.5 -87.5t-132.5 -225.5h545
q19 39 19 104q0 95 -48.5 152t-156.5 57z" />
    <glyph glyph-name="uni1EBC" unicode="&#x1ebc;" horiz-adv-x="1269" 
d="M616 1651l-133 12q63 301 262 301q89 0 189 -78q90 -71 139 -71q90 0 125 163l133 -12q-63 -301 -262 -301q-88 0 -188 78q-30 24 -48 36.5t-44 24t-48 11.5q-89 0 -125 -164zM1073 172l-35 -172h-946l303 1520h930l-35 -170h-733l-94 -465h653l-35 -168h-651l-108 -545
h751z" />
    <glyph glyph-name="uni1EBD" unicode="&#x1ebd;" horiz-adv-x="1138" 
d="M477 1262l-133 12q60 301 252 301q89 0 182 -78q84 -72 131 -72q84 0 117 164l133 -12q-60 -301 -252 -301q-88 0 -182 78q-83 71 -131 71q-84 0 -117 -163zM950 98q-68 -51 -173 -87t-234 -36q-224 0 -337.5 117.5t-113.5 331.5q0 95 22.5 190.5t71 185t117 158.5
t168.5 110.5t217 41.5q84 0 150 -22t107.5 -57.5t68 -86t37 -102.5t10.5 -111q0 -130 -47 -229h-727q-2 -23 -2 -66q0 -149 69.5 -222t225.5 -73q196 0 358 127zM674 954q-135 0 -226.5 -87.5t-132.5 -225.5h545q19 39 19 104q0 95 -48.5 152t-156.5 57z" />
    <glyph glyph-name="uni1EBE" unicode="&#x1ebe;" horiz-adv-x="1269" 
d="M1231 1921l-78 64l340 301l154 -119zM1243 1681l-164 -39l-153 230l-254 -230l-174 39l364 306h156zM1073 172l-35 -172h-946l303 1520h930l-35 -170h-733l-94 -465h653l-35 -168h-651l-108 -545h751z" />
    <glyph glyph-name="uni1EBF" unicode="&#x1ebf;" horiz-adv-x="1138" 
d="M1106 1479l-92 55l289 391l157 -96zM1042 1264l-149 -35l-119 258l-227 -258l-156 39l322 338h155zM950 98q-68 -51 -173 -87t-234 -36q-224 0 -337.5 117.5t-113.5 331.5q0 95 22.5 190.5t71 185t117 158.5t168.5 110.5t217 41.5q84 0 150 -22t107.5 -57.5t68 -86
t37 -102.5t10.5 -111q0 -130 -47 -229h-727q-2 -23 -2 -66q0 -149 69.5 -222t225.5 -73q196 0 358 127zM674 954q-135 0 -226.5 -87.5t-132.5 -225.5h545q19 39 19 104q0 95 -48.5 152t-156.5 57z" />
    <glyph glyph-name="uni1EC0" unicode="&#x1ec0;" horiz-adv-x="1269" 
d="M1309 1921l-353 283l172 82l271 -308zM1243 1681l-164 -39l-153 230l-254 -230l-174 39l364 306h156zM1073 172l-35 -172h-946l303 1520h930l-35 -170h-733l-94 -465h653l-35 -168h-651l-108 -545h751z" />
    <glyph glyph-name="uni1EC1" unicode="&#x1ec1;" horiz-adv-x="1138" 
d="M1137 1479l-248 385l170 61l176 -399zM1042 1264l-149 -35l-119 258l-227 -258l-156 39l322 338h155zM950 98q-68 -51 -173 -87t-234 -36q-224 0 -337.5 117.5t-113.5 331.5q0 95 22.5 190.5t71 185t117 158.5t168.5 110.5t217 41.5q84 0 150 -22t107.5 -57.5t68 -86
t37 -102.5t10.5 -111q0 -130 -47 -229h-727q-2 -23 -2 -66q0 -149 69.5 -222t225.5 -73q196 0 358 127zM674 954q-135 0 -226.5 -87.5t-132.5 -225.5h545q19 39 19 104q0 95 -48.5 152t-156.5 57z" />
    <glyph glyph-name="uni1EC2" unicode="&#x1ec2;" horiz-adv-x="1269" 
d="M1268 1880l-76 82q46 22 70.5 35t54.5 31.5t44.5 34t25 35.5t10.5 42q0 66 -88 66q-91 0 -191 -62l-8 125q113 66 231 66q97 0 152 -42.5t55 -129.5q0 -97 -70 -160.5t-210 -122.5zM1243 1681l-164 -39l-153 230l-254 -230l-174 39l364 306h156zM1073 172l-35 -172h-946
l303 1520h930l-35 -170h-733l-94 -465h653l-35 -168h-651l-108 -545h751z" />
    <glyph glyph-name="uni1EC3" unicode="&#x1ec3;" horiz-adv-x="1138" 
d="M1110 1483l-76 82q46 22 70.5 35t54.5 31.5t44.5 34t25 35.5t10.5 42q0 65 -88 65q-92 0 -190 -61l-9 125q111 65 232 65q97 0 152 -42.5t55 -129.5q0 -97 -70.5 -160t-210.5 -122zM1042 1264l-149 -35l-119 258l-227 -258l-156 39l322 338h155zM950 98q-68 -51 -173 -87
t-234 -36q-224 0 -337.5 117.5t-113.5 331.5q0 95 22.5 190.5t71 185t117 158.5t168.5 110.5t217 41.5q84 0 150 -22t107.5 -57.5t68 -86t37 -102.5t10.5 -111q0 -130 -47 -229h-727q-2 -23 -2 -66q0 -149 69.5 -222t225.5 -73q196 0 358 127zM674 954q-135 0 -226.5 -87.5
t-132.5 -225.5h545q19 39 19 104q0 95 -48.5 152t-156.5 57z" />
    </font>
</defs>
</svg>
