<?xml version="1.0" standalone="no"?>
<!DOCTYPE svg PUBLIC "-//W3C//DTD SVG 1.1//EN" "http://www.w3.org/Graphics/SVG/1.1/DTD/svg11.dtd" >
<svg xmlns="http://www.w3.org/2000/svg" xmlns:xlink="http://www.w3.org/1999/xlink" version="1.1">
<metadata>
Created by FontForge 20170731 at Tue Jul 21 14:26:15 2020
 By Aleksey,,,
Copyright (c) 2018 by Morisawa In.. All rights reserved.
</metadata>
<defs>
<font id="ClarimoUDPE-Light" horiz-adv-x="1290" >
  <font-face 
    font-family="Clarimo UD PE Light"
    font-weight="300"
    font-stretch="normal"
    units-per-em="2048"
    panose-1="2 11 4 0 0 0 0 0 0 0"
    ascent="1593"
    descent="-455"
    x-height="1075"
    cap-height="1520"
    bbox="-463 -522 2656 2376"
    underline-thickness="102"
    underline-position="-409"
    unicode-range="U+0020-FB04"
  />
<missing-glyph horiz-adv-x="1024" 
d="M0 0v1434h1024v-1434h-1024zM512 809l348 522h-696zM573 717l349 -522v1044zM164 102h696l-348 523zM102 1239v-1044l349 522z" />
    <glyph glyph-name=".notdef" horiz-adv-x="1024" 
d="M0 0v1434h1024v-1434h-1024zM512 809l348 522h-696zM573 717l349 -522v1044zM164 102h696l-348 523zM102 1239v-1044l349 522z" />
    <glyph glyph-name=".null" horiz-adv-x="0" 
 />
    <glyph glyph-name="nonmarkingreturn" horiz-adv-x="682" 
 />
    <glyph glyph-name="space" unicode=" " horiz-adv-x="532" 
 />
    <glyph glyph-name="space" unicode="&#xa0;" horiz-adv-x="532" 
 />
    <glyph glyph-name="exclam" unicode="!" horiz-adv-x="718" 
d="M307 371l-28 1145v4h163v-4l-30 -1145h-105zM276 0v190h166v-190h-166z" />
    <glyph glyph-name="quotedbl" unicode="&#x22;" horiz-adv-x="872" 
d="M575 1044l-32 545v4h159v-4l-32 -545h-95zM203 1044l-33 545v4h160v-4l-33 -545h-94z" />
    <glyph glyph-name="numbersign" unicode="#" horiz-adv-x="1355" 
d="M729 0l76 455h-356l-76 -455h-107l76 455h-262v102h278l70 406h-270v102h286l76 455h107l-76 -455h356l76 455h107l-76 -455h262v-102h-279l-69 -406h270v-102h-287l-75 -455h-107zM465 557h356l70 406h-356z" />
    <glyph glyph-name="dollar" unicode="$" 
d="M1120 403q0 -171 -106 -277.5t-314 -123.5v-203h-102v201q-259 8 -455 168l43 127q90 -81 188 -125.5t224 -50.5v596q-54 18 -91 31.5t-84.5 35t-80 43t-66 53t-53.5 66t-32.5 80.5t-12.5 100q0 165 107.5 273t312.5 121v198h102v-198q209 -12 361 -136l-41 -127
q-149 131 -320 144v-582q80 -26 136 -49t113.5 -58.5t92 -76t56.5 -99.5t22 -131zM307 1130q0 -50 15 -89.5t38.5 -67t64 -51t78.5 -39t95 -33.5v549q-147 -10 -219 -84t-72 -185zM991 397q0 62 -20 107.5t-62.5 78t-89 54t-119.5 45.5v-561q148 14 219.5 87t71.5 189z" />
    <glyph glyph-name="percent" unicode="%" horiz-adv-x="1906" 
d="M416 618q-152 0 -242 121.5t-90 341.5t90 341.5t242 121.5q153 0 243.5 -121t90.5 -342t-90.5 -342t-243.5 -121zM346 0l1086 1520h129l-1086 -1520h-129zM416 719q100 0 156.5 92.5t56.5 269.5t-56.5 270t-156.5 93q-99 0 -156 -93.5t-57 -269.5t57 -269t156 -93z
M1489 -20q-152 0 -242 121t-90 341t90 341.5t242 121.5q153 0 243.5 -121t90.5 -342t-90 -341.5t-244 -120.5zM1489 80q100 0 156.5 92.5t56.5 269.5t-56.5 270t-156.5 93q-99 0 -156 -93.5t-57 -269.5t57 -269t156 -93z" />
    <glyph glyph-name="ampersand" unicode="&#x26;" horiz-adv-x="1404" 
d="M1231 0l-209 219q-178 -248 -457 -248q-207 0 -328.5 114.5t-121.5 291.5q0 149 87.5 251.5t254.5 188.5q-116 128 -161.5 212.5t-45.5 178.5q0 153 97.5 246.5t260.5 93.5q158 0 256.5 -89t98.5 -238q0 -250 -316 -418l363 -383q73 142 137 418l121 -62
q-76 -265 -178 -440l317 -336h-176zM385 1212q0 -77 41.5 -148t153.5 -190q251 137 251 334q0 104 -62 164t-165 60q-100 0 -159.5 -59t-59.5 -161zM256 389q0 -137 91 -215t239 -78q115 0 199.5 51t156.5 158l-416 440q-133 -74 -201.5 -156.5t-68.5 -199.5z" />
    <glyph glyph-name="quotesingle" unicode="'" horiz-adv-x="499" 
d="M203 1044l-33 545v4h160v-4l-33 -545h-94z" />
    <glyph glyph-name="parenleft" unicode="(" horiz-adv-x="823" 
d="M672 -385q-241 172 -376.5 431.5t-135.5 580.5t135.5 579.5t376.5 431.5l69 -84q-212 -163 -330 -398.5t-118 -528.5q0 -292 118 -528.5t330 -399.5z" />
    <glyph glyph-name="parenright" unicode=")" horiz-adv-x="823" 
d="M152 1638q241 -173 376.5 -431.5t135.5 -579.5t-135.5 -580.5t-376.5 -431.5l-70 84q212 163 330 399t118 529q0 291 -118 527.5t-330 399.5z" />
    <glyph glyph-name="asterisk" unicode="*" horiz-adv-x="1138" 
d="M883 840l-111 -80l-203 327l-202 -327l-111 80l250 295l-375 92l43 127l356 -146l-28 385h135l-29 -385l357 146l43 -127l-375 -92z" />
    <glyph glyph-name="plus" unicode="+" 
d="M1171 555h-469v-496h-114v496h-469v115h469v495h114v-495h469v-115z" />
    <glyph glyph-name="comma" unicode="," horiz-adv-x="534" 
d="M190 -332l-120 19q127 201 127 426q0 38 -7 94h150q8 -48 8 -98q0 -118 -42 -233.5t-116 -207.5z" />
    <glyph glyph-name="hyphen" unicode="-" horiz-adv-x="950" 
d="M160 545v125h631v-125h-631z" />
    <glyph glyph-name="hyphen" unicode="&#xad;" horiz-adv-x="950" 
d="M160 545v125h631v-125h-631z" />
    <glyph glyph-name="period" unicode="." horiz-adv-x="534" 
d="M176 0v209h182v-209h-182z" />
    <glyph glyph-name="slash" unicode="/" horiz-adv-x="823" 
d="M-63 -340l725 1933h126l-725 -1933h-126z" />
    <glyph glyph-name="zero" unicode="0" 
d="M645 -25q-239 0 -377.5 205.5t-138.5 579.5q0 373 138.5 578.5t377.5 205.5q240 0 378 -205t138 -579t-138 -579.5t-378 -205.5zM645 96q176 0 275.5 170.5t99.5 493.5t-99.5 493t-275.5 170t-275.5 -170t-99.5 -493t99.5 -493.5t275.5 -170.5z" />
    <glyph glyph-name="one" unicode="1" 
d="M1120 117v-117h-827v117h350v1214q-169 -153 -375 -258l-65 111q265 128 481 344h94v-1411h342z" />
    <glyph glyph-name="two" unicode="2" 
d="M1116 127v-127h-950v106l461 472q63 64 97.5 101t78.5 88t66.5 86.5t44.5 79.5t31 86.5t9 88.5q0 144 -85.5 229.5t-225.5 85.5q-120 0 -218.5 -66t-168.5 -190l-70 111q80 134 199.5 202t263.5 68q202 0 324.5 -119.5t122.5 -312.5q0 -70 -19.5 -136.5t-46.5 -118.5
t-84 -122t-101.5 -117t-129.5 -133l-357 -362h758z" />
    <glyph glyph-name="three" unicode="3" 
d="M1122 416q0 -208 -139.5 -326.5t-376.5 -118.5q-130 0 -244 35.5t-194 97.5l29 134q80 -68 186.5 -105t224.5 -37q174 0 273.5 83t99.5 237q0 148 -103.5 227.5t-338.5 79.5h-150v119h137q191 0 302.5 80t111.5 233q0 126 -79.5 197t-227.5 71q-222 0 -373 -170l-65 111
q173 184 446 184q208 0 324 -101.5t116 -279.5q0 -146 -80.5 -241.5t-228.5 -134.5q350 -63 350 -375z" />
    <glyph glyph-name="four" unicode="4" 
d="M1202 389h-250v-389h-131v389h-743v121l729 1022h145v-1018h250v-125zM221 514h600v848z" />
    <glyph glyph-name="five" unicode="5" 
d="M1122 446q0 -228 -137.5 -351.5t-376.5 -123.5q-263 0 -432 133l29 134q167 -142 403 -142q177 0 275 86t98 256q0 165 -99.5 247.5t-316.5 82.5q-174 0 -295 -41v793h783v-125h-656v-521q90 19 217 19q243 0 375.5 -113.5t132.5 -333.5z" />
    <glyph glyph-name="six" unicode="6" 
d="M1180 489q0 -145 -60 -262t-175.5 -186.5t-268.5 -69.5q-252 0 -392.5 192.5t-140.5 549.5q0 393 176.5 614t516.5 221q144 0 231 -35l-12 -131q-96 41 -226 41q-267 0 -401 -170t-143 -489q183 201 426 201q213 0 341 -130.5t128 -345.5zM684 842q-244 0 -397 -205
q12 -267 112 -406t279 -139q168 0 263 112t95 283q0 163 -91 259t-261 96z" />
    <glyph glyph-name="seven" unicode="7" 
d="M1212 1411q-251 -286 -410 -650t-214 -761h-154q112 788 606 1395h-862v125h1034v-109z" />
    <glyph glyph-name="eight" unicode="8" 
d="M1157 375q0 -185 -140.5 -298.5t-375.5 -113.5q-232 0 -370 110t-138 285q0 276 365 420q-71 34 -122.5 66.5t-99 79.5t-72 108.5t-24.5 136.5q0 119 62.5 208t168.5 134t240 45q213 0 336 -109.5t123 -270.5q0 -259 -326 -385q84 -36 141.5 -68.5t115 -82t87 -116
t29.5 -149.5zM319 1174q0 -44 12 -81.5t38 -68.5t54.5 -55.5t73.5 -49t82 -41.5t93 -40q88 36 148.5 77t92.5 83.5t45 82.5t13 86q0 128 -91.5 199.5t-236.5 71.5q-147 0 -235.5 -72.5t-88.5 -191.5zM272 369q0 -128 100.5 -207.5t272.5 -79.5q180 0 276.5 83t96.5 206
q0 53 -20.5 97.5t-52.5 78t-89 67.5t-110 58t-136 57q-338 -138 -338 -360z" />
    <glyph glyph-name="nine" unicode="9" 
d="M1159 840q0 -195 -43.5 -353t-128 -274t-217 -179t-303.5 -63q-121 0 -231 31l14 131q98 -37 217 -37q254 0 391 167t158 468q-168 -176 -404 -176q-220 0 -353.5 130.5t-133.5 350.5q0 146 60.5 261.5t177 183t270.5 67.5q114 0 206.5 -38.5t165.5 -120t113.5 -221
t40.5 -328.5zM266 1038q0 -166 99 -263t272 -97q238 0 383 180q-4 297 -106 433t-281 136q-172 0 -269.5 -110t-97.5 -279z" />
    <glyph glyph-name="colon" unicode=":" horiz-adv-x="802" 
d="M311 836v208h183v-208h-183zM311 0v209h183v-209h-183z" />
    <glyph glyph-name="semicolon" unicode=";" horiz-adv-x="802" 
d="M311 836v208h183v-208h-183zM326 -332l-121 19q127 201 127 426q0 46 -6 94h149q8 -48 8 -98q0 -118 -41.5 -234t-115.5 -207z" />
    <glyph glyph-name="less" unicode="&#x3c;" 
d="M1112 219v-129l-962 481v82l962 482v-129l-803 -394z" />
    <glyph glyph-name="equal" unicode="=" 
d="M143 766v115h1004v-115h-1004zM143 344v115h1004v-115h-1004z" />
    <glyph glyph-name="greater" unicode="&#x3e;" 
d="M1141 571l-963 -481v129l803 393l-803 394v129l963 -482v-82z" />
    <glyph glyph-name="question" unicode="?" horiz-adv-x="1083" 
d="M403 371v121q0 52 13.5 95.5t31 71.5t52.5 57t58.5 44t68.5 41q44 26 67.5 41t58 45t51.5 59.5t30.5 75t13.5 100.5q0 79 -25.5 138.5t-69.5 93.5t-97 50.5t-113 16.5q-214 0 -357 -207l-69 113q159 221 432 221q92 0 172 -26.5t141.5 -78t97 -134.5t35.5 -189
q0 -72 -17.5 -131.5t-41 -98t-66.5 -76.5t-73.5 -57.5t-83.5 -49.5q-44 -25 -71 -43t-55 -45t-41.5 -60t-13.5 -74v-114h-129zM385 0v190h166v-190h-166z" />
    <glyph glyph-name="at" unicode="@" horiz-adv-x="2170" 
d="M1780 -160q-284 -221 -672 -221q-221 0 -399 69t-295 191.5t-179.5 290t-62.5 365.5q0 214 72 400.5t199 321.5t310.5 213t397.5 78q248 0 441 -100t302 -286t109 -429q0 -152 -44 -278.5t-115.5 -207t-160 -125t-180.5 -44.5q-102 0 -162.5 55t-60.5 160v8
q-57 -106 -143.5 -164.5t-188.5 -58.5q-48 0 -92 12.5t-84.5 42.5t-70.5 74t-48 112.5t-18 153.5q0 127 39.5 243.5t105 200t154 133.5t182.5 50q87 0 153 -41t103 -109l39 121h115l-127 -637q-15 -77 -15 -108q0 -146 129 -146q70 0 137 37.5t121.5 106t87.5 175t33 232.5
q0 322 -202 516.5t-541 194.5q-195 0 -358.5 -69.5t-274 -191t-172 -288t-61.5 -358.5q0 -178 53.5 -326t156 -256t261 -167.5t358.5 -59.5q206 0 360 58.5t283 158.5zM768 469q0 -66 14.5 -116.5t36 -80t50.5 -48t55 -25t53 -6.5q114 0 199 113.5t118 277.5l52 256
q-34 64 -91.5 104.5t-134.5 40.5q-81 0 -150 -49t-112 -126t-66.5 -166t-23.5 -175z" />
    <glyph glyph-name="A" unicode="A" horiz-adv-x="1411" 
d="M1208 0l-168 453h-673l-168 -453h-146l578 1520h149l578 -1520h-150zM414 575h579l-288 781z" />
    <glyph glyph-name="B" unicode="B" horiz-adv-x="1382" 
d="M1257 414q0 -93 -27.5 -165t-75 -118t-115.5 -76t-143.5 -42.5t-164.5 -12.5h-516v1520h481q252 0 370 -97t118 -288q0 -275 -242 -342q315 -62 315 -379zM690 1395h-334v-555h336q80 0 140.5 13.5t109 45t73.5 87.5t25 136q0 150 -87 211.5t-263 61.5zM356 723v-598h371
q90 0 155.5 13t119 45t81 91t27.5 146q0 162 -95.5 232.5t-273.5 70.5h-385z" />
    <glyph glyph-name="C" unicode="C" horiz-adv-x="1419" 
d="M1323 150q-85 -80 -210.5 -129.5t-281.5 -49.5q-322 0 -514 210.5t-192 578.5q0 186 52 335t145.5 248.5t225 152t290.5 52.5q281 0 465 -162l-46 -137q-175 170 -421 170q-265 0 -414.5 -174.5t-149.5 -482.5q0 -317 156.5 -489.5t409.5 -172.5q263 0 448 185z" />
    <glyph glyph-name="D" unicode="D" horiz-adv-x="1529" 
d="M1405 758q0 -191 -53.5 -336.5t-153 -237.5t-238 -138t-313.5 -46h-432v1520h428q162 0 290.5 -38t216 -105t145.5 -163.5t84 -209.5t26 -246zM639 1395h-283v-1270h291q294 0 452 156t158 477q0 141 -33 253t-103.5 200t-192.5 136t-289 48z" />
    <glyph glyph-name="E" unicode="E" horiz-adv-x="1273" 
d="M1147 127v-127h-932v1520h915v-125h-774v-527h693v-127h-693v-614h791z" />
    <glyph glyph-name="F" unicode="F" horiz-adv-x="1161" 
d="M991 715h-635v-715h-141v1520h883v-125h-742v-555h635v-125z" />
    <glyph glyph-name="G" unicode="G" horiz-adv-x="1558" 
d="M1386 141q-88 -74 -229 -122t-307 -48q-338 0 -531.5 209t-193.5 580q0 374 196.5 581t538.5 207q156 0 283 -44t213 -118l-45 -137q-181 170 -453 170q-286 0 -436 -174t-150 -485q0 -320 155.5 -490t438.5 -170q220 0 387 99v467h-442v125h575v-650z" />
    <glyph glyph-name="H" unicode="H" horiz-adv-x="1536" 
d="M1182 0v741h-826v-741h-141v1520h141v-652h826v652h139v-1520h-139z" />
    <glyph glyph-name="I" unicode="I" horiz-adv-x="571" 
d="M215 0v1520h141v-1520h-141z" />
    <glyph glyph-name="J" unicode="J" horiz-adv-x="833" 
d="M4 10l8 133q92 -45 213 -45q90 0 147 31t89.5 110.5t32.5 213.5v1067h139v-1057q0 -136 -28.5 -233t-83.5 -153t-128 -81t-170 -25q-130 0 -219 39z" />
    <glyph glyph-name="K" unicode="K" horiz-adv-x="1357" 
d="M1159 0l-618 745l-185 -184v-561h-141v1520h141v-797l774 797h183v-4l-678 -678l702 -834v-4h-178z" />
    <glyph glyph-name="L" unicode="L" horiz-adv-x="1126" 
d="M1100 127v-127h-885v1520h141v-1393h744z" />
    <glyph glyph-name="M" unicode="M" horiz-adv-x="1937" 
d="M926 0l-580 1360v-1360h-131v1520h207l547 -1287l547 1287h206v-1520h-137v1356l-577 -1356h-82z" />
    <glyph glyph-name="N" unicode="N" horiz-adv-x="1585" 
d="M1225 0l-879 1303v-1303h-131v1520h145l879 -1303v1303h131v-1520h-145z" />
    <glyph glyph-name="O" unicode="O" horiz-adv-x="1593" 
d="M797 -29q-147 0 -271 54.5t-212.5 154.5t-138.5 249t-50 331t50 331t139 249t212.5 154t270.5 54t270.5 -54t212.5 -154t138.5 -249t49.5 -331t-49.5 -331t-138.5 -249t-212.5 -154.5t-270.5 -54.5zM797 100q244 0 384 177t140 483q0 304 -140.5 481.5t-383.5 177.5
q-244 0 -384.5 -176.5t-140.5 -482.5q0 -303 140.5 -481.5t384.5 -178.5z" />
    <glyph glyph-name="P" unicode="P" horiz-adv-x="1310" 
d="M356 551v-551h-141v1520h463q266 0 410.5 -120.5t144.5 -361.5q0 -111 -32.5 -197.5t-85 -140t-127 -88t-152 -48t-166.5 -13.5h-314zM672 1395h-316v-719h308q68 0 124.5 8t114 32t96.5 62.5t63.5 103.5t24.5 152q0 361 -415 361z" />
    <glyph glyph-name="Q" unicode="Q" horiz-adv-x="1593" 
d="M1493 -332q-123 -53 -244 -53q-157 0 -285 94.5t-221 263.5q-278 19 -448 229t-170 558q0 182 50 331t139 249t212.5 154t270.5 54t270.5 -54t212.5 -154t138.5 -249t49.5 -331q0 -338 -160.5 -546.5t-426.5 -238.5q68 -105 166.5 -168t224.5 -63q106 0 213 45zM797 100
q244 0 384 177t140 483q0 304 -140.5 481.5t-383.5 177.5q-244 0 -384.5 -176.5t-140.5 -482.5q0 -303 140.5 -481.5t384.5 -178.5z" />
    <glyph glyph-name="R" unicode="R" horiz-adv-x="1394" 
d="M356 621v-621h-141v1520h449q259 0 398.5 -113.5t139.5 -333.5q0 -102 -30.5 -182t-83 -129.5t-110 -79t-124.5 -45.5l471 -637h-166l-454 621h-349zM649 1395h-293v-652h328q50 0 95.5 6.5t98.5 28t91.5 55.5t64 95.5t25.5 142.5q0 170 -106 247t-304 77z" />
    <glyph glyph-name="S" unicode="S" horiz-adv-x="1220" 
d="M106 135l44 137q203 -172 458 -172q184 0 273.5 75.5t89.5 203.5q0 36 -6 67t-21.5 56.5t-31.5 45.5t-46 39.5t-54 32.5t-66.5 29.5t-73 27.5t-84.5 28q-59 19 -94 31.5t-88 35t-85 43.5t-70 54t-58.5 69.5t-35 86.5t-14.5 108q0 185 125.5 300t364.5 115q246 0 414 -133
l-41 -137q-166 141 -379 141q-174 0 -258 -76t-84 -196q0 -52 16.5 -93t44 -71t79 -58t105.5 -49t140 -49q46 -15 74.5 -24.5t70.5 -26t69 -30.5t61.5 -35.5t56 -43t45 -51t36 -62t21 -73.5t8.5 -88q0 -195 -129 -308.5t-379 -113.5q-288 0 -498 164z" />
    <glyph glyph-name="T" unicode="T" horiz-adv-x="1187" 
d="M1163 1395h-499v-1395h-140v1395h-499v125h1138v-125z" />
    <glyph glyph-name="U" unicode="U" horiz-adv-x="1521" 
d="M199 578v942h139v-947q0 -233 110 -353t314 -120q206 0 316 120t110 353v947h135v-942q0 -293 -143 -450t-420 -157q-278 0 -419.5 156.5t-141.5 450.5z" />
    <glyph glyph-name="V" unicode="V" horiz-adv-x="1390" 
d="M1327 1520l-557 -1520h-149l-558 1520h152l483 -1356l484 1356h145z" />
    <glyph glyph-name="W" unicode="W" horiz-adv-x="2162" 
d="M1475 0l-394 1311l-395 -1311h-151l-461 1520h151l391 -1336l398 1336h143l397 -1336l390 1336h143l-461 -1520h-151z" />
    <glyph glyph-name="X" unicode="X" horiz-adv-x="1327" 
d="M1090 0l-435 664l-426 -664h-155l510 772l-490 748h164l412 -637l407 637h156l-492 -742l512 -778h-163z" />
    <glyph glyph-name="Y" unicode="Y" horiz-adv-x="1247" 
d="M1212 1520l-518 -920v-600h-141v596l-518 924h158l434 -795l432 795h153z" />
    <glyph glyph-name="Z" unicode="Z" horiz-adv-x="1347" 
d="M1237 127v-127h-1133v121l938 1274h-899v125h1074v-117l-941 -1276h961z" />
    <glyph glyph-name="bracketleft" unicode="[" horiz-adv-x="823" 
d="M248 -340v1933h450v-102h-323v-1729h323v-102h-450z" />
    <glyph glyph-name="backslash" unicode="\" horiz-adv-x="823" 
d="M887 -340h-127l-725 1933h127z" />
    <glyph glyph-name="bracketright" unicode="]" horiz-adv-x="823" 
d="M575 1593v-1933h-450v102h324v1729h-324v102h450z" />
    <glyph glyph-name="asciicircum" unicode="^" horiz-adv-x="1024" 
d="M809 762l-297 608l-297 -608h-119l379 758h74l379 -758h-119z" />
    <glyph glyph-name="underscore" unicode="_" horiz-adv-x="1310" 
d="M31 -266v108h1249v-108h-1249z" />
    <glyph glyph-name="grave" unicode="`" horiz-adv-x="1024" 
d="M559 1212l-303 390l131 71l250 -418z" />
    <glyph glyph-name="a" unicode="a" horiz-adv-x="1148" 
d="M848 0l-2 164q-65 -88 -160 -138.5t-215 -50.5q-158 0 -255 85.5t-97 238.5q0 178 139.5 264t423.5 86h156v68q0 133 -61 197.5t-212 64.5q-197 0 -350 -117l-29 123q148 115 389 115q209 0 303.5 -95.5t94.5 -273.5v-731h-125zM494 94q117 0 207 58.5t137 150.5v238
h-146q-225 0 -330.5 -57.5t-105.5 -182.5q0 -99 64 -153t174 -54z" />
    <glyph glyph-name="b" unicode="b" horiz-adv-x="1273" 
d="M1165 553q0 -265 -140.5 -421.5t-367.5 -156.5q-208 0 -346 150l-8 -125h-117v1593h136v-682q156 189 380 189q205 0 334 -147t129 -400zM322 252q118 -158 319 -158q175 0 280 120t105 335q0 205 -96 315.5t-252 110.5q-115 0 -208.5 -58.5t-147.5 -152.5v-512z" />
    <glyph glyph-name="c" unicode="c" horiz-adv-x="1069" 
d="M983 100q-135 -125 -354 -125q-239 0 -381 148t-142 409q0 264 144.5 416t384.5 152q208 0 336 -121l-37 -123q-116 123 -301 123q-183 0 -285 -118t-102 -324t103 -323.5t290 -117.5q181 0 315 127z" />
    <glyph glyph-name="d" unicode="d" horiz-adv-x="1273" 
d="M965 0l-4 160q-138 -185 -369 -185q-215 0 -349 149t-134 406q0 259 140 414.5t372 155.5q110 0 188.5 -36.5t142.5 -107.5v637h135v-1593h-122zM248 532q0 -209 100.5 -320.5t265.5 -111.5q119 0 206.5 55.5t131.5 145.5v518q-112 160 -317 160q-179 0 -283 -118.5
t-104 -328.5z" />
    <glyph glyph-name="e" unicode="e" horiz-adv-x="1165" 
d="M1034 102q-157 -127 -399 -127q-255 0 -392 146.5t-137 404.5q0 263 133.5 418.5t366.5 155.5q95 0 171 -27.5t126.5 -74.5t84.5 -112.5t48.5 -137t14.5 -152.5v-76h-807q0 -206 103 -315t304 -109q112 0 195.5 33t159.5 96zM606 985q-147 0 -245 -93t-115 -265h672v18
q0 67 -17.5 125.5t-53 108t-97.5 78t-144 28.5z" />
    <glyph glyph-name="f" unicode="f" horiz-adv-x="698" 
d="M236 0v967h-191v108h191v146q0 108 28 186t78.5 121t111.5 62.5t136 19.5q77 0 147 -17l-12 -129q-70 25 -145 25q-106 0 -157.5 -62t-51.5 -200v-152h303v-108h-303v-967h-135z" />
    <glyph glyph-name="g" unicode="g" horiz-adv-x="1187" 
d="M1098 -141q0 -160 -143 -253t-404 -93q-248 0 -369 82.5t-121 214.5q0 89 56 158t170 100q-99 46 -99 155q0 131 144 180q-88 47 -137.5 129.5t-49.5 192.5q0 175 119 275t305 100q130 0 232 -51l329 45h9v-129h-232q84 -97 84 -240q0 -176 -118.5 -276.5t-303.5 -100.5
q-72 0 -127 14q-61 -3 -97 -32.5t-36 -79.5q0 -45 31.5 -76t105.5 -35l326 -16q162 -7 244 -77t82 -187zM569 459q134 0 211.5 70t77.5 194t-78 195t-213 71q-134 0 -211 -70t-77 -194q0 -123 77.5 -194.5t212.5 -71.5zM193 -168q0 -97 90.5 -151t277.5 -54
q195 0 299.5 57.5t104.5 163.5q0 70 -53.5 109t-172.5 45l-370 18q-83 -17 -129.5 -66.5t-46.5 -121.5z" />
    <glyph glyph-name="h" unicode="h" horiz-adv-x="1226" 
d="M322 737v-737h-136v1593h136v-694q144 201 374 201q166 0 259.5 -102t93.5 -291v-707h-136v680q0 295 -245 295q-115 0 -206.5 -65t-139.5 -173z" />
    <glyph glyph-name="i" unicode="i" horiz-adv-x="516" 
d="M174 1321v180h168v-180h-168zM190 0v1075h136v-1075h-136z" />
    <glyph glyph-name="j" unicode="j" horiz-adv-x="534" 
d="M197 1321v180h165v-180h-165zM-135 -449l14 130q55 -27 137 -27q99 0 148 59.5t49 202.5v1159h135v-1153q0 -210 -85.5 -301.5t-242.5 -91.5q-96 0 -155 22z" />
    <glyph glyph-name="k" unicode="k" horiz-adv-x="1103" 
d="M918 0l-439 526l-157 -155v-371h-136v1593h136v-1079l536 561h172v-4l-463 -459l520 -608v-4h-169z" />
    <glyph glyph-name="l" unicode="l" horiz-adv-x="516" 
d="M190 0v1593h136v-1593h-136z" />
    <glyph glyph-name="m" unicode="m" horiz-adv-x="1921" 
d="M322 737v-737h-136v1075h125l2 -188q145 213 373 213q118 0 202 -56.5t120 -164.5q145 221 387 221q163 0 256.5 -102.5t93.5 -290.5v-707h-135v680q0 146 -62.5 220.5t-175.5 74.5q-115 0 -204.5 -68t-135.5 -170v-737h-135v680q0 147 -62 221t-176 74t-203 -68.5
t-134 -169.5z" />
    <glyph glyph-name="n" unicode="n" horiz-adv-x="1226" 
d="M322 737v-737h-136v1075h125l2 -188q147 213 383 213q166 0 259.5 -102t93.5 -291v-707h-136v680q0 295 -245 295q-115 0 -206.5 -65t-139.5 -173z" />
    <glyph glyph-name="o" unicode="o" horiz-adv-x="1222" 
d="M612 -25q-222 0 -364 151t-142 411t142 411.5t364 151.5q144 0 257.5 -66t180 -195t66.5 -302q0 -130 -38.5 -236.5t-106 -177.5t-159.5 -109.5t-200 -38.5zM612 94q167 0 266 120t99 323q0 204 -98.5 323t-266.5 119q-169 0 -267.5 -119t-98.5 -323q0 -203 99 -323
t267 -120z" />
    <glyph glyph-name="p" unicode="p" horiz-adv-x="1273" 
d="M657 -25q-204 0 -335 131v-561h-136v1530h125l2 -178q64 91 164.5 147t227.5 56q203 0 331.5 -147.5t128.5 -399.5q0 -265 -140.5 -421.5t-367.5 -156.5zM322 754v-512q121 -148 317 -148q175 0 281 120t106 333q0 204 -95 316t-253 112q-116 0 -209.5 -60.5
t-146.5 -160.5z" />
    <glyph glyph-name="q" unicode="q" horiz-adv-x="1273" 
d="M1087 1075v-1530h-135v594q-141 -164 -362 -164q-213 0 -347 149.5t-134 405.5q0 258 139.5 414t372.5 156q115 0 197 -40.5t145 -119.5l10 135h114zM248 532q0 -209 100 -320.5t264 -111.5q109 0 198 48.5t142 134.5v524q-109 172 -315 172q-179 0 -284 -118t-105 -329z
" />
    <glyph glyph-name="r" unicode="r" horiz-adv-x="792" 
d="M317 688v-688h-135v1075h125l4 -209q105 230 322 230q71 0 127 -25l-12 -131q-66 25 -134 25q-106 0 -185 -70t-112 -207z" />
    <glyph glyph-name="s" unicode="s" horiz-adv-x="983" 
d="M106 90l29 127q174 -123 363 -123q123 0 185 47.5t62 134.5q0 35 -12 61.5t-29 44.5t-54.5 35.5t-70 29t-94.5 30.5q-52 16 -84 27t-74 28t-67 33t-52.5 39.5t-42.5 49.5t-24.5 61t-9.5 76q0 143 101 226t276 83q187 0 323 -90l-30 -127q-140 98 -297 98
q-118 0 -180 -49.5t-62 -130.5q0 -20 4.5 -37t9.5 -30t19 -26.5t23.5 -22t33 -19.5t36.5 -17t46 -17t49.5 -16t57.5 -18q50 -15 84 -27t72.5 -28.5t63 -33t49.5 -39t38.5 -48.5t22 -60t8.5 -75q0 -153 -105.5 -232.5t-290.5 -79.5q-219 0 -377 115z" />
    <glyph glyph-name="t" unicode="t" horiz-adv-x="778" 
d="M725 31q-93 -56 -213 -56q-129 0 -205 72.5t-76 228.5v691h-186v108h186v301l136 39v-340h348v-108h-348v-674q0 -99 41.5 -148t128.5 -49q85 0 170 60z" />
    <glyph glyph-name="u" unicode="u" horiz-adv-x="1226" 
d="M915 0l-2 186q-136 -211 -376 -211q-167 0 -263 103t-96 291v706h135v-680q0 -149 66 -222t186 -73q68 0 127 23t100.5 61t69 78t43.5 82v731h135v-1075h-125z" />
    <glyph glyph-name="v" unicode="v" horiz-adv-x="1067" 
d="M1016 1075l-418 -1075h-129l-418 1075h152l334 -921l333 921h146z" />
    <glyph glyph-name="w" unicode="w" horiz-adv-x="1679" 
d="M1124 0l-284 889l-285 -889h-131l-356 1075h149l277 -905l282 905h135l283 -905l276 905h144l-359 -1075h-131z" />
    <glyph glyph-name="x" unicode="x" horiz-adv-x="1056" 
d="M831 0l-307 442l-307 -442h-147v4l381 543l-373 524v4h158l296 -432l295 432h148v-4l-375 -524l387 -543v-4h-156z" />
    <glyph glyph-name="y" unicode="y" horiz-adv-x="1083" 
d="M616 6q-58 -149 -107.5 -243.5t-99.5 -145.5t-96.5 -69.5t-109.5 -18.5q-75 0 -137 25l12 131q60 -29 127 -29q54 0 94 28.5t82.5 101t99.5 212.5l-420 1077h152l338 -925l338 925h143z" />
    <glyph glyph-name="z" unicode="z" horiz-adv-x="995" 
d="M907 117v-117h-819v106l649 852h-618v117h782v-106l-651 -852h657z" />
    <glyph glyph-name="braceleft" unicode="{" horiz-adv-x="823" 
d="M698 -340h-133q-155 0 -239 78t-84 223q0 88 32 189q43 127 43 215q0 97 -48.5 149.5t-172.5 52.5h-57v119h57q123 0 172 53t49 150t-43 217q-32 98 -32 186q0 145 84 223t239 78h133v-102h-135q-97 0 -145.5 -54.5t-48.5 -144.5q0 -64 34 -168q41 -125 41 -221
q0 -114 -52.5 -185.5t-149.5 -86.5v-8q97 -15 149.5 -87t52.5 -186q0 -96 -41 -221q-34 -108 -34 -168q0 -90 48.5 -144.5t145.5 -54.5h135v-102z" />
    <glyph glyph-name="bar" unicode="|" horiz-adv-x="823" 
d="M350 -455v2048h123v-2048h-123z" />
    <glyph glyph-name="braceright" unicode="}" horiz-adv-x="823" 
d="M125 1593h133q155 0 239.5 -78t84.5 -223q0 -84 -33 -188q-43 -127 -43 -215q0 -97 49 -150t172 -53h57v-119h-57q-124 0 -172.5 -52.5t-48.5 -149.5q0 -87 43 -218q33 -104 33 -186q0 -145 -84.5 -223t-239.5 -78h-133v102h135q97 0 146 55t49 144q0 61 -35 168
q-41 125 -41 221q0 114 53 186t150 87v8q-97 15 -150 86.5t-53 185.5q0 93 41 221q35 111 35 168q0 89 -49 144t-146 55h-135v102z" />
    <glyph glyph-name="asciitilde" unicode="~" 
d="M266 436l-110 13q0 90 23 156t61 100.5t79.5 50.5t86.5 16t97 -18.5t83 -36t90 -53.5q58 -36 84.5 -51.5t63.5 -30.5t65 -15q56 0 95.5 50.5t39.5 170.5l111 -12q0 -90 -23 -156t-61 -100.5t-79.5 -50.5t-86.5 -16q-65 0 -127 28t-144 80q-77 50 -125 73t-88 23
q-56 0 -95.5 -50.5t-39.5 -170.5z" />
    <glyph glyph-name="exclamdown" unicode="&#xa1;" horiz-adv-x="718" 
d="M442 1075v-190h-166v190h166zM412 705l28 -1145v-4h-164v4l31 1145h105z" />
    <glyph glyph-name="cent" unicode="&#xa2;" 
d="M1063 373q-141 -122 -352 -129v-273h-103v277q-211 21 -336 156t-125 358q0 222 125 359.5t336 162.5v268h103v-264q203 -3 340 -119l-37 -122q-119 116 -303 124v-811q99 3 175.5 37.5t147.5 98.5zM279 764q0 -164 87 -269t242 -128v798q-155 -23 -242 -129t-87 -272z
" />
    <glyph glyph-name="sterling" unicode="&#xa3;" 
d="M1176 127v-127h-1020v104q75 7 131 31.5t88 57t52 76.5t26 81.5t6 79.5q0 105 -60 256h-243v102h196q-69 160 -69 295q0 212 131.5 338.5t345.5 126.5q237 0 387 -170l-47 -123q-74 82 -153 125t-191 43q-154 0 -244 -84t-90 -247q0 -58 13.5 -117t27.5 -94.5t41 -92.5
h442v-102h-399q47 -118 47 -237q0 -216 -141 -322h723z" />
    <glyph glyph-name="currency" unicode="&#xa4;" 
d="M1128 358l-81 -82l-201 201q-86 -61 -201 -61t-201 61l-200 -201l-82 82l203 203q-60 89 -60 199q0 109 60 198l-203 203l82 82l200 -201q87 62 201 62t201 -62l201 201l81 -82l-202 -203q59 -83 59 -198q0 -116 -59 -199zM645 526q99 0 159 65.5t60 168.5
q0 102 -60 167.5t-159 65.5t-159 -65.5t-60 -167.5q0 -103 60 -168.5t159 -65.5z" />
    <glyph glyph-name="yen" unicode="&#xa5;" 
d="M1098 297h-387v-297h-131v297h-387v104h387v215h-387v105h360l-455 799h156l397 -736l396 736h145l-457 -799h363v-105h-387v-215h387v-104z" />
    <glyph glyph-name="brokenbar" unicode="&#xa6;" horiz-adv-x="823" 
d="M350 825v768h123v-768h-123zM350 -455v768h123v-768h-123z" />
    <glyph glyph-name="section" unicode="&#xa7;" horiz-adv-x="1257" 
d="M1049 2q0 -160 -112.5 -255t-322.5 -95q-236 0 -401 129l39 129q86 -69 170 -104t194 -35q150 0 228 61t78 162q0 34 -10 63t-23.5 50t-41.5 41t-49.5 32t-63.5 27.5t-66.5 23.5t-75.5 23q-49 15 -79.5 25t-75 28t-72 35.5t-59 44t-49.5 56.5t-30 71.5t-12 89.5
q0 108 53.5 185.5t155.5 117.5q-93 44 -145 113t-52 178q0 157 111 253.5t319 96.5q216 0 361 -102l-39 -127q-81 58 -155.5 84.5t-168.5 26.5q-154 0 -228.5 -63t-74.5 -159q0 -34 10 -63t24 -50.5t41.5 -41.5t50.5 -33t62.5 -28t66.5 -23.5t73 -22.5q49 -14 81 -24.5
t76 -28.5t72.5 -35.5t60 -44t49.5 -56.5t30 -71.5t12 -89.5q0 -107 -55.5 -184t-157.5 -117q94 -44 147.5 -113.5t53.5 -179.5zM670 360q30 -9 57 -18q102 31 154.5 94t52.5 142q0 112 -106 176q-58 35 -218 86h-1l-1 1h-1h-1l-1 1h-1q-30 10 -61 18q-97 -29 -150 -90
t-53 -145q0 -40 11 -72.5t36.5 -58t50 -43.5t70 -36t75.5 -28t87 -27z" />
    <glyph glyph-name="dieresis" unicode="&#xa8;" horiz-adv-x="1024" 
d="M637 1321v180h162v-180h-162zM225 1321v180h162v-180h-162z" />
    <glyph glyph-name="copyright" unicode="&#xa9;" horiz-adv-x="1880" 
d="M940 -29q-164 0 -310.5 62t-251 167.5t-165.5 251t-61 308.5q0 162 61 308t165.5 251.5t251 167t310.5 61.5t311 -61.5t251.5 -167t165.5 -251.5t61 -308q0 -217 -103.5 -398t-285 -286t-400.5 -105zM940 61q146 0 275 54.5t220.5 148t144 222.5t52.5 274
q0 193 -89.5 353t-248.5 252.5t-354 92.5q-194 0 -353 -92.5t-249 -252.5t-90 -353t90 -353.5t249 -253t353 -92.5zM1276 408q-126 -109 -313 -109q-198 0 -319.5 125t-121.5 336q0 212 124 336.5t325 124.5q181 0 295 -99l-35 -106q-96 96 -256 96q-154 0 -242 -96.5
t-88 -253.5q0 -161 89.5 -256.5t238.5 -95.5q162 0 272 104z" />
    <glyph glyph-name="ordfeminine" unicode="&#xaa;" horiz-adv-x="942" 
d="M678 758l-4 114q-97 -131 -271 -131q-117 0 -188.5 63.5t-71.5 172.5q0 248 408 248h115v43q0 88 -44.5 132t-146.5 44q-141 0 -258 -84l-24 106q113 82 292 82q297 0 297 -260v-530h-104zM428 844q84 0 145 36.5t93 98.5v158h-103q-159 0 -229 -39.5t-70 -116.5
q0 -64 42 -100.5t122 -36.5zM158 471v107h626v-107h-626z" />
    <glyph glyph-name="guillemotleft" unicode="&#xab;" horiz-adv-x="1318" 
d="M1104 166l-105 -70l-372 455v14l372 455l105 -72l-326 -391zM670 166l-105 -70l-372 455v14l372 455l105 -72l-326 -391z" />
    <glyph glyph-name="logicalnot" unicode="&#xac;" 
d="M1137 670v-469h-115v354h-868v115h983z" />
    <glyph glyph-name="registered" unicode="&#xae;" horiz-adv-x="1327" 
d="M664 614q-153 0 -279 73t-198 199t-72 277q0 112 42.5 213.5t115 175t175 117t216.5 43.5q153 0 279.5 -73.5t197.5 -199.5t71 -276q0 -151 -71 -276.5t-197 -199t-280 -73.5zM664 690q198 0 332 137.5t134 335.5t-134 335.5t-332 137.5t-332.5 -137.5t-134.5 -335.5
t134.5 -335.5t332.5 -137.5zM537 1083v-219h-91v611h224q112 0 170.5 -48.5t58.5 -140.5q0 -140 -127 -184l180 -238h-108l-162 219h-145zM537 1401v-244h131q24 0 44.5 4.5t43 16.5t36 38.5t13.5 65.5q0 64 -36 91.5t-103 27.5h-129z" />
    <glyph glyph-name="macron" unicode="&#xaf;" horiz-adv-x="1024" 
d="M199 1356v114h626v-114h-626z" />
    <glyph glyph-name="degree" unicode="&#xb0;" horiz-adv-x="921" 
d="M461 936q-145 0 -240.5 98t-95.5 242q0 142 95.5 240t240.5 98t240.5 -98t95.5 -240q0 -144 -95.5 -242t-240.5 -98zM461 1038q101 0 163 66.5t62 171.5q0 103 -62 169t-163 66q-102 0 -163.5 -65.5t-61.5 -169.5q0 -105 61.5 -171.5t163.5 -66.5z" />
    <glyph glyph-name="plusminus" unicode="&#xb1;" 
d="M1147 725h-445v-461h-114v461h-445v115h445v460h114v-460h445v-115zM143 0v115h1004v-115h-1004z" />
    <glyph glyph-name="two.sups" unicode="&#xb2;" horiz-adv-x="757" 
d="M672 944v-104h-594v100l268 252q110 103 152.5 161t42.5 128q0 76 -47.5 120t-124.5 44q-70 0 -130 -39.5t-102 -110.5l-55 92q51 76 128 117t169 41q126 0 203 -70.5t77 -189.5q0 -51 -15 -96.5t-49.5 -91t-72 -83.5t-100.5 -94l-197 -176h447z" />
    <glyph glyph-name="three.sups" unicode="&#xb3;" horiz-adv-x="757" 
d="M678 1083q0 -122 -89 -193t-239 -71q-168 0 -282 78l22 111q106 -88 254 -88q101 0 158 43t57 124q0 76 -60 117t-198 41h-98v94h90q111 0 176.5 42t65.5 120q0 67 -45.5 105.5t-129.5 38.5q-134 0 -233 -99l-45 94q114 105 291 105q133 0 206.5 -60.5t73.5 -166.5
q0 -83 -47 -138.5t-133 -79.5q205 -39 205 -217z" />
    <glyph glyph-name="acute" unicode="&#xb4;" horiz-adv-x="1024" 
d="M465 1212l-78 43l250 418l131 -71z" />
    <glyph glyph-name="uni00B5" unicode="&#xb5;" horiz-adv-x="1292" 
d="M571 -25q-174 0 -258 125l17 -555h-135v1530h135v-680q0 -148 66.5 -221.5t185.5 -73.5q69 0 128.5 23t100 61t68 78t43.5 82v731h135v-835q0 -71 24.5 -101t73.5 -30q39 0 74 14v-119q-47 -16 -107 -16q-93 0 -139.5 46t-50.5 144q-59 -91 -152.5 -147t-208.5 -56z" />
    <glyph glyph-name="paragraph" unicode="&#xb6;" horiz-adv-x="1368" 
d="M811 1425v-1757h-102v893h-37q-256 0 -400.5 120t-144.5 359q0 225 139.5 352.5t372.5 127.5h477v-1852h-104v1757h-201z" />
    <glyph glyph-name="periodcentered" unicode="&#xb7;" horiz-adv-x="606" 
d="M213 508v209h182v-209h-182z" />
    <glyph glyph-name="cedilla" unicode="&#xb8;" horiz-adv-x="1024" 
d="M733 -291q0 -89 -62.5 -142.5t-189.5 -53.5q-106 0 -192 36l26 103q73 -39 177 -39q129 0 129 94q0 42 -42.5 70t-170.5 57l71 174h88l-49 -106q128 -38 171.5 -84t43.5 -109z" />
    <glyph glyph-name="one.sups" unicode="&#xb9;" horiz-adv-x="606" 
d="M420 1720v-880h-115v729q-103 -86 -215 -139l-51 90q167 80 293 200h88z" />
    <glyph glyph-name="ordmasculine" unicode="&#xba;" horiz-adv-x="942" 
d="M471 741q-159 0 -260.5 108t-101.5 296t101.5 295.5t260.5 107.5q160 0 261.5 -108t101.5 -295q0 -188 -102 -296t-261 -108zM471 848q111 0 176.5 80t65.5 217q0 136 -66 216.5t-176 80.5t-176 -80.5t-66 -216.5t66 -216.5t176 -80.5zM158 471v107h626v-107h-626z" />
    <glyph glyph-name="guillemotright" unicode="&#xbb;" horiz-adv-x="1318" 
d="M1126 551l-372 -455l-105 72l326 391l-326 391l105 70l372 -455v-14zM692 551l-373 -455l-104 72l326 391l-326 391l104 70l373 -455v-14z" />
    <glyph glyph-name="onequarter" unicode="&#xbc;" horiz-adv-x="1599" 
d="M420 1520v-881h-115v729q-103 -86 -215 -139l-51 90q165 79 293 201h88zM164 0l1085 1520h129l-1085 -1520h-129zM1552 209h-141v-213h-111v213h-444v106l422 578h133v-586h141v-98zM967 307h333v459z" />
    <glyph glyph-name="onehalf" unicode="&#xbd;" horiz-adv-x="1693" 
d="M420 1520v-881h-115v729q-103 -86 -215 -139l-51 90q165 79 293 201h88zM164 0l1085 1520h129l-1085 -1520h-129zM1608 104v-104h-594v100l268 252q110 103 152.5 161t42.5 128q0 76 -47.5 120t-124.5 44q-70 0 -130 -39.5t-102 -110.5l-55 93q51 76 127.5 116.5
t169.5 40.5q126 0 203 -70.5t77 -189.5q0 -51 -15 -96t-50 -91t-72 -83t-100 -94l-197 -177h447z" />
    <glyph glyph-name="threequarters" unicode="&#xbe;" horiz-adv-x="1730" 
d="M678 883q0 -122 -89 -193.5t-239 -71.5q-168 0 -282 78l22 111q106 -88 254 -88q101 0 158 43.5t57 124.5q0 76 -60 116.5t-198 40.5h-98v95h90q111 0 176.5 41.5t65.5 119.5q0 67 -45.5 105.5t-129.5 38.5q-135 0 -233 -98l-45 94q113 104 291 104q133 0 206.5 -60.5
t73.5 -166.5q0 -83 -47 -138t-133 -79q205 -39 205 -217zM295 0l1085 1520h129l-1085 -1520h-129zM1683 209h-141v-213h-110v213h-445v106l422 578h133v-586h141v-98zM1098 307h334v459z" />
    <glyph glyph-name="questiondown" unicode="&#xbf;" horiz-adv-x="1083" 
d="M727 1075v-190h-166v190h166zM709 705v-121q0 -52 -13 -95.5t-31 -72t-52 -57.5t-58.5 -44.5t-69.5 -40.5q-42 -23 -67.5 -39.5t-58 -45.5t-51 -59.5t-31.5 -76t-13 -100.5q0 -79 25.5 -138.5t69.5 -93.5t97 -50.5t113 -16.5q214 0 357 207l69 -113q-159 -221 -432 -221
q-92 0 -172 26.5t-141.5 78t-97 134.5t-35.5 189q0 45 6 85t19.5 73.5t27.5 60.5t38 52t42 42.5t48.5 38t49 32t51.5 30.5q46 27 71 44t54.5 44.5t42.5 59.5t13 73v115h129z" />
    <glyph glyph-name="Agrave" unicode="&#xc0;" horiz-adv-x="1411" 
d="M795 1638l-387 279l124 90l334 -317zM1208 0l-168 453h-673l-168 -453h-146l578 1520h149l578 -1520h-150zM414 575h579l-288 781z" />
    <glyph glyph-name="Aacute" unicode="&#xc1;" horiz-adv-x="1411" 
d="M618 1638l-71 52l334 317l125 -90zM1208 0l-168 453h-673l-168 -453h-146l578 1520h149l578 -1520h-150zM414 575h579l-288 781z" />
    <glyph glyph-name="Acircumflex" unicode="&#xc2;" horiz-adv-x="1411" 
d="M1053 1679l-121 -32l-225 247l-226 -247l-121 32l295 308h103zM1208 0l-168 453h-673l-168 -453h-146l578 1520h149l578 -1520h-150zM414 575h579l-288 781z" />
    <glyph glyph-name="Atilde" unicode="&#xc3;" horiz-adv-x="1411" 
d="M418 1659l-103 10q0 138 59 206.5t152 68.5q91 0 201 -82q53 -39 87.5 -56.5t72.5 -17.5q108 0 108 170l103 -8q0 -139 -59 -208t-152 -69q-38 0 -77.5 14t-63 28.5t-60.5 41.5q-39 27 -58.5 39.5t-47.5 23.5t-54 11q-108 0 -108 -172zM1208 0l-168 453h-673l-168 -453
h-146l578 1520h149l578 -1520h-150zM414 575h579l-288 781z" />
    <glyph glyph-name="Adieresis" unicode="&#xc4;" horiz-adv-x="1411" 
d="M831 1720v178h162v-178h-162zM420 1720v178h162v-178h-162zM1208 0l-168 453h-673l-168 -453h-146l578 1520h149l578 -1520h-150zM414 575h579l-288 781z" />
    <glyph glyph-name="Aring" unicode="&#xc5;" horiz-adv-x="1411" 
d="M1208 0l-168 453h-673l-168 -453h-146l576 1516q-74 23 -120 84.5t-46 140.5q0 100 70 167.5t174 67.5t173.5 -67.5t69.5 -167.5q0 -81 -46 -143t-122 -85l576 -1513h-150zM707 1593q67 0 108 41t41 107q0 65 -41 105t-108 40t-108.5 -40t-41.5 -105q0 -66 41.5 -107
t108.5 -41zM414 575h579l-288 781z" />
    <glyph glyph-name="AE" unicode="&#xc6;" horiz-adv-x="2027" 
d="M979 0v510h-594l-293 -510h-153l878 1520h1067v-125h-766v-527h684v-127h-684v-614h783v-127h-922zM979 1399h-86l-440 -768h526v768z" />
    <glyph glyph-name="Ccedilla" unicode="&#xc7;" horiz-adv-x="1419" 
d="M1034 -291q0 -89 -62.5 -142.5t-189.5 -53.5q-106 0 -192 36l26 103q73 -39 177 -39q129 0 129 94q0 42 -42.5 70t-170.5 57l57 139q-294 22 -467.5 230.5t-173.5 556.5q0 186 52 335t145.5 248.5t225 152t290.5 52.5q281 0 465 -162l-46 -137q-175 170 -421 170
q-265 0 -414.5 -174.5t-149.5 -482.5q0 -317 156.5 -489.5t409.5 -172.5q263 0 448 185l37 -135q-81 -78 -201 -127t-270 -52l-33 -69q128 -38 171.5 -84t43.5 -109z" />
    <glyph glyph-name="Egrave" unicode="&#xc8;" horiz-adv-x="1273" 
d="M762 1638l-387 279l125 90l334 -317zM1147 127v-127h-932v1520h915v-125h-774v-527h693v-127h-693v-614h791z" />
    <glyph glyph-name="Eacute" unicode="&#xc9;" horiz-adv-x="1273" 
d="M586 1638l-72 52l334 317l125 -90zM1147 127v-127h-932v1520h915v-125h-774v-527h693v-127h-693v-614h791z" />
    <glyph glyph-name="Ecircumflex" unicode="&#xca;" horiz-adv-x="1273" 
d="M1020 1679l-121 -32l-225 247l-225 -247l-121 32l295 308h102zM1147 127v-127h-932v1520h915v-125h-774v-527h693v-127h-693v-614h791z" />
    <glyph glyph-name="Edieresis" unicode="&#xcb;" horiz-adv-x="1273" 
d="M799 1720v178h162v-178h-162zM387 1720v178h162v-178h-162zM1147 127v-127h-932v1520h915v-125h-774v-527h693v-127h-693v-614h791z" />
    <glyph glyph-name="Igrave" unicode="&#xcc;" horiz-adv-x="571" 
d="M375 1638l-387 279l125 90l333 -317zM215 0v1520h141v-1520h-141z" />
    <glyph glyph-name="Iacute" unicode="&#xcd;" horiz-adv-x="571" 
d="M199 1638l-72 52l334 317l125 -90zM215 0v1520h141v-1520h-141z" />
    <glyph glyph-name="Icircumflex" unicode="&#xce;" horiz-adv-x="571" 
d="M633 1679l-121 -32l-225 247l-226 -247l-120 32l295 308h102zM215 0v1520h141v-1520h-141z" />
    <glyph glyph-name="Idieresis" unicode="&#xcf;" horiz-adv-x="571" 
d="M412 1720v178h161v-178h-161zM0 1720v178h162v-178h-162zM215 0v1520h141v-1520h-141z" />
    <glyph glyph-name="Eth" unicode="&#xd0;" horiz-adv-x="1548" 
d="M1423 758q0 -378 -200.5 -568t-556.5 -190h-433v748h-184v114h184v658h429q162 0 290.5 -38t216 -105t145 -163.5t83.5 -209.5t26 -246zM788 748h-413v-623h291q294 0 452 156t158 477q0 141 -33 253t-104 200t-193 136t-289 48h-282v-533h413v-114z" />
    <glyph glyph-name="Ntilde" unicode="&#xd1;" horiz-adv-x="1585" 
d="M506 1659l-103 10q0 138 59 206.5t152 68.5q91 0 201 -82q53 -39 87.5 -56.5t72.5 -17.5q108 0 108 170l103 -8q0 -139 -59 -208t-152 -69q-38 0 -77.5 14t-63 28.5t-60.5 41.5q-39 27 -58.5 39.5t-47.5 23.5t-54 11q-108 0 -108 -172zM1225 0l-879 1303v-1303h-131v1520
h145l879 -1303v1303h131v-1520h-145z" />
    <glyph glyph-name="Ograve" unicode="&#xd2;" horiz-adv-x="1593" 
d="M885 1638l-387 279l125 90l333 -317zM797 -29q-147 0 -271 54.5t-212.5 154.5t-138.5 249t-50 331t50 331t139 249t212.5 154t270.5 54t270.5 -54t212.5 -154t138.5 -249t49.5 -331t-49.5 -331t-138.5 -249t-212.5 -154.5t-270.5 -54.5zM797 100q244 0 384 177t140 483
q0 304 -140.5 481.5t-383.5 177.5q-244 0 -384.5 -176.5t-140.5 -482.5q0 -303 140.5 -481.5t384.5 -178.5z" />
    <glyph glyph-name="Oacute" unicode="&#xd3;" horiz-adv-x="1593" 
d="M709 1638l-72 52l334 317l125 -90zM797 -29q-147 0 -271 54.5t-212.5 154.5t-138.5 249t-50 331t50 331t139 249t212.5 154t270.5 54t270.5 -54t212.5 -154t138.5 -249t49.5 -331t-49.5 -331t-138.5 -249t-212.5 -154.5t-270.5 -54.5zM797 100q244 0 384 177t140 483
q0 304 -140.5 481.5t-383.5 177.5q-244 0 -384.5 -176.5t-140.5 -482.5q0 -303 140.5 -481.5t384.5 -178.5z" />
    <glyph glyph-name="Ocircumflex" unicode="&#xd4;" horiz-adv-x="1593" 
d="M1143 1679l-121 -32l-225 247l-226 -247l-120 32l294 308h103zM797 -29q-147 0 -271 54.5t-212.5 154.5t-138.5 249t-50 331t50 331t139 249t212.5 154t270.5 54t270.5 -54t212.5 -154t138.5 -249t49.5 -331t-49.5 -331t-138.5 -249t-212.5 -154.5t-270.5 -54.5zM797 100
q244 0 384 177t140 483q0 304 -140.5 481.5t-383.5 177.5q-244 0 -384.5 -176.5t-140.5 -482.5q0 -303 140.5 -481.5t384.5 -178.5z" />
    <glyph glyph-name="Otilde" unicode="&#xd5;" horiz-adv-x="1593" 
d="M508 1659l-102 10q0 139 58.5 207t151.5 68q91 0 201 -82q53 -39 87.5 -56.5t72.5 -17.5q108 0 108 170l103 -8q0 -139 -59 -208t-152 -69q-38 0 -77.5 14t-63 28.5t-60.5 41.5q-39 27 -58.5 39.5t-47.5 23.5t-54 11q-108 0 -108 -172zM797 -29q-147 0 -271 54.5
t-212.5 154.5t-138.5 249t-50 331t50 331t139 249t212.5 154t270.5 54t270.5 -54t212.5 -154t138.5 -249t49.5 -331t-49.5 -331t-138.5 -249t-212.5 -154.5t-270.5 -54.5zM797 100q244 0 384 177t140 483q0 304 -140.5 481.5t-383.5 177.5q-244 0 -384.5 -176.5
t-140.5 -482.5q0 -303 140.5 -481.5t384.5 -178.5z" />
    <glyph glyph-name="Odieresis" unicode="&#xd6;" horiz-adv-x="1593" 
d="M922 1720v178h161v-178h-161zM510 1720v178h162v-178h-162zM797 -29q-147 0 -271 54.5t-212.5 154.5t-138.5 249t-50 331t50 331t139 249t212.5 154t270.5 54t270.5 -54t212.5 -154t138.5 -249t49.5 -331t-49.5 -331t-138.5 -249t-212.5 -154.5t-270.5 -54.5zM797 100
q244 0 384 177t140 483q0 304 -140.5 481.5t-383.5 177.5q-244 0 -384.5 -176.5t-140.5 -482.5q0 -303 140.5 -481.5t384.5 -178.5z" />
    <glyph glyph-name="multiply" unicode="&#xd7;" 
d="M1133 207l-82 -82l-406 414l-405 -414l-82 82l413 405l-413 406l82 82l405 -414l406 414l82 -82l-414 -406z" />
    <glyph glyph-name="Oslash" unicode="&#xd8;" horiz-adv-x="1593" 
d="M797 -29q-239 0 -406 135l-137 -190l-92 39l157 219q-194 213 -194 586q0 182 50 331t139 249t212.5 154t270.5 54q238 0 405 -135l137 191l93 -39l-158 -219q194 -213 194 -586q0 -182 -49.5 -331t-138.5 -249t-212.5 -154.5t-270.5 -54.5zM272 760q0 -295 131 -467
l721 1010q-131 116 -327 116q-244 0 -384.5 -176.5t-140.5 -482.5zM1321 760q0 295 -131 467l-721 -1010q132 -117 328 -117q244 0 384 177t140 483z" />
    <glyph glyph-name="Ugrave" unicode="&#xd9;" horiz-adv-x="1521" 
d="M850 1638l-387 279l125 90l334 -317zM199 578v942h139v-947q0 -233 110 -353t314 -120q206 0 316 120t110 353v947h135v-942q0 -293 -143 -450t-420 -157q-278 0 -419.5 156.5t-141.5 450.5z" />
    <glyph glyph-name="Uacute" unicode="&#xda;" horiz-adv-x="1521" 
d="M674 1638l-72 52l334 317l125 -90zM199 578v942h139v-947q0 -233 110 -353t314 -120q206 0 316 120t110 353v947h135v-942q0 -293 -143 -450t-420 -157q-278 0 -419.5 156.5t-141.5 450.5z" />
    <glyph glyph-name="Ucircumflex" unicode="&#xdb;" horiz-adv-x="1521" 
d="M1108 1679l-121 -32l-225 247l-225 -247l-121 32l295 308h102zM199 578v942h139v-947q0 -233 110 -353t314 -120q206 0 316 120t110 353v947h135v-942q0 -293 -143 -450t-420 -157q-278 0 -419.5 156.5t-141.5 450.5z" />
    <glyph glyph-name="Udieresis" unicode="&#xdc;" horiz-adv-x="1521" 
d="M887 1720v178h162v-178h-162zM475 1720v178h162v-178h-162zM199 578v942h139v-947q0 -233 110 -353t314 -120q206 0 316 120t110 353v947h135v-942q0 -293 -143 -450t-420 -157q-278 0 -419.5 156.5t-141.5 450.5z" />
    <glyph glyph-name="Yacute" unicode="&#xdd;" horiz-adv-x="1247" 
d="M535 1638l-72 52l334 317l125 -90zM1212 1520l-518 -920v-600h-141v596l-518 924h158l434 -795l432 795h153z" />
    <glyph glyph-name="Thorn" unicode="&#xde;" horiz-adv-x="1247" 
d="M356 342v-342h-141v1520h141v-283h308q247 0 381.5 -110.5t134.5 -333.5q0 -103 -30 -182.5t-79.5 -129.5t-118.5 -82t-141 -44.5t-154 -12.5h-301zM657 1112h-301v-647h295q62 0 113 7.5t102.5 29t87 56t58 93.5t22.5 137q0 324 -377 324z" />
    <glyph glyph-name="germandbls" unicode="&#xdf;" horiz-adv-x="1259" 
d="M1155 424q0 -202 -116 -325.5t-320 -123.5q-135 0 -250 62l23 125q119 -68 231 -68q143 0 219 89t76 237q0 358 -469 416v110q184 3 275 81t91 208q0 118 -72.5 187t-203.5 69q-157 0 -237 -103.5t-80 -302.5v-1085h-136v1085q0 243 116.5 384t340.5 141
q190 0 298 -100.5t108 -268.5q0 -132 -76 -223t-215 -123q195 -47 296 -168.5t101 -302.5z" />
    <glyph glyph-name="agrave" unicode="&#xe0;" horiz-adv-x="1148" 
d="M629 1212l-303 390l131 71l250 -418zM848 0l-2 164q-65 -88 -160 -138.5t-215 -50.5q-158 0 -255 85.5t-97 238.5q0 178 139.5 264t423.5 86h156v68q0 133 -61 197.5t-212 64.5q-197 0 -350 -117l-29 123q148 115 389 115q209 0 303.5 -95.5t94.5 -273.5v-731h-125z
M494 94q117 0 207 58.5t137 150.5v238h-146q-225 0 -330.5 -57.5t-105.5 -182.5q0 -99 64 -153t174 -54z" />
    <glyph glyph-name="aacute" unicode="&#xe1;" horiz-adv-x="1148" 
d="M535 1212l-78 43l250 418l131 -71zM848 0l-2 164q-65 -88 -160 -138.5t-215 -50.5q-158 0 -255 85.5t-97 238.5q0 178 139.5 264t423.5 86h156v68q0 133 -61 197.5t-212 64.5q-197 0 -350 -117l-29 123q148 115 389 115q209 0 303.5 -95.5t94.5 -273.5v-731h-125zM494 94
q117 0 207 58.5t137 150.5v238h-146q-225 0 -330.5 -57.5t-105.5 -182.5q0 -99 64 -153t174 -54z" />
    <glyph glyph-name="acircumflex" unicode="&#xe2;" horiz-adv-x="1148" 
d="M907 1251l-114 -32l-211 335l-211 -335l-115 32l274 406h103zM848 0l-2 164q-65 -88 -160 -138.5t-215 -50.5q-158 0 -255 85.5t-97 238.5q0 178 139.5 264t423.5 86h156v68q0 133 -61 197.5t-212 64.5q-197 0 -350 -117l-29 123q148 115 389 115q209 0 303.5 -95.5
t94.5 -273.5v-731h-125zM494 94q117 0 207 58.5t137 150.5v238h-146q-225 0 -330.5 -57.5t-105.5 -182.5q0 -99 64 -153t174 -54z" />
    <glyph glyph-name="atilde" unicode="&#xe3;" horiz-adv-x="1148" 
d="M309 1262l-102 10q0 139 56 206.5t145 67.5q91 0 194 -82q50 -39 82.5 -57t67.5 -18q102 0 102 172l102 -11q0 -138 -55.5 -206t-144.5 -68q-90 0 -195 82q-51 41 -82.5 58.5t-66.5 17.5q-103 0 -103 -172zM848 0l-2 164q-65 -88 -160 -138.5t-215 -50.5
q-158 0 -255 85.5t-97 238.5q0 178 139.5 264t423.5 86h156v68q0 133 -61 197.5t-212 64.5q-197 0 -350 -117l-29 123q148 115 389 115q209 0 303.5 -95.5t94.5 -273.5v-731h-125zM494 94q117 0 207 58.5t137 150.5v238h-146q-225 0 -330.5 -57.5t-105.5 -182.5
q0 -99 64 -153t174 -54z" />
    <glyph glyph-name="adieresis" unicode="&#xe4;" horiz-adv-x="1148" 
d="M707 1321v180h161v-180h-161zM295 1321v180h162v-180h-162zM848 0l-2 164q-65 -88 -160 -138.5t-215 -50.5q-158 0 -255 85.5t-97 238.5q0 178 139.5 264t423.5 86h156v68q0 133 -61 197.5t-212 64.5q-197 0 -350 -117l-29 123q148 115 389 115q209 0 303.5 -95.5
t94.5 -273.5v-731h-125zM494 94q117 0 207 58.5t137 150.5v238h-146q-225 0 -330.5 -57.5t-105.5 -182.5q0 -99 64 -153t174 -54z" />
    <glyph glyph-name="aring" unicode="&#xe5;" horiz-adv-x="1148" 
d="M582 1204q-104 0 -174 69t-70 169t70 167.5t174 67.5t173.5 -67.5t69.5 -167.5t-69.5 -169t-173.5 -69zM582 1294q67 0 108 41t41 107q0 65 -41 105t-108 40t-108.5 -40t-41.5 -105q0 -66 41.5 -107t108.5 -41zM848 0l-2 164q-65 -88 -160 -138.5t-215 -50.5
q-158 0 -255 85.5t-97 238.5q0 178 139.5 264t423.5 86h156v68q0 133 -61 197.5t-212 64.5q-197 0 -350 -117l-29 123q148 115 389 115q209 0 303.5 -95.5t94.5 -273.5v-731h-125zM494 94q117 0 207 58.5t137 150.5v238h-146q-225 0 -330.5 -57.5t-105.5 -182.5
q0 -99 64 -153t174 -54z" />
    <glyph glyph-name="ae" unicode="&#xe6;" horiz-adv-x="1880" 
d="M1749 102q-157 -127 -395 -127q-319 0 -443 236q-152 -236 -432 -236q-170 0 -266 84.5t-96 233.5q0 167 135 252.5t428 85.5h158v86q0 132 -62 197t-213 65q-200 0 -350 -117l-29 123q148 115 387 115q297 0 359 -223q59 107 161 165t236 58q115 0 202 -41t137 -113
t74.5 -159t24.5 -189v-74h-800v-6q0 -204 102.5 -313t300.5 -109q112 0 195 33t157 96zM1323 985q-144 0 -240.5 -92t-113.5 -262h663v14q0 67 -17 125.5t-52.5 108t-97 78t-142.5 28.5zM494 94q127 0 222 64.5t142 175.5q-20 95 -20 190h-148q-236 0 -336 -55t-100 -172
q0 -97 62.5 -150t177.5 -53z" />
    <glyph glyph-name="ccedilla" unicode="&#xe7;" horiz-adv-x="1069" 
d="M809 -291q0 -89 -62.5 -142.5t-189.5 -53.5q-106 0 -192 36l26 103q73 -39 176 -39q129 0 129 94q0 42 -42.5 70t-170.5 57l60 148q-202 25 -319.5 169.5t-117.5 380.5q0 264 144.5 416t384.5 152q208 0 336 -121l-37 -123q-116 123 -301 123q-183 0 -285 -118t-102 -324
t103 -323.5t290 -117.5q181 0 315 127l29 -123q-135 -125 -354 -125l-35 -73q128 -38 171.5 -84t43.5 -109z" />
    <glyph glyph-name="egrave" unicode="&#xe8;" horiz-adv-x="1165" 
d="M649 1212l-303 390l131 71l250 -418zM1034 102q-157 -127 -399 -127q-255 0 -392 146.5t-137 404.5q0 263 133.5 418.5t366.5 155.5q95 0 171 -27.5t126.5 -74.5t84.5 -112.5t48.5 -137t14.5 -152.5v-76h-807q0 -206 103 -315t304 -109q112 0 195.5 33t159.5 96zM606 985
q-147 0 -245 -93t-115 -265h672v18q0 67 -17.5 125.5t-53 108t-97.5 78t-144 28.5z" />
    <glyph glyph-name="eacute" unicode="&#xe9;" horiz-adv-x="1165" 
d="M555 1212l-78 43l250 418l131 -71zM1034 102q-157 -127 -399 -127q-255 0 -392 146.5t-137 404.5q0 263 133.5 418.5t366.5 155.5q95 0 171 -27.5t126.5 -74.5t84.5 -112.5t48.5 -137t14.5 -152.5v-76h-807q0 -206 103 -315t304 -109q112 0 195.5 33t159.5 96zM606 985
q-147 0 -245 -93t-115 -265h672v18q0 67 -17.5 125.5t-53 108t-97.5 78t-144 28.5z" />
    <glyph glyph-name="ecircumflex" unicode="&#xea;" horiz-adv-x="1165" 
d="M928 1251l-115 -32l-211 335l-211 -335l-115 32l275 406h102zM1034 102q-157 -127 -399 -127q-255 0 -392 146.5t-137 404.5q0 263 133.5 418.5t366.5 155.5q95 0 171 -27.5t126.5 -74.5t84.5 -112.5t48.5 -137t14.5 -152.5v-76h-807q0 -206 103 -315t304 -109
q112 0 195.5 33t159.5 96zM606 985q-147 0 -245 -93t-115 -265h672v18q0 67 -17.5 125.5t-53 108t-97.5 78t-144 28.5z" />
    <glyph glyph-name="edieresis" unicode="&#xeb;" horiz-adv-x="1165" 
d="M727 1321v180h162v-180h-162zM315 1321v180h162v-180h-162zM1034 102q-157 -127 -399 -127q-255 0 -392 146.5t-137 404.5q0 263 133.5 418.5t366.5 155.5q95 0 171 -27.5t126.5 -74.5t84.5 -112.5t48.5 -137t14.5 -152.5v-76h-807q0 -206 103 -315t304 -109
q112 0 195.5 33t159.5 96zM606 985q-147 0 -245 -93t-115 -265h672v18q0 67 -17.5 125.5t-53 108t-97.5 78t-144 28.5z" />
    <glyph glyph-name="igrave" unicode="&#xec;" horiz-adv-x="520" 
d="M307 1212l-303 390l131 71l250 -418zM193 0v1075h135v-1075h-135z" />
    <glyph glyph-name="iacute" unicode="&#xed;" horiz-adv-x="520" 
d="M213 1212l-78 43l250 418l131 -71zM193 0v1075h135v-1075h-135z" />
    <glyph glyph-name="icircumflex" unicode="&#xee;" horiz-adv-x="520" 
d="M549 1253l-111 -34l-178 335l-178 -335l-111 34l238 406h102zM193 0v1075h135v-1075h-135z" />
    <glyph glyph-name="idieresis" unicode="&#xef;" horiz-adv-x="520" 
d="M362 1321v180h160v-180h-160zM0 1321v180h158v-180h-158zM193 0v1075h135v-1075h-135z" />
    <glyph glyph-name="eth" unicode="&#xf0;" horiz-adv-x="1222" 
d="M1108 573q0 -126 -26 -227t-72 -169.5t-109.5 -114.5t-136.5 -66.5t-156 -20.5q-123 0 -220.5 44.5t-158 121t-92 174.5t-31.5 209q0 244 138 390.5t352 146.5q202 0 334 -154q-73 205 -246 387l-262 -131l-55 76l247 125q-114 106 -258 201l133 55q132 -95 238 -201
l266 133l56 -73l-256 -129q315 -348 315 -777zM246 526q0 -199 96.5 -315.5t267.5 -116.5q166 0 264.5 116.5t98.5 360.5q0 70 -10 148q-109 223 -349 223q-170 0 -269 -107t-99 -309z" />
    <glyph glyph-name="ntilde" unicode="&#xf1;" horiz-adv-x="1226" 
d="M346 1262l-102 10q0 139 55.5 206.5t144.5 67.5q90 0 195 -82q50 -39 82 -57t67 -18q103 0 103 172l102 -11q0 -138 -55.5 -206t-144.5 -68q-90 0 -195 82q-51 41 -82.5 58.5t-66.5 17.5q-103 0 -103 -172zM322 737v-737h-136v1075h125l2 -188q147 213 383 213
q166 0 259.5 -102t93.5 -291v-707h-136v680q0 295 -245 295q-115 0 -206.5 -65t-139.5 -173z" />
    <glyph glyph-name="ograve" unicode="&#xf2;" horiz-adv-x="1222" 
d="M659 1212l-303 390l131 71l250 -418zM612 -25q-222 0 -364 151t-142 411t142 411.5t364 151.5q144 0 257.5 -66t180 -195t66.5 -302q0 -130 -38.5 -236.5t-106 -177.5t-159.5 -109.5t-200 -38.5zM612 94q167 0 266 120t99 323q0 204 -98.5 323t-266.5 119
q-169 0 -267.5 -119t-98.5 -323q0 -203 99 -323t267 -120z" />
    <glyph glyph-name="oacute" unicode="&#xf3;" horiz-adv-x="1222" 
d="M565 1212l-78 43l250 418l131 -71zM612 -25q-222 0 -364 151t-142 411t142 411.5t364 151.5q144 0 257.5 -66t180 -195t66.5 -302q0 -130 -38.5 -236.5t-106 -177.5t-159.5 -109.5t-200 -38.5zM612 94q167 0 266 120t99 323q0 204 -98.5 323t-266.5 119
q-169 0 -267.5 -119t-98.5 -323q0 -203 99 -323t267 -120z" />
    <glyph glyph-name="ocircumflex" unicode="&#xf4;" horiz-adv-x="1222" 
d="M938 1251l-115 -32l-211 335l-211 -335l-114 32l274 406h103zM612 -25q-222 0 -364 151t-142 411t142 411.5t364 151.5q144 0 257.5 -66t180 -195t66.5 -302q0 -130 -38.5 -236.5t-106 -177.5t-159.5 -109.5t-200 -38.5zM612 94q167 0 266 120t99 323q0 204 -98.5 323
t-266.5 119q-169 0 -267.5 -119t-98.5 -323q0 -203 99 -323t267 -120z" />
    <glyph glyph-name="otilde" unicode="&#xf5;" horiz-adv-x="1222" 
d="M340 1262l-102 10q0 139 55.5 206.5t144.5 67.5q90 0 195 -82q50 -39 82 -57t67 -18q103 0 103 172l102 -11q0 -138 -56 -206t-145 -68q-54 0 -99 21.5t-95 60.5q-51 40 -83 58t-67 18q-102 0 -102 -172zM612 -25q-222 0 -364 151t-142 411t142 411.5t364 151.5
q144 0 257.5 -66t180 -195t66.5 -302q0 -130 -38.5 -236.5t-106 -177.5t-159.5 -109.5t-200 -38.5zM612 94q167 0 266 120t99 323q0 204 -98.5 323t-266.5 119q-169 0 -267.5 -119t-98.5 -323q0 -203 99 -323t267 -120z" />
    <glyph glyph-name="odieresis" unicode="&#xf6;" horiz-adv-x="1222" 
d="M737 1321v180h162v-180h-162zM326 1321v180h161v-180h-161zM612 -25q-222 0 -364 151t-142 411t142 411.5t364 151.5q144 0 257.5 -66t180 -195t66.5 -302q0 -130 -38.5 -236.5t-106 -177.5t-159.5 -109.5t-200 -38.5zM612 94q167 0 266 120t99 323q0 204 -98.5 323
t-266.5 119q-169 0 -267.5 -119t-98.5 -323q0 -203 99 -323t267 -120z" />
    <glyph glyph-name="divide" unicode="&#xf7;" 
d="M535 1069q0 44 33 77.5t77 33.5t77.5 -33.5t33.5 -77.5t-33.5 -77.5t-77.5 -33.5t-77 33.5t-33 77.5zM127 555v115h1036v-115h-1036zM535 156q0 44 33 77t77 33t77.5 -33t33.5 -77t-33.5 -77.5t-77.5 -33.5t-77 33.5t-33 77.5z" />
    <glyph glyph-name="oslash" unicode="&#xf8;" horiz-adv-x="1222" 
d="M612 -25q-162 0 -284 84l-125 -174l-86 41l137 193q-148 154 -148 418q0 260 142 411.5t364 151.5q161 0 283 -84l125 174l86 -41l-139 -193q149 -155 149 -419q0 -130 -38.5 -236.5t-106 -177.5t-159.5 -109.5t-200 -38.5zM246 537q0 -191 88 -308l489 684
q-87 66 -211 66q-169 0 -267.5 -119t-98.5 -323zM977 537q0 192 -88 309l-490 -684q86 -68 213 -68q167 0 266 120t99 323z" />
    <glyph glyph-name="ugrave" unicode="&#xf9;" horiz-adv-x="1226" 
d="M657 1212l-303 390l131 71l250 -418zM915 0l-2 186q-136 -211 -376 -211q-167 0 -263 103t-96 291v706h135v-680q0 -149 66 -222t186 -73q68 0 127 23t100.5 61t69 78t43.5 82v731h135v-1075h-125z" />
    <glyph glyph-name="uacute" unicode="&#xfa;" horiz-adv-x="1226" 
d="M563 1212l-78 43l250 418l131 -71zM915 0l-2 186q-136 -211 -376 -211q-167 0 -263 103t-96 291v706h135v-680q0 -149 66 -222t186 -73q68 0 127 23t100.5 61t69 78t43.5 82v731h135v-1075h-125z" />
    <glyph glyph-name="ucircumflex" unicode="&#xfb;" horiz-adv-x="1226" 
d="M936 1251l-115 -32l-211 335l-211 -335l-114 32l274 406h103zM915 0l-2 186q-136 -211 -376 -211q-167 0 -263 103t-96 291v706h135v-680q0 -149 66 -222t186 -73q68 0 127 23t100.5 61t69 78t43.5 82v731h135v-1075h-125z" />
    <glyph glyph-name="udieresis" unicode="&#xfc;" horiz-adv-x="1226" 
d="M735 1321v180h162v-180h-162zM324 1321v180h161v-180h-161zM915 0l-2 186q-136 -211 -376 -211q-167 0 -263 103t-96 291v706h135v-680q0 -149 66 -222t186 -73q68 0 127 23t100.5 61t69 78t43.5 82v731h135v-1075h-125z" />
    <glyph glyph-name="yacute" unicode="&#xfd;" horiz-adv-x="1083" 
d="M500 1212l-78 43l250 418l131 -71zM616 6q-59 -151 -108.5 -245.5t-99.5 -145.5t-96 -68.5t-109 -17.5q-75 0 -137 25l12 131q60 -29 127 -29q54 0 94 28.5t82.5 101t99.5 212.5l-420 1077h152l338 -925l338 925h143z" />
    <glyph glyph-name="thorn" unicode="&#xfe;" horiz-adv-x="1273" 
d="M655 -25q-202 0 -333 140v-570h-136v2048h136v-682q156 189 380 189q205 0 334 -147t129 -400q0 -266 -141 -422t-369 -156zM322 244q55 -71 137.5 -110.5t181.5 -39.5q174 0 279.5 120t105.5 333q0 205 -95.5 316.5t-252.5 111.5q-115 0 -208.5 -58t-147.5 -151v-522z
" />
    <glyph glyph-name="ydieresis" unicode="&#xff;" horiz-adv-x="1083" 
d="M672 1321v180h162v-180h-162zM260 1321v180h162v-180h-162zM616 6q-59 -151 -108.5 -245.5t-99.5 -145.5t-96 -68.5t-109 -17.5q-75 0 -137 25l12 131q60 -29 127 -29q54 0 94 28.5t82.5 101t99.5 212.5l-420 1077h152l338 -925l338 925h143z" />
    <glyph glyph-name="Amacron" unicode="&#x100;" horiz-adv-x="1411" 
d="M360 1753v113h693v-113h-693zM1208 0l-168 453h-673l-168 -453h-146l578 1520h149l578 -1520h-150zM414 575h579l-288 781z" />
    <glyph glyph-name="amacron" unicode="&#x101;" horiz-adv-x="1148" 
d="M268 1356v114h627v-114h-627zM848 0l-2 164q-65 -88 -160 -138.5t-215 -50.5q-158 0 -255 85.5t-97 238.5q0 178 139.5 264t423.5 86h156v68q0 133 -61 197.5t-212 64.5q-197 0 -350 -117l-29 123q148 115 389 115q209 0 303.5 -95.5t94.5 -273.5v-731h-125zM494 94
q117 0 207 58.5t137 150.5v238h-146q-225 0 -330.5 -57.5t-105.5 -182.5q0 -99 64 -153t174 -54z" />
    <glyph glyph-name="Abreve" unicode="&#x102;" horiz-adv-x="1411" 
d="M379 1968l104 8q9 -110 68 -164.5t156 -54.5t155.5 54t67.5 165l104 -8q-6 -153 -96.5 -236t-230.5 -83t-231 83t-97 236zM1208 0l-168 453h-673l-168 -453h-146l578 1520h149l578 -1520h-150zM414 575h579l-288 781z" />
    <glyph glyph-name="abreve" unicode="&#x103;" horiz-adv-x="1148" 
d="M254 1587l104 8q6 -128 66 -191t158 -63t157.5 62.5t65.5 191.5l104 -8q-6 -171 -96 -262.5t-231 -91.5t-231.5 91.5t-96.5 262.5zM848 0l-2 164q-65 -88 -160 -138.5t-215 -50.5q-158 0 -255 85.5t-97 238.5q0 178 139.5 264t423.5 86h156v68q0 133 -61 197.5t-212 64.5
q-197 0 -350 -117l-29 123q148 115 389 115q209 0 303.5 -95.5t94.5 -273.5v-731h-125zM494 94q117 0 207 58.5t137 150.5v238h-146q-225 0 -330.5 -57.5t-105.5 -182.5q0 -99 64 -153t174 -54z" />
    <glyph glyph-name="Aogonek" unicode="&#x104;" horiz-adv-x="1411" 
d="M1391 -432q-80 -55 -187 -55q-100 0 -155.5 53.5t-55.5 142.5q0 84 52.5 155t160.5 142l-166 447h-673l-168 -453h-146l578 1520h149l578 -1520q-250 -119 -250 -262q0 -53 31 -85t94 -32q75 0 133 49zM414 575h579l-288 781z" />
    <glyph glyph-name="aogonek" unicode="&#x105;" horiz-adv-x="1148" 
d="M1004 -432q-80 -55 -187 -55q-100 0 -155.5 53.5t-55.5 142.5q0 87 58.5 162.5t183.5 148.5l-2 144q-65 -88 -160 -138.5t-215 -50.5q-158 0 -255 85.5t-97 238.5q0 178 139.5 264t423.5 86h156v68q0 133 -61 197.5t-212 64.5q-197 0 -350 -117l-29 123q148 115 389 115
q209 0 303.5 -95.5t94.5 -273.5v-731q-252 -121 -252 -262q0 -53 31 -85t94 -32q75 0 133 49zM494 94q117 0 207 58.5t137 150.5v238h-146q-225 0 -330.5 -57.5t-105.5 -182.5q0 -99 64 -153t174 -54z" />
    <glyph glyph-name="Cacute" unicode="&#x106;" horiz-adv-x="1419" 
d="M725 1638l-72 52l334 317l125 -90zM1323 150q-85 -80 -210.5 -129.5t-281.5 -49.5q-322 0 -514 210.5t-192 578.5q0 186 52 335t145.5 248.5t225 152t290.5 52.5q281 0 465 -162l-46 -137q-175 170 -421 170q-265 0 -414.5 -174.5t-149.5 -482.5q0 -317 156.5 -489.5
t409.5 -172.5q263 0 448 185z" />
    <glyph glyph-name="cacute" unicode="&#x107;" horiz-adv-x="1069" 
d="M541 1212l-78 43l250 418l131 -71zM983 100q-135 -125 -354 -125q-239 0 -381 148t-142 409q0 264 144.5 416t384.5 152q208 0 336 -121l-37 -123q-116 123 -301 123q-183 0 -285 -118t-102 -324t103 -323.5t290 -117.5q181 0 315 127z" />
    <glyph glyph-name="Ccircumflex" unicode="&#x108;" horiz-adv-x="1419" 
d="M1159 1679l-121 -32l-225 247l-225 -247l-121 32l295 308h102zM1323 150q-85 -80 -210.5 -129.5t-281.5 -49.5q-322 0 -514 210.5t-192 578.5q0 186 52 335t145.5 248.5t225 152t290.5 52.5q281 0 465 -162l-46 -137q-175 170 -421 170q-265 0 -414.5 -174.5
t-149.5 -482.5q0 -317 156.5 -489.5t409.5 -172.5q263 0 448 185z" />
    <glyph glyph-name="ccircumflex" unicode="&#x109;" horiz-adv-x="1069" 
d="M934 1251l-115 -32l-211 335l-211 -335l-114 32l274 406h102zM983 100q-135 -125 -354 -125q-239 0 -381 148t-142 409q0 264 144.5 416t384.5 152q208 0 336 -121l-37 -123q-116 123 -301 123q-183 0 -285 -118t-102 -324t103 -323.5t290 -117.5q181 0 315 127z" />
    <glyph glyph-name="Cdotaccent" unicode="&#x10a;" horiz-adv-x="1419" 
d="M729 1720v178h168v-178h-168zM1323 150q-85 -80 -210.5 -129.5t-281.5 -49.5q-322 0 -514 210.5t-192 578.5q0 186 52 335t145.5 248.5t225 152t290.5 52.5q281 0 465 -162l-46 -137q-175 170 -421 170q-265 0 -414.5 -174.5t-149.5 -482.5q0 -317 156.5 -489.5
t409.5 -172.5q263 0 448 185z" />
    <glyph glyph-name="cdotaccent" unicode="&#x10b;" horiz-adv-x="1069" 
d="M514 1321v180h168v-180h-168zM983 100q-135 -125 -354 -125q-239 0 -381 148t-142 409q0 264 144.5 416t384.5 152q208 0 336 -121l-37 -123q-116 123 -301 123q-183 0 -285 -118t-102 -324t103 -323.5t290 -117.5q181 0 315 127z" />
    <glyph glyph-name="Ccaron" unicode="&#x10c;" horiz-adv-x="1419" 
d="M1159 1962l-295 -307h-102l-295 307l121 33l225 -248l225 248zM1323 150q-85 -80 -210.5 -129.5t-281.5 -49.5q-322 0 -514 210.5t-192 578.5q0 186 52 335t145.5 248.5t225 152t290.5 52.5q281 0 465 -162l-46 -137q-175 170 -421 170q-265 0 -414.5 -174.5
t-149.5 -482.5q0 -317 156.5 -489.5t409.5 -172.5q263 0 448 185z" />
    <glyph glyph-name="ccaron" unicode="&#x10d;" horiz-adv-x="1069" 
d="M924 1622l-275 -393h-102l-275 393l115 35l211 -328l211 328zM983 100q-135 -125 -354 -125q-239 0 -381 148t-142 409q0 264 144.5 416t384.5 152q208 0 336 -121l-37 -123q-116 123 -301 123q-183 0 -285 -118t-102 -324t103 -323.5t290 -117.5q181 0 315 127z" />
    <glyph glyph-name="Dcaron" unicode="&#x10e;" horiz-adv-x="1529" 
d="M1053 1962l-295 -307h-103l-295 307l121 33l226 -248l225 248zM1405 758q0 -191 -53.5 -336.5t-153 -237.5t-238 -138t-313.5 -46h-432v1520h428q162 0 290.5 -38t216 -105t145.5 -163.5t84 -209.5t26 -246zM639 1395h-283v-1270h291q294 0 452 156t158 477
q0 141 -33 253t-103.5 200t-192.5 136t-289 48z" />
    <glyph glyph-name="dcaron" unicode="&#x10f;" horiz-adv-x="1318" 
d="M1350 1174h-93l58 475h141zM965 0l-4 160q-138 -185 -369 -185q-215 0 -349 149t-134 406q0 259 140 414.5t372 155.5q110 0 188.5 -36.5t142.5 -107.5v637h135v-1593h-122zM248 532q0 -209 100.5 -320.5t265.5 -111.5q119 0 206.5 55.5t131.5 145.5v518
q-112 160 -317 160q-179 0 -283 -118.5t-104 -328.5z" />
    <glyph glyph-name="Dcroat" unicode="&#x110;" horiz-adv-x="1548" 
d="M1423 758q0 -378 -200.5 -568t-556.5 -190h-433v748h-184v114h184v658h429q162 0 290.5 -38t216 -105t145 -163.5t83.5 -209.5t26 -246zM788 748h-413v-623h291q294 0 452 156t158 477q0 141 -33 253t-104 200t-193 136t-289 48h-282v-533h413v-114z" />
    <glyph glyph-name="dcroat" unicode="&#x111;" horiz-adv-x="1280" 
d="M965 0l-4 160q-138 -185 -369 -185q-215 0 -349 149t-134 406q0 259 140 414.5t372 155.5q110 0 188.5 -36.5t142.5 -107.5v312h-315v100h315v244h135v-244h160v-100h-160v-1268h-122zM248 532q0 -209 100.5 -320.5t265.5 -111.5q119 0 206.5 55.5t131.5 145.5v518
q-112 160 -317 160q-179 0 -283 -118.5t-104 -328.5z" />
    <glyph glyph-name="Emacron" unicode="&#x112;" horiz-adv-x="1273" 
d="M328 1753v113h692v-113h-692zM1147 127v-127h-932v1520h915v-125h-774v-527h693v-127h-693v-614h791z" />
    <glyph glyph-name="emacron" unicode="&#x113;" horiz-adv-x="1165" 
d="M289 1356v114h626v-114h-626zM1034 102q-157 -127 -399 -127q-255 0 -392 146.5t-137 404.5q0 263 133.5 418.5t366.5 155.5q95 0 171 -27.5t126.5 -74.5t84.5 -112.5t48.5 -137t14.5 -152.5v-76h-807q0 -206 103 -315t304 -109q112 0 195.5 33t159.5 96zM606 985
q-147 0 -245 -93t-115 -265h672v18q0 67 -17.5 125.5t-53 108t-97.5 78t-144 28.5z" />
    <glyph glyph-name="Ebreve" unicode="&#x114;" horiz-adv-x="1273" 
d="M346 1968l105 8q9 -111 67.5 -165t155.5 -54t155.5 54t67.5 165l104 -8q-6 -153 -96.5 -236t-230.5 -83t-231 83t-97 236zM1147 127v-127h-932v1520h915v-125h-774v-527h693v-127h-693v-614h791z" />
    <glyph glyph-name="ebreve" unicode="&#x115;" horiz-adv-x="1165" 
d="M274 1587l105 8q6 -129 65.5 -191.5t157.5 -62.5t157.5 62.5t65.5 191.5l105 -8q-6 -171 -96.5 -262.5t-231.5 -91.5t-231.5 91.5t-96.5 262.5zM1034 102q-157 -127 -399 -127q-255 0 -392 146.5t-137 404.5q0 263 133.5 418.5t366.5 155.5q95 0 171 -27.5t126.5 -74.5
t84.5 -112.5t48.5 -137t14.5 -152.5v-76h-807q0 -206 103 -315t304 -109q112 0 195.5 33t159.5 96zM606 985q-147 0 -245 -93t-115 -265h672v18q0 67 -17.5 125.5t-53 108t-97.5 78t-144 28.5z" />
    <glyph glyph-name="Edotaccent" unicode="&#x116;" horiz-adv-x="1273" 
d="M590 1720v178h168v-178h-168zM1147 127v-127h-932v1520h915v-125h-774v-527h693v-127h-693v-614h791z" />
    <glyph glyph-name="edotaccent" unicode="&#x117;" horiz-adv-x="1165" 
d="M518 1321v180h168v-180h-168zM1034 102q-157 -127 -399 -127q-255 0 -392 146.5t-137 404.5q0 263 133.5 418.5t366.5 155.5q95 0 171 -27.5t126.5 -74.5t84.5 -112.5t48.5 -137t14.5 -152.5v-76h-807q0 -206 103 -315t304 -109q112 0 195.5 33t159.5 96zM606 985
q-147 0 -245 -93t-115 -265h672v18q0 67 -17.5 125.5t-53 108t-97.5 78t-144 28.5z" />
    <glyph glyph-name="Eogonek" unicode="&#x118;" horiz-adv-x="1273" 
d="M727 -291q0 160 203 291h-715v1520h915v-125h-774v-527h693v-127h-693v-614h791v-127h-74q-231 -108 -231 -260q0 -53 31 -86t94 -33q75 0 133 49l24 -102q-76 -55 -186 -55q-100 0 -155.5 53.5t-55.5 142.5z" />
    <glyph glyph-name="eogonek" unicode="&#x119;" horiz-adv-x="1165" 
d="M961 -432q-80 -55 -187 -55q-100 0 -155.5 53.5t-55.5 142.5q0 146 156 271q-67 -5 -84 -5q-255 0 -392 146.5t-137 404.5q0 263 133.5 418.5t366.5 155.5q95 0 171 -27.5t126.5 -74.5t84.5 -112.5t48.5 -137t14.5 -152.5v-76h-807q0 -206 103 -315t304 -109
q112 0 195.5 33t159.5 96l28 -123q-54 -43 -114 -69q-121 -73 -181.5 -144.5t-60.5 -148.5q0 -53 31 -86t94 -33q75 0 133 49zM606 985q-147 0 -245 -93t-115 -265h672v18q0 67 -17.5 125.5t-53 108t-97.5 78t-144 28.5z" />
    <glyph glyph-name="Ecaron" unicode="&#x11a;" horiz-adv-x="1273" 
d="M1020 1962l-295 -307h-102l-295 307l121 33l225 -248l225 248zM1147 127v-127h-932v1520h915v-125h-774v-527h693v-127h-693v-614h791z" />
    <glyph glyph-name="ecaron" unicode="&#x11b;" horiz-adv-x="1165" 
d="M928 1622l-275 -393h-102l-275 393l115 35l211 -328l211 328zM1034 102q-157 -127 -399 -127q-255 0 -392 146.5t-137 404.5q0 263 133.5 418.5t366.5 155.5q95 0 171 -27.5t126.5 -74.5t84.5 -112.5t48.5 -137t14.5 -152.5v-76h-807q0 -206 103 -315t304 -109
q112 0 195.5 33t159.5 96zM606 985q-147 0 -245 -93t-115 -265h672v18q0 67 -17.5 125.5t-53 108t-97.5 78t-144 28.5z" />
    <glyph glyph-name="Gcircumflex" unicode="&#x11c;" horiz-adv-x="1558" 
d="M1171 1679l-120 -32l-226 247l-225 -247l-121 32l295 308h103zM1386 141q-88 -74 -229 -122t-307 -48q-338 0 -531.5 209t-193.5 580q0 374 196.5 581t538.5 207q156 0 283 -44t213 -118l-45 -137q-181 170 -453 170q-286 0 -436 -174t-150 -485q0 -320 155.5 -490
t438.5 -170q220 0 387 99v467h-442v125h575v-650z" />
    <glyph glyph-name="gcircumflex" unicode="&#x11d;" horiz-adv-x="1187" 
d="M905 1251l-114 -32l-211 335l-211 -335l-115 32l274 406h103zM1098 -141q0 -160 -143 -253t-404 -93q-248 0 -369 82.5t-121 214.5q0 89 56 158t170 100q-99 46 -99 155q0 131 144 180q-88 47 -137.5 129.5t-49.5 192.5q0 175 119 275t305 100q130 0 232 -51l329 45h9
v-129h-232q84 -97 84 -240q0 -176 -118.5 -276.5t-303.5 -100.5q-72 0 -127 14q-61 -3 -97 -32.5t-36 -79.5q0 -45 31.5 -76t105.5 -35l326 -16q164 -9 245 -78t81 -186zM569 459q134 0 211.5 70t77.5 194t-78 195t-213 71q-134 0 -211 -70t-77 -194q0 -123 77.5 -194.5
t212.5 -71.5zM193 -168q0 -97 90.5 -151t277.5 -54q195 0 299.5 57.5t104.5 163.5q0 70 -53.5 109t-172.5 45l-370 18q-83 -17 -129.5 -66.5t-46.5 -121.5z" />
    <glyph glyph-name="Gbreve" unicode="&#x11e;" horiz-adv-x="1558" 
d="M498 1968l104 8q9 -111 67.5 -165t155.5 -54t156 54.5t68 164.5l104 -8q-6 -153 -97 -236t-231 -83t-230.5 83t-96.5 236zM1386 141q-88 -74 -229 -122t-307 -48q-338 0 -531.5 209t-193.5 580q0 374 196.5 581t538.5 207q156 0 283 -44t213 -118l-45 -137
q-181 170 -453 170q-286 0 -436 -174t-150 -485q0 -320 155.5 -490t438.5 -170q220 0 387 99v467h-442v125h575v-650z" />
    <glyph glyph-name="gbreve" unicode="&#x11f;" horiz-adv-x="1187" 
d="M252 1587l104 8q6 -128 66 -191t158 -63t157.5 62.5t65.5 191.5l104 -8q-6 -171 -96 -262.5t-231 -91.5t-231.5 91.5t-96.5 262.5zM1098 -141q0 -160 -143 -253t-404 -93q-248 0 -369 82.5t-121 214.5q0 89 56 158t170 100q-99 46 -99 155q0 131 144 180
q-88 47 -137.5 129.5t-49.5 192.5q0 175 119 275t305 100q130 0 232 -51l329 45h9v-129h-232q84 -97 84 -240q0 -176 -118.5 -276.5t-303.5 -100.5q-72 0 -127 14q-61 -3 -97 -32.5t-36 -79.5q0 -45 31.5 -76t105.5 -35l326 -16q164 -9 245 -78t81 -186zM569 459
q134 0 211.5 70t77.5 194t-78 195t-213 71q-134 0 -211 -70t-77 -194q0 -123 77.5 -194.5t212.5 -71.5zM193 -168q0 -97 90.5 -151t277.5 -54q195 0 299.5 57.5t104.5 163.5q0 70 -53.5 109t-172.5 45l-370 18q-83 -17 -129.5 -66.5t-46.5 -121.5z" />
    <glyph glyph-name="Gdotaccent" unicode="&#x120;" horiz-adv-x="1558" 
d="M741 1720v178h168v-178h-168zM1386 141q-88 -74 -229 -122t-307 -48q-338 0 -531.5 209t-193.5 580q0 374 196.5 581t538.5 207q156 0 283 -44t213 -118l-45 -137q-181 170 -453 170q-286 0 -436 -174t-150 -485q0 -320 155.5 -490t438.5 -170q220 0 387 99v467h-442v125
h575v-650z" />
    <glyph glyph-name="gdotaccent" unicode="&#x121;" horiz-adv-x="1187" 
d="M492 1321v180h167v-180h-167zM1098 -141q0 -160 -143 -253t-404 -93q-248 0 -369 82.5t-121 214.5q0 89 56 158t170 100q-99 46 -99 155q0 131 144 180q-88 47 -137.5 129.5t-49.5 192.5q0 175 119 275t305 100q130 0 232 -51l329 45h9v-129h-232q84 -97 84 -240
q0 -176 -118.5 -276.5t-303.5 -100.5q-72 0 -127 14q-61 -3 -97 -32.5t-36 -79.5q0 -45 31.5 -76t105.5 -35l326 -16q164 -9 245 -78t81 -186zM569 459q134 0 211.5 70t77.5 194t-78 195t-213 71q-134 0 -211 -70t-77 -194q0 -123 77.5 -194.5t212.5 -71.5zM193 -168
q0 -97 90.5 -151t277.5 -54q195 0 299.5 57.5t104.5 163.5q0 70 -53.5 109t-172.5 45l-370 18q-83 -17 -129.5 -66.5t-46.5 -121.5z" />
    <glyph glyph-name="uni0122" unicode="&#x122;" horiz-adv-x="1558" 
d="M1386 141q-88 -74 -229 -122t-307 -48q-338 0 -531.5 209t-193.5 580q0 374 196.5 581t538.5 207q156 0 283 -44t213 -118l-45 -137q-181 170 -453 170q-286 0 -436 -174t-150 -485q0 -320 155.5 -490t438.5 -170q220 0 387 99v467h-442v125h575v-650zM811 -494l-111 15
q101 143 101 303q0 27 -2 43h131q4 -28 4 -51q0 -169 -123 -310z" />
    <glyph glyph-name="uni0123" unicode="&#x123;" horiz-adv-x="1187" 
d="M606 1634l111 -14q-86 -128 -86 -283q0 -39 4 -63h-131q-6 30 -6 67q0 162 108 293zM1098 -141q0 -160 -143 -253t-404 -93q-248 0 -369 82.5t-121 214.5q0 89 56 158t170 100q-99 46 -99 155q0 131 144 180q-88 47 -137.5 129.5t-49.5 192.5q0 175 119 275t305 100
q130 0 232 -51l329 45h9v-129h-232q84 -97 84 -240q0 -176 -118.5 -276.5t-303.5 -100.5q-72 0 -127 14q-61 -3 -97 -32.5t-36 -79.5q0 -45 31.5 -76t105.5 -35l326 -16q164 -9 245 -78t81 -186zM569 459q134 0 211.5 70t77.5 194t-78 195t-213 71q-134 0 -211 -70t-77 -194
q0 -123 77.5 -194.5t212.5 -71.5zM193 -168q0 -97 90.5 -151t277.5 -54q195 0 299.5 57.5t104.5 163.5q0 70 -53.5 109t-172.5 45l-370 18q-83 -17 -129.5 -66.5t-46.5 -121.5z" />
    <glyph glyph-name="Hcircumflex" unicode="&#x124;" horiz-adv-x="1536" 
d="M1114 1679l-121 -32l-225 247l-225 -247l-121 32l295 308h102zM1182 0v741h-826v-741h-141v1520h141v-652h826v652h139v-1520h-139z" />
    <glyph glyph-name="hcircumflex" unicode="&#x125;" horiz-adv-x="1226" 
d="M950 1679l-121 -32l-225 247l-225 -247l-121 32l295 308h102zM322 737v-737h-136v1593h136v-694q144 201 374 201q166 0 259.5 -102t93.5 -291v-707h-136v680q0 295 -245 295q-115 0 -206.5 -65t-139.5 -173z" />
    <glyph glyph-name="Hbar" unicode="&#x126;" horiz-adv-x="1550" 
d="M1188 0v741h-826v-741h-141v1143h-162v104h162v273h141v-273h826v273h139v-273h166v-104h-166v-1143h-139zM362 868h826v275h-826v-275z" />
    <glyph glyph-name="hbar" unicode="&#x127;" horiz-adv-x="1230" 
d="M326 737v-737h-136v1268h-159v100h159v244h136v-244h319v-100h-319v-369q144 201 374 201q166 0 260.5 -102.5t94.5 -290.5v-707h-135v680q0 149 -64 222t-182 73q-116 0 -208 -65t-140 -173z" />
    <glyph glyph-name="Itilde" unicode="&#x128;" horiz-adv-x="571" 
d="M-2 1659l-102 10q0 139 58.5 207t151.5 68q91 0 201 -82q53 -39 87.5 -56.5t72.5 -17.5q108 0 108 170l103 -8q0 -139 -59 -208t-152 -69q-38 0 -77.5 14t-63 28.5t-60.5 41.5q-39 27 -58.5 39.5t-47.5 23.5t-54 11q-108 0 -108 -172zM215 0v1520h141v-1520h-141z" />
    <glyph glyph-name="itilde" unicode="&#x129;" horiz-adv-x="520" 
d="M23 1262l-103 10q0 139 50.5 206.5t131.5 67.5q51 0 94.5 -23t92.5 -65q28 -24 42 -35t37.5 -22.5t43.5 -11.5q86 0 86 172l102 -11q0 -138 -50 -206t-132 -68q-87 0 -187 88q-31 26 -43.5 36t-35.5 22t-43 12q-86 0 -86 -172zM193 0v1075h135v-1075h-135z" />
    <glyph glyph-name="Imacron" unicode="&#x12a;" horiz-adv-x="571" 
d="M-59 1753v113h692v-113h-692zM215 0v1520h141v-1520h-141z" />
    <glyph glyph-name="imacron" unicode="&#x12b;" horiz-adv-x="520" 
d="M4 1356v114h512v-114h-512zM193 0v1075h135v-1075h-135z" />
    <glyph glyph-name="Ibreve" unicode="&#x12c;" horiz-adv-x="571" 
d="M-41 1968l104 8q9 -110 68 -164.5t156 -54.5t155.5 54t67.5 165l104 -8q-6 -153 -96.5 -236t-230.5 -83t-231 83t-97 236zM215 0v1520h141v-1520h-141z" />
    <glyph glyph-name="ibreve" unicode="&#x12d;" horiz-adv-x="520" 
d="M-47 1583l104 8q6 -129 59 -191.5t144 -62.5t144 62.5t59 191.5l104 -8q-3 -171 -88 -262.5t-219 -91.5t-219 91.5t-88 262.5zM193 0v1075h135v-1075h-135z" />
    <glyph glyph-name="Iogonek" unicode="&#x12e;" horiz-adv-x="571" 
d="M457 -432q-76 -55 -185 -55q-100 0 -156.5 53.5t-56.5 142.5q0 141 168 291h-12v1520h141v-1520q-86 -65 -134 -128t-48 -132q0 -53 31.5 -86t93.5 -33q75 0 133 49z" />
    <glyph glyph-name="iogonek" unicode="&#x12f;" horiz-adv-x="520" 
d="M176 1321v180h168v-180h-168zM432 -432q-80 -55 -186 -55q-100 0 -155.5 53.5t-55.5 142.5q0 140 166 291h-8v1075h135v-1075q-84 -65 -131 -128t-47 -132q0 -53 30.5 -86t93.5 -33q76 0 134 49z" />
    <glyph glyph-name="Idotaccent" unicode="&#x130;" horiz-adv-x="571" 
d="M203 1720v178h168v-178h-168zM215 0v1520h141v-1520h-141z" />
    <glyph glyph-name="dotlessi" unicode="&#x131;" horiz-adv-x="516" 
d="M190 0v1075h136v-1075h-136z" />
    <glyph glyph-name="IJ" unicode="&#x132;" horiz-adv-x="1404" 
d="M215 0v1520h141v-1520h-141zM575 10l9 133q92 -45 213 -45q136 0 202 79t66 276v1067h139v-1057q0 -136 -28 -233t-83 -153t-128 -81t-170 -25q-131 0 -220 39z" />
    <glyph glyph-name="ij" unicode="&#x133;" horiz-adv-x="1050" 
d="M174 1321v180h168v-180h-168zM713 1321v180h166v-180h-166zM190 0v1075h136v-1075h-136zM381 -449l14 130q55 -27 137 -27q99 0 148 59.5t49 202.5v1159h135v-1153q0 -210 -85 -301.5t-242 -91.5q-97 0 -156 22z" />
    <glyph glyph-name="Jcircumflex" unicode="&#x134;" horiz-adv-x="833" 
d="M909 1679l-121 -32l-225 247l-225 -247l-121 32l295 308h102zM4 10l8 133q92 -45 213 -45q90 0 147 31t89.5 110.5t32.5 213.5v1067h139v-1057q0 -136 -28.5 -233t-83.5 -153t-128 -81t-170 -25q-130 0 -219 39z" />
    <glyph glyph-name="jcircumflex" unicode="&#x135;" horiz-adv-x="534" 
d="M604 1251l-115 -32l-210 335l-211 -335l-115 32l274 406h103zM-135 -449l14 130q55 -27 137 -27q99 0 148 59.5t49 202.5v1159h135v-1153q0 -210 -85.5 -301.5t-242.5 -91.5q-96 0 -155 22z" />
    <glyph glyph-name="uni0136" unicode="&#x136;" horiz-adv-x="1357" 
d="M1159 0l-618 745l-185 -184v-561h-141v1520h141v-797l774 797h183v-4l-678 -678l702 -834v-4h-178zM639 -494l-111 15q101 143 101 303q0 29 -2 43h131q4 -28 4 -51q0 -169 -123 -310z" />
    <glyph glyph-name="uni0137" unicode="&#x137;" horiz-adv-x="1103" 
d="M918 0l-439 526l-157 -155v-371h-136v1593h136v-1079l536 561h172v-4l-463 -459l520 -608v-4h-169zM510 -494l-111 15q101 143 101 303q0 27 -2 43h131q4 -28 4 -51q0 -169 -123 -310z" />
    <glyph glyph-name="kgreenlandic" unicode="&#x138;" horiz-adv-x="1103" 
d="M918 0l-439 526l-157 -155v-371h-136v1075h136v-561l536 561h172v-4l-463 -459l520 -608v-4h-169z" />
    <glyph glyph-name="Lacute" unicode="&#x139;" horiz-adv-x="1126" 
d="M276 1638l-71 52l334 317l125 -90zM1100 127v-127h-885v1520h141v-1393h744z" />
    <glyph glyph-name="lacute" unicode="&#x13a;" horiz-adv-x="516" 
d="M188 1679l-71 52l334 317l124 -90zM190 0v1593h136v-1593h-136z" />
    <glyph glyph-name="uni013B" unicode="&#x13b;" horiz-adv-x="1126" 
d="M1100 127v-127h-885v1520h141v-1393h744zM612 -494l-110 15q100 141 100 303q0 29 -2 43h131q4 -28 4 -51q0 -169 -123 -310z" />
    <glyph glyph-name="uni013C" unicode="&#x13c;" horiz-adv-x="516" 
d="M190 0v1593h136v-1593h-136zM207 -494l-111 15q101 143 101 303q0 27 -2 43h131q4 -28 4 -51q0 -169 -123 -310z" />
    <glyph glyph-name="Lcaron" unicode="&#x13d;" horiz-adv-x="1126" 
d="M696 1118h-92l58 475h141zM1100 127v-127h-885v1520h141v-1393h744z" />
    <glyph glyph-name="lcaron" unicode="&#x13e;" horiz-adv-x="559" 
d="M592 1174h-92l57 475h141zM190 0v1593h136v-1593h-136z" />
    <glyph glyph-name="Ldot" unicode="&#x13f;" horiz-adv-x="1126" 
d="M1100 127v-127h-885v1520h141v-1393h744zM770 700v209h182v-209h-182z" />
    <glyph glyph-name="ldot" unicode="&#x140;" horiz-adv-x="698" 
d="M190 0v1593h136v-1593h-136zM516 672v209h182v-209h-182z" />
    <glyph glyph-name="Lslash" unicode="&#x141;" horiz-adv-x="1140" 
d="M1114 127v-127h-885v635l-192 -98v122l192 97v764h142v-705l467 234v-123l-467 -234v-565h743z" />
    <glyph glyph-name="lslash" unicode="&#x142;" horiz-adv-x="589" 
d="M569 950l-207 -123v-827h-135v760l-196 -119v119l196 119v714h135v-647l207 123v-119z" />
    <glyph glyph-name="Nacute" unicode="&#x143;" horiz-adv-x="1585" 
d="M707 1638l-72 52l334 317l125 -90zM1225 0l-879 1303v-1303h-131v1520h145l879 -1303v1303h131v-1520h-145z" />
    <glyph glyph-name="nacute" unicode="&#x144;" horiz-adv-x="1226" 
d="M571 1212l-77 43l249 418l131 -71zM322 737v-737h-136v1075h125l2 -188q147 213 383 213q166 0 259.5 -102t93.5 -291v-707h-136v680q0 295 -245 295q-115 0 -206.5 -65t-139.5 -173z" />
    <glyph glyph-name="uni0145" unicode="&#x145;" horiz-adv-x="1585" 
d="M1225 0l-879 1303v-1303h-131v1520h145l879 -1303v1303h131v-1520h-145zM750 -494l-111 15q100 141 100 303q0 29 -2 43h131q4 -28 4 -51q0 -170 -122 -310z" />
    <glyph glyph-name="uni0146" unicode="&#x146;" horiz-adv-x="1226" 
d="M322 737v-737h-136v1075h125l2 -188q147 213 383 213q166 0 259.5 -102t93.5 -291v-707h-136v680q0 295 -245 295q-115 0 -206.5 -65t-139.5 -173zM569 -494l-110 15q100 141 100 303q0 27 -2 43h131q4 -28 4 -51q0 -169 -123 -310z" />
    <glyph glyph-name="Ncaron" unicode="&#x147;" horiz-adv-x="1585" 
d="M1141 1962l-295 -307h-103l-294 307l120 33l226 -248l225 248zM1225 0l-879 1303v-1303h-131v1520h145l879 -1303v1303h131v-1520h-145z" />
    <glyph glyph-name="ncaron" unicode="&#x148;" horiz-adv-x="1226" 
d="M944 1622l-274 -393h-103l-274 393l115 35l210 -328l211 328zM322 737v-737h-136v1075h125l2 -188q147 213 383 213q166 0 259.5 -102t93.5 -291v-707h-136v680q0 295 -245 295q-115 0 -206.5 -65t-139.5 -173z" />
    <glyph glyph-name="Eng" unicode="&#x14a;" horiz-adv-x="1585" 
d="M1239 1520h131v-1522q0 -128 -28 -220.5t-81.5 -146t-122.5 -78t-159 -24.5q-119 0 -195 31l11 129q76 -39 184 -39q131 0 193.5 75t62.5 261v14l-889 1309v-1309h-131v1520h150l874 -1291v1291z" />
    <glyph glyph-name="eng" unicode="&#x14b;" horiz-adv-x="1226" 
d="M719 -350q99 0 146.5 57.5t47.5 200.5v772q0 295 -245 295q-115 0 -206.5 -65t-139.5 -173v-737h-136v1075h125l2 -188q147 213 383 213q166 0 259.5 -102t93.5 -291v-787q0 -209 -84 -300t-240 -91q-102 0 -158 22l13 125q60 -26 139 -26z" />
    <glyph glyph-name="Omacron" unicode="&#x14c;" horiz-adv-x="1593" 
d="M451 1753v113h692v-113h-692zM797 -29q-147 0 -271 54.5t-212.5 154.5t-138.5 249t-50 331t50 331t139 249t212.5 154t270.5 54t270.5 -54t212.5 -154t138.5 -249t49.5 -331t-49.5 -331t-138.5 -249t-212.5 -154.5t-270.5 -54.5zM797 100q244 0 384 177t140 483
q0 304 -140.5 481.5t-383.5 177.5q-244 0 -384.5 -176.5t-140.5 -482.5q0 -303 140.5 -481.5t384.5 -178.5z" />
    <glyph glyph-name="omacron" unicode="&#x14d;" horiz-adv-x="1222" 
d="M299 1356v114h627v-114h-627zM612 -25q-222 0 -364 151t-142 411t142 411.5t364 151.5q144 0 257.5 -66t180 -195t66.5 -302q0 -130 -38.5 -236.5t-106 -177.5t-159.5 -109.5t-200 -38.5zM612 94q167 0 266 120t99 323q0 204 -98.5 323t-266.5 119q-169 0 -267.5 -119
t-98.5 -323q0 -203 99 -323t267 -120z" />
    <glyph glyph-name="Obreve" unicode="&#x14e;" horiz-adv-x="1593" 
d="M469 1968l104 8q9 -110 68 -164.5t156 -54.5t155.5 54t67.5 165l104 -8q-6 -153 -96.5 -236t-230.5 -83t-231 83t-97 236zM797 -29q-147 0 -271 54.5t-212.5 154.5t-138.5 249t-50 331t50 331t139 249t212.5 154t270.5 54t270.5 -54t212.5 -154t138.5 -249t49.5 -331
t-49.5 -331t-138.5 -249t-212.5 -154.5t-270.5 -54.5zM797 100q244 0 384 177t140 483q0 304 -140.5 481.5t-383.5 177.5q-244 0 -384.5 -176.5t-140.5 -482.5q0 -303 140.5 -481.5t384.5 -178.5z" />
    <glyph glyph-name="obreve" unicode="&#x14f;" horiz-adv-x="1222" 
d="M285 1587l104 8q6 -129 65.5 -191.5t157.5 -62.5t158 63t66 191l104 -8q-6 -171 -96.5 -262.5t-231.5 -91.5t-231 91.5t-96 262.5zM612 -25q-222 0 -364 151t-142 411t142 411.5t364 151.5q144 0 257.5 -66t180 -195t66.5 -302q0 -130 -38.5 -236.5t-106 -177.5
t-159.5 -109.5t-200 -38.5zM612 94q167 0 266 120t99 323q0 204 -98.5 323t-266.5 119q-169 0 -267.5 -119t-98.5 -323q0 -203 99 -323t267 -120z" />
    <glyph glyph-name="Ohungarumlaut" unicode="&#x150;" horiz-adv-x="1593" 
d="M618 1638l-71 43l270 326l123 -78zM995 1638l-71 43l272 326l121 -78zM797 -29q-147 0 -271 54.5t-212.5 154.5t-138.5 249t-50 331t50 331t139 249t212.5 154t270.5 54t270.5 -54t212.5 -154t138.5 -249t49.5 -331t-49.5 -331t-138.5 -249t-212.5 -154.5t-270.5 -54.5z
M797 100q244 0 384 177t140 483q0 304 -140.5 481.5t-383.5 177.5q-244 0 -384.5 -176.5t-140.5 -482.5q0 -303 140.5 -481.5t384.5 -178.5z" />
    <glyph glyph-name="ohungarumlaut" unicode="&#x151;" horiz-adv-x="1222" 
d="M432 1219l-72 45l244 409l123 -69zM782 1219l-73 45l245 409l123 -69zM612 -25q-222 0 -364 151t-142 411t142 411.5t364 151.5q144 0 257.5 -66t180 -195t66.5 -302q0 -130 -38.5 -236.5t-106 -177.5t-159.5 -109.5t-200 -38.5zM612 94q167 0 266 120t99 323
q0 204 -98.5 323t-266.5 119q-169 0 -267.5 -119t-98.5 -323q0 -203 99 -323t267 -120z" />
    <glyph glyph-name="OE" unicode="&#x152;" horiz-adv-x="2228" 
d="M2101 0h-975q-122 -29 -247 -29q-344 0 -549 211.5t-205 577.5q0 364 205.5 576t550.5 212q131 0 249 -28h955v-125h-774v-527h692v-127h-692v-614h790v-127zM272 760q0 -309 160.5 -486.5t456.5 -177.5q159 0 280 45v1237q-137 45 -286 45q-291 0 -451 -176t-160 -487z
" />
    <glyph glyph-name="oe" unicode="&#x153;" horiz-adv-x="2011" 
d="M1880 102q-157 -127 -397 -127q-168 0 -284 69t-173 200q-60 -130 -169.5 -199.5t-252.5 -69.5q-218 0 -358 151.5t-140 410.5q0 130 38 237t105 178t158 109.5t197 38.5q143 0 255.5 -72t170.5 -203q58 131 167.5 203t260.5 72q94 0 169 -27.5t124.5 -74t82.5 -111.5
t47.5 -136.5t14.5 -152.5v-78h-800v-4q0 -203 102 -311.5t301 -108.5q112 0 195 33t157 96zM1454 985q-147 0 -243 -92.5t-113 -265.5h665v18q0 67 -17 125.5t-52.5 108t-97 78t-142.5 28.5zM604 94q165 0 262 119.5t97 323.5t-97 323t-262 119q-166 0 -262 -119t-96 -323
q0 -203 96.5 -323t261.5 -120z" />
    <glyph glyph-name="Racute" unicode="&#x154;" horiz-adv-x="1394" 
d="M567 1638l-71 52l333 317l125 -90zM356 621v-621h-141v1520h449q259 0 398.5 -113.5t139.5 -333.5q0 -102 -30.5 -182t-83 -129.5t-110 -79t-124.5 -45.5l471 -637h-166l-454 621h-349zM649 1395h-293v-652h328q50 0 95.5 6.5t98.5 28t91.5 55.5t64 95.5t25.5 142.5
q0 170 -106 247t-304 77z" />
    <glyph glyph-name="racute" unicode="&#x155;" horiz-adv-x="792" 
d="M346 1212l-78 43l250 418l131 -71zM317 688v-688h-135v1075h125l4 -209q105 230 322 230q71 0 127 -25l-12 -131q-66 25 -134 25q-106 0 -185 -70t-112 -207z" />
    <glyph glyph-name="uni0156" unicode="&#x156;" horiz-adv-x="1394" 
d="M356 621v-621h-141v1520h449q259 0 398.5 -113.5t139.5 -333.5q0 -102 -30.5 -182t-83 -129.5t-110 -79t-124.5 -45.5l471 -637h-166l-454 621h-349zM649 1395h-293v-652h328q50 0 95.5 6.5t98.5 28t91.5 55.5t64 95.5t25.5 142.5q0 170 -106 247t-304 77zM649 -494
l-110 15q100 141 100 303q0 27 -2 43h131q4 -28 4 -51q0 -169 -123 -310z" />
    <glyph glyph-name="uni0157" unicode="&#x157;" horiz-adv-x="792" 
d="M317 688v-688h-135v1075h125l4 -209q105 230 322 230q71 0 127 -25l-12 -131q-66 25 -134 25q-106 0 -185 -70t-112 -207zM199 -494l-111 15q100 141 100 303q0 27 -2 43h131q5 -35 5 -51q0 -169 -123 -310z" />
    <glyph glyph-name="Rcaron" unicode="&#x158;" horiz-adv-x="1394" 
d="M1001 1962l-294 -307h-103l-295 307l121 33l225 -248l226 248zM356 621v-621h-141v1520h449q259 0 398.5 -113.5t139.5 -333.5q0 -102 -30.5 -182t-83 -129.5t-110 -79t-124.5 -45.5l471 -637h-166l-454 621h-349zM649 1395h-293v-652h328q50 0 95.5 6.5t98.5 28
t91.5 55.5t64 95.5t25.5 142.5q0 170 -106 247t-304 77z" />
    <glyph glyph-name="rcaron" unicode="&#x159;" horiz-adv-x="792" 
d="M743 1622l-274 -393h-102l-275 393l115 35l211 -328l211 328zM317 688v-688h-135v1075h125l4 -209q105 230 322 230q71 0 127 -25l-12 -131q-66 25 -134 25q-106 0 -185 -70t-112 -207z" />
    <glyph glyph-name="Sacute" unicode="&#x15a;" horiz-adv-x="1220" 
d="M535 1638l-72 52l334 317l125 -90zM106 135l44 137q203 -172 458 -172q184 0 273.5 75.5t89.5 203.5q0 36 -6 67t-21.5 56.5t-31.5 45.5t-46 39.5t-54 32.5t-66.5 29.5t-73 27.5t-84.5 28q-59 19 -94 31.5t-88 35t-85 43.5t-70 54t-58.5 69.5t-35 86.5t-14.5 108
q0 185 125.5 300t364.5 115q246 0 414 -133l-41 -137q-166 141 -379 141q-174 0 -258 -76t-84 -196q0 -52 16.5 -93t44 -71t79 -58t105.5 -49t140 -49q46 -15 74.5 -24.5t70.5 -26t69 -30.5t61.5 -35.5t56 -43t45 -51t36 -62t21 -73.5t8.5 -88q0 -195 -129 -308.5
t-379 -113.5q-288 0 -498 164z" />
    <glyph glyph-name="sacute" unicode="&#x15b;" horiz-adv-x="983" 
d="M451 1212l-78 43l250 418l131 -71zM106 90l29 127q174 -123 363 -123q123 0 185 47.5t62 134.5q0 35 -12 61.5t-29 44.5t-54.5 35.5t-70 29t-94.5 30.5q-52 16 -84 27t-74 28t-67 33t-52.5 39.5t-42.5 49.5t-24.5 61t-9.5 76q0 143 101 226t276 83q187 0 323 -90
l-30 -127q-140 98 -297 98q-118 0 -180 -49.5t-62 -130.5q0 -20 4.5 -37t9.5 -30t19 -26.5t23.5 -22t33 -19.5t36.5 -17t46 -17t49.5 -16t57.5 -18q50 -15 84 -27t72.5 -28.5t63 -33t49.5 -39t38.5 -48.5t22 -60t8.5 -75q0 -153 -105.5 -232.5t-290.5 -79.5q-219 0 -377 115
z" />
    <glyph glyph-name="Scircumflex" unicode="&#x15c;" horiz-adv-x="1220" 
d="M969 1679l-121 -32l-225 247l-226 -247l-121 32l295 308h103zM106 135l44 137q203 -172 458 -172q184 0 273.5 75.5t89.5 203.5q0 36 -6 67t-21.5 56.5t-31.5 45.5t-46 39.5t-54 32.5t-66.5 29.5t-73 27.5t-84.5 28q-59 19 -94 31.5t-88 35t-85 43.5t-70 54t-58.5 69.5
t-35 86.5t-14.5 108q0 185 125.5 300t364.5 115q246 0 414 -133l-41 -137q-166 141 -379 141q-174 0 -258 -76t-84 -196q0 -52 16.5 -93t44 -71t79 -58t105.5 -49t140 -49q46 -15 74.5 -24.5t70.5 -26t69 -30.5t61.5 -35.5t56 -43t45 -51t36 -62t21 -73.5t8.5 -88
q0 -195 -129 -308.5t-379 -113.5q-288 0 -498 164z" />
    <glyph glyph-name="scircumflex" unicode="&#x15d;" horiz-adv-x="983" 
d="M823 1251l-114 -32l-211 335l-211 -335l-115 32l274 406h103zM106 90l29 127q174 -123 363 -123q123 0 185 47.5t62 134.5q0 35 -12 61.5t-29 44.5t-54.5 35.5t-70 29t-94.5 30.5q-52 16 -84 27t-74 28t-67 33t-52.5 39.5t-42.5 49.5t-24.5 61t-9.5 76q0 143 101 226
t276 83q187 0 323 -90l-30 -127q-140 98 -297 98q-118 0 -180 -49.5t-62 -130.5q0 -20 4.5 -37t9.5 -30t19 -26.5t23.5 -22t33 -19.5t36.5 -17t46 -17t49.5 -16t57.5 -18q50 -15 84 -27t72.5 -28.5t63 -33t49.5 -39t38.5 -48.5t22 -60t8.5 -75q0 -153 -105.5 -232.5
t-290.5 -79.5q-219 0 -377 115z" />
    <glyph glyph-name="Scedilla" unicode="&#x15e;" horiz-adv-x="1220" 
d="M844 -291q0 -89 -62.5 -142.5t-189.5 -53.5q-107 0 -193 36l27 103q73 -39 176 -39q129 0 129 94q0 42 -42.5 70t-170.5 57l57 137q-268 9 -469 164l44 137q203 -172 458 -172q184 0 273.5 75.5t89.5 203.5q0 36 -6 67t-21.5 56.5t-31.5 45.5t-46 39.5t-54 32.5
t-66.5 29.5t-73 27.5t-84.5 28q-59 19 -94 31.5t-88 35t-85 43.5t-70 54t-58.5 69.5t-35 86.5t-14.5 108q0 185 125.5 300t364.5 115q246 0 414 -133l-41 -137q-166 141 -379 141q-174 0 -258 -76t-84 -196q0 -52 16.5 -93t44 -71t79 -58t105.5 -49t140 -49
q46 -15 74.5 -24.5t70.5 -26t69 -30.5t61.5 -35.5t56 -43t45 -51t36 -62t21 -73.5t8.5 -88q0 -184 -114 -295.5t-336 -124.5l-33 -71q128 -38 171.5 -84t43.5 -109z" />
    <glyph glyph-name="scedilla" unicode="&#x15f;" horiz-adv-x="983" 
d="M719 -291q0 -89 -62.5 -142.5t-189.5 -53.5q-107 0 -193 36l27 103q73 -39 176 -39q129 0 129 94q0 42 -42.5 70t-170.5 57l60 141q-202 8 -347 115l29 127q174 -123 363 -123q123 0 185 47.5t62 134.5q0 35 -12 61.5t-29 44.5t-54.5 35.5t-70 29t-94.5 30.5
q-52 16 -84 27t-74 28t-67 33t-52.5 39.5t-42.5 49.5t-24.5 61t-9.5 76q0 143 101 226t276 83q187 0 323 -90l-30 -127q-140 98 -297 98q-118 0 -180 -49.5t-62 -130.5q0 -20 4.5 -37t9.5 -30t19 -26.5t23.5 -22t33 -19.5t36.5 -17t46 -17t49.5 -16t57.5 -18q50 -15 84 -27
t72.5 -28.5t63 -33t49.5 -39t38.5 -48.5t22 -60t8.5 -75q0 -142 -90 -220.5t-250 -89.5l-35 -75q128 -38 171.5 -84t43.5 -109z" />
    <glyph glyph-name="Scaron" unicode="&#x160;" horiz-adv-x="1220" 
d="M969 1962l-295 -307h-103l-295 307l121 33l226 -248l225 248zM106 135l44 137q203 -172 458 -172q184 0 273.5 75.5t89.5 203.5q0 36 -6 67t-21.5 56.5t-31.5 45.5t-46 39.5t-54 32.5t-66.5 29.5t-73 27.5t-84.5 28q-59 19 -94 31.5t-88 35t-85 43.5t-70 54t-58.5 69.5
t-35 86.5t-14.5 108q0 185 125.5 300t364.5 115q246 0 414 -133l-41 -137q-166 141 -379 141q-174 0 -258 -76t-84 -196q0 -52 16.5 -93t44 -71t79 -58t105.5 -49t140 -49q46 -15 74.5 -24.5t70.5 -26t69 -30.5t61.5 -35.5t56 -43t45 -51t36 -62t21 -73.5t8.5 -88
q0 -195 -129 -308.5t-379 -113.5q-288 0 -498 164z" />
    <glyph glyph-name="scaron" unicode="&#x161;" horiz-adv-x="983" 
d="M823 1622l-274 -393h-103l-274 393l115 35l211 -328l211 328zM106 90l29 127q174 -123 363 -123q123 0 185 47.5t62 134.5q0 35 -12 61.5t-29 44.5t-54.5 35.5t-70 29t-94.5 30.5q-52 16 -84 27t-74 28t-67 33t-52.5 39.5t-42.5 49.5t-24.5 61t-9.5 76q0 143 101 226
t276 83q187 0 323 -90l-30 -127q-140 98 -297 98q-118 0 -180 -49.5t-62 -130.5q0 -20 4.5 -37t9.5 -30t19 -26.5t23.5 -22t33 -19.5t36.5 -17t46 -17t49.5 -16t57.5 -18q50 -15 84 -27t72.5 -28.5t63 -33t49.5 -39t38.5 -48.5t22 -60t8.5 -75q0 -153 -105.5 -232.5
t-290.5 -79.5q-219 0 -377 115z" />
    <glyph glyph-name="uni0162" unicode="&#x162;" horiz-adv-x="1187" 
d="M811 -291q0 -89 -62.5 -142.5t-189.5 -53.5q-106 0 -192 36l26 103q73 -39 176 -39q129 0 129 94q0 42 -42.5 70t-170.5 57l68 166h-29v1395h-499v125h1138v-125h-499v-1395h-23l-45 -98q128 -38 171.5 -84t43.5 -109z" />
    <glyph glyph-name="uni0163" unicode="&#x163;" horiz-adv-x="778" 
d="M664 -291q0 -89 -62.5 -142.5t-189.5 -53.5q-107 0 -193 36l27 103q73 -39 176 -39q129 0 129 94q0 42 -42.5 70t-170.5 57l65 158q-172 56 -172 284v691h-186v108h186v301l136 39v-340h348v-108h-348v-674q0 -99 41.5 -148t128.5 -49q85 0 170 60l18 -125
q-93 -56 -213 -56h-29l-34 -73q128 -38 171.5 -84t43.5 -109z" />
    <glyph glyph-name="Tcaron" unicode="&#x164;" horiz-adv-x="1187" 
d="M940 1962l-295 -307h-102l-295 307l121 33l225 -248l225 248zM1163 1395h-499v-1395h-140v1395h-499v125h1138v-125z" />
    <glyph glyph-name="tcaron" unicode="&#x165;" horiz-adv-x="778" 
d="M635 1219h-92l57 475h141zM725 31q-93 -56 -213 -56q-129 0 -205 72.5t-76 228.5v691h-186v108h186v301l136 39v-340h348v-108h-348v-674q0 -99 41.5 -148t128.5 -49q85 0 170 60z" />
    <glyph glyph-name="Tbar" unicode="&#x166;" horiz-adv-x="1187" 
d="M1004 741h-340v-741h-140v741h-340v117h340v537h-499v125h1138v-125h-499v-537h340v-117z" />
    <glyph glyph-name="tbar" unicode="&#x167;" horiz-adv-x="819" 
d="M745 31q-93 -56 -213 -56q-129 0 -204.5 72.5t-75.5 228.5v285h-186v101h186v305h-186v108h186v301l135 39v-340h348v-108h-348v-305h348v-101h-348v-268q0 -99 41.5 -148t128.5 -49q85 0 170 60z" />
    <glyph glyph-name="Utilde" unicode="&#x168;" horiz-adv-x="1521" 
d="M473 1659l-102 10q0 138 59 206.5t152 68.5q55 0 101.5 -22t98.5 -60q53 -39 87.5 -56.5t72.5 -17.5q109 0 109 170l102 -8q0 -139 -59 -208t-152 -69q-38 0 -77.5 14t-63 28.5t-60.5 41.5q-40 28 -58.5 40t-46.5 23t-54 11q-109 0 -109 -172zM199 578v942h139v-947
q0 -233 110 -353t314 -120q206 0 316 120t110 353v947h135v-942q0 -293 -143 -450t-420 -157q-278 0 -419.5 156.5t-141.5 450.5z" />
    <glyph glyph-name="utilde" unicode="&#x169;" horiz-adv-x="1226" 
d="M338 1262l-102 10q0 139 55.5 206.5t144.5 67.5q90 0 195 -82q50 -39 82 -57t67 -18q103 0 103 172l102 -11q0 -138 -56 -206t-145 -68q-54 0 -99 21.5t-95 60.5q-51 40 -83 58t-67 18q-102 0 -102 -172zM915 0l-2 186q-136 -211 -376 -211q-167 0 -263 103t-96 291v706
h135v-680q0 -149 66 -222t186 -73q68 0 127 23t100.5 61t69 78t43.5 82v731h135v-1075h-125z" />
    <glyph glyph-name="Umacron" unicode="&#x16a;" horiz-adv-x="1521" 
d="M416 1753v113h692v-113h-692zM199 578v942h139v-947q0 -233 110 -353t314 -120q206 0 316 120t110 353v947h135v-942q0 -293 -143 -450t-420 -157q-278 0 -419.5 156.5t-141.5 450.5z" />
    <glyph glyph-name="umacron" unicode="&#x16b;" horiz-adv-x="1226" 
d="M297 1356v114h627v-114h-627zM915 0l-2 186q-136 -211 -376 -211q-167 0 -263 103t-96 291v706h135v-680q0 -149 66 -222t186 -73q68 0 127 23t100.5 61t69 78t43.5 82v731h135v-1075h-125z" />
    <glyph glyph-name="Ubreve" unicode="&#x16c;" horiz-adv-x="1521" 
d="M434 1968l105 8q9 -111 67.5 -165t155.5 -54t155.5 54t67.5 165l105 -8q-6 -153 -97 -236t-231 -83t-231 83t-97 236zM199 578v942h139v-947q0 -233 110 -353t314 -120q206 0 316 120t110 353v947h135v-942q0 -293 -143 -450t-420 -157q-278 0 -419.5 156.5t-141.5 450.5
z" />
    <glyph glyph-name="ubreve" unicode="&#x16d;" horiz-adv-x="1226" 
d="M283 1587l104 8q6 -129 65.5 -191.5t157.5 -62.5t158 63t66 191l104 -8q-6 -171 -96.5 -262.5t-231.5 -91.5t-231 91.5t-96 262.5zM915 0l-2 186q-136 -211 -376 -211q-167 0 -263 103t-96 291v706h135v-680q0 -149 66 -222t186 -73q68 0 127 23t100.5 61t69 78t43.5 82
v731h135v-1075h-125z" />
    <glyph glyph-name="Uring" unicode="&#x16e;" horiz-adv-x="1521" 
d="M762 1593q-104 0 -174 69t-70 169t70 167.5t174 67.5t174 -67.5t70 -167.5t-70 -169t-174 -69zM762 1683q67 0 108 41t41 107q0 65 -41 105t-108 40t-108.5 -40t-41.5 -105q0 -66 41.5 -107t108.5 -41zM199 578v942h139v-947q0 -233 110 -353t314 -120q206 0 316 120
t110 353v947h135v-942q0 -293 -143 -450t-420 -157q-278 0 -419.5 156.5t-141.5 450.5z" />
    <glyph glyph-name="uring" unicode="&#x16f;" horiz-adv-x="1226" 
d="M610 1204q-104 0 -173.5 69t-69.5 169t69.5 167.5t173.5 67.5t174 -67.5t70 -167.5t-70 -169t-174 -69zM610 1294q67 0 108.5 41t41.5 107q0 65 -41.5 105t-108.5 40t-108 -40t-41 -105q0 -66 41 -107t108 -41zM915 0l-2 186q-136 -211 -376 -211q-167 0 -263 103
t-96 291v706h135v-680q0 -149 66 -222t186 -73q68 0 127 23t100.5 61t69 78t43.5 82v731h135v-1075h-125z" />
    <glyph glyph-name="Uhungarumlaut" unicode="&#x170;" horiz-adv-x="1521" 
d="M584 1638l-72 43l270 326l123 -78zM961 1638l-72 43l272 326l121 -78zM199 578v942h139v-947q0 -233 110 -353t314 -120q206 0 316 120t110 353v947h135v-942q0 -293 -143 -450t-420 -157q-278 0 -419.5 156.5t-141.5 450.5z" />
    <glyph glyph-name="uhungarumlaut" unicode="&#x171;" horiz-adv-x="1226" 
d="M430 1219l-72 45l244 409l123 -69zM780 1219l-73 45l245 409l123 -69zM915 0l-2 186q-136 -211 -376 -211q-167 0 -263 103t-96 291v706h135v-680q0 -149 66 -222t186 -73q68 0 127 23t100.5 61t69 78t43.5 82v731h135v-1075h-125z" />
    <glyph glyph-name="Uogonek" unicode="&#x172;" horiz-adv-x="1521" 
d="M1042 -432q-76 -55 -184 -55q-100 0 -156.5 53.5t-56.5 142.5q0 143 164 264q-16 -2 -49 -2q-278 0 -419.5 156.5t-141.5 450.5v942h139v-947q0 -233 110 -353t314 -120q206 0 316 120t110 353v947h135v-942q0 -226 -86 -372.5t-254 -201.5q-221 -122 -221 -264
q0 -53 31 -86t92 -33q75 0 133 49z" />
    <glyph glyph-name="uogonek" unicode="&#x173;" horiz-adv-x="1226" 
d="M1071 -432q-80 -55 -186 -55q-100 0 -155.5 53.5t-55.5 142.5q0 86 58.5 162t182.5 149l-2 166q-136 -211 -376 -211q-167 0 -263 103t-96 291v706h135v-680q0 -149 66 -222t186 -73q68 0 127 23t100.5 61t69 78t43.5 82v731h135v-1075q-252 -121 -252 -262q0 -53 31 -85
t94 -32q76 0 134 49z" />
    <glyph glyph-name="Wcircumflex" unicode="&#x174;" horiz-adv-x="2162" 
d="M1427 1679l-120 -32l-226 247l-225 -247l-121 32l295 308h103zM1475 0l-394 1311l-395 -1311h-151l-461 1520h151l391 -1336l398 1336h143l397 -1336l390 1336h143l-461 -1520h-151z" />
    <glyph glyph-name="wcircumflex" unicode="&#x175;" horiz-adv-x="1679" 
d="M1169 1251l-114 -32l-211 335l-211 -335l-115 32l275 406h102zM1124 0l-284 889l-285 -889h-131l-356 1075h149l277 -905l282 905h135l283 -905l276 905h144l-359 -1075h-131z" />
    <glyph glyph-name="Ycircumflex" unicode="&#x176;" horiz-adv-x="1247" 
d="M969 1679l-121 -32l-225 247l-226 -247l-121 32l295 308h103zM1212 1520l-518 -920v-600h-141v596l-518 924h158l434 -795l432 795h153z" />
    <glyph glyph-name="ycircumflex" unicode="&#x177;" horiz-adv-x="1083" 
d="M872 1251l-114 -32l-211 335l-211 -335l-115 32l275 406h102zM616 6q-59 -151 -108.5 -245.5t-99.5 -145.5t-96 -68.5t-109 -17.5q-75 0 -137 25l12 131q60 -29 127 -29q54 0 94 28.5t82.5 101t99.5 212.5l-420 1077h152l338 -925l338 925h143z" />
    <glyph glyph-name="Ydieresis" unicode="&#x178;" horiz-adv-x="1247" 
d="M748 1720v178h161v-178h-161zM336 1720v178h162v-178h-162zM1212 1520l-518 -920v-600h-141v596l-518 924h158l434 -795l432 795h153z" />
    <glyph glyph-name="Zacute" unicode="&#x179;" horiz-adv-x="1347" 
d="M586 1638l-72 52l334 317l125 -90zM1237 127v-127h-1133v121l938 1274h-899v125h1074v-117l-941 -1276h961z" />
    <glyph glyph-name="zacute" unicode="&#x17a;" horiz-adv-x="995" 
d="M453 1212l-78 43l250 418l131 -71zM907 117v-117h-819v106l649 852h-618v117h782v-106l-651 -852h657z" />
    <glyph glyph-name="Zdotaccent" unicode="&#x17b;" horiz-adv-x="1347" 
d="M590 1720v178h168v-178h-168zM1237 127v-127h-1133v121l938 1274h-899v125h1074v-117l-941 -1276h961z" />
    <glyph glyph-name="zdotaccent" unicode="&#x17c;" horiz-adv-x="995" 
d="M416 1321v180h168v-180h-168zM907 117v-117h-819v106l649 852h-618v117h782v-106l-651 -852h657z" />
    <glyph glyph-name="Zcaron" unicode="&#x17d;" horiz-adv-x="1347" 
d="M1020 1962l-295 -307h-102l-295 307l121 33l225 -248l225 248zM1237 127v-127h-1133v121l938 1274h-899v125h1074v-117l-941 -1276h961z" />
    <glyph glyph-name="zcaron" unicode="&#x17e;" horiz-adv-x="995" 
d="M825 1622l-274 -393h-102l-275 393l115 35l211 -328l211 328zM907 117v-117h-819v106l649 852h-618v117h782v-106l-651 -852h657z" />
    <glyph glyph-name="longs" unicode="&#x17f;" horiz-adv-x="573" 
d="M186 0v1221q0 108 27 186t75.5 121t107.5 62.5t132 19.5q76 0 142 -17l-11 -129q-70 25 -137 25q-103 0 -151.5 -61.5t-48.5 -200.5v-1227h-136z" />
    <glyph glyph-name="uni018F" unicode="&#x18f;" horiz-adv-x="1513" 
d="M1389 764q0 -376 -166 -584.5t-478 -208.5q-125 0 -227.5 35.5t-172.5 98t-118 149.5t-70 187.5t-22 213.5q0 69 6 136h1102q-2 150 -32.5 264.5t-94.5 196.5t-166.5 124.5t-242.5 42.5q-296 0 -492 -176l-45 127q87 77 229 127.5t316 50.5q173 0 303 -55.5t210.5 -159.5
t120.5 -246.5t40 -322.5zM739 100q225 0 356.5 148.5t145.5 417.5h-960v-45q0 -89 17 -166t53 -143t89 -112.5t129 -73t170 -26.5z" />
    <glyph glyph-name="florin" unicode="&#x192;" 
d="M567 27q-22 -112 -58 -188.5t-84.5 -117t-101.5 -57t-120 -16.5q-109 0 -170 43l28 129q61 -51 154 -51q87 0 138 55t79 196l160 797h-230v103h250l52 249q19 94 51.5 163.5t69.5 110t85.5 65t92.5 32.5t98 8q113 0 178 -43l-31 -129q-77 51 -164 51q-102 0 -160 -56.5
t-85 -194.5l-51 -256h323v-103h-344z" />
    <glyph glyph-name="Ohorn" unicode="&#x1a0;" horiz-adv-x="1593" 
d="M1468 760q0 -182 -49.5 -331t-138.5 -249t-212.5 -154.5t-270.5 -54.5t-271 54.5t-212.5 154.5t-138.5 249t-50 331t50 331t139 249t212.5 154t270.5 54q158 0 293 -63h30q70 0 118 15t73 45.5t35 67.5t10 89q0 50 -8 104h127q8 -58 8 -110q0 -261 -256 -303
q116 -103 178.5 -264t62.5 -369zM797 100q244 0 384 177t140 483q0 304 -140.5 481.5t-383.5 177.5q-244 0 -384.5 -176.5t-140.5 -482.5q0 -303 140.5 -481.5t384.5 -178.5z" />
    <glyph glyph-name="ohorn" unicode="&#x1a1;" horiz-adv-x="1245" 
d="M1116 537q0 -130 -38.5 -236.5t-106 -177.5t-159.5 -109.5t-200 -38.5q-222 0 -364 151t-142 411t142 411.5t364 151.5q126 0 224 -49h18q128 0 175.5 54t47.5 159q0 54 -8 108h125q8 -58 8 -112q0 -255 -239 -299q153 -156 153 -424zM612 94q167 0 266 120t99 323
q0 204 -98.5 323t-266.5 119q-169 0 -267.5 -119t-98.5 -323q0 -203 99 -323t267 -120z" />
    <glyph glyph-name="Uhorn" unicode="&#x1af;" horiz-adv-x="1554" 
d="M1188 573v947h88q59 0 97.5 13.5t57.5 40t26 56.5t7 72q0 50 -8 104h127q8 -58 8 -108q0 -262 -268 -275v-845q0 -293 -143 -450t-420 -157q-278 0 -419.5 156.5t-141.5 450.5v942h139v-947q0 -233 110 -353t314 -120q206 0 316 120t110 353z" />
    <glyph glyph-name="uhorn" unicode="&#x1b0;" horiz-adv-x="1280" 
d="M905 344v731h96q93 0 137 43t44 148q0 52 -8 106h124q9 -65 9 -112q0 -269 -267 -285v-975h-125l-2 186q-136 -211 -376 -211q-167 0 -263 103t-96 291v706h135v-680q0 -149 66 -222t186 -73q68 0 127 23t100.5 61t69 78t43.5 82z" />
    <glyph glyph-name="Aringacute" unicode="&#x1fa;" horiz-adv-x="1411" 
d="M618 2007l-71 51l334 318l125 -90zM1208 0l-168 453h-673l-168 -453h-146l576 1516q-74 23 -120 84.5t-46 140.5q0 100 70 167.5t174 67.5t173.5 -67.5t69.5 -167.5q0 -81 -46 -143t-122 -85l576 -1513h-150zM707 1593q67 0 108 41t41 107q0 65 -41 105t-108 40
t-108.5 -40t-41.5 -105q0 -66 41.5 -107t108.5 -41zM414 575h579l-288 781z" />
    <glyph glyph-name="aringacute" unicode="&#x1fb;" horiz-adv-x="1148" 
d="M477 1741l-71 51l333 317l125 -90zM582 1204q-104 0 -174 69t-70 169t70 167.5t174 67.5t173.5 -67.5t69.5 -167.5t-69.5 -169t-173.5 -69zM582 1294q67 0 108 41t41 107q0 65 -41 105t-108 40t-108.5 -40t-41.5 -105q0 -66 41.5 -107t108.5 -41zM848 0l-2 164
q-65 -88 -160 -138.5t-215 -50.5q-158 0 -255 85.5t-97 238.5q0 178 139.5 264t423.5 86h156v68q0 133 -61 197.5t-212 64.5q-197 0 -350 -117l-29 123q148 115 389 115q209 0 303.5 -95.5t94.5 -273.5v-731h-125zM494 94q117 0 207 58.5t137 150.5v238h-146
q-225 0 -330.5 -57.5t-105.5 -182.5q0 -99 64 -153t174 -54z" />
    <glyph glyph-name="AEacute" unicode="&#x1fc;" horiz-adv-x="2027" 
d="M1133 1638l-72 52l334 317l125 -90zM979 0v510h-594l-293 -510h-153l878 1520h1067v-125h-766v-527h684v-127h-684v-614h783v-127h-922zM979 1399h-86l-440 -768h526v768z" />
    <glyph glyph-name="aeacute" unicode="&#x1fd;" horiz-adv-x="1880" 
d="M854 1212l-78 43l250 418l131 -71zM1749 102q-157 -127 -395 -127q-319 0 -443 236q-152 -236 -432 -236q-170 0 -266 84.5t-96 233.5q0 167 135 252.5t428 85.5h158v86q0 132 -62 197t-213 65q-200 0 -350 -117l-29 123q148 115 387 115q297 0 359 -223q59 107 161 165
t236 58q115 0 202 -41t137 -113t74.5 -159t24.5 -189v-74h-800v-6q0 -204 102.5 -313t300.5 -109q112 0 195 33t157 96zM1323 985q-144 0 -240.5 -92t-113.5 -262h663v14q0 67 -17 125.5t-52.5 108t-97 78t-142.5 28.5zM494 94q127 0 222 64.5t142 175.5q-20 95 -20 190
h-148q-236 0 -336 -55t-100 -172q0 -97 62.5 -150t177.5 -53z" />
    <glyph glyph-name="Oslashacute" unicode="&#x1fe;" horiz-adv-x="1593" 
d="M709 1638l-72 52l334 317l125 -90zM797 -29q-239 0 -406 135l-137 -190l-92 39l157 219q-194 213 -194 586q0 182 50 331t139 249t212.5 154t270.5 54q238 0 405 -135l137 191l93 -39l-158 -219q194 -213 194 -586q0 -182 -49.5 -331t-138.5 -249t-212.5 -154.5
t-270.5 -54.5zM272 760q0 -295 131 -467l721 1010q-131 116 -327 116q-244 0 -384.5 -176.5t-140.5 -482.5zM1321 760q0 295 -131 467l-721 -1010q132 -117 328 -117q244 0 384 177t140 483z" />
    <glyph glyph-name="oslashacute" unicode="&#x1ff;" horiz-adv-x="1222" 
d="M565 1212l-78 43l250 418l131 -71zM612 -25q-162 0 -284 84l-125 -174l-86 41l137 193q-148 154 -148 418q0 260 142 411.5t364 151.5q161 0 283 -84l125 174l86 -41l-139 -193q149 -155 149 -419q0 -130 -38.5 -236.5t-106 -177.5t-159.5 -109.5t-200 -38.5zM246 537
q0 -191 88 -308l489 684q-87 66 -211 66q-169 0 -267.5 -119t-98.5 -323zM977 537q0 192 -88 309l-490 -684q86 -68 213 -68q167 0 266 120t99 323z" />
    <glyph glyph-name="uni0218" unicode="&#x218;" horiz-adv-x="1220" 
d="M106 135l44 137q203 -172 458 -172q184 0 273.5 75.5t89.5 203.5q0 36 -6 67t-21.5 56.5t-31.5 45.5t-46 39.5t-54 32.5t-66.5 29.5t-73 27.5t-84.5 28q-59 19 -94 31.5t-88 35t-85 43.5t-70 54t-58.5 69.5t-35 86.5t-14.5 108q0 185 125.5 300t364.5 115q246 0 414 -133
l-41 -137q-166 141 -379 141q-174 0 -258 -76t-84 -196q0 -52 16.5 -93t44 -71t79 -58t105.5 -49t140 -49q46 -15 74.5 -24.5t70.5 -26t69 -30.5t61.5 -35.5t56 -43t45 -51t36 -62t21 -73.5t8.5 -88q0 -195 -129 -308.5t-379 -113.5q-288 0 -498 164zM578 -494l-111 15
q100 141 100 303q0 27 -2 43h131q4 -28 4 -51q0 -170 -122 -310z" />
    <glyph glyph-name="uni0219" unicode="&#x219;" horiz-adv-x="983" 
d="M106 90l29 127q174 -123 363 -123q123 0 185 47.5t62 134.5q0 35 -12 61.5t-29 44.5t-54.5 35.5t-70 29t-94.5 30.5q-52 16 -84 27t-74 28t-67 33t-52.5 39.5t-42.5 49.5t-24.5 61t-9.5 76q0 143 101 226t276 83q187 0 323 -90l-30 -127q-140 98 -297 98
q-118 0 -180 -49.5t-62 -130.5q0 -20 4.5 -37t9.5 -30t19 -26.5t23.5 -22t33 -19.5t36.5 -17t46 -17t49.5 -16t57.5 -18q50 -15 84 -27t72.5 -28.5t63 -33t49.5 -39t38.5 -48.5t22 -60t8.5 -75q0 -153 -105.5 -232.5t-290.5 -79.5q-219 0 -377 115zM446 -494l-110 15
q100 141 100 303q0 29 -2 43h131q4 -28 4 -51q0 -169 -123 -310z" />
    <glyph glyph-name="uni021A" unicode="&#x21a;" horiz-adv-x="1187" 
d="M1163 1395h-499v-1395h-140v1395h-499v125h1138v-125zM541 -494l-111 15q100 141 100 303q0 27 -2 43h131q5 -35 5 -51q0 -169 -123 -310z" />
    <glyph glyph-name="uni021B" unicode="&#x21b;" horiz-adv-x="778" 
d="M725 31q-93 -56 -213 -56q-129 0 -205 72.5t-76 228.5v691h-186v108h186v301l136 39v-340h348v-108h-348v-674q0 -99 41.5 -148t128.5 -49q85 0 170 60zM393 -494l-110 15q100 141 100 303q0 27 -2 43h131q4 -28 4 -51q0 -169 -123 -310z" />
    <glyph glyph-name="uni0237" unicode="&#x237;" horiz-adv-x="534" 
d="M-135 -449l14 130q55 -27 137 -27q99 0 148 59.5t49 202.5v1159h135v-1153q0 -210 -85.5 -301.5t-242.5 -91.5q-96 0 -155 22z" />
    <glyph glyph-name="uni0259" unicode="&#x259;" horiz-adv-x="1173" 
d="M1067 541q0 -268 -125 -417t-358 -149q-119 0 -209 38.5t-144 107t-81 155t-27 189.5q0 38 4 100h807q-5 202 -97 308t-288 106q-222 0 -367 -117l-28 123q68 49 174 82t231 33q257 0 382.5 -148t125.5 -411zM578 92q156 0 249 96.5t105 270.5h-676v-25q0 -152 82 -247
t240 -95z" />
    <glyph glyph-name="uni02BB" unicode="&#x2bb;" horiz-adv-x="499" 
d="M391 1593q-100 -187 -100 -432q0 -59 2 -84h-141q-2 25 -2 84q0 248 120 432h121z" />
    <glyph glyph-name="uni02BC" unicode="&#x2bc;" horiz-adv-x="499" 
d="M109 1077q100 187 100 432q0 59 -2 84h141q2 -25 2 -84q0 -246 -121 -432h-120z" />
    <glyph glyph-name="circumflex" unicode="&#x2c6;" horiz-adv-x="1024" 
d="M838 1251l-115 -32l-211 335l-211 -335l-115 32l275 406h102z" />
    <glyph glyph-name="caron" unicode="&#x2c7;" horiz-adv-x="1024" 
d="M838 1622l-275 -393h-102l-275 393l115 35l211 -328l211 328z" />
    <glyph glyph-name="uni02C9" unicode="&#x2c9;" horiz-adv-x="1024" 
d="M199 1356v114h626v-114h-626z" />
    <glyph glyph-name="breve" unicode="&#x2d8;" horiz-adv-x="1024" 
d="M184 1587l105 8q6 -129 65.5 -191.5t157.5 -62.5t157.5 62.5t65.5 191.5l105 -8q-6 -171 -96.5 -262.5t-231.5 -91.5t-231.5 91.5t-96.5 262.5z" />
    <glyph glyph-name="dotaccent" unicode="&#x2d9;" horiz-adv-x="1024" 
d="M428 1321v180h168v-180h-168z" />
    <glyph glyph-name="ring" unicode="&#x2da;" horiz-adv-x="1024" 
d="M512 1204q-104 0 -174 69t-70 169t70 167.5t174 67.5t174 -67.5t70 -167.5t-70 -169t-174 -69zM512 1294q67 0 108.5 41t41.5 107q0 65 -41.5 105t-108.5 40t-108.5 -40t-41.5 -105q0 -66 41.5 -107t108.5 -41z" />
    <glyph glyph-name="ogonek" unicode="&#x2db;" horiz-adv-x="1024" 
d="M743 -432q-80 -55 -186 -55q-100 0 -155.5 53.5t-55.5 142.5q0 164 215 303h131q-231 -132 -231 -272q0 -53 31 -86t94 -33q75 0 133 49z" />
    <glyph glyph-name="tilde" unicode="&#x2dc;" horiz-adv-x="1024" 
d="M240 1262l-103 10q0 139 56 206.5t145 67.5q88 0 194 -82q50 -39 82.5 -57t67.5 -18q102 0 102 172l103 -11q0 -138 -56 -206t-145 -68q-54 0 -99 21.5t-95 60.5q-51 40 -83 58t-67 18q-102 0 -102 -172z" />
    <glyph glyph-name="hungarumlaut" unicode="&#x2dd;" horiz-adv-x="1024" 
d="M332 1219l-72 45l244 409l123 -69zM682 1219l-74 45l246 409l123 -69z" />
    <glyph glyph-name="gravecomb" unicode="&#x300;" horiz-adv-x="0" 
d="M47 1212l-303 390l131 71l250 -418z" />
    <glyph glyph-name="acutecomb" unicode="&#x301;" horiz-adv-x="0" 
d="M-47 1212l-78 43l250 418l131 -71z" />
    <glyph glyph-name="uni0302" unicode="&#x302;" horiz-adv-x="0" 
d="M326 1251l-115 -32l-211 335l-211 -335l-115 32l275 406h102z" />
    <glyph glyph-name="tildecomb" unicode="&#x303;" horiz-adv-x="0" 
d="M-272 1262l-103 10q0 139 56 206.5t145 67.5t194 -82q50 -39 82.5 -57t67.5 -18q102 0 102 172l103 -11q0 -138 -56 -206t-145 -68t-194 82q-51 40 -83 58t-67 18q-102 0 -102 -172z" />
    <glyph glyph-name="uni0304" unicode="&#x304;" horiz-adv-x="0" 
d="M-313 1356v114h626v-114h-626z" />
    <glyph glyph-name="uni0306" unicode="&#x306;" horiz-adv-x="0" 
d="M-328 1587l105 8q6 -129 65.5 -191.5t157.5 -62.5t157.5 62.5t65.5 191.5l105 -8q-6 -171 -96.5 -262.5t-231.5 -91.5t-231.5 91.5t-96.5 262.5z" />
    <glyph glyph-name="uni0307" unicode="&#x307;" horiz-adv-x="0" 
d="M-84 1321v180h168v-180h-168z" />
    <glyph glyph-name="uni0308" unicode="&#x308;" horiz-adv-x="0" 
d="M125 1321v180h162v-180h-162zM-287 1321v180h162v-180h-162z" />
    <glyph glyph-name="hookabovecomb" unicode="&#x309;" horiz-adv-x="0" 
d="M16 1212l-73 68q111 58 153.5 97.5t42.5 99.5q0 112 -139 112q-113 0 -199 -69l-26 100q109 74 233 74q111 0 179.5 -54t68.5 -157q0 -48 -16 -87t-50.5 -71.5t-74 -57.5t-99.5 -55z" />
    <glyph glyph-name="uni030A" unicode="&#x30a;" horiz-adv-x="0" 
d="M0 1204q-104 0 -174 69t-70 169t70 167.5t174 67.5t174 -67.5t70 -167.5t-70 -169t-174 -69zM0 1294q67 0 108.5 41t41.5 107q0 65 -41.5 105t-108.5 40t-108.5 -40t-41.5 -105q0 -66 41.5 -107t108.5 -41z" />
    <glyph glyph-name="uni030B" unicode="&#x30b;" horiz-adv-x="0" 
d="M-180 1219l-72 45l244 409l123 -69zM170 1219l-74 45l246 409l123 -69z" />
    <glyph glyph-name="uni030C" unicode="&#x30c;" horiz-adv-x="0" 
d="M326 1622l-275 -393h-102l-275 393l115 35l211 -328l211 328z" />
    <glyph glyph-name="uni0312" unicode="&#x312;" horiz-adv-x="0" 
d="M35 1634l110 -14q-86 -128 -86 -283q0 -39 4 -63h-131q-6 30 -6 67q0 160 109 293z" />
    <glyph glyph-name="uni031B" unicode="&#x31b;" horiz-adv-x="0" 
d="M-303 1075h78q93 0 136.5 43t43.5 148q0 52 -8 106h125q8 -58 8 -112q0 -285 -297 -285h-86v100z" />
    <glyph glyph-name="dotbelowcomb" unicode="&#x323;" horiz-adv-x="0" 
d="M-84 -356v178h168v-178h-168z" />
    <glyph glyph-name="uni0326" unicode="&#x326;" horiz-adv-x="0" 
d="M-45 -494l-111 15q101 143 101 303q0 27 -2 43h131q4 -28 4 -51q0 -169 -123 -310z" />
    <glyph glyph-name="uni0327" unicode="&#x327;" horiz-adv-x="0" 
d="M221 -291q0 -89 -62.5 -142.5t-189.5 -53.5q-106 0 -192 36l26 103q73 -39 177 -39q129 0 129 94q0 42 -42.5 70t-170.5 57l71 174h88l-49 -106q128 -38 171.5 -84t43.5 -109z" />
    <glyph glyph-name="uni0328" unicode="&#x328;" horiz-adv-x="0" 
d="M231 -432q-80 -55 -186 -55q-100 0 -155.5 53.5t-55.5 142.5q0 164 215 303h131q-231 -132 -231 -272q0 -53 31 -86t94 -33q75 0 133 49z" />
    <glyph glyph-name="uni0374" unicode="&#x374;" horiz-adv-x="540" 
d="M137 1001l158 592h168v-4l-230 -588h-96z" />
    <glyph glyph-name="uni037E" unicode="&#x37e;" horiz-adv-x="802" 
d="M311 836v208h183v-208h-183zM326 -332l-121 19q127 201 127 426q0 46 -6 94h149q8 -48 8 -98q0 -118 -41.5 -234t-115.5 -207z" />
    <glyph glyph-name="tonos" unicode="&#x384;" horiz-adv-x="491" 
d="M229 1212l-90 13l94 450h156v-4z" />
    <glyph glyph-name="dieresistonos" unicode="&#x385;" horiz-adv-x="1024" 
d="M502 1212l-90 13l88 450h149v-4zM707 1321v180h159v-180h-159zM158 1321v180h159v-180h-159z" />
    <glyph glyph-name="Alphatonos" unicode="&#x386;" horiz-adv-x="1411" 
d="M1208 0l-168 453h-673l-168 -453h-146l578 1520h149l578 -1520h-150zM182 1057l-90 12l94 451h156v-4zM414 575h579l-288 781z" />
    <glyph glyph-name="anoteleia" unicode="&#x387;" horiz-adv-x="706" 
d="M260 877v198h186v-198h-186z" />
    <glyph glyph-name="Epsilontonos" unicode="&#x388;" horiz-adv-x="1388" 
d="M1262 127v-127h-932v1520h915v-125h-774v-527h692v-127h-692v-614h791zM8 1057l-90 12l94 451h156v-4z" />
    <glyph glyph-name="Etatonos" unicode="&#x389;" horiz-adv-x="1650" 
d="M1296 0v741h-825v-741h-141v1520h141v-652h825v652h140v-1520h-140zM8 1057l-90 12l94 451h156v-4z" />
    <glyph glyph-name="Iotatonos" unicode="&#x38a;" horiz-adv-x="686" 
d="M330 0v1520h141v-1520h-141zM8 1057l-90 12l94 451h156v-4z" />
    <glyph glyph-name="Omicrontonos" unicode="&#x38c;" horiz-adv-x="1658" 
d="M862 -29q-147 0 -271 54.5t-212.5 154.5t-138.5 249t-50 331t50 331t139 249t212.5 154t270.5 54t270.5 -54t212.5 -154t139 -249t50 -331t-50 -331t-138.5 -249t-212.5 -154.5t-271 -54.5zM8 1057l-90 12l94 451h156v-4zM862 100q244 0 384 177t140 483
q0 304 -140.5 481.5t-383.5 177.5q-244 0 -384 -176.5t-140 -482.5q0 -304 140.5 -482t383.5 -178z" />
    <glyph glyph-name="Upsilontonos" unicode="&#x38e;" horiz-adv-x="1468" 
d="M1436 1520l-518 -920v-600h-142v596l-518 924h158l434 -795l432 795h154zM8 1057l-90 12l94 451h156v-4z" />
    <glyph glyph-name="Omegatonos" unicode="&#x38f;" horiz-adv-x="1720" 
d="M750 113v-113h-584v127h397q-368 309 -368 721q0 150 47.5 278.5t134.5 222t217 146.5t287 53t287 -53t217 -146.5t134.5 -222t47.5 -278.5q0 -414 -369 -721h397v-127h-583v113q131 104 218 209.5t138 238t51 281.5q0 263 -142.5 420t-395.5 157t-396 -157.5
t-143 -419.5q0 -220 104.5 -395.5t303.5 -333.5zM8 1057l-90 12l94 451h156v-4z" />
    <glyph glyph-name="iotadieresistonos" unicode="&#x390;" horiz-adv-x="587" 
d="M291 1212l-90 13l88 450h149v-4zM496 1321v180h159v-180h-159zM-53 1321v180h159v-180h-159zM524 4q-49 -16 -116 -16q-109 0 -161 54t-52 167v866h135v-833q0 -73 23.5 -103t82.5 -30q47 0 88 14v-119z" />
    <glyph glyph-name="Alpha" unicode="&#x391;" horiz-adv-x="1411" 
d="M1208 0l-168 453h-673l-168 -453h-146l578 1520h149l578 -1520h-150zM414 575h579l-288 781z" />
    <glyph glyph-name="Beta" unicode="&#x392;" horiz-adv-x="1382" 
d="M1257 414q0 -93 -27.5 -165t-75 -118t-115.5 -76t-143.5 -42.5t-164.5 -12.5h-516v1520h481q252 0 370 -97t118 -288q0 -275 -242 -342q315 -62 315 -379zM690 1395h-334v-555h336q80 0 140.5 13.5t109 45t73.5 87.5t25 136q0 150 -87 211.5t-263 61.5zM356 723v-598h371
q90 0 155.5 13t119 45t81 91t27.5 146q0 162 -95.5 232.5t-273.5 70.5h-385z" />
    <glyph glyph-name="Gamma" unicode="&#x393;" horiz-adv-x="1122" 
d="M1098 1393h-742v-1393h-141v1520h883v-127z" />
    <glyph glyph-name="uni0394" unicode="&#x394;" horiz-adv-x="1411" 
d="M780 1520l578 -1520h-1305l578 1520h149zM246 127h915l-456 1229z" />
    <glyph glyph-name="Epsilon" unicode="&#x395;" horiz-adv-x="1273" 
d="M1147 127v-127h-932v1520h915v-125h-774v-527h693v-127h-693v-614h791z" />
    <glyph glyph-name="Zeta" unicode="&#x396;" horiz-adv-x="1347" 
d="M1237 127v-127h-1133v121l938 1274h-899v125h1074v-117l-941 -1276h961z" />
    <glyph glyph-name="Eta" unicode="&#x397;" horiz-adv-x="1536" 
d="M1182 0v741h-826v-741h-141v1520h141v-652h826v652h139v-1520h-139z" />
    <glyph glyph-name="Theta" unicode="&#x398;" horiz-adv-x="1593" 
d="M797 -29q-147 0 -271 54.5t-212.5 154.5t-138.5 249t-50 331t50 331t139 249t212.5 154t270.5 54t270.5 -54t212.5 -154t138.5 -249t49.5 -331t-49.5 -331t-138.5 -249t-212.5 -154.5t-270.5 -54.5zM797 100q244 0 384 177t140 483q0 304 -140.5 481.5t-383.5 177.5
q-244 0 -384.5 -176.5t-140.5 -482.5q0 -303 140.5 -481.5t384.5 -178.5zM424 717v127h745v-127h-745z" />
    <glyph glyph-name="Iota" unicode="&#x399;" horiz-adv-x="571" 
d="M215 0v1520h141v-1520h-141z" />
    <glyph glyph-name="Kappa" unicode="&#x39a;" horiz-adv-x="1357" 
d="M1159 0l-618 745l-185 -184v-561h-141v1520h141v-797l774 797h183v-4l-678 -678l702 -834v-4h-178z" />
    <glyph glyph-name="Lambda" unicode="&#x39b;" horiz-adv-x="1411" 
d="M1208 0l-503 1356l-506 -1356h-146l578 1520h149l578 -1520h-150z" />
    <glyph glyph-name="Mu" unicode="&#x39c;" horiz-adv-x="1937" 
d="M926 0l-580 1360v-1360h-131v1520h207l547 -1287l547 1287h206v-1520h-137v1356l-577 -1356h-82z" />
    <glyph glyph-name="Nu" unicode="&#x39d;" horiz-adv-x="1585" 
d="M1225 0l-879 1303v-1303h-131v1520h145l879 -1303v1303h131v-1520h-145z" />
    <glyph glyph-name="Xi" unicode="&#x39e;" horiz-adv-x="1341" 
d="M143 1391v129h1055v-129h-1055zM225 739v129h891v-129h-891zM127 0v129h1087v-129h-1087z" />
    <glyph glyph-name="Omicron" unicode="&#x39f;" horiz-adv-x="1593" 
d="M797 -29q-147 0 -271 54.5t-212.5 154.5t-138.5 249t-50 331t50 331t139 249t212.5 154t270.5 54t270.5 -54t212.5 -154t138.5 -249t49.5 -331t-49.5 -331t-138.5 -249t-212.5 -154.5t-270.5 -54.5zM797 100q244 0 384 177t140 483q0 304 -140.5 481.5t-383.5 177.5
q-244 0 -384.5 -176.5t-140.5 -482.5q0 -303 140.5 -481.5t384.5 -178.5z" />
    <glyph glyph-name="Pi" unicode="&#x3a0;" horiz-adv-x="1519" 
d="M1165 0v1395h-809v-1395h-141v1520h1090v-1520h-140z" />
    <glyph glyph-name="Rho" unicode="&#x3a1;" horiz-adv-x="1310" 
d="M356 551v-551h-141v1520h463q266 0 410.5 -120.5t144.5 -361.5q0 -111 -32.5 -197.5t-85 -140t-127 -88t-152 -48t-166.5 -13.5h-314zM672 1395h-316v-719h308q68 0 124.5 8t114 32t96.5 62.5t63.5 103.5t24.5 152q0 361 -415 361z" />
    <glyph glyph-name="Sigma" unicode="&#x3a3;" horiz-adv-x="1347" 
d="M1245 127v-127h-1132v121l612 653l-594 629v117h1081v-125h-899l582 -613v-12l-602 -643h952z" />
    <glyph glyph-name="Tau" unicode="&#x3a4;" horiz-adv-x="1187" 
d="M1163 1395h-499v-1395h-140v1395h-499v125h1138v-125z" />
    <glyph glyph-name="Upsilon" unicode="&#x3a5;" horiz-adv-x="1247" 
d="M1212 1520l-518 -920v-600h-141v596l-518 924h158l434 -795l432 795h153z" />
    <glyph glyph-name="Phi" unicode="&#x3a6;" horiz-adv-x="1718" 
d="M1608 776q0 -122 -35 -226.5t-97.5 -182t-148 -133t-188 -84.5t-215.5 -31v-148h-131v148q-142 3 -265.5 48.5t-217 127t-147.5 206t-54 275.5t54 275.5t147.5 206.5t217 127.5t265.5 48.5v139h131v-139q142 -3 266 -48.5t217.5 -127.5t147 -206.5t53.5 -275.5zM254 776
q0 -125 41.5 -226.5t114.5 -168.5t171 -104.5t212 -40.5v1081q-153 -4 -274 -67t-193 -186t-72 -288zM1464 776q0 165 -72 288t-193 186t-275 67v-1081q154 4 275 66.5t193 185.5t72 288z" />
    <glyph glyph-name="Chi" unicode="&#x3a7;" horiz-adv-x="1327" 
d="M1090 0l-435 664l-426 -664h-155l510 772l-490 748h164l412 -637l407 637h156l-492 -742l512 -778h-163z" />
    <glyph glyph-name="Psi" unicode="&#x3a8;" horiz-adv-x="1656" 
d="M1511 1176q0 -206 -42.5 -354.5t-124.5 -236t-191.5 -127.5t-253.5 -40v-418h-141v418q-146 1 -255.5 41.5t-191.5 128.5t-124 235.5t-42 352.5v344h140v-351q0 -145 23 -254.5t63.5 -180t101.5 -114.5t129.5 -61.5t155.5 -17.5v979h141v-979q88 1 157.5 19t129.5 62
t99.5 115t62 179.5t22.5 252.5v351h141v-344z" />
    <glyph glyph-name="uni03A9" unicode="&#x3a9;" horiz-adv-x="1679" 
d="M709 113v-113h-584v127h397q-368 309 -368 721q0 150 47.5 278.5t134.5 222t217 146.5t287 53t287 -53t217 -146.5t134.5 -222t47.5 -278.5q0 -414 -369 -721h397v-127h-583v113q131 104 218 209.5t138 238t51 281.5q0 263 -142.5 420t-395.5 157t-396 -157.5
t-143 -419.5q0 -220 104.5 -395.5t303.5 -333.5z" />
    <glyph glyph-name="Iotadieresis" unicode="&#x3aa;" horiz-adv-x="571" 
d="M412 1720v178h161v-178h-161zM0 1720v178h162v-178h-162zM215 0v1520h141v-1520h-141z" />
    <glyph glyph-name="Upsilondieresis" unicode="&#x3ab;" horiz-adv-x="1247" 
d="M748 1720v178h161v-178h-161zM336 1720v178h162v-178h-162zM1212 1520l-518 -920v-600h-141v596l-518 924h158l434 -795l432 795h153z" />
    <glyph glyph-name="alphatonos" unicode="&#x3ac;" horiz-adv-x="1304" 
d="M694 1212l-90 13l94 450h156v-4zM1137 -12q-191 0 -213 237q-115 -250 -363 -250q-91 0 -171 33.5t-143 98.5t-99.5 171t-36.5 240q0 266 134.5 424t342.5 158q269 0 366 -275l33 250h135q-50 -262 -70 -401.5t-20 -267.5q0 -160 32 -228.5t107 -68.5q39 0 80 14v-119
q-52 -16 -114 -16zM250 520q0 -108 26 -191t71.5 -133t102 -75t121.5 -25q141 0 230.5 114t109.5 318l9 82q-51 369 -322 369q-159 0 -253.5 -124t-94.5 -335z" />
    <glyph glyph-name="epsilontonos" unicode="&#x3ad;" horiz-adv-x="1048" 
d="M596 1212l-90 13l94 450h156v-4zM965 94q-164 -119 -414 -119q-210 0 -325 79.5t-115 219.5q0 99 62 173.5t185 111.5q-219 60 -219 244q0 136 116 216.5t318 80.5q224 0 363 -90l-29 -125q-147 94 -342 94q-138 0 -213.5 -47t-75.5 -133q0 -181 342 -181h144v-116h-162
q-167 0 -259.5 -58.5t-92.5 -158.5q0 -97 86 -144t229 -47q122 0 208 31.5t165 89.5z" />
    <glyph glyph-name="etatonos" unicode="&#x3ae;" horiz-adv-x="1275" 
d="M702 1212l-90 13l95 450h155v-4zM1100 707v-1162h-135v1135q0 149 -64 222t-182 73q-116 0 -208 -65t-140 -173v-737h-135v836q0 70 -24 99.5t-73 29.5q-34 0 -59 -11v117q46 16 94 16q188 0 188 -200q143 213 383 213q166 0 260.5 -102.5t94.5 -290.5z" />
    <glyph glyph-name="iotatonos" unicode="&#x3af;" horiz-adv-x="587" 
d="M303 1212l-90 13l94 450h156v-4zM524 4q-49 -16 -116 -16q-109 0 -161 54t-52 167v866h135v-833q0 -73 23.5 -103t82.5 -30q47 0 88 14v-119z" />
    <glyph glyph-name="upsilondieresistonos" unicode="&#x3b0;" horiz-adv-x="1218" 
d="M565 1212l-90 13l88 450h150v-4zM770 1321v180h160v-180h-160zM221 1321v180h160v-180h-160zM174 1075h135v-633q0 -170 81 -259t224 -89q328 0 328 481q0 241 -92 500h133q94 -245 94 -500q0 -136 -27.5 -244.5t-83.5 -188.5t-147.5 -123.5t-212.5 -43.5
q-203 0 -317.5 119t-114.5 334v647z" />
    <glyph glyph-name="alpha" unicode="&#x3b1;" horiz-adv-x="1304" 
d="M1137 -12q-191 0 -213 237q-115 -250 -363 -250q-91 0 -171 33.5t-143 98.5t-99.5 171t-36.5 240q0 266 134.5 424t342.5 158q269 0 366 -275l33 250h135q-50 -262 -70 -401.5t-20 -267.5q0 -160 32 -228.5t107 -68.5q39 0 80 14v-119q-52 -16 -114 -16zM250 520
q0 -108 26 -191t71.5 -133t102 -75t121.5 -25q141 0 230.5 114t109.5 318l9 82q-51 369 -322 369q-159 0 -253.5 -124t-94.5 -335z" />
    <glyph glyph-name="beta" unicode="&#x3b2;" horiz-adv-x="1255" 
d="M666 -25q-209 0 -340 131v-561h-136v1559q0 134 35.5 234.5t98.5 158.5t140.5 85.5t170.5 27.5q194 0 311 -109t117 -289q0 -137 -68.5 -230.5t-187.5 -129.5q157 -37 247.5 -147.5t90.5 -276.5q0 -202 -132.5 -327.5t-346.5 -125.5zM326 1108v-866q113 -148 325 -148
q166 0 260.5 92.5t94.5 253.5q0 160 -99 251t-299 91h-94v117h104q150 0 229 82.5t79 218.5q0 135 -77.5 213t-213.5 78q-141 0 -225 -91t-84 -292z" />
    <glyph glyph-name="gamma" unicode="&#x3b3;" horiz-adv-x="1157" 
d="M1139 1075q-180 -319 -319 -621.5t-199 -506.5l-21 -402h-151l40 424q-23 200 -68.5 419t-96.5 360q-42 117 -93.5 168t-132.5 51q-50 0 -88 -17l-12 125q55 17 119 17q97 0 165.5 -46.5t124 -160t96.5 -287.5t81 -446q63 196 167.5 446t231.5 477h156z" />
    <glyph glyph-name="delta" unicode="&#x3b4;" horiz-adv-x="1226" 
d="M1120 498q0 -229 -136.5 -376t-369.5 -147q-227 0 -365 139.5t-138 368.5q0 95 25.5 175.5t68 139t102.5 104.5t123.5 74.5t136.5 47.5q-65 40 -106.5 70.5t-82 72t-60 89.5t-19.5 104q0 118 88 185t262 67q267 0 479 -166l-28 -127q-120 90 -230 132t-239 42
q-95 0 -146 -35.5t-51 -101.5q0 -38 16 -70.5t55 -66t77.5 -59t109.5 -68.5q43 -26 68 -41.5t66 -43.5t66 -49.5t59.5 -54t56 -62t45 -69.5t37 -80.5t22 -90t8.5 -103.5zM248 489q0 -184 105 -289.5t263 -105.5q165 0 266 113t101 295q0 69 -16.5 128.5t-42 103.5t-67 85
t-81 69.5t-94.5 61.5q-64 -8 -124 -29t-117 -58.5t-99.5 -88.5t-68 -124.5t-25.5 -160.5z" />
    <glyph glyph-name="epsilon" unicode="&#x3b5;" horiz-adv-x="1048" 
d="M965 94q-164 -119 -414 -119q-210 0 -325 79.5t-115 219.5q0 99 62 173.5t185 111.5q-219 60 -219 244q0 136 116 216.5t318 80.5q224 0 363 -90l-29 -125q-147 94 -342 94q-138 0 -213.5 -47t-75.5 -133q0 -181 342 -181h144v-116h-162q-167 0 -259.5 -58.5
t-92.5 -158.5q0 -97 86 -144t229 -47q122 0 208 31.5t165 89.5z" />
    <glyph glyph-name="zeta" unicode="&#x3b6;" horiz-adv-x="954" 
d="M946 -106q0 -181 -174 -349l-117 54q158 152 158 268q0 25 -6 43.5t-22 34t-33 25.5t-52 21t-65 18.5t-84 19.5q-79 18 -134.5 35t-117.5 49t-99 72.5t-62 105t-25 147.5q0 221 164 492.5t489 546.5q-59 -2 -141 -2q-332 0 -451 22v117q141 -25 498 -25q74 0 278 4v-106
q-184 -145 -323.5 -295.5t-219 -283t-118.5 -247t-39 -210.5q0 -46 10 -83t25 -64t43 -49.5t53.5 -37t67.5 -28.5t74.5 -22t84.5 -20q161 -35 218 -62q102 -48 117 -148q3 -20 3 -43z" />
    <glyph glyph-name="eta" unicode="&#x3b7;" horiz-adv-x="1275" 
d="M1100 707v-1162h-135v1135q0 149 -64 222t-182 73q-116 0 -208 -65t-140 -173v-737h-135v836q0 70 -24 99.5t-73 29.5q-34 0 -59 -11v117q46 16 94 16q188 0 188 -200q143 213 383 213q166 0 260.5 -102.5t94.5 -290.5z" />
    <glyph glyph-name="theta" unicode="&#x3b8;" horiz-adv-x="1218" 
d="M610 -25q-233 0 -358 211.5t-125 606.5t125 606t358 211q232 0 357 -211.5t125 -605.5t-125 -606t-357 -212zM610 1491q-331 0 -346 -631h690q-15 631 -344 631zM610 94q335 0 344 651h-690q9 -651 346 -651z" />
    <glyph glyph-name="iota" unicode="&#x3b9;" horiz-adv-x="587" 
d="M524 4q-49 -16 -116 -16q-109 0 -161 54t-52 167v866h135v-833q0 -73 23.5 -103t82.5 -30q47 0 88 14v-119z" />
    <glyph glyph-name="kappa" unicode="&#x3ba;" horiz-adv-x="1132" 
d="M926 0l-418 561q-44 -59 -186 -258v-303h-136v1075h136v-598q106 162 186 268t162.5 189t160.5 120.5t160 37.5q46 0 80 -17l-10 -125q-39 17 -76 17q-89 0 -179.5 -69t-221.5 -234l508 -660v-4h-166z" />
    <glyph glyph-name="lambda" unicode="&#x3bb;" horiz-adv-x="1134" 
d="M934 0l-336 907l-371 -907h-147l455 1059q-69 191 -112.5 277.5t-86 117.5t-111.5 31q-63 0 -112 -21l-13 123q75 23 150 23q57 0 98.5 -13.5t77 -41.5t69.5 -84t66 -127.5t76 -186.5l442 -1157h-145z" />
    <glyph glyph-name="uni03BC" unicode="&#x3bc;" horiz-adv-x="1292" 
d="M571 -25q-174 0 -258 125l17 -555h-135v1530h135v-680q0 -148 66.5 -221.5t185.5 -73.5q69 0 128.5 23t100 61t68 78t43.5 82v731h135v-835q0 -71 24.5 -101t73.5 -30q39 0 74 14v-119q-47 -16 -107 -16q-93 0 -139.5 46t-50.5 144q-59 -91 -152.5 -147t-208.5 -56z" />
    <glyph glyph-name="nu" unicode="&#x3bd;" horiz-adv-x="1103" 
d="M985 1075q-1 -284 -112 -564.5t-302 -510.5h-114q-182 657 -414 1075h152q183 -350 348 -932q144 199 223.5 439.5t79.5 492.5h139z" />
    <glyph glyph-name="xi" unicode="&#x3be;" horiz-adv-x="1003" 
d="M969 -104q0 -183 -176 -351l-117 54q160 150 160 276q0 67 -56.5 93.5t-232.5 60.5q-69 13 -120 27.5t-113.5 45t-102 70t-67 104.5t-27.5 148q0 156 89 264.5t255 149.5q-136 35 -205.5 121t-69.5 200q0 121 75.5 207.5t203.5 120.5q-255 3 -340 18v109q141 -25 514 -25
q81 0 281 4v-116h-127q-130 0 -225 -27.5t-146 -73.5t-74.5 -97.5t-23.5 -109.5q0 -127 98.5 -198.5t259.5 -71.5h180v-123h-196q-196 0 -304 -93.5t-108 -246.5q0 -44 10 -80t25.5 -62t43 -47.5t54 -36t66.5 -27t73 -20t82 -16.5l70.5 -13.5t62 -13.5t58 -16t48.5 -18.5
t43.5 -23.5t32.5 -29t26 -36.5t14 -45t6 -55.5z" />
    <glyph glyph-name="omicron" unicode="&#x3bf;" horiz-adv-x="1222" 
d="M612 -25q-222 0 -364 151t-142 411t142 411.5t364 151.5q144 0 257.5 -66t180 -195t66.5 -302q0 -130 -38.5 -236.5t-106 -177.5t-159.5 -109.5t-200 -38.5zM612 94q167 0 266 120t99 323q0 204 -98.5 323t-266.5 119q-169 0 -267.5 -119t-98.5 -323q0 -203 99 -323
t267 -120z" />
    <glyph glyph-name="uni03C0" unicode="&#x3c0;" horiz-adv-x="1333" 
d="M1198 4q-49 -16 -121 -16q-113 0 -162 57.5t-49 185.5v727h-411q-4 -653 -133 -958h-146q81 188 112.5 427t33.5 531h-240v117h1151v-117h-232v-710q0 -77 23 -108t84 -31q49 0 90 14v-119z" />
    <glyph glyph-name="rho" unicode="&#x3c1;" horiz-adv-x="1263" 
d="M662 -25q-228 0 -359 170v-600h-135v981q0 150 39.5 263.5t109 179.5t155.5 98.5t187 32.5q225 0 361.5 -147t136.5 -406q0 -262 -138 -417t-357 -155zM303 309q54 -109 141.5 -162t196.5 -53q168 0 272.5 120.5t104.5 330.5q0 204 -100 317t-263 113q-158 0 -255 -112.5
t-97 -336.5v-217z" />
    <glyph glyph-name="sigma1" unicode="&#x3c2;" horiz-adv-x="1036" 
d="M750 -455l-117 54q158 149 158 272q0 68 -49 99.5t-191 74.5q-226 68 -335.5 192t-109.5 338q0 114 29.5 205t78.5 150t116.5 98t140 55.5t152.5 16.5q179 0 313 -90l-29 -125q-72 46 -136.5 70t-149.5 24q-171 0 -274 -102.5t-103 -303.5q0 -170 88 -262.5t270 -146.5
q61 -18 97 -30t78.5 -29.5t65 -35.5t43.5 -43.5t29.5 -57.5t8.5 -74q0 -181 -174 -349z" />
    <glyph glyph-name="sigma" unicode="&#x3c3;" horiz-adv-x="1292" 
d="M1110 496q0 -163 -67.5 -283t-179.5 -179t-253 -59q-225 0 -364.5 148.5t-139.5 400.5q0 133 41 238.5t114.5 173.5t172 103.5t215.5 35.5h586v-117h-348q223 -168 223 -462zM610 94q166 0 263.5 106.5t97.5 301.5q0 155 -60.5 273.5t-162.5 182.5h-101
q-190 0 -295.5 -114t-105.5 -322q0 -196 96 -312t268 -116z" />
    <glyph glyph-name="tau" unicode="&#x3c4;" horiz-adv-x="985" 
d="M752 12q-58 -24 -152 -24q-113 0 -162 57.5t-49 185.5v727h-358v117h913v-117h-420v-718q0 -70 23 -100.5t84 -30.5q63 0 114 22z" />
    <glyph glyph-name="upsilon" unicode="&#x3c5;" horiz-adv-x="1218" 
d="M174 1075h135v-633q0 -170 81 -259t224 -89q328 0 328 481q0 241 -92 500h133q94 -245 94 -500q0 -136 -27.5 -244.5t-83.5 -188.5t-147.5 -123.5t-212.5 -43.5q-203 0 -317.5 119t-114.5 334v647z" />
    <glyph glyph-name="phi" unicode="&#x3c6;" horiz-adv-x="1492" 
d="M240 537q0 -136 61.5 -238.5t160.5 -155t220 -55.5v899q-121 -4 -220 -56t-160.5 -154.5t-61.5 -239.5zM1251 537q0 137 -61 239.5t-160 154.5t-221 56v-899q188 5 315 125.5t127 323.5zM682 1587h127v-487q119 -5 223.5 -45t184.5 -109.5t126 -175t46 -233.5t-46 -233
t-126 -174.5t-184.5 -109.5t-223.5 -45v-430h-127v430q-119 5 -223 45t-184 109.5t-126.5 174.5t-46.5 233t46.5 233.5t126.5 175t184 109.5t223 45v487z" />
    <glyph glyph-name="chi" unicode="&#x3c7;" horiz-adv-x="1079" 
d="M1065 -453q-65 -18 -123 -18q-100 0 -156 67.5t-135 266.5l-135 340l-354 -658h-152v4l451 787l-133 336q-30 78 -46.5 116.5t-38 80.5t-39 59t-40 28t-51.5 11t-78 -17l-12 123q68 19 120 19q37 0 65 -6.5t53.5 -26.5t44 -42t41.5 -67.5t41 -87.5t48 -117l117 -292
l332 622h151v-4l-432 -747l156 -390q68 -169 107.5 -224.5t107.5 -55.5q32 0 78 16z" />
    <glyph glyph-name="psi" unicode="&#x3c8;" horiz-adv-x="1587" 
d="M1446 668q0 -673 -586 -686v-437h-131v437q-136 2 -239.5 41t-180 119.5t-116 213t-39.5 314.5v405h135v-411q0 -125 20.5 -221t57.5 -160t92.5 -105t121 -59.5t148.5 -20.5v1415h131v-1415q110 2 192 34t141 99.5t88.5 177.5t29.5 263q0 205 -68 403h133
q70 -203 70 -407z" />
    <glyph glyph-name="omega" unicode="&#x3c9;" horiz-adv-x="1738" 
d="M1622 483q0 -237 -109 -372.5t-296 -135.5q-128 0 -218 65.5t-131 188.5q-40 -123 -129 -188.5t-217 -65.5q-187 0 -297 136t-110 372q0 186 65.5 341t161.5 251l145 -18q-235 -246 -235 -563q0 -185 75 -292.5t210 -107.5q136 0 200 113t64 307v285h135v-285
q0 -194 65 -307t201 -113q135 0 209 107.5t74 292.5q0 318 -234 563l144 18q97 -95 162 -250t65 -342z" />
    <glyph glyph-name="iotadieresis" unicode="&#x3ca;" horiz-adv-x="587" 
d="M395 1321v180h162v-180h-162zM-16 1321v180h161v-180h-161zM524 4q-49 -16 -116 -16q-109 0 -161 54t-52 167v866h135v-833q0 -73 23.5 -103t82.5 -30q47 0 88 14v-119z" />
    <glyph glyph-name="upsilondieresis" unicode="&#x3cb;" horiz-adv-x="1218" 
d="M700 1321v180h162v-180h-162zM289 1321v180h162v-180h-162zM174 1075h135v-633q0 -170 81 -259t224 -89q328 0 328 481q0 241 -92 500h133q94 -245 94 -500q0 -136 -27.5 -244.5t-83.5 -188.5t-147.5 -123.5t-212.5 -43.5q-203 0 -317.5 119t-114.5 334v647z" />
    <glyph glyph-name="omicrontonos" unicode="&#x3cc;" horiz-adv-x="1222" 
d="M662 1212l-91 13l95 450h155v-4zM612 -25q-222 0 -364 151t-142 411t142 411.5t364 151.5q144 0 257.5 -66t180 -195t66.5 -302q0 -130 -38.5 -236.5t-106 -177.5t-159.5 -109.5t-200 -38.5zM612 94q167 0 266 120t99 323q0 204 -98.5 323t-266.5 119q-169 0 -267.5 -119
t-98.5 -323q0 -203 99 -323t267 -120z" />
    <glyph glyph-name="upsilontonos" unicode="&#x3cd;" horiz-adv-x="1218" 
d="M610 1212l-90 13l94 450h156v-4zM174 1075h135v-633q0 -170 81 -259t224 -89q328 0 328 481q0 241 -92 500h133q94 -245 94 -500q0 -136 -27.5 -244.5t-83.5 -188.5t-147.5 -123.5t-212.5 -43.5q-203 0 -317.5 119t-114.5 334v647z" />
    <glyph glyph-name="omegatonos" unicode="&#x3ce;" horiz-adv-x="1738" 
d="M918 1212l-91 13l95 450h155v-4zM1622 483q0 -237 -109 -372.5t-296 -135.5q-128 0 -218 65.5t-131 188.5q-40 -123 -129 -188.5t-217 -65.5q-187 0 -297 136t-110 372q0 186 65.5 341t161.5 251l145 -18q-235 -246 -235 -563q0 -185 75 -292.5t210 -107.5q136 0 200 113
t64 307v285h135v-285q0 -194 65 -307t201 -113q135 0 209 107.5t74 292.5q0 318 -234 563l144 18q97 -95 162 -250t65 -342z" />
    <glyph glyph-name="uni0400" unicode="&#x400;" horiz-adv-x="1273" 
d="M741 1638l-387 279l125 90l334 -317zM1147 127v-127h-932v1520h915v-125h-774v-527h693v-127h-693v-614h791z" />
    <glyph glyph-name="uni0401" unicode="&#x401;" horiz-adv-x="1273" 
d="M799 1720v178h162v-178h-162zM387 1720v178h162v-178h-162zM1147 127v-127h-932v1520h915v-125h-774v-527h693v-127h-693v-614h791z" />
    <glyph glyph-name="uni0402" unicode="&#x402;" horiz-adv-x="1603" 
d="M1509 436q0 -103 -29 -185.5t-74.5 -133.5t-106.5 -85t-120 -47.5t-120 -13.5q-54 0 -117.5 10t-97.5 23l12 125q31 -14 88 -25.5t105 -11.5q55 0 107 16.5t101.5 53t80 106t30.5 164.5q0 92 -29.5 157.5t-87 103t-132.5 54.5t-175 17q-170 0 -321 -43v-721h-140v1395
h-458v125h1138v-125h-540v-549q171 43 342 43q544 0 544 -453z" />
    <glyph glyph-name="uni0403" unicode="&#x403;" horiz-adv-x="1122" 
d="M547 1638l-72 52l334 317l125 -90zM1098 1393h-742v-1393h-141v1520h883v-127z" />
    <glyph glyph-name="uni0404" unicode="&#x404;" horiz-adv-x="1394" 
d="M1288 121q-83 -71 -207.5 -110.5t-263.5 -39.5q-319 0 -505.5 208.5t-186.5 580.5q0 374 189 581t520 207q276 0 442 -143l-47 -131q-148 145 -400 145q-247 0 -389 -147.5t-164 -411.5h764v-125h-768q4 -156 46.5 -278t116.5 -199.5t172.5 -117.5t217.5 -40
q128 0 243 43.5t189 114.5z" />
    <glyph glyph-name="uni0405" unicode="&#x405;" horiz-adv-x="1220" 
d="M106 135l44 137q203 -172 458 -172q184 0 273.5 75.5t89.5 203.5q0 36 -6 67t-21.5 56.5t-31.5 45.5t-46 39.5t-54 32.5t-66.5 29.5t-73 27.5t-84.5 28q-59 19 -94 31.5t-88 35t-85 43.5t-70 54t-58.5 69.5t-35 86.5t-14.5 108q0 185 125.5 300t364.5 115q246 0 414 -133
l-41 -137q-166 141 -379 141q-174 0 -258 -76t-84 -196q0 -52 16.5 -93t44 -71t79 -58t105.5 -49t140 -49q46 -15 74.5 -24.5t70.5 -26t69 -30.5t61.5 -35.5t56 -43t45 -51t36 -62t21 -73.5t8.5 -88q0 -195 -129 -308.5t-379 -113.5q-288 0 -498 164z" />
    <glyph glyph-name="uni0406" unicode="&#x406;" horiz-adv-x="571" 
d="M215 0v1520h141v-1520h-141z" />
    <glyph glyph-name="uni0407" unicode="&#x407;" horiz-adv-x="571" 
d="M389 1720v178h162v-178h-162zM20 1720v178h162v-178h-162zM215 0v1520h141v-1520h-141z" />
    <glyph glyph-name="uni0408" unicode="&#x408;" horiz-adv-x="833" 
d="M4 10l8 133q92 -45 213 -45q90 0 147 31t89.5 110.5t32.5 213.5v1067h139v-1057q0 -136 -28.5 -233t-83.5 -153t-128 -81t-170 -25q-130 0 -219 39z" />
    <glyph glyph-name="uni0409" unicode="&#x409;" horiz-adv-x="2203" 
d="M1255 1520v-652h322q537 0 537 -432q0 -98 -28.5 -174t-77.5 -125t-119.5 -80t-147.5 -44t-168 -13h-459v1395h-420q-23 -151 -42.5 -267.5t-42.5 -238t-44.5 -212t-46.5 -181.5t-51.5 -156t-58 -125.5t-66 -100t-75 -69.5t-86.5 -43.5t-99 -13.5q-40 0 -78 10v125
q28 -8 66 -8q53 0 98.5 28t84 80.5t74 141t65.5 195.5t61.5 259.5t59 317t60.5 383.5h682zM1567 743h-312v-618h308q71 0 127 7.5t110 28t90 53.5t58 88.5t22 129.5q0 87 -28.5 148.5t-83.5 96.5t-126 50.5t-165 15.5z" />
    <glyph glyph-name="uni040A" unicode="&#x40a;" horiz-adv-x="2230" 
d="M1280 1520v-652h324q536 0 536 -432q0 -98 -28.5 -174t-77.5 -125t-119.5 -80t-148 -44t-169.5 -13h-456v743h-785v-743h-141v1520h141v-652h785v652h139zM1591 743h-311v-618h309q90 0 157.5 13t126.5 45t90.5 94.5t31.5 154.5q0 87 -28.5 148.5t-84 96.5t-126.5 50.5
t-165 15.5z" />
    <glyph glyph-name="uni040B" unicode="&#x40b;" horiz-adv-x="1624" 
d="M623 682v-682h-140v1395h-458v125h1138v-125h-540v-586q83 43 192.5 69.5t212.5 26.5q214 0 325 -108t111 -312v-485h-139v459q0 170 -79 243.5t-247 73.5q-106 0 -209.5 -26.5t-166.5 -67.5z" />
    <glyph glyph-name="uni040C" unicode="&#x40c;" horiz-adv-x="1345" 
d="M586 1638l-72 52l334 317l125 -90zM215 1520h141v-736l764 736h185v-4l-787 -730l805 -782v-4h-186l-781 764v-764h-141v1520z" />
    <glyph glyph-name="uni040D" unicode="&#x40d;" horiz-adv-x="1568" 
d="M872 1638l-387 279l125 90l334 -317zM1214 0v1286l-866 -1286h-133v1520h141v-1284l865 1284h133v-1520h-140z" />
    <glyph glyph-name="uni040E" unicode="&#x40e;" horiz-adv-x="1306" 
d="M301 1968l117 8q3 -115 72.5 -171t181.5 -56t181.5 56t72.5 171l116 -8q-6 -161 -106.5 -240t-263.5 -79t-264 79t-107 240zM825 469q-68 -158 -123 -254.5t-113 -151t-114.5 -73.5t-136.5 -19q-93 0 -162 29l6 129q61 -31 160 -31q96 0 160.5 58.5t138.5 216.5
l-578 1147h154l494 -1010l422 1010h147z" />
    <glyph glyph-name="uni040F" unicode="&#x40f;" horiz-adv-x="1519" 
d="M1305 0h-480v-455h-131v455h-479v1520h141v-1395h809v1395h140v-1520z" />
    <glyph glyph-name="uni0410" unicode="&#x410;" horiz-adv-x="1411" 
d="M1208 0l-168 453h-673l-168 -453h-146l578 1520h149l578 -1520h-150zM414 575h579l-288 781z" />
    <glyph glyph-name="uni0411" unicode="&#x411;" horiz-adv-x="1339" 
d="M1116 1395h-760v-529h334q273 0 408 -111t135 -319q0 -97 -29 -173t-78.5 -125t-120 -80.5t-149 -44.5t-170.5 -13h-471v1520h901v-125zM678 741h-322v-616h322q89 0 157.5 13t128 45.5t91.5 95t32 153.5q0 86 -29 147.5t-84.5 96t-128 50t-167.5 15.5z" />
    <glyph glyph-name="uni0412" unicode="&#x412;" horiz-adv-x="1382" 
d="M1257 414q0 -93 -27.5 -165t-75 -118t-115.5 -76t-143.5 -42.5t-164.5 -12.5h-516v1520h481q252 0 370 -97t118 -288q0 -275 -242 -342q315 -62 315 -379zM690 1395h-334v-555h336q80 0 140.5 13.5t109 45t73.5 87.5t25 136q0 150 -87 211.5t-263 61.5zM356 723v-598h371
q90 0 155.5 13t119 45t81 91t27.5 146q0 162 -95.5 232.5t-273.5 70.5h-385z" />
    <glyph glyph-name="uni0413" unicode="&#x413;" horiz-adv-x="1122" 
d="M1098 1393h-742v-1393h-141v1520h883v-127z" />
    <glyph glyph-name="uni0414" unicode="&#x414;" horiz-adv-x="1527" 
d="M16 -434v561h76q151 123 269 472t186 921h708v-1393h201v-561h-131v434h-1178v-434h-131zM276 127h840v1268h-450q-119 -916 -390 -1268z" />
    <glyph glyph-name="uni0415" unicode="&#x415;" horiz-adv-x="1273" 
d="M1147 127v-127h-932v1520h915v-125h-774v-527h693v-127h-693v-614h791z" />
    <glyph glyph-name="uni0416" unicode="&#x416;" horiz-adv-x="1976" 
d="M920 0v1520h137v-1520h-137zM1948 4v-4h-187l-702 764v20l694 736h180v-4l-719 -732zM918 764l-703 -764h-184v4l733 776l-721 736v4h180l695 -736v-20z" />
    <glyph glyph-name="uni0417" unicode="&#x417;" horiz-adv-x="1245" 
d="M1124 420q0 -214 -146 -331.5t-394 -117.5q-145 0 -268 39t-212 103l29 141q192 -154 449 -154q187 0 293 81.5t106 234.5q0 303 -438 303h-197v127h186q194 0 303 79t109 224q0 127 -86.5 198.5t-253.5 71.5q-246 0 -416 -139l-47 127q95 71 219 106t252 35
q227 0 351 -104.5t124 -286.5q0 -143 -77 -235.5t-217 -128.5q331 -64 331 -373z" />
    <glyph glyph-name="uni0418" unicode="&#x418;" horiz-adv-x="1568" 
d="M1214 0v1286l-866 -1286h-133v1520h141v-1284l865 1284h133v-1520h-140z" />
    <glyph glyph-name="uni0419" unicode="&#x419;" horiz-adv-x="1568" 
d="M414 1968l116 8q3 -115 72.5 -171t181.5 -56t181.5 56t72.5 171l117 -8q-6 -161 -107 -240t-264 -79t-263.5 79t-106.5 240zM1214 0v1286l-866 -1286h-133v1520h141v-1284l865 1284h133v-1520h-140z" />
    <glyph glyph-name="uni041A" unicode="&#x41a;" horiz-adv-x="1345" 
d="M215 1520h141v-736l764 736h185v-4l-787 -730l805 -782v-4h-186l-781 764v-764h-141v1520z" />
    <glyph glyph-name="uni041B" unicode="&#x41b;" horiz-adv-x="1486" 
d="M1130 0v1395h-436q-23 -151 -42.5 -267.5t-42.5 -238t-44.5 -212t-46.5 -181.5t-51.5 -156t-58 -125.5t-66 -100t-75 -69.5t-86.5 -43.5t-99 -13.5q-36 0 -78 10v125q28 -8 66 -8q53 0 98.5 28t84 80.5t74 141t65.5 195.5t61.5 259.5t59 317t60.5 383.5h699v-1520h-142z
" />
    <glyph glyph-name="uni041C" unicode="&#x41c;" horiz-adv-x="1937" 
d="M926 0l-580 1360v-1360h-131v1520h207l547 -1287l547 1287h206v-1520h-137v1356l-577 -1356h-82z" />
    <glyph glyph-name="uni041D" unicode="&#x41d;" horiz-adv-x="1536" 
d="M1182 0v741h-826v-741h-141v1520h141v-652h826v652h139v-1520h-139z" />
    <glyph glyph-name="uni041E" unicode="&#x41e;" horiz-adv-x="1593" 
d="M797 -29q-147 0 -271 54.5t-212.5 154.5t-138.5 249t-50 331t50 331t139 249t212.5 154t270.5 54t270.5 -54t212.5 -154t138.5 -249t49.5 -331t-49.5 -331t-138.5 -249t-212.5 -154.5t-270.5 -54.5zM797 100q244 0 384 177t140 483q0 304 -140.5 481.5t-383.5 177.5
q-244 0 -384.5 -176.5t-140.5 -482.5q0 -303 140.5 -481.5t384.5 -178.5z" />
    <glyph glyph-name="uni041F" unicode="&#x41f;" horiz-adv-x="1519" 
d="M1165 0v1395h-809v-1395h-141v1520h1090v-1520h-140z" />
    <glyph glyph-name="uni0420" unicode="&#x420;" horiz-adv-x="1310" 
d="M356 551v-551h-141v1520h463q266 0 410.5 -120.5t144.5 -361.5q0 -111 -32.5 -197.5t-85 -140t-127 -88t-152 -48t-166.5 -13.5h-314zM672 1395h-316v-719h308q68 0 124.5 8t114 32t96.5 62.5t63.5 103.5t24.5 152q0 361 -415 361z" />
    <glyph glyph-name="uni0421" unicode="&#x421;" horiz-adv-x="1419" 
d="M1323 150q-85 -80 -210.5 -129.5t-281.5 -49.5q-322 0 -514 210.5t-192 578.5q0 186 52 335t145.5 248.5t225 152t290.5 52.5q281 0 465 -162l-46 -137q-175 170 -421 170q-265 0 -414.5 -174.5t-149.5 -482.5q0 -317 156.5 -489.5t409.5 -172.5q263 0 448 185z" />
    <glyph glyph-name="uni0422" unicode="&#x422;" horiz-adv-x="1187" 
d="M1163 1395h-499v-1395h-140v1395h-499v125h1138v-125z" />
    <glyph glyph-name="uni0423" unicode="&#x423;" horiz-adv-x="1306" 
d="M825 469q-68 -158 -123 -254.5t-113 -151t-114.5 -73.5t-136.5 -19q-93 0 -162 29l6 129q61 -31 160 -31q96 0 160.5 58.5t138.5 216.5l-578 1147h154l494 -1010l422 1010h147z" />
    <glyph glyph-name="uni0424" unicode="&#x424;" horiz-adv-x="1726" 
d="M928 168v-205h-131v205q-321 0 -504.5 155t-183.5 441t183.5 441t504.5 155v196h131v-196q321 0 504.5 -155t183.5 -441t-183.5 -441t-504.5 -155zM938 1241h-10v-954h10q116 0 211.5 27.5t169.5 83t115 149t41 217.5t-41 217.5t-115 149t-169.5 83t-211.5 27.5zM788 287
h9v954h-9q-116 0 -211 -27.5t-169 -83t-115 -149t-41 -217.5t41 -217.5t115 -149t169 -83t211 -27.5z" />
    <glyph glyph-name="uni0425" unicode="&#x425;" horiz-adv-x="1327" 
d="M1090 0l-435 664l-426 -664h-155l510 772l-490 748h164l412 -637l407 637h156l-492 -742l512 -778h-163z" />
    <glyph glyph-name="uni0426" unicode="&#x426;" horiz-adv-x="1562" 
d="M1493 127v-561h-131v434h-1147v1520h141v-1393h797v1393h139v-1393h201z" />
    <glyph glyph-name="uni0427" unicode="&#x427;" horiz-adv-x="1398" 
d="M1182 1520v-1520h-140v645q-182 -100 -413 -100t-350 112.5t-119 331.5v531h139v-504q0 -184 85.5 -264t270.5 -80q117 0 218.5 28.5t168.5 73.5v746h140z" />
    <glyph glyph-name="uni0428" unicode="&#x428;" horiz-adv-x="2029" 
d="M1815 1520v-1520h-1600v1520h141v-1393h588v1393h141v-1393h588v1393h142z" />
    <glyph glyph-name="uni0429" unicode="&#x429;" horiz-adv-x="2084" 
d="M2015 127v-561h-131v434h-1669v1520h141v-1393h588v1393h141v-1393h588v1393h142v-1393h200z" />
    <glyph glyph-name="uni042A" unicode="&#x42a;" horiz-adv-x="1558" 
d="M590 1520v-625h330q546 0 546 -444q0 -451 -553 -451h-462v1393h-439v127h578zM911 770h-321v-645h317q74 0 132 7.5t113 29t91 56.5t58 92.5t22 135.5q0 91 -29 155t-85 100.5t-128.5 52.5t-169.5 16z" />
    <glyph glyph-name="uni042B" unicode="&#x42b;" horiz-adv-x="1814" 
d="M356 1520v-625h306q546 0 546 -444q0 -451 -553 -451h-440v1520h141zM1458 0v1520h141v-1520h-141zM653 770h-297v-645h295q73 0 130.5 7.5t112.5 29t91 56.5t58 92.5t22 135.5q0 91 -29 155t-85 100.5t-128.5 52.5t-169.5 16z" />
    <glyph glyph-name="uni042C" unicode="&#x42c;" horiz-adv-x="1335" 
d="M356 1520v-625h340q549 0 549 -444q0 -102 -29 -180.5t-79 -129t-122 -83t-151.5 -45.5t-173.5 -13h-475v1520h141zM688 770h-332v-645h330q73 0 130.5 7.5t112.5 29t91 56.5t58 92.5t22 135.5q0 91 -29 155t-85 100.5t-128.5 52.5t-169.5 16z" />
    <glyph glyph-name="uni042D" unicode="&#x42d;" horiz-adv-x="1394" 
d="M1270 772q0 -382 -185.5 -591.5t-506.5 -209.5q-140 0 -263.5 39.5t-205.5 110.5l28 139q76 -73 192 -116.5t246 -43.5q118 0 215.5 38.5t171 115t116 199t46.5 282.5h-770v125h766q-19 264 -151 411.5t-379 147.5q-121 0 -235 -36t-189 -109l-47 131q79 68 209.5 105.5
t267.5 37.5q323 0 498.5 -204t175.5 -572z" />
    <glyph glyph-name="uni042E" unicode="&#x42e;" horiz-adv-x="2103" 
d="M1976 760q0 -366 -174.5 -577.5t-462.5 -211.5q-286 0 -460.5 206t-178.5 564h-344v-741h-141v1520h141v-652h349q26 318 197 499t437 181q288 0 462.5 -211t174.5 -577zM1339 100q232 0 362 176t130 484q0 305 -130.5 482t-361.5 177q-232 0 -362.5 -176t-130.5 -483
q0 -305 131 -482.5t362 -177.5z" />
    <glyph glyph-name="uni042F" unicode="&#x42f;" horiz-adv-x="1419" 
d="M1065 621h-401l-410 -621h-166l430 639q-147 39 -237.5 149t-90.5 281q0 214 140 332.5t366 118.5h508v-1520h-139v621zM1065 743v652h-356q-179 0 -277 -82t-98 -244q0 -161 97 -243.5t263 -82.5h371z" />
    <glyph glyph-name="uni0430" unicode="&#x430;" horiz-adv-x="1148" 
d="M848 0l-2 164q-65 -88 -160 -138.5t-215 -50.5q-158 0 -255 85.5t-97 238.5q0 178 139.5 264t423.5 86h156v68q0 133 -61 197.5t-212 64.5q-197 0 -350 -117l-29 123q148 115 389 115q209 0 303.5 -95.5t94.5 -273.5v-731h-125zM494 94q117 0 207 58.5t137 150.5v238
h-146q-225 0 -330.5 -57.5t-105.5 -182.5q0 -99 64 -153t174 -54z" />
    <glyph glyph-name="uni0431" unicode="&#x431;" horiz-adv-x="1232" 
d="M1126 545q0 -120 -33.5 -223t-96.5 -180.5t-161.5 -122t-220.5 -44.5q-243 0 -366 172.5t-123 509.5v5q0 189 24.5 332.5t68.5 240.5t112.5 162.5t149.5 99.5t188 49l389 58v-134l-398 -57q-189 -27 -284 -157.5t-113 -411.5q161 207 412 207q208 0 330 -135.5
t122 -370.5zM264 629q0 -535 352 -535q177 0 274 126.5t97 320.5q0 185 -89.5 285t-248.5 100q-128 0 -227 -64t-158 -170v-63z" />
    <glyph glyph-name="uni0432" unicode="&#x432;" horiz-adv-x="1165" 
d="M1053 295q0 -66 -20.5 -117t-55.5 -84t-84.5 -54.5t-104 -30.5t-118.5 -9h-484v1075h484q350 0 350 -268q0 -198 -191 -248q224 -46 224 -264zM647 965h-330v-361h324q108 0 175 43.5t67 143.5q0 174 -236 174zM317 498v-385h334q46 0 83 5t71.5 18.5t58 34.5t37.5 55
t14 79q0 193 -258 193h-340z" />
    <glyph glyph-name="uni0433" unicode="&#x433;" horiz-adv-x="897" 
d="M856 956h-534v-956h-136v1075h670v-119z" />
    <glyph glyph-name="uni0434" unicode="&#x434;" horiz-adv-x="1245" 
d="M8 -434v549h76q106 85 194 320.5t142 639.5h575v-960h191v-549h-127v434h-926v-434h-125zM252 115h608v843h-330q-85 -590 -278 -843z" />
    <glyph glyph-name="uni0435" unicode="&#x435;" horiz-adv-x="1165" 
d="M1034 102q-157 -127 -399 -127q-255 0 -392 146.5t-137 404.5q0 263 133.5 418.5t366.5 155.5q95 0 171 -27.5t126.5 -74.5t84.5 -112.5t48.5 -137t14.5 -152.5v-76h-807q0 -206 103 -315t304 -109q112 0 195.5 33t159.5 96zM606 985q-147 0 -245 -93t-115 -265h672v18
q0 67 -17.5 125.5t-53 108t-97.5 78t-144 28.5z" />
    <glyph glyph-name="uni0436" unicode="&#x436;" horiz-adv-x="1581" 
d="M854 0h-129v545l-524 -545h-176v4l548 553l-524 514v4h172l504 -514v514h129v-1075zM1556 4v-4h-176l-524 545v16l506 514h170v-4l-524 -512z" />
    <glyph glyph-name="uni0437" unicode="&#x437;" horiz-adv-x="1048" 
d="M940 299q0 -156 -118.5 -240t-321.5 -84q-236 0 -396 105l29 125q152 -109 361 -109q148 0 228.5 51.5t80.5 155.5q0 93 -73 142t-243 49h-204v114h194q141 0 219 50.5t78 142.5q0 82 -66.5 130t-197.5 48q-199 0 -340 -102l-39 120q159 103 389 103q190 0 290.5 -74.5
t100.5 -208.5q0 -99 -56 -165.5t-159 -92.5q244 -44 244 -260z" />
    <glyph glyph-name="uni0438" unicode="&#x438;" horiz-adv-x="1263" 
d="M944 0v879l-629 -879h-129v1075h133v-878l629 878h129v-1075h-133z" />
    <glyph glyph-name="uni0439" unicode="&#x439;" horiz-adv-x="1263" 
d="M305 1587l113 8q3 -134 61 -199t154 -65t154 65t61 199l113 -8q0 -172 -92 -263t-236 -91t-236 91t-92 263zM944 0v879l-629 -879h-129v1075h133v-878l629 878h129v-1075h-133z" />
    <glyph glyph-name="uni043A" unicode="&#x43a;" horiz-adv-x="1083" 
d="M186 1075h136v-514l538 514h176v-4l-557 -508l588 -559v-4h-178l-567 545v-545h-136v1075z" />
    <glyph glyph-name="uni043B" unicode="&#x43b;" horiz-adv-x="1202" 
d="M881 0v958h-326q-31 -184 -55.5 -309.5t-56 -243t-64.5 -189t-76.5 -126.5t-97 -78.5t-121.5 -23.5q-38 0 -66 8v123q20 -8 50 -8q56 0 98.5 31t78.5 95t68 181.5t62 272t65 384.5h576v-1075h-135z" />
    <glyph glyph-name="uni043C" unicode="&#x43c;" horiz-adv-x="1503" 
d="M709 0l-398 940v-940h-125v1075h195l371 -878l370 878h195v-1075h-127v940l-397 -940h-84z" />
    <glyph glyph-name="uni043D" unicode="&#x43d;" horiz-adv-x="1247" 
d="M926 0v506h-604v-506h-136v1075h136v-454h604v454h135v-1075h-135z" />
    <glyph glyph-name="uni043E" unicode="&#x43e;" horiz-adv-x="1222" 
d="M612 -25q-222 0 -364 151t-142 411t142 411.5t364 151.5q144 0 257.5 -66t180 -195t66.5 -302q0 -130 -38.5 -236.5t-106 -177.5t-159.5 -109.5t-200 -38.5zM612 94q167 0 266 120t99 323q0 204 -98.5 323t-266.5 119q-169 0 -267.5 -119t-98.5 -323q0 -203 99 -323
t267 -120z" />
    <glyph glyph-name="uni043F" unicode="&#x43f;" horiz-adv-x="1226" 
d="M905 0v958h-583v-958h-136v1075h854v-1075h-135z" />
    <glyph glyph-name="uni0440" unicode="&#x440;" horiz-adv-x="1273" 
d="M657 -25q-204 0 -335 131v-561h-136v1530h125l2 -178q64 91 164.5 147t227.5 56q203 0 331.5 -147.5t128.5 -399.5q0 -265 -140.5 -421.5t-367.5 -156.5zM322 754v-512q121 -148 317 -148q175 0 281 120t106 333q0 204 -95 316t-253 112q-116 0 -209.5 -60.5
t-146.5 -160.5z" />
    <glyph glyph-name="uni0441" unicode="&#x441;" horiz-adv-x="1069" 
d="M983 100q-135 -125 -354 -125q-239 0 -381 148t-142 409q0 264 144.5 416t384.5 152q208 0 336 -121l-37 -123q-116 123 -301 123q-183 0 -285 -118t-102 -324t103 -323.5t290 -117.5q181 0 315 127z" />
    <glyph glyph-name="uni0442" unicode="&#x442;" horiz-adv-x="966" 
d="M926 958h-375v-958h-135v958h-375v117h885v-117z" />
    <glyph glyph-name="uni0443" unicode="&#x443;" horiz-adv-x="1083" 
d="M616 6q-59 -150 -108.5 -244.5t-99.5 -145.5t-96 -69t-109 -18q-75 0 -137 25l12 131q60 -29 127 -29q54 0 94 28.5t82.5 101t99.5 212.5l-420 1077h152l338 -925l338 925h143z" />
    <glyph glyph-name="uni0444" unicode="&#x444;" horiz-adv-x="1542" 
d="M98 537q0 264 166 409.5t443 145.5v495h127v-495q277 0 442.5 -145.5t165.5 -409.5q0 -262 -165.5 -407.5t-442.5 -145.5v-439h-127v439q-277 0 -443 145.5t-166 407.5zM707 98v879h-15q-213 0 -334.5 -115t-121.5 -325q0 -209 121.5 -324t334.5 -115h15zM850 977h-16
v-879h16q213 0 334 115t121 324q0 210 -121 325t-334 115z" />
    <glyph glyph-name="uni0445" unicode="&#x445;" horiz-adv-x="1056" 
d="M831 0l-307 442l-307 -442h-147v4l381 543l-373 524v4h158l296 -432l295 432h148v-4l-375 -524l387 -543v-4h-156z" />
    <glyph glyph-name="uni0446" unicode="&#x446;" horiz-adv-x="1292" 
d="M1231 115v-549h-125v434h-920v1075h136v-960h583v960h135v-960h191z" />
    <glyph glyph-name="uni0447" unicode="&#x447;" horiz-adv-x="1144" 
d="M958 1075v-1075h-135v436q-139 -71 -323 -71q-178 0 -270.5 89t-92.5 257v364h135v-338q0 -135 61.5 -192.5t198.5 -57.5q87 0 166 18.5t125 47.5v522h135z" />
    <glyph glyph-name="uni0448" unicode="&#x448;" horiz-adv-x="1773" 
d="M1587 1075v-1075h-1401v1075h136v-960h497v960h135v-960h498v960h135z" />
    <glyph glyph-name="uni0449" unicode="&#x449;" horiz-adv-x="1837" 
d="M1778 115v-549h-127v434h-1465v1075h136v-960h497v960h135v-960h498v960h135v-960h191z" />
    <glyph glyph-name="uni044A" unicode="&#x44a;" 
d="M524 1075v-411h285q410 0 410 -330q0 -75 -22.5 -133.5t-60.5 -95.5t-92 -61.5t-112.5 -34t-126.5 -9.5h-416v958h-348v117h483zM795 551h-271v-438h267q64 0 112.5 9.5t91 32.5t64.5 67.5t22 109.5q0 116 -72 167.5t-214 51.5z" />
    <glyph glyph-name="uni044B" unicode="&#x44b;" horiz-adv-x="1523" 
d="M322 1075v-411h253q410 0 410 -330q0 -75 -22.5 -133.5t-60 -95.5t-91.5 -61.5t-112.5 -34t-127.5 -9.5h-385v1075h136zM1202 0v1075h135v-1075h-135zM561 551h-239v-438h235q64 0 113 9.5t91 32.5t64.5 67.5t22.5 109.5q0 116 -72.5 167.5t-214.5 51.5z" />
    <glyph glyph-name="uni044C" unicode="&#x44c;" horiz-adv-x="1103" 
d="M322 1075v-411h299q409 0 409 -330q0 -75 -22.5 -133.5t-60 -95.5t-91 -61.5t-112 -34t-126.5 -9.5h-432v1075h136zM608 551h-286v-438h280q64 0 113 9.5t91 32.5t64.5 67.5t22.5 109.5q0 116 -71.5 167.5t-213.5 51.5z" />
    <glyph glyph-name="uni044D" unicode="&#x44d;" horiz-adv-x="1085" 
d="M979 543q0 -271 -136.5 -419.5t-381.5 -148.5q-108 0 -203 28t-158 79l31 123q57 -48 142.5 -78.5t181.5 -30.5q174 0 276.5 101t112.5 305h-553v116h549q-16 171 -108.5 266t-264.5 95q-92 0 -177 -27t-136 -75l-41 120q56 47 157 75t207 28q242 0 372 -146t130 -411z
" />
    <glyph glyph-name="uni044E" unicode="&#x44e;" horiz-adv-x="1691" 
d="M1583 537q0 -261 -135 -411.5t-352 -150.5q-103 0 -190.5 36.5t-152.5 104t-103 169t-42 225.5h-286v-510h-136v1075h136v-454h290q23 224 155 351.5t329 127.5q216 0 351.5 -151t135.5 -412zM1096 94q163 0 256.5 119.5t93.5 323.5q0 205 -93 323.5t-257 118.5
t-257.5 -118.5t-93.5 -323.5q0 -204 94 -323.5t257 -119.5z" />
    <glyph glyph-name="uni044F" unicode="&#x44f;" horiz-adv-x="1169" 
d="M850 426h-315l-287 -426h-160v4l309 436q-105 28 -170 107.5t-65 202.5q0 154 100 239.5t262 85.5h459v-1075h-133v426zM850 537v428h-307q-118 0 -181 -53.5t-63 -161.5q0 -106 63.5 -159.5t180.5 -53.5h307z" />
    <glyph glyph-name="uni0450" unicode="&#x450;" horiz-adv-x="1165" 
d="M641 1212l-303 390l131 71l250 -418zM1034 102q-157 -127 -399 -127q-255 0 -392 146.5t-137 404.5q0 263 133.5 418.5t366.5 155.5q95 0 171 -27.5t126.5 -74.5t84.5 -112.5t48.5 -137t14.5 -152.5v-76h-807q0 -206 103 -315t304 -109q112 0 195.5 33t159.5 96zM606 985
q-147 0 -245 -93t-115 -265h672v18q0 67 -17.5 125.5t-53 108t-97.5 78t-144 28.5z" />
    <glyph glyph-name="uni0451" unicode="&#x451;" horiz-adv-x="1165" 
d="M727 1321v180h162v-180h-162zM315 1321v180h162v-180h-162zM1034 102q-157 -127 -399 -127q-255 0 -392 146.5t-137 404.5q0 263 133.5 418.5t366.5 155.5q95 0 171 -27.5t126.5 -74.5t84.5 -112.5t48.5 -137t14.5 -152.5v-76h-807q0 -206 103 -315t304 -109
q112 0 195.5 33t159.5 96zM606 985q-147 0 -245 -93t-115 -265h672v18q0 67 -17.5 125.5t-53 108t-97.5 78t-144 28.5z" />
    <glyph glyph-name="uni0452" unicode="&#x452;" horiz-adv-x="1226" 
d="M731 -350q99 0 148 57.5t49 200.5v686q0 149 -65 222t-185 73q-117 0 -210.5 -65t-141.5 -173v-651h-136v1260h-176v100h176v233h136v-233h381v-100h-381v-449q145 203 379 203q168 0 263 -102.5t95 -290.5v-701q0 -209 -85 -300t-241 -91q-101 0 -157 22l12 125
q60 -26 139 -26z" />
    <glyph glyph-name="uni0453" unicode="&#x453;" horiz-adv-x="897" 
d="M471 1212l-78 43l250 418l131 -71zM856 956h-534v-956h-136v1075h670v-119z" />
    <glyph glyph-name="uni0454" unicode="&#x454;" horiz-adv-x="1085" 
d="M983 82q-148 -107 -356 -107q-246 0 -383.5 147t-137.5 415q0 272 139 417.5t390 145.5q208 0 340 -105l-39 -121q-125 105 -305 105q-171 0 -269.5 -93.5t-115.5 -267.5h549v-116h-553q11 -197 112 -301.5t283 -104.5q176 0 317 109z" />
    <glyph glyph-name="uni0455" unicode="&#x455;" horiz-adv-x="983" 
d="M106 90l29 127q174 -123 363 -123q123 0 185 47.5t62 134.5q0 35 -12 61.5t-29 44.5t-54.5 35.5t-70 29t-94.5 30.5q-52 16 -84 27t-74 28t-67 33t-52.5 39.5t-42.5 49.5t-24.5 61t-9.5 76q0 143 101 226t276 83q187 0 323 -90l-30 -127q-140 98 -297 98
q-118 0 -180 -49.5t-62 -130.5q0 -20 4.5 -37t9.5 -30t19 -26.5t23.5 -22t33 -19.5t36.5 -17t46 -17t49.5 -16t57.5 -18q50 -15 84 -27t72.5 -28.5t63 -33t49.5 -39t38.5 -48.5t22 -60t8.5 -75q0 -153 -105.5 -232.5t-290.5 -79.5q-219 0 -377 115z" />
    <glyph glyph-name="uni0456" unicode="&#x456;" horiz-adv-x="516" 
d="M174 1321v180h168v-180h-168zM190 0v1075h136v-1075h-136z" />
    <glyph glyph-name="uni0457" unicode="&#x457;" horiz-adv-x="520" 
d="M344 1321v180h164v-180h-164zM14 1321v180h164v-180h-164zM193 0v1075h135v-1075h-135z" />
    <glyph glyph-name="uni0458" unicode="&#x458;" horiz-adv-x="534" 
d="M197 1321v180h165v-180h-165zM-135 -449l14 130q55 -27 137 -27q99 0 148 59.5t49 202.5v1159h135v-1153q0 -210 -85.5 -301.5t-242.5 -91.5q-96 0 -155 22z" />
    <glyph glyph-name="uni0459" unicode="&#x459;" horiz-adv-x="1744" 
d="M999 1075v-434h271q401 0 401 -317q0 -73 -21.5 -129.5t-58 -92.5t-89 -59.5t-109.5 -33t-125 -9.5h-404v958h-309q-31 -184 -55.5 -309.5t-56 -243t-64.5 -189t-76.5 -126.5t-97 -78.5t-121.5 -23.5q-38 0 -66 8v123q20 -8 50 -8q56 0 98.5 31t78.5 95t68 181.5t62 272
t65 384.5h559zM1257 530h-258v-417h252q63 0 110.5 9t88.5 31.5t62.5 65.5t21.5 105q0 109 -69.5 157.5t-207.5 48.5z" />
    <glyph glyph-name="uni045A" unicode="&#x45a;" horiz-adv-x="1789" 
d="M1042 1075v-434h273q401 0 401 -317q0 -73 -22 -129.5t-58.5 -92.5t-89.5 -59.5t-110 -33t-125 -9.5h-404v526h-585v-526h-136v1075h136v-434h585v434h135zM1300 530h-258v-417h254q62 0 109.5 9t88.5 31.5t63 65.5t22 105q0 109 -70.5 157.5t-208.5 48.5z" />
    <glyph glyph-name="uni045B" unicode="&#x45b;" horiz-adv-x="1226" 
d="M326 651v-651h-136v1260h-176v100h176v233h136v-233h381v-100h-381v-449q145 203 379 203q168 0 263 -102.5t95 -290.5v-621h-135v594q0 149 -65 222t-185 73q-117 0 -210.5 -65t-141.5 -173z" />
    <glyph glyph-name="uni045C" unicode="&#x45c;" horiz-adv-x="1083" 
d="M496 1212l-78 43l250 418l131 -71zM186 1075h136v-514l538 514h176v-4l-557 -508l588 -559v-4h-178l-567 545v-545h-136v1075z" />
    <glyph glyph-name="uni045D" unicode="&#x45d;" horiz-adv-x="1263" 
d="M680 1212l-303 390l131 71l250 -418zM944 0v879l-629 -879h-129v1075h133v-878l629 878h129v-1075h-133z" />
    <glyph glyph-name="uni045E" unicode="&#x45e;" horiz-adv-x="1083" 
d="M219 1587l113 8q3 -134 61 -199t154 -65t154 65t61 199l112 -8q0 -173 -91.5 -263.5t-235.5 -90.5t-236 91t-92 263zM616 6q-59 -151 -108.5 -245.5t-99.5 -145.5t-96 -68.5t-109 -17.5q-75 0 -137 25l12 131q60 -29 127 -29q54 0 94 28.5t82.5 101t99.5 212.5l-420 1077
h152l338 -925l338 925h143z" />
    <glyph glyph-name="uni045F" unicode="&#x45f;" horiz-adv-x="1232" 
d="M1049 0h-369v-455h-127v455h-367v1075h136v-960h591v960h136v-1075z" />
    <glyph glyph-name="uni0462" unicode="&#x462;" horiz-adv-x="1441" 
d="M1008 1176h-516v-322h317q534 0 534 -424q0 -97 -28.5 -172t-77 -123t-118.5 -79t-146.5 -43.5t-167.5 -12.5h-453v1176h-332v116h332v301h140v-301h516v-116zM799 731h-307v-606h305q70 0 126 7.5t109.5 27.5t89 53t57 87t21.5 126q0 85 -28.5 145.5t-83 95t-125 49.5
t-164.5 15z" />
    <glyph glyph-name="uni0463" unicode="&#x463;" horiz-adv-x="1153" 
d="M752 967h-363v-318h281q405 0 405 -321q0 -73 -22 -130.5t-59 -94t-90.5 -60.5t-111.5 -33.5t-126 -9.5h-412v967h-221v108h221v445h135v-445h363v-108zM655 539h-266v-426h260q64 0 113 9.5t90.5 32t63.5 66t22 105.5q0 112 -71 162.5t-212 50.5z" />
    <glyph glyph-name="uni0472" unicode="&#x472;" horiz-adv-x="1593" 
d="M797 -29q-147 0 -271 54.5t-212.5 154.5t-138.5 249t-50 331t50 331t139 249t212.5 154t270.5 54t270.5 -54t212.5 -154t138.5 -249t49.5 -331t-49.5 -331t-138.5 -249t-212.5 -154.5t-270.5 -54.5zM797 1419q-229 0 -367.5 -155.5t-157.5 -427.5h1049
q-19 272 -157 427.5t-367 155.5zM797 100q234 0 374 163.5t152 447.5h-1053q12 -282 152.5 -446.5t374.5 -164.5z" />
    <glyph glyph-name="uni0473" unicode="&#x473;" horiz-adv-x="1222" 
d="M612 -25q-222 0 -364 151t-142 411t142 411.5t364 151.5q144 0 257.5 -66t180 -195t66.5 -302q0 -130 -38.5 -236.5t-106 -177.5t-159.5 -109.5t-200 -38.5zM612 979q-157 0 -254 -100.5t-114 -276.5h735q-17 176 -114 276.5t-253 100.5zM612 94q162 0 260 108.5
t109 295.5h-739q11 -187 109 -295.5t261 -108.5z" />
    <glyph glyph-name="uni0474" unicode="&#x474;" horiz-adv-x="1525" 
d="M1149 1085l-379 -1085h-149l-558 1520h152l483 -1354l308 911q41 121 80 206t75 137t78.5 80.5t81.5 38t92 9.5q113 0 170 -43l-22 -127q-60 43 -142 43q-62 0 -103.5 -27.5t-80 -98.5t-86.5 -210z" />
    <glyph glyph-name="uni0475" unicode="&#x475;" horiz-adv-x="1136" 
d="M879 778l-281 -778h-129l-418 1075h152l332 -917l210 612q66 194 131 262t175 68q67 0 114 -27l-14 -119q-42 25 -96 25q-63 0 -99 -42.5t-77 -158.5z" />
    <glyph glyph-name="uni0490" unicode="&#x490;" horiz-adv-x="1122" 
d="M1098 1393h-742v-1393h-141v1520h752l6 376h125v-503z" />
    <glyph glyph-name="uni0491" unicode="&#x491;" horiz-adv-x="897" 
d="M856 956h-534v-956h-136v1075h545l6 377h119v-496z" />
    <glyph glyph-name="uni0492" unicode="&#x492;" horiz-adv-x="1153" 
d="M844 741h-459v-741h-141v741h-183v117h183v662h882v-127h-741v-535h459v-117z" />
    <glyph glyph-name="uni0493" unicode="&#x493;" horiz-adv-x="927" 
d="M690 494h-338v-494h-135v494h-156v100h156v481h670v-119h-535v-362h338v-100z" />
    <glyph glyph-name="uni0496" unicode="&#x496;" horiz-adv-x="2062" 
d="M920 0v1520h137v-1520h-137zM2013 127v-561h-131v434h-121l-702 764v20l694 736h180v-4l-719 -732l619 -657h180zM918 764l-703 -764h-184v4l733 776l-721 736v4h180l695 -736v-20z" />
    <glyph glyph-name="uni0497" unicode="&#x497;" horiz-adv-x="1654" 
d="M854 0h-129v545l-524 -545h-176v4l548 553l-524 514v4h172l504 -514v514h129v-1075zM1622 115v-549h-125v434h-117l-524 545v16l506 514h170v-4l-524 -512l440 -444h174z" />
    <glyph glyph-name="uni0498" unicode="&#x498;" horiz-adv-x="1245" 
d="M811 -252q0 -108 -66.5 -165.5t-171.5 -57.5q-92 0 -159 31l26 114q22 -14 60 -23t69 -9q59 0 92 35t33 94q0 113 -110 204q-283 0 -480 142l29 141q192 -154 449 -154q187 0 293 81.5t106 234.5q0 303 -438 303h-197v127h186q194 0 303 79t109 224q0 127 -86.5 198.5
t-253.5 71.5q-246 0 -416 -139l-47 127q95 71 219 106t252 35q227 0 351 -104.5t124 -286.5q0 -143 -77 -235.5t-217 -128.5q331 -64 331 -373q0 -186 -113 -300.5t-311 -139.5q111 -111 111 -232z" />
    <glyph glyph-name="uni0499" unicode="&#x499;" horiz-adv-x="1048" 
d="M707 -252q0 -108 -66.5 -165.5t-171.5 -57.5q-93 0 -160 31l27 114q22 -14 60 -23t69 -9q59 0 92 35t33 94q0 110 -115 208q-221 6 -371 105l29 125q152 -109 361 -109q148 0 228.5 51.5t80.5 155.5q0 93 -73 142t-243 49h-204v114h194q141 0 219 50.5t78 142.5
q0 82 -66.5 130t-197.5 48q-199 0 -340 -102l-39 120q159 103 389 103q190 0 290.5 -74.5t100.5 -208.5q0 -99 -56 -165.5t-159 -92.5q244 -44 244 -260q0 -137 -92 -218.5t-254 -100.5q113 -110 113 -232z" />
    <glyph glyph-name="uni049A" unicode="&#x49a;" horiz-adv-x="1437" 
d="M215 1520h141v-736l764 736h185v-4l-787 -730l678 -659h193v-561h-132v434h-120l-781 764v-764h-141v1520z" />
    <glyph glyph-name="uni049B" unicode="&#x49b;" horiz-adv-x="1161" 
d="M186 1075h136v-514l538 514h176v-4l-557 -508l471 -448h178v-549h-124v434h-115l-567 545v-545h-136v1075z" />
    <glyph glyph-name="uni04A0" unicode="&#x4a0;" horiz-adv-x="1581" 
d="M592 1520v-736l764 736h184v-4l-786 -730l805 -782v-4h-187l-780 764v-764h-141v1393h-439v127h580z" />
    <glyph glyph-name="uni04A1" unicode="&#x4a1;" horiz-adv-x="1288" 
d="M41 1075h483v-514l539 514h176v-4l-557 -508l588 -559v-4h-178l-568 545v-545h-135v958h-348v117z" />
    <glyph glyph-name="uni04A2" unicode="&#x4a2;" horiz-adv-x="1591" 
d="M1391 -434v434h-209v741h-826v-741h-141v1520h141v-652h826v652h139v-1393h201v-561h-131z" />
    <glyph glyph-name="uni04A3" unicode="&#x4a3;" horiz-adv-x="1312" 
d="M1126 -434v434h-200v506h-604v-506h-136v1075h136v-454h604v454h135v-960h190v-549h-125z" />
    <glyph glyph-name="uni04AA" unicode="&#x4aa;" horiz-adv-x="1419" 
d="M993 -252q0 -108 -66 -165.5t-171 -57.5q-93 0 -160 31l27 114q22 -14 60 -23t69 -9q59 0 92 35t33 94q0 110 -113 206q-294 24 -466.5 231.5t-172.5 555.5q0 186 52 335t145.5 248.5t225 152t290.5 52.5q281 0 465 -162l-46 -137q-175 170 -421 170
q-265 0 -414.5 -174.5t-149.5 -482.5q0 -317 156.5 -489.5t409.5 -172.5q263 0 448 185l37 -135q-171 -161 -434 -177q104 -107 104 -225z" />
    <glyph glyph-name="uni04AB" unicode="&#x4ab;" horiz-adv-x="1069" 
d="M768 -252q0 -108 -66.5 -165.5t-171.5 -57.5q-92 0 -159 31l26 114q22 -14 60 -23t69 -9q59 0 92 35t33 94q0 115 -123 217q-196 30 -309 173t-113 375q0 264 144.5 416t384.5 152q208 0 336 -121l-37 -123q-116 123 -301 123q-183 0 -285 -118t-102 -324t103 -323.5
t290 -117.5q181 0 315 127l29 -123q-123 -115 -324 -125q109 -104 109 -227z" />
    <glyph glyph-name="uni04AE" unicode="&#x4ae;" horiz-adv-x="1247" 
d="M1212 1520l-518 -920v-600h-141v596l-518 924h158l434 -795l432 795h153z" />
    <glyph glyph-name="uni04AF" unicode="&#x4af;" horiz-adv-x="1085" 
d="M1030 1075l-420 -1026v-504h-135v504l-420 1026h152l340 -887l338 887h145z" />
    <glyph glyph-name="uni04B0" unicode="&#x4b0;" horiz-adv-x="1247" 
d="M1014 420h-320v-420h-141v420h-320v117h320v59l-518 924h158l434 -795l432 795h153l-518 -920v-63h320v-117z" />
    <glyph glyph-name="uni04B1" unicode="&#x4b1;" horiz-adv-x="1085" 
d="M891 -160h-281v-295h-135v295h-280v101h280v108l-420 1026h152l340 -887l338 887h145l-420 -1026v-108h281v-101z" />
    <glyph glyph-name="uni04B2" unicode="&#x4b2;" horiz-adv-x="1390" 
d="M1341 127v-561h-131v434h-120l-435 664l-426 -664h-155l510 772l-490 748h164l412 -637l407 637h156l-492 -742l428 -651h172z" />
    <glyph glyph-name="uni04B3" unicode="&#x4b3;" horiz-adv-x="1101" 
d="M1071 115v-549h-127v434h-113l-307 442l-307 -442h-147v4l381 543l-373 524v4h158l296 -432l295 432h148v-4l-375 -524l309 -432h162z" />
    <glyph glyph-name="uni04B6" unicode="&#x4b6;" horiz-adv-x="1454" 
d="M1251 -434v434h-209v645q-182 -100 -413 -100t-350 112.5t-119 331.5v531h139v-504q0 -184 85.5 -264t270.5 -80q117 0 218.5 28.5t168.5 73.5v746h140v-1393h200v-561h-131z" />
    <glyph glyph-name="uni04B7" unicode="&#x4b7;" horiz-adv-x="1210" 
d="M1024 -434v434h-201v436q-139 -71 -323 -71q-178 0 -270.5 89t-92.5 257v364h135v-338q0 -135 61.5 -192.5t198.5 -57.5q87 0 166 18.5t125 47.5v522h135v-960h191v-549h-125z" />
    <glyph glyph-name="uni04BA" unicode="&#x4ba;" horiz-adv-x="1398" 
d="M356 745v-745h-141v1520h141v-646q85 47 196.5 74t225.5 27q229 0 345 -113t116 -332v-530h-139v504q0 185 -82 264.5t-266 79.5q-118 0 -224 -29t-172 -74z" />
    <glyph glyph-name="uni04BB" unicode="&#x4bb;" horiz-adv-x="1226" 
d="M322 737v-737h-136v1593h136v-694q144 201 374 201q166 0 259.5 -102t93.5 -291v-707h-136v680q0 295 -245 295q-115 0 -206.5 -65t-139.5 -173z" />
    <glyph glyph-name="uni04C0" unicode="&#x4c0;" horiz-adv-x="571" 
d="M215 0v1520h141v-1520h-141z" />
    <glyph glyph-name="uni04C1" unicode="&#x4c1;" horiz-adv-x="1976" 
d="M618 1968l117 8q3 -115 72.5 -171t181.5 -56t181.5 56t72.5 171l117 -8q-6 -161 -107 -240t-264 -79t-264 79t-107 240zM920 0v1520h137v-1520h-137zM1948 4v-4h-187l-702 764v20l694 736h180v-4l-719 -732zM918 764l-703 -764h-184v4l733 776l-721 736v4h180l695 -736
v-20z" />
    <glyph glyph-name="uni04C2" unicode="&#x4c2;" horiz-adv-x="1581" 
d="M463 1587l112 8q3 -134 61.5 -199t154.5 -65t154 65t61 199l112 -8q0 -173 -91.5 -263.5t-235.5 -90.5t-236 91t-92 263zM854 0h-129v545l-524 -545h-176v4l548 553l-524 514v4h172l504 -514v514h129v-1075zM1556 4v-4h-176l-524 545v16l506 514h170v-4l-524 -512z" />
    <glyph glyph-name="uni04CF" unicode="&#x4cf;" horiz-adv-x="524" 
d="M195 0v1100h135v-1100h-135z" />
    <glyph glyph-name="uni04D0" unicode="&#x4d0;" horiz-adv-x="1411" 
d="M336 1968l117 8q3 -115 72.5 -171t181.5 -56t181.5 56t72.5 171l116 -8q-6 -161 -106.5 -240t-263.5 -79t-264 79t-107 240zM1208 0l-168 453h-673l-168 -453h-146l578 1520h149l578 -1520h-150zM414 575h579l-288 781z" />
    <glyph glyph-name="uni04D1" unicode="&#x4d1;" horiz-adv-x="1148" 
d="M254 1587l113 8q3 -134 61 -199t154 -65t154 65t61 199l112 -8q0 -173 -91.5 -263.5t-235.5 -90.5t-236 91t-92 263zM848 0l-2 164q-65 -88 -160 -138.5t-215 -50.5q-158 0 -255 85.5t-97 238.5q0 178 139.5 264t423.5 86h156v68q0 133 -61 197.5t-212 64.5
q-197 0 -350 -117l-29 123q148 115 389 115q209 0 303.5 -95.5t94.5 -273.5v-731h-125zM494 94q117 0 207 58.5t137 150.5v238h-146q-225 0 -330.5 -57.5t-105.5 -182.5q0 -99 64 -153t174 -54z" />
    <glyph glyph-name="uni04D4" unicode="&#x4d4;" horiz-adv-x="2027" 
d="M979 0v510h-594l-293 -510h-153l878 1520h1067v-125h-766v-527h684v-127h-684v-614h783v-127h-922zM979 1399h-86l-440 -768h526v768z" />
    <glyph glyph-name="uni04D5" unicode="&#x4d5;" horiz-adv-x="1880" 
d="M1749 102q-157 -127 -395 -127q-319 0 -443 236q-152 -236 -432 -236q-170 0 -266 84.5t-96 233.5q0 167 135 252.5t428 85.5h158v86q0 132 -62 197t-213 65q-200 0 -350 -117l-29 123q148 115 387 115q297 0 359 -223q59 107 161 165t236 58q115 0 202 -41t137 -113
t74.5 -159t24.5 -189v-74h-800v-6q0 -204 102.5 -313t300.5 -109q112 0 195 33t157 96zM1323 985q-144 0 -240.5 -92t-113.5 -262h663v14q0 67 -17 125.5t-52.5 108t-97 78t-142.5 28.5zM494 94q127 0 222 64.5t142 175.5q-20 95 -20 190h-148q-236 0 -336 -55t-100 -172
q0 -97 62.5 -150t177.5 -53z" />
    <glyph glyph-name="uni04D6" unicode="&#x4d6;" horiz-adv-x="1273" 
d="M303 1968l117 8q3 -115 72.5 -171t181.5 -56t181.5 56t72.5 171l116 -8q-6 -161 -106.5 -240t-263.5 -79t-264 79t-107 240zM1147 127v-127h-932v1520h915v-125h-774v-527h693v-127h-693v-614h791z" />
    <glyph glyph-name="uni04D7" unicode="&#x4d7;" horiz-adv-x="1165" 
d="M274 1587l113 8q3 -134 61 -199t154 -65t154 65t61 199l113 -8q0 -172 -92 -263t-236 -91t-236 91t-92 263zM1034 102q-157 -127 -399 -127q-255 0 -392 146.5t-137 404.5q0 263 133.5 418.5t366.5 155.5q95 0 171 -27.5t126.5 -74.5t84.5 -112.5t48.5 -137t14.5 -152.5
v-76h-807q0 -206 103 -315t304 -109q112 0 195.5 33t159.5 96zM606 985q-147 0 -245 -93t-115 -265h672v18q0 67 -17.5 125.5t-53 108t-97.5 78t-144 28.5z" />
    <glyph glyph-name="uni04D8" unicode="&#x4d8;" horiz-adv-x="1513" 
d="M1389 764q0 -376 -166 -584.5t-478 -208.5q-125 0 -227.5 35.5t-172.5 98t-118 149.5t-70 187.5t-22 213.5q0 69 6 136h1102q-2 150 -32.5 264.5t-94.5 196.5t-166.5 124.5t-242.5 42.5q-296 0 -492 -176l-45 127q87 77 229 127.5t316 50.5q173 0 303 -55.5t210.5 -159.5
t120.5 -246.5t40 -322.5zM739 100q225 0 356.5 148.5t145.5 417.5h-960v-45q0 -89 17 -166t53 -143t89 -112.5t129 -73t170 -26.5z" />
    <glyph glyph-name="uni04D9" unicode="&#x4d9;" horiz-adv-x="1173" 
d="M1067 541q0 -268 -125 -417t-358 -149q-119 0 -209 38.5t-144 107t-81 155t-27 189.5q0 38 4 100h807q-5 202 -97 308t-288 106q-222 0 -367 -117l-28 123q68 49 174 82t231 33q257 0 382.5 -148t125.5 -411zM578 92q156 0 249 96.5t105 270.5h-676v-25q0 -152 82 -247
t240 -95z" />
    <glyph glyph-name="uni04E2" unicode="&#x4e2;" horiz-adv-x="1568" 
d="M438 1753v113h692v-113h-692zM1214 0v1286l-866 -1286h-133v1520h141v-1284l865 1284h133v-1520h-140z" />
    <glyph glyph-name="uni04E3" unicode="&#x4e3;" horiz-adv-x="1263" 
d="M319 1356v114h627v-114h-627zM944 0v879l-629 -879h-129v1075h133v-878l629 878h129v-1075h-133z" />
    <glyph glyph-name="uni04E6" unicode="&#x4e6;" horiz-adv-x="1593" 
d="M922 1720v178h161v-178h-161zM510 1720v178h162v-178h-162zM797 -29q-147 0 -271 54.5t-212.5 154.5t-138.5 249t-50 331t50 331t139 249t212.5 154t270.5 54t270.5 -54t212.5 -154t138.5 -249t49.5 -331t-49.5 -331t-138.5 -249t-212.5 -154.5t-270.5 -54.5zM797 100
q244 0 384 177t140 483q0 304 -140.5 481.5t-383.5 177.5q-244 0 -384.5 -176.5t-140.5 -482.5q0 -303 140.5 -481.5t384.5 -178.5z" />
    <glyph glyph-name="uni04E7" unicode="&#x4e7;" horiz-adv-x="1222" 
d="M737 1321v180h162v-180h-162zM326 1321v180h161v-180h-161zM612 -25q-222 0 -364 151t-142 411t142 411.5t364 151.5q144 0 257.5 -66t180 -195t66.5 -302q0 -130 -38.5 -236.5t-106 -177.5t-159.5 -109.5t-200 -38.5zM612 94q167 0 266 120t99 323q0 204 -98.5 323
t-266.5 119q-169 0 -267.5 -119t-98.5 -323q0 -203 99 -323t267 -120z" />
    <glyph glyph-name="uni04E8" unicode="&#x4e8;" horiz-adv-x="1593" 
d="M797 -29q-147 0 -271 54.5t-212.5 154.5t-138.5 249t-50 331t50 331t139 249t212.5 154t270.5 54t270.5 -54t212.5 -154t138.5 -249t49.5 -331t-49.5 -331t-138.5 -249t-212.5 -154.5t-270.5 -54.5zM797 1419q-229 0 -367.5 -155.5t-157.5 -427.5h1049
q-19 272 -157 427.5t-367 155.5zM797 100q234 0 374 163.5t152 447.5h-1053q12 -282 152.5 -446.5t374.5 -164.5z" />
    <glyph glyph-name="uni04E9" unicode="&#x4e9;" horiz-adv-x="1222" 
d="M612 -25q-222 0 -364 151t-142 411t142 411.5t364 151.5q144 0 257.5 -66t180 -195t66.5 -302q0 -130 -38.5 -236.5t-106 -177.5t-159.5 -109.5t-200 -38.5zM612 979q-157 0 -254 -100.5t-114 -276.5h735q-17 176 -114 276.5t-253 100.5zM612 94q162 0 260 108.5
t109 295.5h-739q11 -187 109 -295.5t261 -108.5z" />
    <glyph glyph-name="uni04EE" unicode="&#x4ee;" horiz-adv-x="1306" 
d="M326 1753v113h692v-113h-692zM825 469q-68 -158 -123 -254.5t-113 -151t-114.5 -73.5t-136.5 -19q-93 0 -162 29l6 129q61 -31 160 -31q96 0 160.5 58.5t138.5 216.5l-578 1147h154l494 -1010l422 1010h147z" />
    <glyph glyph-name="uni04EF" unicode="&#x4ef;" horiz-adv-x="1083" 
d="M233 1356v114h627v-114h-627zM616 6q-58 -150 -107.5 -244.5t-99.5 -145.5t-96.5 -69t-109.5 -18q-75 0 -137 25l12 131q60 -29 127 -29q54 0 94 28.5t82.5 101t99.5 212.5l-420 1077h152l338 -925l338 925h143z" />
    <glyph glyph-name="uni04F2" unicode="&#x4f2;" horiz-adv-x="1306" 
d="M494 1638l-72 43l270 326l123 -78zM870 1638l-71 43l272 326l121 -78zM825 469q-68 -158 -123 -254.5t-113 -151t-114.5 -73.5t-136.5 -19q-93 0 -162 29l6 129q61 -31 160 -31q96 0 160.5 58.5t138.5 216.5l-578 1147h154l494 -1010l422 1010h147z" />
    <glyph glyph-name="uni04F3" unicode="&#x4f3;" horiz-adv-x="1083" 
d="M367 1219l-72 45l244 409l123 -69zM717 1219l-74 45l246 409l123 -69zM616 6q-58 -150 -107.5 -244.5t-99.5 -145.5t-96.5 -69t-109.5 -18q-75 0 -137 25l12 131q60 -29 127 -29q54 0 94 28.5t82.5 101t99.5 212.5l-420 1077h152l338 -925l338 925h143z" />
    <glyph glyph-name="uni0E3F" unicode="&#xe3f;" horiz-adv-x="1396" 
d="M635 -201v201h-412v1520h412v196h100v-196q247 -1 363 -98t116 -287q0 -279 -256 -342q308 -70 308 -379q0 -93 -28 -165t-75 -118t-115.5 -76t-144 -42.5t-164.5 -12.5h-4v-201h-100zM358 840h277v561h-277v-561zM1075 1126q0 150 -85 212.5t-255 62.5v-561
q162 2 251 66.5t89 219.5zM358 723v-604h277v604h-277zM752 723h-17v-604q91 0 157.5 13.5t121 45.5t82.5 92.5t28 147.5q0 163 -96 234t-276 71z" />
    <glyph glyph-name="Wgrave" unicode="&#x1e80;" horiz-adv-x="2162" 
d="M1169 1638l-387 279l125 90l334 -317zM1475 0l-394 1311l-395 -1311h-151l-461 1520h151l391 -1336l398 1336h143l397 -1336l390 1336h143l-461 -1520h-151z" />
    <glyph glyph-name="wgrave" unicode="&#x1e81;" horiz-adv-x="1679" 
d="M891 1212l-303 390l131 71l250 -418zM1124 0l-284 889l-285 -889h-131l-356 1075h149l277 -905l282 905h135l283 -905l276 905h144l-359 -1075h-131z" />
    <glyph glyph-name="Wacute" unicode="&#x1e82;" horiz-adv-x="2162" 
d="M993 1638l-71 52l333 317l125 -90zM1475 0l-394 1311l-395 -1311h-151l-461 1520h151l391 -1336l398 1336h143l397 -1336l390 1336h143l-461 -1520h-151z" />
    <glyph glyph-name="wacute" unicode="&#x1e83;" horiz-adv-x="1679" 
d="M797 1212l-78 43l250 418l131 -71zM1124 0l-284 889l-285 -889h-131l-356 1075h149l277 -905l282 905h135l283 -905l276 905h144l-359 -1075h-131z" />
    <glyph glyph-name="Wdieresis" unicode="&#x1e84;" horiz-adv-x="2162" 
d="M1206 1720v178h162v-178h-162zM795 1720v178h161v-178h-161zM1475 0l-394 1311l-395 -1311h-151l-461 1520h151l391 -1336l398 1336h143l397 -1336l390 1336h143l-461 -1520h-151z" />
    <glyph glyph-name="wdieresis" unicode="&#x1e85;" horiz-adv-x="1679" 
d="M969 1321v180h161v-180h-161zM557 1321v180h162v-180h-162zM1124 0l-284 889l-285 -889h-131l-356 1075h149l277 -905l282 905h135l283 -905l276 905h144l-359 -1075h-131z" />
    <glyph glyph-name="uni1E9E" unicode="&#x1e9e;" horiz-adv-x="1552" 
d="M199 0v946q0 313 148.5 457.5t459.5 144.5q160 0 301.5 -35.5t241.5 -105.5l-310 -557q91 -36 156.5 -72.5t123 -90t87 -126.5t29.5 -166q0 -189 -119.5 -306.5t-345.5 -117.5q-228 0 -402 121l41 137q161 -129 361 -129q163 0 243 78t80 207q0 66 -22.5 120t-57 91.5
t-95.5 73.5t-116.5 59.5t-142.5 54.5l311 566q-141 69 -368 69q-246 0 -355.5 -108.5t-109.5 -358.5v-952h-139z" />
    <glyph glyph-name="uni1EA0" unicode="&#x1ea0;" horiz-adv-x="1411" 
d="M1208 0l-168 453h-673l-168 -453h-146l578 1520h149l578 -1520h-150zM414 575h579l-288 781zM623 -356v178h168v-178h-168z" />
    <glyph glyph-name="uni1EA1" unicode="&#x1ea1;" horiz-adv-x="1148" 
d="M848 0l-2 164q-65 -88 -160 -138.5t-215 -50.5q-158 0 -255 85.5t-97 238.5q0 178 139.5 264t423.5 86h156v68q0 133 -61 197.5t-212 64.5q-197 0 -350 -117l-29 123q148 115 389 115q209 0 303.5 -95.5t94.5 -273.5v-731h-125zM494 94q117 0 207 58.5t137 150.5v238
h-146q-225 0 -330.5 -57.5t-105.5 -182.5q0 -99 64 -153t174 -54zM498 -356v178h168v-178h-168z" />
    <glyph glyph-name="uni1EA2" unicode="&#x1ea2;" horiz-adv-x="1411" 
d="M723 1630l-74 68q111 59 154 97t43 97q0 115 -141 115q-110 0 -197 -70l-27 101q107 73 234 73q111 0 179.5 -53.5t68.5 -156.5q0 -48 -16 -87t-50.5 -71.5t-74 -57.5t-99.5 -55zM1208 0l-168 453h-673l-168 -453h-146l578 1520h149l578 -1520h-150zM414 575h579
l-288 781z" />
    <glyph glyph-name="uni1EA3" unicode="&#x1ea3;" horiz-adv-x="1148" 
d="M598 1212l-74 68q111 58 154 97.5t43 99.5q0 112 -139 112q-113 0 -199 -69l-27 100q109 74 234 74q111 0 179.5 -54t68.5 -157q0 -48 -16 -87t-50.5 -71.5t-74 -57.5t-99.5 -55zM848 0l-2 164q-65 -88 -160 -138.5t-215 -50.5q-158 0 -255 85.5t-97 238.5
q0 178 139.5 264t423.5 86h156v68q0 133 -61 197.5t-212 64.5q-197 0 -350 -117l-29 123q148 115 389 115q209 0 303.5 -95.5t94.5 -273.5v-731h-125zM494 94q117 0 207 58.5t137 150.5v238h-146q-225 0 -330.5 -57.5t-105.5 -182.5q0 -99 64 -153t174 -54z" />
    <glyph glyph-name="uni1EA4" unicode="&#x1ea4;" horiz-adv-x="1411" 
d="M1008 1921l-66 47l328 311l116 -79zM1053 1679l-121 -32l-225 247l-226 -247l-121 32l295 308h103zM1208 0l-168 453h-673l-168 -453h-146l578 1520h149l578 -1520h-150zM414 575h579l-288 781z" />
    <glyph glyph-name="uni1EA5" unicode="&#x1ea5;" horiz-adv-x="1148" 
d="M899 1479l-72 41l238 393l119 -66zM893 1251l-111 -32l-200 286l-201 -286l-111 32l260 355h103zM848 0l-2 164q-65 -88 -160 -138.5t-215 -50.5q-158 0 -255 85.5t-97 238.5q0 178 139.5 264t423.5 86h156v68q0 133 -61 197.5t-212 64.5q-197 0 -350 -117l-29 123
q148 115 389 115q209 0 303.5 -95.5t94.5 -273.5v-731h-125zM494 94q117 0 207 58.5t137 150.5v238h-146q-225 0 -330.5 -57.5t-105.5 -182.5q0 -99 64 -153t174 -54z" />
    <glyph glyph-name="uni1EA6" unicode="&#x1ea6;" horiz-adv-x="1411" 
d="M1116 1921l-379 279l117 79l328 -311zM1053 1679l-121 -32l-225 247l-226 -247l-121 32l295 308h103zM1208 0l-168 453h-673l-168 -453h-146l578 1520h149l578 -1520h-150zM414 575h579l-288 781z" />
    <glyph glyph-name="uni1EA7" unicode="&#x1ea7;" horiz-adv-x="1148" 
d="M971 1479l-285 368l119 66l237 -393zM893 1251l-111 -32l-200 286l-201 -286l-111 32l260 355h103zM848 0l-2 164q-65 -88 -160 -138.5t-215 -50.5q-158 0 -255 85.5t-97 238.5q0 178 139.5 264t423.5 86h156v68q0 133 -61 197.5t-212 64.5q-197 0 -350 -117l-29 123
q148 115 389 115q209 0 303.5 -95.5t94.5 -273.5v-731h-125zM494 94q117 0 207 58.5t137 150.5v238h-146q-225 0 -330.5 -57.5t-105.5 -182.5q0 -99 64 -153t174 -54z" />
    <glyph glyph-name="uni1EA8" unicode="&#x1ea8;" horiz-adv-x="1411" 
d="M1063 1880l-70 64q100 51 140.5 88.5t40.5 91.5q0 102 -127 102q-97 0 -181 -63l-24 94q100 67 213 67q104 0 166.5 -49.5t62.5 -144.5q0 -44 -15 -80t-46.5 -66t-68 -53.5t-91.5 -50.5zM1053 1679l-121 -32l-225 247l-226 -247l-121 32l295 308h103zM1208 0l-168 453
h-673l-168 -453h-146l578 1520h149l578 -1520h-150zM414 575h579l-288 781z" />
    <glyph glyph-name="uni1EA9" unicode="&#x1ea9;" horiz-adv-x="1148" 
d="M930 1483l-70 63q99 51 139.5 88.5t40.5 91.5q0 46 -30 74.5t-97 28.5q-98 0 -180 -64l-24 95q96 67 213 67q104 0 166.5 -49.5t62.5 -144.5q0 -44 -15 -80t-46.5 -66t-68 -53.5t-91.5 -50.5zM893 1251l-111 -32l-200 286l-201 -286l-111 32l260 355h103zM848 0l-2 164
q-65 -88 -160 -138.5t-215 -50.5q-158 0 -255 85.5t-97 238.5q0 178 139.5 264t423.5 86h156v68q0 133 -61 197.5t-212 64.5q-197 0 -350 -117l-29 123q148 115 389 115q209 0 303.5 -95.5t94.5 -273.5v-731h-125zM494 94q117 0 207 58.5t137 150.5v238h-146
q-225 0 -330.5 -57.5t-105.5 -182.5q0 -99 64 -153t174 -54z" />
    <glyph glyph-name="uni1EAA" unicode="&#x1eaa;" horiz-adv-x="1411" 
d="M479 2054l-100 10q0 117 52 175.5t132 58.5q32 0 63 -11t51 -24t58 -41q42 -32 65 -44.5t48 -12.5q86 0 86 145l100 -10q0 -119 -52 -177.5t-132 -58.5q-32 0 -63 11t-51 24t-58 41q-43 33 -66 45.5t-47 12.5q-86 0 -86 -144zM1053 1679l-121 -32l-225 247l-226 -247
l-121 32l295 308h103zM1208 0l-168 453h-673l-168 -453h-146l578 1520h149l578 -1520h-150zM414 575h579l-288 781z" />
    <glyph glyph-name="uni1EAB" unicode="&#x1eab;" horiz-adv-x="1148" 
d="M362 1675l-102 8q0 119 51 177.5t129 58.5q43 0 79.5 -18t90.5 -58q42 -31 65 -44t46 -13q80 0 80 143l102 -8q0 -119 -51 -177t-129 -58q-43 0 -80 18t-90 57q-43 32 -65.5 45t-45.5 13q-80 0 -80 -144zM893 1251l-111 -32l-200 286l-201 -286l-111 32l260 355h103z
M848 0l-2 164q-65 -88 -160 -138.5t-215 -50.5q-158 0 -255 85.5t-97 238.5q0 178 139.5 264t423.5 86h156v68q0 133 -61 197.5t-212 64.5q-197 0 -350 -117l-29 123q148 115 389 115q209 0 303.5 -95.5t94.5 -273.5v-731h-125zM494 94q117 0 207 58.5t137 150.5v238h-146
q-225 0 -330.5 -57.5t-105.5 -182.5q0 -99 64 -153t174 -54z" />
    <glyph glyph-name="uni1EAC" unicode="&#x1eac;" horiz-adv-x="1411" 
d="M1053 1679l-121 -32l-225 247l-226 -247l-121 32l295 308h103zM1208 0l-168 453h-673l-168 -453h-146l578 1520h149l578 -1520h-150zM414 575h579l-288 781zM623 -356v178h168v-178h-168z" />
    <glyph glyph-name="uni1EAD" unicode="&#x1ead;" horiz-adv-x="1148" 
d="M907 1251l-114 -32l-211 335l-211 -335l-115 32l274 406h103zM848 0l-2 164q-65 -88 -160 -138.5t-215 -50.5q-158 0 -255 85.5t-97 238.5q0 178 139.5 264t423.5 86h156v68q0 133 -61 197.5t-212 64.5q-197 0 -350 -117l-29 123q148 115 389 115q209 0 303.5 -95.5
t94.5 -273.5v-731h-125zM494 94q117 0 207 58.5t137 150.5v238h-146q-225 0 -330.5 -57.5t-105.5 -182.5q0 -99 64 -153t174 -54zM498 -356v178h168v-178h-168z" />
    <glyph glyph-name="uni1EAE" unicode="&#x1eae;" horiz-adv-x="1411" 
d="M659 1970l-65 47l328 312l116 -80zM381 1937l104 9q13 -98 73 -145.5t149 -47.5t148.5 47.5t72.5 145.5l104 -9q-13 -137 -102.5 -212.5t-222.5 -75.5q-134 0 -222.5 74t-103.5 214zM1208 0l-168 453h-673l-168 -453h-146l578 1520h149l578 -1520h-150zM414 575h579
l-288 781z" />
    <glyph glyph-name="uni1EAF" unicode="&#x1eaf;" horiz-adv-x="1148" 
d="M567 1528l-71 41l237 393l119 -66zM260 1540l105 8q32 -213 217 -213t217 213l104 -8q-20 -152 -106 -229.5t-215 -77.5t-215.5 77.5t-106.5 229.5zM848 0l-2 164q-65 -88 -160 -138.5t-215 -50.5q-158 0 -255 85.5t-97 238.5q0 178 139.5 264t423.5 86h156v68
q0 133 -61 197.5t-212 64.5q-197 0 -350 -117l-29 123q148 115 389 115q209 0 303.5 -95.5t94.5 -273.5v-731h-125zM494 94q117 0 207 58.5t137 150.5v238h-146q-225 0 -330.5 -57.5t-105.5 -182.5q0 -99 64 -153t174 -54z" />
    <glyph glyph-name="uni1EB0" unicode="&#x1eb0;" horiz-adv-x="1411" 
d="M754 1970l-379 279l117 80l327 -312zM381 1937l104 9q13 -98 73 -145.5t149 -47.5t148.5 47.5t72.5 145.5l104 -9q-13 -137 -102.5 -212.5t-222.5 -75.5q-134 0 -222.5 74t-103.5 214zM1208 0l-168 453h-673l-168 -453h-146l578 1520h149l578 -1520h-150zM414 575h579
l-288 781z" />
    <glyph glyph-name="uni1EB1" unicode="&#x1eb1;" horiz-adv-x="1148" 
d="M596 1528l-285 368l119 66l238 -393zM260 1540l105 8q32 -213 217 -213t217 213l104 -8q-20 -152 -106 -229.5t-215 -77.5t-215.5 77.5t-106.5 229.5zM848 0l-2 164q-65 -88 -160 -138.5t-215 -50.5q-158 0 -255 85.5t-97 238.5q0 178 139.5 264t423.5 86h156v68
q0 133 -61 197.5t-212 64.5q-197 0 -350 -117l-29 123q148 115 389 115q209 0 303.5 -95.5t94.5 -273.5v-731h-125zM494 94q117 0 207 58.5t137 150.5v238h-146q-225 0 -330.5 -57.5t-105.5 -182.5q0 -99 64 -153t174 -54z" />
    <glyph glyph-name="uni1EB2" unicode="&#x1eb2;" horiz-adv-x="1411" 
d="M705 1929l-70 64q99 51 139.5 88.5t40.5 91.5q0 102 -127 102q-99 0 -180 -63l-27 94q101 68 215 68q104 0 167 -50t63 -145q0 -44 -15 -80t-46.5 -66t-68 -53.5t-91.5 -50.5zM381 1937l104 9q13 -98 73 -145.5t149 -47.5t148.5 47.5t72.5 145.5l104 -9
q-13 -137 -102.5 -212.5t-222.5 -75.5q-134 0 -222.5 74t-103.5 214zM1208 0l-168 453h-673l-168 -453h-146l578 1520h149l578 -1520h-150zM414 575h579l-288 781z" />
    <glyph glyph-name="uni1EB3" unicode="&#x1eb3;" horiz-adv-x="1148" 
d="M580 1532l-70 63q99 51 139.5 89t40.5 92q0 102 -127 102q-99 0 -180 -63l-27 94q100 67 215 67q104 0 167 -49.5t63 -144.5q0 -44 -15 -80t-46.5 -66t-68 -53.5t-91.5 -50.5zM260 1540l105 8q32 -213 217 -213t217 213l104 -8q-20 -152 -106 -229.5t-215 -77.5
t-215.5 77.5t-106.5 229.5zM848 0l-2 164q-65 -88 -160 -138.5t-215 -50.5q-158 0 -255 85.5t-97 238.5q0 178 139.5 264t423.5 86h156v68q0 133 -61 197.5t-212 64.5q-197 0 -350 -117l-29 123q148 115 389 115q209 0 303.5 -95.5t94.5 -273.5v-731h-125zM494 94
q117 0 207 58.5t137 150.5v238h-146q-225 0 -330.5 -57.5t-105.5 -182.5q0 -99 64 -153t174 -54z" />
    <glyph glyph-name="uni1EB4" unicode="&#x1eb4;" horiz-adv-x="1411" 
d="M479 2054l-100 10q0 117 52 175.5t132 58.5q32 0 63 -11t51 -24t58 -41q42 -32 65 -44.5t48 -12.5q86 0 86 145l100 -10q0 -119 -52 -177.5t-132 -58.5q-32 0 -63 11t-51 24t-58 41q-43 33 -66 45.5t-47 12.5q-86 0 -86 -144zM381 1937l104 9q13 -98 73 -145.5t149 -47.5
t148.5 47.5t72.5 145.5l104 -9q-13 -137 -102.5 -212.5t-222.5 -75.5q-134 0 -222.5 74t-103.5 214zM1208 0l-168 453h-673l-168 -453h-146l578 1520h149l578 -1520h-150zM414 575h579l-288 781z" />
    <glyph glyph-name="uni1EB5" unicode="&#x1eb5;" horiz-adv-x="1148" 
d="M362 1675l-102 8q0 119 51 177.5t129 58.5q43 0 79.5 -18t90.5 -58q42 -31 65 -44t46 -13q80 0 80 143l102 -8q0 -119 -51 -177t-129 -58q-43 0 -80 18t-90 57q-43 32 -65.5 45t-45.5 13q-80 0 -80 -144zM260 1540l105 8q32 -213 217 -213t217 213l104 -8
q-20 -152 -106 -229.5t-215 -77.5t-215.5 77.5t-106.5 229.5zM848 0l-2 164q-65 -88 -160 -138.5t-215 -50.5q-158 0 -255 85.5t-97 238.5q0 178 139.5 264t423.5 86h156v68q0 133 -61 197.5t-212 64.5q-197 0 -350 -117l-29 123q148 115 389 115q209 0 303.5 -95.5
t94.5 -273.5v-731h-125zM494 94q117 0 207 58.5t137 150.5v238h-146q-225 0 -330.5 -57.5t-105.5 -182.5q0 -99 64 -153t174 -54z" />
    <glyph glyph-name="uni1EB6" unicode="&#x1eb6;" horiz-adv-x="1411" 
d="M379 1968l104 8q9 -110 68 -164.5t156 -54.5t155.5 54t67.5 165l104 -8q-6 -153 -96.5 -236t-230.5 -83t-231 83t-97 236zM1208 0l-168 453h-673l-168 -453h-146l578 1520h149l578 -1520h-150zM414 575h579l-288 781zM623 -356v178h168v-178h-168z" />
    <glyph glyph-name="uni1EB7" unicode="&#x1eb7;" horiz-adv-x="1148" 
d="M254 1587l104 8q6 -128 66 -191t158 -63t157.5 62.5t65.5 191.5l104 -8q-6 -171 -96 -262.5t-231 -91.5t-231.5 91.5t-96.5 262.5zM848 0l-2 164q-65 -88 -160 -138.5t-215 -50.5q-158 0 -255 85.5t-97 238.5q0 178 139.5 264t423.5 86h156v68q0 133 -61 197.5t-212 64.5
q-197 0 -350 -117l-29 123q148 115 389 115q209 0 303.5 -95.5t94.5 -273.5v-731h-125zM494 94q117 0 207 58.5t137 150.5v238h-146q-225 0 -330.5 -57.5t-105.5 -182.5q0 -99 64 -153t174 -54zM498 -356v178h168v-178h-168z" />
    <glyph glyph-name="uni1EB8" unicode="&#x1eb8;" horiz-adv-x="1273" 
d="M1147 127v-127h-932v1520h915v-125h-774v-527h693v-127h-693v-614h791zM569 -356v178h168v-178h-168z" />
    <glyph glyph-name="uni1EB9" unicode="&#x1eb9;" horiz-adv-x="1165" 
d="M1034 102q-157 -127 -399 -127q-255 0 -392 146.5t-137 404.5q0 263 133.5 418.5t366.5 155.5q95 0 171 -27.5t126.5 -74.5t84.5 -112.5t48.5 -137t14.5 -152.5v-76h-807q0 -206 103 -315t304 -109q112 0 195.5 33t159.5 96zM606 985q-147 0 -245 -93t-115 -265h672v18
q0 67 -17.5 125.5t-53 108t-97.5 78t-144 28.5zM518 -356v178h168v-178h-168z" />
    <glyph glyph-name="uni1EBA" unicode="&#x1eba;" horiz-adv-x="1273" 
d="M670 1630l-74 68q111 59 154 97t43 97q0 52 -33.5 83.5t-108.5 31.5q-109 0 -196 -70l-27 101q107 73 234 73q111 0 179 -53.5t68 -156.5q0 -48 -16 -87t-50 -71.5t-73.5 -57.5t-99.5 -55zM1147 127v-127h-932v1520h915v-125h-774v-527h693v-127h-693v-614h791z" />
    <glyph glyph-name="uni1EBB" unicode="&#x1ebb;" horiz-adv-x="1165" 
d="M618 1212l-73 68q111 58 153.5 97.5t42.5 99.5q0 112 -139 112q-113 0 -199 -69l-26 100q109 74 233 74q111 0 179.5 -54t68.5 -157q0 -48 -16 -87t-50.5 -71.5t-74 -57.5t-99.5 -55zM1034 102q-157 -127 -399 -127q-255 0 -392 146.5t-137 404.5q0 263 133.5 418.5
t366.5 155.5q95 0 171 -27.5t126.5 -74.5t84.5 -112.5t48.5 -137t14.5 -152.5v-76h-807q0 -206 103 -315t304 -109q112 0 195.5 33t159.5 96zM606 985q-147 0 -245 -93t-115 -265h672v18q0 67 -17.5 125.5t-53 108t-97.5 78t-144 28.5z" />
    <glyph glyph-name="uni1EBC" unicode="&#x1ebc;" horiz-adv-x="1273" 
d="M365 1659l-103 10q0 138 59 206.5t152 68.5q91 0 201 -82q53 -39 87.5 -56.5t72.5 -17.5q108 0 108 170l102 -8q0 -139 -58.5 -208t-151.5 -69q-38 0 -77.5 14t-63 28.5t-60.5 41.5q-39 27 -58.5 39.5t-47.5 23.5t-54 11q-108 0 -108 -172zM1147 127v-127h-932v1520h915
v-125h-774v-527h693v-127h-693v-614h791z" />
    <glyph glyph-name="uni1EBD" unicode="&#x1ebd;" horiz-adv-x="1165" 
d="M330 1262l-103 10q0 139 56 206.5t145 67.5q90 0 195 -82q50 -39 82 -57t67 -18q102 0 102 172l103 -11q0 -138 -56 -206t-145 -68t-194 82q-51 40 -83 58t-67 18q-102 0 -102 -172zM1034 102q-157 -127 -399 -127q-255 0 -392 146.5t-137 404.5q0 263 133.5 418.5
t366.5 155.5q95 0 171 -27.5t126.5 -74.5t84.5 -112.5t48.5 -137t14.5 -152.5v-76h-807q0 -206 103 -315t304 -109q112 0 195.5 33t159.5 96zM606 985q-147 0 -245 -93t-115 -265h672v18q0 67 -17.5 125.5t-53 108t-97.5 78t-144 28.5z" />
    <glyph glyph-name="uni1EBE" unicode="&#x1ebe;" horiz-adv-x="1273" 
d="M954 1921l-65 47l328 311l116 -79zM999 1679l-120 -32l-226 247l-225 -247l-121 32l295 308h103zM1147 127v-127h-932v1520h915v-125h-774v-527h693v-127h-693v-614h791z" />
    <glyph glyph-name="uni1EBF" unicode="&#x1ebf;" horiz-adv-x="1165" 
d="M920 1479l-72 41l237 393l119 -66zM913 1251l-110 -32l-201 286l-201 -286l-110 32l260 355h102zM1034 102q-157 -127 -399 -127q-255 0 -392 146.5t-137 404.5q0 263 133.5 418.5t366.5 155.5q95 0 171 -27.5t126.5 -74.5t84.5 -112.5t48.5 -137t14.5 -152.5v-76h-807
q0 -206 103 -315t304 -109q112 0 195.5 33t159.5 96zM606 985q-147 0 -245 -93t-115 -265h672v18q0 67 -17.5 125.5t-53 108t-97.5 78t-144 28.5z" />
    <glyph glyph-name="uni1EC0" unicode="&#x1ec0;" horiz-adv-x="1273" 
d="M1063 1921l-379 279l117 79l327 -311zM999 1679l-120 -32l-226 247l-225 -247l-121 32l295 308h103zM1147 127v-127h-932v1520h915v-125h-774v-527h693v-127h-693v-614h791z" />
    <glyph glyph-name="uni1EC1" unicode="&#x1ec1;" horiz-adv-x="1165" 
d="M991 1479l-284 368l118 66l238 -393zM913 1251l-110 -32l-201 286l-201 -286l-110 32l260 355h102zM1034 102q-157 -127 -399 -127q-255 0 -392 146.5t-137 404.5q0 263 133.5 418.5t366.5 155.5q95 0 171 -27.5t126.5 -74.5t84.5 -112.5t48.5 -137t14.5 -152.5v-76h-807
q0 -206 103 -315t304 -109q112 0 195.5 33t159.5 96zM606 985q-147 0 -245 -93t-115 -265h672v18q0 67 -17.5 125.5t-53 108t-97.5 78t-144 28.5z" />
    <glyph glyph-name="uni1EC2" unicode="&#x1ec2;" horiz-adv-x="1273" 
d="M1010 1880l-70 64q100 50 140 88t40 92q0 102 -127 102q-96 0 -180 -63l-25 94q100 67 213 67q104 0 167 -49.5t63 -144.5q0 -44 -15 -80t-46.5 -66t-68 -53.5t-91.5 -50.5zM999 1679l-120 -32l-226 247l-225 -247l-121 32l295 308h103zM1147 127v-127h-932v1520h915
v-125h-774v-527h693v-127h-693v-614h791z" />
    <glyph glyph-name="uni1EC3" unicode="&#x1ec3;" horiz-adv-x="1165" 
d="M950 1483l-69 63q99 51 139.5 88.5t40.5 91.5q0 46 -30 74.5t-97 28.5q-98 0 -180 -64l-25 95q96 67 213 67q104 0 166.5 -49.5t62.5 -144.5q0 -44 -15 -80t-46.5 -66t-68 -53.5t-91.5 -50.5zM913 1251l-110 -32l-201 286l-201 -286l-110 32l260 355h102zM1034 102
q-157 -127 -399 -127q-255 0 -392 146.5t-137 404.5q0 263 133.5 418.5t366.5 155.5q95 0 171 -27.5t126.5 -74.5t84.5 -112.5t48.5 -137t14.5 -152.5v-76h-807q0 -206 103 -315t304 -109q112 0 195.5 33t159.5 96zM606 985q-147 0 -245 -93t-115 -265h672v18
q0 67 -17.5 125.5t-53 108t-97.5 78t-144 28.5z" />
    <glyph glyph-name="uni1EC4" unicode="&#x1ec4;" horiz-adv-x="1273" 
d="M426 2054l-100 10q0 117 52 175.5t132 58.5q32 0 63 -11t51 -24t58 -41q42 -32 65 -44.5t48 -12.5q86 0 86 145l100 -10q0 -119 -52 -177.5t-132 -58.5q-32 0 -63 11t-51 24t-58 41q-43 33 -66 45.5t-47 12.5q-86 0 -86 -144zM999 1679l-120 -32l-226 247l-225 -247
l-121 32l295 308h103zM1147 127v-127h-932v1520h915v-125h-774v-527h693v-127h-693v-614h791z" />
    <glyph glyph-name="uni1EC5" unicode="&#x1ec5;" horiz-adv-x="1165" 
d="M383 1675l-102 8q0 119 51 177.5t129 58.5q43 0 79.5 -18t90.5 -58q42 -32 64.5 -44.5t45.5 -12.5q80 0 80 143l103 -8q0 -119 -51.5 -177t-129.5 -58q-43 0 -80 18t-90 57q-30 23 -44.5 32.5t-32 17.5t-33.5 8q-80 0 -80 -144zM913 1251l-110 -32l-201 286l-201 -286
l-110 32l260 355h102zM1034 102q-157 -127 -399 -127q-255 0 -392 146.5t-137 404.5q0 263 133.5 418.5t366.5 155.5q95 0 171 -27.5t126.5 -74.5t84.5 -112.5t48.5 -137t14.5 -152.5v-76h-807q0 -206 103 -315t304 -109q112 0 195.5 33t159.5 96zM606 985q-147 0 -245 -93
t-115 -265h672v18q0 67 -17.5 125.5t-53 108t-97.5 78t-144 28.5z" />
    <glyph glyph-name="uni1EC6" unicode="&#x1ec6;" horiz-adv-x="1273" 
d="M999 1679l-120 -32l-226 247l-225 -247l-121 32l295 308h103zM1147 127v-127h-932v1520h915v-125h-774v-527h693v-127h-693v-614h791zM569 -356v178h168v-178h-168z" />
    <glyph glyph-name="uni1EC7" unicode="&#x1ec7;" horiz-adv-x="1165" 
d="M928 1251l-115 -32l-211 335l-211 -335l-115 32l275 406h102zM1034 102q-157 -127 -399 -127q-255 0 -392 146.5t-137 404.5q0 263 133.5 418.5t366.5 155.5q95 0 171 -27.5t126.5 -74.5t84.5 -112.5t48.5 -137t14.5 -152.5v-76h-807q0 -206 103 -315t304 -109
q112 0 195.5 33t159.5 96zM606 985q-147 0 -245 -93t-115 -265h672v18q0 67 -17.5 125.5t-53 108t-97.5 78t-144 28.5zM518 -356v178h168v-178h-168z" />
    <glyph glyph-name="uni1EC8" unicode="&#x1ec8;" horiz-adv-x="571" 
d="M303 1630l-74 68q111 59 154 97t43 97q0 115 -141 115q-110 0 -197 -70l-27 101q107 73 234 73q111 0 179.5 -53.5t68.5 -156.5q0 -48 -16 -87t-50.5 -71.5t-74 -57.5t-99.5 -55zM215 0v1520h141v-1520h-141z" />
    <glyph glyph-name="uni1EC9" unicode="&#x1ec9;" horiz-adv-x="520" 
d="M276 1212l-73 68q111 58 153.5 97.5t42.5 99.5q0 112 -139 112q-113 0 -199 -69l-26 100q109 74 233 74q111 0 179.5 -54t68.5 -157q0 -48 -16 -87t-50.5 -71.5t-74 -57.5t-99.5 -55zM193 0v1075h135v-1075h-135z" />
    <glyph glyph-name="uni1ECA" unicode="&#x1eca;" horiz-adv-x="571" 
d="M215 0v1520h141v-1520h-141zM203 -356v178h168v-178h-168z" />
    <glyph glyph-name="uni1ECB" unicode="&#x1ecb;" horiz-adv-x="516" 
d="M174 1321v180h168v-180h-168zM190 0v1075h136v-1075h-136zM174 -356v178h168v-178h-168z" />
    <glyph glyph-name="uni1ECC" unicode="&#x1ecc;" horiz-adv-x="1593" 
d="M797 -29q-147 0 -271 54.5t-212.5 154.5t-138.5 249t-50 331t50 331t139 249t212.5 154t270.5 54t270.5 -54t212.5 -154t138.5 -249t49.5 -331t-49.5 -331t-138.5 -249t-212.5 -154.5t-270.5 -54.5zM797 100q244 0 384 177t140 483q0 304 -140.5 481.5t-383.5 177.5
q-244 0 -384.5 -176.5t-140.5 -482.5q0 -303 140.5 -481.5t384.5 -178.5zM713 -356v178h168v-178h-168z" />
    <glyph glyph-name="uni1ECD" unicode="&#x1ecd;" horiz-adv-x="1222" 
d="M612 -25q-222 0 -364 151t-142 411t142 411.5t364 151.5q144 0 257.5 -66t180 -195t66.5 -302q0 -130 -38.5 -236.5t-106 -177.5t-159.5 -109.5t-200 -38.5zM612 94q167 0 266 120t99 323q0 204 -98.5 323t-266.5 119q-169 0 -267.5 -119t-98.5 -323q0 -203 99 -323
t267 -120zM528 -356v178h168v-178h-168z" />
    <glyph glyph-name="uni1ECE" unicode="&#x1ece;" horiz-adv-x="1593" 
d="M813 1630l-74 68q111 59 154 97t43 97q0 115 -141 115q-110 0 -197 -70l-27 101q107 73 234 73q111 0 179.5 -53.5t68.5 -156.5q0 -48 -16 -87t-50.5 -71.5t-74 -57.5t-99.5 -55zM797 -29q-147 0 -271 54.5t-212.5 154.5t-138.5 249t-50 331t50 331t139 249t212.5 154
t270.5 54t270.5 -54t212.5 -154t138.5 -249t49.5 -331t-49.5 -331t-138.5 -249t-212.5 -154.5t-270.5 -54.5zM797 100q244 0 384 177t140 483q0 304 -140.5 481.5t-383.5 177.5q-244 0 -384.5 -176.5t-140.5 -482.5q0 -303 140.5 -481.5t384.5 -178.5z" />
    <glyph glyph-name="uni1ECF" unicode="&#x1ecf;" horiz-adv-x="1222" 
d="M629 1212l-74 68q111 58 154 97.5t43 99.5q0 112 -140 112q-112 0 -198 -69l-27 100q109 74 234 74q111 0 179 -54t68 -157q0 -48 -16 -87t-50 -71.5t-73.5 -57.5t-99.5 -55zM612 -25q-222 0 -364 151t-142 411t142 411.5t364 151.5q144 0 257.5 -66t180 -195t66.5 -302
q0 -130 -38.5 -236.5t-106 -177.5t-159.5 -109.5t-200 -38.5zM612 94q167 0 266 120t99 323q0 204 -98.5 323t-266.5 119q-169 0 -267.5 -119t-98.5 -323q0 -203 99 -323t267 -120z" />
    <glyph glyph-name="uni1ED0" unicode="&#x1ed0;" horiz-adv-x="1593" 
d="M1098 1921l-66 47l328 311l117 -79zM1143 1679l-121 -32l-225 247l-226 -247l-120 32l294 308h103zM797 -29q-147 0 -271 54.5t-212.5 154.5t-138.5 249t-50 331t50 331t139 249t212.5 154t270.5 54t270.5 -54t212.5 -154t138.5 -249t49.5 -331t-49.5 -331t-138.5 -249
t-212.5 -154.5t-270.5 -54.5zM797 100q244 0 384 177t140 483q0 304 -140.5 481.5t-383.5 177.5q-244 0 -384.5 -176.5t-140.5 -482.5q0 -303 140.5 -481.5t384.5 -178.5z" />
    <glyph glyph-name="uni1ED1" unicode="&#x1ed1;" horiz-adv-x="1222" 
d="M930 1479l-72 41l238 393l118 -66zM924 1251l-111 -32l-201 286l-200 -286l-111 32l260 355h103zM612 -25q-222 0 -364 151t-142 411t142 411.5t364 151.5q144 0 257.5 -66t180 -195t66.5 -302q0 -130 -38.5 -236.5t-106 -177.5t-159.5 -109.5t-200 -38.5zM612 94
q167 0 266 120t99 323q0 204 -98.5 323t-266.5 119q-169 0 -267.5 -119t-98.5 -323q0 -203 99 -323t267 -120z" />
    <glyph glyph-name="uni1ED2" unicode="&#x1ed2;" horiz-adv-x="1593" 
d="M1206 1921l-379 279l117 79l328 -311zM1143 1679l-121 -32l-225 247l-226 -247l-120 32l294 308h103zM797 -29q-147 0 -271 54.5t-212.5 154.5t-138.5 249t-50 331t50 331t139 249t212.5 154t270.5 54t270.5 -54t212.5 -154t138.5 -249t49.5 -331t-49.5 -331t-138.5 -249
t-212.5 -154.5t-270.5 -54.5zM797 100q244 0 384 177t140 483q0 304 -140.5 481.5t-383.5 177.5q-244 0 -384.5 -176.5t-140.5 -482.5q0 -303 140.5 -481.5t384.5 -178.5z" />
    <glyph glyph-name="uni1ED3" unicode="&#x1ed3;" horiz-adv-x="1222" 
d="M1001 1479l-284 368l119 66l237 -393zM924 1251l-111 -32l-201 286l-200 -286l-111 32l260 355h103zM612 -25q-222 0 -364 151t-142 411t142 411.5t364 151.5q144 0 257.5 -66t180 -195t66.5 -302q0 -130 -38.5 -236.5t-106 -177.5t-159.5 -109.5t-200 -38.5zM612 94
q167 0 266 120t99 323q0 204 -98.5 323t-266.5 119q-169 0 -267.5 -119t-98.5 -323q0 -203 99 -323t267 -120z" />
    <glyph glyph-name="uni1ED4" unicode="&#x1ed4;" horiz-adv-x="1593" 
d="M1153 1880l-70 64q100 51 140.5 88.5t40.5 91.5q0 102 -127 102q-97 0 -181 -63l-24 94q100 67 213 67q104 0 166.5 -49.5t62.5 -144.5q0 -44 -15 -80t-46.5 -66t-68 -53.5t-91.5 -50.5zM1143 1679l-121 -32l-225 247l-226 -247l-120 32l294 308h103zM797 -29
q-147 0 -271 54.5t-212.5 154.5t-138.5 249t-50 331t50 331t139 249t212.5 154t270.5 54t270.5 -54t212.5 -154t138.5 -249t49.5 -331t-49.5 -331t-138.5 -249t-212.5 -154.5t-270.5 -54.5zM797 100q244 0 384 177t140 483q0 304 -140.5 481.5t-383.5 177.5
q-244 0 -384.5 -176.5t-140.5 -482.5q0 -303 140.5 -481.5t384.5 -178.5z" />
    <glyph glyph-name="uni1ED5" unicode="&#x1ed5;" horiz-adv-x="1222" 
d="M961 1483l-70 63q99 51 139.5 88.5t40.5 91.5q0 46 -30 74.5t-97 28.5q-98 0 -180 -64l-25 95q96 67 213 67q104 0 167 -49.5t63 -144.5q0 -44 -15 -80t-46.5 -66t-68 -53.5t-91.5 -50.5zM924 1251l-111 -32l-201 286l-200 -286l-111 32l260 355h103zM612 -25
q-222 0 -364 151t-142 411t142 411.5t364 151.5q144 0 257.5 -66t180 -195t66.5 -302q0 -130 -38.5 -236.5t-106 -177.5t-159.5 -109.5t-200 -38.5zM612 94q167 0 266 120t99 323q0 204 -98.5 323t-266.5 119q-169 0 -267.5 -119t-98.5 -323q0 -203 99 -323t267 -120z" />
    <glyph glyph-name="uni1ED6" unicode="&#x1ed6;" horiz-adv-x="1593" 
d="M569 2054l-100 10q0 117 52 175.5t132 58.5q32 0 63 -11t51 -24t58 -41q42 -32 65 -44.5t48 -12.5q86 0 86 145l100 -10q0 -119 -52 -177.5t-132 -58.5q-32 0 -63 11t-51 24t-58 41q-43 33 -66 45.5t-47 12.5q-86 0 -86 -144zM1143 1679l-121 -32l-225 247l-226 -247
l-120 32l294 308h103zM797 -29q-147 0 -271 54.5t-212.5 154.5t-138.5 249t-50 331t50 331t139 249t212.5 154t270.5 54t270.5 -54t212.5 -154t138.5 -249t49.5 -331t-49.5 -331t-138.5 -249t-212.5 -154.5t-270.5 -54.5zM797 100q244 0 384 177t140 483q0 304 -140.5 481.5
t-383.5 177.5q-244 0 -384.5 -176.5t-140.5 -482.5q0 -303 140.5 -481.5t384.5 -178.5z" />
    <glyph glyph-name="uni1ED7" unicode="&#x1ed7;" horiz-adv-x="1222" 
d="M393 1675l-102 8q0 119 51 177.5t129 58.5q43 0 79.5 -18t90.5 -58q42 -31 65 -44t46 -13q79 0 79 143l103 -8q0 -119 -51 -177t-129 -58q-43 0 -80 18t-90 57q-43 32 -65.5 45t-45.5 13q-80 0 -80 -144zM924 1251l-111 -32l-201 286l-200 -286l-111 32l260 355h103z
M612 -25q-222 0 -364 151t-142 411t142 411.5t364 151.5q144 0 257.5 -66t180 -195t66.5 -302q0 -130 -38.5 -236.5t-106 -177.5t-159.5 -109.5t-200 -38.5zM612 94q167 0 266 120t99 323q0 204 -98.5 323t-266.5 119q-169 0 -267.5 -119t-98.5 -323q0 -203 99 -323
t267 -120z" />
    <glyph glyph-name="uni1ED8" unicode="&#x1ed8;" horiz-adv-x="1593" 
d="M1143 1679l-121 -32l-225 247l-226 -247l-120 32l294 308h103zM797 -29q-147 0 -271 54.5t-212.5 154.5t-138.5 249t-50 331t50 331t139 249t212.5 154t270.5 54t270.5 -54t212.5 -154t138.5 -249t49.5 -331t-49.5 -331t-138.5 -249t-212.5 -154.5t-270.5 -54.5zM797 100
q244 0 384 177t140 483q0 304 -140.5 481.5t-383.5 177.5q-244 0 -384.5 -176.5t-140.5 -482.5q0 -303 140.5 -481.5t384.5 -178.5zM713 -356v178h168v-178h-168z" />
    <glyph glyph-name="uni1ED9" unicode="&#x1ed9;" horiz-adv-x="1222" 
d="M938 1251l-115 -32l-211 335l-211 -335l-114 32l274 406h103zM612 -25q-222 0 -364 151t-142 411t142 411.5t364 151.5q144 0 257.5 -66t180 -195t66.5 -302q0 -130 -38.5 -236.5t-106 -177.5t-159.5 -109.5t-200 -38.5zM612 94q167 0 266 120t99 323q0 204 -98.5 323
t-266.5 119q-169 0 -267.5 -119t-98.5 -323q0 -203 99 -323t267 -120zM528 -356v178h168v-178h-168z" />
    <glyph glyph-name="uni1EDA" unicode="&#x1eda;" horiz-adv-x="1593" 
d="M709 1638l-72 52l334 317l125 -90zM1468 760q0 -182 -49.5 -331t-138.5 -249t-212.5 -154.5t-270.5 -54.5t-271 54.5t-212.5 154.5t-138.5 249t-50 331t50 331t139 249t212.5 154t270.5 54q158 0 293 -63h30q70 0 118 15t73 45.5t35 67.5t10 89q0 50 -8 104h127
q8 -58 8 -110q0 -261 -256 -303q116 -103 178.5 -264t62.5 -369zM797 100q244 0 384 177t140 483q0 304 -140.5 481.5t-383.5 177.5q-244 0 -384.5 -176.5t-140.5 -482.5q0 -303 140.5 -481.5t384.5 -178.5z" />
    <glyph glyph-name="uni1EDB" unicode="&#x1edb;" horiz-adv-x="1245" 
d="M565 1212l-78 43l250 418l131 -71zM1116 537q0 -130 -38.5 -236.5t-106 -177.5t-159.5 -109.5t-200 -38.5q-222 0 -364 151t-142 411t142 411.5t364 151.5q126 0 224 -49h18q128 0 175.5 54t47.5 159q0 54 -8 108h125q8 -58 8 -112q0 -255 -239 -299q153 -156 153 -424z
M612 94q167 0 266 120t99 323q0 204 -98.5 323t-266.5 119q-169 0 -267.5 -119t-98.5 -323q0 -203 99 -323t267 -120z" />
    <glyph glyph-name="uni1EDC" unicode="&#x1edc;" horiz-adv-x="1593" 
d="M885 1638l-387 279l125 90l333 -317zM1468 760q0 -182 -49.5 -331t-138.5 -249t-212.5 -154.5t-270.5 -54.5t-271 54.5t-212.5 154.5t-138.5 249t-50 331t50 331t139 249t212.5 154t270.5 54q158 0 293 -63h30q70 0 118 15t73 45.5t35 67.5t10 89q0 50 -8 104h127
q8 -58 8 -110q0 -261 -256 -303q116 -103 178.5 -264t62.5 -369zM797 100q244 0 384 177t140 483q0 304 -140.5 481.5t-383.5 177.5q-244 0 -384.5 -176.5t-140.5 -482.5q0 -303 140.5 -481.5t384.5 -178.5z" />
    <glyph glyph-name="uni1EDD" unicode="&#x1edd;" horiz-adv-x="1245" 
d="M659 1212l-303 390l131 71l250 -418zM1116 537q0 -130 -38.5 -236.5t-106 -177.5t-159.5 -109.5t-200 -38.5q-222 0 -364 151t-142 411t142 411.5t364 151.5q126 0 224 -49h18q128 0 175.5 54t47.5 159q0 54 -8 108h125q8 -58 8 -112q0 -255 -239 -299q153 -156 153 -424
zM612 94q167 0 266 120t99 323q0 204 -98.5 323t-266.5 119q-169 0 -267.5 -119t-98.5 -323q0 -203 99 -323t267 -120z" />
    <glyph glyph-name="uni1EDE" unicode="&#x1ede;" horiz-adv-x="1593" 
d="M813 1630l-74 68q111 59 154 97t43 97q0 115 -141 115q-110 0 -197 -70l-27 101q107 73 234 73q111 0 179.5 -53.5t68.5 -156.5q0 -48 -16 -87t-50.5 -71.5t-74 -57.5t-99.5 -55zM1468 760q0 -182 -49.5 -331t-138.5 -249t-212.5 -154.5t-270.5 -54.5t-271 54.5
t-212.5 154.5t-138.5 249t-50 331t50 331t139 249t212.5 154t270.5 54q158 0 293 -63h30q70 0 118 15t73 45.5t35 67.5t10 89q0 50 -8 104h127q8 -58 8 -110q0 -261 -256 -303q116 -103 178.5 -264t62.5 -369zM797 100q244 0 384 177t140 483q0 304 -140.5 481.5
t-383.5 177.5q-244 0 -384.5 -176.5t-140.5 -482.5q0 -303 140.5 -481.5t384.5 -178.5z" />
    <glyph glyph-name="uni1EDF" unicode="&#x1edf;" horiz-adv-x="1245" 
d="M629 1212l-74 68q111 58 154 97.5t43 99.5q0 112 -140 112q-112 0 -198 -69l-27 100q109 74 234 74q111 0 179 -54t68 -157q0 -48 -16 -87t-50 -71.5t-73.5 -57.5t-99.5 -55zM1116 537q0 -130 -38.5 -236.5t-106 -177.5t-159.5 -109.5t-200 -38.5q-222 0 -364 151
t-142 411t142 411.5t364 151.5q126 0 224 -49h18q128 0 175.5 54t47.5 159q0 54 -8 108h125q8 -58 8 -112q0 -255 -239 -299q153 -156 153 -424zM612 94q167 0 266 120t99 323q0 204 -98.5 323t-266.5 119q-169 0 -267.5 -119t-98.5 -323q0 -203 99 -323t267 -120z" />
    <glyph glyph-name="uni1EE0" unicode="&#x1ee0;" horiz-adv-x="1593" 
d="M508 1700l-102 10q0 139 58.5 207t151.5 68q91 0 201 -82q53 -39 87.5 -56.5t72.5 -17.5q108 0 108 170l103 -8q0 -139 -59 -208t-152 -69q-38 0 -77.5 14t-63 28.5t-60.5 41.5q-39 27 -58.5 39.5t-47.5 23.5t-54 11q-108 0 -108 -172zM1468 760q0 -182 -49.5 -331
t-138.5 -249t-212.5 -154.5t-270.5 -54.5t-271 54.5t-212.5 154.5t-138.5 249t-50 331t50 331t139 249t212.5 154t270.5 54q158 0 293 -63h30q70 0 118 15t73 45.5t35 67.5t10 89q0 50 -8 104h127q8 -58 8 -110q0 -261 -256 -303q116 -103 178.5 -264t62.5 -369zM797 100
q244 0 384 177t140 483q0 304 -140.5 481.5t-383.5 177.5q-244 0 -384.5 -176.5t-140.5 -482.5q0 -303 140.5 -481.5t384.5 -178.5z" />
    <glyph glyph-name="uni1EE1" unicode="&#x1ee1;" horiz-adv-x="1245" 
d="M340 1360l-102 10q0 139 55.5 207t144.5 68q90 0 195 -82q35 -27 53.5 -40t45 -24.5t50.5 -11.5q103 0 103 172l102 -10q0 -138 -56 -206.5t-145 -68.5t-194 82q-51 40 -83 58t-67 18q-102 0 -102 -172zM1116 537q0 -130 -38.5 -236.5t-106 -177.5t-159.5 -109.5
t-200 -38.5q-222 0 -364 151t-142 411t142 411.5t364 151.5q126 0 224 -49h18q128 0 175.5 54t47.5 159q0 54 -8 108h125q8 -58 8 -112q0 -255 -239 -299q153 -156 153 -424zM612 94q167 0 266 120t99 323q0 204 -98.5 323t-266.5 119q-169 0 -267.5 -119t-98.5 -323
q0 -203 99 -323t267 -120z" />
    </font>
</defs>
</svg>
