<?xml version="1.0" standalone="no"?>
<!DOCTYPE svg PUBLIC "-//W3C//DTD SVG 1.1//EN" "http://www.w3.org/Graphics/SVG/1.1/DTD/svg11.dtd" >
<svg xmlns="http://www.w3.org/2000/svg" xmlns:xlink="http://www.w3.org/1999/xlink" version="1.1">
<metadata>
Created by FontForge 20170731 at Tue Jul 21 14:26:23 2020
 By Aleksey,,,
Copyright (c) 2018 by Morisawa In.. All rights reserved.
</metadata>
<defs>
<font id="ClarimoUDPE-BoldItalic" horiz-adv-x="1290" >
  <font-face 
    font-family="Clarimo UD PE"
    font-weight="700"
    font-style="italic"
    font-stretch="normal"
    units-per-em="2048"
    panose-1="2 11 8 0 0 0 0 0 0 0"
    ascent="1593"
    descent="-455"
    x-height="1122"
    cap-height="1520"
    bbox="-592 -647 2839 2445"
    underline-thickness="102"
    underline-position="-409"
    slope="-11"
    unicode-range="U+0020-FB04"
  />
<missing-glyph horiz-adv-x="1024" 
d="M0 0v1434h1024v-1434h-1024zM512 809l348 522h-696zM573 717l349 -522v1044zM164 102h696l-348 523zM102 1239v-1044l349 522z" />
    <glyph glyph-name=".notdef" horiz-adv-x="1024" 
d="M0 0v1434h1024v-1434h-1024zM512 809l348 522h-696zM573 717l349 -522v1044zM164 102h696l-348 523zM102 1239v-1044l349 522z" />
    <glyph glyph-name=".null" horiz-adv-x="0" 
 />
    <glyph glyph-name="nonmarkingreturn" horiz-adv-x="682" 
 />
    <glyph glyph-name="space" unicode=" " horiz-adv-x="458" 
 />
    <glyph glyph-name="space" unicode="&#xa0;" horiz-adv-x="458" 
 />
    <glyph glyph-name="exclam" unicode="!" horiz-adv-x="786" 
d="M242 455l118 952l23 113h399l-22 -113l-262 -952h-256zM94 0l62 313h368l-61 -313h-369z" />
    <glyph glyph-name="quotedbl" unicode="&#x22;" horiz-adv-x="1110" 
d="M711 918l125 671l2 4h340v-4l-234 -671h-233zM231 918l125 671l2 4h340v-4l-233 -671h-234z" />
    <glyph glyph-name="numbersign" unicode="#" horiz-adv-x="1495" 
d="M655 0l123 369h-233l-123 -369h-262l123 369h-252l53 254h283l92 274h-254l51 254h287l123 369h262l-123 -369h233l123 369h264l-122 -369h249l-51 -254h-282l-93 -274h252l-51 -254h-285l-122 -369h-265zM629 623h233l92 274h-233z" />
    <glyph glyph-name="dollar" unicode="$" 
d="M1188 485q0 -204 -142 -333.5t-411 -149.5l-41 -203h-184l41 205q-250 19 -451 150l90 288q190 -134 416 -157l72 360q-65 19 -111.5 36.5t-101 50t-88.5 71.5t-57 99.5t-23 135.5q0 97 36 180.5t104.5 147t174.5 103.5t240 49l39 198h184l-41 -200q213 -21 373 -119
l-90 -289q-149 106 -338 129l-68 -348q64 -18 111.5 -36.5t100.5 -51.5t86.5 -73.5t56 -103t22.5 -139.5zM496 1073q0 -51 33.5 -81.5t105.5 -53.5l61 301q-105 -14 -152.5 -59t-47.5 -107zM889 457q0 50 -32.5 80.5t-104.5 56.5l-62 -309q103 14 151 61t48 111z" />
    <glyph glyph-name="percent" unicode="%" horiz-adv-x="2039" 
d="M473 616q-154 0 -237.5 88.5t-83.5 253.5q0 46 6 95.5t21 108t37.5 112t59 103.5t82.5 87t110.5 59.5t139.5 22.5q153 0 237.5 -88.5t84.5 -253.5q0 -46 -6 -95.5t-21 -108t-37.5 -112t-59.5 -103.5t-82.5 -87t-110.5 -59.5t-140 -22.5zM260 0l1331 1520h269l-1332 -1520
h-268zM485 817q59 0 99.5 59.5t66.5 186.5q21 100 21 170q0 113 -76 113q-59 0 -99.5 -59.5t-66.5 -186.5q-20 -96 -20 -170q0 -113 75 -113zM1507 -31q-154 0 -237.5 88.5t-83.5 253.5q0 46 6 95.5t21 108t37.5 112t59 103.5t82.5 87t110.5 59.5t139.5 22.5
q153 0 237.5 -88.5t84.5 -253.5q0 -46 -6 -95.5t-21 -108t-37.5 -112t-59.5 -103.5t-82.5 -87t-110.5 -59.5t-140 -22.5zM1520 170q59 0 99.5 59.5t66.5 186.5q20 96 20 170q0 112 -76 112q-59 0 -99.5 -59t-66.5 -186q-20 -96 -20 -170q0 -113 76 -113z" />
    <glyph glyph-name="ampersand" unicode="&#x26;" horiz-adv-x="1511" 
d="M1044 0l-98 131q-192 -160 -452 -160q-207 0 -329 96.5t-122 270.5q0 158 103.5 277.5t291.5 195.5q-63 91 -93 166.5t-30 161.5q0 185 128.5 297t353.5 112q201 0 315.5 -91t114.5 -249q0 -145 -97.5 -249.5t-279.5 -182.5l168 -221q78 110 160 297l241 -203
q-115 -175 -241 -309l256 -340h-390zM637 1139q0 -43 21 -86.5t69 -112.5q176 80 176 221q0 58 -31.5 88.5t-87.5 30.5q-64 0 -105.5 -38t-41.5 -103zM395 414q0 -78 48.5 -120t134.5 -42q121 0 213 86l-230 305q-166 -78 -166 -229z" />
    <glyph glyph-name="quotesingle" unicode="'" horiz-adv-x="630" 
d="M231 918l125 671l2 4h340v-4l-233 -671h-234z" />
    <glyph glyph-name="parenleft" unicode="(" horiz-adv-x="937" 
d="M526 -393q-57 53 -104.5 106.5t-99.5 133.5t-87 165t-58 199t-23 238q0 393 203.5 712.5t537.5 489.5l135 -209q-257 -144 -416 -407.5t-159 -592.5q0 -216 67 -385.5t176 -273.5z" />
    <glyph glyph-name="parenright" unicode=")" horiz-adv-x="937" 
d="M438 1647q58 -54 105 -107t99 -133t87.5 -165t58.5 -199t23 -238q0 -393 -203.5 -712.5t-537.5 -489.5l-136 209q257 144 416.5 407t159.5 592q0 216 -67.5 385.5t-176.5 273.5z" />
    <glyph glyph-name="asterisk" unicode="*" horiz-adv-x="1224" 
d="M1063 782l-260 -164l-109 326l-243 -326l-205 177l311 262l-344 65l141 264l295 -153l23 360h291l-121 -362l358 160l35 -277l-371 -63z" />
    <glyph glyph-name="plus" unicode="+" 
d="M1196 494h-416v-443h-270v443h-416v268h416v440h270v-440h416v-268z" />
    <glyph glyph-name="comma" unicode="," horiz-adv-x="651" 
d="M111 -332l-275 64q274 315 289 678h344q0 -425 -358 -742z" />
    <glyph glyph-name="hyphen" unicode="-" horiz-adv-x="917" 
d="M96 475l62 303h688l-60 -303h-690z" />
    <glyph glyph-name="hyphen" unicode="&#xad;" horiz-adv-x="917" 
d="M96 475l62 303h688l-60 -303h-690z" />
    <glyph glyph-name="period" unicode="." horiz-adv-x="651" 
d="M16 0l82 403h394l-82 -403h-394z" />
    <glyph glyph-name="slash" unicode="/" horiz-adv-x="999" 
d="M-248 -340l1110 1933h314l-1110 -1933h-314z" />
    <glyph glyph-name="zero" unicode="0" 
d="M551 -27q-225 0 -346 134t-121 387q0 84 9.5 173.5t33 194t59.5 200t94.5 185t132 155t177 105t225.5 39.5q225 0 346 -133.5t121 -386.5q0 -84 -9.5 -173.5t-33 -194.5t-59.5 -200t-94.5 -185t-132 -155.5t-177 -105t-225.5 -39.5zM582 264q219 0 311 473q37 182 37 297
q0 221 -146 221q-219 0 -311 -473q-37 -182 -37 -297q0 -221 146 -221z" />
    <glyph glyph-name="one" unicode="1" 
d="M1139 281l-58 -281h-975l58 281h321l166 827q-139 -97 -305 -174l-115 250q310 135 560 344h280l-250 -1247h318z" />
    <glyph glyph-name="two" unicode="2" 
d="M1128 303l-59 -303h-1075l57 283l506 368q104 76 163.5 124.5t109 101.5t69 101.5t19.5 104.5q0 79 -46 121.5t-131 42.5q-102 0 -205.5 -62t-179.5 -165l-102 272q113 125 262.5 190.5t323.5 65.5q208 0 323 -103t115 -294q0 -86 -20.5 -159.5t-58.5 -136.5t-103 -126.5
t-142 -121t-188 -128.5l-274 -176h636z" />
    <glyph glyph-name="three" unicode="3" 
d="M1174 475q0 -227 -186.5 -365.5t-495.5 -138.5q-151 0 -281.5 35.5t-208.5 97.5l123 316q139 -148 373 -148q146 0 230.5 58.5t84.5 156.5q0 79 -67 119.5t-226 40.5h-180l51 252h160q164 0 264 59.5t100 163.5q0 125 -180 125q-195 0 -362 -141l-101 272
q234 170 549 170q221 0 337 -94.5t116 -239.5q0 -170 -95.5 -280t-269.5 -152q265 -61 265 -307z" />
    <glyph glyph-name="four" unicode="4" 
d="M1190 309h-191l-61 -309h-330l62 309h-674l59 303l840 918h348l-188 -940h190zM346 590h381l107 536z" />
    <glyph glyph-name="five" unicode="5" 
d="M1180 543q0 -273 -183.5 -422.5t-500.5 -149.5q-152 0 -281.5 35.5t-206.5 97.5l123 316q136 -148 371 -148q150 0 232.5 64t82.5 178q0 84 -73 126t-252 42q-136 0 -283 -27l172 865h930l-62 -301h-637l-59 -287q75 10 145 10q235 0 358.5 -98.5t123.5 -300.5z" />
    <glyph glyph-name="six" unicode="6" 
d="M1235 590q0 -124 -47.5 -237t-130 -197.5t-203 -134.5t-258.5 -50q-239 0 -369.5 140t-130.5 401q0 314 112 548.5t320 361t486 126.5q180 0 299 -39l-76 -286q-104 37 -248 37q-188 0 -313 -104t-180 -306q167 141 368 141q173 0 272 -107.5t99 -293.5zM453 489
q0 -113 46 -171t132 -58q106 0 176 88.5t70 216.5q0 172 -162 172q-157 0 -256 -131q-6 -62 -6 -117z" />
    <glyph glyph-name="seven" unicode="7" 
d="M1368 1241q-277 -252 -482.5 -571.5t-324.5 -669.5h-379q235 692 781 1219h-734l62 301h1134z" />
    <glyph glyph-name="eight" unicode="8" 
d="M1192 453q0 -152 -83.5 -264t-227.5 -169t-330 -57q-245 0 -379.5 98t-134.5 269q0 150 98.5 258.5t280.5 171.5q-189 126 -189 330q0 140 76.5 246.5t212.5 163t311 56.5q228 0 353 -95.5t125 -256.5q0 -132 -87 -233.5t-251 -161.5q105 -60 165 -143.5t60 -212.5z
M575 1100q0 -62 45 -103t134 -84q97 35 150.5 94.5t53.5 131.5q0 65 -42.5 104t-122.5 39q-94 0 -156 -53t-62 -129zM383 391q0 -71 54 -112t149 -41q120 0 189 59t69 139q0 72 -55.5 119.5t-163.5 97.5q-123 -47 -182.5 -117.5t-59.5 -144.5z" />
    <glyph glyph-name="nine" unicode="9" 
d="M1278 997q0 -229 -66 -420.5t-185 -324.5t-290.5 -207t-376.5 -74q-180 0 -299 39l76 287q101 -37 246 -37q184 0 306 97t177 288q-144 -117 -325 -117q-184 0 -293 111.5t-109 304.5q0 119 47.5 229t130.5 193t204.5 132.5t260.5 49.5q232 0 364 -136.5t132 -414.5z
M498 965q0 -183 176 -183q148 0 239 117q9 106 9 131q0 117 -45.5 173.5t-126.5 56.5q-112 0 -182 -87t-70 -208z" />
    <glyph glyph-name="colon" unicode=":" horiz-adv-x="802" 
d="M236 719l81 403h394l-82 -403h-393zM90 0l82 403h393l-82 -403h-393z" />
    <glyph glyph-name="semicolon" unicode=";" horiz-adv-x="802" 
d="M236 719l81 403h394l-82 -403h-393zM184 -332l-274 64q274 315 289 678h344q0 -424 -359 -742z" />
    <glyph glyph-name="less" unicode="&#x3c;" 
d="M1126 350v-297l-991 463v221l991 463v-295l-675 -276z" />
    <glyph glyph-name="equal" unicode="=" 
d="M119 725v268h1052v-268h-1052zM119 260v270h1052v-270h-1052z" />
    <glyph glyph-name="greater" unicode="&#x3e;" 
d="M1155 516l-991 -463v297l676 279l-676 276v295l991 -463v-221z" />
    <glyph glyph-name="question" unicode="?" horiz-adv-x="1181" 
d="M330 455l8 45q15 76 44 138.5t59.5 102.5t76.5 75.5t78 53.5t80 41q34 16 50.5 24.5t43 24.5t39.5 29t28 32.5t21 42t6 50.5q0 73 -41.5 102t-115.5 29q-113 0 -208.5 -50t-164.5 -140l-103 274q105 105 252 162t310 57q202 0 321 -93.5t119 -293.5q0 -72 -17.5 -132.5
t-43.5 -101t-68.5 -77t-78.5 -58t-87 -47.5q-41 -20 -56 -27.5t-50.5 -26t-50.5 -29.5t-40 -31.5t-37 -38t-24.5 -41.5t-17.5 -51l-9 -45h-323zM219 0l64 313h368l-63 -313h-369z" />
    <glyph glyph-name="at" unicode="@" horiz-adv-x="2172" 
d="M1729 -170q-304 -211 -697 -211q-281 0 -479 106.5t-295.5 296.5t-97.5 449q0 230 78 433t217.5 351t344.5 234t447 86q374 0 588.5 -199.5t214.5 -556.5q0 -137 -33 -257.5t-89 -207.5t-130 -150t-156.5 -94.5t-166.5 -31.5q-106 0 -168 48.5t-62 139.5
q-65 -94 -155 -141t-187 -47q-144 0 -233.5 98t-89.5 289q0 125 40 245.5t110 216t175 154t225 58.5q174 0 232 -131l55 102h244l-191 -635q-18 -62 -18 -98q0 -86 78 -86q52 0 105.5 35.5t99.5 99t75 163.5t29 216q0 269 -154 420t-442 151q-194 0 -358 -70.5
t-275.5 -192.5t-174 -287.5t-62.5 -352.5q0 -151 41 -270.5t123.5 -206t213.5 -132.5t304 -46q355 0 647 209zM870 492q0 -87 29 -125.5t86 -38.5q67 0 125 52.5t92 168.5l76 258q-45 84 -137 84q-78 0 -142 -61t-96.5 -151.5t-32.5 -186.5z" />
    <glyph glyph-name="A" unicode="A" horiz-adv-x="1521" 
d="M1020 0l-31 317h-532l-154 -317h-401l823 1520h455l215 -1520h-375zM594 602h367l-64 627z" />
    <glyph glyph-name="B" unicode="B" horiz-adv-x="1478" 
d="M1370 459q0 -69 -18 -131.5t-63.5 -123.5t-114 -105.5t-178 -71.5t-248.5 -27h-701l303 1520h637q122 0 209.5 -24.5t139 -71.5t75 -108.5t23.5 -141.5q0 -66 -16 -123.5t-52 -111t-101.5 -94.5t-156.5 -63q262 -68 262 -323zM885 1235h-248l-70 -340h273q64 0 111 17.5
t72 48t36.5 64t11.5 71.5q0 74 -46 106.5t-140 32.5zM811 653h-291l-74 -366h308q127 0 190.5 60.5t63.5 152.5q0 153 -197 153z" />
    <glyph glyph-name="C" unicode="C" horiz-adv-x="1400" 
d="M1264 123q-83 -65 -216 -108.5t-298 -43.5q-302 0 -465.5 160.5t-163.5 472.5q0 145 34.5 281.5t107.5 257t177 210.5t251.5 142.5t322.5 52.5q285 0 446 -135l-123 -323q-125 151 -336 151q-117 0 -215 -51t-161 -135.5t-98 -192.5t-35 -225q0 -358 327 -358
q230 0 420 172z" />
    <glyph glyph-name="D" unicode="D" horiz-adv-x="1564" 
d="M1524 922q0 -272 -108.5 -479.5t-318.5 -325t-495 -117.5h-555l303 1520h502q186 0 316.5 -39t208 -117.5t112.5 -186.5t35 -255zM795 1229h-148l-186 -936h180q123 0 222 47t162 129t96.5 190t33.5 232q0 181 -80.5 259.5t-279.5 78.5z" />
    <glyph glyph-name="E" unicode="E" horiz-adv-x="1314" 
d="M1161 295l-59 -295h-1055l303 1520h1039l-58 -291h-686l-61 -305h604l-58 -281h-604l-69 -348h704z" />
    <glyph glyph-name="F" unicode="F" horiz-adv-x="1236" 
d="M1083 584h-565l-117 -584h-354l303 1520h1018l-59 -291h-662l-74 -365h568z" />
    <glyph glyph-name="G" unicode="G" horiz-adv-x="1560" 
d="M1343 121q-95 -63 -242 -106.5t-325 -43.5q-322 0 -488.5 159.5t-166.5 479.5q0 146 33.5 280.5t107.5 255t180.5 209.5t262.5 141t344 52q316 0 503 -135l-122 -323q-65 67 -167 109t-229 42q-133 0 -238.5 -50t-170.5 -135.5t-99 -192.5t-34 -228q0 -183 83 -269.5
t269 -86.5q109 0 219 30l57 281h-315l53 262h631z" />
    <glyph glyph-name="H" unicode="H" horiz-adv-x="1576" 
d="M952 0l127 637h-551l-127 -637h-354l303 1520h355l-117 -588h551l116 588h355l-303 -1520h-355z" />
    <glyph glyph-name="I" unicode="I" horiz-adv-x="671" 
d="M47 0l303 1520h355l-304 -1520h-354z" />
    <glyph glyph-name="J" unicode="J" horiz-adv-x="933" 
d="M-106 33l79 305q101 -59 199 -59q102 0 166 66.5t98 232.5l189 942h354l-201 -1004q-30 -152 -83.5 -258.5t-130 -169t-168 -90t-208.5 -27.5q-155 0 -294 62z" />
    <glyph glyph-name="K" unicode="K" horiz-adv-x="1507" 
d="M993 0l-327 602l-174 -156l-91 -446h-354l303 1520h355l-134 -662l660 662h467v-4l-783 -693l490 -819v-4h-412z" />
    <glyph glyph-name="L" unicode="L" horiz-adv-x="1179" 
d="M1100 295l-60 -295h-993l303 1520h355l-246 -1225h641z" />
    <glyph glyph-name="M" unicode="M" horiz-adv-x="2043" 
d="M788 0l-182 1153l-231 -1153h-328l303 1520h481l166 -1045l559 1045h519l-303 -1520h-340l231 1159l-627 -1159h-248z" />
    <glyph glyph-name="N" unicode="N" horiz-adv-x="1601" 
d="M989 0l-414 973l-194 -973h-334l303 1520h340l414 -973l194 973h334l-303 -1520h-340z" />
    <glyph glyph-name="O" unicode="O" horiz-adv-x="1597" 
d="M713 -29q-279 0 -437.5 162t-158.5 451q0 147 34.5 287t105 263t169.5 215t237.5 145.5t299.5 53.5q279 0 437.5 -161.5t158.5 -450.5q0 -147 -34.5 -287t-105 -263t-169.5 -215.5t-237.5 -146t-299.5 -53.5zM750 279q103 0 188.5 57.5t138 150.5t81 204t28.5 224
q0 326 -260 326q-83 0 -154.5 -38t-122.5 -101.5t-88 -146t-54.5 -172t-17.5 -179.5q0 -325 261 -325z" />
    <glyph glyph-name="P" unicode="P" horiz-adv-x="1409" 
d="M713 459h-219l-93 -459h-354l303 1520h565q527 0 527 -451q0 -97 -23.5 -183.5t-79 -165.5t-137.5 -136t-207.5 -91t-281.5 -34zM840 1229h-193l-96 -484h194q90 0 156.5 24.5t103.5 67.5t54.5 93t17.5 108q0 98 -54 144.5t-183 46.5z" />
    <glyph glyph-name="Q" unicode="Q" horiz-adv-x="1597" 
d="M1323 -381q-127 -74 -283 -74q-193 0 -316 114t-175 329q-205 43 -318.5 198t-113.5 398q0 147 34.5 287t105 263t169.5 215t237.5 145.5t299.5 53.5q279 0 437.5 -161.5t158.5 -450.5q0 -136 -29 -265.5t-89 -245.5t-144 -208t-201.5 -154.5t-255.5 -82.5
q30 -61 98.5 -95.5t169.5 -34.5q148 0 246 48zM750 279q103 0 188.5 57.5t138 150.5t81 204t28.5 224q0 326 -260 326q-83 0 -154.5 -38t-122.5 -101.5t-88 -146t-54.5 -172t-17.5 -179.5q0 -325 261 -325z" />
    <glyph glyph-name="R" unicode="R" horiz-adv-x="1466" 
d="M956 0l-256 500h-198l-101 -500h-354l303 1520h563q257 0 385.5 -112.5t128.5 -317.5q0 -189 -104.5 -334.5t-294.5 -210.5l326 -545h-398zM840 1229h-193l-90 -449h201q152 0 229.5 73.5t77.5 190.5q0 96 -56.5 140.5t-168.5 44.5z" />
    <glyph glyph-name="S" unicode="S" horiz-adv-x="1280" 
d="M-10 119l102 317q100 -76 220.5 -121t242.5 -45q128 0 191 51.5t63 127.5q0 22 -7 41t-16 33t-30.5 28t-35.5 22t-47 20t-50 17.5t-58 18.5q-42 13 -73.5 24.5t-70 30.5t-66 39t-55.5 50.5t-45.5 65.5t-28.5 82t-11 103q0 111 41 205.5t119 166t199.5 112t273.5 40.5
q265 0 457 -116l-99 -318q-177 135 -383 135q-124 0 -183.5 -49t-59.5 -123q0 -19 3.5 -34.5t14.5 -29.5t19.5 -24t29.5 -20.5t33.5 -17t42.5 -16.5t45 -14.5t53 -15.5q60 -17 103 -34t94.5 -49.5t83.5 -72.5t54 -103t22 -142q0 -115 -42.5 -211.5t-123 -168.5t-207 -112.5
t-285.5 -40.5q-297 0 -530 148z" />
    <glyph glyph-name="T" unicode="T" horiz-adv-x="1277" 
d="M1386 1229h-434l-245 -1229h-355l246 1229h-440l59 291h1227z" />
    <glyph glyph-name="U" unicode="U" horiz-adv-x="1544" 
d="M1589 1520l-182 -918q-125 -631 -731 -631q-266 0 -403.5 120t-137.5 345q0 64 21 180l180 904h350l-180 -908q-14 -75 -14 -114q0 -217 225 -217q275 0 342 331l180 908h350z" />
    <glyph glyph-name="V" unicode="V" horiz-adv-x="1456" 
d="M1630 1520l-817 -1520h-395l-209 1520h375l104 -1125l541 1125h401z" />
    <glyph glyph-name="W" unicode="W" horiz-adv-x="2203" 
d="M1239 0l-43 1079l-461 -1079h-387l-129 1520h373l37 -1102l467 1102h362l43 -1102l463 1102h403l-741 -1520h-387z" />
    <glyph glyph-name="X" unicode="X" horiz-adv-x="1445" 
d="M913 0l-204 520l-367 -520h-440l653 782l-338 738h408l196 -498l346 498h443l-637 -762l348 -758h-408z" />
    <glyph glyph-name="Y" unicode="Y" horiz-adv-x="1368" 
d="M1571 1520l-713 -975l-108 -545h-355l113 559l-328 961h383l180 -656l408 656h420z" />
    <glyph glyph-name="Z" unicode="Z" horiz-adv-x="1339" 
d="M1206 295l-59 -295h-1180l53 266l910 963h-686l59 291h1129l-54 -263l-911 -962h739z" />
    <glyph glyph-name="bracketleft" unicode="[" horiz-adv-x="937" 
d="M700 -117l-45 -223h-618l387 1933h618l-45 -223h-319l-297 -1487h319z" />
    <glyph glyph-name="backslash" unicode="\" horiz-adv-x="999" 
d="M881 -340h-297l-338 1933h297z" />
    <glyph glyph-name="bracketright" unicode="]" horiz-adv-x="937" 
d="M928 1593l-387 -1933h-619l45 223h320l297 1487h-320l45 223h619z" />
    <glyph glyph-name="asciicircum" unicode="^" horiz-adv-x="1122" 
d="M850 762l-141 485l-336 -485h-297l555 758h241l252 -758h-274z" />
    <glyph glyph-name="underscore" unicode="_" horiz-adv-x="1310" 
d="M-156 -373l52 254h1249l-51 -254h-1250z" />
    <glyph glyph-name="grave" unicode="`" horiz-adv-x="1024" 
d="M608 1239l-284 434l297 45l182 -440z" />
    <glyph glyph-name="a" unicode="a" horiz-adv-x="1212" 
d="M666 0l22 145q-138 -170 -352 -170q-139 0 -225 78t-86 226q0 200 164.5 310.5t476.5 110.5h114q8 40 8 68q0 66 -41 93.5t-135 27.5q-198 0 -372 -115l-15 262q89 52 214 81.5t259 29.5q217 0 323.5 -84t106.5 -242q0 -57 -12 -121l-141 -700h-309zM475 221
q75 0 138.5 41t101.5 113l28 141h-71q-156 0 -239 -48.5t-83 -135.5q0 -55 33 -83t92 -28z" />
    <glyph glyph-name="b" unicode="b" horiz-adv-x="1314" 
d="M1251 705q0 -113 -25 -220t-75 -199t-119 -161.5t-163 -109.5t-201 -40q-204 0 -308 152l-32 -127h-310l320 1593h336l-123 -612q137 166 334 166q177 0 271.5 -116.5t94.5 -325.5zM426 356q25 -54 72 -83t110 -29q88 0 157.5 59t105.5 152t36 200q0 211 -170 211
q-77 0 -140 -44t-103 -124z" />
    <glyph glyph-name="c" unicode="c" horiz-adv-x="1073" 
d="M928 94q-71 -52 -172.5 -85.5t-220.5 -33.5q-220 0 -346 120.5t-126 350.5q0 85 18 168.5t53.5 162.5t92 146t128 117t167 78.5t205.5 28.5q121 0 211 -33t143 -86l-100 -264q-93 108 -244 108q-84 0 -150 -35t-105 -93t-59 -125.5t-20 -139.5q0 -229 218 -229
q161 0 288 108z" />
    <glyph glyph-name="d" unicode="d" horiz-adv-x="1314" 
d="M762 0l26 164q-139 -189 -360 -189q-177 0 -271 117t-94 326q0 142 40.5 272.5t113.5 232.5t185 163t245 61q187 0 293 -125l115 571h336l-320 -1593h-309zM408 467q0 -211 167 -211q77 0 141 44t105 128l70 350q-24 45 -73.5 73t-110.5 28q-88 0 -157.5 -59.5
t-105.5 -152.5t-36 -200z" />
    <glyph glyph-name="e" unicode="e" horiz-adv-x="1210" 
d="M1049 88q-196 -113 -459 -113q-527 0 -527 465q0 103 25 202.5t78.5 191.5t129.5 161t187.5 110.5t243.5 41.5q100 0 176.5 -24t123.5 -63t77 -94t41.5 -111t11.5 -120q0 -145 -51 -256h-707q0 -65 11.5 -109t41 -76t81.5 -46.5t131 -14.5q204 0 370 115zM700 913
q-100 0 -167 -67t-101 -174h402q16 31 16 86q0 155 -150 155z" />
    <glyph glyph-name="f" unicode="f" horiz-adv-x="839" 
d="M879 887h-269l-178 -887h-336l178 887h-180l47 235h181l16 86q20 98 57.5 171.5t83 117.5t106 71t118 36.5t126.5 9.5q143 0 236 -35l-74 -264q-64 31 -143 31q-73 0 -115 -32.5t-59 -113.5l-17 -78h269z" />
    <glyph glyph-name="g" unicode="g" horiz-adv-x="1314" 
d="M1073 12q-52 -256 -215 -371.5t-428 -115.5q-295 0 -465 123l78 260q63 -55 168 -90t221 -35q131 0 206.5 55.5t102.5 192.5l23 114q-131 -155 -330 -155q-178 0 -274.5 114t-96.5 320q0 139 40.5 268.5t114 231t185 162.5t244.5 61q205 0 305 -152l35 127h309zM408 473
q0 -209 170 -209q78 0 140.5 44t102.5 126l68 334q-25 54 -72.5 82.5t-109.5 28.5q-87 0 -156.5 -58t-106 -150.5t-36.5 -197.5z" />
    <glyph glyph-name="h" unicode="h" horiz-adv-x="1277" 
d="M492 684l-138 -684h-336l320 1593h336l-131 -635q154 189 364 189q132 0 211.5 -76t79.5 -229q0 -60 -16 -142l-140 -700h-335l135 676q8 36 8 72q0 112 -109 112q-71 0 -139 -45t-110 -131z" />
    <glyph glyph-name="i" unicode="i" horiz-adv-x="604" 
d="M268 1286l58 285h358l-57 -285h-359zM23 0l223 1122h336l-224 -1122h-335z" />
    <glyph glyph-name="j" unicode="j" horiz-adv-x="620" 
d="M291 1286l57 285h359l-58 -285h-358zM-344 -426l78 270q60 -37 127 -37q70 0 116.5 46t69.5 159l223 1110h336l-217 -1079q-29 -144 -79 -245.5t-117 -159.5t-143.5 -83.5t-170.5 -25.5q-131 0 -223 45z" />
    <glyph glyph-name="k" unicode="k" horiz-adv-x="1253" 
d="M782 0l-229 430l-135 -117l-64 -313h-336l320 1593h336l-187 -934l445 463h420v-4l-564 -485l377 -629v-4h-383z" />
    <glyph glyph-name="l" unicode="l" horiz-adv-x="604" 
d="M23 0l319 1593h336l-320 -1593h-335z" />
    <glyph glyph-name="m" unicode="m" horiz-adv-x="1943" 
d="M492 684l-138 -684h-336l224 1122h309l-29 -184q160 209 381 209q111 0 183 -56t92 -167q74 103 176 163t221 60q131 0 210 -76t79 -229q0 -52 -17 -142l-139 -700h-336l135 676q9 56 9 72q0 112 -105 112q-68 0 -135 -45.5t-109 -130.5l-137 -684h-336l135 676
q9 40 9 72q0 112 -105 112q-68 0 -133.5 -45t-107.5 -131z" />
    <glyph glyph-name="n" unicode="n" horiz-adv-x="1277" 
d="M492 684l-138 -684h-336l224 1122h309l-29 -182q75 97 173 152t212 55q132 0 211.5 -76t79.5 -229q0 -60 -16 -142l-140 -700h-335l135 676q8 36 8 72q0 112 -109 112q-71 0 -139 -45t-110 -131z" />
    <glyph glyph-name="o" unicode="o" horiz-adv-x="1255" 
d="M549 -25q-100 0 -185 26.5t-153.5 80.5t-108 147t-39.5 215q0 105 25.5 205.5t79 190.5t128.5 158.5t181 108.5t230 40q79 0 149 -16t132 -52t107 -89.5t71 -133t26 -178.5q0 -105 -25.5 -205.5t-78.5 -190.5t-128 -158.5t-181 -108.5t-230 -40zM573 244q65 0 119.5 38
t88.5 100t52.5 135.5t18.5 148.5q0 106 -44.5 159.5t-127.5 53.5q-85 0 -150.5 -66t-96 -160t-30.5 -196q0 -106 43.5 -159.5t126.5 -53.5z" />
    <glyph glyph-name="p" unicode="p" horiz-adv-x="1314" 
d="M668 -25q-184 0 -295 123l-107 -532h-336l312 1556h309l-29 -178q140 203 365 203q175 0 269.5 -116.5t94.5 -325.5q0 -113 -25 -220t-75 -199t-119 -161.5t-163 -109.5t-201 -40zM494 696l-72 -354q25 -44 74.5 -71t109.5 -27q89 0 159 59t106 152t36 200
q0 211 -170 211q-77 0 -139.5 -43.5t-103.5 -126.5z" />
    <glyph glyph-name="q" unicode="q" horiz-adv-x="1314" 
d="M1296 1122l-311 -1556h-336l113 565q-135 -156 -332 -156q-178 0 -272.5 116.5t-94.5 326.5q0 142 40.5 272.5t113.5 232.5t185 163t245 61q205 0 305 -152l35 127h309zM408 467q0 -211 167 -211q77 0 140.5 44t105.5 124l68 344q-25 54 -72.5 82.5t-109.5 28.5
q-88 0 -157.5 -59.5t-105.5 -152.5t-36 -200z" />
    <glyph glyph-name="r" unicode="r" horiz-adv-x="905" 
d="M479 627l-125 -627h-336l224 1122h307l-33 -213q67 128 152.5 182t191.5 54q86 0 131 -25l-90 -313q-53 29 -129 29q-94 0 -173.5 -53t-119.5 -156z" />
    <glyph glyph-name="s" unicode="s" horiz-adv-x="1038" 
d="M-14 88l86 264q75 -58 167 -91.5t185 -33.5q88 0 130 30t42 73q0 24 -13 42t-42 33t-54 23.5t-71 22.5t-78.5 26t-73.5 36.5t-66 54.5t-43 78t-18 108q0 182 135.5 287.5t378.5 105.5q212 0 367 -92l-88 -264q-137 106 -291 106q-82 0 -125 -30t-43 -74q0 -16 5 -29
t19.5 -24.5t25.5 -18.5t37.5 -16.5t39.5 -14t47 -14.5q47 -14 80 -27t75 -38.5t68 -56t44 -79t18 -108.5q0 -181 -137 -286.5t-387 -105.5q-236 0 -420 113z" />
    <glyph glyph-name="t" unicode="t" horiz-adv-x="894" 
d="M756 37q-138 -62 -291 -62q-311 0 -311 285q0 63 16 139l98 488h-174l47 235h174l58 291l346 72l-72 -363h299l-47 -235h-299l-98 -492q-6 -27 -6 -47q0 -92 106 -92q93 0 170 47z" />
    <glyph glyph-name="u" unicode="u" horiz-adv-x="1277" 
d="M727 0l29 186q-150 -211 -379 -211q-134 0 -214.5 76.5t-80.5 229.5q0 70 14 141l142 700h335l-135 -676q-10 -45 -10 -71q0 -113 113 -113q83 0 147 54t103 137l135 669h336l-226 -1122h-309z" />
    <glyph glyph-name="v" unicode="v" horiz-adv-x="1208" 
d="M1290 1122l-618 -1122h-373l-168 1122h350l66 -807l366 807h377z" />
    <glyph glyph-name="w" unicode="w" horiz-adv-x="1828" 
d="M981 0l-33 768l-336 -768h-358l-113 1122h351l22 -786l326 786h338l34 -782l312 782h377l-562 -1122h-358z" />
    <glyph glyph-name="x" unicode="x" horiz-adv-x="1200" 
d="M700 0l-145 350l-252 -350h-401v4l510 576l-277 538v4h373l137 -338l242 338h399v-4l-495 -561l282 -553v-4h-373z" />
    <glyph glyph-name="y" unicode="y" horiz-adv-x="1222" 
d="M692 10q-81 -146 -152.5 -240.5t-145 -147.5t-144 -73t-162.5 -20q-137 0 -229 47l75 270q84 -43 166 -43q65 0 118.5 38t111.5 134l-203 1147h365l71 -821l371 821h375z" />
    <glyph glyph-name="z" unicode="z" horiz-adv-x="1079" 
d="M948 250l-51 -250h-942l47 240l651 632h-503l49 250h905l-47 -239l-651 -633h542z" />
    <glyph glyph-name="braceleft" unicode="{" horiz-adv-x="937" 
d="M700 -117l-45 -223h-192q-177 0 -265.5 63t-88.5 201q0 52 13 103.5t27 82t39 78.5q60 110 60 183q0 64 -40.5 94.5t-131.5 30.5h-74l51 262h74q124 0 182 52.5t58 176.5q0 19 -5 82q-6 60 -6 107q0 417 494 417h192l-45 -223h-153q-100 0 -144.5 -47t-44.5 -137
q0 -42 7 -103q4 -35 4 -84q0 -172 -91 -267t-253 -114q111 -12 168 -65.5t57 -157.5q0 -103 -74 -235q-22 -39 -33 -61.5t-20.5 -52.5t-9.5 -56q0 -107 127 -107h163z" />
    <glyph glyph-name="bar" unicode="|" horiz-adv-x="974" 
d="M344 -455v2048h293v-2048h-293z" />
    <glyph glyph-name="braceright" unicode="}" horiz-adv-x="937" 
d="M264 1370l45 223h193q177 0 265.5 -63t88.5 -201q0 -52 -13.5 -103.5t-27 -81.5t-39.5 -79q-59 -108 -59 -182q0 -64 40.5 -94.5t131.5 -30.5h74l-52 -262h-73q-123 0 -181.5 -53t-58.5 -177q0 -32 4 -82q6 -60 6 -106q0 -418 -493 -418h-193l45 223h154q100 0 144 47
t44 138q0 49 -6 102q-4 35 -4 84q0 172 91 267t253 114q-111 12 -168 65.5t-57 157.5t74 236q22 39 33 61.5t20.5 52.5t9.5 56q0 106 -127 106h-164z" />
    <glyph glyph-name="asciitilde" unicode="~" 
d="M348 399l-252 19q0 120 26 206t72 132.5t99 67t117 20.5q122 0 301 -96q129 -70 172 -70q86 0 86 178l250 -18q0 -97 -17.5 -172.5t-46.5 -123t-70 -78t-84 -42.5t-92 -12q-127 0 -303 96q-127 69 -172 69q-86 0 -86 -176z" />
    <glyph glyph-name="exclamdown" unicode="&#xa1;" horiz-adv-x="786" 
d="M692 1122l-61 -313h-369l62 313h368zM545 668l-119 -953l-23 -112h-399l23 112l262 953h256z" />
    <glyph glyph-name="cent" unicode="&#xa2;" 
d="M1044 330q-150 -111 -354 -123l-47 -236h-184l49 244q-178 32 -272.5 153t-94.5 318q0 263 163 437.5t425 199.5l45 229h184l-47 -231q168 -23 273 -117l-99 -260q-86 93 -227 109l-115 -576q153 14 283 121zM434 717q0 -174 129 -221l109 546q-116 -30 -177 -115.5
t-61 -209.5z" />
    <glyph glyph-name="sterling" unicode="&#xa3;" 
d="M1155 303l-61 -303h-1108l49 248q78 6 137 29t92.5 53t54 70.5t27 75t6.5 71.5q0 41 -10 96h-248l43 213h164q-10 68 -10 129q0 172 80.5 301t219.5 195.5t316 66.5q133 0 240.5 -37.5t177.5 -99.5l-102 -289q-43 56 -118.5 93.5t-176.5 37.5q-130 0 -207.5 -70.5
t-77.5 -219.5q0 -49 10 -107h400l-43 -213h-322q2 -16 2 -49q0 -85 -32 -163.5t-103 -127.5h600z" />
    <glyph glyph-name="currency" unicode="&#xa4;" 
d="M1227 377l-160 -160l-186 186q-86 -47 -197 -47q-109 0 -197 45l-184 -184l-160 160l183 182q-52 90 -52 201q0 108 52 201l-183 182l160 160l184 -185q88 45 197 45q111 0 197 -47l186 187l160 -160l-183 -182q50 -95 50 -201t-50 -201zM684 571q83 0 131.5 50.5
t48.5 138.5t-48.5 138t-131.5 50q-84 0 -131 -50t-47 -138t47 -138.5t131 -50.5z" />
    <glyph glyph-name="yen" unicode="&#xa5;" 
d="M1116 242h-366l-50 -242h-333l49 242h-369l45 213h365l28 141h-368l45 213h297l-256 711h362l154 -572l354 572h395l-528 -711h291l-45 -213h-367l-28 -141h370z" />
    <glyph glyph-name="brokenbar" unicode="&#xa6;" horiz-adv-x="974" 
d="M344 825v768h293v-768h-293zM344 -455v768h293v-768h-293z" />
    <glyph glyph-name="section" unicode="&#xa7;" horiz-adv-x="1292" 
d="M1030 78q0 -194 -145.5 -310t-417.5 -116q-276 0 -473 129l84 268q190 -141 420 -141q105 0 162 38t57 95q0 20 -6.5 36.5t-22.5 30t-30 23t-43.5 21t-47 17t-55.5 17.5q-60 18 -100 33.5t-94 46t-86.5 65.5t-56 91.5t-23.5 126.5q0 238 225 336q-94 91 -94 235
q0 87 32 162t96.5 135.5t173 95.5t249.5 35q255 0 423 -106l-81 -268q-76 55 -174.5 86.5t-198.5 31.5q-102 0 -155.5 -38.5t-53.5 -94.5q0 -19 6.5 -35.5t23 -30.5t30.5 -23.5t44 -21t47.5 -17.5t55.5 -19q34 -11 50.5 -16.5t49 -17.5t50.5 -21t46.5 -24t44.5 -29.5
t37.5 -34.5t33.5 -42.5t24 -49.5t17 -59.5t5 -68.5q0 -237 -223 -334q94 -91 94 -237zM674 444q40 -13 63 -22q63 29 93 71t30 87q0 30 -13 54.5t-33 42t-60.5 36t-77 31.5t-101.5 34q-122 -53 -122 -160q0 -29 12.5 -53t28.5 -39.5t50.5 -32t58 -25t71.5 -24.5z" />
    <glyph glyph-name="dieresis" unicode="&#xa8;" horiz-adv-x="1024" 
d="M741 1286l58 285h295l-58 -285h-295zM262 1286l57 285h295l-57 -285h-295z" />
    <glyph glyph-name="copyright" unicode="&#xa9;" horiz-adv-x="1880" 
d="M979 -29q-219 0 -400.5 104.5t-285 285.5t-103.5 399q0 163 61 309t165.5 251t251.5 166.5t311 61.5t310.5 -61.5t251 -166.5t165.5 -251t61 -309t-61 -309t-165.5 -251.5t-251 -167t-310.5 -61.5zM979 129q174 0 316 84t222 228.5t80 318.5t-80 318.5t-222 228.5
t-316 84t-316.5 -84t-222.5 -228.5t-80 -318.5t80 -318.5t222.5 -228.5t316.5 -84zM1317 389q-123 -92 -307 -92q-213 0 -339 123.5t-126 337.5q0 217 128.5 340t344.5 123q179 0 287 -82l-48 -226q-81 84 -213 84q-112 0 -172.5 -64t-60.5 -173q0 -113 63 -176.5t170 -63.5
q64 0 122.5 23.5t99.5 62.5z" />
    <glyph glyph-name="ordfeminine" unicode="&#xaa;" horiz-adv-x="948" 
d="M621 731l14 100q-89 -116 -242 -116q-98 0 -158.5 55t-60.5 160q0 142 116.5 221.5t334.5 79.5h75q5 25 5 37q0 40 -27 57.5t-88 17.5q-135 0 -262 -77l-13 204q66 36 158 57t189 21q313 0 313 -233q0 -44 -8 -88l-101 -496h-245zM506 911q45 0 84.5 24t64.5 66l17 86
h-45q-98 0 -147.5 -29t-49.5 -81q0 -66 76 -66zM82 391l45 227h719l-45 -227h-719z" />
    <glyph glyph-name="guillemotleft" unicode="&#xab;" horiz-adv-x="1476" 
d="M1255 225l-237 -164l-332 510l4 21l494 510l200 -182l-366 -351zM709 225l-238 -164l-332 510l4 21l494 510l201 -182l-367 -351z" />
    <glyph glyph-name="logicalnot" unicode="&#xac;" 
d="M1167 762v-612h-268v344h-776v268h1044z" />
    <glyph glyph-name="registered" unicode="&#xae;" horiz-adv-x="1353" 
d="M797 578q-164 0 -299.5 77.5t-212 211t-76.5 294.5q0 159 76.5 293t212 212.5t299.5 78.5q165 0 299.5 -78.5t210 -212.5t75.5 -293q0 -161 -75.5 -294.5t-210 -211t-299.5 -77.5zM797 713q188 0 314 129t126 319t-126 319.5t-314 129.5t-314.5 -129.5t-126.5 -319.5
t126.5 -319t314.5 -129zM713 1040v-184h-174v619h266q127 0 193.5 -54.5t66.5 -158.5q0 -132 -113 -191l156 -215h-213l-115 184h-67zM713 1335v-159h82q88 0 88 81q0 78 -97 78h-73z" />
    <glyph glyph-name="macron" unicode="&#xaf;" horiz-adv-x="1024" 
d="M299 1319l43 219h715l-43 -219h-715z" />
    <glyph glyph-name="degree" unicode="&#xb0;" horiz-adv-x="921" 
d="M549 838q-161 0 -255.5 98.5t-94.5 253.5q0 181 124.5 302.5t305.5 121.5q161 0 255.5 -98.5t94.5 -253.5q0 -182 -124.5 -303t-305.5 -121zM567 1038q87 0 143 60t56 151q0 74 -41.5 119t-114.5 45q-87 0 -142.5 -60t-55.5 -151q0 -74 41 -119t114 -45z" />
    <glyph glyph-name="plusminus" unicode="&#xb1;" 
d="M1171 756h-391v-396h-270v396h-391v270h391v395h270v-395h391v-270zM119 0v268h1052v-268h-1052z" />
    <glyph glyph-name="two.sups" unicode="&#xb2;" horiz-adv-x="813" 
d="M846 1055l-45 -215h-678l41 204l287 185q111 73 158.5 120.5t47.5 100.5q0 40 -24 61t-68 21q-60 0 -119.5 -34t-103.5 -91l-74 190q68 71 164 110.5t207 39.5q137 0 210 -62.5t73 -185.5q0 -119 -70.5 -202t-245.5 -181l-110 -61h350z" />
    <glyph glyph-name="three.sups" unicode="&#xb3;" horiz-adv-x="800" 
d="M858 1114q0 -133 -115.5 -214t-310.5 -81q-99 0 -183.5 20.5t-135.5 57.5l84 215q94 -80 229 -80q76 0 122 27.5t46 68.5q0 35 -37 52.5t-125 17.5h-115l35 174h94q94 0 149.5 28t55.5 73q0 61 -98 61q-111 0 -221 -78l-62 197q152 94 351 94q149 0 221.5 -56.5
t72.5 -154.5q0 -90 -57.5 -151.5t-161.5 -86.5q162 -37 162 -184z" />
    <glyph glyph-name="acute" unicode="&#xb4;" horiz-adv-x="1024" 
d="M676 1239l-203 51l311 428l301 -82z" />
    <glyph glyph-name="uni00B5" unicode="&#xb5;" horiz-adv-x="1361" 
d="M487 -25q-94 0 -153 50l-64 -459h-336l172 844l142 712h336l-135 -676q-9 -41 -9 -71q0 -113 113 -113q83 0 147 54t103 137l133 669h336l-150 -751q-6 -27 -6 -47q0 -33 16.5 -46.5t51.5 -13.5q49 0 94 19l-53 -275q-84 -24 -183 -24q-118 0 -180.5 37t-75.5 116
q-128 -162 -299 -162z" />
    <glyph glyph-name="paragraph" unicode="&#xb6;" horiz-adv-x="1400" 
d="M977 1346l-334 -1678h-188l161 811q-454 18 -454 428q0 271 187 442t487 171h567l-371 -1852h-188l334 1678h-201z" />
    <glyph glyph-name="periodcentered" unicode="&#xb7;" horiz-adv-x="665" 
d="M111 446l82 404h393l-82 -404h-393z" />
    <glyph glyph-name="cedilla" unicode="&#xb8;" horiz-adv-x="1024" 
d="M635 -252q0 -121 -93.5 -190.5t-260.5 -69.5q-141 0 -244 45l74 201q89 -47 190 -47q53 0 82 17t29 48q0 17 -10.5 29t-53 27.5t-121.5 31.5l109 172h139l-47 -67q120 -33 163.5 -79t43.5 -118z" />
    <glyph glyph-name="one.sups" unicode="&#xb9;" horiz-adv-x="665" 
d="M758 1720l-176 -880h-250l119 596q-67 -42 -172 -90l-80 176q188 76 342 198h217z" />
    <glyph glyph-name="ordmasculine" unicode="&#xba;" horiz-adv-x="948" 
d="M532 715q-72 0 -132.5 18.5t-111 56.5t-79.5 106t-29 159q0 93 30 179.5t86 157.5t146.5 113.5t202.5 42.5q72 0 132.5 -18.5t111 -56.5t79.5 -106t29 -159q0 -74 -18 -144.5t-56.5 -133.5t-92.5 -111t-131 -76t-167 -28zM555 934q55 0 96 41.5t59.5 100.5t18.5 124
q0 129 -106 129q-55 0 -96 -42t-59.5 -101t-18.5 -123q0 -129 106 -129zM82 391l45 227h719l-45 -227h-719z" />
    <glyph glyph-name="guillemotright" unicode="&#xbb;" horiz-adv-x="1476" 
d="M1339 571l-493 -510l-201 183l367 350l-238 344l238 164l331 -510zM793 571l-494 -510l-201 183l367 350l-238 344l238 164l332 -510z" />
    <glyph glyph-name="onequarter" unicode="&#xbc;" horiz-adv-x="1769" 
d="M717 1520l-176 -881h-250l119 596q-67 -42 -172 -90l-80 176q186 75 342 199h217zM106 0l1332 1520h268l-1331 -1520h-269zM1655 160h-115l-33 -164h-243l32 164h-424l41 202l512 531h263l-109 -537h115zM1124 356h211l56 277z" />
    <glyph glyph-name="onehalf" unicode="&#xbd;" horiz-adv-x="1867" 
d="M717 1520l-176 -881h-250l119 596q-67 -42 -172 -90l-80 176q186 75 342 199h217zM106 0l1332 1520h268l-1331 -1520h-269zM1733 215l-45 -215h-678l41 205l286 184q112 73 159.5 120.5t47.5 100.5q0 40 -24 61t-68 21q-60 0 -119.5 -34t-103.5 -91l-74 191
q68 71 164 110t207 39q137 0 209.5 -62.5t72.5 -185.5q0 -119 -70.5 -202t-244.5 -181l-111 -61h351z" />
    <glyph glyph-name="threequarters" unicode="&#xbe;" horiz-adv-x="1871" 
d="M817 913q0 -133 -115.5 -214t-310.5 -81q-99 0 -183.5 20.5t-135.5 57.5l84 215q94 -80 229 -80q76 0 122 28t46 69q0 35 -37 52t-125 17h-115l35 174h95q94 0 149 28t55 73q0 61 -98 61q-111 0 -221 -78l-62 197q152 94 351 94q149 0 221.5 -56.5t72.5 -154.5
q0 -90 -57.5 -151t-161.5 -86q162 -37 162 -185zM209 0l1331 1520h268l-1331 -1520h-268zM1757 160h-115l-32 -164h-244l33 164h-424l41 202l512 531h262l-109 -537h115zM1227 356h211l55 277z" />
    <glyph glyph-name="questiondown" unicode="&#xbf;" horiz-adv-x="1181" 
d="M987 1122l-63 -313h-369l63 313h369zM877 668l-9 -45q-11 -55 -29 -103t-38 -83.5t-48 -67.5t-52 -53.5t-57.5 -42.5t-57 -33.5t-56.5 -28.5q-34 -16 -50.5 -24.5t-43 -24.5t-39.5 -29t-28 -32.5t-21 -42t-6 -50.5q0 -131 158 -131q113 0 208 50.5t164 140.5l103 -275
q-105 -105 -251.5 -162t-309.5 -57q-202 0 -321.5 93.5t-119.5 293.5q0 72 17.5 132.5t43.5 101t68.5 77t78.5 58t87 47.5q36 17 49.5 23.5t45 23t45 26t38 26t36.5 31t27 33t23 39.5t13 44l8 45h324z" />
    <glyph glyph-name="Agrave" unicode="&#xc0;" horiz-adv-x="1521" 
d="M1042 1622l-415 307l303 117l299 -340zM1020 0l-31 317h-532l-154 -317h-401l823 1520h455l215 -1520h-375zM594 602h367l-64 627z" />
    <glyph glyph-name="Aacute" unicode="&#xc1;" horiz-adv-x="1521" 
d="M909 1622l-178 94l397 330l283 -154zM1020 0l-31 317h-532l-154 -317h-401l823 1520h455l215 -1520h-375zM594 602h367l-64 627z" />
    <glyph glyph-name="Acircumflex" unicode="&#xc2;" horiz-adv-x="1521" 
d="M1417 1663l-287 -33l-114 211l-207 -211l-305 33l399 346h275zM1020 0l-31 317h-532l-154 -317h-401l823 1520h455l215 -1520h-375zM594 602h367l-64 627z" />
    <glyph glyph-name="Atilde" unicode="&#xc3;" horiz-adv-x="1521" 
d="M733 1624l-227 16q62 353 319 353q98 0 201 -68q91 -59 135 -59q42 0 68 32.5t39 106.5l227 -16q-62 -353 -319 -353q-97 0 -201 68q-89 59 -135 59q-42 0 -68 -32.5t-39 -106.5zM1020 0l-31 317h-532l-154 -317h-401l823 1520h455l215 -1520h-375zM594 602h367l-64 627z
" />
    <glyph glyph-name="Adieresis" unicode="&#xc4;" horiz-adv-x="1521" 
d="M1077 1671l58 287h299l-58 -287h-299zM571 1671l58 287h299l-58 -287h-299zM1020 0l-31 317h-532l-154 -317h-401l823 1520h455l215 -1520h-375zM594 602h367l-64 627z" />
    <glyph glyph-name="Aring" unicode="&#xc5;" horiz-adv-x="1521" 
d="M1020 0l-31 317h-532l-154 -317h-401l823 1520h74q-56 34 -86.5 91.5t-30.5 127.5q0 134 95.5 225.5t232.5 91.5q120 0 193 -73t73 -187q0 -90 -45.5 -162.5t-122.5 -113.5h72l215 -1520h-375zM963 1649q57 0 94 38t37 97q0 47 -26 74.5t-75 27.5q-57 0 -94 -37.5
t-37 -95.5q0 -48 27 -76t74 -28zM594 602h367l-64 627z" />
    <glyph glyph-name="AE" unicode="&#xc6;" horiz-adv-x="2174" 
d="M913 0l76 379h-518l-264 -379h-418l1098 1520h1356l-60 -291h-686l-61 -305h604l-58 -281h-602l-69 -348h704l-59 -295h-1043zM1161 1233h-96l-397 -569h379z" />
    <glyph glyph-name="Ccedilla" unicode="&#xc7;" horiz-adv-x="1400" 
d="M924 -252q0 -121 -93.5 -190.5t-261.5 -69.5q-141 0 -243 45l73 201q89 -47 191 -47q52 0 81 17t29 48q0 17 -10.5 29t-52.5 27.5t-121 31.5l90 142q-235 36 -360 192.5t-125 429.5q0 145 34.5 281.5t107.5 257t177 210.5t251.5 142.5t322.5 52.5q285 0 446 -135
l-123 -323q-125 151 -336 151q-117 0 -215 -51t-161 -135.5t-98 -192.5t-35 -225q0 -358 327 -358q230 0 420 172l25 -328q-196 -152 -529 -152l-18 -26q120 -33 163.5 -79t43.5 -118z" />
    <glyph glyph-name="Egrave" unicode="&#xc8;" horiz-adv-x="1314" 
d="M958 1622l-415 307l303 117l299 -340zM1161 295l-59 -295h-1055l303 1520h1039l-58 -291h-686l-61 -305h604l-58 -281h-604l-69 -348h704z" />
    <glyph glyph-name="Eacute" unicode="&#xc9;" horiz-adv-x="1314" 
d="M825 1622l-178 94l397 330l283 -154zM1161 295l-59 -295h-1055l303 1520h1039l-58 -291h-686l-61 -305h604l-58 -281h-604l-69 -348h704z" />
    <glyph glyph-name="Ecircumflex" unicode="&#xca;" horiz-adv-x="1314" 
d="M1333 1663l-286 -33l-115 211l-207 -211l-305 33l399 346h275zM1161 295l-59 -295h-1055l303 1520h1039l-58 -291h-686l-61 -305h604l-58 -281h-604l-69 -348h704z" />
    <glyph glyph-name="Edieresis" unicode="&#xcb;" horiz-adv-x="1314" 
d="M993 1671l58 287h299l-58 -287h-299zM487 1671l58 287h299l-58 -287h-299zM1161 295l-59 -295h-1055l303 1520h1039l-58 -291h-686l-61 -305h604l-58 -281h-604l-69 -348h704z" />
    <glyph glyph-name="Igrave" unicode="&#xcc;" horiz-adv-x="671" 
d="M616 1622l-415 307l303 117l299 -340zM47 0l303 1520h355l-304 -1520h-354z" />
    <glyph glyph-name="Iacute" unicode="&#xcd;" horiz-adv-x="671" 
d="M483 1622l-178 94l397 330l283 -154zM47 0l303 1520h355l-304 -1520h-354z" />
    <glyph glyph-name="Icircumflex" unicode="&#xce;" horiz-adv-x="671" 
d="M991 1663l-286 -33l-115 211l-207 -211l-305 33l399 346h275zM47 0l303 1520h355l-304 -1520h-354z" />
    <glyph glyph-name="Idieresis" unicode="&#xcf;" horiz-adv-x="671" 
d="M651 1671l58 287h299l-58 -287h-299zM145 1671l58 287h299l-58 -287h-299zM47 0l303 1520h355l-304 -1520h-354z" />
    <glyph glyph-name="Eth" unicode="&#xd0;" horiz-adv-x="1597" 
d="M1556 922q0 -203 -63 -373t-179.5 -291.5t-290.5 -189.5t-388 -68h-555l131 653h-166l51 262h166l121 605h502q186 0 316.5 -39t208 -117.5t112 -186.5t34.5 -255zM856 653h-291l-71 -360h180q123 0 222 47t162 129t96.5 190t33.5 232q0 180 -81 259t-280 79h-147
l-64 -314h291z" />
    <glyph glyph-name="Ntilde" unicode="&#xd1;" horiz-adv-x="1601" 
d="M989 0l-414 973l-194 -973h-334l303 1520h340l414 -973l194 973h334l-303 -1520h-340zM772 1624l-227 16q62 353 319 353q98 0 201 -68q91 -59 135 -59q42 0 68 32.5t39 106.5l227 -16q-62 -353 -320 -353q-96 0 -200 68q-89 59 -135 59q-42 0 -68 -32.5t-39 -106.5z" />
    <glyph glyph-name="Ograve" unicode="&#xd2;" horiz-adv-x="1597" 
d="M1079 1622l-415 307l303 117l299 -340zM713 -29q-279 0 -437.5 162t-158.5 451q0 147 34.5 287t105 263t169.5 215t237.5 145.5t299.5 53.5q279 0 437.5 -161.5t158.5 -450.5q0 -147 -34.5 -287t-105 -263t-169.5 -215.5t-237.5 -146t-299.5 -53.5zM750 279
q103 0 188.5 57.5t138 150.5t81 204t28.5 224q0 326 -260 326q-83 0 -154.5 -38t-122.5 -101.5t-88 -146t-54.5 -172t-17.5 -179.5q0 -325 261 -325z" />
    <glyph glyph-name="Oacute" unicode="&#xd3;" horiz-adv-x="1597" 
d="M946 1622l-178 94l397 330l283 -154zM713 -29q-279 0 -437.5 162t-158.5 451q0 147 34.5 287t105 263t169.5 215t237.5 145.5t299.5 53.5q279 0 437.5 -161.5t158.5 -450.5q0 -147 -34.5 -287t-105 -263t-169.5 -215.5t-237.5 -146t-299.5 -53.5zM750 279
q103 0 188.5 57.5t138 150.5t81 204t28.5 224q0 326 -260 326q-83 0 -154.5 -38t-122.5 -101.5t-88 -146t-54.5 -172t-17.5 -179.5q0 -325 261 -325z" />
    <glyph glyph-name="Ocircumflex" unicode="&#xd4;" horiz-adv-x="1597" 
d="M1454 1663l-287 -33l-114 211l-207 -211l-305 33l399 346h274zM713 -29q-279 0 -437.5 162t-158.5 451q0 147 34.5 287t105 263t169.5 215t237.5 145.5t299.5 53.5q279 0 437.5 -161.5t158.5 -450.5q0 -147 -34.5 -287t-105 -263t-169.5 -215.5t-237.5 -146t-299.5 -53.5
zM750 279q103 0 188.5 57.5t138 150.5t81 204t28.5 224q0 326 -260 326q-83 0 -154.5 -38t-122.5 -101.5t-88 -146t-54.5 -172t-17.5 -179.5q0 -325 261 -325z" />
    <glyph glyph-name="Otilde" unicode="&#xd5;" horiz-adv-x="1597" 
d="M713 -29q-279 0 -437.5 162t-158.5 451q0 147 34.5 287t105 263t169.5 215t237.5 145.5t299.5 53.5q279 0 437.5 -161.5t158.5 -450.5q0 -147 -34.5 -287t-105 -263t-169.5 -215.5t-237.5 -146t-299.5 -53.5zM750 279q103 0 188.5 57.5t138 150.5t81 204t28.5 224
q0 326 -260 326q-83 0 -154.5 -38t-122.5 -101.5t-88 -146t-54.5 -172t-17.5 -179.5q0 -325 261 -325zM770 1624l-227 16q62 353 319 353q98 0 201 -68q91 -59 135 -59q42 0 68 32.5t39 106.5l227 -16q-62 -353 -320 -353q-96 0 -200 68q-89 59 -135 59q-42 0 -68 -32.5
t-39 -106.5z" />
    <glyph glyph-name="Odieresis" unicode="&#xd6;" horiz-adv-x="1597" 
d="M1114 1671l57 287h299l-57 -287h-299zM608 1671l58 287h299l-58 -287h-299zM713 -29q-279 0 -437.5 162t-158.5 451q0 147 34.5 287t105 263t169.5 215t237.5 145.5t299.5 53.5q279 0 437.5 -161.5t158.5 -450.5q0 -147 -34.5 -287t-105 -263t-169.5 -215.5t-237.5 -146
t-299.5 -53.5zM750 279q103 0 188.5 57.5t138 150.5t81 204t28.5 224q0 326 -260 326q-83 0 -154.5 -38t-122.5 -101.5t-88 -146t-54.5 -172t-17.5 -179.5q0 -325 261 -325z" />
    <glyph glyph-name="multiply" unicode="&#xd7;" 
d="M1200 264l-192 -190l-363 366l-362 -366l-193 190l369 363l-369 362l193 193l362 -369l363 369l192 -193l-369 -362z" />
    <glyph glyph-name="Oslash" unicode="&#xd8;" horiz-adv-x="1597" 
d="M713 -29q-237 0 -385 115l-164 -176l-154 84l203 217q-96 149 -96 373q0 147 34.5 287t105 263t169.5 215t237.5 145.5t299.5 53.5q235 0 385 -116l165 178l152 -84l-203 -217q97 -151 97 -373q0 -147 -34.5 -287t-105 -263t-169.5 -215.5t-237.5 -146t-299.5 -53.5z
M489 604q0 -41 7 -88l612 658q-64 67 -182 67q-83 0 -154.5 -38t-122.5 -101.5t-88 -146t-54.5 -172t-17.5 -179.5zM1186 915q0 49 -6 89l-613 -658q67 -67 183 -67q103 0 188.5 57.5t138 150.5t81 204t28.5 224z" />
    <glyph glyph-name="Ugrave" unicode="&#xd9;" horiz-adv-x="1544" 
d="M1053 1622l-416 307l303 117l299 -340zM1589 1520l-182 -918q-125 -631 -731 -631q-266 0 -403.5 120t-137.5 345q0 64 21 180l180 904h350l-180 -908q-14 -75 -14 -114q0 -217 225 -217q275 0 342 331l180 908h350z" />
    <glyph glyph-name="Uacute" unicode="&#xda;" horiz-adv-x="1544" 
d="M920 1622l-179 94l398 330l282 -154zM1589 1520l-182 -918q-125 -631 -731 -631q-266 0 -403.5 120t-137.5 345q0 64 21 180l180 904h350l-180 -908q-14 -75 -14 -114q0 -217 225 -217q275 0 342 331l180 908h350z" />
    <glyph glyph-name="Ucircumflex" unicode="&#xdb;" horiz-adv-x="1544" 
d="M1427 1663l-286 -33l-115 211l-207 -211l-305 33l399 346h275zM1589 1520l-182 -918q-125 -631 -731 -631q-266 0 -403.5 120t-137.5 345q0 64 21 180l180 904h350l-180 -908q-14 -75 -14 -114q0 -217 225 -217q275 0 342 331l180 908h350z" />
    <glyph glyph-name="Udieresis" unicode="&#xdc;" horiz-adv-x="1544" 
d="M1087 1671l58 287h299l-58 -287h-299zM582 1671l57 287h299l-57 -287h-299zM1589 1520l-182 -918q-125 -631 -731 -631q-266 0 -403.5 120t-137.5 345q0 64 21 180l180 904h350l-180 -908q-14 -75 -14 -114q0 -217 225 -217q275 0 342 331l180 908h350z" />
    <glyph glyph-name="Yacute" unicode="&#xdd;" horiz-adv-x="1368" 
d="M831 1622l-178 94l398 330l282 -154zM1571 1520l-713 -975l-108 -545h-355l113 559l-328 961h383l180 -656l408 656h420z" />
    <glyph glyph-name="Thorn" unicode="&#xde;" horiz-adv-x="1374" 
d="M692 287h-233l-58 -287h-354l303 1520h355l-48 -230h226q497 0 497 -426q0 -92 -22.5 -173.5t-74.5 -156.5t-129.5 -129t-196 -86t-265.5 -32zM805 1004h-203l-86 -431h205q80 0 139.5 22t92 60t48 82.5t15.5 96.5q0 86 -49.5 128t-161.5 42z" />
    <glyph glyph-name="germandbls" unicode="&#xdf;" horiz-adv-x="1366" 
d="M1280 467q0 -225 -135.5 -358.5t-372.5 -133.5q-185 0 -299 68l78 260q77 -55 178 -55q104 0 159.5 63.5t55.5 169.5q0 112 -69.5 174.5t-219.5 81.5l45 230q145 0 215 59.5t70 159.5q0 81 -43.5 120.5t-122.5 39.5q-108 0 -165.5 -70.5t-86.5 -214.5l-213 -1061h-336
l218 1085q19 96 48.5 172.5t78.5 145t114 114t157 71.5t206 26q231 0 354 -100t123 -277q0 -145 -81 -241t-230 -130q141 -54 207.5 -150.5t66.5 -248.5z" />
    <glyph glyph-name="agrave" unicode="&#xe0;" horiz-adv-x="1212" 
d="M709 1239l-285 434l297 45l182 -440zM666 0l22 145q-138 -170 -352 -170q-139 0 -225 78t-86 226q0 200 164.5 310.5t476.5 110.5h114q8 40 8 68q0 66 -41 93.5t-135 27.5q-198 0 -372 -115l-15 262q89 52 214 81.5t259 29.5q217 0 323.5 -84t106.5 -242q0 -57 -12 -121
l-141 -700h-309zM475 221q75 0 138.5 41t101.5 113l28 141h-71q-156 0 -239 -48.5t-83 -135.5q0 -55 33 -83t92 -28z" />
    <glyph glyph-name="aacute" unicode="&#xe1;" horiz-adv-x="1212" 
d="M772 1239l-203 51l312 428l301 -82zM666 0l22 145q-138 -170 -352 -170q-139 0 -225 78t-86 226q0 200 164.5 310.5t476.5 110.5h114q8 40 8 68q0 66 -41 93.5t-135 27.5q-198 0 -372 -115l-15 262q89 52 214 81.5t259 29.5q217 0 323.5 -84t106.5 -242q0 -57 -12 -121
l-141 -700h-309zM475 221q75 0 138.5 41t101.5 113l28 141h-71q-156 0 -239 -48.5t-83 -135.5q0 -55 33 -83t92 -28z" />
    <glyph glyph-name="acircumflex" unicode="&#xe2;" horiz-adv-x="1212" 
d="M1165 1280l-268 -29l-96 279l-215 -279l-281 33l383 416h275zM666 0l22 145q-138 -170 -352 -170q-139 0 -225 78t-86 226q0 200 164.5 310.5t476.5 110.5h114q8 40 8 68q0 66 -41 93.5t-135 27.5q-198 0 -372 -115l-15 262q89 52 214 81.5t259 29.5q217 0 323.5 -84
t106.5 -242q0 -57 -12 -121l-141 -700h-309zM475 221q75 0 138.5 41t101.5 113l28 141h-71q-156 0 -239 -48.5t-83 -135.5q0 -55 33 -83t92 -28z" />
    <glyph glyph-name="atilde" unicode="&#xe3;" horiz-adv-x="1212" 
d="M524 1257l-227 17q63 352 311 352q95 0 193 -67q85 -60 127 -60q38 0 61.5 31.5t36.5 107.5l227 -16q-62 -352 -311 -352q-94 0 -192 67q-32 21 -47.5 30.5t-39 19.5t-40.5 10q-38 0 -62 -32.5t-37 -107.5zM666 0l22 145q-138 -170 -352 -170q-139 0 -225 78t-86 226
q0 200 164.5 310.5t476.5 110.5h114q8 40 8 68q0 66 -41 93.5t-135 27.5q-198 0 -372 -115l-15 262q89 52 214 81.5t259 29.5q217 0 323.5 -84t106.5 -242q0 -57 -12 -121l-141 -700h-309zM475 221q75 0 138.5 41t101.5 113l28 141h-71q-156 0 -239 -48.5t-83 -135.5
q0 -55 33 -83t92 -28z" />
    <glyph glyph-name="adieresis" unicode="&#xe4;" horiz-adv-x="1212" 
d="M838 1286l57 285h295l-57 -285h-295zM358 1286l58 285h295l-58 -285h-295zM666 0l22 145q-138 -170 -352 -170q-139 0 -225 78t-86 226q0 200 164.5 310.5t476.5 110.5h114q8 40 8 68q0 66 -41 93.5t-135 27.5q-198 0 -372 -115l-15 262q89 52 214 81.5t259 29.5
q217 0 323.5 -84t106.5 -242q0 -57 -12 -121l-141 -700h-309zM475 221q75 0 138.5 41t101.5 113l28 141h-71q-156 0 -239 -48.5t-83 -135.5q0 -55 33 -83t92 -28z" />
    <glyph glyph-name="aring" unicode="&#xe5;" horiz-adv-x="1212" 
d="M754 1204q-120 0 -193.5 73t-73.5 187q0 133 96.5 224.5t233.5 91.5q120 0 192 -73t72 -187q0 -133 -95 -224.5t-232 -91.5zM770 1372q57 0 94 38t37 97q0 47 -27 76t-73 29q-57 0 -94 -38t-37 -97q0 -48 26 -76.5t74 -28.5zM666 0l22 145q-138 -170 -352 -170
q-139 0 -225 78t-86 226q0 200 164.5 310.5t476.5 110.5h114q8 40 8 68q0 66 -41 93.5t-135 27.5q-198 0 -372 -115l-15 262q89 52 214 81.5t259 29.5q217 0 323.5 -84t106.5 -242q0 -57 -12 -121l-141 -700h-309zM475 221q75 0 138.5 41t101.5 113l28 141h-71
q-156 0 -239 -48.5t-83 -135.5q0 -55 33 -83t92 -28z" />
    <glyph glyph-name="ae" unicode="&#xe6;" horiz-adv-x="1867" 
d="M1706 88q-196 -113 -457 -113q-308 0 -430 179q-174 -179 -432 -179q-167 0 -264.5 77.5t-97.5 226.5q0 199 162 305t475 106h120q9 40 9 78q0 64 -42.5 92.5t-138.5 28.5q-203 0 -377 -115l-14 262q89 52 214 81.5t259 29.5q241 0 322 -123q148 123 370 123
q99 0 176 -24t124 -63t77.5 -93.5t42 -111t11.5 -120.5q0 -137 -50 -250h-708q0 -140 58 -196t206 -56q202 0 371 115zM1356 913q-98 0 -164 -65.5t-100 -169.5h401q12 34 12 80q0 155 -149 155zM485 221q81 0 152.5 39t110.5 107q-5 50 -5 63q0 12 5 74h-80
q-318 0 -318 -172q0 -111 135 -111z" />
    <glyph glyph-name="ccedilla" unicode="&#xe7;" horiz-adv-x="1073" 
d="M715 -252q0 -121 -93.5 -190.5t-261.5 -69.5q-140 0 -243 45l73 201q89 -47 191 -47q53 0 82 17t29 48q0 17 -10.5 29t-53 27.5t-121.5 31.5l94 148q-161 35 -249.5 150.5t-88.5 307.5q0 85 18 168.5t53.5 162.5t92 146t128 117t167 78.5t205.5 28.5q121 0 211 -33
t143 -86l-100 -264q-93 108 -244 108q-84 0 -150 -35t-105 -93t-59 -125.5t-20 -139.5q0 -229 218 -229q161 0 288 108l19 -264q-162 -119 -398 -119l-22 -30q120 -33 163.5 -79t43.5 -118z" />
    <glyph glyph-name="egrave" unicode="&#xe8;" horiz-adv-x="1210" 
d="M721 1239l-285 434l297 45l182 -440zM1049 88q-196 -113 -459 -113q-527 0 -527 465q0 103 25 202.5t78.5 191.5t129.5 161t187.5 110.5t243.5 41.5q100 0 176.5 -24t123.5 -63t77 -94t41.5 -111t11.5 -120q0 -145 -51 -256h-707q0 -65 11.5 -109t41 -76t81.5 -46.5
t131 -14.5q204 0 370 115zM700 913q-100 0 -167 -67t-101 -174h402q16 31 16 86q0 155 -150 155z" />
    <glyph glyph-name="eacute" unicode="&#xe9;" horiz-adv-x="1210" 
d="M788 1239l-202 51l311 428l301 -82zM1049 88q-196 -113 -459 -113q-527 0 -527 465q0 103 25 202.5t78.5 191.5t129.5 161t187.5 110.5t243.5 41.5q100 0 176.5 -24t123.5 -63t77 -94t41.5 -111t11.5 -120q0 -145 -51 -256h-707q0 -65 11.5 -109t41 -76t81.5 -46.5
t131 -14.5q204 0 370 115zM700 913q-100 0 -167 -67t-101 -174h402q16 31 16 86q0 155 -150 155z" />
    <glyph glyph-name="ecircumflex" unicode="&#xea;" horiz-adv-x="1210" 
d="M1182 1280l-269 -29l-96 279l-215 -279l-280 33l383 416h274zM1049 88q-196 -113 -459 -113q-527 0 -527 465q0 103 25 202.5t78.5 191.5t129.5 161t187.5 110.5t243.5 41.5q100 0 176.5 -24t123.5 -63t77 -94t41.5 -111t11.5 -120q0 -145 -51 -256h-707q0 -65 11.5 -109
t41 -76t81.5 -46.5t131 -14.5q204 0 370 115zM700 913q-100 0 -167 -67t-101 -174h402q16 31 16 86q0 155 -150 155z" />
    <glyph glyph-name="edieresis" unicode="&#xeb;" horiz-adv-x="1210" 
d="M854 1286l57 285h295l-57 -285h-295zM375 1286l57 285h295l-57 -285h-295zM1049 88q-196 -113 -459 -113q-527 0 -527 465q0 103 25 202.5t78.5 191.5t129.5 161t187.5 110.5t243.5 41.5q100 0 176.5 -24t123.5 -63t77 -94t41.5 -111t11.5 -120q0 -145 -51 -256h-707
q0 -65 11.5 -109t41 -76t81.5 -46.5t131 -14.5q204 0 370 115zM700 913q-100 0 -167 -67t-101 -174h402q16 31 16 86q0 155 -150 155z" />
    <glyph glyph-name="igrave" unicode="&#xec;" horiz-adv-x="612" 
d="M420 1239l-285 434l297 45l182 -440zM27 0l223 1122h336l-224 -1122h-335z" />
    <glyph glyph-name="iacute" unicode="&#xed;" horiz-adv-x="612" 
d="M459 1239l-203 51l311 428l301 -82zM27 0l223 1122h336l-224 -1122h-335z" />
    <glyph glyph-name="icircumflex" unicode="&#xee;" horiz-adv-x="626" 
d="M836 1280l-248 -29l-72 275l-176 -275l-260 33l332 416h264zM35 0l223 1122h336l-223 -1122h-336z" />
    <glyph glyph-name="idieresis" unicode="&#xef;" horiz-adv-x="626" 
d="M530 1286l58 285h286l-57 -285h-287zM100 1286l58 285h286l-57 -285h-287zM35 0l223 1122h336l-223 -1122h-336z" />
    <glyph glyph-name="eth" unicode="&#xf0;" horiz-adv-x="1255" 
d="M1196 752q0 -165 -40 -305t-117.5 -246t-202 -166t-283.5 -60q-231 0 -360.5 124t-129.5 356q0 175 73.5 316.5t199 219.5t276.5 78q184 0 273 -129q-43 169 -152 301l-258 -115l-100 125l243 109q-94 85 -215 160l326 122q103 -84 174 -157l244 108l98 -123l-239 -106
q190 -261 190 -612zM403 463q0 -107 42 -163t124 -56q139 0 217 125t78 340q-53 112 -184 112q-86 0 -150 -51.5t-95.5 -131.5t-31.5 -175z" />
    <glyph glyph-name="ntilde" unicode="&#xf1;" horiz-adv-x="1277" 
d="M492 684l-138 -684h-336l224 1122h309l-29 -182q75 97 173 152t212 55q132 0 211.5 -76t79.5 -229q0 -60 -16 -142l-140 -700h-335l135 676q8 36 8 72q0 112 -109 112q-71 0 -139 -45t-110 -131zM555 1257l-227 17q63 352 311 352q94 0 192 -67q85 -60 127 -60
q38 0 62 31.5t37 107.5l227 -16q-62 -352 -311 -352q-95 0 -193 67q-32 21 -47.5 30.5t-39 19.5t-40.5 10q-38 0 -61.5 -32.5t-36.5 -107.5z" />
    <glyph glyph-name="ograve" unicode="&#xf2;" horiz-adv-x="1255" 
d="M723 1239l-285 434l297 45l183 -440zM549 -25q-100 0 -185 26.5t-153.5 80.5t-108 147t-39.5 215q0 105 25.5 205.5t79 190.5t128.5 158.5t181 108.5t230 40q79 0 149 -16t132 -52t107 -89.5t71 -133t26 -178.5q0 -105 -25.5 -205.5t-78.5 -190.5t-128 -158.5
t-181 -108.5t-230 -40zM573 244q65 0 119.5 38t88.5 100t52.5 135.5t18.5 148.5q0 106 -44.5 159.5t-127.5 53.5q-85 0 -150.5 -66t-96 -160t-30.5 -196q0 -106 43.5 -159.5t126.5 -53.5z" />
    <glyph glyph-name="oacute" unicode="&#xf3;" horiz-adv-x="1255" 
d="M791 1239l-203 51l311 428l301 -82zM549 -25q-100 0 -185 26.5t-153.5 80.5t-108 147t-39.5 215q0 105 25.5 205.5t79 190.5t128.5 158.5t181 108.5t230 40q79 0 149 -16t132 -52t107 -89.5t71 -133t26 -178.5q0 -105 -25.5 -205.5t-78.5 -190.5t-128 -158.5t-181 -108.5
t-230 -40zM573 244q65 0 119.5 38t88.5 100t52.5 135.5t18.5 148.5q0 106 -44.5 159.5t-127.5 53.5q-85 0 -150.5 -66t-96 -160t-30.5 -196q0 -106 43.5 -159.5t126.5 -53.5z" />
    <glyph glyph-name="ocircumflex" unicode="&#xf4;" horiz-adv-x="1255" 
d="M1184 1280l-269 -29l-96 279l-215 -279l-280 33l383 416h274zM549 -25q-100 0 -185 26.5t-153.5 80.5t-108 147t-39.5 215q0 105 25.5 205.5t79 190.5t128.5 158.5t181 108.5t230 40q79 0 149 -16t132 -52t107 -89.5t71 -133t26 -178.5q0 -105 -25.5 -205.5t-78.5 -190.5
t-128 -158.5t-181 -108.5t-230 -40zM573 244q65 0 119.5 38t88.5 100t52.5 135.5t18.5 148.5q0 106 -44.5 159.5t-127.5 53.5q-85 0 -150.5 -66t-96 -160t-30.5 -196q0 -106 43.5 -159.5t126.5 -53.5z" />
    <glyph glyph-name="otilde" unicode="&#xf5;" horiz-adv-x="1255" 
d="M549 -25q-100 0 -185 26.5t-153.5 80.5t-108 147t-39.5 215q0 105 25.5 205.5t79 190.5t128.5 158.5t181 108.5t230 40q79 0 149 -16t132 -52t107 -89.5t71 -133t26 -178.5q0 -105 -25.5 -205.5t-78.5 -190.5t-128 -158.5t-181 -108.5t-230 -40zM573 244q65 0 119.5 38
t88.5 100t52.5 135.5t18.5 148.5q0 106 -44.5 159.5t-127.5 53.5q-85 0 -150.5 -66t-96 -160t-30.5 -196q0 -106 43.5 -159.5t126.5 -53.5zM543 1257l-228 17q63 352 312 352q94 0 192 -67q85 -60 127 -60q38 0 61.5 31.5t36.5 107.5l228 -16q-62 -352 -311 -352
q-95 0 -193 67q-32 21 -47.5 30.5t-39 19.5t-40.5 10q-38 0 -61.5 -32.5t-36.5 -107.5z" />
    <glyph glyph-name="odieresis" unicode="&#xf6;" horiz-adv-x="1255" 
d="M856 1286l57 285h295l-57 -285h-295zM377 1286l57 285h295l-57 -285h-295zM549 -25q-100 0 -185 26.5t-153.5 80.5t-108 147t-39.5 215q0 105 25.5 205.5t79 190.5t128.5 158.5t181 108.5t230 40q79 0 149 -16t132 -52t107 -89.5t71 -133t26 -178.5q0 -105 -25.5 -205.5
t-78.5 -190.5t-128 -158.5t-181 -108.5t-230 -40zM573 244q65 0 119.5 38t88.5 100t52.5 135.5t18.5 148.5q0 106 -44.5 159.5t-127.5 53.5q-85 0 -150.5 -66t-96 -160t-30.5 -196q0 -106 43.5 -159.5t126.5 -53.5z" />
    <glyph glyph-name="divide" unicode="&#xf7;" 
d="M444 1067q0 83 58 141t143 58q83 0 142 -58t59 -141q0 -84 -58.5 -142.5t-142.5 -58.5q-85 0 -143 58t-58 143zM102 500v256h1086v-256h-1086zM444 188q0 83 58 141t143 58t143 -58t58 -141q0 -85 -58 -142.5t-143 -57.5t-143 57.5t-58 142.5z" />
    <glyph glyph-name="oslash" unicode="&#xf8;" horiz-adv-x="1255" 
d="M549 -25q-175 0 -295 76l-158 -170l-129 74l180 195q-84 114 -84 294q0 105 25.5 205.5t79 190.5t128.5 158.5t181 108.5t230 40q174 0 294 -76l158 170l129 -74l-180 -194q84 -114 84 -295q0 -105 -25.5 -205.5t-78.5 -190.5t-128 -158.5t-181 -108.5t-230 -40zM680 879
q-123 0 -200 -126.5t-77 -326.5l388 416q-43 37 -111 37zM852 666q0 20 -2 30l-385 -417q44 -35 108 -35q65 0 119.5 38t88.5 100t52.5 135.5t18.5 148.5z" />
    <glyph glyph-name="ugrave" unicode="&#xf9;" horiz-adv-x="1277" 
d="M733 1239l-284 434l296 45l183 -440zM727 0l29 186q-150 -211 -379 -211q-134 0 -214.5 76.5t-80.5 229.5q0 70 14 141l142 700h335l-135 -676q-10 -45 -10 -71q0 -113 113 -113q83 0 147 54t103 137l135 669h336l-226 -1122h-309z" />
    <glyph glyph-name="uacute" unicode="&#xfa;" horiz-adv-x="1277" 
d="M801 1239l-203 51l311 428l301 -82zM727 0l29 186q-150 -211 -379 -211q-134 0 -214.5 76.5t-80.5 229.5q0 70 14 141l142 700h335l-135 -676q-10 -45 -10 -71q0 -113 113 -113q83 0 147 54t103 137l135 669h336l-226 -1122h-309z" />
    <glyph glyph-name="ucircumflex" unicode="&#xfb;" horiz-adv-x="1277" 
d="M1194 1280l-268 -29l-97 279l-215 -279l-280 33l383 416h274zM727 0l29 186q-150 -211 -379 -211q-134 0 -214.5 76.5t-80.5 229.5q0 70 14 141l142 700h335l-135 -676q-10 -45 -10 -71q0 -113 113 -113q83 0 147 54t103 137l135 669h336l-226 -1122h-309z" />
    <glyph glyph-name="udieresis" unicode="&#xfc;" horiz-adv-x="1277" 
d="M866 1286l58 285h295l-58 -285h-295zM387 1286l57 285h295l-57 -285h-295zM727 0l29 186q-150 -211 -379 -211q-134 0 -214.5 76.5t-80.5 229.5q0 70 14 141l142 700h335l-135 -676q-10 -45 -10 -71q0 -113 113 -113q83 0 147 54t103 137l135 669h336l-226 -1122h-309z
" />
    <glyph glyph-name="yacute" unicode="&#xfd;" horiz-adv-x="1222" 
d="M774 1239l-203 51l312 428l301 -82zM692 10q-81 -146 -152.5 -240.5t-145 -147.5t-144 -73t-162.5 -20q-137 0 -229 47l75 270q84 -43 166 -43q65 0 118.5 38t111.5 134l-203 1147h365l71 -821l371 821h375z" />
    <glyph glyph-name="thorn" unicode="&#xfe;" horiz-adv-x="1314" 
d="M668 -25q-186 0 -293 123l-107 -532h-336l406 2027h336l-123 -612q137 166 334 166q177 0 271.5 -116.5t94.5 -325.5q0 -113 -25 -220t-75 -199t-119 -161.5t-163 -109.5t-201 -40zM424 346q23 -47 72.5 -74.5t111.5 -27.5q88 0 157.5 59t105.5 152t36 200
q0 211 -170 211q-77 0 -139.5 -43.5t-101.5 -122.5z" />
    <glyph glyph-name="ydieresis" unicode="&#xff;" horiz-adv-x="1222" 
d="M840 1286l57 285h295l-57 -285h-295zM360 1286l58 285h295l-58 -285h-295zM692 10q-81 -146 -152.5 -240.5t-145 -147.5t-144 -73t-162.5 -20q-137 0 -229 47l75 270q84 -43 166 -43q65 0 118.5 38t111.5 134l-203 1147h365l71 -821l371 821h375z" />
    <glyph glyph-name="Amacron" unicode="&#x100;" horiz-adv-x="1521" 
d="M586 1704l45 221h788l-45 -221h-788zM1020 0l-31 317h-532l-154 -317h-401l823 1520h455l215 -1520h-375zM594 602h367l-64 627z" />
    <glyph glyph-name="amacron" unicode="&#x101;" horiz-adv-x="1212" 
d="M395 1319l43 219h715l-43 -219h-715zM666 0l22 145q-138 -170 -352 -170q-139 0 -225 78t-86 226q0 200 164.5 310.5t476.5 110.5h114q8 40 8 68q0 66 -41 93.5t-135 27.5q-198 0 -372 -115l-15 262q89 52 214 81.5t259 29.5q217 0 323.5 -84t106.5 -242q0 -57 -12 -121
l-141 -700h-309zM475 221q75 0 138.5 41t101.5 113l28 141h-71q-156 0 -239 -48.5t-83 -135.5q0 -55 33 -83t92 -28z" />
    <glyph glyph-name="Abreve" unicode="&#x102;" horiz-adv-x="1521" 
d="M639 1987l238 12q-7 -35 -7 -55q0 -115 123 -115q150 0 191 170l250 -12q-44 -182 -166.5 -271.5t-296.5 -89.5q-160 0 -249 74t-89 211q0 36 6 76zM1020 0l-31 317h-532l-154 -317h-401l823 1520h455l215 -1520h-375zM594 602h367l-64 627z" />
    <glyph glyph-name="abreve" unicode="&#x103;" horiz-adv-x="1212" 
d="M420 1647l237 12q-8 -39 -8 -76q0 -127 119 -127q147 0 197 203l249 -12q-48 -197 -172.5 -297.5t-298.5 -100.5q-156 0 -243.5 78t-87.5 227q0 49 8 93zM666 0l22 145q-138 -170 -352 -170q-139 0 -225 78t-86 226q0 200 164.5 310.5t476.5 110.5h114q8 40 8 68
q0 66 -41 93.5t-135 27.5q-198 0 -372 -115l-15 262q89 52 214 81.5t259 29.5q217 0 323.5 -84t106.5 -242q0 -57 -12 -121l-141 -700h-309zM475 221q75 0 138.5 41t101.5 113l28 141h-71q-156 0 -239 -48.5t-83 -135.5q0 -55 33 -83t92 -28z" />
    <glyph glyph-name="Aogonek" unicode="&#x104;" horiz-adv-x="1521" 
d="M1282 -455q-96 -57 -227 -57q-126 0 -193 53.5t-67 153.5q0 93 53.5 166t171.5 141l-31 315h-532l-154 -317h-401l823 1520h455l215 -1520h-97q-130 -40 -200 -97t-70 -124q0 -74 92 -74q71 0 154 49zM594 602h367l-64 627z" />
    <glyph glyph-name="aogonek" unicode="&#x105;" horiz-adv-x="1212" 
d="M911 -455q-96 -57 -227 -57q-125 0 -192.5 53t-67.5 152q0 94 57 170t187 145l20 137q-138 -170 -352 -170q-139 0 -225 78t-86 226q0 200 164.5 310.5t476.5 110.5h114q8 40 8 68q0 66 -41 93.5t-135 27.5q-198 0 -372 -115l-15 262q89 52 214 81.5t259 29.5
q217 0 323.5 -84t106.5 -242q0 -57 -12 -121l-141 -700h-43q-132 -43 -202.5 -100t-70.5 -123q0 -72 91 -72q68 0 151 49zM475 221q75 0 138.5 41t101.5 113l28 141h-71q-156 0 -239 -48.5t-83 -135.5q0 -55 33 -83t92 -28z" />
    <glyph glyph-name="Cacute" unicode="&#x106;" horiz-adv-x="1400" 
d="M948 1622l-178 94l397 330l283 -154zM1264 123q-83 -65 -216 -108.5t-298 -43.5q-302 0 -465.5 160.5t-163.5 472.5q0 145 34.5 281.5t107.5 257t177 210.5t251.5 142.5t322.5 52.5q285 0 446 -135l-123 -323q-125 151 -336 151q-117 0 -215 -51t-161 -135.5t-98 -192.5
t-35 -225q0 -358 327 -358q230 0 420 172z" />
    <glyph glyph-name="cacute" unicode="&#x107;" horiz-adv-x="1073" 
d="M760 1239l-203 51l311 428l301 -82zM928 94q-71 -52 -172.5 -85.5t-220.5 -33.5q-220 0 -346 120.5t-126 350.5q0 85 18 168.5t53.5 162.5t92 146t128 117t167 78.5t205.5 28.5q121 0 211 -33t143 -86l-100 -264q-93 108 -244 108q-84 0 -150 -35t-105 -93t-59 -125.5
t-20 -139.5q0 -229 218 -229q161 0 288 108z" />
    <glyph glyph-name="Ccircumflex" unicode="&#x108;" horiz-adv-x="1400" 
d="M1456 1663l-287 -33l-114 211l-207 -211l-305 33l399 346h275zM1264 123q-83 -65 -216 -108.5t-298 -43.5q-302 0 -465.5 160.5t-163.5 472.5q0 145 34.5 281.5t107.5 257t177 210.5t251.5 142.5t322.5 52.5q285 0 446 -135l-123 -323q-125 151 -336 151q-117 0 -215 -51
t-161 -135.5t-98 -192.5t-35 -225q0 -358 327 -358q230 0 420 172z" />
    <glyph glyph-name="ccircumflex" unicode="&#x109;" horiz-adv-x="1073" 
d="M1167 1280l-268 -29l-96 279l-215 -279l-281 33l383 416h275zM928 94q-71 -52 -172.5 -85.5t-220.5 -33.5q-220 0 -346 120.5t-126 350.5q0 85 18 168.5t53.5 162.5t92 146t128 117t167 78.5t205.5 28.5q121 0 211 -33t143 -86l-100 -264q-93 108 -244 108
q-84 0 -150 -35t-105 -93t-59 -125.5t-20 -139.5q0 -229 218 -229q161 0 288 108z" />
    <glyph glyph-name="Cdotaccent" unicode="&#x10a;" horiz-adv-x="1400" 
d="M836 1671l57 287h364l-57 -287h-364zM1264 123q-83 -65 -216 -108.5t-298 -43.5q-302 0 -465.5 160.5t-163.5 472.5q0 145 34.5 281.5t107.5 257t177 210.5t251.5 142.5t322.5 52.5q285 0 446 -135l-123 -323q-125 151 -336 151q-117 0 -215 -51t-161 -135.5t-98 -192.5
t-35 -225q0 -358 327 -358q230 0 420 172z" />
    <glyph glyph-name="cdotaccent" unicode="&#x10b;" horiz-adv-x="1073" 
d="M559 1286l57 285h359l-57 -285h-359zM928 94q-71 -52 -172.5 -85.5t-220.5 -33.5q-220 0 -346 120.5t-126 350.5q0 85 18 168.5t53.5 162.5t92 146t128 117t167 78.5t205.5 28.5q121 0 211 -33t143 -86l-100 -264q-93 108 -244 108q-84 0 -150 -35t-105 -93t-59 -125.5
t-20 -139.5q0 -229 218 -229q161 0 288 108z" />
    <glyph glyph-name="Ccaron" unicode="&#x10c;" horiz-adv-x="1400" 
d="M1540 1989l-399 -344h-275l-239 344l286 32l115 -209l207 211zM1264 123q-83 -65 -216 -108.5t-298 -43.5q-302 0 -465.5 160.5t-163.5 472.5q0 145 34.5 281.5t107.5 257t177 210.5t251.5 142.5t322.5 52.5q285 0 446 -135l-123 -323q-125 151 -336 151q-117 0 -215 -51
t-161 -135.5t-98 -192.5t-35 -225q0 -358 327 -358q230 0 420 172z" />
    <glyph glyph-name="ccaron" unicode="&#x10d;" horiz-adv-x="1073" 
d="M1243 1663l-381 -406h-274l-199 408l266 31l97 -269l211 271zM928 94q-71 -52 -172.5 -85.5t-220.5 -33.5q-220 0 -346 120.5t-126 350.5q0 85 18 168.5t53.5 162.5t92 146t128 117t167 78.5t205.5 28.5q121 0 211 -33t143 -86l-100 -264q-93 108 -244 108
q-84 0 -150 -35t-105 -93t-59 -125.5t-20 -139.5q0 -229 218 -229q161 0 288 108z" />
    <glyph glyph-name="Dcaron" unicode="&#x10e;" horiz-adv-x="1564" 
d="M1460 1989l-399 -344h-275l-239 344l287 32l114 -209l207 211zM1524 922q0 -272 -108.5 -479.5t-318.5 -325t-495 -117.5h-555l303 1520h502q186 0 316.5 -39t208 -117.5t112.5 -186.5t35 -255zM795 1229h-148l-186 -936h180q123 0 222 47t162 129t96.5 190t33.5 232
q0 181 -80.5 259.5t-279.5 78.5z" />
    <glyph glyph-name="dcaron" unicode="&#x10f;" horiz-adv-x="1388" 
d="M1645 1217h-215l143 475h305zM762 0l26 164q-139 -189 -360 -189q-177 0 -271 117t-94 326q0 142 40.5 272.5t113.5 232.5t185 163t245 61q187 0 293 -125l115 571h336l-320 -1593h-309zM408 467q0 -211 167 -211q77 0 141 44t105 128l70 350q-24 45 -73.5 73t-110.5 28
q-88 0 -157.5 -59.5t-105.5 -152.5t-36 -200z" />
    <glyph glyph-name="Dcroat" unicode="&#x110;" horiz-adv-x="1597" 
d="M1556 922q0 -203 -63 -373t-179.5 -291.5t-290.5 -189.5t-388 -68h-555l131 655h-166l51 258h166l121 607h502q186 0 316.5 -39t208 -117.5t112 -186.5t34.5 -255zM856 655h-291l-71 -362h180q123 0 222 47t162 129t96.5 190t33.5 232q0 180 -81 259t-280 79h-147
l-64 -316h291z" />
    <glyph glyph-name="dcroat" unicode="&#x111;" horiz-adv-x="1320" 
d="M762 0l26 164q-139 -189 -360 -189q-177 0 -271 117t-94 326q0 142 40.5 272.5t113.5 232.5t185 163t245 61q190 0 293 -125l47 233h-315l39 195h315l33 168h336l-33 -168h137l-39 -195h-137l-252 -1255h-309zM408 467q0 -211 167 -211q77 0 141.5 44t106.5 128l70 348
q-26 46 -75.5 74.5t-110.5 28.5q-88 0 -157.5 -59.5t-105.5 -152.5t-36 -200z" />
    <glyph glyph-name="Emacron" unicode="&#x112;" horiz-adv-x="1314" 
d="M502 1704l45 221h788l-45 -221h-788zM1161 295l-59 -295h-1055l303 1520h1039l-58 -291h-686l-61 -305h604l-58 -281h-604l-69 -348h704z" />
    <glyph glyph-name="emacron" unicode="&#x113;" horiz-adv-x="1210" 
d="M412 1319l43 219h714l-43 -219h-714zM1049 88q-196 -113 -459 -113q-527 0 -527 465q0 103 25 202.5t78.5 191.5t129.5 161t187.5 110.5t243.5 41.5q100 0 176.5 -24t123.5 -63t77 -94t41.5 -111t11.5 -120q0 -145 -51 -256h-707q0 -65 11.5 -109t41 -76t81.5 -46.5
t131 -14.5q204 0 370 115zM700 913q-100 0 -167 -67t-101 -174h402q16 31 16 86q0 155 -150 155z" />
    <glyph glyph-name="Ebreve" unicode="&#x114;" horiz-adv-x="1314" 
d="M555 1987l238 12q-7 -35 -7 -55q0 -115 123 -115q150 0 191 170l250 -12q-44 -182 -166.5 -271.5t-296.5 -89.5q-160 0 -249 74t-89 211q0 36 6 76zM1161 295l-59 -295h-1055l303 1520h1039l-58 -291h-686l-61 -305h604l-58 -281h-604l-69 -348h704z" />
    <glyph glyph-name="ebreve" unicode="&#x115;" horiz-adv-x="1210" 
d="M436 1647l238 12q-8 -39 -8 -76q0 -127 118 -127q147 0 197 203l250 -12q-48 -197 -172.5 -297.5t-298.5 -100.5q-156 0 -244 78.5t-88 226.5q0 49 8 93zM1049 88q-196 -113 -459 -113q-527 0 -527 465q0 103 25 202.5t78.5 191.5t129.5 161t187.5 110.5t243.5 41.5
q100 0 176.5 -24t123.5 -63t77 -94t41.5 -111t11.5 -120q0 -145 -51 -256h-707q0 -65 11.5 -109t41 -76t81.5 -46.5t131 -14.5q204 0 370 115zM700 913q-100 0 -167 -67t-101 -174h402q16 31 16 86q0 155 -150 155z" />
    <glyph glyph-name="Edotaccent" unicode="&#x116;" horiz-adv-x="1314" 
d="M713 1671l57 287h365l-58 -287h-364zM1161 295l-59 -295h-1055l303 1520h1039l-58 -291h-686l-61 -305h604l-58 -281h-604l-69 -348h704z" />
    <glyph glyph-name="edotaccent" unicode="&#x117;" horiz-adv-x="1210" 
d="M582 1286l57 285h358l-57 -285h-358zM1049 88q-196 -113 -459 -113q-527 0 -527 465q0 103 25 202.5t78.5 191.5t129.5 161t187.5 110.5t243.5 41.5q100 0 176.5 -24t123.5 -63t77 -94t41.5 -111t11.5 -120q0 -145 -51 -256h-707q0 -65 11.5 -109t41 -76t81.5 -46.5
t131 -14.5q204 0 370 115zM700 913q-100 0 -167 -67t-101 -174h402q16 31 16 86q0 155 -150 155z" />
    <glyph glyph-name="Eogonek" unicode="&#x118;" horiz-adv-x="1314" 
d="M504 -303q0 93 54.5 166t168.5 137h-680l303 1520h1039l-58 -291h-686l-61 -305h604l-58 -281h-604l-69 -348h704l-59 -295h-94q-124 -29 -196.5 -89t-72.5 -132q0 -74 92 -74q69 0 152 49l10 -209q-96 -57 -229 -57q-126 0 -193 54t-67 155z" />
    <glyph glyph-name="eogonek" unicode="&#x119;" horiz-adv-x="1210" 
d="M877 -455q-96 -57 -228 -57q-126 0 -193 54t-67 155q0 82 43 149.5t141 128.5q-510 9 -510 465q0 103 25 202.5t78.5 191.5t129.5 161t187.5 110.5t243.5 41.5q100 0 176.5 -24t123.5 -63t77 -94t41.5 -111t11.5 -120q0 -145 -51 -256h-707q0 -65 11.5 -109t41 -76
t81.5 -46.5t131 -14.5q204 0 370 115l15 -260q-81 -47 -172 -74q-254 -100 -254 -235q0 -74 92 -74q70 0 153 49zM700 913q-100 0 -167 -67t-101 -174h402q16 31 16 86q0 155 -150 155z" />
    <glyph glyph-name="Ecaron" unicode="&#x11a;" horiz-adv-x="1314" 
d="M1417 1989l-399 -344h-275l-239 344l287 32l114 -209l207 211zM1161 295l-59 -295h-1055l303 1520h1039l-58 -291h-686l-61 -305h604l-58 -281h-604l-69 -348h704z" />
    <glyph glyph-name="ecaron" unicode="&#x11b;" horiz-adv-x="1210" 
d="M1268 1663l-381 -406h-275l-198 408l266 31l96 -269l211 271zM1049 88q-196 -113 -459 -113q-527 0 -527 465q0 103 25 202.5t78.5 191.5t129.5 161t187.5 110.5t243.5 41.5q100 0 176.5 -24t123.5 -63t77 -94t41.5 -111t11.5 -120q0 -145 -51 -256h-707q0 -65 11.5 -109
t41 -76t81.5 -46.5t131 -14.5q204 0 370 115zM700 913q-100 0 -167 -67t-101 -174h402q16 31 16 86q0 155 -150 155z" />
    <glyph glyph-name="Gcircumflex" unicode="&#x11c;" horiz-adv-x="1560" 
d="M1479 1663l-287 -33l-115 211l-207 -211l-305 33l400 346h274zM1343 121q-95 -63 -242 -106.5t-325 -43.5q-322 0 -488.5 159.5t-166.5 479.5q0 146 33.5 280.5t107.5 255t180.5 209.5t262.5 141t344 52q316 0 503 -135l-122 -323q-65 67 -167 109t-229 42
q-133 0 -238.5 -50t-170.5 -135.5t-99 -192.5t-34 -228q0 -183 83 -269.5t269 -86.5q109 0 219 30l57 281h-315l53 262h631z" />
    <glyph glyph-name="gcircumflex" unicode="&#x11d;" horiz-adv-x="1314" 
d="M1221 1280l-269 -29l-96 279l-215 -279l-281 33l383 416h275zM1073 12q-52 -256 -215 -371.5t-428 -115.5q-295 0 -465 123l78 260q63 -55 168 -90t221 -35q131 0 206.5 55.5t102.5 192.5l23 114q-131 -155 -330 -155q-178 0 -274.5 114t-96.5 320q0 139 40.5 268.5
t114 231t185 162.5t244.5 61q205 0 305 -152l35 127h309zM408 473q0 -209 170 -209q78 0 140.5 44t102.5 126l68 334q-25 54 -72.5 82.5t-109.5 28.5q-87 0 -156.5 -58t-106 -150.5t-36.5 -197.5z" />
    <glyph glyph-name="Gbreve" unicode="&#x11e;" horiz-adv-x="1560" 
d="M700 1987l238 12q-6 -30 -6 -55q0 -115 123 -115q149 0 190 170l250 -12q-44 -182 -166.5 -271.5t-296.5 -89.5q-160 0 -249 74t-89 211q0 36 6 76zM1343 121q-95 -63 -242 -106.5t-325 -43.5q-322 0 -488.5 159.5t-166.5 479.5q0 146 33.5 280.5t107.5 255t180.5 209.5
t262.5 141t344 52q316 0 503 -135l-122 -323q-65 67 -167 109t-229 42q-133 0 -238.5 -50t-170.5 -135.5t-99 -192.5t-34 -228q0 -183 83 -269.5t269 -86.5q109 0 219 30l57 281h-315l53 262h631z" />
    <glyph glyph-name="gbreve" unicode="&#x11f;" horiz-adv-x="1314" 
d="M471 1647l238 12q-9 -43 -9 -76q0 -127 119 -127q147 0 197 203l250 -12q-48 -197 -172.5 -297.5t-298.5 -100.5q-156 0 -244 78.5t-88 226.5q0 49 8 93zM1073 12q-52 -256 -215 -371.5t-428 -115.5q-295 0 -465 123l78 260q63 -55 168 -90t221 -35q131 0 206.5 55.5
t102.5 192.5l23 114q-131 -155 -330 -155q-178 0 -274.5 114t-96.5 320q0 139 40.5 268.5t114 231t185 162.5t244.5 61q205 0 305 -152l35 127h309zM408 473q0 -209 170 -209q78 0 140.5 44t102.5 126l68 334q-25 54 -72.5 82.5t-109.5 28.5q-87 0 -156.5 -58t-106 -150.5
t-36.5 -197.5z" />
    <glyph glyph-name="Gdotaccent" unicode="&#x120;" horiz-adv-x="1560" 
d="M858 1671l57 287h365l-57 -287h-365zM1343 121q-95 -63 -242 -106.5t-325 -43.5q-322 0 -488.5 159.5t-166.5 479.5q0 146 33.5 280.5t107.5 255t180.5 209.5t262.5 141t344 52q316 0 503 -135l-122 -323q-65 67 -167 109t-229 42q-133 0 -238.5 -50t-170.5 -135.5
t-99 -192.5t-34 -228q0 -183 83 -269.5t269 -86.5q109 0 219 30l57 281h-315l53 262h631z" />
    <glyph glyph-name="gdotaccent" unicode="&#x121;" horiz-adv-x="1314" 
d="M618 1286l58 285h358l-57 -285h-359zM1073 12q-52 -256 -215 -371.5t-428 -115.5q-295 0 -465 123l78 260q63 -55 168 -90t221 -35q131 0 206.5 55.5t102.5 192.5l23 114q-131 -155 -330 -155q-178 0 -274.5 114t-96.5 320q0 139 40.5 268.5t114 231t185 162.5t244.5 61
q205 0 305 -152l35 127h309zM408 473q0 -209 170 -209q78 0 140.5 44t102.5 126l68 334q-25 54 -72.5 82.5t-109.5 28.5q-87 0 -156.5 -58t-106 -150.5t-36.5 -197.5z" />
    <glyph glyph-name="uni0122" unicode="&#x122;" horiz-adv-x="1560" 
d="M1343 121q-95 -63 -242 -106.5t-325 -43.5q-322 0 -488.5 159.5t-166.5 479.5q0 146 33.5 280.5t107.5 255t180.5 209.5t262.5 141t344 52q316 0 503 -135l-122 -323q-65 67 -167 109t-229 42q-133 0 -238.5 -50t-170.5 -135.5t-99 -192.5t-34 -228q0 -183 83 -269.5
t269 -86.5q109 0 219 30l57 281h-315l53 262h631zM637 -528l-236 53q162 172 187 377h291q-39 -269 -242 -430z" />
    <glyph glyph-name="uni0123" unicode="&#x123;" horiz-adv-x="1314" 
d="M856 1692l234 -56q-140 -170 -162 -374h-291q36 267 219 430zM1073 12q-52 -256 -215 -371.5t-428 -115.5q-295 0 -465 123l78 260q63 -55 168 -90t221 -35q131 0 206.5 55.5t102.5 192.5l23 114q-131 -155 -330 -155q-178 0 -274.5 114t-96.5 320q0 139 40.5 268.5
t114 231t185 162.5t244.5 61q205 0 305 -152l35 127h309zM408 473q0 -209 170 -209q78 0 140.5 44t102.5 126l68 334q-25 54 -72.5 82.5t-109.5 28.5q-87 0 -156.5 -58t-106 -150.5t-36.5 -197.5z" />
    <glyph glyph-name="Hcircumflex" unicode="&#x124;" horiz-adv-x="1576" 
d="M1444 1663l-287 -33l-115 211l-206 -211l-306 33l400 346h274zM952 0l127 637h-551l-127 -637h-354l303 1520h355l-117 -588h551l116 588h355l-303 -1520h-355z" />
    <glyph glyph-name="hcircumflex" unicode="&#x125;" horiz-adv-x="1277" 
d="M1288 1663l-287 -33l-114 211l-207 -211l-305 33l399 346h275zM492 684l-138 -684h-336l320 1593h336l-131 -635q154 189 364 189q132 0 211.5 -76t79.5 -229q0 -60 -16 -142l-140 -700h-335l135 676q8 36 8 72q0 112 -109 112q-71 0 -139 -45t-110 -131z" />
    <glyph glyph-name="Hbar" unicode="&#x126;" horiz-adv-x="1607" 
d="M967 0l127 637h-551l-127 -637h-355l224 1122h-150l41 201h150l39 197h354l-39 -197h551l39 197h354l-39 -197h150l-41 -201h-150l-223 -1122h-354zM602 932h551l37 190h-551z" />
    <glyph glyph-name="hbar" unicode="&#x127;" horiz-adv-x="1286" 
d="M498 684l-138 -684h-335l251 1255h-135l39 195h135l33 168h336l-35 -168h322l-39 -195h-322l-59 -294q149 186 362 186q133 0 212 -76t79 -229q0 -60 -16 -142l-139 -700h-336l135 676q8 36 8 72q0 112 -108 112q-71 0 -139.5 -45t-110.5 -131z" />
    <glyph glyph-name="Itilde" unicode="&#x128;" horiz-adv-x="671" 
d="M47 0l303 1520h355l-304 -1520h-354zM307 1624l-227 16q62 353 319 353q98 0 201 -68q91 -59 135 -59q42 0 68 32.5t39 106.5l227 -16q-62 -353 -319 -353q-97 0 -201 68q-89 59 -135 59q-42 0 -68 -32.5t-39 -106.5z" />
    <glyph glyph-name="itilde" unicode="&#x129;" horiz-adv-x="626" 
d="M268 1257l-221 17q33 177 108 264.5t181 87.5q85 0 174 -65q77 -58 115 -58q62 0 86 135l219 -16q-31 -178 -106 -265t-181 -87q-90 0 -176 63q-77 58 -113 58q-32 0 -52.5 -31t-33.5 -103zM35 0l223 1122h336l-223 -1122h-336z" />
    <glyph glyph-name="Imacron" unicode="&#x12a;" horiz-adv-x="671" 
d="M160 1704l45 221h788l-45 -221h-788zM47 0l303 1520h355l-304 -1520h-354z" />
    <glyph glyph-name="imacron" unicode="&#x12b;" horiz-adv-x="626" 
d="M160 1319l43 219h612l-43 -219h-612zM35 0l223 1122h336l-223 -1122h-336z" />
    <glyph glyph-name="Ibreve" unicode="&#x12c;" horiz-adv-x="671" 
d="M213 1987l238 12q-7 -35 -7 -55q0 -115 123 -115q150 0 191 170l250 -12q-44 -182 -166.5 -271.5t-296.5 -89.5q-160 0 -249 74t-89 211q0 36 6 76zM47 0l303 1520h355l-304 -1520h-354z" />
    <glyph glyph-name="ibreve" unicode="&#x12d;" horiz-adv-x="626" 
d="M160 1647l223 12q-8 -44 -8 -82q0 -123 106 -123q138 0 183 205l237 -12q-45 -198 -160.5 -298t-283.5 -100q-147 0 -227 74.5t-80 216.5q0 45 10 107zM35 0l223 1122h336l-223 -1122h-336z" />
    <glyph glyph-name="Iogonek" unicode="&#x12e;" horiz-adv-x="671" 
d="M-109 -303q0 92 52.5 165t162.5 138h-59l303 1520h355l-304 -1520h-28q-118 -42 -182 -98.5t-64 -122.5q0 -74 92 -74q69 0 152 49l10 -209q-96 -57 -229 -57q-126 0 -193.5 54t-67.5 155z" />
    <glyph glyph-name="iogonek" unicode="&#x12f;" horiz-adv-x="618" 
d="M276 1286l58 285h358l-57 -285h-359zM-135 -303q0 93 52.5 165.5t164.5 137.5h-51l223 1122h336l-223 -1122h-21q-117 -42 -181.5 -98.5t-64.5 -122.5q0 -74 93 -74q68 0 151 49l10 -209q-96 -57 -229 -57q-125 0 -192.5 54t-67.5 155z" />
    <glyph glyph-name="Idotaccent" unicode="&#x130;" horiz-adv-x="671" 
d="M371 1671l57 287h365l-58 -287h-364zM47 0l303 1520h355l-304 -1520h-354z" />
    <glyph glyph-name="dotlessi" unicode="&#x131;" horiz-adv-x="604" 
d="M23 0l223 1122h336l-224 -1122h-335z" />
    <glyph glyph-name="IJ" unicode="&#x132;" horiz-adv-x="1605" 
d="M47 0l303 1520h355l-304 -1520h-354zM565 33l80 305q101 -59 199 -59q102 0 166 66.5t98 232.5l188 942h355l-201 -1004q-30 -152 -83.5 -258.5t-130 -169t-168 -90t-208.5 -27.5q-156 0 -295 62z" />
    <glyph glyph-name="ij" unicode="&#x133;" horiz-adv-x="1224" 
d="M268 1286l58 285h358l-57 -285h-359zM895 1286l57 285h359l-58 -285h-358zM23 0l223 1122h336l-224 -1122h-335zM260 -426l78 270q60 -37 127 -37q70 0 116.5 46t69.5 159l223 1110h336l-217 -1079q-29 -144 -79 -245.5t-117 -159.5t-143.5 -83.5t-170.5 -25.5
q-131 0 -223 45z" />
    <glyph glyph-name="Jcircumflex" unicode="&#x134;" horiz-adv-x="933" 
d="M1266 1663l-287 -33l-115 211l-207 -211l-305 33l400 346h274zM-106 33l79 305q101 -59 199 -59q102 0 166 66.5t98 232.5l189 942h354l-201 -1004q-30 -152 -83.5 -258.5t-130 -169t-168 -90t-208.5 -27.5q-155 0 -294 62z" />
    <glyph glyph-name="jcircumflex" unicode="&#x135;" horiz-adv-x="620" 
d="M877 1280l-269 -29l-96 279l-215 -279l-281 33l383 416h275zM-344 -426l78 270q60 -37 127 -37q70 0 116.5 46t69.5 159l223 1110h336l-217 -1079q-29 -144 -79 -245.5t-117 -159.5t-143.5 -83.5t-170.5 -25.5q-131 0 -223 45z" />
    <glyph glyph-name="uni0136" unicode="&#x136;" horiz-adv-x="1507" 
d="M993 0l-327 602l-174 -156l-91 -446h-354l303 1520h355l-134 -662l660 662h467v-4l-783 -693l490 -819v-4h-412zM571 -528l-235 53q161 171 186 377h291q-39 -269 -242 -430z" />
    <glyph glyph-name="uni0137" unicode="&#x137;" horiz-adv-x="1253" 
d="M782 0l-229 430l-135 -117l-64 -313h-336l320 1593h336l-187 -934l445 463h420v-4l-564 -485l377 -629v-4h-383zM440 -528l-235 53q161 171 186 377h291q-39 -269 -242 -430z" />
    <glyph glyph-name="kgreenlandic" unicode="&#x138;" horiz-adv-x="1253" 
d="M782 0l-229 430l-137 -117l-62 -313h-336l224 1122h336l-93 -463l447 463h420v-4l-564 -485l377 -629v-4h-383z" />
    <glyph glyph-name="Lacute" unicode="&#x139;" horiz-adv-x="1179" 
d="M545 1622l-178 94l397 330l283 -154zM1100 295l-60 -295h-993l303 1520h355l-246 -1225h641z" />
    <glyph glyph-name="lacute" unicode="&#x13a;" horiz-adv-x="604" 
d="M451 1622l-179 94l398 330l282 -154zM23 0l319 1593h336l-320 -1593h-335z" />
    <glyph glyph-name="uni013B" unicode="&#x13b;" horiz-adv-x="1179" 
d="M1100 295l-60 -295h-993l303 1520h355l-246 -1225h641zM440 -528l-235 53q161 171 186 377h291q-39 -269 -242 -430z" />
    <glyph glyph-name="uni013C" unicode="&#x13c;" horiz-adv-x="604" 
d="M23 0l319 1593h336l-320 -1593h-335zM76 -528l-236 53q162 172 187 377h290q-39 -270 -241 -430z" />
    <glyph glyph-name="Lcaron" unicode="&#x13d;" horiz-adv-x="1179" 
d="M1001 1118h-215l144 475h305zM1100 295l-60 -295h-993l303 1520h355l-246 -1225h641z" />
    <glyph glyph-name="lcaron" unicode="&#x13e;" horiz-adv-x="677" 
d="M934 1217h-215l143 475h305zM23 0l319 1593h336l-320 -1593h-335z" />
    <glyph glyph-name="Ldot" unicode="&#x13f;" horiz-adv-x="1179" 
d="M1100 295l-60 -295h-993l303 1520h355l-246 -1225h641zM778 686l72 352h344l-72 -352h-344z" />
    <glyph glyph-name="ldot" unicode="&#x140;" horiz-adv-x="972" 
d="M23 0l319 1593h336l-320 -1593h-335zM627 616l71 353h344l-71 -353h-344z" />
    <glyph glyph-name="Lslash" unicode="&#x141;" horiz-adv-x="1204" 
d="M1122 295l-59 -295h-993l106 535l-186 -84l49 251l188 86l146 732h354l-117 -588l420 190l-49 -252l-422 -192l-78 -383h641z" />
    <glyph glyph-name="lslash" unicode="&#x142;" horiz-adv-x="731" 
d="M784 879l-209 -117l-153 -762h-336l121 600l-205 -113l51 250l203 113l150 743h335l-116 -581l209 116z" />
    <glyph glyph-name="Nacute" unicode="&#x143;" horiz-adv-x="1601" 
d="M948 1622l-178 94l397 330l283 -154zM989 0l-414 973l-194 -973h-334l303 1520h340l414 -973l194 973h334l-303 -1520h-340z" />
    <glyph glyph-name="nacute" unicode="&#x144;" horiz-adv-x="1277" 
d="M803 1239l-203 51l311 428l301 -82zM492 684l-138 -684h-336l224 1122h309l-29 -182q75 97 173 152t212 55q132 0 211.5 -76t79.5 -229q0 -60 -16 -142l-140 -700h-335l135 676q8 36 8 72q0 112 -109 112q-71 0 -139 -45t-110 -131z" />
    <glyph glyph-name="uni0145" unicode="&#x145;" horiz-adv-x="1601" 
d="M989 0l-414 973l-194 -973h-334l303 1520h340l414 -973l194 973h334l-303 -1520h-340zM586 -528l-236 53q162 172 187 377h290q-39 -270 -241 -430z" />
    <glyph glyph-name="uni0146" unicode="&#x146;" horiz-adv-x="1277" 
d="M492 684l-138 -684h-336l224 1122h309l-29 -182q75 97 173 152t212 55q132 0 211.5 -76t79.5 -229q0 -60 -16 -142l-140 -700h-335l135 676q8 36 8 72q0 112 -109 112q-71 0 -139 -45t-110 -131zM424 -528l-236 53q162 172 187 377h291q-39 -269 -242 -430z" />
    <glyph glyph-name="Ncaron" unicode="&#x147;" horiz-adv-x="1601" 
d="M1540 1989l-399 -344h-275l-239 344l286 32l115 -209l207 211zM989 0l-414 973l-194 -973h-334l303 1520h340l414 -973l194 973h334l-303 -1520h-340z" />
    <glyph glyph-name="ncaron" unicode="&#x148;" horiz-adv-x="1277" 
d="M1282 1663l-381 -406h-274l-199 408l266 31l97 -269l210 271zM492 684l-138 -684h-336l224 1122h309l-29 -182q75 97 173 152t212 55q132 0 211.5 -76t79.5 -229q0 -60 -16 -142l-140 -700h-335l135 676q8 36 8 72q0 112 -109 112q-71 0 -139 -45t-110 -131z" />
    <glyph glyph-name="Eng" unicode="&#x14a;" horiz-adv-x="1601" 
d="M1337 37q-55 -273 -191.5 -390.5t-359.5 -117.5q-144 0 -270 59l70 275q92 -56 180 -56q86 0 141.5 45.5t81.5 157.5l-411 969l-197 -979h-334l303 1520h340l414 -977l194 977h334z" />
    <glyph glyph-name="eng" unicode="&#x14b;" horiz-adv-x="1277" 
d="M1047 25q-28 -139 -76 -237.5t-114 -154t-140 -80t-166 -24.5q-126 0 -213 41l68 266q60 -33 120 -33q68 0 112.5 42.5t66.5 150.5l137 680q8 36 8 72q0 112 -109 112q-71 0 -139 -45t-110 -131l-138 -684h-336l224 1122h309l-29 -182q75 97 173 152t212 55
q132 0 211.5 -76t79.5 -229q0 -60 -16 -142z" />
    <glyph glyph-name="Omacron" unicode="&#x14c;" horiz-adv-x="1597" 
d="M623 1704l45 221h788l-45 -221h-788zM713 -29q-279 0 -437.5 162t-158.5 451q0 147 34.5 287t105 263t169.5 215t237.5 145.5t299.5 53.5q279 0 437.5 -161.5t158.5 -450.5q0 -147 -34.5 -287t-105 -263t-169.5 -215.5t-237.5 -146t-299.5 -53.5zM750 279
q103 0 188.5 57.5t138 150.5t81 204t28.5 224q0 326 -260 326q-83 0 -154.5 -38t-122.5 -101.5t-88 -146t-54.5 -172t-17.5 -179.5q0 -325 261 -325z" />
    <glyph glyph-name="omacron" unicode="&#x14d;" horiz-adv-x="1255" 
d="M414 1319l43 219h714l-43 -219h-714zM549 -25q-100 0 -185 26.5t-153.5 80.5t-108 147t-39.5 215q0 105 25.5 205.5t79 190.5t128.5 158.5t181 108.5t230 40q79 0 149 -16t132 -52t107 -89.5t71 -133t26 -178.5q0 -105 -25.5 -205.5t-78.5 -190.5t-128 -158.5
t-181 -108.5t-230 -40zM573 244q65 0 119.5 38t88.5 100t52.5 135.5t18.5 148.5q0 106 -44.5 159.5t-127.5 53.5q-85 0 -150.5 -66t-96 -160t-30.5 -196q0 -106 43.5 -159.5t126.5 -53.5z" />
    <glyph glyph-name="Obreve" unicode="&#x14e;" horiz-adv-x="1597" 
d="M676 1987l237 12q-6 -30 -6 -55q0 -115 123 -115q150 0 191 170l249 -12q-44 -182 -166 -271.5t-296 -89.5q-160 0 -249 74t-89 211q0 36 6 76zM713 -29q-279 0 -437.5 162t-158.5 451q0 147 34.5 287t105 263t169.5 215t237.5 145.5t299.5 53.5q279 0 437.5 -161.5
t158.5 -450.5q0 -147 -34.5 -287t-105 -263t-169.5 -215.5t-237.5 -146t-299.5 -53.5zM750 279q103 0 188.5 57.5t138 150.5t81 204t28.5 224q0 326 -260 326q-83 0 -154.5 -38t-122.5 -101.5t-88 -146t-54.5 -172t-17.5 -179.5q0 -325 261 -325z" />
    <glyph glyph-name="obreve" unicode="&#x14f;" horiz-adv-x="1255" 
d="M438 1647l238 12q-8 -39 -8 -76q0 -127 118 -127q147 0 197 203l250 -12q-48 -197 -172.5 -297.5t-298.5 -100.5q-156 0 -244 78.5t-88 226.5q0 49 8 93zM549 -25q-100 0 -185 26.5t-153.5 80.5t-108 147t-39.5 215q0 105 25.5 205.5t79 190.5t128.5 158.5t181 108.5
t230 40q79 0 149 -16t132 -52t107 -89.5t71 -133t26 -178.5q0 -105 -25.5 -205.5t-78.5 -190.5t-128 -158.5t-181 -108.5t-230 -40zM573 244q65 0 119.5 38t88.5 100t52.5 135.5t18.5 148.5q0 106 -44.5 159.5t-127.5 53.5q-85 0 -150.5 -66t-96 -160t-30.5 -196
q0 -106 43.5 -159.5t126.5 -53.5z" />
    <glyph glyph-name="Ohungarumlaut" unicode="&#x150;" horiz-adv-x="1597" 
d="M836 1622l-172 80l307 344l260 -123zM1282 1622l-174 80l307 344l260 -123zM713 -29q-279 0 -437.5 162t-158.5 451q0 147 34.5 287t105 263t169.5 215t237.5 145.5t299.5 53.5q279 0 437.5 -161.5t158.5 -450.5q0 -147 -34.5 -287t-105 -263t-169.5 -215.5t-237.5 -146
t-299.5 -53.5zM750 279q103 0 188.5 57.5t138 150.5t81 204t28.5 224q0 326 -260 326q-83 0 -154.5 -38t-122.5 -101.5t-88 -146t-54.5 -172t-17.5 -179.5q0 -325 261 -325z" />
    <glyph glyph-name="ohungarumlaut" unicode="&#x151;" horiz-adv-x="1255" 
d="M612 1245l-198 53l311 420l272 -80zM1034 1245l-196 53l311 420l270 -80zM549 -25q-100 0 -185 26.5t-153.5 80.5t-108 147t-39.5 215q0 105 25.5 205.5t79 190.5t128.5 158.5t181 108.5t230 40q79 0 149 -16t132 -52t107 -89.5t71 -133t26 -178.5q0 -105 -25.5 -205.5
t-78.5 -190.5t-128 -158.5t-181 -108.5t-230 -40zM573 244q65 0 119.5 38t88.5 100t52.5 135.5t18.5 148.5q0 106 -44.5 159.5t-127.5 53.5q-85 0 -150.5 -66t-96 -160t-30.5 -196q0 -106 43.5 -159.5t126.5 -53.5z" />
    <glyph glyph-name="OE" unicode="&#x152;" horiz-adv-x="2207" 
d="M1995 0h-1032q-104 -29 -226 -29q-294 0 -456 170.5t-162 470.5q0 136 32 268t102 253.5t169 213t244.5 146.5t318.5 55q127 0 225 -28h1071l-57 -291h-686l-61 -305h604l-58 -281h-604l-69 -348h704zM492 637q0 -365 335 -365q96 0 174 33l181 901q-71 41 -189 41
q-103 0 -188 -36t-142 -95.5t-96.5 -139t-57 -165t-17.5 -174.5z" />
    <glyph glyph-name="oe" unicode="&#x153;" horiz-adv-x="1970" 
d="M1810 88q-196 -113 -454 -113q-287 0 -412 156q-159 -156 -399 -156q-97 0 -181 26.5t-153 80.5t-108.5 147t-39.5 215q0 105 25.5 205.5t78.5 190.5t127.5 158.5t179.5 108.5t228 40q251 0 367 -160q167 160 422 160q98 0 174.5 -24t123.5 -63t77 -93.5t41.5 -111
t11.5 -120.5q0 -145 -51 -256h-707q0 -66 11.5 -109.5t40.5 -75.5t81 -46.5t131 -14.5q203 0 369 115zM1460 913q-100 0 -167 -67t-101 -174h401q17 33 17 86q0 155 -150 155zM573 244q85 0 150.5 66t96 160t30.5 196q0 106 -43.5 159.5t-126.5 53.5q-65 0 -119.5 -38
t-88 -100t-51.5 -135.5t-18 -148.5q0 -106 43.5 -159.5t126.5 -53.5z" />
    <glyph glyph-name="Racute" unicode="&#x154;" horiz-adv-x="1466" 
d="M834 1622l-179 94l398 330l282 -154zM956 0l-256 500h-198l-101 -500h-354l303 1520h563q257 0 385.5 -112.5t128.5 -317.5q0 -189 -104.5 -334.5t-294.5 -210.5l326 -545h-398zM840 1229h-193l-90 -449h201q152 0 229.5 73.5t77.5 190.5q0 96 -56.5 140.5t-168.5 44.5z
" />
    <glyph glyph-name="racute" unicode="&#x155;" horiz-adv-x="905" 
d="M588 1239l-203 51l311 428l301 -82zM479 627l-125 -627h-336l224 1122h307l-33 -213q67 128 152.5 182t191.5 54q86 0 131 -25l-90 -313q-53 29 -129 29q-94 0 -173.5 -53t-119.5 -156z" />
    <glyph glyph-name="uni0156" unicode="&#x156;" horiz-adv-x="1466" 
d="M956 0l-256 500h-198l-101 -500h-354l303 1520h563q257 0 385.5 -112.5t128.5 -317.5q0 -189 -104.5 -334.5t-294.5 -210.5l326 -545h-398zM840 1229h-193l-90 -449h201q152 0 229.5 73.5t77.5 190.5q0 96 -56.5 140.5t-168.5 44.5zM553 -528l-236 53q162 172 187 377
h291q-39 -269 -242 -430z" />
    <glyph glyph-name="uni0157" unicode="&#x157;" horiz-adv-x="905" 
d="M479 627l-125 -627h-336l224 1122h307l-33 -213q67 128 152.5 182t191.5 54q86 0 131 -25l-90 -313q-53 29 -129 29q-94 0 -173.5 -53t-119.5 -156zM70 -528l-236 53q161 171 186 377h291q-39 -270 -241 -430z" />
    <glyph glyph-name="Rcaron" unicode="&#x158;" horiz-adv-x="1466" 
d="M1425 1989l-399 -344h-274l-240 344l287 32l114 -209l207 211zM956 0l-256 500h-198l-101 -500h-354l303 1520h563q257 0 385.5 -112.5t128.5 -317.5q0 -189 -104.5 -334.5t-294.5 -210.5l326 -545h-398zM840 1229h-193l-90 -449h201q152 0 229.5 73.5t77.5 190.5
q0 96 -56.5 140.5t-168.5 44.5z" />
    <glyph glyph-name="rcaron" unicode="&#x159;" horiz-adv-x="905" 
d="M1104 1663l-381 -406h-274l-199 408l266 31l96 -269l211 271zM479 627l-125 -627h-336l224 1122h307l-33 -213q67 128 152.5 182t191.5 54q86 0 131 -25l-90 -313q-53 29 -129 29q-94 0 -173.5 -53t-119.5 -156z" />
    <glyph glyph-name="Sacute" unicode="&#x15a;" horiz-adv-x="1280" 
d="M805 1622l-178 94l397 330l283 -154zM-10 119l102 317q100 -76 220.5 -121t242.5 -45q128 0 191 51.5t63 127.5q0 22 -7 41t-16 33t-30.5 28t-35.5 22t-47 20t-50 17.5t-58 18.5q-42 13 -73.5 24.5t-70 30.5t-66 39t-55.5 50.5t-45.5 65.5t-28.5 82t-11 103
q0 111 41 205.5t119 166t199.5 112t273.5 40.5q265 0 457 -116l-99 -318q-177 135 -383 135q-124 0 -183.5 -49t-59.5 -123q0 -19 3.5 -34.5t14.5 -29.5t19.5 -24t29.5 -20.5t33.5 -17t42.5 -16.5t45 -14.5t53 -15.5q60 -17 103 -34t94.5 -49.5t83.5 -72.5t54 -103t22 -142
q0 -115 -42.5 -211.5t-123 -168.5t-207 -112.5t-285.5 -40.5q-297 0 -530 148z" />
    <glyph glyph-name="sacute" unicode="&#x15b;" horiz-adv-x="1038" 
d="M690 1239l-203 51l312 428l301 -82zM-14 88l86 264q75 -58 167 -91.5t185 -33.5q88 0 130 30t42 73q0 24 -13 42t-42 33t-54 23.5t-71 22.5t-78.5 26t-73.5 36.5t-66 54.5t-43 78t-18 108q0 182 135.5 287.5t378.5 105.5q212 0 367 -92l-88 -264q-137 106 -291 106
q-82 0 -125 -30t-43 -74q0 -16 5 -29t19.5 -24.5t25.5 -18.5t37.5 -16.5t39.5 -14t47 -14.5q47 -14 80 -27t75 -38.5t68 -56t44 -79t18 -108.5q0 -181 -137 -286.5t-387 -105.5q-236 0 -420 113z" />
    <glyph glyph-name="Scircumflex" unicode="&#x15c;" horiz-adv-x="1280" 
d="M1313 1663l-287 -33l-115 211l-206 -211l-306 33l400 346h274zM-10 119l102 317q100 -76 220.5 -121t242.5 -45q128 0 191 51.5t63 127.5q0 22 -7 41t-16 33t-30.5 28t-35.5 22t-47 20t-50 17.5t-58 18.5q-42 13 -73.5 24.5t-70 30.5t-66 39t-55.5 50.5t-45.5 65.5
t-28.5 82t-11 103q0 111 41 205.5t119 166t199.5 112t273.5 40.5q265 0 457 -116l-99 -318q-177 135 -383 135q-124 0 -183.5 -49t-59.5 -123q0 -19 3.5 -34.5t14.5 -29.5t19.5 -24t29.5 -20.5t33.5 -17t42.5 -16.5t45 -14.5t53 -15.5q60 -17 103 -34t94.5 -49.5t83.5 -72.5
t54 -103t22 -142q0 -115 -42.5 -211.5t-123 -168.5t-207 -112.5t-285.5 -40.5q-297 0 -530 148z" />
    <glyph glyph-name="scircumflex" unicode="&#x15d;" horiz-adv-x="1038" 
d="M1087 1280l-268 -29l-96 279l-215 -279l-281 33l383 416h275zM-14 88l86 264q75 -58 167 -91.5t185 -33.5q88 0 130 30t42 73q0 24 -13 42t-42 33t-54 23.5t-71 22.5t-78.5 26t-73.5 36.5t-66 54.5t-43 78t-18 108q0 182 135.5 287.5t378.5 105.5q212 0 367 -92l-88 -264
q-137 106 -291 106q-82 0 -125 -30t-43 -74q0 -16 5 -29t19.5 -24.5t25.5 -18.5t37.5 -16.5t39.5 -14t47 -14.5q47 -14 80 -27t75 -38.5t68 -56t44 -79t18 -108.5q0 -181 -137 -286.5t-387 -105.5q-236 0 -420 113z" />
    <glyph glyph-name="Scedilla" unicode="&#x15e;" horiz-adv-x="1280" 
d="M780 -252q0 -121 -93.5 -190.5t-260.5 -69.5q-142 0 -244 45l74 201q89 -47 190 -47q53 0 82 17t29 48q0 17 -10.5 29t-52.5 27.5t-121 31.5l84 133q-257 13 -467 146l102 317q100 -76 220.5 -121t242.5 -45q128 0 191 51.5t63 127.5q0 22 -7 41t-16 33t-30.5 28
t-35.5 22t-47 20t-50 17.5t-58 18.5q-42 13 -73.5 24.5t-70 30.5t-66 39t-55.5 50.5t-45.5 65.5t-28.5 82t-11 103q0 111 41 205.5t119 166t199.5 112t273.5 40.5q265 0 457 -116l-99 -318q-177 135 -383 135q-124 0 -183.5 -49t-59.5 -123q0 -19 3.5 -34.5t14.5 -29.5
t19.5 -24t29.5 -20.5t33.5 -17t42.5 -16.5t45 -14.5t53 -15.5q60 -17 103 -34t94.5 -49.5t83.5 -72.5t54 -103t22 -142q0 -221 -152 -367t-432 -164l-21 -28q120 -33 163.5 -79t43.5 -118z" />
    <glyph glyph-name="scedilla" unicode="&#x15f;" horiz-adv-x="1038" 
d="M649 -252q0 -121 -93.5 -190.5t-260.5 -69.5q-141 0 -244 45l74 201q89 -47 190 -47q53 0 82 17t29 48q0 17 -10.5 29t-52.5 27.5t-121 31.5l88 137q-187 16 -344 111l86 264q75 -58 167 -91.5t185 -33.5q88 0 130 30t42 73q0 24 -13 42t-42 33t-54 23.5t-71 22.5
t-78.5 26t-73.5 36.5t-66 54.5t-43 78t-18 108q0 182 135.5 287.5t378.5 105.5q212 0 367 -92l-88 -264q-137 106 -291 106q-82 0 -125 -30t-43 -74q0 -16 5 -29t19.5 -24.5t25.5 -18.5t37.5 -16.5t39.5 -14t47 -14.5q47 -14 80 -27t75 -38.5t68 -56t44 -79t18 -108.5
q0 -170 -121 -274t-344 -116l-23 -32q120 -33 163.5 -79t43.5 -118z" />
    <glyph glyph-name="Scaron" unicode="&#x160;" horiz-adv-x="1280" 
d="M1397 1989l-400 -344h-274l-240 344l287 32l115 -209l207 211zM-10 119l102 317q100 -76 220.5 -121t242.5 -45q128 0 191 51.5t63 127.5q0 22 -7 41t-16 33t-30.5 28t-35.5 22t-47 20t-50 17.5t-58 18.5q-42 13 -73.5 24.5t-70 30.5t-66 39t-55.5 50.5t-45.5 65.5
t-28.5 82t-11 103q0 111 41 205.5t119 166t199.5 112t273.5 40.5q265 0 457 -116l-99 -318q-177 135 -383 135q-124 0 -183.5 -49t-59.5 -123q0 -19 3.5 -34.5t14.5 -29.5t19.5 -24t29.5 -20.5t33.5 -17t42.5 -16.5t45 -14.5t53 -15.5q60 -17 103 -34t94.5 -49.5t83.5 -72.5
t54 -103t22 -142q0 -115 -42.5 -211.5t-123 -168.5t-207 -112.5t-285.5 -40.5q-297 0 -530 148z" />
    <glyph glyph-name="scaron" unicode="&#x161;" horiz-adv-x="1038" 
d="M1174 1663l-381 -406h-275l-199 408l267 31l96 -269l211 271zM-14 88l86 264q75 -58 167 -91.5t185 -33.5q88 0 130 30t42 73q0 24 -13 42t-42 33t-54 23.5t-71 22.5t-78.5 26t-73.5 36.5t-66 54.5t-43 78t-18 108q0 182 135.5 287.5t378.5 105.5q212 0 367 -92l-88 -264
q-137 106 -291 106q-82 0 -125 -30t-43 -74q0 -16 5 -29t19.5 -24.5t25.5 -18.5t37.5 -16.5t39.5 -14t47 -14.5q47 -14 80 -27t75 -38.5t68 -56t44 -79t18 -108.5q0 -181 -137 -286.5t-387 -105.5q-236 0 -420 113z" />
    <glyph glyph-name="uni0162" unicode="&#x162;" horiz-adv-x="1277" 
d="M764 -252q0 -121 -93.5 -190.5t-260.5 -69.5q-142 0 -244 45l74 201q89 -47 190 -47q53 0 82 17t29 48q0 17 -10.5 29t-53 27.5t-121.5 31.5l101 160h-105l246 1229h-440l59 291h1227l-58 -291h-434l-245 -1229h-111l-39 -55q120 -33 163.5 -79t43.5 -118z" />
    <glyph glyph-name="uni0163" unicode="&#x163;" horiz-adv-x="894" 
d="M616 -252q0 -121 -93.5 -190.5t-260.5 -69.5q-141 0 -244 45l74 201q89 -47 191 -47q52 0 81 17t29 48q0 17 -10.5 29t-52.5 27.5t-121 31.5l100 160q-155 60 -155 260q0 57 16 139l98 488h-174l47 235h174l58 291l346 72l-72 -363h299l-47 -235h-299l-98 -492
q-6 -27 -6 -47q0 -92 106 -92q93 0 170 47l-16 -266q-138 -62 -324 -62l-22 -30q120 -33 163 -79t43 -118z" />
    <glyph glyph-name="Tcaron" unicode="&#x164;" horiz-adv-x="1277" 
d="M1378 1989l-399 -344h-274l-240 344l287 32l114 -209l207 211zM1386 1229h-434l-245 -1229h-355l246 1229h-440l59 291h1227z" />
    <glyph glyph-name="tcaron" unicode="&#x165;" horiz-adv-x="894" 
d="M999 1237h-215l144 475h305zM756 37q-138 -62 -291 -62q-311 0 -311 285q0 63 16 139l98 488h-174l47 235h174l58 291l346 72l-72 -363h299l-47 -235h-299l-98 -492q-6 -27 -6 -47q0 -92 106 -92q93 0 170 47z" />
    <glyph glyph-name="Tbar" unicode="&#x166;" horiz-adv-x="1277" 
d="M1130 590h-305l-118 -590h-355l119 590h-309l51 258h309l76 381h-440l59 291h1227l-58 -291h-434l-75 -381h307z" />
    <glyph glyph-name="tbar" unicode="&#x167;" horiz-adv-x="935" 
d="M776 37q-138 -62 -291 -62q-311 0 -311 285q0 63 16 139l21 105h-172l39 201h174l37 182h-174l47 235h174l57 291l346 72l-71 -363h299l-47 -235h-299l-37 -182h299l-41 -201h-297l-23 -109q-6 -27 -6 -47q0 -92 107 -92q93 0 170 47z" />
    <glyph glyph-name="Utilde" unicode="&#x168;" horiz-adv-x="1544" 
d="M1589 1520l-182 -918q-125 -631 -731 -631q-266 0 -403.5 120t-137.5 345q0 64 21 180l180 904h350l-180 -908q-14 -75 -14 -114q0 -217 225 -217q275 0 342 331l180 908h350zM743 1624l-227 16q62 353 320 353q97 0 200 -68q91 -59 135 -59q42 0 68 32.5t39 106.5
l227 -16q-62 -353 -319 -353q-97 0 -201 68q-89 59 -135 59q-42 0 -68 -32.5t-39 -106.5z" />
    <glyph glyph-name="utilde" unicode="&#x169;" horiz-adv-x="1277" 
d="M727 0l29 186q-150 -211 -379 -211q-134 0 -214.5 76.5t-80.5 229.5q0 70 14 141l142 700h335l-135 -676q-10 -45 -10 -71q0 -113 113 -113q83 0 147 54t103 137l135 669h336l-226 -1122h-309zM553 1257l-227 17q63 352 311 352q94 0 192 -67q85 -60 127 -60
q38 0 62 31.5t37 107.5l227 -16q-62 -352 -311 -352q-95 0 -193 67q-32 21 -47.5 30.5t-39 19.5t-40.5 10q-38 0 -61.5 -32.5t-36.5 -107.5z" />
    <glyph glyph-name="Umacron" unicode="&#x16a;" horiz-adv-x="1544" 
d="M596 1704l45 221h789l-46 -221h-788zM1589 1520l-182 -918q-125 -631 -731 -631q-266 0 -403.5 120t-137.5 345q0 64 21 180l180 904h350l-180 -908q-14 -75 -14 -114q0 -217 225 -217q275 0 342 331l180 908h350z" />
    <glyph glyph-name="umacron" unicode="&#x16b;" horiz-adv-x="1277" 
d="M424 1319l43 219h715l-43 -219h-715zM727 0l29 186q-150 -211 -379 -211q-134 0 -214.5 76.5t-80.5 229.5q0 70 14 141l142 700h335l-135 -676q-10 -45 -10 -71q0 -113 113 -113q83 0 147 54t103 137l135 669h336l-226 -1122h-309z" />
    <glyph glyph-name="Ubreve" unicode="&#x16c;" horiz-adv-x="1544" 
d="M649 1987l238 12q-6 -30 -6 -55q0 -115 123 -115q149 0 190 170l250 -12q-44 -182 -166.5 -271.5t-296.5 -89.5q-160 0 -249 74t-89 211q0 36 6 76zM1589 1520l-182 -918q-125 -631 -731 -631q-266 0 -403.5 120t-137.5 345q0 64 21 180l180 904h350l-180 -908
q-14 -75 -14 -114q0 -217 225 -217q275 0 342 331l180 908h350z" />
    <glyph glyph-name="ubreve" unicode="&#x16d;" horiz-adv-x="1277" 
d="M449 1647l237 12q-8 -39 -8 -76q0 -127 119 -127q146 0 196 203l250 -12q-48 -197 -172.5 -297.5t-298.5 -100.5q-156 0 -244 78.5t-88 226.5q0 44 9 93zM727 0l29 186q-150 -211 -379 -211q-134 0 -214.5 76.5t-80.5 229.5q0 70 14 141l142 700h335l-135 -676
q-10 -45 -10 -71q0 -113 113 -113q83 0 147 54t103 137l135 669h336l-226 -1122h-309z" />
    <glyph glyph-name="Uring" unicode="&#x16e;" horiz-adv-x="1544" 
d="M985 1579q-119 0 -191.5 73t-72.5 185q0 134 95.5 225.5t232.5 91.5q120 0 193 -73t73 -187q0 -134 -96 -224.5t-234 -90.5zM1001 1747q57 0 94.5 38.5t37.5 96.5q0 47 -26.5 75t-74.5 28q-57 0 -94 -38t-37 -96q0 -48 26.5 -76t73.5 -28zM1589 1520l-182 -918
q-125 -631 -731 -631q-266 0 -403.5 120t-137.5 345q0 64 21 180l180 904h350l-180 -908q-14 -75 -14 -114q0 -217 225 -217q275 0 342 331l180 908h350z" />
    <glyph glyph-name="uring" unicode="&#x16f;" horiz-adv-x="1277" 
d="M782 1204q-120 0 -193 73t-73 187q0 133 96.5 224.5t233.5 91.5q120 0 192 -73t72 -187q0 -133 -95.5 -224.5t-232.5 -91.5zM799 1372q57 0 94 38t37 97q0 47 -27.5 76t-73.5 29q-57 0 -94 -38t-37 -97q0 -48 26 -76.5t75 -28.5zM727 0l29 186q-150 -211 -379 -211
q-134 0 -214.5 76.5t-80.5 229.5q0 70 14 141l142 700h335l-135 -676q-10 -45 -10 -71q0 -113 113 -113q83 0 147 54t103 137l135 669h336l-226 -1122h-309z" />
    <glyph glyph-name="Uhungarumlaut" unicode="&#x170;" horiz-adv-x="1544" 
d="M809 1622l-172 80l307 344l260 -123zM1255 1622l-174 80l308 344l260 -123zM1589 1520l-182 -918q-125 -631 -731 -631q-266 0 -403.5 120t-137.5 345q0 64 21 180l180 904h350l-180 -908q-14 -75 -14 -114q0 -217 225 -217q275 0 342 331l180 908h350z" />
    <glyph glyph-name="uhungarumlaut" unicode="&#x171;" horiz-adv-x="1277" 
d="M623 1245l-199 53l311 420l273 -80zM1044 1245l-196 53l311 420l271 -80zM727 0l29 186q-150 -211 -379 -211q-134 0 -214.5 76.5t-80.5 229.5q0 70 14 141l142 700h335l-135 -676q-10 -45 -10 -71q0 -113 113 -113q83 0 147 54t103 137l135 669h336l-226 -1122h-309z
" />
    <glyph glyph-name="Uogonek" unicode="&#x172;" horiz-adv-x="1544" 
d="M926 -455q-96 -57 -228 -57q-126 0 -193 54t-67 155q0 161 187 276q-241 10 -365.5 129.5t-124.5 333.5q0 64 21 180l180 904h350l-180 -908q-14 -75 -14 -114q0 -217 225 -217q275 0 342 331l180 908h350l-182 -918q-94 -479 -467 -594q-125 -39 -196.5 -98.5
t-71.5 -130.5q0 -74 92 -74q71 0 154 49z" />
    <glyph glyph-name="uogonek" unicode="&#x173;" horiz-adv-x="1277" 
d="M971 -455q-96 -57 -228 -57q-125 0 -191.5 52.5t-66.5 152.5q0 93 57.5 169.5t186.5 145.5l27 178q-150 -211 -379 -211q-134 0 -214.5 76.5t-80.5 229.5q0 70 14 141l142 700h335l-135 -676q-10 -45 -10 -71q0 -113 113 -113q83 0 147 54t103 137l135 669h336
l-226 -1122h-45q-131 -43 -200.5 -100t-69.5 -123q0 -37 21.5 -54.5t68.5 -17.5q69 0 152 49z" />
    <glyph glyph-name="Wcircumflex" unicode="&#x174;" horiz-adv-x="2203" 
d="M1755 1663l-287 -33l-114 211l-207 -211l-305 33l399 346h275zM1239 0l-43 1079l-461 -1079h-387l-129 1520h373l37 -1102l467 1102h362l43 -1102l463 1102h403l-741 -1520h-387z" />
    <glyph glyph-name="wcircumflex" unicode="&#x175;" horiz-adv-x="1828" 
d="M1464 1280l-268 -29l-96 279l-215 -279l-281 33l383 416h275zM981 0l-33 768l-336 -768h-358l-113 1122h351l22 -786l326 786h338l34 -782l312 782h377l-562 -1122h-358z" />
    <glyph glyph-name="Ycircumflex" unicode="&#x176;" horiz-adv-x="1368" 
d="M1339 1663l-286 -33l-115 211l-207 -211l-305 33l399 346h275zM1571 1520l-713 -975l-108 -545h-355l113 559l-328 961h383l180 -656l408 656h420z" />
    <glyph glyph-name="ycircumflex" unicode="&#x177;" horiz-adv-x="1222" 
d="M1167 1280l-268 -29l-96 279l-215 -279l-281 33l383 416h275zM692 10q-81 -146 -152.5 -240.5t-145 -147.5t-144 -73t-162.5 -20q-137 0 -229 47l75 270q84 -43 166 -43q65 0 118.5 38t111.5 134l-203 1147h365l71 -821l371 821h375z" />
    <glyph glyph-name="Ydieresis" unicode="&#x178;" horiz-adv-x="1368" 
d="M999 1671l58 287h299l-58 -287h-299zM494 1671l57 287h299l-57 -287h-299zM1571 1520l-713 -975l-108 -545h-355l113 559l-328 961h383l180 -656l408 656h420z" />
    <glyph glyph-name="Zacute" unicode="&#x179;" horiz-adv-x="1339" 
d="M813 1622l-178 94l397 330l283 -154zM1206 295l-59 -295h-1180l53 266l910 963h-686l59 291h1129l-54 -263l-911 -962h739z" />
    <glyph glyph-name="zacute" unicode="&#x17a;" horiz-adv-x="1079" 
d="M705 1239l-203 51l311 428l301 -82zM948 250l-51 -250h-942l47 240l651 632h-503l49 250h905l-47 -239l-651 -633h542z" />
    <glyph glyph-name="Zdotaccent" unicode="&#x17b;" horiz-adv-x="1339" 
d="M700 1671l58 287h364l-57 -287h-365zM1206 295l-59 -295h-1180l53 266l910 963h-686l59 291h1129l-54 -263l-911 -962h739z" />
    <glyph glyph-name="zdotaccent" unicode="&#x17c;" horiz-adv-x="1079" 
d="M498 1286l57 285h358l-57 -285h-358zM948 250l-51 -250h-942l47 240l651 632h-503l49 250h905l-47 -239l-651 -633h542z" />
    <glyph glyph-name="Zcaron" unicode="&#x17d;" horiz-adv-x="1339" 
d="M1405 1989l-399 -344h-275l-239 344l286 32l115 -209l207 211zM1206 295l-59 -295h-1180l53 266l910 963h-686l59 291h1129l-54 -263l-911 -962h739z" />
    <glyph glyph-name="zcaron" unicode="&#x17e;" horiz-adv-x="1079" 
d="M1184 1663l-381 -406h-275l-198 408l266 31l96 -269l211 271zM948 250l-51 -250h-942l47 240l651 632h-503l49 250h905l-47 -239l-651 -633h542z" />
    <glyph glyph-name="longs" unicode="&#x17f;" horiz-adv-x="706" 
d="M18 0l234 1171q21 109 60.5 190t86 128.5t108 76.5t118 38.5t125.5 9.5q128 0 221 -35l-72 -260q-68 27 -129 27q-72 0 -117 -38t-65 -139l-234 -1169h-336z" />
    <glyph glyph-name="uni018F" unicode="&#x18f;" horiz-adv-x="1544" 
d="M1501 915q0 -135 -27.5 -264.5t-90.5 -254t-156 -218t-235 -150.5t-316 -57q-128 0 -230.5 31t-168 82t-109.5 121t-62 144t-18 155q0 94 22 195.5t54 166.5h966q0 81 -6.5 135t-26.5 103t-56 77t-95.5 44t-144.5 16q-276 0 -508 -160l-23 312q107 70 267.5 112.5
t328.5 42.5q635 0 635 -633zM688 268q84 0 153 28t117.5 78t81.5 111t54 136h-650q-18 -47 -18 -119q0 -104 65.5 -169t196.5 -65z" />
    <glyph glyph-name="florin" unicode="&#x192;" 
d="M641 121q-35 -116 -78 -201.5t-88.5 -137t-100.5 -82t-107.5 -41.5t-116.5 -11q-152 0 -265 53l90 289q81 -49 154 -49q69 0 110 41.5t76 162.5l170 580h-194l43 213h215l39 131q44 146 102.5 244t128.5 147.5t138 68.5t153 19q171 0 276 -57l-92 -291q-86 55 -172 55
q-83 0 -127 -46t-80 -165l-30 -106h286l-45 -213h-305z" />
    <glyph glyph-name="Ohorn" unicode="&#x1a0;" horiz-adv-x="1609" 
d="M1559 936q0 -147 -34.5 -287t-105 -263t-169.5 -215.5t-237.5 -146t-299.5 -53.5q-279 0 -437.5 162t-158.5 451q0 147 34.5 287t105 263t169.5 215t237.5 145.5t299.5 53.5q157 0 278 -53h21q110 0 163.5 61.5t53.5 169.5q0 29 -2 43h286q2 -18 2 -49q0 -69 -16 -129.5
t-50.5 -115.5t-97 -95t-147.5 -59q105 -151 105 -385zM750 279q103 0 188.5 57.5t138 150.5t81 204t28.5 224q0 326 -260 326q-83 0 -154.5 -38t-122.5 -101.5t-88 -146t-54.5 -172t-17.5 -179.5q0 -325 261 -325z" />
    <glyph glyph-name="ohorn" unicode="&#x1a1;" horiz-adv-x="1308" 
d="M1192 678q0 -105 -25.5 -205.5t-78.5 -190.5t-128 -158.5t-181 -108.5t-230 -40q-100 0 -185 26.5t-153.5 80.5t-108 147t-39.5 215q0 105 25.5 205.5t79 190.5t128.5 158.5t181 108.5t230 40q141 0 245 -49q106 1 158.5 63t52.5 168q0 29 -2 43h287q2 -18 2 -49
q0 -69 -16 -129.5t-50.5 -115.5t-97 -95t-147.5 -59q53 -106 53 -246zM573 244q65 0 119.5 38t88.5 100t52.5 135.5t18.5 148.5q0 106 -44.5 159.5t-127.5 53.5q-85 0 -150.5 -66t-96 -160t-30.5 -196q0 -106 43.5 -159.5t126.5 -53.5z" />
    <glyph glyph-name="Uhorn" unicode="&#x1af;" horiz-adv-x="1609" 
d="M1059 612l180 908h176q65 0 105.5 31t54.5 74.5t14 100.5q0 29 -2 43h287q2 -18 2 -49q0 -54 -9 -101.5t-32 -95t-59 -84t-93 -64t-131 -38.5l-145 -735q-128 -631 -731 -631q-266 0 -403.5 120t-137.5 345q0 64 21 180l180 904h350l-180 -908q-14 -75 -14 -114
q0 -217 225 -217q275 0 342 331z" />
    <glyph glyph-name="uhorn" unicode="&#x1b0;" horiz-adv-x="1374" 
d="M791 453l135 669h164q90 0 128.5 58.5t38.5 148.5q0 29 -2 43h287q2 -18 2 -49q0 -68 -15.5 -127t-50.5 -113t-99.5 -91.5t-153.5 -51.5l-189 -940h-309l29 186q-150 -211 -379 -211q-134 0 -214.5 76.5t-80.5 229.5q0 70 14 141l142 700h335l-135 -676q-10 -45 -10 -71
q0 -113 113 -113q83 0 147 54t103 137z" />
    <glyph glyph-name="Aringacute" unicode="&#x1fa;" horiz-adv-x="1521" 
d="M1020 0l-31 317h-532l-154 -317h-401l823 1520h74q-56 34 -86.5 91.5t-30.5 127.5q0 112 69.5 197t176.5 110l-119 63l397 330l283 -153l-432 -234q100 -13 159.5 -83.5t59.5 -172.5q0 -90 -45.5 -162.5t-122.5 -113.5h72l215 -1520h-375zM963 1649q57 0 94 38t37 97
q0 47 -26 74.5t-75 27.5q-57 0 -94 -37.5t-37 -95.5q0 -48 27 -76t74 -28zM594 602h367l-64 627z" />
    <glyph glyph-name="aringacute" unicode="&#x1fb;" horiz-adv-x="1212" 
d="M1077 1483q0 -133 -95 -224.5t-232 -91.5q-120 0 -193.5 73t-73.5 187q0 117 76 203.5t193 106.5l-154 82l397 329l283 -153l-467 -252q122 0 194 -72.5t72 -187.5zM766 1335q57 0 94 38t37 97q0 47 -27 76t-73 29q-57 0 -94 -38t-37 -97q0 -48 26 -76.5t74 -28.5zM666 0
l22 145q-138 -170 -352 -170q-139 0 -225 78t-86 226q0 200 164.5 310.5t476.5 110.5h114q8 40 8 68q0 66 -41 93.5t-135 27.5q-198 0 -372 -115l-15 262q89 52 214 81.5t259 29.5q217 0 323.5 -84t106.5 -242q0 -57 -12 -121l-141 -700h-309zM475 221q75 0 138.5 41
t101.5 113l28 141h-71q-156 0 -239 -48.5t-83 -135.5q0 -55 33 -83t92 -28z" />
    <glyph glyph-name="AEacute" unicode="&#x1fc;" horiz-adv-x="2174" 
d="M1481 1622l-178 94l397 330l282 -154zM913 0l76 379h-518l-264 -379h-418l1098 1520h1356l-60 -291h-686l-61 -305h604l-58 -281h-602l-69 -348h704l-59 -295h-1043zM1161 1233h-96l-397 -569h379z" />
    <glyph glyph-name="aeacute" unicode="&#x1fd;" horiz-adv-x="1867" 
d="M1083 1239l-202 51l311 428l301 -82zM1706 88q-196 -113 -457 -113q-308 0 -430 179q-174 -179 -432 -179q-167 0 -264.5 77.5t-97.5 226.5q0 199 162 305t475 106h120q9 40 9 78q0 64 -42.5 92.5t-138.5 28.5q-203 0 -377 -115l-14 262q89 52 214 81.5t259 29.5
q241 0 322 -123q148 123 370 123q99 0 176 -24t124 -63t77.5 -93.5t42 -111t11.5 -120.5q0 -137 -50 -250h-708q0 -140 58 -196t206 -56q202 0 371 115zM1356 913q-98 0 -164 -65.5t-100 -169.5h401q12 34 12 80q0 155 -149 155zM485 221q81 0 152.5 39t110.5 107
q-5 50 -5 63q0 12 5 74h-80q-318 0 -318 -172q0 -111 135 -111z" />
    <glyph glyph-name="Oslashacute" unicode="&#x1fe;" horiz-adv-x="1597" 
d="M946 1622l-178 94l397 330l283 -154zM713 -29q-237 0 -385 115l-164 -176l-154 84l203 217q-96 149 -96 373q0 147 34.5 287t105 263t169.5 215t237.5 145.5t299.5 53.5q235 0 385 -116l165 178l152 -84l-203 -217q97 -151 97 -373q0 -147 -34.5 -287t-105 -263
t-169.5 -215.5t-237.5 -146t-299.5 -53.5zM489 604q0 -41 7 -88l612 658q-64 67 -182 67q-83 0 -154.5 -38t-122.5 -101.5t-88 -146t-54.5 -172t-17.5 -179.5zM1186 915q0 49 -6 89l-613 -658q67 -67 183 -67q103 0 188.5 57.5t138 150.5t81 204t28.5 224z" />
    <glyph glyph-name="oslashacute" unicode="&#x1ff;" horiz-adv-x="1255" 
d="M791 1239l-203 51l311 428l301 -82zM549 -25q-175 0 -295 76l-158 -170l-129 74l180 195q-84 114 -84 294q0 105 25.5 205.5t79 190.5t128.5 158.5t181 108.5t230 40q174 0 294 -76l158 170l129 -74l-180 -194q84 -114 84 -295q0 -105 -25.5 -205.5t-78.5 -190.5
t-128 -158.5t-181 -108.5t-230 -40zM680 879q-123 0 -200 -126.5t-77 -326.5l388 416q-43 37 -111 37zM852 666q0 20 -2 30l-385 -417q44 -35 108 -35q65 0 119.5 38t88.5 100t52.5 135.5t18.5 148.5z" />
    <glyph glyph-name="uni0218" unicode="&#x218;" horiz-adv-x="1280" 
d="M442 -528l-235 53q161 171 186 377h291q-39 -269 -242 -430zM-10 119l102 317q100 -76 220.5 -121t242.5 -45q128 0 191 51.5t63 127.5q0 22 -7 41t-16 33t-30.5 28t-35.5 22t-47 20t-50 17.5t-58 18.5q-42 13 -73.5 24.5t-70 30.5t-66 39t-55.5 50.5t-45.5 65.5
t-28.5 82t-11 103q0 111 41 205.5t119 166t199.5 112t273.5 40.5q265 0 457 -116l-99 -318q-177 135 -383 135q-124 0 -183.5 -49t-59.5 -123q0 -19 3.5 -34.5t14.5 -29.5t19.5 -24t29.5 -20.5t33.5 -17t42.5 -16.5t45 -14.5t53 -15.5q60 -17 103 -34t94.5 -49.5t83.5 -72.5
t54 -103t22 -142q0 -115 -42.5 -211.5t-123 -168.5t-207 -112.5t-285.5 -40.5q-297 0 -530 148z" />
    <glyph glyph-name="uni0219" unicode="&#x219;" horiz-adv-x="1038" 
d="M305 -528l-235 53q161 171 186 377h291q-39 -269 -242 -430zM-14 88l86 264q75 -58 167 -91.5t185 -33.5q88 0 130 30t42 73q0 24 -13 42t-42 33t-54 23.5t-71 22.5t-78.5 26t-73.5 36.5t-66 54.5t-43 78t-18 108q0 182 135.5 287.5t378.5 105.5q212 0 367 -92l-88 -264
q-137 106 -291 106q-82 0 -125 -30t-43 -74q0 -16 5 -29t19.5 -24.5t25.5 -18.5t37.5 -16.5t39.5 -14t47 -14.5q47 -14 80 -27t75 -38.5t68 -56t44 -79t18 -108.5q0 -181 -137 -286.5t-387 -105.5q-236 0 -420 113z" />
    <glyph glyph-name="uni021A" unicode="&#x21a;" horiz-adv-x="1277" 
d="M1386 1229h-434l-245 -1229h-355l246 1229h-440l59 291h1227zM414 -528l-236 53q162 172 187 377h290q-39 -270 -241 -430z" />
    <glyph glyph-name="uni021B" unicode="&#x21b;" horiz-adv-x="894" 
d="M270 -528l-235 53q161 171 186 377h291q-39 -269 -242 -430zM756 37q-138 -62 -291 -62q-311 0 -311 285q0 63 16 139l98 488h-174l47 235h174l58 291l346 72l-72 -363h299l-47 -235h-299l-98 -492q-6 -27 -6 -47q0 -92 106 -92q93 0 170 47z" />
    <glyph glyph-name="uni0237" unicode="&#x237;" horiz-adv-x="620" 
d="M-344 -426l78 270q60 -37 127 -37q70 0 116.5 46t69.5 159l223 1110h336l-217 -1079q-29 -144 -79 -245.5t-117 -159.5t-143.5 -83.5t-170.5 -25.5q-131 0 -223 45z" />
    <glyph glyph-name="uni0259" unicode="&#x259;" horiz-adv-x="1218" 
d="M1157 672q0 -99 -21.5 -195t-71 -188t-122 -161t-183 -111t-245.5 -42q-100 0 -179.5 23.5t-130 62t-83.5 91.5t-46.5 109t-13.5 118q0 146 58 264h704q0 144 -51 195t-184 51q-203 0 -377 -115l-14 262q87 51 208.5 81t247.5 30q250 0 377 -121t127 -354zM526 215
q106 0 172 66t99 170h-420q-15 -35 -15 -82q0 -69 40.5 -111.5t123.5 -42.5z" />
    <glyph glyph-name="uni02BB" unicode="&#x2bb;" horiz-adv-x="653" 
d="M504 1602l262 -68q-198 -275 -238 -625h-325q31 395 301 693z" />
    <glyph glyph-name="uni02BC" unicode="&#x2bc;" horiz-adv-x="653" 
d="M420 901l-262 68q197 274 237 624h326q-31 -394 -301 -692z" />
    <glyph glyph-name="circumflex" unicode="&#x2c6;" horiz-adv-x="1024" 
d="M1069 1280l-268 -29l-96 279l-216 -279l-280 33l383 416h274z" />
    <glyph glyph-name="caron" unicode="&#x2c7;" horiz-adv-x="1024" 
d="M1155 1663l-381 -406h-274l-199 408l266 31l97 -269l210 271z" />
    <glyph glyph-name="uni02C9" unicode="&#x2c9;" horiz-adv-x="1024" 
d="M299 1319l43 219h715l-43 -219h-715z" />
    <glyph glyph-name="breve" unicode="&#x2d8;" horiz-adv-x="1024" 
d="M324 1647l237 12q-8 -39 -8 -76q0 -127 119 -127q146 0 196 203l250 -12q-48 -197 -172.5 -297.5t-298.5 -100.5q-156 0 -244 78.5t-88 226.5q0 44 9 93z" />
    <glyph glyph-name="dotaccent" unicode="&#x2d9;" horiz-adv-x="1024" 
d="M469 1286l57 285h359l-58 -285h-358z" />
    <glyph glyph-name="ring" unicode="&#x2da;" horiz-adv-x="1024" 
d="M657 1204q-120 0 -193 73t-73 187q0 133 96.5 224.5t233.5 91.5q120 0 192 -73t72 -187q0 -133 -95.5 -224.5t-232.5 -91.5zM674 1372q57 0 94 38t37 97q0 47 -27 76t-73 29q-57 0 -94.5 -38.5t-37.5 -96.5q0 -48 26 -76.5t75 -28.5z" />
    <glyph glyph-name="ogonek" unicode="&#x2db;" horiz-adv-x="1024" 
d="M594 -455q-96 -57 -229 -57q-126 0 -193.5 54t-67.5 155q0 93 61 169.5t189 145.5h252q-126 -42 -197 -102.5t-71 -130.5q0 -74 92 -74q71 0 154 49z" />
    <glyph glyph-name="tilde" unicode="&#x2dc;" horiz-adv-x="1024" 
d="M428 1257l-227 17q63 352 311 352q95 0 193 -67q85 -60 126 -60q38 0 62 31.5t37 107.5l227 -16q-62 -352 -311 -352q-95 0 -193 67q-32 21 -47.5 30.5t-39 19.5t-40.5 10q-38 0 -61.5 -32.5t-36.5 -107.5z" />
    <glyph glyph-name="hungarumlaut" unicode="&#x2dd;" horiz-adv-x="1024" 
d="M498 1245l-199 53l311 420l273 -80zM920 1245l-197 53l311 420l271 -80z" />
    <glyph glyph-name="gravecomb" unicode="&#x300;" horiz-adv-x="0" 
d="M96 1239l-284 434l297 45l182 -440z" />
    <glyph glyph-name="acutecomb" unicode="&#x301;" horiz-adv-x="0" 
d="M164 1239l-203 51l311 428l301 -82z" />
    <glyph glyph-name="uni0302" unicode="&#x302;" horiz-adv-x="0" 
d="M557 1280l-268 -29l-96 279l-216 -279l-280 33l383 416h274z" />
    <glyph glyph-name="tildecomb" unicode="&#x303;" horiz-adv-x="0" 
d="M-84 1257l-227 17q63 352 311 352q95 0 193 -67q85 -60 126 -60q38 0 62 31.5t37 107.5l227 -16q-62 -352 -311 -352q-95 0 -193 67q-32 21 -47.5 30.5t-39 19.5t-40.5 10q-38 0 -61.5 -32.5t-36.5 -107.5z" />
    <glyph glyph-name="uni0304" unicode="&#x304;" horiz-adv-x="0" 
d="M-213 1319l43 219h715l-43 -219h-715z" />
    <glyph glyph-name="uni0306" unicode="&#x306;" horiz-adv-x="0" 
d="M-188 1647l237 12q-8 -39 -8 -76q0 -127 119 -127q146 0 196 203l250 -12q-48 -197 -172.5 -297.5t-298.5 -100.5q-156 0 -244 78.5t-88 226.5q0 44 9 93z" />
    <glyph glyph-name="uni0307" unicode="&#x307;" horiz-adv-x="0" 
d="M-43 1286l57 285h359l-58 -285h-358z" />
    <glyph glyph-name="uni0308" unicode="&#x308;" horiz-adv-x="0" 
d="M229 1286l58 285h295l-58 -285h-295zM-250 1286l57 285h295l-57 -285h-295z" />
    <glyph glyph-name="hookabovecomb" unicode="&#x309;" horiz-adv-x="0" 
d="M147 1221l-120 120q215 76 215 150q0 47 -84 47q-108 0 -221 -72l-5 203q145 74 297 74q127 0 197 -51t70 -150q0 -62 -26.5 -112t-78.5 -88.5t-108 -65t-136 -55.5z" />
    <glyph glyph-name="uni030A" unicode="&#x30a;" horiz-adv-x="0" 
d="M145 1204q-120 0 -193 73t-73 187q0 133 96.5 224.5t233.5 91.5q120 0 192 -73t72 -187q0 -133 -95.5 -224.5t-232.5 -91.5zM162 1372q57 0 94 38t37 97q0 47 -27 76t-73 29q-57 0 -94.5 -38.5t-37.5 -96.5q0 -48 26 -76.5t75 -28.5z" />
    <glyph glyph-name="uni030B" unicode="&#x30b;" horiz-adv-x="0" 
d="M-14 1245l-199 53l311 420l273 -80zM408 1245l-197 53l311 420l271 -80z" />
    <glyph glyph-name="uni030C" unicode="&#x30c;" horiz-adv-x="0" 
d="M643 1663l-381 -406h-274l-199 408l266 31l97 -269l210 271z" />
    <glyph glyph-name="uni0312" unicode="&#x312;" horiz-adv-x="0" 
d="M205 1692l233 -56q-140 -170 -162 -374h-290q36 267 219 430z" />
    <glyph glyph-name="uni031B" unicode="&#x31b;" horiz-adv-x="0" 
d="M-221 1122h31q167 0 167 207q0 29 -2 43h287q2 -18 2 -49q0 -61 -12 -115t-42.5 -106t-77.5 -88.5t-123 -59t-173 -22.5h-94z" />
    <glyph glyph-name="dotbelowcomb" unicode="&#x323;" horiz-adv-x="0" 
d="M-375 -426l58 285h358l-57 -285h-359z" />
    <glyph glyph-name="uni0326" unicode="&#x326;" horiz-adv-x="0" 
d="M-215 -528l-236 53q162 172 187 377h291q-39 -269 -242 -430z" />
    <glyph glyph-name="uni0327" unicode="&#x327;" horiz-adv-x="0" 
d="M123 -252q0 -121 -93.5 -190.5t-260.5 -69.5q-141 0 -244 45l74 201q89 -47 190 -47q53 0 82 17t29 48q0 17 -10.5 29t-53 27.5t-121.5 31.5l109 172h139l-47 -67q120 -33 163.5 -79t43.5 -118z" />
    <glyph glyph-name="uni0328" unicode="&#x328;" horiz-adv-x="0" 
d="M82 -455q-96 -57 -229 -57q-126 0 -193.5 54t-67.5 155q0 93 61 169.5t189 145.5h252q-126 -42 -197 -102.5t-71 -130.5q0 -74 92 -74q71 0 154 49z" />
    <glyph glyph-name="uni0374" unicode="&#x374;" horiz-adv-x="606" 
d="M184 903l248 690h350v-4l-362 -686h-236z" />
    <glyph glyph-name="uni037E" unicode="&#x37e;" horiz-adv-x="802" 
d="M236 719l81 403h394l-82 -403h-393zM184 -332l-274 64q274 315 289 678h344q0 -424 -359 -742z" />
    <glyph glyph-name="tonos" unicode="&#x384;" horiz-adv-x="491" 
d="M416 1235l-205 16l127 467h330v-4z" />
    <glyph glyph-name="dieresistonos" unicode="&#x385;" horiz-adv-x="1024" 
d="M705 1235l-207 16l127 467h315v-4zM872 1286l58 285h295l-58 -285h-295zM137 1286l58 285h294l-57 -285h-295z" />
    <glyph glyph-name="Alphatonos" unicode="&#x386;" horiz-adv-x="1521" 
d="M1044 0l-30 317h-533l-153 -317h-402l824 1520h454l215 -1520h-375zM305 1036l-205 17l127 467h330v-4zM618 602h367l-63 627z" />
    <glyph glyph-name="anoteleia" unicode="&#x387;" horiz-adv-x="823" 
d="M246 721l82 401h395l-82 -401h-395z" />
    <glyph glyph-name="Epsilontonos" unicode="&#x388;" horiz-adv-x="1576" 
d="M1423 295l-59 -295h-1055l303 1520h1039l-58 -291h-686l-61 -305h604l-57 -281h-605l-69 -348h704zM264 1036l-205 17l127 467h330v-4z" />
    <glyph glyph-name="Etatonos" unicode="&#x389;" horiz-adv-x="1841" 
d="M1214 0l127 637h-550l-127 -637h-355l303 1520h355l-117 -588h551l117 588h354l-303 -1520h-355zM264 1036l-205 17l127 467h330v-4z" />
    <glyph glyph-name="Iotatonos" unicode="&#x38a;" horiz-adv-x="933" 
d="M309 0l303 1520h355l-303 -1520h-355zM264 1036l-205 17l127 467h330v-4z" />
    <glyph glyph-name="Omicrontonos" unicode="&#x38c;" horiz-adv-x="1808" 
d="M924 -29q-279 0 -437.5 162t-158.5 451q0 147 34.5 287t105 263t169.5 215t237.5 145.5t299.5 53.5q279 0 437 -161.5t158 -450.5q0 -147 -34 -287t-104.5 -263t-169.5 -215.5t-237.5 -146t-299.5 -53.5zM264 1036l-205 17l127 467h330v-4zM961 279q103 0 188.5 57.5
t138 150.5t81 204t28.5 224q0 326 -260 326q-83 0 -154.5 -38t-122.5 -101.5t-88 -146t-54.5 -172t-17.5 -179.5q0 -325 261 -325z" />
    <glyph glyph-name="Upsilontonos" unicode="&#x38e;" horiz-adv-x="1755" 
d="M1956 1520l-713 -975l-108 -545h-355l113 559l-328 961h383l180 -656l408 656h420zM264 1036l-205 17l127 467h330v-4z" />
    <glyph glyph-name="Omegatonos" unicode="&#x38f;" horiz-adv-x="1894" 
d="M903 270l-53 -270h-678l59 295h330q-194 229 -194 493q0 114 34.5 223.5t104.5 207t168 170.5t234 116t294 43q165 0 292 -46t204 -126.5t116 -184.5t39 -226q0 -384 -389 -670h293l-59 -295h-678l53 270q395 304 395 645q0 153 -76.5 239.5t-228.5 86.5
q-195 0 -312.5 -138.5t-117.5 -361.5q0 -133 43 -255.5t127 -215.5zM264 1036l-205 17l127 467h330v-4z" />
    <glyph glyph-name="iotadieresistonos" unicode="&#x390;" horiz-adv-x="698" 
d="M510 1235l-207 16l127 467h315v-4zM678 1286l57 285h295l-57 -285h-295zM-57 1286l57 285h295l-57 -285h-295zM561 8q-89 -24 -192 -24q-149 0 -220 55t-71 174q0 62 10 113l160 796h336l-150 -751q-6 -27 -6 -47q0 -32 18.5 -46t59.5 -14q55 0 108 19z" />
    <glyph glyph-name="Alpha" unicode="&#x391;" horiz-adv-x="1521" 
d="M1020 0l-31 317h-532l-154 -317h-401l823 1520h455l215 -1520h-375zM594 602h367l-64 627z" />
    <glyph glyph-name="Beta" unicode="&#x392;" horiz-adv-x="1478" 
d="M1370 459q0 -69 -18 -131.5t-63.5 -123.5t-114 -105.5t-178 -71.5t-248.5 -27h-701l303 1520h637q122 0 209.5 -24.5t139 -71.5t75 -108.5t23.5 -141.5q0 -66 -16 -123.5t-52 -111t-101.5 -94.5t-156.5 -63q262 -68 262 -323zM885 1235h-248l-70 -340h273q64 0 111 17.5
t72 48t36.5 64t11.5 71.5q0 74 -46 106.5t-140 32.5zM811 653h-291l-74 -366h308q127 0 190.5 60.5t63.5 152.5q0 153 -197 153z" />
    <glyph glyph-name="Gamma" unicode="&#x393;" horiz-adv-x="1183" 
d="M1290 1219h-645l-244 -1219h-354l303 1520h1000z" />
    <glyph glyph-name="uni0394" unicode="&#x394;" horiz-adv-x="1521" 
d="M1180 1520l215 -1520h-1493l823 1520h455zM446 297h545l-94 932z" />
    <glyph glyph-name="Epsilon" unicode="&#x395;" horiz-adv-x="1314" 
d="M1161 295l-59 -295h-1055l303 1520h1039l-58 -291h-686l-61 -305h604l-58 -281h-604l-69 -348h704z" />
    <glyph glyph-name="Zeta" unicode="&#x396;" horiz-adv-x="1339" 
d="M1206 295l-59 -295h-1180l53 266l910 963h-686l59 291h1129l-54 -263l-911 -962h739z" />
    <glyph glyph-name="Eta" unicode="&#x397;" horiz-adv-x="1576" 
d="M952 0l127 637h-551l-127 -637h-354l303 1520h355l-117 -588h551l116 588h355l-303 -1520h-355z" />
    <glyph glyph-name="Theta" unicode="&#x398;" horiz-adv-x="1597" 
d="M713 -29q-279 0 -437.5 162t-158.5 451q0 147 34.5 287t105 263t169.5 215t237.5 145.5t299.5 53.5q279 0 437.5 -161.5t158.5 -450.5q0 -147 -34.5 -287t-105 -263t-169.5 -215.5t-237.5 -146t-299.5 -53.5zM750 279q103 0 188.5 57.5t138 150.5t81 204t28.5 224
q0 326 -260 326q-83 0 -154.5 -38t-122.5 -101.5t-88 -146t-54.5 -172t-17.5 -179.5q0 -325 261 -325zM594 647l49 252h444l-49 -252h-444z" />
    <glyph glyph-name="Iota" unicode="&#x399;" horiz-adv-x="671" 
d="M47 0l303 1520h355l-304 -1520h-354z" />
    <glyph glyph-name="Kappa" unicode="&#x39a;" horiz-adv-x="1507" 
d="M993 0l-327 602l-174 -156l-91 -446h-354l303 1520h355l-134 -662l660 662h467v-4l-783 -693l490 -819v-4h-412z" />
    <glyph glyph-name="Lambda" unicode="&#x39b;" horiz-adv-x="1521" 
d="M1020 0l-121 1225l-596 -1225h-401l823 1520h455l215 -1520h-375z" />
    <glyph glyph-name="Mu" unicode="&#x39c;" horiz-adv-x="2043" 
d="M788 0l-182 1153l-231 -1153h-328l303 1520h481l166 -1045l559 1045h519l-303 -1520h-340l231 1159l-627 -1159h-248z" />
    <glyph glyph-name="Nu" unicode="&#x39d;" horiz-adv-x="1601" 
d="M989 0l-414 973l-194 -973h-334l303 1520h340l414 -973l194 973h334l-303 -1520h-340z" />
    <glyph glyph-name="Xi" unicode="&#x39e;" horiz-adv-x="1386" 
d="M248 1223l59 297h1153l-59 -297h-1153zM256 639l55 283h906l-58 -283h-903zM-12 0l59 299h1186l-59 -299h-1186z" />
    <glyph glyph-name="Omicron" unicode="&#x39f;" horiz-adv-x="1597" 
d="M713 -29q-279 0 -437.5 162t-158.5 451q0 147 34.5 287t105 263t169.5 215t237.5 145.5t299.5 53.5q279 0 437.5 -161.5t158.5 -450.5q0 -147 -34.5 -287t-105 -263t-169.5 -215.5t-237.5 -146t-299.5 -53.5zM750 279q103 0 188.5 57.5t138 150.5t81 204t28.5 224
q0 326 -260 326q-83 0 -154.5 -38t-122.5 -101.5t-88 -146t-54.5 -172t-17.5 -179.5q0 -325 261 -325z" />
    <glyph glyph-name="Pi" unicode="&#x3a0;" horiz-adv-x="1556" 
d="M932 0l244 1225h-531l-244 -1225h-354l303 1520h1239l-303 -1520h-354z" />
    <glyph glyph-name="Rho" unicode="&#x3a1;" horiz-adv-x="1406" 
d="M713 459h-219l-93 -459h-354l303 1520h565q527 0 527 -451q0 -97 -23.5 -183.5t-79 -165.5t-137.5 -136t-207.5 -91t-281.5 -34zM840 1229h-193l-96 -484h194q90 0 156.5 24.5t103.5 67.5t54.5 93t17.5 108q0 98 -54 144.5t-183 46.5z" />
    <glyph glyph-name="Sigma" unicode="&#x3a3;" horiz-adv-x="1339" 
d="M1214 295l-59 -295h-1180l54 268l579 525l-366 464l53 263h1130l-59 -291h-702l348 -443l-4 -20l-531 -471h737z" />
    <glyph glyph-name="Tau" unicode="&#x3a4;" horiz-adv-x="1277" 
d="M1386 1229h-434l-245 -1229h-355l246 1229h-440l59 291h1227z" />
    <glyph glyph-name="Upsilon" unicode="&#x3a5;" horiz-adv-x="1368" 
d="M1571 1520l-713 -975l-108 -545h-355l113 559l-328 961h383l180 -656l408 656h420z" />
    <glyph glyph-name="Phi" unicode="&#x3a6;" horiz-adv-x="1912" 
d="M1880 846q0 -161 -60 -295t-169 -228t-266 -147t-347 -55l-30 -150h-340l30 152q-273 29 -427 176.5t-154 409.5q0 325 229 522.5t612 202.5l29 139h340l-29 -141q275 -29 428.5 -176.5t153.5 -409.5zM483 717q0 -136 70 -218.5t201 -99.5l149 756q-181 -6 -300.5 -127
t-119.5 -311zM1513 836q0 138 -70 221t-200 96l-149 -756q180 6 299.5 128t119.5 311z" />
    <glyph glyph-name="Chi" unicode="&#x3a7;" horiz-adv-x="1445" 
d="M913 0l-204 520l-367 -520h-440l653 782l-338 738h408l196 -498l346 498h443l-637 -762l348 -758h-408z" />
    <glyph glyph-name="Psi" unicode="&#x3a8;" horiz-adv-x="1837" 
d="M1843 1118q-44 -218 -110.5 -365t-165 -235.5t-221.5 -126t-291 -37.5l-72 -354h-354l71 354q-238 2 -371.5 133t-133.5 392q0 120 26 256l78 385h354l-84 -416q-26 -130 -26 -219q0 -131 55 -182.5t162 -51.5l174 869h354l-174 -869q73 1 127 21t101 70t82.5 139
t62.5 223l84 416h352z" />
    <glyph glyph-name="uni03A9" unicode="&#x3a9;" horiz-adv-x="1695" 
d="M705 270l-54 -270h-678l60 295h329q-194 229 -194 493q0 114 34.5 223.5t104.5 207t168 170.5t234.5 116t294.5 43q165 0 292 -46t204 -126.5t116 -184.5t39 -226q0 -384 -389 -670h293l-60 -295h-678l53 270q396 305 396 645q0 153 -76.5 239.5t-228.5 86.5
q-195 0 -312.5 -138.5t-117.5 -361.5q0 -133 43 -255.5t127 -215.5z" />
    <glyph glyph-name="Iotadieresis" unicode="&#x3aa;" horiz-adv-x="671" 
d="M651 1671l58 287h299l-58 -287h-299zM145 1671l58 287h299l-58 -287h-299zM47 0l303 1520h355l-304 -1520h-354z" />
    <glyph glyph-name="Upsilondieresis" unicode="&#x3ab;" horiz-adv-x="1368" 
d="M999 1671l58 287h299l-58 -287h-299zM494 1671l57 287h299l-57 -287h-299zM1571 1520l-713 -975l-108 -545h-355l113 559l-328 961h383l180 -656l408 656h420z" />
    <glyph glyph-name="alphatonos" unicode="&#x3ac;" horiz-adv-x="1374" 
d="M887 1235l-205 16l127 467h330v-4zM1044 -16q-133 0 -190 49.5t-57 154.5q-146 -213 -373 -213q-163 0 -262 108t-99 329q0 143 42.5 275.5t117.5 234.5t186.5 163.5t239.5 61.5q253 0 309 -234l70 209h344q-145 -307 -205.5 -477t-60.5 -276q0 -49 17 -77t65 -28
q46 0 94 19l-55 -275q-84 -24 -183 -24zM408 455q0 -199 137 -199q90 0 161 78t115 225l19 59v44q0 210 -144 210q-80 0 -146.5 -58.5t-104 -154t-37.5 -204.5z" />
    <glyph glyph-name="epsilontonos" unicode="&#x3ad;" horiz-adv-x="1138" 
d="M815 1235l-205 16l127 467h330v-4zM981 90q-184 -115 -481 -115q-226 0 -348.5 71.5t-122.5 217.5q0 118 78 202.5t217 121.5q-160 57 -160 219q0 150 137.5 245t396.5 95q120 0 233 -23.5t195 -66.5l-94 -262q-134 94 -315 94q-93 0 -148 -27.5t-55 -81.5
q0 -46 44.5 -70t156.5 -24h170l-45 -227h-176q-279 0 -279 -135q0 -91 197 -91q118 0 209 29.5t176 87.5z" />
    <glyph glyph-name="etatonos" unicode="&#x3ae;" horiz-adv-x="1349" 
d="M936 1235l-205 16l127 467h330v-4zM1253 700l-227 -1134h-336l223 1110q9 45 9 72q0 112 -109 112q-72 0 -141 -45.5t-111 -130.5l-135 -684h-336l150 752q6 27 6 47q0 33 -16.5 46t-53.5 13q-49 0 -84 -12l55 272q83 25 177 25q131 0 192.5 -49.5t61.5 -159.5
q76 100 177.5 156.5t219.5 56.5q134 0 214.5 -76t80.5 -229q0 -55 -17 -142z" />
    <glyph glyph-name="iotatonos" unicode="&#x3af;" horiz-adv-x="698" 
d="M522 1235l-205 16l127 467h330v-4zM561 8q-89 -24 -192 -24q-149 0 -220 55t-71 174q0 62 10 113l160 796h336l-150 -751q-6 -27 -6 -47q0 -32 18.5 -46t59.5 -14q55 0 108 19z" />
    <glyph glyph-name="upsilondieresistonos" unicode="&#x3b0;" horiz-adv-x="1263" 
d="M793 1235l-207 16l127 467h315v-4zM961 1286l57 285h295l-58 -285h-294zM225 1286l58 285h295l-58 -285h-295zM1180 1122q16 -147 16 -291q0 -87 -8 -168t-28.5 -168t-52.5 -161t-84 -141.5t-119.5 -114.5t-162.5 -75t-209 -28q-209 0 -325.5 93.5t-116.5 283.5
q0 76 16 152l123 618h336l-131 -657q-8 -36 -8 -72q0 -145 145 -145q54 0 98 23t73.5 59.5t51.5 89.5t34.5 105.5t20 115t9.5 111t2 100.5q0 135 -12 270h332z" />
    <glyph glyph-name="alpha" unicode="&#x3b1;" horiz-adv-x="1374" 
d="M1044 -16q-133 0 -190 49.5t-57 154.5q-146 -213 -373 -213q-163 0 -262 108t-99 329q0 143 42.5 275.5t117.5 234.5t186.5 163.5t239.5 61.5q253 0 309 -234l70 209h344q-145 -307 -205.5 -477t-60.5 -276q0 -49 17 -77t65 -28q46 0 94 19l-55 -275q-84 -24 -183 -24z
M408 455q0 -199 137 -199q90 0 161 78t115 225l19 59v44q0 210 -144 210q-80 0 -146.5 -58.5t-104 -154t-37.5 -204.5z" />
    <glyph glyph-name="beta" unicode="&#x3b2;" horiz-adv-x="1327" 
d="M702 -25q-203 0 -325 115l-105 -524h-333l305 1528q55 276 203 398t382 122q224 0 351 -96.5t127 -272.5q0 -153 -89 -258t-237 -145q122 -37 190 -130.5t68 -226.5q0 -95 -35 -184.5t-100 -163t-169.5 -118t-232.5 -44.5zM578 1098l-150 -750q22 -44 80 -73t131 -29
q85 0 146 40t88.5 99.5t27.5 128.5q0 91 -54 143t-165 52h-59l49 239h59q112 0 176 68t64 166q0 79 -43 121.5t-119 42.5q-90 0 -147 -59t-84 -189z" />
    <glyph glyph-name="gamma" unicode="&#x3b3;" horiz-adv-x="1351" 
d="M1458 1122l-790 -1165l-111 -391h-377l170 430q21 170 21 360q0 260 -48.5 380t-156.5 120q-49 0 -92 -16l28 278q97 25 187 25q194 0 279 -126t85 -423q0 -102 -10 -242l412 770h403z" />
    <glyph glyph-name="delta" unicode="&#x3b4;" horiz-adv-x="1259" 
d="M1190 604q0 -95 -26 -186t-80 -171.5t-128.5 -141t-178.5 -95.5t-224 -35q-228 0 -359 121.5t-131 345.5q0 225 133.5 373t370.5 193q-95 73 -139.5 142t-44.5 163q0 144 104 224.5t322 80.5q165 0 309.5 -44.5t243.5 -113.5l-113 -278q-89 72 -200 121t-209 49
q-107 0 -107 -70q0 -23 10.5 -44t37.5 -46t48 -41.5t68 -50.5q49 -35 85 -65.5t77.5 -77.5t68 -95.5t44.5 -115.5t18 -142zM403 455q0 -98 43.5 -154.5t131.5 -56.5q84 0 148 56t95 138t31 172q0 81 -28.5 132.5t-92.5 97.5q-149 -12 -238.5 -125t-89.5 -260z" />
    <glyph glyph-name="epsilon" unicode="&#x3b5;" horiz-adv-x="1138" 
d="M981 90q-184 -115 -481 -115q-226 0 -348.5 71.5t-122.5 217.5q0 118 78 202.5t217 121.5q-160 57 -160 219q0 150 137.5 245t396.5 95q120 0 233 -23.5t195 -66.5l-94 -262q-134 94 -315 94q-93 0 -148 -27.5t-55 -81.5q0 -46 44.5 -70t156.5 -24h170l-45 -227h-176
q-279 0 -279 -135q0 -91 197 -91q118 0 209 29.5t176 87.5z" />
    <glyph glyph-name="zeta" unicode="&#x3b6;" horiz-adv-x="995" 
d="M893 23q0 -139 -88.5 -264.5t-231.5 -213.5l-254 142q112 61 177 129.5t65 122.5q0 19 -10 35t-23 27t-44 24t-53 20.5t-69 22.5q-52 17 -90 32.5t-83 44.5t-73 63.5t-47.5 88.5t-19.5 121q0 391 670 905q-291 0 -426 23l55 268q137 -25 531 -25q125 0 313 4l-49 -243
q-195 -132 -344 -261.5t-236.5 -237.5t-130.5 -196.5t-43 -156.5q0 -29 7.5 -52.5t25.5 -42t34 -31.5t47.5 -26t50 -20t56.5 -19q31 -10 46.5 -15.5t44.5 -16.5t44.5 -19t39 -22t36.5 -28t29 -33.5t24 -41t13.5 -49t5.5 -59.5z" />
    <glyph glyph-name="eta" unicode="&#x3b7;" horiz-adv-x="1349" 
d="M1253 700l-227 -1134h-336l223 1110q9 45 9 72q0 112 -109 112q-72 0 -141 -45.5t-111 -130.5l-135 -684h-336l150 752q6 27 6 47q0 33 -16.5 46t-53.5 13q-49 0 -84 -12l55 272q83 25 177 25q131 0 192.5 -49.5t61.5 -159.5q76 100 177.5 156.5t219.5 56.5
q134 0 214.5 -76t80.5 -229q0 -55 -17 -142z" />
    <glyph glyph-name="theta" unicode="&#x3b8;" horiz-adv-x="1265" 
d="M535 -25q-208 0 -320.5 131.5t-112.5 385.5q0 131 37 319q76 387 248 593t436 206q208 0 320 -131t112 -385q0 -137 -36 -320q-76 -387 -248 -593t-436 -206zM795 1341q-103 0 -177.5 -105t-128.5 -327h426q23 158 23 224q0 208 -143 208zM418 453q0 -209 145 -209
q103 0 178 107.5t129 334.5h-426q-26 -144 -26 -233z" />
    <glyph glyph-name="iota" unicode="&#x3b9;" horiz-adv-x="698" 
d="M561 8q-89 -24 -192 -24q-149 0 -220 55t-71 174q0 62 10 113l160 796h336l-150 -751q-6 -27 -6 -47q0 -32 18.5 -46t59.5 -14q55 0 108 19z" />
    <glyph glyph-name="kappa" unicode="&#x3ba;" horiz-adv-x="1300" 
d="M813 0l-195 446q-63 -61 -217 -215l-47 -231h-336l224 1122h336l-103 -520q134 163 224 259t177.5 163.5t164 93t169.5 25.5q83 0 148 -21l-82 -286q-40 16 -98 16q-69 0 -135 -36t-195 -152l340 -660v-4h-375z" />
    <glyph glyph-name="lambda" unicode="&#x3bb;" horiz-adv-x="1273" 
d="M805 0l-92 739l-387 -739h-400l709 1106q-22 126 -67.5 177.5t-143.5 51.5q-71 0 -152 -35l47 273q56 23 100.5 32t106.5 9q103 0 174.5 -25.5t121 -85t80 -146t52.5 -220.5l187 -1137h-336z" />
    <glyph glyph-name="uni03BC" unicode="&#x3bc;" horiz-adv-x="1361" 
d="M487 -25q-94 0 -153 50l-64 -459h-336l172 844l142 712h336l-135 -676q-9 -41 -9 -71q0 -113 113 -113q83 0 147 54t103 137l133 669h336l-150 -751q-6 -27 -6 -47q0 -33 16.5 -46.5t51.5 -13.5q49 0 94 19l-53 -275q-84 -24 -183 -24q-118 0 -180.5 37t-75.5 116
q-128 -162 -299 -162z" />
    <glyph glyph-name="nu" unicode="&#x3bd;" horiz-adv-x="1257" 
d="M1270 1122q-57 -310 -228.5 -607.5t-416.5 -514.5h-330q-45 702 -174 1122h350q66 -338 98 -831q126 178 211.5 395.5t116.5 435.5h373z" />
    <glyph glyph-name="xi" unicode="&#x3be;" horiz-adv-x="1081" 
d="M946 20q0 -136 -88 -261t-231 -214l-254 142q112 60 176.5 128t64.5 122q0 16 -5.5 29t-20 24t-27 18t-41.5 16t-47.5 14t-58.5 15q-45 11 -74.5 19.5t-71.5 24.5t-69 32.5t-58 42.5t-48.5 56.5t-29.5 72.5t-12 92q0 153 100.5 268t282.5 166q-182 56 -182 230
q0 105 71 181t195 112q-163 3 -270 18l51 246q157 -25 575 -25q120 0 328 4l-55 -270h-221q-144 0 -237 -57.5t-93 -161.5q0 -73 49 -109.5t139 -36.5h226l-58 -282h-276q-129 0 -205 -59.5t-76 -147.5q0 -29 10.5 -51.5t26 -37.5t47.5 -28.5t59.5 -22t77.5 -20.5
q44 -11 69 -18t65 -20.5t63.5 -27t52 -36t43.5 -47.5t26 -61t11 -79z" />
    <glyph glyph-name="omicron" unicode="&#x3bf;" horiz-adv-x="1255" 
d="M549 -25q-100 0 -185 26.5t-153.5 80.5t-108 147t-39.5 215q0 105 25.5 205.5t79 190.5t128.5 158.5t181 108.5t230 40q79 0 149 -16t132 -52t107 -89.5t71 -133t26 -178.5q0 -105 -25.5 -205.5t-78.5 -190.5t-128 -158.5t-181 -108.5t-230 -40zM573 244q65 0 119.5 38
t88.5 100t52.5 135.5t18.5 148.5q0 106 -44.5 159.5t-127.5 53.5q-85 0 -150.5 -66t-96 -160t-30.5 -196q0 -106 43.5 -159.5t126.5 -53.5z" />
    <glyph glyph-name="uni03C0" unicode="&#x3c0;" horiz-adv-x="1470" 
d="M1272 8q-89 -24 -195 -24q-148 0 -217 55t-69 178q0 63 16 139l98 498h-239q-55 -270 -123 -482.5t-172 -371.5h-361q114 171 190.5 382t137.5 472h-219l55 268h1333l-53 -268h-213l-96 -483q-6 -27 -6 -47q0 -33 18 -46.5t60 -13.5q54 0 110 19z" />
    <glyph glyph-name="rho" unicode="&#x3c1;" horiz-adv-x="1300" 
d="M662 -25q-195 0 -295 138l-107 -547h-336l197 1001q56 285 212.5 432.5t411.5 147.5q111 0 200 -28t156 -85t103.5 -150t36.5 -216q0 -180 -71 -337.5t-205.5 -256.5t-302.5 -99zM455 557l-35 -176q18 -62 67.5 -99.5t118.5 -37.5q85 0 152.5 60.5t102 152.5t34.5 194
q0 221 -178 221q-111 0 -171.5 -84t-90.5 -231z" />
    <glyph glyph-name="sigma1" unicode="&#x3c2;" horiz-adv-x="1058" 
d="M559 -455l-254 142q112 60 178 128.5t66 125.5q0 40 -35 62.5t-123 53.5q-34 12 -59 23t-61 31.5t-62 42.5t-54 56.5t-46 74.5t-29.5 95.5t-11.5 119.5q0 91 21 179t70.5 174t122.5 150.5t185 104t250 39.5q209 0 346 -98l-96 -273q-99 90 -246 90q-83 0 -146.5 -32.5
t-98 -83.5t-51.5 -105.5t-17 -107.5t16 -92t50.5 -66t67 -43t85.5 -35q35 -13 54.5 -21t50.5 -23t49 -28t39.5 -34.5t33 -45t19.5 -56t8 -70.5q0 -138 -89.5 -264t-232.5 -214z" />
    <glyph glyph-name="sigma" unicode="&#x3c3;" horiz-adv-x="1327" 
d="M1167 547q0 -108 -40.5 -209t-115.5 -182.5t-194.5 -131t-265.5 -49.5q-219 0 -353.5 122t-134.5 347q0 306 191.5 492t515.5 186h625l-54 -268h-303q129 -123 129 -307zM573 244q86 0 150.5 60t93.5 146t29 181q0 154 -72 223h-72q-94 0 -164 -58t-102.5 -144.5
t-32.5 -186.5q0 -221 170 -221z" />
    <glyph glyph-name="tau" unicode="&#x3c4;" horiz-adv-x="1069" 
d="M788 16q-102 -32 -227 -32q-148 0 -217.5 55t-69.5 178q0 49 17 139l100 498h-309l53 268h1016l-53 -268h-371l-98 -481q-4 -20 -4 -49q0 -33 17.5 -46.5t59.5 -13.5q71 0 134 27z" />
    <glyph glyph-name="upsilon" unicode="&#x3c5;" horiz-adv-x="1263" 
d="M1180 1122q16 -147 16 -291q0 -87 -8 -168t-28.5 -168t-52.5 -161t-84 -141.5t-119.5 -114.5t-162.5 -75t-209 -28q-209 0 -325.5 93.5t-116.5 283.5q0 76 16 152l123 618h336l-131 -657q-8 -36 -8 -72q0 -145 145 -145q54 0 98 23t73.5 59.5t51.5 89.5t34.5 105.5
t20 115t9.5 111t2 100.5q0 135 -12 270h332z" />
    <glyph glyph-name="phi" unicode="&#x3c6;" horiz-adv-x="1689" 
d="M1634 612q0 -187 -98.5 -333t-269 -225t-381.5 -79l-82 -409h-316l84 418q-234 31 -374 164.5t-140 361.5q0 187 99 333t269 225t380 79l90 446h315l-92 -454q236 -31 376 -165t140 -362zM395 516q0 -120 60.5 -195t165.5 -90l135 668q-148 -2 -254.5 -109t-106.5 -274z
M1294 606q0 120 -60 195t-165 90l-133 -668q147 2 252.5 109t105.5 274z" />
    <glyph glyph-name="chi" unicode="&#x3c7;" horiz-adv-x="1241" 
d="M1022 -432q-95 -25 -180 -25q-68 0 -120 17.5t-85.5 45.5t-57.5 72.5t-36.5 89t-22.5 103.5l-31 195l-317 -500h-387v4l633 827l-33 189q-10 61 -19 99t-22.5 74.5t-31 56t-43 31t-60.5 11.5q-44 0 -100 -16l28 278q97 23 178 23q78 0 136 -25.5t89 -54.5t55.5 -94
t31 -98.5t19.5 -112.5q1 -3 1 -4l15 -97l274 465h387v-4l-594 -780l43 -242q11 -61 19 -96.5t21.5 -72.5t30.5 -55t43 -30t62 -12q42 0 103 14z" />
    <glyph glyph-name="psi" unicode="&#x3c8;" horiz-adv-x="1746" 
d="M1696 881q0 -157 -27 -290t-86.5 -246t-149 -192t-220.5 -124.5t-295 -48.5l-82 -414h-326l84 416q-79 4 -147.5 22t-132 56.5t-108 94.5t-71 142t-26.5 195q0 114 24 239l80 391h334l-88 -444q-21 -105 -21 -178q0 -128 54 -185t155 -65l256 1270h324l-254 -1272
q130 7 218 89t128.5 220t40.5 328q0 123 -14 237h335q15 -132 15 -241z" />
    <glyph glyph-name="omega" unicode="&#x3c9;" horiz-adv-x="1820" 
d="M1749 647q0 -303 -156.5 -487.5t-414.5 -184.5q-137 0 -222.5 57t-113.5 167q-73 -112 -181 -168t-233 -56q-175 0 -273 107.5t-98 308.5q0 217 106.5 408.5t266.5 322.5l373 -20q-402 -334 -402 -656q0 -90 31 -133t96 -43q90 0 143.5 81t88.5 253l53 260h320l-52 -260
q-24 -123 -24 -180q0 -154 123 -154q103 0 164 95.5t61 257.5q0 257 -160 479l369 20q60 -72 97.5 -198t37.5 -277z" />
    <glyph glyph-name="iotadieresis" unicode="&#x3ca;" horiz-adv-x="698" 
d="M537 1286l57 285h295l-58 -285h-294zM57 1286l58 285h295l-58 -285h-295zM561 8q-89 -24 -192 -24q-149 0 -220 55t-71 174q0 62 10 113l160 796h336l-150 -751q-6 -27 -6 -47q0 -32 18.5 -46t59.5 -14q55 0 108 19z" />
    <glyph glyph-name="upsilondieresis" unicode="&#x3cb;" horiz-adv-x="1263" 
d="M827 1286l58 285h295l-58 -285h-295zM348 1286l58 285h294l-57 -285h-295zM1180 1122q16 -147 16 -291q0 -87 -8 -168t-28.5 -168t-52.5 -161t-84 -141.5t-119.5 -114.5t-162.5 -75t-209 -28q-209 0 -325.5 93.5t-116.5 283.5q0 76 16 152l123 618h336l-131 -657
q-8 -36 -8 -72q0 -145 145 -145q54 0 98 23t73.5 59.5t51.5 89.5t34.5 105.5t20 115t9.5 111t2 100.5q0 135 -12 270h332z" />
    <glyph glyph-name="omicrontonos" unicode="&#x3cc;" horiz-adv-x="1255" 
d="M862 1235l-205 16l127 467h330v-4zM549 -25q-100 0 -185 26.5t-153.5 80.5t-108 147t-39.5 215q0 105 25.5 205.5t79 190.5t128.5 158.5t181 108.5t230 40q79 0 149 -16t132 -52t107 -89.5t71 -133t26 -178.5q0 -105 -25.5 -205.5t-78.5 -190.5t-128 -158.5t-181 -108.5
t-230 -40zM573 244q65 0 119.5 38t88.5 100t52.5 135.5t18.5 148.5q0 106 -44.5 159.5t-127.5 53.5q-85 0 -150.5 -66t-96 -160t-30.5 -196q0 -106 43.5 -159.5t126.5 -53.5z" />
    <glyph glyph-name="upsilontonos" unicode="&#x3cd;" horiz-adv-x="1263" 
d="M819 1235l-205 16l127 467h330v-4zM1180 1122q16 -147 16 -291q0 -87 -8 -168t-28.5 -168t-52.5 -161t-84 -141.5t-119.5 -114.5t-162.5 -75t-209 -28q-209 0 -325.5 93.5t-116.5 283.5q0 76 16 152l123 618h336l-131 -657q-8 -36 -8 -72q0 -145 145 -145q54 0 98 23
t73.5 59.5t51.5 89.5t34.5 105.5t20 115t9.5 111t2 100.5q0 135 -12 270h332z" />
    <glyph glyph-name="omegatonos" unicode="&#x3ce;" horiz-adv-x="1820" 
d="M1141 1235l-205 16l127 467h330v-4zM1749 647q0 -303 -156.5 -487.5t-414.5 -184.5q-137 0 -222.5 57t-113.5 167q-73 -112 -181 -168t-233 -56q-175 0 -273 107.5t-98 308.5q0 217 106.5 408.5t266.5 322.5l373 -20q-402 -334 -402 -656q0 -90 31 -133t96 -43
q90 0 143.5 81t88.5 253l53 260h320l-52 -260q-24 -123 -24 -180q0 -154 123 -154q103 0 164 95.5t61 257.5q0 257 -160 479l369 20q60 -72 97.5 -198t37.5 -277z" />
    <glyph glyph-name="uni0400" unicode="&#x400;" horiz-adv-x="1314" 
d="M965 1622l-416 307l303 117l299 -340zM1161 295l-59 -295h-1055l303 1520h1039l-58 -291h-686l-61 -305h604l-58 -281h-604l-69 -348h704z" />
    <glyph glyph-name="uni0401" unicode="&#x401;" horiz-adv-x="1314" 
d="M999 1671l58 287h299l-58 -287h-299zM494 1671l57 287h299l-57 -287h-299zM1161 295l-59 -295h-1055l303 1520h1039l-58 -291h-686l-61 -305h604l-58 -281h-604l-69 -348h704z" />
    <glyph glyph-name="uni0402" unicode="&#x402;" horiz-adv-x="1701" 
d="M1618 514q0 -249 -153 -396t-402 -147q-143 0 -240 33l68 279q56 -25 141 -25q98 0 159.5 59t61.5 162q0 88 -52 127t-183 39q-120 0 -232 -35l-120 -610h-355l246 1229h-399l59 291h1227l-58 -291h-475l-65 -330q129 39 278 39q494 0 494 -424z" />
    <glyph glyph-name="uni0403" unicode="&#x403;" horiz-adv-x="1183" 
d="M815 1622l-178 94l397 330l283 -154zM1290 1219h-645l-244 -1219h-354l303 1520h1000z" />
    <glyph glyph-name="uni0404" unicode="&#x404;" horiz-adv-x="1396" 
d="M1239 106q-75 -59 -203 -97t-284 -38q-306 0 -468.5 160t-162.5 477q0 145 32 279.5t102 255.5t171 210.5t249 142t326 52.5q289 0 443 -123l-123 -319q-120 139 -338 139q-175 0 -291 -87.5t-172 -235.5h621l-60 -281h-610q0 -194 81.5 -280.5t260.5 -86.5q116 0 210 36
t187 114z" />
    <glyph glyph-name="uni0405" unicode="&#x405;" horiz-adv-x="1280" 
d="M-10 119l102 317q100 -76 220.5 -121t242.5 -45q128 0 191 51.5t63 127.5q0 22 -7 41t-16 33t-30.5 28t-35.5 22t-47 20t-50 17.5t-58 18.5q-42 13 -73.5 24.5t-70 30.5t-66 39t-55.5 50.5t-45.5 65.5t-28.5 82t-11 103q0 111 41 205.5t119 166t199.5 112t273.5 40.5
q265 0 457 -116l-99 -318q-177 135 -383 135q-124 0 -183.5 -49t-59.5 -123q0 -19 3.5 -34.5t14.5 -29.5t19.5 -24t29.5 -20.5t33.5 -17t42.5 -16.5t45 -14.5t53 -15.5q60 -17 103 -34t94.5 -49.5t83.5 -72.5t54 -103t22 -142q0 -115 -42.5 -211.5t-123 -168.5t-207 -112.5
t-285.5 -40.5q-297 0 -530 148z" />
    <glyph glyph-name="uni0406" unicode="&#x406;" horiz-adv-x="671" 
d="M47 0l303 1520h355l-304 -1520h-354z" />
    <glyph glyph-name="uni0407" unicode="&#x407;" horiz-adv-x="671" 
d="M631 1671l57 287h299l-57 -287h-299zM166 1671l57 287h299l-57 -287h-299zM47 0l303 1520h355l-304 -1520h-354z" />
    <glyph glyph-name="uni0408" unicode="&#x408;" horiz-adv-x="933" 
d="M-106 33l79 305q101 -59 199 -59q102 0 166 66.5t98 232.5l189 942h354l-201 -1004q-30 -152 -83.5 -258.5t-130 -169t-168 -90t-208.5 -27.5q-155 0 -294 62z" />
    <glyph glyph-name="uni0409" unicode="&#x409;" horiz-adv-x="2306" 
d="M938 0l246 1225h-248q-63 -186 -110.5 -318t-100.5 -262.5t-97 -216.5t-96 -166.5t-103 -128t-112 -84t-128 -51t-148 -14.5q-87 0 -145 14l59 303q30 -10 74 -10q42 0 78 12.5t73 45t69.5 76.5t71.5 120.5t75 161.5t84.5 215.5t95.5 267t112 330.5h907l-110 -557h235
q510 0 510 -414q0 -88 -21 -166t-70.5 -149.5t-125 -122.5t-192.5 -81t-265 -30h-618zM1647 680h-220l-77 -389h237q145 0 213 66t68 165q0 81 -52 119.5t-169 38.5z" />
    <glyph glyph-name="uni040A" unicode="&#x40a;" horiz-adv-x="2306" 
d="M938 0l127 637h-537l-127 -637h-354l303 1520h355l-117 -588h536l117 588h354l-112 -559h239q510 0 510 -412q0 -88 -20.5 -166t-70.5 -149.5t-125.5 -122t-192 -81t-264.5 -30.5h-621zM1649 678h-222l-77 -387h239q145 0 213 66t68 165q0 81 -52 118.5t-169 37.5z" />
    <glyph glyph-name="uni040B" unicode="&#x40b;" horiz-adv-x="1708" 
d="M778 567l-112 -567h-355l246 1229h-399l59 291h1227l-58 -291h-475l-71 -355q161 72 338 72q202 0 304.5 -88.5t102.5 -257.5q0 -68 -14 -139l-92 -461h-355l80 401q10 48 10 84q0 76 -45 109t-143 33q-141 0 -248 -60z" />
    <glyph glyph-name="uni040C" unicode="&#x40c;" horiz-adv-x="1507" 
d="M901 1622l-178 94l397 330l283 -154zM987 0l-448 690l-138 -690h-354l303 1520h355l-138 -686l664 686h467v-4l-813 -744l520 -768v-4h-418z" />
    <glyph glyph-name="uni040D" unicode="&#x40d;" horiz-adv-x="1593" 
d="M1087 1622l-415 307l303 117l299 -340zM977 0l192 963l-776 -963h-346l303 1520h346l-192 -961l776 961h346l-303 -1520h-346z" />
    <glyph glyph-name="uni040E" unicode="&#x40e;" horiz-adv-x="1404" 
d="M545 1987l260 10q-6 -30 -6 -53q0 -119 147 -119q170 0 213 172l273 -10q-87 -361 -510 -361q-183 0 -284 72t-101 211q0 24 8 78zM940 451q-121 -192 -225 -296.5t-206.5 -144t-242.5 -39.5q-145 0 -239 39l75 299q62 -33 148 -33q83 0 134.5 31t113.5 121l-291 1092
h385l156 -807l448 807h418z" />
    <glyph glyph-name="uni040F" unicode="&#x40f;" horiz-adv-x="1556" 
d="M1286 0h-461l-90 -434h-315l88 434h-461l303 1520h355l-246 -1225h530l246 1225h354z" />
    <glyph glyph-name="uni0410" unicode="&#x410;" horiz-adv-x="1521" 
d="M1020 0l-31 317h-532l-154 -317h-401l823 1520h455l215 -1520h-375zM594 602h367l-64 627z" />
    <glyph glyph-name="uni0411" unicode="&#x411;" horiz-adv-x="1439" 
d="M1350 530q0 -85 -20.5 -160t-69.5 -144t-122.5 -118t-186.5 -78.5t-255 -29.5h-649l303 1520h1065l-55 -285h-713l-59 -305h266q248 0 372 -101t124 -299zM776 659h-244l-73 -372h262q138 0 202 63.5t64 157.5q0 78 -50 114.5t-161 36.5z" />
    <glyph glyph-name="uni0412" unicode="&#x412;" horiz-adv-x="1478" 
d="M1370 459q0 -69 -18 -131.5t-63.5 -123.5t-114 -105.5t-178 -71.5t-248.5 -27h-701l303 1520h637q122 0 209.5 -24.5t139 -71.5t75 -108.5t23.5 -141.5q0 -66 -16 -123.5t-52 -111t-101.5 -94.5t-156.5 -63q262 -68 262 -323zM885 1235h-248l-70 -340h273q64 0 111 17.5
t72 48t36.5 64t11.5 71.5q0 74 -46 106.5t-140 32.5zM811 653h-291l-74 -366h308q127 0 190.5 60.5t63.5 152.5q0 153 -197 153z" />
    <glyph glyph-name="uni0413" unicode="&#x413;" horiz-adv-x="1183" 
d="M1290 1219h-645l-244 -1219h-354l303 1520h1000z" />
    <glyph glyph-name="uni0414" unicode="&#x414;" horiz-adv-x="1667" 
d="M-174 -412l141 707h72q67 49 136 133t152 223.5t173.5 362t177.5 506.5h919l-245 -1225h202l-141 -707h-317l84 412h-955l-84 -412h-315zM455 295h549l186 930h-275q-193 -612 -460 -930z" />
    <glyph glyph-name="uni0415" unicode="&#x415;" horiz-adv-x="1314" 
d="M1161 295l-59 -295h-1055l303 1520h1039l-58 -291h-686l-61 -305h604l-58 -281h-604l-69 -348h704z" />
    <glyph glyph-name="uni0416" unicode="&#x416;" horiz-adv-x="2193" 
d="M811 0l139 698l-590 -698h-464v4l747 791l-432 721v4h405l363 -678l135 678h348l-137 -691l582 691h460v-4l-731 -760l437 -752v-4h-414l-363 688l-137 -688h-348z" />
    <glyph glyph-name="uni0417" unicode="&#x417;" horiz-adv-x="1347" 
d="M1235 461q0 -225 -186 -357.5t-531 -132.5q-332 0 -530 131l110 310q73 -63 181.5 -100.5t242.5 -37.5q146 0 238 56t92 159q0 73 -57 107.5t-205 34.5h-236l60 282h229q166 0 239.5 51.5t73.5 135.5q0 145 -237 145q-222 0 -424 -125l-29 305q240 123 553 123
q262 0 389 -90t127 -274q0 -148 -86.5 -255t-269.5 -149q256 -68 256 -319z" />
    <glyph glyph-name="uni0418" unicode="&#x418;" horiz-adv-x="1593" 
d="M977 0l192 963l-776 -963h-346l303 1520h346l-192 -961l776 961h346l-303 -1520h-346z" />
    <glyph glyph-name="uni0419" unicode="&#x419;" horiz-adv-x="1593" 
d="M639 1987l260 10q-6 -30 -6 -53q0 -119 147 -119q170 0 213 172l273 -10q-87 -361 -510 -361q-183 0 -284 72t-101 211q0 24 8 78zM977 0l192 963l-776 -963h-346l303 1520h346l-192 -961l776 961h346l-303 -1520h-346z" />
    <glyph glyph-name="uni041A" unicode="&#x41a;" horiz-adv-x="1507" 
d="M987 0l-448 690l-138 -690h-354l303 1520h355l-138 -686l664 686h467v-4l-813 -744l520 -768v-4h-418z" />
    <glyph glyph-name="uni041B" unicode="&#x41b;" horiz-adv-x="1568" 
d="M944 0l246 1225h-254q-63 -186 -110.5 -318t-100.5 -262.5t-97 -216.5t-96 -166.5t-103 -128t-112 -84t-128 -51t-148 -14.5q-87 0 -145 14l59 303q30 -10 74 -10q42 0 78 12.5t73 45t69.5 76.5t71.5 120.5t75 161.5t84.5 215.5t95.5 267t112 330.5h914l-304 -1520h-354z
" />
    <glyph glyph-name="uni041C" unicode="&#x41c;" horiz-adv-x="2043" 
d="M788 0l-182 1153l-231 -1153h-328l303 1520h481l166 -1045l559 1045h519l-303 -1520h-340l231 1159l-627 -1159h-248z" />
    <glyph glyph-name="uni041D" unicode="&#x41d;" horiz-adv-x="1576" 
d="M952 0l127 637h-551l-127 -637h-354l303 1520h355l-117 -588h551l116 588h355l-303 -1520h-355z" />
    <glyph glyph-name="uni041E" unicode="&#x41e;" horiz-adv-x="1597" 
d="M713 -29q-279 0 -437.5 162t-158.5 451q0 147 34.5 287t105 263t169.5 215t237.5 145.5t299.5 53.5q279 0 437.5 -161.5t158.5 -450.5q0 -147 -34.5 -287t-105 -263t-169.5 -215.5t-237.5 -146t-299.5 -53.5zM750 279q103 0 188.5 57.5t138 150.5t81 204t28.5 224
q0 326 -260 326q-83 0 -154.5 -38t-122.5 -101.5t-88 -146t-54.5 -172t-17.5 -179.5q0 -325 261 -325z" />
    <glyph glyph-name="uni041F" unicode="&#x41f;" horiz-adv-x="1556" 
d="M932 0l244 1225h-531l-244 -1225h-354l303 1520h1239l-303 -1520h-354z" />
    <glyph glyph-name="uni0420" unicode="&#x420;" horiz-adv-x="1409" 
d="M713 459h-219l-93 -459h-354l303 1520h565q527 0 527 -451q0 -97 -23.5 -183.5t-79 -165.5t-137.5 -136t-207.5 -91t-281.5 -34zM840 1229h-193l-96 -484h194q90 0 156.5 24.5t103.5 67.5t54.5 93t17.5 108q0 98 -54 144.5t-183 46.5z" />
    <glyph glyph-name="uni0421" unicode="&#x421;" horiz-adv-x="1400" 
d="M1264 123q-83 -65 -216 -108.5t-298 -43.5q-302 0 -465.5 160.5t-163.5 472.5q0 145 34.5 281.5t107.5 257t177 210.5t251.5 142.5t322.5 52.5q285 0 446 -135l-123 -323q-125 151 -336 151q-117 0 -215 -51t-161 -135.5t-98 -192.5t-35 -225q0 -358 327 -358
q230 0 420 172z" />
    <glyph glyph-name="uni0422" unicode="&#x422;" horiz-adv-x="1277" 
d="M1386 1229h-434l-245 -1229h-355l246 1229h-440l59 291h1227z" />
    <glyph glyph-name="uni0423" unicode="&#x423;" horiz-adv-x="1404" 
d="M940 451q-121 -192 -225 -296.5t-206.5 -144t-242.5 -39.5q-145 0 -239 39l75 299q62 -33 148 -33q83 0 134.5 31t113.5 121l-291 1092h385l156 -807l448 807h418z" />
    <glyph glyph-name="uni0424" unicode="&#x424;" horiz-adv-x="1921" 
d="M1063 168h-12l-41 -205h-338l41 205q-173 3 -308 63t-213.5 177t-78.5 274q0 219 101.5 372.5t286.5 229.5t439 76h12l39 196h338l-39 -196q264 -5 432 -142t168 -372q0 -219 -101.5 -372.5t-286.5 -229.5t-439 -76zM1522 821q0 126 -78 193t-211 67l-127 -635h14
q181 0 291.5 97t110.5 278zM481 707q0 -126 78 -193.5t209 -67.5l127 635h-12q-181 0 -291.5 -96.5t-110.5 -277.5z" />
    <glyph glyph-name="uni0425" unicode="&#x425;" horiz-adv-x="1445" 
d="M913 0l-204 520l-367 -520h-440l653 782l-338 738h408l196 -498l346 498h443l-637 -762l348 -758h-408z" />
    <glyph glyph-name="uni0426" unicode="&#x426;" horiz-adv-x="1640" 
d="M1530 295l-144 -707h-315l82 412h-1106l303 1520h355l-246 -1225h514l246 1225h354l-246 -1225h203z" />
    <glyph glyph-name="uni0427" unicode="&#x427;" horiz-adv-x="1466" 
d="M1499 1520l-303 -1520h-354l108 543q-167 -72 -338 -72q-213 0 -321.5 98.5t-108.5 274.5q0 64 15 135l106 541h354l-96 -484q-12 -70 -12 -100q0 -80 48.5 -114t160.5 -34q142 0 252 54l135 678h354z" />
    <glyph glyph-name="uni0428" unicode="&#x428;" horiz-adv-x="2174" 
d="M2206 1520l-303 -1520h-1856l303 1520h355l-246 -1225h397l246 1225h352l-246 -1225h400l243 1225h355z" />
    <glyph glyph-name="uni0429" unicode="&#x429;" horiz-adv-x="2273" 
d="M2163 295l-142 -707h-317l82 412h-1739l303 1520h355l-246 -1225h397l246 1225h352l-246 -1225h398l245 1225h355l-246 -1225h203z" />
    <glyph glyph-name="uni042A" unicode="&#x42a;" horiz-adv-x="1691" 
d="M1618 561q0 -90 -20.5 -169t-71 -152t-127 -125.5t-195.5 -83.5t-270 -31h-619l246 1227h-416l58 293h768l-107 -537h238q516 0 516 -422zM1028 700h-221l-82 -409h242q150 0 218 69t68 172q0 87 -52 127.5t-173 40.5z" />
    <glyph glyph-name="uni042B" unicode="&#x42b;" horiz-adv-x="2033" 
d="M1327 561q0 -90 -20.5 -169t-70.5 -152t-126 -125.5t-195 -83.5t-270 -31h-598l303 1520h355l-107 -537h215q261 0 387.5 -105.5t126.5 -316.5zM1407 0l305 1520h354l-305 -1520h-354zM739 700h-198l-82 -409h219q78 0 136 20t89.5 55.5t46.5 76.5t15 89q0 86 -52.5 127
t-173.5 41z" />
    <glyph glyph-name="uni042C" unicode="&#x42c;" horiz-adv-x="1433" 
d="M1360 561q0 -90 -20.5 -169t-71 -152t-127 -125.5t-195.5 -83.5t-270 -31h-629l303 1520h355l-107 -537h246q516 0 516 -422zM770 700h-229l-82 -409h250q150 0 218 69t68 172q0 87 -52 127.5t-173 40.5z" />
    <glyph glyph-name="uni042D" unicode="&#x42d;" horiz-adv-x="1396" 
d="M1354 899q0 -143 -30.5 -275t-99 -252t-168.5 -208.5t-249.5 -140.5t-331.5 -52q-155 0 -281.5 35.5t-197.5 95.5l113 310q59 -64 154 -101t212 -37q188 0 313.5 98.5t178.5 268.5h-627l59 281h602q-9 166 -88 244.5t-247 78.5q-223 0 -381 -125l-33 305
q93 58 222.5 90.5t262.5 32.5q141 0 252.5 -37.5t194 -114.5t126.5 -202.5t44 -294.5z" />
    <glyph glyph-name="uni042E" unicode="&#x42e;" horiz-adv-x="2232" 
d="M2193 940q0 -147 -33.5 -287.5t-103 -264t-166.5 -216.5t-232.5 -147t-293.5 -54q-270 0 -425 160.5t-155 448.5q0 39 2 57h-258l-127 -637h-354l303 1520h355l-117 -588h248q41 132 110 242t165 194.5t225 132t278 47.5q270 0 424.5 -160t154.5 -448zM1401 279
q98 0 180 58.5t133 152t79 205.5t28 225q0 321 -244 321q-99 0 -181 -58.5t-132.5 -152t-78.5 -205.5t-28 -225q0 -321 244 -321z" />
    <glyph glyph-name="uni042F" unicode="&#x42f;" horiz-adv-x="1497" 
d="M872 0l101 498h-225l-400 -498h-444l524 575q-95 58 -149 154.5t-54 228.5q0 114 43 215.5t122 179t200 122.5t268 45h670l-303 -1520h-353zM801 780h227l90 449h-252q-134 0 -206 -71t-72 -181q0 -97 56.5 -147t156.5 -50z" />
    <glyph glyph-name="uni0430" unicode="&#x430;" horiz-adv-x="1212" 
d="M666 0l22 145q-138 -170 -352 -170q-139 0 -225 78t-86 226q0 200 164.5 310.5t476.5 110.5h114q8 40 8 68q0 66 -41 93.5t-135 27.5q-198 0 -372 -115l-15 262q89 52 214 81.5t259 29.5q217 0 323.5 -84t106.5 -242q0 -57 -12 -121l-141 -700h-309zM475 221
q75 0 138.5 41t101.5 113l28 141h-71q-156 0 -239 -48.5t-83 -135.5q0 -55 33 -83t92 -28z" />
    <glyph glyph-name="uni0431" unicode="&#x431;" horiz-adv-x="1261" 
d="M1192 662q0 -106 -26.5 -206.5t-81 -187.5t-130.5 -152.5t-182 -103t-229 -37.5q-224 0 -340.5 123t-116.5 359q0 121 31 276q78 396 256.5 593t496.5 235l449 53l-59 -299l-451 -55q-151 -19 -244.5 -111t-142.5 -270q153 190 389 190q180 0 280.5 -100.5t100.5 -306.5z
M410 453q0 -209 159 -209q84 0 150.5 59t99.5 146.5t33 181.5t-38.5 139t-117.5 45q-81 0 -148 -45t-112 -127q-26 -114 -26 -190z" />
    <glyph glyph-name="uni0432" unicode="&#x432;" horiz-adv-x="1257" 
d="M1139 340q0 -52 -13 -98.5t-45.5 -91.5t-82 -77.5t-127.5 -52.5t-177 -20h-676l224 1122h608q346 0 346 -256q0 -104 -58 -182.5t-190 -108.5q191 -49 191 -235zM743 887h-223l-45 -223h232q80 0 117.5 37t37.5 92q0 49 -29 71.5t-90 22.5zM678 473h-242l-47 -233h252
q81 0 120.5 38t39.5 97q0 51 -30 74.5t-93 23.5z" />
    <glyph glyph-name="uni0433" unicode="&#x433;" horiz-adv-x="991" 
d="M1006 844h-482l-170 -844h-336l224 1122h819z" />
    <glyph glyph-name="uni0434" unicode="&#x434;" horiz-adv-x="1433" 
d="M-176 -412l139 682h70q269 181 467 852h807l-170 -852h190l-139 -682h-305l82 412h-752l-82 -412h-307zM430 270h377l115 582h-199q-111 -357 -293 -582z" />
    <glyph glyph-name="uni0435" unicode="&#x435;" horiz-adv-x="1210" 
d="M1049 88q-196 -113 -459 -113q-527 0 -527 465q0 103 25 202.5t78.5 191.5t129.5 161t187.5 110.5t243.5 41.5q100 0 176.5 -24t123.5 -63t77 -94t41.5 -111t11.5 -120q0 -145 -51 -256h-707q0 -65 11.5 -109t41 -76t81.5 -46.5t131 -14.5q204 0 370 115zM700 913
q-100 0 -167 -67t-101 -174h402q16 31 16 86q0 155 -150 155z" />
    <glyph glyph-name="uni0436" unicode="&#x436;" horiz-adv-x="1832" 
d="M641 0l104 520l-450 -520h-414v4l570 590l-328 524v4h369l276 -487l98 487h326l-100 -501l436 501h407v-4l-544 -553l338 -561v-4h-377l-283 506l-102 -506h-326z" />
    <glyph glyph-name="uni0437" unicode="&#x437;" horiz-adv-x="1134" 
d="M1012 344q0 -177 -152.5 -273t-435.5 -96q-152 0 -253.5 26.5t-182.5 74.5l94 264q49 -48 137.5 -77.5t198.5 -29.5q109 0 173 33.5t64 100.5q0 46 -40.5 68t-149.5 22h-209l45 225h203q219 0 219 117q0 94 -168 94q-175 0 -346 -107l-29 263q200 98 469 98
q430 0 430 -273q0 -110 -66 -187t-188 -109q187 -49 187 -234z" />
    <glyph glyph-name="uni0438" unicode="&#x438;" horiz-adv-x="1320" 
d="M752 0l131 659l-541 -659h-324l224 1122h327l-133 -659l543 659h324l-226 -1122h-325z" />
    <glyph glyph-name="uni0439" unicode="&#x439;" horiz-adv-x="1320" 
d="M457 1649l256 10q-13 -76 -13 -96q0 -60 28.5 -87.5t88.5 -27.5q77 0 120.5 50t68.5 161l272 -10q-42 -206 -170 -303t-315 -97q-166 0 -257.5 73.5t-91.5 215.5q0 48 13 111zM752 0l131 659l-541 -659h-324l224 1122h327l-133 -659l543 659h324l-226 -1122h-325z" />
    <glyph glyph-name="uni043A" unicode="&#x43a;" horiz-adv-x="1261" 
d="M791 0l-334 514l-103 -514h-336l224 1122h336l-99 -491l471 491h414v-4l-578 -538l385 -576v-4h-380z" />
    <glyph glyph-name="uni043B" unicode="&#x43b;" horiz-adv-x="1314" 
d="M737 0l168 852h-192q-39 -122 -70.5 -211.5t-67.5 -178.5t-69 -150.5t-72 -119t-79.5 -93.5t-89.5 -63.5t-104.5 -39.5t-121.5 -12q-69 0 -125 14l55 281q23 -9 51 -9q44 0 81.5 20.5t75 69t70.5 111t73.5 166t77.5 213.5t89 272h809l-223 -1122h-336z" />
    <glyph glyph-name="uni043C" unicode="&#x43c;" horiz-adv-x="1660" 
d="M612 0l-127 807l-159 -807h-308l224 1122h438l115 -727l389 727h458l-223 -1122h-313l160 801l-430 -801h-224z" />
    <glyph glyph-name="uni043D" unicode="&#x43d;" horiz-adv-x="1298" 
d="M721 0l88 438h-367l-88 -438h-336l224 1122h336l-82 -411h368l82 411h336l-225 -1122h-336z" />
    <glyph glyph-name="uni043E" unicode="&#x43e;" horiz-adv-x="1255" 
d="M549 -25q-100 0 -185 26.5t-153.5 80.5t-108 147t-39.5 215q0 105 25.5 205.5t79 190.5t128.5 158.5t181 108.5t230 40q79 0 149 -16t132 -52t107 -89.5t71 -133t26 -178.5q0 -105 -25.5 -205.5t-78.5 -190.5t-128 -158.5t-181 -108.5t-230 -40zM573 244q65 0 119.5 38
t88.5 100t52.5 135.5t18.5 148.5q0 106 -44.5 159.5t-127.5 53.5q-85 0 -150.5 -66t-96 -160t-30.5 -196q0 -106 43.5 -159.5t126.5 -53.5z" />
    <glyph glyph-name="uni043F" unicode="&#x43f;" horiz-adv-x="1286" 
d="M709 0l168 852h-353l-170 -852h-336l224 1122h1026l-224 -1122h-335z" />
    <glyph glyph-name="uni0440" unicode="&#x440;" horiz-adv-x="1314" 
d="M668 -25q-184 0 -295 123l-107 -532h-336l312 1556h309l-29 -178q140 203 365 203q175 0 269.5 -116.5t94.5 -325.5q0 -113 -25 -220t-75 -199t-119 -161.5t-163 -109.5t-201 -40zM494 696l-72 -354q25 -44 74.5 -71t109.5 -27q89 0 159 59t106 152t36 200
q0 211 -170 211q-77 0 -139.5 -43.5t-103.5 -126.5z" />
    <glyph glyph-name="uni0441" unicode="&#x441;" horiz-adv-x="1073" 
d="M928 94q-71 -52 -172.5 -85.5t-220.5 -33.5q-220 0 -346 120.5t-126 350.5q0 85 18 168.5t53.5 162.5t92 146t128 117t167 78.5t205.5 28.5q121 0 211 -33t143 -86l-100 -264q-93 108 -244 108q-84 0 -150 -35t-105 -93t-59 -125.5t-20 -139.5q0 -229 218 -229
q161 0 288 108z" />
    <glyph glyph-name="uni0442" unicode="&#x442;" horiz-adv-x="1073" 
d="M1090 852h-328l-170 -852h-336l170 852h-328l56 270h991z" />
    <glyph glyph-name="uni0443" unicode="&#x443;" horiz-adv-x="1222" 
d="M692 10q-81 -146 -152.5 -240.5t-145 -147.5t-144 -73t-162.5 -20q-137 0 -229 47l75 270q84 -43 166 -43q65 0 118.5 38t111.5 134l-203 1147h365l71 -821l371 821h375z" />
    <glyph glyph-name="uni0444" unicode="&#x444;" horiz-adv-x="1697" 
d="M1645 662q0 -166 -54.5 -295t-155 -211.5t-236.5 -126t-304 -45.5l-84 -418h-322l84 418q-229 6 -373.5 135t-144.5 342q0 166 55 295t155.5 211.5t236.5 126t303 45.5l92 454h320l-91 -454q229 -6 374 -135t145 -342zM1075 887l-131 -651q162 0 262.5 103t100.5 294
q0 116 -60.5 185t-171.5 69zM395 489q0 -116 59.5 -184.5t170.5 -68.5l131 651q-160 0 -260.5 -103.5t-100.5 -294.5z" />
    <glyph glyph-name="uni0445" unicode="&#x445;" horiz-adv-x="1200" 
d="M700 0l-145 350l-252 -350h-401v4l510 576l-277 538v4h373l137 -338l242 338h399v-4l-495 -561l282 -553v-4h-373z" />
    <glyph glyph-name="uni0446" unicode="&#x446;" horiz-adv-x="1394" 
d="M1288 270l-139 -682h-305l82 412h-908l224 1122h336l-168 -852h352l170 852h336l-170 -852h190z" />
    <glyph glyph-name="uni0447" unicode="&#x447;" horiz-adv-x="1230" 
d="M1212 1122l-223 -1122h-336l76 385q-137 -55 -283 -55q-163 0 -248 72t-85 204q0 36 10 94l84 422h336l-70 -348q-8 -40 -8 -63q0 -53 33.5 -76t109.5 -23q94 0 174 35l95 475h335z" />
    <glyph glyph-name="uni0448" unicode="&#x448;" horiz-adv-x="1892" 
d="M1874 1122l-223 -1122h-1633l224 1122h336l-168 -852h311l170 852h336l-170 -852h311l170 852h336z" />
    <glyph glyph-name="uni0449" unicode="&#x449;" horiz-adv-x="1998" 
d="M1894 270l-139 -682h-305l82 412h-1514l224 1122h336l-168 -852h311l170 852h336l-170 -852h311l170 852h336l-170 -852h190z" />
    <glyph glyph-name="uni044A" unicode="&#x44a;" horiz-adv-x="1439" 
d="M1354 438q0 -70 -16 -131.5t-55.5 -119t-100 -98t-155.5 -65t-216 -24.5h-565l172 852h-320l56 270h655l-72 -348h203q212 0 313 -84.5t101 -251.5zM848 541h-158l-61 -295h174q112 0 162.5 49.5t50.5 124.5q0 62 -40 91.5t-128 29.5z" />
    <glyph glyph-name="uni044B" unicode="&#x44b;" horiz-adv-x="1740" 
d="M1104 438q0 -70 -16 -131.5t-55.5 -119t-100 -98t-155.5 -65t-216 -24.5h-543l224 1122h336l-70 -348h184q211 0 311.5 -84.5t100.5 -251.5zM1163 0l226 1122h335l-225 -1122h-336zM598 541h-137l-60 -295h152q112 0 162.5 49.5t50.5 124.5q0 63 -39.5 92t-128.5 29z" />
    <glyph glyph-name="uni044C" unicode="&#x44c;" horiz-adv-x="1220" 
d="M1135 438q0 -70 -16 -131.5t-55.5 -119t-100 -98t-155.5 -65t-216 -24.5h-574l224 1122h336l-70 -348h213q212 0 313 -84.5t101 -251.5zM629 541h-168l-60 -295h183q111 0 161 49.5t50 124.5q0 62 -39 91.5t-127 29.5z" />
    <glyph glyph-name="uni044D" unicode="&#x44d;" horiz-adv-x="1136" 
d="M1071 651q0 -109 -23.5 -206t-76.5 -184t-131.5 -150t-196 -99.5t-262.5 -36.5q-127 0 -233 27t-168 74l94 264q46 -50 126 -78.5t175 -28.5q138 0 223 60t121 166h-473l45 227h452q-9 109 -65 156t-170 47q-184 0 -305 -103l-27 263q161 98 399 98q241 0 368.5 -123.5
t127.5 -372.5z" />
    <glyph glyph-name="uni044E" unicode="&#x44e;" horiz-adv-x="1822" 
d="M1761 682q0 -105 -25 -206t-77 -191.5t-125.5 -159.5t-178 -109.5t-225.5 -40.5q-95 0 -177.5 26t-150.5 79t-107.5 145t-39.5 213h-213l-88 -438h-336l224 1122h336l-82 -411h204q32 92 84 169.5t124 138t169 94.5t209 34q95 0 177.5 -26t150.5 -79t107.5 -145.5
t39.5 -214.5zM1155 244q82 0 145 67t92 162t29 197q0 104 -41.5 156.5t-117.5 52.5q-83 0 -145.5 -67t-92 -162t-29.5 -197q0 -104 42 -156.5t118 -52.5z" />
    <glyph glyph-name="uni044F" unicode="&#x44f;" horiz-adv-x="1261" 
d="M682 0l72 360h-150l-278 -360h-402v4l379 412q-156 93 -156 286q0 178 126.5 299t342.5 121h627l-225 -1122h-336zM621 594h180l57 285h-194q-85 0 -132 -45t-47 -115q0 -61 36.5 -93t99.5 -32z" />
    <glyph glyph-name="uni0450" unicode="&#x450;" horiz-adv-x="1210" 
d="M721 1239l-285 434l297 45l182 -440zM1049 88q-196 -113 -459 -113q-527 0 -527 465q0 103 25 202.5t78.5 191.5t129.5 161t187.5 110.5t243.5 41.5q100 0 176.5 -24t123.5 -63t77 -94t41.5 -111t11.5 -120q0 -145 -51 -256h-707q0 -65 11.5 -109t41 -76t81.5 -46.5
t131 -14.5q204 0 370 115zM700 913q-100 0 -167 -67t-101 -174h402q16 31 16 86q0 155 -150 155z" />
    <glyph glyph-name="uni0451" unicode="&#x451;" horiz-adv-x="1210" 
d="M854 1286l57 285h295l-57 -285h-295zM375 1286l57 285h295l-57 -285h-295zM1049 88q-196 -113 -459 -113q-527 0 -527 465q0 103 25 202.5t78.5 191.5t129.5 161t187.5 110.5t243.5 41.5q100 0 176.5 -24t123.5 -63t77 -94t41.5 -111t11.5 -120q0 -145 -51 -256h-707
q0 -65 11.5 -109t41 -76t81.5 -46.5t131 -14.5q204 0 370 115zM700 913q-100 0 -167 -67t-101 -174h402q16 31 16 86q0 155 -150 155z" />
    <glyph glyph-name="uni0452" unicode="&#x452;" horiz-adv-x="1288" 
d="M1067 25q-28 -139 -76 -237.5t-114 -154t-140 -80t-166 -24.5q-124 0 -215 41l70 266q60 -33 121 -33q68 0 112 42.5t66 150.5l119 592q8 39 8 76q0 57 -26.5 83.5t-82.5 26.5q-74 0 -144.5 -43.5t-113.5 -128.5l-120 -602h-336l243 1214h-161l41 197h159l37 182h336
l-37 -182h361l-39 -197h-361l-67 -340q152 187 368 187q133 0 212 -76t79 -229q0 -68 -16 -144z" />
    <glyph glyph-name="uni0453" unicode="&#x453;" horiz-adv-x="991" 
d="M666 1239l-203 51l311 428l301 -82zM1006 844h-482l-170 -844h-336l224 1122h819z" />
    <glyph glyph-name="uni0454" unicode="&#x454;" horiz-adv-x="1136" 
d="M967 76q-157 -101 -396 -101q-508 0 -508 476q0 108 25 207.5t80 189.5t135 156t198 104.5t261 38.5q124 0 217.5 -28t146.5 -72l-98 -265q-100 107 -278 107q-123 0 -202.5 -55t-119.5 -148h463l-45 -227h-457q3 -117 58 -171.5t180 -54.5q180 0 323 109z" />
    <glyph glyph-name="uni0455" unicode="&#x455;" horiz-adv-x="1038" 
d="M-14 88l86 264q75 -58 167 -91.5t185 -33.5q88 0 130 30t42 73q0 24 -13 42t-42 33t-54 23.5t-71 22.5t-78.5 26t-73.5 36.5t-66 54.5t-43 78t-18 108q0 182 135.5 287.5t378.5 105.5q212 0 367 -92l-88 -264q-137 106 -291 106q-82 0 -125 -30t-43 -74q0 -16 5 -29
t19.5 -24.5t25.5 -18.5t37.5 -16.5t39.5 -14t47 -14.5q47 -14 80 -27t75 -38.5t68 -56t44 -79t18 -108.5q0 -181 -137 -286.5t-387 -105.5q-236 0 -420 113z" />
    <glyph glyph-name="uni0456" unicode="&#x456;" horiz-adv-x="604" 
d="M268 1286l58 285h358l-57 -285h-359zM23 0l223 1122h336l-224 -1122h-335z" />
    <glyph glyph-name="uni0457" unicode="&#x457;" horiz-adv-x="626" 
d="M516 1286l57 285h281l-57 -285h-281zM121 1286l57 285h281l-58 -285h-280zM35 0l223 1122h336l-223 -1122h-336z" />
    <glyph glyph-name="uni0458" unicode="&#x458;" horiz-adv-x="620" 
d="M291 1286l57 285h359l-58 -285h-358zM-344 -426l78 270q60 -37 127 -37q70 0 116.5 46t69.5 159l223 1110h336l-217 -1079q-29 -144 -79 -245.5t-117 -159.5t-143.5 -83.5t-170.5 -25.5q-131 0 -223 45z" />
    <glyph glyph-name="uni0459" unicode="&#x459;" horiz-adv-x="1916" 
d="M729 0l170 852h-186q-39 -122 -70.5 -211.5t-67.5 -178.5t-69 -150.5t-72 -119t-79.5 -93.5t-89.5 -63.5t-104.5 -39.5t-121.5 -12q-69 0 -125 14l55 281q23 -9 51 -9q44 0 81.5 20.5t75 69t70.5 111t73.5 166t77.5 213.5t89 272h803l-73 -364h206q208 0 308 -82.5
t100 -247.5q0 -68 -16 -128t-55.5 -116t-99 -96t-153.5 -64t-213 -24h-565zM1331 524h-160l-57 -278h174q108 0 155.5 47t47.5 117q0 61 -36.5 87.5t-123.5 26.5z" />
    <glyph glyph-name="uni045A" unicode="&#x45a;" horiz-adv-x="1900" 
d="M715 0l88 446h-361l-88 -446h-336l224 1122h336l-80 -401h360l80 401h336l-74 -364h207q210 0 309 -82.5t99 -247.5q0 -68 -16 -128t-55 -116t-98.5 -96t-153.5 -64t-214 -24h-563zM1315 524h-160l-57 -278h174q108 0 156.5 47t48.5 117q0 60 -37.5 87t-124.5 27z" />
    <glyph glyph-name="uni045B" unicode="&#x45b;" horiz-adv-x="1288" 
d="M485 602l-120 -602h-336l243 1214h-161l41 197h159l37 182h336l-37 -182h361l-39 -197h-361l-67 -340q152 187 368 187q133 0 212 -76t79 -229q0 -68 -16 -144l-123 -612h-336l119 588q8 39 8 76q0 57 -26.5 83.5t-82.5 26.5q-74 0 -144.5 -43.5t-113.5 -128.5z" />
    <glyph glyph-name="uni045C" unicode="&#x45c;" horiz-adv-x="1261" 
d="M764 1239l-203 51l311 428l302 -82zM791 0l-334 514l-103 -514h-336l224 1122h336l-99 -491l471 491h414v-4l-578 -538l385 -576v-4h-380z" />
    <glyph glyph-name="uni045D" unicode="&#x45d;" horiz-adv-x="1320" 
d="M756 1239l-285 434l297 45l182 -440zM752 0l131 659l-541 -659h-324l224 1122h327l-133 -659l543 659h324l-226 -1122h-325z" />
    <glyph glyph-name="uni045E" unicode="&#x45e;" horiz-adv-x="1222" 
d="M418 1649l256 10q-12 -70 -12 -96q0 -60 28 -87.5t88 -27.5q77 0 120.5 50t68.5 161l272 -10q-42 -206 -170 -303t-315 -97q-166 0 -257 73.5t-91 215.5q0 52 12 111zM692 10q-81 -146 -152.5 -240.5t-145 -147.5t-144 -73t-162.5 -20q-137 0 -229 47l75 270
q84 -43 166 -43q65 0 118.5 38t111.5 134l-203 1147h365l71 -821l371 821h375z" />
    <glyph glyph-name="uni045F" unicode="&#x45f;" 
d="M1049 0h-355l-88 -434h-307l90 434h-371l224 1122h336l-168 -852h358l170 852h336z" />
    <glyph glyph-name="uni0462" unicode="&#x462;" horiz-adv-x="1556" 
d="M1473 524q0 -84 -20.5 -158t-69.5 -142t-122.5 -117t-186.5 -78t-255 -29h-616l225 1128h-303l47 232h301l47 233h354l-47 -233h490l-47 -232h-488l-41 -208h236q247 0 371.5 -100t124.5 -296zM899 647h-213l-72 -360h230q137 0 201.5 62.5t64.5 152.5q0 74 -51 109.5
t-160 35.5z" />
    <glyph glyph-name="uni0463" unicode="&#x463;" horiz-adv-x="1271" 
d="M1180 416q0 -66 -15.5 -124.5t-54 -113t-96.5 -93t-149 -62t-206 -23.5h-565l182 913h-192l41 209h192l80 398h336l-80 -398h346l-43 -209h-344l-34 -176h204q204 0 301 -80.5t97 -240.5zM684 514h-152l-53 -268h164q104 0 151.5 44.5t47.5 112.5q0 58 -36.5 84.5
t-121.5 26.5z" />
    <glyph glyph-name="uni0472" unicode="&#x472;" horiz-adv-x="1597" 
d="M713 -29q-279 0 -437.5 162t-158.5 451q0 147 34.5 287t105 263t169.5 215t237.5 145.5t299.5 53.5q279 0 437.5 -161.5t158.5 -450.5q0 -147 -34.5 -287t-105 -263t-169.5 -215.5t-237.5 -146t-299.5 -53.5zM928 1245q-146 0 -250.5 -97.5t-159.5 -254.5h686
q0 181 -69 266.5t-207 85.5zM471 600q0 -159 70.5 -242.5t206.5 -83.5q78 0 146 29t119 81t88.5 118t61.5 145h-690q-2 -16 -2 -47z" />
    <glyph glyph-name="uni0473" unicode="&#x473;" horiz-adv-x="1255" 
d="M549 -25q-100 0 -185 26.5t-153.5 80.5t-108 147t-39.5 215q0 105 25.5 205.5t79 190.5t128.5 158.5t181 108.5t230 40q79 0 149 -16t132 -52t107 -89.5t71 -133t26 -178.5q0 -105 -25.5 -205.5t-78.5 -190.5t-128 -158.5t-181 -108.5t-230 -40zM686 889
q-96 0 -163 -60.5t-103 -164.5h446q0 225 -180 225zM387 473q0 -240 180 -240q101 0 170 65t101 175h-451z" />
    <glyph glyph-name="uni0474" unicode="&#x474;" horiz-adv-x="1597" 
d="M1323 997l-510 -997h-395l-209 1520h375l104 -1114l264 587q77 172 150.5 283t151 170t151.5 80.5t172 21.5q144 0 225 -47l-100 -315q-22 13 -33.5 18.5t-36 12t-51.5 6.5q-77 0 -134 -49t-124 -177z" />
    <glyph glyph-name="uni0475" unicode="&#x475;" horiz-adv-x="1286" 
d="M1038 700l-366 -700h-373l-168 1122h348l68 -805l186 418q56 125 109.5 206t113 126t120.5 62.5t141 17.5q117 0 190 -37l-88 -289q-38 27 -94 27q-60 0 -102 -33t-85 -115z" />
    <glyph glyph-name="uni0490" unicode="&#x490;" horiz-adv-x="1183" 
d="M1278 1219h-633l-244 -1219h-354l301 1520h688l109 376h295z" />
    <glyph glyph-name="uni0491" unicode="&#x491;" horiz-adv-x="1005" 
d="M1018 844h-496l-170 -844h-334l224 1122h546l113 377h270z" />
    <glyph glyph-name="uni0492" unicode="&#x492;" horiz-adv-x="1253" 
d="M987 610h-397l-121 -610h-354l121 610h-195l51 256h195l131 654h999l-59 -301h-645l-72 -353h397z" />
    <glyph glyph-name="uni0493" unicode="&#x493;" horiz-adv-x="1064" 
d="M817 399h-307l-80 -399h-336l80 399h-170l47 226h168l98 497h820l-56 -278h-481l-45 -219h307z" />
    <glyph glyph-name="uni0496" unicode="&#x496;" horiz-adv-x="2301" 
d="M2210 295l-142 -707h-317l84 412h-176l-363 688l-137 -688h-348l139 698l-590 -698h-464v4l747 791l-432 721v4h405l363 -678l135 678h348l-137 -691l582 691h460v-4l-731 -760l269 -461h305z" />
    <glyph glyph-name="uni0497" unicode="&#x497;" horiz-adv-x="1925" 
d="M1847 270l-139 -682h-307l84 412h-133l-283 506l-102 -506h-326l104 520l-450 -520h-414v4l570 590l-328 524v4h369l276 -487l98 487h326l-100 -501l436 501h407v-4l-544 -553l178 -295h278z" />
    <glyph glyph-name="uni0498" unicode="&#x498;" horiz-adv-x="1347" 
d="M750 -223q0 -123 -88.5 -200t-245.5 -77q-67 0 -131 10.5t-95 28.5l80 234q50 -33 119 -33q56 0 86.5 30t30.5 85q0 63 -49 118q-290 11 -469 129l110 310q73 -63 181.5 -100.5t242.5 -37.5q146 0 238 56t92 159q0 73 -57 107.5t-205 34.5h-236l60 282h229
q166 0 239.5 51.5t73.5 135.5q0 145 -237 145q-222 0 -424 -125l-29 305q240 123 553 123q262 0 389 -90t127 -274q0 -148 -86.5 -255t-269.5 -149q256 -68 256 -319q0 -200 -149.5 -329t-428.5 -155q93 -93 93 -200z" />
    <glyph glyph-name="uni0499" unicode="&#x499;" horiz-adv-x="1134" 
d="M664 -223q0 -123 -88.5 -200t-245.5 -77q-67 0 -131 10.5t-95 28.5l80 234q50 -33 119 -33q56 0 86.5 30t30.5 85q0 63 -53 122q-221 7 -379 99l94 264q49 -48 137.5 -77.5t198.5 -29.5q109 0 173 33.5t64 100.5q0 46 -40.5 68t-149.5 22h-209l45 225h203q219 0 219 117
q0 94 -168 94q-175 0 -346 -107l-29 263q200 98 469 98q430 0 430 -273q0 -110 -66 -187t-188 -109q187 -49 187 -234q0 -153 -115 -246t-332 -116q49 -47 74 -94.5t25 -110.5z" />
    <glyph glyph-name="uni049A" unicode="&#x49a;" horiz-adv-x="1595" 
d="M1503 295l-141 -707h-318l84 412h-141l-448 690l-138 -690h-354l303 1520h355l-138 -686l664 686h467v-4l-813 -744l323 -477h295z" />
    <glyph glyph-name="uni049B" unicode="&#x49b;" horiz-adv-x="1341" 
d="M1262 270l-138 -682h-307l84 412h-110l-334 514l-103 -514h-336l224 1122h336l-99 -491l471 491h414v-4l-578 -538l207 -310h269z" />
    <glyph glyph-name="uni04A0" unicode="&#x4a0;" horiz-adv-x="1773" 
d="M145 1227l58 293h770l-137 -686l663 686h467v-4l-813 -744l520 -768v-4h-418l-448 690l-137 -690h-355l244 1227h-414z" />
    <glyph glyph-name="uni04A1" unicode="&#x4a1;" horiz-adv-x="1492" 
d="M98 852l56 270h655l-98 -491l471 491h413v-4l-577 -538l385 -576v-4h-381l-334 514l-102 -514h-336l170 852h-322z" />
    <glyph glyph-name="uni04A2" unicode="&#x4a2;" horiz-adv-x="1677" 
d="M1567 295l-142 -707h-317l84 412h-240l127 637h-551l-127 -637h-354l303 1520h355l-117 -588h551l116 588h355l-244 -1225h201z" />
    <glyph glyph-name="uni04A3" unicode="&#x4a3;" horiz-adv-x="1406" 
d="M1300 270l-137 -682h-307l84 412h-219l88 438h-367l-88 -438h-336l224 1122h336l-82 -411h368l82 411h336l-172 -852h190z" />
    <glyph glyph-name="uni04AA" unicode="&#x4aa;" horiz-adv-x="1400" 
d="M899 -223q0 -123 -88.5 -200t-245.5 -77q-67 0 -130.5 10.5t-94.5 28.5l80 234q50 -33 119 -33q56 0 86 30t30 85q0 70 -59 129q-230 37 -352.5 193.5t-122.5 426.5q0 145 34.5 281.5t107.5 257t177 210.5t251.5 142.5t322.5 52.5q285 0 446 -135l-123 -323
q-125 151 -336 151q-117 0 -215 -51t-161 -135.5t-98 -192.5t-35 -225q0 -358 327 -358q230 0 420 172l25 -328q-76 -59 -192.5 -101t-260.5 -49q88 -91 88 -196z" />
    <glyph glyph-name="uni04AB" unicode="&#x4ab;" horiz-adv-x="1073" 
d="M690 -223q0 -123 -88.5 -200t-245.5 -77q-67 0 -130.5 10.5t-94.5 28.5l80 234q21 -14 55 -23.5t64 -9.5q56 0 86 30t30 85q0 80 -71 139q-149 39 -230.5 153.5t-81.5 298.5q0 85 18 168.5t53.5 162.5t92 146t128 117t167 78.5t205.5 28.5q121 0 211 -33t143 -86
l-100 -264q-93 108 -244 108q-84 0 -150 -35t-105 -93t-59 -125.5t-20 -139.5q0 -229 218 -229q161 0 288 108l19 -264q-139 -101 -332 -117q94 -91 94 -200z" />
    <glyph glyph-name="uni04AE" unicode="&#x4ae;" horiz-adv-x="1368" 
d="M1571 1520l-713 -975l-108 -545h-355l113 559l-328 961h383l180 -656l408 656h420z" />
    <glyph glyph-name="uni04AF" unicode="&#x4af;" horiz-adv-x="1212" 
d="M1303 1122l-633 -1073l-97 -483h-335l98 491l-201 1065h348l80 -755l361 755h379z" />
    <glyph glyph-name="uni04B0" unicode="&#x4b0;" horiz-adv-x="1368" 
d="M1155 340h-338l-67 -340h-355l68 340h-330l51 260h310l-314 920h383l180 -656l408 656h420l-672 -920h307z" />
    <glyph glyph-name="uni04B1" unicode="&#x4b1;" horiz-adv-x="1212" 
d="M920 -145h-289l-58 -289h-335l57 289h-272l38 200h275l-201 1067h348l80 -755l361 755h379l-629 -1067h284z" />
    <glyph glyph-name="uni04B2" unicode="&#x4b2;" horiz-adv-x="1564" 
d="M1470 295l-141 -707h-317l84 412h-183l-204 520l-367 -520h-440l653 782l-338 738h408l196 -498l346 498h443l-637 -762l213 -463h284z" />
    <glyph glyph-name="uni04B3" unicode="&#x4b3;" horiz-adv-x="1269" 
d="M1192 270l-139 -682h-308l84 412h-129l-145 350l-252 -350h-401v4l510 576l-277 538v4h373l137 -338l242 338h399v-4l-495 -561l147 -287h254z" />
    <glyph glyph-name="uni04B6" unicode="&#x4b6;" horiz-adv-x="1566" 
d="M1456 295l-141 -707h-318l82 412h-237l108 543q-167 -72 -338 -72q-213 0 -321.5 98.5t-108.5 274.5q0 64 15 135l106 541h354l-96 -484q-12 -70 -12 -100q0 -80 48.5 -114t160.5 -34q142 0 252 54l135 678h354l-244 -1225h201z" />
    <glyph glyph-name="uni04B7" unicode="&#x4b7;" horiz-adv-x="1339" 
d="M1233 270l-137 -682h-308l84 412h-219l76 385q-137 -55 -283 -55q-163 0 -248 72t-85 204q0 36 10 94l84 422h336l-70 -348q-8 -46 -8 -63q0 -53 33.5 -76t109.5 -23q94 0 174 35l95 475h335l-170 -852h191z" />
    <glyph glyph-name="uni04BA" unicode="&#x4ba;" horiz-adv-x="1466" 
d="M532 657l-131 -657h-354l303 1520h355l-111 -555q171 84 356 84q206 0 310 -97t104 -272q0 -70 -14 -139l-109 -541h-352l96 483q12 61 12 105q0 77 -44.5 110t-147.5 33q-167 0 -273 -74z" />
    <glyph glyph-name="uni04BB" unicode="&#x4bb;" horiz-adv-x="1277" 
d="M492 684l-138 -684h-336l320 1593h336l-131 -635q154 189 364 189q132 0 211.5 -76t79.5 -229q0 -60 -16 -142l-140 -700h-335l135 676q8 36 8 72q0 112 -109 112q-71 0 -139 -45t-110 -131z" />
    <glyph glyph-name="uni04C0" unicode="&#x4c0;" horiz-adv-x="671" 
d="M47 0l303 1520h355l-304 -1520h-354z" />
    <glyph glyph-name="uni04C1" unicode="&#x4c1;" horiz-adv-x="2193" 
d="M926 1987l260 10q-6 -30 -6 -53q0 -119 147 -119q170 0 213 172l272 -10q-87 -361 -509 -361q-183 0 -284 72t-101 211q0 24 8 78zM811 0l139 698l-590 -698h-464v4l747 791l-432 721v4h405l363 -678l135 678h348l-137 -691l582 691h460v-4l-731 -760l437 -752v-4h-414
l-363 688l-137 -688h-348z" />
    <glyph glyph-name="uni04C2" unicode="&#x4c2;" horiz-adv-x="1832" 
d="M717 1649l256 10q-12 -70 -12 -96q0 -60 28 -87.5t88 -27.5q77 0 120.5 50t68.5 161l272 -10q-42 -206 -170 -303t-315 -97q-166 0 -257 73.5t-91 215.5q0 52 12 111zM641 0l104 520l-450 -520h-414v4l570 590l-328 524v4h369l276 -487l98 487h326l-100 -501l436 501h407
v-4l-544 -553l338 -561v-4h-377l-283 506l-102 -506h-326z" />
    <glyph glyph-name="uni04CF" unicode="&#x4cf;" horiz-adv-x="612" 
d="M27 0l227 1147h336l-228 -1147h-335z" />
    <glyph glyph-name="uni04D0" unicode="&#x4d0;" horiz-adv-x="1521" 
d="M594 1987l260 10q-6 -30 -6 -53q0 -119 147 -119q170 0 213 172l273 -10q-87 -361 -510 -361q-183 0 -284 72t-101 211q0 24 8 78zM1020 0l-31 317h-532l-154 -317h-401l823 1520h455l215 -1520h-375zM594 602h367l-64 627z" />
    <glyph glyph-name="uni04D1" unicode="&#x4d1;" horiz-adv-x="1212" 
d="M410 1649l256 10q-13 -76 -13 -96q0 -60 28.5 -87.5t88.5 -27.5q77 0 120 50t68 161l273 -10q-22 -105 -67.5 -183t-109.5 -125t-141 -69.5t-168 -22.5q-166 0 -257 73.5t-91 215.5q0 48 13 111zM666 0l22 145q-138 -170 -352 -170q-139 0 -225 78t-86 226
q0 200 164.5 310.5t476.5 110.5h114q8 40 8 68q0 66 -41 93.5t-135 27.5q-198 0 -372 -115l-15 262q89 52 214 81.5t259 29.5q217 0 323.5 -84t106.5 -242q0 -57 -12 -121l-141 -700h-309zM475 221q75 0 138.5 41t101.5 113l28 141h-71q-156 0 -239 -48.5t-83 -135.5
q0 -55 33 -83t92 -28z" />
    <glyph glyph-name="uni04D4" unicode="&#x4d4;" horiz-adv-x="2174" 
d="M913 0l76 379h-518l-264 -379h-418l1098 1520h1356l-60 -291h-686l-61 -305h604l-58 -281h-602l-69 -348h704l-59 -295h-1043zM1161 1233h-96l-397 -569h379z" />
    <glyph glyph-name="uni04D5" unicode="&#x4d5;" horiz-adv-x="1867" 
d="M1706 88q-196 -113 -457 -113q-308 0 -430 179q-174 -179 -432 -179q-167 0 -264.5 77.5t-97.5 226.5q0 199 162 305t475 106h120q9 40 9 78q0 64 -42.5 92.5t-138.5 28.5q-203 0 -377 -115l-14 262q89 52 214 81.5t259 29.5q241 0 322 -123q148 123 370 123
q99 0 176 -24t124 -63t77.5 -93.5t42 -111t11.5 -120.5q0 -137 -50 -250h-708q0 -140 58 -196t206 -56q202 0 371 115zM1356 913q-98 0 -164 -65.5t-100 -169.5h401q12 34 12 80q0 155 -149 155zM485 221q81 0 152.5 39t110.5 107q-5 50 -5 63q0 12 5 74h-80
q-318 0 -318 -172q0 -111 135 -111z" />
    <glyph glyph-name="uni04D6" unicode="&#x4d6;" horiz-adv-x="1314" 
d="M510 1987l260 10q-6 -30 -6 -53q0 -119 147 -119q170 0 213 172l273 -10q-87 -361 -510 -361q-183 0 -284 72t-101 211q0 24 8 78zM1161 295l-59 -295h-1055l303 1520h1039l-58 -291h-686l-61 -305h604l-58 -281h-604l-69 -348h704z" />
    <glyph glyph-name="uni04D7" unicode="&#x4d7;" horiz-adv-x="1210" 
d="M422 1649l256 10q-12 -70 -12 -96q0 -60 28 -87.5t88 -27.5q77 0 120.5 50t68.5 161l272 -10q-42 -206 -170 -303t-315 -97q-166 0 -257 73.5t-91 215.5q0 52 12 111zM1049 88q-196 -113 -459 -113q-527 0 -527 465q0 103 25 202.5t78.5 191.5t129.5 161t187.5 110.5
t243.5 41.5q100 0 176.5 -24t123.5 -63t77 -94t41.5 -111t11.5 -120q0 -145 -51 -256h-707q0 -65 11.5 -109t41 -76t81.5 -46.5t131 -14.5q204 0 370 115zM700 913q-100 0 -167 -67t-101 -174h402q16 31 16 86q0 155 -150 155z" />
    <glyph glyph-name="uni04D8" unicode="&#x4d8;" horiz-adv-x="1544" 
d="M1501 915q0 -135 -27.5 -264.5t-90.5 -254t-156 -218t-235 -150.5t-316 -57q-128 0 -230.5 31t-168 82t-109.5 121t-62 144t-18 155q0 94 22 195.5t54 166.5h966v31q0 191 -73 267.5t-256 76.5q-276 0 -508 -160l-23 312q107 70 267.5 112.5t328.5 42.5q635 0 635 -633z
M688 268q84 0 153 28t117.5 78t81.5 111t54 136h-650q-18 -47 -18 -119q0 -104 65.5 -169t196.5 -65z" />
    <glyph glyph-name="uni04D9" unicode="&#x4d9;" horiz-adv-x="1218" 
d="M1157 672q0 -99 -21.5 -195t-71 -188t-122 -161t-183 -111t-245.5 -42q-100 0 -179.5 23.5t-130 62t-83.5 91.5t-46.5 109t-13.5 118q0 146 58 264h704q0 144 -51 195t-184 51q-203 0 -377 -115l-14 262q87 51 208.5 81t247.5 30q250 0 377 -121t127 -354zM526 215
q106 0 172 66t99 170h-420q-15 -35 -15 -82q0 -69 40.5 -111.5t123.5 -42.5z" />
    <glyph glyph-name="uni04E2" unicode="&#x4e2;" horiz-adv-x="1593" 
d="M631 1704l45 221h788l-45 -221h-788zM977 0l192 963l-776 -963h-346l303 1520h346l-192 -961l776 961h346l-303 -1520h-346z" />
    <glyph glyph-name="uni04E3" unicode="&#x4e3;" horiz-adv-x="1320" 
d="M446 1319l43 219h715l-43 -219h-715zM752 0l131 659l-541 -659h-324l224 1122h327l-133 -659l543 659h324l-226 -1122h-325z" />
    <glyph glyph-name="uni04E6" unicode="&#x4e6;" horiz-adv-x="1597" 
d="M1114 1671l57 287h299l-57 -287h-299zM608 1671l58 287h299l-58 -287h-299zM713 -29q-279 0 -437.5 162t-158.5 451q0 147 34.5 287t105 263t169.5 215t237.5 145.5t299.5 53.5q279 0 437.5 -161.5t158.5 -450.5q0 -147 -34.5 -287t-105 -263t-169.5 -215.5t-237.5 -146
t-299.5 -53.5zM750 279q103 0 188.5 57.5t138 150.5t81 204t28.5 224q0 326 -260 326q-83 0 -154.5 -38t-122.5 -101.5t-88 -146t-54.5 -172t-17.5 -179.5q0 -325 261 -325z" />
    <glyph glyph-name="uni04E7" unicode="&#x4e7;" horiz-adv-x="1255" 
d="M856 1286l57 285h295l-57 -285h-295zM377 1286l57 285h295l-57 -285h-295zM549 -25q-100 0 -185 26.5t-153.5 80.5t-108 147t-39.5 215q0 105 25.5 205.5t79 190.5t128.5 158.5t181 108.5t230 40q79 0 149 -16t132 -52t107 -89.5t71 -133t26 -178.5q0 -105 -25.5 -205.5
t-78.5 -190.5t-128 -158.5t-181 -108.5t-230 -40zM573 244q65 0 119.5 38t88.5 100t52.5 135.5t18.5 148.5q0 106 -44.5 159.5t-127.5 53.5q-85 0 -150.5 -66t-96 -160t-30.5 -196q0 -106 43.5 -159.5t126.5 -53.5z" />
    <glyph glyph-name="uni04E8" unicode="&#x4e8;" horiz-adv-x="1597" 
d="M713 -29q-279 0 -437.5 162t-158.5 451q0 147 34.5 287t105 263t169.5 215t237.5 145.5t299.5 53.5q279 0 437.5 -161.5t158.5 -450.5q0 -147 -34.5 -287t-105 -263t-169.5 -215.5t-237.5 -146t-299.5 -53.5zM928 1245q-146 0 -250.5 -97.5t-159.5 -254.5h686
q0 181 -69 266.5t-207 85.5zM471 600q0 -159 70.5 -242.5t206.5 -83.5q78 0 146 29t119 81t88.5 118t61.5 145h-690q-2 -16 -2 -47z" />
    <glyph glyph-name="uni04E9" unicode="&#x4e9;" horiz-adv-x="1255" 
d="M549 -25q-100 0 -185 26.5t-153.5 80.5t-108 147t-39.5 215q0 105 25.5 205.5t79 190.5t128.5 158.5t181 108.5t230 40q79 0 149 -16t132 -52t107 -89.5t71 -133t26 -178.5q0 -105 -25.5 -205.5t-78.5 -190.5t-128 -158.5t-181 -108.5t-230 -40zM686 889
q-96 0 -163 -60.5t-103 -164.5h446q0 225 -180 225zM387 473q0 -240 180 -240q101 0 170 65t101 175h-451z" />
    <glyph glyph-name="uni04EE" unicode="&#x4ee;" horiz-adv-x="1404" 
d="M537 1704l45 221h788l-45 -221h-788zM940 451q-121 -192 -225 -296.5t-206.5 -144t-242.5 -39.5q-145 0 -239 39l75 299q62 -33 148 -33q83 0 134.5 31t113.5 121l-291 1092h385l156 -807l448 807h418z" />
    <glyph glyph-name="uni04EF" unicode="&#x4ef;" horiz-adv-x="1222" 
d="M408 1319l43 219h714l-43 -219h-714zM692 10q-81 -146 -152.5 -240.5t-145 -147.5t-144 -73t-162.5 -20q-137 0 -229 47l75 270q84 -43 166 -43q65 0 118.5 38t111.5 134l-203 1147h365l71 -821l371 821h375z" />
    <glyph glyph-name="uni04F2" unicode="&#x4f2;" horiz-adv-x="1404" 
d="M750 1622l-172 80l307 344l260 -123zM1196 1622l-174 80l307 344l260 -123zM940 451q-121 -192 -225 -296.5t-206.5 -144t-242.5 -39.5q-145 0 -239 39l75 299q62 -33 148 -33q83 0 134.5 31t113.5 121l-291 1092h385l156 -807l448 807h418z" />
    <glyph glyph-name="uni04F3" unicode="&#x4f3;" horiz-adv-x="1222" 
d="M606 1245l-198 53l311 420l272 -80zM1028 1245l-197 53l312 420l270 -80zM692 10q-81 -146 -152.5 -240.5t-145 -147.5t-144 -73t-162.5 -20q-137 0 -229 47l75 270q84 -43 166 -43q65 0 118.5 38t111.5 134l-203 1147h365l71 -821l371 821h375z" />
    <glyph glyph-name="uni0E3F" unicode="&#xe3f;" horiz-adv-x="1396" 
d="M432 -201l41 201h-469l303 1520h469l39 196h184l-38 -196q440 0 440 -346q0 -66 -16.5 -123.5t-53.5 -112t-104.5 -95.5t-161.5 -63q254 -69 254 -319q0 -69 -18.5 -132t-63.5 -124.5t-114 -106t-178.5 -71.5t-248.5 -27h-39l-41 -201h-184zM571 1247l-71 -352h151
l70 352h-150zM1061 1102q0 71 -38.5 105.5t-117.5 39.5l-69 -352q64 1 110 20t70 50.5t34.5 65t10.5 71.5zM453 653l-76 -381h149l76 381h-149zM979 492q0 161 -193 161l-75 -381h10q131 0 194.5 63t63.5 157z" />
    <glyph glyph-name="Wgrave" unicode="&#x1e80;" horiz-adv-x="2203" 
d="M1380 1622l-415 307l303 117l299 -340zM1239 0l-43 1079l-461 -1079h-387l-129 1520h373l37 -1102l467 1102h362l43 -1102l463 1102h403l-741 -1520h-387z" />
    <glyph glyph-name="wgrave" unicode="&#x1e81;" horiz-adv-x="1828" 
d="M1004 1239l-285 434l297 45l182 -440zM981 0l-33 768l-336 -768h-358l-113 1122h351l22 -786l326 786h338l34 -782l312 782h377l-562 -1122h-358z" />
    <glyph glyph-name="Wacute" unicode="&#x1e82;" horiz-adv-x="2203" 
d="M1247 1622l-178 94l397 330l283 -154zM1239 0l-43 1079l-461 -1079h-387l-129 1520h373l37 -1102l467 1102h362l43 -1102l463 1102h403l-741 -1520h-387z" />
    <glyph glyph-name="wacute" unicode="&#x1e83;" horiz-adv-x="1828" 
d="M1071 1239l-203 51l312 428l301 -82zM981 0l-33 768l-336 -768h-358l-113 1122h351l22 -786l326 786h338l34 -782l312 782h377l-562 -1122h-358z" />
    <glyph glyph-name="Wdieresis" unicode="&#x1e84;" horiz-adv-x="2203" 
d="M1415 1671l58 287h299l-58 -287h-299zM909 1671l58 287h299l-58 -287h-299zM1239 0l-43 1079l-461 -1079h-387l-129 1520h373l37 -1102l467 1102h362l43 -1102l463 1102h403l-741 -1520h-387z" />
    <glyph glyph-name="wdieresis" unicode="&#x1e85;" horiz-adv-x="1828" 
d="M1137 1286l57 285h295l-57 -285h-295zM657 1286l58 285h295l-58 -285h-295zM981 0l-33 768l-336 -768h-358l-113 1122h351l22 -786l326 786h338l34 -782l312 782h377l-562 -1122h-358z" />
    <glyph glyph-name="uni1E9E" unicode="&#x1e9e;" horiz-adv-x="1642" 
d="M33 0l184 918q67 336 253.5 483t533.5 147q204 0 370 -43.5t279 -115.5l-350 -504q82 -47 133.5 -95.5t83.5 -121.5t32 -166q0 -82 -22.5 -158.5t-70.5 -145t-117 -118.5t-169 -79.5t-219 -29.5q-221 0 -391 107l103 305q55 -50 132 -81.5t156 -31.5q112 0 171 61.5
t59 151.5q0 33 -9 61.5t-21 50t-38 43.5t-46 36t-58.5 33t-63 29.5t-71.5 29.5l313 455q-98 28 -213 28q-190 0 -282.5 -87t-131.5 -283l-176 -879h-354z" />
    <glyph glyph-name="uni1EA0" unicode="&#x1ea0;" horiz-adv-x="1521" 
d="M1020 0l-31 317h-532l-154 -317h-401l823 1520h455l215 -1520h-375zM594 602h367l-64 627zM387 -426l57 285h359l-58 -285h-358z" />
    <glyph glyph-name="uni1EA1" unicode="&#x1ea1;" horiz-adv-x="1212" 
d="M233 -426l58 285h358l-57 -285h-359zM666 0l22 145q-138 -170 -352 -170q-139 0 -225 78t-86 226q0 200 164.5 310.5t476.5 110.5h114q8 40 8 68q0 66 -41 93.5t-135 27.5q-198 0 -372 -115l-15 262q89 52 214 81.5t259 29.5q217 0 323.5 -84t106.5 -242q0 -57 -12 -121
l-141 -700h-309zM475 221q75 0 138.5 41t101.5 113l28 141h-71q-156 0 -239 -48.5t-83 -135.5q0 -55 33 -83t92 -28z" />
    <glyph glyph-name="uni1EA2" unicode="&#x1ea2;" horiz-adv-x="1521" 
d="M987 1616l-119 121q105 39 159 74.5t54 76.5q0 45 -80 45q-113 0 -225 -69l-2 200q145 74 299 74q127 0 196.5 -49.5t69.5 -149.5q0 -62 -27 -112.5t-79.5 -89t-109 -65.5t-136.5 -56zM1020 0l-31 317h-532l-154 -317h-401l823 1520h455l215 -1520h-375zM594 602h367
l-64 627z" />
    <glyph glyph-name="uni1EA3" unicode="&#x1ea3;" horiz-adv-x="1212" 
d="M756 1221l-121 120q215 76 215 150q0 47 -84 47q-108 0 -221 -72l-4 203q145 74 297 74q127 0 196.5 -50.5t69.5 -150.5q0 -62 -26 -112t-78 -88.5t-108 -65t-136 -55.5zM666 0l22 145q-138 -170 -352 -170q-139 0 -225 78t-86 226q0 200 164.5 310.5t476.5 110.5h114
q8 40 8 68q0 66 -41 93.5t-135 27.5q-198 0 -372 -115l-15 262q89 52 214 81.5t259 29.5q217 0 323.5 -84t106.5 -242q0 -57 -12 -121l-141 -700h-309zM475 221q75 0 138.5 41t101.5 113l28 141h-71q-156 0 -239 -48.5t-83 -135.5q0 -55 33 -83t92 -28z" />
    <glyph glyph-name="uni1EA4" unicode="&#x1ea4;" horiz-adv-x="1521" 
d="M1430 1946l-158 86l375 325l266 -145zM1411 1663l-283 -33l-114 207l-203 -207l-301 33l391 338h275zM1020 0l-31 317h-532l-154 -317h-401l823 1520h455l215 -1520h-375zM594 602h367l-64 627z" />
    <glyph glyph-name="uni1EA5" unicode="&#x1ea5;" horiz-adv-x="1212" 
d="M1241 1532l-186 47l288 399l279 -73zM1145 1280l-264 -29l-90 226l-189 -226l-276 33l350 354h274zM666 0l22 145q-138 -170 -352 -170q-139 0 -225 78t-86 226q0 200 164.5 310.5t476.5 110.5h114q8 40 8 68q0 66 -41 93.5t-135 27.5q-198 0 -372 -115l-15 262
q89 52 214 81.5t259 29.5q217 0 323.5 -84t106.5 -242q0 -57 -12 -121l-141 -700h-309zM475 221q75 0 138.5 41t101.5 113l28 141h-71q-156 0 -239 -48.5t-83 -135.5q0 -55 33 -83t92 -28z" />
    <glyph glyph-name="uni1EA6" unicode="&#x1ea6;" horiz-adv-x="1521" 
d="M1432 1946l-398 299l281 112l282 -338zM1411 1663l-283 -33l-114 207l-203 -207l-301 33l391 338h275zM1020 0l-31 317h-532l-154 -317h-401l823 1520h455l215 -1520h-375zM594 602h367l-64 627z" />
    <glyph glyph-name="uni1EA7" unicode="&#x1ea7;" horiz-adv-x="1212" 
d="M1167 1532l-266 405l275 41l170 -409zM1145 1280l-264 -29l-90 226l-189 -226l-276 33l350 354h274zM666 0l22 145q-138 -170 -352 -170q-139 0 -225 78t-86 226q0 200 164.5 310.5t476.5 110.5h114q8 40 8 68q0 66 -41 93.5t-135 27.5q-198 0 -372 -115l-15 262
q89 52 214 81.5t259 29.5q217 0 323.5 -84t106.5 -242q0 -57 -12 -121l-141 -700h-309zM475 221q75 0 138.5 41t101.5 113l28 141h-71q-156 0 -239 -48.5t-83 -135.5q0 -55 33 -83t92 -28z" />
    <glyph glyph-name="uni1EA8" unicode="&#x1ea8;" horiz-adv-x="1521" 
d="M1397 1913l-113 112q197 68 197 138q0 43 -74 43q-100 0 -207 -66l-2 189q134 67 275 67q118 0 182.5 -46.5t64.5 -139.5q0 -46 -17 -85.5t-44.5 -69t-71.5 -56.5t-87.5 -46t-102.5 -40zM1411 1663l-283 -33l-114 207l-203 -207l-301 33l391 338h275zM1020 0l-31 317
h-532l-154 -317h-401l823 1520h455l215 -1520h-375zM594 602h367l-64 627z" />
    <glyph glyph-name="uni1EA9" unicode="&#x1ea9;" horiz-adv-x="1212" 
d="M1176 1518l-111 112q96 35 146.5 67t50.5 70q0 43 -74 43q-106 0 -207 -65l-4 190q132 66 274 66q118 0 183 -46.5t65 -139.5q0 -46 -17 -85.5t-44.5 -69t-71.5 -56.5t-87.5 -46t-102.5 -40zM1145 1280l-264 -29l-90 226l-189 -226l-276 33l350 354h274zM666 0l22 145
q-138 -170 -352 -170q-139 0 -225 78t-86 226q0 200 164.5 310.5t476.5 110.5h114q8 40 8 68q0 66 -41 93.5t-135 27.5q-198 0 -372 -115l-15 262q89 52 214 81.5t259 29.5q217 0 323.5 -84t106.5 -242q0 -57 -12 -121l-141 -700h-309zM475 221q75 0 138.5 41t101.5 113
l28 141h-71q-156 0 -239 -48.5t-83 -135.5q0 -55 33 -83t92 -28z" />
    <glyph glyph-name="uni1EAA" unicode="&#x1eaa;" horiz-adv-x="1521" 
d="M870 2056l-223 17q57 297 287 297q87 0 172 -56q71 -49 106 -49q31 0 50.5 26.5t31.5 90.5l222 -17q-57 -299 -287 -299q-92 0 -172 58q-71 49 -107 49q-31 0 -50.5 -27t-29.5 -90zM1411 1663l-283 -33l-114 207l-203 -207l-301 33l391 338h275zM1020 0l-31 317h-532
l-154 -317h-401l823 1520h455l215 -1520h-375zM594 602h367l-64 627z" />
    <glyph glyph-name="uni1EAB" unicode="&#x1eab;" horiz-adv-x="1212" 
d="M649 1690l-215 14q57 299 281 299q91 0 168 -55q3 -2 8 -6q59 -41 85 -45q6 -1 11 -1q29 0 47.5 27t30.5 90l217 -14q-57 -299 -283 -299q-86 0 -165 55q-71 51 -105 51q-30 0 -49 -26.5t-31 -89.5zM1145 1280l-264 -29l-90 226l-189 -226l-276 33l350 354h274zM666 0
l22 145q-138 -170 -352 -170q-139 0 -225 78t-86 226q0 200 164.5 310.5t476.5 110.5h114q8 40 8 68q0 66 -41 93.5t-135 27.5q-198 0 -372 -115l-15 262q89 52 214 81.5t259 29.5q217 0 323.5 -84t106.5 -242q0 -57 -12 -121l-141 -700h-309zM475 221q75 0 138.5 41
t101.5 113l28 141h-71q-156 0 -239 -48.5t-83 -135.5q0 -55 33 -83t92 -28z" />
    <glyph glyph-name="uni1EAC" unicode="&#x1eac;" horiz-adv-x="1521" 
d="M1417 1663l-287 -33l-114 211l-207 -211l-305 33l399 346h275zM1020 0l-31 317h-532l-154 -317h-401l823 1520h455l215 -1520h-375zM594 602h367l-64 627zM387 -426l57 285h359l-58 -285h-358z" />
    <glyph glyph-name="uni1EAD" unicode="&#x1ead;" horiz-adv-x="1212" 
d="M1165 1280l-268 -29l-96 279l-215 -279l-281 33l383 416h275zM233 -426l58 285h358l-57 -285h-359zM666 0l22 145q-138 -170 -352 -170q-139 0 -225 78t-86 226q0 200 164.5 310.5t476.5 110.5h114q8 40 8 68q0 66 -41 93.5t-135 27.5q-198 0 -372 -115l-15 262
q89 52 214 81.5t259 29.5q217 0 323.5 -84t106.5 -242q0 -57 -12 -121l-141 -700h-309zM475 221q75 0 138.5 41t101.5 113l28 141h-71q-156 0 -239 -48.5t-83 -135.5q0 -55 33 -83t92 -28z" />
    <glyph glyph-name="uni1EAE" unicode="&#x1eae;" horiz-adv-x="1521" 
d="M995 1991l-159 84l374 325l267 -145zM633 1956l237 12q-8 -70 23.5 -106.5t99.5 -36.5q138 0 183 143l251 -12q-51 -166 -171 -248t-285 -82q-160 0 -250 74t-90 211q0 29 2 45zM1020 0l-31 317h-532l-154 -317h-401l823 1520h455l215 -1520h-375zM594 602h367l-64 627z
" />
    <glyph glyph-name="uni1EAF" unicode="&#x1eaf;" horiz-adv-x="1212" 
d="M850 1602l-186 47l286 399l281 -74zM414 1585l235 12q-9 -147 119 -147t178 147l250 -12q-55 -167 -174 -251.5t-279 -84.5q-154 0 -242.5 79.5t-88.5 219.5q0 17 2 37zM666 0l22 145q-138 -170 -352 -170q-139 0 -225 78t-86 226q0 200 164.5 310.5t476.5 110.5h114
q8 40 8 68q0 66 -41 93.5t-135 27.5q-198 0 -372 -115l-15 262q89 52 214 81.5t259 29.5q217 0 323.5 -84t106.5 -242q0 -57 -12 -121l-141 -700h-309zM475 221q75 0 138.5 41t101.5 113l28 141h-71q-156 0 -239 -48.5t-83 -135.5q0 -55 33 -83t92 -28z" />
    <glyph glyph-name="uni1EB0" unicode="&#x1eb0;" horiz-adv-x="1521" 
d="M1053 1991l-398 299l281 110l283 -336zM633 1956l237 12q-15 -143 123 -143t183 143l251 -12q-51 -166 -171 -248t-285 -82q-160 0 -250 74t-90 211q0 29 2 45zM1020 0l-31 317h-532l-154 -317h-401l823 1520h455l215 -1520h-375zM594 602h367l-64 627z" />
    <glyph glyph-name="uni1EB1" unicode="&#x1eb1;" horiz-adv-x="1212" 
d="M748 1602l-267 405l275 41l170 -410zM414 1585l235 12q-9 -147 119 -147t178 147l250 -12q-55 -167 -174 -251.5t-279 -84.5q-155 0 -243 78.5t-88 222.5q0 15 2 35zM666 0l22 145q-138 -170 -352 -170q-139 0 -225 78t-86 226q0 200 164.5 310.5t476.5 110.5h114
q8 40 8 68q0 66 -41 93.5t-135 27.5q-198 0 -372 -115l-15 262q89 52 214 81.5t259 29.5q217 0 323.5 -84t106.5 -242q0 -57 -12 -121l-141 -700h-309zM475 221q75 0 138.5 41t101.5 113l28 141h-71q-156 0 -239 -48.5t-83 -135.5q0 -55 33 -83t92 -28z" />
    <glyph glyph-name="uni1EB2" unicode="&#x1eb2;" horiz-adv-x="1521" 
d="M1030 1962l-110 113q196 68 196 137q0 43 -74 43q-99 0 -206 -66l-2 189q134 67 274 67q118 0 182 -46.5t64 -139.5q0 -57 -24.5 -103.5t-72.5 -81.5t-100 -60.5t-127 -51.5zM633 1956l237 12q-8 -70 23.5 -106.5t99.5 -36.5q138 0 183 143l251 -12q-51 -166 -171 -248
t-285 -82q-160 0 -250 74t-90 211q0 29 2 45zM1020 0l-31 317h-532l-154 -317h-401l823 1520h455l215 -1520h-375zM594 602h367l-64 627z" />
    <glyph glyph-name="uni1EB3" unicode="&#x1eb3;" horiz-adv-x="1212" 
d="M807 1591l-111 113q95 35 145 67t50 70q0 43 -72 43q-106 0 -207 -65l-4 190q132 66 275 66q118 0 182.5 -47t64.5 -140q0 -46 -17 -85.5t-44.5 -69t-71.5 -56.5t-87.5 -46t-102.5 -40zM414 1585l235 12q-9 -147 119 -147t178 147l250 -12q-55 -167 -174 -251.5
t-279 -84.5q-156 0 -243.5 78.5t-87.5 222.5q0 15 2 35zM666 0l22 145q-138 -170 -352 -170q-139 0 -225 78t-86 226q0 200 164.5 310.5t476.5 110.5h114q8 40 8 68q0 66 -41 93.5t-135 27.5q-198 0 -372 -115l-15 262q89 52 214 81.5t259 29.5q217 0 323.5 -84t106.5 -242
q0 -57 -12 -121l-141 -700h-309zM475 221q75 0 138.5 41t101.5 113l28 141h-71q-156 0 -239 -48.5t-83 -135.5q0 -55 33 -83t92 -28z" />
    <glyph glyph-name="uni1EB4" unicode="&#x1eb4;" horiz-adv-x="1521" 
d="M633 1956l237 12q-15 -143 123 -143t183 143l251 -12q-51 -166 -171 -248t-285 -82q-160 0 -250 74t-90 211q0 29 2 45zM1020 0l-31 317h-532l-154 -317h-401l823 1520h455l215 -1520h-375zM594 602h367l-64 627zM874 2056l-223 17q57 297 287 297q87 0 172 -56
q71 -49 107 -49q30 0 49.5 26.5t31.5 90.5l222 -17q-57 -299 -287 -299q-92 0 -172 58q-71 49 -107 49q-31 0 -50.5 -27t-29.5 -90z" />
    <glyph glyph-name="uni1EB5" unicode="&#x1eb5;" horiz-adv-x="1212" 
d="M414 1585l235 12q-9 -147 119 -147t178 147l250 -12q-55 -167 -174 -251.5t-279 -84.5q-155 0 -243 78t-88 223q0 19 2 35zM666 0l22 145q-138 -170 -352 -170q-139 0 -225 78t-86 226q0 200 164.5 310.5t476.5 110.5h114q8 40 8 68q0 66 -41 93.5t-135 27.5
q-198 0 -372 -115l-15 262q89 52 214 81.5t259 29.5q217 0 323.5 -84t106.5 -242q0 -57 -12 -121l-141 -700h-309zM475 221q75 0 138.5 41t101.5 113l28 141h-71q-156 0 -239 -48.5t-83 -135.5q0 -55 33 -83t92 -28zM649 1690l-215 14q57 299 281 299q91 0 168 -55
q3 -2 8 -6q59 -41 85 -45q6 -1 11 -1q29 0 47.5 27t30.5 90l217 -14q-57 -299 -283 -299q-86 0 -165 55q-71 51 -105 51q-30 0 -49 -26.5t-31 -89.5z" />
    <glyph glyph-name="uni1EB6" unicode="&#x1eb6;" horiz-adv-x="1521" 
d="M639 1987l238 12q-7 -35 -7 -55q0 -115 123 -115q150 0 191 170l250 -12q-44 -182 -166.5 -271.5t-296.5 -89.5q-160 0 -249 74t-89 211q0 36 6 76zM1020 0l-31 317h-532l-154 -317h-401l823 1520h455l215 -1520h-375zM594 602h367l-64 627zM387 -426l57 285h359
l-58 -285h-358z" />
    <glyph glyph-name="uni1EB7" unicode="&#x1eb7;" horiz-adv-x="1212" 
d="M420 1647l237 12q-8 -39 -8 -76q0 -127 119 -127q147 0 197 203l249 -12q-48 -197 -172.5 -297.5t-298.5 -100.5q-156 0 -243.5 78t-87.5 227q0 49 8 93zM233 -426l58 285h358l-57 -285h-359zM666 0l22 145q-138 -170 -352 -170q-139 0 -225 78t-86 226
q0 200 164.5 310.5t476.5 110.5h114q8 40 8 68q0 66 -41 93.5t-135 27.5q-198 0 -372 -115l-15 262q89 52 214 81.5t259 29.5q217 0 323.5 -84t106.5 -242q0 -57 -12 -121l-141 -700h-309zM475 221q75 0 138.5 41t101.5 113l28 141h-71q-156 0 -239 -48.5t-83 -135.5
q0 -55 33 -83t92 -28z" />
    <glyph glyph-name="uni1EB8" unicode="&#x1eb8;" horiz-adv-x="1314" 
d="M1161 295l-59 -295h-1055l303 1520h1039l-58 -291h-686l-61 -305h604l-58 -281h-604l-69 -348h704zM303 -426l57 285h359l-57 -285h-359z" />
    <glyph glyph-name="uni1EB9" unicode="&#x1eb9;" horiz-adv-x="1210" 
d="M250 -426l57 285h359l-58 -285h-358zM1049 88q-196 -113 -459 -113q-527 0 -527 465q0 103 25 202.5t78.5 191.5t129.5 161t187.5 110.5t243.5 41.5q100 0 176.5 -24t123.5 -63t77 -94t41.5 -111t11.5 -120q0 -145 -51 -256h-707q0 -65 11.5 -109t41 -76t81.5 -46.5
t131 -14.5q204 0 370 115zM700 913q-100 0 -167 -67t-101 -174h402q16 31 16 86q0 155 -150 155z" />
    <glyph glyph-name="uni1EBA" unicode="&#x1eba;" horiz-adv-x="1314" 
d="M889 1616l-119 121q105 39 159 74.5t54 76.5q0 45 -80 45q-113 0 -225 -69l-2 200q145 74 299 74q127 0 196.5 -49.5t69.5 -149.5q0 -62 -27 -112.5t-79.5 -89t-109 -65.5t-136.5 -56zM1161 295l-59 -295h-1055l303 1520h1039l-58 -291h-686l-61 -305h604l-58 -281h-604
l-69 -348h704z" />
    <glyph glyph-name="uni1EBB" unicode="&#x1ebb;" horiz-adv-x="1210" 
d="M772 1221l-121 120q215 76 215 150q0 47 -84 47q-108 0 -221 -72l-4 203q145 74 297 74q127 0 196.5 -50.5t69.5 -150.5q0 -62 -26 -112t-78 -88.5t-108 -65t-136 -55.5zM1049 88q-196 -113 -459 -113q-527 0 -527 465q0 103 25 202.5t78.5 191.5t129.5 161t187.5 110.5
t243.5 41.5q100 0 176.5 -24t123.5 -63t77 -94t41.5 -111t11.5 -120q0 -145 -51 -256h-707q0 -65 11.5 -109t41 -76t81.5 -46.5t131 -14.5q204 0 370 115zM700 913q-100 0 -167 -67t-101 -174h402q16 31 16 86q0 155 -150 155z" />
    <glyph glyph-name="uni1EBC" unicode="&#x1ebc;" horiz-adv-x="1314" 
d="M1161 295l-59 -295h-1055l303 1520h1039l-58 -291h-686l-61 -305h604l-58 -281h-604l-69 -348h704zM649 1624l-227 16q62 353 319 353q98 0 201 -68q91 -59 135 -59q42 0 68 32.5t39 106.5l227 -16q-62 -353 -319 -353q-97 0 -201 68q-89 59 -135 59q-42 0 -68 -32.5
t-39 -106.5z" />
    <glyph glyph-name="uni1EBD" unicode="&#x1ebd;" horiz-adv-x="1210" 
d="M541 1257l-228 17q63 352 312 352q94 0 192 -67q35 -23 47.5 -31t37 -18.5t42.5 -10.5q38 0 61.5 31.5t36.5 107.5l228 -16q-62 -352 -312 -352q-94 0 -192 67q-32 21 -47.5 30.5t-39 19.5t-40.5 10q-38 0 -61.5 -32.5t-36.5 -107.5zM1049 88q-196 -113 -459 -113
q-527 0 -527 465q0 103 25 202.5t78.5 191.5t129.5 161t187.5 110.5t243.5 41.5q100 0 176.5 -24t123.5 -63t77 -94t41.5 -111t11.5 -120q0 -145 -51 -256h-707q0 -65 11.5 -109t41 -76t81.5 -46.5t131 -14.5q204 0 370 115zM700 913q-100 0 -167 -67t-101 -174h402
q16 31 16 86q0 155 -150 155z" />
    <glyph glyph-name="uni1EBE" unicode="&#x1ebe;" horiz-adv-x="1314" 
d="M1346 1946l-158 86l375 325l266 -145zM1327 1663l-283 -33l-114 207l-203 -207l-301 33l391 338h275zM1161 295l-59 -295h-1055l303 1520h1039l-58 -291h-686l-61 -305h604l-58 -281h-604l-69 -348h704z" />
    <glyph glyph-name="uni1EBF" unicode="&#x1ebf;" horiz-adv-x="1210" 
d="M1257 1532l-186 47l289 399l278 -73zM1161 1280l-264 -29l-90 226l-189 -226l-276 33l350 354h275zM1049 88q-196 -113 -459 -113q-527 0 -527 465q0 103 25 202.5t78.5 191.5t129.5 161t187.5 110.5t243.5 41.5q100 0 176.5 -24t123.5 -63t77 -94t41.5 -111t11.5 -120
q0 -145 -51 -256h-707q0 -65 11.5 -109t41 -76t81.5 -46.5t131 -14.5q204 0 370 115zM700 913q-100 0 -167 -67t-101 -174h402q16 31 16 86q0 155 -150 155z" />
    <glyph glyph-name="uni1EC0" unicode="&#x1ec0;" horiz-adv-x="1314" 
d="M1348 1946l-398 299l281 112l282 -338zM1327 1663l-283 -33l-114 207l-203 -207l-301 33l391 338h275zM1161 295l-59 -295h-1055l303 1520h1039l-58 -291h-686l-61 -305h604l-58 -281h-604l-69 -348h704z" />
    <glyph glyph-name="uni1EC1" unicode="&#x1ec1;" horiz-adv-x="1210" 
d="M1184 1532l-266 405l274 41l170 -409zM1161 1280l-264 -29l-90 226l-189 -226l-276 33l350 354h275zM1049 88q-196 -113 -459 -113q-527 0 -527 465q0 103 25 202.5t78.5 191.5t129.5 161t187.5 110.5t243.5 41.5q100 0 176.5 -24t123.5 -63t77 -94t41.5 -111t11.5 -120
q0 -145 -51 -256h-707q0 -65 11.5 -109t41 -76t81.5 -46.5t131 -14.5q204 0 370 115zM700 913q-100 0 -167 -67t-101 -174h402q16 31 16 86q0 155 -150 155z" />
    <glyph glyph-name="uni1EC2" unicode="&#x1ec2;" horiz-adv-x="1314" 
d="M1313 1913l-113 112q197 68 197 138q0 43 -74 43q-100 0 -207 -66l-2 189q134 67 275 67q118 0 182.5 -46.5t64.5 -139.5q0 -46 -17 -85.5t-44.5 -69t-71.5 -56.5t-87.5 -46t-102.5 -40zM1327 1663l-283 -33l-114 207l-203 -207l-301 33l391 338h275zM1161 295l-59 -295
h-1055l303 1520h1039l-58 -291h-686l-61 -305h604l-58 -281h-604l-69 -348h704z" />
    <glyph glyph-name="uni1EC3" unicode="&#x1ec3;" horiz-adv-x="1210" 
d="M1192 1518l-111 112q96 35 146.5 67t50.5 70q0 43 -74 43q-106 0 -207 -65l-4 190q132 66 275 66q118 0 183 -46.5t65 -139.5q0 -57 -24.5 -103.5t-72.5 -81.5t-100 -60.5t-127 -51.5zM1161 1280l-264 -29l-90 226l-189 -226l-276 33l350 354h275zM1049 88
q-196 -113 -459 -113q-527 0 -527 465q0 103 25 202.5t78.5 191.5t129.5 161t187.5 110.5t243.5 41.5q100 0 176.5 -24t123.5 -63t77 -94t41.5 -111t11.5 -120q0 -145 -51 -256h-707q0 -65 11.5 -109t41 -76t81.5 -46.5t131 -14.5q204 0 370 115zM700 913q-100 0 -167 -67
t-101 -174h402q16 31 16 86q0 155 -150 155z" />
    <glyph glyph-name="uni1EC4" unicode="&#x1ec4;" horiz-adv-x="1314" 
d="M786 2056l-223 17q57 297 287 297q51 0 89.5 -14t82.5 -42q3 -2 13 -8.5t12.5 -8t11 -6.5t11 -6.5t9.5 -5.5t10.5 -5t9.5 -3.5t10 -3.5t9 -1.5t10 -0.5q31 0 50.5 26.5t31.5 90.5l222 -17q-57 -299 -287 -299q-51 0 -89 14.5t-83 43.5q-4 2 -15.5 9.5t-15 9.5t-13 8
t-14 8t-12.5 5.5t-13 5t-11.5 2.5t-12.5 1q-31 0 -50.5 -27t-29.5 -90zM1327 1663l-283 -33l-114 207l-203 -207l-301 33l391 338h275zM1161 295l-59 -295h-1055l303 1520h1039l-58 -291h-686l-61 -305h604l-58 -281h-604l-69 -348h704z" />
    <glyph glyph-name="uni1EC5" unicode="&#x1ec5;" horiz-adv-x="1210" 
d="M666 1690l-215 14q57 299 280 299q86 0 168 -55q27 -20 40 -28.5t31 -16t34 -7.5q28 0 46.5 27t30.5 90l217 -14q-57 -299 -282 -299q-81 0 -166 55q-30 20 -41.5 27.5t-30 15.5t-33.5 8q-30 0 -48.5 -26.5t-30.5 -89.5zM1161 1280l-264 -29l-90 226l-189 -226l-276 33
l350 354h275zM1049 88q-196 -113 -459 -113q-527 0 -527 465q0 103 25 202.5t78.5 191.5t129.5 161t187.5 110.5t243.5 41.5q100 0 176.5 -24t123.5 -63t77 -94t41.5 -111t11.5 -120q0 -145 -51 -256h-707q0 -65 11.5 -109t41 -76t81.5 -46.5t131 -14.5q204 0 370 115z
M700 913q-100 0 -167 -67t-101 -174h402q16 31 16 86q0 155 -150 155z" />
    <glyph glyph-name="uni1EC6" unicode="&#x1ec6;" horiz-adv-x="1314" 
d="M1333 1663l-286 -33l-115 211l-207 -211l-305 33l399 346h275zM1161 295l-59 -295h-1055l303 1520h1039l-58 -291h-686l-61 -305h604l-58 -281h-604l-69 -348h704zM303 -426l57 285h359l-57 -285h-359z" />
    <glyph glyph-name="uni1EC7" unicode="&#x1ec7;" horiz-adv-x="1210" 
d="M1182 1280l-269 -29l-96 279l-215 -279l-280 33l383 416h274zM250 -426l57 285h359l-58 -285h-358zM1049 88q-196 -113 -459 -113q-527 0 -527 465q0 103 25 202.5t78.5 191.5t129.5 161t187.5 110.5t243.5 41.5q100 0 176.5 -24t123.5 -63t77 -94t41.5 -111t11.5 -120
q0 -145 -51 -256h-707q0 -65 11.5 -109t41 -76t81.5 -46.5t131 -14.5q204 0 370 115zM700 913q-100 0 -167 -67t-101 -174h402q16 31 16 86q0 155 -150 155z" />
    <glyph glyph-name="uni1EC8" unicode="&#x1ec8;" horiz-adv-x="671" 
d="M561 1616l-119 121q105 39 159 74.5t54 76.5q0 45 -80 45q-113 0 -225 -69l-2 200q145 74 299 74q127 0 196.5 -49.5t69.5 -149.5q0 -62 -27 -112.5t-79.5 -89t-109 -65.5t-136.5 -56zM47 0l303 1520h355l-304 -1520h-354z" />
    <glyph glyph-name="uni1EC9" unicode="&#x1ec9;" horiz-adv-x="626" 
d="M461 1221l-121 120q215 76 215 150q0 47 -84 47q-108 0 -221 -72l-4 203q145 74 297 74q127 0 196.5 -50.5t69.5 -150.5q0 -62 -26 -112t-78 -88.5t-108 -65t-136 -55.5zM35 0l223 1122h336l-223 -1122h-336z" />
    <glyph glyph-name="uni1ECA" unicode="&#x1eca;" horiz-adv-x="671" 
d="M47 0l303 1520h355l-304 -1520h-354zM-39 -426l57 285h359l-58 -285h-358z" />
    <glyph glyph-name="uni1ECB" unicode="&#x1ecb;" horiz-adv-x="604" 
d="M268 1286l58 285h358l-57 -285h-359zM23 0l223 1122h336l-224 -1122h-335zM-72 -426l58 285h358l-57 -285h-359z" />
    <glyph glyph-name="uni1ECC" unicode="&#x1ecc;" horiz-adv-x="1597" 
d="M713 -29q-279 0 -437.5 162t-158.5 451q0 147 34.5 287t105 263t169.5 215t237.5 145.5t299.5 53.5q279 0 437.5 -161.5t158.5 -450.5q0 -147 -34.5 -287t-105 -263t-169.5 -215.5t-237.5 -146t-299.5 -53.5zM750 279q103 0 188.5 57.5t138 150.5t81 204t28.5 224
q0 326 -260 326q-83 0 -154.5 -38t-122.5 -101.5t-88 -146t-54.5 -172t-17.5 -179.5q0 -325 261 -325zM424 -426l57 285h359l-58 -285h-358z" />
    </font>
</defs>
</svg>
