<?xml version="1.0" standalone="no"?>
<!DOCTYPE svg PUBLIC "-//W3C//DTD SVG 1.1//EN" "http://www.w3.org/Graphics/SVG/1.1/DTD/svg11.dtd" >
<svg xmlns="http://www.w3.org/2000/svg" xmlns:xlink="http://www.w3.org/1999/xlink" version="1.1">
<metadata>
Created by FontForge 20170731 at Tue Jul 21 14:26:17 2020
 By Aleksey,,,
Copyright (c) 2018 by Morisawa In.. All rights reserved.
</metadata>
<defs>
<font id="ClarimoUDPE-ExtraLight" horiz-adv-x="1290" >
  <font-face 
    font-family="Clarimo UD PE ExtraLight"
    font-weight="250"
    font-stretch="normal"
    units-per-em="2048"
    panose-1="2 11 3 0 0 0 0 0 0 0"
    ascent="1593"
    descent="-455"
    x-height="1067"
    cap-height="1520"
    bbox="-451 -498 2580 2365"
    underline-thickness="102"
    underline-position="-409"
    unicode-range="U+0020-FB04"
  />
<missing-glyph horiz-adv-x="1024" 
d="M0 0v1434h1024v-1434h-1024zM512 809l348 522h-696zM573 717l349 -522v1044zM164 102h696l-348 523zM102 1239v-1044l349 522z" />
    <glyph glyph-name=".notdef" horiz-adv-x="1024" 
d="M0 0v1434h1024v-1434h-1024zM512 809l348 522h-696zM573 717l349 -522v1044zM164 102h696l-348 523zM102 1239v-1044l349 522z" />
    <glyph glyph-name=".null" horiz-adv-x="0" 
 />
    <glyph glyph-name="nonmarkingreturn" horiz-adv-x="682" 
 />
    <glyph glyph-name="space" unicode=" " horiz-adv-x="532" 
 />
    <glyph glyph-name="space" unicode="&#xa0;" horiz-adv-x="532" 
 />
    <glyph glyph-name="exclam" unicode="!" horiz-adv-x="704" 
d="M317 330l-20 1186v4h113v-4l-23 -1186h-70zM291 0v150h123v-150h-123z" />
    <glyph glyph-name="quotedbl" unicode="&#x22;" horiz-adv-x="804" 
d="M539 1087l-23 502v4h111v-4l-23 -502h-65zM201 1087l-23 502v4h111v-4l-23 -502h-65z" />
    <glyph glyph-name="numbersign" unicode="#" horiz-adv-x="1325" 
d="M725 0l80 473h-379l-80 -473h-76l80 473h-266v72h276l74 430h-272v72h282l80 473h76l-80 -473h379l80 473h76l-80 -473h266v-72h-276l-74 -430h272v-72h-282l-80 -473h-76zM436 545h379l74 430h-379z" />
    <glyph glyph-name="dollar" unicode="$" 
d="M1100 391q0 -169 -105 -273t-309 -116v-203h-74v201q-264 6 -450 174l35 86q175 -172 415 -180v653q-63 22 -106 39t-95 43.5t-86 55.5t-64.5 67.5t-45 88.5t-14.5 110q0 162 105 267.5t306 115.5v196h74v-196q200 -12 354 -144l-34 -86q-76 69 -151.5 105.5t-168.5 42.5
v-637q56 -19 94.5 -34t85.5 -37.5t78 -44t63 -52.5t51 -65t30.5 -79.5t11.5 -97.5zM287 1139q0 -56 17.5 -101t43.5 -75.5t72 -57.5t87.5 -43t104.5 -37v615q-163 -9 -244 -92t-81 -209zM1012 389q0 57 -17.5 103t-43.5 77t-72 58t-87.5 44t-105.5 38v-627q164 12 245 94
t81 213z" />
    <glyph glyph-name="percent" unicode="%" horiz-adv-x="1855" 
d="M408 618q-147 0 -233.5 121t-86.5 342t86.5 342t233.5 121q145 0 231 -121.5t86 -341.5t-86 -341.5t-231 -121.5zM340 0l1085 1520h93l-1086 -1520h-92zM408 690q108 0 170.5 102t62.5 289t-62.5 289.5t-170.5 102.5t-172 -102.5t-64 -289.5t64 -289t172 -102zM1448 -20
q-147 0 -233.5 120.5t-86.5 341.5t86.5 342t233.5 121q145 0 231 -121.5t86 -341.5t-86 -341t-231 -121zM1448 51q108 0 170.5 102t62.5 289t-62.5 289.5t-170.5 102.5t-172 -102.5t-64 -289.5t64 -289t172 -102z" />
    <glyph glyph-name="ampersand" unicode="&#x26;" horiz-adv-x="1370" 
d="M1245 0l-225 240q-174 -269 -459 -269q-201 0 -319.5 112t-118.5 286q0 150 90 255.5t260 192.5q-126 135 -173.5 218.5t-47.5 178.5q0 150 93 242t249 92q153 0 248.5 -87.5t95.5 -233.5q0 -252 -330 -426l402 -422q34 67 63.5 154t44.5 148t35 153l80 -39
q-74 -303 -168 -476l301 -319h-121zM553 860l6 -6q140 75 213.5 163.5t73.5 203.5q0 114 -69.5 179.5t-184.5 65.5q-114 0 -181 -65.5t-67 -179.5q0 -84 44 -158.5t165 -202.5zM217 373q0 -148 97.5 -232t256.5 -84q126 0 222 58t172 182l-441 467q-151 -80 -229 -171.5
t-78 -219.5z" />
    <glyph glyph-name="quotesingle" unicode="'" horiz-adv-x="466" 
d="M201 1087l-23 502v4h111v-4l-23 -502h-65z" />
    <glyph glyph-name="parenleft" unicode="(" horiz-adv-x="782" 
d="M664 -383q-236 173 -370 431.5t-134 578.5q0 319 134 577.5t370 431.5l49 -63q-218 -163 -339.5 -404t-121.5 -542t121.5 -542t339.5 -404z" />
    <glyph glyph-name="parenright" unicode=")" horiz-adv-x="782" 
d="M119 1636q236 -173 370 -431.5t134 -577.5q0 -320 -134 -578.5t-370 -431.5l-49 64q217 163 338.5 404t121.5 542t-121.5 542t-338.5 404z" />
    <glyph glyph-name="asterisk" unicode="*" horiz-adv-x="1138" 
d="M864 827l-73 -55l-222 336l-221 -336l-74 55l250 314l-385 106l29 86l373 -139l-17 399h92l-18 -399l373 139l28 -86l-385 -106z" />
    <glyph glyph-name="plus" unicode="+" 
d="M1163 571h-477v-503h-82v503h-477v82h477v504h82v-504h477v-82z" />
    <glyph glyph-name="comma" unicode="," horiz-adv-x="503" 
d="M170 -332l-86 15q119 182 119 385q0 52 -6 88h104q6 -42 6 -88q0 -108 -36 -213t-101 -187z" />
    <glyph glyph-name="hyphen" unicode="-" horiz-adv-x="950" 
d="M168 559v86h614v-86h-614z" />
    <glyph glyph-name="hyphen" unicode="&#xad;" horiz-adv-x="950" 
d="M168 559v86h614v-86h-614z" />
    <glyph glyph-name="period" unicode="." horiz-adv-x="503" 
d="M186 0v158h131v-158h-131z" />
    <glyph glyph-name="slash" unicode="/" horiz-adv-x="782" 
d="M-66 -340l725 1933h89l-723 -1933h-91z" />
    <glyph glyph-name="zero" unicode="0" 
d="M645 -25q-233 0 -368.5 206.5t-135.5 578.5t135.5 578t368.5 206q234 0 369 -205.5t135 -578.5t-135 -579t-369 -206zM645 59q190 0 300 183t110 518t-110 517.5t-300 182.5t-299.5 -182.5t-109.5 -517.5t109.5 -518t299.5 -183z" />
    <glyph glyph-name="one" unicode="1" 
d="M1120 82v-82h-827v82h373v1311q-184 -173 -412 -285l-45 76q269 130 479 344h70v-1446h362z" />
    <glyph glyph-name="two" unicode="2" 
d="M1102 86v-86h-924v74l457 475q78 82 121.5 129.5t94 111.5t75.5 111.5t42 105.5t17 117q0 151 -92 244.5t-242 93.5q-123 0 -224 -66.5t-171 -195.5l-51 76q77 135 191.5 203.5t254.5 68.5q191 0 309.5 -116.5t118.5 -303.5q0 -51 -10.5 -101t-26 -91.5t-46.5 -91
t-56.5 -85t-73.5 -89.5t-80.5 -88t-91.5 -95l-387 -401h795z" />
    <glyph glyph-name="three" unicode="3" 
d="M1108 414q0 -204 -135.5 -323.5t-362.5 -119.5q-125 0 -237.5 36t-190.5 97l23 93q77 -66 183.5 -103t223.5 -37q185 0 292.5 94t107.5 263q0 334 -465 334h-144v79h132q200 0 318 86.5t118 249.5q0 138 -87.5 218.5t-246.5 80.5q-230 0 -379 -178l-47 78
q169 186 428 186q201 0 314.5 -102t113.5 -277q0 -148 -82 -243t-231 -133q354 -62 354 -379z" />
    <glyph glyph-name="four" unicode="4" 
d="M1194 408h-262v-408h-90v408h-756v84l750 1040h96v-1038h262v-86zM186 494h656v909z" />
    <glyph glyph-name="five" unicode="5" 
d="M1108 438q0 -223 -134.5 -345t-363.5 -122q-250 0 -420 133l23 93q162 -140 397 -140q188 0 295 96t107 281q0 359 -424 359q-173 0 -303 -45v772h753v-86h-663v-582q106 27 237 27q236 0 366 -112.5t130 -328.5z" />
    <glyph glyph-name="six" unicode="6" 
d="M1167 487q0 -107 -34 -201t-96 -164t-155.5 -110.5t-205.5 -40.5q-246 0 -383 191.5t-137 548.5q0 260 74 445.5t226.5 288.5t374.5 103q136 0 228 -37l-12 -90q-90 41 -224 41q-282 0 -425 -191t-148 -540q187 227 452 227q213 0 339 -129t126 -342zM690 872
q-264 0 -438 -235q13 -282 123.5 -432t304.5 -150q93 0 168 34.5t123 94t74 137t26 164.5q0 175 -99 281t-282 106z" />
    <glyph glyph-name="seven" unicode="7" 
d="M1206 1442q-256 -292 -419.5 -664.5t-219.5 -777.5h-102q53 386 206 751.5t412 682.5h-890v86h1013v-78z" />
    <glyph glyph-name="eight" unicode="8" 
d="M1145 367q0 -179 -137 -291.5t-365 -112.5q-227 0 -362.5 109.5t-135.5 281.5q0 137 95.5 242t296.5 186q-61 27 -106 52t-92 61t-76.5 75t-48.5 92.5t-19 115.5q0 174 128.5 276t325.5 102q205 0 326 -107t121 -269q0 -252 -348 -394q60 -26 100 -45.5t91 -48.5t84 -60
t63 -70t44.5 -88.5t14.5 -106.5zM289 1180q0 -55 20.5 -102.5t50 -81t82.5 -67t99 -56t118 -52.5q192 80 267 165.5t75 189.5q0 139 -99.5 218t-256.5 79q-160 0 -258 -80.5t-98 -212.5zM240 362q0 -139 109 -227t296 -88q194 0 300 92.5t106 225.5q0 44 -9 79t-33 67
t-51.5 56.5t-79 54t-100 53t-129.5 60.5q-8 4 -26 10q-207 -86 -295 -176.5t-88 -206.5z" />
    <glyph glyph-name="nine" unicode="9" 
d="M1145 838q0 -194 -42.5 -352.5t-125.5 -273.5t-212.5 -178t-295.5 -63q-114 0 -227 33l12 90q102 -37 217 -37q180 0 307.5 87.5t194 243t76.5 370.5q-175 -197 -435 -197q-218 0 -349.5 129t-131.5 348q0 145 59 260t173 182.5t264 67.5q111 0 201.5 -38.5t162.5 -119.5
t112 -221.5t40 -330.5zM227 1040q0 -178 107 -285.5t295 -107.5q264 0 422 211q-3 312 -115 459t-307 147q-126 0 -218.5 -59t-138 -153.5t-45.5 -211.5z" />
    <glyph glyph-name="colon" unicode=":" horiz-adv-x="802" 
d="M336 854v158h131v-158h-131zM336 0v158h131v-158h-131z" />
    <glyph glyph-name="semicolon" unicode=";" horiz-adv-x="802" 
d="M336 854v158h131v-158h-131zM319 -332l-86 15q119 182 119 385q0 52 -6 88h105q6 -42 6 -88q0 -108 -36.5 -213t-101.5 -187z" />
    <glyph glyph-name="less" unicode="&#x3c;" 
d="M1112 201v-92l-962 481v45l962 481v-92l-840 -412z" />
    <glyph glyph-name="equal" unicode="=" 
d="M152 782v82h987v-82h-987zM152 360v82h987v-82h-987z" />
    <glyph glyph-name="greater" unicode="&#x3e;" 
d="M1141 590l-963 -481v92l840 411l-840 412v92l963 -481v-45z" />
    <glyph glyph-name="question" unicode="?" horiz-adv-x="1054" 
d="M412 330v131q0 57 15.5 103t48 82t66.5 62t87 58q46 28 71.5 45t62.5 50.5t56.5 67t34 84.5t14.5 113q0 88 -27.5 155t-75.5 105t-105 57t-123 19q-225 0 -363 -211l-51 76q74 109 180.5 165t235.5 56q88 0 164 -26t135 -76.5t93 -133t34 -188.5q0 -72 -18 -134
t-42 -101.5t-67 -79.5t-72 -59.5t-78 -49.5q-101 -62 -144.5 -113t-43.5 -126v-131h-88zM395 0v150h121v-150h-121z" />
    <glyph glyph-name="at" unicode="@" horiz-adv-x="2170" 
d="M1780 -160q-284 -221 -670 -221q-221 0 -399 69t-295 191.5t-179.5 290.5t-62.5 367q0 213 72 399.5t198.5 321.5t309.5 212.5t397 77.5q247 0 439.5 -99.5t301.5 -285.5t109 -430q0 -151 -43.5 -277.5t-114.5 -207.5t-159 -125.5t-179 -44.5q-102 0 -158.5 55t-56.5 158
v18q-60 -109 -146 -170t-188 -61q-42 0 -82 10.5t-81 37.5t-71.5 69t-49.5 110.5t-19 155.5q0 169 65.5 315t175 231t234.5 85q84 0 153.5 -41.5t109.5 -114.5l34 127h80l-127 -631q-14 -75 -14 -115q0 -161 147 -161q76 0 148 39.5t129.5 111t93 183.5t35.5 245
q0 333 -208.5 534t-557.5 201q-201 0 -369.5 -72t-282.5 -198t-177.5 -298t-63.5 -370q0 -184 55.5 -336.5t161 -263.5t268 -173t367.5 -62q210 0 365 59.5t284 161.5zM743 457q0 -86 23 -148.5t60 -92.5t73 -43t74 -13q82 0 154.5 59.5t118.5 149.5t67 196l57 287
q-35 70 -97 114t-145 44q-89 0 -164 -52.5t-122 -135t-73 -178t-26 -187.5z" />
    <glyph glyph-name="A" unicode="A" horiz-adv-x="1386" 
d="M1223 0l-183 481h-696l-180 -481h-98l577 1520h100l578 -1520h-98zM377 567h631l-316 838z" />
    <glyph glyph-name="B" unicode="B" horiz-adv-x="1370" 
d="M1237 406q0 -114 -39.5 -195.5t-112.5 -126t-163 -64.5t-205 -20h-490v1520h457q251 0 365 -95t114 -284q0 -286 -254 -350q160 -29 244 -121.5t84 -263.5zM678 1434h-356v-613h364q88 0 154.5 15t119.5 50t81 97.5t28 151.5q0 164 -96 231.5t-295 67.5zM322 741v-655
h393q100 0 173.5 14.5t132 49.5t88.5 99.5t30 158.5q0 178 -104.5 255.5t-299.5 77.5h-413z" />
    <glyph glyph-name="C" unicode="C" horiz-adv-x="1415" 
d="M1313 158q-191 -187 -488 -187q-314 0 -503 210.5t-189 578.5q0 371 190.5 579.5t505.5 208.5q282 0 463 -170l-35 -92q-168 174 -428 174q-280 0 -439 -186.5t-159 -513.5q0 -169 44.5 -303t124.5 -220.5t189 -132t240 -45.5q144 0 259.5 52.5t195.5 138.5z" />
    <glyph glyph-name="D" unicode="D" horiz-adv-x="1515" 
d="M1382 756q0 -190 -52.5 -335t-151 -237t-235 -138t-308.5 -46h-408v1520h402q196 0 343 -57.5t235.5 -162t131.5 -240.5t43 -304zM621 1434h-299v-1348h309q313 0 484 165.5t171 504.5q0 99 -15.5 185t-48 162.5t-86 136.5t-125.5 104t-171 67t-219 23z" />
    <glyph glyph-name="E" unicode="E" horiz-adv-x="1261" 
d="M1130 86v-86h-903v1520h887v-86h-792v-584h710v-86h-710v-678h808z" />
    <glyph glyph-name="F" unicode="F" horiz-adv-x="1148" 
d="M975 743h-653v-743h-95v1520h854v-86h-759v-605h653v-86z" />
    <glyph glyph-name="G" unicode="G" horiz-adv-x="1554" 
d="M1372 150q-92 -80 -227 -129.5t-299 -49.5q-331 0 -522 209.5t-191 579.5q0 374 193 581t526 207q303 0 491 -170l-34 -92q-177 174 -459 174q-298 0 -458.5 -186t-160.5 -514q0 -338 165 -519.5t460 -181.5q250 0 426 127v504h-473v86h563v-626z" />
    <glyph glyph-name="H" unicode="H" horiz-adv-x="1521" 
d="M1200 0v764h-878v-764h-95v1520h95v-670h878v670h92v-1520h-92z" />
    <glyph glyph-name="I" unicode="I" horiz-adv-x="550" 
d="M227 0v1520h95v-1520h-95z" />
    <glyph glyph-name="J" unicode="J" horiz-adv-x="825" 
d="M6 14l8 92q96 -49 217 -49q69 0 119.5 18.5t89.5 60.5t58.5 116t19.5 180v1088h94v-1082q0 -128 -27 -220t-79 -145.5t-120 -77.5t-157 -24q-125 0 -223 43z" />
    <glyph glyph-name="K" unicode="K" horiz-adv-x="1329" 
d="M1182 0l-643 772l-217 -219v-553h-95v1520h95v-852l829 852h123v-4l-674 -680l700 -832v-4h-118z" />
    <glyph glyph-name="L" unicode="L" horiz-adv-x="1112" 
d="M1081 86v-86h-854v1520h95v-1434h759z" />
    <glyph glyph-name="M" unicode="M" horiz-adv-x="1916" 
d="M934 0l-619 1419v-1419h-88v1520h144l587 -1358l588 1358h144v-1520h-93v1413l-614 -1413h-49z" />
    <glyph glyph-name="N" unicode="N" horiz-adv-x="1572" 
d="M1245 0l-930 1380v-1380h-88v1520h103l927 -1377v1377h89v-1520h-101z" />
    <glyph glyph-name="O" unicode="O" horiz-adv-x="1581" 
d="M791 -29q-144 0 -265 54.5t-208.5 154.5t-136 249t-48.5 331t48.5 331t136 249t208.5 154t265 54t265 -54t208 -154t135.5 -249t48.5 -331t-48.5 -331t-135.5 -249t-208 -154.5t-265 -54.5zM791 59q259 0 409 188.5t150 512.5q0 323 -150 511.5t-409 188.5t-409.5 -188
t-150.5 -512q0 -323 150.5 -512t409.5 -189z" />
    <glyph glyph-name="P" unicode="P" 
d="M322 573v-573h-95v1520h439q122 0 219 -27t169 -82.5t111 -147t39 -214.5q0 -108 -31 -192t-82 -136.5t-123.5 -86.5t-148 -47.5t-162.5 -13.5h-335zM659 1434h-337v-777h329q459 0 459 390q0 387 -451 387z" />
    <glyph glyph-name="Q" unicode="Q" horiz-adv-x="1581" 
d="M1479 -319q-122 -52 -232 -52q-300 0 -493 342q-280 15 -450.5 226t-170.5 563q0 182 48.5 331t136 249t208.5 154t265 54t265 -54t208 -154t135.5 -249t48.5 -331q0 -347 -166 -556.5t-438 -230.5q72 -115 177 -185.5t239 -70.5q101 0 213 47zM791 59q259 0 409 188.5
t150 512.5q0 323 -150 511.5t-409 188.5t-409.5 -188t-150.5 -512q0 -323 150.5 -512t409.5 -189z" />
    <glyph glyph-name="R" unicode="R" horiz-adv-x="1376" 
d="M322 649v-649h-95v1520h418q253 0 391 -108.5t138 -324.5q0 -86 -23 -155.5t-59.5 -115t-87 -79.5t-99.5 -51.5t-104 -26.5l493 -659h-112l-482 649h-378zM637 1434h-315v-703h348q54 0 103.5 7t107 30t99 60t69.5 103.5t28 153.5q0 182 -112.5 265.5t-327.5 83.5z" />
    <glyph glyph-name="S" unicode="S" horiz-adv-x="1202" 
d="M115 143l32 93q192 -177 455 -177q197 0 294 86t97 230q0 45 -10 82.5t-25 65.5t-45.5 54t-56.5 43t-75.5 37.5t-84.5 33t-100 34.5q-61 21 -97.5 34.5t-89.5 37t-85 44.5t-68.5 53.5t-56.5 67.5t-33.5 82.5t-13.5 102.5q0 178 119 289.5t347 111.5q232 0 404 -141
l-31 -92q-84 74 -173.5 109.5t-203.5 35.5q-95 0 -167.5 -24.5t-115.5 -67.5t-64 -97t-21 -118q0 -67 21 -116t73 -89t121.5 -70.5t183.5 -68.5q61 -20 98.5 -34t90 -37t84.5 -44.5t67.5 -54t55.5 -68.5t33 -84.5t13 -105.5q0 -189 -122.5 -299.5t-362.5 -110.5
q-285 0 -487 172z" />
    <glyph glyph-name="T" unicode="T" horiz-adv-x="1175" 
d="M1147 1434h-512v-1434h-94v1434h-512v86h1118v-86z" />
    <glyph glyph-name="U" unicode="U" horiz-adv-x="1507" 
d="M211 565v955h92v-959q0 -248 116.5 -375t334.5 -127q219 0 335.5 127t116.5 375v959h92v-955q0 -286 -138.5 -440t-405.5 -154q-268 0 -405.5 154t-137.5 440z" />
    <glyph glyph-name="V" unicode="V" horiz-adv-x="1370" 
d="M1294 1520l-559 -1520h-100l-559 1520h98l512 -1405l510 1405h98z" />
    <glyph glyph-name="W" unicode="W" horiz-adv-x="2134" 
d="M1487 0l-420 1374l-420 -1374h-98l-465 1520h100l416 -1383l422 1383h94l422 -1387l416 1387h96l-465 -1520h-98z" />
    <glyph glyph-name="X" unicode="X" horiz-adv-x="1298" 
d="M1102 0l-455 698l-454 -698h-107l510 774l-490 746h111l436 -670l432 670h107l-490 -746l510 -774h-110z" />
    <glyph glyph-name="Y" unicode="Y" horiz-adv-x="1228" 
d="M1182 1520l-520 -920v-600h-95v594l-520 926h105l462 -834l465 834h103z" />
    <glyph glyph-name="Z" unicode="Z" horiz-adv-x="1335" 
d="M1221 86v-86h-1110v84l972 1350h-931v86h1048v-82l-979 -1352h1000z" />
    <glyph glyph-name="bracketleft" unicode="[" horiz-adv-x="782" 
d="M252 -340v1933h416v-73h-328v-1786h328v-74h-416z" />
    <glyph glyph-name="backslash" unicode="\" horiz-adv-x="782" 
d="M848 -340h-88l-725 1933h88z" />
    <glyph glyph-name="bracketright" unicode="]" horiz-adv-x="782" 
d="M530 1593v-1933h-415v74h327v1786h-327v73h415z" />
    <glyph glyph-name="asciicircum" unicode="^" horiz-adv-x="1024" 
d="M827 762l-315 647l-315 -647h-86l378 758h46l378 -758h-86z" />
    <glyph glyph-name="underscore" unicode="_" horiz-adv-x="1310" 
d="M31 -244v78h1249v-78h-1249z" />
    <glyph glyph-name="grave" unicode="`" horiz-adv-x="1024" 
d="M571 1212l-288 396l86 47l258 -412z" />
    <glyph glyph-name="a" unicode="a" horiz-adv-x="1134" 
d="M862 0l-2 174q-65 -92 -163 -145.5t-222 -53.5q-155 0 -251.5 84t-96.5 234q0 344 563 344h166v82q0 145 -65 217t-224 72q-205 0 -350 -119l-22 88q66 54 163.5 84.5t212.5 30.5q198 0 287.5 -92.5t89.5 -266.5v-733h-86zM485 59q125 0 222 63.5t149 166.5v270h-162
q-244 0 -359.5 -64.5t-115.5 -201.5q0 -112 72 -173t194 -61z" />
    <glyph glyph-name="b" unicode="b" horiz-adv-x="1259" 
d="M1145 549q0 -263 -140.5 -418.5t-365.5 -155.5q-213 0 -354 162l-11 -137h-75v1593h92v-708q158 207 393 207q204 0 332.5 -145t128.5 -398zM291 233q129 -174 344 -174q185 0 300.5 129.5t115.5 358.5q0 218 -104.5 338.5t-270.5 120.5q-125 0 -226.5 -67.5
t-158.5 -168.5v-537z" />
    <glyph glyph-name="c" unicode="c" horiz-adv-x="1058" 
d="M969 102q-137 -127 -346 -127q-233 0 -370.5 146.5t-137.5 406.5q0 262 138.5 413t373.5 151q196 0 329 -123l-30 -86q-122 125 -301 125q-197 0 -307.5 -128.5t-110.5 -347.5q0 -220 110.5 -346.5t309.5 -126.5q187 0 319 129z" />
    <glyph glyph-name="d" unicode="d" horiz-adv-x="1259" 
d="M977 0l-2 172q-64 -92 -160 -144.5t-219 -52.5q-212 0 -345.5 147.5t-133.5 401.5q0 259 139 413.5t369 154.5q116 0 198.5 -41.5t147.5 -118.5v661h92v-1593h-86zM209 526q0 -222 110 -343.5t285 -121.5q128 0 223 63t144 163v540q-127 181 -344 181q-188 0 -303 -128.5
t-115 -353.5z" />
    <glyph glyph-name="e" unicode="e" horiz-adv-x="1153" 
d="M1016 102q-150 -127 -383 -127q-248 0 -383 145t-135 402q0 260 130 415t357 155q92 0 165.5 -27.5t122 -74t81.5 -111t47 -136t14 -151.5v-53h-825v-21q0 -222 112 -340.5t322 -118.5q207 0 352 131zM602 1010q-162 0 -268.5 -103t-124.5 -293h731v21q0 73 -19 137.5
t-58 119t-106 86.5t-155 32z" />
    <glyph glyph-name="f" unicode="f" horiz-adv-x="667" 
d="M242 0v989h-195v78h195v166q0 192 87 284.5t242 92.5q78 0 136 -17l-11 -90q-64 23 -131 23q-231 0 -231 -287v-172h309v-78h-309v-989h-92z" />
    <glyph glyph-name="g" unicode="g" horiz-adv-x="1159" 
d="M1065 -156q0 -154 -138.5 -242.5t-383.5 -88.5q-237 0 -355 81.5t-118 212.5q0 90 56 160t171 101q-100 41 -100 151q0 133 143 176q-88 47 -137 129.5t-49 194.5q0 171 113.5 272t289.5 101q119 0 213 -48l330 35h6v-92h-254q109 -101 109 -268q0 -173 -113 -273
t-291 -100q-68 0 -123 14q-70 -3 -111.5 -37t-41.5 -90q0 -115 159 -122l314 -17q151 -7 231 -73t80 -177zM557 424q144 0 228.5 80t84.5 215q0 134 -84.5 213.5t-228.5 79.5q-143 0 -228 -79t-85 -214q0 -134 85.5 -214.5t227.5 -80.5zM158 -180q0 -105 97.5 -166.5
t291.5 -61.5q200 0 314 65.5t114 182.5q0 158 -244 170l-364 19q-98 -19 -153.5 -74t-55.5 -135z" />
    <glyph glyph-name="h" unicode="h" horiz-adv-x="1212" 
d="M291 752v-752h-92v1593h92v-719q147 218 387 218q160 0 253 -99.5t93 -283.5v-709h-92v692q0 157 -70.5 235.5t-197.5 78.5q-123 0 -221 -70.5t-152 -183.5z" />
    <glyph glyph-name="i" unicode="i" horiz-adv-x="495" 
d="M186 1327v146h123v-146h-123zM203 0v1067h92v-1067h-92z" />
    <glyph glyph-name="j" unicode="j" horiz-adv-x="516" 
d="M211 1327v146h121v-146h-121zM-137 -449l10 91q58 -27 139 -27q104 0 158.5 65t54.5 218v1169h92v-1165q0 -198 -80.5 -285.5t-228.5 -87.5q-91 0 -145 22z" />
    <glyph glyph-name="k" unicode="k" horiz-adv-x="1075" 
d="M932 0l-455 547l-186 -189v-358h-92v1593h92v-1132l581 606h119v-4l-454 -457l512 -602v-4h-117z" />
    <glyph glyph-name="l" unicode="l" horiz-adv-x="495" 
d="M203 0v1593h92v-1593h-92z" />
    <glyph glyph-name="m" unicode="m" horiz-adv-x="1912" 
d="M291 752v-752h-92v1067h84l4 -201q61 97 156.5 161.5t224.5 64.5q119 0 202.5 -59.5t116.5 -174.5q62 100 160.5 167t234.5 67q158 0 250 -99.5t92 -283.5v-709h-92v692q0 154 -69 234t-189 80q-123 0 -220 -74.5t-146 -179.5v-752h-93v692q0 155 -69 234.5t-191 79.5
t-219.5 -75t-144.5 -179z" />
    <glyph glyph-name="n" unicode="n" horiz-adv-x="1212" 
d="M291 752v-752h-92v1067h84l4 -201q143 226 391 226q160 0 253 -99.5t93 -283.5v-709h-92v692q0 157 -70.5 235.5t-197.5 78.5q-123 0 -221 -70.5t-152 -183.5z" />
    <glyph glyph-name="o" unicode="o" horiz-adv-x="1210" 
d="M606 -25q-215 0 -353 150.5t-138 406.5q0 257 138 408.5t353 151.5q216 0 354 -151.5t138 -408.5q0 -256 -138 -406.5t-354 -150.5zM606 59q183 0 290.5 128.5t107.5 344.5q0 217 -107.5 346.5t-290.5 129.5t-291 -129.5t-108 -346.5q0 -216 108 -344.5t291 -128.5z" />
    <glyph glyph-name="p" unicode="p" horiz-adv-x="1259" 
d="M639 -25q-212 0 -348 146v-576h-92v1522h84l4 -195q64 97 166 158.5t233 61.5q203 0 331 -146t128 -397q0 -264 -141 -419t-365 -155zM291 762v-539q133 -164 342 -164q185 0 301.5 128.5t116.5 357.5q0 216 -104 338.5t-271 122.5q-127 0 -228 -68.5t-157 -175.5z" />
    <glyph glyph-name="q" unicode="q" horiz-adv-x="1259" 
d="M1063 1067v-1522h-92v613q-65 -86 -161 -134.5t-216 -48.5q-210 0 -343.5 148t-133.5 403q0 258 138.5 412t369.5 154q119 0 202.5 -43.5t149.5 -126.5l8 145h78zM209 524q0 -221 109.5 -342t285.5 -121q119 0 214.5 55t152.5 156v545q-58 89 -138 140t-202 51
q-190 0 -306 -128.5t-116 -355.5z" />
    <glyph glyph-name="r" unicode="r" horiz-adv-x="761" 
d="M283 702v-702h-93v1067h86l3 -213q49 114 133 173.5t190 59.5q73 0 127 -24l-10 -92q-63 24 -129 24q-109 0 -191 -75t-116 -218z" />
    <glyph glyph-name="s" unicode="s" horiz-adv-x="962" 
d="M113 92l24 90q150 -123 348 -123q135 0 205 54.5t70 154.5q0 28 -6.5 51t-16 40.5t-30 33.5t-38.5 27t-52.5 25t-60.5 23t-73 24q-53 18 -84.5 29t-73.5 29t-66 33t-51 38t-40.5 47.5t-23 57t-9.5 71.5q0 136 96.5 215.5t262.5 79.5q178 0 309 -95l-25 -90
q-128 101 -289 101q-126 0 -195 -56.5t-69 -148.5q0 -28 7.5 -51.5t17.5 -41t34 -34.5t41.5 -28t56 -25.5t62 -23t74.5 -24.5q72 -24 113 -39.5t89 -41.5t72.5 -54.5t41 -70.5t16.5 -97q0 -145 -99.5 -221t-273.5 -76q-210 0 -364 117z" />
    <glyph glyph-name="t" unicode="t" horiz-adv-x="745" 
d="M690 29q-84 -54 -194 -54q-118 0 -188 67t-70 210v737h-191v78h191v307l92 27v-334h350v-78h-350v-727q0 -102 43.5 -152.5t134.5 -50.5q92 0 168 58z" />
    <glyph glyph-name="u" unicode="u" horiz-adv-x="1212" 
d="M928 0l-2 197q-60 -98 -157 -160t-228 -62q-162 0 -257.5 99t-95.5 284v709h93v-692q0 -156 73.5 -235t200.5 -79q73 0 137.5 25.5t109 67.5t74 83.5t46.5 84.5v745h92v-1067h-86z" />
    <glyph glyph-name="v" unicode="v" horiz-adv-x="1038" 
d="M975 1067l-414 -1067h-84l-414 1067h101l356 -954l357 954h98z" />
    <glyph glyph-name="w" unicode="w" horiz-adv-x="1634" 
d="M1116 0l-299 932l-299 -932h-88l-350 1067h98l299 -938l297 938h90l297 -942l297 942h98l-352 -1067h-88z" />
    <glyph glyph-name="x" unicode="x" horiz-adv-x="1034" 
d="M846 0l-332 469l-330 -469h-102v4l381 537l-373 522v4h107l323 -461l318 461h102v-4l-373 -522l385 -537v-4h-106z" />
    <glyph glyph-name="y" unicode="y" horiz-adv-x="1054" 
d="M580 2q-59 -151 -107 -245.5t-95 -144t-89 -66.5t-99 -17q-66 0 -122 25l8 90q56 -29 117 -29q53 0 92.5 28.5t88 112.5t113.5 246l-413 1065h100l361 -963l360 963h98z" />
    <glyph glyph-name="z" unicode="z" horiz-adv-x="985" 
d="M893 82v-82h-801v76l688 909h-653v82h764v-76l-688 -909h690z" />
    <glyph glyph-name="braceleft" unicode="{" horiz-adv-x="782" 
d="M668 -340h-121q-144 0 -223.5 78t-79.5 217q0 72 32 182q46 144 46 230q0 105 -52 162t-170 57h-57v82h57q118 0 170 57t52 162q0 81 -46 229q-32 110 -32 182q0 139 79.5 217t223.5 78h121v-73h-125q-101 0 -155 -60.5t-54 -161.5q0 -74 31 -165q45 -127 45 -240
q0 -105 -43.5 -174.5t-128.5 -89.5v-4q84 -20 128 -90t44 -175q0 -106 -45 -239q-31 -95 -31 -166q0 -101 53.5 -161t155.5 -60h125v-74z" />
    <glyph glyph-name="bar" unicode="|" horiz-adv-x="782" 
d="M348 -455v2048h86v-2048h-86z" />
    <glyph glyph-name="braceright" unicode="}" horiz-adv-x="782" 
d="M115 1593h121q144 0 223.5 -78t79.5 -217q0 -81 -33 -182q-45 -140 -45 -229q0 -106 51.5 -162.5t169.5 -56.5h57v-82h-57q-118 0 -169.5 -56.5t-51.5 -162.5q0 -83 45 -230q33 -113 33 -182q0 -139 -79.5 -217t-223.5 -78h-121v74h125q102 0 155.5 60t53.5 161
q0 71 -31 166q-45 137 -45 239q0 105 44 175t128 90v4q-85 20 -128.5 89.5t-43.5 174.5q0 110 45 240q31 95 31 165q0 101 -54 161.5t-155 60.5h-125v73z" />
    <glyph glyph-name="asciitilde" unicode="~" 
d="M254 449l-80 8q0 84 21 146t56.5 94.5t73 47.5t78.5 15q101 0 265 -111q74 -51 125 -76.5t94 -25.5q62 0 105.5 52t43.5 177l80 -8q0 -84 -21 -146t-56.5 -94.5t-73 -47.5t-78.5 -15q-104 0 -264 110q-78 54 -127.5 79.5t-92.5 25.5q-62 0 -105.5 -53t-43.5 -178z" />
    <glyph glyph-name="exclamdown" unicode="&#xa1;" horiz-adv-x="704" 
d="M414 1067v-149h-123v149h123zM387 737l21 -1186v-4h-113v4l22 1186h70z" />
    <glyph glyph-name="cent" unicode="&#xa2;" 
d="M1051 375q-136 -122 -355 -127v-277h-73v279q-213 15 -338 150t-125 362q0 226 125 363.5t338 156.5v270h73v-268q209 -3 342 -121l-30 -86q-128 125 -312 125v-872q108 1 187 35.5t145 97.5zM250 762q0 -182 98.5 -295.5t274.5 -132.5v864q-175 -17 -274 -133.5
t-99 -302.5z" />
    <glyph glyph-name="sterling" unicode="&#xa3;" 
d="M1163 86v-86h-993v74q64 6 115 24t83.5 46.5t55.5 60.5t34.5 71t16 72.5t4.5 69.5q0 130 -65 282h-244v74h209q-40 87 -61 159.5t-21 158.5q0 206 127.5 331t331.5 125q235 0 379 -174l-37 -82q-138 170 -346 170q-163 0 -262 -94t-99 -270q0 -85 21.5 -154.5
t62.5 -155.5l6 -14h453v-74h-420q57 -135 57 -272q0 -244 -161 -342h753z" />
    <glyph glyph-name="currency" unicode="&#xa4;" 
d="M1116 346l-57 -57l-211 211q-86 -70 -203 -70q-118 0 -203 72l-211 -213l-57 57l213 211q-63 85 -63 203t63 203l-213 211l57 57l211 -211q86 70 203 70q118 0 203 -72l211 213l57 -57l-213 -211q64 -86 64 -203t-64 -203zM645 508q104 0 171 72.5t67 179.5t-67 179.5
t-171 72.5t-170.5 -72.5t-66.5 -179.5t66.5 -179.5t170.5 -72.5z" />
    <glyph glyph-name="yen" unicode="&#xa5;" 
d="M1077 303h-387v-303h-90v303h-385v76h385v244h-385v75h371l-467 822h104l424 -768l424 768h100l-471 -822h377v-75h-387v-244h387v-76z" />
    <glyph glyph-name="brokenbar" unicode="&#xa6;" horiz-adv-x="782" 
d="M348 825v768h86v-768h-86zM348 -455v768h86v-768h-86z" />
    <glyph glyph-name="section" unicode="&#xa7;" horiz-adv-x="1249" 
d="M1030 -12q0 -152 -107.5 -244t-306.5 -92q-230 0 -391 131l31 88q83 -68 165 -101.5t191 -33.5q160 0 245 68t85 180q0 36 -10 67.5t-25 55t-42.5 45t-52.5 36t-64.5 30.5t-69 26t-76.5 24q-50 16 -79.5 25.5t-74 28t-71 35t-58.5 42.5t-49 55t-29 68.5t-12 85.5
q0 111 60 192.5t172 117.5q-104 45 -161.5 112.5t-57.5 181.5q0 150 106.5 243t304.5 93q209 0 351 -102l-33 -88q-76 56 -148.5 81t-165.5 25q-166 0 -246.5 -70t-80.5 -177q0 -50 19.5 -91t48 -68t77.5 -52.5t89.5 -40t103.5 -33.5q49 -15 80 -25.5t75 -28.5t71 -35
t58.5 -43t49 -55t29 -68t11.5 -85q0 -111 -61 -190.5t-174 -114.5q106 -45 164.5 -114t58.5 -185zM655 340q31 -8 52 -16q118 26 182.5 96t64.5 164q0 47 -17 85t-44 64t-73.5 50.5t-90.5 40.5t-111 36q-50 17 -59 19q-113 -25 -177.5 -94t-64.5 -167q0 -57 24.5 -101.5
t72.5 -77t104.5 -55t136.5 -44.5z" />
    <glyph glyph-name="dieresis" unicode="&#xa8;" horiz-adv-x="1024" 
d="M651 1327v146h119v-146h-119zM254 1327v146h119v-146h-119z" />
    <glyph glyph-name="copyright" unicode="&#xa9;" horiz-adv-x="1880" 
d="M940 -29q-164 0 -310.5 62t-251 167.5t-165.5 251t-61 308.5q0 162 61 308t165.5 251.5t251 167t310.5 61.5t311 -61.5t251.5 -167t165.5 -251.5t61 -308q0 -217 -103.5 -398t-285 -286t-400.5 -105zM940 43q200 0 363.5 95t255.5 259.5t92 362.5t-92 362.5t-255.5 259.5
t-363.5 95t-363.5 -95t-255.5 -259.5t-92 -362.5t92 -362.5t255.5 -259.5t363.5 -95zM1276 410q-124 -111 -311 -111q-197 0 -318 124.5t-121 336.5t122.5 336.5t320.5 124.5q185 0 297 -101l-27 -76q-102 99 -268 99q-168 0 -264.5 -105.5t-96.5 -277.5q0 -176 97.5 -279.5
t257.5 -103.5q83 0 159 28.5t127 79.5z" />
    <glyph glyph-name="ordfeminine" unicode="&#xaa;" horiz-adv-x="942" 
d="M698 758l-2 125q-47 -65 -120 -103.5t-164 -38.5q-117 0 -188.5 62.5t-71.5 171.5q0 246 409 246h129v53q0 101 -46.5 150t-160.5 49q-150 0 -262 -84l-20 75q112 84 286 84q287 0 287 -258v-532h-76zM424 815q94 0 162 43.5t104 114.5v180h-117q-176 0 -256.5 -43.5
t-80.5 -134.5q0 -74 49 -117t139 -43zM164 485v78h614v-78h-614z" />
    <glyph glyph-name="guillemotleft" unicode="&#xab;" horiz-adv-x="1273" 
d="M1049 152l-72 -52l-371 449v8l371 449l72 -52l-338 -401zM645 152l-72 -52l-370 449v8l370 449l72 -52l-338 -401z" />
    <glyph glyph-name="logicalnot" unicode="&#xac;" 
d="M1128 653v-444h-81v362h-885v82h966z" />
    <glyph glyph-name="registered" unicode="&#xae;" horiz-adv-x="1327" 
d="M664 614q-153 0 -279 73t-198 199t-72 277q0 112 42.5 213.5t115 175t175 117t216.5 43.5q153 0 279.5 -73.5t197.5 -199.5t71 -276q0 -151 -71 -276.5t-197 -199t-280 -73.5zM664 676q204 0 342.5 141.5t138.5 345.5t-138.5 346t-342.5 142t-343 -142t-139 -346
t139 -345.5t343 -141.5zM522 1092v-228h-67v611h217q110 0 167.5 -47t57.5 -138q0 -77 -38.5 -122t-96.5 -62l182 -242h-80l-170 230q-8 -2 -24 -2h-148zM522 1415v-266h152q26 0 49.5 5t49.5 18.5t41 42.5t15 71q0 70 -39.5 99.5t-113.5 29.5h-154z" />
    <glyph glyph-name="macron" unicode="&#xaf;" horiz-adv-x="1024" 
d="M205 1362v80h614v-80h-614z" />
    <glyph glyph-name="degree" unicode="&#xb0;" horiz-adv-x="921" 
d="M461 944q-141 0 -234.5 97.5t-93.5 238.5t93.5 237.5t234.5 96.5t234 -96.5t93 -237.5t-93 -238.5t-234 -97.5zM461 1020q108 0 178 74.5t70 185.5q0 110 -70 185t-178 75q-107 0 -176.5 -75t-69.5 -185q0 -111 69 -185.5t177 -74.5z" />
    <glyph glyph-name="plusminus" unicode="&#xb1;" 
d="M1139 733h-453v-477h-82v477h-452v82h452v477h82v-477h453v-82zM152 0v82h987v-82h-987z" />
    <glyph glyph-name="two.sups" unicode="&#xb2;" horiz-adv-x="739" 
d="M653 913v-73h-577v71l274 265q58 56 89.5 88.5t61.5 72.5t42 76.5t12 77.5q0 85 -51 133.5t-137 48.5q-72 0 -134 -39t-104 -114l-43 65q103 160 285 160q121 0 194.5 -68t73.5 -184q0 -95 -54.5 -173t-181.5 -198l-221 -209h471z" />
    <glyph glyph-name="three.sups" unicode="&#xb3;" horiz-adv-x="739" 
d="M657 1081q0 -121 -85 -191.5t-228 -70.5q-167 0 -272 78l16 80q107 -86 254 -86q108 0 169.5 50.5t61.5 141.5q0 86 -63.5 131.5t-208.5 45.5h-94v69h86q119 0 187.5 46.5t68.5 135.5q0 75 -49.5 118.5t-141.5 43.5q-143 0 -235 -102l-35 67q107 107 277 107
q127 0 197.5 -60.5t70.5 -164.5q0 -86 -48.5 -142t-135.5 -78q208 -38 208 -219z" />
    <glyph glyph-name="acute" unicode="&#xb4;" horiz-adv-x="1024" 
d="M453 1212l-56 31l258 412l86 -47z" />
    <glyph glyph-name="uni00B5" unicode="&#xb5;" horiz-adv-x="1277" 
d="M565 -25q-199 0 -278 150l12 -580h-92v1522h92v-692q0 -156 73.5 -235t200.5 -79q73 0 137.5 25.5t108.5 67.5t73.5 83.5t47.5 84.5v745h92v-872q0 -123 98 -123q38 0 74 16v-84q-41 -16 -90 -16q-168 0 -168 188v19q-60 -98 -157.5 -159t-223.5 -61z" />
    <glyph glyph-name="paragraph" unicode="&#xb6;" horiz-adv-x="1359" 
d="M819 1448v-1780h-76v893h-63q-256 0 -400.5 120t-144.5 359q0 225 139.5 352.5t372.5 127.5h449v-1852h-76v1780h-201z" />
    <glyph glyph-name="periodcentered" unicode="&#xb7;" horiz-adv-x="577" 
d="M225 530v158h131v-158h-131z" />
    <glyph glyph-name="cedilla" unicode="&#xb8;" horiz-adv-x="1024" 
d="M721 -305q0 -81 -57 -131.5t-177 -50.5q-111 0 -188 41l18 73q75 -43 179 -43q74 0 108.5 30t34.5 81q0 47 -44 80t-173 61l72 170h69l-55 -121q126 -37 169.5 -82.5t43.5 -107.5z" />
    <glyph glyph-name="one.sups" unicode="&#xb9;" horiz-adv-x="595" 
d="M399 1720v-880h-82v768q-105 -92 -235 -154l-39 66q164 77 293 200h63z" />
    <glyph glyph-name="ordmasculine" unicode="&#xba;" horiz-adv-x="942" 
d="M471 741q-157 0 -256.5 108.5t-99.5 295.5t99.5 295t256.5 108t256.5 -108t99.5 -295t-99.5 -295.5t-256.5 -108.5zM471 817q124 0 198 89.5t74 238.5t-74 238.5t-198 89.5t-198 -89.5t-74 -238.5t74 -238.5t198 -89.5zM164 485v78h614v-78h-614z" />
    <glyph glyph-name="guillemotright" unicode="&#xbb;" horiz-adv-x="1273" 
d="M1071 551l-371 -449l-71 52l338 401l-338 401l71 52l371 -449v-8zM668 551l-371 -449l-72 52l338 401l-338 401l72 52l371 -449v-8z" />
    <glyph glyph-name="onequarter" unicode="&#xbc;" horiz-adv-x="1562" 
d="M399 1520v-881h-82v768q-105 -92 -235 -154l-39 66q162 76 293 201h63zM166 0l1085 1520h92l-1085 -1520h-92zM1513 223h-149v-227h-78v227h-452v74l438 596h92v-598h149v-72zM915 295h371v502z" />
    <glyph glyph-name="onehalf" unicode="&#xbd;" horiz-adv-x="1652" 
d="M399 1520v-881h-82v768q-105 -92 -235 -154l-39 66q162 76 293 201h63zM166 0l1085 1520h92l-1085 -1520h-92zM1565 74v-74h-578v72l275 264q115 110 159.5 173.5t44.5 141.5q0 85 -51 134t-137 49q-72 0 -133.5 -39.5t-104.5 -114.5l-43 65q103 160 285 160
q121 0 194.5 -68t73.5 -184q0 -95 -54 -172.5t-181 -197.5l-221 -209h471z" />
    <glyph glyph-name="threequarters" unicode="&#xbe;" horiz-adv-x="1685" 
d="M657 881q0 -121 -85 -192t-228 -71q-167 0 -272 78l16 80q107 -86 254 -86q108 0 169.5 50.5t61.5 142.5q0 86 -63.5 131t-208.5 45h-94v69h86q118 0 187 47t69 136q0 75 -49.5 118.5t-141.5 43.5q-142 0 -235 -103l-35 68q106 106 277 106q127 0 197.5 -60.5
t70.5 -164.5q0 -86 -48.5 -141.5t-135.5 -77.5q208 -38 208 -219zM289 0l1085 1520h92l-1085 -1520h-92zM1638 223h-149v-227h-78v227h-453v74l439 596h92v-598h149v-72zM1040 295h371v502z" />
    <glyph glyph-name="questiondown" unicode="&#xbf;" horiz-adv-x="1054" 
d="M692 1067v-149h-121v149h121zM676 737v-131q0 -48 -12.5 -89.5t-30.5 -70t-49.5 -57t-57.5 -46t-67 -42.5q-46 -27 -72.5 -45t-63 -51.5t-56 -67t-34 -84.5t-14.5 -112q0 -88 28 -155t75.5 -105t105 -57t123.5 -19q224 0 362 211l52 -76q-74 -109 -180.5 -165t-235.5 -56
q-88 0 -164 26t-135 76.5t-93 133t-34 188.5q0 71 17.5 132t41.5 102t65 79.5t73 60.5t79 50q101 60 145 112t44 127v131h88z" />
    <glyph glyph-name="Agrave" unicode="&#xc0;" horiz-adv-x="1386" 
d="M795 1640l-381 295l78 60l352 -318zM1223 0l-183 481h-696l-180 -481h-98l577 1520h100l578 -1520h-98zM377 567h631l-316 838z" />
    <glyph glyph-name="Aacute" unicode="&#xc1;" horiz-adv-x="1386" 
d="M594 1640l-49 37l352 318l78 -60zM1223 0l-183 481h-696l-180 -481h-98l577 1520h100l578 -1520h-98zM377 567h631l-316 838z" />
    <glyph glyph-name="Acircumflex" unicode="&#xc2;" horiz-adv-x="1386" 
d="M1016 1675l-80 -26l-242 266l-241 -266l-80 26l291 312h61zM1223 0l-183 481h-696l-180 -481h-98l577 1520h100l578 -1520h-98zM377 567h631l-316 838z" />
    <glyph glyph-name="Atilde" unicode="&#xc3;" horiz-adv-x="1386" 
d="M397 1667l-75 6q0 128 55.5 192t138.5 64q36 0 74 -14.5t62 -30.5t59 -43t56 -41.5t51.5 -27.5t58.5 -13q114 0 114 185l76 -9q0 -127 -55.5 -190.5t-139.5 -63.5q-36 0 -74 14.5t-61.5 30.5t-58.5 43q-36 27 -56.5 41t-51 26.5t-58.5 12.5q-115 0 -115 -182zM1223 0
l-183 481h-696l-180 -481h-98l577 1520h100l578 -1520h-98zM377 567h631l-316 838z" />
    <glyph glyph-name="Adieresis" unicode="&#xc4;" horiz-adv-x="1386" 
d="M834 1733v145h118v-145h-118zM436 1733v145h119v-145h-119zM1223 0l-183 481h-696l-180 -481h-98l577 1520h100l578 -1520h-98zM377 567h631l-316 838z" />
    <glyph glyph-name="Aring" unicode="&#xc5;" horiz-adv-x="1386" 
d="M1223 0l-183 481h-696l-180 -481h-98l575 1518q-80 15 -131 77t-51 146q0 97 67 163t168 66t168.5 -66t67.5 -163q0 -84 -51.5 -146t-133.5 -79l576 -1516h-98zM694 1579q73 0 118.5 45t45.5 117t-45.5 117t-118.5 45t-118.5 -45t-45.5 -117t45.5 -117t118.5 -45z
M377 567h631l-316 838z" />
    <glyph glyph-name="AE" unicode="&#xc6;" horiz-adv-x="1976" 
d="M963 0v526h-605l-305 -526h-102l885 1520h993v-86h-772v-584h690v-86h-690v-678h788v-86h-882zM963 1436h-78l-477 -826h555v826z" />
    <glyph glyph-name="Ccedilla" unicode="&#xc7;" horiz-adv-x="1415" 
d="M1020 -305q0 -81 -57 -131.5t-177 -50.5q-111 0 -188 41l18 73q75 -43 179 -43q74 0 108.5 30t34.5 81q0 47 -44 80t-173 61l57 137q-293 15 -469 224t-176 563q0 371 190.5 579.5t505.5 208.5q282 0 463 -170l-35 -92q-168 174 -428 174q-280 0 -439 -186.5t-159 -513.5
q0 -169 44.5 -303t124.5 -220.5t189 -132t240 -45.5q144 0 259.5 52.5t195.5 138.5l29 -92q-83 -81 -201 -132t-266 -55l-39 -86q126 -37 169.5 -82.5t43.5 -107.5z" />
    <glyph glyph-name="Egrave" unicode="&#xc8;" horiz-adv-x="1261" 
d="M768 1640l-381 295l78 60l352 -318zM1130 86v-86h-903v1520h887v-86h-792v-584h710v-86h-710v-678h808z" />
    <glyph glyph-name="Eacute" unicode="&#xc9;" horiz-adv-x="1261" 
d="M567 1640l-49 37l352 318l78 -60zM1130 86v-86h-903v1520h887v-86h-792v-584h710v-86h-710v-678h808z" />
    <glyph glyph-name="Ecircumflex" unicode="&#xca;" horiz-adv-x="1261" 
d="M989 1675l-80 -26l-241 266l-242 -266l-80 26l291 312h61zM1130 86v-86h-903v1520h887v-86h-792v-584h710v-86h-710v-678h808z" />
    <glyph glyph-name="Edieresis" unicode="&#xcb;" horiz-adv-x="1261" 
d="M807 1733v145h119v-145h-119zM410 1733v145h118v-145h-118zM1130 86v-86h-903v1520h887v-86h-792v-584h710v-86h-710v-678h808z" />
    <glyph glyph-name="Igrave" unicode="&#xcc;" horiz-adv-x="550" 
d="M375 1640l-381 295l78 60l352 -318zM227 0v1520h95v-1520h-95z" />
    <glyph glyph-name="Iacute" unicode="&#xcd;" horiz-adv-x="550" 
d="M174 1640l-49 37l352 318l78 -60zM227 0v1520h95v-1520h-95z" />
    <glyph glyph-name="Icircumflex" unicode="&#xce;" horiz-adv-x="550" 
d="M596 1675l-80 -26l-242 266l-241 -266l-80 26l291 312h61zM227 0v1520h95v-1520h-95z" />
    <glyph glyph-name="Idieresis" unicode="&#xcf;" horiz-adv-x="550" 
d="M414 1733v145h118v-145h-118zM16 1733v145h119v-145h-119zM227 0v1520h95v-1520h-95z" />
    <glyph glyph-name="Eth" unicode="&#xd0;" horiz-adv-x="1523" 
d="M1389 756q0 -190 -53 -335t-151.5 -237t-235 -138t-308.5 -46h-408v766h-182v82h182v672h402q196 0 343.5 -57.5t236 -162t131.5 -240.5t43 -304zM774 766h-446v-680h309q313 0 484 165.5t171 504.5q0 99 -15.5 185t-48 162.5t-86 136.5t-125.5 104t-171 67t-219 23h-299
v-586h446v-82z" />
    <glyph glyph-name="Ntilde" unicode="&#xd1;" horiz-adv-x="1572" 
d="M489 1667l-75 6q0 128 55.5 192t138.5 64q36 0 74 -14.5t62 -30.5t59 -43t56 -41.5t51.5 -27.5t58.5 -13q114 0 114 185l76 -9q0 -127 -55.5 -190.5t-138.5 -63.5q-36 0 -74 14.5t-62 30.5t-59 43q-36 27 -56.5 41t-51 26.5t-58.5 12.5q-115 0 -115 -182zM1245 0
l-930 1380v-1380h-88v1520h103l927 -1377v1377h89v-1520h-101z" />
    <glyph glyph-name="Ograve" unicode="&#xd2;" horiz-adv-x="1581" 
d="M891 1640l-381 295l78 60l352 -318zM791 -29q-144 0 -265 54.5t-208.5 154.5t-136 249t-48.5 331t48.5 331t136 249t208.5 154t265 54t265 -54t208 -154t135.5 -249t48.5 -331t-48.5 -331t-135.5 -249t-208 -154.5t-265 -54.5zM791 59q259 0 409 188.5t150 512.5
q0 323 -150 511.5t-409 188.5t-409.5 -188t-150.5 -512q0 -323 150.5 -512t409.5 -189z" />
    <glyph glyph-name="Oacute" unicode="&#xd3;" horiz-adv-x="1581" 
d="M690 1640l-49 37l352 318l78 -60zM791 -29q-144 0 -265 54.5t-208.5 154.5t-136 249t-48.5 331t48.5 331t136 249t208.5 154t265 54t265 -54t208 -154t135.5 -249t48.5 -331t-48.5 -331t-135.5 -249t-208 -154.5t-265 -54.5zM791 59q259 0 409 188.5t150 512.5
q0 323 -150 511.5t-409 188.5t-409.5 -188t-150.5 -512q0 -323 150.5 -512t409.5 -189z" />
    <glyph glyph-name="Ocircumflex" unicode="&#xd4;" horiz-adv-x="1581" 
d="M1112 1675l-80 -26l-241 266l-242 -266l-80 26l291 312h61zM791 -29q-144 0 -265 54.5t-208.5 154.5t-136 249t-48.5 331t48.5 331t136 249t208.5 154t265 54t265 -54t208 -154t135.5 -249t48.5 -331t-48.5 -331t-135.5 -249t-208 -154.5t-265 -54.5zM791 59
q259 0 409 188.5t150 512.5q0 323 -150 511.5t-409 188.5t-409.5 -188t-150.5 -512q0 -323 150.5 -512t409.5 -189z" />
    <glyph glyph-name="Otilde" unicode="&#xd5;" horiz-adv-x="1581" 
d="M494 1667l-76 6q0 128 55.5 192t138.5 64q36 0 74 -14.5t62 -30.5t59 -43t56 -41.5t51.5 -27.5t58.5 -13q114 0 114 185l76 -9q0 -127 -55.5 -190.5t-138.5 -63.5q-36 0 -74 14.5t-62 30.5t-59 43q-36 27 -56.5 41t-51 26.5t-58.5 12.5q-114 0 -114 -182zM791 -29
q-144 0 -265 54.5t-208.5 154.5t-136 249t-48.5 331t48.5 331t136 249t208.5 154t265 54t265 -54t208 -154t135.5 -249t48.5 -331t-48.5 -331t-135.5 -249t-208 -154.5t-265 -54.5zM791 59q259 0 409 188.5t150 512.5q0 323 -150 511.5t-409 188.5t-409.5 -188t-150.5 -512
q0 -323 150.5 -512t409.5 -189z" />
    <glyph glyph-name="Odieresis" unicode="&#xd6;" horiz-adv-x="1581" 
d="M930 1733v145h119v-145h-119zM532 1733v145h119v-145h-119zM791 -29q-144 0 -265 54.5t-208.5 154.5t-136 249t-48.5 331t48.5 331t136 249t208.5 154t265 54t265 -54t208 -154t135.5 -249t48.5 -331t-48.5 -331t-135.5 -249t-208 -154.5t-265 -54.5zM791 59
q259 0 409 188.5t150 512.5q0 323 -150 511.5t-409 188.5t-409.5 -188t-150.5 -512q0 -323 150.5 -512t409.5 -189z" />
    <glyph glyph-name="multiply" unicode="&#xd7;" 
d="M1114 203l-59 -60l-410 420l-409 -420l-60 60l420 409l-420 410l60 59l409 -419l410 419l59 -59l-420 -410z" />
    <glyph glyph-name="Oslash" unicode="&#xd8;" horiz-adv-x="1581" 
d="M791 -29q-243 0 -414 148l-141 -199l-70 31l158 221q-191 217 -191 588q0 182 48.5 331t136 249t208.5 154t265 54q241 0 411 -147l141 198l70 -30l-158 -221q193 -215 193 -588q0 -182 -48.5 -331t-135.5 -249t-208 -154.5t-265 -54.5zM231 760q0 -319 148 -510
l770 1077q-142 133 -358 133q-259 0 -409.5 -188t-150.5 -512zM1350 760q0 321 -150 510l-768 -1075q142 -136 359 -136q259 0 409 188.5t150 512.5z" />
    <glyph glyph-name="Ugrave" unicode="&#xd9;" horiz-adv-x="1507" 
d="M854 1640l-381 295l78 60l352 -318zM211 565v955h92v-959q0 -248 116.5 -375t334.5 -127q219 0 335.5 127t116.5 375v959h92v-955q0 -286 -138.5 -440t-405.5 -154q-268 0 -405.5 154t-137.5 440z" />
    <glyph glyph-name="Uacute" unicode="&#xda;" horiz-adv-x="1507" 
d="M653 1640l-49 37l352 318l78 -60zM211 565v955h92v-959q0 -248 116.5 -375t334.5 -127q219 0 335.5 127t116.5 375v959h92v-955q0 -286 -138.5 -440t-405.5 -154q-268 0 -405.5 154t-137.5 440z" />
    <glyph glyph-name="Ucircumflex" unicode="&#xdb;" horiz-adv-x="1507" 
d="M1075 1675l-80 -26l-241 266l-242 -266l-80 26l291 312h61zM211 565v955h92v-959q0 -248 116.5 -375t334.5 -127q219 0 335.5 127t116.5 375v959h92v-955q0 -286 -138.5 -440t-405.5 -154q-268 0 -405.5 154t-137.5 440z" />
    <glyph glyph-name="Udieresis" unicode="&#xdc;" horiz-adv-x="1507" 
d="M893 1733v145h119v-145h-119zM496 1733v145h118v-145h-118zM211 565v955h92v-959q0 -248 116.5 -375t334.5 -127q219 0 335.5 127t116.5 375v959h92v-955q0 -286 -138.5 -440t-405.5 -154q-268 0 -405.5 154t-137.5 440z" />
    <glyph glyph-name="Yacute" unicode="&#xdd;" horiz-adv-x="1228" 
d="M514 1640l-49 37l352 318l78 -60zM1182 1520l-520 -920v-600h-95v594l-520 926h105l462 -834l465 834h103z" />
    <glyph glyph-name="Thorn" unicode="&#xde;" horiz-adv-x="1226" 
d="M322 352v-352h-95v1520h95v-295h329q114 0 204 -25t157 -76t103 -135.5t36 -197.5q0 -99 -28.5 -176.5t-76 -126t-114 -80t-137 -44t-150.5 -12.5h-323zM649 1141h-327v-705h317q418 0 418 355q0 350 -408 350z" />
    <glyph glyph-name="germandbls" unicode="&#xdf;" horiz-adv-x="1239" 
d="M1124 416q0 -197 -111.5 -319t-314.5 -122q-127 0 -252 64l17 88q120 -68 239 -68q159 0 244.5 98t85.5 259q0 378 -504 440v78q203 1 302.5 87.5t99.5 225.5q0 127 -77.5 203t-219.5 76q-168 0 -255 -112.5t-87 -330.5v-1083h-92v1085q0 244 110.5 384.5t325.5 140.5
q180 0 281.5 -97.5t101.5 -261.5q0 -136 -75.5 -229.5t-223.5 -128.5q198 -50 301.5 -170t103.5 -307z" />
    <glyph glyph-name="agrave" unicode="&#xe0;" horiz-adv-x="1134" 
d="M633 1212l-289 396l86 47l258 -412zM862 0l-2 174q-65 -92 -163 -145.5t-222 -53.5q-155 0 -251.5 84t-96.5 234q0 344 563 344h166v82q0 145 -65 217t-224 72q-205 0 -350 -119l-22 88q66 54 163.5 84.5t212.5 30.5q198 0 287.5 -92.5t89.5 -266.5v-733h-86zM485 59
q125 0 222 63.5t149 166.5v270h-162q-244 0 -359.5 -64.5t-115.5 -201.5q0 -112 72 -173t194 -61z" />
    <glyph glyph-name="aacute" unicode="&#xe1;" horiz-adv-x="1134" 
d="M514 1212l-55 31l258 412l86 -47zM862 0l-2 174q-65 -92 -163 -145.5t-222 -53.5q-155 0 -251.5 84t-96.5 234q0 344 563 344h166v82q0 145 -65 217t-224 72q-205 0 -350 -119l-22 88q66 54 163.5 84.5t212.5 30.5q198 0 287.5 -92.5t89.5 -266.5v-733h-86zM485 59
q125 0 222 63.5t149 166.5v270h-162q-244 0 -359.5 -64.5t-115.5 -201.5q0 -112 72 -173t194 -61z" />
    <glyph glyph-name="acircumflex" unicode="&#xe2;" horiz-adv-x="1134" 
d="M874 1239l-77 -27l-224 355l-223 -355l-78 27l271 410h61zM862 0l-2 174q-65 -92 -163 -145.5t-222 -53.5q-155 0 -251.5 84t-96.5 234q0 344 563 344h166v82q0 145 -65 217t-224 72q-205 0 -350 -119l-22 88q66 54 163.5 84.5t212.5 30.5q198 0 287.5 -92.5t89.5 -266.5
v-733h-86zM485 59q125 0 222 63.5t149 166.5v270h-162q-244 0 -359.5 -64.5t-115.5 -201.5q0 -112 72 -173t194 -61z" />
    <glyph glyph-name="atilde" unicode="&#xe3;" horiz-adv-x="1134" 
d="M293 1262l-76 8q0 127 51.5 190.5t132.5 63.5q85 0 189 -88q54 -45 88 -63.5t67 -18.5q109 0 109 184l76 -8q0 -127 -52 -190.5t-133 -63.5q-86 0 -188 88q-97 82 -156 82q-108 0 -108 -184zM862 0l-2 174q-65 -92 -163 -145.5t-222 -53.5q-155 0 -251.5 84t-96.5 234
q0 344 563 344h166v82q0 145 -65 217t-224 72q-205 0 -350 -119l-22 88q66 54 163.5 84.5t212.5 30.5q198 0 287.5 -92.5t89.5 -266.5v-733h-86zM485 59q125 0 222 63.5t149 166.5v270h-162q-244 0 -359.5 -64.5t-115.5 -201.5q0 -112 72 -173t194 -61z" />
    <glyph glyph-name="adieresis" unicode="&#xe4;" horiz-adv-x="1134" 
d="M713 1327v146h118v-146h-118zM315 1327v146h119v-146h-119zM862 0l-2 174q-65 -92 -163 -145.5t-222 -53.5q-155 0 -251.5 84t-96.5 234q0 344 563 344h166v82q0 145 -65 217t-224 72q-205 0 -350 -119l-22 88q66 54 163.5 84.5t212.5 30.5q198 0 287.5 -92.5
t89.5 -266.5v-733h-86zM485 59q125 0 222 63.5t149 166.5v270h-162q-244 0 -359.5 -64.5t-115.5 -201.5q0 -112 72 -173t194 -61z" />
    <glyph glyph-name="aring" unicode="&#xe5;" horiz-adv-x="1134" 
d="M573 1204q-101 0 -168 66.5t-67 163.5t67 163t168 66t168.5 -66t67.5 -163t-67.5 -163.5t-168.5 -66.5zM573 1272q73 0 118.5 45t45.5 117t-45.5 116.5t-118.5 44.5t-118 -44.5t-45 -116.5t45 -117t118 -45zM862 0l-2 174q-65 -92 -163 -145.5t-222 -53.5
q-155 0 -251.5 84t-96.5 234q0 344 563 344h166v82q0 145 -65 217t-224 72q-205 0 -350 -119l-22 88q66 54 163.5 84.5t212.5 30.5q198 0 287.5 -92.5t89.5 -266.5v-733h-86zM485 59q125 0 222 63.5t149 166.5v270h-162q-244 0 -359.5 -64.5t-115.5 -201.5q0 -112 72 -173
t194 -61z" />
    <glyph glyph-name="ae" unicode="&#xe6;" horiz-adv-x="1880" 
d="M1741 102q-150 -127 -377 -127q-163 0 -277.5 68t-171.5 197q-66 -125 -176 -195t-262 -70q-163 0 -257.5 83t-94.5 227q0 167 137 250t426 83h168v101q0 145 -66 217t-225 72q-201 0 -350 -119l-22 88q66 54 164.5 84.5t211.5 30.5q163 0 248.5 -66t108.5 -192
q56 125 160.5 191.5t248.5 66.5q112 0 195.5 -40.5t132 -111.5t71.5 -157t23 -187v-53h-813v-25q0 -221 110.5 -340t317.5 -119q204 0 346 131zM1331 1010q-157 0 -261.5 -103t-121.5 -289h719v17q0 73 -19 137.5t-57.5 119t-105.5 86.5t-154 32zM483 59q139 0 241.5 73
t152.5 204q-21 96 -21 194v13h-162q-250 0 -362.5 -63t-112.5 -195q0 -107 68 -166.5t196 -59.5z" />
    <glyph glyph-name="ccedilla" unicode="&#xe7;" horiz-adv-x="1058" 
d="M793 -305q0 -81 -57 -131.5t-177 -50.5q-111 0 -188 41l18 73q75 -43 178 -43q74 0 109 30t35 81q0 47 -44 80t-173 61l59 144q-203 22 -320.5 165.5t-117.5 382.5q0 262 138.5 413t373.5 151q196 0 329 -123l-30 -86q-122 125 -301 125q-197 0 -307.5 -128.5
t-110.5 -347.5q0 -220 110.5 -346.5t309.5 -126.5q187 0 319 129l23 -86q-131 -127 -344 -127h-4l-41 -90q126 -37 169.5 -82.5t43.5 -107.5z" />
    <glyph glyph-name="egrave" unicode="&#xe8;" horiz-adv-x="1153" 
d="M655 1212l-288 396l86 47l258 -412zM1016 102q-150 -127 -383 -127q-248 0 -383 145t-135 402q0 260 130 415t357 155q92 0 165.5 -27.5t122 -74t81.5 -111t47 -136t14 -151.5v-53h-825v-21q0 -222 112 -340.5t322 -118.5q207 0 352 131zM602 1010q-162 0 -268.5 -103
t-124.5 -293h731v21q0 73 -19 137.5t-58 119t-106 86.5t-155 32z" />
    <glyph glyph-name="eacute" unicode="&#xe9;" horiz-adv-x="1153" 
d="M537 1212l-56 31l258 412l86 -47zM1016 102q-150 -127 -383 -127q-248 0 -383 145t-135 402q0 260 130 415t357 155q92 0 165.5 -27.5t122 -74t81.5 -111t47 -136t14 -151.5v-53h-825v-21q0 -222 112 -340.5t322 -118.5q207 0 352 131zM602 1010q-162 0 -268.5 -103
t-124.5 -293h731v21q0 73 -19 137.5t-58 119t-106 86.5t-155 32z" />
    <glyph glyph-name="ecircumflex" unicode="&#xea;" horiz-adv-x="1153" 
d="M897 1239l-78 -27l-223 355l-223 -355l-78 27l270 410h62zM1016 102q-150 -127 -383 -127q-248 0 -383 145t-135 402q0 260 130 415t357 155q92 0 165.5 -27.5t122 -74t81.5 -111t47 -136t14 -151.5v-53h-825v-21q0 -222 112 -340.5t322 -118.5q207 0 352 131zM602 1010
q-162 0 -268.5 -103t-124.5 -293h731v21q0 73 -19 137.5t-58 119t-106 86.5t-155 32z" />
    <glyph glyph-name="edieresis" unicode="&#xeb;" horiz-adv-x="1153" 
d="M735 1327v146h119v-146h-119zM338 1327v146h119v-146h-119zM1016 102q-150 -127 -383 -127q-248 0 -383 145t-135 402q0 260 130 415t357 155q92 0 165.5 -27.5t122 -74t81.5 -111t47 -136t14 -151.5v-53h-825v-21q0 -222 112 -340.5t322 -118.5q207 0 352 131zM602 1010
q-162 0 -268.5 -103t-124.5 -293h731v21q0 73 -19 137.5t-58 119t-106 86.5t-155 32z" />
    <glyph glyph-name="igrave" unicode="&#xec;" horiz-adv-x="497" 
d="M307 1212l-289 396l86 47l258 -412zM203 0v1067h92v-1067h-92z" />
    <glyph glyph-name="iacute" unicode="&#xed;" horiz-adv-x="497" 
d="M188 1212l-55 31l258 412l86 -47zM203 0v1067h92v-1067h-92z" />
    <glyph glyph-name="icircumflex" unicode="&#xee;" horiz-adv-x="497" 
d="M512 1241l-72 -27l-192 355l-191 -355l-71 27l233 412h60zM203 0v1067h92v-1067h-92z" />
    <glyph glyph-name="idieresis" unicode="&#xef;" horiz-adv-x="497" 
d="M365 1327v146h118v-146h-118zM14 1327v146h119v-146h-119zM203 0v1067h92v-1067h-92z" />
    <glyph glyph-name="eth" unicode="&#xf0;" horiz-adv-x="1210" 
d="M1090 565q0 -154 -38.5 -270t-107 -184.5t-154.5 -102t-188 -33.5q-120 0 -214.5 44.5t-153 121t-89 174.5t-30.5 211q0 245 134.5 390t350.5 145q225 0 361 -176q-76 229 -267 430l-268 -139l-41 55l258 133q-112 109 -264 211l86 39q140 -97 254 -211l270 141l41 -55
l-262 -137q322 -351 322 -787zM207 528q0 -216 105.5 -342.5t291.5 -126.5q179 0 287 124.5t108 379.5q0 87 -12 166q-119 248 -381 248q-184 0 -291.5 -115t-107.5 -334z" />
    <glyph glyph-name="ntilde" unicode="&#xf1;" horiz-adv-x="1212" 
d="M330 1262l-76 8q0 127 51.5 190.5t132.5 63.5q86 0 189 -88q94 -82 155 -82q109 0 109 184l76 -8q0 -127 -52 -190.5t-133 -63.5q-46 0 -89.5 22t-98.5 66q-57 46 -89.5 64t-66.5 18q-108 0 -108 -184zM291 752v-752h-92v1067h84l4 -201q143 226 391 226q160 0 253 -99.5
t93 -283.5v-709h-92v692q0 157 -70.5 235.5t-197.5 78.5q-123 0 -221 -70.5t-152 -183.5z" />
    <glyph glyph-name="ograve" unicode="&#xf2;" horiz-adv-x="1210" 
d="M666 1212l-289 396l86 47l258 -412zM606 -25q-215 0 -353 150.5t-138 406.5q0 257 138 408.5t353 151.5q216 0 354 -151.5t138 -408.5q0 -256 -138 -406.5t-354 -150.5zM606 59q183 0 290.5 128.5t107.5 344.5q0 217 -107.5 346.5t-290.5 129.5t-291 -129.5t-108 -346.5
q0 -216 108 -344.5t291 -128.5z" />
    <glyph glyph-name="oacute" unicode="&#xf3;" horiz-adv-x="1210" 
d="M547 1212l-55 31l258 412l86 -47zM606 -25q-215 0 -353 150.5t-138 406.5q0 257 138 408.5t353 151.5q216 0 354 -151.5t138 -408.5q0 -256 -138 -406.5t-354 -150.5zM606 59q183 0 290.5 128.5t107.5 344.5q0 217 -107.5 346.5t-290.5 129.5t-291 -129.5t-108 -346.5
q0 -216 108 -344.5t291 -128.5z" />
    <glyph glyph-name="ocircumflex" unicode="&#xf4;" horiz-adv-x="1210" 
d="M907 1239l-78 -27l-223 355l-223 -355l-78 27l270 410h62zM606 -25q-215 0 -353 150.5t-138 406.5q0 257 138 408.5t353 151.5q216 0 354 -151.5t138 -408.5q0 -256 -138 -406.5t-354 -150.5zM606 59q183 0 290.5 128.5t107.5 344.5q0 217 -107.5 346.5t-290.5 129.5
t-291 -129.5t-108 -346.5q0 -216 108 -344.5t291 -128.5z" />
    <glyph glyph-name="otilde" unicode="&#xf5;" horiz-adv-x="1210" 
d="M326 1262l-76 8q0 127 51.5 190.5t132.5 63.5q90 0 189 -88q54 -46 88.5 -64t66.5 -18q109 0 109 184l76 -8q0 -127 -52 -190.5t-133 -63.5q-49 0 -93 23.5t-95 64.5q-53 44 -87 63t-69 19q-108 0 -108 -184zM606 -25q-215 0 -353 150.5t-138 406.5q0 257 138 408.5
t353 151.5q216 0 354 -151.5t138 -408.5q0 -256 -138 -406.5t-354 -150.5zM606 59q183 0 290.5 128.5t107.5 344.5q0 217 -107.5 346.5t-290.5 129.5t-291 -129.5t-108 -346.5q0 -216 108 -344.5t291 -128.5z" />
    <glyph glyph-name="odieresis" unicode="&#xf6;" horiz-adv-x="1210" 
d="M745 1327v146h119v-146h-119zM348 1327v146h119v-146h-119zM606 -25q-215 0 -353 150.5t-138 406.5q0 257 138 408.5t353 151.5q216 0 354 -151.5t138 -408.5q0 -256 -138 -406.5t-354 -150.5zM606 59q183 0 290.5 128.5t107.5 344.5q0 217 -107.5 346.5t-290.5 129.5
t-291 -129.5t-108 -346.5q0 -216 108 -344.5t291 -128.5z" />
    <glyph glyph-name="divide" unicode="&#xf7;" 
d="M563 1069q0 34 24 58t58 24t58 -24t24 -58t-24 -58t-58 -24t-58 24t-24 58zM135 571v82h1020v-82h-1020zM563 156q0 34 24 58t58 24t58 -24t24 -58t-24 -58t-58 -24t-58 24t-24 58z" />
    <glyph glyph-name="oslash" unicode="&#xf8;" horiz-adv-x="1210" 
d="M606 -25q-163 0 -289 93l-127 -179l-65 33l137 193q-147 153 -147 417q0 257 138 408.5t353 151.5q163 0 289 -93l127 177l63 -31l-137 -193q150 -153 150 -420q0 -256 -138 -406.5t-354 -150.5zM207 532q0 -217 108 -344l531 740q-99 80 -240 80q-183 0 -291 -129.5
t-108 -346.5zM1004 532q0 219 -109 347l-528 -742q105 -78 239 -78q183 0 290.5 128.5t107.5 344.5z" />
    <glyph glyph-name="ugrave" unicode="&#xf9;" horiz-adv-x="1212" 
d="M662 1212l-289 396l86 47l258 -412zM928 0l-2 197q-60 -98 -157 -160t-228 -62q-162 0 -257.5 99t-95.5 284v709h93v-692q0 -156 73.5 -235t200.5 -79q73 0 137.5 25.5t109 67.5t74 83.5t46.5 84.5v745h92v-1067h-86z" />
    <glyph glyph-name="uacute" unicode="&#xfa;" horiz-adv-x="1212" 
d="M543 1212l-56 31l258 412l86 -47zM928 0l-2 197q-60 -98 -157 -160t-228 -62q-162 0 -257.5 99t-95.5 284v709h93v-692q0 -156 73.5 -235t200.5 -79q73 0 137.5 25.5t109 67.5t74 83.5t46.5 84.5v745h92v-1067h-86z" />
    <glyph glyph-name="ucircumflex" unicode="&#xfb;" horiz-adv-x="1212" 
d="M903 1239l-78 -27l-223 355l-223 -355l-78 27l270 410h62zM928 0l-2 197q-60 -98 -157 -160t-228 -62q-162 0 -257.5 99t-95.5 284v709h93v-692q0 -156 73.5 -235t200.5 -79q73 0 137.5 25.5t109 67.5t74 83.5t46.5 84.5v745h92v-1067h-86z" />
    <glyph glyph-name="udieresis" unicode="&#xfc;" horiz-adv-x="1212" 
d="M741 1327v146h119v-146h-119zM344 1327v146h119v-146h-119zM928 0l-2 197q-60 -98 -157 -160t-228 -62q-162 0 -257.5 99t-95.5 284v709h93v-692q0 -156 73.5 -235t200.5 -79q73 0 137.5 25.5t109 67.5t74 83.5t46.5 84.5v745h92v-1067h-86z" />
    <glyph glyph-name="yacute" unicode="&#xfd;" horiz-adv-x="1054" 
d="M469 1212l-55 31l258 412l86 -47zM580 2q-59 -151 -107 -245.5t-95 -144t-89 -66.5t-99 -17q-66 0 -122 25l8 90q56 -29 117 -29q53 0 92.5 28.5t88 112.5t113.5 246l-413 1065h100l361 -963l360 963h98z" />
    <glyph glyph-name="thorn" unicode="&#xfe;" horiz-adv-x="1259" 
d="M637 -25q-208 0 -346 150v-580h-92v2048h92v-708q158 207 393 207q204 0 332.5 -145t128.5 -398q0 -264 -141.5 -419t-366.5 -155zM291 229q60 -80 147.5 -125t194.5 -45q185 0 301.5 128.5t116.5 357.5q0 217 -104 339t-271 122q-125 0 -226.5 -67.5t-158.5 -168.5v-541
z" />
    <glyph glyph-name="ydieresis" unicode="&#xff;" horiz-adv-x="1054" 
d="M668 1327v146h118v-146h-118zM270 1327v146h119v-146h-119zM580 2q-59 -151 -107 -245.5t-95 -144t-89 -66.5t-99 -17q-66 0 -122 25l8 90q56 -29 117 -29q53 0 92.5 28.5t88 112.5t113.5 246l-413 1065h100l361 -963l360 963h98z" />
    <glyph glyph-name="Amacron" unicode="&#x100;" horiz-adv-x="1386" 
d="M354 1765v80h680v-80h-680zM1223 0l-183 481h-696l-180 -481h-98l577 1520h100l578 -1520h-98zM377 567h631l-316 838z" />
    <glyph glyph-name="amacron" unicode="&#x101;" horiz-adv-x="1134" 
d="M266 1362v80h615v-80h-615zM862 0l-2 174q-65 -92 -163 -145.5t-222 -53.5q-155 0 -251.5 84t-96.5 234q0 344 563 344h166v82q0 145 -65 217t-224 72q-205 0 -350 -119l-22 88q66 54 163.5 84.5t212.5 30.5q198 0 287.5 -92.5t89.5 -266.5v-733h-86zM485 59
q125 0 222 63.5t149 166.5v270h-162q-244 0 -359.5 -64.5t-115.5 -201.5q0 -112 72 -173t194 -61z" />
    <glyph glyph-name="Abreve" unicode="&#x102;" horiz-adv-x="1386" 
d="M385 1962l74 6q9 -120 70.5 -177.5t164.5 -57.5t165 57.5t71 177.5l74 -6q-4 -147 -90 -227t-220 -80t-219.5 79.5t-89.5 227.5zM1223 0l-183 481h-696l-180 -481h-98l577 1520h100l578 -1520h-98zM377 567h631l-316 838z" />
    <glyph glyph-name="abreve" unicode="&#x103;" horiz-adv-x="1134" 
d="M264 1579l74 4q6 -137 68.5 -203.5t166.5 -66.5q105 0 167.5 66.5t68.5 203.5l74 -4q-4 -165 -90 -254.5t-220 -89.5t-219.5 89.5t-89.5 254.5zM862 0l-2 174q-65 -92 -163 -145.5t-222 -53.5q-155 0 -251.5 84t-96.5 234q0 344 563 344h166v82q0 145 -65 217t-224 72
q-205 0 -350 -119l-22 88q66 54 163.5 84.5t212.5 30.5q198 0 287.5 -92.5t89.5 -266.5v-733h-86zM485 59q125 0 222 63.5t149 166.5v270h-162q-244 0 -359.5 -64.5t-115.5 -201.5q0 -112 72 -173t194 -61z" />
    <glyph glyph-name="Aogonek" unicode="&#x104;" horiz-adv-x="1386" 
d="M1356 -434q-77 -53 -172 -53t-147 52.5t-52 135.5q0 85 57 160.5t177 150.5l-179 469h-696l-180 -481h-98l577 1520h100l578 -1520h-4q-250 -131 -250 -285q0 -57 32.5 -91t98.5 -34q80 0 139 50zM377 567h631l-316 838z" />
    <glyph glyph-name="aogonek" unicode="&#x105;" horiz-adv-x="1134" 
d="M979 -434q-74 -53 -172 -53q-94 0 -146.5 53t-52.5 135q0 85 61 162.5t193 159.5l-2 151q-65 -92 -163 -145.5t-222 -53.5q-155 0 -251.5 84t-96.5 234q0 344 563 344h166v82q0 145 -65 217t-224 72q-205 0 -350 -119l-22 88q66 54 163.5 84.5t212.5 30.5
q198 0 287.5 -92.5t89.5 -266.5v-733q-258 -134 -258 -285q0 -57 33.5 -91t99.5 -34q79 0 138 50zM485 59q125 0 222 63.5t149 166.5v270h-162q-244 0 -359.5 -64.5t-115.5 -201.5q0 -112 72 -173t194 -61z" />
    <glyph glyph-name="Cacute" unicode="&#x106;" horiz-adv-x="1415" 
d="M711 1640l-49 37l352 318l78 -60zM1313 158q-191 -187 -488 -187q-314 0 -503 210.5t-189 578.5q0 371 190.5 579.5t505.5 208.5q282 0 463 -170l-35 -92q-168 174 -428 174q-280 0 -439 -186.5t-159 -513.5q0 -169 44.5 -303t124.5 -220.5t189 -132t240 -45.5
q144 0 259.5 52.5t195.5 138.5z" />
    <glyph glyph-name="cacute" unicode="&#x107;" horiz-adv-x="1058" 
d="M524 1212l-55 31l258 412l86 -47zM969 102q-137 -127 -346 -127q-233 0 -370.5 146.5t-137.5 406.5q0 262 138.5 413t373.5 151q196 0 329 -123l-30 -86q-122 125 -301 125q-197 0 -307.5 -128.5t-110.5 -347.5q0 -220 110.5 -346.5t309.5 -126.5q187 0 319 129z" />
    <glyph glyph-name="Ccircumflex" unicode="&#x108;" horiz-adv-x="1415" 
d="M1133 1675l-80 -26l-242 266l-242 -266l-80 26l291 312h62zM1313 158q-191 -187 -488 -187q-314 0 -503 210.5t-189 578.5q0 371 190.5 579.5t505.5 208.5q282 0 463 -170l-35 -92q-168 174 -428 174q-280 0 -439 -186.5t-159 -513.5q0 -169 44.5 -303t124.5 -220.5
t189 -132t240 -45.5q144 0 259.5 52.5t195.5 138.5z" />
    <glyph glyph-name="ccircumflex" unicode="&#x109;" horiz-adv-x="1058" 
d="M903 1239l-78 -27l-223 355l-223 -355l-78 27l270 410h62zM969 102q-137 -127 -346 -127q-233 0 -370.5 146.5t-137.5 406.5q0 262 138.5 413t373.5 151q196 0 329 -123l-30 -86q-122 125 -301 125q-197 0 -307.5 -128.5t-110.5 -347.5q0 -220 110.5 -346.5t309.5 -126.5
q187 0 319 129z" />
    <glyph glyph-name="Cdotaccent" unicode="&#x10a;" horiz-adv-x="1415" 
d="M750 1733v145h122v-145h-122zM1313 158q-191 -187 -488 -187q-314 0 -503 210.5t-189 578.5q0 371 190.5 579.5t505.5 208.5q282 0 463 -170l-35 -92q-168 174 -428 174q-280 0 -439 -186.5t-159 -513.5q0 -169 44.5 -303t124.5 -220.5t189 -132t240 -45.5
q144 0 259.5 52.5t195.5 138.5z" />
    <glyph glyph-name="cdotaccent" unicode="&#x10b;" horiz-adv-x="1058" 
d="M532 1327v146h123v-146h-123zM969 102q-137 -127 -346 -127q-233 0 -370.5 146.5t-137.5 406.5q0 262 138.5 413t373.5 151q196 0 329 -123l-30 -86q-122 125 -301 125q-197 0 -307.5 -128.5t-110.5 -347.5q0 -220 110.5 -346.5t309.5 -126.5q187 0 319 129z" />
    <glyph glyph-name="Ccaron" unicode="&#x10c;" horiz-adv-x="1415" 
d="M1133 1966l-291 -311h-62l-291 311l80 27l242 -267l242 267zM1313 158q-191 -187 -488 -187q-314 0 -503 210.5t-189 578.5q0 371 190.5 579.5t505.5 208.5q282 0 463 -170l-35 -92q-168 174 -428 174q-280 0 -439 -186.5t-159 -513.5q0 -169 44.5 -303t124.5 -220.5
t189 -132t240 -45.5q144 0 259.5 52.5t195.5 138.5z" />
    <glyph glyph-name="ccaron" unicode="&#x10d;" horiz-adv-x="1058" 
d="M895 1622l-270 -399h-62l-270 399l78 27l223 -346l223 346zM969 102q-137 -127 -346 -127q-233 0 -370.5 146.5t-137.5 406.5q0 262 138.5 413t373.5 151q196 0 329 -123l-30 -86q-122 125 -301 125q-197 0 -307.5 -128.5t-110.5 -347.5q0 -220 110.5 -346.5
t309.5 -126.5q187 0 319 129z" />
    <glyph glyph-name="Dcaron" unicode="&#x10e;" horiz-adv-x="1515" 
d="M1024 1966l-291 -311h-61l-291 311l80 27l241 -267l242 267zM1382 756q0 -190 -52.5 -335t-151 -237t-235 -138t-308.5 -46h-408v1520h402q196 0 343 -57.5t235.5 -162t131.5 -240.5t43 -304zM621 1434h-299v-1348h309q313 0 484 165.5t171 504.5q0 99 -15.5 185
t-48 162.5t-86 136.5t-125.5 104t-171 67t-219 23z" />
    <glyph glyph-name="dcaron" unicode="&#x10f;" 
d="M1307 1169h-64l66 476h96zM977 0l-2 172q-64 -92 -160 -144.5t-219 -52.5q-212 0 -345.5 147.5t-133.5 401.5q0 259 139 413.5t369 154.5q116 0 198.5 -41.5t147.5 -118.5v661h92v-1593h-86zM209 526q0 -222 110 -343.5t285 -121.5q128 0 223 63t144 163v540
q-127 181 -344 181q-188 0 -303 -128.5t-115 -353.5z" />
    <glyph glyph-name="Dcroat" unicode="&#x110;" horiz-adv-x="1523" 
d="M1389 756q0 -190 -53 -335t-151.5 -237t-235 -138t-308.5 -46h-408v766h-182v82h182v672h402q196 0 343.5 -57.5t236 -162t131.5 -240.5t43 -304zM774 766h-446v-680h309q313 0 484 165.5t171 504.5q0 99 -15.5 185t-48 162.5t-86 136.5t-125.5 104t-171 67t-219 23h-299
v-586h446v-82z" />
    <glyph glyph-name="dcroat" unicode="&#x111;" horiz-adv-x="1261" 
d="M977 0l-2 172q-64 -92 -160 -144.5t-219 -52.5q-212 0 -345.5 147.5t-133.5 401.5q0 259 139 413.5t369 154.5q116 0 198.5 -41.5t147.5 -118.5v348h-316v74h316v250h92v-250h162v-74h-162v-1280h-86zM209 526q0 -222 110 -343.5t285 -121.5q128 0 223 63t144 163v540
q-127 181 -344 181q-188 0 -303 -128.5t-115 -353.5z" />
    <glyph glyph-name="Emacron" unicode="&#x112;" horiz-adv-x="1261" 
d="M328 1765v80h680v-80h-680zM1130 86v-86h-903v1520h887v-86h-792v-584h710v-86h-710v-678h808z" />
    <glyph glyph-name="emacron" unicode="&#x113;" horiz-adv-x="1153" 
d="M289 1362v80h614v-80h-614zM1016 102q-150 -127 -383 -127q-248 0 -383 145t-135 402q0 260 130 415t357 155q92 0 165.5 -27.5t122 -74t81.5 -111t47 -136t14 -151.5v-53h-825v-21q0 -222 112 -340.5t322 -118.5q207 0 352 131zM602 1010q-162 0 -268.5 -103
t-124.5 -293h731v21q0 73 -19 137.5t-58 119t-106 86.5t-155 32z" />
    <glyph glyph-name="Ebreve" unicode="&#x114;" horiz-adv-x="1261" 
d="M358 1962l74 6q9 -120 71 -177.5t165 -57.5t164.5 57.5t70.5 177.5l74 -6q-4 -148 -89.5 -227.5t-219.5 -79.5t-220 80t-90 227zM1130 86v-86h-903v1520h887v-86h-792v-584h710v-86h-710v-678h808z" />
    <glyph glyph-name="ebreve" unicode="&#x115;" horiz-adv-x="1153" 
d="M287 1579l73 4q6 -137 68.5 -203.5t167.5 -66.5q104 0 166.5 66.5t68.5 203.5l74 -4q-4 -165 -89.5 -254.5t-219.5 -89.5t-219.5 89.5t-89.5 254.5zM1016 102q-150 -127 -383 -127q-248 0 -383 145t-135 402q0 260 130 415t357 155q92 0 165.5 -27.5t122 -74t81.5 -111
t47 -136t14 -151.5v-53h-825v-21q0 -222 112 -340.5t322 -118.5q207 0 352 131zM602 1010q-162 0 -268.5 -103t-124.5 -293h731v21q0 73 -19 137.5t-58 119t-106 86.5t-155 32z" />
    <glyph glyph-name="Edotaccent" unicode="&#x116;" horiz-adv-x="1261" 
d="M606 1733v145h123v-145h-123zM1130 86v-86h-903v1520h887v-86h-792v-584h710v-86h-710v-678h808z" />
    <glyph glyph-name="edotaccent" unicode="&#x117;" horiz-adv-x="1153" 
d="M535 1327v146h122v-146h-122zM1016 102q-150 -127 -383 -127q-248 0 -383 145t-135 402q0 260 130 415t357 155q92 0 165.5 -27.5t122 -74t81.5 -111t47 -136t14 -151.5v-53h-825v-21q0 -222 112 -340.5t322 -118.5q207 0 352 131zM602 1010q-162 0 -268.5 -103
t-124.5 -293h731v21q0 73 -19 137.5t-58 119t-106 86.5t-155 32z" />
    <glyph glyph-name="Eogonek" unicode="&#x118;" horiz-adv-x="1261" 
d="M735 -299q0 165 217 299h-725v1520h887v-86h-792v-584h710v-86h-710v-678h808v-86h-67q-246 -125 -246 -285q0 -56 33.5 -90.5t99.5 -34.5q78 0 137 50l19 -74q-74 -53 -172 -53q-94 0 -146.5 53t-52.5 135z" />
    <glyph glyph-name="eogonek" unicode="&#x119;" horiz-adv-x="1153" 
d="M936 -434q-77 -53 -174 -53q-94 0 -145.5 52.5t-51.5 135.5q0 149 170 281q-68 -7 -102 -7q-248 0 -383 145t-135 402q0 260 130 415t357 155q92 0 165.5 -27.5t122 -74t81.5 -111t47 -136t14 -151.5v-53h-825v-21q0 -222 112 -340.5t322 -118.5q207 0 352 131l23 -88
q-16 -16 -59.5 -42.5t-53.5 -28.5q-256 -157 -256 -316q0 -56 32.5 -90.5t98.5 -34.5q81 0 140 50zM602 1010q-162 0 -268.5 -103t-124.5 -293h731v21q0 73 -19 137.5t-58 119t-106 86.5t-155 32z" />
    <glyph glyph-name="Ecaron" unicode="&#x11a;" horiz-adv-x="1261" 
d="M989 1966l-291 -311h-61l-291 311l80 27l242 -267l241 267zM1130 86v-86h-903v1520h887v-86h-792v-584h710v-86h-710v-678h808z" />
    <glyph glyph-name="ecaron" unicode="&#x11b;" horiz-adv-x="1153" 
d="M897 1622l-270 -399h-62l-270 399l78 27l223 -346l223 346zM1016 102q-150 -127 -383 -127q-248 0 -383 145t-135 402q0 260 130 415t357 155q92 0 165.5 -27.5t122 -74t81.5 -111t47 -136t14 -151.5v-53h-825v-21q0 -222 112 -340.5t322 -118.5q207 0 352 131zM602 1010
q-162 0 -268.5 -103t-124.5 -293h731v21q0 73 -19 137.5t-58 119t-106 86.5t-155 32z" />
    <glyph glyph-name="Gcircumflex" unicode="&#x11c;" horiz-adv-x="1554" 
d="M1145 1675l-80 -26l-242 266l-241 -266l-80 26l291 312h61zM1372 150q-92 -80 -227 -129.5t-299 -49.5q-331 0 -522 209.5t-191 579.5q0 374 193 581t526 207q303 0 491 -170l-34 -92q-177 174 -459 174q-298 0 -458.5 -186t-160.5 -514q0 -338 165 -519.5t460 -181.5
q250 0 426 127v504h-473v86h563v-626z" />
    <glyph glyph-name="gcircumflex" unicode="&#x11d;" horiz-adv-x="1159" 
d="M868 1239l-77 -27l-224 355l-223 -355l-78 27l271 410h61zM1065 -156q0 -154 -138.5 -242.5t-383.5 -88.5q-237 0 -355 81.5t-118 212.5q0 90 56 160t171 101q-100 41 -100 151q0 59 34 106.5t109 69.5q-88 47 -137 129.5t-49 194.5q0 171 113.5 272t289.5 101
q122 0 213 -48l330 35h6v-92h-254q109 -101 109 -268q0 -173 -113 -273t-291 -100q-66 0 -123 14q-70 -3 -111.5 -37t-41.5 -90q0 -115 159 -122l314 -17q153 -7 232 -73t79 -177zM557 424q144 0 228.5 80t84.5 215q0 134 -84.5 213.5t-228.5 79.5q-143 0 -228 -79t-85 -214
q0 -134 85.5 -214.5t227.5 -80.5zM158 -180q0 -105 97.5 -166.5t291.5 -61.5q200 0 314 65.5t114 182.5q0 158 -244 170l-364 19q-98 -19 -153.5 -74t-55.5 -135z" />
    <glyph glyph-name="Gbreve" unicode="&#x11e;" horiz-adv-x="1554" 
d="M514 1962l74 6q9 -120 70.5 -177.5t164.5 -57.5t165 57.5t71 177.5l74 -6q-4 -147 -90 -227t-220 -80t-219.5 79.5t-89.5 227.5zM1372 150q-92 -80 -227 -129.5t-299 -49.5q-331 0 -522 209.5t-191 579.5q0 374 193 581t526 207q303 0 491 -170l-34 -92
q-177 174 -459 174q-298 0 -458.5 -186t-160.5 -514q0 -338 165 -519.5t460 -181.5q250 0 426 127v504h-473v86h563v-626z" />
    <glyph glyph-name="gbreve" unicode="&#x11f;" horiz-adv-x="1159" 
d="M258 1579l74 4q6 -137 68.5 -203.5t166.5 -66.5q105 0 167.5 66.5t68.5 203.5l74 -4q-4 -165 -90 -254.5t-220 -89.5t-219.5 89.5t-89.5 254.5zM1065 -156q0 -154 -138.5 -242.5t-383.5 -88.5q-237 0 -355 81.5t-118 212.5q0 90 56 160t171 101q-100 41 -100 151
q0 133 143 176q-88 47 -137 129.5t-49 194.5q0 171 113.5 272t289.5 101q122 0 213 -48l330 35h6v-92h-254q109 -101 109 -268q0 -173 -113 -273t-291 -100q-68 0 -123 14q-70 -3 -111.5 -37t-41.5 -90q0 -115 159 -122l314 -17q151 -7 231 -73t80 -177zM557 424
q144 0 228.5 80t84.5 215q0 134 -84.5 213.5t-228.5 79.5q-143 0 -228 -79t-85 -214q0 -134 85.5 -214.5t227.5 -80.5zM158 -180q0 -105 97.5 -166.5t291.5 -61.5q200 0 314 65.5t114 182.5q0 158 -244 170l-364 19q-98 -19 -153.5 -74t-55.5 -135z" />
    <glyph glyph-name="Gdotaccent" unicode="&#x120;" horiz-adv-x="1554" 
d="M762 1733v145h123v-145h-123zM1372 150q-92 -80 -227 -129.5t-299 -49.5q-331 0 -522 209.5t-191 579.5q0 374 193 581t526 207q303 0 491 -170l-34 -92q-177 174 -459 174q-298 0 -458.5 -186t-160.5 -514q0 -338 165 -519.5t460 -181.5q250 0 426 127v504h-473v86h563
v-626z" />
    <glyph glyph-name="gdotaccent" unicode="&#x121;" horiz-adv-x="1159" 
d="M502 1327v146h123v-146h-123zM1065 -156q0 -154 -138.5 -242.5t-383.5 -88.5q-237 0 -355 81.5t-118 212.5q0 90 56 160t171 101q-100 41 -100 151q0 133 143 176q-88 47 -137 129.5t-49 194.5q0 171 113.5 272t289.5 101q122 0 213 -48l330 35h6v-92h-254
q109 -101 109 -268q0 -173 -113 -273t-291 -100q-68 0 -123 14q-70 -3 -111.5 -37t-41.5 -90q0 -115 159 -122l314 -17q153 -7 232 -73.5t79 -176.5zM557 424q144 0 228.5 80t84.5 215q0 134 -84.5 213.5t-228.5 79.5q-143 0 -228 -79t-85 -214q0 -134 85.5 -214.5
t227.5 -80.5zM158 -180q0 -105 97.5 -166.5t291.5 -61.5q200 0 314 65.5t114 182.5q0 158 -244 170l-364 19q-98 -19 -153.5 -74t-55.5 -135z" />
    <glyph glyph-name="uni0122" unicode="&#x122;" horiz-adv-x="1554" 
d="M1372 150q-92 -80 -227 -129.5t-299 -49.5q-331 0 -522 209.5t-191 579.5q0 374 193 581t526 207q303 0 491 -170l-34 -92q-177 174 -459 174q-298 0 -458.5 -186t-160.5 -514q0 -338 165 -519.5t460 -181.5q250 0 426 127v504h-473v86h563v-626zM805 -489l-82 12
q98 128 98 278q0 38 -4 54h90q6 -30 6 -58q0 -163 -108 -286z" />
    <glyph glyph-name="uni0123" unicode="&#x123;" horiz-adv-x="1159" 
d="M612 1620l78 -12q-90 -124 -90 -271q0 -33 6 -63h-92q-6 30 -6 65q0 150 104 281zM1065 -156q0 -154 -138.5 -242.5t-383.5 -88.5q-237 0 -355 81.5t-118 212.5q0 90 56 160t171 101q-100 41 -100 151q0 133 143 176q-88 47 -137 129.5t-49 194.5q0 171 113.5 272
t289.5 101q122 0 213 -48l330 35h6v-92h-254q109 -101 109 -268q0 -173 -113 -273t-291 -100q-68 0 -123 14q-70 -3 -111.5 -37t-41.5 -90q0 -115 159 -122l314 -17q153 -7 232 -73.5t79 -176.5zM557 424q144 0 228.5 80t84.5 215q0 134 -84.5 213.5t-228.5 79.5
q-143 0 -228 -79t-85 -214q0 -134 85.5 -214.5t227.5 -80.5zM158 -180q0 -105 97.5 -166.5t291.5 -61.5q200 0 314 65.5t114 182.5q0 158 -244 170l-364 19q-98 -19 -153.5 -74t-55.5 -135z" />
    <glyph glyph-name="Hcircumflex" unicode="&#x124;" horiz-adv-x="1521" 
d="M1081 1675l-80 -26l-241 266l-242 -266l-80 26l291 312h62zM1200 0v764h-878v-764h-95v1520h95v-670h878v670h92v-1520h-92z" />
    <glyph glyph-name="hcircumflex" unicode="&#x125;" horiz-adv-x="1212" 
d="M918 1675l-80 -26l-242 266l-242 -266l-80 26l291 312h62zM291 752v-752h-92v1593h92v-719q147 218 387 218q160 0 253 -99.5t93 -283.5v-709h-92v692q0 157 -70.5 235.5t-197.5 78.5q-123 0 -221 -70.5t-152 -183.5z" />
    <glyph glyph-name="Hbar" unicode="&#x126;" horiz-adv-x="1525" 
d="M1202 0v764h-878v-764h-95v1157h-161v76h161v287h95v-287h878v287h92v-287h166v-76h-166v-1157h-92zM324 850h878v307h-878v-307z" />
    <glyph glyph-name="hbar" unicode="&#x127;" horiz-adv-x="1212" 
d="M291 752v-752h-92v1280h-162v74h162v250h92v-250h319v-74h-319v-408q64 97 161 158.5t228 61.5q160 0 253 -99.5t93 -283.5v-709h-92v692q0 157 -70.5 235.5t-197.5 78.5q-122 0 -221 -70.5t-154 -183.5z" />
    <glyph glyph-name="Itilde" unicode="&#x128;" horiz-adv-x="550" 
d="M-23 1667l-75 6q0 128 55.5 192t138.5 64q36 0 74 -14.5t62 -30.5t59 -43t56 -41.5t51.5 -27.5t58.5 -13q114 0 114 185l76 -9q0 -127 -55.5 -190.5t-138.5 -63.5q-36 0 -74 14.5t-62 30.5t-59 43q-36 27 -56.5 41t-51 26.5t-58.5 12.5q-115 0 -115 -182zM227 0v1520h95
v-1520h-95z" />
    <glyph glyph-name="itilde" unicode="&#x129;" horiz-adv-x="497" 
d="M2 1262l-76 8q0 127 46 190.5t120 63.5q82 0 176 -90q80 -80 135 -80q93 0 93 184l75 -8q0 -127 -45.5 -190.5t-119.5 -63.5q-79 0 -177 90q-27 26 -44 40t-42.5 27t-48.5 13q-92 0 -92 -184zM203 0v1067h92v-1067h-92z" />
    <glyph glyph-name="Imacron" unicode="&#x12a;" horiz-adv-x="550" 
d="M-66 1765v80h680v-80h-680zM227 0v1520h95v-1520h-95z" />
    <glyph glyph-name="imacron" unicode="&#x12b;" horiz-adv-x="497" 
d="M6 1362v80h486v-80h-486zM203 0v1067h92v-1067h-92z" />
    <glyph glyph-name="Ibreve" unicode="&#x12c;" horiz-adv-x="550" 
d="M-35 1962l74 6q9 -120 70.5 -177.5t164.5 -57.5t165 57.5t71 177.5l74 -6q-4 -147 -90 -227t-220 -80t-219.5 79.5t-89.5 227.5zM227 0v1520h95v-1520h-95z" />
    <glyph glyph-name="ibreve" unicode="&#x12d;" horiz-adv-x="497" 
d="M-41 1571l76 6q4 -138 60.5 -204t152.5 -66q98 0 154.5 66t60.5 204l76 -6q-3 -164 -83.5 -253t-207.5 -89q-126 0 -207 89.5t-82 252.5zM203 0v1067h92v-1067h-92z" />
    <glyph glyph-name="Iogonek" unicode="&#x12e;" horiz-adv-x="550" 
d="M426 -434q-74 -53 -172 -53q-94 0 -146.5 53t-52.5 135q0 144 172 301v1518h95v-1520q-185 -152 -185 -285q0 -56 33.5 -90.5t99.5 -34.5q79 0 138 50z" />
    <glyph glyph-name="iogonek" unicode="&#x12f;" horiz-adv-x="497" 
d="M186 1327v146h123v-146h-123zM401 -434q-77 -53 -174 -53q-94 0 -145 52.5t-51 135.5q0 142 172 303v1063h92v-1067q-184 -151 -184 -285q0 -56 33.5 -90.5t99.5 -34.5q80 0 139 50z" />
    <glyph glyph-name="Idotaccent" unicode="&#x130;" horiz-adv-x="550" 
d="M213 1733v145h123v-145h-123zM227 0v1520h95v-1520h-95z" />
    <glyph glyph-name="dotlessi" unicode="&#x131;" horiz-adv-x="495" 
d="M203 0v1067h92v-1067h-92z" />
    <glyph glyph-name="IJ" unicode="&#x132;" horiz-adv-x="1374" 
d="M227 0v1520h95v-1520h-95zM557 14l8 92q96 -49 217 -49q69 0 119.5 18.5t89.5 60.5t58.5 116t19.5 180v1088h94v-1082q0 -128 -27 -220t-79 -145.5t-120 -77.5t-157 -24q-125 0 -223 43z" />
    <glyph glyph-name="ij" unicode="&#x133;" horiz-adv-x="1011" 
d="M186 1327v146h123v-146h-123zM707 1327v146h120v-146h-120zM203 0v1067h92v-1067h-92zM358 -449l11 91q59 -27 139 -27q104 0 158.5 65t54.5 218v1169h92v-1165q0 -198 -80.5 -285.5t-228.5 -87.5q-92 0 -146 22z" />
    <glyph glyph-name="Jcircumflex" unicode="&#x134;" horiz-adv-x="825" 
d="M887 1675l-80 -26l-242 266l-241 -266l-80 26l291 312h61zM6 14l8 92q96 -49 217 -49q69 0 119.5 18.5t89.5 60.5t58.5 116t19.5 180v1088h94v-1082q0 -128 -27 -220t-79 -145.5t-120 -77.5t-157 -24q-125 0 -223 43z" />
    <glyph glyph-name="jcircumflex" unicode="&#x135;" horiz-adv-x="516" 
d="M571 1239l-77 -27l-224 355l-223 -355l-78 27l271 410h61zM-137 -449l10 91q58 -27 139 -27q104 0 158.5 65t54.5 218v1169h92v-1165q0 -198 -80.5 -285.5t-228.5 -87.5q-91 0 -145 22z" />
    <glyph glyph-name="uni0136" unicode="&#x136;" horiz-adv-x="1329" 
d="M1182 0l-643 772l-217 -219v-553h-95v1520h95v-852l829 852h123v-4l-674 -680l700 -832v-4h-118zM616 -489l-81 12q98 128 98 278q0 38 -4 54h90q6 -30 6 -58q0 -161 -109 -286z" />
    <glyph glyph-name="uni0137" unicode="&#x137;" horiz-adv-x="1075" 
d="M932 0l-455 547l-186 -189v-358h-92v1593h92v-1132l581 606h119v-4l-454 -457l512 -602v-4h-117zM487 -489l-81 12q98 128 98 278q0 38 -4 54h90q6 -30 6 -58q0 -161 -109 -286z" />
    <glyph glyph-name="kgreenlandic" unicode="&#x138;" horiz-adv-x="1075" 
d="M932 0l-455 547l-186 -189v-358h-92v1067h92v-606l581 606h119v-4l-454 -457l512 -602v-4h-117z" />
    <glyph glyph-name="Lacute" unicode="&#x139;" horiz-adv-x="1112" 
d="M256 1640l-49 37l352 318l78 -60zM1081 86v-86h-854v1520h95v-1434h759z" />
    <glyph glyph-name="lacute" unicode="&#x13a;" horiz-adv-x="495" 
d="M180 1681l-49 37l352 318l78 -60zM203 0v1593h92v-1593h-92z" />
    <glyph glyph-name="uni013B" unicode="&#x13b;" horiz-adv-x="1112" 
d="M1081 86v-86h-854v1520h95v-1434h759zM600 -489l-82 12q98 128 98 278q0 38 -4 54h90q7 -35 7 -58q0 -161 -109 -286z" />
    <glyph glyph-name="uni013C" unicode="&#x13c;" horiz-adv-x="495" 
d="M203 0v1593h92v-1593h-92zM193 -489l-82 12q98 128 98 278q0 38 -4 54h90q6 -30 6 -58q0 -163 -108 -286z" />
    <glyph glyph-name="Lcaron" unicode="&#x13d;" horiz-adv-x="1112" 
d="M662 1118h-64l66 475h96zM1081 86v-86h-854v1520h95v-1434h759z" />
    <glyph glyph-name="lcaron" unicode="&#x13e;" horiz-adv-x="524" 
d="M543 1169h-64l66 476h96zM203 0v1593h92v-1593h-92z" />
    <glyph glyph-name="Ldot" unicode="&#x13f;" horiz-adv-x="1112" 
d="M1081 86v-86h-854v1520h95v-1434h759zM774 713v157h131v-157h-131z" />
    <glyph glyph-name="ldot" unicode="&#x140;" horiz-adv-x="626" 
d="M203 0v1593h92v-1593h-92zM496 684v158h131v-158h-131z" />
    <glyph glyph-name="Lslash" unicode="&#x141;" horiz-adv-x="1116" 
d="M1087 86v-86h-854v662l-192 -97v86l192 97v772h95v-732l475 238v-88l-475 -238v-614h759z" />
    <glyph glyph-name="lslash" unicode="&#x142;" horiz-adv-x="565" 
d="M539 969l-209 -125v-844h-92v797l-203 -121v86l203 121v710h92v-663l209 125v-86z" />
    <glyph glyph-name="Nacute" unicode="&#x143;" horiz-adv-x="1572" 
d="M686 1640l-49 37l352 318l78 -60zM1245 0l-930 1380v-1380h-88v1520h103l927 -1377v1377h89v-1520h-101z" />
    <glyph glyph-name="nacute" unicode="&#x144;" horiz-adv-x="1212" 
d="M551 1212l-55 31l258 412l86 -47zM291 752v-752h-92v1067h84l4 -201q143 226 391 226q160 0 253 -99.5t93 -283.5v-709h-92v692q0 157 -70.5 235.5t-197.5 78.5q-123 0 -221 -70.5t-152 -183.5z" />
    <glyph glyph-name="uni0145" unicode="&#x145;" horiz-adv-x="1572" 
d="M1245 0l-930 1380v-1380h-88v1520h103l927 -1377v1377h89v-1520h-101zM733 -489l-82 12q99 129 99 278q0 34 -5 54h91q6 -24 6 -58q0 -161 -109 -286z" />
    <glyph glyph-name="uni0146" unicode="&#x146;" horiz-adv-x="1212" 
d="M291 752v-752h-92v1067h84l4 -201q143 226 391 226q160 0 253 -99.5t93 -283.5v-709h-92v692q0 157 -70.5 235.5t-197.5 78.5q-123 0 -221 -70.5t-152 -183.5zM553 -489l-82 12q98 128 98 278q0 38 -4 54h90q7 -35 7 -58q0 -161 -109 -286z" />
    <glyph glyph-name="Ncaron" unicode="&#x147;" horiz-adv-x="1572" 
d="M1108 1966l-291 -311h-61l-291 311l80 27l241 -267l242 267zM1245 0l-930 1380v-1380h-88v1520h103l927 -1377v1377h89v-1520h-101z" />
    <glyph glyph-name="ncaron" unicode="&#x148;" horiz-adv-x="1212" 
d="M911 1622l-270 -399h-61l-271 399l78 27l223 -346l224 346zM291 752v-752h-92v1067h84l4 -201q143 226 391 226q160 0 253 -99.5t93 -283.5v-709h-92v692q0 157 -70.5 235.5t-197.5 78.5q-123 0 -221 -70.5t-152 -183.5z" />
    <glyph glyph-name="Eng" unicode="&#x14a;" horiz-adv-x="1572" 
d="M1257 1520h89v-1536q0 -455 -375 -455q-122 0 -189 33l9 88q75 -37 184 -37q68 0 117.5 17.5t87 58.5t56.5 112t19 174v25l-940 1384v-1384h-88v1520h105l925 -1366v1366z" />
    <glyph glyph-name="eng" unicode="&#x14b;" horiz-adv-x="1212" 
d="M717 -387q105 0 160 62.5t55 213.5v803q0 157 -70.5 235.5t-197.5 78.5q-123 0 -221 -70.5t-152 -183.5v-752h-92v1067h84l4 -201q143 226 391 226q160 0 253 -99.5t93 -283.5v-809q0 -197 -80 -284t-225 -87q-92 0 -150 25l9 86q56 -27 139 -27z" />
    <glyph glyph-name="Omacron" unicode="&#x14c;" horiz-adv-x="1581" 
d="M451 1765v80h679v-80h-679zM791 -29q-144 0 -265 54.5t-208.5 154.5t-136 249t-48.5 331t48.5 331t136 249t208.5 154t265 54t265 -54t208 -154t135.5 -249t48.5 -331t-48.5 -331t-135.5 -249t-208 -154.5t-265 -54.5zM791 59q259 0 409 188.5t150 512.5
q0 323 -150 511.5t-409 188.5t-409.5 -188t-150.5 -512q0 -323 150.5 -512t409.5 -189z" />
    <glyph glyph-name="omacron" unicode="&#x14d;" horiz-adv-x="1210" 
d="M299 1362v80h614v-80h-614zM606 -25q-215 0 -353 150.5t-138 406.5q0 257 138 408.5t353 151.5q216 0 354 -151.5t138 -408.5q0 -256 -138 -406.5t-354 -150.5zM606 59q183 0 290.5 128.5t107.5 344.5q0 217 -107.5 346.5t-290.5 129.5t-291 -129.5t-108 -346.5
q0 -216 108 -344.5t291 -128.5z" />
    <glyph glyph-name="Obreve" unicode="&#x14e;" horiz-adv-x="1581" 
d="M481 1962l74 6q9 -120 71 -177.5t165 -57.5t164.5 57.5t70.5 177.5l74 -6q-4 -148 -89.5 -227.5t-219.5 -79.5t-220 80t-90 227zM791 -29q-144 0 -265 54.5t-208.5 154.5t-136 249t-48.5 331t48.5 331t136 249t208.5 154t265 54t265 -54t208 -154t135.5 -249t48.5 -331
t-48.5 -331t-135.5 -249t-208 -154.5t-265 -54.5zM791 59q259 0 409 188.5t150 512.5q0 323 -150 511.5t-409 188.5t-409.5 -188t-150.5 -512q0 -323 150.5 -512t409.5 -189z" />
    <glyph glyph-name="obreve" unicode="&#x14f;" horiz-adv-x="1210" 
d="M297 1579l74 4q6 -137 68.5 -203.5t166.5 -66.5q105 0 167.5 66.5t68.5 203.5l73 -4q-4 -165 -89.5 -254.5t-219.5 -89.5t-219.5 89.5t-89.5 254.5zM606 -25q-215 0 -353 150.5t-138 406.5q0 257 138 408.5t353 151.5q216 0 354 -151.5t138 -408.5q0 -256 -138 -406.5
t-354 -150.5zM606 59q183 0 290.5 128.5t107.5 344.5q0 217 -107.5 346.5t-290.5 129.5t-291 -129.5t-108 -346.5q0 -216 108 -344.5t291 -128.5z" />
    <glyph glyph-name="Ohungarumlaut" unicode="&#x150;" horiz-adv-x="1581" 
d="M604 1640l-51 33l289 322l78 -53zM981 1640l-51 33l291 322l77 -53zM791 -29q-144 0 -265 54.5t-208.5 154.5t-136 249t-48.5 331t48.5 331t136 249t208.5 154t265 54t265 -54t208 -154t135.5 -249t48.5 -331t-48.5 -331t-135.5 -249t-208 -154.5t-265 -54.5zM791 59
q259 0 409 188.5t150 512.5q0 323 -150 511.5t-409 188.5t-409.5 -188t-150.5 -512q0 -323 150.5 -512t409.5 -189z" />
    <glyph glyph-name="ohungarumlaut" unicode="&#x151;" horiz-adv-x="1210" 
d="M428 1214l-53 31l252 410l82 -45zM762 1214l-55 31l254 410l81 -45zM606 -25q-215 0 -353 150.5t-138 406.5q0 257 138 408.5t353 151.5q216 0 354 -151.5t138 -408.5q0 -256 -138 -406.5t-354 -150.5zM606 59q183 0 290.5 128.5t107.5 344.5q0 217 -107.5 346.5
t-290.5 129.5t-291 -129.5t-108 -346.5q0 -216 108 -344.5t291 -128.5z" />
    <glyph glyph-name="OE" unicode="&#x152;" horiz-adv-x="2222" 
d="M2091 0h-944q-133 -29 -266 -29q-346 0 -547 210t-201 579q0 368 202 578t550 210q129 0 272 -28h918v-86h-793v-584h711v-86h-711v-678h809v-86zM231 760q0 -326 171.5 -514.5t482.5 -188.5q167 0 303 43v1321q-143 41 -303 41q-311 0 -482.5 -187t-171.5 -515z" />
    <glyph glyph-name="oe" unicode="&#x153;" horiz-adv-x="2011" 
d="M1872 102q-150 -127 -379 -127q-178 0 -297 79.5t-170 230.5q-54 -148 -167 -229t-263 -81q-210 0 -345.5 150.5t-135.5 406.5q0 257 135.5 408.5t345.5 151.5q150 0 265 -83t167 -233q52 150 164 233t272 83q91 0 163.5 -27t120.5 -73t80 -110t46 -135t14 -151v-57h-815
v-21q0 -222 109.5 -340.5t318.5 -118.5q206 0 348 131zM1462 1010q-162 0 -266 -103t-121 -293h723v21q0 73 -19 137.5t-57.5 119t-105.5 86.5t-154 32zM596 59q177 0 282 128t105 345t-105 346.5t-282 129.5q-178 0 -283.5 -129.5t-105.5 -346.5q0 -216 105.5 -344.5
t283.5 -128.5z" />
    <glyph glyph-name="Racute" unicode="&#x154;" horiz-adv-x="1376" 
d="M545 1640l-49 37l352 318l78 -60zM322 649v-649h-95v1520h418q253 0 391 -108.5t138 -324.5q0 -86 -23 -155.5t-59.5 -115t-87 -79.5t-99.5 -51.5t-104 -26.5l493 -659h-112l-482 649h-378zM637 1434h-315v-703h348q54 0 103.5 7t107 30t99 60t69.5 103.5t28 153.5
q0 182 -112.5 265.5t-327.5 83.5z" />
    <glyph glyph-name="racute" unicode="&#x155;" horiz-adv-x="761" 
d="M322 1212l-56 31l258 412l86 -47zM283 702v-702h-93v1067h86l3 -213q49 114 133 173.5t190 59.5q73 0 127 -24l-10 -92q-63 24 -129 24q-109 0 -191 -75t-116 -218z" />
    <glyph glyph-name="uni0156" unicode="&#x156;" horiz-adv-x="1376" 
d="M322 649v-649h-95v1520h418q253 0 391 -108.5t138 -324.5q0 -86 -23 -155.5t-59.5 -115t-87 -79.5t-99.5 -51.5t-104 -26.5l493 -659h-112l-482 649h-378zM637 1434h-315v-703h348q54 0 103.5 7t107 30t99 60t69.5 103.5t28 153.5q0 182 -112.5 265.5t-327.5 83.5z
M633 -489l-82 12q98 128 98 278q0 38 -4 54h90q6 -24 6 -58q0 -163 -108 -286z" />
    <glyph glyph-name="uni0157" unicode="&#x157;" horiz-adv-x="761" 
d="M283 702v-702h-93v1067h86l3 -213q49 114 133 173.5t190 59.5q73 0 127 -24l-10 -92q-63 24 -129 24q-109 0 -191 -75t-116 -218zM182 -489l-82 12q99 129 99 278q0 38 -4 54h90q6 -30 6 -58q0 -161 -109 -286z" />
    <glyph glyph-name="Rcaron" unicode="&#x158;" horiz-adv-x="1376" 
d="M967 1966l-291 -311h-62l-290 311l79 27l242 -267l242 267zM322 649v-649h-95v1520h418q253 0 391 -108.5t138 -324.5q0 -86 -23 -155.5t-59.5 -115t-87 -79.5t-99.5 -51.5t-104 -26.5l493 -659h-112l-482 649h-378zM637 1434h-315v-703h348q54 0 103.5 7t107 30t99 60
t69.5 103.5t28 153.5q0 182 -112.5 265.5t-327.5 83.5z" />
    <glyph glyph-name="rcaron" unicode="&#x159;" horiz-adv-x="761" 
d="M707 1622l-271 -399h-61l-271 399l78 27l224 -346l223 346zM283 702v-702h-93v1067h86l3 -213q49 114 133 173.5t190 59.5q73 0 127 -24l-10 -92q-63 24 -129 24q-109 0 -191 -75t-116 -218z" />
    <glyph glyph-name="Sacute" unicode="&#x15a;" horiz-adv-x="1202" 
d="M512 1640l-49 37l352 318l78 -60zM115 143l32 93q192 -177 455 -177q197 0 294 86t97 230q0 45 -10 82.5t-25 65.5t-45.5 54t-56.5 43t-75.5 37.5t-84.5 33t-100 34.5q-61 21 -97.5 34.5t-89.5 37t-85 44.5t-68.5 53.5t-56.5 67.5t-33.5 82.5t-13.5 102.5
q0 178 119 289.5t347 111.5q232 0 404 -141l-31 -92q-84 74 -173.5 109.5t-203.5 35.5q-95 0 -167.5 -24.5t-115.5 -67.5t-64 -97t-21 -118q0 -67 21 -116t73 -89t121.5 -70.5t183.5 -68.5q61 -20 98.5 -34t90 -37t84.5 -44.5t67.5 -54t55.5 -68.5t33 -84.5t13 -105.5
q0 -189 -122.5 -299.5t-362.5 -110.5q-285 0 -487 172z" />
    <glyph glyph-name="sacute" unicode="&#x15b;" horiz-adv-x="962" 
d="M426 1212l-55 31l258 412l86 -47zM113 92l24 90q150 -123 348 -123q135 0 205 54.5t70 154.5q0 28 -6.5 51t-16 40.5t-30 33.5t-38.5 27t-52.5 25t-60.5 23t-73 24q-53 18 -84.5 29t-73.5 29t-66 33t-51 38t-40.5 47.5t-23 57t-9.5 71.5q0 136 96.5 215.5t262.5 79.5
q178 0 309 -95l-25 -90q-128 101 -289 101q-126 0 -195 -56.5t-69 -148.5q0 -28 7.5 -51.5t17.5 -41t34 -34.5t41.5 -28t56 -25.5t62 -23t74.5 -24.5q72 -24 113 -39.5t89 -41.5t72.5 -54.5t41 -70.5t16.5 -97q0 -145 -99.5 -221t-273.5 -76q-210 0 -364 117z" />
    <glyph glyph-name="Scircumflex" unicode="&#x15c;" horiz-adv-x="1202" 
d="M934 1675l-80 -26l-242 266l-241 -266l-80 26l291 312h61zM115 143l32 93q192 -177 455 -177q197 0 294 86t97 230q0 45 -10 82.5t-25 65.5t-45.5 54t-56.5 43t-75.5 37.5t-84.5 33t-100 34.5q-61 21 -97.5 34.5t-89.5 37t-85 44.5t-68.5 53.5t-56.5 67.5t-33.5 82.5
t-13.5 102.5q0 178 119 289.5t347 111.5q232 0 404 -141l-31 -92q-84 74 -173.5 109.5t-203.5 35.5q-95 0 -167.5 -24.5t-115.5 -67.5t-64 -97t-21 -118q0 -67 21 -116t73 -89t121.5 -70.5t183.5 -68.5q61 -20 98.5 -34t90 -37t84.5 -44.5t67.5 -54t55.5 -68.5t33 -84.5
t13 -105.5q0 -189 -122.5 -299.5t-362.5 -110.5q-285 0 -487 172z" />
    <glyph glyph-name="scircumflex" unicode="&#x15d;" horiz-adv-x="962" 
d="M786 1239l-77 -27l-224 355l-223 -355l-78 27l271 410h61zM113 92l24 90q150 -123 348 -123q135 0 205 54.5t70 154.5q0 28 -6.5 51t-16 40.5t-30 33.5t-38.5 27t-52.5 25t-60.5 23t-73 24q-53 18 -84.5 29t-73.5 29t-66 33t-51 38t-40.5 47.5t-23 57t-9.5 71.5
q0 136 96.5 215.5t262.5 79.5q178 0 309 -95l-25 -90q-128 101 -289 101q-126 0 -195 -56.5t-69 -148.5q0 -28 7.5 -51.5t17.5 -41t34 -34.5t41.5 -28t56 -25.5t62 -23t74.5 -24.5q72 -24 113 -39.5t89 -41.5t72.5 -54.5t41 -70.5t16.5 -97q0 -145 -99.5 -221t-273.5 -76
q-210 0 -364 117z" />
    <glyph glyph-name="Scedilla" unicode="&#x15e;" horiz-adv-x="1202" 
d="M821 -305q0 -81 -56.5 -131.5t-176.5 -50.5q-112 0 -189 41l19 73q75 -43 178 -43q74 0 108.5 30t34.5 81q0 47 -44 80t-173 61l58 135q-271 6 -465 172l32 93q192 -177 455 -177q197 0 294 86t97 230q0 45 -10 82.5t-25 65.5t-45.5 54t-56.5 43t-75.5 37.5t-84.5 33
t-100 34.5q-61 21 -97.5 34.5t-89.5 37t-85 44.5t-68.5 53.5t-56.5 67.5t-33.5 82.5t-13.5 102.5q0 178 119 289.5t347 111.5q232 0 404 -141l-31 -92q-84 74 -173.5 109.5t-203.5 35.5q-95 0 -167.5 -24.5t-115.5 -67.5t-64 -97t-21 -118q0 -67 21 -116t73 -89t121.5 -70.5
t183.5 -68.5q61 -20 98.5 -34t90 -37t84.5 -44.5t67.5 -54t55.5 -68.5t33 -84.5t13 -105.5q0 -178 -111 -288t-327 -120l-41 -88q126 -37 169.5 -82.5t43.5 -107.5z" />
    <glyph glyph-name="scedilla" unicode="&#x15f;" horiz-adv-x="962" 
d="M694 -305q0 -81 -56.5 -131.5t-176.5 -50.5q-112 0 -189 41l19 73q75 -43 178 -43q74 0 108.5 30t34.5 81q0 47 -44 80t-173 61l60 139q-193 5 -342 117l24 90q150 -123 348 -123q135 0 205 54.5t70 154.5q0 28 -6.5 51t-16 40.5t-30 33.5t-38.5 27t-52.5 25t-60.5 23
t-73 24q-53 18 -84.5 29t-73.5 29t-66 33t-51 38t-40.5 47.5t-23 57t-9.5 71.5q0 136 96.5 215.5t262.5 79.5q178 0 309 -95l-25 -90q-128 101 -289 101q-126 0 -195 -56.5t-69 -148.5q0 -28 7.5 -51.5t17.5 -41t34 -34.5t41.5 -28t56 -25.5t62 -23t74.5 -24.5
q72 -24 113 -39.5t89 -41.5t72.5 -54.5t41 -70.5t16.5 -97q0 -134 -86.5 -210t-239.5 -85l-43 -92q126 -37 169.5 -82.5t43.5 -107.5z" />
    <glyph glyph-name="Scaron" unicode="&#x160;" horiz-adv-x="1202" 
d="M934 1966l-291 -311h-61l-291 311l80 27l241 -267l242 267zM115 143l32 93q192 -177 455 -177q197 0 294 86t97 230q0 45 -10 82.5t-25 65.5t-45.5 54t-56.5 43t-75.5 37.5t-84.5 33t-100 34.5q-61 21 -97.5 34.5t-89.5 37t-85 44.5t-68.5 53.5t-56.5 67.5t-33.5 82.5
t-13.5 102.5q0 178 119 289.5t347 111.5q232 0 404 -141l-31 -92q-84 74 -173.5 109.5t-203.5 35.5q-95 0 -167.5 -24.5t-115.5 -67.5t-64 -97t-21 -118q0 -67 21 -116t73 -89t121.5 -70.5t183.5 -68.5q61 -20 98.5 -34t90 -37t84.5 -44.5t67.5 -54t55.5 -68.5t33 -84.5
t13 -105.5q0 -189 -122.5 -299.5t-362.5 -110.5q-285 0 -487 172z" />
    <glyph glyph-name="scaron" unicode="&#x161;" horiz-adv-x="962" 
d="M786 1622l-270 -399h-61l-271 399l78 27l223 -346l224 346zM113 92l24 90q150 -123 348 -123q135 0 205 54.5t70 154.5q0 28 -6.5 51t-16 40.5t-30 33.5t-38.5 27t-52.5 25t-60.5 23t-73 24q-53 18 -84.5 29t-73.5 29t-66 33t-51 38t-40.5 47.5t-23 57t-9.5 71.5
q0 136 96.5 215.5t262.5 79.5q178 0 309 -95l-25 -90q-128 101 -289 101q-126 0 -195 -56.5t-69 -148.5q0 -28 7.5 -51.5t17.5 -41t34 -34.5t41.5 -28t56 -25.5t62 -23t74.5 -24.5q72 -24 113 -39.5t89 -41.5t72.5 -54.5t41 -70.5t16.5 -97q0 -145 -99.5 -221t-273.5 -76
q-210 0 -364 117z" />
    <glyph glyph-name="uni0162" unicode="&#x162;" horiz-adv-x="1175" 
d="M784 -305q0 -81 -56.5 -131.5t-176.5 -50.5q-112 0 -189 41l19 73q75 -43 178 -43q74 0 108.5 30t34.5 81q0 47 -44 80t-173 61l70 164h-14v1434h-512v86h1118v-86h-512v-1434h-10l-54 -115q126 -37 169.5 -82.5t43.5 -107.5z" />
    <glyph glyph-name="uni0163" unicode="&#x163;" horiz-adv-x="745" 
d="M637 -305q0 -81 -57 -131.5t-177 -50.5q-111 0 -188 41l18 73q75 -43 179 -43q74 0 108.5 30t34.5 81q0 47 -44 80t-173 61l63 152q-163 48 -163 264v737h-191v78h191v307l92 27v-334h350v-78h-350v-727q0 -102 43.5 -152.5t134.5 -50.5q92 0 168 58l14 -88
q-84 -54 -194 -54q-21 0 -31 2l-41 -92q126 -37 169.5 -82.5t43.5 -107.5z" />
    <glyph glyph-name="Tcaron" unicode="&#x164;" horiz-adv-x="1175" 
d="M909 1966l-291 -311h-61l-291 311l80 27l242 -267l241 267zM1147 1434h-512v-1434h-94v1434h-512v86h1118v-86z" />
    <glyph glyph-name="tcaron" unicode="&#x165;" horiz-adv-x="745" 
d="M582 1206h-64l66 475h96zM690 29q-84 -54 -194 -54q-118 0 -188 67t-70 210v737h-191v78h191v307l92 27v-334h350v-78h-350v-727q0 -102 43.5 -152.5t134.5 -50.5q92 0 168 58z" />
    <glyph glyph-name="Tbar" unicode="&#x166;" horiz-adv-x="1175" 
d="M975 764h-340v-764h-94v764h-340v82h340v588h-512v86h1118v-86h-512v-588h340v-82z" />
    <glyph glyph-name="tbar" unicode="&#x167;" horiz-adv-x="786" 
d="M711 29q-84 -54 -195 -54q-118 0 -188 67t-70 210v321h-190v74h190v342h-190v78h190v307l92 27v-334h350v-78h-350v-342h350v-74h-350v-311q0 -102 43.5 -152.5t134.5 -50.5q92 0 168 58z" />
    <glyph glyph-name="Utilde" unicode="&#x168;" horiz-adv-x="1507" 
d="M457 1667l-76 6q0 128 55.5 192t138.5 64q36 0 74 -14.5t62 -30.5t59 -43t56 -41.5t51.5 -27.5t58.5 -13q115 0 115 185l75 -9q0 -127 -55.5 -190.5t-138.5 -63.5q-36 0 -74 14.5t-62 30.5t-59 43q-36 27 -56.5 41t-51 26.5t-58.5 12.5q-114 0 -114 -182zM211 565v955h92
v-959q0 -248 116.5 -375t334.5 -127q219 0 335.5 127t116.5 375v959h92v-955q0 -286 -138.5 -440t-405.5 -154q-268 0 -405.5 154t-137.5 440z" />
    <glyph glyph-name="utilde" unicode="&#x169;" horiz-adv-x="1212" 
d="M322 1262l-76 8q0 127 51.5 190.5t132.5 63.5q84 0 188 -88q94 -82 156 -82q109 0 109 184l75 -8q0 -127 -51.5 -190.5t-132.5 -63.5q-84 0 -188 88q-59 49 -91 65.5t-65 16.5q-108 0 -108 -184zM928 0l-2 197q-60 -98 -157 -160t-228 -62q-162 0 -257.5 99t-95.5 284
v709h93v-692q0 -156 73.5 -235t200.5 -79q73 0 137.5 25.5t109 67.5t74 83.5t46.5 84.5v745h92v-1067h-86z" />
    <glyph glyph-name="Umacron" unicode="&#x16a;" horiz-adv-x="1507" 
d="M414 1765v80h680v-80h-680zM211 565v955h92v-959q0 -248 116.5 -375t334.5 -127q219 0 335.5 127t116.5 375v959h92v-955q0 -286 -138.5 -440t-405.5 -154q-268 0 -405.5 154t-137.5 440z" />
    <glyph glyph-name="umacron" unicode="&#x16b;" horiz-adv-x="1212" 
d="M295 1362v80h614v-80h-614zM928 0l-2 197q-60 -98 -157 -160t-228 -62q-162 0 -257.5 99t-95.5 284v709h93v-692q0 -156 73.5 -235t200.5 -79q73 0 137.5 25.5t109 67.5t74 83.5t46.5 84.5v745h92v-1067h-86z" />
    <glyph glyph-name="Ubreve" unicode="&#x16c;" horiz-adv-x="1507" 
d="M444 1962l74 6q9 -120 71 -177.5t165 -57.5t164.5 57.5t70.5 177.5l74 -6q-4 -148 -89.5 -227.5t-219.5 -79.5t-220 80t-90 227zM211 565v955h92v-959q0 -248 116.5 -375t334.5 -127q219 0 335.5 127t116.5 375v959h92v-955q0 -286 -138.5 -440t-405.5 -154
q-268 0 -405.5 154t-137.5 440z" />
    <glyph glyph-name="ubreve" unicode="&#x16d;" horiz-adv-x="1212" 
d="M293 1579l74 4q6 -137 68.5 -203.5t166.5 -66.5q105 0 167.5 66.5t68.5 203.5l73 -4q-4 -165 -89.5 -254.5t-219.5 -89.5t-219.5 89.5t-89.5 254.5zM928 0l-2 197q-60 -98 -157 -160t-228 -62q-162 0 -257.5 99t-95.5 284v709h93v-692q0 -156 73.5 -235t200.5 -79
q73 0 137.5 25.5t109 67.5t74 83.5t46.5 84.5v745h92v-1067h-86z" />
    <glyph glyph-name="Uring" unicode="&#x16e;" horiz-adv-x="1507" 
d="M754 1593q-101 0 -168.5 66.5t-67.5 163.5t67.5 163t168.5 66t168 -66t67 -163t-67 -163.5t-168 -66.5zM754 1661q73 0 118.5 45t45.5 117t-45.5 117t-118.5 45t-118.5 -45t-45.5 -117t45.5 -117t118.5 -45zM211 565v955h92v-959q0 -248 116.5 -375t334.5 -127
q219 0 335.5 127t116.5 375v959h92v-955q0 -286 -138.5 -440t-405.5 -154q-268 0 -405.5 154t-137.5 440z" />
    <glyph glyph-name="uring" unicode="&#x16f;" horiz-adv-x="1212" 
d="M602 1204q-101 0 -168 66.5t-67 163.5t67 163t168 66t168.5 -66t67.5 -163t-67.5 -163.5t-168.5 -66.5zM602 1272q73 0 118.5 45t45.5 117t-45.5 116.5t-118.5 44.5t-118.5 -44.5t-45.5 -116.5t45.5 -117t118.5 -45zM928 0l-2 197q-60 -98 -157 -160t-228 -62
q-162 0 -257.5 99t-95.5 284v709h93v-692q0 -156 73.5 -235t200.5 -79q73 0 137.5 25.5t109 67.5t74 83.5t46.5 84.5v745h92v-1067h-86z" />
    <glyph glyph-name="Uhungarumlaut" unicode="&#x170;" horiz-adv-x="1507" 
d="M567 1640l-51 33l289 322l78 -53zM944 1640l-51 33l291 322l78 -53zM211 565v955h92v-959q0 -248 116.5 -375t334.5 -127q219 0 335.5 127t116.5 375v959h92v-955q0 -286 -138.5 -440t-405.5 -154q-268 0 -405.5 154t-137.5 440z" />
    <glyph glyph-name="uhungarumlaut" unicode="&#x171;" horiz-adv-x="1212" 
d="M424 1214l-53 31l252 410l82 -45zM758 1214l-56 31l254 410l82 -45zM928 0l-2 197q-60 -98 -157 -160t-228 -62q-162 0 -257.5 99t-95.5 284v709h93v-692q0 -156 73.5 -235t200.5 -79q73 0 137.5 25.5t109 67.5t74 83.5t46.5 84.5v745h92v-1067h-86z" />
    <glyph glyph-name="Uogonek" unicode="&#x172;" horiz-adv-x="1507" 
d="M1022 -434q-74 -53 -172 -53q-94 0 -146.5 53t-52.5 135q0 148 176 274q-28 -4 -73 -4q-268 0 -405.5 154t-137.5 440v955h92v-959q0 -248 116.5 -375t334.5 -127q219 0 335.5 127t116.5 375v959h92v-955q0 -219 -82.5 -362.5t-242.5 -198.5q-240 -137 -240 -289
q0 -56 33.5 -90.5t99.5 -34.5q79 0 138 50z" />
    <glyph glyph-name="uogonek" unicode="&#x173;" horiz-adv-x="1212" 
d="M1047 -434q-77 -53 -175 -53q-94 0 -145 52.5t-51 135.5q0 85 61 162.5t191 159.5l-2 174q-60 -98 -157 -160t-228 -62q-162 0 -257.5 99t-95.5 284v709h93v-692q0 -156 73.5 -235t200.5 -79q73 0 137.5 25.5t109 67.5t74 83.5t46.5 84.5v745h92v-1067
q-256 -134 -256 -285q0 -57 32.5 -91t98.5 -34q80 0 139 50z" />
    <glyph glyph-name="Wcircumflex" unicode="&#x174;" horiz-adv-x="2134" 
d="M1389 1675l-80 -26l-242 266l-242 -266l-80 26l291 312h62zM1487 0l-420 1374l-420 -1374h-98l-465 1520h100l416 -1383l422 1383h94l422 -1387l416 1387h96l-465 -1520h-98z" />
    <glyph glyph-name="wcircumflex" unicode="&#x175;" horiz-adv-x="1634" 
d="M1120 1239l-78 -27l-223 355l-223 -355l-78 27l270 410h62zM1116 0l-299 932l-299 -932h-88l-350 1067h98l299 -938l297 938h90l297 -942l297 942h98l-352 -1067h-88z" />
    <glyph glyph-name="Ycircumflex" unicode="&#x176;" horiz-adv-x="1228" 
d="M936 1675l-80 -26l-242 266l-241 -266l-80 26l291 312h61zM1182 1520l-520 -920v-600h-95v594l-520 926h105l462 -834l465 834h103z" />
    <glyph glyph-name="ycircumflex" unicode="&#x177;" horiz-adv-x="1054" 
d="M829 1239l-77 -27l-224 355l-223 -355l-78 27l271 410h61zM580 2q-59 -151 -107 -245.5t-95 -144t-89 -66.5t-99 -17q-66 0 -122 25l8 90q56 -29 117 -29q53 0 92.5 28.5t88 112.5t113.5 246l-413 1065h100l361 -963l360 963h98z" />
    <glyph glyph-name="Ydieresis" unicode="&#x178;" horiz-adv-x="1228" 
d="M754 1733v145h118v-145h-118zM356 1733v145h119v-145h-119zM1182 1520l-520 -920v-600h-95v594l-520 926h105l462 -834l465 834h103z" />
    <glyph glyph-name="Zacute" unicode="&#x179;" horiz-adv-x="1335" 
d="M569 1640l-49 37l352 318l78 -60zM1221 86v-86h-1110v84l972 1350h-931v86h1048v-82l-979 -1352h1000z" />
    <glyph glyph-name="zacute" unicode="&#x17a;" horiz-adv-x="985" 
d="M438 1212l-55 31l258 412l86 -47zM893 82v-82h-801v76l688 909h-653v82h764v-76l-688 -909h690z" />
    <glyph glyph-name="Zdotaccent" unicode="&#x17b;" horiz-adv-x="1335" 
d="M608 1733v145h123v-145h-123zM1221 86v-86h-1110v84l972 1350h-931v86h1048v-82l-979 -1352h1000z" />
    <glyph glyph-name="zdotaccent" unicode="&#x17c;" horiz-adv-x="985" 
d="M436 1327v146h123v-146h-123zM893 82v-82h-801v76l688 909h-653v82h764v-76l-688 -909h690z" />
    <glyph glyph-name="Zcaron" unicode="&#x17d;" horiz-adv-x="1335" 
d="M991 1966l-291 -311h-61l-291 311l80 27l242 -267l241 267zM1221 86v-86h-1110v84l972 1350h-931v86h1048v-82l-979 -1352h1000z" />
    <glyph glyph-name="zcaron" unicode="&#x17e;" horiz-adv-x="985" 
d="M799 1622l-271 -399h-61l-270 399l77 27l224 -346l223 346zM893 82v-82h-801v76l688 909h-653v82h764v-76l-688 -909h690z" />
    <glyph glyph-name="longs" unicode="&#x17f;" horiz-adv-x="544" 
d="M199 0v1233q0 192 84 284.5t233 92.5q74 0 129 -17l-8 -90q-61 23 -125 23q-110 0 -165.5 -70t-55.5 -217v-1239h-92z" />
    <glyph glyph-name="uni018F" unicode="&#x18f;" horiz-adv-x="1501" 
d="M1368 766q0 -378 -163.5 -586.5t-467.5 -208.5q-122 0 -222 35.5t-168 97t-114.5 147.5t-68 184t-21.5 208q0 54 7 133h1122v4q0 327 -137.5 503.5t-425.5 176.5q-154 0 -281.5 -48.5t-212.5 -127.5l-35 88q91 77 229 126.5t304 49.5t292 -54.5t205 -158t118.5 -246
t39.5 -323.5zM731 59q249 0 389 167.5t152 463.5h-1032v-61q0 -122 29 -224t87.5 -180t154 -122t220.5 -44z" />
    <glyph glyph-name="florin" unicode="&#x192;" 
d="M543 6q-17 -86 -44 -150.5t-58.5 -103.5t-71.5 -63t-79.5 -32.5t-86.5 -8.5q-99 0 -158 43l21 90q58 -49 145 -49q91 0 151.5 61.5t88.5 204.5l165 833h-241v74h256l57 287q17 86 46.5 150t64.5 103t80 62.5t87.5 32t92.5 8.5q103 0 168 -43l-23 -90q-71 49 -155 49
q-105 0 -173 -63t-96 -203l-59 -293h338v-74h-352z" />
    <glyph glyph-name="Ohorn" unicode="&#x1a0;" horiz-adv-x="1581" 
d="M1448 760q0 -182 -48.5 -331t-135.5 -249t-208 -154.5t-265 -54.5t-265 54.5t-208.5 154.5t-136 249t-48.5 331t48.5 331t136 249t208.5 154t265 54q168 0 301 -71h20q145 0 198.5 57t53.5 168q0 50 -8 104h88q8 -54 8 -108q0 -258 -258 -291q121 -102 187.5 -267
t66.5 -380zM791 59q259 0 409 188.5t150 512.5q0 323 -150 511.5t-409 188.5t-409.5 -188t-150.5 -512q0 -323 150.5 -512t409.5 -189z" />
    <glyph glyph-name="ohorn" unicode="&#x1a1;" horiz-adv-x="1220" 
d="M1098 532q0 -256 -138 -406.5t-354 -150.5q-215 0 -353 150.5t-138 406.5q0 257 138 408.5t353 151.5q119 0 219 -50h27q68 0 114 15.5t70 46.5t33.5 68.5t9.5 89.5t-8 110h88q8 -58 8 -112q0 -254 -239 -287q80 -72 125 -185t45 -256zM606 59q183 0 290.5 128.5
t107.5 344.5q0 217 -107.5 346.5t-290.5 129.5t-291 -129.5t-108 -346.5q0 -216 108 -344.5t291 -128.5z" />
    <glyph glyph-name="Uhorn" unicode="&#x1af;" horiz-adv-x="1533" 
d="M1206 561v959h68q117 0 158 47t41 137q0 41 -9 102h90q9 -61 9 -106q0 -246 -265 -254v-881q0 -286 -138.5 -440t-405.5 -154q-268 0 -405.5 154t-137.5 440v955h92v-959q0 -248 116.5 -375t334.5 -127q219 0 335.5 127t116.5 375z" />
    <glyph glyph-name="uhorn" unicode="&#x1b0;" horiz-adv-x="1247" 
d="M922 322v745h71q110 0 153.5 48t43.5 149q0 50 -8 108h88q8 -58 8 -112q0 -259 -264 -267v-993h-86l-2 197q-60 -98 -157 -160t-228 -62q-162 0 -257.5 99t-95.5 284v709h93v-692q0 -156 73.5 -235t200.5 -79q73 0 137.5 25.5t109 67.5t74 83.5t46.5 84.5z" />
    <glyph glyph-name="Aringacute" unicode="&#x1fa;" horiz-adv-x="1386" 
d="M594 2009l-49 37l352 317l78 -59zM1223 0l-183 481h-696l-180 -481h-98l575 1518q-80 15 -131 77t-51 146q0 97 67 163t168 66t168.5 -66t67.5 -163q0 -84 -51.5 -146t-133.5 -79l576 -1516h-98zM694 1579q73 0 118.5 45t45.5 117t-45.5 117t-118.5 45t-118.5 -45
t-45.5 -117t45.5 -117t118.5 -45zM377 567h631l-316 838z" />
    <glyph glyph-name="aringacute" unicode="&#x1fb;" horiz-adv-x="1134" 
d="M457 1743l-49 37l352 317l78 -59zM573 1204q-101 0 -168 66.5t-67 163.5t67 163t168 66t168.5 -66t67.5 -163t-67.5 -163.5t-168.5 -66.5zM573 1272q73 0 118.5 45t45.5 117t-45.5 116.5t-118.5 44.5t-118 -44.5t-45 -116.5t45 -117t118 -45zM862 0l-2 174
q-65 -92 -163 -145.5t-222 -53.5q-155 0 -251.5 84t-96.5 234q0 344 563 344h166v82q0 145 -65 217t-224 72q-205 0 -350 -119l-22 88q66 54 163.5 84.5t212.5 30.5q198 0 287.5 -92.5t89.5 -266.5v-733h-86zM485 59q125 0 222 63.5t149 166.5v270h-162q-244 0 -359.5 -64.5
t-115.5 -201.5q0 -112 72 -173t194 -61z" />
    <glyph glyph-name="AEacute" unicode="&#x1fc;" horiz-adv-x="1976" 
d="M1085 1640l-49 37l353 318l77 -60zM963 0v526h-605l-305 -526h-102l885 1520h993v-86h-772v-584h690v-86h-690v-678h788v-86h-882zM963 1436h-78l-477 -826h555v826z" />
    <glyph glyph-name="aeacute" unicode="&#x1fd;" horiz-adv-x="1880" 
d="M842 1212l-56 31l258 412l86 -47zM1741 102q-150 -127 -377 -127q-163 0 -277.5 68t-171.5 197q-66 -125 -176 -195t-262 -70q-163 0 -257.5 83t-94.5 227q0 167 137 250t426 83h168v101q0 145 -66 217t-225 72q-201 0 -350 -119l-22 88q66 54 164.5 84.5t211.5 30.5
q163 0 248.5 -66t108.5 -192q56 125 160.5 191.5t248.5 66.5q112 0 195.5 -40.5t132 -111.5t71.5 -157t23 -187v-53h-813v-25q0 -221 110.5 -340t317.5 -119q204 0 346 131zM1331 1010q-157 0 -261.5 -103t-121.5 -289h719v17q0 73 -19 137.5t-57.5 119t-105.5 86.5t-154 32
zM483 59q139 0 241.5 73t152.5 204q-21 96 -21 194v13h-162q-250 0 -362.5 -63t-112.5 -195q0 -107 68 -166.5t196 -59.5z" />
    <glyph glyph-name="Oslashacute" unicode="&#x1fe;" horiz-adv-x="1581" 
d="M690 1640l-49 37l352 318l78 -60zM791 -29q-243 0 -414 148l-141 -199l-70 31l158 221q-191 217 -191 588q0 182 48.5 331t136 249t208.5 154t265 54q241 0 411 -147l141 198l70 -30l-158 -221q193 -215 193 -588q0 -182 -48.5 -331t-135.5 -249t-208 -154.5t-265 -54.5z
M231 760q0 -319 148 -510l770 1077q-142 133 -358 133q-259 0 -409.5 -188t-150.5 -512zM1350 760q0 321 -150 510l-768 -1075q142 -136 359 -136q259 0 409 188.5t150 512.5z" />
    <glyph glyph-name="oslashacute" unicode="&#x1ff;" horiz-adv-x="1210" 
d="M547 1212l-55 31l258 412l86 -47zM606 -25q-163 0 -289 93l-127 -179l-65 33l137 193q-147 153 -147 417q0 257 138 408.5t353 151.5q163 0 289 -93l127 177l63 -31l-137 -193q150 -153 150 -420q0 -256 -138 -406.5t-354 -150.5zM207 532q0 -217 108 -344l531 740
q-99 80 -240 80q-183 0 -291 -129.5t-108 -346.5zM1004 532q0 219 -109 347l-528 -742q105 -78 239 -78q183 0 290.5 128.5t107.5 344.5z" />
    <glyph glyph-name="uni0218" unicode="&#x218;" horiz-adv-x="1202" 
d="M115 143l32 93q192 -177 455 -177q197 0 294 86t97 230q0 45 -10 82.5t-25 65.5t-45.5 54t-56.5 43t-75.5 37.5t-84.5 33t-100 34.5q-61 21 -97.5 34.5t-89.5 37t-85 44.5t-68.5 53.5t-56.5 67.5t-33.5 82.5t-13.5 102.5q0 178 119 289.5t347 111.5q232 0 404 -141
l-31 -92q-84 74 -173.5 109.5t-203.5 35.5q-95 0 -167.5 -24.5t-115.5 -67.5t-64 -97t-21 -118q0 -67 21 -116t73 -89t121.5 -70.5t183.5 -68.5q61 -20 98.5 -34t90 -37t84.5 -44.5t67.5 -54t55.5 -68.5t33 -84.5t13 -105.5q0 -189 -122.5 -299.5t-362.5 -110.5
q-285 0 -487 172zM559 -489l-82 12q98 128 98 278q0 38 -4 54h91q6 -30 6 -58q0 -161 -109 -286z" />
    <glyph glyph-name="uni0219" unicode="&#x219;" horiz-adv-x="962" 
d="M113 92l24 90q150 -123 348 -123q135 0 205 54.5t70 154.5q0 28 -6.5 51t-16 40.5t-30 33.5t-38.5 27t-52.5 25t-60.5 23t-73 24q-53 18 -84.5 29t-73.5 29t-66 33t-51 38t-40.5 47.5t-23 57t-9.5 71.5q0 136 96.5 215.5t262.5 79.5q178 0 309 -95l-25 -90
q-128 101 -289 101q-126 0 -195 -56.5t-69 -148.5q0 -28 7.5 -51.5t17.5 -41t34 -34.5t41.5 -28t56 -25.5t62 -23t74.5 -24.5q72 -24 113 -39.5t89 -41.5t72.5 -54.5t41 -70.5t16.5 -97q0 -145 -99.5 -221t-273.5 -76q-210 0 -364 117zM428 -489l-82 12q98 128 98 278
q0 38 -4 54h90q7 -28 7 -58q0 -161 -109 -286z" />
    <glyph glyph-name="uni021A" unicode="&#x21a;" horiz-adv-x="1175" 
d="M1147 1434h-512v-1434h-94v1434h-512v86h1118v-86zM528 -489l-82 12q99 129 99 278q0 38 -4 54h90q6 -24 6 -58q0 -161 -109 -286z" />
    <glyph glyph-name="uni021B" unicode="&#x21b;" horiz-adv-x="745" 
d="M690 29q-84 -54 -194 -54q-118 0 -188 67t-70 210v737h-191v78h191v307l92 27v-334h350v-78h-350v-727q0 -102 43.5 -152.5t134.5 -50.5q92 0 168 58zM373 -489l-82 12q98 128 98 278q0 38 -4 54h90q6 -30 6 -58q0 -163 -108 -286z" />
    <glyph glyph-name="uni0237" unicode="&#x237;" horiz-adv-x="516" 
d="M-137 -449l10 91q58 -27 139 -27q104 0 158.5 65t54.5 218v1169h92v-1165q0 -198 -80.5 -285.5t-228.5 -87.5q-91 0 -145 22z" />
    <glyph glyph-name="uni0259" unicode="&#x259;" horiz-adv-x="1161" 
d="M1049 539q0 -265 -123 -414.5t-351 -149.5q-92 0 -167 25.5t-126 69t-85.5 104.5t-50 130.5t-15.5 148.5q0 44 4 94h823q-3 461 -405 461q-214 0 -369 -119l-22 88q69 50 171 82.5t222 32.5q248 0 371 -145.5t123 -407.5zM571 57q173 0 273.5 110t111.5 304h-735v-33
q0 -169 88 -275t262 -106z" />
    <glyph glyph-name="uni02BB" unicode="&#x2bb;" horiz-adv-x="466" 
d="M350 1593q-94 -173 -94 -403q0 -55 2 -78h-98q-2 23 -2 78q0 231 110 403h82z" />
    <glyph glyph-name="uni02BC" unicode="&#x2bc;" horiz-adv-x="466" 
d="M117 1112q94 173 94 404q0 54 -2 77h98q2 -23 2 -77q0 -232 -110 -404h-82z" />
    <glyph glyph-name="circumflex" unicode="&#x2c6;" horiz-adv-x="1024" 
d="M813 1239l-78 -27l-223 355l-223 -355l-78 27l270 410h62z" />
    <glyph glyph-name="caron" unicode="&#x2c7;" horiz-adv-x="1024" 
d="M813 1622l-270 -399h-62l-270 399l78 27l223 -346l223 346z" />
    <glyph glyph-name="uni02C9" unicode="&#x2c9;" horiz-adv-x="1024" 
d="M205 1362v80h614v-80h-614z" />
    <glyph glyph-name="breve" unicode="&#x2d8;" horiz-adv-x="1024" 
d="M203 1579l73 4q6 -137 68.5 -203.5t167.5 -66.5t167.5 66.5t68.5 203.5l73 -4q-4 -165 -89.5 -254.5t-219.5 -89.5t-219.5 89.5t-89.5 254.5z" />
    <glyph glyph-name="dotaccent" unicode="&#x2d9;" horiz-adv-x="1024" 
d="M451 1327v146h122v-146h-122z" />
    <glyph glyph-name="ring" unicode="&#x2da;" horiz-adv-x="1024" 
d="M512 1204q-101 0 -168.5 66.5t-67.5 163.5t67.5 163t168.5 66t168.5 -66t67.5 -163t-67.5 -163.5t-168.5 -66.5zM512 1272q73 0 118.5 45t45.5 117t-45.5 116.5t-118.5 44.5t-118.5 -44.5t-45.5 -116.5t45.5 -117t118.5 -45z" />
    <glyph glyph-name="ogonek" unicode="&#x2db;" horiz-adv-x="1024" 
d="M729 -434q-77 -53 -174 -53q-94 0 -145.5 52.5t-51.5 135.5q0 160 224 311h102q-246 -149 -246 -297q0 -56 33.5 -90.5t99.5 -34.5q81 0 140 50z" />
    <glyph glyph-name="tilde" unicode="&#x2dc;" horiz-adv-x="1024" 
d="M231 1262l-75 8q0 127 51.5 190.5t132.5 63.5q85 0 188 -88q51 -43 86 -62.5t70 -19.5q109 0 109 184l75 -8q0 -127 -51.5 -190.5t-132.5 -63.5q-84 0 -188 88q-53 44 -88 63t-68 19q-109 0 -109 -184z" />
    <glyph glyph-name="hungarumlaut" unicode="&#x2dd;" horiz-adv-x="1024" 
d="M334 1214l-53 31l251 410l82 -45zM668 1214l-56 31l254 410l82 -45z" />
    <glyph glyph-name="gravecomb" unicode="&#x300;" horiz-adv-x="0" 
d="M59 1212l-288 396l86 47l258 -412z" />
    <glyph glyph-name="acutecomb" unicode="&#x301;" horiz-adv-x="0" 
d="M-59 1212l-56 31l258 412l86 -47z" />
    <glyph glyph-name="uni0302" unicode="&#x302;" horiz-adv-x="0" 
d="M301 1239l-78 -27l-223 355l-223 -355l-78 27l270 410h62z" />
    <glyph glyph-name="tildecomb" unicode="&#x303;" horiz-adv-x="0" 
d="M-281 1262l-75 8q0 127 51.5 190.5t132.5 63.5q85 0 188 -88q53 -44 87.5 -63t68.5 -19q109 0 109 184l75 -8q0 -127 -51.5 -190.5t-132.5 -63.5q-84 0 -188 88q-53 44 -88 63t-68 19q-109 0 -109 -184z" />
    <glyph glyph-name="uni0304" unicode="&#x304;" horiz-adv-x="0" 
d="M-307 1362v80h614v-80h-614z" />
    <glyph glyph-name="uni0306" unicode="&#x306;" horiz-adv-x="0" 
d="M-309 1579l73 4q6 -137 68.5 -203.5t167.5 -66.5t167.5 66.5t68.5 203.5l73 -4q-4 -165 -89.5 -254.5t-219.5 -89.5t-219.5 89.5t-89.5 254.5z" />
    <glyph glyph-name="uni0307" unicode="&#x307;" horiz-adv-x="0" 
d="M-61 1327v146h122v-146h-122z" />
    <glyph glyph-name="uni0308" unicode="&#x308;" horiz-adv-x="0" 
d="M139 1327v146h119v-146h-119zM-258 1327v146h119v-146h-119z" />
    <glyph glyph-name="hookabovecomb" unicode="&#x309;" horiz-adv-x="0" 
d="M14 1212l-53 54q112 56 157.5 100t45.5 109q0 60 -37 97.5t-119 37.5q-113 0 -203 -72l-20 74q104 74 225 74q106 0 172 -53.5t66 -153.5q0 -90 -57.5 -149t-176.5 -118z" />
    <glyph glyph-name="uni030A" unicode="&#x30a;" horiz-adv-x="0" 
d="M0 1204q-101 0 -168.5 66.5t-67.5 163.5t67.5 163t168.5 66t168.5 -66t67.5 -163t-67.5 -163.5t-168.5 -66.5zM0 1272q73 0 118.5 45t45.5 117t-45.5 116.5t-118.5 44.5t-118.5 -44.5t-45.5 -116.5t45.5 -117t118.5 -45z" />
    <glyph glyph-name="uni030B" unicode="&#x30b;" horiz-adv-x="0" 
d="M-178 1214l-53 31l251 410l82 -45zM156 1214l-56 31l254 410l82 -45z" />
    <glyph glyph-name="uni030C" unicode="&#x30c;" horiz-adv-x="0" 
d="M301 1622l-270 -399h-62l-270 399l78 27l223 -346l223 346z" />
    <glyph glyph-name="uni0312" unicode="&#x312;" horiz-adv-x="0" 
d="M49 1620l78 -12q-90 -124 -90 -271q0 -33 6 -63h-92q-6 30 -6 65q0 150 104 281z" />
    <glyph glyph-name="uni031B" unicode="&#x31b;" horiz-adv-x="0" 
d="M-262 1067h43q110 0 153 47.5t43 149.5q0 50 -8 108h88q9 -65 9 -112q0 -267 -281 -267h-47v74z" />
    <glyph glyph-name="dotbelowcomb" unicode="&#x323;" horiz-adv-x="0" 
d="M-61 -334v144h122v-144h-122z" />
    <glyph glyph-name="uni0326" unicode="&#x326;" horiz-adv-x="0" 
d="M-53 -489l-82 12q98 128 98 278q0 38 -4 54h90q6 -30 6 -58q0 -163 -108 -286z" />
    <glyph glyph-name="uni0327" unicode="&#x327;" horiz-adv-x="0" 
d="M209 -305q0 -81 -57 -131.5t-177 -50.5q-111 0 -188 41l18 73q75 -43 179 -43q74 0 108.5 30t34.5 81q0 47 -44 80t-173 61l72 170h69l-55 -121q126 -37 169.5 -82.5t43.5 -107.5z" />
    <glyph glyph-name="uni0328" unicode="&#x328;" horiz-adv-x="0" 
d="M217 -434q-77 -53 -174 -53q-94 0 -145.5 52.5t-51.5 135.5q0 160 224 311h102q-246 -149 -246 -297q0 -56 33.5 -90.5t99.5 -34.5q81 0 140 50z" />
    <glyph glyph-name="uni0374" unicode="&#x374;" horiz-adv-x="540" 
d="M156 1010l163 583h115v-4l-213 -579h-65z" />
    <glyph glyph-name="uni037E" unicode="&#x37e;" horiz-adv-x="802" 
d="M336 854v158h131v-158h-131zM319 -332l-86 15q119 182 119 385q0 52 -6 88h105q6 -42 6 -88q0 -108 -36.5 -213t-101.5 -187z" />
    <glyph glyph-name="tonos" unicode="&#x384;" horiz-adv-x="491" 
d="M217 1212l-65 11l100 434h102v-4z" />
    <glyph glyph-name="dieresistonos" unicode="&#x385;" horiz-adv-x="1024" 
d="M494 1212l-64 11l88 434h100v-4zM702 1327v146h119v-146h-119zM203 1327v146h119v-146h-119z" />
    <glyph glyph-name="Alphatonos" unicode="&#x386;" horiz-adv-x="1386" 
d="M1223 0l-183 481h-696l-180 -481h-98l577 1520h100l578 -1520h-98zM193 1073l-66 10l100 435h103v-5zM377 567h631l-316 838z" />
    <glyph glyph-name="anoteleia" unicode="&#x387;" horiz-adv-x="665" 
d="M264 922v145h137v-145h-137z" />
    <glyph glyph-name="Epsilontonos" unicode="&#x388;" horiz-adv-x="1347" 
d="M1217 86v-86h-904v1520h887v-86h-792v-584h710v-86h-710v-678h809zM-16 1075l-66 10l100 435h103v-4z" />
    <glyph glyph-name="Etatonos" unicode="&#x389;" horiz-adv-x="1607" 
d="M1286 0v764h-878v-764h-95v1520h95v-670h878v670h92v-1520h-92zM-16 1075l-66 10l100 435h103v-4z" />
    <glyph glyph-name="Iotatonos" unicode="&#x38a;" horiz-adv-x="636" 
d="M313 0v1520h95v-1520h-95zM-16 1075l-66 10l100 435h103v-4z" />
    <glyph glyph-name="Omicrontonos" unicode="&#x38c;" horiz-adv-x="1626" 
d="M836 -29q-144 0 -265 54.5t-208.5 154.5t-136 249t-48.5 331t48.5 331t136 249t208.5 154t265 54t265 -54t208 -154t135.5 -249t48.5 -331t-48.5 -331t-135.5 -249t-208 -154.5t-265 -54.5zM-16 1075l-66 10l100 435h103v-4zM836 59q259 0 409 188.5t150 512.5
q0 323 -150 511.5t-409 188.5t-409.5 -188t-150.5 -512q0 -323 150.5 -512t409.5 -189z" />
    <glyph glyph-name="Upsilontonos" unicode="&#x38e;" horiz-adv-x="1400" 
d="M1356 1520l-520 -920v-600h-95v594l-520 926h105l462 -834l465 834h103zM-16 1075l-66 10l100 435h103v-4z" />
    <glyph glyph-name="Omegatonos" unicode="&#x38f;" horiz-adv-x="1687" 
d="M723 78v-78h-569v86h436q-203 158 -305.5 343.5t-102.5 410.5q0 206 80 366t233.5 251t358.5 91t358.5 -91t233.5 -251t80 -366q0 -225 -102.5 -410.5t-305.5 -343.5h436v-86h-569v78q217 159 329.5 340.5t112.5 419.5q0 284 -153 453t-420 169t-420 -169.5t-153 -452.5
q0 -162 55.5 -301.5t149.5 -246.5t237 -212zM-16 1075l-66 10l100 435h103v-4z" />
    <glyph glyph-name="iotadieresistonos" unicode="&#x390;" horiz-adv-x="567" 
d="M270 1212l-63 11l88 434h100v-4zM479 1327v146h119v-146h-119zM-20 1327v146h118v-146h-118zM492 4q-44 -16 -101 -16q-184 0 -184 192v887h92v-870q0 -67 24.5 -96t82.5 -29q45 0 86 16v-84z" />
    <glyph glyph-name="Alpha" unicode="&#x391;" horiz-adv-x="1386" 
d="M1223 0l-183 481h-696l-180 -481h-98l577 1520h100l578 -1520h-98zM377 567h631l-316 838z" />
    <glyph glyph-name="Beta" unicode="&#x392;" horiz-adv-x="1370" 
d="M1237 406q0 -114 -39.5 -195.5t-112.5 -126t-163 -64.5t-205 -20h-490v1520h457q251 0 365 -95t114 -284q0 -286 -254 -350q160 -29 244 -121.5t84 -263.5zM678 1434h-356v-613h364q88 0 154.5 15t119.5 50t81 97.5t28 151.5q0 164 -96 231.5t-295 67.5zM322 741v-655
h393q100 0 173.5 14.5t132 49.5t88.5 99.5t30 158.5q0 178 -104.5 255.5t-299.5 77.5h-413z" />
    <glyph glyph-name="Gamma" unicode="&#x393;" horiz-adv-x="1110" 
d="M1081 1434h-759v-1434h-95v1520h854v-86z" />
    <glyph glyph-name="uni0394" unicode="&#x394;" horiz-adv-x="1386" 
d="M743 1520l578 -1520h-1255l577 1520h100zM197 86h993l-498 1319z" />
    <glyph glyph-name="Epsilon" unicode="&#x395;" horiz-adv-x="1261" 
d="M1130 86v-86h-903v1520h887v-86h-792v-584h710v-86h-710v-678h808z" />
    <glyph glyph-name="Zeta" unicode="&#x396;" horiz-adv-x="1335" 
d="M1221 86v-86h-1110v84l972 1350h-931v86h1048v-82l-979 -1352h1000z" />
    <glyph glyph-name="Eta" unicode="&#x397;" horiz-adv-x="1521" 
d="M1200 0v764h-878v-764h-95v1520h95v-670h878v670h92v-1520h-92z" />
    <glyph glyph-name="Theta" unicode="&#x398;" horiz-adv-x="1581" 
d="M791 -29q-144 0 -265 54.5t-208.5 154.5t-136 249t-48.5 331t48.5 331t136 249t208.5 154t265 54t265 -54t208 -154t135.5 -249t48.5 -331t-48.5 -331t-135.5 -249t-208 -154.5t-265 -54.5zM791 59q259 0 409 188.5t150 512.5q0 323 -150 511.5t-409 188.5t-409.5 -188
t-150.5 -512q0 -323 150.5 -512t409.5 -189zM389 737v86h803v-86h-803z" />
    <glyph glyph-name="Iota" unicode="&#x399;" horiz-adv-x="550" 
d="M227 0v1520h95v-1520h-95z" />
    <glyph glyph-name="Kappa" unicode="&#x39a;" horiz-adv-x="1329" 
d="M1182 0l-643 772l-217 -219v-553h-95v1520h95v-852l829 852h123v-4l-674 -680l700 -832v-4h-118z" />
    <glyph glyph-name="Lambda" unicode="&#x39b;" horiz-adv-x="1386" 
d="M1223 0l-531 1405l-528 -1405h-98l577 1520h100l578 -1520h-98z" />
    <glyph glyph-name="Mu" unicode="&#x39c;" horiz-adv-x="1916" 
d="M934 0l-619 1419v-1419h-88v1520h144l587 -1358l588 1358h144v-1520h-93v1413l-614 -1413h-49z" />
    <glyph glyph-name="Nu" unicode="&#x39d;" horiz-adv-x="1572" 
d="M1245 0l-930 1380v-1380h-88v1520h103l927 -1377v1377h89v-1520h-101z" />
    <glyph glyph-name="Xi" unicode="&#x39e;" horiz-adv-x="1327" 
d="M147 1432v88h1033v-88h-1033zM229 764v86h869v-86h-869zM131 0v88h1065v-88h-1065z" />
    <glyph glyph-name="Omicron" unicode="&#x39f;" horiz-adv-x="1581" 
d="M791 -29q-144 0 -265 54.5t-208.5 154.5t-136 249t-48.5 331t48.5 331t136 249t208.5 154t265 54t265 -54t208 -154t135.5 -249t48.5 -331t-48.5 -331t-135.5 -249t-208 -154.5t-265 -54.5zM791 59q259 0 409 188.5t150 512.5q0 323 -150 511.5t-409 188.5t-409.5 -188
t-150.5 -512q0 -323 150.5 -512t409.5 -189z" />
    <glyph glyph-name="Pi" unicode="&#x3a0;" horiz-adv-x="1505" 
d="M1184 0v1434h-862v-1434h-95v1520h1049v-1520h-92z" />
    <glyph glyph-name="Rho" unicode="&#x3a1;" 
d="M322 573v-573h-95v1520h439q122 0 219 -27t169 -82.5t111 -147t39 -214.5q0 -108 -31 -192t-82 -136.5t-123.5 -86.5t-148 -47.5t-162.5 -13.5h-335zM659 1434h-337v-777h329q459 0 459 390q0 387 -451 387z" />
    <glyph glyph-name="Sigma" unicode="&#x3a3;" horiz-adv-x="1335" 
d="M1229 86v-86h-1110v84l643 690l-623 664v82h1057v-86h-938l619 -654v-8l-639 -686h991z" />
    <glyph glyph-name="Tau" unicode="&#x3a4;" horiz-adv-x="1175" 
d="M1147 1434h-512v-1434h-94v1434h-512v86h1118v-86z" />
    <glyph glyph-name="Upsilon" unicode="&#x3a5;" horiz-adv-x="1228" 
d="M1182 1520l-520 -920v-600h-95v594l-520 926h105l462 -834l465 834h103z" />
    <glyph glyph-name="Phi" unicode="&#x3a6;" horiz-adv-x="1687" 
d="M1571 776q0 -202 -91 -351t-244 -225.5t-349 -80.5v-148h-88v148q-145 3 -269.5 48.5t-217 127.5t-145 205.5t-52.5 275.5t52.5 276t145 206t217 127.5t269.5 48.5v139h88v-139q146 -3 270.5 -48.5t216.5 -127.5t144.5 -206t52.5 -276zM1477 776q0 178 -77 309t-209 198
t-304 71v-1155q172 4 304 71t209 197.5t77 308.5zM211 776q0 -134 44.5 -242.5t123 -180.5t186 -111.5t234.5 -42.5v1155q-171 -4 -302.5 -71t-208.5 -198t-77 -309z" />
    <glyph glyph-name="Chi" unicode="&#x3a7;" horiz-adv-x="1298" 
d="M1102 0l-455 698l-454 -698h-107l510 774l-490 746h111l436 -670l432 670h107l-490 -746l510 -774h-110z" />
    <glyph glyph-name="Psi" unicode="&#x3a8;" horiz-adv-x="1626" 
d="M1470 1174q0 -166 -28 -294t-79 -215t-127.5 -142.5t-168.5 -80t-207 -24.5v-418h-94v418q-116 1 -209 26t-169 81t-127 142.5t-79 214t-28 292.5v346h94v-349q0 -154 25 -270.5t69 -191.5t110.5 -122t142 -66t171.5 -19v1018h94v-1018q97 1 173 20.5t142 66.5t109 122
t67.5 191t24.5 269v349h94v-346z" />
    <glyph glyph-name="uni03A9" unicode="&#x3a9;" horiz-adv-x="1667" 
d="M702 78v-78h-569v86h436q-203 158 -305 343.5t-102 410.5q0 206 80 366t233.5 251t358.5 91q154 0 280.5 -53t212 -146.5t132 -224t46.5 -284.5q0 -225 -102 -410.5t-305 -343.5h436v-86h-569v78q217 159 329.5 340.5t112.5 419.5q0 284 -153 453t-420 169t-420.5 -169.5
t-153.5 -452.5q0 -162 55.5 -301.5t149.5 -246.5t237 -212z" />
    <glyph glyph-name="Iotadieresis" unicode="&#x3aa;" horiz-adv-x="550" 
d="M414 1733v145h118v-145h-118zM16 1733v145h119v-145h-119zM227 0v1520h95v-1520h-95z" />
    <glyph glyph-name="Upsilondieresis" unicode="&#x3ab;" horiz-adv-x="1228" 
d="M754 1733v145h118v-145h-118zM356 1733v145h119v-145h-119zM1182 1520l-520 -920v-600h-95v594l-520 926h105l462 -834l465 834h103z" />
    <glyph glyph-name="alphatonos" unicode="&#x3ac;" 
d="M676 1212l-66 11l101 434h102v-4zM1133 -12q-98 0 -145.5 66t-53.5 202q-111 -281 -373 -281q-89 0 -167.5 33.5t-140.5 98t-98 169.5t-36 238q0 265 132 421.5t337 156.5q146 0 240.5 -83.5t138.5 -224.5l39 283h92q-48 -255 -68 -403t-20 -281q0 -169 32.5 -240
t110.5 -71q41 0 80 16v-84q-47 -16 -100 -16zM211 516q0 -116 29.5 -206.5t80.5 -143.5t112.5 -80t131.5 -27q151 0 246 122t117 343l8 94q-59 390 -344 390q-171 0 -276 -133t-105 -359z" />
    <glyph glyph-name="epsilontonos" unicode="&#x3ad;" horiz-adv-x="1038" 
d="M580 1212l-66 11l100 434h103v-4zM950 96q-167 -121 -407 -121q-205 0 -317.5 79t-112.5 216q0 101 63 175t186 110q-221 61 -221 244q0 134 111 213.5t303 79.5q102 0 199.5 -24.5t167.5 -68.5l-25 -86q-151 95 -344 95q-153 0 -235 -55.5t-82 -155.5q0 -199 354 -199
h158v-82h-173q-179 0 -273.5 -66t-94.5 -174q0 -111 94.5 -164t249.5 -53q124 0 211.5 32t165.5 89z" />
    <glyph glyph-name="etatonos" unicode="&#x3ae;" horiz-adv-x="1261" 
d="M684 1212l-66 11l101 434h102v-4zM1075 709v-1164h-92v1147q0 157 -71 235.5t-197 78.5q-124 0 -222 -70.5t-153 -183.5v-752h-92v870q0 123 -96 123q-40 0 -60 -10v80q37 16 80 16q162 0 162 -188v-27q148 228 393 228q161 0 254.5 -99.5t93.5 -283.5z" />
    <glyph glyph-name="iotatonos" unicode="&#x3af;" horiz-adv-x="567" 
d="M281 1212l-66 11l100 434h103v-4zM492 4q-44 -16 -101 -16q-184 0 -184 192v887h92v-870q0 -67 24.5 -96t82.5 -29q45 0 86 16v-84z" />
    <glyph glyph-name="upsilondieresistonos" unicode="&#x3b0;" horiz-adv-x="1206" 
d="M555 1212l-63 11l88 434h100v-4zM764 1327v146h119v-146h-119zM264 1327v146h119v-146h-119zM182 1067h92v-635q0 -184 88 -278.5t244 -94.5q185 0 272 134t87 376q0 246 -93 498h91q94 -235 94 -500q0 -275 -112.5 -433.5t-342.5 -158.5q-197 0 -308.5 118t-111.5 331
v643z" />
    <glyph glyph-name="alpha" unicode="&#x3b1;" 
d="M1133 -12q-98 0 -145.5 66t-53.5 202q-111 -281 -373 -281q-89 0 -167.5 33.5t-140.5 98t-98 169.5t-36 238q0 265 132 421.5t337 156.5q146 0 240.5 -83.5t138.5 -224.5l39 283h92q-48 -255 -68 -403t-20 -281q0 -169 32.5 -240t110.5 -71q41 0 80 16v-84
q-47 -16 -100 -16zM211 516q0 -116 29.5 -206.5t80.5 -143.5t112.5 -80t131.5 -27q151 0 246 122t117 343l8 94q-59 390 -344 390q-171 0 -276 -133t-105 -359z" />
    <glyph glyph-name="beta" unicode="&#x3b2;" horiz-adv-x="1243" 
d="M662 -25q-231 0 -367 148v-578h-92v1561q0 108 22.5 194t62 143t94.5 95.5t117.5 55t133.5 16.5q188 0 299.5 -106.5t111.5 -284.5q0 -138 -68.5 -235t-189.5 -134q158 -37 249 -149.5t91 -280.5q0 -200 -126.5 -322.5t-337.5 -122.5zM295 1106v-879q120 -168 358 -168
q178 0 278.5 98.5t100.5 270.5t-108 273.5t-324 101.5h-100v82h114q164 0 250 90t86 237q0 148 -83.5 231t-231.5 83q-73 0 -132.5 -22.5t-107.5 -70.5t-74 -131t-26 -196z" />
    <glyph glyph-name="gamma" unicode="&#x3b3;" horiz-adv-x="1122" 
d="M1087 1067q-169 -301 -302.5 -602t-198.5 -514l-25 -406h-100l39 424q-29 210 -77.5 434.5t-103.5 372.5q-44 118 -94.5 169.5t-130.5 51.5q-50 0 -86 -16l-8 86q47 16 104 16q62 0 111 -22t90.5 -74.5t74 -125t64 -188.5t58.5 -249t59 -322q69 205 179 467t241 498h106z
" />
    <glyph glyph-name="delta" unicode="&#x3b4;" horiz-adv-x="1214" 
d="M1102 492q0 -148 -59 -265t-172 -184.5t-261 -67.5q-222 0 -356.5 139.5t-134.5 366.5q0 120 39.5 217.5t107.5 162.5t148.5 106.5t173.5 62.5q-68 40 -110.5 69.5t-86 70.5t-64 88.5t-20.5 103.5q0 113 84 180.5t246 67.5q140 0 261 -47.5t212 -124.5l-23 -90
q-220 180 -458 180q-110 0 -170 -44t-60 -124q0 -35 14 -67.5t33 -56t59.5 -53.5t71.5 -49.5t91 -54.5q45 -26 68 -40t66 -42.5t67.5 -48.5t60.5 -52.5t57 -61t46 -68.5t38 -80t22 -90t9 -104zM211 483q0 -198 113.5 -311t285.5 -113q179 0 288.5 121t109.5 314
q0 75 -19 140.5t-48 112.5t-75 91t-89 74t-101 63q-69 -8 -133.5 -30.5t-125.5 -63.5t-106 -95.5t-72.5 -132.5t-27.5 -170z" />
    <glyph glyph-name="epsilon" unicode="&#x3b5;" horiz-adv-x="1038" 
d="M950 96q-167 -121 -407 -121q-205 0 -317.5 79t-112.5 216q0 101 63 175t186 110q-221 61 -221 244q0 134 111 213.5t303 79.5q102 0 199.5 -24.5t167.5 -68.5l-25 -86q-151 95 -344 95q-153 0 -235 -55.5t-82 -155.5q0 -199 354 -199h158v-82h-173q-179 0 -273.5 -66
t-94.5 -174q0 -111 94.5 -164t249.5 -53q124 0 211.5 32t165.5 89z" />
    <glyph glyph-name="zeta" unicode="&#x3b6;" horiz-adv-x="940" 
d="M924 -127q0 -166 -176 -328l-80 43q80 71 121.5 142t41.5 129q0 70 -60 102.5t-224 69.5q-54 12 -92 22.5t-86.5 28.5t-81.5 38t-67.5 50.5t-55.5 67.5t-34 87.5t-13 110.5q0 105 38.5 226t117.5 258.5t214.5 290t315.5 300.5q-90 -2 -182 -2q-321 0 -443 23v82
q141 -25 484 -25q72 0 276 4v-73q-194 -152 -340 -310t-228 -296.5t-121.5 -256t-39.5 -215.5q0 -50 11.5 -91.5t29 -71.5t48.5 -55t58.5 -40.5t72.5 -30.5t77 -23t84 -19q42 -9 62.5 -13.5t56 -13.5t53.5 -16t45 -18.5t41 -22.5t31 -27.5t25 -34.5t14 -41.5t6 -50.5z" />
    <glyph glyph-name="eta" unicode="&#x3b7;" horiz-adv-x="1261" 
d="M1075 709v-1164h-92v1147q0 157 -71 235.5t-197 78.5q-124 0 -222 -70.5t-153 -183.5v-752h-92v870q0 123 -96 123q-40 0 -60 -10v80q37 16 80 16q162 0 162 -188v-27q148 228 393 228q161 0 254.5 -99.5t93.5 -283.5z" />
    <glyph glyph-name="theta" unicode="&#x3b8;" horiz-adv-x="1204" 
d="M602 -25q-226 0 -346.5 211.5t-120.5 606.5t120.5 606t346.5 211t347.5 -211.5t121.5 -605.5t-121.5 -606t-347.5 -212zM602 1526q-179 0 -274 -174t-101 -512h750q-6 338 -101 512t-274 174zM602 59q180 0 275 178.5t100 522.5h-750q5 -345 99.5 -523t275.5 -178z" />
    <glyph glyph-name="iota" unicode="&#x3b9;" horiz-adv-x="567" 
d="M492 4q-44 -16 -101 -16q-184 0 -184 192v887h92v-870q0 -67 24.5 -96t82.5 -29q45 0 86 16v-84z" />
    <glyph glyph-name="kappa" unicode="&#x3ba;" horiz-adv-x="1103" 
d="M938 0l-457 592q-128 -187 -190 -273v-319h-92v1067h92v-621q109 167 190 275.5t165 195.5t161 126.5t156 39.5q44 0 73 -16l-8 -88q-30 18 -72 18q-92 0 -188 -78t-233 -257l518 -658v-4h-115z" />
    <glyph glyph-name="lambda" unicode="&#x3bb;" horiz-adv-x="1105" 
d="M942 0l-354 940l-395 -940h-99l451 1047q-79 216 -127.5 314t-89.5 130.5t-107 32.5q-63 0 -110 -21l-9 86q58 21 134 21q51 0 87.5 -12.5t69 -39t64.5 -82t63.5 -127t75.5 -188.5l444 -1161h-98z" />
    <glyph glyph-name="uni03BC" unicode="&#x3bc;" horiz-adv-x="1277" 
d="M565 -25q-199 0 -278 150l12 -580h-92v1522h92v-692q0 -156 73.5 -235t200.5 -79q73 0 137.5 25.5t108.5 67.5t73.5 83.5t47.5 84.5v745h92v-872q0 -123 98 -123q38 0 74 16v-84q-41 -16 -90 -16q-168 0 -168 188v19q-60 -98 -157.5 -159t-223.5 -61z" />
    <glyph glyph-name="nu" unicode="&#x3bd;" horiz-adv-x="1075" 
d="M944 1067q-1 -289 -108 -563.5t-297 -503.5h-74q-183 657 -410 1067h101q198 -372 366 -967q158 207 243 454.5t85 512.5h94z" />
    <glyph glyph-name="xi" unicode="&#x3be;" horiz-adv-x="985" 
d="M944 -127q0 -166 -176 -328l-80 43q81 70 123.5 142t42.5 133q0 26 -7.5 45.5t-28.5 35.5t-40.5 26.5t-62 22t-72.5 18.5t-92 20q-50 11 -85.5 19.5t-84 25.5t-82 36t-70 48.5t-58 65.5t-36 86t-14.5 110q0 158 90.5 267.5t259.5 148.5q-135 37 -208 122.5t-73 208.5
q0 129 80 222t219 127q-274 3 -360 18v78q141 -25 496 -25q76 0 276 4v-82h-102q-115 0 -205.5 -19.5t-148 -52t-95 -77t-52.5 -90t-15 -96.5q0 -137 107.5 -216t283.5 -79h170v-86h-182q-214 0 -331.5 -101t-117.5 -266q0 -66 22 -116.5t54.5 -82t87 -56t101.5 -37
t116 -25.5q53 -10 83.5 -16.5t73 -18.5t66.5 -23t51.5 -28.5t42 -38.5t24 -49.5t9.5 -63.5z" />
    <glyph glyph-name="omicron" unicode="&#x3bf;" horiz-adv-x="1210" 
d="M606 -25q-215 0 -353 150.5t-138 406.5q0 257 138 408.5t353 151.5q216 0 354 -151.5t138 -408.5q0 -256 -138 -406.5t-354 -150.5zM606 59q183 0 290.5 128.5t107.5 344.5q0 217 -107.5 346.5t-290.5 129.5t-291 -129.5t-108 -346.5q0 -216 108 -344.5t291 -128.5z" />
    <glyph glyph-name="uni03C0" unicode="&#x3c0;" horiz-adv-x="1325" 
d="M1169 4q-44 -16 -106 -16q-97 0 -139.5 51t-42.5 162v786h-449q-4 -680 -135 -987h-98q81 189 110 429.5t31 557.5h-240v80h1108v-80h-235v-780q0 -74 23.5 -104.5t82.5 -30.5q51 0 90 16v-84z" />
    <glyph glyph-name="rho" unicode="&#x3c1;" horiz-adv-x="1251" 
d="M649 -25q-115 0 -214 47.5t-167 145.5v-623h-92v977q0 146 38 258t105 179t151 100t183 33q217 0 351.5 -146.5t134.5 -402.5q0 -260 -136.5 -414t-353.5 -154zM268 295q58 -119 155 -177.5t216 -58.5q179 0 292 128.5t113 353.5q0 220 -109 342.5t-284 122.5
q-170 0 -276.5 -122t-106.5 -362v-227z" />
    <glyph glyph-name="sigma1" unicode="&#x3c2;" horiz-adv-x="1028" 
d="M735 -455l-80 43q81 71 122.5 142.5t41.5 130.5q0 30 -11.5 53t-28.5 39.5t-54.5 34t-71.5 29.5t-98 32q-79 25 -138.5 51.5t-119 69.5t-97.5 96t-61.5 131.5t-23.5 175.5q0 111 28.5 200.5t76.5 148t114 97.5t136.5 56t147.5 17q173 0 304 -93l-23 -86q-140 95 -283 95
q-83 0 -155 -25t-130 -75.5t-91 -137t-33 -199.5q0 -102 28 -177.5t84 -125.5t118.5 -81t152.5 -58q40 -12 61 -18.5t54.5 -18t51.5 -20t43 -21.5t38.5 -25t29 -29t23 -35t13 -40.5t5.5 -48.5q0 -81 -45 -166t-129 -162z" />
    <glyph glyph-name="sigma" unicode="&#x3c3;" horiz-adv-x="1280" 
d="M1092 498q0 -245 -138 -384t-350 -139q-221 0 -355 148t-134 397q0 174 69.5 299.5t187 186.5t271.5 61h574v-80h-357q232 -179 232 -489zM606 59q180 0 286.5 116t106.5 325q0 167 -67.5 292t-179.5 195h-105q-207 0 -323.5 -124t-116.5 -345q0 -209 105.5 -334
t293.5 -125z" />
    <glyph glyph-name="tau" unicode="&#x3c4;" horiz-adv-x="976" 
d="M723 12q-52 -24 -135 -24q-98 0 -141.5 51t-43.5 162v786h-368v80h895v-80h-434v-788q0 -67 24 -97t84 -30q64 0 113 24z" />
    <glyph glyph-name="upsilon" unicode="&#x3c5;" horiz-adv-x="1206" 
d="M182 1067h92v-635q0 -184 88 -278.5t244 -94.5q185 0 272 134t87 376q0 246 -93 498h91q94 -235 94 -500q0 -275 -112.5 -433.5t-342.5 -158.5q-197 0 -308.5 118t-111.5 331v643z" />
    <glyph glyph-name="phi" unicode="&#x3c6;" horiz-adv-x="1454" 
d="M203 532q0 -145 67 -255t175 -165.5t239 -58.5v959q-131 -2 -239 -58t-175 -166t-67 -256zM1249 532q0 146 -66.5 256t-174.5 166t-240 58v-959q98 2 185 35.5t153 93t104.5 150t38.5 200.5zM684 1583h84v-491q119 -5 223 -44.5t182.5 -109t124 -174.5t45.5 -232
t-45.5 -231.5t-124 -173.5t-182.5 -108t-223 -44v-430h-84v430q-118 5 -221.5 44t-182 108t-124 173.5t-45.5 231.5t45.5 232t124 174.5t182 109t221.5 44.5v491z" />
    <glyph glyph-name="chi" unicode="&#x3c7;" horiz-adv-x="1050" 
d="M1030 -455q-47 -16 -100 -16q-87 0 -136.5 60t-123.5 245l-162 406l-381 -695h-104v4l448 785l-156 385q-72 179 -106.5 228.5t-93.5 49.5q-36 0 -76 -16l-10 84q52 18 100 18q33 0 58 -6t47.5 -24.5t38 -37.5t37.5 -62.5t37 -80t44 -108.5l141 -354l361 657h102v-4
l-428 -741l178 -443q64 -160 101 -212t100 -52q30 0 76 16z" />
    <glyph glyph-name="psi" unicode="&#x3c8;" horiz-adv-x="1546" 
d="M1395 659q0 -344 -148 -506.5t-428 -168.5v-439h-88v439q-136 2 -238 40t-177.5 117.5t-114.5 210t-39 310.5v405h92v-414q0 -159 33 -273.5t97 -182.5t149 -100t198 -34v1446h88v-1446q238 5 361 146.5t123 449.5q0 210 -68 408h92q68 -197 68 -408z" />
    <glyph glyph-name="omega" unicode="&#x3c9;" horiz-adv-x="1720" 
d="M1597 475q0 -232 -105 -366t-290 -134q-130 0 -217.5 68.5t-124.5 196.5q-38 -128 -126 -196.5t-216 -68.5q-185 0 -290 134t-105 366q0 186 64.5 341t160.5 251l101 -16q-106 -105 -170 -249t-64 -321q0 -197 80.5 -309.5t228.5 -112.5t218.5 115.5t70.5 314.5v304h92
v-304q0 -199 70.5 -314.5t218.5 -115.5t228.5 112.5t80.5 309.5q0 178 -62.5 322t-168.5 248l98 16q97 -95 162 -250t65 -342z" />
    <glyph glyph-name="iotadieresis" unicode="&#x3ca;" horiz-adv-x="567" 
d="M399 1327v146h119v-146h-119zM2 1327v146h119v-146h-119zM492 4q-44 -16 -101 -16q-184 0 -184 192v887h92v-870q0 -67 24.5 -96t82.5 -29q45 0 86 16v-84z" />
    <glyph glyph-name="upsilondieresis" unicode="&#x3cb;" horiz-adv-x="1206" 
d="M713 1327v146h118v-146h-118zM315 1327v146h119v-146h-119zM182 1067h92v-635q0 -184 88 -278.5t244 -94.5q185 0 272 134t87 376q0 246 -93 498h91q94 -235 94 -500q0 -275 -112.5 -433.5t-342.5 -158.5q-197 0 -308.5 118t-111.5 331v643z" />
    <glyph glyph-name="omicrontonos" unicode="&#x3cc;" horiz-adv-x="1210" 
d="M643 1212l-65 11l100 434h102v-4zM606 -25q-215 0 -353 150.5t-138 406.5q0 257 138 408.5t353 151.5q216 0 354 -151.5t138 -408.5q0 -256 -138 -406.5t-354 -150.5zM606 59q183 0 290.5 128.5t107.5 344.5q0 217 -107.5 346.5t-290.5 129.5t-291 -129.5t-108 -346.5
q0 -216 108 -344.5t291 -128.5z" />
    <glyph glyph-name="upsilontonos" unicode="&#x3cd;" horiz-adv-x="1206" 
d="M596 1212l-66 11l101 434h102v-4zM182 1067h92v-635q0 -184 88 -278.5t244 -94.5q185 0 272 134t87 376q0 246 -93 498h91q94 -235 94 -500q0 -275 -112.5 -433.5t-342.5 -158.5q-197 0 -308.5 118t-111.5 331v643z" />
    <glyph glyph-name="omegatonos" unicode="&#x3ce;" horiz-adv-x="1720" 
d="M893 1212l-66 11l101 434h102v-4zM1597 475q0 -232 -105 -366t-290 -134q-130 0 -217.5 68.5t-124.5 196.5q-38 -128 -126 -196.5t-216 -68.5q-185 0 -290 134t-105 366q0 186 64.5 341t160.5 251l101 -16q-106 -105 -170 -249t-64 -321q0 -197 80.5 -309.5t228.5 -112.5
t218.5 115.5t70.5 314.5v304h92v-304q0 -199 70.5 -314.5t218.5 -115.5t228.5 112.5t80.5 309.5q0 178 -62.5 322t-168.5 248l98 16q97 -95 162 -250t65 -342z" />
    <glyph glyph-name="uni0400" unicode="&#x400;" horiz-adv-x="1261" 
d="M760 1640l-381 295l78 60l352 -318zM1130 86v-86h-903v1520h887v-86h-792v-584h710v-86h-710v-678h808z" />
    <glyph glyph-name="uni0401" unicode="&#x401;" horiz-adv-x="1261" 
d="M807 1733v145h119v-145h-119zM410 1733v145h118v-145h-118zM1130 86v-86h-903v1520h887v-86h-792v-584h710v-86h-710v-678h808z" />
    <glyph glyph-name="uni0402" unicode="&#x402;" horiz-adv-x="1589" 
d="M1489 428q0 -101 -28.5 -182t-73.5 -131.5t-104.5 -83.5t-118 -46.5t-117.5 -13.5q-55 0 -120 11t-102 26l11 86q33 -15 94.5 -27t113.5 -12q46 0 91.5 10t93 37t83 67t58.5 106t23 149q0 100 -32.5 171.5t-95 112.5t-143.5 59.5t-188 18.5q-167 0 -340 -45v-741h-94
v1434h-471v86h1118v-86h-553v-607q179 43 354 43q541 0 541 -442z" />
    <glyph glyph-name="uni0403" unicode="&#x403;" horiz-adv-x="1110" 
d="M526 1640l-49 37l352 318l78 -60zM1081 1434h-759v-1434h-95v1520h854v-86z" />
    <glyph glyph-name="uni0404" unicode="&#x404;" horiz-adv-x="1390" 
d="M1280 127q-83 -74 -207.5 -115t-263.5 -41q-310 0 -493 208t-183 581q0 375 184.5 581.5t507.5 206.5q272 0 439 -151l-33 -86q-155 149 -406 149q-266 0 -419 -163t-173 -455h797v-84h-799q1 -171 44.5 -305t121.5 -219.5t183.5 -130t232.5 -44.5q131 0 248 43t194 117z
" />
    <glyph glyph-name="uni0405" unicode="&#x405;" horiz-adv-x="1202" 
d="M115 143l32 93q192 -177 455 -177q197 0 294 86t97 230q0 45 -10 82.5t-25 65.5t-45.5 54t-56.5 43t-75.5 37.5t-84.5 33t-100 34.5q-61 21 -97.5 34.5t-89.5 37t-85 44.5t-68.5 53.5t-56.5 67.5t-33.5 82.5t-13.5 102.5q0 178 119 289.5t347 111.5q232 0 404 -141
l-31 -92q-84 74 -173.5 109.5t-203.5 35.5q-95 0 -167.5 -24.5t-115.5 -67.5t-64 -97t-21 -118q0 -67 21 -116t73 -89t121.5 -70.5t183.5 -68.5q61 -20 98.5 -34t90 -37t84.5 -44.5t67.5 -54t55.5 -68.5t33 -84.5t13 -105.5q0 -189 -122.5 -299.5t-362.5 -110.5
q-285 0 -487 172z" />
    <glyph glyph-name="uni0406" unicode="&#x406;" horiz-adv-x="550" 
d="M227 0v1520h95v-1520h-95z" />
    <glyph glyph-name="uni0407" unicode="&#x407;" horiz-adv-x="550" 
d="M393 1733v145h119v-145h-119zM37 1733v145h121v-145h-121zM227 0v1520h95v-1520h-95z" />
    <glyph glyph-name="uni0408" unicode="&#x408;" horiz-adv-x="825" 
d="M6 14l8 92q96 -49 217 -49q69 0 119.5 18.5t89.5 60.5t58.5 116t19.5 180v1088h94v-1082q0 -128 -27 -220t-79 -145.5t-120 -77.5t-157 -24q-125 0 -223 43z" />
    <glyph glyph-name="uni0409" unicode="&#x409;" horiz-adv-x="2189" 
d="M1223 1520v-670h348q520 0 520 -422q0 -120 -41 -205.5t-115.5 -133t-164.5 -68.5t-203 -21h-439v1434h-460q-29 -188 -54.5 -332.5t-55 -289t-59 -250t-64.5 -203t-73 -162.5t-83 -114.5t-97.5 -72t-113.5 -22.5q-38 0 -66 8v86q24 -8 59 -8q54 0 101 30.5t87.5 87.5
t78 150t70 206t65 267.5t62 322t61.5 382.5h637zM1561 766h-338v-680h336q77 0 138 8t118.5 30.5t95.5 59.5t61 98t23 142q0 185 -112.5 263.5t-321.5 78.5z" />
    <glyph glyph-name="uni040A" unicode="&#x40a;" horiz-adv-x="2215" 
d="M1249 1520v-670h350q521 0 521 -422q0 -428 -527 -428h-438v766h-833v-766h-95v1520h95v-670h833v670h94zM1587 766h-338v-680h338q77 0 138 8t118.5 30.5t95.5 59.5t61 98t23 142q0 95 -30.5 162.5t-90 106.5t-136.5 56t-179 17z" />
    <glyph glyph-name="uni040B" unicode="&#x40b;" horiz-adv-x="1609" 
d="M594 696v-696h-94v1434h-471v86h1118v-86h-553v-648q89 46 201 73.5t215 27.5q212 0 321 -105.5t109 -304.5v-477h-92v461q0 180 -86.5 260t-266.5 80q-108 0 -220 -29.5t-181 -75.5z" />
    <glyph glyph-name="uni040C" unicode="&#x40c;" horiz-adv-x="1308" 
d="M555 1640l-49 37l352 318l78 -60zM227 1520h95v-740l811 740h127v-4l-824 -736l840 -776v-4h-127l-827 768v-768h-95v1520z" />
    <glyph glyph-name="uni040D" unicode="&#x40d;" horiz-adv-x="1556" 
d="M879 1640l-381 295l77 60l353 -318zM1235 0v1362l-916 -1362h-92v1520h95v-1362l915 1362h92v-1520h-94z" />
    <glyph glyph-name="uni040E" unicode="&#x40e;" horiz-adv-x="1294" 
d="M313 1962l84 6q3 -122 76.5 -182t192.5 -60t192 60t76 182l84 -6q-6 -155 -102 -231t-250 -76t-250.5 76t-102.5 231zM801 469q-69 -160 -122 -256t-107 -151t-104 -73t-122 -18q-87 0 -156 29l7 90q62 -33 151 -33q99 0 165 66t142 237l-579 1160h100l526 -1065
l455 1065h98z" />
    <glyph glyph-name="uni040F" unicode="&#x40f;" horiz-adv-x="1505" 
d="M1276 0h-479v-455h-88v455h-482v1520h95v-1434h862v1434h92v-1520z" />
    <glyph glyph-name="uni0410" unicode="&#x410;" horiz-adv-x="1386" 
d="M1223 0l-183 481h-696l-180 -481h-98l577 1520h100l578 -1520h-98zM377 567h631l-316 838z" />
    <glyph glyph-name="uni0411" unicode="&#x411;" horiz-adv-x="1318" 
d="M1098 1434h-776v-586h354q268 0 398 -108t130 -312q0 -96 -27.5 -170.5t-75 -122.5t-116.5 -78.5t-145 -43.5t-166 -13h-447v1520h871v-86zM664 762h-342v-676h344q78 0 140 8.5t120.5 31.5t97.5 60t62.5 97.5t23.5 140.5q0 94 -31.5 160.5t-92 105t-139 55.5t-183.5 17z
" />
    <glyph glyph-name="uni0412" unicode="&#x412;" horiz-adv-x="1370" 
d="M1237 406q0 -114 -39.5 -195.5t-112.5 -126t-163 -64.5t-205 -20h-490v1520h457q251 0 365 -95t114 -284q0 -286 -254 -350q160 -29 244 -121.5t84 -263.5zM678 1434h-356v-613h364q88 0 154.5 15t119.5 50t81 97.5t28 151.5q0 164 -96 231.5t-295 67.5zM322 741v-655
h393q100 0 173.5 14.5t132 49.5t88.5 99.5t30 158.5q0 178 -104.5 255.5t-299.5 77.5h-413z" />
    <glyph glyph-name="uni0413" unicode="&#x413;" horiz-adv-x="1110" 
d="M1081 1434h-759v-1434h-95v1520h854v-86z" />
    <glyph glyph-name="uni0414" unicode="&#x414;" horiz-adv-x="1499" 
d="M16 -434v520h72q154 124 279 494.5t194 939.5h664v-1434h200v-520h-88v434h-1233v-434h-88zM219 86h911v1348h-487q-65 -494 -175 -838t-249 -510z" />
    <glyph glyph-name="uni0415" unicode="&#x415;" horiz-adv-x="1261" 
d="M1130 86v-86h-903v1520h887v-86h-792v-584h710v-86h-710v-678h808z" />
    <glyph glyph-name="uni0416" unicode="&#x416;" horiz-adv-x="1908" 
d="M907 0v1520h94v-1520h-94zM1872 4v-4h-127l-741 768v12l733 740h125v-4l-748 -738zM905 768l-741 -768h-125v4l756 772l-748 740v4h125l733 -740v-12z" />
    <glyph glyph-name="uni0417" unicode="&#x417;" horiz-adv-x="1234" 
d="M1106 416q0 -209 -144 -327t-387 -118q-273 0 -466 142l20 96q188 -150 444 -150q202 0 319.5 94t117.5 261q0 327 -471 327h-195v86h186q212 0 327.5 84.5t115.5 241.5q0 145 -96 226t-277 81q-113 0 -224 -34.5t-198 -108.5l-33 84q94 75 214.5 111t246.5 36
q222 0 342.5 -103.5t120.5 -285.5q0 -147 -78.5 -240.5t-222.5 -127.5q338 -61 338 -375z" />
    <glyph glyph-name="uni0418" unicode="&#x418;" horiz-adv-x="1556" 
d="M1235 0v1362l-916 -1362h-92v1520h95v-1362l915 1362h92v-1520h-94z" />
    <glyph glyph-name="uni0419" unicode="&#x419;" horiz-adv-x="1556" 
d="M426 1962l84 6q3 -122 76 -182t192 -60t192.5 60t76.5 182l83 -6q-6 -155 -102 -231t-250 -76t-250 76t-102 231zM1235 0v1362l-916 -1362h-92v1520h95v-1362l915 1362h92v-1520h-94z" />
    <glyph glyph-name="uni041A" unicode="&#x41a;" horiz-adv-x="1308" 
d="M227 1520h95v-740l811 740h127v-4l-824 -736l840 -776v-4h-127l-827 768v-768h-95v1520z" />
    <glyph glyph-name="uni041B" unicode="&#x41b;" horiz-adv-x="1466" 
d="M1145 0v1434h-477q-29 -188 -54.5 -332.5t-55 -289t-59 -250t-64.5 -203t-73 -162.5t-83 -114.5t-97.5 -72t-113.5 -22.5q-38 0 -66 8v86q24 -8 59 -8q54 0 101 30.5t87.5 87.5t78 150t70 206t65 267.5t62 322t61.5 382.5h653v-1520h-94z" />
    <glyph glyph-name="uni041C" unicode="&#x41c;" horiz-adv-x="1916" 
d="M934 0l-619 1419v-1419h-88v1520h144l587 -1358l588 1358h144v-1520h-93v1413l-614 -1413h-49z" />
    <glyph glyph-name="uni041D" unicode="&#x41d;" horiz-adv-x="1521" 
d="M1200 0v764h-878v-764h-95v1520h95v-670h878v670h92v-1520h-92z" />
    <glyph glyph-name="uni041E" unicode="&#x41e;" horiz-adv-x="1581" 
d="M791 -29q-144 0 -265 54.5t-208.5 154.5t-136 249t-48.5 331t48.5 331t136 249t208.5 154t265 54t265 -54t208 -154t135.5 -249t48.5 -331t-48.5 -331t-135.5 -249t-208 -154.5t-265 -54.5zM791 59q259 0 409 188.5t150 512.5q0 323 -150 511.5t-409 188.5t-409.5 -188
t-150.5 -512q0 -323 150.5 -512t409.5 -189z" />
    <glyph glyph-name="uni041F" unicode="&#x41f;" horiz-adv-x="1505" 
d="M1184 0v1434h-862v-1434h-95v1520h1049v-1520h-92z" />
    <glyph glyph-name="uni0420" unicode="&#x420;" 
d="M322 573v-573h-95v1520h439q122 0 219 -27t169 -82.5t111 -147t39 -214.5q0 -108 -31 -192t-82 -136.5t-123.5 -86.5t-148 -47.5t-162.5 -13.5h-335zM659 1434h-337v-777h329q459 0 459 390q0 387 -451 387z" />
    <glyph glyph-name="uni0421" unicode="&#x421;" horiz-adv-x="1415" 
d="M1313 158q-191 -187 -488 -187q-314 0 -503 210.5t-189 578.5q0 371 190.5 579.5t505.5 208.5q282 0 463 -170l-35 -92q-168 174 -428 174q-280 0 -439 -186.5t-159 -513.5q0 -169 44.5 -303t124.5 -220.5t189 -132t240 -45.5q144 0 259.5 52.5t195.5 138.5z" />
    <glyph glyph-name="uni0422" unicode="&#x422;" horiz-adv-x="1175" 
d="M1147 1434h-512v-1434h-94v1434h-512v86h1118v-86z" />
    <glyph glyph-name="uni0423" unicode="&#x423;" horiz-adv-x="1294" 
d="M801 469q-69 -160 -121.5 -255.5t-106.5 -150.5t-104.5 -73.5t-122.5 -18.5q-87 0 -156 29l7 90q62 -33 151 -33q99 0 164.5 66.5t142.5 236.5l-579 1160h100l526 -1065l455 1065h98z" />
    <glyph glyph-name="uni0424" unicode="&#x424;" horiz-adv-x="1695" 
d="M891 168v-205h-88v205q-321 0 -504.5 155t-183.5 441t183.5 441t504.5 155v196h88v-196q321 0 504.5 -155t183.5 -441t-183.5 -441t-504.5 -155zM897 1278h-6v-1028h6q178 0 308 55t205 172t75 287t-75 287t-205 172t-308 55zM797 250h6v1028h-6q-271 0 -428.5 -130
t-157.5 -384t157.5 -384t428.5 -130z" />
    <glyph glyph-name="uni0425" unicode="&#x425;" horiz-adv-x="1298" 
d="M1102 0l-455 698l-454 -698h-107l510 774l-490 746h111l436 -670l432 670h107l-490 -746l510 -774h-110z" />
    <glyph glyph-name="uni0426" unicode="&#x426;" horiz-adv-x="1542" 
d="M1468 86v-520h-88v434h-1153v1520h95v-1434h852v1434h94v-1434h200z" />
    <glyph glyph-name="uni0427" unicode="&#x427;" horiz-adv-x="1380" 
d="M1151 1520v-1520h-94v668q-182 -109 -424 -109q-229 0 -347 110t-118 326v525h94v-508q0 -192 93 -278.5t288 -86.5q123 0 231.5 30t182.5 79v764h94z" />
    <glyph glyph-name="uni0428" unicode="&#x428;" horiz-adv-x="2009" 
d="M1780 1520v-1520h-1553v1520h95v-1434h634v1434h95v-1434h635v1434h94z" />
    <glyph glyph-name="uni0429" unicode="&#x429;" horiz-adv-x="2054" 
d="M1980 86v-520h-88v434h-1665v1520h95v-1434h634v1434h95v-1434h635v1434h94v-1434h200z" />
    <glyph glyph-name="uni042A" unicode="&#x42a;" horiz-adv-x="1529" 
d="M549 1520v-643h350q533 0 533 -435q0 -442 -539 -442h-438v1434h-443v86h537zM889 791h-340v-705h338q80 0 142.5 8.5t121.5 32t98 62t62.5 101.5t23.5 148q0 192 -114.5 272.5t-331.5 80.5z" />
    <glyph glyph-name="uni042B" unicode="&#x42b;" horiz-adv-x="1771" 
d="M322 1520v-643h327q535 0 535 -435q0 -442 -539 -442h-418v1520h95zM1450 0v1520h94v-1520h-94zM641 791h-319v-705h317q80 0 142.5 8.5t121.5 32t98 62t62.5 101.5t23.5 148q0 192 -114.5 272.5t-331.5 80.5z" />
    <glyph glyph-name="uni042C" unicode="&#x42c;" horiz-adv-x="1314" 
d="M322 1520v-643h362q533 0 533 -435q0 -442 -539 -442h-451v1520h95zM674 791h-352v-705h352q80 0 142.5 8.5t121.5 32t98 62t62.5 101.5t23.5 148q0 192 -115.5 272.5t-332.5 80.5z" />
    <glyph glyph-name="uni042D" unicode="&#x42d;" horiz-adv-x="1390" 
d="M1257 772q0 -381 -180.5 -591t-494.5 -210q-141 0 -264 41t-205 115l20 94q79 -76 197.5 -119t251.5 -43q128 0 233.5 44t183 129t120 219.5t42.5 306.5h-801v84h799q-15 292 -157.5 455t-407.5 163q-125 0 -239.5 -37t-194.5 -112l-33 86q83 75 208 113t259 38
q317 0 490 -204t173 -572z" />
    <glyph glyph-name="uni042E" unicode="&#x42e;" horiz-adv-x="2074" 
d="M1939 760q0 -365 -171.5 -577t-450.5 -212q-184 0 -325 93.5t-220.5 273t-79.5 422.5v4h-370v-764h-95v1520h95v-670h372q23 325 192 511.5t431 186.5q279 0 450.5 -211.5t171.5 -576.5zM1317 59q245 0 385.5 188t140.5 513q0 324 -140.5 512t-385.5 188
q-246 0 -387.5 -188t-141.5 -512q0 -323 142 -512t387 -189z" />
    <glyph glyph-name="uni042F" unicode="&#x42f;" horiz-adv-x="1404" 
d="M1083 649h-436l-434 -649h-111l445 662q-154 31 -249 138.5t-95 282.5q0 207 135.5 322t355.5 115h484v-1520h-95v649zM1083 731v703h-383q-189 0 -296 -90t-107 -261q0 -172 106 -262t277 -90h403z" />
    <glyph glyph-name="uni0430" unicode="&#x430;" horiz-adv-x="1134" 
d="M862 0l-2 174q-65 -92 -163 -145.5t-222 -53.5q-155 0 -251.5 84t-96.5 234q0 344 563 344h166v82q0 145 -65 217t-224 72q-205 0 -350 -119l-22 88q66 54 163.5 84.5t212.5 30.5q198 0 287.5 -92.5t89.5 -266.5v-733h-86zM485 59q125 0 222 63.5t149 166.5v270h-162
q-244 0 -359.5 -64.5t-115.5 -201.5q0 -112 72 -173t194 -61z" />
    <glyph glyph-name="uni0431" unicode="&#x431;" horiz-adv-x="1222" 
d="M1108 541q0 -161 -56 -287.5t-171 -202.5t-273 -76q-235 0 -355 171t-120 507v4q0 189 24 333.5t67 241.5t110 162.5t145 99t180 48.5l379 55v-90l-381 -55q-102 -15 -175.5 -54.5t-128.5 -113.5t-86 -189.5t-40 -279.5q165 227 432 227q208 0 328.5 -133t120.5 -368z
M227 635q0 -576 383 -576q194 0 300 136t106 344q0 200 -99 308.5t-270 108.5q-138 0 -245 -71t-175 -187v-63z" />
    <glyph glyph-name="uni0432" unicode="&#x432;" horiz-adv-x="1153" 
d="M1038 291q0 -81 -30.5 -139t-85.5 -90.5t-121 -47t-146 -14.5h-456v1067h456q351 0 351 -264q0 -202 -197 -252q229 -39 229 -260zM645 989h-358v-403h352q272 0 272 209q0 194 -266 194zM287 510v-432h362q64 0 114 10t92.5 33t65.5 66.5t23 105.5q0 217 -289 217h-368z
" />
    <glyph glyph-name="uni0433" unicode="&#x433;" horiz-adv-x="878" 
d="M838 985h-547v-985h-92v1067h639v-82z" />
    <glyph glyph-name="uni0434" unicode="&#x434;" horiz-adv-x="1220" 
d="M8 -434v514h70q110 84 201.5 327t148.5 660h537v-987h192v-514h-86v434h-979v-434h-84zM201 80h671v907h-368q-98 -658 -303 -907z" />
    <glyph glyph-name="uni0435" unicode="&#x435;" horiz-adv-x="1153" 
d="M1016 102q-150 -127 -383 -127q-248 0 -383 145t-135 402q0 260 130 415t357 155q92 0 165.5 -27.5t122 -74t81.5 -111t47 -136t14 -151.5v-53h-825v-21q0 -222 112 -340.5t322 -118.5q207 0 352 131zM602 1010q-162 0 -268.5 -103t-124.5 -293h731v21q0 73 -19 137.5
t-58 119t-106 86.5t-155 32z" />
    <glyph glyph-name="uni0436" unicode="&#x436;" horiz-adv-x="1507" 
d="M707 543l-553 -543h-121v4l567 543l-547 516v4h119l535 -516v-8zM711 0v1067h86v-1067h-86zM1475 4v-4h-121l-553 543v8l536 516h117v-4l-545 -514z" />
    <glyph glyph-name="uni0437" unicode="&#x437;" horiz-adv-x="1038" 
d="M926 295q0 -155 -116.5 -237.5t-313.5 -82.5q-227 0 -387 107l22 88q155 -111 361 -111q161 0 251.5 60t90.5 176q0 102 -80.5 156.5t-261.5 54.5h-207v82h196q151 0 237.5 57t86.5 160q0 94 -74.5 148.5t-218.5 54.5q-205 0 -346 -105l-31 84q155 105 381 105
q184 0 282.5 -74.5t98.5 -206.5q0 -100 -57 -165.5t-164 -92.5q250 -44 250 -258z" />
    <glyph glyph-name="uni0438" unicode="&#x438;" horiz-adv-x="1251" 
d="M963 0v930l-674 -930h-90v1067h90v-932l674 932h92v-1067h-92z" />
    <glyph glyph-name="uni0439" unicode="&#x439;" horiz-adv-x="1251" 
d="M317 1579l80 4q3 -141 65 -208.5t165 -67.5t164.5 67.5t64.5 208.5l80 -4q0 -168 -86 -256t-223 -88t-223.5 88t-86.5 256zM963 0v930l-674 -930h-90v1067h90v-932l674 932h92v-1067h-92z" />
    <glyph glyph-name="uni043A" unicode="&#x43a;" horiz-adv-x="1038" 
d="M199 1067h92v-516l577 516h123v-4l-585 -512l606 -547v-4h-123l-598 543v-543h-92v1067z" />
    <glyph glyph-name="uni043B" unicode="&#x43b;" horiz-adv-x="1183" 
d="M893 0v987h-369q-31 -192 -58 -327.5t-58 -253.5t-63.5 -192t-74 -127.5t-89.5 -76t-109 -22.5q-32 0 -60 8v84q24 -8 51 -8q54 0 97 31.5t80.5 99.5t72 187.5t67 281t69.5 395.5h536v-1067h-92z" />
    <glyph glyph-name="uni043C" unicode="&#x43c;" horiz-adv-x="1478" 
d="M711 0l-428 977v-977h-84v1067h137l403 -928l402 928h139v-1067h-88v977l-428 -977h-53z" />
    <glyph glyph-name="uni043D" unicode="&#x43d;" horiz-adv-x="1234" 
d="M946 0v520h-655v-520h-92v1067h92v-467h655v467h92v-1067h-92z" />
    <glyph glyph-name="uni043E" unicode="&#x43e;" horiz-adv-x="1210" 
d="M606 -25q-215 0 -353 150.5t-138 406.5q0 257 138 408.5t353 151.5q216 0 354 -151.5t138 -408.5q0 -256 -138 -406.5t-354 -150.5zM606 59q183 0 290.5 128.5t107.5 344.5q0 217 -107.5 346.5t-290.5 129.5t-291 -129.5t-108 -346.5q0 -216 108 -344.5t291 -128.5z" />
    <glyph glyph-name="uni043F" unicode="&#x43f;" horiz-adv-x="1214" 
d="M926 0v987h-635v-987h-92v1067h819v-1067h-92z" />
    <glyph glyph-name="uni0440" unicode="&#x440;" horiz-adv-x="1259" 
d="M639 -25q-212 0 -348 146v-576h-92v1522h84l4 -195q64 97 166 158.5t233 61.5q203 0 331 -146t128 -397q0 -264 -141 -419t-365 -155zM291 762v-539q133 -164 342 -164q185 0 301.5 128.5t116.5 357.5q0 216 -104 338.5t-271 122.5q-127 0 -228 -68.5t-157 -175.5z" />
    <glyph glyph-name="uni0441" unicode="&#x441;" horiz-adv-x="1058" 
d="M969 102q-137 -127 -346 -127q-233 0 -370.5 146.5t-137.5 406.5q0 262 138.5 413t373.5 151q196 0 329 -123l-30 -86q-122 125 -301 125q-197 0 -307.5 -128.5t-110.5 -347.5q0 -220 110.5 -346.5t309.5 -126.5q187 0 319 129z" />
    <glyph glyph-name="uni0442" unicode="&#x442;" horiz-adv-x="946" 
d="M905 987h-385v-987h-92v987h-387v80h864v-80z" />
    <glyph glyph-name="uni0443" unicode="&#x443;" horiz-adv-x="1054" 
d="M580 2q-59 -151 -107 -245.5t-95 -144t-89 -66.5t-99 -17q-66 0 -122 25l8 90q56 -29 117 -29q53 0 92.5 28.5t88 112.5t113.5 246l-413 1065h100l361 -963l360 963h98z" />
    <glyph glyph-name="uni0444" unicode="&#x444;" horiz-adv-x="1503" 
d="M106 532q0 261 163.5 406t439.5 145v500h84v-500q278 0 441 -144.5t163 -406.5q0 -261 -163 -404.5t-441 -143.5v-439h-84v439q-277 0 -440 143.5t-163 404.5zM709 63v938h-11q-232 0 -365.5 -123t-133.5 -346q0 -222 134 -345.5t365 -123.5h11zM805 1001h-12v-938h12
q231 0 364.5 123.5t133.5 345.5q0 223 -133.5 346t-364.5 123z" />
    <glyph glyph-name="uni0445" unicode="&#x445;" horiz-adv-x="1034" 
d="M846 0l-332 469l-330 -469h-102v4l381 537l-373 522v4h107l323 -461l318 461h102v-4l-373 -522l385 -537v-4h-106z" />
    <glyph glyph-name="uni0446" unicode="&#x446;" horiz-adv-x="1273" 
d="M1210 80v-514h-86v434h-925v1067h92v-987h635v987h92v-987h192z" />
    <glyph glyph-name="uni0447" unicode="&#x447;" horiz-adv-x="1130" 
d="M934 1067v-1067h-92v451q-64 -34 -153.5 -55t-180.5 -21q-178 0 -270.5 87.5t-92.5 252.5v352h93v-336q0 -142 69 -207t217 -65q91 0 178 20.5t140 52.5v535h92z" />
    <glyph glyph-name="uni0448" unicode="&#x448;" horiz-adv-x="1755" 
d="M1559 1067v-1067h-1360v1067h92v-987h540v987h93v-987h542v987h93z" />
    <glyph glyph-name="uni0449" unicode="&#x449;" horiz-adv-x="1812" 
d="M1749 80v-514h-84v434h-1466v1067h92v-987h540v987h93v-987h542v987h93v-987h190z" />
    <glyph glyph-name="uni044A" unicode="&#x44a;" horiz-adv-x="1265" 
d="M489 1067v-432h308q198 0 295.5 -81.5t97.5 -234.5q0 -90 -32 -154t-89 -99t-125 -50.5t-151 -15.5h-396v987h-356v80h448zM784 557h-295v-479h289q70 0 124 11t99.5 37t70 74.5t24.5 118.5q0 122 -77.5 180t-234.5 58z" />
    <glyph glyph-name="uni044B" unicode="&#x44b;" horiz-adv-x="1482" 
d="M291 1067v-432h280q198 0 296 -81.5t98 -234.5q0 -90 -32 -154t-89.5 -99t-125.5 -50.5t-151 -15.5h-368v1067h92zM1194 0v1067h92v-1067h-92zM559 557h-268v-479h262q70 0 123.5 11t99 37t70 74.5t24.5 118.5q0 122 -77 180t-234 58z" />
    <glyph glyph-name="uni044C" unicode="&#x44c;" horiz-adv-x="1083" 
d="M291 1067v-432h321q199 0 296.5 -81t97.5 -235q0 -90 -31.5 -154t-89 -99t-125 -50.5t-150.5 -15.5h-411v1067h92zM602 557h-311v-479h305q69 0 123 11t99.5 37t70 74.5t24.5 118.5q0 122 -77 180t-234 58z" />
    <glyph glyph-name="uni044D" unicode="&#x44d;" horiz-adv-x="1075" 
d="M961 541q0 -270 -132.5 -418t-369.5 -148q-104 0 -197.5 29t-155.5 80l23 86q58 -50 144.5 -80.5t183.5 -30.5q185 0 295 114.5t116 342.5h-573v82h571q-12 194 -111 302t-284 108q-94 0 -181 -27.5t-138 -77.5l-33 84q54 48 153 76.5t203 28.5q233 0 359.5 -145
t126.5 -406z" />
    <glyph glyph-name="uni044E" unicode="&#x44e;" horiz-adv-x="1660" 
d="M1546 532q0 -256 -133 -406.5t-342 -150.5q-207 0 -341 149t-134 398h-305v-522h-92v1067h92v-467h307q12 151 77 263.5t167.5 170.5t228.5 58q209 0 342 -151.5t133 -408.5zM1071 59q176 0 279.5 128.5t103.5 344.5q0 218 -103.5 347t-279.5 129t-278.5 -129
t-102.5 -347q0 -216 102.5 -344.5t278.5 -128.5z" />
    <glyph glyph-name="uni044F" unicode="&#x44f;" horiz-adv-x="1153" 
d="M866 444h-354l-305 -444h-109v4l320 451q-111 23 -178.5 98.5t-67.5 200.5q0 148 96.5 230.5t251.5 82.5h434v-1067h-88v444zM866 522v467h-336q-127 0 -196.5 -58.5t-69.5 -176.5q0 -115 70 -173.5t201 -58.5h331z" />
    <glyph glyph-name="uni0450" unicode="&#x450;" horiz-adv-x="1153" 
d="M651 1212l-289 396l87 47l258 -412zM1016 102q-150 -127 -383 -127q-248 0 -383 145t-135 402q0 260 130 415t357 155q92 0 165.5 -27.5t122 -74t81.5 -111t47 -136t14 -151.5v-53h-825v-21q0 -222 112 -340.5t322 -118.5q207 0 352 131zM602 1010q-162 0 -268.5 -103
t-124.5 -293h731v21q0 73 -19 137.5t-58 119t-106 86.5t-155 32z" />
    <glyph glyph-name="uni0451" unicode="&#x451;" horiz-adv-x="1153" 
d="M735 1327v146h119v-146h-119zM338 1327v146h119v-146h-119zM1016 102q-150 -127 -383 -127q-248 0 -383 145t-135 402q0 260 130 415t357 155q92 0 165.5 -27.5t122 -74t81.5 -111t47 -136t14 -151.5v-53h-825v-21q0 -222 112 -340.5t322 -118.5q207 0 352 131zM602 1010
q-162 0 -268.5 -103t-124.5 -293h731v21q0 73 -19 137.5t-58 119t-106 86.5t-155 32z" />
    <glyph glyph-name="uni0452" unicode="&#x452;" horiz-adv-x="1208" 
d="M727 -387q105 0 160 62.5t55 213.5v717q0 157 -72 235.5t-200 78.5q-124 0 -224 -70.5t-155 -183.5v-666h-92v1272h-179v74h179v247h92v-247h381v-74h-381v-486q65 97 163 158.5t230 61.5q161 0 255.5 -99.5t94.5 -283.5v-723q0 -197 -80 -284t-225 -87q-90 0 -151 25
l10 86q56 -27 139 -27z" />
    <glyph glyph-name="uni0453" unicode="&#x453;" horiz-adv-x="878" 
d="M455 1212l-56 31l258 412l86 -47zM838 985h-547v-985h-92v1067h639v-82z" />
    <glyph glyph-name="uni0454" unicode="&#x454;" horiz-adv-x="1075" 
d="M969 84q-140 -109 -351 -109q-238 0 -370.5 146t-132.5 414t133 412.5t377 144.5q206 0 336 -107l-33 -84q-123 107 -310 107q-186 0 -290.5 -106t-118.5 -304h571v-82h-573q4 -222 113 -339.5t303 -117.5q186 0 323 111z" />
    <glyph glyph-name="uni0455" unicode="&#x455;" horiz-adv-x="962" 
d="M113 92l24 90q150 -123 348 -123q135 0 205 54.5t70 154.5q0 28 -6.5 51t-16 40.5t-30 33.5t-38.5 27t-52.5 25t-60.5 23t-73 24q-53 18 -84.5 29t-73.5 29t-66 33t-51 38t-40.5 47.5t-23 57t-9.5 71.5q0 136 96.5 215.5t262.5 79.5q178 0 309 -95l-25 -90
q-128 101 -289 101q-126 0 -195 -56.5t-69 -148.5q0 -28 7.5 -51.5t17.5 -41t34 -34.5t41.5 -28t56 -25.5t62 -23t74.5 -24.5q72 -24 113 -39.5t89 -41.5t72.5 -54.5t41 -70.5t16.5 -97q0 -145 -99.5 -221t-273.5 -76q-210 0 -364 117z" />
    <glyph glyph-name="uni0456" unicode="&#x456;" horiz-adv-x="495" 
d="M186 1327v146h123v-146h-123zM203 0v1067h92v-1067h-92z" />
    <glyph glyph-name="uni0457" unicode="&#x457;" horiz-adv-x="497" 
d="M342 1327v146h121v-146h-121zM35 1327v146h121v-146h-121zM203 0v1067h92v-1067h-92z" />
    <glyph glyph-name="uni0458" unicode="&#x458;" horiz-adv-x="516" 
d="M211 1327v146h121v-146h-121zM-137 -449l10 91q58 -27 139 -27q104 0 158.5 65t54.5 218v1169h92v-1165q0 -198 -80.5 -285.5t-228.5 -87.5q-91 0 -145 22z" />
    <glyph glyph-name="uni0459" unicode="&#x459;" horiz-adv-x="1722" 
d="M969 1067v-451h293q385 0 385 -307q0 -87 -31 -149t-86.5 -96t-121.5 -49t-148 -15h-383v987h-353q-31 -192 -58 -327.5t-58 -253.5t-63.5 -192t-74 -127.5t-89.5 -76t-109 -22.5q-32 0 -60 8v84q24 -8 51 -8q54 0 97 31.5t80.5 99.5t72 187.5t67 281t69.5 395.5h520z
M1251 539h-282v-461h276q307 0 307 233q0 116 -74.5 172t-226.5 56z" />
    <glyph glyph-name="uni045A" unicode="&#x45a;" horiz-adv-x="1771" 
d="M1018 1067v-451h295q383 0 383 -307q0 -87 -31 -149t-86.5 -96t-121.5 -49t-148 -15h-383v539h-635v-539h-92v1067h92v-451h635v451h92zM1300 539h-282v-461h276q310 0 310 233q0 228 -304 228z" />
    <glyph glyph-name="uni045B" unicode="&#x45b;" horiz-adv-x="1208" 
d="M291 666v-666h-92v1272h-179v74h179v247h92v-247h381v-74h-381v-486q65 97 163 158.5t230 61.5q161 0 255.5 -99.5t94.5 -283.5v-623h-92v606q0 157 -72 235.5t-200 78.5q-124 0 -224 -70.5t-155 -183.5z" />
    <glyph glyph-name="uni045C" unicode="&#x45c;" horiz-adv-x="1038" 
d="M469 1212l-55 31l258 412l86 -47zM199 1067h92v-516l577 516h123v-4l-585 -512l606 -547v-4h-123l-598 543v-543h-92v1067z" />
    <glyph glyph-name="uni045D" unicode="&#x45d;" horiz-adv-x="1251" 
d="M686 1212l-289 396l86 47l258 -412zM963 0v930l-674 -930h-90v1067h90v-932l674 932h92v-1067h-92z" />
    <glyph glyph-name="uni045E" unicode="&#x45e;" horiz-adv-x="1054" 
d="M219 1579l80 4q3 -141 64.5 -208.5t164.5 -67.5t165 67.5t65 208.5l80 -4q0 -168 -86.5 -256t-223.5 -88t-223 88t-86 256zM580 2q-59 -151 -107 -245.5t-95 -144t-89 -66.5t-99 -17q-66 0 -122 25l8 90q56 -29 117 -29q53 0 92.5 28.5t88 112.5t113.5 246l-413 1065h100
l361 -963l360 963h98z" />
    <glyph glyph-name="uni045F" unicode="&#x45f;" horiz-adv-x="1218" 
d="M1020 0h-369v-455h-86v455h-366v1067h92v-987h637v987h92v-1067z" />
    <glyph glyph-name="uni0462" unicode="&#x462;" horiz-adv-x="1417" 
d="M967 1186h-521v-346h349q516 0 516 -416q0 -424 -520 -424h-439v1186h-332v82h332v325h94v-325h521v-82zM786 756h-340v-670h338q76 0 136.5 8t117 30.5t94 59t60 96.5t22.5 140q0 95 -29.5 161t-87.5 104t-133.5 54.5t-177.5 16.5z" />
    <glyph glyph-name="uni0463" unicode="&#x463;" horiz-adv-x="1124" 
d="M723 989h-377v-358h305q393 0 393 -316q0 -88 -31.5 -151.5t-88.5 -98t-124.5 -50t-150.5 -15.5h-395v989h-221v78h221v453h92v-453h377v-78zM641 553h-295v-475h289q315 0 315 239q0 120 -76.5 178t-232.5 58z" />
    <glyph glyph-name="uni0472" unicode="&#x472;" horiz-adv-x="1581" 
d="M791 -29q-144 0 -265 54.5t-208.5 154.5t-136 249t-48.5 331t48.5 331t136 249t208.5 154t265 54t265 -54t208 -154t135.5 -249t48.5 -331t-48.5 -331t-135.5 -249t-208 -154.5t-265 -54.5zM791 1460q-250 0 -399 -173t-161 -472h1119q-12 298 -161 471.5t-398 173.5z
M791 59q254 0 403.5 180t157.5 490h-1123q8 -309 158 -489.5t404 -180.5z" />
    <glyph glyph-name="uni0473" unicode="&#x473;" horiz-adv-x="1210" 
d="M606 -25q-215 0 -353 150.5t-138 406.5q0 257 138 408.5t353 151.5q216 0 354 -151.5t138 -408.5q0 -256 -138 -406.5t-354 -150.5zM606 1008q-172 0 -279.5 -114.5t-121.5 -309.5h801q-12 194 -119.5 309t-280.5 115zM606 59q177 0 285.5 122.5t116.5 326.5h-805
q8 -204 117 -326.5t286 -122.5z" />
    <glyph glyph-name="uni0474" unicode="&#x474;" horiz-adv-x="1501" 
d="M1120 1085l-385 -1085h-100l-559 1520h98l512 -1403l338 970q50 146 94 237t90.5 140.5t92 66.5t108.5 17q97 0 156 -41l-17 -88q-60 43 -137 43q-65 0 -108.5 -30.5t-85 -109.5t-97.5 -237z" />
    <glyph glyph-name="uni0475" unicode="&#x475;" horiz-adv-x="1105" 
d="M844 778l-283 -778h-84l-414 1067h101l354 -950l236 661q65 186 122.5 250t155.5 64q64 0 105 -27l-11 -82q-41 27 -92 27q-64 0 -101.5 -47.5t-88.5 -184.5z" />
    <glyph glyph-name="uni0490" unicode="&#x490;" horiz-adv-x="1110" 
d="M1081 1434h-759v-1434h-95v1520h766l4 376h84v-462z" />
    <glyph glyph-name="uni0491" unicode="&#x491;" horiz-adv-x="878" 
d="M838 985h-547v-985h-92v1067h555l4 377h80v-459z" />
    <glyph glyph-name="uni0492" unicode="&#x492;" horiz-adv-x="1130" 
d="M801 764h-459v-764h-94v764h-185v82h185v674h854v-86h-760v-588h459v-82z" />
    <glyph glyph-name="uni0493" unicode="&#x493;" horiz-adv-x="899" 
d="M655 508h-342v-508h-92v508h-158v74h158v485h639v-82h-547v-403h342v-74z" />
    <glyph glyph-name="uni0496" unicode="&#x496;" horiz-adv-x="1990" 
d="M907 0v1520h94v-1520h-94zM1939 86v-520h-88v434h-106l-741 768v12l733 740h125v-4l-748 -738l678 -692h147zM905 768l-741 -768h-125v4l756 772l-748 740v4h125l733 -740v-12z" />
    <glyph glyph-name="uni0497" unicode="&#x497;" horiz-adv-x="1576" 
d="M707 543l-553 -543h-121v4l567 543l-547 516v4h119l535 -516v-8zM711 0v1067h86v-1067h-86zM1542 80v-514h-84v434h-104l-553 543v8l536 516h117v-4l-545 -514l488 -469h145z" />
    <glyph glyph-name="uni0498" unicode="&#x498;" horiz-adv-x="1234" 
d="M801 -260q0 -103 -62.5 -159t-160.5 -56q-87 0 -150 29l21 81q22 -14 60 -23t69 -9q66 0 103.5 39.5t37.5 105.5q0 120 -123 223h-21q-273 0 -466 142l20 96q188 -150 444 -150q202 0 319.5 94t117.5 261q0 327 -471 327h-195v86h186q212 0 327.5 84.5t115.5 241.5
q0 145 -96 226t-277 81q-113 0 -224 -34.5t-198 -108.5l-33 84q94 75 214.5 111t246.5 36q222 0 342.5 -103.5t120.5 -285.5q0 -147 -78.5 -240.5t-222.5 -127.5q338 -61 338 -375q0 -185 -113 -299.5t-309 -139.5q117 -114 117 -237z" />
    <glyph glyph-name="uni0499" unicode="&#x499;" horiz-adv-x="1038" 
d="M694 -260q0 -103 -62.5 -159t-160.5 -56q-86 0 -149 29l20 81q22 -14 60 -23t69 -9q66 0 103.5 39.5t37.5 105.5q0 121 -127 227q-219 3 -376 107l22 88q155 -111 361 -111q161 0 251.5 60t90.5 176q0 102 -80.5 156.5t-261.5 54.5h-207v82h196q151 0 237.5 57t86.5 160
q0 94 -74.5 148.5t-218.5 54.5q-205 0 -346 -105l-31 84q155 105 381 105q184 0 282.5 -74.5t98.5 -206.5q0 -100 -57 -165.5t-164 -92.5q250 -44 250 -258q0 -138 -94 -219t-257 -96q119 -116 119 -240z" />
    <glyph glyph-name="uni049A" unicode="&#x49a;" horiz-adv-x="1394" 
d="M227 1520h95v-740l811 740h127v-4l-824 -736l752 -694h153v-520h-88v434h-104l-827 768v-768h-95v1520z" />
    <glyph glyph-name="uni049B" unicode="&#x49b;" horiz-adv-x="1110" 
d="M199 1067h92v-516l577 516h123v-4l-585 -512l522 -471h145v-514h-84v434h-100l-598 543v-543h-92v1067z" />
    <glyph glyph-name="uni04A0" unicode="&#x4a0;" horiz-adv-x="1536" 
d="M555 1520l-6 -9v-731l811 740h127v-4l-823 -736l839 -776v-4h-127l-827 768v-768h-94v1434h-443v86h543z" />
    <glyph glyph-name="uni04A1" unicode="&#x4a1;" horiz-adv-x="1239" 
d="M41 1067h448v-516l578 516h123v-4l-586 -512l606 -547v-4h-123l-598 543v-543h-92v987h-356v80z" />
    <glyph glyph-name="uni04A2" unicode="&#x4a2;" horiz-adv-x="1566" 
d="M1405 -434v434h-205v764h-878v-764h-95v1520h95v-670h878v670h92v-1434h201v-520h-88z" />
    <glyph glyph-name="uni04A3" unicode="&#x4a3;" horiz-adv-x="1294" 
d="M1145 -434v434h-199v520h-655v-520h-92v1067h92v-467h655v467h92v-987h193v-514h-86z" />
    <glyph glyph-name="uni04AA" unicode="&#x4aa;" horiz-adv-x="1415" 
d="M981 -260q0 -103 -62.5 -159t-160.5 -56q-87 0 -150 29l21 81q22 -14 60 -23t69 -9q66 0 103.5 39.5t37.5 105.5q0 117 -123 225q-293 18 -468 226t-175 561q0 371 190.5 579.5t505.5 208.5q282 0 463 -170l-35 -92q-168 174 -428 174q-280 0 -439 -186.5t-159 -513.5
q0 -169 44.5 -303t124.5 -220.5t189 -132t240 -45.5q144 0 259.5 52.5t195.5 138.5l29 -92q-174 -174 -445 -185q113 -113 113 -233z" />
    <glyph glyph-name="uni04AB" unicode="&#x4ab;" horiz-adv-x="1058" 
d="M754 -260q0 -103 -63 -159t-161 -56q-86 0 -149 29l20 81q22 -14 60 -23t69 -9q66 0 104 39.5t38 105.5q0 125 -133 234q-197 25 -310.5 168t-113.5 378q0 262 138.5 413t373.5 151q196 0 329 -123l-30 -86q-122 125 -301 125q-197 0 -307.5 -128.5t-110.5 -347.5
q0 -220 110.5 -346.5t309.5 -126.5q187 0 319 129l23 -86q-130 -122 -330 -127q115 -112 115 -235z" />
    <glyph glyph-name="uni04AE" unicode="&#x4ae;" horiz-adv-x="1228" 
d="M1182 1520l-520 -920v-600h-95v594l-520 926h105l462 -834l465 834h103z" />
    <glyph glyph-name="uni04AF" unicode="&#x4af;" horiz-adv-x="1056" 
d="M991 1067l-416 -1018v-504h-92v504l-415 1018h100l362 -917l363 917h98z" />
    <glyph glyph-name="uni04B0" unicode="&#x4b0;" horiz-adv-x="1228" 
d="M981 438h-319v-438h-95v438h-319v82h319v74l-520 926h105l462 -834l465 834h103l-520 -920v-80h319v-82z" />
    <glyph glyph-name="uni04B1" unicode="&#x4b1;" horiz-adv-x="1056" 
d="M856 -145h-281v-310h-92v310h-280v73h280v121l-415 1018h100l362 -917l363 917h98l-416 -1018v-121h281v-73z" />
    <glyph glyph-name="uni04B2" unicode="&#x4b2;" horiz-adv-x="1349" 
d="M1296 86v-520h-88v434h-106l-455 698l-454 -698h-107l510 774l-490 746h111l436 -670l432 670h107l-490 -746l453 -688h141z" />
    <glyph glyph-name="uni04B3" unicode="&#x4b3;" horiz-adv-x="1067" 
d="M1032 80v-514h-86v434h-100l-332 469l-330 -469h-102v4l381 537l-373 522v4h107l323 -461l318 461h102v-4l-373 -522l330 -461h135z" />
    <glyph glyph-name="uni04B6" unicode="&#x4b6;" horiz-adv-x="1425" 
d="M1264 -434v434h-207v668q-182 -109 -424 -109q-229 0 -347 110t-118 326v525h94v-508q0 -192 93 -278.5t288 -86.5q123 0 231.5 30t182.5 79v764h94v-1434h201v-520h-88z" />
    <glyph glyph-name="uni04B7" unicode="&#x4b7;" horiz-adv-x="1189" 
d="M1040 -434v434h-198v451q-64 -34 -153.5 -55t-180.5 -21q-178 0 -270.5 87.5t-92.5 252.5v352h93v-336q0 -142 69 -207t217 -65q91 0 178 20.5t140 52.5v535h92v-987h190v-514h-84z" />
    <glyph glyph-name="uni04BA" unicode="&#x4ba;" horiz-adv-x="1380" 
d="M322 764v-764h-95v1520h95v-668q188 109 434 109q454 0 454 -437v-524h-92v508q0 193 -90 278.5t-285 85.5q-123 0 -235 -29.5t-186 -78.5z" />
    <glyph glyph-name="uni04BB" unicode="&#x4bb;" horiz-adv-x="1212" 
d="M291 752v-752h-92v1593h92v-719q147 218 387 218q160 0 253 -99.5t93 -283.5v-709h-92v692q0 157 -70.5 235.5t-197.5 78.5q-123 0 -221 -70.5t-152 -183.5z" />
    <glyph glyph-name="uni04C0" unicode="&#x4c0;" horiz-adv-x="550" 
d="M227 0v1520h95v-1520h-95z" />
    <glyph glyph-name="uni04C1" unicode="&#x4c1;" horiz-adv-x="1908" 
d="M602 1962l84 6q3 -122 76 -182t192 -60t192.5 60t76.5 182l84 -6q-6 -155 -102.5 -231t-250.5 -76t-250 76t-102 231zM907 0v1520h94v-1520h-94zM1872 4v-4h-127l-741 768v12l733 740h125v-4l-748 -738zM905 768l-741 -768h-125v4l756 772l-748 740v4h125l733 -740v-12z
" />
    <glyph glyph-name="uni04C2" unicode="&#x4c2;" horiz-adv-x="1507" 
d="M444 1579l80 4q3 -141 65 -208.5t165 -67.5t164.5 67.5t64.5 208.5l80 -4q0 -168 -86 -256t-223 -88t-223.5 88t-86.5 256zM707 543l-553 -543h-121v4l567 543l-547 516v4h119l535 -516v-8zM711 0v1067h86v-1067h-86zM1475 4v-4h-121l-553 543v8l536 516h117v-4
l-545 -514z" />
    <glyph glyph-name="uni04CF" unicode="&#x4cf;" horiz-adv-x="503" 
d="M207 0v1092h92v-1092h-92z" />
    <glyph glyph-name="uni04D0" unicode="&#x4d0;" horiz-adv-x="1386" 
d="M342 1962l84 6q3 -122 76 -182t192 -60t192.5 60t76.5 182l84 -6q-6 -155 -102.5 -231t-250.5 -76t-250 76t-102 231zM1223 0l-183 481h-696l-180 -481h-98l577 1520h100l578 -1520h-98zM377 567h631l-316 838z" />
    <glyph glyph-name="uni04D1" unicode="&#x4d1;" horiz-adv-x="1134" 
d="M264 1579l80 4q3 -141 64.5 -208.5t164.5 -67.5t165 67.5t65 208.5l80 -4q0 -168 -86.5 -256t-223.5 -88t-223 88t-86 256zM862 0l-2 174q-65 -92 -163 -145.5t-222 -53.5q-155 0 -251.5 84t-96.5 234q0 344 563 344h166v82q0 145 -65 217t-224 72q-205 0 -350 -119
l-22 88q66 54 163.5 84.5t212.5 30.5q198 0 287.5 -92.5t89.5 -266.5v-733h-86zM485 59q125 0 222 63.5t149 166.5v270h-162q-244 0 -359.5 -64.5t-115.5 -201.5q0 -112 72 -173t194 -61z" />
    <glyph glyph-name="uni04D4" unicode="&#x4d4;" horiz-adv-x="1976" 
d="M963 0v526h-605l-305 -526h-102l885 1520h993v-86h-772v-584h690v-86h-690v-678h788v-86h-882zM963 1436h-78l-477 -826h555v826z" />
    <glyph glyph-name="uni04D5" unicode="&#x4d5;" horiz-adv-x="1880" 
d="M1741 102q-150 -127 -377 -127q-163 0 -277.5 68t-171.5 197q-66 -125 -176 -195t-262 -70q-163 0 -257.5 83t-94.5 227q0 167 137 250t426 83h168v101q0 145 -66 217t-225 72q-201 0 -350 -119l-22 88q66 54 164.5 84.5t211.5 30.5q163 0 248.5 -66t108.5 -192
q56 125 160.5 191.5t248.5 66.5q112 0 195.5 -40.5t132 -111.5t71.5 -157t23 -187v-53h-813v-25q0 -221 110.5 -340t317.5 -119q204 0 346 131zM1331 1010q-157 0 -261.5 -103t-121.5 -289h719v17q0 73 -19 137.5t-57.5 119t-105.5 86.5t-154 32zM483 59q139 0 241.5 73
t152.5 204q-21 96 -21 194v13h-162q-250 0 -362.5 -63t-112.5 -195q0 -107 68 -166.5t196 -59.5z" />
    <glyph glyph-name="uni04D6" unicode="&#x4d6;" horiz-adv-x="1261" 
d="M315 1962l84 6q3 -122 76.5 -182t192.5 -60t192 60t76 182l84 -6q-6 -155 -102 -231t-250 -76t-250.5 76t-102.5 231zM1130 86v-86h-903v1520h887v-86h-792v-584h710v-86h-710v-678h808z" />
    <glyph glyph-name="uni04D7" unicode="&#x4d7;" horiz-adv-x="1153" 
d="M287 1579l80 4q3 -141 64.5 -208.5t164.5 -67.5t164.5 67.5t64.5 208.5l80 -4q0 -168 -86 -256t-223 -88t-223 88t-86 256zM1016 102q-150 -127 -383 -127q-248 0 -383 145t-135 402q0 260 130 415t357 155q92 0 165.5 -27.5t122 -74t81.5 -111t47 -136t14 -151.5v-53
h-825v-21q0 -222 112 -340.5t322 -118.5q207 0 352 131zM602 1010q-162 0 -268.5 -103t-124.5 -293h731v21q0 73 -19 137.5t-58 119t-106 86.5t-155 32z" />
    <glyph glyph-name="uni04D8" unicode="&#x4d8;" horiz-adv-x="1501" 
d="M1368 766q0 -378 -163.5 -586.5t-467.5 -208.5q-122 0 -222 35.5t-168 97t-114.5 147.5t-68 184t-21.5 208q0 54 7 133h1122v4q0 328 -138 504t-425 176q-154 0 -281.5 -48.5t-212.5 -127.5l-35 88q91 77 229 126.5t304 49.5t292 -54.5t205 -158t118.5 -246t39.5 -323.5z
M731 59q249 0 389 167.5t152 463.5h-1032v-61q0 -122 29 -224t87.5 -180t154 -122t220.5 -44z" />
    <glyph glyph-name="uni04D9" unicode="&#x4d9;" horiz-adv-x="1161" 
d="M1049 539q0 -265 -123 -414.5t-351 -149.5q-92 0 -167 25.5t-126 69t-85.5 104.5t-50 130.5t-15.5 148.5q0 44 4 94h823q-3 461 -405 461q-214 0 -369 -119l-22 88q69 50 171 82.5t222 32.5q248 0 371 -145.5t123 -407.5zM571 57q173 0 273.5 110t111.5 304h-735v-33
q0 -169 88 -275t262 -106z" />
    <glyph glyph-name="uni04E2" unicode="&#x4e2;" horiz-adv-x="1556" 
d="M438 1765v80h680v-80h-680zM1235 0v1362l-916 -1362h-92v1520h95v-1362l915 1362h92v-1520h-94z" />
    <glyph glyph-name="uni04E3" unicode="&#x4e3;" horiz-adv-x="1251" 
d="M319 1362v80h615v-80h-615zM963 0v930l-674 -930h-90v1067h90v-932l674 932h92v-1067h-92z" />
    <glyph glyph-name="uni04E6" unicode="&#x4e6;" horiz-adv-x="1581" 
d="M930 1733v145h119v-145h-119zM532 1733v145h119v-145h-119zM791 -29q-144 0 -265 54.5t-208.5 154.5t-136 249t-48.5 331t48.5 331t136 249t208.5 154t265 54t265 -54t208 -154t135.5 -249t48.5 -331t-48.5 -331t-135.5 -249t-208 -154.5t-265 -54.5zM791 59
q259 0 409 188.5t150 512.5q0 323 -150 511.5t-409 188.5t-409.5 -188t-150.5 -512q0 -323 150.5 -512t409.5 -189z" />
    <glyph glyph-name="uni04E7" unicode="&#x4e7;" horiz-adv-x="1210" 
d="M745 1327v146h119v-146h-119zM348 1327v146h119v-146h-119zM606 -25q-215 0 -353 150.5t-138 406.5q0 257 138 408.5t353 151.5q216 0 354 -151.5t138 -408.5q0 -256 -138 -406.5t-354 -150.5zM606 59q183 0 290.5 128.5t107.5 344.5q0 217 -107.5 346.5t-290.5 129.5
t-291 -129.5t-108 -346.5q0 -216 108 -344.5t291 -128.5z" />
    <glyph glyph-name="uni04E8" unicode="&#x4e8;" horiz-adv-x="1581" 
d="M791 -29q-144 0 -265 54.5t-208.5 154.5t-136 249t-48.5 331t48.5 331t136 249t208.5 154t265 54t265 -54t208 -154t135.5 -249t48.5 -331t-48.5 -331t-135.5 -249t-208 -154.5t-265 -54.5zM791 1460q-250 0 -399 -173t-161 -472h1119q-12 298 -161 471.5t-398 173.5z
M791 59q254 0 403.5 180t157.5 490h-1123q8 -309 158 -489.5t404 -180.5z" />
    <glyph glyph-name="uni04E9" unicode="&#x4e9;" horiz-adv-x="1210" 
d="M606 -25q-215 0 -353 150.5t-138 406.5q0 257 138 408.5t353 151.5q216 0 354 -151.5t138 -408.5q0 -256 -138 -406.5t-354 -150.5zM606 1008q-172 0 -279.5 -114.5t-121.5 -309.5h801q-12 194 -119.5 309t-280.5 115zM606 59q177 0 285.5 122.5t116.5 326.5h-805
q8 -204 117 -326.5t286 -122.5z" />
    <glyph glyph-name="uni04EE" unicode="&#x4ee;" horiz-adv-x="1294" 
d="M326 1765v80h680v-80h-680zM801 469q-90 -210 -159.5 -316.5t-134.5 -144t-161 -37.5q-87 0 -156 29l7 90q62 -33 151 -33q99 0 165 66t142 237l-579 1160h100l526 -1065l455 1065h98z" />
    <glyph glyph-name="uni04EF" unicode="&#x4ef;" horiz-adv-x="1054" 
d="M221 1362v80h615v-80h-615zM580 2q-59 -151 -107 -245.5t-95 -144t-89 -66.5t-99 -17q-66 0 -122 25l8 90q56 -29 117 -29q53 0 92.5 28.5t88 112.5t113.5 246l-413 1065h100l361 -963l360 963h98z" />
    <glyph glyph-name="uni04F2" unicode="&#x4f2;" horiz-adv-x="1294" 
d="M479 1640l-51 33l289 322l78 -53zM856 1640l-51 33l291 322l78 -53zM801 469q-90 -210 -159.5 -316.5t-134.5 -144t-161 -37.5q-87 0 -156 29l7 90q62 -33 151 -33q99 0 164.5 66.5t142.5 236.5l-579 1160h100l526 -1065l455 1065h98z" />
    <glyph glyph-name="uni04F3" unicode="&#x4f3;" horiz-adv-x="1054" 
d="M350 1214l-53 31l252 410l82 -45zM684 1214l-55 31l254 410l82 -45zM580 2q-59 -151 -107 -245.5t-95 -144t-89 -66.5t-99 -17q-66 0 -122 25l8 90q56 -29 117 -29q53 0 92.5 28.5t88 112.5t113.5 246l-413 1065h100l361 -963l360 963h98z" />
    <glyph glyph-name="uni0E3F" unicode="&#xe3f;" horiz-adv-x="1396" 
d="M653 -201v201h-411v1520h411v196h74v-196q248 -1 360.5 -96t112.5 -283q0 -289 -266 -350q317 -63 317 -385q0 -114 -39.5 -195.5t-112.5 -126t-163 -64.5t-205 -20h-4v-201h-74zM334 821h319v615h-319v-615zM1106 1137q0 164 -94 231.5t-285 67.5v-615q180 0 279.5 72
t99.5 244zM334 741v-657h319v657h-319zM750 741h-23v-657h4q79 0 140.5 8.5t116.5 30.5t90.5 58.5t56 93.5t20.5 133q0 178 -104 255.5t-301 77.5z" />
    <glyph glyph-name="Wgrave" unicode="&#x1e80;" horiz-adv-x="2134" 
d="M1167 1640l-381 295l78 60l353 -318zM1487 0l-420 1374l-420 -1374h-98l-465 1520h100l416 -1383l422 1383h94l422 -1387l416 1387h96l-465 -1520h-98z" />
    <glyph glyph-name="wgrave" unicode="&#x1e81;" horiz-adv-x="1634" 
d="M879 1212l-289 396l86 47l258 -412zM1116 0l-299 932l-299 -932h-88l-350 1067h98l299 -938l297 938h90l297 -942l297 942h98l-352 -1067h-88z" />
    <glyph glyph-name="Wacute" unicode="&#x1e82;" horiz-adv-x="2134" 
d="M967 1640l-49 37l352 318l78 -60zM1487 0l-420 1374l-420 -1374h-98l-465 1520h100l416 -1383l422 1383h94l422 -1387l416 1387h96l-465 -1520h-98z" />
    <glyph glyph-name="wacute" unicode="&#x1e83;" horiz-adv-x="1634" 
d="M760 1212l-55 31l258 412l86 -47zM1116 0l-299 932l-299 -932h-88l-350 1067h98l299 -938l297 938h90l297 -942l297 942h98l-352 -1067h-88z" />
    <glyph glyph-name="Wdieresis" unicode="&#x1e84;" horiz-adv-x="2134" 
d="M1206 1733v145h119v-145h-119zM809 1733v145h119v-145h-119zM1487 0l-420 1374l-420 -1374h-98l-465 1520h100l416 -1383l422 1383h94l422 -1387l416 1387h96l-465 -1520h-98z" />
    <glyph glyph-name="wdieresis" unicode="&#x1e85;" horiz-adv-x="1634" 
d="M958 1327v146h119v-146h-119zM561 1327v146h119v-146h-119zM1116 0l-299 932l-299 -932h-88l-350 1067h98l299 -938l297 938h90l297 -942l297 942h98l-352 -1067h-88z" />
    <glyph glyph-name="uni1E9E" unicode="&#x1e9e;" horiz-adv-x="1527" 
d="M211 0v956q0 308 143 450t443 142q153 0 290 -34.5t232 -102.5l-326 -571q64 -26 114 -50t98 -55t82 -66t61 -77.5t40 -95t13 -113.5q0 -183 -116.5 -297.5t-336.5 -114.5q-226 0 -399 127l31 92q155 -131 366 -131q180 0 270.5 87.5t90.5 232.5q0 57 -13.5 104.5t-43 86
t-64 68.5t-88.5 58t-104.5 49.5t-123.5 47.5l328 583q-150 84 -403 84q-258 0 -375 -115.5t-117 -383.5v-961h-92z" />
    <glyph glyph-name="uni1EA0" unicode="&#x1ea0;" horiz-adv-x="1386" 
d="M1223 0l-183 481h-696l-180 -481h-98l577 1520h100l578 -1520h-98zM377 567h631l-316 838zM633 -334v144h123v-144h-123z" />
    <glyph glyph-name="uni1EA1" unicode="&#x1ea1;" horiz-adv-x="1134" 
d="M862 0l-2 174q-65 -92 -163 -145.5t-222 -53.5q-155 0 -251.5 84t-96.5 234q0 344 563 344h166v82q0 145 -65 217t-224 72q-205 0 -350 -119l-22 88q66 54 163.5 84.5t212.5 30.5q198 0 287.5 -92.5t89.5 -266.5v-733h-86zM485 59q125 0 222 63.5t149 166.5v270h-162
q-244 0 -359.5 -64.5t-115.5 -201.5q0 -112 72 -173t194 -61zM512 -334v144h123v-144h-123z" />
    <glyph glyph-name="uni1EA2" unicode="&#x1ea2;" horiz-adv-x="1386" 
d="M709 1630l-54 53q112 56 157.5 99.5t45.5 107.5q0 61 -38 99.5t-122 38.5q-108 0 -198 -72l-21 74q102 73 226 73q106 0 171.5 -53t65.5 -154q0 -90 -57 -148.5t-176 -117.5zM1223 0l-183 481h-696l-180 -481h-98l577 1520h100l578 -1520h-98zM377 567h631l-316 838z" />
    <glyph glyph-name="uni1EA3" unicode="&#x1ea3;" horiz-adv-x="1134" 
d="M588 1212l-53 54q112 56 157 99.5t45 109.5q0 60 -36.5 97.5t-118.5 37.5q-113 0 -203 -72l-21 74q104 74 226 74q106 0 171.5 -53t65.5 -154q0 -62 -30.5 -111.5t-77.5 -83t-125 -72.5zM862 0l-2 174q-65 -92 -163 -145.5t-222 -53.5q-155 0 -251.5 84t-96.5 234
q0 344 563 344h166v82q0 145 -65 217t-224 72q-205 0 -350 -119l-22 88q66 54 163.5 84.5t212.5 30.5q198 0 287.5 -92.5t89.5 -266.5v-733h-86zM485 59q125 0 222 63.5t149 166.5v270h-162q-244 0 -359.5 -64.5t-115.5 -201.5q0 -112 72 -173t194 -61z" />
    <glyph glyph-name="uni1EA4" unicode="&#x1ea4;" horiz-adv-x="1386" 
d="M975 1921l-49 35l350 315l76 -57zM1016 1675l-80 -26l-242 266l-241 -266l-80 26l291 312h61zM1223 0l-183 481h-696l-180 -481h-98l577 1520h100l578 -1520h-98zM377 567h631l-316 838z" />
    <glyph glyph-name="uni1EA5" unicode="&#x1ea5;" horiz-adv-x="1134" 
d="M862 1479l-51 28l248 396l82 -43zM866 1239l-75 -27l-218 314l-217 -314l-75 27l262 367h61zM862 0l-2 174q-65 -92 -163 -145.5t-222 -53.5q-155 0 -251.5 84t-96.5 234q0 344 563 344h166v82q0 145 -65 217t-224 72q-205 0 -350 -119l-22 88q66 54 163.5 84.5
t212.5 30.5q198 0 287.5 -92.5t89.5 -266.5v-733h-86zM485 59q125 0 222 63.5t149 166.5v270h-162q-244 0 -359.5 -64.5t-115.5 -201.5q0 -112 72 -173t194 -61z" />
    <glyph glyph-name="uni1EA6" unicode="&#x1ea6;" horiz-adv-x="1386" 
d="M1104 1921l-377 293l76 57l348 -315zM1016 1675l-80 -26l-242 266l-241 -266l-80 26l291 312h61zM1223 0l-183 481h-696l-180 -481h-98l577 1520h100l578 -1520h-98zM377 567h631l-316 838z" />
    <glyph glyph-name="uni1EA7" unicode="&#x1ea7;" horiz-adv-x="1134" 
d="M954 1479l-278 381l82 43l248 -396zM866 1239l-75 -27l-218 314l-217 -314l-75 27l262 367h61zM862 0l-2 174q-65 -92 -163 -145.5t-222 -53.5q-155 0 -251.5 84t-96.5 234q0 344 563 344h166v82q0 145 -65 217t-224 72q-205 0 -350 -119l-22 88q66 54 163.5 84.5
t212.5 30.5q198 0 287.5 -92.5t89.5 -266.5v-733h-86zM485 59q125 0 222 63.5t149 166.5v270h-162q-244 0 -359.5 -64.5t-115.5 -201.5q0 -112 72 -173t194 -61z" />
    <glyph glyph-name="uni1EA8" unicode="&#x1ea8;" horiz-adv-x="1386" 
d="M1034 1880l-49 49q103 52 144.5 93t41.5 100q0 54 -34.5 88.5t-108.5 34.5q-96 0 -182 -68l-21 72q96 67 205 67q99 0 159 -49t60 -141q0 -83 -53.5 -138t-161.5 -108zM1016 1675l-80 -26l-242 266l-241 -266l-80 26l291 312h61zM1223 0l-183 481h-696l-180 -481h-98
l577 1520h100l578 -1520h-98zM377 567h631l-316 838z" />
    <glyph glyph-name="uni1EA9" unicode="&#x1ea9;" horiz-adv-x="1134" 
d="M897 1483l-49 49q103 53 144.5 93t41.5 99q0 54 -34 88.5t-109 34.5q-97 0 -182 -67l-21 71q98 68 207 68q99 0 158 -49t59 -141q0 -83 -53.5 -138t-161.5 -108zM866 1239l-75 -27l-218 314l-217 -314l-75 27l262 367h61zM862 0l-2 174q-65 -92 -163 -145.5t-222 -53.5
q-155 0 -251.5 84t-96.5 234q0 344 563 344h166v82q0 145 -65 217t-224 72q-205 0 -350 -119l-22 88q66 54 163.5 84.5t212.5 30.5q198 0 287.5 -92.5t89.5 -266.5v-733h-86zM485 59q125 0 222 63.5t149 166.5v270h-162q-244 0 -359.5 -64.5t-115.5 -201.5q0 -112 72 -173
t194 -61z" />
    <glyph glyph-name="uni1EAA" unicode="&#x1eaa;" horiz-adv-x="1386" 
d="M459 2056l-74 6q0 111 46.5 166.5t117.5 55.5q45 0 80.5 -19.5t83.5 -60.5q51 -41 75.5 -54.5t49.5 -13.5q92 0 92 156l74 -6q0 -112 -46 -167t-118 -55q-31 0 -62 12.5t-50 26t-52 39.5q-30 25 -46 37t-37.5 21.5t-41.5 9.5q-92 0 -92 -154zM1016 1675l-80 -26l-242 266
l-241 -266l-80 26l291 312h61zM1223 0l-183 481h-696l-180 -481h-98l577 1520h100l578 -1520h-98zM377 567h631l-316 838z" />
    <glyph glyph-name="uni1EAB" unicode="&#x1eab;" horiz-adv-x="1134" 
d="M342 1683l-76 9q0 111 45.5 165t116.5 54q31 0 62 -12.5t50 -26t52 -39.5q30 -25 45 -36.5t37.5 -21.5t42.5 -10q88 0 88 156l76 -8q0 -111 -45.5 -165t-116.5 -54q-31 0 -62 12.5t-50 26t-52 39.5q-29 24 -45 36t-38 21.5t-42 9.5q-88 0 -88 -156zM866 1239l-75 -27
l-218 314l-217 -314l-75 27l262 367h61zM862 0l-2 174q-65 -92 -163 -145.5t-222 -53.5q-155 0 -251.5 84t-96.5 234q0 344 563 344h166v82q0 145 -65 217t-224 72q-205 0 -350 -119l-22 88q66 54 163.5 84.5t212.5 30.5q198 0 287.5 -92.5t89.5 -266.5v-733h-86zM485 59
q125 0 222 63.5t149 166.5v270h-162q-244 0 -359.5 -64.5t-115.5 -201.5q0 -112 72 -173t194 -61z" />
    <glyph glyph-name="uni1EAC" unicode="&#x1eac;" horiz-adv-x="1386" 
d="M1016 1675l-80 -26l-242 266l-241 -266l-80 26l291 312h61zM1223 0l-183 481h-696l-180 -481h-98l577 1520h100l578 -1520h-98zM377 567h631l-316 838zM633 -334v144h123v-144h-123z" />
    <glyph glyph-name="uni1EAD" unicode="&#x1ead;" horiz-adv-x="1134" 
d="M874 1239l-77 -27l-224 355l-223 -355l-78 27l271 410h61zM862 0l-2 174q-65 -92 -163 -145.5t-222 -53.5q-155 0 -251.5 84t-96.5 234q0 344 563 344h166v82q0 145 -65 217t-224 72q-205 0 -350 -119l-22 88q66 54 163.5 84.5t212.5 30.5q198 0 287.5 -92.5t89.5 -266.5
v-733h-86zM485 59q125 0 222 63.5t149 166.5v270h-162q-244 0 -359.5 -64.5t-115.5 -201.5q0 -112 72 -173t194 -61zM512 -334v144h123v-144h-123z" />
    <glyph glyph-name="uni1EAE" unicode="&#x1eae;" horiz-adv-x="1386" 
d="M635 1970l-47 35l350 315l76 -57zM385 1939l76 7q12 -110 73.5 -162.5t159.5 -52.5t160 52.5t74 162.5l76 -7q-10 -136 -95.5 -210t-214.5 -74t-213 73.5t-96 210.5zM1223 0l-183 481h-696l-180 -481h-98l577 1520h100l578 -1520h-98zM377 567h631l-316 838z" />
    <glyph glyph-name="uni1EAF" unicode="&#x1eaf;" horiz-adv-x="1134" 
d="M547 1528l-51 28l249 396l80 -43zM266 1542l76 6q13 -122 73 -179.5t158 -57.5t158.5 57.5t73.5 179.5l76 -6q-15 -149 -98.5 -228t-209.5 -79t-209 79t-98 228zM862 0l-2 174q-65 -92 -163 -145.5t-222 -53.5q-155 0 -251.5 84t-96.5 234q0 344 563 344h166v82
q0 145 -65 217t-224 72q-205 0 -350 -119l-22 88q66 54 163.5 84.5t212.5 30.5q198 0 287.5 -92.5t89.5 -266.5v-733h-86zM485 59q125 0 222 63.5t149 166.5v270h-162q-244 0 -359.5 -64.5t-115.5 -201.5q0 -112 72 -173t194 -61z" />
    <glyph glyph-name="uni1EB0" unicode="&#x1eb0;" horiz-adv-x="1386" 
d="M754 1970l-379 293l76 57l350 -315zM385 1939l76 7q12 -110 73.5 -162.5t159.5 -52.5t160 52.5t74 162.5l76 -7q-10 -136 -95.5 -210t-214.5 -74t-213 73.5t-96 210.5zM1223 0l-183 481h-696l-180 -481h-98l577 1520h100l578 -1520h-98zM377 567h631l-316 838z" />
    <glyph glyph-name="uni1EB1" unicode="&#x1eb1;" horiz-adv-x="1134" 
d="M600 1528l-278 381l79 43l250 -396zM266 1542l76 6q13 -122 73 -179.5t158 -57.5t158.5 57.5t73.5 179.5l76 -6q-15 -149 -98.5 -228t-209.5 -79t-209 79t-98 228zM862 0l-2 174q-65 -92 -163 -145.5t-222 -53.5q-155 0 -251.5 84t-96.5 234q0 344 563 344h166v82
q0 145 -65 217t-224 72q-205 0 -350 -119l-22 88q66 54 163.5 84.5t212.5 30.5q198 0 287.5 -92.5t89.5 -266.5v-733h-86zM485 59q125 0 222 63.5t149 166.5v270h-162q-244 0 -359.5 -64.5t-115.5 -201.5q0 -112 72 -173t194 -61z" />
    <glyph glyph-name="uni1EB2" unicode="&#x1eb2;" horiz-adv-x="1386" 
d="M690 1929l-49 49q102 53 144 94t42 99q0 55 -34.5 89t-108.5 34q-98 0 -184 -68l-19 72q93 67 205 67q99 0 159 -49t60 -141q0 -83 -53.5 -138t-161.5 -108zM385 1939l76 7q12 -110 73.5 -162.5t159.5 -52.5t160 52.5t74 162.5l76 -7q-10 -136 -95.5 -210t-214.5 -74
t-213 73.5t-96 210.5zM1223 0l-183 481h-696l-180 -481h-98l577 1520h100l578 -1520h-98zM377 567h631l-316 838z" />
    <glyph glyph-name="uni1EB3" unicode="&#x1eb3;" horiz-adv-x="1134" 
d="M569 1532l-49 49q102 53 144.5 94t42.5 99q0 54 -34.5 88t-109.5 34q-99 0 -184 -67l-19 72q93 67 205 67q99 0 159 -49t60 -141q0 -83 -53.5 -138t-161.5 -108zM266 1542l76 6q13 -122 73 -179.5t158 -57.5t158.5 57.5t73.5 179.5l76 -6q-15 -149 -98.5 -228t-209.5 -79
t-209 79t-98 228zM862 0l-2 174q-65 -92 -163 -145.5t-222 -53.5q-155 0 -251.5 84t-96.5 234q0 344 563 344h166v82q0 145 -65 217t-224 72q-205 0 -350 -119l-22 88q66 54 163.5 84.5t212.5 30.5q198 0 287.5 -92.5t89.5 -266.5v-733h-86zM485 59q125 0 222 63.5
t149 166.5v270h-162q-244 0 -359.5 -64.5t-115.5 -201.5q0 -112 72 -173t194 -61z" />
    <glyph glyph-name="uni1EB4" unicode="&#x1eb4;" horiz-adv-x="1386" 
d="M459 2056l-74 6q0 111 46.5 166.5t117.5 55.5q45 0 80.5 -20t83.5 -60q81 -68 125 -68q92 0 92 156l74 -6q0 -112 -46 -167t-118 -55q-31 0 -62 12.5t-50 26t-52 39.5q-30 25 -46 37t-37.5 21.5t-41.5 9.5q-92 0 -92 -154zM385 1939l76 7q12 -110 73.5 -162.5
t159.5 -52.5t160 52.5t74 162.5l76 -7q-10 -136 -95.5 -210t-214.5 -74t-213 73.5t-96 210.5zM1223 0l-183 481h-696l-180 -481h-98l577 1520h100l578 -1520h-98zM377 567h631l-316 838z" />
    <glyph glyph-name="uni1EB5" unicode="&#x1eb5;" horiz-adv-x="1134" 
d="M342 1683l-76 9q0 111 45.5 165t116.5 54q31 0 62 -12.5t50 -26t52 -39.5q30 -25 45 -36.5t37.5 -21.5t42.5 -10q88 0 88 156l76 -8q0 -111 -45.5 -165t-116.5 -54q-31 0 -62 12.5t-50 26t-52 39.5q-29 24 -45 36t-38 21.5t-42 9.5q-88 0 -88 -156zM266 1542l76 6
q13 -122 73 -179.5t158 -57.5t158.5 57.5t73.5 179.5l76 -6q-15 -149 -98.5 -228t-209.5 -79t-209 79t-98 228zM862 0l-2 174q-65 -92 -163 -145.5t-222 -53.5q-155 0 -251.5 84t-96.5 234q0 344 563 344h166v82q0 145 -65 217t-224 72q-205 0 -350 -119l-22 88
q66 54 163.5 84.5t212.5 30.5q198 0 287.5 -92.5t89.5 -266.5v-733h-86zM485 59q125 0 222 63.5t149 166.5v270h-162q-244 0 -359.5 -64.5t-115.5 -201.5q0 -112 72 -173t194 -61z" />
    <glyph glyph-name="uni1EB6" unicode="&#x1eb6;" horiz-adv-x="1386" 
d="M385 1962l74 6q9 -120 70.5 -177.5t164.5 -57.5t165 57.5t71 177.5l74 -6q-4 -147 -90 -227t-220 -80t-219.5 79.5t-89.5 227.5zM1223 0l-183 481h-696l-180 -481h-98l577 1520h100l578 -1520h-98zM377 567h631l-316 838zM633 -334v144h123v-144h-123z" />
    <glyph glyph-name="uni1EB7" unicode="&#x1eb7;" horiz-adv-x="1134" 
d="M264 1579l74 4q6 -137 68.5 -203.5t166.5 -66.5q105 0 167.5 66.5t68.5 203.5l74 -4q-4 -165 -90 -254.5t-220 -89.5t-219.5 89.5t-89.5 254.5zM862 0l-2 174q-65 -92 -163 -145.5t-222 -53.5q-155 0 -251.5 84t-96.5 234q0 344 563 344h166v82q0 145 -65 217t-224 72
q-205 0 -350 -119l-22 88q66 54 163.5 84.5t212.5 30.5q198 0 287.5 -92.5t89.5 -266.5v-733h-86zM485 59q125 0 222 63.5t149 166.5v270h-162q-244 0 -359.5 -64.5t-115.5 -201.5q0 -112 72 -173t194 -61zM512 -334v144h123v-144h-123z" />
    <glyph glyph-name="uni1EB8" unicode="&#x1eb8;" horiz-adv-x="1261" 
d="M1130 86v-86h-903v1520h887v-86h-792v-584h710v-86h-710v-678h808zM598 -334v144h123v-144h-123z" />
    <glyph glyph-name="uni1EB9" unicode="&#x1eb9;" horiz-adv-x="1153" 
d="M1016 102q-150 -127 -383 -127q-248 0 -383 145t-135 402q0 260 130 415t357 155q92 0 165.5 -27.5t122 -74t81.5 -111t47 -136t14 -151.5v-53h-825v-21q0 -222 112 -340.5t322 -118.5q207 0 352 131zM602 1010q-162 0 -268.5 -103t-124.5 -293h731v21q0 73 -19 137.5
t-58 119t-106 86.5t-155 32zM535 -334v144h122v-144h-122z" />
    <glyph glyph-name="uni1EBA" unicode="&#x1eba;" horiz-adv-x="1261" 
d="M674 1630l-53 53q112 56 157 99.5t45 107.5q0 61 -38 99.5t-121 38.5q-109 0 -199 -72l-21 74q102 73 226 73q106 0 171.5 -53t65.5 -154q0 -90 -57 -148.5t-176 -117.5zM1130 86v-86h-903v1520h887v-86h-792v-584h710v-86h-710v-678h808z" />
    <glyph glyph-name="uni1EBB" unicode="&#x1ebb;" horiz-adv-x="1153" 
d="M610 1212l-53 54q112 56 157.5 100t45.5 109q0 60 -37 97.5t-119 37.5q-113 0 -203 -72l-20 74q104 74 225 74q106 0 172 -53.5t66 -153.5q0 -90 -57.5 -149t-176.5 -118zM1016 102q-150 -127 -383 -127q-248 0 -383 145t-135 402q0 260 130 415t357 155
q92 0 165.5 -27.5t122 -74t81.5 -111t47 -136t14 -151.5v-53h-825v-21q0 -222 112 -340.5t322 -118.5q207 0 352 131zM602 1010q-162 0 -268.5 -103t-124.5 -293h731v21q0 73 -19 137.5t-58 119t-106 86.5t-155 32z" />
    <glyph glyph-name="uni1EBC" unicode="&#x1ebc;" horiz-adv-x="1261" 
d="M362 1667l-75 6q0 128 55.5 192t138.5 64q36 0 74 -14.5t62 -30.5t59 -43t56 -41.5t51.5 -27.5t58.5 -13q114 0 114 185l76 -9q0 -127 -55.5 -190.5t-138.5 -63.5q-36 0 -74 14.5t-62 30.5t-59 43q-36 27 -56.5 41t-51 26.5t-58.5 12.5q-115 0 -115 -182zM1130 86v-86
h-903v1520h887v-86h-792v-584h710v-86h-710v-678h808z" />
    <glyph glyph-name="uni1EBD" unicode="&#x1ebd;" horiz-adv-x="1153" 
d="M315 1262l-75 8q0 127 51.5 190.5t132.5 63.5q88 0 188 -88q53 -45 88 -63.5t68 -18.5q109 0 109 184l75 -8q0 -127 -51.5 -190.5t-132.5 -63.5q-84 0 -188 88q-53 44 -87 63t-69 19q-109 0 -109 -184zM1016 102q-150 -127 -383 -127q-248 0 -383 145t-135 402
q0 260 130 415t357 155q92 0 165.5 -27.5t122 -74t81.5 -111t47 -136t14 -151.5v-53h-825v-21q0 -222 112 -340.5t322 -118.5q207 0 352 131zM602 1010q-162 0 -268.5 -103t-124.5 -293h731v21q0 73 -19 137.5t-58 119t-106 86.5t-155 32z" />
    <glyph glyph-name="uni1EBE" unicode="&#x1ebe;" horiz-adv-x="1261" 
d="M940 1921l-49 35l350 315l76 -57zM981 1675l-80 -26l-242 266l-241 -266l-80 26l291 312h61zM1130 86v-86h-903v1520h887v-86h-792v-584h710v-86h-710v-678h808z" />
    <glyph glyph-name="uni1EBF" unicode="&#x1ebf;" horiz-adv-x="1153" 
d="M885 1479l-51 28l247 396l82 -43zM889 1239l-76 -27l-217 314l-217 -314l-76 27l262 367h62zM1016 102q-150 -127 -383 -127q-248 0 -383 145t-135 402q0 260 130 415t357 155q92 0 165.5 -27.5t122 -74t81.5 -111t47 -136t14 -151.5v-53h-825v-21q0 -222 112 -340.5
t322 -118.5q207 0 352 131zM602 1010q-162 0 -268.5 -103t-124.5 -293h731v21q0 73 -19 137.5t-58 119t-106 86.5t-155 32z" />
    <glyph glyph-name="uni1EC0" unicode="&#x1ec0;" horiz-adv-x="1261" 
d="M1069 1921l-377 293l76 57l348 -315zM981 1675l-80 -26l-242 266l-241 -266l-80 26l291 312h61zM1130 86v-86h-903v1520h887v-86h-792v-584h710v-86h-710v-678h808z" />
    <glyph glyph-name="uni1EC1" unicode="&#x1ec1;" horiz-adv-x="1153" 
d="M977 1479l-279 381l82 43l248 -396zM889 1239l-76 -27l-217 314l-217 -314l-76 27l262 367h62zM1016 102q-150 -127 -383 -127q-248 0 -383 145t-135 402q0 260 130 415t357 155q92 0 165.5 -27.5t122 -74t81.5 -111t47 -136t14 -151.5v-53h-825v-21q0 -222 112 -340.5
t322 -118.5q207 0 352 131zM602 1010q-162 0 -268.5 -103t-124.5 -293h731v21q0 73 -19 137.5t-58 119t-106 86.5t-155 32z" />
    <glyph glyph-name="uni1EC2" unicode="&#x1ec2;" horiz-adv-x="1261" 
d="M999 1880l-49 49q103 53 145 93.5t42 99.5q0 54 -34.5 88.5t-109.5 34.5q-96 0 -182 -68l-20 72q96 67 204 67q99 0 159 -49t60 -141q0 -83 -53.5 -138t-161.5 -108zM981 1675l-80 -26l-242 266l-241 -266l-80 26l291 312h61zM1130 86v-86h-903v1520h887v-86h-792v-584
h710v-86h-710v-678h808z" />
    <glyph glyph-name="uni1EC3" unicode="&#x1ec3;" horiz-adv-x="1153" 
d="M920 1483l-50 49q103 53 145 93t42 99q0 54 -34.5 88.5t-109.5 34.5q-97 0 -182 -67l-20 71q98 68 207 68q99 0 158 -49t59 -141q0 -83 -53.5 -138t-161.5 -108zM889 1239l-76 -27l-217 314l-217 -314l-76 27l262 367h62zM1016 102q-150 -127 -383 -127q-248 0 -383 145
t-135 402q0 260 130 415t357 155q92 0 165.5 -27.5t122 -74t81.5 -111t47 -136t14 -151.5v-53h-825v-21q0 -222 112 -340.5t322 -118.5q207 0 352 131zM602 1010q-162 0 -268.5 -103t-124.5 -293h731v21q0 73 -19 137.5t-58 119t-106 86.5t-155 32z" />
    <glyph glyph-name="uni1EC4" unicode="&#x1ec4;" horiz-adv-x="1261" 
d="M424 2056l-74 6q0 111 46.5 166.5t117.5 55.5q45 0 80.5 -20t83.5 -60q81 -68 125 -68q92 0 92 156l74 -6q0 -112 -46 -167t-118 -55q-31 0 -62 12.5t-50 26t-52 39.5q-30 25 -46 37t-37.5 21.5t-41.5 9.5q-92 0 -92 -154zM981 1675l-80 -26l-242 266l-241 -266l-80 26
l291 312h61zM1130 86v-86h-903v1520h887v-86h-792v-584h710v-86h-710v-678h808z" />
    <glyph glyph-name="uni1EC5" unicode="&#x1ec5;" horiz-adv-x="1153" 
d="M365 1683l-76 9q0 111 45.5 165t116.5 54q31 0 62 -12.5t49.5 -25.5t51.5 -40q30 -25 45 -36.5t37.5 -21.5t42.5 -10q88 0 88 156l76 -8q0 -111 -45.5 -165t-116.5 -54q-31 0 -62 12.5t-49.5 25.5t-51.5 40q-29 24 -45 36t-38 21.5t-42 9.5q-88 0 -88 -156zM889 1239
l-76 -27l-217 314l-217 -314l-76 27l262 367h62zM1016 102q-150 -127 -383 -127q-248 0 -383 145t-135 402q0 260 130 415t357 155q92 0 165.5 -27.5t122 -74t81.5 -111t47 -136t14 -151.5v-53h-825v-21q0 -222 112 -340.5t322 -118.5q207 0 352 131zM602 1010
q-162 0 -268.5 -103t-124.5 -293h731v21q0 73 -19 137.5t-58 119t-106 86.5t-155 32z" />
    <glyph glyph-name="uni1EC6" unicode="&#x1ec6;" horiz-adv-x="1261" 
d="M981 1675l-80 -26l-242 266l-241 -266l-80 26l291 312h61zM1130 86v-86h-903v1520h887v-86h-792v-584h710v-86h-710v-678h808zM598 -334v144h123v-144h-123z" />
    <glyph glyph-name="uni1EC7" unicode="&#x1ec7;" horiz-adv-x="1153" 
d="M897 1239l-78 -27l-223 355l-223 -355l-78 27l270 410h62zM1016 102q-150 -127 -383 -127q-248 0 -383 145t-135 402q0 260 130 415t357 155q92 0 165.5 -27.5t122 -74t81.5 -111t47 -136t14 -151.5v-53h-825v-21q0 -222 112 -340.5t322 -118.5q207 0 352 131zM602 1010
q-162 0 -268.5 -103t-124.5 -293h731v21q0 73 -19 137.5t-58 119t-106 86.5t-155 32zM535 -334v144h122v-144h-122z" />
    <glyph glyph-name="uni1EC8" unicode="&#x1ec8;" horiz-adv-x="550" 
d="M289 1630l-53 53q112 56 157 99.5t45 107.5q0 61 -38 99.5t-121 38.5q-109 0 -199 -72l-21 74q102 73 226 73q106 0 171.5 -53t65.5 -154q0 -90 -57 -148.5t-176 -117.5zM227 0v1520h95v-1520h-95z" />
    <glyph glyph-name="uni1EC9" unicode="&#x1ec9;" horiz-adv-x="497" 
d="M262 1212l-53 54q112 56 157.5 100t45.5 109q0 60 -37 97.5t-119 37.5q-113 0 -203 -72l-20 74q104 74 225 74q106 0 172 -53.5t66 -153.5q0 -90 -57.5 -149t-176.5 -118zM203 0v1067h92v-1067h-92z" />
    <glyph glyph-name="uni1ECA" unicode="&#x1eca;" horiz-adv-x="550" 
d="M227 0v1520h95v-1520h-95zM213 -334v144h123v-144h-123z" />
    <glyph glyph-name="uni1ECB" unicode="&#x1ecb;" horiz-adv-x="495" 
d="M186 1327v146h123v-146h-123zM203 0v1067h92v-1067h-92zM186 -334v144h123v-144h-123z" />
    <glyph glyph-name="uni1ECC" unicode="&#x1ecc;" horiz-adv-x="1581" 
d="M791 -29q-144 0 -265 54.5t-208.5 154.5t-136 249t-48.5 331t48.5 331t136 249t208.5 154t265 54t265 -54t208 -154t135.5 -249t48.5 -331t-48.5 -331t-135.5 -249t-208 -154.5t-265 -54.5zM791 59q259 0 409 188.5t150 512.5q0 323 -150 511.5t-409 188.5t-409.5 -188
t-150.5 -512q0 -323 150.5 -512t409.5 -189zM729 -334v144h123v-144h-123z" />
    <glyph glyph-name="uni1ECD" unicode="&#x1ecd;" horiz-adv-x="1210" 
d="M606 -25q-215 0 -353 150.5t-138 406.5q0 257 138 408.5t353 151.5q216 0 354 -151.5t138 -408.5q0 -256 -138 -406.5t-354 -150.5zM606 59q183 0 290.5 128.5t107.5 344.5q0 217 -107.5 346.5t-290.5 129.5t-291 -129.5t-108 -346.5q0 -216 108 -344.5t291 -128.5z
M545 -334v144h123v-144h-123z" />
    <glyph glyph-name="uni1ECE" unicode="&#x1ece;" horiz-adv-x="1581" 
d="M805 1630l-53 53q112 56 157 99.5t45 107.5q0 61 -38 99.5t-121 38.5q-109 0 -199 -72l-21 74q102 73 226 73q106 0 171.5 -53t65.5 -154q0 -90 -57 -148.5t-176 -117.5zM791 -29q-144 0 -265 54.5t-208.5 154.5t-136 249t-48.5 331t48.5 331t136 249t208.5 154t265 54
t265 -54t208 -154t135.5 -249t48.5 -331t-48.5 -331t-135.5 -249t-208 -154.5t-265 -54.5zM791 59q259 0 409 188.5t150 512.5q0 323 -150 511.5t-409 188.5t-409.5 -188t-150.5 -512q0 -323 150.5 -512t409.5 -189z" />
    <glyph glyph-name="uni1ECF" unicode="&#x1ecf;" horiz-adv-x="1210" 
d="M621 1212l-54 54q112 56 157.5 100t45.5 109q0 60 -37 97.5t-119 37.5q-112 0 -202 -72l-21 74q104 74 225 74q106 0 172 -53.5t66 -153.5q0 -62 -30.5 -111.5t-77.5 -83t-125 -72.5zM606 -25q-215 0 -353 150.5t-138 406.5q0 257 138 408.5t353 151.5q216 0 354 -151.5
t138 -408.5q0 -256 -138 -406.5t-354 -150.5zM606 59q183 0 290.5 128.5t107.5 344.5q0 217 -107.5 346.5t-290.5 129.5t-291 -129.5t-108 -346.5q0 -216 108 -344.5t291 -128.5z" />
    <glyph glyph-name="uni1ED0" unicode="&#x1ed0;" horiz-adv-x="1581" 
d="M1071 1921l-49 35l350 315l76 -57zM1112 1675l-80 -26l-241 266l-242 -266l-80 26l291 312h61zM791 -29q-144 0 -265 54.5t-208.5 154.5t-136 249t-48.5 331t48.5 331t136 249t208.5 154t265 54t265 -54t208 -154t135.5 -249t48.5 -331t-48.5 -331t-135.5 -249
t-208 -154.5t-265 -54.5zM791 59q259 0 409 188.5t150 512.5q0 323 -150 511.5t-409 188.5t-409.5 -188t-150.5 -512q0 -323 150.5 -512t409.5 -189z" />
    <glyph glyph-name="uni1ED1" unicode="&#x1ed1;" horiz-adv-x="1210" 
d="M895 1479l-51 28l248 396l82 -43zM899 1239l-76 -27l-217 314l-217 -314l-76 27l262 367h62zM606 -25q-215 0 -353 150.5t-138 406.5q0 257 138 408.5t353 151.5q216 0 354 -151.5t138 -408.5q0 -256 -138 -406.5t-354 -150.5zM606 59q183 0 290.5 128.5t107.5 344.5
q0 217 -107.5 346.5t-290.5 129.5t-291 -129.5t-108 -346.5q0 -216 108 -344.5t291 -128.5z" />
    <glyph glyph-name="uni1ED2" unicode="&#x1ed2;" horiz-adv-x="1581" 
d="M1200 1921l-377 293l76 57l348 -315zM1112 1675l-80 -26l-241 266l-242 -266l-80 26l291 312h61zM791 -29q-144 0 -265 54.5t-208.5 154.5t-136 249t-48.5 331t48.5 331t136 249t208.5 154t265 54t265 -54t208 -154t135.5 -249t48.5 -331t-48.5 -331t-135.5 -249
t-208 -154.5t-265 -54.5zM791 59q259 0 409 188.5t150 512.5q0 323 -150 511.5t-409 188.5t-409.5 -188t-150.5 -512q0 -323 150.5 -512t409.5 -189z" />
    <glyph glyph-name="uni1ED3" unicode="&#x1ed3;" horiz-adv-x="1210" 
d="M987 1479l-278 381l82 43l247 -396zM899 1239l-76 -27l-217 314l-217 -314l-76 27l262 367h62zM606 -25q-215 0 -353 150.5t-138 406.5q0 257 138 408.5t353 151.5q216 0 354 -151.5t138 -408.5q0 -256 -138 -406.5t-354 -150.5zM606 59q183 0 290.5 128.5t107.5 344.5
q0 217 -107.5 346.5t-290.5 129.5t-291 -129.5t-108 -346.5q0 -216 108 -344.5t291 -128.5z" />
    <glyph glyph-name="uni1ED4" unicode="&#x1ed4;" horiz-adv-x="1581" 
d="M1130 1880l-49 49q103 53 145 93.5t42 99.5q0 54 -34.5 88.5t-109.5 34.5q-96 0 -182 -68l-20 72q96 67 204 67q99 0 159.5 -49t60.5 -141q0 -83 -54 -138t-162 -108zM1112 1675l-80 -26l-241 266l-242 -266l-80 26l291 312h61zM791 -29q-144 0 -265 54.5t-208.5 154.5
t-136 249t-48.5 331t48.5 331t136 249t208.5 154t265 54t265 -54t208 -154t135.5 -249t48.5 -331t-48.5 -331t-135.5 -249t-208 -154.5t-265 -54.5zM791 59q259 0 409 188.5t150 512.5q0 323 -150 511.5t-409 188.5t-409.5 -188t-150.5 -512q0 -323 150.5 -512t409.5 -189z
" />
    <glyph glyph-name="uni1ED5" unicode="&#x1ed5;" horiz-adv-x="1210" 
d="M930 1483l-49 49q103 53 144.5 93t41.5 99q0 54 -34.5 88.5t-108.5 34.5q-98 0 -183 -67l-20 71q98 68 207 68q99 0 158 -49t59 -141q0 -83 -53.5 -138t-161.5 -108zM899 1239l-76 -27l-217 314l-217 -314l-76 27l262 367h62zM606 -25q-215 0 -353 150.5t-138 406.5
q0 257 138 408.5t353 151.5q216 0 354 -151.5t138 -408.5q0 -256 -138 -406.5t-354 -150.5zM606 59q183 0 290.5 128.5t107.5 344.5q0 217 -107.5 346.5t-290.5 129.5t-291 -129.5t-108 -346.5q0 -216 108 -344.5t291 -128.5z" />
    <glyph glyph-name="uni1ED6" unicode="&#x1ed6;" horiz-adv-x="1581" 
d="M555 2056l-74 6q0 111 46.5 166.5t117.5 55.5q43 0 80 -20t84 -60q47 -39 73 -53.5t52 -14.5q92 0 92 156l74 -6q0 -112 -46 -167t-118 -55q-31 0 -62 12.5t-50 26t-52 39.5q-30 25 -46 37t-37.5 21.5t-41.5 9.5q-92 0 -92 -154zM1112 1675l-80 -26l-241 266l-242 -266
l-80 26l291 312h61zM791 -29q-144 0 -265 54.5t-208.5 154.5t-136 249t-48.5 331t48.5 331t136 249t208.5 154t265 54t265 -54t208 -154t135.5 -249t48.5 -331t-48.5 -331t-135.5 -249t-208 -154.5t-265 -54.5zM791 59q259 0 409 188.5t150 512.5q0 323 -150 511.5
t-409 188.5t-409.5 -188t-150.5 -512q0 -323 150.5 -512t409.5 -189z" />
    <glyph glyph-name="uni1ED7" unicode="&#x1ed7;" horiz-adv-x="1210" 
d="M375 1683l-76 9q0 111 45.5 165t116.5 54q31 0 62 -12.5t50 -26t52 -39.5q30 -25 45 -36.5t37.5 -21.5t42.5 -10q88 0 88 156l75 -8q0 -111 -45 -165t-116 -54q-31 0 -62 12.5t-50 26t-52 39.5q-29 24 -45 36t-38 21.5t-42 9.5q-88 0 -88 -156zM899 1239l-76 -27
l-217 314l-217 -314l-76 27l262 367h62zM606 -25q-215 0 -353 150.5t-138 406.5q0 257 138 408.5t353 151.5q216 0 354 -151.5t138 -408.5q0 -256 -138 -406.5t-354 -150.5zM606 59q183 0 290.5 128.5t107.5 344.5q0 217 -107.5 346.5t-290.5 129.5t-291 -129.5t-108 -346.5
q0 -216 108 -344.5t291 -128.5z" />
    <glyph glyph-name="uni1ED8" unicode="&#x1ed8;" horiz-adv-x="1581" 
d="M1112 1675l-80 -26l-241 266l-242 -266l-80 26l291 312h61zM791 -29q-144 0 -265 54.5t-208.5 154.5t-136 249t-48.5 331t48.5 331t136 249t208.5 154t265 54t265 -54t208 -154t135.5 -249t48.5 -331t-48.5 -331t-135.5 -249t-208 -154.5t-265 -54.5zM791 59
q259 0 409 188.5t150 512.5q0 323 -150 511.5t-409 188.5t-409.5 -188t-150.5 -512q0 -323 150.5 -512t409.5 -189zM729 -334v144h123v-144h-123z" />
    <glyph glyph-name="uni1ED9" unicode="&#x1ed9;" horiz-adv-x="1210" 
d="M907 1239l-78 -27l-223 355l-223 -355l-78 27l270 410h62zM606 -25q-215 0 -353 150.5t-138 406.5q0 257 138 408.5t353 151.5q216 0 354 -151.5t138 -408.5q0 -256 -138 -406.5t-354 -150.5zM606 59q183 0 290.5 128.5t107.5 344.5q0 217 -107.5 346.5t-290.5 129.5
t-291 -129.5t-108 -346.5q0 -216 108 -344.5t291 -128.5zM545 -334v144h123v-144h-123z" />
    <glyph glyph-name="uni1EDA" unicode="&#x1eda;" horiz-adv-x="1581" 
d="M690 1640l-49 37l352 318l78 -60zM1448 760q0 -182 -48.5 -331t-135.5 -249t-208 -154.5t-265 -54.5t-265 54.5t-208.5 154.5t-136 249t-48.5 331t48.5 331t136 249t208.5 154t265 54q168 0 301 -71h20q145 0 198.5 57t53.5 168q0 50 -8 104h88q8 -54 8 -108
q0 -258 -258 -291q121 -102 187.5 -267t66.5 -380zM791 59q259 0 409 188.5t150 512.5q0 323 -150 511.5t-409 188.5t-409.5 -188t-150.5 -512q0 -323 150.5 -512t409.5 -189z" />
    <glyph glyph-name="uni1EDB" unicode="&#x1edb;" horiz-adv-x="1220" 
d="M547 1212l-55 31l258 412l86 -47zM1098 532q0 -256 -138 -406.5t-354 -150.5q-215 0 -353 150.5t-138 406.5q0 257 138 408.5t353 151.5q119 0 219 -50h27q68 0 114 15.5t70 46.5t33.5 68.5t9.5 89.5t-8 110h88q8 -58 8 -112q0 -254 -239 -287q80 -72 125 -185t45 -256z
M606 59q183 0 290.5 128.5t107.5 344.5q0 217 -107.5 346.5t-290.5 129.5t-291 -129.5t-108 -346.5q0 -216 108 -344.5t291 -128.5z" />
    <glyph glyph-name="uni1EDC" unicode="&#x1edc;" horiz-adv-x="1581" 
d="M891 1640l-381 295l78 60l352 -318zM1448 760q0 -182 -48.5 -331t-135.5 -249t-208 -154.5t-265 -54.5t-265 54.5t-208.5 154.5t-136 249t-48.5 331t48.5 331t136 249t208.5 154t265 54q168 0 301 -71h20q145 0 198.5 57t53.5 168q0 50 -8 104h88q8 -54 8 -108
q0 -258 -258 -291q121 -102 187.5 -267t66.5 -380zM791 59q259 0 409 188.5t150 512.5q0 323 -150 511.5t-409 188.5t-409.5 -188t-150.5 -512q0 -323 150.5 -512t409.5 -189z" />
    <glyph glyph-name="uni1EDD" unicode="&#x1edd;" horiz-adv-x="1220" 
d="M666 1212l-289 396l86 47l258 -412zM1098 532q0 -256 -138 -406.5t-354 -150.5q-215 0 -353 150.5t-138 406.5q0 257 138 408.5t353 151.5q119 0 219 -50h27q68 0 114 15.5t70 46.5t33.5 68.5t9.5 89.5t-8 110h88q8 -58 8 -112q0 -254 -239 -287q80 -72 125 -185t45 -256
zM606 59q183 0 290.5 128.5t107.5 344.5q0 217 -107.5 346.5t-290.5 129.5t-291 -129.5t-108 -346.5q0 -216 108 -344.5t291 -128.5z" />
    <glyph glyph-name="uni1EDE" unicode="&#x1ede;" horiz-adv-x="1581" 
d="M805 1630l-53 53q112 56 157 99.5t45 107.5q0 61 -38 99.5t-121 38.5q-109 0 -199 -72l-21 74q102 73 226 73q106 0 171.5 -53t65.5 -154q0 -90 -57 -148.5t-176 -117.5zM1448 760q0 -182 -48.5 -331t-135.5 -249t-208 -154.5t-265 -54.5t-265 54.5t-208.5 154.5
t-136 249t-48.5 331t48.5 331t136 249t208.5 154t265 54q168 0 301 -71h20q145 0 198.5 57t53.5 168q0 50 -8 104h88q8 -54 8 -108q0 -258 -258 -291q121 -102 187.5 -267t66.5 -380zM791 59q259 0 409 188.5t150 512.5q0 323 -150 511.5t-409 188.5t-409.5 -188
t-150.5 -512q0 -323 150.5 -512t409.5 -189z" />
    <glyph glyph-name="uni1EDF" unicode="&#x1edf;" horiz-adv-x="1220" 
d="M621 1212l-54 54q112 56 157.5 100t45.5 109q0 60 -37 97.5t-119 37.5q-112 0 -202 -72l-21 74q104 74 225 74q106 0 172 -53.5t66 -153.5q0 -62 -30.5 -111.5t-77.5 -83t-125 -72.5zM1098 532q0 -256 -138 -406.5t-354 -150.5q-215 0 -353 150.5t-138 406.5
q0 257 138 408.5t353 151.5q119 0 219 -50h27q68 0 114 15.5t70 46.5t33.5 68.5t9.5 89.5t-8 110h88q8 -58 8 -112q0 -254 -239 -287q80 -72 125 -185t45 -256zM606 59q183 0 290.5 128.5t107.5 344.5q0 217 -107.5 346.5t-290.5 129.5t-291 -129.5t-108 -346.5
q0 -216 108 -344.5t291 -128.5z" />
    <glyph glyph-name="uni1EE0" unicode="&#x1ee0;" horiz-adv-x="1581" 
d="M494 1708l-76 6q0 128 55.5 192t138.5 64q36 0 74 -14.5t62 -30.5t59 -43t56 -41.5t51.5 -27.5t58.5 -13q114 0 114 185l76 -9q0 -127 -55.5 -190.5t-138.5 -63.5q-36 0 -74 14.5t-62 30.5t-59 43q-36 27 -56.5 41t-51 26.5t-58.5 12.5q-114 0 -114 -182zM1448 760
q0 -182 -48.5 -331t-135.5 -249t-208 -154.5t-265 -54.5t-265 54.5t-208.5 154.5t-136 249t-48.5 331t48.5 331t136 249t208.5 154t265 54q168 0 301 -71h20q145 0 198.5 57t53.5 168q0 50 -8 104h88q8 -54 8 -108q0 -258 -258 -291q121 -102 187.5 -267t66.5 -380zM791 59
q259 0 409 188.5t150 512.5q0 323 -150 511.5t-409 188.5t-409.5 -188t-150.5 -512q0 -323 150.5 -512t409.5 -189z" />
    <glyph glyph-name="uni1EE1" unicode="&#x1ee1;" horiz-adv-x="1220" 
d="M326 1360l-76 8q0 127 51.5 190.5t132.5 63.5q51 0 94.5 -23t94.5 -65q52 -43 86 -62.5t69 -19.5q109 0 109 184l76 -8q0 -127 -52 -190.5t-133 -63.5q-84 0 -188 88q-53 44 -87.5 63t-68.5 19q-108 0 -108 -184zM1098 532q0 -256 -138 -406.5t-354 -150.5
q-215 0 -353 150.5t-138 406.5q0 257 138 408.5t353 151.5q119 0 219 -50h27q68 0 114 15.5t70 46.5t33.5 68.5t9.5 89.5t-8 110h88q8 -58 8 -112q0 -254 -239 -287q80 -72 125 -185t45 -256zM606 59q183 0 290.5 128.5t107.5 344.5q0 217 -107.5 346.5t-290.5 129.5
t-291 -129.5t-108 -346.5q0 -216 108 -344.5t291 -128.5z" />
    <glyph glyph-name="uni1EE2" unicode="&#x1ee2;" horiz-adv-x="1581" 
d="M1448 760q0 -182 -48.5 -331t-135.5 -249t-208 -154.5t-265 -54.5t-265 54.5t-208.5 154.5t-136 249t-48.5 331t48.5 331t136 249t208.5 154t265 54q168 0 301 -71h20q145 0 198.5 57t53.5 168q0 50 -8 104h88q8 -54 8 -108q0 -258 -258 -291q121 -102 187.5 -267
t66.5 -380zM791 59q259 0 409 188.5t150 512.5q0 323 -150 511.5t-409 188.5t-409.5 -188t-150.5 -512q0 -323 150.5 -512t409.5 -189zM729 -334v144h123v-144h-123z" />
    <glyph glyph-name="uni1EE3" unicode="&#x1ee3;" horiz-adv-x="1220" 
d="M1098 532q0 -256 -138 -406.5t-354 -150.5q-215 0 -353 150.5t-138 406.5q0 257 138 408.5t353 151.5q119 0 219 -50h27q68 0 114 15.5t70 46.5t33.5 68.5t9.5 89.5t-8 110h88q8 -58 8 -112q0 -254 -239 -287q80 -72 125 -185t45 -256zM606 59q183 0 290.5 128.5
t107.5 344.5q0 217 -107.5 346.5t-290.5 129.5t-291 -129.5t-108 -346.5q0 -216 108 -344.5t291 -128.5zM545 -334v144h123v-144h-123z" />
    <glyph glyph-name="uni1EE4" unicode="&#x1ee4;" horiz-adv-x="1507" 
d="M211 565v955h92v-959q0 -248 116.5 -375t334.5 -127q219 0 335.5 127t116.5 375v959h92v-955q0 -286 -138.5 -440t-405.5 -154q-268 0 -405.5 154t-137.5 440zM692 -334v144h123v-144h-123z" />
    <glyph glyph-name="uni1EE5" unicode="&#x1ee5;" horiz-adv-x="1212" 
d="M928 0l-2 197q-60 -98 -157 -160t-228 -62q-162 0 -257.5 99t-95.5 284v709h93v-692q0 -156 73.5 -235t200.5 -79q73 0 137.5 25.5t109 67.5t74 83.5t46.5 84.5v745h92v-1067h-86zM541 -334v144h123v-144h-123z" />
    <glyph glyph-name="uni1EE6" unicode="&#x1ee6;" horiz-adv-x="1507" 
d="M768 1630l-53 53q112 56 157.5 99.5t45.5 107.5q0 61 -38 99.5t-122 38.5q-109 0 -199 -72l-20 74q102 73 225 73q106 0 171.5 -53t65.5 -154q0 -90 -57 -148.5t-176 -117.5zM211 565v955h92v-959q0 -248 116.5 -375t334.5 -127q219 0 335.5 127t116.5 375v959h92v-955
q0 -286 -138.5 -440t-405.5 -154q-268 0 -405.5 154t-137.5 440z" />
    <glyph glyph-name="uni1EE7" unicode="&#x1ee7;" horiz-adv-x="1212" 
d="M616 1212l-53 54q112 56 157.5 100t45.5 109q0 60 -37 97.5t-119 37.5q-112 0 -202 -72l-21 74q104 74 225 74q106 0 172 -53.5t66 -153.5q0 -90 -57.5 -149t-176.5 -118zM928 0l-2 197q-60 -98 -157 -160t-228 -62q-162 0 -257.5 99t-95.5 284v709h93v-692
q0 -156 73.5 -235t200.5 -79q73 0 137.5 25.5t109 67.5t74 83.5t46.5 84.5v745h92v-1067h-86z" />
    </font>
</defs>
</svg>
