<?xml version="1.0" standalone="no"?>
<!DOCTYPE svg PUBLIC "-//W3C//DTD SVG 1.1//EN" "http://www.w3.org/Graphics/SVG/1.1/DTD/svg11.dtd" >
<svg xmlns="http://www.w3.org/2000/svg" xmlns:xlink="http://www.w3.org/1999/xlink" version="1.1">
<metadata>
Created by FontForge 20170731 at Tue Jul 21 14:26:16 2020
 By Aleksey,,,
Copyright (c) 2018 by Morisawa In.. All rights reserved.
</metadata>
<defs>
<font id="ClarimoUDPE-Medium" horiz-adv-x="1290" >
  <font-face 
    font-family="Clarimo UD PE Medium"
    font-weight="500"
    font-stretch="normal"
    units-per-em="2048"
    panose-1="2 11 6 0 0 0 0 0 0 0"
    ascent="1593"
    descent="-455"
    x-height="1098"
    cap-height="1520"
    bbox="-485 -582 2781 2404"
    underline-thickness="102"
    underline-position="-409"
    unicode-range="U+0020-FB04"
  />
<missing-glyph horiz-adv-x="1024" 
d="M0 0v1434h1024v-1434h-1024zM512 809l348 522h-696zM573 717l349 -522v1044zM164 102h696l-348 523zM102 1239v-1044l349 522z" />
    <glyph glyph-name=".notdef" horiz-adv-x="1024" 
d="M0 0v1434h1024v-1434h-1024zM512 809l348 522h-696zM573 717l349 -522v1044zM164 102h696l-348 523zM102 1239v-1044l349 522z" />
    <glyph glyph-name=".null" horiz-adv-x="0" 
 />
    <glyph glyph-name="nonmarkingreturn" horiz-adv-x="682" 
 />
    <glyph glyph-name="space" unicode=" " horiz-adv-x="509" 
 />
    <glyph glyph-name="space" unicode="&#xa0;" horiz-adv-x="509" 
 />
    <glyph glyph-name="exclam" unicode="!" horiz-adv-x="751" 
d="M287 432l-49 1051v37h278v-37l-49 -1051h-180zM244 0v264h266v-264h-266z" />
    <glyph glyph-name="quotedbl" unicode="&#x22;" horiz-adv-x="1005" 
d="M639 963l-47 626v4h258v-4l-49 -626h-162zM203 963l-47 626v4h258v-4l-49 -626h-162z" />
    <glyph glyph-name="numbersign" unicode="#" horiz-adv-x="1423" 
d="M735 0l70 414h-301l-70 -414h-178l70 414h-256v176h284l58 340h-265v176h293l70 414h178l-70 -414h302l69 414h180l-69 -414h256v-176h-285l-57 -340h264v-176h-293l-70 -414h-180zM532 590h302l57 340h-301z" />
    <glyph glyph-name="dollar" unicode="$" 
d="M1163 424q0 -178 -111 -288.5t-327 -131.5v-205h-152v203q-261 11 -467 156l58 217q95 -75 191 -119.5t218 -52.5v473q-53 15 -92 28t-87.5 34t-83 43t-69.5 54t-57 69t-35.5 86.5t-13.5 107.5q0 173 112.5 286.5t325.5 131.5v200h152v-198q223 -15 377 -125l-51 -217
q-159 121 -326 139v-461q84 -25 141.5 -47.5t118 -58t96.5 -78t59 -105t23 -141.5zM350 1112q0 -87 54.5 -132.5t168.5 -82.5v418q-117 -13 -170 -68t-53 -135zM948 418q0 87 -53.5 132.5t-169.5 80.5v-424q223 28 223 211z" />
    <glyph glyph-name="percent" unicode="%" horiz-adv-x="1990" 
d="M430 618q-166 0 -262 120.5t-96 342.5t96 342.5t262 120.5q167 0 264 -120.5t97 -342.5t-97 -342.5t-264 -120.5zM352 0l1086 1520h202l-1085 -1520h-203zM430 774q166 0 166 307q0 308 -166 308q-164 0 -164 -308q0 -307 164 -307zM1559 -20q-166 0 -262.5 120
t-96.5 342t96.5 342.5t262.5 120.5q167 0 263.5 -120.5t96.5 -342.5t-96.5 -342t-263.5 -120zM1559 135q165 0 165 307q0 308 -165 308q-164 0 -164 -308q0 -307 164 -307z" />
    <glyph glyph-name="ampersand" unicode="&#x26;" horiz-adv-x="1482" 
d="M1194 0l-170 180q-85 -97 -192 -153t-257 -56q-222 0 -349.5 117t-127.5 301q0 75 23.5 139t70 115.5t102.5 92t132 79.5q-103 116 -145.5 198.5t-42.5 174.5q0 164 109.5 262t295.5 98q179 0 287 -93t108 -251q0 -131 -75 -227t-226 -176l281 -297q73 136 127 346
l203 -109q-76 -207 -193 -381l342 -360h-303zM471 1190q0 -62 34.5 -122t125.5 -155q180 108 180 267q0 83 -47 129.5t-127 46.5q-76 0 -121 -44.5t-45 -121.5zM342 418q0 -113 75.5 -176.5t198.5 -63.5q89 0 152 35.5t123 108.5l-354 374q-97 -58 -146 -123t-49 -155z" />
    <glyph glyph-name="quotesingle" unicode="'" horiz-adv-x="569" 
d="M203 963l-47 626v4h258v-4l-49 -626h-162z" />
    <glyph glyph-name="parenleft" unicode="(" horiz-adv-x="892" 
d="M682 -391q-246 171 -386 433t-140 585t140 585t386 433l121 -138q-201 -155 -312.5 -379t-111.5 -501t111.5 -501.5t312.5 -379.5z" />
    <glyph glyph-name="parenright" unicode=")" horiz-adv-x="892" 
d="M211 1645q246 -171 386 -433t140 -585t-140 -585t-386 -433l-121 137q201 155 312.5 379.5t111.5 501.5t-111.5 501t-312.5 379z" />
    <glyph glyph-name="asterisk" unicode="*" horiz-adv-x="1165" 
d="M938 836l-176 -129l-180 319l-179 -319l-178 129l248 268l-358 70l69 210l332 -153l-43 362h219l-43 -362l332 153l70 -210l-361 -70z" />
    <glyph glyph-name="plus" unicode="+" 
d="M1186 522h-447v-473h-188v473h-447v191h447v471h188v-471h447v-191z" />
    <glyph glyph-name="comma" unicode="," horiz-adv-x="598" 
d="M238 -332l-203 29q145 234 145 506q0 50 -6 110h248q8 -64 8 -118q0 -142 -50.5 -280t-141.5 -247z" />
    <glyph glyph-name="hyphen" unicode="-" horiz-adv-x="950" 
d="M137 508v217h676v-217h-676z" />
    <glyph glyph-name="hyphen" unicode="&#xad;" horiz-adv-x="950" 
d="M137 508v217h676v-217h-676z" />
    <glyph glyph-name="period" unicode="." horiz-adv-x="598" 
d="M154 0v311h290v-311h-290z" />
    <glyph glyph-name="slash" unicode="/" horiz-adv-x="911" 
d="M-66 -340l725 1933h218l-725 -1933h-218z" />
    <glyph glyph-name="zero" unicode="0" 
d="M645 -25q-256 0 -399.5 204t-143.5 581t143.5 580.5t399.5 203.5t399.5 -203.5t143.5 -580.5t-143.5 -581t-399.5 -204zM645 180q293 0 293 580q0 579 -293 579t-293 -579q0 -580 293 -580z" />
    <glyph glyph-name="one" unicode="1" 
d="M1143 197v-197h-873v197h324v1013q-151 -129 -313 -209l-109 183q274 137 481 344h174v-1331h316z" />
    <glyph glyph-name="two" unicode="2" 
d="M1147 215v-215h-1010v186l453 437q68 66 105.5 104t79 86.5t61 85.5t32.5 81t13 91q0 124 -71 194t-192 70q-111 0 -203.5 -63.5t-160.5 -177.5l-107 190q85 130 215 197t287 67q218 0 349.5 -124t131.5 -330q0 -71 -17.5 -134.5t-45 -115.5t-82 -115.5t-106 -114
t-140.5 -131.5l-295 -268h703z" />
    <glyph glyph-name="three" unicode="3" 
d="M1159 420q0 -211 -151.5 -330t-409.5 -119q-279 0 -467 133l45 228q171 -148 414 -148q152 0 235.5 62t83.5 184q0 58 -20 102t-65 77.5t-122.5 51t-187.5 17.5h-162v194h152q172 0 268 65t96 189q0 100 -66.5 154.5t-191.5 54.5q-210 0 -362 -155l-94 190
q192 178 487 178q226 0 351.5 -101t125.5 -282q0 -143 -78 -238.5t-221 -135.5q165 -32 252.5 -121.5t87.5 -249.5z" />
    <glyph glyph-name="four" unicode="4" 
d="M1221 350h-220v-350h-229v350h-711v201l689 981h251v-975h220v-207zM285 557h487v698z" />
    <glyph glyph-name="five" unicode="5" 
d="M1159 463q0 -238 -147.5 -365t-407.5 -127q-136 0 -256.5 35t-208.5 98l45 228q168 -148 410 -148q315 0 315 269q0 132 -89.5 200t-305.5 68q-162 0 -281 -33v832h857v-215h-646v-392q94 11 181 11q255 0 394.5 -116.5t139.5 -344.5z" />
    <glyph glyph-name="six" unicode="6" 
d="M1204 498q0 -149 -63 -268t-185 -189t-282 -70q-266 0 -413.5 193t-147.5 551q0 396 184.5 614.5t542.5 218.5q150 0 250 -35l-21 -215q-103 41 -229 41q-233 0 -346 -132.5t-129 -391.5q162 162 372 162t338.5 -132.5t128.5 -346.5zM676 782q-103 0 -182.5 -43
t-131.5 -112q12 -225 91.5 -338t220.5 -113q132 0 206 88.5t74 229.5q0 137 -72 212.5t-206 75.5z" />
    <glyph glyph-name="seven" unicode="7" 
d="M1225 1333q-239 -271 -389.5 -614.5t-202.5 -718.5h-266q100 736 571 1305h-797v215h1084v-187z" />
    <glyph glyph-name="eight" unicode="8" 
d="M1188 391q0 -199 -149 -313.5t-400 -114.5q-247 0 -392 109.5t-145 294.5q0 136 83 237.5t235 163.5q-61 31 -107 64t-86 78.5t-61 105.5t-21 133q0 130 68 223.5t181 138.5t257 45q119 0 215 -32t156 -86t91.5 -123.5t31.5 -147.5q0 -116 -70 -214.5t-213 -149.5
q72 -33 124.5 -66.5t101.5 -82.5t74.5 -115t25.5 -148zM389 1153q0 -42 16 -78.5t41 -63t67 -52.5t80.5 -44t94.5 -41q213 93 213 271q0 103 -71.5 158t-186.5 55q-117 0 -185.5 -56t-68.5 -149zM346 391q0 -106 80.5 -167.5t218.5 -61.5q145 0 222 64.5t77 164.5
q0 33 -11 63.5t-25.5 53t-45.5 46.5t-53 38.5t-67.5 36t-70 31.5t-77.5 32q-128 -52 -188 -133.5t-60 -167.5z" />
    <glyph glyph-name="nine" unicode="9" 
d="M1192 836q0 -262 -80 -454.5t-245.5 -301.5t-403.5 -109q-140 0 -250 31l20 215q116 -37 224 -37q423 0 479 498q-150 -135 -348 -135q-219 0 -354.5 133t-135.5 354q0 227 147 372.5t392 145.5q95 0 176.5 -23.5t152 -77t120 -135t78 -202.5t28.5 -274zM348 1032
q0 -140 79.5 -217.5t219.5 -77.5q183 0 297 131q-4 253 -83.5 364t-223.5 111q-135 0 -212 -86.5t-77 -224.5z" />
    <glyph glyph-name="colon" unicode=":" horiz-adv-x="802" 
d="M256 786v312h291v-312h-291zM256 0v311h291v-311h-291z" />
    <glyph glyph-name="semicolon" unicode=";" horiz-adv-x="802" 
d="M256 786v312h291v-312h-291zM340 -332l-203 29q146 235 146 506q0 40 -7 110h248q8 -64 8 -118q0 -142 -50.5 -280t-141.5 -247z" />
    <glyph glyph-name="less" unicode="&#x3c;" 
d="M1116 274v-211l-971 476v155l971 475v-211l-735 -342z" />
    <glyph glyph-name="equal" unicode="=" 
d="M129 739v191h1032v-191h-1032zM129 305v191h1032v-191h-1032z" />
    <glyph glyph-name="greater" unicode="&#x3e;" 
d="M1145 539l-971 -476v211l735 342l-735 342v211l971 -475v-155z" />
    <glyph glyph-name="question" unicode="?" horiz-adv-x="1138" 
d="M381 432v100q0 58 14 105.5t32.5 77.5t54 59t60.5 43.5t70 38.5q37 20 57.5 32t49.5 35t44 46t26.5 58t11.5 77q0 117 -73 173t-181 56q-107 0 -188.5 -52t-151.5 -148l-105 194q174 221 471 221q102 0 189.5 -27.5t154.5 -80t105.5 -137t38.5 -191.5q0 -50 -9.5 -94.5
t-22 -77t-37.5 -63.5t-44.5 -51t-55 -43.5t-56.5 -36t-60 -33.5q-44 -24 -67.5 -39t-51.5 -40t-40.5 -53.5t-12.5 -64.5v-84h-223zM360 0v264h267v-264h-267z" />
    <glyph glyph-name="at" unicode="@" horiz-adv-x="2170" 
d="M1784 -164q-289 -217 -676 -217q-222 0 -401.5 69t-297.5 191.5t-181.5 291.5t-63.5 370q0 214 72 401t199.5 322.5t313 213.5t402.5 78q188 0 347 -58t272.5 -163t177 -258.5t63.5 -337.5q0 -154 -45 -282.5t-118 -209.5t-163 -125t-184 -44q-105 0 -170 53.5t-65 155.5
q-56 -103 -142.5 -156t-189.5 -53q-149 0 -239.5 104.5t-90.5 306.5q0 173 68 318.5t180 228t240 82.5q89 0 151.5 -39t93.5 -98l45 109h185l-129 -646q-13 -60 -13 -90q0 -116 101 -116q59 0 115 33t102 93.5t74 156.5t28 210q0 303 -189 485.5t-507 182.5q-185 0 -340 -66
t-259.5 -181t-162 -272.5t-57.5 -338.5q0 -168 50.5 -307.5t147 -241.5t247 -158.5t341.5 -56.5q363 0 633 215zM821 492q0 -68 16.5 -116.5t43.5 -71.5t53 -32.5t53 -9.5q94 0 164 96t102 254l41 203q-70 119 -184 119q-89 0 -157 -71.5t-100 -170.5t-32 -200z" />
    <glyph glyph-name="A" unicode="A" horiz-adv-x="1482" 
d="M1184 0l-137 387h-621l-137 -387h-260l569 1520h287l567 -1520h-268zM498 592h477l-238 676z" />
    <glyph glyph-name="B" unicode="B" horiz-adv-x="1429" 
d="M1325 424q0 -94 -30 -167.5t-80.5 -121t-121.5 -78.5t-148 -44t-165 -13h-592v1520h562q252 0 377.5 -99.5t125.5 -292.5q0 -261 -237 -333q309 -69 309 -371zM729 1313h-301v-443h297q130 0 201 51.5t71 174.5q0 119 -66.5 168t-201.5 49zM428 684v-477h336
q55 0 98.5 6.5t83 22.5t65.5 42.5t41 68t15 97.5q0 129 -76 184.5t-221 55.5h-342z" />
    <glyph glyph-name="C" unicode="C" horiz-adv-x="1427" 
d="M1343 135q-194 -164 -499 -164q-339 0 -538.5 210t-199.5 579q0 186 53.5 335t151 248.5t235.5 152t306 52.5q289 0 471 -147l-61 -234q-172 162 -402 162q-235 0 -364 -150.5t-129 -416.5q0 -277 136 -424.5t359 -147.5q134 0 241.5 49t182.5 123z" />
    <glyph glyph-name="D" unicode="D" horiz-adv-x="1562" 
d="M1456 758q0 -191 -54 -336.5t-156.5 -237.5t-245 -138t-324.5 -46h-488v1520h490q167 0 299 -38t221 -105t147.5 -163.5t84.5 -209t26 -246.5zM670 1311h-238v-1102h244q520 0 520 549q0 124 -27.5 221t-87.5 173.5t-164 117.5t-247 41z" />
    <glyph glyph-name="E" unicode="E" horiz-adv-x="1304" 
d="M1188 213v-213h-1000v1520h983v-211h-739v-408h658v-209h-658v-479h756z" />
    <glyph glyph-name="F" unicode="F" horiz-adv-x="1200" 
d="M1038 647h-606v-647h-244v1520h955v-211h-711v-451h606v-211z" />
    <glyph glyph-name="G" unicode="G" horiz-adv-x="1576" 
d="M1425 127q-85 -66 -237.5 -111t-323.5 -45q-358 0 -558 208.5t-200 580.5q0 375 206 581.5t569 206.5q165 0 297 -40.5t215 -106.5l-62 -234q-187 162 -446 162q-257 0 -387.5 -149.5t-130.5 -419.5q0 -279 135 -424.5t391 -145.5q158 0 307 56v375h-383v204h608v-698z
" />
    <glyph glyph-name="H" unicode="H" horiz-adv-x="1572" 
d="M1141 0v690h-709v-690h-244v1520h244v-617h709v617h243v-1520h-243z" />
    <glyph glyph-name="I" unicode="I" horiz-adv-x="620" 
d="M188 0v1520h244v-1520h-244z" />
    <glyph glyph-name="J" unicode="J" horiz-adv-x="872" 
d="M0 6l12 221q91 -41 207 -41q125 0 180.5 70t55.5 252v1012h243v-1016q0 -147 -31.5 -251t-93.5 -165.5t-145.5 -89t-196.5 -27.5q-146 0 -231 35z" />
    <glyph glyph-name="K" unicode="K" horiz-adv-x="1437" 
d="M1122 0l-542 684l-148 -147v-537h-244v1520h244v-707l668 707h315v-4l-674 -670l693 -842v-4h-312z" />
    <glyph glyph-name="L" unicode="L" horiz-adv-x="1165" 
d="M1139 213v-213h-951v1520h244v-1307h707z" />
    <glyph glyph-name="M" unicode="M" horiz-adv-x="1998" 
d="M913 0l-497 1235v-1235h-228v1520h351l460 -1145l461 1145h350v-1520h-237v1235l-498 -1235h-162z" />
    <glyph glyph-name="N" unicode="N" horiz-adv-x="1615" 
d="M1184 0l-766 1133v-1133h-230v1520h242l766 -1131v1131h231v-1520h-243z" />
    <glyph glyph-name="O" unicode="O" horiz-adv-x="1624" 
d="M811 -29q-155 0 -285 54.5t-223 154.5t-145 249t-52 331t52 331t145 249t223 154t285 54t285.5 -54t223.5 -154t144.5 -249t51.5 -331q0 -243 -89.5 -422.5t-248.5 -273t-367 -93.5zM811 190q209 0 326.5 152t117.5 418q0 263 -118 416t-326 153q-207 0 -325.5 -152
t-118.5 -417q0 -262 119 -416t325 -154z" />
    <glyph glyph-name="P" unicode="P" horiz-adv-x="1366" 
d="M432 504v-504h-244v1520h527q288 0 436.5 -129t148.5 -375q0 -118 -34.5 -209t-90 -147t-134.5 -92t-160 -50t-174 -14h-275zM698 1311h-266v-598h262q57 0 104.5 7t94.5 27t79 52t52 86t20 125q0 301 -346 301z" />
    <glyph glyph-name="Q" unicode="Q" horiz-adv-x="1624" 
d="M1526 -356q-140 -64 -266 -64q-174 0 -309.5 103t-229.5 292q-280 31 -447.5 239.5t-167.5 545.5q0 182 52 331t145 249t223 154t285 54t285.5 -54t223.5 -154t144.5 -249t51.5 -331q0 -323 -154 -527.5t-414 -248.5q54 -83 142.5 -133t205.5 -50q99 0 215 43zM811 190
q209 0 326.5 152t117.5 418q0 263 -118 416t-326 153q-207 0 -325.5 -152t-118.5 -417q0 -262 119 -416t325 -154z" />
    <glyph glyph-name="R" unicode="R" horiz-adv-x="1443" 
d="M432 561v-561h-244v1520h517q278 0 424.5 -122t146.5 -354q0 -79 -18 -146.5t-48 -115t-72 -86t-85.5 -62t-94.5 -40.5l445 -594h-295l-399 561h-277zM680 1311h-248v-547h281q41 0 79 5.5t81.5 23.5t75 46.5t52.5 79.5t21 119q0 273 -342 273z" />
    <glyph glyph-name="S" unicode="S" horiz-adv-x="1263" 
d="M92 123l60 231q226 -166 475 -166q150 0 222.5 55t72.5 152q0 33 -8.5 60t-22 48t-39.5 40t-49 32.5t-64.5 29t-73 26t-85.5 26.5q-56 17 -90 28t-87.5 33.5t-86.5 43.5t-72.5 56t-61.5 74t-37.5 93.5t-15.5 118.5q0 200 137 322t398 122q270 0 442 -121l-55 -231
q-179 135 -394 135q-146 0 -213 -56t-67 -147q0 -44 14.5 -77.5t43 -57.5t69.5 -43.5t94.5 -38t116.5 -37.5h2q41 -13 65.5 -20.5t64 -22t64 -26.5t58.5 -29.5t56 -36.5t47.5 -43.5t41.5 -53t30 -62t20.5 -74t6.5 -86.5q0 -210 -140 -329.5t-413 -119.5q-308 0 -526 152z
" />
    <glyph glyph-name="T" unicode="T" horiz-adv-x="1234" 
d="M1214 1309h-475v-1309h-243v1309h-473v211h1191v-211z" />
    <glyph glyph-name="U" unicode="U" horiz-adv-x="1552" 
d="M172 598v922h246v-924q0 -198 93 -302t267 -104t267.5 104t93.5 302v924h239v-922q0 -304 -153.5 -465.5t-452.5 -161.5q-298 0 -449 161t-151 466z" />
    <glyph glyph-name="V" unicode="V" horiz-adv-x="1449" 
d="M1411 1520l-549 -1520h-274l-549 1520h272l420 -1241l420 1241h260z" />
    <glyph glyph-name="W" unicode="W" horiz-adv-x="2222" 
d="M1444 0l-332 1186l-336 -1186h-274l-451 1520h273l327 -1231l342 1231h252l342 -1233l324 1233h260l-455 -1520h-272z" />
    <glyph glyph-name="X" unicode="X" horiz-adv-x="1402" 
d="M1065 0l-377 590l-364 -590h-281l514 768l-496 752h295l357 -568l346 568h280l-497 -740l518 -780h-295z" />
    <glyph glyph-name="Y" unicode="Y" horiz-adv-x="1312" 
d="M1303 1520l-525 -938v-582h-243v578l-523 942h281l369 -719l368 719h273z" />
    <glyph glyph-name="Z" unicode="Z" horiz-adv-x="1370" 
d="M1274 213v-213h-1182v199l852 1110h-815v211h1124v-191l-856 -1116h877z" />
    <glyph glyph-name="bracketleft" unicode="[" horiz-adv-x="892" 
d="M233 -340v1933h535v-163h-319v-1606h319v-164h-535z" />
    <glyph glyph-name="backslash" unicode="\" horiz-adv-x="911" 
d="M977 -340h-215l-725 1933h215z" />
    <glyph glyph-name="bracketright" unicode="]" horiz-adv-x="892" 
d="M659 1593v-1933h-534v164h319v1606h-319v163h534z" />
    <glyph glyph-name="asciicircum" unicode="^" horiz-adv-x="1054" 
d="M791 762l-265 538l-262 -538h-201l388 758h153l387 -758h-200z" />
    <glyph glyph-name="underscore" unicode="_" horiz-adv-x="1310" 
d="M31 -319v180h1249v-180h-1249z" />
    <glyph glyph-name="grave" unicode="`" horiz-adv-x="1024" 
d="M524 1221l-325 387l221 94l242 -424z" />
    <glyph glyph-name="a" unicode="a" horiz-adv-x="1185" 
d="M817 0l-4 145q-135 -170 -356 -170q-163 0 -260 89t-97 249q0 183 139 273t423 90h139v41q0 107 -53.5 158t-186.5 51q-196 0 -352 -113l-41 195q160 114 422 114q235 0 339.5 -100t104.5 -289v-733h-217zM518 166q97 0 171 47.5t112 120.5v182h-115q-184 0 -269 -45
t-85 -145q0 -79 48.5 -119.5t137.5 -40.5z" />
    <glyph glyph-name="b" unicode="b" horiz-adv-x="1308" 
d="M1217 563q0 -273 -139.5 -430.5t-372.5 -157.5q-202 0 -328 142l-8 -117h-209v1593h233v-639q145 168 357 168q210 0 338.5 -150t128.5 -409zM393 297q43 -60 111 -92.5t153 -32.5q150 0 235 101.5t85 281.5q0 175 -79.5 266.5t-211.5 91.5q-93 0 -170.5 -43.5
t-122.5 -119.5v-453z" />
    <glyph glyph-name="c" unicode="c" horiz-adv-x="1083" 
d="M1012 96q-148 -121 -377 -121q-252 0 -399.5 151t-147.5 417q0 271 151.5 425t405.5 154q224 0 356 -118l-51 -199q-112 117 -291 117q-156 0 -242.5 -99t-86.5 -274q0 -178 88 -276.5t250 -98.5q163 0 301 119z" />
    <glyph glyph-name="d" unicode="d" horiz-adv-x="1308" 
d="M932 0l-4 141q-134 -166 -350 -166q-218 0 -352 153.5t-134 414.5q0 264 139 421.5t373 157.5q188 0 311 -123v594h234v-1593h-217zM332 545q0 -177 83 -270t222 -93q98 0 171 43.5t107 112.5v459q-92 127 -264 127q-152 0 -235.5 -100t-83.5 -279z" />
    <glyph glyph-name="e" unicode="e" horiz-adv-x="1198" 
d="M1085 98q-74 -52 -185 -87.5t-247 -35.5q-276 0 -420.5 148.5t-144.5 413.5q0 270 142 427.5t391 157.5q129 0 224.5 -42.5t150 -117t80.5 -164.5t26 -196v-113h-776q16 -317 356 -317q109 0 193.5 30.5t168.5 92.5zM623 940q-121 0 -201.5 -74.5t-93.5 -214.5h546v17
q0 55 -13 101.5t-41.5 86t-78.5 62t-118 22.5z" />
    <glyph glyph-name="f" unicode="f" horiz-adv-x="768" 
d="M223 0v920h-184v178h184v106q0 99 24 173.5t62 118t93 71t108.5 36.5t116.5 9q94 0 176 -19l-17 -204q-75 22 -159 22q-92 0 -131 -44.5t-39 -160.5v-108h286v-178h-286v-920h-234z" />
    <glyph glyph-name="g" unicode="g" horiz-adv-x="1249" 
d="M1169 -111q0 -174 -153 -275t-447 -101q-270 0 -399 83t-129 218q0 87 54.5 153.5t170.5 95.5q-98 52 -98 166q0 133 147 189q-91 47 -141.5 128.5t-50.5 192.5q0 183 131 283t338 100q161 0 276 -59l334 55h10v-194l-196 4q47 -80 47 -189q0 -182 -131 -282.5
t-340 -100.5q-64 0 -131 13q-42 -3 -65 -25.5t-23 -60.5q0 -83 102 -88l334 -17q185 -9 272.5 -84.5t87.5 -204.5zM594 526q113 0 175 55t62 156q0 103 -62.5 159t-176.5 56q-113 0 -175.5 -54.5t-62.5 -156.5q0 -101 63 -158t177 -57zM270 -145q0 -81 76.5 -122.5
t245.5 -41.5q350 0 350 174q0 51 -40 81t-146 36l-371 18q-55 -17 -85 -54.5t-30 -90.5z" />
    <glyph glyph-name="h" unicode="h" horiz-adv-x="1265" 
d="M393 715v-715h-233v1593h233v-651q134 180 355 180q174 0 270 -107t96 -302v-713h-233v662q0 251 -203 251q-96 0 -171.5 -52t-113.5 -146z" />
    <glyph glyph-name="i" unicode="i" horiz-adv-x="561" 
d="M150 1307v239h262v-239h-262zM164 0v1098h233v-1098h-233z" />
    <glyph glyph-name="j" unicode="j" horiz-adv-x="577" 
d="M168 1307v239h264v-239h-264zM-137 -446l20 206q54 -26 133 -26q87 0 126.5 50.5t39.5 176.5v1137h234v-1121q0 -239 -97.5 -343.5t-277.5 -104.5q-113 0 -178 25z" />
    <glyph glyph-name="k" unicode="k" horiz-adv-x="1179" 
d="M891 0l-377 479l-121 -119v-360h-233v1593h233v-993l447 498h293v-4l-467 -463l518 -627v-4h-293z" />
    <glyph glyph-name="l" unicode="l" horiz-adv-x="561" 
d="M164 0v1593h233v-1593h-233z" />
    <glyph glyph-name="m" unicode="m" horiz-adv-x="1955" 
d="M393 715v-715h-233v1098h217l4 -172q141 196 356 196q118 0 202.5 -54t123.5 -157q139 211 379 211q172 0 267 -107t95 -302v-713h-233v662q0 251 -195 251q-94 0 -166.5 -55t-109.5 -143v-715h-234v662q0 251 -194 251q-95 0 -168.5 -55t-110.5 -143z" />
    <glyph glyph-name="n" unicode="n" horiz-adv-x="1265" 
d="M393 715v-715h-233v1098h217l4 -172q138 196 367 196q174 0 270 -107t96 -302v-713h-233v662q0 251 -203 251q-96 0 -171.5 -52t-113.5 -146z" />
    <glyph glyph-name="o" unicode="o" horiz-adv-x="1249" 
d="M625 -25q-236 0 -386.5 152.5t-150.5 421.5q0 135 41 244t113 180.5t170 110t213 38.5t212.5 -38.5t169.5 -110t113 -180.5t41 -244q0 -269 -150 -421.5t-386 -152.5zM625 172q137 0 217 100.5t80 276.5t-80 275.5t-217 99.5t-216 -99.5t-79 -275.5t79 -276.5t216 -100.5
z" />
    <glyph glyph-name="p" unicode="p" horiz-adv-x="1308" 
d="M707 -25q-187 0 -314 115v-539h-233v1547h217l6 -158q137 182 369 182q208 0 336.5 -150.5t128.5 -408.5q0 -271 -139.5 -429.5t-370.5 -158.5zM393 739v-454q46 -54 115 -83.5t147 -29.5q150 0 236 101t86 282q0 173 -79 265.5t-214 92.5q-95 0 -172.5 -45.5
t-118.5 -128.5z" />
    <glyph glyph-name="q" unicode="q" horiz-adv-x="1308" 
d="M1149 1098v-1547h-234v570q-136 -146 -340 -146q-216 0 -349.5 153.5t-133.5 414.5q0 264 138.5 421.5t373.5 157.5q110 0 187.5 -36.5t138.5 -108.5l10 121h209zM332 547q0 -179 83 -272t220 -93q90 0 163 37.5t117 102.5v462q-88 140 -262 140q-153 0 -237 -99
t-84 -278z" />
    <glyph glyph-name="r" unicode="r" horiz-adv-x="858" 
d="M393 657v-657h-233v1098h217l6 -209q102 229 313 229q85 0 131 -24l-18 -222q-66 25 -139 25q-102 0 -175 -57t-102 -183z" />
    <glyph glyph-name="s" unicode="s" horiz-adv-x="1030" 
d="M90 84l41 205q186 -123 383 -123t197 129q0 61 -48 89.5t-184 66.5q-49 14 -81.5 24.5t-74 27t-68.5 33.5t-55.5 42t-45 54t-27 67.5t-10.5 84.5q0 157 111.5 247.5t314.5 90.5q207 0 354 -88l-41 -203q-165 101 -315 101q-97 0 -146 -35.5t-49 -93.5q0 -44 32 -73
t69.5 -42t140.5 -41q4 -1 6 -2q66 -18 113 -35t94.5 -44t76.5 -60t47.5 -82t18.5 -111q0 -166 -118.5 -252t-327.5 -86q-238 0 -408 109z" />
    <glyph glyph-name="t" unicode="t" horiz-adv-x="845" 
d="M797 35q-107 -60 -250 -60q-150 0 -239 84t-89 267v594h-180v178h180v293l234 59v-352h335v-178h-335v-562q0 -93 36 -136.5t115 -43.5q80 0 168 55z" />
    <glyph glyph-name="u" unicode="u" horiz-adv-x="1265" 
d="M889 0l-4 170q-132 -195 -363 -195q-174 0 -272 108t-98 302v713h233v-664q0 -252 207 -252q107 0 178 60.5t102 144.5v711h234v-1098h-217z" />
    <glyph glyph-name="v" unicode="v" horiz-adv-x="1142" 
d="M1112 1098l-418 -1098h-245l-418 1098h262l287 -865l284 865h248z" />
    <glyph glyph-name="w" unicode="w" horiz-adv-x="1781" 
d="M1137 0l-244 813l-248 -813h-239l-361 1098h260l227 -846l248 846h236l246 -846l227 846h252l-363 -1098h-241z" />
    <glyph glyph-name="x" unicode="x" horiz-adv-x="1132" 
d="M815 0l-254 393l-260 -393h-258v4l391 553l-383 537v4h275l247 -383l246 383h258v-4l-383 -533l396 -557v-4h-275z" />
    <glyph glyph-name="y" unicode="y" horiz-adv-x="1159" 
d="M713 12q-56 -147 -110 -242.5t-112.5 -148t-116.5 -72.5t-136 -20q-89 0 -172 27l20 211q74 -29 141 -29q80 0 130.5 53t111.5 195l-432 1112h266l291 -865l287 865h247z" />
    <glyph glyph-name="z" unicode="z" horiz-adv-x="1036" 
d="M958 188v-188h-880v172l586 735h-560v191h842v-174l-590 -736h602z" />
    <glyph glyph-name="braceleft" unicode="{" horiz-adv-x="892" 
d="M768 -340h-166q-178 0 -273.5 79t-95.5 236q0 78 37 195q33 109 33 184q0 84 -46 130t-169 46h-61v193h61q123 0 169 46t46 130q0 75 -33 184q-37 117 -37 195q0 157 95.5 236t273.5 79h166v-163h-150q-88 0 -128.5 -44t-40.5 -116q0 -52 32 -158q35 -115 35 -197
q0 -130 -70.5 -204t-197.5 -80v-8q127 -6 197.5 -80t70.5 -205q0 -86 -35 -197q-32 -106 -32 -157q0 -72 40.5 -116t128.5 -44h150v-164z" />
    <glyph glyph-name="bar" unicode="|" horiz-adv-x="903" 
d="M348 -455v2048h207v-2048h-207z" />
    <glyph glyph-name="braceright" unicode="}" horiz-adv-x="892" 
d="M125 1593h166q178 0 273 -79t95 -236q0 -85 -36 -195q-33 -101 -33 -184q0 -84 46 -130t169 -46h61v-193h-61q-123 0 -169 -46t-46 -130q0 -83 33 -184q36 -110 36 -195q0 -157 -95 -236t-273 -79h-166v164h149q88 0 129 44t41 116q0 51 -32 157q-35 115 -35 197
q0 130 70.5 204.5t197.5 80.5v8q-127 6 -197.5 79.5t-70.5 204.5q0 82 35 197q32 106 32 158q0 72 -41 116t-129 44h-149v163z" />
    <glyph glyph-name="asciitilde" unicode="~" 
d="M297 416l-178 16q0 104 25.5 180t68.5 116.5t90 58.5t100 18q113 0 287 -103q136 -81 195 -81q108 0 108 198l178 -16q0 -104 -25.5 -180t-68 -116.5t-89.5 -58.5t-99 -18q-117 0 -289 102q-138 82 -194 82q-47 0 -78 -46t-31 -152z" />
    <glyph glyph-name="exclamdown" unicode="&#xa1;" horiz-adv-x="751" 
d="M508 1098v-264h-266v264h266zM465 666l49 -1051v-37h-278v37l49 1051h180z" />
    <glyph glyph-name="cent" unicode="&#xa2;" 
d="M1079 356q-148 -115 -344 -127v-258h-151v262q-211 28 -336 167t-125 362q0 221 125 361t336 173v256h151v-247q197 -7 332 -119l-51 -199q-115 110 -281 121v-686q85 4 156 36t145 95zM338 766q0 -129 64.5 -214.5t181.5 -115.5v662q-116 -29 -181 -116.5t-65 -215.5z
" />
    <glyph glyph-name="sterling" unicode="&#xa3;" 
d="M1196 215v-215h-1073v176q70 6 123.5 27t84 49t49.5 65t25.5 69.5t6.5 68.5q0 82 -50 204h-243v162h176q-49 134 -49 250q0 220 142 348.5t380 128.5q251 0 406 -155l-70 -209q-78 78 -152 116.5t-178 38.5q-135 0 -210 -67.5t-75 -204.5q0 -111 60 -246h422v-162h-357
q27 -86 27 -167q0 -175 -117 -277h672z" />
    <glyph glyph-name="currency" unicode="&#xa4;" 
d="M1157 375l-127 -127l-188 188q-85 -51 -197 -51q-111 0 -196 51l-189 -188l-127 127l189 188q-54 85 -54 197q0 111 54 196l-189 189l127 127l189 -189q87 52 196 52q110 0 197 -52l188 189l127 -127l-188 -189q53 -83 53 -196q0 -114 -53 -197zM645 555q89 0 141 55.5
t52 149.5t-52 149.5t-141 55.5q-90 0 -141 -55t-51 -150t51 -150t141 -55z" />
    <glyph glyph-name="yen" unicode="&#xa5;" 
d="M1141 276h-381v-276h-230v276h-380v162h380v168h-380v162h327l-426 752h273l329 -658l330 658h256l-428 -752h330v-162h-381v-168h381v-162z" />
    <glyph glyph-name="brokenbar" unicode="&#xa6;" horiz-adv-x="903" 
d="M348 825v768h207v-768h-207zM348 -455v768h207v-768h-207z" />
    <glyph glyph-name="section" unicode="&#xa7;" horiz-adv-x="1273" 
d="M1090 31q0 -173 -122 -276t-358 -103q-249 0 -428 129l54 205q92 -69 183 -105.5t204 -36.5q124 0 187.5 45.5t63.5 122.5q0 36 -16 65.5t-38 48t-66 37.5t-77 29t-95 27q-49 14 -81 23.5t-78.5 27.5t-76 36.5t-63.5 47t-53.5 61t-32.5 77.5t-13 98q0 207 172 295
q-159 95 -159 284q0 170 120 274.5t351 104.5q228 0 389 -102l-53 -205q-88 59 -169 87t-182 28q-124 0 -182.5 -46.5t-58.5 -119.5q0 -31 9 -55.5t30 -44t42.5 -33.5t60.5 -28.5t68 -23t80 -22.5q48 -13 82.5 -23.5t79.5 -28.5t76 -37t64 -47.5t52.5 -61.5t32.5 -77.5
t13 -97.5q0 -205 -172 -295q160 -96 160 -284zM700 406q23 -6 62 -19q129 59 129 180q0 33 -10 60.5t-32.5 49.5t-46 38t-64 31.5t-70.5 25.5t-82 25q-33 10 -64 18q-127 -59 -127 -180q0 -40 16.5 -72.5t41.5 -54.5t68 -42t81.5 -32t97.5 -28z" />
    <glyph glyph-name="dieresis" unicode="&#xa8;" horiz-adv-x="1024" 
d="M616 1307v239h238v-239h-238zM170 1307v239h238v-239h-238z" />
    <glyph glyph-name="copyright" unicode="&#xa9;" horiz-adv-x="1880" 
d="M940 -29q-164 0 -310.5 62t-251 167.5t-165.5 251t-61 308.5q0 162 61 308t165.5 251.5t251 167t310.5 61.5t311 -61.5t251.5 -167t165.5 -251.5t61 -308q0 -217 -103.5 -398t-285 -286t-400.5 -105zM940 96q184 0 334 88t234.5 240.5t84.5 335.5t-84.5 335t-234.5 240
t-334 88t-334 -88t-234.5 -240t-84.5 -335t84.5 -335.5t234.5 -240.5t334 -88zM1276 399q-126 -100 -311 -100q-204 0 -327.5 125t-123.5 336q0 214 126.5 337.5t334.5 123.5q179 0 291 -93l-45 -170q-91 91 -234 91q-130 0 -202 -78.5t-72 -208.5q0 -132 74 -211.5
t200 -79.5q141 0 248 96z" />
    <glyph glyph-name="ordfeminine" unicode="&#xaa;" horiz-adv-x="946" 
d="M633 750l-4 100q-90 -117 -246 -117q-118 0 -189 64.5t-71 177.5q0 254 399 254h92v26q0 66 -36 98.5t-119 32.5q-140 0 -256 -77l-33 159q119 80 311 80q326 0 326 -266v-532h-174zM436 889q62 0 107.5 26.5t70.5 69.5v119h-71q-230 0 -230 -117q0 -46 32 -72t91 -26z
M139 432v172h668v-172h-668z" />
    <glyph glyph-name="guillemotleft" unicode="&#xab;" horiz-adv-x="1406" 
d="M1217 197l-170 -115l-388 477v21l388 477l170 -115l-310 -373zM723 197l-170 -115l-387 477v21l387 477l170 -115l-309 -373z" />
    <glyph glyph-name="logicalnot" unicode="&#xac;" 
d="M1153 713v-535h-190v344h-826v191h1016z" />
    <glyph glyph-name="registered" unicode="&#xae;" horiz-adv-x="1335" 
d="M668 604q-156 0 -285 74.5t-203 203t-74 281.5q0 114 43.5 217.5t118 178.5t179 119t221.5 44q156 0 285.5 -75t202.5 -203t73 -281q0 -154 -73 -282t-202 -202.5t-286 -74.5zM668 711q190 0 317 130.5t127 321.5q0 190 -127.5 321.5t-316.5 131.5t-317 -131.5
t-128 -321.5q0 -191 127.5 -321.5t317.5 -130.5zM567 1063v-201h-135v613h240q120 0 181.5 -51t61.5 -148q0 -135 -116 -186l172 -228h-164l-143 201h-97zM567 1366v-197h99q43 0 74.5 22t31.5 79q0 53 -29.5 74.5t-87.5 21.5h-88z" />
    <glyph glyph-name="macron" unicode="&#xaf;" horiz-adv-x="1024" 
d="M178 1339v174h668v-174h-668z" />
    <glyph glyph-name="degree" unicode="&#xb0;" horiz-adv-x="921" 
d="M461 899q-155 0 -258 102.5t-103 253.5q0 152 102.5 255.5t258.5 103.5q155 0 257.5 -103.5t102.5 -255.5q0 -151 -102.5 -253.5t-257.5 -102.5zM461 1055q89 0 140.5 54t51.5 146q0 94 -51.5 148.5t-140.5 54.5q-90 0 -141.5 -54.5t-51.5 -148.5q0 -93 51.5 -146.5
t141.5 -53.5z" />
    <glyph glyph-name="plusminus" unicode="&#xb1;" 
d="M1161 727h-422v-426h-188v426h-422v191h422v428h188v-428h422v-191zM129 0v190h1032v-190h-1032z" />
    <glyph glyph-name="two.sups" unicode="&#xb2;" horiz-adv-x="788" 
d="M711 1006v-166h-635v155l256 224q98 84 136 132t38 105q0 60 -38 94.5t-99 34.5q-129 0 -219 -139l-78 145q53 73 137 113.5t186 40.5q137 0 222 -73t85 -199q0 -71 -29.5 -131t-80 -109.5t-141.5 -118.5l-144 -108h404z" />
    <glyph glyph-name="three.sups" unicode="&#xb3;" horiz-adv-x="784" 
d="M719 1090q0 -127 -97 -199t-260 -72q-180 0 -305 78l31 170q109 -88 256 -88q84 0 132 32t48 91q0 57 -51.5 86t-175.5 29h-107v141h99q100 0 155.5 32.5t55.5 90.5q0 49 -39 77.5t-107 28.5q-127 0 -223 -90l-63 148q120 100 319 100q145 0 226 -60t81 -169
q0 -82 -46 -137.5t-132 -78.5q203 -40 203 -210z" />
    <glyph glyph-name="acute" unicode="&#xb4;" horiz-adv-x="1024" 
d="M500 1221l-138 57l242 424l221 -94z" />
    <glyph glyph-name="uni00B5" unicode="&#xb5;" horiz-adv-x="1337" 
d="M588 -25q-130 0 -211 78l22 -502h-231v1547h233v-664q0 -252 207 -252q107 0 178.5 60.5t102.5 144.5v711h233v-772q0 -76 22 -107t73 -31q39 0 77 15v-199q-60 -18 -145 -18q-105 0 -163 41.5t-75 128.5q-128 -181 -323 -181z" />
    <glyph glyph-name="paragraph" unicode="&#xb6;" horiz-adv-x="1384" 
d="M809 1380v-1712h-156v869q-255 3 -399.5 126.5t-144.5 364.5q0 230 143.5 361t382.5 131h528v-1852h-153v1712h-201z" />
    <glyph glyph-name="periodcentered" unicode="&#xb7;" horiz-adv-x="649" 
d="M180 465v311h291v-311h-291z" />
    <glyph glyph-name="cedilla" unicode="&#xb8;" horiz-adv-x="1024" 
d="M760 -274q0 -101 -72 -161.5t-217 -60.5q-109 0 -211 35l41 158q82 -37 180 -37q105 0 105 70q0 34 -40 54.5t-167 47.5l76 180h118l-38 -82q70 -20 117 -44t69.5 -51.5t30.5 -52.5t8 -56z" />
    <glyph glyph-name="one.sups" unicode="&#xb9;" horiz-adv-x="632" 
d="M471 1720v-880h-184v659q-79 -64 -181 -115l-79 136q166 79 295 200h149z" />
    <glyph glyph-name="ordmasculine" unicode="&#xba;" horiz-adv-x="946" 
d="M473 733q-169 0 -275 108t-106 300t106 299.5t275 107.5t275 -107.5t106 -299.5t-106 -300t-275 -108zM473 899q85 0 134.5 63.5t49.5 178.5q0 113 -50 177t-134 64t-134 -64t-50 -177t50 -177.5t134 -64.5zM139 432v172h668v-172h-668z" />
    <glyph glyph-name="guillemotright" unicode="&#xbb;" horiz-adv-x="1406" 
d="M1241 559l-387 -477l-170 115l309 372l-309 373l170 115l387 -477v-21zM748 559l-388 -477l-170 115l310 372l-310 373l170 115l388 -477v-21z" />
    <glyph glyph-name="onequarter" unicode="&#xbc;" horiz-adv-x="1683" 
d="M471 1520v-881h-184v659q-75 -61 -181 -114l-79 135q164 78 295 201h149zM172 0l1085 1520h203l-1085 -1520h-203zM1638 180h-125v-184h-180v184h-426v164l398 549h208v-559h125v-154zM1071 334h262v360z" />
    <glyph glyph-name="onehalf" unicode="&#xbd;" horiz-adv-x="1781" 
d="M471 1520v-881h-184v659q-75 -61 -181 -114l-79 135q164 78 295 201h149zM172 0l1085 1520h203l-1085 -1520h-203zM1704 166v-166h-635v156l256 223q98 84 136 132t38 105q0 60 -38 94.5t-99 34.5q-129 0 -219 -139l-78 146q53 72 137.5 112.5t186.5 40.5q137 0 222 -73
t85 -199q0 -73 -31 -134t-80.5 -109t-140.5 -116l-144 -108h404z" />
    <glyph glyph-name="threequarters" unicode="&#xbe;" horiz-adv-x="1812" 
d="M719 889q0 -127 -97 -199t-260 -72q-180 0 -305 78l31 170q109 -88 256 -88q84 0 132 32t48 91q0 57 -51.5 86t-175.5 29h-107v141h99q100 0 155.5 32.5t55.5 90.5q0 49 -39 77.5t-107 28.5q-127 0 -223 -90l-63 148q120 100 319 100q145 0 226 -60t81 -169
q0 -82 -46 -137t-132 -78q203 -40 203 -211zM299 0l1085 1520h203l-1085 -1520h-203zM1767 180h-125v-184h-180v184h-426v164l398 549h208v-559h125v-154zM1200 334h262v360z" />
    <glyph glyph-name="questiondown" unicode="&#xbf;" horiz-adv-x="1138" 
d="M803 1098v-264h-266v264h266zM782 666v-101q0 -42 -7.5 -78t-17.5 -63t-29.5 -52t-35.5 -40.5t-44.5 -34t-46 -28.5t-50.5 -27q-37 -20 -57.5 -32t-49.5 -35t-44 -46t-26.5 -58t-11.5 -77q0 -117 73 -173.5t181 -56.5q195 0 340 201l105 -194q-175 -222 -471 -222
q-137 0 -245.5 47t-175.5 147.5t-67 242.5q0 50 9.5 94.5t22 77t37.5 63.5t44.5 51t55 43.5t56.5 36t60 33.5q44 24 67.5 39t51.5 40t40.5 53.5t12.5 64.5v84h223z" />
    <glyph glyph-name="Agrave" unicode="&#xc0;" horiz-adv-x="1482" 
d="M813 1630l-414 266l217 132l322 -320zM1184 0l-137 387h-621l-137 -387h-260l569 1520h287l567 -1520h-268zM498 592h477l-238 676z" />
    <glyph glyph-name="Aacute" unicode="&#xc1;" horiz-adv-x="1482" 
d="M670 1630l-125 78l321 320l217 -132zM1184 0l-137 387h-621l-137 -387h-260l569 1520h287l567 -1520h-268zM498 592h477l-238 676z" />
    <glyph glyph-name="Acircumflex" unicode="&#xc2;" horiz-adv-x="1482" 
d="M1143 1679l-211 -41l-191 222l-190 -222l-211 41l305 314h193zM1184 0l-137 387h-621l-137 -387h-260l569 1520h287l567 -1520h-268zM498 592h477l-238 676z" />
    <glyph glyph-name="Atilde" unicode="&#xc3;" horiz-adv-x="1482" 
d="M471 1642l-164 15q0 158 68 236.5t178 78.5q111 0 215 -74q89 -63 147 -63q97 0 97 152l164 -15q0 -158 -68 -236.5t-178 -78.5q-61 0 -110 19.5t-105 54.5q-41 25 -59 35.5t-42 19t-47 8.5q-96 0 -96 -152zM1184 0l-137 387h-621l-137 -387h-260l569 1520h287l567 -1520
h-268zM498 592h477l-238 676z" />
    <glyph glyph-name="Adieresis" unicode="&#xc4;" horiz-adv-x="1482" 
d="M848 1694v241h239v-241h-239zM395 1694v241h240v-241h-240zM1184 0l-137 387h-621l-137 -387h-260l569 1520h287l567 -1520h-268zM498 592h477l-238 676z" />
    <glyph glyph-name="Aring" unicode="&#xc5;" horiz-adv-x="1482" 
d="M1184 0l-137 387h-621l-137 -387h-260l569 1520h16q-65 33 -103 94t-38 135q0 110 76 184t192 74t192.5 -74t76.5 -184q0 -74 -38.5 -135t-103.5 -94h17l567 -1520h-268zM741 1626q58 0 93.5 33.5t35.5 89.5t-35.5 90.5t-93.5 34.5t-93.5 -34.5t-35.5 -90.5t35.5 -89.5
t93.5 -33.5zM498 592h477l-238 676z" />
    <glyph glyph-name="AE" unicode="&#xc6;" horiz-adv-x="2125" 
d="M1014 0v455h-574l-252 -455h-270l860 1520h1215v-211h-740v-408h658v-209h-658v-479h756v-213h-995zM1014 1315h-96l-363 -656h459v656z" />
    <glyph glyph-name="Ccedilla" unicode="&#xc7;" horiz-adv-x="1427" 
d="M1065 -274q0 -101 -72 -161.5t-217 -60.5q-108 0 -211 35l41 158q82 -37 180 -37q105 0 105 70q0 34 -40 54.5t-167 47.5l61 143q-298 31 -468.5 237.5t-170.5 547.5q0 186 53.5 335t151 248.5t235.5 152t306 52.5q289 0 471 -147l-61 -234q-172 162 -402 162
q-235 0 -364 -150.5t-129 -416.5q0 -277 136 -424.5t359 -147.5q134 0 241.5 49t182.5 123l57 -227q-84 -71 -207 -116t-278 -48l-18 -41q70 -20 117 -44t69.5 -51.5t30.5 -52.5t8 -56z" />
    <glyph glyph-name="Egrave" unicode="&#xc8;" horiz-adv-x="1304" 
d="M754 1630l-414 266l217 132l322 -320zM1188 213v-213h-1000v1520h983v-211h-739v-408h658v-209h-658v-479h756z" />
    <glyph glyph-name="Eacute" unicode="&#xc9;" horiz-adv-x="1304" 
d="M610 1630l-125 78l322 320l217 -132zM1188 213v-213h-1000v1520h983v-211h-739v-408h658v-209h-658v-479h756z" />
    <glyph glyph-name="Ecircumflex" unicode="&#xca;" horiz-adv-x="1304" 
d="M1083 1679l-211 -41l-190 222l-190 -222l-211 41l305 314h192zM1188 213v-213h-1000v1520h983v-211h-739v-408h658v-209h-658v-479h756z" />
    <glyph glyph-name="Edieresis" unicode="&#xcb;" horiz-adv-x="1304" 
d="M788 1694v241h240v-241h-240zM336 1694v241h239v-241h-239zM1188 213v-213h-1000v1520h983v-211h-739v-408h658v-209h-658v-479h756z" />
    <glyph glyph-name="Igrave" unicode="&#xcc;" horiz-adv-x="620" 
d="M383 1630l-414 266l217 132l322 -320zM188 0v1520h244v-1520h-244z" />
    <glyph glyph-name="Iacute" unicode="&#xcd;" horiz-adv-x="620" 
d="M240 1630l-125 78l321 320l217 -132zM188 0v1520h244v-1520h-244z" />
    <glyph glyph-name="Icircumflex" unicode="&#xce;" horiz-adv-x="620" 
d="M713 1679l-211 -41l-191 222l-190 -222l-211 41l305 314h193zM188 0v1520h244v-1520h-244z" />
    <glyph glyph-name="Idieresis" unicode="&#xcf;" horiz-adv-x="620" 
d="M418 1694v241h239v-241h-239zM-35 1694v241h240v-241h-240zM188 0v1520h244v-1520h-244z" />
    <glyph glyph-name="Eth" unicode="&#xd0;" horiz-adv-x="1595" 
d="M1489 758q0 -191 -54 -336.5t-156.5 -237.5t-245 -138t-324.5 -46h-488v700h-178v193h178v627h490q167 0 299 -38t221 -105t147.5 -163.5t84.5 -209t26 -246.5zM819 700h-354v-491h244q520 0 520 549q0 98 -17 179.5t-56 152t-98.5 118.5t-150 75.5t-205.5 27.5h-237
v-418h354v-193z" />
    <glyph glyph-name="Ntilde" unicode="&#xd1;" horiz-adv-x="1615" 
d="M539 1642l-164 15q0 158 68 236.5t178 78.5q111 0 215 -74q86 -63 147 -63q96 0 96 152l164 -15q0 -158 -68 -236.5t-178 -78.5q-61 0 -110 19.5t-105 54.5q-42 26 -59 36t-41.5 18.5t-46.5 8.5q-96 0 -96 -152zM1184 0l-766 1133v-1133h-230v1520h242l766 -1131v1131
h231v-1520h-243z" />
    <glyph glyph-name="Ograve" unicode="&#xd2;" horiz-adv-x="1624" 
d="M883 1630l-414 266l217 132l322 -320zM811 -29q-155 0 -285 54.5t-223 154.5t-145 249t-52 331t52 331t145 249t223 154t285 54t285.5 -54t223.5 -154t144.5 -249t51.5 -331q0 -243 -89.5 -422.5t-248.5 -273t-367 -93.5zM811 190q209 0 326.5 152t117.5 418
q0 263 -118 416t-326 153q-207 0 -325.5 -152t-118.5 -417q0 -262 119 -416t325 -154z" />
    <glyph glyph-name="Oacute" unicode="&#xd3;" horiz-adv-x="1624" 
d="M739 1630l-125 78l322 320l217 -132zM811 -29q-155 0 -285 54.5t-223 154.5t-145 249t-52 331t52 331t145 249t223 154t285 54t285.5 -54t223.5 -154t144.5 -249t51.5 -331q0 -243 -89.5 -422.5t-248.5 -273t-367 -93.5zM811 190q209 0 326.5 152t117.5 418
q0 263 -118 416t-326 153q-207 0 -325.5 -152t-118.5 -417q0 -262 119 -416t325 -154z" />
    <glyph glyph-name="Ocircumflex" unicode="&#xd4;" horiz-adv-x="1624" 
d="M1212 1679l-211 -41l-190 222l-190 -222l-211 41l305 314h192zM811 -29q-155 0 -285 54.5t-223 154.5t-145 249t-52 331t52 331t145 249t223 154t285 54t285.5 -54t223.5 -154t144.5 -249t51.5 -331q0 -243 -89.5 -422.5t-248.5 -273t-367 -93.5zM811 190
q209 0 326.5 152t117.5 418q0 263 -118 416t-326 153q-207 0 -325.5 -152t-118.5 -417q0 -262 119 -416t325 -154z" />
    <glyph glyph-name="Otilde" unicode="&#xd5;" horiz-adv-x="1624" 
d="M541 1642l-164 15q0 158 68 236.5t178 78.5q42 0 84.5 -12.5t68.5 -26t62 -35.5q91 -63 147 -63q96 0 96 152l164 -15q0 -158 -68 -236.5t-178 -78.5q-61 0 -110 19.5t-105 54.5q-42 26 -59 36t-41.5 18.5t-46.5 8.5q-96 0 -96 -152zM811 -29q-155 0 -285 54.5
t-223 154.5t-145 249t-52 331t52 331t145 249t223 154t285 54t285.5 -54t223.5 -154t144.5 -249t51.5 -331q0 -243 -89.5 -422.5t-248.5 -273t-367 -93.5zM811 190q209 0 326.5 152t117.5 418q0 263 -118 416t-326 153q-207 0 -325.5 -152t-118.5 -417q0 -262 119 -416
t325 -154z" />
    <glyph glyph-name="Odieresis" unicode="&#xd6;" horiz-adv-x="1624" 
d="M918 1694v241h239v-241h-239zM465 1694v241h240v-241h-240zM811 -29q-155 0 -285 54.5t-223 154.5t-145 249t-52 331t52 331t145 249t223 154t285 54t285.5 -54t223.5 -154t144.5 -249t51.5 -331q0 -243 -89.5 -422.5t-248.5 -273t-367 -93.5zM811 190q209 0 326.5 152
t117.5 418q0 263 -118 416t-326 153q-207 0 -325.5 -152t-118.5 -417q0 -262 119 -416t325 -154z" />
    <glyph glyph-name="multiply" unicode="&#xd7;" 
d="M1169 229l-135 -135l-389 395l-387 -395l-137 135l395 387l-395 390l137 135l387 -396l389 396l135 -135l-395 -390z" />
    <glyph glyph-name="Oslash" unicode="&#xd8;" horiz-adv-x="1624" 
d="M811 -29q-227 0 -401 117l-129 -178l-136 57l158 215q-197 213 -197 578q0 182 52 331t145 249t223 154t285 54q232 0 401 -116l131 178l136 -58l-158 -215q195 -214 195 -577q0 -243 -89.5 -422.5t-248.5 -273t-367 -93.5zM367 760q0 -224 88 -369l620 850
q-111 88 -264 88q-207 0 -325.5 -152t-118.5 -417zM1255 760q0 221 -86 368l-620 -849q109 -89 262 -89q209 0 326.5 152t117.5 418z" />
    <glyph glyph-name="Ugrave" unicode="&#xd9;" horiz-adv-x="1552" 
d="M848 1630l-414 266l217 132l322 -320zM172 598v922h246v-924q0 -198 93 -302t267 -104t267.5 104t93.5 302v924h239v-922q0 -304 -153.5 -465.5t-452.5 -161.5q-298 0 -449 161t-151 466z" />
    <glyph glyph-name="Uacute" unicode="&#xda;" horiz-adv-x="1552" 
d="M705 1630l-125 78l321 320l217 -132zM172 598v922h246v-924q0 -198 93 -302t267 -104t267.5 104t93.5 302v924h239v-922q0 -304 -153.5 -465.5t-452.5 -161.5q-298 0 -449 161t-151 466z" />
    <glyph glyph-name="Ucircumflex" unicode="&#xdb;" horiz-adv-x="1552" 
d="M1178 1679l-211 -41l-191 222l-190 -222l-211 41l305 314h192zM172 598v922h246v-924q0 -198 93 -302t267 -104t267.5 104t93.5 302v924h239v-922q0 -304 -153.5 -465.5t-452.5 -161.5q-298 0 -449 161t-151 466z" />
    <glyph glyph-name="Udieresis" unicode="&#xdc;" horiz-adv-x="1552" 
d="M883 1694v241h239v-241h-239zM430 1694v241h240v-241h-240zM172 598v922h246v-924q0 -198 93 -302t267 -104t267.5 104t93.5 302v924h239v-922q0 -304 -153.5 -465.5t-452.5 -161.5q-298 0 -449 161t-151 466z" />
    <glyph glyph-name="Yacute" unicode="&#xdd;" horiz-adv-x="1312" 
d="M586 1630l-125 78l321 320l217 -132zM1303 1520l-525 -938v-582h-243v578l-523 942h281l369 -719l368 719h273z" />
    <glyph glyph-name="Thorn" unicode="&#xde;" horiz-adv-x="1308" 
d="M432 315v-315h-244v1520h244v-258h268q271 0 410 -119.5t139 -349.5q0 -109 -32 -194t-84.5 -137.5t-126.5 -86.5t-150.5 -47t-163.5 -13h-260zM684 1053h-252v-531h248q51 0 94 6t85.5 24t72 46.5t47.5 76.5t18 111q0 267 -313 267z" />
    <glyph glyph-name="germandbls" unicode="&#xdf;" horiz-adv-x="1308" 
d="M1225 434q0 -208 -123.5 -333.5t-331.5 -125.5q-145 0 -250 54l33 204q101 -61 205 -61q112 0 170.5 70.5t58.5 191.5q0 306 -399 354v177q148 4 222.5 67t74.5 172q0 98 -60.5 154.5t-169.5 56.5q-262 0 -262 -336v-1079h-233v1085q0 244 128 385.5t376 141.5
q212 0 333 -105.5t121 -279.5q0 -130 -72.5 -217.5t-199.5 -118.5q188 -44 283.5 -165t95.5 -292z" />
    <glyph glyph-name="agrave" unicode="&#xe0;" horiz-adv-x="1187" 
d="M612 1221l-325 387l221 94l242 -424zM817 0l-4 145q-135 -170 -356 -170q-163 0 -260 89t-97 249q0 183 139 273t423 90h139v41q0 107 -53.5 158t-186.5 51q-196 0 -352 -113l-41 195q160 114 422 114q235 0 339.5 -100t104.5 -289v-733h-217zM518 166q97 0 171 47.5
t112 120.5v182h-115q-184 0 -269 -45t-85 -145q0 -79 48.5 -119.5t137.5 -40.5z" />
    <glyph glyph-name="aacute" unicode="&#xe1;" horiz-adv-x="1187" 
d="M588 1221l-137 57l241 424l221 -94zM817 0l-4 145q-135 -170 -356 -170q-163 0 -260 89t-97 249q0 183 139 273t423 90h139v41q0 107 -53.5 158t-186.5 51q-196 0 -352 -113l-41 195q160 114 422 114q235 0 339.5 -100t104.5 -289v-733h-217zM518 166q97 0 171 47.5
t112 120.5v182h-115q-184 0 -269 -45t-85 -145q0 -79 48.5 -119.5t137.5 -40.5z" />
    <glyph glyph-name="acircumflex" unicode="&#xe2;" horiz-adv-x="1187" 
d="M979 1272l-195 -39l-184 301l-184 -301l-195 39l283 405h192zM817 0l-4 145q-135 -170 -356 -170q-163 0 -260 89t-97 249q0 183 139 273t423 90h139v41q0 107 -53.5 158t-186.5 51q-196 0 -352 -113l-41 195q160 114 422 114q235 0 339.5 -100t104.5 -289v-733h-217z
M518 166q97 0 171 47.5t112 120.5v182h-115q-184 0 -269 -45t-85 -145q0 -79 48.5 -119.5t137.5 -40.5z" />
    <glyph glyph-name="atilde" unicode="&#xe3;" horiz-adv-x="1187" 
d="M346 1260l-164 14q0 159 66 238t170 79q58 0 106.5 -20t102.5 -55q34 -23 52.5 -34t42.5 -20.5t44 -9.5q88 0 88 152l164 -13q0 -160 -66 -238.5t-170 -78.5q-58 0 -106 20t-103 56q-50 33 -79.5 47t-59.5 14q-88 0 -88 -151zM817 0l-4 145q-135 -170 -356 -170
q-163 0 -260 89t-97 249q0 183 139 273t423 90h139v41q0 107 -53.5 158t-186.5 51q-196 0 -352 -113l-41 195q160 114 422 114q235 0 339.5 -100t104.5 -289v-733h-217zM518 166q97 0 171 47.5t112 120.5v182h-115q-184 0 -269 -45t-85 -145q0 -79 48.5 -119.5t137.5 -40.5z
" />
    <glyph glyph-name="adieresis" unicode="&#xe4;" horiz-adv-x="1187" 
d="M705 1307v239h237v-239h-237zM258 1307v239h238v-239h-238zM817 0l-4 145q-135 -170 -356 -170q-163 0 -260 89t-97 249q0 183 139 273t423 90h139v41q0 107 -53.5 158t-186.5 51q-196 0 -352 -113l-41 195q160 114 422 114q235 0 339.5 -100t104.5 -289v-733h-217z
M518 166q97 0 171 47.5t112 120.5v182h-115q-184 0 -269 -45t-85 -145q0 -79 48.5 -119.5t137.5 -40.5z" />
    <glyph glyph-name="aring" unicode="&#xe5;" horiz-adv-x="1187" 
d="M600 1204q-116 0 -192 74.5t-76 183.5q0 110 76 184t192 74t192 -74t76 -184q0 -109 -76 -183.5t-192 -74.5zM600 1339q58 0 93.5 33.5t35.5 89.5t-35.5 90.5t-93.5 34.5t-93.5 -34.5t-35.5 -90.5t35.5 -89.5t93.5 -33.5zM817 0l-4 145q-135 -170 -356 -170
q-163 0 -260 89t-97 249q0 183 139 273t423 90h139v41q0 107 -53.5 158t-186.5 51q-196 0 -352 -113l-41 195q160 114 422 114q235 0 339.5 -100t104.5 -289v-733h-217zM518 166q97 0 171 47.5t112 120.5v182h-115q-184 0 -269 -45t-85 -145q0 -79 48.5 -119.5t137.5 -40.5z
" />
    <glyph glyph-name="ae" unicode="&#xe6;" horiz-adv-x="1892" 
d="M1780 98q-177 -123 -430 -123q-303 0 -443 191q-165 -191 -426 -191q-185 0 -285 88t-100 246q0 172 132.5 261t430.5 89h146v58q0 107 -56 158t-188 51q-203 0 -354 -113l-43 195q163 114 420 114q267 0 360 -155q136 155 377 155q101 0 182.5 -28.5t135.5 -76.5
t90 -115.5t51.5 -141.5t15.5 -158v-108h-772q13 -322 352 -322q111 0 196 31t167 92zM1317 940q-118 0 -197 -73.5t-94 -211.5h543v13q0 55 -13.5 101.5t-41.5 86t-78.5 62t-118.5 22.5zM520 166q103 0 183.5 47.5t121.5 126.5q-17 68 -20 158h-121q-134 0 -213.5 -20.5
t-110 -57.5t-30.5 -96q0 -77 49 -117.5t141 -40.5z" />
    <glyph glyph-name="ccedilla" unicode="&#xe7;" horiz-adv-x="1083" 
d="M844 -274q0 -101 -72 -161.5t-217 -60.5q-109 0 -211 35l41 158q82 -37 180 -37q105 0 105 70q0 34 -40 54.5t-167 47.5l63 152q-205 31 -321.5 177.5t-116.5 381.5q0 271 151.5 425t405.5 154q224 0 356 -118l-51 -199q-112 117 -291 117q-156 0 -242.5 -99t-86.5 -274
q0 -178 88 -276.5t250 -98.5q163 0 301 119l43 -197q-148 -121 -373 -121l-21 -45q70 -20 117 -44t69.5 -51.5t31 -52.5t8.5 -56z" />
    <glyph glyph-name="egrave" unicode="&#xe8;" horiz-adv-x="1198" 
d="M631 1221l-326 387l221 94l242 -424zM1085 98q-74 -52 -185 -87.5t-247 -35.5q-276 0 -420.5 148.5t-144.5 413.5q0 270 142 427.5t391 157.5q129 0 224.5 -42.5t150 -117t80.5 -164.5t26 -196v-113h-776q16 -317 356 -317q109 0 193.5 30.5t168.5 92.5zM623 940
q-121 0 -201.5 -74.5t-93.5 -214.5h546v17q0 55 -13 101.5t-41.5 86t-78.5 62t-118 22.5z" />
    <glyph glyph-name="eacute" unicode="&#xe9;" horiz-adv-x="1198" 
d="M606 1221l-137 57l242 424l221 -94zM1085 98q-74 -52 -185 -87.5t-247 -35.5q-276 0 -420.5 148.5t-144.5 413.5q0 270 142 427.5t391 157.5q129 0 224.5 -42.5t150 -117t80.5 -164.5t26 -196v-113h-776q16 -317 356 -317q109 0 193.5 30.5t168.5 92.5zM623 940
q-121 0 -201.5 -74.5t-93.5 -214.5h546v17q0 55 -13 101.5t-41.5 86t-78.5 62t-118 22.5z" />
    <glyph glyph-name="ecircumflex" unicode="&#xea;" horiz-adv-x="1198" 
d="M997 1272l-194 -39l-185 301l-184 -301l-194 39l282 405h193zM1085 98q-74 -52 -185 -87.5t-247 -35.5q-276 0 -420.5 148.5t-144.5 413.5q0 270 142 427.5t391 157.5q129 0 224.5 -42.5t150 -117t80.5 -164.5t26 -196v-113h-776q16 -317 356 -317q109 0 193.5 30.5
t168.5 92.5zM623 940q-121 0 -201.5 -74.5t-93.5 -214.5h546v17q0 55 -13 101.5t-41.5 86t-78.5 62t-118 22.5z" />
    <glyph glyph-name="edieresis" unicode="&#xeb;" horiz-adv-x="1198" 
d="M723 1307v239h238v-239h-238zM276 1307v239h238v-239h-238zM1085 98q-74 -52 -185 -87.5t-247 -35.5q-276 0 -420.5 148.5t-144.5 413.5q0 270 142 427.5t391 157.5q129 0 224.5 -42.5t150 -117t80.5 -164.5t26 -196v-113h-776q16 -317 356 -317q109 0 193.5 30.5
t168.5 92.5zM623 940q-121 0 -201.5 -74.5t-93.5 -214.5h546v17q0 55 -13 101.5t-41.5 86t-78.5 62t-118 22.5z" />
    <glyph glyph-name="igrave" unicode="&#xec;" horiz-adv-x="569" 
d="M299 1221l-326 387l222 94l241 -424zM168 0v1098h233v-1098h-233z" />
    <glyph glyph-name="iacute" unicode="&#xed;" horiz-adv-x="569" 
d="M268 1221l-137 57l242 424l221 -94zM168 0v1098h233v-1098h-233z" />
    <glyph glyph-name="icircumflex" unicode="&#xee;" horiz-adv-x="573" 
d="M625 1272l-187 -39l-151 299l-154 -299l-186 39l246 405h188zM170 0v1098h233v-1098h-233z" />
    <glyph glyph-name="idieresis" unicode="&#xef;" horiz-adv-x="573" 
d="M369 1307v239h231v-239h-231zM-29 1307v239h234v-239h-234zM170 0v1098h233v-1098h-233z" />
    <glyph glyph-name="eth" unicode="&#xf0;" horiz-adv-x="1249" 
d="M1153 590q0 -162 -41.5 -283t-115.5 -192t-167.5 -105.5t-207.5 -34.5q-130 0 -233.5 44t-168 120.5t-98 175t-33.5 211.5q0 124 39 226t106.5 169.5t156.5 104.5t190 37q180 0 297 -123q-74 173 -218 320l-251 -121l-86 106l235 113q-110 96 -254 184l236 90
q126 -94 215 -180l256 125l86 -107l-246 -118q303 -342 303 -762zM330 530q0 -165 78 -261.5t219 -96.5q135 0 215 98.5t80 309.5q0 34 -9 122q-88 172 -282 172q-140 0 -220.5 -88t-80.5 -256z" />
    <glyph glyph-name="ntilde" unicode="&#xf1;" horiz-adv-x="1265" 
d="M381 1260l-164 14q0 159 66 238t170 79q58 0 106.5 -20t102.5 -55q34 -23 52.5 -34t42.5 -20.5t44 -9.5q88 0 88 152l164 -13q0 -160 -66 -238.5t-170 -78.5q-58 0 -106 20t-103 56q-50 33 -79.5 47t-59.5 14q-88 0 -88 -151zM393 715v-715h-233v1098h217l4 -172
q138 196 367 196q174 0 270 -107t96 -302v-713h-233v662q0 251 -203 251q-96 0 -171.5 -52t-113.5 -146z" />
    <glyph glyph-name="ograve" unicode="&#xf2;" horiz-adv-x="1249" 
d="M637 1221l-326 387l221 94l242 -424zM625 -25q-236 0 -386.5 152.5t-150.5 421.5q0 135 41 244t113 180.5t170 110t213 38.5t212.5 -38.5t169.5 -110t113 -180.5t41 -244q0 -269 -150 -421.5t-386 -152.5zM625 172q137 0 217 100.5t80 276.5t-80 275.5t-217 99.5
t-216 -99.5t-79 -275.5t79 -276.5t216 -100.5z" />
    <glyph glyph-name="oacute" unicode="&#xf3;" horiz-adv-x="1249" 
d="M612 1221l-137 57l242 424l221 -94zM625 -25q-236 0 -386.5 152.5t-150.5 421.5q0 135 41 244t113 180.5t170 110t213 38.5t212.5 -38.5t169.5 -110t113 -180.5t41 -244q0 -269 -150 -421.5t-386 -152.5zM625 172q137 0 217 100.5t80 276.5t-80 275.5t-217 99.5
t-216 -99.5t-79 -275.5t79 -276.5t216 -100.5z" />
    <glyph glyph-name="ocircumflex" unicode="&#xf4;" horiz-adv-x="1249" 
d="M1004 1272l-195 -39l-184 301l-185 -301l-194 39l282 405h193zM625 -25q-236 0 -386.5 152.5t-150.5 421.5q0 135 41 244t113 180.5t170 110t213 38.5t212.5 -38.5t169.5 -110t113 -180.5t41 -244q0 -269 -150 -421.5t-386 -152.5zM625 172q137 0 217 100.5t80 276.5
t-80 275.5t-217 99.5t-216 -99.5t-79 -275.5t79 -276.5t216 -100.5z" />
    <glyph glyph-name="otilde" unicode="&#xf5;" horiz-adv-x="1249" 
d="M371 1260l-164 14q0 159 65.5 238t169.5 79q58 0 106.5 -20t102.5 -55q50 -34 80.5 -49t59.5 -15q88 0 88 152l163 -13q0 -160 -65.5 -238.5t-169.5 -78.5q-58 0 -106 20t-103 56q-50 33 -79.5 47t-59.5 14q-88 0 -88 -151zM625 -25q-236 0 -386.5 152.5t-150.5 421.5
q0 135 41 244t113 180.5t170 110t213 38.5t212.5 -38.5t169.5 -110t113 -180.5t41 -244q0 -269 -150 -421.5t-386 -152.5zM625 172q137 0 217 100.5t80 276.5t-80 275.5t-217 99.5t-216 -99.5t-79 -275.5t79 -276.5t216 -100.5z" />
    <glyph glyph-name="odieresis" unicode="&#xf6;" horiz-adv-x="1249" 
d="M729 1307v239h238v-239h-238zM283 1307v239h237v-239h-237zM625 -25q-236 0 -386.5 152.5t-150.5 421.5q0 135 41 244t113 180.5t170 110t213 38.5t212.5 -38.5t169.5 -110t113 -180.5t41 -244q0 -269 -150 -421.5t-386 -152.5zM625 172q137 0 217 100.5t80 276.5
t-80 275.5t-217 99.5t-216 -99.5t-79 -275.5t79 -276.5t216 -100.5z" />
    <glyph glyph-name="divide" unicode="&#xf7;" 
d="M485 1069q0 66 47 113t113 47t113 -47t47 -113t-47 -114t-113 -48t-113 48t-47 114zM113 524v187h1065v-187h-1065zM485 166q0 66 47 113t113 47t113 -47t47 -113t-47 -114t-113 -48t-113 48t-47 114z" />
    <glyph glyph-name="oslash" unicode="&#xf8;" horiz-adv-x="1249" 
d="M625 -25q-160 0 -283 72l-123 -168l-123 58l142 192q-150 156 -150 420q0 135 41 244t113 180.5t170 110t213 38.5q160 0 284 -71l121 166l125 -56l-141 -194q147 -153 147 -418q0 -269 -150 -421.5t-386 -152.5zM330 549q0 -138 47 -227l407 557q-70 45 -159 45
q-137 0 -216 -99.5t-79 -275.5zM922 549q0 138 -50 227l-405 -559q67 -45 158 -45q137 0 217 100.5t80 276.5z" />
    <glyph glyph-name="ugrave" unicode="&#xf9;" horiz-adv-x="1265" 
d="M643 1221l-326 387l222 94l241 -424zM889 0l-4 170q-132 -195 -363 -195q-174 0 -272 108t-98 302v713h233v-664q0 -252 207 -252q107 0 178 60.5t102 144.5v711h234v-1098h-217z" />
    <glyph glyph-name="uacute" unicode="&#xfa;" horiz-adv-x="1265" 
d="M618 1221l-137 57l242 424l221 -94zM889 0l-4 170q-132 -195 -363 -195q-174 0 -272 108t-98 302v713h233v-664q0 -252 207 -252q107 0 178 60.5t102 144.5v711h234v-1098h-217z" />
    <glyph glyph-name="ucircumflex" unicode="&#xfb;" horiz-adv-x="1265" 
d="M1010 1272l-195 -39l-184 301l-185 -301l-194 39l283 405h192zM889 0l-4 170q-132 -195 -363 -195q-174 0 -272 108t-98 302v713h233v-664q0 -252 207 -252q107 0 178 60.5t102 144.5v711h234v-1098h-217z" />
    <glyph glyph-name="udieresis" unicode="&#xfc;" horiz-adv-x="1265" 
d="M735 1307v239h238v-239h-238zM289 1307v239h237v-239h-237zM889 0l-4 170q-132 -195 -363 -195q-174 0 -272 108t-98 302v713h233v-664q0 -252 207 -252q107 0 178 60.5t102 144.5v711h234v-1098h-217z" />
    <glyph glyph-name="yacute" unicode="&#xfd;" horiz-adv-x="1159" 
d="M575 1221l-137 57l242 424l221 -94zM713 12q-56 -147 -110 -242.5t-112.5 -148t-116.5 -72.5t-136 -20q-89 0 -172 27l20 211q74 -29 141 -29q80 0 130.5 53t111.5 195l-432 1112h266l291 -865l287 865h247z" />
    <glyph glyph-name="thorn" unicode="&#xfe;" horiz-adv-x="1308" 
d="M705 -25q-188 0 -312 121v-545h-233v2042h233v-639q145 168 357 168q210 0 338.5 -150t128.5 -409q0 -273 -139.5 -430.5t-372.5 -157.5zM393 287q44 -55 114 -85t150 -30q148 0 234 102t86 281q0 175 -79.5 266.5t-211.5 91.5q-93 0 -170.5 -43.5t-122.5 -117.5v-465z
" />
    <glyph glyph-name="ydieresis" unicode="&#xff;" horiz-adv-x="1159" 
d="M692 1307v239h238v-239h-238zM246 1307v239h237v-239h-237zM713 12q-56 -147 -110 -242.5t-112.5 -148t-116.5 -72.5t-136 -20q-89 0 -172 27l20 211q74 -29 141 -29q80 0 130.5 53t111.5 195l-432 1112h266l291 -865l287 865h247z" />
    <glyph glyph-name="Amacron" unicode="&#x100;" horiz-adv-x="1482" 
d="M375 1726v177h733v-177h-733zM1184 0l-137 387h-621l-137 -387h-260l569 1520h287l567 -1520h-268zM498 592h477l-238 676z" />
    <glyph glyph-name="amacron" unicode="&#x101;" horiz-adv-x="1187" 
d="M266 1339v174h668v-174h-668zM817 0l-4 145q-135 -170 -356 -170q-163 0 -260 89t-97 249q0 183 139 273t423 90h139v41q0 107 -53.5 158t-186.5 51q-196 0 -352 -113l-41 195q160 114 422 114q235 0 339.5 -100t104.5 -289v-733h-217zM518 166q97 0 171 47.5t112 120.5
v182h-115q-184 0 -269 -45t-85 -145q0 -79 48.5 -119.5t137.5 -40.5z" />
    <glyph glyph-name="Abreve" unicode="&#x102;" horiz-adv-x="1482" 
d="M375 1976l172 15q7 -94 57.5 -141.5t136.5 -47.5t137 47.5t58 141.5l172 -15q-6 -163 -107.5 -251.5t-259.5 -88.5t-259 88.5t-107 251.5zM1184 0l-137 387h-621l-137 -387h-260l569 1520h287l567 -1520h-268zM498 592h477l-238 676z" />
    <glyph glyph-name="abreve" unicode="&#x103;" horiz-adv-x="1187" 
d="M233 1612l173 12q6 -113 57.5 -168t136.5 -55t137 55t58 168l172 -12q-6 -181 -107.5 -279t-259.5 -98t-259.5 98t-107.5 279zM817 0l-4 145q-135 -170 -356 -170q-163 0 -260 89t-97 249q0 183 139 273t423 90h139v41q0 107 -53.5 158t-186.5 51q-196 0 -352 -113
l-41 195q160 114 422 114q235 0 339.5 -100t104.5 -289v-733h-217zM518 166q97 0 171 47.5t112 120.5v182h-115q-184 0 -269 -45t-85 -145q0 -79 48.5 -119.5t137.5 -40.5z" />
    <glyph glyph-name="Aogonek" unicode="&#x104;" horiz-adv-x="1482" 
d="M997 -283q0 84 47 150.5t140 132.5l-137 387h-621l-137 -387h-260l569 1520h287l567 -1520h-37q-122 -51 -179.5 -106t-57.5 -119q0 -46 27.5 -73.5t84.5 -27.5q67 0 131 45l35 -153q-92 -62 -215 -62q-116 0 -180 57t-64 156zM498 592h477l-238 676z" />
    <glyph glyph-name="aogonek" unicode="&#x105;" horiz-adv-x="1187" 
d="M1055 -434q-92 -62 -215 -62q-116 0 -180 57t-64 156q0 174 221 295l-4 133q-135 -170 -356 -170q-163 0 -260 89t-97 249q0 183 139 273t423 90h139v41q0 107 -53.5 158t-186.5 51q-196 0 -352 -113l-41 195q160 114 422 114q235 0 339.5 -100t104.5 -289v-733h-18
q-123 -51 -181.5 -106t-58.5 -119q0 -46 28 -73.5t85 -27.5q67 0 131 45zM518 166q97 0 171 47.5t112 120.5v182h-115q-184 0 -269 -45t-85 -145q0 -79 48.5 -119.5t137.5 -40.5z" />
    <glyph glyph-name="Cacute" unicode="&#x106;" horiz-adv-x="1427" 
d="M745 1630l-124 78l321 320l217 -132zM1343 135q-194 -164 -499 -164q-339 0 -538.5 210t-199.5 579q0 186 53.5 335t151 248.5t235.5 152t306 52.5q289 0 471 -147l-61 -234q-172 162 -402 162q-235 0 -364 -150.5t-129 -416.5q0 -277 136 -424.5t359 -147.5
q134 0 241.5 49t182.5 123z" />
    <glyph glyph-name="cacute" unicode="&#x107;" horiz-adv-x="1083" 
d="M584 1221l-138 57l242 424l221 -94zM1012 96q-148 -121 -377 -121q-252 0 -399.5 151t-147.5 417q0 271 151.5 425t405.5 154q224 0 356 -118l-51 -199q-112 117 -291 117q-156 0 -242.5 -99t-86.5 -274q0 -178 88 -276.5t250 -98.5q163 0 301 119z" />
    <glyph glyph-name="Ccircumflex" unicode="&#x108;" horiz-adv-x="1427" 
d="M1219 1679l-211 -41l-191 222l-190 -222l-211 41l305 314h192zM1343 135q-194 -164 -499 -164q-339 0 -538.5 210t-199.5 579q0 186 53.5 335t151 248.5t235.5 152t306 52.5q289 0 471 -147l-61 -234q-172 162 -402 162q-235 0 -364 -150.5t-129 -416.5
q0 -277 136 -424.5t359 -147.5q134 0 241.5 49t182.5 123z" />
    <glyph glyph-name="ccircumflex" unicode="&#x109;" horiz-adv-x="1083" 
d="M993 1272l-194 -39l-185 301l-184 -301l-194 39l282 405h193zM1012 96q-148 -121 -377 -121q-252 0 -399.5 151t-147.5 417q0 271 151.5 425t405.5 154q224 0 356 -118l-51 -199q-112 117 -291 117q-156 0 -242.5 -99t-86.5 -274q0 -178 88 -276.5t250 -98.5
q163 0 301 119z" />
    <glyph glyph-name="Cdotaccent" unicode="&#x10a;" horiz-adv-x="1427" 
d="M684 1694v241h266v-241h-266zM1343 135q-194 -164 -499 -164q-339 0 -538.5 210t-199.5 579q0 186 53.5 335t151 248.5t235.5 152t306 52.5q289 0 471 -147l-61 -234q-172 162 -402 162q-235 0 -364 -150.5t-129 -416.5q0 -277 136 -424.5t359 -147.5q134 0 241.5 49
t182.5 123z" />
    <glyph glyph-name="cdotaccent" unicode="&#x10b;" horiz-adv-x="1083" 
d="M475 1307v239h262v-239h-262zM1012 96q-148 -121 -377 -121q-252 0 -399.5 151t-147.5 417q0 271 151.5 425t405.5 154q224 0 356 -118l-51 -199q-112 117 -291 117q-156 0 -242.5 -99t-86.5 -274q0 -178 88 -276.5t250 -98.5q163 0 301 119z" />
    <glyph glyph-name="Ccaron" unicode="&#x10c;" horiz-adv-x="1427" 
d="M1219 1966l-306 -313h-192l-305 313l211 41l190 -221l191 221zM1343 135q-194 -164 -499 -164q-339 0 -538.5 210t-199.5 579q0 186 53.5 335t151 248.5t235.5 152t306 52.5q289 0 471 -147l-61 -234q-172 162 -402 162q-235 0 -364 -150.5t-129 -416.5
q0 -277 136 -424.5t359 -147.5q134 0 241.5 49t182.5 123z" />
    <glyph glyph-name="ccaron" unicode="&#x10d;" horiz-adv-x="1083" 
d="M985 1634l-283 -391h-192l-283 391l195 41l184 -291l185 291zM1012 96q-148 -121 -377 -121q-252 0 -399.5 151t-147.5 417q0 271 151.5 425t405.5 154q224 0 356 -118l-51 -199q-112 117 -291 117q-156 0 -242.5 -99t-86.5 -274q0 -178 88 -276.5t250 -98.5
q163 0 301 119z" />
    <glyph glyph-name="Dcaron" unicode="&#x10e;" horiz-adv-x="1562" 
d="M1120 1966l-305 -313h-192l-306 313l211 41l191 -221l190 221zM1456 758q0 -191 -54 -336.5t-156.5 -237.5t-245 -138t-324.5 -46h-488v1520h490q167 0 299 -38t221 -105t147.5 -163.5t84.5 -209t26 -246.5zM670 1311h-238v-1102h244q520 0 520 549q0 124 -27.5 221
t-87.5 173.5t-164 117.5t-247 41z" />
    <glyph glyph-name="dcaron" unicode="&#x10f;" horiz-adv-x="1374" 
d="M1444 1192h-152l49 475h228zM932 0l-4 141q-134 -166 -350 -166q-218 0 -352 153.5t-134 414.5q0 264 139 421.5t373 157.5q188 0 311 -123v594h234v-1593h-217zM332 545q0 -177 83 -270t222 -93q98 0 171 43.5t107 112.5v459q-92 127 -264 127q-152 0 -235.5 -100
t-83.5 -279z" />
    <glyph glyph-name="Dcroat" unicode="&#x110;" horiz-adv-x="1595" 
d="M1489 758q0 -191 -54 -336.5t-156.5 -237.5t-245 -138t-324.5 -46h-488v700h-178v193h178v627h490q167 0 299 -38t221 -105t147.5 -163.5t84.5 -209t26 -246.5zM819 700h-354v-491h244q520 0 520 549q0 98 -17 179.5t-56 152t-98.5 118.5t-150 75.5t-205.5 27.5h-237
v-418h354v-193z" />
    <glyph glyph-name="dcroat" unicode="&#x111;" horiz-adv-x="1316" 
d="M932 0l-4 141q-134 -166 -350 -166q-218 0 -352 153.5t-134 414.5q0 264 139 421.5t373 157.5q188 0 311 -123v254h-315v156h315v213h234v-213h149v-156h-149v-1253h-217zM332 545q0 -177 83 -270t222 -93q98 0 171 43.5t107 112.5v459q-92 127 -264 127
q-152 0 -235.5 -100t-83.5 -279z" />
    <glyph glyph-name="Emacron" unicode="&#x112;" horiz-adv-x="1304" 
d="M315 1726v177h734v-177h-734zM1188 213v-213h-1000v1520h983v-211h-739v-408h658v-209h-658v-479h756z" />
    <glyph glyph-name="emacron" unicode="&#x113;" horiz-adv-x="1198" 
d="M285 1339v174h667v-174h-667zM1085 98q-74 -52 -185 -87.5t-247 -35.5q-276 0 -420.5 148.5t-144.5 413.5q0 270 142 427.5t391 157.5q129 0 224.5 -42.5t150 -117t80.5 -164.5t26 -196v-113h-776q16 -317 356 -317q109 0 193.5 30.5t168.5 92.5zM623 940
q-121 0 -201.5 -74.5t-93.5 -214.5h546v17q0 55 -13 101.5t-41.5 86t-78.5 62t-118 22.5z" />
    <glyph glyph-name="Ebreve" unicode="&#x114;" horiz-adv-x="1304" 
d="M315 1976l172 15q7 -94 58 -141.5t137 -47.5t137 47.5t58 141.5l172 -15q-6 -163 -107.5 -251.5t-259.5 -88.5t-259.5 88.5t-107.5 251.5zM1188 213v-213h-1000v1520h983v-211h-739v-408h658v-209h-658v-479h756z" />
    <glyph glyph-name="ebreve" unicode="&#x115;" horiz-adv-x="1198" 
d="M252 1612l172 12q6 -113 57.5 -168t136.5 -55t137 55t58 168l172 -12q-6 -181 -107.5 -279t-259.5 -98t-259 97.5t-107 279.5zM1085 98q-74 -52 -185 -87.5t-247 -35.5q-276 0 -420.5 148.5t-144.5 413.5q0 270 142 427.5t391 157.5q129 0 224.5 -42.5t150 -117
t80.5 -164.5t26 -196v-113h-776q16 -317 356 -317q109 0 193.5 30.5t168.5 92.5zM623 940q-121 0 -201.5 -74.5t-93.5 -214.5h546v17q0 55 -13 101.5t-41.5 86t-78.5 62t-118 22.5z" />
    <glyph glyph-name="Edotaccent" unicode="&#x116;" horiz-adv-x="1304" 
d="M549 1694v241h266v-241h-266zM1188 213v-213h-1000v1520h983v-211h-739v-408h658v-209h-658v-479h756z" />
    <glyph glyph-name="edotaccent" unicode="&#x117;" horiz-adv-x="1198" 
d="M487 1307v239h263v-239h-263zM1085 98q-74 -52 -185 -87.5t-247 -35.5q-276 0 -420.5 148.5t-144.5 413.5q0 270 142 427.5t391 157.5q129 0 224.5 -42.5t150 -117t80.5 -164.5t26 -196v-113h-776q16 -317 356 -317q109 0 193.5 30.5t168.5 92.5zM623 940
q-121 0 -201.5 -74.5t-93.5 -214.5h546v17q0 55 -13 101.5t-41.5 86t-78.5 62t-118 22.5z" />
    <glyph glyph-name="Eogonek" unicode="&#x118;" horiz-adv-x="1304" 
d="M707 -283q0 159 184 283h-703v1520h983v-211h-739v-408h658v-209h-658v-479h756v-213h-92q-101 -40 -155 -96.5t-54 -122.5q0 -49 27.5 -78t84.5 -29q67 0 131 45l37 -153q-96 -62 -217 -62q-115 0 -179 57t-64 156z" />
    <glyph glyph-name="eogonek" unicode="&#x119;" horiz-adv-x="1198" 
d="M1020 -434q-96 -62 -217 -62q-115 0 -179.5 57t-64.5 156q0 146 141 260q-14 -2 -47 -2q-276 0 -420.5 148.5t-144.5 413.5q0 270 142 427.5t391 157.5q129 0 224.5 -42.5t150 -117t80.5 -164.5t26 -196v-113h-776q16 -317 356 -317q109 0 193.5 30.5t168.5 92.5l41 -197
q-49 -34 -102 -57q-123 -60 -183.5 -123t-60.5 -137q0 -49 28 -78t85 -29q67 0 131 45zM623 940q-121 0 -201.5 -74.5t-93.5 -214.5h546v17q0 55 -13 101.5t-41.5 86t-78.5 62t-118 22.5z" />
    <glyph glyph-name="Ecaron" unicode="&#x11a;" horiz-adv-x="1304" 
d="M1083 1966l-305 -313h-192l-305 313l211 41l190 -221l190 221zM1188 213v-213h-1000v1520h983v-211h-739v-408h658v-209h-658v-479h756z" />
    <glyph glyph-name="ecaron" unicode="&#x11b;" horiz-adv-x="1198" 
d="M997 1634l-282 -391h-193l-282 391l194 41l184 -291l185 291zM1085 98q-74 -52 -185 -87.5t-247 -35.5q-276 0 -420.5 148.5t-144.5 413.5q0 270 142 427.5t391 157.5q129 0 224.5 -42.5t150 -117t80.5 -164.5t26 -196v-113h-776q16 -317 356 -317q109 0 193.5 30.5
t168.5 92.5zM623 940q-121 0 -201.5 -74.5t-93.5 -214.5h546v17q0 55 -13 101.5t-41.5 86t-78.5 62t-118 22.5z" />
    <glyph glyph-name="Gcircumflex" unicode="&#x11c;" horiz-adv-x="1576" 
d="M1235 1679l-211 -41l-190 222l-191 -222l-211 41l305 314h193zM1425 127q-85 -66 -237.5 -111t-323.5 -45q-358 0 -558 208.5t-200 580.5q0 375 206 581.5t569 206.5q165 0 297 -40.5t215 -106.5l-62 -234q-187 162 -446 162q-257 0 -387.5 -149.5t-130.5 -419.5
q0 -279 135 -424.5t391 -145.5q158 0 307 56v375h-383v204h608v-698z" />
    <glyph glyph-name="gcircumflex" unicode="&#x11d;" horiz-adv-x="1249" 
d="M981 1272l-195 -39l-184 301l-184 -301l-195 39l283 405h192zM1169 -111q0 -174 -153 -275t-447 -101q-270 0 -399 83t-129 218q0 87 54.5 153.5t170.5 95.5q-98 52 -98 166q0 133 147 189q-91 47 -141.5 128.5t-50.5 192.5q0 183 131 283t338 100q161 0 276 -59l334 55
h10v-194l-196 4q47 -80 47 -189q0 -182 -131 -282.5t-340 -100.5q-64 0 -131 13q-42 -3 -65 -25.5t-23 -60.5q0 -83 102 -88l334 -17q185 -9 272.5 -84.5t87.5 -204.5zM594 526q113 0 175 55t62 156q0 103 -62.5 159t-176.5 56q-113 0 -175.5 -54.5t-62.5 -156.5
q0 -101 63 -158t177 -57zM270 -145q0 -81 76.5 -122.5t245.5 -41.5q350 0 350 174q0 51 -40 81t-146 36l-371 18q-55 -17 -85 -54.5t-30 -90.5z" />
    <glyph glyph-name="Gbreve" unicode="&#x11e;" horiz-adv-x="1576" 
d="M467 1976l172 15q7 -94 58 -141.5t137 -47.5t136.5 47.5t57.5 141.5l172 -15q-6 -163 -107 -251.5t-259 -88.5t-259.5 88.5t-107.5 251.5zM1425 127q-85 -66 -237.5 -111t-323.5 -45q-358 0 -558 208.5t-200 580.5q0 375 206 581.5t569 206.5q165 0 297 -40.5t215 -106.5
l-62 -234q-187 162 -446 162q-257 0 -387.5 -149.5t-130.5 -419.5q0 -279 135 -424.5t391 -145.5q158 0 307 56v375h-383v204h608v-698z" />
    <glyph glyph-name="gbreve" unicode="&#x11f;" horiz-adv-x="1249" 
d="M236 1612l172 12q6 -113 57.5 -168t136.5 -55t137 55t58 168l172 -12q-6 -181 -107.5 -279t-259.5 -98t-259 97.5t-107 279.5zM1169 -111q0 -174 -153 -275t-447 -101q-270 0 -399 83t-129 218q0 87 54.5 153.5t170.5 95.5q-98 52 -98 166q0 133 147 189
q-91 47 -141.5 128.5t-50.5 192.5q0 183 131 283t338 100q161 0 276 -59l334 55h10v-194l-196 4q47 -80 47 -189q0 -182 -131 -282.5t-340 -100.5q-64 0 -131 13q-42 -3 -65 -25.5t-23 -60.5q0 -83 102 -88l334 -17q185 -9 272.5 -84.5t87.5 -204.5zM594 526q113 0 175 55
t62 156q0 103 -62.5 159t-176.5 56q-113 0 -175.5 -54.5t-62.5 -156.5q0 -101 63 -158t177 -57zM270 -145q0 -81 76.5 -122.5t245.5 -41.5q350 0 350 174q0 51 -40 81t-146 36l-371 18q-55 -17 -85 -54.5t-30 -90.5z" />
    <glyph glyph-name="Gdotaccent" unicode="&#x120;" horiz-adv-x="1576" 
d="M700 1694v241h267v-241h-267zM1425 127q-85 -66 -237.5 -111t-323.5 -45q-358 0 -558 208.5t-200 580.5q0 375 206 581.5t569 206.5q165 0 297 -40.5t215 -106.5l-62 -234q-187 162 -446 162q-257 0 -387.5 -149.5t-130.5 -419.5q0 -279 135 -424.5t391 -145.5
q158 0 307 56v375h-383v204h608v-698z" />
    <glyph glyph-name="gdotaccent" unicode="&#x121;" horiz-adv-x="1249" 
d="M467 1307v239h262v-239h-262zM1169 -111q0 -174 -153 -275t-447 -101q-270 0 -399 83t-129 218q0 87 54.5 153.5t170.5 95.5q-98 52 -98 166q0 133 147 189q-91 47 -141.5 128.5t-50.5 192.5q0 183 131 283t338 100q161 0 276 -59l334 55h10v-194l-196 4q47 -80 47 -189
q0 -182 -131 -282.5t-340 -100.5q-64 0 -131 13q-42 -3 -65 -25.5t-23 -60.5q0 -83 102 -88l334 -17q185 -9 272.5 -84.5t87.5 -204.5zM594 526q113 0 175 55t62 156q0 103 -62.5 159t-176.5 56q-113 0 -175.5 -54.5t-62.5 -156.5q0 -101 63 -158t177 -57zM270 -145
q0 -81 76.5 -122.5t245.5 -41.5q350 0 350 174q0 51 -40 81t-146 36l-371 18q-55 -17 -85 -54.5t-30 -90.5z" />
    <glyph glyph-name="uni0122" unicode="&#x122;" horiz-adv-x="1576" 
d="M1425 127q-85 -66 -237.5 -111t-323.5 -45q-358 0 -558 208.5t-200 580.5q0 375 206 581.5t569 206.5q165 0 297 -40.5t215 -106.5l-62 -234q-187 162 -446 162q-257 0 -387.5 -149.5t-130.5 -419.5q0 -279 135 -424.5t391 -145.5q158 0 307 56v375h-383v204h608v-698z
M840 -508l-181 23q109 156 109 340v32h215q2 -23 2 -49q0 -185 -145 -346z" />
    <glyph glyph-name="uni0123" unicode="&#x123;" horiz-adv-x="1249" 
d="M602 1667l180 -25q-86 -137 -86 -307q0 -41 4 -65h-213q-6 30 -6 73q0 176 121 324zM1169 -111q0 -174 -153 -275t-447 -101q-270 0 -399 83t-129 218q0 87 54.5 153.5t170.5 95.5q-98 52 -98 166q0 133 147 189q-91 47 -141.5 128.5t-50.5 192.5q0 183 131 283t338 100
q161 0 276 -59l334 55h10v-194l-196 4q47 -80 47 -189q0 -182 -131 -282.5t-340 -100.5q-64 0 -131 13q-42 -3 -65 -25.5t-23 -60.5q0 -83 102 -88l334 -17q185 -9 272.5 -84.5t87.5 -204.5zM594 526q113 0 175 55t62 156q0 103 -62.5 159t-176.5 56q-113 0 -175.5 -54.5
t-62.5 -156.5q0 -101 63 -158t177 -57zM270 -145q0 -81 76.5 -122.5t245.5 -41.5q350 0 350 174q0 51 -40 81t-146 36l-371 18q-55 -17 -85 -54.5t-30 -90.5z" />
    <glyph glyph-name="Hcircumflex" unicode="&#x124;" horiz-adv-x="1572" 
d="M1188 1679l-211 -41l-191 222l-190 -222l-211 41l305 314h193zM1141 0v690h-709v-690h-244v1520h244v-617h709v617h243v-1520h-243z" />
    <glyph glyph-name="hcircumflex" unicode="&#x125;" horiz-adv-x="1265" 
d="M1024 1683l-211 -41l-190 222l-191 -222l-211 41l305 314h193zM393 715v-715h-233v1593h233v-651q134 180 355 180q174 0 270 -107t96 -302v-713h-233v662q0 251 -203 251q-96 0 -171.5 -52t-113.5 -146z" />
    <glyph glyph-name="Hbar" unicode="&#x126;" horiz-adv-x="1599" 
d="M1153 0v690h-709v-690h-243v1120h-160v164h160v236h243v-236h709v236h244v-236h159v-164h-159v-1120h-244zM444 903h709v217h-709v-217z" />
    <glyph glyph-name="hbar" unicode="&#x127;" horiz-adv-x="1273" 
d="M401 715v-715h-233v1253h-150v156h150v213h233v-213h320v-156h-320v-311q134 180 355 180q174 0 270 -107t96 -302v-713h-233v662q0 251 -203 251q-96 0 -171.5 -52t-113.5 -146z" />
    <glyph glyph-name="Itilde" unicode="&#x128;" horiz-adv-x="620" 
d="M41 1642l-164 15q0 158 68 236.5t178 78.5q42 0 84.5 -12.5t68.5 -26t62 -35.5q91 -63 147 -63q97 0 97 152l163 -15q0 -158 -68 -236.5t-177 -78.5q-61 0 -110 19.5t-105 54.5q-41 25 -59 35.5t-42 19t-47 8.5q-96 0 -96 -152zM188 0v1520h244v-1520h-244z" />
    <glyph glyph-name="itilde" unicode="&#x129;" horiz-adv-x="573" 
d="M72 1260l-160 14q0 160 58 238.5t155 78.5q54 0 100 -22t99 -62q68 -53 106 -53q72 0 72 150l160 -13q0 -160 -58 -238.5t-155 -78.5q-90 0 -199 82q-68 53 -107 53q-71 0 -71 -149zM170 0v1098h233v-1098h-233z" />
    <glyph glyph-name="Imacron" unicode="&#x12a;" horiz-adv-x="620" 
d="M-55 1726v177h733v-177h-733zM188 0v1520h244v-1520h-244z" />
    <glyph glyph-name="imacron" unicode="&#x12b;" horiz-adv-x="573" 
d="M2 1339v174h569v-174h-569zM170 0v1098h233v-1098h-233z" />
    <glyph glyph-name="Ibreve" unicode="&#x12c;" horiz-adv-x="620" 
d="M-55 1976l172 15q7 -94 57.5 -141.5t136.5 -47.5t137 47.5t58 141.5l172 -15q-6 -163 -107.5 -251.5t-259.5 -88.5t-259 88.5t-107 251.5zM188 0v1520h244v-1520h-244z" />
    <glyph glyph-name="ibreve" unicode="&#x12d;" horiz-adv-x="573" 
d="M-55 1612l166 12q4 -112 50.5 -167.5t125.5 -55.5q164 0 176 223l166 -12q-4 -183 -97 -280t-245 -97q-153 0 -246 97.5t-96 279.5zM170 0v1098h233v-1098h-233z" />
    <glyph glyph-name="Iogonek" unicode="&#x12e;" horiz-adv-x="620" 
d="M63 -283q0 83 45 150.5t128 132.5h-48v1520h244v-1520h-10q-86 -52 -132 -104.5t-46 -114.5q0 -49 27.5 -78t84.5 -29q67 0 131 45l37 -153q-96 -62 -217 -62q-115 0 -179.5 57t-64.5 156z" />
    <glyph glyph-name="iogonek" unicode="&#x12f;" horiz-adv-x="571" 
d="M156 1307v239h262v-239h-262zM39 -283q0 83 43.5 150.5t124.5 132.5h-37v1098h233v-1098h-10q-83 -53 -128.5 -105t-45.5 -114q0 -49 28 -78t85 -29q67 0 131 45l37 -153q-96 -62 -217 -62q-115 0 -179.5 57t-64.5 156z" />
    <glyph glyph-name="Idotaccent" unicode="&#x130;" horiz-adv-x="620" 
d="M178 1694v241h266v-241h-266zM188 0v1520h244v-1520h-244z" />
    <glyph glyph-name="dotlessi" unicode="&#x131;" horiz-adv-x="561" 
d="M164 0v1098h233v-1098h-233z" />
    <glyph glyph-name="IJ" unicode="&#x132;" horiz-adv-x="1492" 
d="M188 0v1520h244v-1520h-244zM621 6l12 221q91 -41 207 -41q125 0 180 70t55 252v1012h244v-1016q0 -147 -31.5 -251t-93.5 -165.5t-145.5 -89t-196.5 -27.5q-146 0 -231 35z" />
    <glyph glyph-name="ij" unicode="&#x133;" horiz-adv-x="1136" 
d="M150 1307v239h262v-239h-262zM729 1307v239h264v-239h-264zM164 0v1098h233v-1098h-233zM424 -446l20 206q54 -26 134 -26q87 0 126 50.5t39 176.5v1137h234v-1121q0 -239 -97.5 -343.5t-277.5 -104.5q-113 0 -178 25z" />
    <glyph glyph-name="Jcircumflex" unicode="&#x134;" horiz-adv-x="872" 
d="M977 1679l-211 -41l-191 222l-190 -222l-211 41l305 314h193zM0 6l12 221q91 -41 207 -41q125 0 180.5 70t55.5 252v1012h243v-1016q0 -147 -31.5 -251t-93.5 -165.5t-145.5 -89t-196.5 -27.5q-146 0 -231 35z" />
    <glyph glyph-name="jcircumflex" unicode="&#x135;" horiz-adv-x="577" 
d="M676 1272l-195 -39l-184 301l-184 -301l-195 39l283 405h192zM-137 -446l20 206q54 -26 133 -26q87 0 126.5 50.5t39.5 176.5v1137h234v-1121q0 -239 -97.5 -343.5t-277.5 -104.5q-113 0 -178 25z" />
    <glyph glyph-name="uni0136" unicode="&#x136;" horiz-adv-x="1437" 
d="M1122 0l-542 684l-148 -147v-537h-244v1520h244v-707l668 707h315v-4l-674 -670l693 -842v-4h-312zM702 -508l-180 23q109 156 109 340v32h215q2 -23 2 -49q0 -184 -146 -346z" />
    <glyph glyph-name="uni0137" unicode="&#x137;" horiz-adv-x="1179" 
d="M891 0l-377 479l-121 -119v-360h-233v1593h233v-993l447 498h293v-4l-467 -463l518 -627v-4h-293zM571 -508l-180 23q109 156 109 340v32h215q2 -23 2 -49q0 -184 -146 -346z" />
    <glyph glyph-name="kgreenlandic" unicode="&#x138;" horiz-adv-x="1179" 
d="M891 0l-377 479l-121 -119v-360h-233v1098h233v-498l447 498h293v-4l-467 -463l518 -627v-4h-293z" />
    <glyph glyph-name="Lacute" unicode="&#x139;" horiz-adv-x="1165" 
d="M313 1630l-125 78l322 320l217 -132zM1139 213v-213h-951v1520h244v-1307h707z" />
    <glyph glyph-name="lacute" unicode="&#x13a;" horiz-adv-x="561" 
d="M209 1675l-125 78l322 320l217 -131zM164 0v1593h233v-1593h-233z" />
    <glyph glyph-name="uni013B" unicode="&#x13b;" horiz-adv-x="1165" 
d="M1139 213v-213h-951v1520h244v-1307h707zM639 -508l-180 23q108 155 108 340v32h215q2 -23 2 -49q0 -185 -145 -346z" />
    <glyph glyph-name="uni013C" unicode="&#x13c;" horiz-adv-x="561" 
d="M164 0v1593h233v-1593h-233zM246 -508l-180 23q108 155 108 340v32h215q2 -23 2 -49q0 -185 -145 -346z" />
    <glyph glyph-name="Lcaron" unicode="&#x13d;" horiz-adv-x="1165" 
d="M782 1118h-151l49 475h227zM1139 213v-213h-951v1520h244v-1307h707z" />
    <glyph glyph-name="lcaron" unicode="&#x13e;" horiz-adv-x="624" 
d="M696 1192h-151l49 475h227zM164 0v1593h233v-1593h-233z" />
    <glyph glyph-name="Ldot" unicode="&#x13f;" horiz-adv-x="1165" 
d="M1139 213v-213h-951v1520h244v-1307h707zM766 686v295h276v-295h-276z" />
    <glyph glyph-name="ldot" unicode="&#x140;" horiz-adv-x="843" 
d="M164 0v1593h233v-1593h-233zM565 645v295h277v-295h-277z" />
    <glyph glyph-name="Lslash" unicode="&#x141;" horiz-adv-x="1189" 
d="M1163 213v-213h-950v580l-186 -93v191l186 94v748h244v-646l436 218v-193l-436 -217v-469h706z" />
    <glyph glyph-name="lslash" unicode="&#x142;" horiz-adv-x="657" 
d="M645 915l-201 -120v-795h-233v682l-191 -115v185l191 114v727h233v-612l201 121v-187z" />
    <glyph glyph-name="Nacute" unicode="&#x143;" horiz-adv-x="1615" 
d="M737 1630l-125 78l322 320l217 -132zM1184 0l-766 1133v-1133h-230v1520h242l766 -1131v1131h231v-1520h-243z" />
    <glyph glyph-name="nacute" unicode="&#x144;" horiz-adv-x="1265" 
d="M623 1221l-138 57l242 424l221 -94zM393 715v-715h-233v1098h217l4 -172q138 196 367 196q174 0 270 -107t96 -302v-713h-233v662q0 251 -203 251q-96 0 -171.5 -52t-113.5 -146z" />
    <glyph glyph-name="uni0145" unicode="&#x145;" horiz-adv-x="1615" 
d="M1184 0l-766 1133v-1133h-230v1520h242l766 -1131v1131h231v-1520h-243zM786 -508l-180 23q109 156 109 340v32h215q2 -23 2 -49q0 -184 -146 -346z" />
    <glyph glyph-name="uni0146" unicode="&#x146;" horiz-adv-x="1265" 
d="M393 715v-715h-233v1098h217l4 -172q138 196 367 196q174 0 270 -107t96 -302v-713h-233v662q0 251 -203 251q-96 0 -171.5 -52t-113.5 -146zM610 -508l-180 23q109 156 109 340v32h215q2 -23 2 -49q0 -184 -146 -346z" />
    <glyph glyph-name="Ncaron" unicode="&#x147;" horiz-adv-x="1615" 
d="M1210 1966l-305 -313h-192l-305 313l210 41l191 -221l190 221zM1184 0l-766 1133v-1133h-230v1520h242l766 -1131v1131h231v-1520h-243z" />
    <glyph glyph-name="ncaron" unicode="&#x148;" horiz-adv-x="1265" 
d="M1014 1634l-283 -391h-192l-283 391l195 41l184 -291l184 291zM393 715v-715h-233v1098h217l4 -172q138 196 367 196q174 0 270 -107t96 -302v-713h-233v662q0 251 -203 251q-96 0 -171.5 -52t-113.5 -146z" />
    <glyph glyph-name="Eng" unicode="&#x14a;" horiz-adv-x="1615" 
d="M1196 1520h231v-1495q0 -136 -31 -234t-90.5 -154.5t-136 -82t-176.5 -25.5q-133 0 -215 33l15 207q80 -39 184 -39q112 0 161.5 60.5t49.5 211.5l-770 1139v-1141h-230v1520h248l760 -1123v1123z" />
    <glyph glyph-name="eng" unicode="&#x14b;" horiz-adv-x="1265" 
d="M715 -270q88 0 127 48t39 173v711q0 251 -203 251q-96 0 -171.5 -52t-113.5 -146v-715h-233v1098h217l4 -172q138 196 367 196q174 0 270 -107t96 -302v-742q0 -122 -26 -209t-76.5 -137t-117.5 -73t-155 -23q-109 0 -174 25l17 200q50 -24 133 -24z" />
    <glyph glyph-name="Omacron" unicode="&#x14c;" horiz-adv-x="1624" 
d="M444 1726v177h734v-177h-734zM811 -29q-155 0 -285 54.5t-223 154.5t-145 249t-52 331t52 331t145 249t223 154t285 54t285.5 -54t223.5 -154t144.5 -249t51.5 -331q0 -243 -89.5 -422.5t-248.5 -273t-367 -93.5zM811 190q209 0 326.5 152t117.5 418q0 263 -118 416
t-326 153q-207 0 -325.5 -152t-118.5 -417q0 -262 119 -416t325 -154z" />
    <glyph glyph-name="omacron" unicode="&#x14d;" horiz-adv-x="1249" 
d="M291 1339v174h667v-174h-667zM625 -25q-236 0 -386.5 152.5t-150.5 421.5q0 135 41 244t113 180.5t170 110t213 38.5t212.5 -38.5t169.5 -110t113 -180.5t41 -244q0 -269 -150 -421.5t-386 -152.5zM625 172q137 0 217 100.5t80 276.5t-80 275.5t-217 99.5t-216 -99.5
t-79 -275.5t79 -276.5t216 -100.5z" />
    <glyph glyph-name="Obreve" unicode="&#x14e;" horiz-adv-x="1624" 
d="M444 1976l172 15q7 -94 58 -141.5t137 -47.5t137 47.5t58 141.5l172 -15q-6 -163 -107.5 -251.5t-259.5 -88.5t-259.5 88.5t-107.5 251.5zM811 -29q-155 0 -285 54.5t-223 154.5t-145 249t-52 331t52 331t145 249t223 154t285 54t285.5 -54t223.5 -154t144.5 -249
t51.5 -331q0 -243 -89.5 -422.5t-248.5 -273t-367 -93.5zM811 190q209 0 326.5 152t117.5 418q0 263 -118 416t-326 153q-207 0 -325.5 -152t-118.5 -417q0 -262 119 -416t325 -154z" />
    <glyph glyph-name="obreve" unicode="&#x14f;" horiz-adv-x="1249" 
d="M258 1612l172 12q6 -113 58 -168t137 -55t136.5 55t57.5 168l172 -12q-6 -182 -107 -279.5t-259 -97.5t-259.5 98t-107.5 279zM625 -25q-236 0 -386.5 152.5t-150.5 421.5q0 135 41 244t113 180.5t170 110t213 38.5t212.5 -38.5t169.5 -110t113 -180.5t41 -244
q0 -269 -150 -421.5t-386 -152.5zM625 172q137 0 217 100.5t80 276.5t-80 275.5t-217 99.5t-216 -99.5t-79 -275.5t79 -276.5t216 -100.5z" />
    <glyph glyph-name="Ohungarumlaut" unicode="&#x150;" horiz-adv-x="1624" 
d="M645 1630l-125 64l254 334l203 -109zM1040 1630l-125 64l254 334l203 -109zM811 -29q-155 0 -285 54.5t-223 154.5t-145 249t-52 331t52 331t145 249t223 154t285 54t285.5 -54t223.5 -154t144.5 -249t51.5 -331q0 -243 -89.5 -422.5t-248.5 -273t-367 -93.5zM811 190
q209 0 326.5 152t117.5 418q0 263 -118 416t-326 153q-207 0 -325.5 -152t-118.5 -417q0 -262 119 -416t325 -154z" />
    <glyph glyph-name="ohungarumlaut" unicode="&#x151;" horiz-adv-x="1249" 
d="M459 1231l-131 59l239 412l203 -90zM840 1231l-131 59l241 412l203 -90zM625 -25q-236 0 -386.5 152.5t-150.5 421.5q0 135 41 244t113 180.5t170 110t213 38.5t212.5 -38.5t169.5 -110t113 -180.5t41 -244q0 -269 -150 -421.5t-386 -152.5zM625 172q137 0 217 100.5
t80 276.5t-80 275.5t-217 99.5t-216 -99.5t-79 -275.5t79 -276.5t216 -100.5z" />
    <glyph glyph-name="OE" unicode="&#x152;" horiz-adv-x="2242" 
d="M2128 0h-1022q-113 -29 -238 -29q-224 0 -396 94.5t-269 274.5t-97 420q0 181 56 329t156.5 248.5t241 155.5t308.5 55q129 0 238 -28h1005v-211h-739v-408h658v-209h-658v-479h756v-213zM367 760q0 -269 136.5 -422.5t391.5 -153.5q137 0 231 43v1061q-110 47 -241 47
q-246 0 -382 -152t-136 -423z" />
    <glyph glyph-name="oe" unicode="&#x153;" horiz-adv-x="2015" 
d="M1903 98q-76 -52 -187.5 -87.5t-247.5 -35.5q-306 0 -444 195q-66 -95 -170 -145t-233 -50q-114 0 -211 38.5t-169 110t-112.5 181t-40.5 244.5q0 268 149.5 420.5t383.5 152.5q131 0 235.5 -51.5t171.5 -152.5q138 204 414 204q127 0 222 -42.5t149 -117t80 -164.5
t26 -196v-113h-776q16 -317 356 -317q109 0 194 31t169 92zM1440 940q-121 0 -201.5 -74.5t-93.5 -214.5h547v17q0 55 -13.5 101.5t-41.5 86t-78.5 62t-118.5 22.5zM621 172q137 0 214.5 99t77.5 278q0 177 -77.5 276t-214.5 99q-136 0 -213.5 -99.5t-77.5 -275.5t78 -276.5
t213 -100.5z" />
    <glyph glyph-name="Racute" unicode="&#x154;" horiz-adv-x="1443" 
d="M608 1630l-125 78l322 320l217 -132zM432 561v-561h-244v1520h517q278 0 424.5 -122t146.5 -354q0 -79 -18 -146.5t-48 -115t-72 -86t-85.5 -62t-94.5 -40.5l445 -594h-295l-399 561h-277zM680 1311h-248v-547h281q41 0 79 5.5t81.5 23.5t75 46.5t52.5 79.5t21 119
q0 273 -342 273z" />
    <glyph glyph-name="racute" unicode="&#x155;" horiz-adv-x="858" 
d="M403 1221l-137 57l242 424l221 -94zM393 657v-657h-233v1098h217l6 -209q102 229 313 229q85 0 131 -24l-18 -222q-66 25 -139 25q-102 0 -175 -57t-102 -183z" />
    <glyph glyph-name="uni0156" unicode="&#x156;" horiz-adv-x="1443" 
d="M432 561v-561h-244v1520h517q278 0 424.5 -122t146.5 -354q0 -79 -18 -146.5t-48 -115t-72 -86t-85.5 -62t-94.5 -40.5l445 -594h-295l-399 561h-277zM680 1311h-248v-547h281q41 0 79 5.5t81.5 23.5t75 46.5t52.5 79.5t21 119q0 273 -342 273zM696 -508l-180 23
q109 156 109 340v32h215q2 -23 2 -49q0 -184 -146 -346z" />
    <glyph glyph-name="uni0157" unicode="&#x157;" horiz-adv-x="858" 
d="M393 657v-657h-233v1098h217l6 -209q102 229 313 229q85 0 131 -24l-18 -222q-66 25 -139 25q-102 0 -175 -57t-102 -183zM244 -508l-181 23q109 156 109 340v32h215q2 -23 2 -49q0 -185 -145 -346z" />
    <glyph glyph-name="Rcaron" unicode="&#x158;" horiz-adv-x="1443" 
d="M1081 1966l-305 -313h-192l-305 313l210 41l191 -221l190 221zM432 561v-561h-244v1520h517q278 0 424.5 -122t146.5 -354q0 -79 -18 -146.5t-48 -115t-72 -86t-85.5 -62t-94.5 -40.5l445 -594h-295l-399 561h-277zM680 1311h-248v-547h281q41 0 79 5.5t81.5 23.5
t75 46.5t52.5 79.5t21 119q0 273 -342 273z" />
    <glyph glyph-name="rcaron" unicode="&#x159;" horiz-adv-x="858" 
d="M823 1634l-282 -391h-193l-282 391l194 41l184 -291l185 291zM393 657v-657h-233v1098h217l6 -209q102 229 313 229q85 0 131 -24l-18 -222q-66 25 -139 25q-102 0 -175 -57t-102 -183z" />
    <glyph glyph-name="Sacute" unicode="&#x15a;" horiz-adv-x="1263" 
d="M575 1630l-124 78l321 320l217 -132zM92 123l60 231q226 -166 475 -166q150 0 222.5 55t72.5 152q0 33 -8.5 60t-22 48t-39.5 40t-49 32.5t-64.5 29t-73 26t-85.5 26.5q-56 17 -90 28t-87.5 33.5t-86.5 43.5t-72.5 56t-61.5 74t-37.5 93.5t-15.5 118.5q0 200 137 322
t398 122q270 0 442 -121l-55 -231q-179 135 -394 135q-146 0 -213 -56t-67 -147q0 -44 14.5 -77.5t43 -57.5t69.5 -43.5t94.5 -38t116.5 -37.5h2q41 -13 65.5 -20.5t64 -22t64 -26.5t58.5 -29.5t56 -36.5t47.5 -43.5t41.5 -53t30 -62t20.5 -74t6.5 -86.5q0 -210 -140 -329.5
t-413 -119.5q-308 0 -526 152z" />
    <glyph glyph-name="sacute" unicode="&#x15b;" horiz-adv-x="1030" 
d="M510 1221l-137 57l241 424l222 -94zM90 84l41 205q186 -123 383 -123t197 129q0 61 -48 89.5t-184 66.5q-49 14 -81.5 24.5t-74 27t-68.5 33.5t-55.5 42t-45 54t-27 67.5t-10.5 84.5q0 157 111.5 247.5t314.5 90.5q207 0 354 -88l-41 -203q-165 101 -315 101
q-97 0 -146 -35.5t-49 -93.5q0 -44 32 -73t69.5 -42t140.5 -41q4 -1 6 -2q66 -18 113 -35t94.5 -44t76.5 -60t47.5 -82t18.5 -111q0 -166 -118.5 -252t-327.5 -86q-238 0 -408 109z" />
    <glyph glyph-name="Scircumflex" unicode="&#x15c;" horiz-adv-x="1263" 
d="M1049 1679l-211 -41l-191 222l-190 -222l-211 41l305 314h192zM92 123l60 231q226 -166 475 -166q150 0 222.5 55t72.5 152q0 33 -8.5 60t-22 48t-39.5 40t-49 32.5t-64.5 29t-73 26t-85.5 26.5q-56 17 -90 28t-87.5 33.5t-86.5 43.5t-72.5 56t-61.5 74t-37.5 93.5
t-15.5 118.5q0 200 137 322t398 122q270 0 442 -121l-55 -231q-179 135 -394 135q-146 0 -213 -56t-67 -147q0 -44 14.5 -77.5t43 -57.5t69.5 -43.5t94.5 -38t116.5 -37.5h2q41 -13 65.5 -20.5t64 -22t64 -26.5t58.5 -29.5t56 -36.5t47.5 -43.5t41.5 -53t30 -62t20.5 -74
t6.5 -86.5q0 -210 -140 -329.5t-413 -119.5q-308 0 -526 152z" />
    <glyph glyph-name="scircumflex" unicode="&#x15d;" horiz-adv-x="1030" 
d="M903 1272l-194 -39l-185 301l-184 -301l-195 39l283 405h193zM90 84l41 205q186 -123 383 -123t197 129q0 61 -48 89.5t-184 66.5q-49 14 -81.5 24.5t-74 27t-68.5 33.5t-55.5 42t-45 54t-27 67.5t-10.5 84.5q0 157 111.5 247.5t314.5 90.5q207 0 354 -88l-41 -203
q-165 101 -315 101q-97 0 -146 -35.5t-49 -93.5q0 -44 32 -73t69.5 -42t140.5 -41q4 -1 6 -2q66 -18 113 -35t94.5 -44t76.5 -60t47.5 -82t18.5 -111q0 -166 -118.5 -252t-327.5 -86q-238 0 -408 109z" />
    <glyph glyph-name="Scedilla" unicode="&#x15e;" horiz-adv-x="1263" 
d="M895 -274q0 -101 -72 -161.5t-217 -60.5q-109 0 -211 35l41 158q82 -37 180 -37q105 0 105 70q0 34 -40 54.5t-167 47.5l59 139q-282 12 -481 152l60 231q226 -166 475 -166q150 0 222.5 55t72.5 152q0 33 -8.5 60t-22 48t-39.5 40t-49 32.5t-64.5 29t-73 26t-85.5 26.5
q-56 17 -90 28t-87.5 33.5t-86.5 43.5t-72.5 56t-61.5 74t-37.5 93.5t-15.5 118.5q0 200 137 322t398 122q270 0 442 -121l-55 -231q-179 135 -394 135q-146 0 -213 -56t-67 -147q0 -44 14.5 -77.5t43 -57.5t69.5 -43.5t94.5 -38t116.5 -37.5h2q41 -13 65.5 -20.5t64 -22
t64 -26.5t58.5 -29.5t56 -36.5t47.5 -43.5t41.5 -53t30 -62t20.5 -74t6.5 -86.5q0 -195 -121.5 -312.5t-359.5 -134.5l-20 -43q70 -20 117 -44t69.5 -51.5t30.5 -52.5t8 -56z" />
    <glyph glyph-name="scedilla" unicode="&#x15f;" horiz-adv-x="1030" 
d="M770 -274q0 -101 -72 -161.5t-217 -60.5q-109 0 -211 35l41 158q82 -37 181 -37q104 0 104 70q0 34 -40 54.5t-167 47.5l62 145q-206 9 -361 107l41 205q186 -123 383 -123t197 129q0 61 -48 89.5t-184 66.5q-49 14 -81.5 24.5t-74 27t-68.5 33.5t-55.5 42t-45 54
t-27 67.5t-10.5 84.5q0 157 111.5 247.5t314.5 90.5q207 0 354 -88l-41 -203q-165 101 -315 101q-97 0 -146 -35.5t-49 -93.5q0 -44 32 -73t69.5 -42t140.5 -41q4 -1 6 -2q66 -18 113 -35t94.5 -44t76.5 -60t47.5 -82t18.5 -111q0 -152 -99.5 -237t-277.5 -99l-22 -47
q70 -20 117 -44t69.5 -51.5t30.5 -52.5t8 -56z" />
    <glyph glyph-name="Scaron" unicode="&#x160;" horiz-adv-x="1263" 
d="M1049 1966l-306 -313h-192l-305 313l211 41l190 -221l191 221zM92 123l60 231q226 -166 475 -166q150 0 222.5 55t72.5 152q0 33 -8.5 60t-22 48t-39.5 40t-49 32.5t-64.5 29t-73 26t-85.5 26.5q-56 17 -90 28t-87.5 33.5t-86.5 43.5t-72.5 56t-61.5 74t-37.5 93.5
t-15.5 118.5q0 200 137 322t398 122q270 0 442 -121l-55 -231q-179 135 -394 135q-146 0 -213 -56t-67 -147q0 -44 14.5 -77.5t43 -57.5t69.5 -43.5t94.5 -38t116.5 -37.5h2q41 -13 65.5 -20.5t64 -22t64 -26.5t58.5 -29.5t56 -36.5t47.5 -43.5t41.5 -53t30 -62t20.5 -74
t6.5 -86.5q0 -210 -140 -329.5t-413 -119.5q-308 0 -526 152z" />
    <glyph glyph-name="scaron" unicode="&#x161;" horiz-adv-x="1030" 
d="M903 1634l-282 -391h-193l-283 391l195 41l184 -291l185 291zM90 84l41 205q186 -123 383 -123t197 129q0 61 -48 89.5t-184 66.5q-49 14 -81.5 24.5t-74 27t-68.5 33.5t-55.5 42t-45 54t-27 67.5t-10.5 84.5q0 157 111.5 247.5t314.5 90.5q207 0 354 -88l-41 -203
q-165 101 -315 101q-97 0 -146 -35.5t-49 -93.5q0 -44 32 -73t69.5 -42t140.5 -41q4 -1 6 -2q66 -18 113 -35t94.5 -44t76.5 -60t47.5 -82t18.5 -111q0 -166 -118.5 -252t-327.5 -86q-238 0 -408 109z" />
    <glyph glyph-name="uni0162" unicode="&#x162;" horiz-adv-x="1234" 
d="M870 -274q0 -101 -72 -161.5t-216 -60.5q-108 0 -211 35l41 158q82 -37 180 -37q104 0 104 70q0 34 -40 54.5t-167 47.5l70 168h-63v1309h-473v211h1191v-211h-475v-1309h-61l-33 -70q70 -20 117 -44t69.5 -51.5t30.5 -52.5t8 -56z" />
    <glyph glyph-name="uni0163" unicode="&#x163;" horiz-adv-x="845" 
d="M723 -274q0 -101 -72 -161.5t-217 -60.5q-108 0 -211 35l41 158q82 -37 180 -37q105 0 105 70q0 34 -40 54.5t-167 47.5l70 164q-193 64 -193 330v594h-180v178h180v293l234 59v-352h335v-178h-335v-562q0 -93 36 -136.5t115 -43.5q80 0 168 55l25 -198
q-107 -60 -250 -60h-29l-20 -45q70 -20 117 -44t69.5 -51.5t30.5 -52.5t8 -56z" />
    <glyph glyph-name="Tcaron" unicode="&#x164;" horiz-adv-x="1234" 
d="M1020 1966l-305 -313h-193l-305 313l211 41l190 -221l191 221zM1214 1309h-475v-1309h-243v1309h-473v211h1191v-211z" />
    <glyph glyph-name="tcaron" unicode="&#x165;" horiz-adv-x="845" 
d="M750 1235h-152l49 475h227zM797 35q-107 -60 -250 -60q-150 0 -239 84t-89 267v594h-180v178h180v293l234 59v-352h335v-178h-335v-562q0 -93 36 -136.5t115 -43.5q80 0 168 55z" />
    <glyph glyph-name="Tbar" unicode="&#x166;" horiz-adv-x="1234" 
d="M1075 674h-336v-674h-243v674h-334v192h334v443h-473v211h1191v-211h-475v-443h336v-192z" />
    <glyph glyph-name="tbar" unicode="&#x167;" horiz-adv-x="886" 
d="M817 35q-107 -60 -250 -60q-150 0 -238.5 84t-88.5 267v206h-181v156h181v232h-181v178h181v293l233 59v-352h336v-178h-336v-232h336v-156h-336v-174q0 -93 36.5 -136.5t115.5 -43.5q80 0 168 55z" />
    <glyph glyph-name="Utilde" unicode="&#x168;" horiz-adv-x="1552" 
d="M506 1642l-164 15q0 158 68 236.5t178 78.5q42 0 84.5 -12.5t68.5 -26t62 -35.5q91 -63 147 -63q97 0 97 152l163 -15q0 -158 -68 -236.5t-177 -78.5q-61 0 -110 19.5t-105 54.5q-41 25 -59 35.5t-42 19t-47 8.5q-96 0 -96 -152zM172 598v922h246v-924q0 -198 93 -302
t267 -104t267.5 104t93.5 302v924h239v-922q0 -304 -153.5 -465.5t-452.5 -161.5q-298 0 -449 161t-151 466z" />
    <glyph glyph-name="utilde" unicode="&#x169;" horiz-adv-x="1265" 
d="M377 1260l-164 14q0 159 66 238t170 79q58 0 105.5 -20t102.5 -55q50 -34 80.5 -49t59.5 -15q88 0 88 152l164 -13q0 -160 -66 -238.5t-170 -78.5q-58 0 -106 20t-103 56q-50 33 -79.5 47t-59.5 14q-88 0 -88 -151zM889 0l-4 170q-132 -195 -363 -195q-174 0 -272 108
t-98 302v713h233v-664q0 -252 207 -252q107 0 178 60.5t102 144.5v711h234v-1098h-217z" />
    <glyph glyph-name="Umacron" unicode="&#x16a;" horiz-adv-x="1552" 
d="M410 1726v177h733v-177h-733zM172 598v922h246v-924q0 -198 93 -302t267 -104t267.5 104t93.5 302v924h239v-922q0 -304 -153.5 -465.5t-452.5 -161.5q-298 0 -449 161t-151 466z" />
    <glyph glyph-name="umacron" unicode="&#x16b;" horiz-adv-x="1265" 
d="M297 1339v174h668v-174h-668zM889 0l-4 170q-132 -195 -363 -195q-174 0 -272 108t-98 302v713h233v-664q0 -252 207 -252q107 0 178 60.5t102 144.5v711h234v-1098h-217z" />
    <glyph glyph-name="Ubreve" unicode="&#x16c;" horiz-adv-x="1552" 
d="M410 1976l172 15q7 -94 57.5 -141.5t136.5 -47.5t137 47.5t58 141.5l172 -15q-6 -163 -107.5 -251.5t-259.5 -88.5t-259 88.5t-107 251.5zM172 598v922h246v-924q0 -198 93 -302t267 -104t267.5 104t93.5 302v924h239v-922q0 -304 -153.5 -465.5t-452.5 -161.5
q-298 0 -449 161t-151 466z" />
    <glyph glyph-name="ubreve" unicode="&#x16d;" horiz-adv-x="1265" 
d="M264 1612l172 12q6 -113 58 -168t137 -55t136.5 55t57.5 168l172 -12q-6 -182 -107 -279.5t-259 -97.5t-259.5 98t-107.5 279zM889 0l-4 170q-132 -195 -363 -195q-174 0 -272 108t-98 302v713h233v-664q0 -252 207 -252q107 0 178 60.5t102 144.5v711h234v-1098h-217z
" />
    <glyph glyph-name="Uring" unicode="&#x16e;" horiz-adv-x="1552" 
d="M776 1589q-116 0 -192 74.5t-76 183.5q0 110 76 184t192 74t192 -74t76 -184q0 -109 -76 -183.5t-192 -74.5zM776 1724q58 0 93.5 33.5t35.5 89.5t-35.5 90.5t-93.5 34.5t-93.5 -34.5t-35.5 -90.5t35.5 -89.5t93.5 -33.5zM172 598v922h246v-924q0 -198 93 -302t267 -104
t267.5 104t93.5 302v924h239v-922q0 -304 -153.5 -465.5t-452.5 -161.5q-298 0 -449 161t-151 466z" />
    <glyph glyph-name="uring" unicode="&#x16f;" horiz-adv-x="1265" 
d="M631 1204q-116 0 -192.5 75t-76.5 183q0 110 76.5 184t192.5 74t192 -74t76 -184q0 -109 -76 -183.5t-192 -74.5zM631 1339q58 0 93.5 33.5t35.5 89.5t-35.5 90.5t-93.5 34.5t-93.5 -34.5t-35.5 -90.5t35.5 -89.5t93.5 -33.5zM889 0l-4 170q-132 -195 -363 -195
q-174 0 -272 108t-98 302v713h233v-664q0 -252 207 -252q107 0 178 60.5t102 144.5v711h234v-1098h-217z" />
    <glyph glyph-name="Uhungarumlaut" unicode="&#x170;" horiz-adv-x="1552" 
d="M610 1630l-125 64l254 334l203 -109zM1006 1630l-125 64l254 334l202 -109zM172 598v922h246v-924q0 -198 93 -302t267 -104t267.5 104t93.5 302v924h239v-922q0 -304 -153.5 -465.5t-452.5 -161.5q-298 0 -449 161t-151 466z" />
    <glyph glyph-name="uhungarumlaut" unicode="&#x171;" horiz-adv-x="1265" 
d="M465 1231l-131 59l239 412l203 -90zM846 1231l-131 59l241 412l203 -90zM889 0l-4 170q-132 -195 -363 -195q-174 0 -272 108t-98 302v713h233v-664q0 -252 207 -252q107 0 178 60.5t102 144.5v711h234v-1098h-217z" />
    <glyph glyph-name="Uogonek" unicode="&#x172;" horiz-adv-x="1552" 
d="M1096 -434q-96 -62 -217 -62q-116 0 -180 57t-64 156q0 147 147 254h-10q-298 0 -449 161t-151 466v922h246v-924q0 -198 93 -302t267 -104t267.5 104t93.5 302v924h239v-922q0 -232 -89 -382t-265 -208q-209 -98 -209 -227q0 -49 28 -78t85 -29q67 0 131 45z" />
    <glyph glyph-name="uogonek" unicode="&#x173;" horiz-adv-x="1265" 
d="M1126 -434q-92 -62 -215 -62q-116 0 -179.5 57t-63.5 156q0 176 221 295l-4 158q-132 -195 -363 -195q-174 0 -272 108t-98 302v713h233v-664q0 -252 207 -252q107 0 178 60.5t102 144.5v711h234v-1098h-19q-124 -51 -182.5 -105.5t-58.5 -119.5q0 -46 27.5 -73.5
t84.5 -27.5q71 0 132 45z" />
    <glyph glyph-name="Wcircumflex" unicode="&#x174;" horiz-adv-x="2222" 
d="M1511 1679l-211 -41l-190 222l-190 -222l-211 41l305 314h192zM1444 0l-332 1186l-336 -1186h-274l-451 1520h273l327 -1231l342 1231h252l342 -1233l324 1233h260l-455 -1520h-272z" />
    <glyph glyph-name="wcircumflex" unicode="&#x175;" horiz-adv-x="1781" 
d="M1276 1272l-195 -39l-184 301l-184 -301l-195 39l283 405h192zM1137 0l-244 813l-248 -813h-239l-361 1098h260l227 -846l248 846h236l246 -846l227 846h252l-363 -1098h-241z" />
    <glyph glyph-name="Ycircumflex" unicode="&#x176;" horiz-adv-x="1312" 
d="M1059 1679l-211 -41l-191 222l-190 -222l-211 41l305 314h193zM1303 1520l-525 -938v-582h-243v578l-523 942h281l369 -719l368 719h273z" />
    <glyph glyph-name="ycircumflex" unicode="&#x177;" horiz-adv-x="1159" 
d="M967 1272l-195 -39l-184 301l-185 -301l-194 39l283 405h192zM713 12q-56 -147 -110 -242.5t-112.5 -148t-116.5 -72.5t-136 -20q-89 0 -172 27l20 211q74 -29 141 -29q80 0 130.5 53t111.5 195l-432 1112h266l291 -865l287 865h247z" />
    <glyph glyph-name="Ydieresis" unicode="&#x178;" horiz-adv-x="1312" 
d="M764 1694v241h240v-241h-240zM311 1694v241h240v-241h-240zM1303 1520l-525 -938v-582h-243v578l-523 942h281l369 -719l368 719h273z" />
    <glyph glyph-name="Zacute" unicode="&#x179;" horiz-adv-x="1370" 
d="M614 1630l-125 78l322 320l217 -132zM1274 213v-213h-1182v199l852 1110h-815v211h1124v-191l-856 -1116h877z" />
    <glyph glyph-name="zacute" unicode="&#x17a;" horiz-adv-x="1036" 
d="M506 1221l-137 57l241 424l221 -94zM958 188v-188h-880v172l586 735h-560v191h842v-174l-590 -736h602z" />
    <glyph glyph-name="Zdotaccent" unicode="&#x17b;" horiz-adv-x="1370" 
d="M553 1694v241h266v-241h-266zM1274 213v-213h-1182v199l852 1110h-815v211h1124v-191l-856 -1116h877z" />
    <glyph glyph-name="zdotaccent" unicode="&#x17c;" horiz-adv-x="1036" 
d="M387 1307v239h262v-239h-262zM958 188v-188h-880v172l586 735h-560v191h842v-174l-590 -736h602z" />
    <glyph glyph-name="Zcaron" unicode="&#x17d;" horiz-adv-x="1370" 
d="M1087 1966l-305 -313h-192l-305 313l211 41l190 -221l191 221zM1274 213v-213h-1182v199l852 1110h-815v211h1124v-191l-856 -1116h877z" />
    <glyph glyph-name="zcaron" unicode="&#x17e;" horiz-adv-x="1036" 
d="M897 1634l-283 -391h-192l-283 391l195 41l184 -291l184 291zM958 188v-188h-880v172l586 735h-560v191h842v-174l-590 -736h602z" />
    <glyph glyph-name="longs" unicode="&#x17f;" horiz-adv-x="636" 
d="M166 0v1192q0 420 395 420q100 0 168 -19l-16 -204q-68 22 -148 22q-89 0 -127.5 -46.5t-38.5 -166.5v-1198h-233z" />
    <glyph glyph-name="uni018F" unicode="&#x18f;" horiz-adv-x="1540" 
d="M1434 760q0 -374 -172 -581.5t-500 -207.5q-134 0 -242.5 36.5t-182.5 100.5t-123.5 155t-72 196t-22.5 227q0 69 6 143h1053q-8 247 -119.5 373.5t-356.5 126.5q-299 0 -489 -174l-68 217q88 75 239 125.5t337 50.5t324 -56t222.5 -161.5t125.5 -247.5t41 -323zM756 190
q182 0 292.5 112t127.5 325h-801v-21q0 -88 23 -162.5t68 -132t119.5 -89.5t170.5 -32z" />
    <glyph glyph-name="florin" unicode="&#x192;" 
d="M627 76q-24 -122 -63 -206t-93.5 -132t-118.5 -69t-147 -21q-128 0 -199 43l43 213q62 -49 162 -49q78 0 118 47t66 178l140 696h-205v162h237l37 182q21 107 59.5 186.5t82.5 125t101 72.5t107.5 35.5t110.5 8.5q127 0 205 -43l-49 -213q-83 49 -174 49
q-94 0 -139.5 -47.5t-71.5 -177.5l-35 -178h301v-162h-334z" />
    <glyph glyph-name="Ohorn" unicode="&#x1a0;" horiz-adv-x="1626" 
d="M1516 760q0 -243 -89.5 -422.5t-248.5 -273t-367 -93.5q-155 0 -285 54.5t-223 154.5t-145 249t-52 331t52 331t145 249t223 154t285 54t285 -53h39q116 0 160 50t44 149q0 48 -8 102h207q10 -73 10 -119q0 -263 -248 -317q103 -103 159.5 -256t56.5 -344zM811 190
q209 0 326.5 152t117.5 418q0 263 -118 416t-326 153q-207 0 -325.5 -152t-118.5 -417q0 -262 119 -416t325 -154z" />
    <glyph glyph-name="ohorn" unicode="&#x1a1;" horiz-adv-x="1294" 
d="M1161 549q0 -269 -150 -421.5t-386 -152.5t-386.5 152.5t-150.5 421.5q0 135 41 244t113 180.5t170 110t213 38.5q132 0 239 -49q112 1 156.5 51t44.5 146q0 44 -10 102h207q10 -48 10 -117q0 -258 -236 -315q125 -154 125 -391zM625 172q137 0 217 100.5t80 276.5
t-80 275.5t-217 99.5t-216 -99.5t-79 -275.5t79 -276.5t216 -100.5z" />
    <glyph glyph-name="Uhorn" unicode="&#x1af;" horiz-adv-x="1599" 
d="M1139 596v924h131q99 0 133.5 45.5t34.5 128.5q0 39 -11 102h207q11 -53 11 -119q0 -273 -267 -303v-776q0 -304 -153.5 -465.5t-452.5 -161.5q-298 0 -449 161t-151 466v922h246v-924q0 -198 93 -302t267 -104t267.5 104t93.5 302z" />
    <glyph glyph-name="uhorn" unicode="&#x1b0;" horiz-adv-x="1345" 
d="M872 387v711h140q35 0 59 6t46.5 23t34 53t11.5 92q0 46 -8 100h207q10 -72 10 -117q0 -278 -266 -305v-950h-217l-4 170q-132 -195 -363 -195q-174 0 -272 108t-98 302v713h233v-664q0 -252 207 -252q107 0 178 60.5t102 144.5z" />
    <glyph glyph-name="Aringacute" unicode="&#x1fa;" horiz-adv-x="1482" 
d="M670 2007l-125 78l321 319l217 -131zM1184 0l-137 387h-621l-137 -387h-260l569 1520h16q-65 33 -103 94t-38 135q0 110 76 184t192 74t192.5 -74t76.5 -184q0 -74 -38.5 -135t-103.5 -94h17l567 -1520h-268zM741 1626q58 0 93.5 33.5t35.5 89.5t-35.5 90.5t-93.5 34.5
t-93.5 -34.5t-35.5 -90.5t35.5 -89.5t93.5 -33.5zM498 592h477l-238 676z" />
    <glyph glyph-name="aringacute" unicode="&#x1fb;" horiz-adv-x="1187" 
d="M514 1733l-125 77l322 320l217 -131zM600 1192q-116 0 -192 74.5t-76 183.5q0 110 76 184t192 74t192 -74t76 -184q0 -109 -76 -183.5t-192 -74.5zM600 1327q58 0 93.5 33.5t35.5 89.5t-35.5 90.5t-93.5 34.5t-93.5 -34.5t-35.5 -90.5t35.5 -89.5t93.5 -33.5zM817 0
l-4 145q-135 -170 -356 -170q-163 0 -260 89t-97 249q0 183 139 273t423 90h139v41q0 107 -53.5 158t-186.5 51q-196 0 -352 -113l-41 195q160 114 422 114q235 0 339.5 -100t104.5 -289v-733h-217zM518 166q97 0 171 47.5t112 120.5v182h-115q-184 0 -269 -45t-85 -145
q0 -79 48.5 -119.5t137.5 -40.5z" />
    <glyph glyph-name="AEacute" unicode="&#x1fc;" horiz-adv-x="2125" 
d="M1221 1630l-125 78l321 320l217 -132zM1014 0v455h-574l-252 -455h-270l860 1520h1215v-211h-740v-408h658v-209h-658v-479h756v-213h-995zM1014 1315h-96l-363 -656h459v656z" />
    <glyph glyph-name="aeacute" unicode="&#x1fd;" horiz-adv-x="1892" 
d="M903 1221l-137 57l242 424l221 -94zM1780 98q-177 -123 -430 -123q-303 0 -443 191q-165 -191 -426 -191q-185 0 -285 88t-100 246q0 172 132.5 261t430.5 89h146v58q0 107 -56 158t-188 51q-203 0 -354 -113l-43 195q163 114 420 114q267 0 360 -155q136 155 377 155
q101 0 182.5 -28.5t135.5 -76.5t90 -115.5t51.5 -141.5t15.5 -158v-108h-772q13 -322 352 -322q111 0 196 31t167 92zM1317 940q-118 0 -197 -73.5t-94 -211.5h543v13q0 55 -13.5 101.5t-41.5 86t-78.5 62t-118.5 22.5zM520 166q103 0 183.5 47.5t121.5 126.5
q-17 68 -20 158h-121q-134 0 -213.5 -20.5t-110 -57.5t-30.5 -96q0 -77 49 -117.5t141 -40.5z" />
    <glyph glyph-name="Oslashacute" unicode="&#x1fe;" horiz-adv-x="1624" 
d="M739 1630l-125 78l322 320l217 -132zM811 -29q-227 0 -401 117l-129 -178l-136 57l158 215q-197 213 -197 578q0 182 52 331t145 249t223 154t285 54q232 0 401 -116l131 178l136 -58l-158 -215q195 -214 195 -577q0 -243 -89.5 -422.5t-248.5 -273t-367 -93.5zM367 760
q0 -224 88 -369l620 850q-111 88 -264 88q-207 0 -325.5 -152t-118.5 -417zM1255 760q0 221 -86 368l-620 -849q109 -89 262 -89q209 0 326.5 152t117.5 418z" />
    <glyph glyph-name="oslashacute" unicode="&#x1ff;" horiz-adv-x="1249" 
d="M612 1221l-137 57l242 424l221 -94zM625 -25q-160 0 -283 72l-123 -168l-123 58l142 192q-150 156 -150 420q0 135 41 244t113 180.5t170 110t213 38.5q160 0 284 -71l121 166l125 -56l-141 -194q147 -153 147 -418q0 -269 -150 -421.5t-386 -152.5zM330 549
q0 -138 47 -227l407 557q-70 45 -159 45q-137 0 -216 -99.5t-79 -275.5zM922 549q0 138 -50 227l-405 -559q67 -45 158 -45q137 0 217 100.5t80 276.5z" />
    <glyph glyph-name="uni0218" unicode="&#x218;" horiz-adv-x="1263" 
d="M92 123l60 231q226 -166 475 -166q150 0 222.5 55t72.5 152q0 33 -8.5 60t-22 48t-39.5 40t-49 32.5t-64.5 29t-73 26t-85.5 26.5q-56 17 -90 28t-87.5 33.5t-86.5 43.5t-72.5 56t-61.5 74t-37.5 93.5t-15.5 118.5q0 200 137 322t398 122q270 0 442 -121l-55 -231
q-179 135 -394 135q-146 0 -213 -56t-67 -147q0 -44 14.5 -77.5t43 -57.5t69.5 -43.5t94.5 -38t116.5 -37.5h2q41 -13 65.5 -20.5t64 -22t64 -26.5t58.5 -29.5t56 -36.5t47.5 -43.5t41.5 -53t30 -62t20.5 -74t6.5 -86.5q0 -210 -140 -329.5t-413 -119.5q-308 0 -526 152z
M625 -508l-181 23q109 156 109 340v32h215q2 -23 2 -49q0 -185 -145 -346z" />
    <glyph glyph-name="uni0219" unicode="&#x219;" horiz-adv-x="1030" 
d="M90 84l41 205q186 -123 383 -123t197 129q0 61 -48 89.5t-184 66.5q-49 14 -81.5 24.5t-74 27t-68.5 33.5t-55.5 42t-45 54t-27 67.5t-10.5 84.5q0 157 111.5 247.5t314.5 90.5q207 0 354 -88l-41 -203q-165 101 -315 101q-97 0 -146 -35.5t-49 -93.5q0 -44 32 -73
t69.5 -42t140.5 -41q4 -1 6 -2q66 -18 113 -35t94.5 -44t76.5 -60t47.5 -82t18.5 -111q0 -166 -118.5 -252t-327.5 -86q-238 0 -408 109zM494 -508l-181 23q109 156 109 340v32h215q2 -23 2 -49q0 -185 -145 -346z" />
    <glyph glyph-name="uni021A" unicode="&#x21a;" horiz-adv-x="1234" 
d="M1214 1309h-475v-1309h-243v1309h-473v211h1191v-211zM584 -508l-181 23q109 156 109 340v32h215q2 -23 2 -49q0 -185 -145 -346z" />
    <glyph glyph-name="uni021B" unicode="&#x21b;" horiz-adv-x="845" 
d="M797 35q-107 -60 -250 -60q-150 0 -239 84t-89 267v594h-180v178h180v293l234 59v-352h335v-178h-335v-562q0 -93 36 -136.5t115 -43.5q80 0 168 55zM444 -508l-180 23q109 156 109 340v32h215q2 -23 2 -49q0 -184 -146 -346z" />
    <glyph glyph-name="uni0237" unicode="&#x237;" horiz-adv-x="577" 
d="M-137 -446l20 206q54 -26 133 -26q87 0 126.5 50.5t39.5 176.5v1137h234v-1121q0 -239 -97.5 -343.5t-277.5 -104.5q-113 0 -178 25z" />
    <glyph glyph-name="uni0259" unicode="&#x259;" horiz-adv-x="1206" 
d="M1118 549q0 -277 -132.5 -425.5t-383.5 -148.5q-104 0 -187.5 26t-141 72.5t-96 112t-56 142.5t-17.5 166q0 22 5 114h774q-8 157 -87 237.5t-251 80.5q-213 0 -367 -113l-43 195q73 49 187.5 81.5t248.5 32.5q143 0 249 -41t170.5 -118t96 -180t31.5 -234zM594 162
q123 0 199.5 72t89.5 212h-551v-16q0 -121 67.5 -194.5t194.5 -73.5z" />
    <glyph glyph-name="uni02BB" unicode="&#x2bb;" horiz-adv-x="575" 
d="M483 1591q-110 -215 -110 -493q0 -74 2 -103h-236q-2 29 -2 103q0 277 144 493h202z" />
    <glyph glyph-name="uni02BC" unicode="&#x2bc;" horiz-adv-x="575" 
d="M92 997q111 216 111 494q0 73 -2 102h235q2 -29 2 -102q0 -279 -143 -494h-203z" />
    <glyph glyph-name="circumflex" unicode="&#x2c6;" horiz-adv-x="1024" 
d="M891 1272l-195 -39l-184 301l-184 -301l-195 39l283 405h192z" />
    <glyph glyph-name="caron" unicode="&#x2c7;" horiz-adv-x="1024" 
d="M891 1634l-283 -391h-192l-283 391l195 41l184 -291l184 291z" />
    <glyph glyph-name="uni02C9" unicode="&#x2c9;" horiz-adv-x="1024" 
d="M178 1339v174h668v-174h-668z" />
    <glyph glyph-name="breve" unicode="&#x2d8;" horiz-adv-x="1024" 
d="M145 1612l172 12q6 -113 58 -168t137 -55t137 55t58 168l172 -12q-6 -181 -107.5 -279t-259.5 -98t-259.5 98t-107.5 279z" />
    <glyph glyph-name="dotaccent" unicode="&#x2d9;" horiz-adv-x="1024" 
d="M381 1307v239h262v-239h-262z" />
    <glyph glyph-name="ring" unicode="&#x2da;" horiz-adv-x="1024" 
d="M512 1204q-116 0 -192 74.5t-76 183.5q0 110 76 184t192 74t192 -74t76 -184q0 -109 -76 -183.5t-192 -74.5zM512 1339q58 0 93.5 33.5t35.5 89.5t-35.5 90.5t-93.5 34.5t-93.5 -34.5t-35.5 -90.5t35.5 -89.5t93.5 -33.5z" />
    <glyph glyph-name="ogonek" unicode="&#x2db;" horiz-adv-x="1024" 
d="M776 -434q-96 -62 -217 -62q-115 0 -179.5 57t-64.5 156q0 169 205 295h185q-209 -108 -209 -231q0 -49 27.5 -78t84.5 -29q67 0 131 45z" />
    <glyph glyph-name="tilde" unicode="&#x2dc;" horiz-adv-x="1024" 
d="M258 1260l-164 14q0 159 66 238t170 79q58 0 106.5 -20t102.5 -55q34 -23 52.5 -34t42.5 -20.5t44 -9.5q88 0 88 152l164 -13q0 -160 -66 -238.5t-170 -78.5q-58 0 -106 20t-103 56q-50 33 -79.5 47t-59.5 14q-88 0 -88 -151z" />
    <glyph glyph-name="hungarumlaut" unicode="&#x2dd;" horiz-adv-x="1024" 
d="M346 1231l-131 59l240 412l202 -90zM727 1231l-131 59l242 412l202 -90z" />
    <glyph glyph-name="gravecomb" unicode="&#x300;" horiz-adv-x="0" 
d="M12 1221l-325 387l221 94l242 -424z" />
    <glyph glyph-name="acutecomb" unicode="&#x301;" horiz-adv-x="0" 
d="M-12 1221l-138 57l242 424l221 -94z" />
    <glyph glyph-name="uni0302" unicode="&#x302;" horiz-adv-x="0" 
d="M379 1272l-195 -39l-184 301l-184 -301l-195 39l283 405h192z" />
    <glyph glyph-name="tildecomb" unicode="&#x303;" horiz-adv-x="0" 
d="M-254 1260l-164 14q0 159 66 238t170 79q58 0 106.5 -20t102.5 -55q34 -23 52.5 -34t42.5 -20.5t44 -9.5q88 0 88 152l164 -13q0 -160 -66 -238.5t-170 -78.5q-58 0 -106 20t-103 56q-50 33 -79.5 47t-59.5 14q-88 0 -88 -151z" />
    <glyph glyph-name="uni0304" unicode="&#x304;" horiz-adv-x="0" 
d="M-334 1339v174h668v-174h-668z" />
    <glyph glyph-name="uni0306" unicode="&#x306;" horiz-adv-x="0" 
d="M-367 1612l172 12q6 -113 58 -168t137 -55t137 55t58 168l172 -12q-6 -181 -107.5 -279t-259.5 -98t-259.5 98t-107.5 279z" />
    <glyph glyph-name="uni0307" unicode="&#x307;" horiz-adv-x="0" 
d="M-131 1307v239h262v-239h-262z" />
    <glyph glyph-name="uni0308" unicode="&#x308;" horiz-adv-x="0" 
d="M104 1307v239h238v-239h-238zM-342 1307v239h238v-239h-238z" />
    <glyph glyph-name="hookabovecomb" unicode="&#x309;" horiz-adv-x="0" 
d="M20 1214l-114 99q105 51 145.5 84t40.5 82q0 37 -23.5 57t-82.5 20q-112 0 -199 -67l-37 153q118 74 258 74q124 0 199.5 -56t75.5 -163q0 -97 -65 -159.5t-198 -123.5z" />
    <glyph glyph-name="uni030A" unicode="&#x30a;" horiz-adv-x="0" 
d="M0 1204q-116 0 -192 74.5t-76 183.5q0 110 76 184t192 74t192 -74t76 -184q0 -109 -76 -183.5t-192 -74.5zM0 1339q58 0 93.5 33.5t35.5 89.5t-35.5 90.5t-93.5 34.5t-93.5 -34.5t-35.5 -90.5t35.5 -89.5t93.5 -33.5z" />
    <glyph glyph-name="uni030B" unicode="&#x30b;" horiz-adv-x="0" 
d="M-166 1231l-131 59l240 412l202 -90zM215 1231l-131 59l242 412l202 -90z" />
    <glyph glyph-name="uni030C" unicode="&#x30c;" horiz-adv-x="0" 
d="M379 1634l-283 -391h-192l-283 391l195 41l184 -291l184 291z" />
    <glyph glyph-name="uni0312" unicode="&#x312;" horiz-adv-x="0" 
d="M8 1667l180 -25q-86 -137 -86 -307q0 -41 4 -65h-212q-7 35 -7 73q0 176 121 324z" />
    <glyph glyph-name="uni031B" unicode="&#x31b;" horiz-adv-x="0" 
d="M-354 1098h100q35 0 59 6t47 23t34.5 53t11.5 92q0 39 -9 100h207q10 -72 10 -117q0 -307 -325 -307h-135v150z" />
    <glyph glyph-name="dotbelowcomb" unicode="&#x323;" horiz-adv-x="0" 
d="M-131 -397v239h262v-239h-262z" />
    <glyph glyph-name="uni0326" unicode="&#x326;" horiz-adv-x="0" 
d="M-23 -508l-180 23q109 156 109 340v32h215q2 -23 2 -49q0 -184 -146 -346z" />
    <glyph glyph-name="uni0327" unicode="&#x327;" horiz-adv-x="0" 
d="M248 -274q0 -101 -72 -161.5t-217 -60.5q-109 0 -211 35l41 158q82 -37 180 -37q105 0 105 70q0 34 -40 54.5t-167 47.5l76 180h118l-38 -82q70 -20 117 -44t69.5 -51.5t30.5 -52.5t8 -56z" />
    <glyph glyph-name="uni0328" unicode="&#x328;" horiz-adv-x="0" 
d="M264 -434q-96 -62 -217 -62q-115 0 -179.5 57t-64.5 156q0 169 205 295h185q-209 -108 -209 -231q0 -49 27.5 -78t84.5 -29q67 0 131 45z" />
    <glyph glyph-name="uni0374" unicode="&#x374;" horiz-adv-x="561" 
d="M109 965l157 628h269v-4l-261 -624h-165z" />
    <glyph glyph-name="uni037E" unicode="&#x37e;" horiz-adv-x="802" 
d="M256 786v312h291v-312h-291zM340 -332l-203 29q146 235 146 506q0 40 -7 110h248q8 -64 8 -118q0 -142 -50.5 -280t-141.5 -247z" />
    <glyph glyph-name="tonos" unicode="&#x384;" horiz-adv-x="491" 
d="M262 1219l-151 16l88 467h250v-4z" />
    <glyph glyph-name="dieresistonos" unicode="&#x385;" horiz-adv-x="1024" 
d="M532 1219l-151 16l76 467h239v-4zM719 1307v239h235v-239h-235zM70 1307v239h235v-239h-235z" />
    <glyph glyph-name="Alphatonos" unicode="&#x386;" horiz-adv-x="1488" 
d="M1192 0l-137 387h-621l-137 -387h-260l569 1520h287l567 -1520h-268zM180 1036l-151 17l88 467h250v-4zM506 592h477l-238 676z" />
    <glyph glyph-name="anoteleia" unicode="&#x387;" horiz-adv-x="778" 
d="M242 788v310h295v-310h-295z" />
    <glyph glyph-name="Epsilontonos" unicode="&#x388;" horiz-adv-x="1486" 
d="M1370 213v-213h-999v1520h983v-211h-740v-408h658v-209h-658v-479h756zM74 1036l-152 17l88 467h250v-4z" />
    <glyph glyph-name="Etatonos" unicode="&#x389;" horiz-adv-x="1755" 
d="M1323 0v690h-709v-690h-243v1520h243v-617h709v617h244v-1520h-244zM74 1036l-152 17l88 467h250v-4z" />
    <glyph glyph-name="Iotatonos" unicode="&#x38a;" horiz-adv-x="802" 
d="M371 0v1520h243v-1520h-243zM74 1036l-152 17l88 467h250v-4z" />
    <glyph glyph-name="Omicrontonos" unicode="&#x38c;" horiz-adv-x="1740" 
d="M930 -29q-155 0 -285 54.5t-223 154.5t-145 249t-52 331t52 331t145 249t223 154t285 54t285 -54t223 -154t144.5 -249t51.5 -331q0 -243 -89.5 -422.5t-248 -273t-366.5 -93.5zM74 1036l-152 17l88 467h250v-4zM930 190q209 0 326.5 152t117.5 418q0 263 -118 416
t-326 153q-207 0 -326 -152t-119 -417q0 -262 119.5 -416t325.5 -154z" />
    <glyph glyph-name="Upsilontonos" unicode="&#x38e;" horiz-adv-x="1628" 
d="M1616 1520l-524 -938v-582h-244v578l-522 942h280l369 -719l368 719h273zM74 1036l-152 17l88 467h250v-4z" />
    <glyph glyph-name="Omegatonos" unicode="&#x38f;" horiz-adv-x="1804" 
d="M831 190v-190h-628v213h336q-150 134 -229 297.5t-79 347.5q0 147 49.5 273t140.5 218.5t227 145.5t302 53q165 0 301 -53t227 -145.5t141 -219t50 -272.5q0 -183 -79 -347t-228 -298h336v-213h-631v190q342 301 342 652q0 222 -120.5 354.5t-338.5 132.5t-338 -132.5
t-120 -354.5q0 -357 339 -652zM74 1036l-152 17l88 467h250v-4z" />
    <glyph glyph-name="iotadieresistonos" unicode="&#x390;" horiz-adv-x="638" 
d="M336 1219l-152 16l76 467h240v-4zM522 1307v239h236v-239h-236zM-127 1307v239h236v-239h-236zM596 4q-60 -18 -154 -18q-143 0 -209.5 69t-66.5 211v832h233v-768q0 -80 22.5 -111t84.5 -31q46 0 90 15v-199z" />
    <glyph glyph-name="Alpha" unicode="&#x391;" horiz-adv-x="1482" 
d="M1184 0l-137 387h-621l-137 -387h-260l569 1520h287l567 -1520h-268zM498 592h477l-238 676z" />
    <glyph glyph-name="Beta" unicode="&#x392;" horiz-adv-x="1429" 
d="M1325 424q0 -94 -30 -167.5t-80.5 -121t-121.5 -78.5t-148 -44t-165 -13h-592v1520h562q252 0 377.5 -99.5t125.5 -292.5q0 -261 -237 -333q309 -69 309 -371zM729 1313h-301v-443h297q130 0 201 51.5t71 174.5q0 119 -66.5 168t-201.5 49zM428 684v-477h336
q55 0 98.5 6.5t83 22.5t65.5 42.5t41 68t15 97.5q0 129 -76 184.5t-221 55.5h-342z" />
    <glyph glyph-name="Gamma" unicode="&#x393;" horiz-adv-x="1159" 
d="M1139 1303h-707v-1303h-244v1520h951v-217z" />
    <glyph glyph-name="uni0394" unicode="&#x394;" horiz-adv-x="1482" 
d="M885 1520l567 -1520h-1423l569 1520h287zM365 213h743l-371 1055z" />
    <glyph glyph-name="Epsilon" unicode="&#x395;" horiz-adv-x="1304" 
d="M1188 213v-213h-1000v1520h983v-211h-739v-408h658v-209h-658v-479h756z" />
    <glyph glyph-name="Zeta" unicode="&#x396;" horiz-adv-x="1370" 
d="M1274 213v-213h-1182v199l852 1110h-815v211h1124v-191l-856 -1116h877z" />
    <glyph glyph-name="Eta" unicode="&#x397;" horiz-adv-x="1572" 
d="M1141 0v690h-709v-690h-244v1520h244v-617h709v617h243v-1520h-243z" />
    <glyph glyph-name="Theta" unicode="&#x398;" horiz-adv-x="1624" 
d="M811 -29q-155 0 -285 54.5t-223 154.5t-145 249t-52 331t52 331t145 249t223 154t285 54t285.5 -54t223.5 -154t144.5 -249t51.5 -331q0 -243 -89.5 -422.5t-248.5 -273t-367 -93.5zM811 190q209 0 326.5 152t117.5 418q0 263 -118 416t-326 153q-207 0 -325.5 -152
t-118.5 -417q0 -262 119 -416t325 -154zM502 678v201h618v-201h-618z" />
    <glyph glyph-name="Iota" unicode="&#x399;" horiz-adv-x="620" 
d="M188 0v1520h244v-1520h-244z" />
    <glyph glyph-name="Kappa" unicode="&#x39a;" horiz-adv-x="1437" 
d="M1122 0l-542 684l-148 -147v-537h-244v1520h244v-707l668 707h315v-4l-674 -670l693 -842v-4h-312z" />
    <glyph glyph-name="Lambda" unicode="&#x39b;" horiz-adv-x="1482" 
d="M1184 0l-447 1268l-448 -1268h-260l569 1520h287l567 -1520h-268z" />
    <glyph glyph-name="Mu" unicode="&#x39c;" horiz-adv-x="1998" 
d="M913 0l-497 1235v-1235h-228v1520h351l460 -1145l461 1145h350v-1520h-237v1235l-498 -1235h-162z" />
    <glyph glyph-name="Nu" unicode="&#x39d;" horiz-adv-x="1615" 
d="M1184 0l-766 1133v-1133h-230v1520h242l766 -1131v1131h231v-1520h-243z" />
    <glyph glyph-name="Xi" unicode="&#x39e;" horiz-adv-x="1374" 
d="M133 1303v217h1108v-217h-1108zM227 686v215h920v-215h-920zM117 0v217h1140v-217h-1140z" />
    <glyph glyph-name="Omicron" unicode="&#x39f;" horiz-adv-x="1624" 
d="M811 -29q-155 0 -285 54.5t-223 154.5t-145 249t-52 331t52 331t145 249t223 154t285 54t285.5 -54t223.5 -154t144.5 -249t51.5 -331q0 -243 -89.5 -422.5t-248.5 -273t-367 -93.5zM811 190q209 0 326.5 152t117.5 418q0 263 -118 416t-326 153q-207 0 -325.5 -152
t-118.5 -417q0 -262 119 -416t325 -154z" />
    <glyph glyph-name="Pi" unicode="&#x3a0;" horiz-adv-x="1554" 
d="M1122 0v1307h-690v-1307h-244v1520h1180v-1520h-246z" />
    <glyph glyph-name="Rho" unicode="&#x3a1;" horiz-adv-x="1366" 
d="M432 504v-504h-244v1520h527q288 0 436.5 -129t148.5 -375q0 -118 -34.5 -209t-90 -147t-134.5 -92t-160 -50t-174 -14h-275zM698 1311h-266v-598h262q57 0 104.5 7t94.5 27t79 52t52 86t20 125q0 301 -346 301z" />
    <glyph glyph-name="Sigma" unicode="&#x3a3;" horiz-adv-x="1370" 
d="M1282 213v-213h-1182v199l545 575l-528 555v191h1132v-211h-811l500 -523v-20l-524 -553h868z" />
    <glyph glyph-name="Tau" unicode="&#x3a4;" horiz-adv-x="1234" 
d="M1214 1309h-475v-1309h-243v1309h-473v211h1191v-211z" />
    <glyph glyph-name="Upsilon" unicode="&#x3a5;" horiz-adv-x="1312" 
d="M1303 1520l-525 -938v-582h-243v578l-523 942h281l369 -719l368 719h273z" />
    <glyph glyph-name="Phi" unicode="&#x3a6;" horiz-adv-x="1806" 
d="M1712 776q0 -150 -56 -274.5t-151.5 -206t-220 -127.5t-264.5 -49v-148h-232v148q-141 3 -266 49t-220.5 127.5t-151.5 206t-56 274.5t56 274.5t151.5 206.5t220.5 128t266 49v139h232v-139q140 -3 265 -49t220 -128t151 -206.5t56 -274.5zM350 776q0 -138 60 -242.5
t158 -158.5t220 -58v918q-122 -4 -220 -58t-158 -158.5t-60 -242.5zM1456 776q0 206 -125 329.5t-311 129.5v-918q186 6 311 129.5t125 329.5z" />
    <glyph glyph-name="Chi" unicode="&#x3a7;" horiz-adv-x="1402" 
d="M1065 0l-377 590l-364 -590h-281l514 768l-496 752h295l357 -568l346 568h280l-497 -740l518 -780h-295z" />
    <glyph glyph-name="Psi" unicode="&#x3a8;" horiz-adv-x="1748" 
d="M1622 1167q0 -209 -43.5 -359.5t-127.5 -239.5t-195.5 -130t-258.5 -41v-397h-245v397q-148 1 -260 42.5t-195.5 130.5t-126.5 239t-43 358v353h244v-373q0 -125 19 -219.5t51.5 -154.5t82 -97t104.5 -51.5t124 -14.5v910h245v-910q89 1 154.5 26t118.5 84t80.5 166
t27.5 261v373h244v-353z" />
    <glyph glyph-name="uni03A9" unicode="&#x3a9;" horiz-adv-x="1705" 
d="M735 190v-190h-629v213h336q-149 133 -228 297t-79 348q0 147 49.5 273t140.5 218.5t227 145.5t302 53q165 0 301 -53t227 -145.5t141 -219t50 -272.5q0 -183 -79 -347t-228 -298h336v-213h-631v190q342 301 342 652q0 222 -120.5 354.5t-338.5 132.5t-338.5 -132.5
t-120.5 -354.5q0 -356 340 -652z" />
    <glyph glyph-name="Iotadieresis" unicode="&#x3aa;" horiz-adv-x="620" 
d="M418 1694v241h239v-241h-239zM-35 1694v241h240v-241h-240zM188 0v1520h244v-1520h-244z" />
    <glyph glyph-name="Upsilondieresis" unicode="&#x3ab;" horiz-adv-x="1312" 
d="M764 1694v241h240v-241h-240zM311 1694v241h240v-241h-240zM1303 1520l-525 -938v-582h-243v578l-523 942h281l369 -719l368 719h273z" />
    <glyph glyph-name="alphatonos" unicode="&#x3ac;" horiz-adv-x="1345" 
d="M741 1219l-151 16l88 467h250v-4zM1153 -14q-206 0 -246 207q-120 -218 -352 -218q-93 0 -175 34.5t-146.5 101t-102 174.5t-37.5 245q0 271 137 431.5t353 160.5q254 0 348 -233l26 209h236q-58 -259 -80 -393.5t-22 -255.5q0 -136 30.5 -198.5t96.5 -62.5q37 0 81 15
v-199q-60 -18 -147 -18zM334 530q0 -176 72 -264t186 -88q120 0 195 95.5t92 267.5l6 59q-19 148 -84 236t-185 88q-131 0 -206.5 -106.5t-75.5 -287.5z" />
    <glyph glyph-name="epsilontonos" unicode="&#x3ad;" horiz-adv-x="1087" 
d="M649 1219l-151 16l88 467h250v-4zM1016 92q-170 -117 -443 -117q-226 0 -350.5 81.5t-124.5 228.5q0 205 242 284q-213 61 -213 248q0 141 126.5 223t354.5 82q231 0 381 -88l-41 -203q-151 97 -342 97q-112 0 -173.5 -33t-61.5 -98q0 -140 303 -140h137v-182h-160
q-146 0 -227.5 -43.5t-81.5 -124.5q0 -72 69.5 -105.5t190.5 -33.5t206.5 29.5t166.5 89.5z" />
    <glyph glyph-name="etatonos" unicode="&#x3ae;" horiz-adv-x="1320" 
d="M758 1219l-152 16l88 467h250v-4zM1169 713v-1162h-233v1111q0 251 -201 251q-96 0 -171.5 -51.5t-114.5 -146.5v-715h-234v770q0 78 -22 107.5t-74 29.5q-38 0 -62 -8v195q74 18 133 18q109 0 168 -47t72 -145q136 202 373 202q175 0 270.5 -107t95.5 -302z" />
    <glyph glyph-name="iotatonos" unicode="&#x3af;" horiz-adv-x="638" 
d="M354 1219l-151 16l88 467h250v-4zM596 4q-60 -18 -154 -18q-143 0 -209.5 69t-66.5 211v832h233v-768q0 -80 22.5 -111t84.5 -31q46 0 90 15v-199z" />
    <glyph glyph-name="upsilondieresistonos" unicode="&#x3b0;" horiz-adv-x="1247" 
d="M608 1219l-151 16l75 467h240v-4zM795 1307v239h235v-239h-235zM145 1307v239h236v-239h-236zM152 1098h233v-627q0 -145 66 -222t182 -77q262 0 262 418q0 224 -88 508h229q92 -256 92 -506q0 -190 -51.5 -325.5t-166.5 -213.5t-289 -78q-222 0 -345.5 124t-123.5 350
v649z" />
    <glyph glyph-name="alpha" unicode="&#x3b1;" horiz-adv-x="1345" 
d="M1153 -14q-206 0 -246 207q-120 -218 -352 -218q-93 0 -175 34.5t-146.5 101t-102 174.5t-37.5 245q0 271 137 431.5t353 160.5q254 0 348 -233l26 209h236q-58 -259 -80 -393.5t-22 -255.5q0 -136 30.5 -198.5t96.5 -62.5q37 0 81 15v-199q-60 -18 -147 -18zM334 530
q0 -176 72 -264t186 -88q120 0 195 95.5t92 267.5l6 59q-19 148 -84 236t-185 88q-131 0 -206.5 -106.5t-75.5 -287.5z" />
    <glyph glyph-name="beta" unicode="&#x3b2;" horiz-adv-x="1294" 
d="M705 -25q-187 0 -308 109v-533h-233v1547q0 137 38.5 239t107 160.5t153 86.5t186.5 28q215 0 343 -111.5t128 -296.5q0 -133 -68 -223.5t-182 -128.5q153 -36 241.5 -144t88.5 -270q0 -206 -139 -334.5t-356 -128.5zM397 1106v-817q91 -117 267 -117q140 0 219.5 77.5
t79.5 213.5q0 133 -82 206.5t-250 73.5h-78v185h82q121 0 184.5 67.5t63.5 180.5t-62 176t-174 63q-115 0 -182.5 -74t-67.5 -235z" />
    <glyph glyph-name="gamma" unicode="&#x3b3;" horiz-adv-x="1251" 
d="M1260 1098q-434 -763 -549 -1149l-17 -398h-260l49 429q-21 183 -62 384t-85 324q-41 116 -94.5 167.5t-132.5 51.5q-47 0 -93 -16l-16 207q68 16 152 16q87 0 150.5 -24.5t118 -82.5t94 -158.5t71.5 -247t57 -353.5q129 447 346 850h271z" />
    <glyph glyph-name="delta" unicode="&#x3b4;" horiz-adv-x="1253" 
d="M1165 510q0 -235 -144 -385t-394 -150q-242 0 -388.5 141.5t-146.5 375.5q0 89 23.5 165.5t63 132t95.5 100t116.5 73t131.5 47.5q-59 37 -100 69.5t-77 73.5t-53.5 89.5t-17.5 105.5q0 129 99.5 198.5t294.5 69.5q274 0 499 -150l-43 -204q-135 88 -239.5 122.5
t-229.5 34.5q-139 0 -139 -90q0 -51 50 -96.5t177 -124.5q43 -27 65 -41.5t64 -43.5t65.5 -49t59 -54t56 -63t44.5 -69.5t37 -81.5t22 -91.5t9 -104.5zM332 506q0 -156 85 -245t214 -89q133 0 214 95t81 249q0 71 -17 129.5t-51 103.5t-73 78t-95 68q-54 -6 -103.5 -23.5
t-96.5 -49.5t-81.5 -75t-55.5 -105t-21 -136z" />
    <glyph glyph-name="epsilon" unicode="&#x3b5;" horiz-adv-x="1087" 
d="M1016 92q-170 -117 -443 -117q-226 0 -350.5 81.5t-124.5 228.5q0 205 242 284q-213 61 -213 248q0 141 126.5 223t354.5 82q231 0 381 -88l-41 -203q-151 97 -342 97q-112 0 -173.5 -33t-61.5 -98q0 -140 303 -140h137v-182h-160q-146 0 -227.5 -43.5t-81.5 -124.5
q0 -72 69.5 -105.5t190.5 -33.5t206.5 29.5t166.5 89.5z" />
    <glyph glyph-name="zeta" unicode="&#x3b6;" horiz-adv-x="991" 
d="M991 -61q0 -101 -46 -203t-136 -191l-199 78q152 152 152 260q0 65 -47 91t-185 57q-78 17 -136.5 36t-117.5 52t-96 75t-60.5 106.5t-23.5 145.5q0 212 151 457.5t439 495.5h-80q-334 0 -448 20v195q141 -25 538 -25q83 0 287 4v-178q-220 -177 -369 -353t-213.5 -317.5
t-64.5 -259.5q0 -44 8.5 -78t30 -59.5t43.5 -42.5t64.5 -32t76.5 -24.5t94 -23.5q52 -12 81 -19.5t70.5 -21t64 -26.5t50 -34.5t40.5 -46.5t22.5 -60t9.5 -78z" />
    <glyph glyph-name="eta" unicode="&#x3b7;" horiz-adv-x="1320" 
d="M1169 713v-1162h-233v1111q0 251 -201 251q-96 0 -171.5 -51.5t-114.5 -146.5v-715h-234v770q0 78 -22 107.5t-74 29.5q-38 0 -62 -8v195q74 18 133 18q109 0 168 -47t72 -145q136 202 373 202q175 0 270.5 -107t95.5 -302z" />
    <glyph glyph-name="theta" unicode="&#x3b8;" horiz-adv-x="1253" 
d="M627 -25q-251 0 -384.5 211t-133.5 607t133.5 606.5t384.5 210.5q249 0 382.5 -210.5t133.5 -606.5t-133.5 -607t-382.5 -211zM627 1413q-266 0 -281 -520h559q-8 263 -76.5 391.5t-201.5 128.5zM627 172q135 0 204.5 134t75.5 407h-563q7 -273 77.5 -407t205.5 -134z
" />
    <glyph glyph-name="iota" unicode="&#x3b9;" horiz-adv-x="638" 
d="M596 4q-60 -18 -154 -18q-143 0 -209.5 69t-66.5 211v832h233v-768q0 -80 22.5 -111t84.5 -31q46 0 90 15v-199z" />
    <glyph glyph-name="kappa" unicode="&#x3ba;" horiz-adv-x="1208" 
d="M905 0l-340 506q-130 -173 -172 -232v-274h-233v1098h233v-549q196 306 343.5 435.5t320.5 129.5q62 0 102 -16l-18 -209q-37 16 -84 16q-85 0 -164 -50.5t-191 -180.5l486 -670v-4h-283z" />
    <glyph glyph-name="lambda" unicode="&#x3bb;" horiz-adv-x="1206" 
d="M920 0l-293 831l-316 -831h-258l469 1081q-32 85 -55 136t-47 91.5t-50 59.5t-56.5 28t-73.5 9q-64 0 -125 -21l-17 201q98 27 191 27q71 0 124 -16t95.5 -47t80.5 -90t71 -130t75 -182l436 -1147h-251z" />
    <glyph glyph-name="uni03BC" unicode="&#x3bc;" horiz-adv-x="1337" 
d="M588 -25q-130 0 -211 78l22 -502h-231v1547h233v-664q0 -252 207 -252q107 0 178.5 60.5t102.5 144.5v711h233v-772q0 -76 22 -107t73 -31q39 0 77 15v-199q-60 -18 -145 -18q-105 0 -163 41.5t-75 128.5q-128 -181 -323 -181z" />
    <glyph glyph-name="nu" unicode="&#x3bd;" horiz-adv-x="1179" 
d="M1083 1098q-3 -280 -118 -573.5t-308 -524.5h-217q-179 662 -417 1098h262q170 -350 307 -871q118 188 183 417t65 454h243z" />
    <glyph glyph-name="xi" unicode="&#x3be;" horiz-adv-x="1048" 
d="M1022 -59q0 -216 -180 -396l-199 78q152 152 152 268q0 59 -49 82t-216 56q-67 13 -117.5 27.5t-113 45t-102.5 70t-67.5 104t-27.5 146.5q0 153 85.5 258t244.5 151q-93 23 -153.5 72.5t-83.5 104.5t-23 118q0 105 65.5 180.5t174.5 110.5q-204 3 -301 19v178
q159 -25 573 -25q83 0 287 4v-194h-187q-104 0 -179.5 -22t-115.5 -60t-57.5 -79t-17.5 -87q0 -101 79 -159t209 -58h207v-205h-239q-158 0 -244 -74.5t-86 -197.5q0 -48 15.5 -84t39 -58.5t67.5 -40t84 -27.5t107 -22q51 -9 80 -15.5t70 -16.5t64.5 -20.5t52.5 -26
t44.5 -34t30.5 -43.5t21 -57t6 -71z" />
    <glyph glyph-name="omicron" unicode="&#x3bf;" horiz-adv-x="1249" 
d="M625 -25q-236 0 -386.5 152.5t-150.5 421.5q0 135 41 244t113 180.5t170 110t213 38.5t212.5 -38.5t169.5 -110t113 -180.5t41 -244q0 -269 -150 -421.5t-386 -152.5zM625 172q137 0 217 100.5t80 276.5t-80 275.5t-217 99.5t-216 -99.5t-79 -275.5t79 -276.5t216 -100.5
z" />
    <glyph glyph-name="uni03C0" unicode="&#x3c0;" horiz-adv-x="1390" 
d="M1284 4q-60 -18 -156 -18q-147 0 -210.5 72.5t-63.5 236.5v608h-332q-8 -607 -129 -903h-250q141 330 152 903h-236v195h1256v-195h-228v-573q0 -80 22.5 -111t84.5 -31q46 0 90 15v-199z" />
    <glyph glyph-name="rho" unicode="&#x3c1;" horiz-adv-x="1294" 
d="M700 -25q-197 0 -319 134v-558h-234v988q0 125 28.5 225t77 166t116.5 110t143 63t160 19q243 0 387.5 -150t144.5 -415q0 -266 -142 -424t-362 -158zM381 342q43 -86 113 -128t157 -42q141 0 227.5 102.5t86.5 280.5q0 173 -81 266.5t-216 93.5q-131 0 -209 -93.5
t-78 -280.5v-199z" />
    <glyph glyph-name="sigma1" unicode="&#x3c2;" horiz-adv-x="1054" 
d="M778 -455l-200 78q153 150 153 264q0 61 -42.5 88.5t-166.5 65.5q-231 70 -331.5 200.5t-100.5 336.5q0 120 30.5 215t81.5 155.5t122 100.5t147 56.5t162 16.5q193 0 338 -92l-41 -205q-75 48 -138 71.5t-147 23.5q-157 0 -237 -87.5t-80 -250.5q0 -135 73.5 -217.5
t239.5 -131.5q61 -18 98.5 -31t78 -31.5t63 -38t42 -48t27.5 -64.5t8 -83q0 -99 -45.5 -201t-134.5 -191z" />
    <glyph glyph-name="sigma" unicode="&#x3c3;" horiz-adv-x="1325" 
d="M1151 489q0 -240 -149 -377t-379 -137q-238 0 -386.5 150.5t-148.5 409.5q0 137 43.5 245t121 177t181.5 105t228 36h616v-195h-330q203 -154 203 -414zM623 172q133 0 211.5 88t78.5 250q0 129 -48 232.5t-128 160.5h-86q-152 0 -236.5 -95t-84.5 -273q0 -170 76 -266.5
t217 -96.5z" />
    <glyph glyph-name="tau" unicode="&#x3c4;" horiz-adv-x="1024" 
d="M823 12q-76 -26 -190 -26q-147 0 -210 72.5t-63 236.5v608h-335v195h966v-195h-397v-581q0 -73 21 -103.5t83 -30.5q61 0 117 23z" />
    <glyph glyph-name="upsilon" unicode="&#x3c5;" horiz-adv-x="1247" 
d="M152 1098h233v-627q0 -145 66 -222t182 -77q262 0 262 418q0 224 -88 508h229q92 -256 92 -506q0 -190 -51.5 -325.5t-166.5 -213.5t-289 -78q-222 0 -345.5 124t-123.5 350v649z" />
    <glyph glyph-name="phi" unicode="&#x3c6;" horiz-adv-x="1591" 
d="M324 549q0 -176 102.5 -278.5t257.5 -110.5v778q-155 -8 -257.5 -111t-102.5 -278zM1268 549q0 175 -103 278t-258 111v-778q155 8 258 110.5t103 278.5zM684 1593h223v-471q122 -7 229.5 -48t190 -111.5t130.5 -177t48 -236.5t-48 -237.5t-130.5 -178t-190 -111
t-229.5 -47.5v-424h-223v424q-122 7 -229.5 47.5t-190 111t-130.5 178t-48 237.5t48 236.5t130.5 177t190 111.5t229.5 48v471z" />
    <glyph glyph-name="chi" unicode="&#x3c7;" horiz-adv-x="1165" 
d="M1153 -444q-79 -23 -164 -23q-40 0 -72.5 7t-59 19t-50.5 36t-43 50t-41 69.5t-40 85.5t-44 108l-86 217l-301 -574h-258v5l463 796l-101 254q-26 66 -39.5 98t-34 74t-34.5 60t-35 37.5t-43 25.5t-51 6q-32 0 -82 -16l-17 203q79 20 162 20q48 0 84 -7.5t67 -28
t54 -45.5t49 -73.5t46.5 -97t52.5 -129.5l71 -182l275 547h258v-4l-441 -758l119 -299q36 -91 58.5 -140t50.5 -88t57.5 -53t71.5 -14q38 0 82 14z" />
    <glyph glyph-name="psi" unicode="&#x3c8;" horiz-adv-x="1679" 
d="M1561 686q0 -693 -607 -706v-429h-227v429q-141 2 -248.5 42.5t-186.5 123.5t-120 219.5t-41 322.5v410h234v-420q0 -142 25.5 -240.5t75 -154t112.5 -80.5t149 -27v1344h227v-1344q93 2 160 29.5t116 87t73 157.5t24 238q0 206 -67 410h229q72 -212 72 -412z" />
    <glyph glyph-name="omega" unicode="&#x3c9;" horiz-adv-x="1785" 
d="M1690 500q0 -248 -120 -386.5t-317 -138.5q-127 0 -220 61t-140 177q-45 -116 -138.5 -177t-222.5 -61q-197 0 -316.5 138.5t-119.5 386.5q0 187 67 343.5t165 254.5l252 -21q-118 -131 -181 -263t-63 -298q0 -159 59 -248.5t166 -89.5q217 0 217 385v260h230v-260
q0 -385 217 -385q107 0 166 89.5t59 248.5q0 166 -63 298t-181 263l252 21q99 -97 165.5 -253.5t66.5 -344.5z" />
    <glyph glyph-name="iotadieresis" unicode="&#x3ca;" horiz-adv-x="638" 
d="M393 1307v239h238v-239h-238zM-53 1307v239h237v-239h-237zM596 4q-60 -18 -154 -18q-143 0 -209.5 69t-66.5 211v832h233v-768q0 -80 22.5 -111t84.5 -31q46 0 90 15v-199z" />
    <glyph glyph-name="upsilondieresis" unicode="&#x3cb;" horiz-adv-x="1247" 
d="M692 1307v239h238v-239h-238zM246 1307v239h237v-239h-237zM152 1098h233v-627q0 -145 66 -222t182 -77q262 0 262 418q0 224 -88 508h229q92 -256 92 -506q0 -190 -51.5 -325.5t-166.5 -213.5t-289 -78q-222 0 -345.5 124t-123.5 350v649z" />
    <glyph glyph-name="omicrontonos" unicode="&#x3cc;" horiz-adv-x="1249" 
d="M707 1219l-152 16l88 467h250v-4zM625 -25q-236 0 -386.5 152.5t-150.5 421.5q0 135 41 244t113 180.5t170 110t213 38.5t212.5 -38.5t169.5 -110t113 -180.5t41 -244q0 -269 -150 -421.5t-386 -152.5zM625 172q137 0 217 100.5t80 276.5t-80 275.5t-217 99.5t-216 -99.5
t-79 -275.5t79 -276.5t216 -100.5z" />
    <glyph glyph-name="upsilontonos" unicode="&#x3cd;" horiz-adv-x="1247" 
d="M653 1219l-151 16l88 467h250v-4zM152 1098h233v-627q0 -145 66 -222t182 -77q262 0 262 418q0 224 -88 508h229q92 -256 92 -506q0 -190 -51.5 -325.5t-166.5 -213.5t-289 -78q-222 0 -345.5 124t-123.5 350v649z" />
    <glyph glyph-name="omegatonos" unicode="&#x3ce;" horiz-adv-x="1785" 
d="M975 1219l-152 16l88 467h250v-4zM1690 500q0 -248 -120 -386.5t-317 -138.5q-127 0 -220 61t-140 177q-45 -116 -138.5 -177t-222.5 -61q-197 0 -316.5 138.5t-119.5 386.5q0 187 67 343.5t165 254.5l252 -21q-118 -131 -181 -263t-63 -298q0 -159 59 -248.5t166 -89.5
q217 0 217 385v260h230v-260q0 -385 217 -385q107 0 166 89.5t59 248.5q0 166 -63 298t-181 263l252 21q99 -97 165.5 -253.5t66.5 -344.5z" />
    <glyph glyph-name="uni0400" unicode="&#x400;" horiz-adv-x="1304" 
d="M727 1630l-414 266l217 132l322 -320zM1188 213v-213h-1000v1520h983v-211h-739v-408h658v-209h-658v-479h756z" />
    <glyph glyph-name="uni0401" unicode="&#x401;" horiz-adv-x="1304" 
d="M788 1694v241h240v-241h-240zM336 1694v241h239v-241h-239zM1188 213v-213h-1000v1520h983v-211h-739v-408h658v-209h-658v-479h756z" />
    <glyph glyph-name="uni0402" unicode="&#x402;" horiz-adv-x="1656" 
d="M1575 451q0 -107 -30 -192.5t-77.5 -138t-111 -87.5t-126 -48.5t-126.5 -13.5q-51 0 -114.5 8.5t-98.5 20.5l16 207q25 -12 73.5 -21.5t90.5 -9.5q35 0 68.5 7t68 26t60 48t41.5 76.5t16 108.5q0 144 -88.5 205.5t-257.5 61.5q-159 0 -281 -41v-668h-243v1309h-432v211
h1191v-211h-516v-428q145 37 320 37q557 0 557 -467z" />
    <glyph glyph-name="uni0403" unicode="&#x403;" horiz-adv-x="1159" 
d="M584 1630l-125 78l321 320l217 -132zM1139 1303h-707v-1303h-244v1520h951v-217z" />
    <glyph glyph-name="uni0404" unicode="&#x404;" horiz-adv-x="1411" 
d="M1315 109q-84 -66 -211 -102t-270 -36q-341 0 -534.5 207t-193.5 582t194 581.5t546 206.5q143 0 264 -34t197 -97l-68 -223q-70 65 -171 100t-218 35q-210 0 -331.5 -114t-149.5 -320h700v-209h-707q20 -248 151 -372t339 -124q124 0 232.5 41.5t183.5 108.5z" />
    <glyph glyph-name="uni0405" unicode="&#x405;" horiz-adv-x="1263" 
d="M92 123l60 231q226 -166 475 -166q150 0 222.5 55t72.5 152q0 33 -8.5 60t-22 48t-39.5 40t-49 32.5t-64.5 29t-73 26t-85.5 26.5q-56 17 -90 28t-87.5 33.5t-86.5 43.5t-72.5 56t-61.5 74t-37.5 93.5t-15.5 118.5q0 200 137 322t398 122q270 0 442 -121l-55 -231
q-179 135 -394 135q-146 0 -213 -56t-67 -147q0 -44 14.5 -77.5t43 -57.5t69.5 -43.5t94.5 -38t116.5 -37.5h2q41 -13 65.5 -20.5t64 -22t64 -26.5t58.5 -29.5t56 -36.5t47.5 -43.5t41.5 -53t30 -62t20.5 -74t6.5 -86.5q0 -210 -140 -329.5t-413 -119.5q-308 0 -526 152z
" />
    <glyph glyph-name="uni0406" unicode="&#x406;" horiz-adv-x="620" 
d="M188 0v1520h244v-1520h-244z" />
    <glyph glyph-name="uni0407" unicode="&#x407;" horiz-adv-x="620" 
d="M397 1694v241h238v-241h-238zM-14 1694v241h239v-241h-239zM188 0v1520h244v-1520h-244z" />
    <glyph glyph-name="uni0408" unicode="&#x408;" horiz-adv-x="872" 
d="M0 6l12 221q91 -41 207 -41q125 0 180.5 70t55.5 252v1012h243v-1016q0 -147 -31.5 -251t-93.5 -165.5t-145.5 -89t-196.5 -27.5q-146 0 -231 35z" />
    <glyph glyph-name="uni0409" unicode="&#x409;" horiz-adv-x="2260" 
d="M1335 1520v-609h281q286 0 427.5 -115.5t141.5 -336.5q0 -126 -45 -217.5t-126.5 -143t-181 -75t-222.5 -23.5h-520v1307h-340q-33 -219 -59 -365.5t-59 -298t-66.5 -245t-78 -180.5t-98 -132t-121.5 -71.5t-153 -26.5q-57 0 -107 12v213q23 -10 70 -10q45 0 82.5 16
t70.5 54t60.5 89.5t54.5 135.5t49.5 177.5t47.5 230t47.5 278.5t50.5 336h794zM1599 705h-264v-496h260q73 0 128.5 10.5t105 36t76 76t26.5 123.5q0 135 -86.5 192.5t-245.5 57.5z" />
    <glyph glyph-name="uni040A" unicode="&#x40a;" horiz-adv-x="2281" 
d="M1356 1520v-609h280q287 0 428.5 -115.5t141.5 -336.5q0 -126 -45 -217.5t-126.5 -143t-181.5 -75t-223 -23.5h-520v692h-678v-692h-244v1520h244v-617h678v617h246zM1620 705h-264v-496h260q73 0 128.5 10.5t105 36t76 76t26.5 123.5q0 135 -86.5 192.5t-245.5 57.5z
" />
    <glyph glyph-name="uni040B" unicode="&#x40b;" horiz-adv-x="1673" 
d="M698 633v-633h-243v1309h-432v211h1191v-211h-516v-461q77 39 179 61.5t202 22.5q223 0 339 -114t116 -326v-492h-244v438q0 148 -65.5 209.5t-208.5 61.5q-96 0 -182.5 -21.5t-135.5 -54.5z" />
    <glyph glyph-name="uni040C" unicode="&#x40c;" horiz-adv-x="1437" 
d="M647 1630l-125 78l322 320l217 -132zM188 1520h244v-715l668 715h315v-4l-721 -721l738 -791v-4h-318l-682 737v-737h-244v1520z" />
    <glyph glyph-name="uni040D" unicode="&#x40d;" horiz-adv-x="1601" 
d="M872 1630l-413 266l217 132l321 -320zM1171 0v1124l-753 -1124h-230v1520h242v-1125l754 1125h229v-1520h-242z" />
    <glyph glyph-name="uni040E" unicode="&#x40e;" horiz-adv-x="1363" 
d="M289 1976l190 13q3 -98 63 -147.5t158 -49.5t158.5 49.5t63.5 147.5l190 -13q-6 -171 -118 -255.5t-294 -84.5t-293.5 84.5t-117.5 255.5zM905 469q-66 -153 -129 -251.5t-132 -152.5t-137.5 -74t-160.5 -20q-111 0 -196 31l12 213q71 -29 174 -29q87 0 146.5 43.5
t123.5 169.5l-567 1121h276l424 -897l355 897h266z" />
    <glyph glyph-name="uni040F" unicode="&#x40f;" horiz-adv-x="1554" 
d="M1368 0h-477v-449h-225v449h-478v1520h244v-1307h690v1307h246v-1520z" />
    <glyph glyph-name="uni0410" unicode="&#x410;" horiz-adv-x="1482" 
d="M1184 0l-137 387h-621l-137 -387h-260l569 1520h287l567 -1520h-268zM498 592h477l-238 676z" />
    <glyph glyph-name="uni0411" unicode="&#x411;" horiz-adv-x="1392" 
d="M1174 1311h-742v-410h305q285 0 425.5 -114t140.5 -334q0 -100 -30 -178t-81.5 -129.5t-125 -84.5t-156 -47t-179.5 -14h-543v1520h986v-209zM719 698h-287v-491h283q72 0 127 10.5t104 36t75 75t26 122.5q0 134 -85.5 190.5t-242.5 56.5z" />
    <glyph glyph-name="uni0412" unicode="&#x412;" horiz-adv-x="1429" 
d="M1325 424q0 -94 -30 -167.5t-80.5 -121t-121.5 -78.5t-148 -44t-165 -13h-592v1520h562q252 0 377.5 -99.5t125.5 -292.5q0 -261 -237 -333q309 -69 309 -371zM729 1313h-301v-443h297q130 0 201 51.5t71 174.5q0 119 -66.5 168t-201.5 49zM428 684v-477h336
q55 0 98.5 6.5t83 22.5t65.5 42.5t41 68t15 97.5q0 129 -76 184.5t-221 55.5h-342z" />
    <glyph glyph-name="uni0413" unicode="&#x413;" horiz-adv-x="1159" 
d="M1139 1303h-707v-1303h-244v1520h951v-217z" />
    <glyph glyph-name="uni0414" unicode="&#x414;" horiz-adv-x="1599" 
d="M18 -428v641h82q298 257 416 1307h819v-1307h201v-641h-225v428h-1067v-428h-226zM397 213h695v1094h-369q-95 -744 -326 -1094z" />
    <glyph glyph-name="uni0415" unicode="&#x415;" horiz-adv-x="1304" 
d="M1188 213v-213h-1000v1520h983v-211h-739v-408h658v-209h-658v-479h756z" />
    <glyph glyph-name="uni0416" unicode="&#x416;" horiz-adv-x="2121" 
d="M940 1520h240v-715l600 715h311v-4l-657 -725l671 -787v-4h-319l-606 737v-737h-240v737l-604 -737h-320v4l672 778l-657 734v4h309l600 -715v715z" />
    <glyph glyph-name="uni0417" unicode="&#x417;" horiz-adv-x="1286" 
d="M1182 426q0 -219 -154.5 -337t-423.5 -118q-301 0 -512 138l45 235q196 -154 459 -154q330 0 330 240q0 119 -87 180.5t-280 61.5h-213v211h203q160 0 252 63.5t92 179.5q0 97 -70 150t-215 53q-239 0 -409 -131l-70 219q102 67 235 99t269 32q250 0 383 -105t133 -290
q0 -137 -75.5 -228t-213.5 -130q322 -68 322 -369z" />
    <glyph glyph-name="uni0418" unicode="&#x418;" horiz-adv-x="1601" 
d="M1171 0v1124l-753 -1124h-230v1520h242v-1125l754 1125h229v-1520h-242z" />
    <glyph glyph-name="uni0419" unicode="&#x419;" horiz-adv-x="1601" 
d="M389 1976l191 13q3 -98 63 -147.5t158 -49.5t158 49.5t63 147.5l190 -13q-6 -171 -118 -255.5t-293 -84.5q-182 0 -294 84.5t-118 255.5zM1171 0v1124l-753 -1124h-230v1520h242v-1125l754 1125h229v-1520h-242z" />
    <glyph glyph-name="uni041A" unicode="&#x41a;" horiz-adv-x="1437" 
d="M188 1520h244v-715l668 715h315v-4l-721 -721l738 -791v-4h-318l-682 737v-737h-244v1520z" />
    <glyph glyph-name="uni041B" unicode="&#x41b;" horiz-adv-x="1536" 
d="M1104 0v1307h-354q-33 -219 -59 -365.5t-59 -298t-66.5 -245t-78 -180.5t-98 -132t-121.5 -71.5t-153 -26.5q-57 0 -107 12v213q23 -10 70 -10q45 0 82.5 16t70.5 54t60.5 89.5t54.5 135.5t49.5 177.5t47.5 230t47.5 278.5t50.5 336h807v-1520h-244z" />
    <glyph glyph-name="uni041C" unicode="&#x41c;" horiz-adv-x="1998" 
d="M913 0l-497 1235v-1235h-228v1520h351l460 -1145l461 1145h350v-1520h-237v1235l-498 -1235h-162z" />
    <glyph glyph-name="uni041D" unicode="&#x41d;" horiz-adv-x="1572" 
d="M1141 0v690h-709v-690h-244v1520h244v-617h709v617h243v-1520h-243z" />
    <glyph glyph-name="uni041E" unicode="&#x41e;" horiz-adv-x="1624" 
d="M811 -29q-155 0 -285 54.5t-223 154.5t-145 249t-52 331t52 331t145 249t223 154t285 54t285.5 -54t223.5 -154t144.5 -249t51.5 -331q0 -243 -89.5 -422.5t-248.5 -273t-367 -93.5zM811 190q209 0 326.5 152t117.5 418q0 263 -118 416t-326 153q-207 0 -325.5 -152
t-118.5 -417q0 -262 119 -416t325 -154z" />
    <glyph glyph-name="uni041F" unicode="&#x41f;" horiz-adv-x="1554" 
d="M1122 0v1307h-690v-1307h-244v1520h1180v-1520h-246z" />
    <glyph glyph-name="uni0420" unicode="&#x420;" horiz-adv-x="1366" 
d="M432 504v-504h-244v1520h527q288 0 436.5 -129t148.5 -375q0 -118 -34.5 -209t-90 -147t-134.5 -92t-160 -50t-174 -14h-275zM698 1311h-266v-598h262q57 0 104.5 7t94.5 27t79 52t52 86t20 125q0 301 -346 301z" />
    <glyph glyph-name="uni0421" unicode="&#x421;" horiz-adv-x="1427" 
d="M1343 135q-194 -164 -499 -164q-339 0 -538.5 210t-199.5 579q0 186 53.5 335t151 248.5t235.5 152t306 52.5q289 0 471 -147l-61 -234q-172 162 -402 162q-235 0 -364 -150.5t-129 -416.5q0 -277 136 -424.5t359 -147.5q134 0 241.5 49t182.5 123z" />
    <glyph glyph-name="uni0422" unicode="&#x422;" horiz-adv-x="1234" 
d="M1214 1309h-475v-1309h-243v1309h-473v211h1191v-211z" />
    <glyph glyph-name="uni0423" unicode="&#x423;" horiz-adv-x="1363" 
d="M905 469q-66 -153 -129 -251.5t-132 -152.5t-137.5 -74t-160.5 -20q-111 0 -196 31l12 213q71 -29 174 -29q87 0 146.5 43.5t123.5 169.5l-567 1121h276l424 -897l355 897h266z" />
    <glyph glyph-name="uni0424" unicode="&#x424;" horiz-adv-x="1818" 
d="M1032 168h-6v-205h-231v205h-7q-324 0 -509 155t-185 441t185 441t509 155h7v196h231v-196h6q324 0 508 -154.5t184 -441.5t-184 -441.5t-508 -154.5zM1042 1159h-16v-790h16q70 0 131 12.5t117 41.5t96 73.5t63.5 113t23.5 154.5t-23.5 154.5t-63.5 113t-96 73.5
t-117 41.5t-131 12.5zM776 369h19v790h-19q-87 0 -161 -20.5t-136 -65t-97.5 -123.5t-35.5 -186t35.5 -186t97.5 -123.5t136 -65t161 -20.5z" />
    <glyph glyph-name="uni0425" unicode="&#x425;" horiz-adv-x="1402" 
d="M1065 0l-377 590l-364 -590h-281l514 768l-496 752h295l357 -568l346 568h280l-497 -740l518 -780h-295z" />
    <glyph glyph-name="uni0426" unicode="&#x426;" horiz-adv-x="1613" 
d="M1552 213v-641h-225v428h-1139v1520h244v-1307h674v1307h246v-1307h200z" />
    <glyph glyph-name="uni0427" unicode="&#x427;" horiz-adv-x="1443" 
d="M1255 1520v-1520h-243v596q-173 -88 -389 -88q-237 0 -361.5 122t-124.5 347v543h246v-492q0 -164 71 -230.5t230 -66.5q102 0 187.5 23t140.5 59v707h243z" />
    <glyph glyph-name="uni0428" unicode="&#x428;" horiz-adv-x="2099" 
d="M1913 1520v-1520h-1725v1520h244v-1307h496v1307h243v-1307h496v1307h246z" />
    <glyph glyph-name="uni0429" unicode="&#x429;" horiz-adv-x="2174" 
d="M2114 213v-641h-226v428h-1700v1520h244v-1307h496v1307h243v-1307h496v1307h246v-1307h201z" />
    <glyph glyph-name="uni042A" unicode="&#x42a;" horiz-adv-x="1630" 
d="M686 1520v-582h291q577 0 577 -467q0 -105 -30.5 -186.5t-82.5 -134.5t-127.5 -87t-160 -48.5t-184.5 -14.5h-529v1307h-428v213h674zM963 731h-277v-522h272q61 0 108.5 6t93 23t75 45.5t47.5 75.5t18 110q0 142 -86.5 202t-250.5 60z" />
    <glyph glyph-name="uni042B" unicode="&#x42b;" horiz-adv-x="1925" 
d="M432 1520v-582h268q578 0 578 -467q0 -105 -30.5 -186.5t-82.5 -134.5t-128 -87t-160.5 -48.5t-184.5 -14.5h-504v1520h244zM1493 0v1520h244v-1520h-244zM686 731h-254v-522h250q61 0 108 6t92.5 23t74.5 45.5t47 75.5t18 110q0 142 -86 202t-250 60z" />
    <glyph glyph-name="uni042C" unicode="&#x42c;" horiz-adv-x="1388" 
d="M432 1520v-582h303q578 0 578 -467q0 -105 -30 -186.5t-82.5 -134.5t-128 -87t-160 -48.5t-185.5 -14.5h-539v1520h244zM723 731h-291v-522h287q76 0 132.5 10.5t106 37.5t75.5 80.5t26 131.5q0 142 -86.5 202t-249.5 60z" />
    <glyph glyph-name="uni042D" unicode="&#x42d;" horiz-adv-x="1411" 
d="M1303 772q0 -384 -194 -592.5t-536 -208.5q-144 0 -268.5 37t-208.5 103l43 231q77 -69 187.5 -110.5t236.5 -41.5q210 0 337 122t147 374h-705v209h700q-51 434 -460 434q-115 0 -226.5 -33.5t-183.5 -101.5l-68 223q74 61 212.5 96t283.5 35q341 0 522 -204.5
t181 -571.5z" />
    <glyph glyph-name="uni042E" unicode="&#x42e;" horiz-adv-x="2174" 
d="M2068 760q0 -368 -182 -578.5t-489 -210.5q-292 0 -471.5 190.5t-198.5 528.5h-295v-690h-244v1520h244v-617h301q35 305 211.5 475t452.5 170q307 0 489 -210.5t182 -577.5zM1395 190q198 0 305.5 151t107.5 419q0 264 -108 416.5t-305 152.5q-196 0 -303 -150.5
t-107 -418.5q0 -265 107 -417.5t303 -152.5z" />
    <glyph glyph-name="uni042F" unicode="&#x42f;" horiz-adv-x="1464" 
d="M1032 561h-319l-359 -561h-297l408 596q-136 50 -217.5 163t-81.5 279q0 153 70.5 263t191 164.5t277.5 54.5h571v-1520h-244v561zM1032 764v547h-301q-311 0 -311 -273q0 -139 80 -206.5t227 -67.5h305z" />
    <glyph glyph-name="uni0430" unicode="&#x430;" horiz-adv-x="1187" 
d="M817 0l-4 145q-135 -170 -356 -170q-163 0 -260 89t-97 249q0 183 139 273t423 90h139v41q0 107 -53.5 158t-186.5 51q-196 0 -352 -113l-41 195q160 114 422 114q235 0 339.5 -100t104.5 -289v-733h-217zM518 166q97 0 171 47.5t112 120.5v182h-115q-184 0 -269 -45
t-85 -145q0 -79 48.5 -119.5t137.5 -40.5z" />
    <glyph glyph-name="uni0431" unicode="&#x431;" horiz-adv-x="1259" 
d="M1169 553q0 -122 -35 -226.5t-101.5 -183t-170.5 -123.5t-235 -45q-259 0 -391 176t-132 517v4q0 188 24.5 330t70.5 239.5t118.5 162.5t160.5 99.5t206 50.5l416 58v-219l-430 -60q-167 -23 -248 -128.5t-96 -321.5q149 180 383 180q212 0 336 -137t124 -373zM344 614
q0 -215 70.5 -328.5t214.5 -113.5q96 0 165.5 51t102.5 134.5t33 189.5q0 153 -72.5 235t-202.5 82q-101 0 -181.5 -47.5t-127.5 -134.5q-2 -25 -2 -68z" />
    <glyph glyph-name="uni0432" unicode="&#x432;" horiz-adv-x="1208" 
d="M1110 303q0 -67 -21 -119.5t-56.5 -86.5t-86 -56t-105.5 -31.5t-118 -9.5h-563v1098h559q182 0 271 -71.5t89 -205.5q0 -201 -196 -250q112 -22 169.5 -86.5t57.5 -181.5zM659 918h-272v-279h268q83 0 135 34t52 111q0 134 -183 134zM387 479v-297h281q204 0 204 150
q0 147 -200 147h-285z" />
    <glyph glyph-name="uni0433" unicode="&#x433;" horiz-adv-x="944" 
d="M903 897h-510v-897h-233v1098h743v-201z" />
    <glyph glyph-name="uni0434" unicode="&#x434;" horiz-adv-x="1329" 
d="M10 -428v623h82q96 82 181 300.5t133 602.5h679v-903h189v-623h-217v428h-830v-428h-217zM362 195h490v706h-260q-64 -454 -230 -706z" />
    <glyph glyph-name="uni0435" unicode="&#x435;" horiz-adv-x="1198" 
d="M1085 98q-74 -52 -185 -87.5t-247 -35.5q-276 0 -420.5 148.5t-144.5 413.5q0 270 142 427.5t391 157.5q129 0 224.5 -42.5t150 -117t80.5 -164.5t26 -196v-113h-776q16 -317 356 -317q109 0 193.5 30.5t168.5 92.5zM623 940q-121 0 -201.5 -74.5t-93.5 -214.5h546v17
q0 55 -13 101.5t-41.5 86t-78.5 62t-118 22.5z" />
    <glyph glyph-name="uni0436" unicode="&#x436;" horiz-adv-x="1732" 
d="M754 1098h225v-508l432 508h287v-4l-479 -519l507 -571v-4h-299l-448 537v-537h-225v537l-449 -537h-299v4l506 567l-477 523v4h291l428 -508v508z" />
    <glyph glyph-name="uni0437" unicode="&#x437;" horiz-adv-x="1085" 
d="M991 309q0 -163 -127 -248.5t-348 -85.5q-245 0 -426 103l45 198q158 -106 361 -106q254 0 254 156q0 71 -59.5 108t-207.5 37h-204v178h196q124 0 186 37.5t62 106.5q0 64 -53 99.5t-162 35.5q-194 0 -336 -103l-55 197q168 100 424 100q207 0 315.5 -76.5t108.5 -214.5
q0 -98 -53.5 -164.5t-155.5 -95.5q235 -48 235 -262z" />
    <glyph glyph-name="uni0438" unicode="&#x438;" horiz-adv-x="1300" 
d="M913 0v772l-534 -772h-219v1098h227v-772l535 772h219v-1098h-228z" />
    <glyph glyph-name="uni0439" unicode="&#x439;" horiz-adv-x="1300" 
d="M281 1612l186 12q3 -118 51 -175.5t133 -57.5t133.5 57.5t51.5 175.5l186 -12q0 -183 -104 -280t-267 -97t-266.5 97t-103.5 280zM913 0v772l-534 -772h-219v1098h227v-772l535 772h219v-1098h-228z" />
    <glyph glyph-name="uni043A" unicode="&#x43a;" horiz-adv-x="1179" 
d="M160 1098h233v-506l461 506h295v-4l-512 -510l547 -580v-4h-299l-492 535v-535h-233v1098z" />
    <glyph glyph-name="uni043B" unicode="&#x43b;" horiz-adv-x="1257" 
d="M864 0v901h-250q-18 -112 -33 -194.5t-33.5 -169.5t-37 -148t-41.5 -122.5t-49 -102t-58 -76.5t-70 -56.5t-83.5 -32t-99.5 -11.5q-48 0 -84 8v207q15 -6 47 -6q47 0 82.5 17.5t66.5 62.5t55 108.5t48.5 170.5t46 232.5t47.5 309.5h680v-1098h-234z" />
    <glyph glyph-name="uni043C" unicode="&#x43c;" horiz-adv-x="1581" 
d="M711 0l-338 860v-860h-213v1098h321l310 -787l309 787h323v-1098h-219v860l-338 -860h-155z" />
    <glyph glyph-name="uni043D" unicode="&#x43d;" horiz-adv-x="1282" 
d="M891 0v471h-498v-471h-233v1098h233v-430h498v430h233v-1098h-233z" />
    <glyph glyph-name="uni043E" unicode="&#x43e;" horiz-adv-x="1249" 
d="M625 -25q-236 0 -386.5 152.5t-150.5 421.5q0 135 41 244t113 180.5t170 110t213 38.5t212.5 -38.5t169.5 -110t113 -180.5t41 -244q0 -269 -150 -421.5t-386 -152.5zM625 172q137 0 217 100.5t80 276.5t-80 275.5t-217 99.5t-216 -99.5t-79 -275.5t79 -276.5t216 -100.5
z" />
    <glyph glyph-name="uni043F" unicode="&#x43f;" horiz-adv-x="1263" 
d="M870 0v901h-477v-901h-233v1098h944v-1098h-234z" />
    <glyph glyph-name="uni0440" unicode="&#x440;" horiz-adv-x="1308" 
d="M707 -25q-187 0 -314 115v-539h-233v1547h217l6 -158q137 182 369 182q208 0 336.5 -150.5t128.5 -408.5q0 -271 -139.5 -429.5t-370.5 -158.5zM393 739v-454q46 -54 115 -83.5t147 -29.5q150 0 236 101t86 282q0 173 -79 265.5t-214 92.5q-95 0 -172.5 -45.5
t-118.5 -128.5z" />
    <glyph glyph-name="uni0441" unicode="&#x441;" horiz-adv-x="1083" 
d="M1012 96q-148 -121 -377 -121q-252 0 -399.5 151t-147.5 417q0 271 151.5 425t405.5 154q224 0 356 -118l-51 -199q-112 117 -291 117q-156 0 -242.5 -99t-86.5 -274q0 -178 88 -276.5t250 -98.5q163 0 301 119z" />
    <glyph glyph-name="uni0442" unicode="&#x442;" horiz-adv-x="1021" 
d="M981 901h-352v-901h-234v901h-354v197h940v-197z" />
    <glyph glyph-name="uni0443" unicode="&#x443;" horiz-adv-x="1159" 
d="M713 12q-56 -147 -110 -242.5t-112.5 -148t-116.5 -72.5t-136 -20q-89 0 -172 27l20 211q74 -29 141 -29q80 0 130.5 53t111.5 195l-432 1112h266l291 -865l287 865h247z" />
    <glyph glyph-name="uni0444" unicode="&#x444;" horiz-adv-x="1630" 
d="M82 549q0 266 170 415.5t450 149.5v479h224v-479q280 0 451 -149.5t171 -415.5q0 -179 -80 -307.5t-219 -193t-323 -64.5v-433h-224v433q-280 0 -450 148.5t-170 416.5zM702 170v756h-18q-172 0 -268.5 -98t-96.5 -279t96.5 -280t268.5 -99h18zM946 926h-20v-756h20
q172 0 268.5 99t96.5 280t-96.5 279t-268.5 98z" />
    <glyph glyph-name="uni0445" unicode="&#x445;" horiz-adv-x="1132" 
d="M815 0l-254 393l-260 -393h-258v4l391 553l-383 537v4h275l247 -383l246 383h258v-4l-383 -533l396 -557v-4h-275z" />
    <glyph glyph-name="uni0446" unicode="&#x446;" horiz-adv-x="1347" 
d="M1292 195v-623h-217v428h-915v1098h233v-903h477v903h234v-903h188z" />
    <glyph glyph-name="uni0447" unicode="&#x447;" horiz-adv-x="1189" 
d="M1030 1098v-1098h-233v412q-135 -66 -314 -66q-180 0 -273 91.5t-93 264.5v396h233v-342q0 -116 48 -161.5t163 -45.5q150 0 236 51v498h233z" />
    <glyph glyph-name="uni0448" unicode="&#x448;" horiz-adv-x="1837" 
d="M1677 1098v-1098h-1517v1098h233v-903h408v903h233v-903h410v903h233z" />
    <glyph glyph-name="uni0449" unicode="&#x449;" horiz-adv-x="1921" 
d="M1866 195v-623h-217v428h-1489v1098h233v-903h408v903h233v-903h410v903h233v-903h189z" />
    <glyph glyph-name="uni044A" unicode="&#x44a;" horiz-adv-x="1361" 
d="M608 1098v-377h246q444 0 444 -356q0 -82 -24 -145.5t-65 -104.5t-99 -67.5t-121.5 -37t-138.5 -10.5h-475v901h-334v197h567zM827 543h-219v-359h215q54 0 92.5 6.5t74 24.5t53.5 54.5t18 92.5q0 100 -60.5 140.5t-173.5 40.5z" />
    <glyph glyph-name="uni044B" unicode="&#x44b;" horiz-adv-x="1630" 
d="M393 1098v-377h215q447 0 447 -356q0 -82 -24.5 -145.5t-65.5 -104.5t-100 -67.5t-122.5 -37t-138.5 -10.5h-444v1098h233zM1237 0v1098h233v-1098h-233zM582 543h-189v-359h185q54 0 92.5 6.5t73.5 24.5t53 54.5t18 92.5q0 100 -60 140.5t-173 40.5z" />
    <glyph glyph-name="uni044C" unicode="&#x44c;" horiz-adv-x="1161" 
d="M393 1098v-377h260q445 0 445 -356q0 -102 -36 -175t-100.5 -113.5t-141 -58.5t-171.5 -18h-489v1098h233zM627 543h-234v-359h230q54 0 92.5 6.5t73.5 24.5t53 54.5t18 92.5q0 100 -60 140.5t-173 40.5z" />
    <glyph glyph-name="uni044D" unicode="&#x44d;" horiz-adv-x="1118" 
d="M1028 553q0 -276 -146.5 -427t-412.5 -151q-112 0 -213 27.5t-168 75.5l43 198q57 -47 143.5 -76.5t182.5 -29.5q302 0 336 305h-512v182h507q-44 271 -325 271q-90 0 -174 -27.5t-135 -75.5l-56 197q60 46 167.5 73t219.5 27q261 0 402 -149.5t141 -419.5z" />
    <glyph glyph-name="uni044E" unicode="&#x44e;" horiz-adv-x="1765" 
d="M1675 549q0 -270 -144 -422t-376 -152q-216 0 -356 132t-160 372h-246v-479h-233v1098h233v-430h252q32 216 170 335t340 119q232 0 376 -152t144 -421zM1153 172q134 0 208.5 99.5t74.5 277.5q0 177 -74 276t-209 99q-133 0 -207 -99t-74 -276q0 -178 74 -277.5
t207 -99.5z" />
    <glyph glyph-name="uni044F" unicode="&#x44f;" horiz-adv-x="1218" 
d="M825 391h-237l-248 -391h-277v4l295 414q-100 35 -159.5 117.5t-59.5 205.5q0 169 110 263t286 94h524v-1098h-234v391zM825 569v346h-250q-198 0 -198 -172q0 -87 51 -130.5t145 -43.5h252z" />
    <glyph glyph-name="uni0450" unicode="&#x450;" horiz-adv-x="1198" 
d="M621 1221l-326 387l221 94l242 -424zM1085 98q-74 -52 -185 -87.5t-247 -35.5q-276 0 -420.5 148.5t-144.5 413.5q0 270 142 427.5t391 157.5q129 0 224.5 -42.5t150 -117t80.5 -164.5t26 -196v-113h-776q16 -317 356 -317q109 0 193.5 30.5t168.5 92.5zM623 940
q-121 0 -201.5 -74.5t-93.5 -214.5h546v17q0 55 -13 101.5t-41.5 86t-78.5 62t-118 22.5z" />
    <glyph glyph-name="uni0451" unicode="&#x451;" horiz-adv-x="1198" 
d="M723 1307v239h238v-239h-238zM276 1307v239h238v-239h-238zM1085 98q-74 -52 -185 -87.5t-247 -35.5q-276 0 -420.5 148.5t-144.5 413.5q0 270 142 427.5t391 157.5q129 0 224.5 -42.5t150 -117t80.5 -164.5t26 -196v-113h-776q16 -317 356 -317q109 0 193.5 30.5
t168.5 92.5zM623 940q-121 0 -201.5 -74.5t-93.5 -214.5h546v17q0 55 -13 101.5t-41.5 86t-78.5 62t-118 22.5z" />
    <glyph glyph-name="uni0452" unicode="&#x452;" horiz-adv-x="1271" 
d="M733 -270q88 0 127 48t39 173v624q0 252 -207 252q-98 0 -174.5 -52t-114.5 -146v-629h-233v1235h-170v156h170v202h233v-202h373v-156h-373v-381q139 182 359 182q175 0 273 -107.5t98 -301.5v-656q0 -122 -26.5 -209t-77 -137t-117 -73t-154.5 -23q-109 0 -174 25
l16 200q50 -24 133 -24z" />
    <glyph glyph-name="uni0453" unicode="&#x453;" horiz-adv-x="944" 
d="M512 1221l-137 57l241 424l222 -94zM903 897h-510v-897h-233v1098h743v-201z" />
    <glyph glyph-name="uni0454" unicode="&#x454;" horiz-adv-x="1118" 
d="M1030 78q-158 -103 -381 -103q-267 0 -414 148.5t-147 423.5q0 277 149.5 426t424.5 149q223 0 358 -102l-51 -195q-135 103 -305 103q-145 0 -229.5 -70t-106.5 -201h508v-182h-512q36 -305 348 -305q174 0 313 106z" />
    <glyph glyph-name="uni0455" unicode="&#x455;" horiz-adv-x="1030" 
d="M90 84l41 205q186 -123 383 -123t197 129q0 61 -48 89.5t-184 66.5q-49 14 -81.5 24.5t-74 27t-68.5 33.5t-55.5 42t-45 54t-27 67.5t-10.5 84.5q0 157 111.5 247.5t314.5 90.5q207 0 354 -88l-41 -203q-165 101 -315 101q-97 0 -146 -35.5t-49 -93.5q0 -44 32 -73
t69.5 -42t140.5 -41q4 -1 6 -2q66 -18 113 -35t94.5 -44t76.5 -60t47.5 -82t18.5 -111q0 -166 -118.5 -252t-327.5 -86q-238 0 -408 109z" />
    <glyph glyph-name="uni0456" unicode="&#x456;" horiz-adv-x="561" 
d="M150 1307v239h262v-239h-262zM164 0v1098h233v-1098h-233z" />
    <glyph glyph-name="uni0457" unicode="&#x457;" horiz-adv-x="573" 
d="M352 1307v239h238v-239h-238zM-16 1307v239h237v-239h-237zM170 0v1098h233v-1098h-233z" />
    <glyph glyph-name="uni0458" unicode="&#x458;" horiz-adv-x="577" 
d="M168 1307v239h264v-239h-264zM-137 -446l20 206q54 -26 133 -26q87 0 126.5 50.5t39.5 176.5v1137h234v-1121q0 -239 -97.5 -343.5t-277.5 -104.5q-113 0 -178 25z" />
    <glyph glyph-name="uni0459" unicode="&#x459;" horiz-adv-x="1824" 
d="M1083 1098v-400h238q440 0 440 -342q0 -98 -35 -169.5t-98.5 -111t-140 -57.5t-170.5 -18h-467v901h-236q-18 -112 -33 -194.5t-33.5 -169.5t-37 -148t-41.5 -122.5t-49 -102t-58 -76.5t-70 -56.5t-83.5 -32t-99.5 -11.5q-48 0 -84 8v207q15 -6 47 -6q47 0 82.5 17.5
t66.5 62.5t55 108.5t48.5 170.5t46 232.5t47.5 309.5h665zM1294 520h-211v-336h207q111 0 172.5 35.5t61.5 132.5q0 93 -58.5 130.5t-171.5 37.5z" />
    <glyph glyph-name="uni045A" unicode="&#x45a;" horiz-adv-x="1851" 
d="M1110 1098v-400h236q442 0 442 -342q0 -98 -35.5 -169.5t-99 -111t-140.5 -57.5t-172 -18h-464v492h-484v-492h-233v1098h233v-410h484v410h233zM1321 520h-211v-336h207q52 0 90.5 6.5t72 24t51 52t17.5 85.5q0 93 -57.5 130.5t-169.5 37.5z" />
    <glyph glyph-name="uni045B" unicode="&#x45b;" horiz-adv-x="1271" 
d="M403 629v-629h-233v1235h-170v156h170v202h233v-202h373v-156h-373v-381q139 182 359 182q175 0 273 -107.5t98 -301.5v-627h-234v575q0 252 -207 252q-98 0 -174.5 -52t-114.5 -146z" />
    <glyph glyph-name="uni045C" unicode="&#x45c;" horiz-adv-x="1179" 
d="M565 1221l-137 57l242 424l221 -94zM160 1098h233v-506l461 506h295v-4l-512 -510l547 -580v-4h-299l-492 535v-535h-233v1098z" />
    <glyph glyph-name="uni045D" unicode="&#x45d;" horiz-adv-x="1300" 
d="M664 1221l-326 387l221 94l242 -424zM913 0v772l-534 -772h-219v1098h227v-772l535 772h219v-1098h-228z" />
    <glyph glyph-name="uni045E" unicode="&#x45e;" horiz-adv-x="1159" 
d="M217 1612l186 12q3 -118 51.5 -175.5t133.5 -57.5t133 57.5t51 175.5l186 -12q0 -183 -103.5 -280t-266.5 -97t-267 97t-104 280zM713 12q-56 -147 -110 -242.5t-112.5 -148t-116.5 -72.5t-136 -20q-89 0 -172 27l20 211q74 -29 141 -29q80 0 130.5 53t111.5 195
l-432 1112h266l291 -865l287 865h247z" />
    <glyph glyph-name="uni045F" unicode="&#x45f;" horiz-adv-x="1273" 
d="M1114 0h-371v-449h-215v449h-368v1098h233v-903h488v903h233v-1098z" />
    <glyph glyph-name="uni0462" unicode="&#x462;" horiz-adv-x="1505" 
d="M1094 1151h-508v-264h274q283 0 422 -113t139 -328q0 -99 -30 -176t-81 -127t-124.5 -83t-155.5 -46.5t-178 -13.5h-510v1151h-324v184h324v258h244v-258h508v-184zM840 684h-254v-477h250q72 0 127 10t103.5 34.5t74.5 73t26 119.5q0 130 -85 185t-242 55z" />
    <glyph glyph-name="uni0463" unicode="&#x463;" horiz-adv-x="1218" 
d="M817 930h-344v-238h242q436 0 436 -340q0 -79 -23.5 -140t-63 -100.5t-97 -65t-120 -36t-136.5 -10.5h-471v930h-213v168h213v422h233v-422h344v-168zM686 518h-213v-334h209q52 0 90 6.5t71.5 24t50.5 51.5t17 84q0 92 -57.5 130t-167.5 38z" />
    <glyph glyph-name="uni0472" unicode="&#x472;" horiz-adv-x="1624" 
d="M811 -29q-155 0 -285 54.5t-223 154.5t-145 249t-52 331t52 331t145 249t223 154t285 54t285.5 -54t223.5 -154t144.5 -249t51.5 -331q0 -243 -89.5 -422.5t-248.5 -273t-367 -93.5zM811 1329q-188 0 -303.5 -120.5t-140.5 -338.5h890q-25 216 -141 337.5t-305 121.5z
M811 190q194 0 312 128t137 356h-895q19 -226 136.5 -355t309.5 -129z" />
    <glyph glyph-name="uni0473" unicode="&#x473;" horiz-adv-x="1249" 
d="M625 -25q-236 0 -386.5 152.5t-150.5 421.5q0 135 41 244t113 180.5t170 110t213 38.5t212.5 -38.5t169.5 -110t113 -180.5t41 -244q0 -269 -150 -421.5t-386 -152.5zM625 926q-124 0 -201 -74.5t-96 -212.5h594q-19 139 -95 213t-202 74zM625 170q131 0 208.5 80
t90.5 229h-598q13 -149 91.5 -229t207.5 -80z" />
    <glyph glyph-name="uni0474" unicode="&#x474;" horiz-adv-x="1593" 
d="M1219 1059l-357 -1059h-274l-549 1520h272l420 -1237l236 759q40 129 83 220.5t84.5 147t92 86.5t97 41.5t108.5 10.5q139 0 200 -45l-33 -219q-64 43 -145 43q-83 0 -132.5 -55t-102.5 -213z" />
    <glyph glyph-name="uni0475" unicode="&#x475;" horiz-adv-x="1218" 
d="M958 754l-264 -754h-245l-418 1098h262l282 -856l162 512q46 147 99 228.5t113 110.5t149 29q92 0 143 -30l-20 -203q-47 24 -103 24q-62 0 -96 -35.5t-64 -123.5z" />
    <glyph glyph-name="uni0490" unicode="&#x490;" horiz-adv-x="1159" 
d="M1139 1303h-707v-1303h-244v1520h727l7 376h217v-593z" />
    <glyph glyph-name="uni0491" unicode="&#x491;" horiz-adv-x="950" 
d="M909 897h-516v-897h-233v1098h532l8 377h209v-578z" />
    <glyph glyph-name="uni0492" unicode="&#x492;" horiz-adv-x="1208" 
d="M928 680h-447v-680h-243v680h-189v192h189v648h950v-217h-707v-431h447v-192z" />
    <glyph glyph-name="uni0493" unicode="&#x493;" horiz-adv-x="997" 
d="M772 453h-328v-453h-233v453h-160v161h160v484h743v-201h-510v-283h328v-161z" />
    <glyph glyph-name="uni0496" unicode="&#x496;" horiz-adv-x="2213" 
d="M940 1520h240v-715l600 715h311v-4l-657 -725l493 -578h244v-641h-225v428h-160l-606 737v-737h-240v737l-604 -737h-320v4l672 778l-657 734v4h309l600 -715v715z" />
    <glyph glyph-name="uni0497" unicode="&#x497;" horiz-adv-x="1814" 
d="M754 1098h225v-508l432 508h287v-4l-479 -519l337 -380h232v-623h-217v428h-144l-448 537v-537h-225v537l-449 -537h-299v4l506 567l-477 523v4h291l428 -508v508z" />
    <glyph glyph-name="uni0498" unicode="&#x498;" horiz-adv-x="1286" 
d="M852 -242q0 -116 -74.5 -178.5t-197.5 -62.5q-108 0 -185 34l39 179q50 -29 125 -29q103 0 103 102q0 90 -89 168q-144 4 -267.5 41.5t-213.5 96.5l45 235q196 -154 459 -154q330 0 330 240q0 119 -87 180.5t-280 61.5h-213v211h203q160 0 252 63.5t92 179.5
q0 97 -70 150t-215 53q-239 0 -409 -131l-70 219q102 67 235 99t269 32q250 0 383 -105t133 -290q0 -137 -75.5 -228t-213.5 -130q322 -68 322 -369q0 -187 -114.5 -301.5t-319.5 -142.5q51 -51 77.5 -103t26.5 -121z" />
    <glyph glyph-name="uni0499" unicode="&#x499;" horiz-adv-x="1085" 
d="M752 -242q0 -116 -75 -178.5t-198 -62.5q-107 0 -184 34l39 179q50 -29 125 -29q102 0 102 102q0 95 -92 174q-211 8 -379 101l45 198q158 -106 361 -106q254 0 254 156q0 71 -59.5 108t-207.5 37h-204v178h196q124 0 186 37.5t62 106.5q0 64 -53 99.5t-162 35.5
q-194 0 -336 -103l-55 197q168 100 424 100q207 0 315.5 -76.5t108.5 -214.5q0 -98 -53.5 -164.5t-155.5 -95.5q235 -48 235 -262q0 -137 -91.5 -220t-256.5 -105q53 -51 81 -103.5t28 -122.5z" />
    <glyph glyph-name="uni049A" unicode="&#x49a;" horiz-adv-x="1540" 
d="M188 1520h244v-715l668 715h315v-4l-721 -721l543 -582h260v-641h-223v428h-160l-682 737v-737h-244v1520z" />
    <glyph glyph-name="uni049B" unicode="&#x49b;" horiz-adv-x="1271" 
d="M160 1098h233v-506l461 506h295v-4l-512 -510l367 -389h241v-623h-217v428h-143l-492 535v-535h-233v1098z" />
    <glyph glyph-name="uni04A0" unicode="&#x4a0;" horiz-adv-x="1691" 
d="M686 1520l-2 -2v-713l668 715h315v-4l-721 -721l737 -791v-4h-317l-682 737v-737h-244v1307h-428v213h674z" />
    <glyph glyph-name="uni04A1" unicode="&#x4a1;" horiz-adv-x="1394" 
d="M41 1098h567v-506l461 506h295v-4l-512 -510l547 -580v-4h-299l-492 535v-535h-233v901h-334v197z" />
    <glyph glyph-name="uni04A2" unicode="&#x4a2;" horiz-adv-x="1648" 
d="M1585 213v-641h-223v428h-221v690h-709v-690h-244v1520h244v-617h709v617h243v-1307h201z" />
    <glyph glyph-name="uni04A3" unicode="&#x4a3;" horiz-adv-x="1366" 
d="M1313 195v-623h-217v428h-205v471h-498v-471h-233v1098h233v-430h498v430h233v-903h189z" />
    <glyph glyph-name="uni04AA" unicode="&#x4aa;" horiz-adv-x="1427" 
d="M1026 -242q0 -116 -74.5 -178.5t-197.5 -62.5q-108 0 -185 34l39 179q50 -29 125 -29q103 0 103 102q0 94 -93 174q-296 31 -466.5 237t-170.5 546q0 186 53.5 335t151 248.5t235.5 152t306 52.5q289 0 471 -147l-61 -234q-172 162 -402 162q-235 0 -364 -150.5
t-129 -416.5q0 -277 136 -424.5t359 -147.5q134 0 241.5 49t182.5 123l57 -227q-167 -141 -415 -160q98 -101 98 -217z" />
    <glyph glyph-name="uni04AB" unicode="&#x4ab;" horiz-adv-x="1083" 
d="M805 -242q0 -116 -75 -178.5t-198 -62.5q-108 0 -184 34l39 179q50 -29 125 -29q102 0 102 102q0 100 -104 183q-198 36 -310 181t-112 376q0 271 151.5 425t405.5 154q224 0 356 -118l-51 -199q-112 117 -291 117q-156 0 -242.5 -99t-86.5 -274q0 -178 88 -276.5
t250 -98.5q163 0 301 119l43 -197q-120 -100 -310 -119q50 -50 76.5 -101t26.5 -118z" />
    <glyph glyph-name="uni04AE" unicode="&#x4ae;" horiz-adv-x="1312" 
d="M1303 1520l-525 -938v-582h-243v578l-523 942h281l369 -719l368 719h273z" />
    <glyph glyph-name="uni04AF" unicode="&#x4af;" horiz-adv-x="1159" 
d="M1124 1098l-428 -1049v-498h-233v498l-428 1049h262l291 -822l289 822h247z" />
    <glyph glyph-name="uni04B0" unicode="&#x4b0;" horiz-adv-x="1312" 
d="M1104 379h-326v-379h-243v379h-324v192h324v7l-523 942h281l369 -719l368 719h273l-525 -938v-11h326v-192z" />
    <glyph glyph-name="uni04B1" unicode="&#x4b1;" horiz-adv-x="1159" 
d="M977 -168h-281v-281h-233v281h-281v156h281v61l-428 1049h262l291 -822l289 822h247l-428 -1049v-61h281v-156z" />
    <glyph glyph-name="uni04B2" unicode="&#x4b2;" horiz-adv-x="1490" 
d="M1448 213v-641h-223v428h-160l-377 590l-364 -590h-281l514 768l-496 752h295l357 -568l346 568h280l-497 -740l377 -567h229z" />
    <glyph glyph-name="uni04B3" unicode="&#x4b3;" horiz-adv-x="1200" 
d="M1176 195v-623h-218v428h-143l-254 393l-260 -393h-258v4l391 553l-383 537v4h275l247 -383l246 383h258v-4l-383 -533l260 -366h222z" />
    <glyph glyph-name="uni04B6" unicode="&#x4b6;" horiz-adv-x="1521" 
d="M1456 213v-641h-225v428h-219v596q-173 -88 -389 -88q-237 0 -361.5 122t-124.5 347v543h246v-492q0 -164 71 -230.5t230 -66.5q102 0 187.5 23t140.5 59v707h243v-1307h201z" />
    <glyph glyph-name="uni04B7" unicode="&#x4b7;" horiz-adv-x="1273" 
d="M1219 195v-623h-215v428h-207v412q-135 -66 -314 -66q-180 0 -273 91.5t-93 264.5v396h233v-342q0 -116 48 -161.5t163 -45.5q150 0 236 51v498h233v-903h189z" />
    <glyph glyph-name="uni04BA" unicode="&#x4ba;" horiz-adv-x="1443" 
d="M432 707v-707h-244v1520h244v-596q81 40 186.5 64t210.5 24q236 0 357 -121.5t121 -347.5v-543h-246v492q0 165 -68 230.5t-227 65.5q-103 0 -192 -22.5t-142 -58.5z" />
    <glyph glyph-name="uni04BB" unicode="&#x4bb;" horiz-adv-x="1265" 
d="M393 715v-715h-233v1593h233v-651q134 180 355 180q174 0 270 -107t96 -302v-713h-233v662q0 251 -203 251q-96 0 -171.5 -52t-113.5 -146z" />
    <glyph glyph-name="uni04C0" unicode="&#x4c0;" horiz-adv-x="620" 
d="M188 0v1520h244v-1520h-244z" />
    <glyph glyph-name="uni04C1" unicode="&#x4c1;" horiz-adv-x="2121" 
d="M649 1976l191 13q3 -98 63 -147.5t158 -49.5t158 49.5t63 147.5l191 -13q-6 -171 -118 -255.5t-294 -84.5t-294 84.5t-118 255.5zM940 1520h240v-715l600 715h311v-4l-657 -725l671 -787v-4h-319l-606 737v-737h-240v737l-604 -737h-320v4l672 778l-657 734v4h309
l600 -715v715z" />
    <glyph glyph-name="uni04C2" unicode="&#x4c2;" horiz-adv-x="1732" 
d="M496 1612l186 12q3 -118 51 -175.5t133 -57.5t133.5 57.5t51.5 175.5l186 -12q0 -183 -104 -280t-267 -97t-266.5 97t-103.5 280zM754 1098h225v-508l432 508h287v-4l-479 -519l507 -571v-4h-299l-448 537v-537h-225v537l-449 -537h-299v4l506 567l-477 523v4h291
l428 -508v508z" />
    <glyph glyph-name="uni04CF" unicode="&#x4cf;" horiz-adv-x="569" 
d="M168 0v1122h233v-1122h-233z" />
    <glyph glyph-name="uni04D0" unicode="&#x4d0;" horiz-adv-x="1482" 
d="M330 1976l190 13q3 -98 63 -147.5t158 -49.5t158.5 49.5t63.5 147.5l190 -13q-6 -171 -118 -255.5t-294 -84.5q-181 0 -293 84.5t-118 255.5zM1184 0l-137 387h-621l-137 -387h-260l569 1520h287l567 -1520h-268zM498 592h477l-238 676z" />
    <glyph glyph-name="uni04D1" unicode="&#x4d1;" horiz-adv-x="1187" 
d="M229 1612l187 12q3 -118 51 -175.5t133 -57.5t133 57.5t51 175.5l187 -12q0 -183 -104 -280t-267 -97t-267 97t-104 280zM817 0l-4 145q-135 -170 -356 -170q-163 0 -260 89t-97 249q0 183 139 273t423 90h139v41q0 107 -53.5 158t-186.5 51q-196 0 -352 -113l-41 195
q160 114 422 114q235 0 339.5 -100t104.5 -289v-733h-217zM518 166q97 0 171 47.5t112 120.5v182h-115q-184 0 -269 -45t-85 -145q0 -79 48.5 -119.5t137.5 -40.5z" />
    <glyph glyph-name="uni04D4" unicode="&#x4d4;" horiz-adv-x="2125" 
d="M1014 0v455h-574l-252 -455h-270l860 1520h1215v-211h-740v-408h658v-209h-658v-479h756v-213h-995zM1014 1315h-96l-363 -656h459v656z" />
    <glyph glyph-name="uni04D5" unicode="&#x4d5;" horiz-adv-x="1892" 
d="M1780 98q-177 -123 -430 -123q-303 0 -443 191q-165 -191 -426 -191q-185 0 -285 88t-100 246q0 172 132.5 261t430.5 89h146v58q0 107 -56 158t-188 51q-203 0 -354 -113l-43 195q163 114 420 114q267 0 360 -155q136 155 377 155q101 0 182.5 -28.5t135.5 -76.5
t90 -115.5t51.5 -141.5t15.5 -158v-108h-772q13 -322 352 -322q111 0 196 31t167 92zM1317 940q-118 0 -197 -73.5t-94 -211.5h543v13q0 55 -13.5 101.5t-41.5 86t-78.5 62t-118.5 22.5zM520 166q103 0 183.5 47.5t121.5 126.5q-17 68 -20 158h-121q-134 0 -213.5 -20.5
t-110 -57.5t-30.5 -96q0 -77 49 -117.5t141 -40.5z" />
    <glyph glyph-name="uni04D6" unicode="&#x4d6;" horiz-adv-x="1304" 
d="M270 1976l191 13q3 -98 63 -147.5t158 -49.5t158 49.5t63 147.5l191 -13q-6 -171 -118 -255.5t-294 -84.5t-294 84.5t-118 255.5zM1188 213v-213h-1000v1520h983v-211h-739v-408h658v-209h-658v-479h756z" />
    <glyph glyph-name="uni04D7" unicode="&#x4d7;" horiz-adv-x="1198" 
d="M248 1612l186 12q3 -118 51 -175.5t133 -57.5t133.5 57.5t51.5 175.5l186 -12q0 -183 -104 -280t-267 -97t-266.5 97t-103.5 280zM1085 98q-74 -52 -185 -87.5t-247 -35.5q-276 0 -420.5 148.5t-144.5 413.5q0 270 142 427.5t391 157.5q129 0 224.5 -42.5t150 -117
t80.5 -164.5t26 -196v-113h-776q16 -317 356 -317q109 0 193.5 30.5t168.5 92.5zM623 940q-121 0 -201.5 -74.5t-93.5 -214.5h546v17q0 55 -13 101.5t-41.5 86t-78.5 62t-118 22.5z" />
    <glyph glyph-name="uni04D8" unicode="&#x4d8;" horiz-adv-x="1540" 
d="M1434 760q0 -374 -172 -581.5t-500 -207.5q-134 0 -242.5 36.5t-182.5 100.5t-123.5 155t-72 196t-22.5 227q0 69 6 143h1053q-8 247 -119.5 373.5t-356.5 126.5q-299 0 -489 -174l-68 217q88 75 239 125.5t337 50.5t324 -56t222.5 -161.5t125.5 -247.5t41 -323zM756 190
q182 0 292.5 112t127.5 325h-801v-21q0 -88 23 -162.5t68 -132t119.5 -89.5t170.5 -32z" />
    <glyph glyph-name="uni04D9" unicode="&#x4d9;" horiz-adv-x="1206" 
d="M1118 549q0 -277 -132.5 -425.5t-383.5 -148.5q-104 0 -187.5 26t-141 72.5t-96 112t-56 142.5t-17.5 166q0 22 5 114h774q-8 157 -87 237.5t-251 80.5q-213 0 -367 -113l-43 195q73 49 187.5 81.5t248.5 32.5q143 0 249 -41t170.5 -118t96 -180t31.5 -234zM594 162
q123 0 199.5 72t89.5 212h-551v-16q0 -121 67.5 -194.5t194.5 -73.5z" />
    <glyph glyph-name="uni04E2" unicode="&#x4e2;" horiz-adv-x="1601" 
d="M434 1726v177h733v-177h-733zM1171 0v1124l-753 -1124h-230v1520h242v-1125l754 1125h229v-1520h-242z" />
    <glyph glyph-name="uni04E3" unicode="&#x4e3;" horiz-adv-x="1300" 
d="M317 1339v174h668v-174h-668zM913 0v772l-534 -772h-219v1098h227v-772l535 772h219v-1098h-228z" />
    <glyph glyph-name="uni04E6" unicode="&#x4e6;" horiz-adv-x="1624" 
d="M918 1694v241h239v-241h-239zM465 1694v241h240v-241h-240zM811 -29q-155 0 -285 54.5t-223 154.5t-145 249t-52 331t52 331t145 249t223 154t285 54t285.5 -54t223.5 -154t144.5 -249t51.5 -331q0 -243 -89.5 -422.5t-248.5 -273t-367 -93.5zM811 190q209 0 326.5 152
t117.5 418q0 263 -118 416t-326 153q-207 0 -325.5 -152t-118.5 -417q0 -262 119 -416t325 -154z" />
    <glyph glyph-name="uni04E7" unicode="&#x4e7;" horiz-adv-x="1249" 
d="M729 1307v239h238v-239h-238zM283 1307v239h237v-239h-237zM625 -25q-236 0 -386.5 152.5t-150.5 421.5q0 135 41 244t113 180.5t170 110t213 38.5t212.5 -38.5t169.5 -110t113 -180.5t41 -244q0 -269 -150 -421.5t-386 -152.5zM625 172q137 0 217 100.5t80 276.5
t-80 275.5t-217 99.5t-216 -99.5t-79 -275.5t79 -276.5t216 -100.5z" />
    <glyph glyph-name="uni04E8" unicode="&#x4e8;" horiz-adv-x="1624" 
d="M811 -29q-155 0 -285 54.5t-223 154.5t-145 249t-52 331t52 331t145 249t223 154t285 54t285.5 -54t223.5 -154t144.5 -249t51.5 -331q0 -243 -89.5 -422.5t-248.5 -273t-367 -93.5zM811 1329q-188 0 -303.5 -120.5t-140.5 -338.5h890q-25 216 -141 337.5t-305 121.5z
M811 190q194 0 312 128t137 356h-895q19 -226 136.5 -355t309.5 -129z" />
    <glyph glyph-name="uni04E9" unicode="&#x4e9;" horiz-adv-x="1249" 
d="M625 -25q-236 0 -386.5 152.5t-150.5 421.5q0 135 41 244t113 180.5t170 110t213 38.5t212.5 -38.5t169.5 -110t113 -180.5t41 -244q0 -269 -150 -421.5t-386 -152.5zM625 926q-124 0 -201 -74.5t-96 -212.5h594q-19 139 -95 213t-202 74zM625 170q131 0 208.5 80
t90.5 229h-598q13 -149 91.5 -229t207.5 -80z" />
    <glyph glyph-name="uni04EE" unicode="&#x4ee;" horiz-adv-x="1363" 
d="M334 1726v177h733v-177h-733zM905 469q-66 -153 -129 -251.5t-132 -152.5t-137.5 -74t-160.5 -20q-111 0 -196 31l12 213q71 -29 174 -29q87 0 146.5 43.5t123.5 169.5l-567 1121h276l424 -897l355 897h266z" />
    <glyph glyph-name="uni04EF" unicode="&#x4ef;" horiz-adv-x="1159" 
d="M254 1339v174h668v-174h-668zM713 12q-56 -147 -110 -242.5t-112.5 -148t-116.5 -72.5t-136 -20q-89 0 -172 27l20 211q74 -29 141 -29q80 0 130.5 53t111.5 195l-432 1112h266l291 -865l287 865h247z" />
    <glyph glyph-name="uni04F2" unicode="&#x4f2;" horiz-adv-x="1363" 
d="M535 1630l-125 64l254 334l202 -109zM930 1630l-125 64l254 334l203 -109zM905 469q-66 -153 -129 -251.5t-132 -152.5t-137.5 -74t-160.5 -20q-111 0 -196 31l12 213q71 -29 174 -29q87 0 146.5 43.5t123.5 169.5l-567 1121h276l424 -897l355 897h266z" />
    <glyph glyph-name="uni04F3" unicode="&#x4f3;" horiz-adv-x="1159" 
d="M422 1231l-131 59l239 412l203 -90zM803 1231l-131 59l241 412l203 -90zM713 12q-56 -147 -110 -242.5t-112.5 -148t-116.5 -72.5t-136 -20q-89 0 -172 27l20 211q74 -29 141 -29q80 0 130.5 53t111.5 195l-432 1112h266l291 -865l287 865h247z" />
    <glyph glyph-name="uni0E3F" unicode="&#xe3f;" horiz-adv-x="1396" 
d="M604 -201v201h-428v1520h428v196h150v-196q495 -3 495 -392q0 -264 -250 -333q301 -72 301 -371q0 -94 -30 -167.5t-80 -121t-121 -78.5t-147.5 -44t-163.5 -13h-4v-201h-150zM403 870h201v453h-201v-453zM1012 1100q0 122 -65.5 172.5t-192.5 50.5v-453
q125 3 191.5 55.5t66.5 174.5zM403 684v-487h201v487h-201zM758 684h-4v-487q144 0 222.5 53t78.5 188q0 132 -77 189t-220 57z" />
    <glyph glyph-name="Wgrave" unicode="&#x1e80;" horiz-adv-x="2222" 
d="M1182 1630l-414 266l217 132l322 -320zM1444 0l-332 1186l-336 -1186h-274l-451 1520h273l327 -1231l342 1231h252l342 -1233l324 1233h260l-455 -1520h-272z" />
    <glyph glyph-name="wgrave" unicode="&#x1e81;" horiz-adv-x="1781" 
d="M909 1221l-325 387l221 94l242 -424zM1137 0l-244 813l-248 -813h-239l-361 1098h260l227 -846l248 846h236l246 -846l227 846h252l-363 -1098h-241z" />
    <glyph glyph-name="Wacute" unicode="&#x1e82;" horiz-adv-x="2222" 
d="M1038 1630l-125 78l322 320l217 -132zM1444 0l-332 1186l-336 -1186h-274l-451 1520h273l327 -1231l342 1231h252l342 -1233l324 1233h260l-455 -1520h-272z" />
    <glyph glyph-name="wacute" unicode="&#x1e83;" horiz-adv-x="1781" 
d="M885 1221l-137 57l241 424l221 -94zM1137 0l-244 813l-248 -813h-239l-361 1098h260l227 -846l248 846h236l246 -846l227 846h252l-363 -1098h-241z" />
    <glyph glyph-name="Wdieresis" unicode="&#x1e84;" horiz-adv-x="2222" 
d="M1217 1694v241h239v-241h-239zM764 1694v241h240v-241h-240zM1444 0l-332 1186l-336 -1186h-274l-451 1520h273l327 -1231l342 1231h252l342 -1233l324 1233h260l-455 -1520h-272z" />
    <glyph glyph-name="wdieresis" unicode="&#x1e85;" horiz-adv-x="1781" 
d="M1001 1307v239h238v-239h-238zM555 1307v239h238v-239h-238zM1137 0l-244 813l-248 -813h-239l-361 1098h260l227 -846l248 846h236l246 -846l227 846h252l-363 -1098h-241z" />
    <glyph glyph-name="uni1E9E" unicode="&#x1e9e;" horiz-adv-x="1613" 
d="M172 0v928q0 323 161 471.5t498 148.5q177 0 332.5 -38.5t266.5 -112.5l-273 -520q63 -26 111 -53t96.5 -67t80.5 -86t51.5 -109.5t19.5 -139.5q0 -96 -31 -177t-90.5 -142.5t-155.5 -96.5t-219 -35q-222 0 -406 111l60 227q162 -121 336 -121q130 0 192 61.5t62 162.5
q0 43 -12 80.5t-30 66t-51 56t-62 46.5t-77.5 41t-84 35.5t-93.5 34.5l266 512q-125 47 -301 47q-215 0 -308 -93.5t-93 -311.5v-926h-246z" />
    <glyph glyph-name="uni1EA0" unicode="&#x1ea0;" horiz-adv-x="1482" 
d="M1184 0l-137 387h-621l-137 -387h-260l569 1520h287l567 -1520h-268zM498 592h477l-238 676zM610 -397v239h262v-239h-262z" />
    <glyph glyph-name="uni1EA1" unicode="&#x1ea1;" horiz-adv-x="1187" 
d="M817 0l-4 145q-135 -170 -356 -170q-163 0 -260 89t-97 249q0 183 139 273t423 90h139v41q0 107 -53.5 158t-186.5 51q-196 0 -352 -113l-41 195q160 114 422 114q235 0 339.5 -100t104.5 -289v-733h-217zM518 166q97 0 171 47.5t112 120.5v182h-115q-184 0 -269 -45
t-85 -145q0 -79 48.5 -119.5t137.5 -40.5zM469 -397v239h262v-239h-262z" />
    <glyph glyph-name="uni1EA2" unicode="&#x1ea2;" horiz-adv-x="1482" 
d="M762 1626l-115 98q104 49 145.5 83t41.5 83q0 78 -107 78q-108 0 -199 -67l-36 153q118 74 258 74q123 0 198.5 -56t75.5 -163q0 -51 -17.5 -92.5t-55 -75.5t-81 -59.5t-108.5 -55.5zM1184 0l-137 387h-621l-137 -387h-260l569 1520h287l567 -1520h-268zM498 592h477
l-238 676z" />
    <glyph glyph-name="uni1EA3" unicode="&#x1ea3;" horiz-adv-x="1187" 
d="M621 1214l-115 99q105 51 145.5 84t40.5 82q0 37 -23.5 57t-82.5 20q-112 0 -199 -67l-37 153q118 74 258 74q124 0 199.5 -56t75.5 -163q0 -97 -64.5 -160t-197.5 -123zM817 0l-4 145q-135 -170 -356 -170q-163 0 -260 89t-97 249q0 183 139 273t423 90h139v41
q0 107 -53.5 158t-186.5 51q-196 0 -352 -113l-41 195q160 114 422 114q235 0 339.5 -100t104.5 -289v-733h-217zM518 166q97 0 171 47.5t112 120.5v182h-115q-184 0 -269 -45t-85 -145q0 -79 48.5 -119.5t137.5 -40.5z" />
    <glyph glyph-name="uni1EA4" unicode="&#x1ea4;" horiz-adv-x="1482" 
d="M1098 1929l-113 68l309 313l199 -119zM1141 1679l-209 -41l-191 222l-190 -222l-209 41l303 312h193zM1184 0l-137 387h-621l-137 -387h-260l569 1520h287l567 -1520h-268zM498 592h477l-238 676z" />
    <glyph glyph-name="uni1EA5" unicode="&#x1ea5;" horiz-adv-x="1187" 
d="M983 1495l-125 53l223 394l201 -87zM958 1272l-190 -39l-168 244l-168 -244l-190 39l262 344h192zM817 0l-4 145q-135 -170 -356 -170q-163 0 -260 89t-97 249q0 183 139 273t423 90h139v41q0 107 -53.5 158t-186.5 51q-196 0 -352 -113l-41 195q160 114 422 114
q235 0 339.5 -100t104.5 -289v-733h-217zM518 166q97 0 171 47.5t112 120.5v182h-115q-184 0 -269 -45t-85 -145q0 -79 48.5 -119.5t137.5 -40.5z" />
    <glyph glyph-name="uni1EA6" unicode="&#x1ea6;" horiz-adv-x="1482" 
d="M1155 1929l-395 262l198 119l310 -313zM1141 1679l-209 -41l-191 222l-190 -222l-209 41l303 312h193zM1184 0l-137 387h-621l-137 -387h-260l569 1520h287l567 -1520h-268zM498 592h477l-238 676z" />
    <glyph glyph-name="uni1EA7" unicode="&#x1ea7;" horiz-adv-x="1187" 
d="M997 1495l-299 360l201 87l223 -394zM958 1272l-190 -39l-168 244l-168 -244l-190 39l262 344h192zM817 0l-4 145q-135 -170 -356 -170q-163 0 -260 89t-97 249q0 183 139 273t423 90h139v41q0 107 -53.5 158t-186.5 51q-196 0 -352 -113l-41 195q160 114 422 114
q235 0 339.5 -100t104.5 -289v-733h-217zM518 166q97 0 171 47.5t112 120.5v182h-115q-184 0 -269 -45t-85 -145q0 -79 48.5 -119.5t137.5 -40.5z" />
    <glyph glyph-name="uni1EA8" unicode="&#x1ea8;" horiz-adv-x="1482" 
d="M1122 1890l-106 90q93 44 131.5 77t38.5 77q0 70 -101 70q-98 0 -180 -62l-35 146q108 65 238 65q117 0 186.5 -51.5t69.5 -151.5q0 -90 -59.5 -147t-182.5 -113zM1141 1679l-209 -41l-191 222l-190 -222l-209 41l303 312h193zM1184 0l-137 387h-621l-137 -387h-260
l569 1520h287l567 -1520h-268zM498 592h477l-238 676z" />
    <glyph glyph-name="uni1EA9" unicode="&#x1ea9;" horiz-adv-x="1187" 
d="M985 1493l-106 90q94 46 132 78.5t38 75.5q0 71 -101 71q-95 0 -180 -61l-35 143q113 68 236 68q118 0 188 -52t70 -151q0 -90 -60 -148.5t-182 -113.5zM958 1272l-190 -39l-168 244l-168 -244l-190 39l262 344h192zM817 0l-4 145q-135 -170 -356 -170q-163 0 -260 89
t-97 249q0 183 139 273t423 90h139v41q0 107 -53.5 158t-186.5 51q-196 0 -352 -113l-41 195q160 114 422 114q235 0 339.5 -100t104.5 -289v-733h-217zM518 166q97 0 171 47.5t112 120.5v182h-115q-184 0 -269 -45t-85 -145q0 -79 48.5 -119.5t137.5 -40.5z" />
    <glyph glyph-name="uni1EAA" unicode="&#x1eaa;" horiz-adv-x="1482" 
d="M537 2054l-164 12q0 135 62 202t161 67q49 0 85 -16t99 -56q64 -43 97 -43q69 0 69 127l164 -14q0 -135 -62 -202t-161 -67q-49 0 -86 16t-99 56q-38 25 -57 34t-39 9q-69 0 -69 -125zM1141 1679l-209 -41l-191 222l-190 -222l-209 41l303 312h193zM1184 0l-137 387h-621
l-137 -387h-260l569 1520h287l567 -1520h-268zM498 592h477l-238 676z" />
    <glyph glyph-name="uni1EAB" unicode="&#x1eab;" horiz-adv-x="1187" 
d="M403 1671l-161 12q0 135 60.5 202t156.5 67q45 0 81.5 -16t98.5 -56q65 -43 92 -43q66 0 66 127l161 -14q0 -134 -60.5 -200.5t-156.5 -66.5q-46 0 -83.5 16.5t-96.5 55.5q-62 41 -92 41q-66 0 -66 -125zM958 1272l-190 -39l-168 244l-168 -244l-190 39l262 344h192z
M817 0l-4 145q-135 -170 -356 -170q-163 0 -260 89t-97 249q0 183 139 273t423 90h139v41q0 107 -53.5 158t-186.5 51q-196 0 -352 -113l-41 195q160 114 422 114q235 0 339.5 -100t104.5 -289v-733h-217zM518 166q97 0 171 47.5t112 120.5v182h-115q-184 0 -269 -45
t-85 -145q0 -79 48.5 -119.5t137.5 -40.5z" />
    <glyph glyph-name="uni1EAC" unicode="&#x1eac;" horiz-adv-x="1482" 
d="M1143 1679l-211 -41l-191 222l-190 -222l-211 41l305 314h193zM1184 0l-137 387h-621l-137 -387h-260l569 1520h287l567 -1520h-268zM498 592h477l-238 676zM610 -397v239h262v-239h-262z" />
    <glyph glyph-name="uni1EAD" unicode="&#x1ead;" horiz-adv-x="1187" 
d="M979 1272l-195 -39l-184 301l-184 -301l-195 39l283 405h192zM817 0l-4 145q-135 -170 -356 -170q-163 0 -260 89t-97 249q0 183 139 273t423 90h139v41q0 107 -53.5 158t-186.5 51q-196 0 -352 -113l-41 195q160 114 422 114q235 0 339.5 -100t104.5 -289v-733h-217z
M518 166q97 0 171 47.5t112 120.5v182h-115q-184 0 -269 -45t-85 -145q0 -79 48.5 -119.5t137.5 -40.5zM469 -397v239h262v-239h-262z" />
    <glyph glyph-name="uni1EAE" unicode="&#x1eae;" horiz-adv-x="1482" 
d="M711 1976l-113 68l309 315l199 -118zM377 1939l172 13q14 -79 66 -117.5t126 -38.5t126.5 38.5t66.5 117.5l172 -13q-17 -144 -117.5 -223.5t-247.5 -79.5q-148 0 -246 77.5t-118 225.5zM1184 0l-137 387h-621l-137 -387h-260l569 1520h287l567 -1520h-268zM498 592h477
l-238 676z" />
    <glyph glyph-name="uni1EAF" unicode="&#x1eaf;" horiz-adv-x="1187" 
d="M616 1550l-124 54l223 393l203 -86zM242 1550l172 13q34 -170 186 -170t186 170l172 -13q-25 -157 -120 -236t-238 -79t-238 79t-120 236zM817 0l-4 145q-135 -170 -356 -170q-163 0 -260 89t-97 249q0 183 139 273t423 90h139v41q0 107 -53.5 158t-186.5 51
q-196 0 -352 -113l-41 195q160 114 422 114q235 0 339.5 -100t104.5 -289v-733h-217zM518 166q97 0 171 47.5t112 120.5v182h-115q-184 0 -269 -45t-85 -145q0 -79 48.5 -119.5t137.5 -40.5z" />
    <glyph glyph-name="uni1EB0" unicode="&#x1eb0;" horiz-adv-x="1482" 
d="M772 1976l-395 265l198 118l310 -315zM377 1939l172 13q14 -79 66 -117.5t126 -38.5t126.5 38.5t66.5 117.5l172 -13q-17 -144 -117.5 -223.5t-247.5 -79.5q-148 0 -246 77.5t-118 225.5zM1184 0l-137 387h-621l-137 -387h-260l569 1520h287l567 -1520h-268zM498 592h477
l-238 676z" />
    <glyph glyph-name="uni1EB1" unicode="&#x1eb1;" horiz-adv-x="1187" 
d="M584 1550l-301 361l202 86l224 -393zM242 1550l172 13q34 -170 186 -170t186 170l172 -13q-25 -157 -120 -236t-238 -79t-238 79t-120 236zM817 0l-4 145q-135 -170 -356 -170q-163 0 -260 89t-97 249q0 183 139 273t423 90h139v41q0 107 -53.5 158t-186.5 51
q-196 0 -352 -113l-41 195q160 114 422 114q235 0 339.5 -100t104.5 -289v-733h-217zM518 166q97 0 171 47.5t112 120.5v182h-115q-184 0 -269 -45t-85 -145q0 -79 48.5 -119.5t137.5 -40.5z" />
    <glyph glyph-name="uni1EB2" unicode="&#x1eb2;" horiz-adv-x="1482" 
d="M743 1939l-106 91q93 44 131.5 76.5t38.5 76.5q0 70 -100 70q-99 0 -181 -62l-34 146q108 65 237 65q117 0 186.5 -51.5t69.5 -150.5q0 -47 -16.5 -85.5t-51 -69.5t-74.5 -55t-100 -51zM377 1939l172 13q14 -79 66 -117.5t126 -38.5t126.5 38.5t66.5 117.5l172 -13
q-17 -144 -117.5 -223.5t-247.5 -79.5q-148 0 -246 77.5t-118 225.5zM1184 0l-137 387h-621l-137 -387h-260l569 1520h287l567 -1520h-268zM498 592h477l-238 676z" />
    <glyph glyph-name="uni1EB3" unicode="&#x1eb3;" horiz-adv-x="1187" 
d="M602 1550l-106 90q93 44 131.5 77t38.5 77q0 70 -101 70q-98 0 -180 -62l-35 146q108 65 238 65q117 0 186.5 -51.5t69.5 -151.5q0 -90 -59.5 -147t-182.5 -113zM242 1550l172 13q34 -170 186 -170t186 170l172 -13q-25 -157 -120 -236t-238 -79t-238 79t-120 236zM817 0
l-4 145q-135 -170 -356 -170q-163 0 -260 89t-97 249q0 183 139 273t423 90h139v41q0 107 -53.5 158t-186.5 51q-196 0 -352 -113l-41 195q160 114 422 114q235 0 339.5 -100t104.5 -289v-733h-217zM518 166q97 0 171 47.5t112 120.5v182h-115q-184 0 -269 -45t-85 -145
q0 -79 48.5 -119.5t137.5 -40.5z" />
    <glyph glyph-name="uni1EB4" unicode="&#x1eb4;" horiz-adv-x="1482" 
d="M537 2054l-164 12q0 135 62 202t161 67q49 0 85 -16t99 -56q64 -43 97 -43q69 0 69 127l164 -14q0 -135 -62 -202t-161 -67q-49 0 -86 16t-99 56q-38 25 -57 34t-39 9q-69 0 -69 -125zM377 1939l172 13q14 -79 66 -117.5t126 -38.5t126.5 38.5t66.5 117.5l172 -13
q-17 -144 -117.5 -223.5t-247.5 -79.5q-148 0 -246 77.5t-118 225.5zM1184 0l-137 387h-621l-137 -387h-260l569 1520h287l567 -1520h-268zM498 592h477l-238 676z" />
    <glyph glyph-name="uni1EB5" unicode="&#x1eb5;" horiz-adv-x="1187" 
d="M403 1671l-161 12q0 135 60.5 202t156.5 67q45 0 81.5 -16t98.5 -56q65 -43 92 -43q66 0 66 127l161 -14q0 -134 -60.5 -200.5t-156.5 -66.5q-46 0 -83.5 16.5t-96.5 55.5q-62 41 -92 41q-66 0 -66 -125zM242 1550l172 13q34 -170 186 -170t186 170l172 -13
q-25 -157 -120 -236t-238 -79t-238 79t-120 236zM817 0l-4 145q-135 -170 -356 -170q-163 0 -260 89t-97 249q0 183 139 273t423 90h139v41q0 107 -53.5 158t-186.5 51q-196 0 -352 -113l-41 195q160 114 422 114q235 0 339.5 -100t104.5 -289v-733h-217zM518 166
q97 0 171 47.5t112 120.5v182h-115q-184 0 -269 -45t-85 -145q0 -79 48.5 -119.5t137.5 -40.5z" />
    <glyph glyph-name="uni1EB6" unicode="&#x1eb6;" horiz-adv-x="1482" 
d="M375 1976l172 15q7 -94 57.5 -141.5t136.5 -47.5t137 47.5t58 141.5l172 -15q-6 -163 -107.5 -251.5t-259.5 -88.5t-259 88.5t-107 251.5zM1184 0l-137 387h-621l-137 -387h-260l569 1520h287l567 -1520h-268zM498 592h477l-238 676zM610 -397v239h262v-239h-262z" />
    <glyph glyph-name="uni1EB7" unicode="&#x1eb7;" horiz-adv-x="1187" 
d="M233 1612l173 12q6 -113 57.5 -168t136.5 -55t137 55t58 168l172 -12q-6 -181 -107.5 -279t-259.5 -98t-259.5 98t-107.5 279zM817 0l-4 145q-135 -170 -356 -170q-163 0 -260 89t-97 249q0 183 139 273t423 90h139v41q0 107 -53.5 158t-186.5 51q-196 0 -352 -113
l-41 195q160 114 422 114q235 0 339.5 -100t104.5 -289v-733h-217zM518 166q97 0 171 47.5t112 120.5v182h-115q-184 0 -269 -45t-85 -145q0 -79 48.5 -119.5t137.5 -40.5zM469 -397v239h262v-239h-262z" />
    <glyph glyph-name="uni1EB8" unicode="&#x1eb8;" horiz-adv-x="1304" 
d="M1188 213v-213h-1000v1520h983v-211h-739v-408h658v-209h-658v-479h756zM524 -397v239h262v-239h-262z" />
    <glyph glyph-name="uni1EB9" unicode="&#x1eb9;" horiz-adv-x="1198" 
d="M1085 98q-74 -52 -185 -87.5t-247 -35.5q-276 0 -420.5 148.5t-144.5 413.5q0 270 142 427.5t391 157.5q129 0 224.5 -42.5t150 -117t80.5 -164.5t26 -196v-113h-776q16 -317 356 -317q109 0 193.5 30.5t168.5 92.5zM623 940q-121 0 -201.5 -74.5t-93.5 -214.5h546v17
q0 55 -13 101.5t-41.5 86t-78.5 62t-118 22.5zM487 -397v239h263v-239h-263z" />
    <glyph glyph-name="uni1EBA" unicode="&#x1eba;" horiz-adv-x="1304" 
d="M676 1626l-115 98q104 49 145.5 83t41.5 83q0 78 -107 78q-108 0 -199 -67l-36 153q118 74 258 74q123 0 198.5 -56t75.5 -163q0 -51 -17.5 -92.5t-55 -75.5t-81 -59.5t-108.5 -55.5zM1188 213v-213h-1000v1520h983v-211h-739v-408h658v-209h-658v-479h756z" />
    <glyph glyph-name="uni1EBB" unicode="&#x1ebb;" horiz-adv-x="1198" 
d="M639 1214l-115 99q106 52 146.5 84.5t40.5 81.5q0 37 -24 57t-83 20q-111 0 -198 -67l-37 153q118 74 258 74q123 0 198.5 -56t75.5 -163q0 -97 -64.5 -160t-197.5 -123zM1085 98q-74 -52 -185 -87.5t-247 -35.5q-276 0 -420.5 148.5t-144.5 413.5q0 270 142 427.5
t391 157.5q129 0 224.5 -42.5t150 -117t80.5 -164.5t26 -196v-113h-776q16 -317 356 -317q109 0 193.5 30.5t168.5 92.5zM623 940q-121 0 -201.5 -74.5t-93.5 -214.5h546v17q0 55 -13 101.5t-41.5 86t-78.5 62t-118 22.5z" />
    <glyph glyph-name="uni1EBC" unicode="&#x1ebc;" horiz-adv-x="1304" 
d="M385 1642l-164 15q0 158 68 236.5t178 78.5q111 0 215 -74q89 -63 147 -63q97 0 97 152l164 -15q0 -158 -68 -236.5t-178 -78.5q-61 0 -110 19.5t-105 54.5q-41 25 -59 35.5t-42 19t-47 8.5q-96 0 -96 -152zM1188 213v-213h-1000v1520h983v-211h-739v-408h658v-209h-658
v-479h756z" />
    <glyph glyph-name="uni1EBD" unicode="&#x1ebd;" horiz-adv-x="1198" 
d="M365 1260l-164 14q0 159 65.5 238t169.5 79q58 0 106.5 -20t102.5 -55q34 -23 52.5 -34t42.5 -20.5t44 -9.5q88 0 88 152l164 -13q0 -160 -65.5 -238.5t-169.5 -78.5q-58 0 -106 20t-103 56q-50 33 -79.5 47t-59.5 14q-88 0 -88 -151zM1085 98q-74 -52 -185 -87.5
t-247 -35.5q-276 0 -420.5 148.5t-144.5 413.5q0 270 142 427.5t391 157.5q129 0 224.5 -42.5t150 -117t80.5 -164.5t26 -196v-113h-776q16 -317 356 -317q109 0 193.5 30.5t168.5 92.5zM623 940q-121 0 -201.5 -74.5t-93.5 -214.5h546v17q0 55 -13 101.5t-41.5 86t-78.5 62
t-118 22.5z" />
    <glyph glyph-name="uni1EBE" unicode="&#x1ebe;" horiz-adv-x="1304" 
d="M1012 1929l-113 68l309 313l199 -119zM1055 1679l-209 -41l-191 222l-190 -222l-209 41l303 312h193zM1188 213v-213h-1000v1520h983v-211h-739v-408h658v-209h-658v-479h756z" />
    <glyph glyph-name="uni1EBF" unicode="&#x1ebf;" horiz-adv-x="1198" 
d="M1001 1495l-124 53l223 394l200 -87zM977 1272l-191 -39l-168 244l-167 -244l-191 39l262 344h193zM1085 98q-74 -52 -185 -87.5t-247 -35.5q-276 0 -420.5 148.5t-144.5 413.5q0 270 142 427.5t391 157.5q129 0 224.5 -42.5t150 -117t80.5 -164.5t26 -196v-113h-776
q16 -317 356 -317q109 0 193.5 30.5t168.5 92.5zM623 940q-121 0 -201.5 -74.5t-93.5 -214.5h546v17q0 55 -13 101.5t-41.5 86t-78.5 62t-118 22.5z" />
    <glyph glyph-name="uni1EC0" unicode="&#x1ec0;" horiz-adv-x="1304" 
d="M1069 1929l-395 262l198 119l310 -313zM1055 1679l-209 -41l-191 222l-190 -222l-209 41l303 312h193zM1188 213v-213h-1000v1520h983v-211h-739v-408h658v-209h-658v-479h756z" />
    <glyph glyph-name="uni1EC1" unicode="&#x1ec1;" horiz-adv-x="1198" 
d="M1016 1495l-299 360l201 87l223 -394zM977 1272l-191 -39l-168 244l-167 -244l-191 39l262 344h193zM1085 98q-74 -52 -185 -87.5t-247 -35.5q-276 0 -420.5 148.5t-144.5 413.5q0 270 142 427.5t391 157.5q129 0 224.5 -42.5t150 -117t80.5 -164.5t26 -196v-113h-776
q16 -317 356 -317q109 0 193.5 30.5t168.5 92.5zM623 940q-121 0 -201.5 -74.5t-93.5 -214.5h546v17q0 55 -13 101.5t-41.5 86t-78.5 62t-118 22.5z" />
    <glyph glyph-name="uni1EC2" unicode="&#x1ec2;" horiz-adv-x="1304" 
d="M1036 1890l-106 90q93 44 131.5 77t38.5 77q0 70 -101 70q-98 0 -180 -62l-35 146q108 65 238 65q117 0 186.5 -51.5t69.5 -151.5q0 -90 -59.5 -147t-182.5 -113zM1055 1679l-209 -41l-191 222l-190 -222l-209 41l303 312h193zM1188 213v-213h-1000v1520h983v-211h-739
v-408h658v-209h-658v-479h756z" />
    <glyph glyph-name="uni1EC3" unicode="&#x1ec3;" horiz-adv-x="1198" 
d="M1004 1493l-107 90q94 46 132 78.5t38 75.5q0 71 -100 71q-96 0 -181 -61l-34 143q113 68 235 68q118 0 188 -52t70 -151q0 -90 -59.5 -148.5t-181.5 -113.5zM977 1272l-191 -39l-168 244l-167 -244l-191 39l262 344h193zM1085 98q-74 -52 -185 -87.5t-247 -35.5
q-276 0 -420.5 148.5t-144.5 413.5q0 270 142 427.5t391 157.5q129 0 224.5 -42.5t150 -117t80.5 -164.5t26 -196v-113h-776q16 -317 356 -317q109 0 193.5 30.5t168.5 92.5zM623 940q-121 0 -201.5 -74.5t-93.5 -214.5h546v17q0 55 -13 101.5t-41.5 86t-78.5 62t-118 22.5z
" />
    <glyph glyph-name="uni1EC4" unicode="&#x1ec4;" horiz-adv-x="1304" 
d="M451 2054l-164 12q0 135 62 202t161 67q49 0 85 -16t99 -56q64 -43 97 -43q69 0 69 127l164 -14q0 -135 -62 -202t-161 -67q-49 0 -86 16t-99 56q-38 25 -57 34t-39 9q-69 0 -69 -125zM1055 1679l-209 -41l-191 222l-190 -222l-209 41l303 312h193zM1188 213v-213h-1000
v1520h983v-211h-739v-408h658v-209h-658v-479h756z" />
    <glyph glyph-name="uni1EC5" unicode="&#x1ec5;" horiz-adv-x="1198" 
d="M422 1671l-162 12q0 135 60.5 202t156.5 67q45 0 81.5 -16t98.5 -56q65 -43 93 -43q65 0 65 127l162 -14q0 -134 -60.5 -200.5t-156.5 -66.5q-46 0 -83.5 16.5t-96.5 55.5q-62 41 -93 41q-65 0 -65 -125zM977 1272l-191 -39l-168 244l-167 -244l-191 39l262 344h193z
M1085 98q-74 -52 -185 -87.5t-247 -35.5q-276 0 -420.5 148.5t-144.5 413.5q0 270 142 427.5t391 157.5q129 0 224.5 -42.5t150 -117t80.5 -164.5t26 -196v-113h-776q16 -317 356 -317q109 0 193.5 30.5t168.5 92.5zM623 940q-121 0 -201.5 -74.5t-93.5 -214.5h546v17
q0 55 -13 101.5t-41.5 86t-78.5 62t-118 22.5z" />
    <glyph glyph-name="uni1EC6" unicode="&#x1ec6;" horiz-adv-x="1304" 
d="M1057 1679l-211 -41l-191 222l-190 -222l-211 41l305 314h193zM1188 213v-213h-1000v1520h983v-211h-739v-408h658v-209h-658v-479h756zM524 -397v239h262v-239h-262z" />
    <glyph glyph-name="uni1EC7" unicode="&#x1ec7;" horiz-adv-x="1198" 
d="M997 1272l-194 -39l-185 301l-184 -301l-194 39l282 405h193zM1085 98q-74 -52 -185 -87.5t-247 -35.5q-276 0 -420.5 148.5t-144.5 413.5q0 270 142 427.5t391 157.5q129 0 224.5 -42.5t150 -117t80.5 -164.5t26 -196v-113h-776q16 -317 356 -317q109 0 193.5 30.5
t168.5 92.5zM623 940q-121 0 -201.5 -74.5t-93.5 -214.5h546v17q0 55 -13 101.5t-41.5 86t-78.5 62t-118 22.5zM487 -397v239h263v-239h-263z" />
    <glyph glyph-name="uni1EC8" unicode="&#x1ec8;" horiz-adv-x="620" 
d="M332 1626l-115 98q103 49 144.5 83t41.5 83q0 37 -23.5 57.5t-82.5 20.5q-108 0 -199 -67l-37 153q118 74 258 74q124 0 199.5 -56t75.5 -163q0 -51 -17.5 -92.5t-55 -75.5t-81 -59.5t-108.5 -55.5zM188 0v1520h244v-1520h-244z" />
    <glyph glyph-name="uni1EC9" unicode="&#x1ec9;" horiz-adv-x="573" 
d="M307 1214l-114 99q105 51 145.5 84t40.5 82q0 37 -24 57t-83 20q-111 0 -198 -67l-37 153q118 74 258 74q123 0 198.5 -56t75.5 -163q0 -97 -64.5 -160t-197.5 -123zM170 0v1098h233v-1098h-233z" />
    <glyph glyph-name="uni1ECA" unicode="&#x1eca;" horiz-adv-x="620" 
d="M188 0v1520h244v-1520h-244zM180 -397v239h262v-239h-262z" />
    <glyph glyph-name="uni1ECB" unicode="&#x1ecb;" horiz-adv-x="561" 
d="M150 1307v239h262v-239h-262zM164 0v1098h233v-1098h-233zM150 -397v239h262v-239h-262z" />
    <glyph glyph-name="uni1ECC" unicode="&#x1ecc;" horiz-adv-x="1624" 
d="M811 -29q-155 0 -285 54.5t-223 154.5t-145 249t-52 331t52 331t145 249t223 154t285 54t285.5 -54t223.5 -154t144.5 -249t51.5 -331q0 -243 -89.5 -422.5t-248.5 -273t-367 -93.5zM811 190q209 0 326.5 152t117.5 418q0 263 -118 416t-326 153q-207 0 -325.5 -152
t-118.5 -417q0 -262 119 -416t325 -154zM680 -397v239h262v-239h-262z" />
    <glyph glyph-name="uni1ECD" unicode="&#x1ecd;" horiz-adv-x="1249" 
d="M625 -25q-236 0 -386.5 152.5t-150.5 421.5q0 135 41 244t113 180.5t170 110t213 38.5t212.5 -38.5t169.5 -110t113 -180.5t41 -244q0 -269 -150 -421.5t-386 -152.5zM625 172q137 0 217 100.5t80 276.5t-80 275.5t-217 99.5t-216 -99.5t-79 -275.5t79 -276.5t216 -100.5
zM494 -397v239h262v-239h-262z" />
    <glyph glyph-name="uni1ECE" unicode="&#x1ece;" horiz-adv-x="1624" 
d="M831 1626l-114 98q103 49 144.5 83t41.5 83q0 37 -23.5 57.5t-82.5 20.5q-108 0 -199 -67l-37 153q118 74 258 74q124 0 199.5 -56t75.5 -163q0 -98 -64.5 -160t-198.5 -123zM811 -29q-155 0 -285 54.5t-223 154.5t-145 249t-52 331t52 331t145 249t223 154t285 54
t285.5 -54t223.5 -154t144.5 -249t51.5 -331q0 -243 -89.5 -422.5t-248.5 -273t-367 -93.5zM811 190q209 0 326.5 152t117.5 418q0 263 -118 416t-326 153q-207 0 -325.5 -152t-118.5 -417q0 -262 119 -416t325 -154z" />
    <glyph glyph-name="uni1ECF" unicode="&#x1ecf;" horiz-adv-x="1249" 
d="M645 1214l-115 99q106 52 146.5 84.5t40.5 81.5q0 37 -24 57t-83 20q-111 0 -198 -67l-37 153q118 74 258 74q123 0 198.5 -56t75.5 -163q0 -97 -64.5 -160t-197.5 -123zM625 -25q-236 0 -386.5 152.5t-150.5 421.5q0 135 41 244t113 180.5t170 110t213 38.5t212.5 -38.5
t169.5 -110t113 -180.5t41 -244q0 -269 -150 -421.5t-386 -152.5zM625 172q137 0 217 100.5t80 276.5t-80 275.5t-217 99.5t-216 -99.5t-79 -275.5t79 -276.5t216 -100.5z" />
    <glyph glyph-name="uni1ED0" unicode="&#x1ed0;" horiz-adv-x="1624" 
d="M1167 1929l-112 68l309 313l199 -119zM1210 1679l-209 -41l-190 222l-190 -222l-209 41l303 312h192zM811 -29q-155 0 -285 54.5t-223 154.5t-145 249t-52 331t52 331t145 249t223 154t285 54t285.5 -54t223.5 -154t144.5 -249t51.5 -331q0 -243 -89.5 -422.5
t-248.5 -273t-367 -93.5zM811 190q209 0 326.5 152t117.5 418q0 263 -118 416t-326 153q-207 0 -325.5 -152t-118.5 -417q0 -262 119 -416t325 -154z" />
    <glyph glyph-name="uni1ED1" unicode="&#x1ed1;" horiz-adv-x="1249" 
d="M1008 1495l-125 53l223 394l201 -87zM983 1272l-190 -39l-168 244l-168 -244l-191 39l262 344h193zM625 -25q-236 0 -386.5 152.5t-150.5 421.5q0 135 41 244t113 180.5t170 110t213 38.5t212.5 -38.5t169.5 -110t113 -180.5t41 -244q0 -269 -150 -421.5t-386 -152.5z
M625 172q137 0 217 100.5t80 276.5t-80 275.5t-217 99.5t-216 -99.5t-79 -275.5t79 -276.5t216 -100.5z" />
    <glyph glyph-name="uni1ED2" unicode="&#x1ed2;" horiz-adv-x="1624" 
d="M1225 1929l-396 262l199 119l309 -313zM1210 1679l-209 -41l-190 222l-190 -222l-209 41l303 312h192zM811 -29q-155 0 -285 54.5t-223 154.5t-145 249t-52 331t52 331t145 249t223 154t285 54t285.5 -54t223.5 -154t144.5 -249t51.5 -331q0 -243 -89.5 -422.5
t-248.5 -273t-367 -93.5zM811 190q209 0 326.5 152t117.5 418q0 263 -118 416t-326 153q-207 0 -325.5 -152t-118.5 -417q0 -262 119 -416t325 -154z" />
    <glyph glyph-name="uni1ED3" unicode="&#x1ed3;" horiz-adv-x="1249" 
d="M1022 1495l-299 360l201 87l223 -394zM983 1272l-190 -39l-168 244l-168 -244l-191 39l262 344h193zM625 -25q-236 0 -386.5 152.5t-150.5 421.5q0 135 41 244t113 180.5t170 110t213 38.5t212.5 -38.5t169.5 -110t113 -180.5t41 -244q0 -269 -150 -421.5t-386 -152.5z
M625 172q137 0 217 100.5t80 276.5t-80 275.5t-217 99.5t-216 -99.5t-79 -275.5t79 -276.5t216 -100.5z" />
    <glyph glyph-name="uni1ED4" unicode="&#x1ed4;" horiz-adv-x="1624" 
d="M1192 1890l-107 90q93 44 131.5 77t38.5 77q0 70 -100 70q-98 0 -180 -62l-35 146q108 65 238 65q117 0 186.5 -51.5t69.5 -151.5q0 -90 -59.5 -147t-182.5 -113zM1210 1679l-209 -41l-190 222l-190 -222l-209 41l303 312h192zM811 -29q-155 0 -285 54.5t-223 154.5
t-145 249t-52 331t52 331t145 249t223 154t285 54t285.5 -54t223.5 -154t144.5 -249t51.5 -331q0 -243 -89.5 -422.5t-248.5 -273t-367 -93.5zM811 190q209 0 326.5 152t117.5 418q0 263 -118 416t-326 153q-207 0 -325.5 -152t-118.5 -417q0 -262 119 -416t325 -154z" />
    <glyph glyph-name="uni1ED5" unicode="&#x1ed5;" horiz-adv-x="1249" 
d="M1010 1493l-107 90q94 46 132 78.5t38 75.5q0 71 -100 71q-95 0 -180 -61l-35 143q113 68 235 68q118 0 188 -52t70 -151q0 -90 -59.5 -148.5t-181.5 -113.5zM983 1272l-190 -39l-168 244l-168 -244l-191 39l262 344h193zM625 -25q-236 0 -386.5 152.5t-150.5 421.5
q0 135 41 244t113 180.5t170 110t213 38.5t212.5 -38.5t169.5 -110t113 -180.5t41 -244q0 -269 -150 -421.5t-386 -152.5zM625 172q137 0 217 100.5t80 276.5t-80 275.5t-217 99.5t-216 -99.5t-79 -275.5t79 -276.5t216 -100.5z" />
    <glyph glyph-name="uni1ED6" unicode="&#x1ed6;" horiz-adv-x="1624" 
d="M606 2054l-164 12q0 135 62.5 202t161.5 67q49 0 85 -16t99 -56q38 -25 57 -34t39 -9q70 0 70 127l164 -14q0 -135 -62.5 -202t-161.5 -67q-49 0 -85 16t-99 56q-38 25 -57 34t-39 9q-70 0 -70 -125zM1210 1679l-209 -41l-190 222l-190 -222l-209 41l303 312h192z
M811 -29q-155 0 -285 54.5t-223 154.5t-145 249t-52 331t52 331t145 249t223 154t285 54t285.5 -54t223.5 -154t144.5 -249t51.5 -331q0 -243 -89.5 -422.5t-248.5 -273t-367 -93.5zM811 190q209 0 326.5 152t117.5 418q0 263 -118 416t-326 153q-207 0 -325.5 -152
t-118.5 -417q0 -262 119 -416t325 -154z" />
    <glyph glyph-name="uni1ED7" unicode="&#x1ed7;" horiz-adv-x="1249" 
d="M428 1671l-162 12q0 135 60.5 202t156.5 67q45 0 82.5 -16.5t98.5 -55.5q65 -43 92 -43q65 0 65 127l162 -14q0 -134 -60.5 -200.5t-156.5 -66.5q-46 0 -83.5 16.5t-96.5 55.5q-62 41 -92 41q-66 0 -66 -125zM983 1272l-190 -39l-168 244l-168 -244l-191 39l262 344h193z
M625 -25q-236 0 -386.5 152.5t-150.5 421.5q0 135 41 244t113 180.5t170 110t213 38.5t212.5 -38.5t169.5 -110t113 -180.5t41 -244q0 -269 -150 -421.5t-386 -152.5zM625 172q137 0 217 100.5t80 276.5t-80 275.5t-217 99.5t-216 -99.5t-79 -275.5t79 -276.5t216 -100.5z
" />
    <glyph glyph-name="uni1ED8" unicode="&#x1ed8;" horiz-adv-x="1624" 
d="M1212 1679l-211 -41l-190 222l-190 -222l-211 41l305 314h192zM811 -29q-155 0 -285 54.5t-223 154.5t-145 249t-52 331t52 331t145 249t223 154t285 54t285.5 -54t223.5 -154t144.5 -249t51.5 -331q0 -243 -89.5 -422.5t-248.5 -273t-367 -93.5zM811 190
q209 0 326.5 152t117.5 418q0 263 -118 416t-326 153q-207 0 -325.5 -152t-118.5 -417q0 -262 119 -416t325 -154zM680 -397v239h262v-239h-262z" />
    <glyph glyph-name="uni1ED9" unicode="&#x1ed9;" horiz-adv-x="1249" 
d="M1004 1272l-195 -39l-184 301l-185 -301l-194 39l282 405h193zM625 -25q-236 0 -386.5 152.5t-150.5 421.5q0 135 41 244t113 180.5t170 110t213 38.5t212.5 -38.5t169.5 -110t113 -180.5t41 -244q0 -269 -150 -421.5t-386 -152.5zM625 172q137 0 217 100.5t80 276.5
t-80 275.5t-217 99.5t-216 -99.5t-79 -275.5t79 -276.5t216 -100.5zM494 -397v239h262v-239h-262z" />
    <glyph glyph-name="uni1EDA" unicode="&#x1eda;" horiz-adv-x="1626" 
d="M739 1630l-125 78l322 320l217 -132zM1516 760q0 -243 -89.5 -422.5t-248.5 -273t-367 -93.5q-155 0 -285 54.5t-223 154.5t-145 249t-52 331t52 331t145 249t223 154t285 54t285 -53h39q116 0 160 50t44 149q0 48 -8 102h207q10 -73 10 -119q0 -263 -248 -317
q103 -103 159.5 -256t56.5 -344zM811 190q209 0 326.5 152t117.5 418q0 263 -118 416t-326 153q-207 0 -325.5 -152t-118.5 -417q0 -262 119 -416t325 -154z" />
    <glyph glyph-name="uni1EDB" unicode="&#x1edb;" horiz-adv-x="1294" 
d="M612 1221l-137 57l242 424l221 -94zM1161 549q0 -269 -150 -421.5t-386 -152.5t-386.5 152.5t-150.5 421.5q0 135 41 244t113 180.5t170 110t213 38.5q132 0 239 -49q112 1 156.5 51t44.5 146q0 44 -10 102h207q10 -48 10 -117q0 -258 -236 -315q125 -154 125 -391z
M625 172q137 0 217 100.5t80 276.5t-80 275.5t-217 99.5t-216 -99.5t-79 -275.5t79 -276.5t216 -100.5z" />
    <glyph glyph-name="uni1EDC" unicode="&#x1edc;" horiz-adv-x="1626" 
d="M883 1630l-414 266l217 132l322 -320zM1516 760q0 -243 -89.5 -422.5t-248.5 -273t-367 -93.5q-155 0 -285 54.5t-223 154.5t-145 249t-52 331t52 331t145 249t223 154t285 54t285 -53h39q116 0 160 50t44 149q0 48 -8 102h207q10 -73 10 -119q0 -263 -248 -317
q103 -103 159.5 -256t56.5 -344zM811 190q209 0 326.5 152t117.5 418q0 263 -118 416t-326 153q-207 0 -325.5 -152t-118.5 -417q0 -262 119 -416t325 -154z" />
    <glyph glyph-name="uni1EDD" unicode="&#x1edd;" horiz-adv-x="1294" 
d="M637 1221l-326 387l221 94l242 -424zM1161 549q0 -269 -150 -421.5t-386 -152.5t-386.5 152.5t-150.5 421.5q0 135 41 244t113 180.5t170 110t213 38.5q132 0 239 -49q112 1 156.5 51t44.5 146q0 44 -10 102h207q10 -48 10 -117q0 -258 -236 -315q125 -154 125 -391z
M625 172q137 0 217 100.5t80 276.5t-80 275.5t-217 99.5t-216 -99.5t-79 -275.5t79 -276.5t216 -100.5z" />
    <glyph glyph-name="uni1EDE" unicode="&#x1ede;" horiz-adv-x="1626" 
d="M831 1626l-114 98q103 49 144.5 83t41.5 83q0 37 -23.5 57.5t-82.5 20.5q-108 0 -199 -67l-37 153q118 74 258 74q124 0 199.5 -56t75.5 -163q0 -98 -64.5 -160t-198.5 -123zM1516 760q0 -243 -89.5 -422.5t-248.5 -273t-367 -93.5q-155 0 -285 54.5t-223 154.5t-145 249
t-52 331t52 331t145 249t223 154t285 54t285 -53h39q116 0 160 50t44 149q0 48 -8 102h207q10 -73 10 -119q0 -263 -248 -317q103 -103 159.5 -256t56.5 -344zM811 190q209 0 326.5 152t117.5 418q0 263 -118 416t-326 153q-207 0 -325.5 -152t-118.5 -417q0 -262 119 -416
t325 -154z" />
    <glyph glyph-name="uni1EDF" unicode="&#x1edf;" horiz-adv-x="1294" 
d="M645 1214l-115 99q106 52 146.5 84.5t40.5 81.5q0 37 -24 57t-83 20q-111 0 -198 -67l-37 153q118 74 258 74q123 0 198.5 -56t75.5 -163q0 -97 -64.5 -160t-197.5 -123zM1161 549q0 -269 -150 -421.5t-386 -152.5t-386.5 152.5t-150.5 421.5q0 135 41 244t113 180.5
t170 110t213 38.5q132 0 239 -49q112 1 156.5 51t44.5 146q0 44 -10 102h207q10 -48 10 -117q0 -258 -236 -315q125 -154 125 -391zM625 172q137 0 217 100.5t80 276.5t-80 275.5t-217 99.5t-216 -99.5t-79 -275.5t79 -276.5t216 -100.5z" />
    <glyph glyph-name="uni1EE0" unicode="&#x1ee0;" horiz-adv-x="1626" 
d="M541 1683l-164 15q0 158 68 236.5t178 78.5q111 0 215 -74q89 -63 147 -63q96 0 96 152l164 -15q0 -158 -68 -236.5t-178 -78.5q-61 0 -110 19.5t-105 54.5q-42 26 -59 36t-41.5 18.5t-46.5 8.5q-96 0 -96 -152zM1516 760q0 -243 -89.5 -422.5t-248.5 -273t-367 -93.5
q-155 0 -285 54.5t-223 154.5t-145 249t-52 331t52 331t145 249t223 154t285 54t285 -53h39q116 0 160 50t44 149q0 48 -8 102h207q10 -73 10 -119q0 -263 -248 -317q103 -103 159.5 -256t56.5 -344zM811 190q209 0 326.5 152t117.5 418q0 263 -118 416t-326 153
q-207 0 -325.5 -152t-118.5 -417q0 -262 119 -416t325 -154z" />
    <glyph glyph-name="uni1EE1" unicode="&#x1ee1;" horiz-adv-x="1294" 
d="M371 1358l-164 14q0 159 65.5 238.5t169.5 79.5q58 0 106 -20t103 -56q50 -34 80.5 -49t59.5 -15q88 0 88 152l163 -12q0 -160 -65.5 -239t-169.5 -79q-58 0 -106 20t-103 56q-50 33 -79.5 47t-59.5 14q-88 0 -88 -151zM1161 549q0 -269 -150 -421.5t-386 -152.5
t-386.5 152.5t-150.5 421.5q0 135 41 244t113 180.5t170 110t213 38.5q132 0 239 -49q112 1 156.5 51t44.5 146q0 44 -10 102h207q10 -48 10 -117q0 -258 -236 -315q125 -154 125 -391zM625 172q137 0 217 100.5t80 276.5t-80 275.5t-217 99.5t-216 -99.5t-79 -275.5
t79 -276.5t216 -100.5z" />
    <glyph glyph-name="uni1EE2" unicode="&#x1ee2;" horiz-adv-x="1626" 
d="M1516 760q0 -243 -89.5 -422.5t-248.5 -273t-367 -93.5q-155 0 -285 54.5t-223 154.5t-145 249t-52 331t52 331t145 249t223 154t285 54t285 -53h39q116 0 160 50t44 149q0 48 -8 102h207q10 -73 10 -119q0 -263 -248 -317q103 -103 159.5 -256t56.5 -344zM811 190
q209 0 326.5 152t117.5 418q0 263 -118 416t-326 153q-207 0 -325.5 -152t-118.5 -417q0 -262 119 -416t325 -154zM680 -397v239h262v-239h-262z" />
    <glyph glyph-name="uni1EE3" unicode="&#x1ee3;" horiz-adv-x="1294" 
d="M1161 549q0 -269 -150 -421.5t-386 -152.5t-386.5 152.5t-150.5 421.5q0 135 41 244t113 180.5t170 110t213 38.5q132 0 239 -49q112 1 156.5 51t44.5 146q0 44 -10 102h207q10 -48 10 -117q0 -258 -236 -315q125 -154 125 -391zM625 172q137 0 217 100.5t80 276.5
t-80 275.5t-217 99.5t-216 -99.5t-79 -275.5t79 -276.5t216 -100.5zM494 -397v239h262v-239h-262z" />
    <glyph glyph-name="uni1EE4" unicode="&#x1ee4;" horiz-adv-x="1552" 
d="M172 598v922h246v-924q0 -198 93 -302t267 -104t267.5 104t93.5 302v924h239v-922q0 -304 -153.5 -465.5t-452.5 -161.5q-298 0 -449 161t-151 466zM645 -397v239h262v-239h-262z" />
    <glyph glyph-name="uni1EE5" unicode="&#x1ee5;" horiz-adv-x="1265" 
d="M889 0l-4 170q-132 -195 -363 -195q-174 0 -272 108t-98 302v713h233v-664q0 -252 207 -252q107 0 178 60.5t102 144.5v711h234v-1098h-217zM500 -397v239h262v-239h-262z" />
    <glyph glyph-name="uni1EE6" unicode="&#x1ee6;" horiz-adv-x="1552" 
d="M797 1626l-115 98q103 49 144.5 83t41.5 83q0 37 -23.5 57.5t-82.5 20.5q-108 0 -199 -67l-37 153q118 74 258 74q124 0 199.5 -56t75.5 -163q0 -51 -17.5 -92.5t-55 -75.5t-81 -59.5t-108.5 -55.5zM172 598v922h246v-924q0 -198 93 -302t267 -104t267.5 104t93.5 302
v924h239v-922q0 -304 -153.5 -465.5t-452.5 -161.5q-298 0 -449 161t-151 466z" />
    <glyph glyph-name="uni1EE7" unicode="&#x1ee7;" horiz-adv-x="1265" 
d="M651 1214l-114 99q105 51 145.5 84t40.5 82q0 37 -24 57t-83 20q-111 0 -198 -67l-37 153q118 74 258 74q123 0 198.5 -56t75.5 -163q0 -97 -64.5 -160t-197.5 -123zM889 0l-4 170q-132 -195 -363 -195q-174 0 -272 108t-98 302v713h233v-664q0 -252 207 -252
q107 0 178 60.5t102 144.5v711h234v-1098h-217z" />
    <glyph glyph-name="uni1EE8" unicode="&#x1ee8;" horiz-adv-x="1599" 
d="M705 1630l-125 78l321 320l217 -132zM1139 596v924h131q99 0 133.5 45.5t34.5 128.5q0 39 -11 102h207q11 -53 11 -119q0 -273 -267 -303v-776q0 -304 -153.5 -465.5t-452.5 -161.5q-298 0 -449 161t-151 466v922h246v-924q0 -198 93 -302t267 -104t267.5 104t93.5 302z
" />
    <glyph glyph-name="uni1EE9" unicode="&#x1ee9;" horiz-adv-x="1345" 
d="M618 1221l-137 57l242 424l221 -94zM872 387v711h140q35 0 59 6t46.5 23t34 53t11.5 92q0 46 -8 100h207q10 -72 10 -117q0 -278 -266 -305v-950h-217l-4 170q-132 -195 -363 -195q-174 0 -272 108t-98 302v713h233v-664q0 -252 207 -252q107 0 178 60.5t102 144.5z" />
    <glyph glyph-name="uni1EEA" unicode="&#x1eea;" horiz-adv-x="1599" 
d="M848 1630l-414 266l217 132l322 -320zM1139 596v924h131q99 0 133.5 45.5t34.5 128.5q0 39 -11 102h207q11 -53 11 -119q0 -273 -267 -303v-776q0 -304 -153.5 -465.5t-452.5 -161.5q-298 0 -449 161t-151 466v922h246v-924q0 -198 93 -302t267 -104t267.5 104t93.5 302z
" />
    <glyph glyph-name="uni1EEB" unicode="&#x1eeb;" horiz-adv-x="1345" 
d="M643 1221l-326 387l222 94l241 -424zM872 387v711h140q35 0 59 6t46.5 23t34 53t11.5 92q0 46 -8 100h207q10 -72 10 -117q0 -278 -266 -305v-950h-217l-4 170q-132 -195 -363 -195q-174 0 -272 108t-98 302v713h233v-664q0 -252 207 -252q107 0 178 60.5t102 144.5z" />
    </font>
</defs>
</svg>
